<?xml version="1.0" encoding="utf-8" ?>
<svg baseProfile="full" height="300mm" version="1.1" viewBox="0,0,200,300" width="200mm" xmlns="http://www.w3.org/2000/svg" xmlns:ev="http://www.w3.org/2001/xml-events" xmlns:xlink="http://www.w3.org/1999/xlink"><defs /><rect fill="#222222" height="300" width="200" x="0" y="0" /><text fill="#FFFFFF" style="font-size:12px; font-family:Arial; font-weight:bold;" x="10" y="20">Over 10km Runs</text><text fill="#FFFFFF" style="font-size:4px; font-family:Arial" x="10" y="280">Runner</text><text fill="#FFFFFF" style="font-size:9px; font-family:Arial" x="10" y="290">Floyd Li</text><text fill="#FFFFFF" style="font-size:4px; font-family:Arial" x="65" y="280">SPECIAL TRACKS</text><rect fill="yellow" height="2.6" width="2.6" x="65" y="283" /><text fill="#FFFFFF" style="font-size:3px; font-family:Arial" x="70" y="285.5">Over 20.0 km</text><rect fill="red" height="2.6" width="2.6" x="65" y="287" /><text fill="#FFFFFF" style="font-size:3px; font-family:Arial" x="70" y="289.5">Over 40.0 km</text><text fill="#FFFFFF" style="font-size:4px; font-family:Arial" x="120" y="280">STATISTICS</text><text fill="#FFFFFF" style="font-size:3px; font-family:Arial" x="120" y="285">Number: 27</text><text fill="#FFFFFF" style="font-size:3px; font-family:Arial" x="120" y="290">Weekly: 1.7</text><text fill="#FFFFFF" style="font-size:3px; font-family:Arial" x="141" y="285">Total: 387.9 km</text><text fill="#FFFFFF" style="font-size:3px; font-family:Arial" x="141" y="290">Avg: 14.4 km</text><text fill="#FFFFFF" style="font-size:3px; font-family:Arial" x="167" y="285">Min: 10.0 km</text><text fill="#FFFFFF" style="font-size:3px; font-family:Arial" x="167" y="290">Max: 52.6 km</text><polyline fill="none" opacity="1" points="27.534343556850217,64.17893542980892 25.080692298011854,60.829639813673566 19.77937279024627,55.47907332943578 17.52273002662696,51.51871693292924 16.55559741379693,47.305483487740275 16.501867824117653,44.01909817061096 17.271991941845044,39.616097647260176 18.34658373403363,37.08801411188324 20.19129964383319,34.83377863209171 21.641998563194647,33.590777820922085 23.307615841040388,32.68485698020959 26.49557149107568,31.80000000000291 29.790986320353113,32.031748645051266 32.065538947004825,33.50650629246957 33.40877868712414,35.887162943181465 33.48041814006865,38.22565576141642 32.69238415907603,41.090797897282755 32.56701511668507,42.60762079805136 32.97894197027199,45.55696486517263 34.07144362560939,47.7268109308643 36.05943844106514,50.00196338497335 37.93997407739516,52.993327121890616 39.17575463827234,56.30062654663925 39.56977162871044,58.87059117543686 27.426884377608076,64.17893542980892 24.973233118886128,60.68218522502866 19.833102379809134,55.56333535723388 17.45109057391528,51.22379355634621 16.663056592922658,48.27453524527664 16.412318508140743,44.75643303169636 17.182442625868134,40.016374532773625 18.63314154522959,36.60346102209587 20.513677181559615,34.47562666919839 23.432984883431345,32.62165304343216 26.60303067031782,31.80000000000291 29.558158098720014,31.947476442423067 31.940169904497452,33.38009893150593 33.26549978158437,35.402606867282884 33.53414772963151,38.057116676834994 32.60283484309912,41.9756126908178 32.85357292788103,45.114566100543016 33.98189430963248,47.62147915549576 37.814605035004206,52.52987940753519 38.96083627990447,55.58440085852635 39.53395190241281,58.97591687183012 30.561110438080505,62.64121565692767 27.49852383043617,64.19999999999709 25.080692298011854,60.85070474585518 21.28380129917059,57.248568263690686 19.313716346863657,54.91030368904467 17.898837153916247,52.31922099131043 16.895884814555757,49.454243925152696 16.412318508140743,45.47269851130841 16.663056592922658,42.62868769966008 17.45109057391528,39.11048356392712 18.86596976686269,36.30851507319312 20.030110875028186,34.939117319416255 22.824049534625374,32.89553662131948 26.08364463748876,31.86320420326956 29.46860878262669,31.92640838607622 31.958079767762683,33.4222347275645 32.88939265429508,34.58096555015072 33.35504909756128,35.73968948243419 33.53414772963151,37.53043109810096 32.60283484309912,42.12308143246628 32.88939265429508,45.367365517580765 34.01771403604653,47.66361187242728 36.02361871476751,50.02302948728902 37.74296558217611,52.635208530307864 38.81755737424828,55.142024854023475 39.58768149197567,58.786330577291665 27.408974514342844,64.09467712622427 24.955323255620897,60.724315118888626 20.155479917419143,55.96357949178491 17.6122793428367,51.708310296497075 16.716786182601936,48.400932945354725 16.44813823455479,44.94603297364665 17.236172215430997,39.72143374943698 18.43613305001054,36.94054155993217 20.209209506982006,34.79164314120135 22.680770628969185,33.00087635645468 25.474709288566373,31.98961254832102 29.164141108165495,31.86320420326956 31.492423324496485,33.00087635645468 33.10431101277936,35.107659100787714 33.53414772963151,37.63576832776016 32.584924979833886,42.20734923479904 32.88939265429508,45.304165694033145 33.69533649843652,47.15801866744005 36.36390611552633,50.402218939882005 38.17280229902826,53.47783946328855 39.139934911974706,56.27956112282118 39.56977162871044,58.74420026464213 27.462704104022123,64.13680628256407 25.331430382910185,61.10348375380272 20.119660191005096,55.90038310413365 17.77346811152529,52.045364709731075 16.645146729773842,48.063872229584376 16.44813823455479,44.440432718532975 17.182442625868134,39.88997139460116 18.077935785870068,37.57256599677203 20.012201011762954,34.939117319416255 22.913598850602284,32.87446866744722 25.72544737334829,31.92640838607622 28.8596734337043,31.821068070072215 31.5103331876453,32.958740469272016 33.050581423100084,35.02338822837919 33.51623786636628,37.1301491062477 32.60283484309912,41.51213877616101 32.817753201466985,45.24096585009829 34.250542257679626,48.04280591549468" stroke="#ffb000" stroke-dasharray="none" stroke-linecap="round" stroke-linejoin="round" stroke-width="0.5"><title>2026-05-24 23.2km</title><desc>1779623970000</desc></polyline><polyline fill="none" opacity="1" points="50.788844864378916,39.33392268713578 51.08674184699339,39.33392268713578 51.300701005799056,39.353264614930595 51.340201158185664,39.38034327882633 51.41261810424476,41.17904877377623 51.44882657726703,41.440136208164404 51.809265467840305,42.548265072415234 52.08412069491169,43.64085573661214 52.29314233465266,44.278975293598705 52.43468454739923,44.55355309746119 52.87741542213189,45.18583954652968 52.97122828406282,45.3927296690963 53.0288326729642,45.607351484373794 53.05187442852912,45.86450758070532 53.03870771106449,46.05978907503413 52.74739408716414,47.005230855733316 52.70131057604158,47.37836699022046 52.70624809509172,47.75342866565006 52.91197805547563,49.53389821067867 53.18189576348959,50.69371837563631 53.17366656506783,50.83675768032117 53.0288326729642,51.2156130435651 53.007436757092364,51.42243377695013 53.114416336480645,52.518350679627474 53.2954587016211,53.06145229936919 53.224687595247815,54.52445942353734 53.25760438889847,54.673265899526086 53.339896373057854,54.83753135943152 53.74312709539663,55.21630246872883 53.8336482779705,55.37476556714137 53.85339835417108,55.59120071515645 53.751356293811114,56.01440120618099 53.81225236208411,56.32937958621005 53.93075281926576,56.49362992871647 54.1381286193282,56.62502912340642 57.689850655289774,57.94476488928922 57.9564766839394,58.01239149501271 58.49302042060299,58.07035695484956 59.06906430966774,58.01239149501271 61.890033526367915,57.21438135732751 62.2833892106064,57.14288719684555 62.75080768058251,57.14095491829721 66.04742456568056,57.41147189677031 66.56915574520099,57.41147189677031 67.12380371837935,57.316791416787964 67.77391039316717,57.11197071517199 68.1639743980486,57.0327469884669 71.62352941176505,56.7873444511697 71.99384334044589,56.70425464484106 72.45138677232171,56.51488574584255 72.7459920755864,56.33131195189162 73.0916184090238,56.03565758934565 73.69399573300325,55.33611615961672 74.25522706492484,54.76989282227623 74.82633343492489,54.10702170114564 75.09954282231047,53.68570899358201 75.48960682718462,52.80053363904335 75.66571167326765,52.54734228362213 75.86485827492288,52.38885427792593 77.17659250228462,51.60799054144991 77.4382810118841,51.36444689540258 77.5304480341365,51.20981429713356 77.60451081987412,51.0010581802635 77.7723864675354,50.3438471728623 77.87936604693095,49.71947446485137 77.95013715330424,49.46817282797383 78.1278878390658,48.97715795437762 78.46199329472438,48.269608998582044 78.45705577567423,48.23287755466299 78.68747333130159,47.79789422162321 78.82736970435508,47.59876500550854 79.37543431879749,46.99943075104238 79.59926851569617,46.699756128629815 79.81816519353742,46.25893534399438 80.07491618408676,45.52421000427421 80.09960377933749,45.50680825044401 80.20000000000437,45.54741231648404 80.09466626028734,45.44106813945655 80.04858274916478,45.47780528995645 79.7243523316065,46.38460903807936 79.66181042365497,46.365274680814764 79.59926851569617,46.25120154949582 79.69966473635577,46.41941082874109 79.63547698872571,46.53541631085318 79.59926851569617,46.54895023498648 79.00347455044539,46.28407015312405 77.9073453215533,45.976649688367615 77.5189271563504,45.91091129634515 75.52252362084255,45.825837726131795 73.31874428527954,45.62281962426823 71.73380067053222,45.62281962426823 71.13306918622402,45.589949811070255 70.4401706796707,45.47780528995645 68.52605912831496,45.00215005795326 67.99774459007313,44.90160343729076 67.33776287717046,44.851329915945826 66.17086254190508,44.909337812707236 65.89765315452678,44.87840029107247 65.21462968607375,44.67150424574356 64.05925022858719,44.38919364863432 63.940749771405535,44.33505138329383 63.814020115816675,44.236434694998024 63.708686376106925,44.08947548836477 63.498018896672875,43.19609233652773 63.25937214264559,42.766788522352726 63.109600731484534,42.608214248113654 62.91703748857253,42.5115219303425 62.75245352026832,42.48638184245101 61.420969216706,42.58114045160437 61.277781164280896,42.571471228679 61.13953063090594,42.52312503595749 60.97823834197334,42.407093642443215 60.87125876257778,42.263987224674565 60.693508076816215,41.73989858124514 60.5964035355064,41.532966381140795 60.41042365133035,41.33570168994447 60.178360256017186,41.21192665961644 58.47491618409549,40.7303563149253 55.88436452300812,40.31453217231319 53.37116732702998,39.33585688084895 53.226333434926346,39.312646542493894 51.41920146296616,39.287501975404666 50.59957330082398,39.30490975637076 50.276988722944225,39.264291574529125 50.12721731179772,39.20819964850307 49.92313319109962,39.08247572936489 49.31252666869841,38.54281998244187 48.17854312709824,38.03022871091525 47.80000000000291,37.92964304515044 47.80822919841739,37.962526882514794 48.160438890583464,38.053440707575646 49.307589149648265,38.573768420810666 49.992258457779826,39.163712823934475 50.26711368485121,39.287501975404666 50.52386467540782,39.32812010473572 50.54526059128693,39.36873814215687" stroke="red" stroke-dasharray="none" stroke-linecap="round" stroke-linejoin="round" stroke-width="0.5"><title>2026-05-23 52.6km</title><desc>1779516240000</desc></polyline><polyline fill="none" opacity="1" points="110.03037507110275,38.018809552289895 108.48163414280862,39.60564691478794 108.1718859571265,41.5141236531781 104.7828763963189,41.599897456602775 104.40024628455285,39.77719613818044 103.16125354194082,38.640679763877415 102.21378850343172,36.60351144448214 102.28667042951565,35.273979763282114 103.03371017135214,33.51555318104511 104.1451595434919,32.46477862189931 105.78500287933275,31.82144450650958 107.26086188165937,31.842889010731596 108.42697269830387,32.336111966040335 109.57486303336918,33.27966550018755 110.23080036777537,34.39476842447766 110.50410759041552,35.85297046387859 110.32190277532209,37.2682739370066 109.4473196627805,38.76934232242638 108.46341366134584,39.60564691478794 108.281208846136,40.44194797464297 108.5909570318181,49.44804323249264 112.56302200094797,51.37786749537918 114.40329063346144,51.442194646879216 114.74947978218552,51.785272435459774 115.0774484493304,62.398947890731506 114.78592074511107,63.192270480969455 111.72487985156476,63.81406164103828 107.29730284458492,64.1571179972525 99.80868494417518,63.81406164103828 92.10142126551364,62.74200669808488 85.48738647752907,62.91353587892081 85.2322997363517,62.48471264823456 84.9225515506696,55.21601762980572 85.2322997363517,52.32133029009856 100.61038613051642,51.828157117182855 104.70999447023496,49.55525618496176 104.52778965514153,40.05596330908884 102.50531620753463,37.61137628562574 102.19556802196894,35.9816348340828 102.3231113924412,34.909429194172844 103.28879691241309,33.150999373960076 104.40024628455285,32.271778606809676 105.58457758266013,31.82144450650958 107.40662573371083,31.9072225093405 109.41087869973853,33.022333164160955 110.46766662737355,35.123870786716 110.32190277532209,37.311161763063865 109.61130399641115,38.66212352947332 108.53629558731336,39.58420325144834 108.29942932771519,40.33473008751753 108.51807510585058,49.10496139455063 108.75494136544876,49.53381359913328 112.23505333380308,51.29209792750771 114.7677002636483,51.72094539535465 114.93168459716253,63.04218266707903 112.01640755566768,63.79262059906614 105.16550650796853,64.17855899975984 100.24597650032956,63.85694371811405 92.84846100735012,62.76344785379479 85.61492984800134,62.87065359762346 85.28696118085645,62.5919185429957 84.94077203213237,54.74429368998972 85.14119732880499,52.32133029009856 100.08199216669891,51.87104178966547 101.77649694716092,51.399309881497175 104.74643543327693,49.51237101091829 104.49134869209956,40.09885053131438 102.72396198567003,38.1474725149601 102.21378850343172,35.4669768516178 102.74218246724922,33.88010631679208 103.90829328389373,32.59344519411388 105.09262458188459,31.971555987067404 106.29517636157107,31.79999999998836 108.8278232915327,32.572000771193416 110.28546181228012,34.45910109386023 110.37656421982683,37.09672253971803 109.72062688542064,38.44768576929346 108.3905317352619,39.79863978062349 108.29942932771519,40.420504401874496 108.49985462427139,49.25505977179273 112.08928948175162,51.20632832252886 114.71303881914355,51.63517597611644 115.0774484493304,61.434091808929224 114.8770231527742,63.08506491116714 111.70665936998557,63.83550268075487 105.56635710119735,64.19999999999709 100.84725239011459,63.92126681623631 93.23109111911617,62.78488900719094 85.2322997363517,62.82777130705654 85.0136539580999,52.38565713510616 100.9565752792405,51.785272435459774 104.52778965514153,49.72679678819259 104.80109687778167,49.36227282874461 104.81931735936087,47.79695643403102 104.54601013660431,40.52772224259388 104.36380532151088,39.86297069412831 102.90616680087987,38.40479818946915 102.3413318740204,37.2682739370066 102.21378850343172,35.53130917264207 102.45065476302989,34.523433742360794 103.36167883849703,33.06522191003023 105.47525469365064,31.885778012132505 107.26086188165937,31.885778012132505 109.11935099563561,32.722111682698596 110.26724133070093,34.45910109386023 110.50410759041552,36.62495543072873 109.84817025600933,38.3619106002152 108.3905317352619,39.755752493365435 108.33587029064074,41.364019407730666 108.08078354957979,41.55701055955433 104.65533302573022,41.44979327615874 104.45490772917401,39.927301586649264 102.760402948712,38.10458487001597 102.3231113924412,36.96805889418465 102.2320089850109,35.53130917264207 102.63285957812332,34.20177029083425 103.68964750564191,32.74355608932092" stroke="#ffb600" stroke-dasharray="none" stroke-linecap="round" stroke-linejoin="round" stroke-width="0.5"><title>2026-05-17 22.3km</title><desc>1779013233000</desc></polyline><polyline fill="none" opacity="1" points="148.97815852682106,38.539848589767644 149.35170536427177,38.899577880394645 149.771945556422,39.820230564921076 149.7823218574631,40.17385476705749 149.33095276221866,41.52736147133328 149.13899119294365,42.655258998827776 149.13380304243765,43.624623238265485 149.26869495594292,44.99633671902848 149.18049639713718,45.79496347949316 148.35039231384872,47.83110591700097 148.04429143315065,49.23929332759144 147.2608807045617,51.17168397694695 147.10004803843913,51.317982160748215 146.09354683748097,51.32407791021615 144.47484387506847,51.89097974119068 143.9819695756596,51.85440560080315 143.15705364290625,51.549620178735495 142.8924579663726,51.78125724911661 142.3477021617291,52.860185854082374 141.75625300238607,53.46974094966936 138.68486789430608,50.08662731513323 136.47990392314387,49.726969113980886 136.1634267413756,49.58676275562539 136.0181585268001,49.39778841892985 136.03372297837632,48.519963875009125 135.93514811850036,48.44681121530812 134.64848678943235,48.367562393978005 130.88188951159827,48.47119544571251 130.60691753402352,48.349274188676645 129.9999039231334,47.84939428969301 128.97265012009302,47.53849115061166 128.69248999198317,47.20929773055104 128.23593274620362,46.05100936857707 128.0128422738344,44.72199668217945 126.7624979983957,44.25866382308595 125.62110488390317,44.35011139830385 123.06853482784936,44.92927594391949 120.49002401920734,44.58177792766219 120.34475580463186,44.661032048978086 120.21505204163259,44.90489018780863 119.82075260209967,46.18512818161253 119.8726341072761,46.422883478328 120.88951160930446,47.87377877740073 123.83638110489119,48.44681121530812 124.73911929543829,49.19662149641954 124.92070456364308,49.891558743805945 125.45508406724548,51.165588211093564 125.57441152923275,52.0067976966202 126.27999999999884,54.99359998347427 126.31631705362815,55.53608390237787 126.83513210568344,58.18138047423781 127.22943154524546,58.864017598793 127.61335468373727,59.101719666374265 129.2683746997791,59.67463849889464 131.01159327462665,60.78998513662373 132.69774219373357,60.88750073856136 133.38257806244656,61.42383354869526 133.92214571658405,61.478685481684806 134.79375500400783,61.88702598015516 137.84957566051162,62.252701540332055 138.04153722975752,62.10643159949177 138.14530024019768,61.862647525536886 138.49290632506018,60.655900909823686 138.67449159326497,59.095624754027085 138.62261008805945,58.87620747267647 138.32169735789648,58.66897925985177 138.30094475581427,58.57145983853479 138.50328262610128,58.01681493667638 138.64855084064766,57.852248920982674 138.65373899118276,56.96236514519114 139.04285028020968,55.7920857447607 139.74325060046976,54.877788136680465 141.19593274619547,53.92690296544242 142.25950360289426,52.98819296844158 142.93396317053703,51.71420451040467 143.17780624498846,51.53742872774092 143.53578863089206,51.6654388323841 143.20374699760578,51.53133300125046 142.91839871896082,51.72639592334963 142.3528903122642,52.84799468523852 141.73031224979786,53.45145439225598 138.7367493995116,50.117106718706054 136.22049639714533,49.61724242828495 136.0233466773352,49.37950054640896 135.9818414731999,48.45290727390602 135.52528422736214,48.36146632619784 130.83000800639275,48.459003331841814 130.0414091272687,47.86158653484745 128.98821457166923,47.53849115061166 128.65617293835385,47.154431974431645 128.2048038430803,45.96566086755411 128.0439711769286,44.75857543056918 126.78325060047791,44.252567312803876 126.45639711769763,44.222084751629154 125.24236989588826,44.40497987253184 123.01146517213783,44.91708306718283 120.4173899119196,44.587874402470334 120.25655724579701,44.79515415534479 119.79999999998836,46.27047635173221 120.86875900719315,47.87987489769148 123.8675100080145,48.47119544571251 124.72874299439718,49.1783335589389 124.88438750998466,49.80012011963481 125.46027221775148,51.23873735810412 125.53809447557433,51.9092668025296 126.25924739791662,54.889978868548496 126.81437950360123,58.12652534820154 126.91814251401229,58.43737036007224 127.28131305042189,58.894492278592224 127.63929543635459,59.095624754027085 129.25281024820288,59.68073334893779 131.01678142513265,60.77779567455582 131.34882305844803,60.85093240748756 132.70811849477468,60.875311297506414 133.39295436348766,61.42992821052758 133.79763010406168,61.43602287172689 134.9027061649249,61.92359364238291 137.6109207365953,62.26489068500814 137.90664531625225,62.22832324307092 138.06747798237484,62.08814783035632 138.26462770215585,61.57619989809973 138.5344115292246,60.40601582209274 138.68486789430608,59.138289126687596 138.63817453963566,58.87620747267647 138.3632025620318,58.69945404459577 138.32169735789648,58.58364977538076 138.45658927140175,58.09605025519704 138.66411529222387,57.79739347616851 138.64855084064766,56.95017485941571 139.04285028020968,55.7920857447607 139.52016012810054,55.097220908810414 141.35676541231805,53.81718441824705 141.9897197757964,53.26858849349446 142.337325860688,52.89066376469418 142.91321056845482,51.76297014643569 143.14667734186514,51.549620178735495 143.9871577261656,51.860501292499976 144.516349079262,51.8970754289694 146.01572457965813,51.35455664764959 147.19862289831508,51.35455664764959 147.4424659727665,51.263120386120136 147.587734187342,51.086343195158406 147.69149719775305,50.54991247854923 148.18955964769702,49.355116707221896 148.44896717375377,47.88597101731648 149.16493194553186,46.19732078522793 149.32576461168355,45.59378375417509 149.4139631705475,44.715900221806805 149.35689351480687,42.55771199248193 149.70968775020447,40.98474330152749 150.06767013610806,40.10069132031276 152.20000000001164,36.161919486519764 151.90946357086068,36.02167952142918 151.90427542032558,35.759490828259004 151.4269655724638,35.43632634876485 151.4010248198465,33.74730460120554 151.2038751000946,33.73510931499186" stroke="#ff6800" stroke-dasharray="none" stroke-linecap="round" stroke-linejoin="round" stroke-width="0.5"><title>2026-05-16 35.3km</title><desc>1778887035000</desc></polyline><polyline fill="none" opacity="1" points="188.20000000001164,45.037582758421195 171.60991144942818,45.50566804372647 170.57806431566132,45.499742938576674 170.33646108434186,45.410866284306394 170.02439024389605,45.67157072707778 170.13009165757103,46.15150065447233 170.02942364456248,46.518851579174225 170.01432344259229,47.25354602293737 168.24759981356328,49.40424800011169 167.9254621718137,50.476604979878175 159.42404846978025,50.441057571737474 155.79999999998836,50.772832482285594 155.8553674071445,50.96241724157517 160.09349075655336,50.642492578946985 169.23917974211508,50.62471893169641 178.91840919683455,49.925617556567886" stroke="#4dd2ff" stroke-dasharray="none" stroke-linecap="round" stroke-linejoin="round" stroke-width="0.5"><title>2026-05-12 15.2km</title><desc>1778590468000</desc></polyline><polyline fill="none" opacity="1" points="38.326463151024655,77.94668684201315 37.81561338377651,79.04177358357992 36.37428725499194,80.60924015840283 36.155351640540175,82.24111000036646 32.67062644287944,82.30552563957463 32.433446193812415,80.73807247637887 30.736695181345567,78.76263440036564 30.189356145216152,76.89453898055945 30.42653639416676,75.241152487215 31.375257390434854,73.7595346934686 33.637592073646374,72.62147292628651 35.480300162453204,72.68589169133338 36.647956773173064,73.13682246046665 38.03454899834469,74.81169919391687 38.49066486186348,76.2718365953624 38.289973881910555,78.07552089028468 36.33779798599426,80.71660042917938 36.55673360032961,90.0996635172778 40.0961927017197,92.03204699739581 42.35852738493122,92.24675511056557 42.81464324845001,92.65469988487894 43.08831276651472,102.93892507835699 42.96060032478999,103.75476979619998 42.23081494309008,104.22709941462381 37.46896532760002,104.89265287661692 33.272699382854626,105.0 28.62031757447403,104.72089735831833 20.51969983766321,103.60448286352039 13.276579924393445,103.5400741432386 12.911687233485281,96.49792787568003 13.094133578939363,93.1485266466334 28.419626594521105,92.59028760783258 29.97042053064797,91.98910534691822 32.70711571199354,90.31437372283835 32.54291400115471,81.23192891971848 32.32397838658653,80.52335189987207 31.338768121320754,79.64299510476121 30.46302566328086,78.26877180569863 30.152866876102053,76.61539677386463 30.627227374119684,74.83317188070214 32.30573375208769,73.07240384195757 33.52812426642049,72.64294585028256 34.84173795336392,72.60000000000582 36.97636019485071,73.45891523903992 38.362952420138754,75.64913225408236 38.41768632386811,77.5601841948228 37.81561338377651,79.08471803842986 36.356042620376684,80.58776809721894 36.21008554415312,82.28405376210867 32.76184961560648,82.36994125787169 32.36046765570063,80.54482396796811 30.937386161414906,79.17060692020459 30.189356145216152,77.23809807986254 30.37180249055382,75.49882401661307 31.22930031409487,73.97426259609347 33.21796547912527,72.72883752304188 35.69923577690497,72.7717833455099 36.88513702224009,73.39449672517367 37.651411672937684,74.18899026609142 38.52715413097758,76.44361675903201 38.01630436372943,78.71968987578293 36.39253188949078,80.50187982941861 36.17359627503902,82.21963811590103 32.76184961560648,82.34846938739065 32.396956924698316,80.65218427362561 30.973875430529006,79.21355134708574 30.26233468321152,77.5601841948228 30.33531322143972,75.670604850151 31.08334323775489,74.081626460189 32.79833888472058,72.8791478608473 34.987695029820316,72.62147292628651 37.04933873307891,73.54480655823136 37.88859192200471,74.59697219842928 38.454175592865795,75.97122095065424 38.362952420138754,77.86079742999573 37.706145576550625,79.19207913479477 36.37428725499194,80.69512837965158 36.228330178768374,82.24111000036646 32.85307278833352,82.39141312600987 32.469935462926514,80.71660042917938 31.028609334025532,79.19207913479477 30.225845414213836,77.23809807986254 30.517759566777386,75.06937128154095 31.55770373577252,73.60922502324684 33.74705988087226,72.60000000000582 35.73572504601907,72.7717833455099 37.122317271190695,73.60922502324684 38.454175592865795,75.88533068279503 38.39944168925285,77.64607373709441 37.59667776932474,79.34238457208266 36.37428725499194,80.54482396796811 36.30130871676374,82.19816622916551 32.81658351921942,82.39141312600987 32.32397838658653,80.50187982941861 31.192811044980772,79.47121771337697 30.35355785593856,77.94668684201315 30.189356145216152,76.22889153112192 30.846162988687865,74.18899026609142 30.937386161414906,74.40371770359343 31.667171542998403,73.54480655823136 32.85307278833352,72.85767496246262 35.42556625884026,72.7073646083154 37.17705117492005,73.56627938218298 37.833858018391766,74.40371770359343 38.49066486186348,76.2074189955456 38.454175592865795,77.32398776175978 37.90683655650355,78.89146791839448 36.319553351379,80.65218427362561 36.21008554415312,82.24111000036646 32.87131742283236,82.39141312600987" stroke="#4dd2ff" stroke-dasharray="none" stroke-linecap="round" stroke-linejoin="round" stroke-width="0.5"><title>2026-05-11 15.3km</title><desc>1778503630000</desc></polyline><polyline fill="none" opacity="1" points="77.31496284063905,83.04723478254164 77.31496284063905,89.18843652692158 75.7555527780205,93.3531266193022 70.83741335058585,98.57659860374406 69.99773100926541,104.64706750086043 58.42211016151123,104.43530790973455 57.882314370712265,99.35305708140368 51.58469681092538,92.0119581388426 50.62505984934978,83.40017897891812 51.94456067169085,79.7295499931206 54.82347155595198,76.20007954741595 60.16145215416327,73.16471967560938 66.339115093695,72.81176993565168 73.11655113426968,76.05890033213655 76.95509898010641,81.84722308494383 77.55487208114937,87.77667113370262 75.87550739850849,92.85901223710971 70.4775494900532,99.21188288147096 69.81779907899909,104.57648097816855 58.542064781533554,104.57648097816855 57.702382440445945,99.14129576995037 53.98378921486437,95.4707554425695 51.164855640148744,90.8825509622111 50.44512791931629,84.74136518203886 51.10487833013758,81.70604509289842 54.883448865963146,75.98831071308814 62.20068069733679,72.67058998637367 68.97811673767865,73.51766922441311 75.99546201853082,78.88247882941505 77.43491746112704,84.24724427028559 77.37494015065022,88.62373073661001 74.61598388641141,94.83546751807444 70.65748142031953,98.71777294122148 70.17766293953173,104.43530790973455 59.08186057256535,104.92941351537593 57.702382440445945,99.00012152449926 54.28367576515302,95.89428038161714 50.8649690898601,90.459022766212 50.56508253957145,83.89430053270189 52.30442453222349,79.23542528151302 56.98265471914783,74.50592694379156 60.28140677441843,73.09412974282168 65.19954620185308,72.67058998637367 70.71745873056352,74.29415755852824 73.17652844428085,76.12948994344333 77.1950082203839,82.62370149453636 77.6748267011717,86.5060796647449 76.59523511934094,91.8001944423886 70.83741335058585,98.36483704007696 70.4775494900532,104.08237510506297 59.14183788280934,105.0 57.64240513020195,99.070708650921 52.12449260172434,93.07077558961464 50.325173298828304,86.64725661720149 51.344787570415065,81.00015467405319 54.703516935696825,75.91772108606528 62.380612627835944,72.60000000003492 69.0980713579338,73.58825911110034 74.01621078560129,76.90597516583512 76.41530318930745,80.57662005559541 77.61484939116053,85.23548571887659 76.05543932854198,92.85901223710971 70.5375268002972,98.92953438998666 70.17766293953173,104.50589444767684 59.08186057256535,104.92941351537593 57.76235975045711,99.35305708140368 51.94456067169085,92.85901223710971 50.44512791931629,88.62373073661001 51.46474219043739,80.9295655899914 54.5835623156745,76.41184831329156 61.18106642598286,72.81176993565168 67.77857053582557,73.16471967560938 73.65634692506865,76.6236170103075 77.49489477090538,83.32959015504457 76.59523511934094,91.30607888277154 74.31609733612277,95.25899286998902 70.65748142031953,98.85894724813988 70.17766293953173,104.43530790973455 58.901928642299026,104.85882702330127 57.76235975045711,99.21188288147096 53.74387997412123,95.3295804017107 50.92494639987126,90.3884347070125 50.505105229327455,83.75312298408244 52.66428839229047,78.52953218627954 55.78310851729475,75.14123468630714 59.44172443309799,73.23530960065546 65.19954620185308,72.67058998637367 70.83741335058585,74.22356774820946 76.17539394879714,79.80013920698548 77.55487208114937,83.61194540490396 77.25498553039506,89.54137739748694 75.03582505672239,94.553117130592 70.65748142031953,98.92953438998666 70.65748142031953,103.65885548695223 69.69784445897676,104.64706750086043 58.42211016151123,104.43530790973455 57.4624731997028,98.85894724813988 52.844220323022455,94.34135425969725 50.92494639987126,90.52961081796093 50.325173298828304,86.29431417922024 51.46474219043739,80.57662005559541 55.90306313778274,75.21182439714903" stroke="#4dd2ff" stroke-dasharray="none" stroke-linecap="round" stroke-linejoin="round" stroke-width="0.5"><title>2026-05-10 11.2km</title><desc>1778422578000</desc></polyline><polyline fill="none" opacity="1" points="105.03551804297604,72.75031043546915 106.95120425499044,72.60000000000582 109.085826034192,73.5662793822994 110.25348239205778,75.28409776558692 110.4724179591285,76.44361675929395 110.19874850020278,78.20435485517373 109.39598475431558,79.60005077131791 108.28306228818838,80.60924015881028 108.48375322471838,90.03525041080138 111.96847766754217,91.94616368760762 114.72341688675806,92.48293376687798 115.0153309762245,103.6044828636077 114.39501353609376,104.16269089662819 113.00842161127366,104.42032484344963 106.40386533737183,105.0 100.45611576468218,104.69942790809728 93.19475278945174,103.6259524323832 85.14887069887482,103.51860456528084 84.94817976246122,93.255880128243 88.232213268755,92.86940732423682 100.18244630575646,92.63322912866715 101.64201675308868,92.20381350698881 104.76184858416673,90.31437372336222 104.70711469242815,82.64907536251121 108.15534987405408,82.5202442863083 108.52024248579983,90.1855476279743 111.8590098839486,91.92469285427069 114.72341688675806,92.50440453985357 115.05182023742236,102.78863752748293 114.81464003981091,103.92652615133557 111.49411727220286,104.65648900064116 105.56461233017035,105.0 100.8574976377422,104.74236680628383 93.34070983424317,103.6474219988595 85.18535996007267,103.49713498484925" stroke="#4dd2ff" stroke-dasharray="none" stroke-linecap="round" stroke-linejoin="round" stroke-width="0.5"><title>2026-05-10 11.3km</title><desc>1778397813000</desc></polyline><polyline fill="none" opacity="1" points="140.69688342959853,72.59999999999854 140.72327865335683,72.83802551948247 139.33899580678553,73.04155317898403 138.52954227787268,72.91046771654874 138.18347156624077,72.90011884131309 133.01000770746032,72.88976996273414 132.15949494157394,72.8518240458834 131.59639683448768,72.86217293676964 131.4732191235671,72.90701809183884 131.4468238998088,76.40474608250588 131.33244459680282,76.73587206952652 131.3676382285048,78.75704582478284 131.30311657040147,87.63007170812125 131.34124300473195,90.5814532923032 131.27672134664317,102.66341653796553 131.30604937302996,103.96613455839179 131.4702863209386,104.07641513034832 134.82541254225362,104.11432398917896 134.88113579244236,104.16601781519057 134.88700139772845,104.25562024914325 134.76089088416484,105.0 134.90459821357217,104.27285145767019 134.83714375284035,103.2251771095689 134.87233738452778,102.70477348080749 135.06590235882322,101.95000085886932 136.45605081066606,99.1651149291065 137.16578904978815,98.03799439880095 137.64090307764127,97.41754412843875 137.55878460369422,97.33826350436357 137.29483236600936,97.67261958555173 136.4648492185952,99.04792381899097" stroke="#ffbb00" stroke-dasharray="none" stroke-linecap="round" stroke-linejoin="round" stroke-width="0.5"><title>2025-11-09 21.3km</title><desc>1762645227000</desc></polyline><polyline fill="none" opacity="1" points="185.70507407700643,84.82925732270814 183.79412692878395,93.26309360092273 178.30015387875028,99.16671377373859 178.35987097676843,104.1566365591716 166.6553196955938,104.85943950258661 165.5206948267296,98.95587112108478 160.74332695640624,94.24703402654268 158.2949259232264,88.20280498830834 158.6532285134308,82.72078112472082 161.69880053051747,77.09814443375217 167.670510367956,73.30283712339588 175.07543056621216,72.88113494071877 180.80827201041393,75.62219422898488 185.28705438855104,82.50993312813807 185.0481859948486,90.38154520094395 182.36091656796634,95.16069165692898 178.59873937047087,98.60446654766565 178.30015387875028,104.36747752223164 167.133056482533,104.85943950258661 165.58041192474775,98.81530931452289 159.2503994971048,91.50605341605842 158.35464302171022,85.81321053695865 159.60870208754204,80.40144939348102 164.44578705588356,74.84907611488597 171.79099015588872,72.59999999997672 178.77789066568948,74.14624066650867 181.70402848604135,76.74672802287387 184.86903469963,81.8071059777867 185.5259227817878,85.81321053695865 184.9884688963648,89.88957224384649 183.31639014184475,93.96590834268136 178.4793051739689,98.74502839992056 178.30015387875028,104.226916887681 168.98428653203882,105.0 166.53588549909182,104.64859869936481 165.87899741646834,99.30727550428128 161.04191244835965,94.52815958816791 159.31011659558862,91.50605341605842 158.4143601199612,85.60236354509834 159.72813628427684,80.26088356773835 164.92352384258993,74.56794202682795 172.4478782378137,72.67028374655638 179.01675905915909,74.21652424574131 183.7344098307658,79.41748797264881 185.16762019181624,82.86134641768876 185.28705438855104,89.39759891387075 183.31639014184475,93.8956269028713 178.65845646872185,98.18278080818709 178.35987097676843,104.1566365591716 166.8344709908124,104.85943950258661 165.69984612148255,98.95587112108478 161.04191244835965,94.59844095952576 158.7129456116818,88.90562521095853 158.593511414947,83.28304211393697 161.34049794031307,77.66041029547341 166.47616840037517,73.72453903197311 173.64222020539455,72.81085121713113 178.77789066568948,74.28680781711591 184.271863715956,80.19060064328369 185.46620568353683,84.68869245587848 184.809317601379,90.80323600984411 182.48035076470114,94.87956636905437 178.4793051739689,98.6747474775766 178.24043678026646,104.226916887681 174.8962792714592,104.85943950258661 166.5956025973428,104.789159242413 165.75956321996637,98.95587112108478 161.34049794031307,94.94984770251904 159.4892678905744,91.71689848945243 158.593511414947,83.21275951695861 163.01257669483311,75.97361124877352 169.46202331897803,72.88113494071877 177.64326579659246,73.86510627390817 183.31639014184475,78.7849405570305 185.406488585053,84.54812755878083 184.9287517981138,90.45182702160673 182.30119946948253,95.23097295983462 178.59873937047087,98.46390466514276 178.35987097676843,104.226916887681 174.65741087775677,104.789159242413 166.53588549909182,104.64859869936481 165.81928031845018,99.02615201310255 161.22106374357827,94.87956636905437 158.77266271039844,89.88957224384649 159.19068239885382,81.38540932221804 163.72918187524192,75.41134392551612 169.04400363052264,72.95141865679761 175.7920357468538,73.16226975951577 179.97223263327032,75.05992660083575 183.01780465012416,78.36324193736073 185.46620568353683,84.40756263118237" stroke="#4dd2ff" stroke-dasharray="none" stroke-linecap="round" stroke-linejoin="round" stroke-width="0.5"><title>2025-11-01 10.0km</title><desc>1761964262000</desc></polyline><polyline fill="none" opacity="1" points="34.1343061204534,145.44783476460725 22.763397213770077,145.79999999998836 21.865693878848106,140.0244660580065 16.59916764847003,134.81235481030308 14.384832756128162,128.6845489696716 14.923454756848514,122.55668538459577 17.676411650143564,118.18966689985245 21.14753121114336,115.30178372765658 27.730688999406993,113.39999999996508 33.1169090080075,114.38611077528913 36.4084879020229,116.14701915415935 40.777310797944665,122.20450756180799 41.61516724363901,128.47324429033324 39.7599136850331,134.53061787731713 34.49338745442219,139.81316506303847 34.19415300968103,145.44783476460725 22.524009657558054,145.58870088175172 21.626306323334575,139.74273138289573 17.257483427179977,136.00973541470012 15.402229868806899,132.5584559274139 14.624220312107354,124.52887766790809 18.15518676210195,117.83748671191279 24.1997225494124,114.17480144934962 31.022267893655226,113.96349205472507 37.24634434771724,117.13312576361932 40.83715768670663,122.55668538459577 41.675014132633805,128.6845489696716 39.7599136850331,134.46018362499308 34.61308123264462,139.32012914126972 34.074459231924266,145.5182678271667 22.583856546785682,145.65913392871153 21.865693878848106,139.81316506303847 15.761311202775687,133.4741032908787 14.324985867366195,126.923674541933 14.983301645843312,122.83842750557233 17.018095871433616,119.24620631948346 22.10508143506013,114.87916560214944 29.40640189102851,113.54087305947905 36.76756923599169,116.78094500349835 41.076545242685825,123.47234683122952 41.61516724363901,128.96628843579674 39.221291684312746,135.0940916214604 34.61308123264462,139.3905628672219 33.83507167571224,145.65913392871153 22.64370343601331,145.65913392871153 22.0452345458325,139.74273138289573 17.79610542813316,136.22103764553322 15.3423829798121,132.06541450542863 14.684067200869322,123.89495937188622 18.813502540811896,117.06268962682225 24.85803832835518,113.89305557473563 32.51844011829235,114.24523789883824 38.20389457186684,118.40097492118366 41.19623902067542,124.5993129958515 41.375779687659815,129.6706365668797 39.580373018048704,134.67148635914782 34.55323434364982,139.672297695186 34.3138467874378,145.23653553205077 33.53583723097108,145.58870088175172 22.583856546785682,145.65913392871153 21.626306323334575,139.672297695186 17.5567178723868,136.22103764553322 15.3423829798121,132.27671801747056 14.684067200869322,124.10626553930342 18.69380876305513,117.27399801439606 25.336813440080732,113.89305557473563 33.23660278576426,114.45654720207676 38.14404768263921,118.11923087754985 41.25608590967022,124.52887766790809 41.31593279889785,130.44541862956248 38.80236346134916,135.7984331154148 34.672928121406585,139.60186399973463 34.074459231924266,145.44783476460725 22.583856546785682,145.65913392871153 21.925540768075734,139.95403240062296 17.736258539138362,136.0801694992697 15.3423829798121,132.27671801747056 14.863607868086547,123.6836531359586 18.514268096070737,117.62617850751849 25.815588551806286,113.68174608843401 33.475990341743454,114.31567434087628 38.383435238618404,118.18966689985245 41.31593279889785,124.45844233216485 41.25608590967022,130.51585331669776 39.46067924005911,134.88278902485035 34.55323434364982,139.81316506303847 34.79262189939618,145.0252362305182" stroke="#4dd2ff" stroke-dasharray="none" stroke-linecap="round" stroke-linejoin="round" stroke-width="0.5"><title>2025-10-27 10.0km</title><desc>1761565093000</desc></polyline><polyline fill="none" opacity="1" points="77.55441153678112,125.4971312553389 77.073545495281,130.8028198897373 75.63094737194479,134.48140537529252 70.40152917359956,139.71627976890886 70.40152917359956,145.02185289829504 58.6203111638315,145.51703752478352 57.778795591555536,139.71627976890886 52.91002692445181,135.11808152933372 50.50569671811536,129.9539126046584 50.44558846321888,123.87004477181472 53.390892965719104,117.85686390008777 60.303342307917774,113.61223230400356 68.8988227949012,113.89520860189805 71.72391078690998,115.38083215500228 74.96975656482391,118.91801748872967 77.61451979191042,125.56787405401701 75.99159690272063,133.56176094623515 70.46163742872886,139.5040559474146 70.28131266334094,145.02185289829504 58.50009465357289,145.51703752478352 57.71868733642623,139.71627976890886 53.6313259860035,136.1084654238657 50.68602148373611,130.59059317200445 50.625913228373975,123.23335765313823 53.15045994496904,118.49355626036413 59.582043246366084,114.03669670503587 66.37427607853897,113.54148821049603 71.18293649074621,115.31008825288154 73.64737495174631,117.36165830219397 77.61451979191042,124.50673126982292 77.49430328165181,129.246489024139 76.11181341321208,133.6325028714491 70.46163742872886,139.5040559474146 70.28131266334094,145.0925935821142 58.92085243947804,145.65851877751993 57.59847082616761,139.78702102752868 53.45100122061558,136.1084654238657 50.385480207856745,129.0342618006398 50.866346249124035,122.95038540131645 53.330784710356966,118.21058195462683 60.243234052788466,113.75372046825942 68.77860628440976,114.10744074510876 72.02445206278935,115.59306381526403 74.18834924814291,117.92760752618778 77.43419502628967,124.93118859041715 77.37408677162603,129.74168561090482 75.93148864759132,133.91547049529618 70.40152917359956,139.71627976890886 70.28131266334094,145.0925935821142 58.74052767385729,145.58777815493522 57.89901210181415,140.1407272052602 52.068511351943016,133.98621238209307 50.32537195272744,129.1050042163115 51.22699577989988,121.18180604849476 53.27067645499483,118.2813255424262 60.42355881840922,113.75372046825942 66.73492560954764,113.68297638994409 73.04629240045324,116.7249648385332 77.25387026113458,123.65781580127077 77.43419502628967,129.6002009101212 75.21018958603963,134.97659799299436 70.58185393898748,139.36257336154813 70.2212044079788,145.16333425824996 58.800635929219425,145.79999999998836 57.89901210181415,140.0699859848828 53.330784710356966,135.75475706235738 50.80623799399473,130.73207765806 50.68602148373611,124.01153071387671 53.21056820009835,118.49355626036413 58.6203111638315,114.46116083022207 64.81146144447848,113.39999999996508 71.78401904203929,115.59306381526403 76.3522464337293,121.04031949356431 77.67462804727256,125.709359628323 77.13365375064313,131.01504653855227 75.27029784116894,134.97659799299436 70.521745684091,139.36257336154813 70.34142091870308,145.23407492687693 58.50009465357289,145.37555624119705 57.83890384645201,139.78702102752868 53.6313259860035,136.03772376687266 51.22699577989988,132.14692083455157 50.385480207856745,124.22375956975156 53.571217730874196,117.99835114489542 56.45641397824511,115.59306381526403 61.44539915560745,113.61223230400356 69.49990534642711,114.39041682856623 72.80585937970318,116.65422108216444 75.27029784116894,119.83768253738526 76.17192166857421,118.84727396967355 71.48347776639275,114.24892880214611" stroke="#4dd2ff" stroke-dasharray="none" stroke-linecap="round" stroke-linejoin="round" stroke-width="0.5"><title>2025-10-19 10.0km</title><desc>1760866141000</desc></polyline><polyline fill="none" opacity="1" points="106.0876956556458,144.95296168123605 94.57205461268313,145.58824052341515 93.55244056158699,139.37659860408166 87.5547108517494,132.88254602259258 86.29518761276267,126.03548571886495 89.41400706209242,118.27069111017045 95.83157785166986,114.10589951806469 103.02885350352153,113.75294985453365 109.44642429309897,117.2824378865771 112.98508482216857,123.0707568777143 113.4649031991139,128.92961276887218 111.24574320623651,134.92959132033866 106.50753673561849,139.2354242358124 105.84778646728955,145.3764809782151 94.51207731547765,145.4470675008488 93.79234975017607,139.9412957703462 89.77387084439397,136.34134295181138 87.25482436618768,132.10607888293453 86.5350968008861,124.12959015497472 90.0737573299557,117.70597516588168 97.2710329820402,113.54117996484274 104.16842214833014,114.0353096005856 110.10617456166074,117.9883331990568 113.34494860493578,123.91782363713719 113.52488049608655,129.35314247873612 111.48565239435993,134.6472406272078 106.44755943841301,139.51777294132626 106.14767295285128,145.3764809782151 94.45210001827218,145.4470675008488 93.79234975017607,140.15305708145024 89.41400706209242,135.84723022859544 86.5350968008861,130.2707892387989 86.83498328668065,122.01192188006826 90.01378003298305,117.42361701047048 92.35289461980574,115.72946550755296 99.31026108330116,113.39999999996508 106.5675140323583,115.16474736132659 110.16615185840055,118.05892268836033 112.9251075249631,122.29427804768784 113.34494860493578,130.34137739764992 111.48565239435993,134.78841598896543 106.62749132956378,139.58836009859806 106.50753673561849,145.164721364039 95.83157785166986,145.79999999998836 94.45210001827218,145.4470675008488 93.6124178590253,139.72953439014964 89.17409787350334,135.35311713069677 86.4151422069408,129.42373073700583 86.2352103155572,124.62371176225133 89.41400706209242,118.27069111017045 91.99303083727136,115.94123468635371 96.67126001091674,113.89412974292645 103.74858106859028,113.89412974292645 108.96660591638647,116.85890033218311 113.4649031991139,124.05900132335955 112.9251075249631,131.32961081835674 111.24574320623651,134.92959132033866 106.3875821409747,139.16483704023995 106.20765024982393,145.164721364039 94.81196380103938,145.51765401603188 93.55244056158699,139.65894724824466 88.15448382287286,134.15312661946518 86.35516490996815,129.56490723026218 86.5350968008861,123.84723478276283 89.05414327932522,118.76481715991395 91.93305354029872,115.94123468635371 96.13146433723159,113.96471967548132 103.62862647441216,113.96471967548132 109.98621996701695,117.77656468586065 113.7647896844428,125.82371982041514 111.66558428574353,134.43547752685845 106.50753673561849,138.95307540812064 106.32760484423488,145.164721364039 94.3921227210667,145.51765401603188 93.67239515599795,139.9412957703462 88.33441571425647,134.3648898114334 86.35516490996815,128.85902445705142 87.25482436618768,121.87074375041993 90.37364381551743,117.3530274523655 95.2318048805464,114.2470793298562 102.90889890957624,113.68235989898676 107.46717348904349,115.72946550755296 111.54562969179824,119.89424672356108 113.4049259016756,125.11783299490344 113.34494860493578,129.91784833010752 111.00583401764743,135.14135426015127 106.44755943841301,139.3060114235268 106.5675140323583,144.81178852106677" stroke="#4dd2ff" stroke-dasharray="none" stroke-linecap="round" stroke-linejoin="round" stroke-width="0.5"><title>2025-10-16 10.0km</title><desc>1760611285000</desc></polyline><polyline fill="none" opacity="1" points="148.37012003385462,133.31120191910304 142.36697354679927,139.80540646257577 142.30633570323698,145.37181655596942 130.66386978910305,145.72863611206412 129.87557782582007,140.01950002816739 124.47880977159366,134.80987018719316 122.35648525645956,129.3147365388577 122.72031231597066,122.96316132496577 126.11603154125623,117.467928871396 133.39257273776457,113.40000000002328 140.24464903096668,113.89957156503806 145.88396845874377,117.25382797810016 149.6435147433076,125.10414857516298 148.552033563843,132.95437563839369 142.54888707678765,139.5199482673197 142.30633570323698,145.37181655596942 130.6032319457736,145.79999999998836 129.75430213939399,140.01950002816739 124.66072330181487,135.02396537578898 122.47776094288565,129.8142960369587 122.65967447287403,123.24862669373397 126.35858291434124,116.9683600118151 134.12022685725242,113.40000000002328 142.12442217348143,114.25640816544183 148.24884434742853,120.60806731425691 149.58287689997815,125.46097910718527 148.24884434742853,133.45393237710232 142.42761139036156,139.5199482673197 142.42761139036156,145.2290886795381 130.66386978910305,145.72863611206412 129.87557782582007,140.162229032896 124.1149827123154,134.16758420394035 122.47776094288565,129.38610220473493 122.72031231597066,123.03452767874114 126.1766693845857,117.32519494998269 133.2106592077762,113.54273477132665 141.5180437406525,114.25640816544183 146.73289826489054,118.18159801344154 149.6435147433076,125.24688081117347 148.309482190758,133.45393237710232 142.54888707678765,139.59131282765884 142.24569786037318,145.44318048283458 130.66386978910305,145.72863611206412 129.75430213939399,139.87677099218126 124.60008545848541,134.66714002302615 122.35648525645956,129.24337086523883 122.59903662954457,123.46272563905222 124.72136114514433,118.82389958039857 131.81598881166428,113.97093890060205 139.21380569483154,113.61410214554053 142.73080060677603,114.82734632404754 146.12651983159594,117.75339662085753 149.6435147433076,125.38961301627569 149.52223905688152,129.67156479042023 148.06693081744015,133.81075838720426 142.48824923322536,139.80540646257577 142.42761139036156,145.44318048283458 130.72450763219967,145.79999999998836 129.87557782582007,140.09086453425698 125.20646389154717,135.66625052440213 122.41712309932336,129.74293041747296 122.72031231597066,122.74906221742276 125.81284232484177,117.75339662085753 132.9074699911289,113.61410214554053 140.97230315068737,114.04230622830801 146.42970904824324,118.1102311341092 149.52223905688152,125.17551469715545 148.4307578774169,132.88301035913173 145.7626927716192,136.8794540964882 142.48824923322536,139.66267738031456 142.48824923322536,145.2290886795381 130.72450763219967,145.72863611206412 129.69366429606453,139.80540646257577 124.78199898847379,135.16669546306366 122.47776094288565,129.8142960369587 123.08413937594742,121.2503665155964 125.50965310819447,118.1102311341092 133.0893835213501,113.54273477132665 140.9116653073579,113.97093890060205 146.73289826489054,118.4670654538204 149.4009633702226,124.39048693160294 148.8552227804903,131.74116483924445" stroke="#4dd2ff" stroke-dasharray="none" stroke-linecap="round" stroke-linejoin="round" stroke-width="0.5"><title>2025-10-08 10.1km</title><desc>1759919017000</desc></polyline><polyline fill="none" opacity="1" points="184.65035375836305,121.19883364823181 185.79490957432427,128.14680717384908 183.44555816217326,134.81112064624904 178.5661359981168,139.4193828352145 178.38541665882803,145.30373200657777 166.5784198178444,145.5873137632152 165.97602201951668,140.12834336905507 162.12067611259408,136.58353301970055 159.4098860216327,132.47152896458283 158.50628932449035,124.53103423665743 161.7592374337837,117.93751451798016 168.08441431284882,114.03808987996308 174.34935141238384,113.54179780505365 181.51788520859554,116.94493590533966 185.2527515559923,123.11307861295063 185.61419023480266,128.64308817504207 183.80699684098363,134.1730510169291 178.5058962185867,139.56117500329856 177.96373820025474,145.37462745740777 166.63865959784016,145.72910459531704 165.85554246022366,139.91565528948558 159.4098860216327,132.75511628051754 158.44604954472743,125.3818061365746 161.6989976540208,118.22110813116888 167.90369497332722,114.10898871714016 174.22887185262516,113.54179780505365 181.33716586907394,116.73224029230187 185.07203221693635,122.54589550336823 185.67443001479842,128.5012936416897 183.44555816217326,134.81112064624904 178.5058962185867,139.7029671408818 178.08421775978059,145.4455229002633 166.51818003784865,145.65820918307872 165.43386400165036,139.4193828352145 161.7592374337837,136.29994736239314 159.10868712258525,132.2588383971015 158.44604954472743,125.09821562591242 161.51827831496485,118.5047016213066 164.8917059833184,115.38516647240613 167.90369497332722,114.10898871714016 175.19270832953043,113.61269669578178 182.1202830064576,117.72481922793668 184.65035375836305,121.19883364823181 185.61419023480266,128.71398543013493 183.7467570612207,134.24394767323975 178.5661359981168,139.4193828352145 178.08421775978059,145.37462745740777 166.759139157366,145.79999999998836 165.79530268046074,139.7738631980028 162.54235457116738,137.363392943691 159.83156447997317,133.53498076560209 158.38580976519734,125.52360134560149 161.0363600763958,119.07188823266188 166.87961871665902,114.46348278759979 174.34935141238384,113.54179780505365 180.73476807121187,116.23595026013209 184.5901139783673,121.12793557916302 185.5539504555054,128.71398543013493 183.62627750146203,134.52753422112437 178.68661555810831,139.20669452490984 178.14445753977634,145.37462745740777 166.63865959784016,145.65820918307872 165.91578224021941,140.12834336905507 160.49420205806382,134.59843083878513 158.20509042567573,126.37437195534585 159.4098860216327,121.83691592520336 162.00019655306824,117.65392078226432 166.5784198178444,114.53438157873461 170.37352594546974,113.40000000002328 175.25294810906053,113.82539332244778 180.91548741050065,116.51954461040441 184.46963441884145,120.98613941774238 185.49371067550965,129.49385473009897 183.7467570612207,134.31484432169236 178.5058962185867,139.7029671408818 177.96373820025474,145.30373200657777 166.93985849665478,145.79999999998836 165.85554246022366,139.8447592476732 161.21707941545174,135.590982681897 159.04844734282233,131.33717847272055 158.38580976519734,127.29603886796394 160.13276337925345,120.2062599810888 163.80738994688727,116.23595026013209 170.3132861657068,113.54179780505365" stroke="#4dd2ff" stroke-dasharray="none" stroke-linecap="round" stroke-linejoin="round" stroke-width="0.5"><title>2025-10-01 10.0km</title><desc>1759271073000</desc></polyline><polyline fill="none" opacity="1" points="41.7044140889775,170.47125266090734 40.37623298773542,174.2370309161488 34.64090550574474,180.20538990717614 34.459789901040494,186.17369459959446 22.868391200201586,186.52894911903422 21.600581967039034,180.48959612398176 16.95194811327383,176.08438593003666 14.778560856822878,171.6791461542016 14.23521404271014,167.06071785028325 15.623767012031749,161.73172171000624 20.755375811830163,156.18951979995472 27.758512526983395,154.19999999995343 34.33904616441578,155.47897770704003 37.23689583968371,157.46849362767534 39.9536299102474,161.0922392642242 41.76478595705703,166.4212405991857 40.73846419714391,173.1712468105834 38.50470507261343,176.79490570403868 34.64090550574474,179.99223516415805 34.52016176912002,185.88949084543856 30.354502861155197,186.45789823064115 22.445788122247905,186.38684733456466 21.72132570366375,180.7027507055318 17.193435586290434,176.43964591331314 14.597445252118632,171.75019864330534 14.899304593447596,163.57911194121698 17.133063717745245,159.4580035143299 20.272400866029784,156.54479055776028 25.886984611861408,154.34210875729332 34.33904616441578,155.47897770704003 39.9536299102474,160.87907831021585 41.64404222089797,165.6396564457682 41.523298484506086,170.8265156839043 38.98768001841381,176.51069788675522 34.64090550574474,180.34749303077115 34.097558691632,186.24474551877938 22.566531859105453,186.38684733456466 21.84206944028847,180.7027507055318 15.020048329839483,173.2422991382191 14.23521404271014,168.9791458629188 14.778560856822878,163.6501653076266 18.521616687532514,158.03692563943332 25.705869007157162,154.41316312440904 33.493840009206906,155.26581492897822 37.78024265356362,158.25008751702262 41.28181101125665,164.50280510575976 41.58367035235278,170.5423052808037 39.04805188672617,176.22648994647898 34.58053363743238,180.27644147298997 34.58053363743238,185.81843988777837 33.8560712186154,186.31579643045552 22.566531859105453,186.38684733456466 21.78169757174328,180.7027507055318 17.79715426824987,177.07911339821294 15.201163934543729,172.8159850575612 14.416329647414386,165.28439061366953 18.099013609578833,158.32114146085223 25.585125270532444,154.41316312440904 34.822021110448986,155.6921404157183 39.65177056891844,160.59486359736184 41.64404222089797,166.06597519019851 41.16106727486476,172.17651341680903 38.74619254563004,176.72385376138845 34.76164924213663,180.1343383337953 34.459789901040494,186.03159273788333 30.414874729234725,186.59999999997672 22.566531859105453,186.59999999997672 21.72132570366375,180.5606476587709 17.31417932244949,176.51069788675522 14.71818898874335,171.75019864330534 14.899304593447596,163.72121866652742 19.97054152493365,156.54479055776028 25.162522193277255,154.48421748389956 30.294130992842838,154.19999999995343 33.493840009206906,155.12370637181448 38.14247386297211,158.53430324589135 41.16106727486476,164.07648534525651 41.64404222089797,170.11598944553407 39.772514305543154,175.30281328980345 34.64090550574474,180.20538990717614 34.037186823319644,186.31579643045552 22.566531859105453,186.52894911903422 21.540210099192336,180.7027507055318 17.133063717745245,176.72385376138845 15.261535802623257,173.1001944753807 14.2955859110225,166.27913445868762 17.676410532090813,158.96062660822645 21.600581967039034,155.83424884971464 26.309587689349428,154.34210875729332 30.23375912453048,154.27105438249419 34.822021110448986,155.76319463644177 40.07437364663929,161.02118562045507" stroke="#4dd2ff" stroke-dasharray="none" stroke-linecap="round" stroke-linejoin="round" stroke-width="0.5"><title>2025-09-27 10.0km</title><desc>1758965825000</desc></polyline><polyline fill="none" opacity="1" points="77.37996181007475,171.20149380428484 74.1237764141988,177.2633931734017 70.33476068009622,180.81689383310732 70.39396405103616,186.46064865530934 58.553289882838726,186.46064865530934 58.079662915552035,180.6078649259871 53.99463032791391,177.4724231674336 51.09366515651345,172.5253617602284 50.91605504415929,164.3034008992836 54.46825729450211,158.58977298962418 56.95479886978865,156.0116559752496 59.914967411896214,154.89679136365885 66.90096517116763,154.89679136365885 74.597403380787,157.9626643966767 77.43916518124752,165.27889327530283 77.61677529383451,169.38988060760312 76.07748765172437,174.47632009768859 70.33476068009622,180.88657012052136 70.33476068009622,186.39097297179978 58.494086511665955,186.59999999997672 58.020459545077756,180.6078649259871 52.10012246086262,174.05825809494127 50.44242807733826,166.4634177433909 51.44888538168743,162.97951602272224 54.76427414896898,158.45041557739023 60.033374153776094,155.10582862532465 67.61140562128276,154.96647045837017 72.05165843456052,156.56908755667973 74.36058989726007,158.58977298962418 77.49836855195463,166.39373989403248 77.26155506866053,171.34084845421603 74.00536967231892,177.82080633967416 70.45316742174327,180.39883595093852 70.03874382609501,186.25162158190506 58.494086511665955,186.53032433136832 57.783646061550826,180.18980690772878 52.21852920250967,175.10341259243432 50.56083481898531,170.43504269002005 50.38322470639832,166.67245124664623 51.74490223568864,162.21305511204991 57.606035948963836,156.0116559752496 65.53928764211014,154.68775403365726 73.65014944714494,157.2658763541258 76.78792810207233,162.97951602272224 77.37996181007475,169.80794564436655 75.42625057231635,175.45179704780458 70.51237079268321,180.39883595093852 70.15715056750923,186.53032433136832 58.494086511665955,186.46064865530934 57.842849432490766,180.7472175383009 53.34339324850589,176.70597952441312 50.56083481898531,170.2956878435798 51.62649549427442,162.21305511204991 56.65878201578744,156.91748204967007 61.51345842471346,154.75743315112777 72.28847191762179,156.29037182655884 74.77501349314116,158.52009428711608 77.08394495607354,164.93050331104314 77.43916518124752,169.80794564436655 74.83421686384827,176.42727251863107 70.39396405103616,180.67754123586928 70.03874382609501,186.39097297179978 58.434883140958846,186.3212972805486 57.606035948963836,180.39883595093852 53.6986134739127,177.19371649378445 51.56729212333448,173.77954994211905 50.56083481898531,165.76663890859345 53.16578313615173,160.19238106085686 57.961256174137816,155.31486581935314 63.7631865167059,154.19999999995343 73.94616630137898,157.61427046952303 76.90633484348655,163.53694156609708 77.43916518124752,170.01697806076845 75.48545394302346,175.45179704780458 70.45316742174327,180.53818860842148 70.0979471965693,186.46064865530934 58.553289882838726,186.59999999997672 57.783646061550826,180.7472175383009 53.81702021532692,177.05436311167432 51.33047864004038,172.5253617602284 50.9752584148664,164.23372281581396 54.52746066567488,158.52009428711608 57.72444269107655,155.80261900782352 60.743814603891224,154.61807490856154 72.70289551373571,156.29037182655884 74.83421686384827,158.1717006623512 77.26155506866053,165.00018131895922" stroke="#4dd2ff" stroke-dasharray="none" stroke-linecap="round" stroke-linejoin="round" stroke-width="0.5"><title>2020-04-24 10.0km</title><desc>1587724293000</desc></polyline><polyline fill="none" opacity="1" points="99.38102685590275,154.7550459173508 92.01229895441793,157.18336615036242 89.65430602594279,159.33415638300357 86.82471451163292,165.43958608066896 86.88366433465853,170.98992621415528 89.06480779359117,176.12394801946357 94.07554276683368,180.70290572370868 95.01873993850313,186.59999999997672 106.33710599527694,185.76747233432252 106.16025652573444,180.4947719926131 111.28889114549384,175.36078521958552 112.88053637230769,170.92054725938942 112.7626367257908,165.92524276243057 110.99414202943444,161.13803939614445 105.86550740967505,155.93451689486392 102.85906642582268,154.963188012538 98.3199300384149,155.1019493714557 90.12590461154468,159.05663546861615 86.29416610277258,168.00662437040592 87.7089618598111,173.97321416332852 94.07554276683368,180.84166150685633 94.78294064546935,186.3918681849027 106.27815617248416,185.90622702043038 106.27815617248416,180.56414991052588 111.58364026155323,174.66700006724568 113.70583389699459,167.798486514017 111.05309185246006,159.75043752940837 111.70153990783729,158.9178749662242 109.1077476865612,159.33415638300357 104.98126006149687,156.42018078366527 98.37887986144051,154.7550459173508 91.18700142926537,158.01593096833676 87.06051380443387,164.53765126614599 87.65001203655265,173.97321416332852 93.89869329705834,180.70290572370868 94.37029188289307,186.2531136039761 105.8065575864166,186.04498167638667 106.21920634899288,180.21726024593227 111.1120416757185,175.56892061867984 112.99843601882458,169.53296658437466 112.23208831693046,163.98261382593773 108.8129985705018,158.43221297115088 101.62112013855949,154.963188012538 96.55143534182571,155.44885263772449 90.06695478828624,158.5015932788956 86.70681486511603,164.9539290307439 87.2373632742092,172.79377640248276 89.47745655640028,176.67897493898636 93.6628940042574,180.56414991052588 94.25239223637618,186.18373630236601 105.8065575864166,186.04498167638667 105.86550740967505,180.56414991052588 110.99414202943444,175.4301636935561 112.70368690253235,170.0186201626202 111.76048973132856,163.35819613095373 108.28245016164146,158.29345233371714 105.3349590008147,156.14265860652085 100.50107349734753,155.1019493714557 97.31778304371983,155.17133003968047 91.48175054555759,157.18336615036242 87.47316256677732,162.66439797804924 86.29416610277258,166.61903738311958 87.47316256677732,173.9038355316734 90.47960355086252,177.92778374959016 93.72184382751584,180.3560161345522 94.42924170615152,186.3224908983102 105.86550740967505,186.11435899330536 105.86550740967505,180.56414991052588 111.40679079201072,174.73637861636234 112.88053637230769,167.03531379502965 111.1120416757185,161.41555940906983 105.39390882407315,155.656994507357 100.61897314363159,154.19999999995343 91.59965019184165,157.32212702877587 87.59106221329421,163.42757590475958 86.47101557231508,167.7291072133812 87.82686150609516,174.2507286152686 93.95764312054962,180.98041725967778 94.60609117592685,186.11435899330536 106.10130670270883,185.76747233432252 106.04235687945038,180.77228361892048 111.34784096851945,174.8057571578538 112.82158654904924,166.75779621716356 110.81729255965911,161.20741941069718 106.33710599527694,156.90584430418676" stroke="#4dd2ff" stroke-dasharray="none" stroke-linecap="round" stroke-linejoin="round" stroke-width="0.5"><title>2020-04-16 10.0km</title><desc>1587033949000</desc></polyline><polyline fill="none" opacity="1" points="138.79503295617178,154.6244645389961 134.4071317561902,154.48297639004886 127.614901131019,157.312733546074 123.52754110842943,162.123292573262 122.56580933881924,170.40020091063343 125.27067994163372,176.27179023559438 130.1995552626904,181.01146841794252 130.62031291192397,186.52925939281704 141.9206612086855,186.03407492721453 142.58185180043802,181.08220962289488 146.90964476531371,176.6254987504799 149.49429889698513,170.3294585487456 149.07354124775156,164.3163297828869 145.64737181714736,158.2324019819498 143.48347533494234,156.25157604948618 138.55460001411848,154.4122323039337 133.62572469282895,154.76595265726792 126.53295288980007,157.73719606210943 123.22699993057176,163.3259267937392 122.3854846318718,167.28752973943483 123.82808228698559,174.50324478914263 130.0793387913145,180.65776227868628 131.10117879672907,186.52925939281704 142.34141885815188,186.10481558809988 142.5217435650993,180.44553850317607 147.5107271214947,175.493630829209 149.6145153681282,169.83426180080278 148.8331083052326,163.89187154272804 144.3249906336423,157.38347731815884 137.65297647961415,154.5537204684806 128.27609172277153,156.7467830958194 123.82808228698559,162.264779066958 122.5057011032477,166.79233068518806 123.1067834594287,172.45172607182758 126.17230347590521,177.40365680819377 130.1995552626904,180.86998598527862 130.92085409001447,186.59999999997672 142.46163532929495,186.10481558809988 142.5217435650993,180.37479722936405 147.99159300653264,174.92769613309065 149.6145153681282,169.05609472462675 149.07354124775156,164.599301789538 146.36867064470425,159.50578690925613 141.80044473754242,155.7563686275971 138.61470824945718,154.4122323039337 133.0246423368808,154.9781847773702 126.53295288980007,157.59570858738152 123.04667522385716,164.17484373331536 122.44559286767617,168.5608970115427 123.7078658156097,174.36176094657276 130.13944702711888,180.65776227868628 130.62031291192397,186.3877781551564 142.64196003624238,185.75111220683903 142.58185180043802,180.30405594746117 147.75116006401367,175.35214720113436 149.4341906614136,169.7635193777387 148.77300006942824,163.4674130267813 143.7840165128,157.38347731815884 138.19395060022362,154.20000000001164 132.90442586573772,155.11967281921534 126.53295288980007,158.0201709193061 123.28710816637613,163.60889922943898 122.5057011032477,170.0464890244766 125.09035523491912,176.059565034986 130.01923055551015,180.79924475745065 130.74052938329987,186.59999999997672 142.64196003624238,185.96333425852936 142.64196003624238,180.44553850317607 147.5107271214947,175.63511442678282 149.5544071327895,169.4098071468179 148.65278359828517,163.60889922943898 145.0462894611992,158.2324019819498 138.55460001411848,154.6244645389961 132.78420939436182,154.83669670502422 125.63132935529575,158.51537662488408 122.5057011032477,167.3582724306616 124.12862346484326,174.57398669893155 130.01923055551015,180.58702102774987 130.68042114772834,186.3170375250047 142.28131062258035,186.24629688687855 142.5217435650993,180.65776227868628 147.39051065035164,175.63511442678282 149.37408242560923,168.98535221698694 147.93148477072828,162.0525493149762 143.0026094499044,156.534551550576 138.43438354274258,154.6244645389961 135.3688635258004,154.6244645389961 131.76236938871443,155.33190482424106" stroke="#4dd2ff" stroke-dasharray="none" stroke-linecap="round" stroke-linejoin="round" stroke-width="0.5"><title>2020-04-14 10.0km</title><desc>1586861907000</desc></polyline><polyline fill="none" opacity="1" points="168.15658490662463,155.25197351846145 161.8998626617249,158.2676214647363 159.15882244007662,164.71965826820815 159.21841027098708,170.5404623899376 161.1848086907994,175.65992155857384 166.3689499795437,180.56895397795597 166.905240457505,186.24935932742665 178.346103991149,185.9688466525986 178.52486748388037,180.28843884228263 183.11313046352006,175.87030942575075 185.2582923762966,170.96124138252344 184.54323840513825,163.4573083005962 180.4912659036927,157.4260467067361 172.9236113789957,154.6207896124688 167.8586457518395,155.39223652513465 162.0786261544563,158.05722787766717 158.98005894734524,165.63135393633274 159.575937256217,172.01318766799523 161.72109916899353,176.29108495463151 166.1901864868123,180.49882520537358 167.0244161193259,186.59999999997672 178.40569182229228,185.82859026972437 178.6440431457013,180.1481812290731 183.29189395625144,175.51966294273734 185.61581936152652,169.13786377263023 185.01994105242193,164.2287446843693 181.50425902893767,158.1273590810597 174.71124630584382,154.83118431613548 168.63328755367547,155.18184200365795 161.95945049240254,158.2676214647363 158.38418063847348,165.07031060010195 158.68211979279295,170.40020266489591 160.0526399037335,173.83655718073715 166.24977431748994,180.49882520537358 166.4881256413646,186.10910300520482 178.346103991149,185.82859026972437 178.4652796529699,180.56895397795597 183.8877722651232,174.74824001156958 185.31788020697422,169.48851371189812 184.90076539083384,164.64952777908184 180.43167807278223,157.00525891734287 174.8900097985752,154.76105275575537 168.15658490662463,155.11171048140386 162.37656530877575,157.77670298877638 158.50335630006157,166.96382991119754 160.41016688919626,174.25733403133927 166.1901864868123,180.70921150024515 166.54771347204223,186.10910300520482 178.10775266750716,185.89871846488677 178.346103991149,180.358567637566 182.99395480146632,175.65992155857384 185.13911671424285,170.47033253114205 184.7815897287801,164.01835303445114 180.9083807200659,157.98709666670766 174.53248281311244,154.6207896124688 166.96482828841545,155.74289390875492 161.8998626617249,158.1273590810597 158.4437684691511,166.75343915011035 159.87387641100213,173.76642767892918 166.07101082475856,180.63908274279675 166.54771347204223,185.89871846488677 178.52486748388037,185.75846206693677 178.4652796529699,180.1481812290731 183.47065744875,174.95862817479065 185.31788020697422,169.48851371189812 184.662414067192,163.73783072835067 180.1933267491404,157.4260467067361 171.13597645168193,154.19999999995343 164.22378806676716,156.3740767207346 159.81428857985884,162.33521737443516 158.6225319618825,167.3846112282481 159.09923460916616,172.15344704379095 160.41016688919626,174.67811060859822 166.1901864868123,180.49882520537358 166.72647696500644,186.17923117004102 178.2269283295609,185.89871846488677 178.2269283295609,180.07805241068127 182.51725215441547,176.3612141829799 185.13911671424285,169.41838373919018 184.06653575785458,162.40534811420366 178.6440431457013,156.1636825183523" stroke="#4dd2ff" stroke-dasharray="none" stroke-linecap="round" stroke-linejoin="round" stroke-width="0.5"><title>2020-04-13 10.0km</title><desc>1586775592000</desc></polyline><polyline fill="none" opacity="1" points="18.853858401998878,197.57489258726127 14.721382463816553,202.72464763885364 13.445176659617573,206.51541388878832 13.80980688938871,212.80946827848675 17.03070725267753,218.0306269635912 20.92009637085721,221.53521717322292 21.71012853528373,227.113914241374 32.405948610045016,226.8278283586842 33.43906759470701,225.96956996672088 33.43906759470701,221.1776067794999 38.30080399219878,215.67038225976285 40.06318343617022,212.02271476056194 40.488585371058434,203.36836419656174 39.516238091280684,200.3643482257612 42.79791016015224,195.78677380044246 41.5217043554876,197.50336792867165 37.45000012242235,199.36300653172657 30.035852116066962,195.42914946191013 23.047106044832617,195.929823481536 17.942282827338204,198.50471244263463 14.052893709158525,204.08360407996224 13.870578594272956,212.5948992301128 16.119131678482518,216.81474438193254 20.980868075741455,221.53521717322292 21.52781342039816,227.2569571362692 32.64903542981483,226.756306868745 33.43906759470701,221.03456256794743 38.30080399219878,216.24256356898695 40.36704196128994,211.3074834762956 40.06318343617022,205.15646245254902 37.20691330265254,199.64910431369208 30.27893893630244,195.42914946191013 23.411736274603754,195.64372408826603 16.969935548026115,199.36300653172657 14.417523938929662,203.58293624292128 13.445176659617573,207.44522115483414 14.478295644046739,214.4544953322038 16.05835997336544,217.3869246991817 20.73778125597164,221.46369510999648 21.467041715746745,227.2569571362692 32.64903542981483,226.8278283586842 33.560611004475504,220.89151832502102 37.571543532656506,217.31540218676673 39.75932491128333,213.52469793579075 40.42781366594136,207.73131543496856 38.847749336622655,201.7233095242991 35.2622187435627,197.71794188086642 29.063504836754873,195.42914946191013 22.560932404827327,196.00134831044124 17.577652597334236,198.8623351153219 15.146784398704767,201.79483372578397 13.262861544732004,207.73131543496856 13.445176659617573,211.1644371264847 15.572186333592981,216.88626694859704 20.798552960855886,221.67826127639273 21.345498305745423,227.1854356926051 32.8313505447004,226.89934984088177 33.62138270935975,221.03456256794743 38.42234740196727,216.24256356898695 40.24549855128862,212.23728399479296 40.36704196128994,206.01474789559143 38.847749336622655,201.65178531524725 33.0136656598188,196.64507142239017 26.146462998120114,195.35762457089731 18.914630106650293,197.57489258726127 14.478295644046739,202.93921989452792 13.384404954733327,206.01474789559143 13.566720069618896,211.9511916670017 16.301446793135256,217.67301467206562 20.55546614108607,221.53521717322292 21.467041715746745,227.40000000002328 33.19598077470437,226.756306868745 33.256752479821444,221.32065096026054 38.847749336622655,215.38429141946835 40.36704196128994,209.87701858382206 38.96929274662398,202.51007531379582 36.416881137760356,198.7908105965471 32.95289395470172,196.14439794514328 25.9033761783503,195.0715249296627 18.67154328711331,197.71794188086642 14.478295644046739,203.01074396434706 13.202089839614928,208.37502711173147 15.207556103821844,215.95647297624964 20.859324665740132,221.46369510999648 21.345498305745423,227.2569571362692 33.074437364935875,226.756306868745 33.256752479821444,221.392173038912 39.0908361566253,215.38429141946835 40.610128780826926,209.66244858276332 38.72620592685416,201.93788210541243 33.13520906958729,196.502021896129 26.450321523007005,195.0000000000582 23.29019286460243,195.64372408826603 19.218488631537184,197.50336792867165" stroke="#4dd2ff" stroke-dasharray="none" stroke-linecap="round" stroke-linejoin="round" stroke-width="0.5"><title>2020-04-12 10.0km</title><desc>1586649823000</desc></polyline><polyline fill="none" opacity="1" points="74.87477913987823,217.79237689549336 70.64404314593412,221.4390827428433 70.10775266773999,227.25974375376245 58.66688913386315,227.0493593274732 58.07101082475856,221.0884388423292 52.70810604351573,216.5300508553628 50.50335630006157,211.05994290974922 51.8738764107693,202.85469433903927 57.11760553042404,196.5428939088015 61.229165862780064,195.0 70.88239446934313,196.47276244714158 74.87477913987823,199.20788381790044 77.55623153061606,206.4313539363793 77.43705586902797,212.0417605591938 75.17271829443052,216.95082647533854 70.46527965320274,221.29882520542014 70.0481648365967,227.18961561913602 58.60730130295269,227.11948747711722 57.95183516293764,221.22869642538717 53.1848086907994,217.09108495467808 51.0396467782557,213.65474346565315 50.32459280733019,207.48330888117198 53.7210991687607,200.18971944064833 57.95183516293764,196.61302536266157 64.98319920990616,195.0 73.6830225221347,198.01565284619574 77.01994105242193,204.95861414191313 77.73499502358027,210.07812377100345 75.6494209417142,215.9690162697807 70.346103991149,221.57934024976566 70.40569182205945,227.18961561913602 58.488125641131774,227.11948747711722 57.95183516293764,221.22869642538717 52.41016688896343,216.60018014430534 50.741707623703405,213.30409534962382 50.32459280733019,207.7638299112441 51.21841027098708,203.5560016995878 57.1771933613345,196.7532882479718 61.58669284824282,195.07013162097428 69.57146218954585,196.4026309780893 74.69601564737968,199.62867069570348 77.4966436997056,206.01057147973916 77.61581936152652,210.2885137119447 75.47065744898282,216.5300508553628 70.58445531479083,221.4390827428433 70.28651616047136,227.18961561913602 58.488125641131774,227.18961561913602 57.83265950134955,221.22869642538717 53.06563302897848,217.16121418302646 50.98005894734524,213.30409534962382 50.62253196188249,205.8703106001485 53.7210991687607,200.18971944064833 57.35595685406588,196.82341967901448 60.03740924480371,195.77144741395023 66.77083413675427,195.42078961251536 73.56384685984813,198.01565284619574 77.37746803788468,205.30926677776733 77.55623153061606,210.56903352646623 75.11313046352006,217.16121418302646 70.58445531479083,221.15856763761258 70.28651616047136,226.9792311700876 58.54771347227506,227.40000000002328 57.773071670206264,221.0884388423292 52.767693874426186,216.7404386997223 50.98005894734524,213.3742249882198 50.26500497641973,206.0807019083295 53.661511338315904,200.18971944064833 57.23678119224496,196.82341967901448 60.27576056844555,195.56105275580194 64.80443571717478,195.1402632345562 72.01456325664185,196.6831568091293 74.75560347829014,199.13775264535798 77.55623153061606,207.2729180289316 77.43705586902797,212.18202010192908 75.05354263237678,217.16121418302646 70.76321880752221,221.36895397800254 70.46527965320274,227.25974375376245 58.54771347227506,227.25974375376245 57.773071670206264,221.29882520542014 53.42316001444124,217.9326351924683 50.741707623703405,213.86513224436203 50.56294413097203,205.73004969005706 53.24439652170986,200.40011259459425 58.368949979543686,196.19223652518122 64.08938174624927,195.0 67.06877329177223,195.42078961251536 72.07415108731948,197.24420810642187 74.63642781623639,199.27801498339977 77.31788020720705,205.58978874969762" stroke="#4dd2ff" stroke-dasharray="none" stroke-linecap="round" stroke-linejoin="round" stroke-width="0.5"><title>2020-04-08 10.0km</title><desc>1586343893000</desc></polyline><polyline fill="none" opacity="1" points="110.84498287527822,217.371601822495 106.43548434367403,221.36895397817716 106.19713307148777,227.25974375376245 94.45833292626776,227.18961561931064 93.74327911017463,220.94818122911965 89.39336839667521,217.44173102028435 86.77150440472178,213.16383605031297 86.53315313300118,207.34304832079215 87.84408512874506,202.57417118223384 93.20698874839582,196.9636825186899 98.33154109609313,195.21039484045468 103.03897871798836,195.70131586893694 109.29569960734807,198.57670298905578 112.27509050699882,204.1871776750777 113.5264346851036,210.56903352664085 110.78539505717345,217.58198939316208 106.37589652556926,221.43908274295973 106.137545253383,227.32987188058905 94.57750856224447,227.11948747711722 94.10080601833761,221.43908274295973 88.67831458058208,216.3196629427839 86.4735653148964,211.05994290980743 86.83109222282656,205.23913626605645 89.45295621454716,200.04945730004692 93.20698874839582,196.75328824785538 95.76926492224447,195.84157895151293 103.57526907976717,195.70131586893694 109.11693615349941,198.43644049891736 113.3476712310221,206.22096274257638 112.75179305113852,213.72487306647236 110.18951687752269,218.2131516954978 106.37589652556926,221.50921150034992 106.37589652556926,227.18961561931064 94.69668419845402,227.32987188058905 93.98163038236089,221.43908274295973 88.14202421857044,215.54824001179077 86.23521404294297,208.53526211722055 87.78449731087312,202.78456356137758 93.0878131124191,196.5428939088597 99.88082436379045,195.0 107.92517979326658,197.45460221765097 110.54704378498718,200.11958837427665 113.58602250297554,207.34304832079215 112.6326174151618,213.72487306647236 109.77240215125494,218.49366807664046 106.61424779775552,221.36895397817716 106.25672088982537,227.18961561931064 94.45833292626776,227.25974375376245 93.86245474638417,221.29882520559477 88.3803754907567,216.5300508555374 86.29480186081491,210.49890358449193 87.18861913098954,204.2573083008756 93.26657656626776,196.47276244743261 99.88082436379045,195.21039484045468 108.1039432475809,197.10394532763166 111.4408610551618,201.7326009819517 113.70519813918509,207.9040903808782 113.7647859568242,211.1300727914204 112.21550268935971,215.40798119833926 106.43548434367403,221.29882520559477 106.43548434367403,227.18961561931064 94.87544765253551,227.40000000002328 93.80286692851223,221.71959772659466 88.3803754907567,216.3897922548931 86.35438967891969,211.48072208481608 86.53315313300118,205.6599192240392 89.2741927606985,200.75076769926818 93.86245474638417,196.5428939088597 98.92741927620955,195.35065802949248 102.97939089988358,195.63118431624025 109.17652397137135,198.22604670672445 112.51344177918509,204.11704704142176 113.28808341315016,212.0417605593684 111.67921232734807,216.3897922548931 106.55465997965075,221.22869642550359 106.37589652556926,226.90910300525138 95.23297456046566,227.40000000002328 94.45833292626776,226.97923117032042 93.80286692851223,221.50921150034992 89.7508953048382,218.2131516954978 86.77150440472178,212.95344704389572 86.29480186081491,207.76382991136052 87.54614603891969,203.20534811442485 93.20698874839582,196.5428939088597 96.12679183017462,195.35065802949248 103.39650562568568,195.70131586893694 107.8060041575227,197.38447085494408 111.67921232734807,201.87286275811493 113.40725904935971,207.62356941157486" stroke="#4dd2ff" stroke-dasharray="none" stroke-linecap="round" stroke-linejoin="round" stroke-width="0.5"><title>2020-04-07 10.0km</title><desc>1586257895000</desc></polyline><polyline fill="none" opacity="1" points="146.60663160309196,217.86250604793895 142.7334234334994,221.08843884267844 142.43548434367403,227.25974375376245 130.81585983443074,226.97923117032042 130.04121820046566,221.43908274295973 125.5721318507567,217.72224773583002 123.06944349501282,212.67292826238554 122.71191658684984,207.27291802910622 125.81048312294297,199.90919512906112 129.862454746617,195.98184200387914 133.37813600804657,195.07013162126532 139.27732998970896,195.63118431624025 145.0573483351618,198.22604670672445 149.40725904912688,207.06252710858826 148.69220523326658,214.14565050962847 146.01075342320837,218.2131516954978 142.6738356158603,221.15856763790362 142.7334234334994,226.97923117032042 130.9946232882794,227.32987188058905 129.92204256448895,221.43908274295973 124.43996330886148,215.89888691261876 122.77150440518744,211.48072208481608 123.18861913098954,205.02874468441587 125.92965875868686,199.90919512906112 132.4843187383376,195.70131586893694 138.2047492659185,195.35065802949248 145.35528742545284,198.01565284631215 148.99014432332478,206.3612235459732 148.27509050746448,214.566427679325 145.59363869717345,218.9144424207625 142.7334234334994,221.29882520559477 142.37589652556926,226.83897483273176 131.1733867423609,227.40000000002328 130.2795694724191,221.71959772659466 125.45295621477999,217.65211856825044 123.06944349501282,212.53266882587923 123.18861913098954,205.02874468441587 125.45295621477999,200.610505680379 129.92204256448895,196.47276244743261 134.45071673230268,195.07013162126532 138.86021526390687,195.21039484045468 145.95116560533643,199.2780149836326 148.8113808692433,204.46770013298374 148.99014432332478,212.74305796908448 146.24910469562747,217.79237689566799 142.4950721617788,221.36895397817716 142.37589652556926,226.90910300525138 131.11379892425612,227.25974375376245 130.21998165454715,221.43908274295973 124.79749021702446,216.67030942603014 122.83109222282656,211.8313711883966 122.95026785880327,206.08070190850412 125.87007094081491,200.11958837427665 130.51792074437253,196.05197351862444 137.96639799396507,195.0 145.11693615326658,198.57670298905578 148.09632705315016,202.3637787348125 149.1689077769406,205.94044104387285 149.46684686746448,210.84955321979942 148.5134417791851,214.35603912861552 145.95116560533643,218.35340990131954 142.4950721617788,221.36895397817716 142.43548434367403,227.0493593274732 131.23297456046566,227.25974375376245 130.2795694724191,221.92998388473643 124.97625367064029,216.67030942603014 122.77150440518744,211.41059224127093 123.12903131288476,205.16900574654574 125.5721318507567,200.32998155103996 129.0878131124191,196.9636825186899 132.3651431023609,195.70131586893694 139.87320816982538,195.42078961263178 143.86559197562747,196.6831568091875 147.08333414699882,200.8208986974787 149.22849559527822,205.6599192240392 149.10931995906867,213.51448424247792 145.8319899693597,218.70405528292758 142.6738356158603,221.6494689923129 142.13754525384866,227.0493593274732 131.05421110638417,227.40000000002328 130.04121820046566,221.50921150034992 125.51254403265193,217.44173102028435 123.12903131288476,212.95344704389572 122.47356531512924,208.74565255921334 124.1420242190361,202.78456356137758 129.62410347443074,196.6831568091875 134.33154109609313,195.28052643878618 138.44310053787194,195.42078961263178 144.2231188833248,197.24420810642187 147.2025097834412,200.610505680379 149.5264346851036,207.41317860491108" stroke="#4dd2ff" stroke-dasharray="none" stroke-linecap="round" stroke-linejoin="round" stroke-width="0.5"><title>2020-04-02 10.0km</title><desc>1585825459000</desc></polyline><polyline fill="none" opacity="1" points="185.61709217075258,210.50492507388117 183.60849723010324,216.34524817607598 178.64608620060608,221.62930424476508 177.9371703392826,227.33047385379905 166.59451655694284,227.05236919398885 165.76744805206545,221.3511971150292 160.74596070079133,216.83193936938187 158.8555184036959,212.38217758014798 158.73736576014198,207.2371020593564 159.91889219591394,202.99586014804663 163.40439518075436,198.68506096419878 169.43018000246957,195.48670737765497 175.75134643306956,195.90388483623974 179.35500206192955,197.22494499967434 181.95436022034846,199.4498822867754 184.84909998741932,206.12464787560748 185.20355791854672,211.9650108308997 183.2540392994415,216.97099392849486 178.29162826994434,221.42072390887188 178.11439930461347,227.40000000002328 166.53544023493305,227.26094770012423 166.00375333894044,221.5597774737398 161.6911818489898,218.15295646281447 159.44628162146546,214.6765898547019 158.50106047280133,206.81993196636904 161.51395288365893,200.35376085684402 169.07572207180783,195.55623697297415 175.04243057174608,195.76482571370434 179.59130734903738,197.2944744065171 182.30881815077737,199.86705716967117 184.84909998741932,205.9855909672915 185.3217105618678,211.1306765191839 182.84050504676998,217.3186301937094 178.52793355681933,221.3511971150292 178.29162826994434,227.33047385379905 166.47636391362175,227.05236919398885 166.00375333894044,221.76835776440566 160.27335012634285,216.06713875720743 158.50106047280133,208.6276670776424 160.03704483923502,202.64821612572996 165.8265243738424,196.8772978517227 171.61600390844978,195.34764816466486 179.94576527969912,197.57259195914958 184.31741309165955,203.76067633420462 185.43986320542172,210.50492507388117 184.0811078043189,215.58044698397862 178.29162826994434,221.5597774737398 178.23255194793455,227.26094770012423 166.65359287895262,227.26094770012423 165.64929540874436,221.42072390887188 161.6911818489898,218.0139021599898 159.15090001258068,214.25942459655926 158.50106047280133,207.58474359626416 161.7502581709996,200.35376085684402 168.66218781960197,195.0 174.27443838864565,195.62576656066813 181.7180549330078,199.79752804117743 185.14448159653693,206.05511942517478 185.38078688364476,211.33926019904902 182.4269707945641,218.0139021599898 178.4688572352752,221.3511971150292 178.05532298260368,227.19142153899884 166.71266920072958,227.33047385379905 165.8265243738424,221.28167031379417 161.6911818489898,218.08342931501102 159.56443426501937,215.0242273627082 158.56013679481111,207.51521530392347 161.15949495323002,201.11858019110514 166.12190598272718,196.32106202375144 170.43447747267783,195.34764816466486 176.51933861640282,196.32106202375144 179.47315470548347,197.22494499967434 181.89528389833868,199.86705716967117 185.14448159653693,206.33323318196926 185.49893952719867,211.61737166624516 182.66327608167194,217.5967390705482 178.52793355681933,221.62930424476508 178.05532298260368,227.26094770012423 166.59451655694284,227.26094770012423 166.00375333894044,221.5597774737398 161.57302920566872,217.5967390705482 158.6782894381322,211.7564273547614 158.38290782948025,207.65427188121248 159.85981587390415,202.92633135861252 165.35391379962675,196.80776839965256 170.84801172534935,195.2781185467029 177.641788730165,196.73823894001544 181.95436022034846,200.07564450911013 185.20355791854672,206.68087520846166" stroke="#4dd2ff" stroke-dasharray="none" stroke-linecap="round" stroke-linejoin="round" stroke-width="0.5"><title>2020-03-23 10.0km</title><desc>1584960411000</desc></polyline><polyline fill="none" opacity="1" points="44.199999999953434,237.77424046990927 39.184520123759285,239.42706644831924 32.16284829727374,243.5000804971205 34.36965944268741,247.9862636384787 34.670588235370815,252.82657771464437 33.01547987619415,257.25365660589887 28.50154798780568,261.38556445826543 28.601857585133985,265.75354726909427 18.871826625429094,266.0486799799837 18.11950464383699,261.1494562821463 14.759133127052337,258.31615018838784 12.351702786283568,254.1251912500593 11.800000000046566,250.64253888098756 12.351702786283568,246.74666409456404 14.408049535471946,243.32299356278963 20.125696594361216,238.7187130714301 24.990712074330077,238.8367720315582 30.156656346749514,240.48959478735924 32.062538699712604,242.26047074841335 34.57027863780968,247.573064103839 34.77089783293195,251.82310149964178 32.86501547996886,257.3126840814366 28.802476780256256,260.91334800358163 28.250773993786424,265.87160037254216 18.82167182653211,266.2257595300325 18.019195046508685,261.2084833357367 14.608668730827048,258.1980954481405 12.452012383844703,254.1251912500593 12.100928792729974,248.10432059090817 14.45820433436893,243.61813842121046 19.87492260057479,238.77774255472468 26.2445820432622,239.01386042369995 30.908978328341618,241.02085817971965 34.11888544890098,246.27443495515035 34.77089783293195,252.2362978120218 32.86501547996886,257.3126840814366 28.752321981359273,261.26751038309885 28.601857585133985,265.93062691483647 18.721362228970975,266.0486799799837 18.069349845405668,261.0904292220366 14.658823529724032,257.8439310740796 12.351702786283568,254.1251912500593 12.151083591394126,248.28140597167658 14.257585139479488,243.44105152535485 20.827863777056336,238.7187130714301 28.652012384030968,239.60415464872494 32.11269349837676,242.26047074841335 34.169040247565135,246.27443495515035 34.77089783293195,252.0001856716699 33.01547987619415,257.0765741406358 28.802476780256256,261.26751038309885 28.652012384030968,265.9896534506115 18.721362228970975,266.16673301986884 18.019195046508685,260.91334800358163 14.257585139479488,257.4897664698656 12.55232198163867,254.4793580409023 12.20123839029111,247.51403557340382 14.508359133033082,243.32299356278963 19.925077399238944,239.13191931991605 25.442105263238773,239.13191931991605 30.557894736761227,240.84377043996938 32.16284829727374,242.14241252979264 34.520123838912696,247.7501496571931 34.871207430260256,252.29532583081163 32.614241486182436,257.4897664698656 28.802476780256256,261.32653742376715 28.601857585133985,265.9896534506115 18.671207430306822,265.9896534506115 18.019195046508685,261.03140215564054 12.752941176528111,254.7744968572515 12.05077399383299,252.17726978647988 12.251393188722432,247.21889282471966 14.759133127052337,243.02784854435595 20.577089783269912,239.36803703545593 27.49845201219432,239.78124279150506 32.31331269349903,242.3194998478284 34.2693498453591,246.09734892233973 34.8210526315961,252.41338184993947 32.71455108351074,257.8439310740796 28.902786377817392,261.0904292220366 28.902786377817392,265.93062691483647 18.570897832745686,265.9896534506115 18.219814241398126,261.0904292220366 13.505263157887384,256.36824370443355" stroke="#4dd2ff" stroke-dasharray="none" stroke-linecap="round" stroke-linejoin="round" stroke-width="0.5"><title>2019-12-13 10.0km</title><desc>1576239112000</desc></polyline><polyline fill="none" opacity="1" points="71.23769234662177,239.2414845921012 70.53322362486506,239.36642085178028 68.88302976987325,240.34319011386106 69.31729131063912,241.2972350275886 69.36554259300465,242.1717685730182 69.15323695074767,242.78507346156402 68.24611284333514,243.71638143310702 68.19786156102782,244.14796037140331 68.37156617740402,248.9065682727014 69.39449336234247,249.2926988220279 70.00245951948455,249.7128980985799 71.51754978398094,249.8946053724212 71.67195388738764,250.12173902203358 71.95181132480502,261.90930029836454 72.18341747991508,263.9986719967419 72.11586568469647,267.8593580506349 71.69125440035714,268.01832443130115 66.75997334817657,267.9615507515409 64.84922256867867,268.1999999999971 63.72979281906737,268.0750980803059 63.45958563807653,265.9517426965831 63.24727999593597,256.35636564693414 59.61878356616944,255.83398856940767 59.44507894985145,255.6068672894835 58.750260484579485,255.50466255308856 58.52830458589597,254.7210895988319 58.73095997160999,254.35769145932863 58.62480715056881,254.1192107460156 57.70803278667154,253.32427111894503 56.868460474477615,253.57410993664962 56.41489842074225,253.42647797993413 56.0095876493142,252.84730445082096 55.81658252008492,252.05235518384143 55.84553328942275,246.29447133643407 56.08678970095934,244.7839682008489 56.337696369038895,244.19338963000337 56.27979483024683,243.5573782186184 57.44747586216545,235.79999999999563" stroke="#4dd2ff" stroke-dasharray="none" stroke-linecap="round" stroke-linejoin="round" stroke-width="0.5"><title>2019-11-23 10.0km</title><desc>1574497580000</desc></polyline></svg>