<?xml version="1.0" encoding="utf-8" ?>
<svg baseProfile="full" height="300mm" version="1.1" viewBox="0,0,200,300" width="200mm" xmlns="http://www.w3.org/2000/svg" xmlns:ev="http://www.w3.org/2001/xml-events" xmlns:xlink="http://www.w3.org/1999/xlink"><defs /><rect fill="#222222" height="300" width="200" x="0" y="0" /><text fill="#FFFFFF" style="font-size:12px; font-family:Arial; font-weight:bold;" x="10" y="20">Over 10km Runs</text><text fill="#FFFFFF" style="font-size:4px; font-family:Arial" x="10" y="280">Runner</text><text fill="#FFFFFF" style="font-size:9px; font-family:Arial" x="10" y="290">Floyd Li</text><text fill="#FFFFFF" style="font-size:4px; font-family:Arial" x="65" y="280">SPECIAL TRACKS</text><rect fill="yellow" height="2.6" width="2.6" x="65" y="283" /><text fill="#FFFFFF" style="font-size:3px; font-family:Arial" x="70" y="285.5">Over 20.0 km</text><rect fill="red" height="2.6" width="2.6" x="65" y="287" /><text fill="#FFFFFF" style="font-size:3px; font-family:Arial" x="70" y="289.5">Over 40.0 km</text><text fill="#FFFFFF" style="font-size:4px; font-family:Arial" x="120" y="280">STATISTICS</text><text fill="#FFFFFF" style="font-size:3px; font-family:Arial" x="120" y="285">Number: 30</text><text fill="#FFFFFF" style="font-size:3px; font-family:Arial" x="120" y="290">Weekly: 1.8</text><text fill="#FFFFFF" style="font-size:3px; font-family:Arial" x="141" y="285">Total: 446.5 km</text><text fill="#FFFFFF" style="font-size:3px; font-family:Arial" x="141" y="290">Avg: 14.9 km</text><text fill="#FFFFFF" style="font-size:3px; font-family:Arial" x="167" y="285">Min: 10.0 km</text><text fill="#FFFFFF" style="font-size:3px; font-family:Arial" x="167" y="290">Max: 52.6 km</text><polyline fill="none" opacity="1" points="41.11978609621292,36.45361147877702 41.928342245926615,38.95803179620998 42.06310160428984,43.86470848661702 44.026737967913505,50.822049159003654 43.834224598889705,51.513225470298494 43.747593582840636,53.020200600680255 40.42673796787858,57.05380158375192 40.08983957214514,57.84690706531546 39.82032085559331,59.12719321980694 23.87058823532425,59.03655400768912 16.63208556146128,59.59171794870781 15.679144385037944,56.63458625599014 14.649197860911954,54.9463777866622 12.589304812834598,52.53298545357393 12.079144384944811,51.50189474796207 11.819251336855814,50.142199148795044 12.002139037416782,48.72583076006413 12.406417112215422,47.79668267296802 14.244919786055107,45.47377632128337 14.899465240596328,44.14799687386403 15.92941176466411,37.802152953649056 16.102673796762247,37.541511840383464 36.509090909094084,37.14488281206286 41.110160427808296,36.40828205129219 41.91871657752199,38.40275826155994 42.11122994654579,43.0488336413182 44.20000000001164,51.52455619144166 44.14224598929286,52.29504234720662 43.843850267352536,53.00887004163815 40.44598930480424,57.03114133873896 39.78181818180019,59.12719321980694 23.86096256680321,59.03655400768912 16.6705882352544,59.56905825370632 15.457754010683857,56.22669945881353 14.678074866300449,55.037020544659754 13.311229946499225,53.55273548977857 12.377540106943343,52.23838914683438 11.954010695160832,51.1393109840501 11.799999999988358,50.06288302627945 11.915508021367714,48.95245099188469 12.367914438480511,47.87600051504705 14.293048128311057,45.40578804077086 14.986096256645396,43.91003468018607" stroke="#4dd2ff" stroke-dasharray="none" stroke-linecap="round" stroke-linejoin="round" stroke-width="0.5"><title>2026-05-28 19.4km</title><desc>1779966212000</desc></polyline><polyline fill="none" opacity="1" points="74.45601310930215,35.95194801033358 74.14687880862039,37.77107300161151 72.25570426369086,40.21081434388179 72.4557323405752,49.17767502913193 72.63757604686543,49.58427720681357 75.61981282930356,51.10367794067133 76.9654562555952,51.55307591924793 78.38383716426324,51.531676038648584 78.67478709423449,51.80987430526875 78.85663080052473,63.044477076793555 78.201993457973,63.451050727439 74.25598503253423,64.02881184501166 69.0734394043684,64.19999999999709 64.65463734255172,63.94321771198884 57.16267664521001,62.85188926612318 49.252475423389114,62.78769328760973 48.94334112270735,54.827230346854776 49.12518482899759,52.4090692417667 64.72737482504454,51.80987430526875 68.74612073320895,49.66987755871378 68.49153954430949,40.296418756232015 66.72765559377149,38.24190262396587 66.12757136311848,36.55119103376637 66.14575573382899,35.78073538414901 67.05497426504735,33.40514488516783 68.32788020872977,32.356451703599305 69.94628919439856,31.8642060457787 72.63757604686543,32.484863412668346 73.54679457808379,33.40514488516783 74.31053814431652,34.860464976402 74.47419747989625,35.95194801033358 74.14687880862039,37.685467495190096 72.29207300499547,40.232215450465446 72.51028545247391,49.32747592875967 75.69255031191278,51.167877714455244 78.42020590556785,51.531676038648584 78.71115583542269,51.85267400385055 79.05665887740906,62.552307854391984 78.83844642993063,63.172868846319034 74.47419747989625,63.98601478312048 68.29151146754157,64.17860148876207 64.60008423065301,63.9218191728869 57.03538605081849,62.809091949427966 49.852559654042125,62.894686573636136 49.252475423389114,62.59510522677738 49.05244734650478,52.516068146331236 49.979850248317234,52.25927067792509 64.54553111887071,51.83127415574563 68.74612073320895,49.60567729829927 68.52790828573052,40.168012123787776 66.72765559377149,38.15629732151865 66.2003088457277,35.45971131004626 67.3095554538304,33.1483225798147 68.78248947439715,32.142432003092836 69.83718297071755,31.90701006470772 71.25556387938559,31.992618074757047 72.67394478817005,32.54906923591625 73.31039776001126,33.04131318742293 74.23780066182371,34.71065310899576 74.45601310930215,36.46558499877574 74.11051006743219,37.81387574088876 72.29207300499547,40.039605407917406 72.51028545247391,49.34887604799587 75.65618157049175,51.12507786763308 78.76570894743782,51.788474452492665 79.02029013610445,62.65930126789317 78.76570894743782,63.25846331297362 75.09246608114336,63.94321771198884 69.52804867003579,64.19999999999709 64.27276555949356,63.900420631529414 57.0717547921231,62.85188926612318 49.30702853528783,62.809091949427966 49.07063171709888,52.49466837006912 51.92557790526189,52.17367144761374 64.87284979014657,51.788474452492665 68.76430510368664,49.52007691859035 68.4733551738318,40.14661101029196 66.47307440510485,37.578460560005624 66.2184932163218,36.70100150560029 66.30941506940871,34.903268346213736 67.61868975439575,32.84869613508636 68.40061769122258,32.29224581779272 70.58274216623977,31.79999999998836 72.27388863440137,32.3136477820226 73.09218531253282,32.9129018400854 74.07414132624399,34.175609798170626 74.45601310930215,35.33130153444654 74.36509125621524,37.17183367779944 73.41950398380868,38.883941210020566 72.32844174630009,39.91119860862091 72.21933552250266,41.60188144938729 68.78248947439715,41.66608431012719 68.34606457932387,39.84699517764966" stroke="#ffc200" stroke-dasharray="none" stroke-linecap="round" stroke-linejoin="round" stroke-width="0.5"><title>2026-05-27 20.2km</title><desc>1779879632000</desc></polyline><polyline fill="none" opacity="1" points="111.9878063359065,59.10821896826383 95.12934847583529,59.10821896826383 88.75780035863863,59.63250851670455 88.57381948590046,59.50713516677206 88.12839210999664,57.78608589380019 87.42151823069435,56.16759002292383 84.33257621037774,52.166834905016 83.86778242676519,50.78762193808507 83.81936640763888,49.44258691256255 84.41004184097983,47.732771791299456 86.22080095636193,45.509970569532015 86.89862522413023,44.16486803537555 88.07029288704507,37.49609709419747 108.89886431558989,37.07429735813639 113.18852361023892,36.356093913411314 113.84698147047311,37.92929506156361 114.10842797369696,39.02368197555188 114.2246264196001,43.83428935471602 115.43502689775778,47.74417065081798 116.19999999995343,50.9016071665028 115.98696951585589,51.779289286976564 115.9579199043801,52.998913318966515 112.52038254635409,57.193400155250856 111.92970711295493,59.17660470975534 95.64255827851593,59.09682134034665 88.72875074716285,59.64390608658141 88.5641362821334,59.50713516677206 88.16712492529768,57.84307473112858 87.5086670651799,56.30436528527207 86.71464435150847,55.08477958459116 85.2718469814863,53.5118350887642 84.3422594142612,52.1896316616112 83.84841601911467,50.628042410819035 83.79999999998836,49.76174932283902 83.93556485354202,48.87265162781114 84.33257621037774,47.869558024081925 86.33699940226506,45.35038303291367" stroke="#4dd2ff" stroke-dasharray="none" stroke-linecap="round" stroke-linejoin="round" stroke-width="0.5"><title>2026-05-26 19.0km</title><desc>1779792854000</desc></polyline><polyline fill="none" opacity="1" points="125.27199194184504,39.616097647260176 126.34658373403363,37.08801411188324 128.1912996438332,34.83377863209171 129.64199856319465,33.590777820922085 131.3076158410404,32.68485698020959 134.49557149107568,31.80000000000291 137.7909863203531,32.031748645051266 140.06553894700482,33.50650629246957 141.40877868712414,35.887162943181465 141.48041814006865,38.22565576141642 140.69238415907603,41.090797897282755 140.56701511668507,42.60762079805136 140.978941970272,45.55696486517263 142.0714436256094,47.7268109308643 144.05943844106514,50.00196338497335 145.93997407739516,52.993327121890616 147.17575463827234,56.30062654663925 147.56977162871044,58.87059117543686 135.42688437760808,64.17893542980892 132.97323311888613,60.68218522502866 127.83310237980913,55.56333535723388 125.45109057391528,51.22379355634621 124.66305659292266,48.27453524527664 124.41231850814074,44.75643303169636 125.18244262586813,40.016374532773625 126.63314154522959,36.60346102209587 128.51367718155961,34.47562666919839 131.43298488343135,32.62165304343216 134.60303067031782,31.80000000000291 137.55815809872,31.947476442423067 139.94016990449745,33.38009893150593 141.26549978158437,35.402606867282884 141.5341477296315,38.057116676834994 140.60283484309912,41.9756126908178 140.85357292788103,45.114566100543016 141.98189430963248,47.62147915549576 145.8146050350042,52.52987940753519 146.96083627990447,55.58440085852635 147.5339519024128,58.97591687183012 138.5611104380805,62.64121565692767 135.49852383043617,64.19999999999709 133.08069229801185,60.85070474585518 129.2838012991706,57.248568263690686 127.31371634686366,54.91030368904467 125.89883715391625,52.31922099131043 124.89588481455576,49.454243925152696 124.41231850814074,45.47269851130841 124.66305659292266,42.62868769966008 125.45109057391528,39.11048356392712 126.86596976686269,36.30851507319312 128.03011087502819,34.939117319416255 130.82404953462537,32.89553662131948 134.08364463748876,31.86320420326956 137.4686087826267,31.92640838607622 139.95807976776268,33.4222347275645 140.88939265429508,34.58096555015072 141.35504909756128,35.73968948243419 141.5341477296315,37.53043109810096 140.60283484309912,42.12308143246628 140.88939265429508,45.367365517580765 142.01771403604653,47.66361187242728 144.0236187147675,50.02302948728902 145.7429655821761,52.635208530307864 146.81755737424828,55.142024854023475 147.58768149197567,58.786330577291665 135.40897451434284,64.09467712622427 132.9553232556209,60.724315118888626 128.15547991741914,55.96357949178491 125.6122793428367,51.708310296497075 124.71678618260194,48.400932945354725 124.44813823455479,44.94603297364665 125.236172215431,39.72143374943698 126.43613305001054,36.94054155993217 128.209209506982,34.79164314120135 130.68077062896919,33.00087635645468 133.47470928856637,31.98961254832102 137.1641411081655,31.86320420326956 139.49242332449649,33.00087635645468 141.10431101277936,35.107659100787714 141.5341477296315,37.63576832776016 140.5849249798339,42.20734923479904 140.88939265429508,45.304165694033145 141.69533649843652,47.15801866744005 144.36390611552633,50.402218939882005 146.17280229902826,53.47783946328855 147.1399349119747,56.27956112282118 147.56977162871044,58.74420026464213 135.46270410402212,64.13680628256407 133.33143038291018,61.10348375380272 128.1196601910051,55.90038310413365 125.77346811152529,52.045364709731075 124.64514672977384,48.063872229584376 124.44813823455479,44.440432718532975 125.18244262586813,39.88997139460116 126.07793578587007,37.57256599677203 128.01220101176295,34.939117319416255 130.91359885060228,32.87446866744722 133.7254473733483,31.92640838607622 136.8596734337043,31.821068070072215" stroke="#ffb000" stroke-dasharray="none" stroke-linecap="round" stroke-linejoin="round" stroke-width="0.5"><title>2026-05-24 23.2km</title><desc>1779623970000</desc></polyline><polyline fill="none" opacity="1" points="159.8092654678403,42.548265072415234 160.0841206949117,43.64085573661214 160.29314233465266,44.278975293598705 160.43468454739923,44.55355309746119 160.8774154221319,45.18583954652968 160.97122828406282,45.3927296690963 161.0288326729642,45.607351484373794 161.05187442852912,45.86450758070532 161.0387077110645,46.05978907503413 160.74739408716414,47.005230855733316 160.70131057604158,47.37836699022046 160.70624809509172,47.75342866565006 160.91197805547563,49.53389821067867 161.1818957634896,50.69371837563631 161.17366656506783,50.83675768032117 161.0288326729642,51.2156130435651 161.00743675709236,51.42243377695013 161.11441633648064,52.518350679627474 161.2954587016211,53.06145229936919 161.22468759524781,54.52445942353734 161.25760438889847,54.673265899526086 161.33989637305785,54.83753135943152 161.74312709539663,55.21630246872883 161.8336482779705,55.37476556714137 161.85339835417108,55.59120071515645 161.7513562938111,56.01440120618099 161.8122523620841,56.32937958621005 161.93075281926576,56.49362992871647 162.1381286193282,56.62502912340642 165.68985065528977,57.94476488928922 165.9564766839394,58.01239149501271 166.493020420603,58.07035695484956 167.06906430966774,58.01239149501271 169.89003352636792,57.21438135732751 170.2833892106064,57.14288719684555 170.7508076805825,57.14095491829721 174.04742456568056,57.41147189677031 174.569155745201,57.41147189677031 175.12380371837935,57.316791416787964 175.77391039316717,57.11197071517199 176.1639743980486,57.0327469884669 179.62352941176505,56.7873444511697 179.9938433404459,56.70425464484106 180.4513867723217,56.51488574584255 180.7459920755864,56.33131195189162 181.0916184090238,56.03565758934565 181.69399573300325,55.33611615961672 182.25522706492484,54.76989282227623 182.8263334349249,54.10702170114564 183.09954282231047,53.68570899358201 183.48960682718462,52.80053363904335 183.66571167326765,52.54734228362213 183.86485827492288,52.38885427792593 185.17659250228462,51.60799054144991 185.4382810118841,51.36444689540258 185.5304480341365,51.20981429713356 185.60451081987412,51.0010581802635 185.7723864675354,50.3438471728623 185.87936604693095,49.71947446485137 185.95013715330424,49.46817282797383 186.1278878390658,48.97715795437762 186.46199329472438,48.269608998582044 186.45705577567423,48.23287755466299 186.6874733313016,47.79789422162321 186.82736970435508,47.59876500550854 187.3754343187975,46.99943075104238 187.59926851569617,46.699756128629815 187.81816519353742,46.25893534399438 188.07491618408676,45.52421000427421 188.09960377933749,45.50680825044401 188.20000000000437,45.54741231648404 188.09466626028734,45.44106813945655 188.04858274916478,45.47780528995645 187.7243523316065,46.38460903807936 187.66181042365497,46.365274680814764 187.59926851569617,46.25120154949582 187.69966473635577,46.41941082874109 187.6354769887257,46.53541631085318 187.59926851569617,46.54895023498648 187.0034745504454,46.28407015312405 185.9073453215533,45.976649688367615 185.5189271563504,45.91091129634515 183.52252362084255,45.825837726131795 181.31874428527954,45.62281962426823 179.73380067053222,45.62281962426823 179.13306918622402,45.589949811070255 178.4401706796707,45.47780528995645 176.52605912831496,45.00215005795326 175.99774459007313,44.90160343729076 175.33776287717046,44.851329915945826 174.17086254190508,44.909337812707236 173.89765315452678,44.87840029107247 173.21462968607375,44.67150424574356 172.0592502285872,44.38919364863432 171.94074977140554,44.33505138329383 171.81402011581667,44.236434694998024 171.70868637610693,44.08947548836477 171.49801889667287,43.19609233652773 171.2593721426456,42.766788522352726 171.10960073148453,42.608214248113654 170.91703748857253,42.5115219303425 170.75245352026832,42.48638184245101 169.420969216706,42.58114045160437 169.2777811642809,42.571471228679 169.13953063090594,42.52312503595749 168.97823834197334,42.407093642443215 168.87125876257778,42.263987224674565 168.69350807681622,41.73989858124514 168.5964035355064,41.532966381140795 168.41042365133035,41.33570168994447 168.17836025601719,41.21192665961644 166.4749161840955,40.7303563149253 163.88436452300812,40.31453217231319 161.37116732702998,39.33585688084895 161.22633343492635,39.312646542493894 159.41920146296616,39.287501975404666 158.59957330082398,39.30490975637076 158.27698872294422,39.264291574529125 158.12721731179772,39.20819964850307 157.92313319109962,39.08247572936489 157.3125266686984,38.54281998244187 156.17854312709824,38.03022871091525 155.8000000000029,37.92964304515044 155.8082291984174,37.962526882514794" stroke="red" stroke-dasharray="none" stroke-linecap="round" stroke-linejoin="round" stroke-width="0.5"><title>2026-05-23 52.6km</title><desc>1779516240000</desc></polyline><polyline fill="none" opacity="1" points="30.213788503431715,77.40351144448505 30.286670429515652,76.07397976328502 31.03371017135214,74.31555318104802 32.1451595434919,73.26477862190222 33.78500287933275,72.62144450651249 35.260861881659366,72.6428890107345 36.42697269830387,73.13611196604325 37.57486303336918,74.07966550019046 38.23080036777537,75.19476842448057 38.504107590415515,76.6529704638815 38.32190277532209,78.06827393700951 37.4473196627805,79.56934232242929 36.46341366134584,80.40564691479085 36.281208846135996,81.24194797464588 36.59095703181811,90.24804323249555 40.56302200094797,92.17786749538209 42.40329063346144,92.24219464688213 42.74947978218552,92.58527243546268 43.077448449330404,103.19894789073442 42.78592074511107,103.99227048097237 39.724879851564765,104.61406164104119 35.29730284458492,104.95711799725541 27.808684944175184,104.61406164104119 20.101421265513636,103.54200669808779 13.487386477529071,103.71353587892372 13.232299736351706,103.28471264823747 12.922551550669596,96.01601762980863 13.232299736351706,93.12133029010147 28.610386130516417,92.62815711718576 32.70999447023496,90.35525618496467 32.52778965514153,80.85596330909175 30.505316207534634,78.41137628562865 30.19556802196894,76.78163483408571 30.323111392441206,75.70942919417575 31.28879691241309,73.95099937396299 32.40024628455285,73.07177860681259 33.58457758266013,72.62144450651249 35.406625733710825,72.70722250934341 37.41087869973853,73.82233316416387 38.467666627373546,75.92387078671891 38.32190277532209,78.11116176306678 37.61130399641115,79.46212352947623 36.53629558731336,80.38420325145125 36.29942932771519,81.13473008752044 36.518075105850585,89.90496139455354 36.75494136544876,90.33381359913619 40.23505333380308,92.09209792751062 42.767700263648294,92.52094539535756 42.93168459716253,103.84218266708194 40.01640755566768,104.59262059906905 33.16550650796853,104.97855899976275 28.24597650032956,104.65694371811696 20.848461007350124,103.5634478537977 13.614929848001339,103.67065359762637 13.286961180856451,103.39191854299861 12.940772032132372,95.54429368999263 13.141197328804992,93.12133029010147 28.08199216669891,92.67104178966838 29.776496947160922,92.19930988150008 32.74643543327693,90.3123710109212 32.491348692099564,80.8988505313173 30.72396198567003,78.94747251496301 30.213788503431715,76.26697685162071 30.742182467249222,74.68010631679499 31.908293283893727,73.3934451941168 33.09262458188459,72.77155598707031 34.295176361571066,72.59999999999127 36.827823291532695,73.37200077119633 38.28546181228012,75.25910109386314 38.37656421982683,77.89672253972094 37.72062688542064,79.24768576929637 36.3905317352619,80.5986397806264 36.29942932771519,81.2205044018774 36.49985462427139,90.05505977179564 40.08928948175162,92.00632832253177 42.71303881914355,92.43517597611935 43.077448449330404,102.23409180893213 42.8770231527742,103.88506491117005 39.70665936998557,104.63550268075778 33.566357101197354,105.0 28.84725239011459,104.72126681623922 21.231091119116172,103.58488900719385 13.232299736351706,103.62777130705945 13.013653958099894,93.18565713510907 28.956575279240496,92.58527243546268 32.52778965514153,90.5267967881955 32.801096877781674,90.16227282874752 32.819317359360866,88.59695643403393 32.54601013660431,81.32772224259679 32.36380532151088,80.66297069413122 30.906166800879873,79.20479818947206 30.341331874020398,78.06827393700951 30.213788503431715,76.33130917264498 30.45065476302989,75.3234337423637 31.361678838497028,73.86522191003314 33.47525469365064,72.68577801213542 35.260861881659366,72.68577801213542 37.119350995635614,73.5221116827015 38.26724133070093,75.25910109386314 38.504107590415515,77.42495543073164 37.848170256009325,79.1619106002181 36.3905317352619,80.55575249336835 36.33587029064074,82.16401940773358 36.08078354957979,82.35701055955724 32.655333025730215,82.24979327616165" stroke="#ffb600" stroke-dasharray="none" stroke-linecap="round" stroke-linejoin="round" stroke-width="0.5"><title>2026-05-17 22.3km</title><desc>1779013233000</desc></polyline><polyline fill="none" opacity="1" points="79.20034281795961,80.70936618294945 79.34473774424987,82.1777156322787 79.2503256770724,83.03260492248955 78.36174151522573,85.21219174494763 78.03407610557042,86.71958467932564 77.19547480286565,88.78811049441356 77.02331162150949,88.94471525235713 75.94590332533699,88.95124044183831 74.21316420976655,89.5580799917916 73.68556736371829,89.51892923644118 72.80253685291973,89.19267195827342 72.51930065135821,89.44062764983028 71.93616729514906,90.59556579484342 71.30305107985623,91.24806349315259 68.01528968117782,87.62661257651416 65.65498800136265,87.24161678182645 65.31621528964024,87.09153301289916 65.16071306134108,86.8892456058602 65.17737401436898,85.94957912029349 65.07185464518261,85.87127292217701 63.69454919436248,85.78644109337984 59.662598560156766,85.8973749994584 59.36825505652814,85.76686450062698 58.71847788820742,85.2317685168855 57.618854987988016,84.89896253410188 57.318957833369495,84.54657773665895 56.830236544366926,83.30668901184981 56.59142955089919,81.88404858906142 55.25299965715385,81.38807435096896 54.03119643466198,81.48596432478007 51.298800137097714,82.10593048648661 48.538635584467556,81.73395155067192 48.3831333561684,81.8187890528352 48.24429208089714,82.0798267760074 47.82221460403525,83.45025637342405 47.877751114137936,83.70476131479882 48.966266712377546,85.2578708696019 52.120740486774594,85.87127292217701 53.08707576274173,86.67390665641142 53.28145354814478,87.41780160155031 53.85347960231593,88.78158528739368 53.981213575578295,89.68205721696359 54.73651011311449,92.8792770115142 54.77538567018928,93.459978429677 55.33075077130343,96.29163374185737 55.75282824819442,97.02236203168286 56.16379842301831,97.27680999398217 57.93541309563443,97.89009043777696 59.80143983542803,99.08401223287728 61.60637641409994,99.18839772038336 62.33945834758924,99.7625146897517 62.91703805277939,99.82123089158995 63.850051422661636,100.25833860721104 67.12115186831215,100.64977567839742 67.3266369557532,100.49320115310547 67.43770997598767,100.23224271261279 67.80980459373677,98.94048189411114 68.00418237913982,97.27028570060065 67.94864586903714,97.03541067110928 67.62653411037172,96.81358341894884 67.60431950632483,96.7091938429985 67.82091189574567,96.1154747116816 67.97641412407393,95.93931516968223 67.98196777509293,94.98673989031522 68.39849160093581,93.73401536928577 69.14823448745301,92.75530632532536 70.7032567706483,91.73743215762079 71.84175522797159,90.73259089412022 72.563729859452,89.36885110659205 72.82475145696662,89.17962163063567 73.20795337675372,89.31664993085724 72.85251971203252,89.17309646575086 72.547068906395,89.38190139350263 71.94172094616806,90.58251576923067 71.27528282481944,91.22848866438653 68.0708261912805,87.65923922638103 65.37730545082013,87.12415995080664 65.16626671233098,86.86966936933459 65.1218375042954,85.87779844256147 64.63311621526373,85.77991556316192 59.60706205002498,85.88432396224016 58.762907096301205,85.24481969463523 57.635515941045014,84.89896253410188 57.280082276294706,84.48784673786213 56.79691463831114,83.2153277864636 56.62475145695498,81.92320427704544 55.27521426122985,81.3815483470753 54.92533424749854,81.34891831715504 53.62577991082799,81.5446982331705 51.237709976005135,82.0928786326549 48.46088447031798,81.74047751658873 48.288721288961824,81.96235993974915 47.79999999998836,83.54161724459118 48.94405210830155,85.26439645602659 52.15406239285949,85.8973749994584 53.07596846073284,86.65433035034948 53.24257799106999,87.31992120937502 53.859033253305824,88.85988772535711 53.942338018503506,89.57765535998624 54.7142955090676,92.76835588317772 55.308536167256534,96.23291412202525 55.41960918752011,96.56565788259104 55.8083647582971,97.05498362499202 56.1915666780842,97.27028570060065 57.918752142606536,97.89661466447069 59.80699348644703,99.07096403428295 60.16242715116823,99.14925318360474 61.61748371613794,99.17534954427902 62.35056564959814,99.76903871497052 62.783750428498024,99.77556273951632 63.96667809391511,100.29748242802452 66.86568392181653,100.66282353724455 67.18224202946294,100.62367995224122 67.3544052108191,100.47362930904274 67.56544394922093,99.92561511004897 67.85423380183056,98.67299262896267 68.01528968117782,97.31595573955565 67.96530682206503,97.03541067110928 67.6709633184364,96.84620512459514 67.62653411037172,96.72224254981847 67.77092903666198,96.20029208640699 67.99307507710182,95.88059520861498 67.97641412407393,94.97369080998396 68.39849160093581,93.73401536928577 68.90942749398528,92.99019793690604 70.87541995197535,91.61998403845428 71.55296537536196,91.0327400291826 71.92505999314017,90.62819084657167 72.541515255376,89.42105223737963 72.79142955088173,89.19267195827342 73.69112101470819,89.52545436408036 74.25759341788944,89.56460511523619 75.8625985601393,88.98386637863587 77.12883099072496,88.98386637863587 77.38985258823959,88.88598851554343 77.54535481656785,88.69675753207775 77.65642783680232,88.12253575881186 78.18957833389868,86.84356771082821 78.4672608844703,85.27092204174187 79.2336647240154,83.46330793488596 79.40582790534245,82.81725226828712 79.50023997257813,81.87752263859511 79.43914981145645,79.56729200915288 79.81679808022454,77.8835091029141 80.19999999998254,76.93717646275763" stroke="#ff6800" stroke-dasharray="none" stroke-linecap="round" stroke-linejoin="round" stroke-width="0.5"><title>2026-05-16 35.3km</title><desc>1778887035000</desc></polyline><polyline fill="none" opacity="1" points="108.61200090241618,72.60000000000582 108.48838366451673,78.61454855010379 94.0251668379642,96.22118974410114 91.38799909758382,105.0" stroke="#4dd2ff" stroke-dasharray="none" stroke-linecap="round" stroke-linejoin="round" stroke-width="0.5"><title>2026-05-12 15.2km</title><desc>1778590468000</desc></polyline><polyline fill="none" opacity="1" points="138.73669518134557,78.76263440036564 138.18935614521615,76.89453898055945 138.42653639416676,75.241152487215 139.37525739043485,73.7595346934686 141.63759207364637,72.62147292628651 143.4803001624532,72.68589169133338 144.64795677317306,73.13682246046665 146.0345489983447,74.81169919391687 146.49066486186348,76.2718365953624 146.28997388191056,78.07552089028468 144.33779798599426,80.71660042917938 144.5567336003296,90.0996635172778 148.0961927017197,92.03204699739581 150.35852738493122,92.24675511056557 150.81464324845,92.65469988487894 151.08831276651472,102.93892507835699 150.96060032479,103.75476979619998 150.23081494309008,104.22709941462381 145.46896532760002,104.89265287661692 141.27269938285463,105.0 136.62031757447403,104.72089735831833 128.5196998376632,103.60448286352039 121.27657992439345,103.5400741432386 120.91168723348528,96.49792787568003 121.09413357893936,93.1485266466334 136.4196265945211,92.59028760783258 137.97042053064797,91.98910534691822 140.70711571199354,90.31437372283835 140.5429140011547,81.23192891971848 140.32397838658653,80.52335189987207 139.33876812132075,79.64299510476121 138.46302566328086,78.26877180569863 138.15286687610205,76.61539677386463 138.62722737411968,74.83317188070214 140.3057337520877,73.07240384195757 141.5281242664205,72.64294585028256 142.84173795336392,72.60000000000582 144.9763601948507,73.45891523903992 146.36295242013875,75.64913225408236 146.4176863238681,77.5601841948228 145.8156133837765,79.08471803842986 144.35604262037668,80.58776809721894 144.21008554415312,82.28405376210867 140.76184961560648,82.36994125787169 140.36046765570063,80.54482396796811 138.9373861614149,79.17060692020459 138.18935614521615,77.23809807986254 138.37180249055382,75.49882401661307 139.22930031409487,73.97426259609347 141.21796547912527,72.72883752304188 143.69923577690497,72.7717833455099 144.8851370222401,73.39449672517367 145.65141167293768,74.18899026609142 146.52715413097758,76.44361675903201 146.01630436372943,78.71968987578293 144.39253188949078,80.50187982941861 144.17359627503902,82.21963811590103 140.76184961560648,82.34846938739065 140.39695692469832,80.65218427362561 138.973875430529,79.21355134708574 138.26233468321152,77.5601841948228 138.33531322143972,75.670604850151 139.0833432377549,74.081626460189 140.79833888472058,72.8791478608473 142.98769502982032,72.62147292628651 145.0493387330789,73.54480655823136 145.8885919220047,74.59697219842928 146.4541755928658,75.97122095065424 146.36295242013875,77.86079742999573 145.70614557655063,79.19207913479477 144.37428725499194,80.69512837965158 144.22833017876837,82.24111000036646 140.85307278833352,82.39141312600987 140.46993546292651,80.71660042917938 139.02860933402553,79.19207913479477 138.22584541421384,77.23809807986254 138.51775956677739,75.06937128154095 139.55770373577252,73.60922502324684 141.74705988087226,72.60000000000582 143.73572504601907,72.7717833455099 145.1223172711907,73.60922502324684 146.4541755928658,75.88533068279503 146.39944168925285,77.64607373709441 145.59667776932474,79.34238457208266 144.37428725499194,80.54482396796811 144.30130871676374,82.19816622916551 140.81658351921942,82.39141312600987 140.32397838658653,80.50187982941861 139.19281104498077,79.47121771337697 138.35355785593856,77.94668684201315 138.18935614521615,76.22889153112192 138.84616298868787,74.18899026609142 138.9373861614149,74.40371770359343 139.6671715429984,73.54480655823136 140.85307278833352,72.85767496246262 143.42556625884026,72.7073646083154 145.17705117492005,73.56627938218298 145.83385801839177,74.40371770359343" stroke="#4dd2ff" stroke-dasharray="none" stroke-linecap="round" stroke-linejoin="round" stroke-width="0.5"><title>2026-05-11 15.3km</title><desc>1778503630000</desc></polyline><polyline fill="none" opacity="1" points="165.88231437071227,99.35305708140368 159.58469681092538,92.0119581388426 158.62505984934978,83.40017897891812 159.94456067169085,79.7295499931206 162.82347155595198,76.20007954741595 168.16145215416327,73.16471967560938 174.339115093695,72.81176993565168 181.11655113426968,76.05890033213655 184.9550989801064,81.84722308494383 185.55487208114937,87.77667113370262 183.8755073985085,92.85901223710971 178.4775494900532,99.21188288147096 177.8177990789991,104.57648097816855 166.54206478153355,104.57648097816855 165.70238244044594,99.14129576995037 161.98378921486437,95.4707554425695 159.16485564014874,90.8825509622111 158.4451279193163,84.74136518203886 159.10487833013758,81.70604509289842 162.88344886596315,75.98831071308814 170.2006806973368,72.67058998637367 176.97811673767865,73.51766922441311 183.99546201853082,78.88247882941505 185.43491746112704,84.24724427028559 185.37494015065022,88.62373073661001 182.6159838864114,94.83546751807444 178.65748142031953,98.71777294122148 178.17766293953173,104.43530790973455 167.08186057256535,104.92941351537593 165.70238244044594,99.00012152449926 162.28367576515302,95.89428038161714 158.8649690898601,90.459022766212 158.56508253957145,83.89430053270189 160.3044245322235,79.23542528151302 164.98265471914783,74.50592694379156 168.28140677441843,73.09412974282168 173.19954620185308,72.67058998637367 178.71745873056352,74.29415755852824 181.17652844428085,76.12948994344333 185.1950082203839,82.62370149453636 185.6748267011717,86.5060796647449 184.59523511934094,91.8001944423886 178.83741335058585,98.36483704007696 178.4775494900532,104.08237510506297 167.14183788280934,105.0 165.64240513020195,99.070708650921 160.12449260172434,93.07077558961464 158.3251732988283,86.64725661720149 159.34478757041506,81.00015467405319 162.70351693569683,75.91772108606528 170.38061262783594,72.60000000003492 177.0980713579338,73.58825911110034 182.0162107856013,76.90597516583512 184.41530318930745,80.57662005559541 185.61484939116053,85.23548571887659 184.05543932854198,92.85901223710971 178.5375268002972,98.92953438998666 178.17766293953173,104.50589444767684 167.08186057256535,104.92941351537593 165.7623597504571,99.35305708140368 159.94456067169085,92.85901223710971 158.4451279193163,88.62373073661001 159.4647421904374,80.9295655899914 162.5835623156745,76.41184831329156 169.18106642598286,72.81176993565168 175.77857053582557,73.16471967560938 181.65634692506865,76.6236170103075 185.49489477090538,83.32959015504457 184.59523511934094,91.30607888277154 182.31609733612277,95.25899286998902 178.65748142031953,98.85894724813988 178.17766293953173,104.43530790973455 166.90192864229903,104.85882702330127 165.7623597504571,99.21188288147096 161.74387997412123,95.3295804017107 158.92494639987126,90.3884347070125 158.50510522932746,83.75312298408244 160.66428839229047,78.52953218627954 163.78310851729475,75.14123468630714 167.441724433098,73.23530960065546 173.19954620185308,72.67058998637367 178.83741335058585,74.22356774820946 184.17539394879714,79.80013920698548 185.55487208114937,83.61194540490396 185.25498553039506,89.54137739748694 183.0358250567224,94.553117130592 178.65748142031953,98.92953438998666 178.65748142031953,103.65885548695223 177.69784445897676,104.64706750086043 166.42211016151123,104.43530790973455" stroke="#4dd2ff" stroke-dasharray="none" stroke-linecap="round" stroke-linejoin="round" stroke-width="0.5"><title>2026-05-10 11.2km</title><desc>1778422578000</desc></polyline><polyline fill="none" opacity="1" points="38.11272727290634,115.93124861271644 36.91490909096319,117.01742077125527 37.13090909097809,127.16246394033078 40.88145454553887,129.21914509887574 43.84654545458034,129.7968609596137 44.16072727285791,141.76678170835658 43.493090909090824,142.36757084827696 42.000727272825316,142.64485757326474 34.89236363640521,143.2687513872952 28.490909090964124,142.94525111875555 20.675636363681406,141.78988901422417 12.016000000061467,141.67435245987144 11.800000000046566,130.62876905156008 15.334545454592444,130.21281541099597 28.196363636408933,129.95862112035684 29.767272727331147,129.49644890718628 33.125090909190476,127.46287927828962 33.06618181837257,119.21285825181985 36.77745454548858,119.07419971076888 37.17018181819003,127.3242260979896 40.76363636367023,129.1960364319675 43.84654545458034,129.81996956153307 44.20000000006985,140.88870223113918" stroke="#4dd2ff" stroke-dasharray="none" stroke-linecap="round" stroke-linejoin="round" stroke-width="0.5"><title>2026-05-10 11.3km</title><desc>1778397813000</desc></polyline><polyline fill="none" opacity="1" points="62.980257294591866,113.39999999999782 62.41274831070041,113.41042995612588 62.288605720488704,113.4556263935956 62.26200373687607,116.98075289095505 62.14672847451584,117.31447266388204 62.182197786009056,119.35147873737515 62.11717071494786,128.29400907037052 62.15559580239642,131.26850950435983 62.090568731335225,143.44511354304996 62.12012649088865,144.7580360529355 62.28564994453336,144.86918047794097 65.6670576401375,144.90738628556574 65.72321738333267,144.95948504119224 65.7291289352579,145.04978935158942 65.6020305690763,145.79999999999927 65.74686359098996,145.06715553612958 65.67888074397342,144.011274514236 65.71435005546664,143.48679444432855 65.90943126866478,142.72610951508614" stroke="#ffbb00" stroke-dasharray="none" stroke-linecap="round" stroke-linejoin="round" stroke-width="0.5"><title>2025-11-09 21.3km</title><desc>1762645227000</desc></polyline><polyline fill="none" opacity="1" points="88.83290260378271,135.04703402653104 86.38450157060288,129.0028049882967 86.74280416080728,123.52078112470917 89.78837617789395,117.89814443374053 95.76008601533249,114.10283712338423 103.16500621358864,113.68113494070712 108.89784765779041,116.42219422897324 113.37663003592752,123.30993312812643 113.13776164222509,131.1815452009323 110.45049221534282,135.96069165691733 106.68831501784734,139.404466547654 106.38972952612676,145.16747752222 95.22263212990947,145.65943950257497 93.66998757212423,139.61530931451125 87.33997514448129,132.30605341604678 86.4442186690867,126.61321053694701 87.69827773491852,121.20144939346937 92.53536270326003,115.64907611487433 99.8805658032652,113.39999999996508 106.86746631306596,114.94624066649703 109.79360413341783,117.54672802286223 112.95861034700647,122.60710597777506 113.61549842916429,126.61321053694701 113.07804454374127,130.68957224383485 111.40596578922123,134.76590834266972 106.56888082134537,139.54502839990892 106.38972952612676,145.02691688766936 97.0738621794153,145.79999999998836 94.6254611464683,145.44859869935317 93.96857306384481,140.10727550426964 89.13148809573613,135.32815958815627 87.3996922429651,132.30605341604678 86.50393576733768,126.4023635450867 87.81771193165332,121.0608835677267 93.01309948996641,115.36794202681631 100.53745388519019,113.47028374654474 107.10633470653556,115.01652424572967 111.82398547814228,120.21748797263717 113.25719583919272,123.66134641767712 113.37663003592752,130.1975989138591 111.40596578922123,134.69562690285966 106.74803211609833,138.98278080817545 106.44944662414491,144.95663655915996 94.92404663818888,145.65943950257497 93.78942176885903,139.75587112107314 89.13148809573613,135.39844095951412 86.80252125905827,129.7056252109469 86.68308706232347,124.08304211392533 89.43007358768955,118.46041029546177 94.56574404775165,114.52453903196147 101.73179585277103,113.61085121711949 106.86746631306596,115.08680781710427 112.36143936333247,120.99060064327205 113.5557813309133,125.48869245586684 112.89889324875548,131.60323600983247 110.56992641207762,135.67956636904273 106.56888082134537,139.47474747756496 106.33001242764294,145.02691688766936 102.98585491883568,145.65943950257497 94.68517824471928,145.58915924240137 93.84913886734284,139.75587112107314 89.43007358768955,135.7498477025074 87.57884353795089,132.5168984894408 86.68308706232347,124.01275951694697 91.10215234220959,116.77361124876188 97.5515989663545,113.68113494070712 105.73284144396894,114.66510627389653 111.40596578922123,119.58494055701885 113.49606423242949,125.34812755876919 113.01832744549029,131.2518270215951 110.390775116859,136.03097295982298 106.68831501784734,139.26390466513112 106.44944662414491,145.02691688766936 102.74698652513325,145.58915924240137 94.6254611464683,145.44859869935317 93.90885596582666,139.8261520130909 89.31063939095475,135.67956636904273 86.86223835777491,130.68957224383485 87.2802580462303,122.1854093222064" stroke="#4dd2ff" stroke-dasharray="none" stroke-linecap="round" stroke-linejoin="round" stroke-width="0.5"><title>2025-11-01 10.0km</title><desc>1761964262000</desc></polyline><polyline fill="none" opacity="1" points="125.6313316016458,118.21058195480146 129.1176085122861,115.31008825323079 135.7295129983686,113.40000000002328 141.13925303239375,114.39041682862444 144.44520527520217,116.1590145722148 148.83310552500188,122.24295423534932 149.67462064139545,128.53906467813067 147.81126574077643,134.62288901925785 142.5217421518173,139.92850352200912 142.22120103915222,145.58777815516805 130.50009763194248,145.72925939282868 129.59847429324873,139.85776227881433 125.21057404321618,136.10846542427316 123.34721914259717,132.64211522298865 122.56581224896945,124.57747417641804 126.11219738214277,117.85686390043702 132.1831278647296,114.17818477755645 139.03546524140984,113.96595265745418 145.28672039159574,117.14942721679108 148.8932137475349,122.59666991425911 149.73472886392847,128.75129206234124 147.81126574077643,134.55214720143704 142.641958597349,139.4333146585268 142.10098459408619,145.6585187779856 130.56020585470833,145.79999999998836 129.8389071833808,139.92850352200912 123.70786847826093,133.56176094693365 122.26527113607153,126.98272841819562 122.92646158440039,122.87964231951628 124.97014115308411,119.27173496875912 130.07934007397853,114.8856246797368 137.4125432309229,113.54148821043782 144.80585461086594,116.79570858774241 149.1336466378998,123.51632978289854 149.67462064139545,129.03426180122187 147.27029173751362,135.1888232861529 142.641958597349,139.50405594770564 141.86055170348845,145.79999999998836 130.62031407747418,145.79999999998836 130.01923185121268,139.85776227881433 125.751548046479,136.32069034926826 123.28711092006415,132.14692083530826 122.62592047126964,123.94078774715308 126.77338783070445,117.07868350623176 132.84431831352413,113.8952086022473 140.5381708063651,114.2489288020879 146.248451953521,118.4228126956732 149.25386308319867,124.64821707457304 149.43418775103055,129.74168561166152 147.63094107294455,134.76437263196567 142.58185037458315,139.78702102805255 142.34141748398542,145.37555624148808 141.56001059059054,145.72925939282868 130.56020585470833,145.79999999998836 129.59847429324873,139.78702102805255 125.51111515657976,136.32069034926826 123.28711092006415,132.35914704715833 122.62592047126964,124.15301662596175 126.65317138563842,117.29091461491771 133.32518409425393,113.8952086022473 141.2594694774598,114.4611608303967 146.18834373075515,118.13983835931867 149.31397130573168,124.57747417641804 149.37407952849753,130.519850917859 146.84953417931683,135.8962404304766 142.7020668196492,139.71627976954915 142.10098459408619,145.58777815516805 130.56020585470833,145.79999999998836 129.89901540614665,140.06998598540667 125.69143982417881,136.179207073641 123.28711092006415,132.35914704715833 122.80624513933435,123.72855879960116 126.47284671780653,117.64463297580369 133.80604987498373,113.6829763900605 141.4999023678247,114.31967281922698" stroke="#4dd2ff" stroke-dasharray="none" stroke-linecap="round" stroke-linejoin="round" stroke-width="0.5"><title>2025-10-27 10.0km</title><desc>1761565093000</desc></polyline><polyline fill="none" opacity="1" points="165.77879559155554,139.71627976890886 160.9100269244518,135.11808152933372 158.50569671811536,129.9539126046584 158.44558846321888,123.87004477181472 161.3908929657191,117.85686390008777 168.30334230791777,113.61223230400356 176.8988227949012,113.89520860189805 179.72391078690998,115.38083215500228 182.9697565648239,118.91801748872967 185.61451979191042,125.56787405401701 183.99159690272063,133.56176094623515 178.46163742872886,139.5040559474146 178.28131266334094,145.02185289829504 166.5000946535729,145.51703752478352 165.71868733642623,139.71627976890886 161.6313259860035,136.1084654238657 158.6860214837361,130.59059317200445 158.62591322837397,123.23335765313823 161.15045994496904,118.49355626036413 167.58204324636608,114.03669670503587 174.37427607853897,113.54148821049603 179.18293649074621,115.31008825288154 181.64737495174631,117.36165830219397 185.61451979191042,124.50673126982292 185.4943032816518,129.246489024139 184.11181341321208,133.6325028714491 178.46163742872886,139.5040559474146 178.28131266334094,145.0925935821142 166.92085243947804,145.65851877751993 165.5984708261676,139.78702102752868 161.45100122061558,136.1084654238657 158.38548020785674,129.0342618006398 158.86634624912404,122.95038540131645 161.33078471035697,118.21058195462683 168.24323405278847,113.75372046825942 176.77860628440976,114.10744074510876 180.02445206278935,115.59306381526403 182.1883492481429,117.92760752618778 185.43419502628967,124.93118859041715 185.37408677162603,129.74168561090482 183.93148864759132,133.91547049529618 178.40152917359956,139.71627976890886 178.28131266334094,145.0925935821142 166.7405276738573,145.58777815493522 165.89901210181415,140.1407272052602 160.06851135194302,133.98621238209307 158.32537195272744,129.1050042163115 159.22699577989988,121.18180604849476 161.27067645499483,118.2813255424262 168.42355881840922,113.75372046825942 174.73492560954764,113.68297638994409 181.04629240045324,116.7249648385332 185.25387026113458,123.65781580127077 185.43419502628967,129.6002009101212 183.21018958603963,134.97659799299436 178.58185393898748,139.36257336154813 178.2212044079788,145.16333425824996 166.80063592921942,145.79999999998836 165.89901210181415,140.0699859848828 161.33078471035697,135.75475706235738 158.80623799399473,130.73207765806 158.6860214837361,124.01153071387671 161.21056820009835,118.49355626036413 166.6203111638315,114.46116083022207 172.81146144447848,113.39999999996508 179.7840190420393,115.59306381526403 184.3522464337293,121.04031949356431 185.67462804727256,125.709359628323 185.13365375064313,131.01504653855227 183.27029784116894,134.97659799299436 178.521745684091,139.36257336154813 178.34142091870308,145.23407492687693 166.5000946535729,145.37555624119705 165.838903846452,139.78702102752868 161.6313259860035,136.03772376687266 159.22699577989988,132.14692083455157 158.38548020785674,124.22375956975156 161.5712177308742,117.99835114489542 164.4564139782451,115.59306381526403" stroke="#4dd2ff" stroke-dasharray="none" stroke-linecap="round" stroke-linejoin="round" stroke-width="0.5"><title>2025-10-19 10.0km</title><desc>1760866141000</desc></polyline><polyline fill="none" opacity="1" points="23.831577851669863,154.90589951805305 31.028853503521532,154.552949854522 37.44642429309897,158.08243788656546 40.985084822168574,163.87075687770266 41.464903199113905,169.72961276886053 39.24574320623651,175.72959132032702 34.50753673561849,180.03542423580075 33.84778646728955,186.17648097820347 22.512077315477654,186.24706750083715 21.792349750176072,180.74129577033455 17.77387084439397,177.14134295179974 15.254824366187677,172.90607888292288 14.535096800886095,164.92959015496308 18.073757329955697,158.50597516587004 25.271032982040197,154.3411799648311 32.16842214833014,154.83530960057396 38.10617456166074,158.78833319904516 41.34494860493578,164.71782363712555 41.52488049608655,170.15314247872448 39.48565239435993,175.44724062719615 34.44755943841301,180.31777294131462 34.14767295285128,186.17648097820347 22.452100018272176,186.24706750083715 21.792349750176072,180.9530570814386 17.414007062092423,176.6472302285838 14.535096800886095,171.07078923878726 14.834983286680654,162.81192188005662 18.01378003298305,158.22361701045884 20.35289461980574,156.52946550754132 27.310261083301157,154.19999999995343 34.567514032358304,155.96474736131495 38.16615185840055,158.85892268834868 40.925107524963096,163.0942780476762 41.34494860493578,171.14137739763828 39.48565239435993,175.58841598895378 34.62749132956378,180.38836009858642 34.50753673561849,185.96472136402735 23.831577851669863,186.59999999997672 22.452100018272176,186.24706750083715 21.6124178590253,180.529534390138 17.174097873503342,176.15311713068513 14.4151422069408,170.22373073699418 14.235210315557197,165.4237117622397 17.414007062092423,159.0706911101588 19.993030837271363,156.74123468634207 24.67126001091674,154.6941297429148 31.748581068590283,154.6941297429148 36.96660591638647,157.65890033217147 41.464903199113905,164.8590013233479 40.925107524963096,172.1296108183451 39.24574320623651,175.72959132032702 34.3875821409747,179.9648370402283 34.20765024982393,185.96472136402735 22.811963801039383,186.31765401602024 21.55244056158699,180.45894724823302 16.154483822872862,174.95312661945354 14.355164909968153,170.36490723025054 14.535096800886095,164.64723478275118 17.054143279325217,159.5648171599023 19.933053540298715,156.74123468634207 24.13146433723159,154.76471967546968 31.628626474412158,154.76471967546968 37.98621996701695,158.576564685849 41.7647896844428,166.6237198204035 39.665584285743535,175.2354775268468 34.50753673561849,179.753075408109 34.327604844234884,185.96472136402735 22.3921227210667,186.31765401602024 21.672395155997947,180.74129577033455 16.334415714256465,175.16488981142174 14.355164909968153,169.65902445703978 15.254824366187677,162.6707437504083 18.373643815517426,158.15302745235385 23.231804880546406,155.04707932984456 30.908898909576237,154.48235989897512 35.46717348904349,156.52946550754132" stroke="#4dd2ff" stroke-dasharray="none" stroke-linecap="round" stroke-linejoin="round" stroke-width="0.5"><title>2025-10-16 10.0km</title><desc>1760611285000</desc></polyline><polyline fill="none" opacity="1" points="50.356485256459564,170.11473653884605 50.72031231597066,163.76316132495413 54.116031541256234,158.26792887138436 61.39257273776457,154.20000000001164 68.24464903096668,154.69957156502642 73.88396845874377,158.05382797808852 77.6435147433076,165.90414857515134 76.552033563843,173.75437563838204 70.54888707678765,180.31994826730806 70.30633570323698,186.17181655595778 58.60323194577359,186.59999999997672 57.754302139393985,180.81950002815574 52.66072330181487,175.82396537577733 50.47776094288565,170.61429603694705 50.65967447287403,164.04862669372233 54.35858291434124,157.76836001180345 62.12022685725242,154.20000000001164 70.12442217348143,155.05640816543018 76.24884434742853,161.40806731424527 77.58287689997815,166.26097910717363 76.24884434742853,174.25393237709068 70.42761139036156,180.31994826730806 70.42761139036156,186.02908867952647 58.663869789103046,186.52863611205248 57.87557782582007,180.96222903288435 52.114982712315395,174.9675842039287 50.47776094288565,170.18610220472328 50.72031231597066,163.8345276787295 54.17666938458569,158.12519494997105 61.21065920777619,154.342734771315 69.5180437406525,155.05640816543018 74.73289826489054,158.9815980134299 77.6435147433076,166.04688081116183 76.30948219075799,174.25393237709068 70.54888707678765,180.3913128276472 70.24569786037318,186.24318048282294 58.663869789103046,186.52863611205248 57.754302139393985,180.67677099216962 52.60008545848541,175.4671400230145 50.356485256459564,170.0433708652272 50.59903662954457,164.26272563904058 52.72136114514433,159.62389958038693 59.81598881166428,154.7709389005904 67.21380569483154,154.4141021455289 70.73080060677603,155.6273463240359 74.12651983159594,158.5533966208459 77.6435147433076,166.18961301626405 77.52223905688152,170.4715647904086 76.06693081744015,174.61075838719262 70.48824923322536,180.60540646256413 70.42761139036156,186.24318048282294 58.724507632199675,186.59999999997672 57.87557782582007,180.89086453424534 53.20646389154717,176.4662505243905 50.41712309932336,170.54293041746132 50.72031231597066,163.54906221741112 53.81284232484177,158.5533966208459 60.90746999112889,154.4141021455289 68.97230315068737,154.84230622829637 74.42970904824324,158.91023113409756 77.52223905688152,165.9755146971438 76.43075787741691,173.6830103591201 73.76269277161919,177.67945409647655 70.48824923322536,180.46267738030292 70.48824923322536,186.02908867952647 58.724507632199675,186.52863611205248 57.693664296064526,180.60540646256413 52.78199898847379,175.96669546305202 50.47776094288565,170.61429603694705 51.084139375947416,162.05036651558476" stroke="#4dd2ff" stroke-dasharray="none" stroke-linecap="round" stroke-linejoin="round" stroke-width="0.5"><title>2025-10-08 10.1km</title><desc>1759919017000</desc></polyline><polyline fill="none" opacity="1" points="94.0362617992796,180.92834336904343 90.180915892357,177.3835330196889 87.47012580139562,173.2715289645712 86.56652910425328,165.3310342366458 89.81947721354663,158.73751451796852 96.14465409261174,154.83808987995144 102.40959119214676,154.341797805042 109.57812498835847,157.74493590532802 113.31299133575521,163.913078612939 113.67443001456559,169.44308817503043 111.86723662074655,174.97305101691745 106.56613599834964,180.36117500328692 106.02397798001766,186.17462745739613 94.69889937760308,186.5291045953054 93.91578223998658,180.71565528947394 87.47012580139562,173.5551162805059 86.50628932449035,166.18180613656295 89.75923743378371,159.02110813115723 95.96393475309014,154.90898871712852 102.28911163238809,154.341797805042 109.39740564883687,157.53224029229023 113.13227199669927,163.3458955033566 113.73466979456134,169.30129364167806 111.50579794193618,175.6111206462374 106.56613599834964,180.50296714087017 106.14445753954351,186.24552290025167 94.57841981761158,186.45820918306708 93.49410378141329,180.21938283520285 89.81947721354663,177.0999473623815 87.16892690234818,173.05883839708986 86.50628932449035,165.89821562590078 89.57851809472777,159.30470162129495 92.95194576308131,156.18516647239449 95.96393475309014,154.90898871712852 103.25294810929336,154.41269669577014 110.18052278622054,158.52481922792504 112.71059353812598,161.99883364822017 113.67443001456559,169.51398543012328 111.80699684098363,175.0439476732281 106.62637577787973,180.21938283520285 106.14445753954351,186.17462745739613 94.81937893712893,186.59999999997672 93.85554246022366,180.57386319799116 90.6025943509303,178.16339294367936 87.89180425973609,174.33498076559044 86.44604954496026,166.32360134558985 89.09659985615872,159.87188823265024 94.93985849642195,155.26348278758815 102.40959119214676,154.341797805042 108.7950078509748,157.03595026012044 112.65035375813022,161.92793557915138 113.61419023526832,169.51398543012328 111.68651728122495,175.32753422111273 106.74685533787124,180.0066945248982 106.20469731953926,186.17462745739613 94.69889937760308,186.45820918306708 93.97602201998234,180.92834336904343 88.55444183782674,175.3984308387735 86.26533020543866,167.1743719553342 87.47012580139562,162.63691592519172 90.06043633283116,158.45392078225268 94.63865959760733,155.33438157872297 98.43376572523266,154.20000000001164 103.31318788882345,154.62539332243614 108.97572719026357,157.31954461039277 112.52987419860438,161.78613941773074 113.55395045527257,170.29385473008733 111.80699684098363,175.11484432168072 106.56613599834964,180.50296714087017 106.02397798001766,186.10373200656613 95.0000982764177,186.59999999997672 93.91578223998658,180.64475924766157" stroke="#4dd2ff" stroke-dasharray="none" stroke-linecap="round" stroke-linejoin="round" stroke-width="0.5"><title>2025-10-01 10.0km</title><desc>1759271073000</desc></polyline><polyline fill="none" opacity="1" points="124.95194811327383,176.08438593003666 122.77856085682288,171.6791461542016 122.23521404271014,167.06071785028325 123.62376701203175,161.73172171000624 128.75537581183016,156.18951979995472 135.7585125269834,154.19999999995343 142.33904616441578,155.47897770704003 145.2368958396837,157.46849362767534 147.9536299102474,161.0922392642242 149.76478595705703,166.4212405991857 148.7384641971439,173.1712468105834 146.50470507261343,176.79490570403868 142.64090550574474,179.99223516415805 142.52016176912002,185.88949084543856 138.3545028611552,186.45789823064115 130.4457881222479,186.38684733456466 129.72132570366375,180.7027507055318 125.19343558629043,176.43964591331314 122.59744525211863,171.75019864330534 122.8993045934476,163.57911194121698 125.13306371774524,159.4580035143299 128.27240086602978,156.54479055776028 133.8869846118614,154.34210875729332 142.33904616441578,155.47897770704003 147.9536299102474,160.87907831021585 149.64404222089797,165.6396564457682 149.52329848450609,170.8265156839043 146.9876800184138,176.51069788675522 142.64090550574474,180.34749303077115 142.097558691632,186.24474551877938 130.56653185910545,186.38684733456466 129.84206944028847,180.7027507055318 123.02004832983948,173.2422991382191 122.23521404271014,168.9791458629188 122.77856085682288,163.6501653076266 126.52161668753251,158.03692563943332 133.70586900715716,154.41316312440904 141.4938400092069,155.26581492897822 145.78024265356362,158.25008751702262 149.28181101125665,164.50280510575976 149.58367035235278,170.5423052808037 147.04805188672617,176.22648994647898 142.58053363743238,180.27644147298997 142.58053363743238,185.81843988777837 141.8560712186154,186.31579643045552 130.56653185910545,186.38684733456466 129.78169757174328,180.7027507055318 125.79715426824987,177.07911339821294 123.20116393454373,172.8159850575612 122.41632964741439,165.28439061366953 126.09901360957883,158.32114146085223 133.58512527053244,154.41316312440904 142.822021110449,155.6921404157183 147.65177056891844,160.59486359736184 149.64404222089797,166.06597519019851 149.16106727486476,172.17651341680903 146.74619254563004,176.72385376138845 142.76164924213663,180.1343383337953 142.4597899010405,186.03159273788333 138.41487472923473,186.59999999997672 130.56653185910545,186.59999999997672 129.72132570366375,180.5606476587709 125.31417932244949,176.51069788675522 122.71818898874335,171.75019864330534 122.8993045934476,163.72121866652742 127.97054152493365,156.54479055776028 133.16252219327725,154.48421748389956 138.29413099284284,154.19999999995343 141.4938400092069,155.12370637181448 146.1424738629721,158.53430324589135 149.16106727486476,164.07648534525651 149.64404222089797,170.11598944553407 147.77251430554315,175.30281328980345 142.64090550574474,180.20538990717614 142.03718682331964,186.31579643045552 130.56653185910545,186.52894911903422 129.54021009919234,180.7027507055318 125.13306371774524,176.72385376138845 123.26153580262326,173.1001944753807 122.2955859110225,166.27913445868762" stroke="#4dd2ff" stroke-dasharray="none" stroke-linecap="round" stroke-linejoin="round" stroke-width="0.5"><title>2025-09-27 10.0km</title><desc>1758965825000</desc></polyline><polyline fill="none" opacity="1" points="161.9946303279139,177.4724231674336 159.09366515651345,172.5253617602284 158.9160550441593,164.3034008992836 162.4682572945021,158.58977298962418 164.95479886978865,156.0116559752496 167.9149674118962,154.89679136365885 174.90096517116763,154.89679136365885 182.597403380787,157.9626643966767 185.43916518124752,165.27889327530283 185.6167752938345,169.38988060760312 184.07748765172437,174.47632009768859 178.33476068009622,180.88657012052136 178.33476068009622,186.39097297179978 166.49408651166596,186.59999999997672 166.02045954507776,180.6078649259871 160.10012246086262,174.05825809494127 158.44242807733826,166.4634177433909 159.44888538168743,162.97951602272224 162.76427414896898,158.45041557739023 168.0333741537761,155.10582862532465 175.61140562128276,154.96647045837017 180.05165843456052,156.56908755667973 182.36058989726007,158.58977298962418 185.49836855195463,166.39373989403248 185.26155506866053,171.34084845421603 182.00536967231892,177.82080633967416 178.45316742174327,180.39883595093852 178.03874382609501,186.25162158190506 166.49408651166596,186.53032433136832 165.78364606155083,180.18980690772878 160.21852920250967,175.10341259243432 158.5608348189853,170.43504269002005 158.38322470639832,166.67245124664623 159.74490223568864,162.21305511204991 165.60603594896384,156.0116559752496 173.53928764211014,154.68775403365726 181.65014944714494,157.2658763541258 184.78792810207233,162.97951602272224 185.37996181007475,169.80794564436655 183.42625057231635,175.45179704780458 178.5123707926832,180.39883595093852 178.15715056750923,186.53032433136832 166.49408651166596,186.46064865530934 165.84284943249077,180.7472175383009 161.3433932485059,176.70597952441312 158.5608348189853,170.2956878435798 159.62649549427442,162.21305511204991 164.65878201578744,156.91748204967007 169.51345842471346,154.75743315112777 180.2884719176218,156.29037182655884 182.77501349314116,158.52009428711608 185.08394495607354,164.93050331104314 185.43916518124752,169.80794564436655 182.83421686384827,176.42727251863107 178.39396405103616,180.67754123586928 178.03874382609501,186.39097297179978 166.43488314095885,186.3212972805486 165.60603594896384,180.39883595093852 161.6986134739127,177.19371649378445 159.56729212333448,173.77954994211905 158.5608348189853,165.76663890859345 161.16578313615173,160.19238106085686 165.96125617413782,155.31486581935314 171.7631865167059,154.19999999995343 181.94616630137898,157.61427046952303 184.90633484348655,163.53694156609708 185.43916518124752,170.01697806076845 183.48545394302346,175.45179704780458 178.45316742174327,180.53818860842148 178.0979471965693,186.46064865530934 166.55328988283873,186.59999999997672 165.78364606155083,180.7472175383009 161.81702021532692,177.05436311167432 159.33047864004038,172.5253617602284 158.9752584148664,164.23372281581396" stroke="#4dd2ff" stroke-dasharray="none" stroke-linecap="round" stroke-linejoin="round" stroke-width="0.5"><title>2020-04-24 10.0km</title><desc>1587724293000</desc></polyline><polyline fill="none" opacity="1" points="22.075542766833678,221.50290572375525 23.01873993850313,227.40000000002328 34.33710599527694,226.56747233436909 34.16025652573444,221.29477199265966 39.288891145493835,216.1607852196321 40.88053637230769,211.720547259436 40.7626367257908,206.72524276247714 38.99414202943444,201.93803939619102 33.86550740967505,196.73451689491048 30.859066425822675,195.76318801258458 26.319930038414896,195.90194937150227 18.125904611544684,199.85663546866272 14.294166102772579,208.80662437045248 15.708961859811097,214.7732141633751 22.075542766833678,221.6416615069029 22.782940645469353,227.19186818494927 34.27815617248416,226.70622702047694 34.27815617248416,221.36414991057245 39.58364026155323,215.46700006729225 41.70583389699459,208.59848651406355 39.05309185246006,200.55043752945494 39.70153990783729,199.71787496627076 37.1077476865612,200.13415638305014 32.98126006149687,197.22018078371184 26.37887986144051,195.55504591739736 19.187001429265365,198.81593096838333 15.060513804433867,205.33765126619255 15.650012036552653,214.7732141633751 21.898693297058344,221.50290572375525 22.37029188289307,227.05311360402266 33.8065575864166,226.84498167643324 34.219206348992884,221.01726024597883 39.1120416757185,216.3689206187264 40.99843601882458,210.33296658442123 40.23208831693046,204.7826138259843 36.812998570501804,199.23221297119744 29.62112013855949,195.76318801258458 24.55143534182571,196.24885263777105 18.06695478828624,199.30159327894216 14.70681486511603,205.75392903079046 15.237363274209201,213.59377640252933 17.477456556400284,217.47897493903292 21.662894004257396,221.36414991057245 22.25239223637618,226.98373630241258 33.8065575864166,226.84498167643324 33.86550740967505,221.36414991057245 38.99414202943444,216.23016369360266 40.703686902532354,210.81862016266678 39.76048973132856,204.1581961310003 36.282450161641464,199.0934523337637 33.334959000814706,196.94265860656742 28.501073497347534,195.90194937150227 25.317783043719828,195.97133003972704 19.48175054555759,197.98336615040898 15.473162566777319,203.4643979780958 14.294166102772579,207.41903738316614 15.473162566777319,214.70383553171996 18.47960355086252,218.72778374963673 21.72184382751584,221.15601613459876 22.429241706151515,227.12249089835677 33.86550740967505,226.91435899335193 33.86550740967505,221.36414991057245 39.406790792010725,215.5363786164089 40.88053637230769,207.83531379507622 39.1120416757185,202.2155594091164 33.39390882407315,196.45699450740358 28.618973143631592,195.0 19.599650191841647,198.12212702882243 15.591062213294208,204.22757590480614 14.471015572315082,208.52910721342778 15.826861506095156,215.05072861531517 21.95764312054962,221.78041725972435 22.60609117592685,226.91435899335193" stroke="#4dd2ff" stroke-dasharray="none" stroke-linecap="round" stroke-linejoin="round" stroke-width="0.5"><title>2020-04-16 10.0km</title><desc>1587033949000</desc></polyline><polyline fill="none" opacity="1" points="58.19955526269041,221.8114684179891 58.620312911923975,227.3292593928636 69.92066120868549,226.8340749272611 70.58185180043802,221.88220962294145 74.90964476531371,217.42549875052646 77.49429889698513,211.12945854879217 77.07354124775156,205.11632978293346 73.64737181714736,199.03240198199637 71.48347533494234,197.05157604953274 66.55460001411848,195.21223230398027 61.62572469282895,195.56595265731448 54.53295288980007,198.537196062156 51.226999930571765,204.12592679378577 50.385484631871805,208.0875297394814 51.82808228698559,215.3032447891892 58.07933879131451,221.45776227873284 59.10117879672907,227.3292593928636 70.34141885815188,226.90481558814645 70.52174356509931,221.24553850322263 75.51072712149471,216.29363082925556 77.6145153681282,210.63426180084934 76.8331083052326,204.6918715427746 72.3249906336423,198.1834773182054 65.65297647961415,195.35372046852717 56.276091722771525,197.54678309586598 51.82808228698559,203.06477906700457 50.5057011032477,207.59233068523463 51.1067834594287,213.25172607187415 54.17230347590521,218.20365680824034 58.19955526269041,221.66998598532518 58.92085409001447,227.40000000002328 70.46163532929495,226.90481558814645 70.52174356509931,221.17479722941061 75.99159300653264,215.72769613313721 77.6145153681282,209.8560947246733 77.07354124775156,205.39930178958457 74.36867064470425,200.3057869093027 69.80044473754242,196.55636862764368 66.61470824945718,195.21223230398027 61.02464233688079,195.77818477741675 54.53295288980007,198.3957085874281 51.046675223857164,204.97484373336192 50.44559286767617,209.36089701158926 51.70786581560969,215.16176094661932 58.13944702711888,221.45776227873284 58.620312911923975,227.18777815520298 70.64196003624238,226.5511122068856 70.58185180043802,221.10405594750773 75.75116006401367,216.15214720118092 77.4341906614136,210.56351937778527 76.77300006942824,204.26741302682785 71.78401651280001,198.1834773182054 66.19395060022362,195.0000000000582 60.90442586573772,195.9196728192619 54.53295288980007,198.82017091935268 51.28710816637613,204.40889922948554 50.5057011032477,210.84648902452318 53.090355234919116,216.85956503503257 58.01923055551015,221.59924475749722 58.74052938329987,227.40000000002328 70.64196003624238,226.76333425857592 70.64196003624238,221.24553850322263 75.51072712149471,216.4351144268294 77.55440713278949,210.20980714686448 76.65278359828517,204.40889922948554 73.0462894611992,199.03240198199637 66.55460001411848,195.42446453904267 60.784209394361824,195.6366967050708 53.63132935529575,199.31537662493065 50.5057011032477,208.15827243070817 52.12862346484326,215.37398669897811 58.01923055551015,221.38702102779644 58.68042114772834,227.11703752505127 70.28131062258035,227.04629688692512 70.52174356509931,221.45776227873284 75.39051065035164,216.4351144268294" stroke="#4dd2ff" stroke-dasharray="none" stroke-linecap="round" stroke-linejoin="round" stroke-width="0.5"><title>2020-04-14 10.0km</title><desc>1586861907000</desc></polyline><polyline fill="none" opacity="1" points="94.90524045750499,227.0493593274732 106.346103991149,226.76884665264515 106.52486748388037,221.0884388423292 111.11313046352006,216.6703094257973 113.2582923762966,211.76124138257 112.54323840513825,204.25730830064276 108.49126590369269,198.22604670678265 100.9236113789957,195.42078961251536 95.8586457518395,196.19223652518122 90.07862615445629,198.85722787771374 86.98005894734524,206.4313539363793 87.575937256217,212.8131876680418 89.72109916899353,217.09108495467808 94.19018648681231,221.29882520542014 95.0244161193259,227.40000000002328 106.40569182229228,226.62859026977094 106.64404314570129,220.94818122911965 111.29189395625144,216.3196629427839 113.61581936152652,209.9378637726768 113.01994105242193,205.02874468441587 109.50425902893767,198.92735908110626 102.71124630584382,195.63118431618204 96.63328755367547,195.98184200370451 89.95945049240254,199.06762146478286 86.38418063847348,205.8703106001485 86.68211979279295,211.20020266494248 88.0526399037335,214.6365571807837 94.24977431748994,221.29882520542014 94.4881256413646,226.90910300525138 106.346103991149,226.62859026977094 106.46527965296991,221.36895397800254 111.8877722651232,215.54824001161614 113.31788020697422,210.2885137119447 112.90076539083384,205.4495277791284 108.43167807278223,197.80525891738944 102.89000979857519,195.56105275580194 96.15658490662463,195.91171048145043 90.37656530877575,198.57670298882294 86.50335630006157,207.7638299112441 88.41016688919626,215.05733403138584 94.19018648681231,221.5092115002917 94.54771347204223,226.90910300525138 106.10775266750716,226.69871846493334 106.346103991149,221.15856763761258 110.99395480146632,216.4599215586204 113.13911671424285,211.27033253118861 112.78158972878009,204.8183530344977 108.9083807200659,198.78709666675422 102.53248281311244,195.42078961251536 94.96482828841545,196.5428939088015 89.89986266172491,198.92735908110626 86.44376846915111,207.55343915015692 87.87387641100213,214.56642767897574 94.07101082475856,221.4390827428433 94.54771347204223,226.69871846493334 106.52486748388037,226.55846206698334 106.46527965296991,220.94818122911965 111.47065744874999,215.7586281748372 113.31788020697422,210.2885137119447 112.662414067192,204.53783072839724 108.1933267491404,198.22604670678265 99.13597645168193,195.0 92.22378806676716,197.17407672078116 87.81428857985884,203.13521737448173 86.62253196188249,208.18461122829467 87.09923460916616,212.9534470438375 88.41016688919626,215.47811060864478 94.19018648681231,221.29882520542014 94.72647696500644,226.9792311700876" stroke="#4dd2ff" stroke-dasharray="none" stroke-linecap="round" stroke-linejoin="round" stroke-width="0.5"><title>2020-04-13 10.0km</title><desc>1586775592000</desc></polyline><polyline fill="none" opacity="1" points="129.69621254922822,227.11328129272442 140.4156965231523,226.8265624611522 141.45110122533515,225.96640522085363 141.45110122533515,221.1638400850934 146.32359394058585,215.64443114137975 148.08987254975364,211.9886933833477 148.51621566270478,203.31519555632258 147.5417171192821,200.30453336943174 150.83064970257692,195.71683131862665 149.5516203646548,197.43722331465688 145.47090771514922,199.30097626330098 138.04035632428713,195.3584157563746 131.03614804591052,195.86019748909166 125.92003069468774,198.4407832469442 122.02203652216122,204.03201786766294 121.83931804564781,212.56214377877768 124.09284592675976,216.79132510029012 128.96533864201047,221.52224167162785 129.51349407224916,227.2566406619735 140.65932115889154,226.75488273391966 141.45110122533515,221.02047939621843 146.32359394058585,216.21787836949807 148.39440334495157,211.2718796901754 148.08987254975364,205.1072498789872 145.2272830796428,199.58770702057518 138.2839809602592,195.3584157563746 131.40158499963582,195.57346511702053 124.94553215196356,199.30097626330098 122.38747347588651,203.5302423312678 121.41297493316233,207.4010723309475 122.44837963511236,214.4258541324525 124.03193976753391,217.3647713342216 128.7217140062712,221.4505613698857 129.4525879137218,227.2566406619735 140.65932115889154,226.8265624611522 141.57291354308836,220.87711867602775 145.5927200333681,217.29309058230137 147.7853417552542,213.49399961176096 148.45530950347893,207.68779957853258 146.87174937082455,201.6665012933081 143.27828599349596,197.65227199962828 137.06585778133012,195.3584157563746 130.5488987741992,195.93188056262443 125.55459374119528,198.7991971396259 123.1183473833371,201.73818373808172 121.23025645618327,207.68779957853258 121.41297493316233,211.1285168583854 123.54469049628824,216.8630059065763 128.7826201650314,221.6656022518291 129.33077559573576,227.18496098113246 140.84203963563778,226.89824218058493 141.63381970208138,221.02047939621843 146.44540625833906,216.21787836949807 148.27259102696553,212.203737339878 148.39440334495157,205.96743423014414 146.87174937082455,201.5948188409675 141.02475811261684,196.57702787569724 134.14236215199344,195.28673262061784 126.89452923764475,197.50890621752478 122.44837963511236,202.88510179670993 121.35206877416931,205.96743423014414 121.53478725114837,211.91701204894343 124.27556440327317,217.65149426501011 128.53899552929215,221.52224167162785 129.4525879137218,227.40000000002328 141.20747658936307,226.75488273391966 141.26838274858892,221.30720074300189 146.87174937082455,215.3577073412598 148.39440334495157,209.83824997470947 146.9935616888106,202.45500775775872 144.4355030131992,198.72751437686384 140.96385195339099,196.07524668658152 133.8987375162542,195.0 126.65090460213833,197.65227199962828 122.44837963511236,202.95678410946857 121.16935029719025,208.33293543109903 123.17925354256295,215.93115481745917 128.84352632402442,221.4505613698857 129.33077559573576,227.2566406619735 141.08566427160986,226.75488273391966 141.26838274858892,221.3788810602855 147.11537400679663,215.3577073412598" stroke="#4dd2ff" stroke-dasharray="none" stroke-linecap="round" stroke-linejoin="round" stroke-width="0.5"><title>2020-04-12 10.0km</title><desc>1586649823000</desc></polyline><polyline fill="none" opacity="1" points="158.50335630006157,211.05994290974922 159.8738764107693,202.85469433903927 165.11760553042404,196.5428939088015 169.22916586278006,195.0 178.88239446934313,196.47276244714158 182.87477913987823,199.20788381790044 185.55623153061606,206.4313539363793 185.43705586902797,212.0417605591938 183.17271829443052,216.95082647533854 178.46527965320274,221.29882520542014 178.0481648365967,227.18961561913602 166.6073013029527,227.11948747711722 165.95183516293764,221.22869642538717 161.1848086907994,217.09108495467808 159.0396467782557,213.65474346565315 158.3245928073302,207.48330888117198 161.7210991687607,200.18971944064833 165.95183516293764,196.61302536266157 172.98319920990616,195.0 181.6830225221347,198.01565284619574 185.01994105242193,204.95861414191313 185.73499502358027,210.07812377100345 183.6494209417142,215.9690162697807 178.346103991149,221.57934024976566 178.40569182205945,227.18961561913602 166.48812564113177,227.11948747711722 165.95183516293764,221.22869642538717 160.41016688896343,216.60018014430534 158.7417076237034,213.30409534962382 158.3245928073302,207.7638299112441 159.21841027098708,203.5560016995878 165.1771933613345,196.7532882479718 169.58669284824282,195.07013162097428 177.57146218954585,196.4026309780893 182.69601564737968,199.62867069570348 185.4966436997056,206.01057147973916 185.61581936152652,210.2885137119447 183.47065744898282,216.5300508553628 178.58445531479083,221.4390827428433 178.28651616047136,227.18961561913602 166.48812564113177,227.18961561913602 165.83265950134955,221.22869642538717 161.06563302897848,217.16121418302646 158.98005894734524,213.30409534962382 158.6225319618825,205.8703106001485 161.7210991687607,200.18971944064833 165.35595685406588,196.82341967901448 168.0374092448037,195.77144741395023 174.77083413675427,195.42078961251536 181.56384685984813,198.01565284619574 185.37746803788468,205.30926677776733 185.55623153061606,210.56903352646623 183.11313046352006,217.16121418302646 178.58445531479083,221.15856763761258 178.28651616047136,226.9792311700876 166.54771347227506,227.40000000002328 165.77307167020626,221.0884388423292 160.7676938744262,216.7404386997223 158.98005894734524,213.3742249882198 158.26500497641973,206.0807019083295 161.6615113383159,200.18971944064833 165.23678119224496,196.82341967901448 168.27576056844555,195.56105275580194 172.80443571717478,195.1402632345562 180.01456325664185,196.6831568091293 182.75560347829014,199.13775264535798 185.55623153061606,207.2729180289316 185.43705586902797,212.18202010192908 183.05354263237678,217.16121418302646 178.7632188075222,221.36895397800254 178.46527965320274,227.25974375376245 166.54771347227506,227.25974375376245 165.77307167020626,221.29882520542014 161.42316001444124,217.9326351924683 158.7417076237034,213.86513224436203 158.56294413097203,205.73004969005706 161.24439652170986,200.40011259459425" stroke="#4dd2ff" stroke-dasharray="none" stroke-linecap="round" stroke-linejoin="round" stroke-width="0.5"><title>2020-04-08 10.0km</title><desc>1586343893000</desc></polyline><polyline fill="none" opacity="1" points="14.771504404721782,253.96383605030132 14.533153133001179,248.1430483207805 15.844085128745064,243.3741711822222 21.206988748395815,237.76368251867825 26.331541096093133,236.01039484044304 31.038978717988357,236.5013158689253 37.29569960734807,239.37670298904413 40.27509050699882,244.98717767506605 41.526434685103595,251.3690335266292 38.785395057173446,258.38198939315043 34.37589652556926,262.2390827429481 34.137545253382996,268.1298718805774 22.577508562244475,267.9194874771056 22.100806018337607,262.2390827429481 16.678314580582082,257.11966294277227 14.473565314896405,251.8599429097958 14.831092222826555,246.0391362660448 17.452956214547157,240.84945730003528 21.206988748395815,237.55328824784374 23.769264922244474,236.6415789515013 31.575269079767168,236.5013158689253 37.11693615349941,239.23644049890572 41.347671231022105,247.02096274256473 40.75179305113852,254.5248730664607 38.18951687752269,259.01315169548616 34.37589652556926,262.3092115003383 34.37589652556926,267.989615619299 22.696684198454022,268.1298718805774 21.98163038236089,262.2390827429481 16.14202421857044,256.3482400117791 14.235214042942971,249.3352621172089 15.784497310873121,243.58456356136594 21.0878131124191,237.34289390884805 27.880824363790452,235.79999999998836 35.92517979326658,238.25460221763933 38.54704378498718,240.919588374265 41.58602250297554,248.1430483207805 40.6326174151618,254.5248730664607 37.77240215125494,259.2936680766288 34.614247797755525,262.1689539781655 34.256720889825374,267.989615619299 22.458332926267758,268.0597437537508 21.862454746384174,262.0988252055831 16.380375490756705,257.33005085552577 14.294801860814914,251.29890358448029 15.188619130989537,245.05730830086395 21.26657656626776,237.27276244742097 27.880824363790452,236.01039484044304 36.1039432475809,237.90394532762002 39.440861055161804,242.53260098194005 41.705198139185086,248.70409038086655 41.7647859568242,251.93007279140875 40.21550268935971,256.2079811983276 34.435484343674034,262.0988252055831 34.435484343674034,267.989615619299 22.875447652535513,268.20000000001164 21.80286692851223,262.519597726583 16.380375490756705,257.18979225488147 14.354389678919688,252.28072208480444 14.533153133001179,246.45991922402754 17.274192760698497,241.55076769925654 21.862454746384174,237.34289390884805 26.927419276209548,236.15065802948084 30.979390899883583,236.4311843162286 37.17652397137135,239.0260467067128 40.51344177918509,244.91704704141011 41.28808341315016,252.84176055935677 39.67921232734807,257.18979225488147 34.55465997965075,262.02869642549194 34.37589652556926,267.70910300523974 23.232974560465664,268.20000000001164 22.458332926267758,267.7792311703088 21.80286692851223,262.3092115003383 17.750895304838195,259.01315169548616 14.771504404721782,253.75344704388408 14.294801860814914,248.56382991134888 15.546146038919687,244.0053481144132" stroke="#4dd2ff" stroke-dasharray="none" stroke-linecap="round" stroke-linejoin="round" stroke-width="0.5"><title>2020-04-07 10.0km</title><desc>1586257895000</desc></polyline><polyline fill="none" opacity="1" points="51.099237403832376,253.4729282623739 50.741710495669395,248.07291802909458 53.840277031762525,240.70919512904948 57.89224865543656,236.7818420038675 61.407929916866124,235.87013162125368 67.30712389852852,236.4311843162286 73.08714224398136,239.0260467067128 77.43705295794643,247.86252710857661 76.72199914208613,254.94565050961683 74.04054733202793,259.01315169548616 70.70362952467985,261.958567637892 70.76321734231897,267.7792311703088 59.024417197098956,268.1298718805774 57.951836473308504,262.2390827429481 52.469757217681035,256.6988869126071 50.801298314007,252.28072208480444 51.21841303980909,245.82874468440423 53.95945266750641,240.70919512904948 60.51411264715716,236.5013158689253 66.23454317473806,236.15065802948084 73.3850813342724,238.8156528463005 77.01993823214434,247.16122354596155 76.30488441628404,255.36642767931335 73.623432605993,259.71444242075086 70.76321734231897,262.0988252055831 70.40569043438882,267.6389748327201 59.203180651180446,268.20000000001164 58.309363381238654,262.519597726583 53.482750123599544,258.4521185682388 51.099237403832376,253.3326688258676 51.21841303980909,245.82874468440423 53.482750123599544,241.41050568036735 57.951836473308504,237.27276244742097 62.48051064112224,235.87013162125368 66.89000917272642,236.01039484044304 73.98095951415598,240.07801498362096 76.84117477806285,245.2677001329721 77.01993823214434,253.54305796907283 74.27889860444702,258.59237689565634 70.52486607059836,262.1689539781655 70.40569043438882,267.70910300523974 59.14359283307567,268.0597437537508 58.24977556336671,262.2390827429481 52.82728412584402,257.4703094260185 50.86088613164611,252.63137118838495 50.98006176762283,246.88070190849248 53.89986484963447,240.919588374265 58.54771465319209,236.8519735186128 65.99619190278463,235.79999999998836 73.14673006208614,239.37670298904413 76.12612096196972,243.16377873480087 77.19870168576017,246.7404410438612 77.49664077628404,251.64955321978778 76.54323568800464,255.15603912860388 73.98095951415598,259.1534099013079 70.52486607059836,262.1689539781655 70.46527825249359,267.84935932746157 59.26276846928522,268.0597437537508 58.309363381238654,262.7299838847248 53.006047579459846,257.4703094260185 50.801298314007,252.2105922412593 51.15882522170432,245.9690057465341 53.60192575957626,241.12998155102832 57.117607021238655,237.76368251867825 60.394937011180446,236.5013158689253 67.90300207864493,236.22078961262014 71.89538588444702,237.48315680917585 75.11312805581838,241.62089869746706 77.25828950409777,246.45991922402754 77.13911386788823,254.31448424246628 73.86178387817927,259.50405528291594 70.70362952467985,262.44946899230126 70.16733916266821,267.84935932746157 59.08400501520373,268.20000000001164 58.07101210928522,262.3092115003383 53.54233794147149,258.2417310202727 51.15882522170432,253.75344704388408 50.50335922394879,249.5456525592017 52.17181812785566,243.58456356136594" stroke="#4dd2ff" stroke-dasharray="none" stroke-linecap="round" stroke-linejoin="round" stroke-width="0.5"><title>2020-04-02 10.0km</title><desc>1585825459000</desc></polyline><polyline fill="none" opacity="1" points="88.80503702233545,257.63193936937023 86.91459472524002,253.18217758013634 86.79644208168611,248.03710205934476 87.97796851745807,243.795860148035 91.46347150229849,239.48506096418714 97.4892563240137,236.28670737764332 103.81042275461368,236.7038848362281 107.41407838347368,238.0249449996627 110.01343654189259,240.24988228676375 112.90817630896345,246.92464787559584 113.26263424009085,252.76501083088806 111.31311562098563,257.7709939284832 106.35070459148847,262.22072390886024 106.1734756261576,268.20000000001164 94.59451655647717,268.0609477001126 94.06282966048457,262.3597774737282 89.75025817053393,258.95295646280283 87.50535794300959,255.47658985469025 86.56013679434545,247.6199319663574 89.57302920520306,241.15376085683238 97.13479839335196,236.3562369729625 103.1015068932902,236.5648257136927 107.6503836705815,238.09447440650547 110.3678944723215,240.66705716965953 112.90817630896345,246.78559096727986 113.38078688341193,251.93067651917227 110.8995813683141,258.11863019369775 106.58700987836346,262.15119711501757 106.35070459148847,268.1304738537874 94.53544023516588,267.8523691939772 94.06282966048457,262.568357764394 88.33242644788697,256.8671387571958 86.56013679434545,249.42766707763076 88.09612116077915,243.44821612571832 93.88560069538653,237.67729785171105 99.67508022999391,236.14764816465322 108.00484160124324,238.37259195913794 112.37648941320367,244.56067633419298 113.49893952696584,251.30492507386953 112.14018412586302,256.380446983967 106.35070459148847,262.3597774737282 106.29162826947868,268.0609477001126 94.71266920049675,268.0609477001126 93.70837173028849,262.22072390886024 89.75025817053393,258.81390215997817 87.2099763341248,255.05942459654761 86.56013679434545,248.38474359625252 89.80933449254371,241.15376085683238 96.7212641411461,235.79999999998836 102.33351471018977,236.42576656065648 109.77713125455193,240.5975280411658 113.20355791808106,246.85511942516314 113.43986320518889,252.13926019903738 110.48604711610824,258.81390215997817 106.52793355681933,262.15119711501757 106.11439930414781,267.9914215389872 94.7717455222737,268.1304738537874 93.88560069538653,262.0816703137825 89.75025817053393,258.8834293149994 87.6235105865635,255.82422736269655 86.61921311635524,248.31521530391183 89.21857127477415,241.9185801910935 94.18098230427131,237.1210620237398 98.49355379422195,236.14764816465322 104.57841493794695,237.1210620237398 107.53223102702759,238.0249449996627 109.9543602198828,240.66705716965953 113.20355791808106,247.13323318195762 113.5580158487428,252.41737166623352 110.72235240321606,258.39673907053657 106.58700987836346,262.42930424475344 106.11439930414781,268.0609477001126 94.65359287848696,268.0609477001126 94.06282966048457,262.3597774737282 89.63210552721284,258.39673907053657 86.73736575967632,252.55642735474976 86.44198415102437,248.45427188120084" stroke="#4dd2ff" stroke-dasharray="none" stroke-linecap="round" stroke-linejoin="round" stroke-width="0.5"><title>2020-03-23 10.0km</title><desc>1584960411000</desc></polyline><polyline fill="none" opacity="1" points="142.0848624620121,262.4988310082117 142.20301513094455,267.6437906200881 130.74220622261055,267.9914215388708 129.85606120387092,262.2207239087438 125.89794678729959,258.88342931494117 123.06228272733279,253.94698258279823 122.41244304692373,249.84483599546365 123.06228272733279,245.25596298539313 125.48441244498827,241.22328992479015 132.21911458694376,235.80000000004657 137.94951904146,235.9390592884156 144.03438150300644,237.88588616315974 146.27928221714683,239.97176554769976 149.23309894604608,246.22936303185998 149.46940428437665,251.23539709777106 147.2245035704691,257.7014666525647 142.43932046950795,261.94261668861145 141.7894807890989,267.7828430100926 130.6831298880279,268.20000000001164 129.73790853493847,262.2902506949031 125.72071778355166,258.7443749969825 123.18043539649807,253.94698258279823 122.76690105465241,246.85511942510493 125.54348877980374,241.5709351519472 131.92373291426338,235.8695296481019 139.42642740579322,236.147648164595 144.92052652174607,238.51165068999398 148.7014119348023,244.699733724643 149.46940428437665,251.7220927719609 147.2245035704691,257.7014666525647 142.3802441349253,262.35977747366996 142.20301513094455,267.8523691940354 130.56497721886262,267.9914215388708 129.7969848695211,262.15119711495936 125.77979411836714,258.3272118626046 123.06228272733279,253.94698258279823 122.82597738900222,247.0637047541677 125.30718344147317,241.36234803823754 133.04618327110074,235.80000000004657 142.26209146576002,236.84294392884476 146.33835855172947,239.97176554769976 148.76048826938495,244.699733724643 149.46940428437665,251.44398100307444 147.4017325739842,257.42335747455945 142.43932046950795,262.35977747366996 142.26209146576002,267.9218953701784 130.56497721886262,268.13047385396203 129.73790853493847,261.94261668861145 125.30718344147317,257.9100484570372 123.29858806589618,254.36414856393822 122.88505372381769,246.15983450616477 125.60256511415355,241.22328992479015 131.98280924884602,236.28670737770153 138.48120605247095,236.28670737770153 144.50699217943475,238.3030625823303 146.39743488607928,239.83270713267848 149.17402261146344,246.4379485641839 149.5875569533091,251.79162069497397 146.92912189732306,257.9100484570372 142.43932046950795,262.4293042445788 142.20301513094455,267.9218953701784 130.50590088427998,267.9218953701784 129.73790853493847,262.0816703137243 123.53489340399392,254.71178667416098 122.70782472006977,251.65256484091515 122.9441300581675,245.8121917640674 125.89794678729959,240.87564450927312 132.75080159842037,236.56482571351808 140.90333577012643,237.05153251125012 146.5746638898272,240.04129474353977 148.87864093855023,244.49114762758836 149.5284806189593,251.93067651928868" stroke="#4dd2ff" stroke-dasharray="none" stroke-linecap="round" stroke-linejoin="round" stroke-width="0.5"><title>2019-12-13 10.0km</title><desc>1576239112000</desc></polyline><polyline fill="none" opacity="1" points="177.49131953937467,235.79999999998836 177.42746698664268,236.37112299648288 177.6573361766641,242.6683496740152 179.01101029565325,243.17932928122173 179.8155524607282,243.7353931866819 181.82052261807257,243.97585256388993 182.02485078701284,244.2764261995908 182.39519559318433,259.8753044581099 182.7016878465074,262.64024064768455 182.61229427269427,267.74921699464903 182.0503918081522,267.95958257926395 175.52466091362294,267.8844520498824 172.99609982350376,268.1999999999971 171.514720598876,268.03471306795836 171.1571463032742,265.224805118909 170.87619507103227,252.52691834374855 166.07448310172185,251.83563910062367 165.84461391170043,251.53508183416852 164.92513715161476,251.39983085195126 164.63141540874494,250.3629022766836 164.8995961304754,249.88200523576234 164.75912051438354,249.56641564714664 163.54592201154446,248.51444516955235 162.4348875930882,248.84506532161322 161.8346735968953,248.64969896331604 161.2983121534926,247.88325905606325" stroke="#4dd2ff" stroke-dasharray="none" stroke-linecap="round" stroke-linejoin="round" stroke-width="0.5"><title>2019-11-23 10.0km</title><desc>1574497580000</desc></polyline></svg>