<?xml version="1.0" encoding="utf-8" ?>
<svg baseProfile="full" height="300mm" version="1.1" viewBox="0,0,200,300" width="200mm" xmlns="http://www.w3.org/2000/svg" xmlns:ev="http://www.w3.org/2001/xml-events" xmlns:xlink="http://www.w3.org/1999/xlink"><defs /><rect fill="#222222" height="300" width="200" x="0" y="0" /><text fill="#FFFFFF" style="font-size:12px; font-family:Arial; font-weight:bold;" x="10" y="20">Over 10km Runs</text><text fill="#FFFFFF" style="font-size:4px; font-family:Arial" x="10" y="280">Runner</text><text fill="#FFFFFF" style="font-size:9px; font-family:Arial" x="10" y="290">Floyd Li</text><text fill="#FFFFFF" style="font-size:4px; font-family:Arial" x="65" y="280">SPECIAL TRACKS</text><rect fill="yellow" height="2.6" width="2.6" x="65" y="283" /><text fill="#FFFFFF" style="font-size:3px; font-family:Arial" x="70" y="285.5">Over 20.0 km</text><rect fill="red" height="2.6" width="2.6" x="65" y="287" /><text fill="#FFFFFF" style="font-size:3px; font-family:Arial" x="70" y="289.5">Over 40.0 km</text><text fill="#FFFFFF" style="font-size:4px; font-family:Arial" x="120" y="280">STATISTICS</text><text fill="#FFFFFF" style="font-size:3px; font-family:Arial" x="120" y="285">Number: 22</text><text fill="#FFFFFF" style="font-size:3px; font-family:Arial" x="120" y="290">Weekly: 1.5</text><text fill="#FFFFFF" style="font-size:3px; font-family:Arial" x="141" y="285">Total: 239.4 km</text><text fill="#FFFFFF" style="font-size:3px; font-family:Arial" x="141" y="290">Avg: 10.9 km</text><text fill="#FFFFFF" style="font-size:3px; font-family:Arial" x="167" y="285">Min: 10.0 km</text><text fill="#FFFFFF" style="font-size:3px; font-family:Arial" x="167" y="290">Max: 21.3 km</text><polyline fill="none" points="45.02397538186051,32.0 44.98525379574858,32.97982838284224 42.50707228947431,33.89129254849104 40.62907536677085,35.25848139205482 41.13245598517824,37.74218505786848 40.95820884802379,39.29163671196147 40.41610664362088,40.453717963348026 38.886603995226324,42.117077996517764 38.65427447890397,43.84878131833102 34.956363012548536,43.91713773594529 34.70467270328663,42.25379193489789 32.90411895257421,40.15750178336748 32.32329516217578,38.17512122778862 32.57498547132127,36.42058492277283 33.58174670825247,34.848325671991915 35.9824850425357,33.64064029660949 37.93792513734661,33.70900003127463 39.177015890483744,34.18751755193807 40.648436159826815,35.96485881309491 41.13245598517824,37.51432355798897 40.91948726202827,39.42835248647316 38.847882409230806,42.23100628465181 39.08021192532033,52.18810034978378 42.83620577084366,54.238701939131715 45.236944105126895,54.466545326664345 45.72096393047832,54.89944708306575 46.01137582573574,65.81283396718209 45.875850274576806,66.6785899065726 45.101418553851545,67.17981540151231 40.04825157625601,67.88608566358744 35.59526918211486,68.0 30.658266962622292,67.70382259706093 22.06207486265339,66.51910881693766 14.375840034452267,66.45075974153588 13.988624174147844,58.97779359517153 14.182232104358263,55.4234848596825 30.445298239355907,54.83109423331916 32.09096564585343,54.19313323209644 34.995084598544054,52.415945957705844 34.8208374613896,42.77786120894598 34.588507945183665,42.025935321551515 33.54302512225695,41.091720626689494 32.61370705731679,39.633425981664914 32.284573576180264,37.8789018393436 32.78795419447124,35.98764514205686 34.5691471521277,34.1191579727747 35.866320284316316,33.663426877275924 37.26029738166835,33.617853713498334 39.525510164676234,34.52931511461793 40.99693043413572,36.85352381247503 41.05501281330362,38.88148885530245 40.41610664362088,40.499289646351826 38.86724320217036,42.09429233142873 38.71235685807187,43.89435226582282 35.05316697759554,43.985494131353335 34.62722953117918,42.04872099396016 33.117087675840594,40.59043298268807 32.32329516217578,38.53969836389297 32.516903092269786,36.694020114679006 33.42686036415398,35.076190059640794 35.53718680306338,33.754573175363475 38.17025465355255,33.80014630962978 39.42870619962923,34.46095564648567 40.24185950635001,35.30405420043098 41.17117757117376,37.69661277763953 40.62907536677085,40.11193002638174 38.905964788165875,42.00314964662539 38.67363527207635,43.82599584078707 35.05316697759554,43.96270866865234 34.6659511171747,42.16264931911428 33.15580926195253,40.63600463599141 32.40073833416682,38.88148885530245 32.47818150627427,36.87631004516152 33.27197401993908,35.19012216091505 35.09188856370747,33.9140791020036 37.41518372576684,33.64064029660949 39.6029533369001,34.6204610374989 40.49354981572833,35.736995388084324 41.09373439929914,37.195317043428076 40.99693043413572,39.20049281294632 40.299941885401495,40.61321881055483 38.886603995226324,42.20822063193191 38.73171765112784,43.84878131833102 35.149970942758955,44.008279591595056 34.743394289398566,42.23100628465181 33.213891640887596,40.61321881055483 32.3620167481713,38.53969836389297 32.67178943636827,36.238294597380445 33.775354638462886,34.68882045378268 36.09864980052225,33.617853713498334 38.208976239548065,33.80014630962978 39.680396508891135,34.68882045378268 41.09373439929914,37.10417223619879 41.03565202013124,38.972632892560796 40.18377712741494,40.77271953687887 38.886603995226324,42.04872099396016 38.80916082311887,43.80321036082751 35.11124935664702,44.008279591595056 34.588507945183665,42.00314964662539 33.38813877804205,40.90943434892688 32.49754229921382,39.29163671196147 32.32329516217578,37.468751228341716 33.02028371067718,35.30405420043098 33.117087675840594,35.53191809449345 33.89151939644944,34.6204610374989 35.149970942758955,33.89129254849104 37.87984275817871,33.731786604519584 39.73847888794262,34.64324751200911 40.43546743656043,35.53191809449345 41.13245598517824,37.44596505984373 41.09373439929914,38.63084254931891 40.51291060866788,40.29421699520026 38.82852161617484,42.16264931911428 38.71235685807187,43.84878131833102 35.169331735698506,44.008279591595056 34.6659511171747,42.185434976781835 32.82667578058317,40.08914414414903 32.32329516217578,38.58527046155359 32.67178943636827,36.12436306376185 33.7172722594114,34.75717984774383" stroke="#4DD2FF" stroke-linecap="round" stroke-linejoin="round" stroke-width="0.5"><title>2026-05-11 15.3km</title><desc>1778503630000</desc></polyline><polyline fill="none" points="94.66666666674428,33.26266808115179 92.31773049640469,34.52476565307006 92.01134751760401,37.52974831609754 86.70070921978913,39.21253149828408 80.4709219855722,43.359368268051185 81.64539007097483,48.04705946921604 81.64539007097483,53.27559139369987 80.31773049617186,56.821349375590216 76.13049645372666,61.26853921957081 75.4156028367579,66.4368502026191 65.56028368812986,66.25656109501142 65.10070921992883,61.92960493720602 59.73900709208101,55.679497583711054 58.921985815512016,48.34755114413565 60.045390071114525,45.22242976987036 62.49645390082151,42.217488771362696 67.04113475163467,39.63322649622569 72.30070921988226,39.33273010153789 78.07092198589817,42.09729079302633 81.33900709217414,47.025386556982994 81.84964539017528,52.07363439316396 80.41985815600492,56.400667409878224 75.82411347492598,61.80941122886725 75.26241134735756,66.37675384001341 65.66241134749725,66.37675384001341 64.94751773052849,61.74931436491897 61.78156028385274,58.62426847306779 59.38156028371304,54.71793635765789 58.768794326344505,49.48941802489571 59.33049645391293,46.90518962015631 62.54751773062162,42.03719179413747 68.77730496437289,39.21253149828408 74.54751773038879,39.93372272810666 80.52198581560515,44.501245414372534 81.74751773057505,49.06873050000286 81.69645390077494,52.794808905920945 79.34751773043536,58.08339335897472 75.97730496432632,61.38873304496519 75.56879432615824,66.25656109501142 66.12198581569828,66.67723558848957 64.94751773052849,61.62912061775569 62.03687943262048,58.98485158971744 59.12624113471247,54.35735046811169 58.87092198594473,48.76823921565665 60.35177304991521,44.80173900985392 64.33475177292712,40.77511131140636 67.14326241146773,39.57312723022187 71.33049645391293,39.21253149828408 76.02836879435927,40.594813865143806 78.12198581546545,42.15738978527952 81.5432624113746,47.68646924442146 81.95177304954268,50.99187086627353 81.03262411314063,55.499204980791546 76.13049645372666,61.088248432439286 75.82411347492598,65.95607911876868 66.1730496454984,66.73733191879 64.89645390049554,61.68921749445144 60.19858156028204,56.58095971989678 58.66666666674428,51.11206691805273 59.534751773113385,46.30420454527484 62.39432624122128,41.97709278849652 68.93049645400606,39.15243218670366 74.64964539022185,39.99382195487851 78.83687943266705,42.818478273111396 80.87943262397312,45.94361318775918 81.90070921974257,49.910105230577756 80.57304964517243,56.400667409878224 75.87517730495892,61.56902373424964 75.56879432615824,66.31665747065563 66.12198581569828,66.67723558848957 64.9985815603286,61.92960493720602 60.045390071114525,56.400667409878224 58.768794326344505,52.794808905920945 59.63687943248078,46.24410600186093 62.29219858162105,42.397785690263845 67.90921985823661,39.33273010153789 73.52624113461934,39.63322649622569 78.5304964540992,42.57808255054988 81.79858156014234,48.28745282226009 81.03262411314063,55.078522012685426 79.09219858166762,58.443976827082224 75.97730496432632,61.50892684434075 75.56879432615824,66.25656109501142 65.96879432629794,66.61713925184449 64.9985815603286,61.80941122886725 61.577304964419454,58.50407404883299 59.17730496451259,54.29725279728882 58.81985815591179,48.64804265630664 60.65815602825023,44.20075165631715 63.31347517715767,41.316003298328724 66.42836879449897,39.69332575565204 71.33049645391293,39.21253149828408 76.13049645372666,40.53471470344812 80.67517730500549,45.282528423762415 81.84964539017528,48.52784607093781 81.59432624094188,53.57608023704961 79.70496453880332,57.84300425008405 75.97730496432632,61.56902373424964 75.97730496432632,65.59550053236308 75.16028368799016,66.4368502026191 65.56028368812986,66.25656109501142 64.7432624110952,61.50892684434075 60.811347517883405,57.662712350080255 59.17730496451259,54.41744813264813 58.66666666674428,50.81157674017595 59.63687943248078,45.94361318775918 63.41560283699073,41.376102375390474 67.44964539026842,39.513027957757004 73.6283687944524,39.69332575565204 77.20283687952906,41.376102375390474 79.65390070923604,43.71996130485786 89.15177304949611,38.431239941273816" stroke="#4DD2FF" stroke-linecap="round" stroke-linejoin="round" stroke-width="0.5"><title>2026-05-10 11.2km</title><desc>1778422578000</desc></polyline><polyline fill="none" points="128.5431889576139,41.591032133525005 126.17138698080089,38.60879076072888 125.78622255730443,37.29659176558198 126.00921248667873,34.9584723640437 127.08361851039808,33.26451321170316 128.92835338122677,32.167011594967335 131.05689361679833,32.0 133.42869559372775,33.07364375810721 134.7260915468214,34.98233085066022 134.96935328806285,36.270685288109235 134.66527611145284,38.22706095020112 133.7733163938392,39.777834190346766 132.53673587588128,40.89915573201142 132.759725805372,51.37250045646215 136.63164185290225,53.49573743068322 139.69268542982172,54.09214862987574 140.01703441818245,66.44942540401826 139.32779281795956,67.06965655180102 137.78713512374088,67.35591649272828 130.44873926381115,68.0 123.84012862748932,67.66603100899374 115.7719475440681,66.47328048042255 106.8320785544347,66.35400507254235 106.6090886250604,54.95097792026354 110.25801474321634,54.52156369360455 123.53605145099573,54.25914347630169 125.15779639245011,53.78201500776049 128.62427620473318,51.682637470410555 128.56346076948103,43.16563929169206 132.39483319350984,43.0224936514569 132.80026942887343,51.539497364428826 136.51001098228153,53.471880949189654 139.69268542982172,54.116005044284975 140.05757804168388,65.54293058610347 139.79404448869172,66.80725127925689 136.10457474703435,67.61832111183321 129.51623592246324,68.0 124.28610848647077,67.71374089588062 115.93412203819025,66.4971355542948 106.87262217805255,66.3301499831723 106.62936043681111,54.831696274646674 123.53605145099573,54.282999872652 125.29969907482155,53.734302104159724 128.58373258111533,51.634924112062436 128.38101446349174,42.02047156568733" stroke="#4DD2FF" stroke-linecap="round" stroke-linejoin="round" stroke-width="0.5"><title>2026-05-10 11.3km</title><desc>1778397813000</desc></polyline><polyline fill="none" points="169.70146074553486,32.0 173.9286644611566,36.257088030510204 174.24542442128586,36.369195409359236 174.29307857457025,36.514274935074354 174.25663716324198,36.79783747028523 174.4893015587295,37.031939437407345 174.5145302281162,37.259445261566725 173.19142667786218,37.45397788149421 172.41774748322496,37.32868582780611 172.0869715956651,37.31879432795722 167.14215239514306,37.308902824914185 166.32922860368853,37.27263395296541 165.7910169900133,37.28252546777367 165.6732831995323,37.32538866154209 165.64805453016015,40.66853224939587 165.5387302961317,40.985023904329864 165.57236852198548,42.9168705481643 165.5106984412414,51.397747181765226 165.54713985258422,54.21869050405985 165.48546977186925,65.76668339006574 165.51350162673043,67.01182692563998 165.67048001405783,67.11723357475239 168.87732421210967,67.15346702648276 168.93058473638666,67.20287620965428 168.93619110736472,67.2885186047497 168.81565413138014,68.0 168.95301022028434,67.30498826861367 168.88853695406578,66.30361658152287 168.92217517993413,65.80621253545723 169.10718542210816,65.08479758893736 170.43589534334023,62.422991535457186 171.11426623139414,61.3456848427486 171.56838228041306,60.75265578260223 171.4898930867639,60.6768790181668 171.23760639286775,60.996458011117284 170.44430489980732,62.3109797639936 170.30134243992507,62.31756870308345 170.12474175418902,62.21543998754896 170.03223663309473,62.08366049561664 170.0154175201751,61.90905179382207 170.01261433468608,59.80049061417776" stroke="yellow" stroke-linecap="round" stroke-linejoin="round" stroke-width="0.5"><title>2025-11-09 21.3km</title><desc>1762645227000</desc></polyline><polyline fill="none" points="21.341020735446364,74.88943728193408 27.77719689370133,72.07809305179399 36.13759066606872,73.24948781332932 39.91967356321402,75.59227162622847 42.64011915563606,78.95024848193862 45.22786008520052,85.58806369191734 43.104585476452485,94.95899288996588 37.00017097615637,101.51857085974189 37.06652330746874,107.06292951019714 24.061466328334063,107.84382166957948 22.80077202944085,101.2843012457015 17.49258550698869,96.05226002953714 14.772139914566651,89.3364499870222 15.170253903605044,83.24531236081384 18.55422281147912,76.99793825973757 25.18945596413687,72.78093013714533 33.41714507341385,72.31237215641886 39.78696890012361,75.35799358779332 44.76339376484975,83.01103680906817 44.49798443866894,91.75727244548034 41.51212951983325,97.06743517436553 37.33193263364956,100.89385171968024 37.00017097615637,107.29719724698225 24.592284980462864,107.84382166957948 22.867124360753223,101.12812146061333 15.833777219057083,93.00672601786209 14.838492246111855,86.68134504108457 16.231891208095476,80.66827710391954 21.60643006186001,74.49897346098442 29.767766839591786,72.0 37.53098962828517,73.71804518502904 40.78225387330167,76.60747558099683 44.298927444033325,82.23011775314808 45.02880309079774,86.68134504108457 44.4316321068909,91.2106358265155 42.573766824323684,95.73989815852838 37.19922797079198,101.05003155552549 37.00017097615637,107.14101876411587 26.649207257665694,108.0 23.928761665476486,107.60955411044415 23.198886018246412,101.67475056031253 17.82434716471471,96.36462176468922 15.900129550369456,93.00672601786209 14.904844577657059,86.44707060564542 16.364595871418715,80.51209285308141 22.13724871398881,74.18660225206986 30.4976424863562,72.07809305179399 37.796398954465985,73.79613805084955 43.03823314514011,79.5749866362894 44.630689101759344,83.40149601968005 44.76339376484975,90.66399879322853 42.573766824323684,95.66180766985053 37.39828496519476,100.42531200911617 37.06652330746874,107.06292951019714 24.260523322969675,107.84382166957948 22.99982902384363,101.2843012457015 17.82434716471471,96.44271217728965 15.236606235150248,90.11736134550301 15.10390157205984,83.87004679330857 18.156108822207898,77.62267810612684 23.86240933369845,73.24948781332932 31.824689117027447,72.23427913017804 37.53098962828517,73.87423090793891 43.635404128814116,80.43400071479846 44.96245075925253,85.43188050651224 44.23257511248812,92.22581778874155 41.64483418292366,96.75507374346489 37.19922797079198,100.97194164176472 36.933818644611165,107.14101876411587 33.2180880792439,107.84382166957948 23.99511399678886,107.76573249162175 23.066181355156004,101.2843012457015 18.156108822207898,96.83316411392298 16.099186545005068,93.24099832162028 15.10390157205984,83.79195501888171 20.013974105240777,75.74845694308169 27.180025909794495,72.31237215641886 36.270295329159126,73.40567363769514 42.573766824323684,78.8721561745042 44.89609842770733,85.27569728757953 44.3652797753457,91.83536335738609 41.44577718828805,97.14552551094675 37.33193263364956,100.73767185019096 37.06652330746874,107.14101876411587 32.95267875283025,107.76573249162175 23.928761665476486,107.60955411044415 23.13253368693404,101.36239112570183 18.02340415935032,96.75507374346489 15.302958566928282,91.2106358265155 15.76742488751188,81.76156591356266 20.810202083317563,75.12371547281509 26.71555958944373,72.39046517427778 34.213373051956296,72.62474417721387 38.85803625895642,74.73325177869992 42.242005166830495,78.40360215265537 44.96245075925253,85.11951403465355 44.23257511248812,92.30390864989022 41.64483418292366,96.83316411392298 37.265580302104354,100.6595819023205 37.00017097615637,107.06292951019714 33.01903108460829,107.6876433051657" stroke="#4DD2FF" stroke-linecap="round" stroke-linejoin="round" stroke-width="0.5"><title>2025-11-01 10.0km</title><desc>1761964262000</desc></polyline><polyline fill="none" points="90.39820286096074,81.23495365487179 91.52864409727044,86.32195397827309 91.19616138096899,91.09587555151666 88.00432730163448,97.4349685634952 83.88154161628336,100.87840318580857 83.15007963962853,107.60870529402746 70.51573640992865,108.0 69.51828826009296,101.58274006447755 63.66659244825132,95.79150534479413 61.20622034557164,88.98283218848519 61.80468923551962,82.17409487179248 64.86353022814728,77.32185211090837 68.72032974031754,74.11309303075541 76.03494950500317,72.0 82.01963840355165,73.09567863924894 85.67694828566164,75.05224350461503 90.53119594766758,81.78278617979959 91.46214755414985,88.74804921145551 89.40075471112505,95.47846430813661 83.54905889951624,101.34796118119266 83.21657618298195,107.60870529402746 70.24975023628213,107.76522320194636 69.25230208714493,101.269701536512 64.39805442467332,97.12192823854275 62.336661582114175,93.28717325272737 61.47220651921816,84.36541963100899 65.39550257450901,76.93054079101421 72.11165344947949,72.86089049925795 79.69225938757882,72.62610228301492 86.6078998921439,76.14791751519078 90.59769249102101,82.17409487179248 91.52864409727044,88.98283218848519 89.40075471112505,95.4002040278283 83.68205198645592,100.80014349031262 83.08358309650794,107.68696425238159 70.31624677986838,107.8434821430128 69.51828826009296,101.34796118119266 62.735640842001885,94.30455921211978 61.139723802683875,87.02630504657282 61.87118577887304,82.48714167287108 64.13206825172529,78.49578479939373 69.78427443350665,73.64351733576041 77.89685271773487,72.15652562165633 86.07592754554935,75.75660555943614 90.86367866420187,83.19149647915037 91.46214755414985,89.29587603977416 88.8022858214099,96.10454624606064 83.68205198645592,100.87840318580857 82.81759692309424,107.8434821430128 70.38274332345463,107.8434821430128 69.7177778899204,101.269701536512 64.9965233146213,97.35670849506278 62.27016503876075,92.7393494505086 61.538703062105924,83.66106596874306 66.126964550931,76.06965514086187 72.84311542613432,72.54783952748403 81.35467297025025,72.93915322091198 87.67184458533302,77.55663880135398 90.99667175090872,84.44368110655341 91.19616138096899,90.07848507427843 89.2012650812976,95.63498484349111 83.6155554431025,101.19144188350765 83.34956926945597,107.37392836890649 82.48511420655996,107.76522320194636 70.31624677986838,107.8434821430128 69.25230208714493,101.19144188350765 64.73053714167327,97.35670849506278 62.27016503876075,92.97413113055518 61.538703062105924,83.89585059921956 65.99397146445699,76.30444223823724 73.37508777249604,72.54783952748403 82.15263149002567,73.17394133564085 87.6053480419796,77.24358986393781 91.06316829426214,84.36541963100899 91.12966483761556,90.93935403280193 88.3368100184016,96.88714790600352 83.74854852957651,101.11318222188856 83.08358309650794,107.60870529402746 70.31624677986838,107.8434821430128 69.58478480344638,101.50448044511722 64.9300267715007,97.20018833252834 62.27016503876075,92.97413113055518 61.738192692399025,83.42628126218915 65.79448183462955,76.69575389724923 73.90706011885777,72.31305120937759 82.41861766320653,73.01741593430052 87.87133421516046,77.32185211090837 91.12966483761556,84.28715814684983 91.06316829426214,91.01761479629204 89.06827199482359,95.86976558319293 83.6155554431025,101.34796118119266 83.88154161628336,107.13915136724245 84.48001050576568,101.66099967516493 89.73323742789216,96.18280645040795 92.060616443865,90.78283248021035 92.19360953080468,84.913249782403 90.1987132311333,79.27840553212445" stroke="#4DD2FF" stroke-linecap="round" stroke-linejoin="round" stroke-width="0.5"><title>2025-10-27 10.0km</title><desc>1761565093000</desc></polyline><polyline fill="none" points="115.62115079956129,75.0639011383173 118.35458258353174,73.30215960583882 121.9340765865054,72.68937891366659 130.32961706630886,74.06813472451176 135.9266440528445,79.96611534641124 138.00925874547102,86.01723914482864 137.48860507202335,91.76192901545437 135.9266440528445,95.74488659802591 130.26453535701148,101.4129029433825 130.26453535701148,107.15746775193838 117.50852036476135,107.69362475315575 116.59737643692642,101.4129029433825 111.32575799617916,96.43424236407736 108.72248963010497,90.84278177225497 108.65740792127326,84.2555249009747 111.84641166962683,77.74480374401901 119.33080822089687,73.14896448265063 128.63749262853526,73.45535469590686 131.69633295829408,75.0639011383173 135.21074525197037,78.89375889237272 138.07434045453556,86.09383531677304 136.31713430769742,94.74914930539671 130.32961706630886,101.18311938049737 130.1343719388824,107.15746775193838 117.37835694663227,107.69362475315575 116.53229472762905,101.4129029433825 112.106738505885,97.50657221965957 108.9177347579971,91.53214231674792 108.85265304846689,83.56615726306336 111.58608483267017,78.4341770572355 118.54982771119103,73.60854975297116 125.90406084456481,73.0723669087165 131.11059757624753,74.98730377154425 133.7789476509206,77.20862403616775 138.07434045453556,84.9448918668786 137.94417703640647,90.07682482351083 136.44729772605933,94.82574453164125 130.32961706630886,101.18311938049737 130.1343719388824,107.23406163405161 117.83392891054973,107.84681239299243 116.40213130949996,101.48949744785205 111.91149337845854,97.50657221965957 108.59232621197589,89.84703757718671 109.11297988542356,83.25977143069031 111.78132996009663,78.12778900103876 119.26572651183233,73.30215960583882 128.50732921017334,73.68514726898866 132.0217415043153,75.29369318846148 134.36468303319998,77.82140081189573 137.8790953271091,85.40446947084274 137.8140136182774,90.61299477465218 136.25205259863287,95.1321253531496 130.26453535701148,101.4129029433825 130.1343719388824,107.23406163405161 117.63868378289044,107.77021857723594 116.72753985505551,101.8724698452861 110.41461406787857,95.20872053777566 108.52724450291134,89.92363333445974 109.50347014004365,81.3448569693137 111.71624825079925,78.20438602741342 119.46097163925879,73.30215960583882 126.29455109965056,73.22556204837747 133.12813055957668,76.51924952823902 137.68385019991547,84.02573576307623 137.8790953271091,90.45980340149254 135.47107208892703,96.28105225175386 130.45978048443794,101.02993029728532 130.06929022958502,107.31065550784115 117.70376549242064,108.0 116.72753985505551,101.79587538226042 111.78132996009663,97.12359745771391 109.04789817612618,91.68533345742617 108.9177347579971,84.40871761814924 111.65116654173471,78.4341770572355 117.50852036476135,74.06813472451176 124.21193640679121,72.91917173546972 131.76141466735862,75.29369318846148 136.70762456255034,81.19166358857183 138.13942216383293,86.24702763569076 137.55368678132072,91.9917156395386 135.53615379799157,96.28105225175386 130.39469877583906,101.02993029728532 130.19945364817977,107.38724937353982 117.37835694663227,107.54043707996607 116.66245814575814,101.48949744785205 112.106738505885,97.42997728381306 109.50347014004365,93.21724304062082 108.59232621197589,84.63850663189078 112.04165679682046,77.89799787168158 115.16557883564383,75.29369318846148 120.56736069428734,73.14896448265063 129.288309720112,73.99153725011274 132.86780372285284,76.44265231938334 135.53615379799157,79.88951851066668 136.5123794353567,78.81716194044566 131.43600612180308,73.83834227611078 124.86275349836797,72.0 117.31327523733489,73.14896448265063 112.56231046980247,76.44265231938334 110.8701860322617,78.66396801214432 112.95280072465539,77.36181827983819" stroke="#4DD2FF" stroke-linecap="round" stroke-linejoin="round" stroke-width="0.5"><title>2025-10-19 10.0km</title><desc>1760866141000</desc></polyline><polyline fill="none" points="180.36274410993792,76.00008838629583 183.69481617142446,81.64723437064094 184.49451346625574,88.54924187576398 182.36198734678328,95.45118359389016 176.7641062841285,100.94131752953399 176.4308990780264,107.05884631245863 163.63574236351997,107.76471169269644 162.5028378625866,100.86288733786205 155.83869374054484,93.64727335848147 154.43922347482294,86.03942857653601 157.90457841870375,77.41187901131343 165.03521262924187,72.78433279786259 173.0321855759248,72.39216650504386 180.1628197862301,76.31381987396162 184.09466481860727,82.74528541968903 184.62779634841718,89.25512529874686 182.1620630233083,95.92176813370315 176.89738916698843,100.70602692873217 176.16433331323788,107.52942330914084 163.56910092243925,107.60785277868854 162.76940362760797,101.49032863369212 158.3044270654209,97.4903810575488 155.50548653420992,92.78453209216241 154.70578923961148,83.92176683887374 158.63763427175581,76.78441685100552 166.63460721843876,72.15686662757071 174.29837295878679,72.70589955622563 180.8958756402135,77.0981479989714 184.49451346625574,83.68647070793668 184.69443778973073,89.72571386530763 182.428628787864,95.60804514138727 176.83074772544205,101.0197477125912 176.4975405195728,107.52942330914084 163.50245948089287,107.60785277868854 162.76940362760797,101.72561897942796 157.90457841870375,96.94136692065513 154.70578923961148,90.74532137642382 155.03899644571356,81.56880208902294 158.5709928306751,76.47068556718295 161.17000903841108,74.5882950083469 168.90041621983983,72.0 176.96403060783632,73.96083040145459 180.96251708106138,77.17658076487714 184.02802337729372,81.88253116415581 184.49451346625574,90.8237526640878 182.428628787864,95.76490665436722 177.03067204914987,101.09817788732471 176.89738916698843,107.29413484892575 165.03521262924187,108.0 163.50245948089287,107.60785277868854 162.56947930390015,101.25503821129678 157.63801265344955,96.39235236746026 154.5725063572172,89.80414526333334 154.3725820335094,84.4707908469718 157.90457841870375,77.41187901131343 160.77016039099544,74.8235940960003 165.96819280623458,72.54903304768959 173.83188287029043,72.54903304768959 179.62968825665303,75.8432225913275 184.62779634841718,83.84333480376517 184.02802337729372,91.92178979818709 182.1620630233083,95.92176813370315 176.7641062841285,100.62759671139065 176.56418196042068,107.29413484892575 163.9023081283085,107.68628224002896 162.5028378625866,101.17660805361811 156.50510815274902,95.05902957718354 154.5058649161365,89.96100803365698 154.70578923961148,83.60803864750778 157.50472977105528,77.96090795547934 160.7035189496819,74.8235940960003 165.36841983534396,72.62746630609035 173.69859998789616,72.62746630609035 180.76259275735356,76.86284965096274 184.96100355451927,85.80413313384634 182.62855311157182,95.37275280762697 176.89738916698843,100.39230600901647 176.6974648432806,107.29413484892575 163.43581803957932,107.68628224002896 162.63612074498087,101.49032863369212 156.70503247645684,95.29432201269083 154.5058649161365,89.17669384117471 155.50548653420992,81.41193750046659 158.9708414778579,76.39225272485055 164.36879821680486,72.94119925540872 172.89890269353054,72.31373322108993 177.96365222614259,74.5882950083469 182.49527022917755,79.21582969283918 184.56115490710363,85.01981443882687 184.49451346625574,90.35316481121117 181.89549725828692,96.15706028905697 176.83074772544205,100.78445713722613 176.96403060783632,106.90198724565562 177.76372790243477,101.33346836059354 181.4290071700234,98.11782527546166 184.49451346625574,93.09825630794512 185.62741796672344,87.6864945354173 185.16092787822708,83.84333480376517" stroke="#4DD2FF" stroke-linecap="round" stroke-linejoin="round" stroke-width="0.5"><title>2025-10-16 10.0km</title><desc>1760611285000</desc></polyline><polyline fill="none" points="21.615016484633088,114.5263738015201 29.53044092329219,112.0 36.775066680740565,113.42108634090982 42.812254811637104,119.18435254093492 45.16005019610748,125.73705189861357 43.61721322941594,134.18442077346845 36.97630628524348,141.36855465109693 36.90922641684301,147.5263273330056 24.0298917372711,147.92105457693106 23.157853451324627,141.60539302398684 17.187745188130066,135.84230410685996 14.839949804125354,129.7633801153861 15.242429012665525,122.73702817887533 18.99890162772499,116.65799488528864 27.04848580271937,112.15789861936355 34.62851090054028,112.71054351690691 40.866938636638224,116.42114840616705 45.02589046000503,125.10546898370376 43.818452833686024,133.78968609054573 37.17754588951357,141.05277003458468 36.90922641684301,147.5263273330056 23.96281186887063,148.0 23.02369371522218,141.60539302398684 17.388984792865813,136.07914427516516 14.9741095402278,130.31601166405017 15.175349144730717,123.05282073095441 19.267221100162715,116.10535298060859 27.853444220032543,112.15789861936355 36.707986812340096,113.10528961592354 43.48305349331349,120.13173440442188 44.95881059183739,125.50020836963085 43.48305349331349,134.34231458662543 37.04338615341112,141.05277003458468 37.04338615341112,147.36843637563288 24.0298917372711,147.92105457693106 23.157853451324627,141.76328522950644 16.785265979822725,135.13178314000834 14.9741095402278,129.8423275052337 15.242429012665525,122.81597632972989 19.06598149612546,116.50009724084521 26.847246198449284,112.31579720409354 36.0371881313622,113.10528961592354 41.806056790286675,117.44748259335756 45.02589046000503,125.26336476375582 43.55013336148113,134.34231458662543 37.17754588951357,141.13171620143112 36.842146549141034,147.60527279909002 24.0298917372711,147.92105457693106 23.02369371522218,141.4475007839501 17.321904924465343,135.68441061873455 14.839949804125354,129.68443271692377 15.108269276563078,123.28966505517019 17.45606466080062,118.1580207995139 25.304409231524915,112.78949275385821 33.48815314262174,112.39474648371106 37.37878549401648,113.73688292957377 41.13525810861029,116.97379007103154 45.02589046000503,125.42126050958177 44.891730724135414,130.15811697859317 43.281813888810575,134.73704897024436 37.1104660211131,141.36855465109693 37.04338615341112,147.60527279909002 24.096971604973078,148.0 23.157853451324627,141.68433913087938 17.99270360567607,136.78966431878507 14.907029672060162,130.23706432554172 15.242429012665525,122.50018367526354 18.663502287352458,116.97379007103154 26.51184685761109,112.39474648371106 35.43346931831911,112.86844198207837 41.47065744944848,117.36853386112489 44.891730724135414,125.18441687809536 43.68429309758358,133.71073912834981 40.732778899837285,138.13175584428245 37.1104660211131,141.21066235983744 37.1104660211131,147.36843637563288 24.096971604973078,147.92105457693106 22.95661384705454,141.36855465109693 17.52314452920109,136.23703767824918 14.9741095402278,130.31601166405017 15.644908221671358,120.8422699936782 18.328102946514264,117.36853386112489 26.713086462346837,112.31579720409354 35.36638944991864,112.78949275385821 41.806056790286675,117.76327743718866 44.757570987567306,124.31598957069218 44.15385217452422,132.4475865701679 41.269417845411226,137.42123710917076 37.1104660211131,140.9738238590653 36.842146549141034,147.5263273330056 24.633610550314188,148.0 23.6274125284981,146.97370883252006" stroke="#4DD2FF" stroke-linecap="round" stroke-linejoin="round" stroke-width="0.5"><title>2025-10-08 10.1km</title><desc>1759919017000</desc></polyline><polyline fill="none" points="60.275265188654885,127.88717764167814 66.79192784545012,116.69575389689999 71.11420409707353,113.48699203616707 76.1679424836766,112.0 87.13987450744025,114.42614332417725 91.79463354800828,120.8436444538529 93.05806814460084,128.5132661574753 90.4647023936268,135.86976558278548 85.0784812180791,140.95666287303902 84.87899154494517,147.4521873522899 71.84566623182036,147.76522320188815 71.18070065439679,141.73925927723758 66.9249209605623,137.82626877859002 63.93257586332038,133.28717325231992 62.93512749741785,124.52194257336669 66.52594161429442,117.24358986358857 73.5080801746808,112.93915322097018 80.42372217797674,112.39131399057806 88.33681254647672,116.14791751507437 92.45959912496619,122.95671161985956 92.8585784714669,129.0610931640258 90.8636817401275,135.16542313538957 85.01198466075584,141.11318222159753 84.41351564088836,147.53044632758247 71.91216278984211,147.92174107563915 71.04770753905177,141.5044804449426 63.93257586332038,133.60021523863543 62.86863093986176,125.4610795180779 66.4594450565055,117.55663880117936 73.30859050154686,113.01741593435872 80.2907290623989,112.39131399057806 88.13732287334278,115.9131303668837 92.26010945206508,122.33061828906648 92.92507502925582,128.90457120462088 90.4647023936268,135.86976558278548 85.01198466075584,141.2697015363956 84.54650875646621,147.60870529408567 71.77916967403144,147.8434821430128 70.5822316352278,140.95666287303902 66.52594161429442,137.51322862319648 63.600093074608594,133.0523916737293 62.86863093986176,125.14803400525125 66.25995538360439,117.86968760297168 69.98376261559315,114.42614332417725 73.30859050154686,113.01741593435872 81.35467398585752,112.46957676310558 89.00177812366746,117.00880307191983 91.79463354800828,120.8436444538529 92.8585784714669,129.1393541309517 90.79718518210575,135.24368344136747 85.0784812180791,140.95666287303902 84.54650875646621,147.53044632758247 72.04515590518713,148.0 70.98121098149568,141.34796118101804 67.3903968646191,138.68712850648444 64.39805176714435,134.4610800013761 62.802134382072836,125.61760222335579 65.72798292175867,118.49578479933552 72.17814902029932,113.40872937365202 80.42372217797674,112.39131399057806 87.47235729638487,115.36529339139815 91.72813699021935,120.76538258837536 92.7920819139108,129.1393541309517 90.6641920665279,135.55672457977198 85.21147433388978,140.72188378608553 84.61300531425513,147.53044632758247 71.91216278984211,147.8434821430128 71.11420409707353,141.73925927723758 65.12951390212402,135.63498484314186 62.6026447089389,126.55673774384195 63.93257586332038,121.5480008625309 66.79192784545012,116.93054079078138 71.84566623182036,113.48699203616707 76.03494936833158,112.2347884196206 81.42117054341361,112.7043650301639 87.67184696928598,115.67834314261563 91.59514387487434,120.6088588318089 92.72558535612188,130.00022420863388 90.79718518210575,135.3219437386142 85.01198466075584,141.2697015363956 84.41351564088836,147.4521873522899 72.24464557832107,148.0 71.04770753905177,141.4262208173168 65.92747259465978,136.7306276416639 63.5335965170525,132.03500395145966 62.802134382072836,127.57413318019826 64.73053455585614,119.7479775645188 68.78682457678951,115.36529339139815 75.96845281077549,112.39131399057806 84.48001219891012,113.33046670281328 91.59514387487434,120.295811216929 92.7920819139108,125.06977260601707 92.26010945206508,131.80022196564823 88.27031598892063,138.45234868244734" stroke="#4DD2FF" stroke-linecap="round" stroke-linejoin="round" stroke-width="0.5"><title>2025-10-01 10.0km</title><desc>1759271073000</desc></polyline><polyline fill="none" points="119.48511547897942,113.31616096559446 124.7476356215775,112.0 132.5098528319504,114.0903721661889 137.37768396385945,120.82597422483377 138.36440649069846,125.31634033378214 138.23284348705783,130.42603297071764 136.7856504477095,134.52924455347238 130.53640777873807,141.0323995674844 130.33906327327713,147.5354954174254 117.70901493099518,147.92258259042865 116.32760339323431,141.34207214025082 111.26242775633,136.54213218967197 108.89429369219579,131.74216000648448 108.30226017604582,126.70989649376133 109.81523471698165,120.90339456906077 115.40666236844845,114.86458252806915 123.03731657518074,112.69679140119115 130.20750026940368,114.0903721661889 133.3650123551488,116.25815906614298 136.32517993543297,120.2066111684544 138.29862498864532,126.01311875332613 137.18033945839852,133.36796064605005 134.746423892444,137.31631823268253 130.53640777873807,140.80014505027793 130.4048447748646,147.22582552797394 125.8659211518243,147.84516517265 117.248544418253,147.7677477466059 116.45916639687493,141.57432648149552 111.52555376337841,136.92922531603836 108.69694918673486,131.81957916833926 109.02585669583641,122.91632057813695 111.4597722615581,118.42593939136714 114.88041035435162,115.25168739451328 120.99809002014808,112.85163384262705 130.20750026940368,114.0903721661889 136.32517993543297,119.97434988373425 138.16706198523752,125.16150059271604 138.03549898182973,130.81312940927455 135.27267590654083,137.0066439160728 130.53640777873807,141.1872358704568 129.9443742625881,147.61291286867345 117.38010742212646,147.7677477466059 116.59072940074839,141.57432648149552 109.1574196992442,133.44537963205948 108.30226017604582,128.80022563919192 108.89429369219579,122.99374069593614 112.97274680272676,116.87752554402687 120.80074551468715,112.92905505083036 129.286559244385,113.85810889396816 133.95704587106593,117.10978783509927 137.7723729745485,123.92278145684395 138.10128048318438,130.50345227506477 135.33845740859397,136.6969694654108 130.47062627668492,141.10981772327796 130.47062627668492,147.14840803475818 129.68124825530685,147.6903303117724 117.38010742212646,147.7677477466059 116.52494789869525,141.57432648149552 112.18336878088303,137.62599241524003 109.3547642044723,132.98086559132207 108.49960468127392,124.77440109336749 112.51227628998458,117.18720858206507 120.66918251104653,112.92905505083036 130.73375228373334,114.32263536279788 135.99627242609859,119.66466805367963 138.16706198523752,125.62601971504046 137.64080997090787,132.28409396397183 135.00954989972524,137.23889966629213 130.66797078214586,140.95498140336713 130.33906327327713,147.38066048943438 125.9317026536446,148.0 117.38010742212646,148.0 116.45916639687493,141.41949026228394 111.6571167667862,137.0066439160728 108.82851219037548,131.81957916833926 109.02585669583641,123.07116080558626 114.5515028454829,115.25168739451328 120.20871199877001,113.00647625070997 125.80013965023682,112.69679140119115 129.286559244385,113.70326667063637 134.35173488175496,117.4194707722636 137.64080997090787,123.45826122740982 138.16706198523752,130.03893632261315 136.12783542997204,135.69052657380234 130.53640777873807,141.0323995674844 129.87859276053496,147.6903303117724 117.38010742212646,147.92258259042865 116.26182189187966,141.57432648149552 111.4597722615581,137.23889966629213 109.42054570629261,133.29054165194975 108.36804167786613,125.8582791632507 112.05180577747524,117.88399492629105 116.32760339323431,114.47747745196102 121.4585605324246,112.85163384262705 125.73435814818367,112.77421262615826 130.73375228373334,114.40005641145399 136.45674293884076,120.12919074844103 138.23284348705783,126.32279783295235 136.7856504477095,134.2195690291701 130.33906327327713,141.10981772327796 130.14171876804903,147.5354954174254 123.76091309497133,147.7677477466059" stroke="#4DD2FF" stroke-linecap="round" stroke-linejoin="round" stroke-width="0.5"><title>2025-09-27 10.0km</title><desc>1758965825000</desc></polyline><polyline fill="none" points="188.0,114.3247739620856 184.15479876147583,115.37418773636455 177.41176470555365,120.09652721323073 174.7925696594175,120.88358021213207 177.46749226003885,125.40911510185106 177.41176470555365,131.1807626974187 174.34674922609702,136.886769310222 170.78018575836904,140.23164474085206 170.83591331285425,145.54405597958248 159.6904024768155,145.54405597958248 159.24458204302937,140.03488787414972 155.3993808052037,137.08352720009862 152.66873065032996,132.42690666177077 152.50154798757285,124.68765528430231 155.84520123852417,119.30947319144616 158.18575851386413,116.88271685043583 160.9721362227574,115.83330569090322 167.54798761592247,115.83330569090322 174.7925696594175,118.71918200375512 177.46749226003885,125.6058767210925 177.63467492256314,129.47550890647108 176.18575851386413,134.26332467148313 170.78018575836904,140.29723034903873 170.78018575836904,145.47847093985183 159.63467492256314,145.6752260379144 159.18885448924266,140.03488787414972 153.6160990712233,133.86980699544074 152.05572755425237,126.72085802257061 153.00309597537853,123.44149539276259 156.1238390095532,119.17829742172034 161.08359133126214,116.03007042169338 168.21671826625243,115.89889394154307 172.39628482982516,117.4074217484449 174.56965944264084,119.30947319144616 177.5232198140584,126.65527094411664 177.30030959751457,131.3119358670665 174.23529411735944,137.4114568741643 170.89164086664096,139.83813094347715 170.50154798757285,145.3473008389119 159.63467492256314,145.60964101227 158.96594427223317,139.64137394865975 153.7275541794952,134.85360070614843 152.16718266252428,130.45930975669762 152.0,126.91761921555735 153.28173374617472,122.72003323078388 158.7987616097089,116.88271685043583 166.26625386998057,115.63654089579359 173.90092879231088,118.06330223137047 176.8544891641941,123.44149539276259 177.41176470555365,129.86902943835594 175.57275541778654,135.18153158802306 170.94736842112616,139.83813094347715 170.61300309584476,145.60964101227 159.63467492256314,145.54405597958248 159.02167182671838,140.16605912573868 154.78637770889327,136.36208129191073 152.16718266252428,130.32813640212407 153.1702786379028,122.72003323078388 157.90712074306794,117.73536207864527 162.47678018570878,115.70212916785385 172.61919504613616,117.14506935648387 174.95975232170895,119.2438853100175 177.1331269349903,125.27794065367198 177.46749226003885,129.86902943835594 175.01547987596132,136.09973711211933 170.83591331285425,140.10047350340756 170.50154798757285,145.47847093985183 159.5789473685436,145.41288589284522 158.7987616097089,139.83813094347715 155.1207430344075,136.82118333288236 153.11455108365044,133.60746173595544 152.16718266252428,126.06498691730667 154.61919504660182,120.81799250119366 159.1331269349903,116.22683508880436 164.5944272445049,115.17742279235972 174.1795665633399,118.39124220615486 176.96594427223317,123.96619460720103 177.46749226003885,130.06578960834304 175.62848297180608,135.18153158802306 170.89164086664096,139.96930223761592 170.5572755415924,145.54405597958248 159.6904024768155,145.6752260379144 158.96594427223317,140.16605912573868 155.23219814244658,136.69001135666622 152.8916408668738,132.42690666177077 152.55727554182522,124.62206798547413 155.90092879277654,119.2438853100175 158.91021671844646,116.68595239665592 161.7523219815921,115.57095261651557 173.00928792566992,117.14506935648387 175.01547987596132,118.9159457970527 177.30030959751457,125.34352788137039 177.1331269349903,130.39372308296151 175.0712074302137,135.70622062933398 170.78018575836904,140.10047350340756 170.83591331285425,144.88820526195923 170.16718266252428,145.21613070950843" stroke="#4DD2FF" stroke-linecap="round" stroke-linejoin="round" stroke-width="0.5"><title>2020-04-24 10.0km</title><desc>1587724293000</desc></polyline><polyline fill="none" points="48.0,154.3404629912693 43.666666666511446,155.58279541530646 35.77777777775191,160.22517289721873 33.27777777775191,159.44054822431644 30.11111111100763,156.82512528263032 24.333333333022892,155.64818126161117 17.38888888875954,157.9366814174573 15.166666666511446,159.96363145293435 12.5,165.7175170503324 12.555555555503815,170.9482745459536 14.61111111100763,175.78668487659888 19.333333333255723,180.10199110233225 20.222222222248092,185.6595370087307 30.88888888875954,184.87494539405452 30.72222222201526,179.90584148850758 35.555555555736646,175.06746417301474 37.055555555736646,170.88289035705384 36.944444444496185,166.1752101407037 35.27777777775191,161.66364881501067 30.444444444496185,156.75973956397502 27.61111111124046,155.8443387579755 23.333333333255723,155.97511038649827 15.61111111100763,159.70208989549428 12.0,168.1367480258923 13.333333333255723,173.7597879714449 19.333333333255723,180.23275747621665 20.0,185.46338920056587 30.833333333488554,185.00571073399624 30.833333333488554,179.97122470027534 35.833333333488554,174.41362642642343 37.83333333325572,167.94059452420333 35.33333333325572,160.35594357695663 35.944444444263354,159.57131907413714 33.5,159.96363145293435 29.61111111100763,157.21743944636546 23.38888888875954,155.64818126161117 16.6111111107748,158.72130804520566 12.722222222015262,164.86751467606518 13.277777777751908,173.7597879714449 19.166666666511446,180.10199110233225 19.6111111107748,185.3326239597518 30.38888888875954,185.1364760454744 30.777777777751908,179.64430857088882 35.38888888875954,175.2636153587955 37.16666666697711,169.57520509057213 36.444444444496185,164.34443569695577 33.22222222224809,159.11362097639358 26.444444444496185,155.8443387579755 21.666666666511446,156.30203933437588 15.555555555503815,159.17900644027395 12.388888888759539,165.2598236129852 12.888888888759539,172.64826097310288 15.0,176.30975394073175 18.944444444263354,179.97122470027534 19.49999999976717,185.26724132883828 30.38888888875954,185.1364760454744 30.444444444496185,179.97122470027534 35.27777777775191,175.13284790876787 36.88888888875954,170.0328952561249 36.0,163.75597130379174 32.72222222248092,158.98285002773628 29.944444444263354,156.95589669886976 25.38888888875954,155.97511038649827 22.38888888875954,156.04049619019497 16.88888888899237,157.9366814174573 13.1111111107748,163.1021213051863 12.0,166.82905681052944 13.1111111107748,173.6944040870294 15.944444444263354,177.48665767814964 18.99999999976717,179.7750750440755 19.666666666511446,185.3980065837968 30.444444444496185,185.20185869088164 30.444444444496185,179.97122470027534 35.66666666674428,174.4790102330153 37.055555555736646,167.22136447270168 35.38888888875954,161.92518952290993 30.0,156.49819661816582 25.49999999976717,155.12509429338388 17.0,158.06745259312447 13.222222222015262,163.8213562645833 12.166666666511446,167.87521000934066 13.444444444030523,174.0213234385592 19.222222222248092,180.36352382146288 19.833333333255723,185.20185869088164 30.666666666744277,184.87494539405452 30.61111111124046,180.1673742927378 35.61111111100763,174.5443940323894 37.0,166.95982605958125 35.11111111124046,161.7290340026375 30.88888888875954,157.67513898178004 24.277777777751908,155.77895293285837 15.888888888759539,158.59053701139055 12.277777777751908,165.58674753201194 12.444444444263354,170.9482745459536 13.88888888899237,174.67516161000822" stroke="#4DD2FF" stroke-linecap="round" stroke-linejoin="round" stroke-width="0.5"><title>2020-04-16 10.0km</title><desc>1587033949000</desc></polyline><polyline fill="none" points="94.66666666674428,154.34899812319782 89.99278722307645,155.5932509598788 81.98042246280238,160.43926391366404 80.64502833574079,160.43926391366404 78.36373003618792,158.01626229239628 73.91241628001444,156.05165925406618 69.85059247817844,155.9206854912336 63.56311179813929,158.540155357623 59.77949510538019,162.99322808336 58.88923235423863,170.65505585889332 61.39309634198435,176.09031070803758 65.95569294178858,180.47776994580636 66.34518289542757,185.5855182048981 76.80577022139914,185.12713230313966 77.41782586276531,180.54325417091604 81.42400824325159,176.417734138784 83.81658938690089,170.58957056276267 83.42709943349473,165.0232944705058 80.2555383821018,159.3914806204848 78.2524471920915,157.55785548785934 73.68985059252009,155.8551985990489 69.12725399248302,156.18263298849342 62.561566202901304,158.9330748587381 59.5012879956048,164.1064911397989 58.72230808855966,167.77369612117764 60.05770221538842,174.45319089572877 65.84441009769216,180.15034871414537 66.79031427088194,185.5855182048981 77.19526017527096,185.19261602457846 77.36218444118276,179.95389589003753 81.98042246280238,175.3699785367935 83.92787223076448,170.13117329136003 83.20453374553472,164.63037892751163 79.03142709936947,158.60564195911866 72.8552292631939,155.98617237631697 64.17516743950546,158.01626229239628 60.05770221538842,163.12420031387592 58.83359093242325,167.3152967148344 59.39000515197404,172.55412635981338 62.22771767131053,177.13806506159017 65.95569294178858,180.3468014744576 66.62339000497013,185.65100187674398 77.30654301913455,185.19261602457846 77.36218444118276,179.88841160113225 82.42555383848958,174.84610005503055 83.92787223076448,169.41083402035292 83.42709943349473,165.28523802378913 80.92323544551618,160.57023669790942 76.69448737776838,157.09944833570626 73.74549201433547,155.8551985990489 68.57083977316506,156.3790935371071 62.561566202901304,158.80210172006628 59.334363729925826,164.89232265105238 58.77794951060787,168.95243585546268 59.946419371291995,174.32222111924784 65.90005151974037,180.15034871414537 66.34518289542757,185.45455083984416 77.47346728504635,184.8651973460219 77.41782586276531,179.8229273048346 82.20298815052956,175.2390089589171 83.7609479650855,170.06568793865154 83.1488923234865,164.23746312916046 78.53065430186689,158.60564195911866 73.35600206092931,155.6587378802942 68.4595569295343,156.51006720075384 62.561566202901304,159.19502105074935 59.55692941788584,164.3684350902913 58.83359093242325,170.32762930740137 61.226172076305375,175.8938565647113 65.78876867564395,180.28131722816033 66.45646573929116,185.65100187674398 77.47346728504635,185.0616485743667 77.47346728504635,179.95389589003753 81.98042246280238,175.50094808655558 83.87223080918193,169.73826106800698 83.03760947985575,164.3684350902913 79.69912416278385,159.3914806204848 73.68985059252009,156.05165925406618 68.34827408543788,156.24811984522967 61.72694487357512,159.65342661412433 58.83359093242325,167.8391817222 60.33590932493098,174.51867577334633 65.78876867564395,180.08486444648588 66.40082431747578,185.3890671467525 77.13961875322275,185.32358344632667 77.36218444118276,180.15034871414537 81.86913961893879,175.50094808655558 83.7053065430373,169.34534858929692 82.36991241620854,162.92774195742095 77.80731581663713,157.81980227591703 73.5785677486565,156.05165925406618 70.74085522908717,156.05165925406618 67.40236991248094,156.7065276428475 62.728490468813106,159.19502105074935 59.77949510538019,163.6480889529339 58.66666666674428,167.57723927532788 59.44564657378942,172.75058158836327 61.44873776403256,176.3522494668141" stroke="#4DD2FF" stroke-linecap="round" stroke-linejoin="round" stroke-width="0.5"><title>2020-04-14 10.0km</title><desc>1586861907000</desc></polyline><polyline fill="none" points="141.33333333325572,154.43653545627603 135.92229038849473,156.06115416396642 128.9652351734694,160.35012641333742 123.60940695274621,157.10090782807674 118.41922290367074,155.80121546646114 114.38854805706069,156.51604661380406 108.59100204496644,159.31037838064367 106.05112474411726,165.2889049599762 106.10633946815506,170.6825245587388 107.92842535767704,175.42627039336367 112.73210633918643,179.975032542774 113.22903885459527,185.23855713166995 123.83026584843174,184.9786310751806 123.9959100203123,179.71510420611594 128.24744376260787,175.62121805007337 130.23517382401042,171.07242289127316 129.57259713672101,164.11919792584376 125.81799590983428,158.53056617366383 118.80572597123682,155.93118482932914 114.11247443733737,156.64601582183968 108.75664621661417,159.1154254238354 105.88548057246953,166.13369195524137 106.43762781145051,172.0471676144516 108.42535787308589,176.01111317315372 112.5664621675387,179.9100504691014 113.33946830243804,185.56346454372397 123.88548057270236,184.8486680048518 124.10633946815506,179.58513999573188 128.41308793448843,175.29630525398534 130.5664621675387,169.38286161981523 130.0143149283249,164.83401916216826 126.75664621638134,159.18040974991163 120.46216768887825,156.1261388208368 114.83026584843174,156.45106199913425 108.64621676853858,159.31037838064367 105.33333333325572,165.61382317577954 105.60940695297904,170.5525583914714 106.87934560328722,173.73672138294205 112.62167689134367,179.9100504691014 112.84253578726202,185.10859411751153 123.83026584843174,184.8486680048518 123.9406952962745,179.975032542774 128.9652351734694,174.58149648294784 130.2903885480482,169.70777761860518 129.90388548048213,165.22392129572108 125.76278118579648,158.14065968990326 120.62781186075881,156.06115416396642 114.38854805706069,156.38607737765415 109.03271983610466,158.8554880497395 105.44376278109848,167.36837850062875 107.2106339468155,174.12661773065338 112.5664621675387,180.10499666893156 112.89775051083416,185.10859411751153 123.60940695274621,184.91364954347955 123.83026584843174,179.78008630080149 128.13701431453228,175.42627039336367 130.12474437616765,170.61754147859756 129.79345603263937,164.63906800030963 126.20449897740036,159.05044109071605 120.2965235169977,155.93118482932914 113.28425357863307,156.9709387185867 108.59100204496644,159.18040974991163 105.38854805706069,167.17342816240853 106.71370143140666,173.67173863359494 112.45603271946311,180.04001460928703 112.89775051083416,184.91364954347955 123.9959100203123,184.7836864591809 123.9406952962745,179.58513999573188 128.57873210613616,174.77644441404846 130.2903885480482,169.70777761860518 129.6830265847966,164.37913301942172 125.54192229011096,158.53056617366383 117.14928425312974,155.54127665626584 110.74437627778389,157.5557994893752 106.65848670736887,163.07945642544655 105.55419222870842,167.7582789870794 105.9959100203123,172.17713345808443 107.2106339468155,174.5165138252196 112.5664621675387,179.9100504691014 113.06339468294755,185.173575628025 123.7198364008218,184.91364954347955 123.7198364008218,179.5201578795677 127.69529652316123,176.0760956691811 130.12474437616765,169.64279443287523 129.13087934534997,163.14444032195024 124.10633946815506,157.3608459623647 116.76278118602931,155.80121546646114 108.81186094065197,158.79050368850585 105.66462167655118,167.30339506146265 106.16155419196002,172.50204794318415 107.65235173795372,175.42627039336367" stroke="#4DD2FF" stroke-linecap="round" stroke-linejoin="round" stroke-width="0.5"><title>2020-04-13 10.0km</title><desc>1586775592000</desc></polyline><polyline fill="none" points="188.0,154.3575664748787 182.87306501553394,155.8005099457223 175.73993808031082,160.26049529685406 169.55417956621386,156.8499212191091 161.69659442733973,156.25962760159746 157.29411764722317,158.29285875044297 153.50464396295138,163.0151757199783 152.3343653252814,166.49130217847414 152.66873065032996,172.26293977181194 155.62229102151468,177.05073375662323 159.18885448924266,180.26443725364516 159.91331269335933,185.380093351705 169.72136222897097,185.11775306460913 170.66873065032996,184.33073152130237 170.66873065032996,179.9365091068321 175.12693498446606,174.88639321894152 176.74303405545652,171.5414880811004 177.1331269349903,163.60546275181696 176.24148606788367,160.85078501398675 179.25077399401926,156.65315674396697 178.0804953558836,158.22727075533476 174.3467492258642,159.93255631637294 167.54798761592247,156.32521580980392 161.1393188855145,156.78433306788793 156.45820433436893,159.1455020388239 152.8916408668738,164.26133655646117 152.7244582043495,172.06618030491518 154.78637770935893,175.93577141553396 159.24458204349503,180.26443725364516 159.74613003083505,185.51126345264493 169.94427244574763,185.05216797516914 170.66873065032996,179.80533779849065 175.12693498446606,175.4110825447715 177.02167182671838,170.885622161848 176.74303405545652,165.2451459314907 174.12383900932036,160.19490751507692 167.77089783293195,156.32521580980392 161.47368421056308,156.52198039164068 155.56656346772797,159.93255631637294 153.22600619192235,163.80222496780334 152.3343653252814,167.3439339225297 153.28173374617472,173.77142689266475 154.73065015487373,176.46045983175281 159.02167182671838,180.19885163853178 159.69040247704834,185.51126345264493 169.94427244574763,185.11775306460913 170.78018575860187,179.67416646145284 174.45820433436893,176.39487380470382 176.46439628466032,172.91880419908557 177.07739938050508,167.60628191003343 175.62848297180608,162.09695030475268 172.3405572755728,158.42403471894795 166.6563467492815,156.32521580980392 160.6934984519612,156.8499212191091 156.12383900932036,159.4734414454433 153.89473684201948,162.16253788070753 152.16718266252428,167.60628191003343 152.3343653252814,170.7544488927815 154.28482972155325,176.0013574922923 159.07739938073792,180.3956084625679 159.5789473685436,185.44567840563832 170.1114551082719,185.1833381469478 170.83591331262141,179.80533779849065 175.23839009273797,175.4110825447715 176.91021671821363,171.73824771831278 177.02167182671838,166.03219228063244 175.62848297180608,162.03136272187112 170.2786377707962,157.440214261238 163.98142414866015,156.25962760159746 157.34984520100988,158.29285875044297 153.28173374617472,163.21193812793354 152.27863777102903,166.03219228063244 152.4458204335533,171.47590152110206 154.95356037165038,176.7228038694593 158.8544891641941,180.26443725364516 159.69040247704834,185.6424335250631 170.44582043332048,185.05216797516914 170.50154798780568,180.0676803869428 175.62848297180608,174.62404838576913 177.02167182671838,169.57388819224434 175.73993808031082,162.81841324846027 173.39938080473803,159.40785357856657 170.22291021654382,156.98109750048025 163.7585139318835,155.99727469793288 157.1269349846989,158.42403471894795 153.28173374617472,163.27752558304928 152.1114551082719,168.19656446605222 153.95046439650469,175.14873793860897 159.1331269349903,180.19885163853178 159.5789473685436,185.51126345264493 170.3343653252814,185.05216797516914 170.50154798780568,180.13326601620065 175.85139318881556,174.62404838576913 177.2445820432622,169.3771278518252 175.517027863767,162.2937130110804 170.3900928790681,157.30903807928553 164.26006191945635,155.93168645433616 161.36222910205834,156.52198039164068 157.6284829720389,158.22727075533476 154.84210526314564,160.7851972960052 152.83591331285425,164.19574920798186 152.0,168.06539061438525 153.11455108365044,173.50908157636877 155.2321981426794,176.9195618230151" stroke="#4DD2FF" stroke-linecap="round" stroke-linejoin="round" stroke-width="0.5"><title>2020-04-12 10.0km</title><desc>1586649823000</desc></polyline><polyline fill="none" points="48.0,194.4934821818024 44.445141065865755,195.15758931729943 35.13479623850435,200.20478003751487 37.335423197597265,203.79091661574785 38.29467084631324,209.70135520183248 35.30407523503527,216.40863783890381 31.297805642941967,219.86186365323374 30.789968652185053,225.37370302306954 19.956112852785736,225.17448077641893 19.39184952969663,219.52982355473796 14.313479623757303,215.21328591025667 12.225705329095945,210.03340062318603 13.52351097180508,202.26349063764792 18.48902821308002,196.2865697965026 22.382445141207427,194.82553583936533 31.52351097180508,196.22015923750587 35.30407523503527,198.81016570318025 37.84326018812135,205.6503865837003 37.73040752368979,210.96312684565783 35.58620689669624,215.6117368119303 31.128526645945385,219.72904763539555 30.73354231985286,225.30729561456246 19.899686520220712,225.24088819907047 19.27899686526507,219.66263961576624 14.764890282414854,215.7445537216845 12.733542319852859,212.4905311507755 12.056426332332194,206.6465288893669 15.272727272706106,199.73990894533927 19.27899686526507,196.35298034810694 25.93730407534167,194.82553583936533 34.17554858955555,197.6811898711021 37.335423197597265,204.2557846363634 38.01253918511793,209.1036729904008 36.03761755488813,214.68201763834804 31.015673981048167,219.99467964225914 31.07210031361319,225.30729561456246 19.786833855789155,225.24088819907047 19.27899686526507,219.66263961576624 14.031347962561995,215.2796944117872 12.45141065842472,212.15848706034012 12.056426332332194,206.91216656425968 12.90282131684944,202.92758935655002 18.545454545645043,196.48580143006984 22.72100313496776,194.8919465492363 30.28213166142814,196.15374867152423 35.13479623850435,199.20862726529595 37.786833855789155,205.25192920811241 37.89968652045354,209.3029004590935 35.86833855789155,215.21328591025667 31.241379310376942,219.86186365323374 30.959247649181634,225.30729561456246 19.786833855789155,225.30729561456246 19.166144200833514,219.66263961576624 14.652037617750466,215.81096216588048 12.677115987753496,212.15848706034012 12.338557993760332,205.11911002540728 15.272727272706106,199.73990894533927 18.714733542408794,196.55221196007915 21.25391849526204,195.55605325312354 27.630094043677673,195.22399999113986 34.06269592465833,197.6811898711021 37.6739811913576,204.58783300674986 37.84326018812135,209.568536982988 35.529780564131215,215.81096216588048 31.241379310376942,219.59623158880277 30.959247649181634,225.10807334637502 19.84326018835418,225.5065178181976 19.10971786826849,219.52982355473796 14.369905956322327,215.41251139366068 12.677115987753496,212.22489589301404 12.0,205.31833878881298 15.216300940839574,199.73990894533927 18.601880877744406,196.55221196007915 21.479623824590817,195.35682131745853 25.76802507834509,194.95835725206416 32.59561128541827,196.41939089266816 35.19122257060371,198.74375541787595 37.84326018812135,206.4473005576874 37.73040752368979,211.09594476240454 35.47335423179902,215.81096216588048 31.410658307373524,219.79545564798173 31.128526645945385,225.37370302306954 19.84326018835418,225.37370302306954 19.10971786826849,219.72904763539555 14.990595611510798,216.54145457601408 12.45141065842472,212.68975751893595 12.28213166166097,204.98629081383115 14.821316614514217,199.9391394566046 19.673981191357598,195.9545169302146 25.090909090824425,194.82553583936533 27.912225705571473,195.22399999113986 32.652037617517635,196.9506749896682 35.078369905939326,198.87657598167425 37.617554859025404,204.85347157355864 37.6739811913576,211.09594476240454 35.529780564131215,215.5453283463139 31.18495297804475,219.92827165150084 31.18495297804475,224.57681364798918 28.75862068985589,224.84244355466217" stroke="#4DD2FF" stroke-linecap="round" stroke-linejoin="round" stroke-width="0.5"><title>2020-04-08 10.0km</title><desc>1586343893000</desc></polyline><polyline fill="none" points="94.66666666674428,194.47770973452134 90.18740399414673,195.45397883228725 81.39477726607583,200.8559725006926 83.88325652875938,205.60708341631107 83.99385560699739,209.8374930251739 81.50537634431385,216.2155927476706 77.41321044578217,219.92527267121477 77.19201228907332,225.39212765765842 66.29800307238474,225.32704634330003 65.63440860225819,219.53478112613084 61.59754224284552,216.28067504888168 59.164362519280985,212.31064176996006 58.943164362804964,206.90875108365435 60.1597542243544,202.4830695099081 65.13671274972148,197.27634357073111 69.89247311861254,195.64923246146645 74.2611367132049,196.10482401621994 80.06758832605556,198.77328189951368 82.83256528433412,203.979994866997 83.99385560699739,209.9025760172517 81.45007680519484,216.41083963029087 77.35791090643033,219.99035457067657 77.13671274972148,225.4572089650319 66.40860215062276,225.26196502166567 65.96620583720505,219.99035457067657 60.933947772718966,215.2393573820591 58.88786482345313,210.3581567647052 59.21966205863282,204.95624852529727 61.652841781964526,200.1400484207552 65.13671274972148,197.08109047019389 67.51459293416701,196.23499296832597 74.75883256550878,196.10482401621994 79.90168970846571,198.643113497179 83.82795698940754,205.8674171756138 83.27496159775183,212.8313033665181 80.89708141353913,216.99657989788102 77.35791090643033,220.05543646315346 77.35791090643033,225.32704634330003 66.5192012290936,225.4572089650319 65.85560675896704,219.99035457067657 60.43625192018226,214.52345043962123 58.66666666674428,208.01516638381872 60.104454685235396,202.67832085496048 65.02611367148347,196.88583730638493 71.33026113687083,195.45397883228725 78.79569892468862,197.73193389171502 81.22887864825316,200.20513246336486 84.04915514611639,206.90875108365435 83.16436251928098,212.8313033665181 80.50998463924043,217.25690872228006 77.57910906337202,219.92527267121477 77.24731182842515,225.32704634330003 66.29800307238474,225.39212765765842 65.74500768072903,219.86019076459343 60.65745007712394,215.43460458214395 58.72196620586328,209.8374930251739 59.55145929357968,204.0450784934801 65.19201228884049,196.82075290434295 71.33026113687083,195.64923246146645 78.9615975425113,197.40651226899354 82.05837173596956,201.70206349523505 84.15975422458723,207.42941736109788 84.2150537634734,210.4232397005544 82.77726574544795,214.39328544936143 77.41321044578217,219.86019076459343 77.41321044578217,225.32704634330003 66.68509984668344,225.52229026547866 65.68970814161003,220.2506820980925 60.65745007712394,215.30443978944095 58.77726574521512,210.74865427333862 58.943164362804964,205.34674954460934 61.48694316437468,200.7908885285724 65.74500768072903,196.88583730638493 70.44546851026826,195.7794015124091 74.20583717385307,196.03973952954402 79.95698924758472,198.44786084076623 83.05376344104297,203.91491123329615 83.77265745028853,211.269317223283 82.27956989291124,215.30443978944095 77.52380952402018,219.79510885104537 77.35791090643033,225.0667210148531 67.01689708186314,225.52229026547866 66.29800307238474,225.13180235767504 65.68970814161003,220.05543646315346 61.92933947802521,216.99657989788102 59.164362519280985,212.11539355490822 58.72196620586328,207.299250833923 59.883256528759375,203.06882335455157 65.13671274972148,196.88583730638493 67.84639016911387,195.7794015124091 74.59293394791894,196.10482401621994 78.68509984668344,197.6668495812919 82.27956989291124,201.83223123499192 83.88325652875938,207.16908427875023 83.33026113687083,212.63605532079237 80.62058371747844,217.06166211451637 77.46850998466834,219.92527267121477 77.35791090643033,224.80639557377435 72.76804915536195,225.0667210148531" stroke="#4DD2FF" stroke-linecap="round" stroke-linejoin="round" stroke-width="0.5"><title>2020-04-07 10.0km</title><desc>1586257895000</desc></polyline><polyline fill="none" points="141.33333333325572,194.20307558221975 137.60334903164767,195.00125598802697 128.3349031920079,200.65500416082796 131.0476190475747,206.77429646265227 130.70852956548333,211.96234434418147 128.2218733644113,216.7512727167923 124.54840397671796,219.81084629223915 124.26582940854132,225.6639010933577 113.2454212452285,225.39785435819067 112.5107273675967,220.14340771868592 108.27210884308442,216.61824743298348 105.89848246960901,211.82931802305393 105.55939298751764,206.7077827437315 108.498168497812,199.72380216018064 112.34118262655102,195.99898003647104 115.67556253215298,195.13428595487494 121.27053898433223,195.66640553373145 126.7524856091477,198.12745258805808 130.87807430652902,206.50824154372094 130.1998953425791,213.22609295864822 127.65672422782518,217.08383580035297 124.4918890632689,219.87735859194072 124.54840397671796,225.39785435819067 113.41496598580852,225.73041275911964 112.39769754023291,220.14340771868592 107.19832548359409,214.88891612068983 105.61590790143237,210.69859312905464 106.0115122969728,204.5793399331742 108.61119832494296,199.72380216018064 114.82783882739022,195.73292044864502 120.25327053875662,195.40034580189968 127.03506017779,197.92790859978413 130.48246991098858,205.8431037417031 129.80429094703868,213.62517092825146 127.26111983205192,217.74896142701618 124.54840397671796,220.0103831696324 124.2093144946266,225.26483094709693 113.5845107268542,225.79692441783845 112.73678702209145,220.40945673023816 108.15907901595347,216.55173478019424 105.89848246960901,211.69629167288076 106.0115122969728,204.5793399331742 108.15907901595347,200.38894659047946 112.39769754023291,196.46458403760334 116.69283097819425,195.13428595487494 120.87493458902463,195.2673158926773 127.60020931414329,199.12517155712703 130.3129251699429,204.04722807795042 130.48246991098858,211.89583118719747 127.88278388278559,216.68476007843856 124.32234432222322,220.07689544785535 124.2093144946266,225.33134265616536 113.52799581340514,225.6639010933577 112.68027210864238,220.14340771868592 107.53741496568546,215.6205568856094 105.6724228146486,211.03115949040512 105.78545264224522,205.57704841939267 108.5546834114939,199.923345564981 112.96284667681903,196.06549491541227 120.02721088426188,195.06777097494341 126.80900052306242,198.46002575795865 129.634746205993,202.05180451384513 130.6520146515686,205.44402071472723 130.9345892202109,210.09997322468553 130.03035060153343,213.4256319758133 127.60020931414329,217.21686098328792 124.32234432222322,220.07689544785535 124.26582940854132,225.4643660527072 113.64102564076893,225.6639010933577 112.73678702209145,220.60899341345066 107.70695970649831,215.6205568856094 105.61590790143237,210.63207983510802 105.95499738305807,204.7123678251519 108.27210884308442,200.1228889048216 111.60648874891922,196.9301876857062 114.71480900025927,195.73292044864502 121.83568812115118,195.46686074574245 125.6221873362083,196.66412850143388 128.6739926734008,200.58848977898015 130.70852956548333,205.17796521948185 130.59549973811954,212.6274755182094 127.48717948701233,217.5494238146348 124.4918890632689,220.3429444883368 123.98325484036468,225.4643660527072 113.47148089972325,225.79692441783845 112.5107273675967,220.20991998247337 108.21559392940253,216.35219677881105 105.95499738305807,212.09537063667085 105.33333333325572,208.10456932877423 106.91575091541745,202.45088974543614 112.11512297182344,196.66412850143388 116.57980115083046,195.33383085095556 120.47933019325137,195.46686074574245 125.96127681806684,197.1962467545527 128.78702250123024,200.38894659047946 130.99110413365997,206.8408101744717 130.99110413365997,210.4325399104273 129.52171637839638,214.95542895363178 124.37885923567228,220.3429444883368 124.15279958117753,225.53087774006417 116.52328623714857,225.33134265616536" stroke="#4DD2FF" stroke-linecap="round" stroke-linejoin="round" stroke-width="0.5"><title>2020-04-02 10.0km</title><desc>1585825459000</desc></polyline><polyline fill="none" points="188.0,194.02425305714132 187.51424287841655,195.42177030822495 180.98350824578665,197.32747028331505 174.02098950534128,201.71055672416696 176.3418290852569,206.03008812241023 176.88155922014266,210.54015313042328 175.04647676157765,215.875959898578 170.5127436281182,220.7035527630942 169.86506746616215,225.91222681308864 159.50224887533113,225.65814622543985 158.74662668653764,220.4494699188508 154.15892053977586,216.3206082712859 152.43178410781547,212.25523917161627 152.32383808097802,207.5546210198081 153.40329835074954,203.67975880764425 156.58770614676178,199.74134802818298 162.09295352292247,196.81928422872443 167.86806596675888,197.20042381092208 171.16041979007423,198.40736418694723 173.53523238375783,200.4401002578088 176.17991004465148,206.53826619510073 176.50374812609516,211.87410937366076 174.7226386803668,216.44765060173813 170.188905547373,220.51299064030172 170.02698650676757,225.97574694291689 159.448275861796,225.8487066765083 158.96251874021254,220.64003206242342 155.0224887554068,217.52750929794274 152.97151424270123,214.35144863289315 152.10794602683745,207.17348816699814 154.8605697148014,201.26589727401733 161.76911544194445,196.8828075096826 167.22038980503567,197.0733773112297 171.37631184398197,198.47088729572715 173.85907046450302,200.82123748678714 176.17991004465148,206.4112217183574 176.6116941529326,211.11184903467074 174.34482758585364,216.765256306855 170.4047976010479,220.4494699188508 170.188905547373,225.91222681308864 159.39430284849368,225.65814622543985 158.96251874021254,220.83059414388845 153.72713643149473,215.62187496293336 152.10794602683745,208.82506207353435 153.511244377587,203.36214601557003 158.80059969983995,198.08974853926338 164.08995502232574,196.6922376464354 171.70014992496,198.72497966245282 175.6941529235337,204.37850634456845 176.71964017977007,210.54015313042328 175.47826086939313,215.17722606047755 170.188905547373,220.64003206242342 170.13493253360502,225.8487066765083 159.5562218890991,225.8487066765083 158.63868065970019,220.51299064030172 155.0224887554068,217.4004672015435 152.70164917525835,213.97032019717153 152.10794602683745,207.87223154120147 155.07646176894195,201.26589727401733 161.39130434766412,196.37462106981548 166.51874062954448,196.94633078365587 173.31934032961726,200.7577146323747 176.4497751123272,206.47474396013422 176.66566716623493,211.3024142125505 173.9670164915733,217.4004672015435 170.3508245877456,220.4494699188508 169.9730134929996,225.78518653311767 159.61019490240142,225.91222681308864 158.80059969983995,220.3859491906478 155.0224887554068,217.46398825303186 153.07946026977152,214.66905547335045 152.1619190403726,207.80870945064817 154.5367316340562,201.96464768715668 159.07046476751566,197.58156314544613 163.0104947523214,196.6922376464354 168.56971514225006,197.58156314544613 171.26836581691168,198.40736418694723 173.48125936998986,200.82123748678714 176.4497751123272,206.72883285896387 176.7736131933052,211.55650101957144 174.18290854548104,217.01934074726887 170.4047976010479,220.7035527630942 169.9730134929996,225.8487066765083 159.50224887533113,225.8487066765083 158.96251874021254,220.64003206242342 154.91454272856936,217.01934074726887 152.26986506721005,211.6835443818709 152.0,207.9357536250027 153.3493253372144,203.61623626295477 158.36881559202448,198.02622538915602 163.3883058470674,196.62871434475528 169.59520239871927,197.96270223218016 173.53523238375783,201.01180600811495 176.50374812609516,207.0464438276249 176.6116941529326,212.06467430357588 173.91304347803816,217.33694614307024 170.45877061458305,220.3859491906478 170.188905547373,225.5946260613855 169.0554722638335,225.78518653311767" stroke="#4DD2FF" stroke-linecap="round" stroke-linejoin="round" stroke-width="0.5"><title>2020-03-23 10.0km</title><desc>1584960411000</desc></polyline><polyline fill="none" points="39.179203193751164,232.0 39.712189185782336,236.77467508608242 40.51166817359626,239.2491138552141 40.45244750776328,249.7739787857863 39.20881352678407,249.49517885659589 38.61660686903633,251.20282463086187 35.6555735807633,252.17861814668868 31.510126976994798,254.5832395348698 32.812981623923406,257.2317872206622 32.990643621305935,260.0894063237647 32.01350263610948,262.70306010977947 29.34857267665211,265.1424511545629 29.407793342368677,267.7212158640323 23.663388762972318,267.8954559772392 23.219233769690618,265.0030578788719 21.235341466614045,263.33033385904855 19.81404548813589,260.85608030154253 19.488331826520152,258.79999596840935 19.81404548813589,256.4999538558477 21.028069136315025,254.4786911525589 24.40364708506968,251.7604212880251 27.275849374826066,251.8301208022167 30.325713661732152,252.805912415497 31.450906311394647,253.85140014538774 32.931422955472954,256.987842950708 33.0498642870225,259.49697518060566 31.924671637476422,262.7379086834553 29.52623467403464,264.8636645426741 29.200521012186073,267.7909119205724 23.633778430055827,268.0 23.16001310397405,265.03790620341897 21.14651046798099,263.26063683617394 19.87326615396887,260.85608030154253 19.665993823786266,257.3014855495712 21.05767946934793,254.6529384374444 24.255595420720056,251.79527104704175 28.016107696807012,251.93467004518607 30.769868655013852,253.11955909107928 32.66492995957378,256.2211597551941 33.0498642870225,259.7409175481589 31.924671637476422,262.7379086834553 29.496624341001734,265.07275452432805 29.407793342368677,267.82575994331273 23.57455776433926,267.8954559772392 23.189623437006958,264.96820955045405 21.176120801013894,263.0515456770372 19.81404548813589,260.85608030154253 19.695604156702757,257.4060330146458 20.939238137798384,254.54839007783448 24.818191745434888,251.7604212880251 29.437403675285168,252.28316727641504 31.480516644194722,253.85140014538774 32.69454029237386,256.2211597551941 33.0498642870225,259.6015219320834 32.01350263610948,262.59851436593453 29.52623467403464,265.07275452432805 29.437403675285168,267.86060796215315 23.57455776433926,267.96515199623536 23.16001310397405,264.8636645426741 20.939238137798384,262.8424543819274 19.932486819801852,261.06517288752366 19.725214489619248,256.9529937542393 21.087289802148007,254.4786911525589 24.28520575352013,252.0043695216591 27.542342370725237,252.0043695216591 30.562596324714832,253.01501023327 31.510126976994798,253.78170106897596 32.90181262255646,257.0923905177042 33.10908495273907,259.77576644258806 31.776619973010384,262.8424543819274 29.52623467403464,265.1076028412499 29.407793342368677,267.86060796215315 23.544947431539185,267.86060796215315 23.16001310397405,264.93336121834 20.0509281513514,261.23941660526907 19.63638349098619,259.7060686497716 19.754824822419323,256.7787477149395 21.235341466614045,254.30444377326057 24.670140081085265,252.1437684292323 28.756366018904373,252.38771637217724 31.59895797574427,253.88624967777287 32.75376095820684,256.11661190516315 33.07947461993899,259.84546422047424 31.83584063872695,263.0515456770372 29.58545533963479,264.96820955045405 29.58545533963479,267.82575994331273 23.485726765706204,267.86060796215315 23.2784544355236,264.96820955045405 20.495083144516684,262.1803310510004 19.6067731580697,259.9151619831391 19.725214489619248,256.67420004607993 21.087289802148007,254.30444377326057 24.01871275762096,252.35286667742184 26.71325304999482,252.03921925424947" stroke="#4DD2FF" stroke-linecap="round" stroke-linejoin="round" stroke-width="0.5"><title>2019-12-13 10.0km</title><desc>1576239112000</desc></polyline><polyline fill="none" points="84.74616698169848,233.32013434770488 84.32928858709056,232.0 84.80572103807935,237.15193720014213 84.67668724921532,237.64258504909958 84.23995750251925,237.60753884818405 84.11092371371342,238.21500471814215 83.38634936109884,238.3435066752645 81.6890587543603,239.34815306175005 82.13571417721687,240.32942654395447 82.18534255755367,241.22891939286637 81.96697768411832,241.85972808435326 81.03396413422888,242.81761570902745 80.98433575395029,243.26151196751744 81.16299792309292,248.15593117001845 82.2151195857441,248.55308193647943 82.84043717768509,248.98527375616686 84.3987683194573,249.17216697972617 84.55757913651178,249.40578305385134 84.84542374231387,261.52976289379876 85.08363996783737,263.6787655378066 85.01416023541242,267.64963608418475 84.57743048865814,267.81313938645326 79.5054100205889,267.7547453783409 77.54012616019463,268.0 76.38874773692805,267.87153336293704 76.11082880717004,265.6875771346895 75.8924639337929,255.81834675026766 72.16040973423515,255.28106096160627 71.98174756509252,255.04745761019876 71.26709888858022,254.94233593706304 71.0388083391008,254.13639970667282 71.24724753643386,253.76263013602875 71.1380650997744,253.51734315149952 70.19512587384088,252.6997158419399 69.3315920563764,252.95668509267125 68.86508528143167,252.80483970031491 68.44820688676555,252.20913648178976 68.24969336553477,251.39149925720267 68.2794703937252,245.46928464043594 68.52761229529278,243.915671544848 68.78567987290444,243.30823778318882 68.72612581652356,242.65407452169165 69.92713262012694,234.67529969892348 71.47553808591329,234.65193492335675 74.8006395669072,234.92062953672576 74.96937605994754,235.06081776483188 81.11336954275612,236.19399925168545 83.29701827652752,236.8014730841751" stroke="#4DD2FF" stroke-linecap="round" stroke-linejoin="round" stroke-width="0.5"><title>2019-11-23 10.0km</title><desc>1574497580000</desc></polyline></svg>