<?xml version="1.0" encoding="utf-8" ?>
<svg baseProfile="full" height="300mm" version="1.1" viewBox="0,0,200,300" width="200mm" xmlns="http://www.w3.org/2000/svg" xmlns:ev="http://www.w3.org/2001/xml-events" xmlns:xlink="http://www.w3.org/1999/xlink"><defs /><rect fill="#222222" height="300" width="200" x="0" y="0" /><text fill="#FFFFFF" style="font-size:12px; font-family:Arial; font-weight:bold;" x="10" y="20">Over 10km Runs</text><text fill="#FFFFFF" style="font-size:4px; font-family:Arial" x="10" y="280">Runner</text><text fill="#FFFFFF" style="font-size:9px; font-family:Arial" x="10" y="290">Floyd Li</text><text fill="#FFFFFF" style="font-size:4px; font-family:Arial" x="65" y="280">SPECIAL TRACKS</text><rect fill="yellow" height="2.6" width="2.6" x="65" y="283" /><text fill="#FFFFFF" style="font-size:3px; font-family:Arial" x="70" y="285.5">Over 20.0 km</text><rect fill="red" height="2.6" width="2.6" x="65" y="287" /><text fill="#FFFFFF" style="font-size:3px; font-family:Arial" x="70" y="289.5">Over 40.0 km</text><text fill="#FFFFFF" style="font-size:4px; font-family:Arial" x="120" y="280">STATISTICS</text><text fill="#FFFFFF" style="font-size:3px; font-family:Arial" x="120" y="285">Number: 33</text><text fill="#FFFFFF" style="font-size:3px; font-family:Arial" x="120" y="290">Weekly: 1.8</text><text fill="#FFFFFF" style="font-size:3px; font-family:Arial" x="141" y="285">Total: 497.4 km</text><text fill="#FFFFFF" style="font-size:3px; font-family:Arial" x="141" y="290">Avg: 15.1 km</text><text fill="#FFFFFF" style="font-size:3px; font-family:Arial" x="167" y="285">Min: 10.0 km</text><text fill="#FFFFFF" style="font-size:3px; font-family:Arial" x="167" y="290">Max: 52.6 km</text><polyline fill="none" opacity="1" points="37.625494298001286,31.89484476162761 37.45930614799727,31.714285714289872 37.4081713326741,31.86475160336704 37.70219652110245,38.19921763938328 37.07579503254965,38.66563958581537 37.024660217168275,39.478112784112454 35.43948094005464,40.00471324456157 34.13554314750945,40.87736104067881 34.595756486058235,42.502276810773765 34.50627055915538,43.224455496048904 34.0332735167467,44.41303307389899 33.02336091280449,45.466194581473246 32.97222609736491,46.59457305066462 33.24068387824809,52.22128354529559 35.68237131315982,53.48500536507345 37.30590170179494,53.620403449749574 37.52322466723854,53.89119922317332 37.714980224962346,60.99187780272041 37.561575778818224,61.78917710162932 34.95370019384427,62.330736280520796 30.33878310478758,62.57142857143481 22.438454126822762,61.60865690630453 16.81362443382386,61.518396720683086 16.570734060718678,55.95223864707805 16.583517764520366,54.46287745598238 16.76248961838428,54.22217111836653 27.62863788905088,53.86111082996649 30.453836439410225,52.29650540393777 30.517754958651494,46.82024764464586 30.18537865858525,45.39096902431629 29.546193466172554,44.84934381007042 28.89422456995817,43.87140404652746 28.689685308432672,42.44209508423228 29.124331239261664,41.17827280261554 29.789083839335945,40.441037827928085 30.40270162402885,40.06489602722286 31.629937193414662,39.809119020879734 32.37139201659011,39.914439021697035 33.53470906673465,40.50122042154544 34.467919447575696,42.096049650310306 34.301731297629885,43.91653987947211 32.98500980128301,45.57151029311353 33.15119795122882,51.995617724984186 33.31738610134926,52.266416665384895 35.656803905498236,53.4549168839294 37.29311799799325,53.6354476732522 37.52322466723854,53.86111082996649 37.63827800186118,61.66883033080376 37.15249725559261,61.99978369977907 35.58010168239707,62.270563142650644 31.10580533562461,62.55638531547447 27.513584554428235,62.34577956095745 22.374535607581493,61.60865690630453 16.81362443382386,61.548483455742826 16.647436283761635,54.252259433371364 27.3729638120858,53.89119922317332 28.587415677669924,53.46996112533088 30.5049712547916,52.19119479043002 30.31321569706779,45.61664557363838 29.060412719962187,44.15726407416514 28.689685308432672,43.04391117673367 29.009277904580813,41.37386509831413 29.405572723888326,40.787087384975166 30.389917920168955,40.06489602722286 31.374263116449583,39.83921045783791 32.52479646273423,39.95957614047802 33.44522313977359,40.45608347875532 33.892652774462476,40.93754344522313 34.76194463612046,42.71291264849424 37.178064663370606,42.87841201122501 37.45930614799727,50.11505496733298" stroke="#4dd2ff" stroke-dasharray="none" stroke-linecap="round" stroke-linejoin="round" stroke-width="0.5"><title>2026-06-05 14.5km</title><desc>1780659860000</desc></polyline><polyline fill="none" opacity="1" points="52.320665083127096,37.204483957561024 72.20190023753094,36.79460766281409 76.04071937565459,36.12585850328469 76.87444859178504,38.32624202254374 77.011876484612,40.03042718287179 76.9569053274463,42.24150998528785 78.93586698337458,50.01765966102539 78.95419070241041,51.225550707364164 78.58771632169373,52.02361353296146 75.4085510688601,55.88442168827896 75.07872412621509,56.52068575072917 74.79470648121787,57.72849786532606 59.59518154052785,57.67457799420663 52.77875805902295,58.159855782432714 51.69765863585053,55.14031109869393 50.68069222936174,53.576582307287026 48.86664404475596,51.462813297061075 48.33525619271677,50.287279469368514 48.14285714284051,49.208795852529875 48.23447573801968,48.19501059383765 48.61011197825428,47.17042989052425 50.34170342719881,44.937885920197004 51.01051917200675,43.75148951234587 52.06413301662542,37.42020764483459 52.23820834746584,37.204483957561024 71.67051238543354,36.82696637906338 76.1048523922218,36.17979005379311 76.92025788937462,38.585107471837546 77.03020020358963,42.672935045957274 78.99999999994179,50.5784680417637 78.88089582626708,51.462813297061075 78.61520190024748,51.96969057068782 75.30777061416302,55.927558363444405 74.78554462164175,57.750065805572376 59.604343400045764,57.66379401648737 52.74211062095128,58.149071857311355 52.27485578553751,56.488333438916015 51.59687818121165,54.967762920881796 50.96470987441717,53.95403633427486 48.939938920899294,51.592229016641795 48.39022734982427,50.4921900350746 48.15201900235843,49.208795852529875 48.23447573801968,48.18422558875318 48.61011197825428,47.15964477439411 50.387512724788394,44.88395911769476 51.17543264332926,43.2445703695339 52.1099423141568,37.22605634733918" stroke="#4dd2ff" stroke-dasharray="none" stroke-linecap="round" stroke-linejoin="round" stroke-width="0.5"><title>2026-06-04 19.5km</title><desc>1780570902000</desc></polyline><polyline fill="none" opacity="1" points="91.19965795110329,52.78935154801002 91.23034789724625,47.75348131602368 91.33776270865928,47.64517969486769 91.77509444081807,47.65420483535854 91.37612514127977,47.65420483535854 91.35310768170166,47.53687793325662 93.00269228545949,47.50980247087864 99.44758096992155,58.51074234316911 99.33249367197277,58.50171837613016 99.2787862662517,62.47216970658337 98.4578302076552,62.57142857142753 87.90816123015247,62.52631092019146 87.61660674202722,62.50826385290566 87.48617447103607,62.318769410696405 87.52453690368566,53.18643233846524 105.3323781377403,53.159358708209766 108.01007593635586,53.57448674100306 110.37320178735536,53.2315550360654 112.13020120252622,53.29472677176091 112.41408320408664,53.11423597156681 112.51382552893483,52.879597348030074 112.47546309631434,52.37421961160726 112.13787368906196,50.352678075076255 109.67500551321427,38.231426887141424 109.54457324219402,38.09603439432249 109.15327642922057,38.16824375116266 109.06887907741475,38.06895586942119 108.95379177949508,36.98580766785744 107.40394950058544,31.714285714282596 109.38345102508902,38.7459163567255 112.1455461755977,52.86154819584044 112.07649379683426,52.99691674220958 110.4422541661188,53.02399042516481" stroke="#4dd2ff" stroke-dasharray="none" stroke-linecap="round" stroke-linejoin="round" stroke-width="0.5"><title>2026-06-02 16.9km</title><desc>1780401150000</desc></polyline><polyline fill="none" opacity="1" points="151.42602344142506,51.92684310681216 148.26142347540008,55.770651755534345 147.94037710205885,56.52643938107212 147.68354000337422,57.7464844510032 132.48428741295356,57.66011007016641 125.58637676230865,58.18915197761089 124.67827416339424,55.3711616945875 123.6967895362177,53.76238820844446 121.73382028198102,51.462552810349735 121.2476643450791,50.479977838629566 121.0,49.184259762987494 121.17428231693339,47.83453551281127 121.55953796493122,46.94910647109646 123.31153388821986,44.73549943305261 123.93528112786589,43.47210165829165 124.91676575498423,37.4248476422581 125.08187531848671,37.17647043053876 144.52811279083835,36.79850391976652 148.91268897568807,36.09656230809924 149.68320027174195,37.997192771763366 149.86665534222266,42.42465716457082 151.85714285710128,50.50157299710554 151.8021063359338,51.23580560010305 151.5177509766654,51.91604568261391 148.27976898249472,55.74905773912906 147.64684898924315,57.7464844510032 132.47511465940624,57.66011007016641 125.62306777643971,58.16755848534376 124.46730083232978,54.98246712483524 123.72430779680144,53.84876596832328 122.42177679628367,52.43432072322321 121.53201970440568,51.18181809303496 121.12841854931321,50.134454666294914" stroke="#4dd2ff" stroke-dasharray="none" stroke-linecap="round" stroke-linejoin="round" stroke-width="0.5"><title>2026-05-28 19.4km</title><desc>1779966212000</desc></polyline><polyline fill="none" opacity="1" points="183.9236312659341,50.09874089588993 185.20519643381704,50.52673897072964 186.5560353944893,50.50635813205736 186.8331305659376,50.771308862182195 187.00631504802732,61.47093054934521 186.38285091234138,61.85814354996546 182.62474764994113,62.40839223335206 177.6889899088419,62.57142857143481 173.48060699284542,62.32687401142903 166.3454063286772,61.287513586794375 158.81188135553384,61.22637455964286 158.5174677359173,53.64498128273408 158.69065221806522,51.341970706460415 173.54988078569295,50.771308862182195 177.37725784111535,48.73321672259772 177.1347995659453,39.80611310119275 175.45491008926183,37.84943107047002 174.883401298197,36.23922955598391 174.90071974648163,35.50546227062296 175.7666421571048,33.24299512874859 176.978933532082,32.24423971772194 178.52027542318683,31.77543432933453 181.0834057588363,32.36653658351861 181.9493281695759,33.24299512874859 182.676702994504,34.62901426326425 182.8325690284837,35.668521914616576 182.52083696058253,37.31949285257724 180.7543552427669,39.744967095699394 180.9621766213677,48.40711993217701 183.99290505889803,50.15988353759167 186.59067229094217,50.50635813205736 186.86776746227406,50.812070479863905 187.19681797840167,61.00219795657904 186.9889965998591,61.593208425081684 182.8325690284837,62.3676331267925 176.94429663568735,62.55104903693427 173.42865164822433,62.3064944503858 166.2241771912668,61.246754237567075 159.38339014659869,61.32827292729053 158.81188135553384,61.04295735884807 158.6213784252177,51.44387442509469 159.5046192841255,51.199305407557404 173.37669630366145,50.7916896721581 177.37725784111535,48.672073617432034 177.16943646251457,39.68382107029902 175.45491008926183,37.76790221098054 174.95267509110272,35.19972505720216 176.00910043215845,32.998402456971235 177.4118947374518,32.04041143153154 178.41636473394465,31.81620006164303 179.7672036945587,31.897731499775546 181.11804265528917,32.42768498660007 181.72418834280688,32.89648874993145 182.6074292017147,34.48633629429969 182.81525058025727,36.15769999884651 182.48620006418787,37.44178641992039 180.7543552427669,39.56152895993728 180.9621766213677,48.42750099810655 183.95826816232875,50.119121778712724 186.91972280701157,50.75092805000895 187.162181082007,61.10409644561878 186.91972280701157,61.67472696474579 183.42139626771677,62.32687401142903 178.1219511142117,62.57142857143481 173.11691958038136,62.28611488718889 166.25881408760324,61.287513586794375 158.86383670027135,61.246754237567075 158.63869687338592,51.42349368578289 161.3576932430151,51.117782331071794 173.6884283714462,50.75092805000895 177.39457628922537,48.59054944629315 177.11748111783527,39.6634390574327 175.2124518142664,37.21758148574736 174.96999353932915,36.38190619582019 175.0565857803449,34.66977937736374 176.30351405177498,32.713043938201736 177.04820732492954,32.18309125506494 179.12642111064633,31.714285714289872 180.7370367946569,32.20347407813824 181.5163669642061,32.774192228665925 182.4515631677932,33.97677123636822 182.81525058025727,35.07743003281939 182.72865833924152,36.830317788393586" stroke="#ffc200" stroke-dasharray="none" stroke-linecap="round" stroke-linejoin="round" stroke-width="0.5"><title>2026-05-27 20.2km</title><desc>1779879632000</desc></polyline><polyline fill="none" opacity="1" points="15.146958304860163,89.21188090018404 12.203349282266572,85.39935907729523 11.760423786763567,84.08503731056408 11.714285714260768,82.80328543217183 12.277170198212843,81.1739161579244 14.002734108013101,79.05569649284007 14.6486671223538,77.77388028206042 15.765208475699183,71.4188712910618 35.61380724539049,71.01691699712683 39.701640464772936,70.33250462356227 40.32911825022893,71.83168753587961 40.5782638413948,72.87458415647416 40.68899521534331,77.45885514379188 41.842447026690934,81.18477870745846 42.571428571420256,84.1936595976149 42.36842105269898,85.03004726424842 42.3407382091973,86.19228866634512 39.064935064991005,90.18942723840155 38.50205058098072,92.07932312567573 22.981203007511795,92.00329351926484 16.39268626109697,92.52463823357539 16.235816814762075,92.39430230919243 15.857484620646574,90.80853498815122 15.230006835248787,89.34222096278972 14.473342447017785,88.18001608853228 13.098427887889557,86.68107775319368 12.21257689682534,85.42108325921436" stroke="#4dd2ff" stroke-dasharray="none" stroke-linecap="round" stroke-linejoin="round" stroke-width="0.5"><title>2026-05-26 19.0km</title><desc>1779792854000</desc></polyline><polyline fill="none" opacity="1" points="62.13863951526582,66.0 65.27712982881349,66.22071299528761 67.44337042566622,67.62524408806348 68.72264636866748,69.89253613635083 68.79087441903539,72.11967215372715 68.04036586574512,74.84837894978409 67.9209667777177,76.29297218863212 68.3132780669257,79.10187130016857 69.35375583387213,81.16839136273484 71.24708422954427,83.335203223789 73.03807054983918,86.18412106846517 74.215004417405,89.33393004442041 74.59025869396282,91.78151540517865 63.02560416905908,96.83708136172208 60.688793446461204,93.50684307144547 55.7934308378608,88.63174795928353 53.52484816557262,84.4988510060357 52.77433961228235,81.69003356693429 52.53554143628571,78.33946003018355 53.2689929769258,73.82511860263185 54.65061099542072,70.57472478294221 56.44159731565742,68.54821587541664 59.22189036506461,66.7825267080334 62.24098159070127,66.0 65.05538866535062,66.14045375467686 67.32397133758059,67.5048561252479 68.5861902681063,69.43105415931495 68.8420454566949,71.95915873984632 67.95508080290165,75.69105970553937 68.19387897889828,78.68053914337361 69.26847077102866,81.06807538618159 72.91867146181175,85.74274229290313 74.01032026653411,88.65181034145644 74.55614466883708,91.88182559222332 66.01058136951178,95.37258633993042 63.09383221936878,96.85714285714494 60.79113552189665,93.66733785318502 57.17504885629751,90.23673167970264 55.298777473159134,88.00981303719163 53.95127347990638,85.54211522980768 52.99608077574521,82.81356564299494 52.53554143628571,79.02161762981268 52.77433961228235,76.31303590442985 53.52484816557262,72.96236529898306 54.87235215888359,70.2938238792267 55.98105797613971,68.98963554231159 58.641951937635895,67.04336821078323 61.74632822611602,66.06019447930157 64.97010360244894,66.12038893911813 67.34102835023077,67.54498545483511 68.22799300402403,68.64853861919255 68.67147533094976,69.75208522137837 68.8420454566949,71.4575534267642 67.95508080290165,75.83150612616737 68.22799300402403,78.92130049293337 69.3025847961544,81.1082017832523 71.21297020447673,83.35526617837604 72.85044341150206,85.84305574315658 73.87386416591471,88.23049986097612 74.60731570661301,91.70126721647102 63.0085471564671,96.75683535831922 60.67173643386923,93.54696677988977 56.10045706416713,89.01293284932035 53.678361278783996,84.96029552047548 52.82551065000007,81.81041232890857 52.56965546135325,78.5200314034737 53.32016401470173,73.54422261851141 54.46298385702539,70.89575386659999 56.15162810188485,68.84918394399574 58.5054958370165,67.14369176805485 61.1663897986291,66.18058337936236 64.68013438867638,66.06019447930157 66.89754602330504,67.14369176805485 68.43267715489492,69.1501515245618 68.8420454566949,71.55787459787098 67.93802379025146,75.91176117600116 68.22799300402403,78.86111018479278 68.99555856984807,80.62668444518931 71.53705344331684,83.71639899036381 73.25981171324383,86.6455613936123 74.18089039227925,89.31386773602571 74.59025869396282,91.66114310917328 63.05971819424303,96.79695836434257 61.029933697893284,93.90807976553333 56.066343039041385,88.95274581346894 53.831874391878955,85.28129972355964 52.75728259974858,81.48940212340676 52.56965546135325,78.03850735099695 53.2689929769258,73.70473466151452" stroke="#ffb000" stroke-dasharray="none" stroke-linecap="round" stroke-linejoin="round" stroke-width="0.5"><title>2026-05-24 23.2km</title><desc>1779623970000</desc></polyline><polyline fill="none" opacity="1" points="87.48961721290834,78.09734611474232 87.54872404302296,78.31756570941434 87.57236677507899,78.58142896687968 87.55885664247762,78.78180380516278 87.25994495871419,79.75190465657397 87.21265949461667,80.13477295068515 87.21772579434037,80.51961700781612 87.42882161621674,82.3465248691009 87.70577933450113,83.53659553498255 87.69733550161618,83.68336559961426 87.54872404302296,84.07210229176053 87.52677007755847,84.28431733624348 87.63653990492458,85.40881801102478 87.8223042281752,85.96608484064018 87.74968726544466,87.46725020666236 87.78346259694081,87.61993786231687 87.86790092568845,87.78848770405784 88.28164873654896,88.1771379447382 88.37453089817427,88.33973408743623 88.39479609707632,88.561814310302 88.29009256941936,88.99605274258101 88.35257693269523,89.31924640810394 88.47416812609299,89.48778073815265 88.6869527145318,89.62260709472685 92.33131098323793,90.97676429007879 92.60489116837562,91.046154737096 93.1554290717977,91.10563205562357 93.74649737303116,91.046154737096 96.64104328245594,90.22733084988431 97.04465849386179,90.15397197430866 97.52426820114488,90.15198929795224 100.90686765073042,90.4295619169061 101.4422066549887,90.4295619169061 102.01132099074312,90.33241197481766 102.67838378783199,90.12224912705824 103.07862146609114,90.04095908223462 106.62840880659496,89.78915594085811 107.00838128595933,89.70389898108806 107.47785839378776,89.50959095080907 107.78014761070517,89.32122917386732 108.1347885914438,89.01786353604075 108.75287715785817,88.30007662368735 109.32874655992055,87.71908501441249 109.91474856141576,87.03892484790413 110.19508381286141,86.60662343637159 110.59532149111328,85.69836088375632 110.77601951463294,85.43856577581937 110.98036027020134,85.27594407620563 112.32630723041802,84.47471380369643 112.59482111582474,84.2248180372826 112.68939204402704,84.06615230206808 112.76538653990428,83.8519513953106 112.93764073053899,83.17759896996358 113.04741055791237,82.5369413345561 113.12002752063563,82.27908523291808 113.302414310725,81.77526367916835 113.64523392543924,81.04926038796111 113.64016762571555,81.01157091226014 113.87659494620311,80.56524231715593 114.02014010507264,80.36091940057304 114.5824993745191,79.74595327319548 114.81217162871326,79.43846251883588 115.03677758318372,78.98614421936509 115.30022516886675,78.23225572811498 115.32555666749249,78.2144001006709 115.42857142857247,78.25606320446059 115.3204903677688,78.14694535206218 115.27320490367129,78.1846406831828 114.9405178884117,79.11509574247611 114.87634475856612,79.09525710531307 114.81217162871326,78.97820871156182 114.91518638978596,79.15080523558208 114.84932449336338,79.26983637981903 114.81217162871326,79.28372329659396 114.20083812859957,79.01193459613387 113.0761195896921,78.69649597189527 112.67757067800267,78.629042987086 110.62909682260943,78.54175052277787 108.36783837878465,78.33343729028638 106.74155616712233,78.33343729028638 106.12515636727767,78.29971016459785 105.41418563922343,78.1846406831828 103.45015011257783,77.69657938214368 102.90805604203342,77.59341029833377 102.23086064547533,77.54182553991086 101.03352514385188,77.60134640220531 100.7531898924135,77.5696019662264 100.0523517638212,77.3573096455093 98.86683762821485,77.06763580603183 98.74524643481709,77.01208139879418 98.61521140854893,76.9108925839646 98.50713034775981,76.76010037825836 98.29096822615975,75.84341595207115 98.04609707280906,75.40291500939384 97.89241931448487,75.2402047911728 97.69483362521714,75.14099053841892 97.52595696772187,75.11519474520901 96.15974480860314,75.21242485423863 96.0128221165869,75.20250343804582 95.87096572428709,75.15289627694983 95.7054665999458,75.03383854548883 95.59569677257969,74.88699961732345 95.41330998249032,74.34924166164092 95.31367275455705,74.13691224315698 95.12284213159728,73.93450248214504 94.88472604452545,73.80749914385888 93.13685263947991,73.31336845179794 90.47873405053542,72.88669875830601 87.8999874906076,71.88249759765495 87.75137603202165,71.85868188582754 85.89711033274216,71.83288149659165 85.05610457842704,71.85074330837233 84.72510632973717,71.80906572061213 84.57142857142753,71.75151080151954" stroke="red" stroke-dasharray="none" stroke-linecap="round" stroke-linejoin="round" stroke-width="0.5"><title>2026-05-23 52.6km</title><desc>1779516240000</desc></polyline><polyline fill="none" opacity="1" points="143.34367798257153,66.0408466769004 144.4542597126565,66.51058282481972 145.54748860321706,67.40920523827663 146.17219082650263,68.47120802332938 146.43248341942672,69.8599718703772 146.2589550241246,71.20787994001876 145.42601872654632,72.63746887851448 144.4889653917635,73.43394944266765 144.31543699634494,74.23042664253444 144.61043526843423,82.80766022144235 148.39335428673076,84.64558809084701 150.14599107945105,84.70685204466281 150.47569503070554,85.03359279569122 150.788046142261,95.14185513404664 150.5104007096961,95.89740045806684 147.59512366814306,96.48958251527802 143.3783836615621,96.81630285453866 136.24636661348632,96.48958251527802 128.9061154910014,95.46857780771097 122.60703474050388,95.63193893231801 122.36409498698777,95.22353585547535 122.06909671489848,88.30096917125047 122.36409498698777,85.54412408581993 137.00989155296702,85.0744353497139 140.91428044787608,82.90976779520861 140.74075205251575,73.86282219913846 138.8145868643769,71.53464408156287 138.51958859240403,69.98250936580007 138.64105846907478,68.96136113732064 139.560758964275,67.28666607044579 140.619282175845,66.44931295888091 141.74721674545435,66.02042333954887 143.48250069876667,66.10211667558178 145.39131304743933,67.16412682301598 146.39777774031973,69.1655912254646 146.2589550241246,71.24872548865096 145.58219428238226,72.53535574236594 144.55837674986105,73.41352690615167 144.33278983592754,74.12831436908164 144.54102391033666,82.48091561386536 144.76661082421197,82.88934628490824 148.08100317505887,84.56390278811159 150.49304787011351,84.97232894795889 150.64922342594946,95.7544596829539 147.87276910070796,96.46916247531772 141.3481014362187,96.83672285692592 136.66283476230456,96.53042258869391 129.6175819117925,95.48899795601028 122.72850461723283,95.59109866441577 122.41615350556094,95.32563670762465 122.08644955442287,87.85170827619731 122.2773307893658,85.54412408581993 136.5066592064686,85.11527789493266 138.12047328305198,84.6660094109684 140.94898612698307,82.86892477232323 140.70604637346696,73.90366717267898 139.02282093872782,72.04521191901586 138.53694143187022,69.49235890631098 139.04017377831042,67.98105363505601 140.1507555085118,66.75566208965029 141.27869007806294,66.16338665435615 142.4239774872549,66.0 144.83602218242595,66.73523882971494 146.2242493450758,68.53247723224922 146.31101354269776,71.04449765688332 145.6863113194122,72.3311293040897 144.4195540335495,73.61775217202376 144.33278983592754,74.21000419226766 144.52367107075406,82.62386644934304 147.94218045880552,84.48221745004412 150.44098935159855,84.8906437867845 150.788046142261,94.22294457994576 150.5971649074345,95.79529991540767 147.57777082856046,96.51000255311374 141.72986390592996,96.85714285714494 137.23547846684232,96.59168268213398 129.98199154203758,95.5094181020977 122.36409498698777,95.55025838768051 122.15586091257865,85.60538774772431 137.33959550404688,85.03359279569122 140.74075205251575,83.07313979828905 141.00104464555625,82.7259741226153 141.01839748508064,81.23519660384045 140.75810489209834,74.3121164215263 140.584576496738,73.6790197086957 139.19634933414636,72.29028398997616 138.65841130859917,71.20787994001876 138.53694143187022,69.55362778347626 138.76252834580373,68.5937464213057 139.63017032243079,67.20497324765893 141.6430997082498,66.08169334490958 143.34367798257153,66.08169334490958 145.11366761487443,66.8782016025798 146.2068965054932,68.53247723224922 146.43248341942672,70.59519564831862" stroke="#ffb600" stroke-dasharray="none" stroke-linecap="round" stroke-linejoin="round" stroke-width="0.5"><title>2026-05-17 22.3km</title><desc>1779013233000</desc></polyline><polyline fill="none" opacity="1" points="186.28490661285468,79.25148672978685 186.11590106011136,79.40521921470281 185.05825340739102,79.4116247262973 183.35729429582716,80.00733428955573 182.8393740535248,79.9689015945005 181.97253912169253,79.64862817016547 181.69449772845837,79.89203612986967 181.1220595658815,81.02579166377836 180.5005552751245,81.66632196361752 177.2730943968054,78.11129173516747 174.9560827864916,77.73335711187974 174.62352347298292,77.58602601513849 174.47087329631904,77.38744874226904 174.4872286723985,76.4650165906969 174.38364462394384,76.38814659914351 173.031600201939,76.3048706628797 169.07359919234295,76.41376994069651 168.78465421506553,76.28565312256251 168.14679454822908,75.76037128356256 167.06733972742222,75.4336692637844 166.77294295810862,75.08774752252793 166.29318526000134,73.87059947936359 166.05875820296933,72.47405156979585 164.74487632510136,71.9871739482187 163.5454820797604,72.08326853129256 160.86320040386636,72.69186395235738 158.1536597677914,72.32670744696588 158.0010095911275,72.4099889525387 157.86471479054308,72.66623900756531 157.45037859669537,74.01153368555606 157.50489651691169,74.26137077591193 158.57344775367528,75.78599489550106 161.67006562344613,76.38814659914351 162.61867743564653,77.17605930409263 162.8094901565055,77.90631054251571 163.37102473501,79.24508120097016 163.49641595155117,80.12903766018644 164.23785966687137,83.26761754936888 164.27602221100824,83.83766837783332 164.8212014134333,86.61738856818192 165.2355376073101,87.33471463966998 165.63897021708544,87.58449579599619 167.37809187281528,88.18652812127038 169.2098939929565,89.35855230983361 170.98172640081611,89.46102327299741 171.7013629480207,90.02461041741844 172.26834931853227,90.08224971096206 173.18425037860288,90.5113404753829 176.39535588087165,90.89559823632953 176.59707218577387,90.74189542957174 176.7061080262647,90.4857232031136 177.07137809190317,89.21765444741322 177.26219081273302,87.57809116406133 177.2076728924876,87.34752395523537 176.89146895508748,87.12976521569362 176.86966178700095,87.02729023906431 177.08228167594643,86.44446045409131 177.23493185261032,86.27153183756673 177.2403836446465,85.33642765115655 177.64926804645802,84.10667923189249 178.38525996971293,83.1459205977917 179.9117617365264,82.14671516376984 181.02937910149922,81.16030359869183 181.73811206466053,79.8215760334133 181.99434628977906,79.63581719734793 182.3705199394608,79.77033227449647 182.02160524990177,79.62941170989507 181.72175668855198,79.8343869662458 181.12751135791768,81.01298098744883 180.4732963150309,81.64710615493095 177.3276123170508,78.14331998273701 174.68349318529363,77.61805454546993 174.47632508835522,77.36823155164166 174.43271075218217,76.39455243557677 173.9529530540167,76.29846481679124 169.01908127209754,76.40095827131518 168.19040888440213,75.77318309089969 167.08369510353077,75.4336692637844 166.73478041394264,75.03009370341897 166.26047450784245,73.78091390155532 166.09146895509912,72.51248910701543 164.766683493217,71.98076763714562 164.42322059569415,71.94873607151385 163.14750126199215,72.1409252066369 160.80323069158476,72.67905148134378 158.07733467945945,72.33311372076423 157.90832912671613,72.55092661942035 157.42857142857974,74.10121891564268 158.55164058555965,75.79240079676674 161.70277637557592,76.41376994069651 162.60777385160327,77.15684204520585 162.77132761233952,77.81022536533783 163.37647652701708,79.32194750133931 163.4582534073852,80.02655062777922 164.21605249875574,83.15873081493919 164.79939424534678,86.55974591933773 164.9084300858376,86.8863868581102 165.29005552752642,87.36673792342481 165.66622917720815,87.57809116406133 167.36173649673583,88.19293268773981 169.21534578496357,89.34574342700944 169.5642604745226,89.42259668246334 170.99262998485938,89.44821441225577 171.71226653206395,90.03101478611279 172.13750630995492,90.03741915414139 173.2987380111299,90.54976636308493 176.1445734477602,90.90840678563109 176.45532559315325,90.86998112941001 176.62433114589658,90.72268255084782 176.83149924280588,90.18471942836186 177.11499242807622,88.95507117753368 177.2730943968054,87.62292357315891 177.22402826856705,87.34752395523537 176.93508329126053,87.16178860973014 176.89146895508748,87.04009962078999 177.0332155477081,86.52772220138286 177.25128722868976,86.21388885374108 177.23493185261032,85.32361790276991 177.64926804645802,84.10667923189249 178.15083291271003,83.37650408457557 180.08076728926972,82.03142114942966 180.74588591619977,81.4549477269029 181.11115598186734,81.05781834252411 181.7163048965449,79.87281974820507 181.96163553762017,79.64862817016547 182.8448258455319,79.97530704539167 183.4009086320293,80.01373973632872 184.9764765270229,79.4436522738797 186.2194851085369,79.4436522738797 186.47571933368454,79.34756957940408 186.62836951034842,79.16180926347806 186.73740535086836,78.59811923736197 187.2607773851778,77.3426086211839 187.53336698640487,75.79880669733029 188.28571428573923,74.02434586956588" stroke="#ff6800" stroke-dasharray="none" stroke-linecap="round" stroke-linejoin="round" stroke-width="0.5"><title>2026-05-16 35.3km</title><desc>1778887035000</desc></polyline><polyline fill="none" opacity="0.5" points="34.266952535603195,100.36751589650521 35.37900645058835,100.79697377186676 36.699570474622305,102.39209447040048 37.133966535155196,103.78270151939068 36.94283226848347,105.50049608598056 35.083617129479535,108.01580993256357 35.29212723841192,116.95206049265107 38.663040668237954,118.79242571181385 40.81764512852533,118.996909629117 41.25204118900001,119.38542846178461 41.51267882529646,129.17992864605912 41.39104792836588,129.9569236154348 40.69601423147833,130.40676134727255 36.16091935959412,131.04062178725144 32.16447560262168,131.14285714285506 27.733635785232764,130.87704510315962 20.018761750194244,129.8137932033569 13.120552308857441,129.75245156500023 12.77303546044277,123.04564559589198 12.946793884737417,119.85573966345692 27.542501518619247,119.3240834360331 29.01944812439615,118.75152890183381 31.62582448759349,117.15654640270805 31.469441905792337,108.50659897117293 31.260931796685327,107.83176371417358 30.322636305936612,106.99332867120393 29.488595869741403,105.6845445768704 29.193206548690796,104.10990168940043 29.64497845148435,102.41254464829399 31.24355595430825,100.73562270661932 32.40773739654105,100.32661509550235 33.658798050833866,100.28571428571013 35.69177161413245,101.10372879909119 37.012335638166405,103.18964976580173 37.06446316553047,105.00969923316734 36.491060365515295,106.46163622708991 35.100992971798405,107.89311247353908 34.961986232490744,109.50862263058661 31.67795201478293,109.5904202456004 31.295683481555898,107.85221330283093 29.94036777270958,106.54343516210793 29.22795823350316,104.70295055225142 29.40171665768139,103.04649906345003 30.218381251499522,101.59453580580885 32.11234807537403,100.40841668861685 34.475462644710205,100.44931747191004 35.60489240207244,101.04237783349527 36.33467778371414,101.79903834866127 37.16871821990935,103.94630167527066 36.68219463212881,106.11399035788781 35.135744656668976,107.81131412326067 34.92723454767838,109.4472743961087 31.67795201478293,109.56997084514296 31.33043516636826,107.954461212983 29.97511945758015,106.58433461627283 29.297461603069678,105.00969923316734 29.36696497281082,103.21009985728597 30.079374512075447,101.6967871049419 31.712703699653503,100.55156939128938 33.79780479025794,100.30616469170491 35.76127498387359,101.18553005547437 36.56056373525644,102.18759256994235 37.09921485034283,103.4964009053947 37.012335638166405,105.2959975523845 36.38680531102,106.5638848902745 35.1183688142919,107.99536036157224 34.97936207492603,109.46772380986658 31.764831227017567,109.61086964383139 31.399938536109403,108.01580993256357 30.027246984827798,106.5638848902745 29.262709918257315,104.70295055225142 29.54072339698905,102.6374964586139 30.531146415043622,101.24688097453327 32.616247505531646,100.28571428571013 34.51021432952257,100.44931747191004 35.830778353556525,101.24688097453327 37.09921485034283,103.41460065028514 37.047087323036976,105.09149879723554 36.2825502565247,106.70703292579856 35.1183688142919,107.85221330283093 35.048865444550756,109.42682498016802 31.730079542088788,109.61086964383139 31.260931796685327,107.81131412326067 30.18362956662895,106.82973115559435 29.384340815246105,105.37779699239763 29.22795823350316,103.74180145822174 29.85348856059136,101.79903834866127 29.94036777270958,102.00354067009175 30.63540146953892,101.18553005547437 31.764831227017567,100.5311190118664 34.21482500835555,100.38796629363787 31.764831227017567,100.5311190118664 30.63540146953892,101.18553005547437 29.94036777270958,102.00354067009175 29.85348856059136,101.79903834866127 29.22795823350316,103.74180145822174 29.384340815246105,105.37779699239763 30.18362956662895,106.82973115559435 31.260931796685327,107.81131412326067 31.730079542088788,109.61086964383139 35.048865444550756,109.42682498016802 35.1183688142919,107.85221330283093 36.2825502565247,106.70703292579856 37.047087323036976,105.09149879723554 37.09921485034283,103.41460065028514 35.830778353556525,101.24688097453327 34.51021432952257,100.44931747191004 32.616247505531646,100.28571428571013 30.531146415043622,101.24688097453327 29.54072339698905,102.6374964586139 29.262709918257315,104.70295055225142 30.027246984827798,106.5638848902745 31.399938536109403,108.01580993256357 31.764831227017567,109.61086964383139 34.97936207492603,109.46772380986658" stroke="#4dd2ff" stroke-dasharray="1,0.5" stroke-linecap="round" stroke-linejoin="round" stroke-width="0.5"><title>2026-05-12 15.2km</title><desc>1778590468000</desc></polyline><polyline fill="none" opacity="1" points="70.69552396418294,100.36751589650521 71.8075778791681,100.79697377186676 73.12814190320205,102.39209447040048 73.56253796373494,103.78270151939068 73.37140369706322,105.50049608598056 71.51218855805928,108.01580993256357 71.72069866699167,116.95206049265107 75.0916120968177,118.79242571181385 77.24621655710507,118.996909629117 77.68061261757975,119.38542846178461 77.9412502538762,129.17992864605912 77.81961935694562,129.9569236154348 77.12458566005807,130.40676134727255 72.58949078817386,131.04062178725144 68.59304703120142,131.14285714285506 64.16220721381251,130.87704510315962 56.44733317877399,129.8137932033569 49.549123737437185,129.75245156500023 49.201606889022514,123.04564559589198 49.37536531331716,119.85573966345692 63.97107294719899,119.3240834360331 65.4480195529759,118.75152890183381 68.05439591617323,117.15654640270805 67.89801333437208,108.50659897117293 67.68950322526507,107.83176371417358 66.75120773451636,106.99332867120393 65.91716729832115,105.6845445768704 65.62177797727054,104.10990168940043 66.07354988006409,102.41254464829399 67.672127382888,100.73562270661932 68.8363088251208,100.32661509550235 70.08736947941361,100.28571428571013 72.1203430427122,101.10372879909119 73.44090706674615,103.18964976580173 73.49303459411021,105.00969923316734 72.91963179409504,106.46163622708991 71.52956440037815,107.89311247353908 71.39055766107049,109.50862263058661 68.10652344336268,109.5904202456004 67.72425491013564,107.85221330283093 66.36893920128932,106.54343516210793 65.6565296620829,104.70295055225142 65.83028808626113,103.04649906345003 66.64695268007927,101.59453580580885 68.54091950395377,100.40841668861685 70.90403407328995,100.44931747191004 72.03346383065218,101.04237783349527 72.76324921229389,101.79903834866127 73.5972896484891,103.94630167527066 73.11076606070856,106.11399035788781 71.56431608524872,107.81131412326067 71.35580597625813,109.4472743961087 68.10652344336268,109.56997084514296 67.759006594948,107.954461212983 66.4036908861599,106.58433461627283 65.72603303164942,105.00969923316734 65.79553640139056,103.21009985728597 66.50794594065519,101.6967871049419 68.14127512823325,100.55156939128938 70.22637621883769,100.30616469170491 72.18984641245333,101.18553005547437 72.98913516383618,102.18759256994235 73.52778627892258,103.4964009053947 73.44090706674615,105.2959975523845 72.81537673959974,106.5638848902745 71.54694024287164,107.99536036157224 71.40793350350577,109.46772380986658 68.19340265559731,109.61086964383139 67.82850996468915,108.01580993256357 66.45581841340754,106.5638848902745 65.69128134683706,104.70295055225142 65.9692948255688,102.6374964586139 66.95971784362337,101.24688097453327 69.04481893411139,100.28571428571013 70.93878575810231,100.44931747191004 72.25934978213627,101.24688097453327 73.52778627892258,103.41460065028514 73.47565875161672,105.09149879723554 72.71112168510444,106.70703292579856 71.54694024287164,107.85221330283093 71.4774368731305,109.42682498016802 68.15865097066853,109.61086964383139 67.68950322526507,107.81131412326067 66.6122009952087,106.82973115559435 65.81291224382585,105.37779699239763 65.6565296620829,103.74180145822174 66.2820599891711,101.79903834866127 66.36893920128932,102.00354067009175" stroke="#4dd2ff" stroke-dasharray="none" stroke-linecap="round" stroke-linejoin="round" stroke-width="0.5"><title>2026-05-11 15.3km</title><desc>1778503630000</desc></polyline><polyline fill="none" opacity="1" points="96.34424014692195,100.82354254811071 102.22772866091691,100.48739993863273 108.68242965172976,103.5799050781643 112.33818950504065,109.0925934141851 112.90940198209137,114.73968679399695 111.31000704644248,119.58001165435417 106.16909475252032,125.63036464899778 105.54076102771796,130.73950569349108 94.80196645879187,130.73950569349108 94.00226899096742,125.56313882849645 90.46075163339265,122.06738613569178 87.77605299092829,117.6976675830083 87.0905980183743,111.84891922096722 87.71893174317665,108.95813818369061 91.3175703487359,103.51267686951905 98.28636256908067,100.3529428440961 104.74106355989352,101.15968497557333 111.42424954171292,106.26902745652478 112.79515948682092,111.37832787644584 112.73803823906928,115.54641022533178 110.11046084435657,121.46235001715831 106.34045849577524,125.15978375350824 105.88348851399496,130.60505515208934 95.31605768832378,131.07563191937516 94.00226899096742,125.42868716613157 90.74635787168518,122.47074322053231 87.49044675240293,117.29430739633972 87.20484051387757,111.04219098348403 88.86135669751093,106.60516693472164 93.31681401841342,102.10088280355558 96.45848264242522,100.75631404074375 101.14242495433427,100.3529428440961 106.39757974352688,101.89919767476385 108.7395508994814,103.64713327941718 112.56667449581437,109.83209666144103 113.02364447736181,113.52959968068171 111.99546201853082,118.57161375461146 106.51182223879732,124.8236543238163 106.16909475252032,130.26892867143033 95.37317893607542,131.1428571428405 93.94514774321578,125.49591300083557 88.68999295425601,119.7816910376423 86.97635552287102,113.6640539210639 87.94741673395038,108.28586159425322 91.14620660571381,103.44544865336502 98.45772631233558,100.28571428568102 104.8553060553968,101.22691343910992 109.53924836730585,104.38664301508106 111.82409827574156,107.88249529100722 112.966523229843,112.3195102083846 111.48137078923173,119.58001165435417 106.22621600050479,125.36146132380236 105.88348851399496,130.67228042631177 95.31605768832378,131.07563191937516 94.05939023871906,125.76481626793975 88.51862921123393,119.58001165435417 87.0905980183743,115.54641022533178 88.06165922922082,108.21863389521604 91.03196411044337,103.91604601260042 97.31530135823414,100.48739993863273 103.59863860579208,100.82354254811071 109.19652088126168,104.11773048591567 112.85228073433973,110.5043715761858 111.99546201853082,118.10102750739316 109.82485460606404,121.8657074951916 106.34045849577524,125.29423547437182 105.88348851399496,130.60505515208934 95.14469394506887,131.00840668880846 94.05939023871906,125.63036464899778 90.2322666423861,121.9329337158706 87.54756800015457,117.2270806732704 87.14771926612593,110.90773617528612 89.20408418332227,105.93288779642899 92.17438906431198,102.70593779638875 95.65878517460078,100.89077104820171 101.14242495433427,100.3529428440961 106.51182223879732,101.83196928398684 111.59561328473501,107.14298972091638 112.90940198209137,110.77328133798437 112.623795743566,116.42035942611983" stroke="#4dd2ff" stroke-dasharray="none" stroke-linecap="round" stroke-linejoin="round" stroke-width="0.5"><title>2026-05-10 11.2km</title><desc>1778422578000</desc></polyline><polyline fill="none" opacity="1" points="151.8571428571595,125.75119155483844 151.220527045778,126.32406608146266 149.7975034674164,126.58846916527546 143.01941747579258,127.18337484785297 136.9153952843044,126.87490545171022 129.46324549242854,125.77322522026952 121.20596393896267,125.66305686921987 121.0,115.13068711441883 124.37031900137663,114.73406002997945 136.63453536760062,114.49167643106193 138.13245492370334,114.0509782388981 141.33425797498785,112.11189485488285 141.27808599174023,104.24519658071222" stroke="#4dd2ff" stroke-dasharray="none" stroke-linecap="round" stroke-linejoin="round" stroke-width="0.5"><title>2026-05-10 11.3km</title><desc>1778397813000</desc></polyline><polyline fill="none" opacity="1" points="170.78267282783054,100.2857142857174 170.7045918344229,111.02342152772326 170.75073060326395,114.5950409309662 170.6726496098563,129.2160491356408 170.70814097048424,130.792535545821 170.90689259006467,130.9259917660238 174.96710424708726,130.9718672354902 175.03453783229634,131.0344246062523 175.04163610443356,131.1428571428587" stroke="#ffbb00" stroke-dasharray="none" stroke-linecap="round" stroke-linejoin="round" stroke-width="0.5"><title>2025-11-09 21.3km</title><desc>1762645227000</desc></polyline><polyline fill="none" opacity="1" points="30.12871206132695,134.83917613408994 35.58856105571613,137.4497087895288 39.85406808252446,144.0094601220917 39.626574374269694,151.50623352470575 37.06727015809156,156.0578015780775 33.4842442558147,159.33758718828904 33.19987712078728,164.82616906880867 22.56454626726918,165.29470428824425 21.085837164660916,159.53838982339948 15.057253900449723,152.57719372957945 14.204152495134622,147.15543860662729 15.398494462482631,142.00138037477154 20.005242051323876,136.7134058237425 27.0006735753268,134.57142857147846 33.654864537063986,136.0440387300332 36.44166246126406,138.5206933551235 39.45595409325324,143.34010093129473 40.08156179031357,147.15543860662729 39.56970094703138,151.03768785129068 37.97724499064498,154.9199127073516 33.37049740203656,159.47145561903017 33.19987712078728,164.69230179779697 24.327622504904866,165.42857142857974 21.995811997214332,165.09390352328774 21.37020429968834,160.0069290517131 16.763456711079925,155.45539008401101 15.114127327222377,152.57719372957945 14.261025922140107,146.95463194773765 15.512241316726431,141.86750815977575 20.460229467367753,136.4456590731861 27.626281272387132,134.63836547295796 33.882358245085925,136.11097547214013 38.3753589799162,141.0642742596683 39.740321228513494,144.34413944545668 39.85406808252446,150.5691418228089 37.97724499064498,154.85297800274566 33.541117682820186,158.93598172214115 33.25675054755993,164.62536815163912 22.280179132241756,165.29470428824425 21.199584018904716,159.67225821060129 16.763456711079925,155.52232472336618 14.54539305716753,150.10059543902753 14.43164620292373,144.7457543942728 17.04782384610735,139.39086694811704 21.938938570208848,135.64241812570253 28.763749812962487,134.77223925443832 33.654864537063986,136.17791220679646 38.88721982296556,141.8005720412475 40.02468836354092,146.08446900564013 39.399080666247755,151.90784381894628 37.18101701233536,155.79006320866756 33.37049740203656,159.40452140721027 33.14300369378179,164.69230179779697 29.958091780543327,165.29470428824425 22.052685424219817,165.22777070710436 21.25645744567737,159.67225821060129 17.04782384610735,155.85699781193398 15.284747608471662,152.7779985613888 14.43164620292373,144.6788185876212 18.640279802959412,137.78439166554017 24.782609920948744,134.83917613408994 32.574269423494115,135.77629168948624 37.97724499064498,140.46184814959997 39.96781493653543,145.95059767505154 39.512827520258725,151.57316859206185 37.010396731086075,156.12473615229828 33.4842442558147,159.20371872879332 33.25675054755993,164.69230179779697 29.730598072288558,165.22777070710436" stroke="#4dd2ff" stroke-dasharray="none" stroke-linecap="round" stroke-linejoin="round" stroke-width="0.5"><title>2025-11-01 10.0km</title><desc>1761964262000</desc></polyline><polyline fill="none" opacity="1" points="75.84704044926912,142.89488694886677 76.65199860511348,148.91748280340107 74.8695912596304,154.73701465397608 69.80985427973792,159.81214352924144 69.52236922411248,165.22556889004773 58.310452051926404,165.36090392316692 57.44799688528292,159.74447541544214 53.25071507203393,156.15805489453487 51.46830772678368,152.84228930529207 50.7208465822041,145.12799106084276 54.113170239143074,138.69933642470278 59.92036836408079,135.1804658716428 66.47502763406374,134.97745350422338 72.45471679209732,138.02263208845397 75.90453746030107,143.23323656979483 76.70949561614543,149.12049064069288 74.8695912596304,154.66934599052183 69.92484830226749,159.33846657845424 69.40737520204857,165.29323641041992 58.36794906342402,165.42857142857974 57.67798492964357,159.81214352924144 51.8132897936739,153.72198393184226 50.433361526578665,147.42875664576422 51.0658286488615,143.50391613459215 53.020727027673274,140.05274289811496 57.907972974237055,135.85717328666942 64.92260833294131,134.57142857147846 71.99474070314318,137.6842796455021 76.13452550489455,144.11294472654117 76.65199860511348,149.3911676549469 74.3521181596443,155.27836369804572 69.92484830226749,159.40613473625854 69.17738715722226,165.42857142857974 58.42544607468881,165.42857142857974 57.85047596297227,159.74447541544214 53.76818817225285,156.36106037953869 51.41081071575172,152.3686070702388 50.77834359300323,144.51896345813293 54.74563736165874,137.95496161445044 60.55283548659645,134.90978270058986 67.91245291219093,135.24813664599787 73.37466897047125,139.24069936596788 76.2495195271913,145.1956607577158 76.42201056075282,150.06785967730684 74.6971002263017,154.87235195899848 69.8673512910027,159.67680729436688 69.63736324617639,165.02256628562463 68.88990210159682,165.36090392316692 58.36794906342402,165.42857142857974 57.44799688528292,159.67680729436688 53.538200127892196,156.36106037953869 51.41081071575172,152.5716137861018 50.77834359300323,144.7219727251213 54.630643339361995,138.15797301440034 61.01281157578342,134.90978270058986 68.60241704573855,135.45114892564015 73.31717195920646,138.97001795395045 76.30701653822325,145.12799106084276 76.36451354948804,150.81222005496966 73.94963908172213,155.95504934387282 69.98234531306662,159.60913916595746 69.40737520204857,165.22556889004773 58.36794906342402,165.42857142857974 57.73548194090836,159.94747973489575 53.71069116122089,156.2257233968703" stroke="#4dd2ff" stroke-dasharray="none" stroke-linecap="round" stroke-linejoin="round" stroke-width="0.5"><title>2025-10-27 10.0km</title><desc>1761565093000</desc></polyline><polyline fill="none" opacity="1" points="96.47937362641096,134.7735545752803 104.66554551874287,135.04305581131484 107.35610551130958,136.45793538575526 110.4473872045055,139.826683322608 112.96620932547376,146.15988005150575 111.42056847875938,153.77310566307278 106.15394040825777,159.43243423564127 105.98220253642648,164.68747895077104 94.76199490809813,165.1590833569644 94.01779746310785,159.63455216091825 90.12507236748934,156.19853849895298 87.32002046052366,150.94342206860892 87.26277450309135,143.93653109826846 89.6671047094278,139.42243453371339 95.79242213908583,135.1778063857928 102.26121531287208,134.70617924811086 106.84089189581573,136.39056024083402 109.18797614425421,138.3444364783354 112.96620932547376,145.1492678760551 112.85171741107479,149.66332288016565 111.53506039339118,153.84047892520903 106.15394040825777,159.43243423564127 105.98220253642648,164.75485103065148 95.16271660872735,165.29382740717847 93.90330554870889,159.70192478818353 89.95333449565805,156.19853849895298 87.03379067406058,149.46120171493385 87.49175833235495,143.66703371558106 89.83884258125909,139.15293519495754 96.42212766921148,134.9083052079077 104.55105360411108,135.24518166203052 107.64233529777266,136.6600607764558 109.70318975998089,138.8834357392625 112.79447145364247,145.5535129432683 112.73722549644299,150.1349386770744 111.3633225215599,154.10997190029593 106.09669445082545,159.63455216091825 105.98220253642648,164.75485103065148 94.99097873689607,165.2264553856803 94.18953533493914,160.0387878145557 88.63667747797444,154.17734512581956 86.9765447168611,149.52857544412836 87.83523407601751,141.98267242719885 89.78159662382677,139.22031004045857 96.59386554104276,134.9083052079077 102.60469105653465,134.84092989517376 108.6155165717937,137.73806175100617 112.62273358181119,144.34077695361339 112.79447145364247,150.00019134301692 110.67637103423476,155.1205695171957 106.26843232265674,159.2976889157435 105.92495657899417,164.82222310313955 95.04822469432838,165.42857142857974 94.18953533493914,159.9714152237284 89.83884258125909,155.8616733927629 87.43451237492263,151.07816919818288 87.32002046052366,144.67764829896623 89.72435066662729,139.42243453371339 94.8764868224971,135.58205793355592 100.77282042312436,134.57142857142026 107.41335146850906,136.6600607764558 111.76404422242194,141.84792332723737 113.02345528290607,146.2946282174671 112.50824166717939,151.3476633700775 110.73361699143425,155.1205695171957 106.21118636569008,159.2976889157435 106.0394484938588,164.88959516852628 94.76199490809813,165.02433927735547 94.13228937750682,159.70192478818353" stroke="#4dd2ff" stroke-dasharray="none" stroke-linecap="round" stroke-linejoin="round" stroke-width="0.5"><title>2025-10-19 10.0km</title><desc>1760866141000</desc></polyline><polyline fill="none" opacity="1" points="147.13880305364728,155.07580125750974 142.6262254624162,159.17659451032523 141.99789187358692,165.02521997923031 131.201978395693,165.09244523890084 130.51652357168496,159.84885311458493 126.68940080422908,156.4203266207478 124.29030892020091,152.386741793307 123.60485409619287,144.79008586186683 126.97500698082149,138.6723573008785 133.82955522090197,134.70588568079984 140.3984972841572,135.17648533394095 146.05349958245642,138.94126971339574 149.13804629049264,144.58840346400393 149.30940999626182,149.7648975988268 147.36728799482808,154.80689583549974 142.56910422700457,159.4454980394221 142.28349805041216,165.02521997923031 131.1448571602814,165.09244523890084 130.51652357168496,160.0505305537954 126.34667339245789,155.94974307488883 123.60485409619287,150.63884689408587 123.8904602730181,142.77325893344823 126.9178857456427,138.40344477188773 129.14561392366886,136.78996715001995 135.7716772223357,134.57142857142026 142.68334669759497,136.25214034412056 146.1106208176352,139.00849779846612 148.73819764284417,143.04216956929304 149.13804629049264,150.7060737120919 147.36728799482808,154.94134856091114 142.74046793300658,159.51272390340455 142.6262254624162,164.82354415621376 132.45864557288587,165.42857142857974 131.1448571602814,165.09244523890084 130.34515986568294,159.647175609658 126.11818845104426,155.47915917210048 123.49061162560247,149.83212451147847 123.31924791960046,145.2606778688496 126.34667339245789,139.2101820097305 128.80288651166484,136.9916520823026 133.25834286748432,135.0420283265994 139.9986486369744,135.0420283265994 144.9681961107999,137.86561936401995 149.25228876108304,144.7228584032273 148.73819764284417,151.6472483984544 147.13880305364728,155.07580125750974 142.51198299159296,159.10936860978836 142.34061928535812,164.82354415621376 131.4875845722854,165.15967049147002 130.28803863027133,159.57994976028567 125.1471274504438,154.33631106617395 123.43349039042369,149.9665783145465 123.60485409619287,144.52117598359473 126.00394598022103,139.6807782475371 128.74576527648605,136.9916520823026 132.7442517497111,135.10925683379173 139.88440616615117,135.10925683379173 145.93925711140037,138.73958541511092 149.53789493744262,146.40354268613737 147.5386517008301,154.60521669226 142.6262254624162,158.90769086492946 142.45486175641418,164.82354415621376 131.08773592486978,165.15967049147002 130.40228110086173,159.84885311458493 125.31849115644582,154.53799029660877 123.43349039042369,149.29430900671287" stroke="#4dd2ff" stroke-dasharray="none" stroke-linecap="round" stroke-linejoin="round" stroke-width="0.5"><title>2025-10-16 10.0km</title><desc>1760611285000</desc></polyline><polyline fill="none" opacity="1" points="182.27044615126215,138.24174093152396 185.85096642258577,145.71823673829203 184.81146053713746,153.1946434651618 179.09417816856876,159.4475697784219 178.86317686061375,165.0207776723546 167.71736375801265,165.42857142857974 166.90885918051936,159.92333336017327 162.05783171625808,155.16568131028907 159.97881994582713,150.20409146382008 160.15207092673518,143.9510730416514 163.67484087101184,137.96986667794408 171.06688272138126,134.57142857142026 178.6899258797057,135.3870553956367 184.52270890236832,141.4362545850454 185.79321609530598,146.05807534017367 184.52270890236832,153.67041178769432 178.97867751470767,159.4475697784219 178.97867751470767,164.8848463614704 167.7751140850596,165.36060582101345 167.02435983438045,160.0592657456291 161.53807877376676,154.35008019424276 159.97881994582713,149.7962878140388 160.2098212535493,143.7471692179097 163.50158989033662,138.30970947619062 170.20062781707384,134.7073664489435 178.1124226101674,135.3870553956367 183.07895072875544,139.12533144134795 185.85096642258577,145.85417220112868 184.5804592296481,153.67041178769432 179.09417816856876,159.51553602633066 178.80542653379962,165.08874331699917 167.7751140850596,165.36060582101345 166.90885918051936,159.78740094497334 162.00008138921112,154.82584764098283 159.86331929196604,149.66035320499213 160.09432059968822,144.15497679909458 162.1155820430722,139.73704721941613 168.87237029708922,135.11517990531866 175.91791018587537,134.77533537667478 179.2674291494768,135.9308060228941 182.5014474587515,138.71752059133723 185.85096642258577,145.99010763451224 185.73546576872468,150.06815694324905 184.34945792146027,154.01024608302396 179.0364278415218,159.71943472628482 178.97867751470767,165.08874331699917 167.8328644116409,165.42857142857974 167.02435983438045,159.99129955645185 162.5775846587494,155.77738145180047 159.92106961854734,150.13612420711434 160.2098212535493,143.4752973499708 163.15508792852052,138.71752059133723 169.9118761823047,134.77533537667478 177.5926696676761,135.1831487888703 182.79019909375347,139.0573629848659 185.73546576872468,145.78620447346475 184.69595988327637,153.1266765324981 182.15494549716823,156.93281342519913 179.0364278415218,159.58350226696348 179.0364278415218,164.8848463614704" stroke="#4dd2ff" stroke-dasharray="none" stroke-linecap="round" stroke-linejoin="round" stroke-width="0.5"><title>2025-10-08 10.1km</title><desc>1759919017000</desc></polyline><polyline fill="none" opacity="1" points="23.47109913569875,169.46484750468517 29.437705897260457,168.99218838568777 36.26488094124943,172.23327229073038 39.82189651043154,178.1076939170016 40.16612382349558,183.37436969042756 38.44498725794256,188.64100096846232 33.396319998661056,193.77254762209486 32.87997902859934,199.30916900699958 22.094189883442596,199.64676628122106 21.34836403816007,194.11014789470937 15.209643620532006,187.29058693378465 14.291704118717462,180.2683867966989 17.389749936992303,173.4486744105816 23.29898547916673,169.53237020672532 29.322963459417224,168.99218838568777 36.09276728471741,172.03070504026255 39.649782853899524,177.56751952692866 40.22349504265003,183.23932727775536 38.10075994487852,189.24868632969446 33.396319998661056,193.90758775314316 32.99472146644257,199.37668847641908 21.97944744536653,199.5792468409636 20.946765506174415,193.63750746200094 17.44712115568109,190.66661653557094 14.922787526156753,186.8179413304897 14.291704118717462,179.99830059608212 17.217636280693114,173.71876344876364 20.430424536345527,170.74777759274002 23.29898547916673,169.53237020672532 30.240902961231768,169.05971113877604 36.838593129767105,172.97601831227075 39.24818432191387,176.28460347442888 40.16612382349558,183.4418908857624 38.38761603902094,188.70852159353672 33.45369121711701,193.63750746200094 32.99472146644257,199.30916900699958 22.208932321053,199.71428571426077 21.290992819238454,193.97510780760786 18.192947000963613,191.67942185106222 15.61124215228483,188.0333150147926 14.234332899795845,180.403429852915 16.75866652955301,174.2589411739027 22.3236747586634,169.86998360714642 29.437705897260457,168.99218838568777 35.519055096199736,171.5580478667398 39.19081310299225,176.2170815038844 40.108752605039626,183.4418908857624 38.27287360117771,188.97860402002698 33.568433655193076,193.43494716653368 33.05209268536419,199.30916900699958 22.094189883442596,199.5792468409636 21.405735257081687,194.31270797044272 16.242325559724122,189.04612460831413 14.062219243263826,181.21368757646997 15.209643620532006,176.89230088109616 17.676606031367555,172.90849598305067 22.03681866452098,169.9375062654144 25.65120545262471,168.85714285710128 30.298274179687724,169.26227935461793 35.691168752731755,171.82813772413647 39.07607066538185,176.08203754067654 40.05138138588518,184.18462355236989" stroke="#4dd2ff" stroke-dasharray="none" stroke-linecap="round" stroke-linejoin="round" stroke-width="0.5"><title>2025-10-01 10.0km</title><desc>1759271073000</desc></polyline><polyline fill="none" opacity="1" points="63.34144050208852,168.85714285710128 69.60861539491452,170.07521686382825 72.3684722285252,171.96999393112492 74.95583800994791,175.42118025163654 76.68074853089638,180.49641961825546 75.70329923555255,186.92499696242157 73.57590959314257,190.37610067048809 69.8961004819721,193.4211763467756 69.78110644686967,199.0376103289891 65.81381224887446,199.5789506958099 58.281702973879874,199.51128317572875 57.59173876559362,194.09785781480605 53.279462463222444,190.03775801265147 50.807090716436505,185.57161775551504 51.09457580349408,177.78963042015675 53.22196544567123,173.86476525175385 56.211810348788276,171.09027672169032 61.559032963821664,168.99248453072505 69.60861539491452,170.07521686382825 74.95583800994791,175.21816981921438 76.56575449625961,179.75205375783844 76.45076046162285,184.6919196989038 74.03588573192246,190.10542655875906 69.8961004819721,193.75951717217686 69.37862732564099,199.37594811309827 58.3966970089823,199.51128317572875 57.706732800463215,194.09785781480605 51.20956983813085,186.99266584590077 50.46210861229338,182.93251986941323 50.979581768624485,177.85730029299157 54.54439684539102,172.51135775184957 61.386541911633685,169.0601553565939 68.80365715175867,169.87220469425665 72.88594538462348,172.7143690637895 76.22077239188366,178.66933819599217 76.5082574787084,184.42124312452506 74.09338274947368,189.83475232997444 69.83860346442088,193.69184902188135 69.83860346442088,198.96994275023462 69.1486392559018,199.4436156480224 58.3966970089823,199.51128317572875 57.649235782912,194.09785781480605 53.8544326366391,190.64677466498688 51.382060890085995,186.5866524357698 50.63459966448136,179.41370534634916 54.14191772369668,172.78203948651208 61.27154787699692,169.0601553565939 70.06859153392725,170.27822896733414 74.66835292289034,174.94748914032243 76.56575449625961,180.1580716096796 76.10577835724689,185.97763182548806 73.80589766264893,190.30843215365894 70.01109451660886,193.5565126988222 69.72360942978412,199.1729454646702 65.87130926619284,199.71428571426077 58.3966970089823,199.71428571426077 57.59173876559362,193.96252157975687 53.39445649785921,190.10542655875906 50.9220847513061,185.57161775551504 51.09457580349408,177.92497015860863 55.92432526219636,171.09027672169032 60.86906875553541,169.12782617512858 65.75631523155607,168.85714285710128 68.80365715175867,169.73686321126297 73.23092748876661,172.9850507103838 76.10577835724689,178.26331937644864 76.56575449625961,184.01522804331034 74.78334695799276,188.95506027597003 69.8961004819721,193.62418086396065 69.32113030808978,199.4436156480224" stroke="#4dd2ff" stroke-dasharray="none" stroke-linecap="round" stroke-linejoin="round" stroke-width="0.5"><title>2025-09-27 10.0km</title><desc>1758965825000</desc></polyline><polyline fill="none" opacity="1" points="96.10949277295731,169.52075367968064 102.76282397238538,169.52075367968064 110.09276512428187,172.4406327587203 112.79920493415557,179.40846978599438 112.96835742238909,183.32369581679814 111.50236919196323,188.16792390256887 106.03310540947132,194.2729239243199 106.03310540947132,199.51521235407563 94.75627286802046,199.71428571426077 94.30519956653006,194.00749040569644 88.66678329580463,187.76976961421315 87.08802674012259,180.53658832702786 88.04655750608072,177.21858668833738 91.20407061767764,172.90515769273043 96.22226109844632,169.7198367860401 103.4394339248538,169.58711472223513 107.66824612789787,171.11341672064736 109.86722847330384,173.037879037729 112.85558909690008,180.47022847045446 112.63005244615488,185.1817604326061 109.52892349706963,191.35314889496658 106.1458737347275,193.80841519136447 105.75118459598161,199.38249674468534 94.75627286802046,199.64792793459492 94.07966291555203,193.60933991213096 88.77955162106082,188.7651548499707 87.20079506537877,184.31908827618463 87.03164257737808,180.73566785396542 88.32847831957042,176.4886239162297 93.91051042731851,170.58252950024325 101.46598823019303,169.321670508245 109.19061852083541,171.77702509914525 112.17897914443165,177.21858668833738 112.74282077141106,183.72185299464036 110.88214340200648,189.09694956929889 106.20225789747201,193.80841519136447 105.8639529212378,199.64792793459492 94.75627286802046,199.58157014794415 94.13604707829654,194.14020717935637 89.85085071250796,190.29140907083638 87.20079506537877,184.18636937486008 88.21570999431424,176.4886239162297 93.00836382433772,171.44522099971073 97.63186516612768,169.38803157251095 107.89378277864307,170.8479731681291 110.26191761228256,172.97151836869307 112.46089995792136,179.07666982000228 112.79920493415557,183.72185299464036 110.31830177502707,190.0259738272871 106.08948957221583,194.07384879601886 105.75118459598161,199.51521235407563 94.69988870550878,199.44885455287294 93.91051042731851,193.80841519136447 90.18915568920784,190.75592047028476 88.1593258313369,187.50433327822248 87.20079506537877,179.87298943678616 89.6816982247401,174.56417243886972 94.24881540355273,169.91891982790548 99.77446334902197,168.85714285710128 109.47253933455795,172.10882901860168 112.29174746968783,177.74946815823205 112.79920493415557,183.92093148641288 110.93852756475098,189.09694956929889 106.1458737347275,193.94113200798165 105.80756875849329,199.58157014794415" stroke="#4dd2ff" stroke-dasharray="none" stroke-linecap="round" stroke-linejoin="round" stroke-width="0.5"><title>2020-04-24 10.0km</title><desc>1587724293000</desc></polyline><polyline fill="none" opacity="1" points="148.77506056800485,184.88443001144333 148.66204922553152,180.09623867092887 146.9668790921569,175.50752026197733 142.05088570481166,170.51974396203877 139.1690964777954,169.5886878981255 134.81815980165266,169.7216959935613 126.96387151628733,173.51241460465826 123.2910028938204,182.0913229341386 124.64713900047354,187.81052855937742 130.74975148122758,194.39419930713484 131.42781953467056,199.71428571426077 142.44642540276982,199.24877999391174 142.44642540276982,194.1281937767053 147.53193580335937,188.4755490119569 149.56613996322267,181.89181479957188 147.02338476316072,174.17745054420084 147.64494714536704,173.37940733024152 145.15869761630893,173.77842906682054 141.20330063789152,170.98527146456763 134.87466547288932,169.38917570054764 127.98097359621897,172.51485934463562 124.02557661826722,178.76617889368208 124.59063332946971,187.81052855937742 130.58023446775042,194.26119655632647 131.0322798367124,199.58128411584767 141.994380033575,199.3817816642695 142.38991973153315,193.79568670148728 147.07989043416455,189.34007452317746 148.88807191024534,183.55438060680171 148.1534981855657,178.23415417596698 144.8761692608241,172.91388164297678 137.98247738438658,169.5886878981255 133.12298966827802,170.05421610653866 126.9073658452835,172.98038533434737 123.68654259154573,179.16519712947775 124.19509363151155,186.67999213724397 126.34230913431384,190.40410425094888 130.35421178326942,194.1281937767053 130.9192684944719,199.5147833059309 141.994380033575,199.3817816642695 142.05088570481166,194.1281937767053 146.9668790921569,189.20707067771582 148.60554355429485,184.01989822625183 147.7014528166037,177.63562581758015 144.36761822085828,172.7808742391062 141.542334664613,170.71925579203526 136.90886963321827,169.7216959935613 133.85756339272484,169.78820003051078 128.26350195216946,171.71681396942586 124.42111631575972,176.97059362393338 123.2910028938204,180.76126747886883 124.42111631575972,187.74402647453826 127.30290554300882,191.60113549034577 130.41071745450608,193.92868955340236 131.08878550794907,199.6477849187795 142.05088570481166,199.4482824888546 142.05088570481166,194.1281937767053 147.3624187898822,188.54205101763364 148.77506056800485,181.16028441808885 147.07989043416455,175.77353386004688 141.59884033584967,170.25372808787506 137.02188097522594,168.8571428571595 128.37651329440996,171.84982160420623" stroke="#4dd2ff" stroke-dasharray="none" stroke-linecap="round" stroke-linejoin="round" stroke-width="0.5"><title>2020-04-16 10.0km</title><desc>1587033949000</desc></polyline><polyline fill="none" opacity="1" points="185.7088560925331,184.21853195119184 185.30813452182338,178.49174265033798 182.04511601640843,172.6975256970618 179.98426222382113,170.81102480908157 175.29009525151923,169.0592688609031 170.5959282789845,169.39614538790192 163.8409075140953,172.225901011494 160.69238088629209,177.54850170831196 159.8909377446398,181.32145689468598 161.2648402734194,188.19356646586675 167.21841789665632,194.0550116939703 168.19159885426052,199.64691370743094 178.89658938883804,199.2426815124345 179.0683272050228,193.8528938125237 183.81974011589773,189.13679126591887 185.82334796967916,183.7469160007313 185.07915076706558,178.08749670739053 180.7857053654734,171.8890260173357 174.43140617129393,169.19401949376334 165.5010397362057,171.28265056747478 161.2648402734194,176.53788482566597 160.00542962225154,180.84983874775935 160.57788900914602,186.23973911604844 163.49743188195862,190.95586362684844 167.33290977403522,194.25712950975867 168.01986103807576,199.71428571426077 179.01108126621693,199.2426815124345 179.0683272050228,193.7855211708229 184.2777076254133,188.597805841011 185.82334796967916,183.00580449966947 185.30813452182338,178.76123979955446 182.7320672806818,173.91027324687457 178.38137594074942,170.3393986929441 175.34734119009227,169.0592688609031 170.02346889232285,169.5982712165569 163.8409075140953,172.09115103562362 160.52064307034016,178.35699403169565 159.94818368344568,182.53418763005175 161.15034839580767,188.05881994916126 167.27566383546218,194.0550116939703 167.73363134474494,199.51216967159417 179.18281908216886,198.90582114935387 179.125573143363,193.7181485214387 184.04872387065552,189.00204495346406 185.65161015396006,183.67954226449365 185.02190482825972,177.6832505016937 180.27049191715196,171.8890260173357 174.94661961938255,168.8571428571595 169.9089770151768,169.73302173259435 163.8409075140953,172.49540087551577 160.74962682509795,177.81799926614622 160.00542962225154,183.94903716619592 162.4670049857814,189.67577622376848 167.16117195761763,194.18975691183005 167.84812322235666,199.71428571426077 179.18281908216886,199.1079373890534 179.18281908216886,193.8528938125237 183.81974011589773,189.27153754932806 185.76610203133896,183.34267347311834 184.90741295088083,177.81799926614622 181.47265662974678,172.6975256970618 175.29009525151923,169.26139479904668 169.79448513756506,169.46352067147382 162.98221843387,172.96702535700751 160.00542962225154,181.38883088633884 161.55106996675022,188.26093971327646" stroke="#4dd2ff" stroke-dasharray="none" stroke-linecap="round" stroke-linejoin="round" stroke-width="0.5"><title>2020-04-14 10.0km</title><desc>1586861907000</desc></polyline><polyline fill="none" opacity="1" points="39.0887984810397,211.95934123871848 35.22977705090307,206.21528257790487 28.022487027570605,203.5436091547599 23.198710239958018,204.2783205001615 17.693929670844227,206.81640750257066 14.742913283174857,214.02986089180922 15.31041643442586,220.10779777914286 17.353427779860795,224.18198567116633 21.609701415756717,228.1893573384732 22.404205827740952,234.0 33.24351602117531,233.26532406645129 33.47051728144288,227.8554106944357 37.89704186306335,223.44729804078816 40.11030415375717,217.36939406918827 39.542801002273336,212.69404255662812 36.19453240837902,206.88319912488805 29.724996481789276,203.74398506304715 23.936464336700737,204.0779447654495 17.580429040128365,207.01678234740393 14.175410131923854,213.49553390493384 14.45916170743294,218.57162158569554 15.764418955892324,221.84434017218882 21.666451730998233,228.1893573384732 21.893452991731465,233.5324790526647 33.186765705933794,233.26532406645129 33.300266335951164,228.2561466456973 38.46454501431435,222.71260953485034 39.82655257801525,217.70334639237262 39.429300372023135,213.09478836104972 35.17302673589438,205.81453230232 29.895247427280992,203.677193100797 23.482461815699935,204.01115283952095 17.977681246353313,206.54924094176386 14.288910761941224,215.2988856297452 16.104920846875757,222.24508002988296 21.609701415756717,228.38972523837583 21.95020330650732,233.5324790526647 32.95976444520056,233.3321128237294 33.186765705933794,228.05577870248817 37.6132902870886,223.58087767485995 39.65630163252354,218.63841193448752 39.315799741772935,212.49366955668665 35.627029257128015,206.74961587315192 29.55474553629756,203.5436091547599 22.347455512732267,204.61227991315536 17.52367872535251,206.88319912488805 14.232160446699709,215.09851347637596 15.594168010400608,221.77755017048912 21.496200785506517,228.32293594558723 21.95020330650732,233.3321128237294 33.35701665142551,233.1985353018972 33.300266335951164,227.8554106944357 38.067292808322236,222.91297921416117 39.82655257801525,217.70334639237262 39.202299111522734,212.2265054556774 34.94602547539398,206.21528257790487 26.319977572886273,203.14285714289872 19.73694101604633,205.21340640075505 15.537417695159093,210.89068321377272" stroke="#4dd2ff" stroke-dasharray="none" stroke-linecap="round" stroke-linejoin="round" stroke-width="0.5"><title>2020-04-13 10.0km</title><desc>1586775592000</desc></polyline><polyline fill="none" opacity="1" points="75.0855929045938,219.3225651269895 75.49163396446966,211.06209100602427 74.56354011362419,208.19479368516477 77.69585685967468,203.8255536367069 76.47773368074559,205.46402220439631 72.59134068130516,207.2390250126482 65.51462507084943,203.48420548223658 58.84395052003674,203.96209284674842 53.97145780478604,206.41979356849333 50.25908240233548,211.74477892153664 50.08506480557844,219.8687083607074 52.23128183512017,223.89650009549223 56.87175108771771,228.40213492530165 57.39380387845449,233.8634672971093 68.0088772943709,233.38560260366648 68.7629535482265,227.9242660916061 73.40342280059122,223.35036035184748 75.3756222333759,218.63988541916478 75.0855929045938,212.76880940853152 72.35931721888483,207.5121019242797 65.74664853373542,203.48420548223658 59.19198571401648,203.6890143970959 53.04336395440623,207.2390250126482 50.60711759631522,211.26689745829208 49.67902374593541,214.95340221992228 50.66512346197851,221.64367060229415 52.17327596922405,224.4426393659087 56.63972762506455,228.3338679713197 57.33579801302403,233.8634672971093 68.0088772943709,233.45386901055463 68.87896527932025,227.78773207234917 72.70735241286457,224.3743719831109 74.79556357651018,220.7561901063891 75.43362809857354,215.22647578903707 73.92547559156083,209.49190599360736 70.50312951765954,205.66883047582814 64.58653122046962,203.48420548223658 58.37990359473042,204.0303624405642 53.62342261057347,206.76114013290498 51.3031879842747,209.56017498858273 49.50500614894554,215.22647578903707 49.67902374593541,218.50334938889137 51.70922904415056,223.96476753003662 56.69773349072784,228.53866881120484 57.21978628169745,233.79520093440078 68.18289489136077,233.5221354100504 68.93697114498354,227.9242660916061 73.5194345319178,223.35036035184748 75.2596105018165,219.52736889512744 75.3756222333759,213.58803260012064 73.92547559156083,209.42363699135603 68.35691248835064,204.64478845300619 61.8022496686317,203.41593582910718 54.89955165516585,205.5322916356963 50.66512346197851,210.65247790160356 49.62101788027212,213.58803260012064 49.79503547726199,219.2542971894145 52.40529943187721,224.71570882381639 56.46571002807468,228.40213492530165 57.33579801302403,234.0 68.53093008534051,233.38560260366648 68.58893595123664,228.19733404094586 73.92547559156083,222.53114984877175 75.3756222333759,217.274523785396 74.0414873228874,210.24286453117384 71.60524096502922,206.69287083507515 68.29890662245452,204.16690160625149 61.57022620597854,203.1428571428405 54.66752819274552,205.66883047582814 50.66512346197851,210.7207467709086 49.44700028304942,215.84089088672772 51.36119385017082,223.07729030231712" stroke="#4dd2ff" stroke-dasharray="none" stroke-linecap="round" stroke-linejoin="round" stroke-width="0.5"><title>2020-04-12 10.0km</title><desc>1586649823000</desc></polyline><polyline fill="none" opacity="1" points="110.3569325141143,207.1503655408742 112.91069669579156,214.02986089180922 112.79719606577419,219.3731052944786 110.64068408985622,224.04840616701404 106.1574091934599,228.1893573384732 105.76015698723495,233.7996339229867 94.86409647879191,233.73284521629103 94.23984301229939,228.12256802420598 89.69981780066155,224.18198567116633 87.65680645545945,220.9092794911121 86.97580267349258,215.0317227439955 90.21057063690387,208.08544708631234 94.23984301229939,204.67907177394954 100.9363801998552,203.14285714289872 109.22192621137947,206.0149074725923 112.39994385954924,212.62725156376837 113.08094764128327,217.50297502003377 111.09468661108986,223.11334882833762 106.04390856274404,228.45651452359743 106.10065887821838,233.7996339229867 94.75059584877454,233.73284521629103 94.23984301229939,228.12256802420598 88.962063703686,223.71445728029357 87.37305487971753,220.5753289043787 86.97580267349258,215.2988856297452 87.82705740071833,211.29143019014737 93.50208891555667,204.81265547429211 97.7016122364439,203.20964916283265 105.30615446623415,204.4786961696227 110.18668156885542,207.5511149482918 112.85394638055004,213.6291156950174 112.96744701103307,217.70334639237262 110.92443566559814,223.64766748133115 106.2709098237101,228.32293594558723 105.98715824796818,233.7996339229867 94.75059584877454,233.7996339229867 94.12634238204919,228.12256802420598 89.58631717041135,224.24877541244496 87.60005614021793,220.5753289043787 87.2595542492345,213.49553390493384 90.21057063690387,208.08544708631234 93.67233986104839,204.87944731337484 96.2261040424928,203.87756896566134 102.63888965407386,203.5436091547599 109.1084255806636,206.0149074725923 112.74044575029984,212.9612064550165 112.91069669579156,217.97050812043017 110.5839337746147,224.24877541244496 106.2709098237101,228.05577870248817 105.98715824796818,233.59926778101362 94.80734616401605,234.0 94.06959206680767,227.98898937366903 89.30256559466943,223.8480368569144 87.60005614021793,220.64211903640535 86.9190523584839,213.69590657937806 90.15382032212801,208.08544708631234 93.55883923056535,204.87944731337484 96.45310530299321,203.677193100797 100.76612925436348,203.27644117578166 107.63291738717817,204.7458636277588 110.2434318838641,207.08357394795166 112.91069669579156,214.8313505037804 112.79719606577419,219.50668581138598 110.52718345937319,224.24877541244496 106.44116076896898,228.2561466456973 106.1574091934599,233.86642262263922 94.80734616401605,233.86642262263922" stroke="#4dd2ff" stroke-dasharray="none" stroke-linecap="round" stroke-linejoin="round" stroke-width="0.5"><title>2020-04-08 10.0km</title><desc>1586343893000</desc></polyline><polyline fill="none" opacity="1" points="139.32283687451854,203.81077701802133 145.28161867405288,206.5492409419967 148.1191338163335,211.89255016675452 149.31089017656632,217.9705081206048 146.70037624519318,224.64951370778726 142.50085383397527,228.32293594570365 142.27385262260213,233.93321131484117 131.264293869026,233.73284521629103 130.81029144627973,228.32293594570365 125.64601388666779,223.44729804072995 123.54625268094242,218.43804086645832 123.88675449811853,212.89441549149342 126.38376782368869,207.95186409528833 129.95903690345585,204.8126554741757 132.3992999261245,203.94436090620002 139.83358959993348,203.81077701802133 145.1113677653484,206.41565761802485 149.14063926786184,213.82948832627153 148.5731362393126,220.9760695871082 146.13287321687676,225.25062066235114 142.50085383397527,228.38972523843404 142.50085383397527,233.7996339231613 131.37779447506182,233.93321131484117 130.69679084070958,228.32293594570365 125.1352611607872,222.71260953502497 123.31925146956928,216.03358296875376 124.79475934384391,210.5567272013286 129.84553629765287,204.61227991321357 136.3150708230678,203.14285714289872 143.97636170801707,205.48057354061166 146.47337503358722,208.01865559455473 149.36764047923498,214.89814125793055 148.4596356335096,220.9760695871082 145.73562109679915,225.51777912059333 142.72785504558124,228.25614664587192 142.38735322840512,233.7996339231613 131.15079326345585,233.86642262263922 130.5832902349066,228.18935733864782 125.36226237239316,223.64766748144757 123.37600177247077,217.9037176995189 124.22725631529465,211.9593412389513 130.01578720635734,204.54548804514343 136.3150708230678,203.3432331813965 144.14661261695437,205.14661459776107 147.32462957664393,209.55485807801597 149.48114108503796,215.43246702937176 149.53789138770662,218.50483122991864 148.06238351389766,222.5790297127096 142.5576041371096,228.18935733864782 142.5576041371096,233.7996339231613 131.54804538353346,234.0 130.5265399320051,228.59009307291126 125.36226237239316,223.51408786181128 123.43275207537226,218.83878293790622 123.60300298407674,213.2951611657627 126.21351691521704,208.61977876117453 130.5832902349066,204.61227991321357 135.40706597757526,203.47681717091473 139.26608657138422,203.74398506310536 145.1681180682499,206.21528257784666 148.34613502793945,211.82575908710714 149.08388896519318,219.37310529465321 147.55163078801706,223.51408786181128 142.67110474267974,228.12256802426418 142.50085383397527,233.5324790526065 131.88854720070958,234.0 131.15079326345585,233.59926778124645" stroke="#4dd2ff" stroke-dasharray="none" stroke-linecap="round" stroke-linejoin="round" stroke-width="0.5"><title>2020-04-07 10.0km</title><desc>1586257895000</desc></polyline><polyline fill="none" opacity="1" points="175.86490890802816,203.74398506310536 181.36968828481622,206.21528257784666 185.51246039336547,214.6309781986638 184.83145675901324,221.37681000912562 182.2776931305416,225.25062066235114 179.09967617108487,228.0557787027792 179.15642647375353,233.59926778124645 167.97661681170575,233.93321131484117 166.95511136041023,228.32293594570365 161.7340834978968,223.04655896435725 160.145075018052,218.83878293790622 160.54232713812962,212.69404255662812 163.1528410690371,207.8182810752769 169.3953743830789,203.81077701802133 174.84340345696546,203.47681717091473 181.6534397995565,206.01490747270873 185.1152082735207,213.96307004382834 184.4342046394013,221.77755017078016 181.8804410106968,225.9185165911913 179.15642647375353,228.18935733864782 178.8159246565774,233.46569031686522 168.1468677201774,234.0 167.29561317758635,228.59009307291126 162.69883864629082,224.7163033983088 160.42882653232664,219.84063697705278 160.54232713812962,212.69404255662812 162.69883864629082,208.48619588604197 166.95511136041023,204.54548804514343 171.2681343771983,203.20964916306548 175.4676567884162,203.3432331813965 182.22094282787293,207.21715712727746 184.94495736481622,212.1597144123516 185.1152082735207,220.04100758960703 182.5046943423804,224.84988275775686 178.92942526261322,228.25614664587192 178.8159246565774,233.5324790526065 168.0901174172759,233.86642262263922 167.23886287468486,228.32293594570365 162.0745853150729,223.7812470723875 160.20182532072067,219.1727344651008 160.31532592652366,213.69590657949448 163.09609076636843,208.01865559455473 167.52261438895948,204.14473668439314 174.61640224559233,203.14285714289872 181.42643858795054,206.5492409419967 184.26395373046398,210.15597974741831 185.2854591817595,213.5623248036718 185.5692106964998,218.23766973312013 184.6612058505416,221.57718012249097 182.22094282787293,225.38419990602415 178.92942526261322,228.25614664587192 178.8726749594789,233.66605650237761 168.2036180230789,233.86642262263922 167.29561317758635,228.79046084260335 162.24483622354455,223.7812470723875 160.145075018052,218.77199261070928 160.4855768349953,212.82762452051975 162.81233925186098,208.21903004858177 166.16060712048784,205.01303097017808 169.28187377750874,203.81077701802133 176.43241193681024,203.54360915487632 180.23468222795054,204.74586362781702 183.29919858183712,208.6865701880888 185.34220948489383,213.2951611657627 185.22870887909085,220.77569927851437 182.10744222230278,225.7181478884886 179.09967617108487,228.52330380218336 178.5889234454371,233.66605650237761 168.03336711460724,234.0" stroke="#4dd2ff" stroke-dasharray="none" stroke-linecap="round" stroke-linejoin="round" stroke-width="0.5"><title>2020-04-02 10.0km</title><desc>1585825459000</desc></polyline><polyline fill="none" opacity="1" points="24.695409526117146,237.89210226444993 30.715568031650037,238.28941412974382 34.14762101136148,239.54756666638423 36.62320020981133,241.66655455884757 39.38009522622451,248.0234741672757 39.71767420810647,253.5857246008818 37.860989809036255,258.3533275509835 33.13488406664692,262.5911656274693 32.96609457582235,268.28571428573923 21.938514509703964,268.15328352397773 21.432146037230268,262.723597594013 17.324935094453394,259.479006155103 15.186934877652675,256.1681808140711 14.28672425984405,248.68564949184656 17.15614560362883,242.527391292213 24.357830544468015,237.95832092664205 30.040410068584606,238.15697687020293 34.372673665871844,239.61378514906392 36.96077919122763,242.063863971096 39.38009522622451,247.89103901648195 39.83020053524524,252.79112049448304 37.467147663701326,258.6844097083085 33.35993672092445,262.52494963339996 33.13488406664692,268.21949890838005 21.882251346250996,267.9546373276389 21.432146037230268,262.92224548989907 15.974619168089703,257.49251310213003 14.28672425984405,250.407301978732 15.749566513579339,244.71258678642334 21.263356546638533,239.2164741444867 26.777146579464898,237.7596649187617 34.710252647520974,239.8786590087111 38.87372675398365,245.7720726992702 39.942726862384006,252.19516673701582 38.64867409947328,257.028997127607 33.13488406664692,262.723597594013 33.07862090296112,268.15328352397773 22.05104083707556,268.15328352397773 21.094567055813968,262.5911656274693 17.324935094453394,259.3465734857018 14.905619059689343,255.77088056819048 14.28672425984405,249.41404152027098 17.381198258139193,242.527391292213 23.963988399598747,237.42857142863795 29.308988941600546,238.0245395816164 36.398147555300966,241.9976457535522 39.661411044420674,247.9572565954295 39.88646369869821,252.98977161815856 37.07330551859923,259.3465734857018 33.303673557471484,262.52494963339996 32.909831412136555,268.0870681324159 22.10730400076136,268.21949890838005 21.263356546638533,262.45873363222927 17.324935094453394,259.41278982389485 15.299461204791442,256.49926415499067 14.342987423762679,249.3478240989498 16.81856662221253,243.25579065823695 21.544672364601865,238.68672573694494 25.65188330737874,237.7596649187617 31.446989158401266,238.68672573694494 34.260147338500246,239.54756666638423 36.56693704612553,242.063863971096 39.661411044420674,248.2221268400317 39.998990026069805,253.25463968218537 37.29835817310959,258.94927530532004 33.35993672092445,262.7898135664873 32.909831412136555,268.15328352397773" stroke="#4dd2ff" stroke-dasharray="none" stroke-linecap="round" stroke-linejoin="round" stroke-width="0.5"><title>2020-03-23 10.0km</title><desc>1584960411000</desc></polyline><polyline fill="none" opacity="1" points="51.2497930736281,254.71141198358964 50.630898139905185,250.80460570997093 51.2497930736281,246.4342504622764 53.556583280907944,242.5936094521894 59.970585320843384,237.42857142857974 65.42811337276362,237.56100884615444 71.22322047897615,239.41512967919698 73.36122115910985,241.40168147400254 76.17437994852662,247.36129812558647 76.39943265169859,252.12894961691927 74.26143197179772,258.28711109771393 69.70411473279819,262.32630160817644 69.08521979907528,267.8884219143656 58.50774275045842,268.28571428573923 57.607531938003376,262.6573816141463 53.78163598431274,259.28035714 51.36231942521408,254.71141198358964 50.96847719466314,247.9572565953713 53.61284645693377,242.92470014473656 59.689269442111254,237.49479014100507 66.83469276735559,237.75966491864529 72.06716811587103,240.0110958952573 75.66801136638969,245.9045083091478 76.39943265169859,252.59246930660447 74.26143197179772,258.28711109771393 69.6478515570052,262.723597594013 69.47906202962622,267.9546373276389 58.395216398872435,268.08706813229946 57.66379511379637,262.52494963328354 53.837899160105735,258.8830589167774 51.2497930736281,254.71141198358964 51.02474037045613,248.15590928966412 53.3877937537618,242.72604575072182 60.75826978194527,237.42857142857974 69.53532520541921,238.42185136082117 73.41748433490284,241.40168147400254 75.72427454218268,245.9045083091478 76.39943265169859,252.32760095532285 74.43022149894387,258.02224521385506 69.70411473279819,262.723597594013 69.53532520541921,268.02085273351986 58.395216398872435,268.21949890855467 57.607531938003376,262.32630160817644 53.3877937537618,258.48576043522917 51.4748457770329,255.10871291800868 51.08100354648195,247.29508048202842 53.66910963249393,242.5936094521894 59.745532617904246,237.89210226450814 65.93448195466772,237.89210226450814 71.67332588532008,239.81244055461138 73.473747510463,241.26924488827353 76.11811677273363,247.55995101347798 76.51195900328457,252.65868637617677 73.98011609283276,258.48576043522917 69.70411473279819,262.78981356631266 69.47906202962622,268.02085273351986 58.338953223312274,268.02085273351986 57.607531938003376,262.45873363217106 51.699898479972035,255.43979683250654 50.912214019102976,252.52625222946517 51.13726672204211,246.96399215626298 53.95042551169172,242.26251858024625" stroke="#4dd2ff" stroke-dasharray="none" stroke-linecap="round" stroke-linejoin="round" stroke-width="0.5"><title>2019-12-13 10.0km</title><desc>1576239112000</desc></polyline><polyline fill="none" opacity="1" points="110.38667091866955,237.4285714285652 110.64694771543145,237.81144738488365 111.11869940947508,257.68157144618453 111.50911460455973,261.20359554291645 111.39524350606371,267.7114990060945 110.67948231502669,267.97946636857523 102.36689212004421,267.88376378567773 99.1459667608724,268.2857142857101 97.25895998469787,268.0751688996388 96.80347559036454,264.49585898881196 96.44559499493334,248.32106863804802 90.32909027225105,247.44050504275947 90.03627887595212,247.0576499378367 88.8650332907564,246.8853648702061 88.49088539544027,245.5645071077597 88.83249869116116,244.95193204272073" stroke="#4dd2ff" stroke-dasharray="none" stroke-linecap="round" stroke-linejoin="round" stroke-width="0.5"><title>2019-11-23 10.0km</title><desc>1574497580000</desc></polyline></svg>