<?xml version="1.0" encoding="utf-8" ?>
<svg baseProfile="full" height="300mm" version="1.1" viewBox="0,0,200,300" width="200mm" xmlns="http://www.w3.org/2000/svg" xmlns:ev="http://www.w3.org/2001/xml-events" xmlns:xlink="http://www.w3.org/1999/xlink"><defs /><rect fill="#222222" height="300" width="200" x="0" y="0" /><text fill="#FFFFFF" style="font-size:12px; font-family:Arial; font-weight:bold;" x="10" y="20">Over 10km Runs</text><text fill="#FFFFFF" style="font-size:4px; font-family:Arial" x="10" y="280">Runner</text><text fill="#FFFFFF" style="font-size:9px; font-family:Arial" x="10" y="290">Floyd Li</text><text fill="#FFFFFF" style="font-size:4px; font-family:Arial" x="65" y="280">SPECIAL TRACKS</text><rect fill="yellow" height="2.6" width="2.6" x="65" y="283" /><text fill="#FFFFFF" style="font-size:3px; font-family:Arial" x="70" y="285.5">Over 20.0 km</text><rect fill="red" height="2.6" width="2.6" x="65" y="287" /><text fill="#FFFFFF" style="font-size:3px; font-family:Arial" x="70" y="289.5">Over 40.0 km</text><text fill="#FFFFFF" style="font-size:4px; font-family:Arial" x="120" y="280">STATISTICS</text><text fill="#FFFFFF" style="font-size:3px; font-family:Arial" x="120" y="285">Number: 28</text><text fill="#FFFFFF" style="font-size:3px; font-family:Arial" x="120" y="290">Weekly: 1.6</text><text fill="#FFFFFF" style="font-size:3px; font-family:Arial" x="141" y="285">Total: 406.9 km</text><text fill="#FFFFFF" style="font-size:3px; font-family:Arial" x="141" y="290">Avg: 14.5 km</text><text fill="#FFFFFF" style="font-size:3px; font-family:Arial" x="167" y="285">Min: 10.0 km</text><text fill="#FFFFFF" style="font-size:3px; font-family:Arial" x="167" y="290">Max: 52.6 km</text><polyline fill="none" opacity="1" points="42.20585599041078,43.727273477838025 44.199999999953434,50.80388253314595 43.987033164012246,51.647118193235656 43.977352853282355,52.91195900249295 40.50212130264845,57.19635174098221 39.97938452340895,59.11059845396812 23.125963549420703,59.11059845396812 16.75631909171352,59.63473135778622 16.5723931879038,59.50939546627342 16.127098894503433,57.78886039984354 15.420436211512424,56.17084809510561 12.332417089899536,52.17128830290312 11.867762175097596,50.79248741036281 11.81936062144814,49.44785424770089 12.409859575738665,47.73854997649323 14.220077681471594,45.51641287220991 14.897699432331137,44.17171222109755 16.069017030182295,37.5049337421151 36.89136540185427,37.08326002927788 41.179743053391576,36.36527116580692 41.838004182849545,37.93800228074542 42.09937257244019,39.03206221926666 42.21553630114067,43.84123230908881 43.42557514185319,47.749945430317894 44.19031968922354,50.906438582838746 43.977352853282355,51.78385847381287 43.94831192109268,53.00311811260326 40.51180161337834,57.19635174098221 39.921302659087814,59.178963763508364 23.6390200178721,59.09920423137373 16.727278159582056,59.64612552235485 16.562712877173908,59.50939546627342 16.165820137422998,57.845832210332446 15.507559008081444,56.307582492423535 14.713773528521415,55.08836117348983 13.271407230349723,53.515886634188064 12.342097400687635,52.19407824839436 11.848401553637814,50.63295556146477 11.799999999988358,49.766921300230024 11.935524350148626,48.878089245386946 12.332417089899536,47.87529534096393 14.336241410230286,45.35687301636062 14.936420675250702,44.04635789403255 16.02061547653284,37.516330305457814 36.600956080073956,37.09465663834271 41.2668658500188,36.35387447763787 41.9832088437397,38.27989723494102" stroke="#4dd2ff" stroke-dasharray="none" stroke-linecap="round" stroke-linejoin="round" stroke-width="0.5"><title>2026-05-26 19.0km</title><desc>1779792854000</desc></polyline><polyline fill="none" opacity="1" points="61.080692298011854,60.829639813673566 55.77937279024627,55.47907332943578 53.52273002662696,51.51871693292924 52.55559741379693,47.305483487740275 52.50186782411765,44.01909817061096 53.271991941845044,39.616097647260176 54.34658373403363,37.08801411188324 56.19129964383319,34.83377863209171 57.64199856319465,33.590777820922085 59.30761584104039,32.68485698020959 62.49557149107568,31.80000000000291 65.79098632035311,32.031748645051266 68.06553894700482,33.50650629246957 69.40877868712414,35.887162943181465 69.48041814006865,38.22565576141642 68.69238415907603,41.090797897282755 68.56701511668507,42.60762079805136 68.97894197027199,45.55696486517263 70.07144362560939,47.7268109308643 72.05943844106514,50.00196338497335 73.93997407739516,52.993327121890616 75.17575463827234,56.30062654663925 75.56977162871044,58.87059117543686 63.426884377608076,64.17893542980892 60.97323311888613,60.68218522502866 55.833102379809134,55.56333535723388 53.45109057391528,51.22379355634621 52.66305659292266,48.27453524527664 52.41231850814074,44.75643303169636 53.182442625868134,40.016374532773625 54.63314154522959,36.60346102209587 56.513677181559615,34.47562666919839 59.432984883431345,32.62165304343216 62.60303067031782,31.80000000000291 65.55815809872001,31.947476442423067 67.94016990449745,33.38009893150593 69.26549978158437,35.402606867282884 69.53414772963151,38.057116676834994 68.60283484309912,41.9756126908178 68.85357292788103,45.114566100543016 69.98189430963248,47.62147915549576 73.8146050350042,52.52987940753519 74.96083627990447,55.58440085852635 75.53395190241281,58.97591687183012 66.5611104380805,62.64121565692767 63.49852383043617,64.19999999999709 61.080692298011854,60.85070474585518 57.28380129917059,57.248568263690686 55.31371634686366,54.91030368904467 53.89883715391625,52.31922099131043 52.89588481455576,49.454243925152696 52.41231850814074,45.47269851130841 52.66305659292266,42.62868769966008 53.45109057391528,39.11048356392712 54.86596976686269,36.30851507319312 56.030110875028186,34.939117319416255 58.824049534625374,32.89553662131948 62.08364463748876,31.86320420326956 65.46860878262669,31.92640838607622 67.95807976776268,33.4222347275645 68.88939265429508,34.58096555015072 69.35504909756128,35.73968948243419 69.53414772963151,37.53043109810096 68.60283484309912,42.12308143246628 68.88939265429508,45.367365517580765 70.01771403604653,47.66361187242728 72.02361871476751,50.02302948728902 73.74296558217611,52.635208530307864 74.81755737424828,55.142024854023475 75.58768149197567,58.786330577291665 63.408974514342844,64.09467712622427 60.9553232556209,60.724315118888626 56.15547991741914,55.96357949178491 53.6122793428367,51.708310296497075 52.716786182601936,48.400932945354725 52.44813823455479,44.94603297364665 53.236172215431,39.72143374943698 54.43613305001054,36.94054155993217 56.209209506982006,34.79164314120135 58.680770628969185,33.00087635645468 61.47470928856637,31.98961254832102 65.1641411081655,31.86320420326956 67.49242332449649,33.00087635645468 69.10431101277936,35.107659100787714 69.53414772963151,37.63576832776016 68.58492497983389,42.20734923479904 68.88939265429508,45.304165694033145 69.69533649843652,47.15801866744005 72.36390611552633,50.402218939882005 74.17280229902826,53.47783946328855 75.1399349119747,56.27956112282118 75.56977162871044,58.74420026464213 63.46270410402212,64.13680628256407 61.331430382910185,61.10348375380272 56.119660191005096,55.90038310413365 53.77346811152529,52.045364709731075 52.64514672977384,48.063872229584376 52.44813823455479,44.440432718532975 53.182442625868134,39.88997139460116 54.07793578587007,37.57256599677203 56.012201011762954,34.939117319416255 58.913598850602284,32.87446866744722 61.72544737334829,31.92640838607622 64.8596734337043,31.821068070072215 67.5103331876453,32.958740469272016 69.05058142310008,35.02338822837919 69.51623786636628,37.1301491062477 68.60283484309912,41.51213877616101 68.81775320146699,45.24096585009829" stroke="#ffb000" stroke-dasharray="none" stroke-linecap="round" stroke-linejoin="round" stroke-width="0.5"><title>2026-05-24 23.2km</title><desc>1779623970000</desc></polyline><polyline fill="none" opacity="1" points="87.08674184699339,39.33392268713578 87.30070100579906,39.353264614930595 87.34020115818566,39.38034327882633 87.41261810424476,41.17904877377623 87.44882657726703,41.440136208164404 87.8092654678403,42.548265072415234 88.08412069491169,43.64085573661214 88.29314233465266,44.278975293598705 88.43468454739923,44.55355309746119 88.87741542213189,45.18583954652968 88.97122828406282,45.3927296690963 89.0288326729642,45.607351484373794 89.05187442852912,45.86450758070532 89.03870771106449,46.05978907503413 88.74739408716414,47.005230855733316 88.70131057604158,47.37836699022046 88.70624809509172,47.75342866565006 88.91197805547563,49.53389821067867 89.18189576348959,50.69371837563631 89.17366656506783,50.83675768032117 89.0288326729642,51.2156130435651 89.00743675709236,51.42243377695013 89.11441633648064,52.518350679627474 89.2954587016211,53.06145229936919 89.22468759524781,54.52445942353734 89.25760438889847,54.673265899526086 89.33989637305785,54.83753135943152 89.74312709539663,55.21630246872883 89.8336482779705,55.37476556714137 89.85339835417108,55.59120071515645 89.75135629381111,56.01440120618099 89.81225236208411,56.32937958621005 89.93075281926576,56.49362992871647 90.1381286193282,56.62502912340642 93.68985065528977,57.94476488928922 93.9564766839394,58.01239149501271 94.49302042060299,58.07035695484956 95.06906430966774,58.01239149501271 97.89003352636792,57.21438135732751 98.2833892106064,57.14288719684555 98.75080768058251,57.14095491829721 102.04742456568056,57.41147189677031 102.56915574520099,57.41147189677031 103.12380371837935,57.316791416787964 103.77391039316717,57.11197071517199 104.1639743980486,57.0327469884669 107.62352941176505,56.7873444511697 107.99384334044589,56.70425464484106 108.45138677232171,56.51488574584255 108.7459920755864,56.33131195189162 109.0916184090238,56.03565758934565 109.69399573300325,55.33611615961672 110.25522706492484,54.76989282227623 110.82633343492489,54.10702170114564 111.09954282231047,53.68570899358201 111.48960682718462,52.80053363904335 111.66571167326765,52.54734228362213 111.86485827492288,52.38885427792593 113.17659250228462,51.60799054144991 113.4382810118841,51.36444689540258 113.5304480341365,51.20981429713356 113.60451081987412,51.0010581802635 113.7723864675354,50.3438471728623 113.87936604693095,49.71947446485137 113.95013715330424,49.46817282797383 114.1278878390658,48.97715795437762 114.46199329472438,48.269608998582044 114.45705577567423,48.23287755466299 114.68747333130159,47.79789422162321 114.82736970435508,47.59876500550854 115.37543431879749,46.99943075104238 115.59926851569617,46.699756128629815 115.81816519353742,46.25893534399438 116.07491618408676,45.52421000427421 116.09960377933749,45.50680825044401 116.20000000000437,45.54741231648404 116.09466626028734,45.44106813945655 116.04858274916478,45.47780528995645 115.7243523316065,46.38460903807936 115.66181042365497,46.365274680814764 115.59926851569617,46.25120154949582 115.69966473635577,46.41941082874109 115.63547698872571,46.53541631085318 115.59926851569617,46.54895023498648 115.00347455044539,46.28407015312405 113.9073453215533,45.976649688367615 113.5189271563504,45.91091129634515 111.52252362084255,45.825837726131795 109.31874428527954,45.62281962426823 107.73380067053222,45.62281962426823 107.13306918622402,45.589949811070255 106.4401706796707,45.47780528995645 104.52605912831496,45.00215005795326 103.99774459007313,44.90160343729076 103.33776287717046,44.851329915945826 102.17086254190508,44.909337812707236 101.89765315452678,44.87840029107247 101.21462968607375,44.67150424574356 100.05925022858719,44.38919364863432 99.94074977140554,44.33505138329383 99.81402011581667,44.236434694998024 99.70868637610693,44.08947548836477 99.49801889667287,43.19609233652773 99.25937214264559,42.766788522352726 99.10960073148453,42.608214248113654 98.91703748857253,42.5115219303425 98.75245352026832,42.48638184245101 97.420969216706,42.58114045160437 97.2777811642809,42.571471228679 97.13953063090594,42.52312503595749 96.97823834197334,42.407093642443215 96.87125876257778,42.263987224674565 96.69350807681622,41.73989858124514 96.5964035355064,41.532966381140795 96.41042365133035,41.33570168994447 96.17836025601719,41.21192665961644 94.47491618409549,40.7303563149253 91.88436452300812,40.31453217231319 89.37116732702998,39.33585688084895 89.22633343492635,39.312646542493894 87.41920146296616,39.287501975404666 86.59957330082398,39.30490975637076 86.27698872294422,39.264291574529125 86.12721731179772,39.20819964850307 85.92313319109962,39.08247572936489 85.31252666869841,38.54281998244187 84.17854312709824,38.03022871091525 83.80000000000291,37.92964304515044 83.8082291984174,37.962526882514794 84.16043889058346,38.053440707575646 85.30758914964827,38.573768420810666 85.99225845777983,39.163712823934475 86.26711368485121,39.287501975404666 86.52386467540782,39.32812010473572" stroke="red" stroke-dasharray="none" stroke-linecap="round" stroke-linejoin="round" stroke-width="0.5"><title>2026-05-23 52.6km</title><desc>1779516240000</desc></polyline><polyline fill="none" opacity="1" points="144.48163414280862,39.60564691478794 144.1718859571265,41.5141236531781 140.7828763963189,41.599897456602775 140.40024628455285,39.77719613818044 139.16125354194082,38.640679763877415 138.21378850343172,36.60351144448214 138.28667042951565,35.273979763282114 139.03371017135214,33.51555318104511 140.1451595434919,32.46477862189931 141.78500287933275,31.82144450650958 143.26086188165937,31.842889010731596 144.42697269830387,32.336111966040335 145.57486303336918,33.27966550018755 146.23080036777537,34.39476842447766 146.50410759041552,35.85297046387859 146.3219027753221,37.2682739370066 145.4473196627805,38.76934232242638 144.46341366134584,39.60564691478794 144.281208846136,40.44194797464297 144.5909570318181,49.44804323249264 148.56302200094797,51.37786749537918 150.40329063346144,51.442194646879216 150.74947978218552,51.785272435459774 151.0774484493304,62.398947890731506 150.78592074511107,63.192270480969455 147.72487985156476,63.81406164103828 143.29730284458492,64.1571179972525 135.80868494417518,63.81406164103828 128.10142126551364,62.74200669808488 121.48738647752907,62.91353587892081 121.2322997363517,62.48471264823456 120.9225515506696,55.21601762980572 121.2322997363517,52.32133029009856 136.61038613051642,51.828157117182855 140.70999447023496,49.55525618496176 140.52778965514153,40.05596330908884 138.50531620753463,37.61137628562574 138.19556802196894,35.9816348340828 138.3231113924412,34.909429194172844 139.2887969124131,33.150999373960076 140.40024628455285,32.271778606809676 141.58457758266013,31.82144450650958 143.40662573371083,31.9072225093405 145.41087869973853,33.022333164160955 146.46766662737355,35.123870786716 146.3219027753221,37.311161763063865 145.61130399641115,38.66212352947332 144.53629558731336,39.58420325144834 144.2994293277152,40.33473008751753 144.51807510585058,49.10496139455063 144.75494136544876,49.53381359913328 148.23505333380308,51.29209792750771 150.7677002636483,51.72094539535465 150.93168459716253,63.04218266707903 148.01640755566768,63.79262059906614 141.16550650796853,64.17855899975984 136.24597650032956,63.85694371811405 128.84846100735012,62.76344785379479 121.61492984800134,62.87065359762346 121.28696118085645,62.5919185429957 120.94077203213237,54.74429368998972 121.14119732880499,52.32133029009856 136.0819921666989,51.87104178966547 137.77649694716092,51.399309881497175 140.74643543327693,49.51237101091829 140.49134869209956,40.09885053131438 138.72396198567003,38.1474725149601 138.21378850343172,35.4669768516178 138.74218246724922,33.88010631679208 139.90829328389373,32.59344519411388 141.0926245818846,31.971555987067404 142.29517636157107,31.79999999998836 144.8278232915327,32.572000771193416 146.28546181228012,34.45910109386023 146.37656421982683,37.09672253971803 145.72062688542064,38.44768576929346 144.3905317352619,39.79863978062349 144.2994293277152,40.420504401874496 144.4998546242714,49.25505977179273 148.08928948175162,51.20632832252886 150.71303881914355,51.63517597611644 151.0774484493304,61.434091808929224 150.8770231527742,63.08506491116714 147.70665936998557,63.83550268075487 141.56635710119735,64.19999999999709 136.8472523901146,63.92126681623631 129.23109111911617,62.78488900719094 121.2322997363517,62.82777130705654 121.0136539580999,52.38565713510616 136.9565752792405,51.785272435459774 140.52778965514153,49.72679678819259 140.80109687778167,49.36227282874461 140.81931735936087,47.79695643403102 140.5460101366043,40.52772224259388 140.36380532151088,39.86297069412831 138.90616680087987,38.40479818946915 138.3413318740204,37.2682739370066 138.21378850343172,35.53130917264207 138.4506547630299,34.523433742360794 139.36167883849703,33.06522191003023 141.47525469365064,31.885778012132505 143.26086188165937,31.885778012132505 145.1193509956356,32.722111682698596 146.26724133070093,34.45910109386023 146.50410759041552,36.62495543072873 145.84817025600933,38.3619106002152 144.3905317352619,39.755752493365435 144.33587029064074,41.364019407730666 144.0807835495798,41.55701055955433 140.65533302573022,41.44979327615874 140.454907729174,39.927301586649264 138.760402948712,38.10458487001597 138.3231113924412,36.96805889418465 138.2320089850109,35.53130917264207 138.63285957812332,34.20177029083425" stroke="#ffb600" stroke-dasharray="none" stroke-linecap="round" stroke-linejoin="round" stroke-width="0.5"><title>2026-05-17 22.3km</title><desc>1779013233000</desc></polyline><polyline fill="none" opacity="1" points="185.35170536427177,38.89348023728962 185.771945556422,39.814132921816054 185.7823218574631,40.16775712395247 185.33095276221866,41.52126382822826 185.13899119294365,42.649161355722754 185.13380304243765,43.61852559516046 185.26869495594292,44.990239075923455 185.18049639713718,45.78886583638814 184.35039231384872,47.825008273895946 184.04429143315065,49.23319568448642 183.2608807045617,51.16558633384193 183.10004803843913,51.31188451764319 182.09354683748097,51.317980267111125 180.47484387506847,51.884882098085654 179.9819695756596,51.848307957698125 179.15705364290625,51.54352253563047 178.8924579663726,51.775159606011584 178.3477021617291,52.85408821097735 177.75625300238607,53.463643306564336 174.68486789430608,50.080529672028206 172.47990392314387,49.72087147087586 172.1634267413756,49.580665112520364 172.0181585268001,49.39169077582483 172.03372297837632,48.5138662319041 171.93514811850036,48.440713572203094 170.64848678943235,48.36146475087298 166.88188951159827,48.46509780260749 166.60691753402352,48.34317654557162 165.9999039231334,47.84329664658799 164.97265012009302,47.53239350750664 164.69248999198317,47.20320008744602 164.23593274620362,46.04491172547205 164.0128422738344,44.71589903907443 162.7624979983957,44.25256617998093 161.62110488390317,44.34401375519883 159.06853482784936,44.92317830081447 156.49002401920734,44.575680284557166 156.34475580463186,44.654934405873064 156.2150520416326,44.89879254470361 155.82075260209967,46.179030538507504 155.8726341072761,46.41678583522298 156.88951160930446,47.86768113429571 159.8363811048912,48.440713572203094 160.7391192954383,49.19052385331452 160.92070456364308,49.88546110070092 161.45508406724548,51.15949056798854 161.57441152923275,52.000700053515175 162.27999999999884,54.98750234036925 162.31631705362815,55.529986259272846 162.83513210568344,58.17528283113279 163.22943154524546,58.857919955687976 163.61335468373727,59.09562202326924 165.2683746997791,59.668540855789615 167.01159327462665,60.783887493518705 168.69774219373357,60.881403095456335 169.38257806244656,61.417735905590234 169.92214571658405,61.472587838579784 170.79375500400783,61.880928337050136 173.84957566051162,62.24660389722703 174.04153722975752,62.10033395638675 174.14530024019768,61.856549882431864 174.49290632506018,60.64980326671866 174.67449159326497,59.08952711092206 174.62261008805945,58.87010982957145 174.32169735789648,58.662881616746745 174.30094475581427,58.56536219542977 174.50328262610128,58.01071729357136 174.64855084064766,57.84615127787765 174.65373899118276,56.95626750208612 175.04285028020968,55.785988101655676 175.74325060046976,54.87169049357544 177.19593274619547,53.9208053223374 178.25950360289426,52.98209532533656 178.93396317053703,51.70810686729965 179.17780624498846,51.531331084635895 179.53578863089206,51.659341189279075 179.20374699760578,51.52523535814544 178.91839871896082,51.720298280244606 178.3528903122642,52.841897042133496 177.73031224979786,53.44535674915096 174.7367493995116,50.11100907560103 172.22049639714533,49.61114478517993 172.0233466773352,49.37340290330394 171.9818414731999,48.446809630801 171.52528422736214,48.35536868309282 166.83000800639275,48.45290568873679 166.0414091272687,47.855488891742425 164.98821457166923,47.53239350750664 164.65617293835385,47.14833433132662 164.2048038430803,45.959563224449084 164.0439711769286,44.75247778746416 162.7832506004779,44.246469669698854 162.45639711769763,44.21598710852413 161.24236989588826,44.39888222942682 159.01146517213783,44.91098542407781 156.4173899119196,44.58177675936531 156.256557245797,44.78905651223977 155.79999999998836,46.26437870862719 156.86875900719315,47.87377725458646 159.8675100080145,48.46509780260749 160.72874299439718,49.17223591583388 160.88438750998466,49.79402247652979 161.46027221775148,51.232639714999095 161.53809447557433,51.90316915942458 162.25924739791662,54.883881225443474 162.81437950360123,58.12042770509652 162.9181425140123,58.431272716967214 163.2813130504219,58.8883946354872 163.6392954363546,59.08952711092206 165.25281024820288,59.67463570583277 167.01678142513265,60.771698031450796 167.34882305844803,60.84483476438254 168.70811849477468,60.86921365440139 169.39295436348766,61.423830567422556 169.79763010406168,61.42992522862187 170.9027061649249,61.91749599927789 173.6109207365953,62.25879304190312 173.90664531625225,62.222225599965896 174.06747798237484,62.0820501872513 174.26462770215585,61.57010225499471 174.5344115292246,60.39991817898772 174.68486789430608,59.132191483582574 174.63817453963566,58.87010982957145 174.3632025620318,58.693356401490746 174.32169735789648,58.57755213227574 174.45658927140175,58.08995261209202 174.66411529222387,57.79129583306349 174.64855084064766,56.94407721631069 175.04285028020968,55.785988101655676 175.52016012810054,55.09112326570539 177.35676541231805,53.81108677514203 177.9897197757964,53.26249085038944 178.337325860688,52.88456612158916 178.91321056845482,51.75687250333067 179.14667734186514,51.54352253563047 179.9871577261656,51.85440364939495 180.516349079262,51.89097778586438 182.01572457965813,51.348459004544566 183.19862289831508,51.348459004544566 183.4424659727665,51.25702274301511 183.587734187342,51.080245552053384 183.69149719775305,50.54381483544421 184.18955964769702,49.349019064116874 184.44896717375377,47.879873374211456 185.16493194553186,46.19122314212291 185.32576461168355,45.58768611107007 185.4139631705475,44.70980257870178 185.35689351480687,42.551614349376905 185.70968775020447,40.978645658422465 186.06767013610806,40.09459367720774 188.20000000001164,36.15582184341474 187.90946357086068,36.015581878324156 187.90427542032558,35.75339318515398 187.4269655724638,35.43022870565983 187.4010248198465,33.74120695810052" stroke="#ff6800" stroke-dasharray="none" stroke-linecap="round" stroke-linejoin="round" stroke-width="0.5"><title>2026-05-16 35.3km</title><desc>1778887035000</desc></polyline><polyline fill="none" opacity="1" points="44.199999999953434,83.30575363559183 42.08538681943901,83.29361103710107 41.59025787963765,83.11147190194606 40.95071633235784,83.64574585868831 41.167335243488196,84.62928897955135 40.961031518585514,85.3821186205314 40.93008595984429,86.88776272575342 37.30945558735402,91.29529810528038 36.649283667618874,93.49293003101775 19.226934097416233,93.42008104464912 11.799999999988358,94.10000307558948 11.913467048609164,94.48852809805248 20.598853868141305,93.83289134117513 39.34154727793066,93.79646696443524" stroke="#4dd2ff" stroke-dasharray="none" stroke-linecap="round" stroke-linejoin="round" stroke-width="0.5"><title>2026-05-12 15.2km</title><desc>1778590468000</desc></polyline><polyline fill="none" opacity="1" points="73.81561338377651,79.04177358357992 72.37428725499194,80.60924015840283 72.15535164054018,82.24111000036646 68.67062644287944,82.30552563957463 68.43344619381242,80.73807247637887 66.73669518134557,78.76263440036564 66.18935614521615,76.89453898055945 66.42653639416676,75.241152487215 67.37525739043485,73.7595346934686 69.63759207364637,72.62147292628651 71.4803001624532,72.68589169133338 72.64795677317306,73.13682246046665 74.03454899834469,74.81169919391687 74.49066486186348,76.2718365953624 74.28997388191056,78.07552089028468 72.33779798599426,80.71660042917938 72.55673360032961,90.0996635172778 76.0961927017197,92.03204699739581 78.35852738493122,92.24675511056557 78.81464324845001,92.65469988487894 79.08831276651472,102.93892507835699 78.96060032479,103.75476979619998 78.23081494309008,104.22709941462381 73.46896532760002,104.89265287661692 69.27269938285463,105.0 64.62031757447403,104.72089735831833 56.51969983766321,103.60448286352039 49.276579924393445,103.5400741432386 48.91168723348528,96.49792787568003 49.09413357893936,93.1485266466334 64.4196265945211,92.59028760783258 65.97042053064797,91.98910534691822 68.70711571199354,90.31437372283835 68.54291400115471,81.23192891971848 68.32397838658653,80.52335189987207 67.33876812132075,79.64299510476121 66.46302566328086,78.26877180569863 66.15286687610205,76.61539677386463 66.62722737411968,74.83317188070214 68.30573375208769,73.07240384195757 69.52812426642049,72.64294585028256 70.84173795336392,72.60000000000582 72.97636019485071,73.45891523903992 74.36295242013875,75.64913225408236 74.41768632386811,77.5601841948228 73.81561338377651,79.08471803842986 72.35604262037668,80.58776809721894 72.21008554415312,82.28405376210867 68.76184961560648,82.36994125787169 68.36046765570063,80.54482396796811 66.9373861614149,79.17060692020459 66.18935614521615,77.23809807986254 66.37180249055382,75.49882401661307 67.22930031409487,73.97426259609347 69.21796547912527,72.72883752304188 71.69923577690497,72.7717833455099 72.88513702224009,73.39449672517367 73.65141167293768,74.18899026609142 74.52715413097758,76.44361675903201 74.01630436372943,78.71968987578293 72.39253188949078,80.50187982941861 72.17359627503902,82.21963811590103 68.76184961560648,82.34846938739065 68.39695692469832,80.65218427362561 66.973875430529,79.21355134708574 66.26233468321152,77.5601841948228 66.33531322143972,75.670604850151 67.08334323775489,74.081626460189 68.79833888472058,72.8791478608473 70.98769502982032,72.62147292628651 73.04933873307891,73.54480655823136 73.88859192200471,74.59697219842928 74.4541755928658,75.97122095065424 74.36295242013875,77.86079742999573 73.70614557655063,79.19207913479477 72.37428725499194,80.69512837965158 72.22833017876837,82.24111000036646 68.85307278833352,82.39141312600987 68.46993546292651,80.71660042917938 67.02860933402553,79.19207913479477 66.22584541421384,77.23809807986254 66.51775956677739,75.06937128154095 67.55770373577252,73.60922502324684 69.74705988087226,72.60000000000582 71.73572504601907,72.7717833455099 73.1223172711907,73.60922502324684 74.4541755928658,75.88533068279503 74.39944168925285,77.64607373709441 73.59667776932474,79.34238457208266 72.37428725499194,80.54482396796811 72.30130871676374,82.19816622916551 68.81658351921942,82.39141312600987 68.32397838658653,80.50187982941861 67.19281104498077,79.47121771337697 66.35355785593856,77.94668684201315 66.18935614521615,76.22889153112192 66.84616298868787,74.18899026609142 66.9373861614149,74.40371770359343 67.6671715429984,73.54480655823136 68.85307278833352,72.85767496246262 71.42556625884026,72.7073646083154 73.17705117492005,73.56627938218298 73.83385801839177,74.40371770359343 74.49066486186348,76.2074189955456 74.4541755928658,77.32398776175978 73.90683655650355,78.89146791839448 72.319553351379,80.65218427362561 72.21008554415312,82.24111000036646" stroke="#4dd2ff" stroke-dasharray="none" stroke-linecap="round" stroke-linejoin="round" stroke-width="0.5"><title>2026-05-11 15.3km</title><desc>1778503630000</desc></polyline><polyline fill="none" opacity="1" points="113.31496284063905,89.18843652692158 111.7555527780205,93.3531266193022 106.83741335058585,98.57659860374406 105.99773100926541,104.64706750086043 94.42211016151123,104.43530790973455 93.88231437071227,99.35305708140368 87.58469681092538,92.0119581388426 86.62505984934978,83.40017897891812 87.94456067169085,79.7295499931206 90.82347155595198,76.20007954741595 96.16145215416327,73.16471967560938 102.339115093695,72.81176993565168 109.11655113426968,76.05890033213655 112.95509898010641,81.84722308494383 113.55487208114937,87.77667113370262 111.87550739850849,92.85901223710971 106.4775494900532,99.21188288147096 105.81779907899909,104.57648097816855 94.54206478153355,104.57648097816855 93.70238244044594,99.14129576995037 89.98378921486437,95.4707554425695 87.16485564014874,90.8825509622111 86.44512791931629,84.74136518203886 87.10487833013758,81.70604509289842 90.88344886596315,75.98831071308814 98.2006806973368,72.67058998637367 104.97811673767865,73.51766922441311 111.99546201853082,78.88247882941505 113.43491746112704,84.24724427028559 113.37494015065022,88.62373073661001 110.61598388641141,94.83546751807444 106.65748142031953,98.71777294122148 106.17766293953173,104.43530790973455 95.08186057256535,104.92941351537593 93.70238244044594,99.00012152449926 90.28367576515302,95.89428038161714 86.8649690898601,90.459022766212 86.56508253957145,83.89430053270189 88.30442453222349,79.23542528151302 92.98265471914783,74.50592694379156 96.28140677441843,73.09412974282168 101.19954620185308,72.67058998637367 106.71745873056352,74.29415755852824 109.17652844428085,76.12948994344333 113.1950082203839,82.62370149453636 113.6748267011717,86.5060796647449 112.59523511934094,91.8001944423886 106.83741335058585,98.36483704007696 106.4775494900532,104.08237510506297 95.14183788280934,105.0 93.64240513020195,99.070708650921 88.12449260172434,93.07077558961464 86.3251732988283,86.64725661720149 87.34478757041506,81.00015467405319 90.70351693569683,75.91772108606528 98.38061262783594,72.60000000003492 105.0980713579338,73.58825911110034 110.01621078560129,76.90597516583512 112.41530318930745,80.57662005559541 113.61484939116053,85.23548571887659 112.05543932854198,92.85901223710971 106.5375268002972,98.92953438998666 106.17766293953173,104.50589444767684 95.08186057256535,104.92941351537593 93.76235975045711,99.35305708140368 87.94456067169085,92.85901223710971 86.44512791931629,88.62373073661001 87.46474219043739,80.9295655899914 90.5835623156745,76.41184831329156 97.18106642598286,72.81176993565168 103.77857053582557,73.16471967560938 109.65634692506865,76.6236170103075 113.49489477090538,83.32959015504457 112.59523511934094,91.30607888277154 110.31609733612277,95.25899286998902 106.65748142031953,98.85894724813988 106.17766293953173,104.43530790973455 94.90192864229903,104.85882702330127 93.76235975045711,99.21188288147096 89.74387997412123,95.3295804017107 86.92494639987126,90.3884347070125 86.50510522932746,83.75312298408244 88.66428839229047,78.52953218627954 91.78310851729475,75.14123468630714 95.44172443309799,73.23530960065546 101.19954620185308,72.67058998637367 106.83741335058585,74.22356774820946 112.17539394879714,79.80013920698548 113.55487208114937,83.61194540490396 113.25498553039506,89.54137739748694 111.03582505672239,94.553117130592 106.65748142031953,98.92953438998666 106.65748142031953,103.65885548695223 105.69784445897676,104.64706750086043 94.42211016151123,104.43530790973455 93.4624731997028,98.85894724813988 88.84422032302245,94.34135425969725 86.92494639987126,90.52961081796093 86.3251732988283,86.29431417922024 87.46474219043739,80.57662005559541" stroke="#4dd2ff" stroke-dasharray="none" stroke-linecap="round" stroke-linejoin="round" stroke-width="0.5"><title>2026-05-10 11.2km</title><desc>1778422578000</desc></polyline><polyline fill="none" opacity="1" points="142.95120425499044,72.60000000000582 145.085826034192,73.5662793822994 146.25348239205778,75.28409776558692 146.4724179591285,76.44361675929395 146.19874850020278,78.20435485517373 145.39598475431558,79.60005077131791 144.28306228818838,80.60924015881028 144.48375322471838,90.03525041080138 147.96847766754217,91.94616368760762 150.72341688675806,92.48293376687798 151.0153309762245,103.6044828636077 150.39501353609376,104.16269089662819 149.00842161127366,104.42032484344963 142.40386533737183,105.0 136.45611576468218,104.69942790809728 129.19475278945174,103.6259524323832 121.14887069887482,103.51860456528084 120.94817976246122,93.255880128243 124.232213268755,92.86940732423682 136.18244630575646,92.63322912866715 137.64201675308868,92.20381350698881 140.76184858416673,90.31437372336222 140.70711469242815,82.64907536251121 144.15534987405408,82.5202442863083 144.52024248579983,90.1855476279743 147.8590098839486,91.92469285427069 150.72341688675806,92.50440453985357 151.05182023742236,102.78863752748293 150.8146400398109,103.92652615133557 147.49411727220286,104.65648900064116 141.56461233017035,105.0 136.8574976377422,104.74236680628383 129.34070983424317,103.6474219988595" stroke="#4dd2ff" stroke-dasharray="none" stroke-linecap="round" stroke-linejoin="round" stroke-width="0.5"><title>2026-05-10 11.3km</title><desc>1778397813000</desc></polyline><polyline fill="none" opacity="1" points="176.75823486711306,72.59999999999854 175.36370716933743,72.8050339344627 174.54826300707646,72.6729783299379 174.19963108262164,72.66255286436353 168.98787926291698,72.65212739542403 168.13107199098158,72.61390064704392 167.5638064867817,72.62432612838165 167.43971715775842,72.6695031751151 167.41312658725656,76.19311727929016 167.2979007817048,76.52669387565038 167.33335487572185,78.5628260077101 167.26835570337425,87.50151970620573 167.30676430521999,90.47474398338454 167.2417651328724,102.64612386544104 167.27131021120294,103.95848308913992 167.43676264992973,104.06957982959648 170.81671961235406,104.10776924569655 170.87285526120104,104.15984564927203 170.87876427688752,104.250111216199 170.75172044000647,105.0 170.89649132387422,104.2674699500858 170.82853764369793,103.21204193527592 170.86399173771497,102.68778688426391 171.05898925475776,101.92742831344003 172.45942596821988,99.12193189782556 173.1744168641162,97.9864697325902 173.65304713326623,97.36142761112569 173.57032091391739,97.28156024410418 173.3044152088405,97.61839084003077" stroke="#ffbb00" stroke-dasharray="none" stroke-linecap="round" stroke-linejoin="round" stroke-width="0.5"><title>2025-11-09 21.3km</title><desc>1762645227000</desc></polyline><polyline fill="none" opacity="1" points="39.88370257616043,134.0630936009111 34.38972952612676,139.96671377372695 34.44944662414491,144.95663655915996 22.744895342970267,145.65943950257497 21.610270474106073,139.75587112107314 16.832902603782713,135.04703402653104 14.384501570602879,129.0028049882967 14.742804160807282,123.52078112470917 17.78837617789395,117.89814443374053 23.76008601533249,114.10283712338423 31.16500621358864,113.68113494070712 36.89784765779041,116.42219422897324 41.37663003592752,123.30993312812643 41.13776164222509,131.1815452009323 38.45049221534282,135.96069165691733 34.688315017847344,139.404466547654 34.38972952612676,145.16747752222 23.22263212990947,145.65943950257497 21.669987572124228,139.61530931451125 15.339975144481286,132.30605341604678 14.444218669086695,126.61321053694701 15.69827773491852,121.20144939346937 20.535362703260034,115.64907611487433 27.8805658032652,113.39999999996508 34.86746631306596,114.94624066649703 37.79360413341783,117.54672802286223 40.95861034700647,122.60710597777506 41.61549842916429,126.61321053694701 41.07804454374127,130.68957224383485 39.40596578922123,134.76590834266972 34.568880821345374,139.54502839990892 34.38972952612676,145.02691688766936 25.0738621794153,145.79999999998836 22.625461146468297,145.44859869935317 21.968573063844815,140.10727550426964 17.13148809573613,135.32815958815627 15.399692242965102,132.30605341604678 14.50393576733768,126.4023635450867 15.81771193165332,121.0608835677267 21.013099489966407,115.36794202681631 28.53745388519019,113.47028374654474 35.10633470653556,115.01652424572967 39.823985478142276,120.21748797263717 41.25719583919272,123.66134641767712 41.37663003592752,130.1975989138591 39.40596578922123,134.69562690285966 34.74803211609833,138.98278080817545 34.44944662414491,144.95663655915996 22.924046638188884,145.65943950257497 21.78942176885903,139.75587112107314 17.13148809573613,135.39844095951412 14.802521259058267,129.7056252109469 14.683087062323466,124.08304211392533 17.43007358768955,118.46041029546177 22.56574404775165,114.52453903196147 29.73179585277103,113.61085121711949 34.86746631306596,115.08680781710427 40.361439363332465,120.99060064327205 41.555781330913305,125.48869245586684 40.898893248755485,131.60323600983247 38.56992641207762,135.67956636904273 34.568880821345374,139.47474747756496 34.33001242764294,145.02691688766936 30.985854918835685,145.65943950257497 22.685178244719282,145.58915924240137 21.849138867342845,139.75587112107314 17.43007358768955,135.7498477025074 15.578843537950888,132.5168984894408 14.683087062323466,124.01275951694697 19.102152342209592,116.77361124876188 25.551598966354504,113.68113494070712 33.73284144396894,114.66510627389653 39.40596578922123,119.58494055701885 41.49606423242949,125.34812755876919 41.018327445490286,131.2518270215951 38.390775116859004,136.03097295982298 34.688315017847344,139.26390466513112 34.44944662414491,145.02691688766936 30.746986525133252,145.58915924240137 22.625461146468297,145.44859869935317 21.90885596582666,139.8261520130909 17.310639390954748,135.67956636904273 14.862238357774913,130.68957224383485 15.280258046230301,122.1854093222064 19.818757522618398,116.21134392550448 25.133579277899116,113.75141865678597 31.881611394230276,113.96226975950412 36.0618082806468,115.85992660082411 39.10738029750064,119.16324193734908" stroke="#4dd2ff" stroke-dasharray="none" stroke-linecap="round" stroke-linejoin="round" stroke-width="0.5"><title>2025-11-01 10.0km</title><desc>1761964262000</desc></polyline><polyline fill="none" opacity="1" points="58.76339721377008,145.79999999998836 57.865693878848106,140.0244660580065 52.59916764847003,134.81235481030308 50.38483275612816,128.6845489696716 50.923454756848514,122.55668538459577 53.676411650143564,118.18966689985245 57.14753121114336,115.30178372765658 63.73068899940699,113.39999999996508 69.1169090080075,114.38611077528913 72.4084879020229,116.14701915415935 76.77731079794466,122.20450756180799 77.61516724363901,128.47324429033324 75.7599136850331,134.53061787731713 70.49338745442219,139.81316506303847 70.19415300968103,145.44783476460725 58.524009657558054,145.58870088175172 57.626306323334575,139.74273138289573 53.25748342717998,136.00973541470012 51.4022298688069,132.5584559274139 50.624220312107354,124.52887766790809 54.15518676210195,117.83748671191279 60.1997225494124,114.17480144934962 67.02226789365523,113.96349205472507 73.24634434771724,117.13312576361932 76.83715768670663,122.55668538459577 77.6750141326338,128.6845489696716 75.7599136850331,134.46018362499308 70.61308123264462,139.32012914126972 70.07445923192427,145.5182678271667 58.58385654678568,145.65913392871153 57.865693878848106,139.81316506303847 51.76131120277569,133.4741032908787 50.324985867366195,126.923674541933 50.98330164584331,122.83842750557233 53.018095871433616,119.24620631948346 58.10508143506013,114.87916560214944 65.40640189102851,113.54087305947905 72.76756923599169,116.78094500349835 77.07654524268582,123.47234683122952 77.61516724363901,128.96628843579674 75.22129168431275,135.0940916214604 70.61308123264462,139.3905628672219 69.83507167571224,145.65913392871153 58.64370343601331,145.65913392871153 58.0452345458325,139.74273138289573 53.79610542813316,136.22103764553322 51.3423829798121,132.06541450542863 50.68406720086932,123.89495937188622 54.813502540811896,117.06268962682225 60.85803832835518,113.89305557473563 68.51844011829235,114.24523789883824 74.20389457186684,118.40097492118366 77.19623902067542,124.5993129958515 77.37577968765981,129.6706365668797 75.5803730180487,134.67148635914782 70.55323434364982,139.672297695186 70.3138467874378,145.23653553205077 69.53583723097108,145.58870088175172 58.58385654678568,145.65913392871153 57.626306323334575,139.672297695186 53.5567178723868,136.22103764553322 51.3423829798121,132.27671801747056 50.68406720086932,124.10626553930342 54.69380876305513,117.27399801439606 61.33681344008073,113.89305557473563 69.23660278576426,114.45654720207676 74.14404768263921,118.11923087754985 77.25608590967022,124.52887766790809 77.31593279889785,130.44541862956248 74.80236346134916,135.7984331154148 70.67292812140658,139.60186399973463 70.07445923192427,145.44783476460725 58.58385654678568,145.65913392871153 57.925540768075734,139.95403240062296 53.73625853913836,136.0801694992697 51.3423829798121,132.27671801747056 50.86360786808655,123.6836531359586 54.51426809607074,117.62617850751849 61.815588551806286,113.68174608843401 69.47599034174345,114.31567434087628 74.3834352386184,118.18966689985245 77.31593279889785,124.45844233216485 77.25608590967022,130.51585331669776 75.46067924005911,134.88278902485035 70.55323434364982,139.81316506303847" stroke="#4dd2ff" stroke-dasharray="none" stroke-linecap="round" stroke-linejoin="round" stroke-width="0.5"><title>2025-10-27 10.0km</title><desc>1761565093000</desc></polyline><polyline fill="none" opacity="1" points="113.073545495281,130.8028198897373 111.63094737194479,134.48140537529252 106.40152917359956,139.71627976890886 106.40152917359956,145.02185289829504 94.6203111638315,145.51703752478352 93.77879559155554,139.71627976890886 88.91002692445181,135.11808152933372 86.50569671811536,129.9539126046584 86.44558846321888,123.87004477181472 89.3908929657191,117.85686390008777 96.30334230791777,113.61223230400356 104.8988227949012,113.89520860189805 107.72391078690998,115.38083215500228 110.96975656482391,118.91801748872967 113.61451979191042,125.56787405401701 111.99159690272063,133.56176094623515 106.46163742872886,139.5040559474146 106.28131266334094,145.02185289829504 94.50009465357289,145.51703752478352 93.71868733642623,139.71627976890886 89.6313259860035,136.1084654238657 86.68602148373611,130.59059317200445 86.62591322837397,123.23335765313823 89.15045994496904,118.49355626036413 95.58204324636608,114.03669670503587 102.37427607853897,113.54148821049603 107.18293649074621,115.31008825288154 109.64737495174631,117.36165830219397 113.61451979191042,124.50673126982292 113.49430328165181,129.246489024139 112.11181341321208,133.6325028714491 106.46163742872886,139.5040559474146 106.28131266334094,145.0925935821142 94.92085243947804,145.65851877751993 93.59847082616761,139.78702102752868 89.45100122061558,136.1084654238657 86.38548020785674,129.0342618006398 86.86634624912404,122.95038540131645 89.33078471035697,118.21058195462683 96.24323405278847,113.75372046825942 104.77860628440976,114.10744074510876 108.02445206278935,115.59306381526403 110.18834924814291,117.92760752618778 113.43419502628967,124.93118859041715 113.37408677162603,129.74168561090482 111.93148864759132,133.91547049529618 106.40152917359956,139.71627976890886 106.28131266334094,145.0925935821142 94.74052767385729,145.58777815493522 93.89901210181415,140.1407272052602 88.06851135194302,133.98621238209307 86.32537195272744,129.1050042163115 87.22699577989988,121.18180604849476 89.27067645499483,118.2813255424262 96.42355881840922,113.75372046825942 102.73492560954764,113.68297638994409 109.04629240045324,116.7249648385332 113.25387026113458,123.65781580127077 113.43419502628967,129.6002009101212 111.21018958603963,134.97659799299436 106.58185393898748,139.36257336154813 106.2212044079788,145.16333425824996 94.80063592921942,145.79999999998836 93.89901210181415,140.0699859848828 89.33078471035697,135.75475706235738 86.80623799399473,130.73207765806 86.68602148373611,124.01153071387671 89.21056820009835,118.49355626036413 94.6203111638315,114.46116083022207 100.81146144447848,113.39999999996508 107.78401904203929,115.59306381526403 112.3522464337293,121.04031949356431 113.67462804727256,125.709359628323 113.13365375064313,131.01504653855227 111.27029784116894,134.97659799299436 106.521745684091,139.36257336154813 106.34142091870308,145.23407492687693 94.50009465357289,145.37555624119705 93.83890384645201,139.78702102752868 89.6313259860035,136.03772376687266 87.22699577989988,132.14692083455157 86.38548020785674,124.22375956975156 89.5712177308742,117.99835114489542 92.45641397824511,115.59306381526403 97.44539915560745,113.61223230400356 105.49990534642711,114.39041682856623 108.80585937970318,116.65422108216444 111.27029784116894,119.83768253738526 112.17192166857421,118.84727396967355" stroke="#4dd2ff" stroke-dasharray="none" stroke-linecap="round" stroke-linejoin="round" stroke-width="0.5"><title>2025-10-19 10.0km</title><desc>1760866141000</desc></polyline><polyline fill="none" opacity="1" points="130.57205461268313,145.58824052341515 129.552440561587,139.37659860408166 123.5547108517494,132.88254602259258 122.29518761276267,126.03548571886495 125.41400706209242,118.27069111017045 131.83157785166986,114.10589951806469 139.02885350352153,113.75294985453365 145.44642429309897,117.2824378865771 148.98508482216857,123.0707568777143 149.4649031991139,128.92961276887218 147.2457432062365,134.92959132033866 142.5075367356185,139.2354242358124 141.84778646728955,145.3764809782151 130.51207731547765,145.4470675008488 129.79234975017607,139.9412957703462 125.77387084439397,136.34134295181138 123.25482436618768,132.10607888293453 122.5350968008861,124.12959015497472 126.0737573299557,117.70597516588168 133.2710329820402,113.54117996484274 140.16842214833014,114.0353096005856 146.10617456166074,117.9883331990568 149.34494860493578,123.91782363713719 149.52488049608655,129.35314247873612 147.48565239435993,134.6472406272078 142.447559438413,139.51777294132626 142.14767295285128,145.3764809782151 130.45210001827218,145.4470675008488 129.79234975017607,140.15305708145024 125.41400706209242,135.84723022859544 122.5350968008861,130.2707892387989 122.83498328668065,122.01192188006826 126.01378003298305,117.42361701047048 128.35289461980574,115.72946550755296 135.31026108330116,113.39999999996508 142.5675140323583,115.16474736132659 146.16615185840055,118.05892268836033 148.9251075249631,122.29427804768784 149.34494860493578,130.34137739764992 147.48565239435993,134.78841598896543 142.62749132956378,139.58836009859806 142.5075367356185,145.164721364039 131.83157785166986,145.79999999998836 130.45210001827218,145.4470675008488 129.6124178590253,139.72953439014964 125.17409787350334,135.35311713069677 122.4151422069408,129.42373073700583 122.2352103155572,124.62371176225133 125.41400706209242,118.27069111017045 127.99303083727136,115.94123468635371 132.67126001091674,113.89412974292645 139.74858106859028,113.89412974292645 144.96660591638647,116.85890033218311 149.4649031991139,124.05900132335955 148.9251075249631,131.32961081835674 147.2457432062365,134.92959132033866 142.3875821409747,139.16483704023995 142.20765024982393,145.164721364039 130.81196380103938,145.51765401603188 129.552440561587,139.65894724824466 124.15448382287286,134.15312661946518 122.35516490996815,129.56490723026218 122.5350968008861,123.84723478276283 125.05414327932522,118.76481715991395 127.93305354029872,115.94123468635371 132.1314643372316,113.96471967548132 139.62862647441216,113.96471967548132 145.98621996701695,117.77656468586065 149.7647896844428,125.82371982041514 147.66558428574353,134.43547752685845 142.5075367356185,138.95307540812064 142.32760484423488,145.164721364039 130.3921227210667,145.51765401603188 129.67239515599795,139.9412957703462 124.33441571425647,134.3648898114334 122.35516490996815,128.85902445705142 123.25482436618768,121.87074375041993 126.37364381551743,117.3530274523655 131.2318048805464,114.2470793298562 138.90889890957624,113.68235989898676 143.4671734890435,115.72946550755296 147.54562969179824,119.89424672356108 149.4049259016756,125.11783299490344 149.34494860493578,129.91784833010752 147.00583401764743,135.14135426015127 142.447559438413,139.3060114235268" stroke="#4dd2ff" stroke-dasharray="none" stroke-linecap="round" stroke-linejoin="round" stroke-width="0.5"><title>2025-10-16 10.0km</title><desc>1760611285000</desc></polyline><polyline fill="none" opacity="1" points="178.36697354679927,139.80540646257577 178.30633570323698,145.37181655596942 166.66386978910305,145.72863611206412 165.87557782582007,140.01950002816739 160.47880977159366,134.80987018719316 158.35648525645956,129.3147365388577 158.72031231597066,122.96316132496577 162.11603154125623,117.467928871396 169.39257273776457,113.40000000002328 176.24464903096668,113.89957156503806 181.88396845874377,117.25382797810016 185.6435147433076,125.10414857516298 184.552033563843,132.95437563839369 178.54888707678765,139.5199482673197 178.30633570323698,145.37181655596942 166.6032319457736,145.79999999998836 165.75430213939399,140.01950002816739 160.66072330181487,135.02396537578898 158.47776094288565,129.8142960369587 158.65967447287403,123.24862669373397 162.35858291434124,116.9683600118151 170.12022685725242,113.40000000002328 178.12442217348143,114.25640816544183 184.24884434742853,120.60806731425691 185.58287689997815,125.46097910718527 184.24884434742853,133.45393237710232 178.42761139036156,139.5199482673197 178.42761139036156,145.2290886795381 166.66386978910305,145.72863611206412 165.87557782582007,140.162229032896 160.1149827123154,134.16758420394035 158.47776094288565,129.38610220473493 158.72031231597066,123.03452767874114 162.1766693845857,117.32519494998269 169.2106592077762,113.54273477132665 177.5180437406525,114.25640816544183 182.73289826489054,118.18159801344154 185.6435147433076,125.24688081117347 184.309482190758,133.45393237710232 178.54888707678765,139.59131282765884 178.24569786037318,145.44318048283458 166.66386978910305,145.72863611206412 165.75430213939399,139.87677099218126 160.6000854584854,134.66714002302615 158.35648525645956,129.24337086523883 158.59903662954457,123.46272563905222 160.72136114514433,118.82389958039857 167.81598881166428,113.97093890060205 175.21380569483154,113.61410214554053 178.73080060677603,114.82734632404754 182.12651983159594,117.75339662085753 185.6435147433076,125.38961301627569 185.52223905688152,129.67156479042023 184.06693081744015,133.81075838720426 178.48824923322536,139.80540646257577 178.42761139036156,145.44318048283458 166.72450763219967,145.79999999998836 165.87557782582007,140.09086453425698 161.20646389154717,135.66625052440213 158.41712309932336,129.74293041747296 158.72031231597066,122.74906221742276 161.81284232484177,117.75339662085753 168.9074699911289,113.61410214554053 176.97230315068737,114.04230622830801 182.42970904824324,118.1102311341092 185.52223905688152,125.17551469715545 184.4307578774169,132.88301035913173 181.7626927716192,136.8794540964882 178.48824923322536,139.66267738031456 178.48824923322536,145.2290886795381 166.72450763219967,145.72863611206412 165.69366429606453,139.80540646257577 160.7819989884738,135.16669546306366 158.47776094288565,129.8142960369587 159.08413937594742,121.2503665155964 161.50965310819447,118.1102311341092 169.0893835213501,113.54273477132665 176.9116653073579,113.97093890060205 182.73289826489054,118.4670654538204 185.4009633702226,124.39048693160294" stroke="#4dd2ff" stroke-dasharray="none" stroke-linecap="round" stroke-linejoin="round" stroke-width="0.5"><title>2025-10-08 10.1km</title><desc>1759919017000</desc></polyline><polyline fill="none" opacity="1" points="41.794909574324265,168.94680717383744 39.445558162173256,175.6111206462374 34.566135998116806,180.21938283520285 34.385416658828035,186.10373200656613 22.578419817844406,186.38731376320357 21.976022019516677,180.92834336904343 18.120676112594083,177.3835330196889 15.409886021632701,173.2715289645712 14.506289324490353,165.3310342366458 17.75923743378371,158.73751451796852 24.08441431284882,154.83808987995144 30.34935141238384,154.341797805042 37.517885208595544,157.74493590532802 41.25275155599229,163.913078612939 41.61419023480266,169.44308817503043 39.80699684098363,174.97305101691745 34.50589621858671,180.36117500328692 33.96373820025474,186.17462745739613 22.63865959784016,186.5291045953054 21.85554246022366,180.71565528947394 15.409886021632701,173.5551162805059 14.44604954472743,166.18180613656295 17.698997654020786,159.02110813115723 23.90369497332722,154.90898871712852 30.22887185262516,154.341797805042 37.33716586907394,157.53224029229023 41.07203221693635,163.3458955033566 41.67443001479842,169.30129364167806 39.445558162173256,175.6111206462374 34.50589621858671,180.50296714087017 34.084217759780586,186.24552290025167 22.51818003784865,186.45820918306708 21.433864001650363,180.21938283520285 17.75923743378371,177.0999473623815 15.108687122585252,173.05883839708986 14.44604954472743,165.89821562590078 17.518278314964846,159.30470162129495 20.89170598331839,156.18516647239449 23.90369497332722,154.90898871712852 31.192708329530433,154.41269669577014 38.12028300645761,158.52481922792504 40.65035375836305,161.99883364822017 41.61419023480266,169.51398543012328 39.746757061220706,175.0439476732281 34.566135998116806,180.21938283520285 34.084217759780586,186.17462745739613 22.759139157366008,186.59999999997672 21.795302680460736,180.57386319799116 18.54235457116738,178.16339294367936 15.831564479973167,174.33498076559044 14.385809765197337,166.32360134558985 17.036360076395795,159.87188823265024 22.879618716659024,155.26348278758815 30.34935141238384,154.341797805042 36.734768071211874,157.03595026012044 40.5901139783673,161.92793557915138 41.5539504555054,169.51398543012328 39.62627750146203,175.32753422111273 34.686615558108315,180.0066945248982 34.14445753977634,186.17462745739613 22.63865959784016,186.45820918306708 21.915782240219414,180.92834336904343 16.49420205806382,175.3984308387735 14.205090425675735,167.1743719553342 15.409886021632701,162.63691592519172 18.000196553068236,158.45392078225268 22.578419817844406,155.33438157872297 26.373525945469737,154.20000000001164 31.252948109060526,154.62539332243614 36.915487410500646,157.31954461039277 40.46963441884145,161.78613941773074 41.49371067550965,170.29385473008733 39.746757061220706,175.11484432168072 34.50589621858671,180.50296714087017 33.96373820025474,186.10373200656613 22.93985849665478,186.59999999997672 21.85554246022366,180.64475924766157 17.217079415451735,176.39098268188536 15.048447342822328,172.1371784727089 14.385809765197337,168.0960388679523 16.132763379253447,161.00625998107716 19.80738994688727,157.03595026012044" stroke="#4dd2ff" stroke-dasharray="none" stroke-linecap="round" stroke-linejoin="round" stroke-width="0.5"><title>2025-10-01 10.0km</title><desc>1759271073000</desc></polyline><polyline fill="none" opacity="1" points="76.37623298773542,174.2370309161488 70.64090550574474,180.20538990717614 70.4597899010405,186.17369459959446 58.868391200201586,186.52894911903422 57.600581967039034,180.48959612398176 52.95194811327383,176.08438593003666 50.77856085682288,171.6791461542016 50.23521404271014,167.06071785028325 51.62376701203175,161.73172171000624 56.75537581183016,156.18951979995472 63.758512526983395,154.19999999995343 70.33904616441578,155.47897770704003 73.23689583968371,157.46849362767534 75.9536299102474,161.0922392642242 77.76478595705703,166.4212405991857 76.73846419714391,173.1712468105834 74.50470507261343,176.79490570403868 70.64090550574474,179.99223516415805 70.52016176912002,185.88949084543856 66.3545028611552,186.45789823064115 58.445788122247905,186.38684733456466 57.72132570366375,180.7027507055318 53.193435586290434,176.43964591331314 50.59744525211863,171.75019864330534 50.899304593447596,163.57911194121698 53.133063717745245,159.4580035143299 56.272400866029784,156.54479055776028 61.88698461186141,154.34210875729332 70.33904616441578,155.47897770704003 75.9536299102474,160.87907831021585 77.64404222089797,165.6396564457682 77.52329848450609,170.8265156839043 74.98768001841381,176.51069788675522 70.64090550574474,180.34749303077115 70.097558691632,186.24474551877938 58.56653185910545,186.38684733456466 57.84206944028847,180.7027507055318 51.02004832983948,173.2422991382191 50.23521404271014,168.9791458629188 50.77856085682288,163.6501653076266 54.521616687532514,158.03692563943332 61.70586900715716,154.41316312440904 69.4938400092069,155.26581492897822 73.78024265356362,158.25008751702262 77.28181101125665,164.50280510575976 77.58367035235278,170.5423052808037 75.04805188672617,176.22648994647898 70.58053363743238,180.27644147298997 70.58053363743238,185.81843988777837 69.8560712186154,186.31579643045552 58.56653185910545,186.38684733456466 57.78169757174328,180.7027507055318 53.79715426824987,177.07911339821294 51.20116393454373,172.8159850575612 50.416329647414386,165.28439061366953 54.09901360957883,158.32114146085223 61.585125270532444,154.41316312440904 70.82202111044899,155.6921404157183 75.65177056891844,160.59486359736184 77.64404222089797,166.06597519019851 77.16106727486476,172.17651341680903 74.74619254563004,176.72385376138845 70.76164924213663,180.1343383337953 70.4597899010405,186.03159273788333 66.41487472923473,186.59999999997672 58.56653185910545,186.59999999997672 57.72132570366375,180.5606476587709 53.31417932244949,176.51069788675522 50.71818898874335,171.75019864330534 50.899304593447596,163.72121866652742 55.97054152493365,156.54479055776028 61.162522193277255,154.48421748389956 66.29413099284284,154.19999999995343 69.4938400092069,155.12370637181448 74.14247386297211,158.53430324589135 77.16106727486476,164.07648534525651 77.64404222089797,170.11598944553407 75.77251430554315,175.30281328980345 70.64090550574474,180.20538990717614 70.03718682331964,186.31579643045552 58.56653185910545,186.52894911903422 57.540210099192336,180.7027507055318 53.133063717745245,176.72385376138845 51.26153580262326,173.1001944753807 50.2955859110225,166.27913445868762 53.67641053209081,158.96062660822645 57.600581967039034,155.83424884971464 62.30958768934943,154.34210875729332 66.23375912453048,154.27105438249419 70.82202111044899,155.76319463644177" stroke="#4dd2ff" stroke-dasharray="none" stroke-linecap="round" stroke-linejoin="round" stroke-width="0.5"><title>2025-09-27 10.0km</title><desc>1758965825000</desc></polyline><polyline fill="none" opacity="1" points="110.1237764141988,177.2633931734017 106.33476068009622,180.81689383310732 106.39396405103616,186.46064865530934 94.55328988283873,186.46064865530934 94.07966291555203,180.6078649259871 89.99463032791391,177.4724231674336 87.09366515651345,172.5253617602284 86.9160550441593,164.3034008992836 90.46825729450211,158.58977298962418 92.95479886978865,156.0116559752496 95.91496741189621,154.89679136365885 102.90096517116763,154.89679136365885 110.597403380787,157.9626643966767 113.43916518124752,165.27889327530283 113.61677529383451,169.38988060760312 112.07748765172437,174.47632009768859 106.33476068009622,180.88657012052136 106.33476068009622,186.39097297179978 94.49408651166596,186.59999999997672 94.02045954507776,180.6078649259871 88.10012246086262,174.05825809494127 86.44242807733826,166.4634177433909 87.44888538168743,162.97951602272224 90.76427414896898,158.45041557739023 96.0333741537761,155.10582862532465 103.61140562128276,154.96647045837017 108.05165843456052,156.56908755667973 110.36058989726007,158.58977298962418 113.49836855195463,166.39373989403248 113.26155506866053,171.34084845421603 110.00536967231892,177.82080633967416 106.45316742174327,180.39883595093852 106.03874382609501,186.25162158190506 94.49408651166596,186.53032433136832 93.78364606155083,180.18980690772878 88.21852920250967,175.10341259243432 86.56083481898531,170.43504269002005 86.38322470639832,166.67245124664623 87.74490223568864,162.21305511204991 93.60603594896384,156.0116559752496 101.53928764211014,154.68775403365726 109.65014944714494,157.2658763541258 112.78792810207233,162.97951602272224 113.37996181007475,169.80794564436655 111.42625057231635,175.45179704780458 106.51237079268321,180.39883595093852 106.15715056750923,186.53032433136832 94.49408651166596,186.46064865530934 93.84284943249077,180.7472175383009 89.34339324850589,176.70597952441312 86.56083481898531,170.2956878435798 87.62649549427442,162.21305511204991 92.65878201578744,156.91748204967007 97.51345842471346,154.75743315112777 108.28847191762179,156.29037182655884 110.77501349314116,158.52009428711608 113.08394495607354,164.93050331104314 113.43916518124752,169.80794564436655 110.83421686384827,176.42727251863107 106.39396405103616,180.67754123586928 106.03874382609501,186.39097297179978 94.43488314095885,186.3212972805486 93.60603594896384,180.39883595093852 89.6986134739127,177.19371649378445 87.56729212333448,173.77954994211905 86.56083481898531,165.76663890859345 89.16578313615173,160.19238106085686 93.96125617413782,155.31486581935314 99.7631865167059,154.19999999995343 109.94616630137898,157.61427046952303 112.90633484348655,163.53694156609708 113.43916518124752,170.01697806076845 111.48545394302346,175.45179704780458 106.45316742174327,180.53818860842148 106.0979471965693,186.46064865530934 94.55328988283873,186.59999999997672 93.78364606155083,180.7472175383009 89.81702021532692,177.05436311167432 87.33047864004038,172.5253617602284 86.9752584148664,164.23372281581396 90.52746066567488,158.52009428711608 93.72444269107655,155.80261900782352 96.74381460389122,154.61807490856154 108.70289551373571,156.29037182655884 110.83421686384827,158.1717006623512" stroke="#4dd2ff" stroke-dasharray="none" stroke-linecap="round" stroke-linejoin="round" stroke-width="0.5"><title>2020-04-24 10.0km</title><desc>1587724293000</desc></polyline><polyline fill="none" opacity="1" points="128.01229895441793,157.18336615036242 125.65430602594279,159.33415638300357 122.82471451163292,165.43958608066896 122.88366433465853,170.98992621415528 125.06480779359117,176.12394801946357 130.07554276683368,180.70290572370868 131.01873993850313,186.59999999997672 142.33710599527694,185.76747233432252 142.16025652573444,180.4947719926131 147.28889114549384,175.36078521958552 148.8805363723077,170.92054725938942 148.7626367257908,165.92524276243057 146.99414202943444,161.13803939614445 141.86550740967505,155.93451689486392 138.85906642582268,154.963188012538 134.3199300384149,155.1019493714557 126.12590461154468,159.05663546861615 122.29416610277258,168.00662437040592 123.7089618598111,173.97321416332852 130.07554276683368,180.84166150685633 130.78294064546935,186.3918681849027 142.27815617248416,185.90622702043038 142.27815617248416,180.56414991052588 147.58364026155323,174.66700006724568 149.7058338969946,167.798486514017 147.05309185246006,159.75043752940837 147.7015399078373,158.9178749662242 145.1077476865612,159.33415638300357 140.98126006149687,156.42018078366527 134.3788798614405,154.7550459173508 127.18700142926537,158.01593096833676 123.06051380443387,164.53765126614599 123.65001203655265,173.97321416332852 129.89869329705834,180.70290572370868 130.37029188289307,186.2531136039761 141.8065575864166,186.04498167638667 142.21920634899288,180.21726024593227 147.1120416757185,175.56892061867984 148.99843601882458,169.53296658437466 148.23208831693046,163.98261382593773 144.8129985705018,158.43221297115088 137.6211201385595,154.963188012538 132.5514353418257,155.44885263772449 126.06695478828624,158.5015932788956 122.70681486511603,164.9539290307439 123.2373632742092,172.79377640248276 125.47745655640028,176.67897493898636 129.6628940042574,180.56414991052588 130.25239223637618,186.18373630236601 141.8065575864166,186.04498167638667 141.86550740967505,180.56414991052588 146.99414202943444,175.4301636935561 148.70368690253235,170.0186201626202 147.76048973132856,163.35819613095373 144.28245016164146,158.29345233371714 141.3349590008147,156.14265860652085 136.50107349734753,155.1019493714557 133.31778304371983,155.17133003968047 127.48175054555759,157.18336615036242 123.47316256677732,162.66439797804924 122.29416610277258,166.61903738311958 123.47316256677732,173.9038355316734 126.47960355086252,177.92778374959016 129.72184382751584,180.3560161345522 130.42924170615152,186.3224908983102 141.86550740967505,186.11435899330536 141.86550740967505,180.56414991052588 147.40679079201072,174.73637861636234 148.8805363723077,167.03531379502965 147.1120416757185,161.41555940906983 141.39390882407315,155.656994507357 136.6189731436316,154.19999999995343 127.59965019184165,157.32212702877587 123.59106221329421,163.42757590475958 122.47101557231508,167.7291072133812 123.82686150609516,174.2507286152686 129.95764312054962,180.98041725967778 130.60609117592685,186.11435899330536 142.10130670270883,185.76747233432252 142.04235687945038,180.77228361892048 147.34784096851945,174.8057571578538 148.82158654904924,166.75779621716356 146.8172925596591,161.20741941069718" stroke="#4dd2ff" stroke-dasharray="none" stroke-linecap="round" stroke-linejoin="round" stroke-width="0.5"><title>2020-04-16 10.0km</title><desc>1587033949000</desc></polyline><polyline fill="none" opacity="1" points="170.4071317561902,154.48297639004886 163.614901131019,157.312733546074 159.52754110842943,162.123292573262 158.56580933881924,170.40020091063343 161.27067994163372,176.27179023559438 166.1995552626904,181.01146841794252 166.62031291192397,186.52925939281704 177.9206612086855,186.03407492721453 178.58185180043802,181.08220962289488 182.90964476531371,176.6254987504799 185.49429889698513,170.3294585487456 185.07354124775156,164.3163297828869 181.64737181714736,158.2324019819498 179.48347533494234,156.25157604948618 174.55460001411848,154.4122323039337 169.62572469282895,154.76595265726792 162.53295288980007,157.73719606210943 159.22699993057176,163.3259267937392 158.3854846318718,167.28752973943483 159.8280822869856,174.50324478914263 166.0793387913145,180.65776227868628 167.10117879672907,186.52925939281704 178.34141885815188,186.10481558809988 178.5217435650993,180.44553850317607 183.5107271214947,175.493630829209 185.6145153681282,169.83426180080278 184.8331083052326,163.89187154272804 180.3249906336423,157.38347731815884 173.65297647961415,154.5537204684806 164.27609172277153,156.7467830958194 159.8280822869856,162.264779066958 158.5057011032477,166.79233068518806 159.1067834594287,172.45172607182758 162.1723034759052,177.40365680819377 166.1995552626904,180.86998598527862 166.92085409001447,186.59999999997672 178.46163532929495,186.10481558809988 178.5217435650993,180.37479722936405 183.99159300653264,174.92769613309065 185.6145153681282,169.05609472462675 185.07354124775156,164.599301789538 182.36867064470425,159.50578690925613 177.80044473754242,155.7563686275971 174.61470824945718,154.4122323039337 169.0246423368808,154.9781847773702 162.53295288980007,157.59570858738152 159.04667522385716,164.17484373331536 158.44559286767617,168.5608970115427 159.7078658156097,174.36176094657276 166.13944702711888,180.65776227868628 166.62031291192397,186.3877781551564 178.64196003624238,185.75111220683903 178.58185180043802,180.30405594746117 183.75116006401367,175.35214720113436 185.4341906614136,169.7635193777387 184.77300006942824,163.4674130267813 179.7840165128,157.38347731815884 174.19395060022362,154.20000000001164 168.90442586573772,155.11967281921534 162.53295288980007,158.0201709193061 159.28710816637613,163.60889922943898 158.5057011032477,170.0464890244766 161.09035523491912,176.059565034986 166.01923055551015,180.79924475745065 166.74052938329987,186.59999999997672 178.64196003624238,185.96333425852936 178.64196003624238,180.44553850317607 183.5107271214947,175.63511442678282 185.5544071327895,169.4098071468179 184.65278359828517,163.60889922943898 181.0462894611992,158.2324019819498 174.55460001411848,154.6244645389961 168.78420939436182,154.83669670502422 161.63132935529575,158.51537662488408 158.5057011032477,167.3582724306616 160.12862346484326,174.57398669893155 166.01923055551015,180.58702102774987 166.68042114772834,186.3170375250047 178.28131062258035,186.24629688687855 178.5217435650993,180.65776227868628 183.39051065035164,175.63511442678282 185.37408242560923,168.98535221698694 183.93148477072828,162.0525493149762 179.0026094499044,156.534551550576 174.43438354274258,154.6244645389961 171.3688635258004,154.6244645389961" stroke="#4dd2ff" stroke-dasharray="none" stroke-linecap="round" stroke-linejoin="round" stroke-width="0.5"><title>2020-04-14 10.0km</title><desc>1586861907000</desc></polyline><polyline fill="none" opacity="1" points="17.89986266172491,199.06762146478286 15.15882244007662,205.51965826825472 15.218410270987079,211.34046238998417 17.1848086907994,216.4599215586204 22.368949979543686,221.36895397800254 22.905240457504988,227.0493593274732 34.34610399114899,226.76884665264515 34.52486748388037,221.0884388423292 39.113130463520065,216.6703094257973 41.258292376296595,211.76124138257 40.543238405138254,204.25730830064276 36.49126590369269,198.22604670678265 28.9236113789957,195.42078961251536 23.858645751839504,196.19223652518122 18.078626154456288,198.85722787771374 14.980058947345242,206.4313539363793 15.575937256217003,212.8131876680418 17.721099168993533,217.09108495467808 22.19018648681231,221.29882520542014 23.024416119325906,227.40000000002328 34.40569182229228,226.62859026977094 34.64404314570129,220.94818122911965 39.29189395625144,216.3196629427839 41.61581936152652,209.9378637726768 41.01994105242193,205.02874468441587 37.50425902893767,198.92735908110626 30.711246305843815,195.63118431618204 24.633287553675473,195.98184200370451 17.95945049240254,199.06762146478286 14.384180638473481,205.8703106001485 14.682119792792946,211.20020266494248 16.052639903733507,214.6365571807837 22.249774317489937,221.29882520542014 22.488125641364604,226.90910300525138 34.34610399114899,226.62859026977094 34.46527965296991,221.36895397800254 39.8877722651232,215.54824001161614 41.31788020697422,210.2885137119447 40.90076539083384,205.4495277791284 36.43167807278223,197.80525891738944 30.890009798575193,195.56105275580194 24.15658490662463,195.91171048145043 18.376565308775753,198.57670298882294 14.503356300061569,207.7638299112441 16.41016688919626,215.05733403138584 22.19018648681231,221.5092115002917 22.547713472042233,226.90910300525138 34.10775266750716,226.69871846493334 34.34610399114899,221.15856763761258 38.993954801466316,216.4599215586204 41.139116714242846,211.27033253118861 40.78158972878009,204.8183530344977 36.90838072006591,198.78709666675422 30.532482813112438,195.42078961251536 22.964828288415447,196.5428939088015 17.89986266172491,198.92735908110626 14.44376846915111,207.55343915015692 15.87387641100213,214.56642767897574 22.07101082475856,221.4390827428433 22.547713472042233,226.69871846493334 34.52486748388037,226.55846206698334 34.46527965296991,220.94818122911965 39.47065744874999,215.7586281748372 41.31788020697422,210.2885137119447 40.662414067192,204.53783072839724 36.1933267491404,198.22604670678265 27.135976451681927,195.0 20.223788066767156,197.17407672078116 15.81428857985884,203.13521737448173 14.622531961882487,208.18461122829467 15.09923460916616,212.9534470438375 16.41016688919626,215.47811060864478 22.19018648681231,221.29882520542014 22.72647696500644,226.9792311700876 34.226928329560906,226.69871846493334 34.226928329560906,220.87805241072783 38.51725215441547,217.16121418302646 41.139116714242846,210.21838373923674 40.06653575785458,203.20534811425023" stroke="#4dd2ff" stroke-dasharray="none" stroke-linecap="round" stroke-linejoin="round" stroke-width="0.5"><title>2020-04-13 10.0km</title><desc>1586775592000</desc></polyline><polyline fill="none" opacity="1" points="50.72138246381655,202.72464763885364 49.44517665961757,206.51541388878832 49.80980688938871,212.80946827848675 53.03070725267753,218.0306269635912 56.92009637085721,221.53521717322292 57.71012853528373,227.113914241374 68.40594861004502,226.8278283586842 69.43906759470701,225.96956996672088 69.43906759470701,221.1776067794999 74.30080399219878,215.67038225976285 76.06318343617022,212.02271476056194 76.48858537105843,203.36836419656174 75.51623809128068,200.3643482257612 78.79791016015224,195.78677380044246 77.5217043554876,197.50336792867165 73.45000012242235,199.36300653172657 66.03585211606696,195.42914946191013 59.04710604483262,195.929823481536 53.942282827338204,198.50471244263463 50.052893709158525,204.08360407996224 49.870578594272956,212.5948992301128 52.11913167848252,216.81474438193254 56.980868075741455,221.53521717322292 57.52781342039816,227.2569571362692 68.64903542981483,226.756306868745 69.43906759470701,221.03456256794743 74.30080399219878,216.24256356898695 76.36704196128994,211.3074834762956 76.06318343617022,205.15646245254902 73.20691330265254,199.64910431369208 66.27893893630244,195.42914946191013 59.411736274603754,195.64372408826603 52.969935548026115,199.36300653172657 50.41752393892966,203.58293624292128 49.44517665961757,207.44522115483414 50.47829564404674,214.4544953322038 52.05835997336544,217.3869246991817 56.73778125597164,221.46369510999648 57.467041715746745,227.2569571362692 68.64903542981483,226.8278283586842 69.5606110044755,220.89151832502102 73.5715435326565,217.31540218676673 75.75932491128333,213.52469793579075 76.42781366594136,207.73131543496856 74.84774933662266,201.7233095242991 71.2622187435627,197.71794188086642 65.06350483675487,195.42914946191013 58.56093240482733,196.00134831044124 53.577652597334236,198.8623351153219 51.14678439870477,201.79483372578397 49.262861544732004,207.73131543496856 49.44517665961757,211.1644371264847 51.57218633359298,216.88626694859704 56.798552960855886,221.67826127639273 57.34549830574542,227.1854356926051 68.8313505447004,226.89934984088177 69.62138270935975,221.03456256794743 74.42234740196727,216.24256356898695 76.24549855128862,212.23728399479296 76.36704196128994,206.01474789559143 74.84774933662266,201.65178531524725 69.0136656598188,196.64507142239017 62.146462998120114,195.35762457089731 54.91463010665029,197.57489258726127 50.47829564404674,202.93921989452792 49.38440495473333,206.01474789559143 49.566720069618896,211.9511916670017 52.301446793135256,217.67301467206562 56.55546614108607,221.53521717322292 57.467041715746745,227.40000000002328 69.19598077470437,226.756306868745 69.25675247982144,221.32065096026054 74.84774933662266,215.38429141946835 76.36704196128994,209.87701858382206 74.96929274662398,202.51007531379582 72.41688113776036,198.7908105965471 68.95289395470172,196.14439794514328 61.9033761783503,195.0715249296627 54.67154328711331,197.71794188086642 50.47829564404674,203.01074396434706 49.20208983961493,208.37502711173147 51.207556103821844,215.95647297624964 56.85932466574013,221.46369510999648 57.34549830574542,227.2569571362692 69.07443736493587,226.756306868745 69.25675247982144,221.392173038912 75.0908361566253,215.38429141946835 76.61012878082693,209.66244858276332 74.72620592685416,201.93788210541243 69.13520906958729,196.502021896129 62.450321523007005,195.0000000000582 59.29019286460243,195.64372408826603" stroke="#4dd2ff" stroke-dasharray="none" stroke-linecap="round" stroke-linejoin="round" stroke-width="0.5"><title>2020-04-12 10.0km</title><desc>1586649823000</desc></polyline><polyline fill="none" opacity="1" points="106.64404314593412,221.4390827428433 106.10775266773999,227.25974375376245 94.66688913386315,227.0493593274732 94.07101082475856,221.0884388423292 88.70810604351573,216.5300508553628 86.50335630006157,211.05994290974922 87.8738764107693,202.85469433903927 93.11760553042404,196.5428939088015 97.22916586278006,195.0 106.88239446934313,196.47276244714158 110.87477913987823,199.20788381790044 113.55623153061606,206.4313539363793 113.43705586902797,212.0417605591938 111.17271829443052,216.95082647533854 106.46527965320274,221.29882520542014 106.0481648365967,227.18961561913602 94.60730130295269,227.11948747711722 93.95183516293764,221.22869642538717 89.1848086907994,217.09108495467808 87.0396467782557,213.65474346565315 86.32459280733019,207.48330888117198 89.7210991687607,200.18971944064833 93.95183516293764,196.61302536266157 100.98319920990616,195.0 109.6830225221347,198.01565284619574 113.01994105242193,204.95861414191313 113.73499502358027,210.07812377100345 111.6494209417142,215.9690162697807 106.346103991149,221.57934024976566 106.40569182205945,227.18961561913602 94.48812564113177,227.11948747711722 93.95183516293764,221.22869642538717 88.41016688896343,216.60018014430534 86.7417076237034,213.30409534962382 86.32459280733019,207.7638299112441 87.21841027098708,203.5560016995878 93.1771933613345,196.7532882479718 97.58669284824282,195.07013162097428 105.57146218954585,196.4026309780893 110.69601564737968,199.62867069570348 113.4966436997056,206.01057147973916 113.61581936152652,210.2885137119447 111.47065744898282,216.5300508553628 106.58445531479083,221.4390827428433 106.28651616047136,227.18961561913602 94.48812564113177,227.18961561913602 93.83265950134955,221.22869642538717 89.06563302897848,217.16121418302646 86.98005894734524,213.30409534962382 86.62253196188249,205.8703106001485 89.7210991687607,200.18971944064833 93.35595685406588,196.82341967901448 96.03740924480371,195.77144741395023 102.77083413675427,195.42078961251536 109.56384685984813,198.01565284619574 113.37746803788468,205.30926677776733 113.55623153061606,210.56903352646623 111.11313046352006,217.16121418302646 106.58445531479083,221.15856763761258 106.28651616047136,226.9792311700876 94.54771347227506,227.40000000002328 93.77307167020626,221.0884388423292 88.76769387442619,216.7404386997223 86.98005894734524,213.3742249882198 86.26500497641973,206.0807019083295 89.6615113383159,200.18971944064833 93.23678119224496,196.82341967901448 96.27576056844555,195.56105275580194 100.80443571717478,195.1402632345562 108.01456325664185,196.6831568091293 110.75560347829014,199.13775264535798 113.55623153061606,207.2729180289316 113.43705586902797,212.18202010192908 111.05354263237678,217.16121418302646 106.76321880752221,221.36895397800254 106.46527965320274,227.25974375376245 94.54771347227506,227.25974375376245 93.77307167020626,221.29882520542014 89.42316001444124,217.9326351924683 86.7417076237034,213.86513224436203 86.56294413097203,205.73004969005706 89.24439652170986,200.40011259459425 94.36894997954369,196.19223652518122 100.08938174624927,195.0 103.06877329177223,195.42078961251536 108.07415108731948,197.24420810642187 110.63642781623639,199.27801498339977" stroke="#4dd2ff" stroke-dasharray="none" stroke-linecap="round" stroke-linejoin="round" stroke-width="0.5"><title>2020-04-08 10.0km</title><desc>1586343893000</desc></polyline><polyline fill="none" opacity="1" points="142.43548434367403,221.36895397817716 142.19713307148777,227.25974375376245 130.45833292626776,227.18961561931064 129.74327911017463,220.94818122911965 125.39336839667521,217.44173102028435 122.77150440472178,213.16383605031297 122.53315313300118,207.34304832079215 123.84408512874506,202.57417118223384 129.20698874839582,196.9636825186899 134.33154109609313,195.21039484045468 139.03897871798836,195.70131586893694 145.29569960734807,198.57670298905578 148.27509050699882,204.1871776750777 149.5264346851036,210.56903352664085 146.78539505717345,217.58198939316208 142.37589652556926,221.43908274295973 142.137545253383,227.32987188058905 130.57750856224447,227.11948747711722 130.1008060183376,221.43908274295973 124.67831458058208,216.3196629427839 122.4735653148964,211.05994290980743 122.83109222282656,205.23913626605645 125.45295621454716,200.04945730004692 129.20698874839582,196.75328824785538 131.76926492224447,195.84157895151293 139.57526907976717,195.70131586893694 145.1169361534994,198.43644049891736 149.3476712310221,206.22096274257638 148.75179305113852,213.72487306647236 146.1895168775227,218.2131516954978 142.37589652556926,221.50921150034992 142.37589652556926,227.18961561931064 130.69668419845402,227.32987188058905 129.9816303823609,221.43908274295973 124.14202421857044,215.54824001179077 122.23521404294297,208.53526211722055 123.78449731087312,202.78456356137758 129.0878131124191,196.5428939088597 135.88082436379045,195.0 143.92517979326658,197.45460221765097 146.54704378498718,200.11958837427665 149.58602250297554,207.34304832079215 148.6326174151618,213.72487306647236 145.77240215125494,218.49366807664046 142.61424779775552,221.36895397817716 142.25672088982537,227.18961561931064 130.45833292626776,227.25974375376245 129.86245474638417,221.29882520559477 124.3803754907567,216.5300508555374 122.29480186081491,210.49890358449193 123.18861913098954,204.2573083008756 129.26657656626776,196.47276244743261 135.88082436379045,195.21039484045468 144.1039432475809,197.10394532763166 147.4408610551618,201.7326009819517 149.7051981391851,207.9040903808782 149.7647859568242,211.1300727914204 148.2155026893597,215.40798119833926 142.43548434367403,221.29882520559477 142.43548434367403,227.18961561931064 130.8754476525355,227.40000000002328 129.80286692851223,221.71959772659466 124.3803754907567,216.3897922548931 122.35438967891969,211.48072208481608 122.53315313300118,205.6599192240392 125.2741927606985,200.75076769926818 129.86245474638417,196.5428939088597 134.92741927620955,195.35065802949248 138.97939089988358,195.63118431624025 145.17652397137135,198.22604670672445 148.5134417791851,204.11704704142176 149.28808341315016,212.0417605593684 147.67921232734807,216.3897922548931 142.55465997965075,221.22869642550359 142.37589652556926,226.90910300525138 131.23297456046566,227.40000000002328 130.45833292626776,226.97923117032042 129.80286692851223,221.50921150034992 125.7508953048382,218.2131516954978 122.77150440472178,212.95344704389572 122.29480186081491,207.76382991136052 123.54614603891969,203.20534811442485 129.20698874839582,196.5428939088597 132.12679183017462,195.35065802949248 139.39650562568568,195.70131586893694 143.8060041575227,197.38447085494408 147.67921232734807,201.87286275811493" stroke="#4dd2ff" stroke-dasharray="none" stroke-linecap="round" stroke-linejoin="round" stroke-width="0.5"><title>2020-04-07 10.0km</title><desc>1586257895000</desc></polyline><polyline fill="none" opacity="1" points="178.76321734231897,221.08843884267844 178.4652782524936,227.25974375376245 166.8456537432503,226.97923117032042 166.07101210928522,221.43908274295973 161.60192575957626,217.72224773583002 159.09923740383238,212.67292826238554 158.7417104956694,207.27291802910622 161.84027703176253,199.90919512906112 165.89224865543656,195.98184200387914 169.40792991686612,195.07013162126532 175.30712389852852,195.63118431624025 181.08714224398136,198.22604670672445 185.43705295794643,207.06252710858826 184.72199914208613,214.14565050962847 182.04054733202793,218.2131516954978 178.70362952467985,221.15856763790362 178.76321734231897,226.97923117032042 167.02441719709896,227.32987188058905 165.9518364733085,221.43908274295973 160.46975721768104,215.89888691261876 158.801298314007,211.48072208481608 159.2184130398091,205.02874468441587 161.9594526675064,199.90919512906112 168.51411264715716,195.70131586893694 174.23454317473806,195.35065802949248 181.3850813342724,198.01565284631215 185.01993823214434,206.3612235459732 184.30488441628404,214.566427679325 181.623432605993,218.9144424207625 178.76321734231897,221.29882520559477 178.40569043438882,226.83897483273176 167.20318065118045,227.40000000002328 166.30936338123865,221.71959772659466 161.48275012359954,217.65211856825044 159.09923740383238,212.53266882587923 159.2184130398091,205.02874468441587 161.48275012359954,200.610505680379 165.9518364733085,196.47276244743261 170.48051064112224,195.07013162126532 174.89000917272642,195.21039484045468 181.98095951415598,199.2780149836326 184.84117477806285,204.46770013298374 185.01993823214434,212.74305796908448 182.27889860444702,217.79237689566799 178.52486607059836,221.36895397817716 178.40569043438882,226.90910300525138 167.14359283307567,227.25974375376245 166.2497755633667,221.43908274295973 160.82728412584402,216.67030942603014 158.8608861316461,211.8313711883966 158.98006176762283,206.08070190850412 161.89986484963447,200.11958837427665 166.5477146531921,196.05197351862444 173.99619190278463,195.0 181.14673006208614,198.57670298905578 184.12612096196972,202.3637787348125 185.19870168576017,205.94044104387285 185.49664077628404,210.84955321979942 184.54323568800464,214.35603912861552 181.98095951415598,218.35340990131954 178.52486607059836,221.36895397817716 178.4652782524936,227.0493593274732 167.26276846928522,227.25974375376245 166.30936338123865,221.92998388473643 161.00604757945985,216.67030942603014 158.801298314007,211.41059224127093 159.15882522170432,205.16900574654574 161.60192575957626,200.32998155103996 165.11760702123865,196.9636825186899 168.39493701118045,195.70131586893694 175.90300207864493,195.42078961263178 179.89538588444702,196.6831568091875 183.11312805581838,200.8208986974787 185.25828950409777,205.6599192240392 185.13911386788823,213.51448424247792 181.86178387817927,218.70405528292758 178.70362952467985,221.6494689923129 178.1673391626682,227.0493593274732 167.08400501520373,227.40000000002328 166.07101210928522,221.50921150034992 161.5423379414715,217.44173102028435 159.15882522170432,212.95344704389572 158.5033592239488,208.74565255921334 160.17181812785566,202.78456356137758 165.6538973832503,196.6831568091875 170.3613350049127,195.28052643878618 174.4728944466915,195.42078961263178 180.25291279214434,197.24420810642187 183.23230369226076,200.610505680379" stroke="#4dd2ff" stroke-dasharray="none" stroke-linecap="round" stroke-linejoin="round" stroke-width="0.5"><title>2020-04-02 10.0km</title><desc>1585825459000</desc></polyline><polyline fill="none" opacity="1" points="39.667573551647365,257.14524817606434 34.705162522150204,262.42930424475344 33.99624666082673,268.1304738537874 22.65359287848696,267.8523691939772 21.826524373609573,262.15119711501757 16.805037022335455,257.63193936937023 14.914594725240022,253.18217758013634 14.79644208168611,248.03710205934476 15.977968517458066,243.795860148035 19.46347150229849,239.48506096418714 25.489256324013695,236.28670737764332 31.810422754613683,236.7038848362281 35.41407838347368,238.0249449996627 38.01343654189259,240.24988228676375 40.90817630896345,246.92464787559584 41.26263424009085,252.76501083088806 39.31311562098563,257.7709939284832 34.350704591488466,262.22072390886024 34.1734756261576,268.20000000001164 22.594516556477174,268.0609477001126 22.062829660484567,262.3597774737282 17.750258170533925,258.95295646280283 15.505357943009585,255.47658985469025 14.560136794345453,247.6199319663574 17.573029205203056,241.15376085683238 25.134798393351957,236.3562369729625 31.101506893290207,236.5648257136927 35.650383670581505,238.09447440650547 38.367894472321495,240.66705716965953 40.90817630896345,246.78559096727986 41.38078688341193,251.93067651917227 38.8995813683141,258.11863019369775 34.58700987836346,262.15119711501757 34.350704591488466,268.1304738537874 22.53544023516588,267.8523691939772 22.062829660484567,262.568357764394 16.332426447886974,256.8671387571958 14.560136794345453,249.42766707763076 16.09612116077915,243.44821612571832 21.88560069538653,237.67729785171105 27.67508022999391,236.14764816465322 36.00484160124324,238.37259195913794 40.37648941320367,244.56067633419298 41.49893952696584,251.30492507386953 40.140184125863016,256.380446983967 34.350704591488466,262.3597774737282 34.29162826947868,268.0609477001126 22.712669200496748,268.0609477001126 21.70837173028849,262.22072390886024 17.750258170533925,258.81390215997817 15.209976334124804,255.05942459654761 14.560136794345453,248.38474359625252 17.809334492543712,241.15376085683238 24.721264141146094,235.79999999998836 30.333514710189775,236.42576656065648 37.77713125455193,240.5975280411658 41.20355791808106,246.85511942516314 41.439863205188885,252.13926019903738 38.48604711610824,258.81390215997817 34.527933556819335,262.15119711501757 34.11439930414781,267.9914215389872 22.771745522273704,268.1304738537874 21.88560069538653,262.0816703137825 17.750258170533925,258.8834293149994 15.623510586563498,255.82422736269655 14.61921311635524,248.31521530391183 17.21857127477415,241.9185801910935 22.18098230427131,237.1210620237398 26.493553794221953,236.14764816465322 32.578414937946945,237.1210620237398 35.53223102702759,238.0249449996627 37.9543602198828,240.66705716965953 41.20355791808106,247.13323318195762 41.5580158487428,252.41737166623352 38.722352403216064,258.39673907053657 34.58700987836346,262.42930424475344 34.11439930414781,268.0609477001126 22.65359287848696,268.0609477001126 22.062829660484567,262.3597774737282 17.632105527212843,258.39673907053657 14.737365759676322,252.55642735474976 14.441984151024371,248.45427188120084 15.91889219544828,243.72633135860087 21.41299012117088,237.60776839964092 26.907088046893477,236.07811854669126 33.700865051709116,237.5382389400038 38.01343654189259,240.8756445090985" stroke="#4dd2ff" stroke-dasharray="none" stroke-linecap="round" stroke-linejoin="round" stroke-width="0.5"><title>2020-03-23 10.0km</title><desc>1584960411000</desc></polyline><polyline fill="none" opacity="1" points="80.12783934012987,236.63435527862748 71.85715249902569,241.43187708378537 74.45651122042909,246.71606250148034 74.8109692283906,252.4173716661171 72.8614501869306,257.63193936948664 67.5445800749585,262.4988310082117 67.66273274389096,267.6437906200881 56.201923835556954,267.9914215388708 55.31577881681733,262.2207239087438 51.357664400245994,258.88342931494117 48.52200034027919,253.94698258279823 47.87216065987013,249.84483599546365 48.52200034027919,245.25596298539313 50.94413005793467,241.22328992479015 57.67883219989017,235.80000000004657 63.40923665440641,235.9390592884156 69.49409911595285,237.88588616315974 71.73899983009323,239.97176554769976 74.69281655899249,246.22936303185998 74.92912189732306,251.23539709777106 72.6842211834155,257.7014666525647 67.89903808245435,261.94261668861145 67.2491984020453,267.7828430100926 56.14284750097431,268.20000000001164 55.197626147884876,262.2902506949031 51.18043539649807,258.7443749969825 48.640153009444475,253.94698258279823 48.226618667598814,246.85511942510493 51.003206392750144,241.5709351519472 57.38345052720979,235.8695296481019 64.88614501873963,236.147648164595 70.38024413469248,238.51165068999398 74.16112954774871,244.699733724643 74.92912189732306,251.7220927719609 72.6842211834155,257.7014666525647 67.83996174787171,262.35977747366996 67.66273274389096,267.8523691940354 56.02469483180903,267.9914215388708 55.25670248246752,262.15119711495936 51.23951173131354,258.3272118626046 48.52200034027919,253.94698258279823 48.285695001948625,247.0637047541677 50.76690105441958,241.36234803823754 58.50590088404715,235.80000000004657 67.72180907870643,236.84294392884476 71.79807616467588,239.97176554769976 74.22020588233136,244.699733724643 74.92912189732306,251.44398100307444 72.8614501869306,257.42335747455945 67.89903808245435,262.35977747366996 67.72180907870643,267.9218953701784 56.02469483180903,268.13047385396203 55.197626147884876,261.94261668861145 50.76690105441958,257.9100484570372 48.75830567884259,254.36414856393822 48.3447713367641,246.15983450616477 51.062282727099955,241.22328992479015 57.44252686179243,236.28670737770153 63.94092366541736,236.28670737770153 69.96670979238115,238.3030625823303 71.85715249902569,239.83270713267848 74.63374022440985,246.4379485641839 75.04727456625551,251.79162069497397 72.38883951026946,257.9100484570372 67.89903808245435,262.4293042445788 67.66273274389096,267.9218953701784 55.96561849722639,267.9218953701784 55.197626147884876,262.0816703137243 48.994611016940325,254.71178667416098 48.16754233301617,251.65256484091515 48.40384767111391,245.8121917640674 51.357664400245994,240.87564450927312 58.21051921136677,236.56482571351808 66.36305338307284,237.05153251125012 72.03438150277361,240.04129474353977 74.33835855149664,244.49114762758836 74.9881982319057,251.93067651928868 72.50699217943475,258.3272118626046 68.01719075161964,262.15119711495936 68.01719075161964,267.8523691940354 55.847465828061104,267.9218953701784 55.43393148598261,262.15119711495936" stroke="#4dd2ff" stroke-dasharray="none" stroke-linecap="round" stroke-linejoin="round" stroke-width="0.5"><title>2019-12-13 10.0km</title><desc>1576239112000</desc></polyline><polyline fill="none" opacity="1" points="107.34131702338345,235.79999999999563 105.48701095103752,236.897585697865 105.97498623322463,237.9696362763134 106.02920570905553,238.95234073788015 105.79064001550432,239.64150521124975 104.7713138704421,240.6880065187288 104.7170943946694,241.17296738774894 104.91228450759081,246.52016674894548 106.06173739448423,246.9540577249354 106.74490278959274,247.4262313836516 108.44739432970528,247.63041400150541 108.62089665228268,247.88564177636727 108.93536961195059,261.13120464562235 109.1956230957876,263.47901039943827 109.1197158297291,267.81722410170914 108.64258444262668,267.9958530088916 103.10135401575826,267.9320570016571 100.95426277408842,268.1999999999971 99.6963709355332,268.0596489815798 99.39274187100818,265.6736561057405 99.15417617751518,254.89142838400585 95.0768715973245,254.3044385682515 94.88168148440309,254.04922469307348 94.10092103289207,253.9343782689757 93.85151144413976,253.05388529974152 94.07923324254807,252.64553850174707 93.95995039580157,252.3775601466623 92.92978035559645,251.4842945626442 91.98636147665093,251.76503590426 91.47669840411982,251.5991433741292 91.02125480741961,250.94833196265245 90.8043769042124,250.05505554637784 90.8369085896993,243.58497995509242 91.10800596867921,241.88764292519045 91.38994724286022,241.2240157841734 91.32488387188641,240.50933622175216" stroke="#4dd2ff" stroke-dasharray="none" stroke-linecap="round" stroke-linejoin="round" stroke-width="0.5"><title>2019-11-23 10.0km</title><desc>1574497580000</desc></polyline></svg>