<?xml version="1.0" encoding="utf-8" ?>
<svg baseProfile="full" height="300mm" version="1.1" viewBox="0,0,200,300" width="200mm" xmlns="http://www.w3.org/2000/svg" xmlns:ev="http://www.w3.org/2001/xml-events" xmlns:xlink="http://www.w3.org/1999/xlink"><defs /><rect fill="#222222" height="300" width="200" x="0" y="0" /><text fill="#FFFFFF" style="font-size:12px; font-family:Arial; font-weight:bold;" x="10" y="20">Over 10km Runs</text><text fill="#FFFFFF" style="font-size:4px; font-family:Arial" x="10" y="280">Runner</text><text fill="#FFFFFF" style="font-size:9px; font-family:Arial" x="10" y="290">Floyd Li</text><text fill="#FFFFFF" style="font-size:4px; font-family:Arial" x="65" y="280">SPECIAL TRACKS</text><rect fill="yellow" height="2.6" width="2.6" x="65" y="283" /><text fill="#FFFFFF" style="font-size:3px; font-family:Arial" x="70" y="285.5">Over 20.0 km</text><rect fill="red" height="2.6" width="2.6" x="65" y="287" /><text fill="#FFFFFF" style="font-size:3px; font-family:Arial" x="70" y="289.5">Over 40.0 km</text><text fill="#FFFFFF" style="font-size:4px; font-family:Arial" x="120" y="280">STATISTICS</text><text fill="#FFFFFF" style="font-size:3px; font-family:Arial" x="120" y="285">Number: 17</text><text fill="#FFFFFF" style="font-size:3px; font-family:Arial" x="120" y="290">Weekly: 1.4</text><text fill="#FFFFFF" style="font-size:3px; font-family:Arial" x="141" y="285">Total: 170.2 km</text><text fill="#FFFFFF" style="font-size:3px; font-family:Arial" x="141" y="290">Avg: 10.0 km</text><text fill="#FFFFFF" style="font-size:3px; font-family:Arial" x="167" y="285">Min: 10.0 km</text><text fill="#FFFFFF" style="font-size:3px; font-family:Arial" x="167" y="290">Max: 10.1 km</text><polyline fill="none" points="47.947978218551725,42.63932286173804 49.21972460951656,48.362198225571774 48.84568155370653,53.73285999544896 45.254868214484304,60.864339633903 40.61673431843519,64.73820358410012 39.793839594349265,72.30979345581727 25.580203460995108,72.75 24.458074292633682,65.53058257250814 17.87491650460288,59.015443512937054 15.106997889000922,51.35568621207494 15.780275390017778,43.695856730802916 19.22147150663659,38.23708362481557 23.560370957944542,34.62722965958528 31.789318193215877,32.25 38.52209320385009,33.48263846914051 42.63656682148576,35.6837739427574 48.097595441155136,43.255634452274535 49.144915998447686,51.09155536291655 46.8258490501903,58.66327234666096 40.2426912621595,65.2664563288563 39.8686482058838,72.30979345581727 25.280969015788287,72.4858761021751 24.158839847892523,65.1784142286051 18.697811227757484,60.5121692683897 16.37874427996576,56.198069909296464 15.406232334207743,46.16109708492877 19.81994039658457,37.79685838986188 27.37561013037339,33.21850181167247 35.903791810851544,32.95436506840633 43.68388737877831,36.916407204582356 48.17240405222401,43.695856730802916 49.21972460951656,51.35568621207494 46.8258490501903,58.57522953127045 40.39230848476291,64.6501614265726 39.71903098374605,72.39783478394384 25.355777627322823,72.5739174108603 24.458074292633682,65.2664563288563 16.82759594731033,57.34262911364203 15.032189277932048,49.1545931774308 15.855084001086652,44.04803438199451 18.398576783481985,39.55775789933978 24.757308737840503,34.09895700274501 33.88395930733532,32.42609132442158 43.08541848883033,36.47618125437293 48.47163849743083,44.840433539066 49.144915998447686,51.70786054478958 46.152571549173445,59.36761452682549 40.39230848476291,64.73820358410012 39.41979653853923,72.5739174108603 25.43058623885736,72.5739174108603 24.682500126305968,65.1784142286051 19.37108872877434,60.77629705693107 16.303935668431222,55.5817681318149 15.481040944810957,45.368699214828666 20.642835119739175,36.82836203352781 28.198504854459316,32.86631946847774 37.77400709176436,33.30654737353325 44.88082515867427,38.50121865153778 48.62125572003424,46.24914124485804 48.84568155370653,52.588295708585065 46.601423216518015,58.83935794897843 40.31749987322837,65.09037211898249 40.01826542802155,72.04566941503435 39.0457534827292,72.4858761021751 25.355777627322823,72.5739174108603 24.158839847892523,65.09037211898249 19.07185428449884,60.77629705693107 16.303935668431222,55.84589752188185 15.481040944810957,45.63283192412928 20.493217897601426,37.09249751799507 28.796973743941635,32.86631946847774 38.67171042598784,33.570684002595954 44.806016547139734,38.14903859695187 48.696064331103116,46.16109708492877 48.77087294263765,53.5567732869531 45.62891127076,60.248041394283064 40.46711709583178,65.00232999963919 39.71903098374605,72.30979345581727 25.355777627322823,72.5739174108603 24.53288290416822,65.4425405007787 19.296280117705464,60.60021187411621 16.303935668431222,55.84589752188185 15.705466778948903,45.104566419962794 20.26879206392914,37.53272313444177 29.395442633889616,32.60218261054251 38.97094487119466,33.39459292613901 45.105250991880894,38.23708362481557 48.77087294263765,46.07305291516241 48.696064331103116,53.64481664588675 46.451805993914604,59.10348628112115 40.31749987322837,65.2664563288563 40.61673431843519,71.7815452881041 41.290011818986386,65.6186246345751 47.199892106465995,59.455657256708946 49.81819349946454,53.38068654021481 49.96781072206795,46.77740600518882 47.72355238487944,40.43820622365456" stroke="#4DD2FF" stroke-linecap="round" stroke-linejoin="round" stroke-width="0.5"><title>2025-10-27 10.0km</title><desc>1761565093000</desc></polyline><polyline fill="none" points="68.82379464944825,35.69688878051238 71.89890540624037,33.7149295565323 75.92583615984768,33.025551277794875 85.37081919936463,34.57665156503208 91.66747455950826,41.211879764683545 94.01041608862579,48.019394037895836 93.42468070611358,54.48217014234979 91.66747455950826,58.96299742272822 85.29760227631778,65.33951581123983 85.29760227631778,71.80215122085065 70.94708541035652,72.40532784728566 69.92204849142581,65.33951581123983 63.991477745585144,59.73852265952155 61.06280083395541,53.44812949374318 60.98958391137421,46.03746551356744 64.57721312809736,38.71290421200683 72.99715924821794,33.542585042945575 83.46717920713127,33.88727403280791 86.90837457822636,35.69688878051238 90.86208840832114,40.00547875382472 94.08363301120698,48.10556473134784 92.10677609592676,57.84279296855675 85.37081919936463,65.081009303045 85.15116843115538,71.80215122085065 70.80065156472847,72.40532784728566 69.84883156837896,65.33951581123983 64.8700808188878,60.94489374704426 61.28245160263032,54.22366010630503 61.20923467958346,45.2619269209099 64.28434543684125,39.488449189346284 72.11855617491528,34.05961847206345 80.39206844987348,33.45641277224058 86.24942227313295,35.61071674292907 89.25131610687822,38.10970204061596 94.08363301120698,46.81300335022388 93.93719916557893,52.586427926435135 92.25320994155481,57.92896259803092 85.37081919936463,65.081009303045 85.15116843115538,71.88831933826441 71.31317002419382,72.57766394212376 69.7023977227509,65.42568462877534 64.65043005067855,60.94489374704426 60.916366988327354,52.32791727426229 61.502102370839566,44.91724285943201 64.5039962050505,39.143762626103126 72.92394232563674,33.7149295565323 83.32074536150321,34.14579067757586 87.27445919206366,35.955404836975504 89.91026841243729,38.79907591332449 93.86398224253207,47.330028154712636 93.79076532041654,53.18961912143277 92.03355917334557,58.27364102227148 85.29760227631778,65.33951581123983 85.15116843115538,71.88831933826441 71.09351925551891,72.49149589933222 70.0684823365882,65.85652857588138 62.96644082618877,58.35981060494669 60.84315006574616,52.41408750117989 61.941403907258064,42.762964090448804 64.43077928200364,39.22993428079644 73.143593093846,33.7149295565323 80.83136998675764,33.62875730439555 88.51914687966928,37.33415571920341 93.64433147478849,45.77895273338072 93.86398224253207,53.0172788266791 91.15495610004291,59.566183783172164 85.51725304499269,64.90867158438778 85.07795150810853,71.97448744630674 71.16673617856577,72.75 70.0684823365882,65.77035980497021 64.5039962050505,60.514047139906324 61.42888544779271,54.39600013953168 61.28245160263032,46.209807320381515 64.35756235942245,39.488449189346284 70.94708541035652,34.57665156503208 78.48842845764011,33.284068202308845 86.98159150080755,35.955404836975504 92.54607763281092,42.59062153712148 94.15684993425384,48.27790609013755 93.49789762916043,54.740680094459094 91.2281730226241,59.566183783172164 85.44403612241149,64.90867158438778 85.22438535420224,72.06065554515226 70.80065156472847,72.23299171490362 69.99526541354135,65.42568462877534 64.8700808188878,60.85872444428969 61.941403907258064,56.11939842061838 60.916366988327354,46.46831996081164 64.7968638963066,38.88524760561995 68.31127618998289,35.955404836975504 74.38828078098595,33.542585042945575 84.19934843480587,34.49047940631863 88.22627918794751,37.24798385926988 91.2281730226241,41.12570832442725 92.32642686460167,39.91930718295043 86.61550688697025,34.3181350606028 79.22059768531471,32.25 70.72743464214727,33.542585042945575 65.38259927835315,37.24798385926988 63.47895928611979,39.74696401361143 65.82190081523731,38.28204556478886" stroke="#4DD2FF" stroke-linecap="round" stroke-linejoin="round" stroke-width="0.5"><title>2025-10-19 10.0km</title><desc>1760866141000</desc></polyline><polyline fill="none" points="134.15808712365106,36.75009943457553 137.906668192707,43.103138666949235 138.8063276493922,50.86789711023448 136.40723576489836,58.632581543177366 130.10961956949905,64.8089822207694 129.73476146254689,71.69120210158871 115.34021015884355,72.4853006543126 114.0656925952062,64.72074825508753 106.56853045802563,56.60318252828438 104.99412640882656,48.04435714863939 108.89265072066337,38.33836388774216 116.91461420757696,33.13237439759541 125.91120877256617,32.69118731823983 133.93317225947976,37.103047358221374 138.35649792058393,44.33844609721564 138.9562708917074,51.662015961133875 136.18232090072706,59.16198915045243 130.2595628122799,64.5442802948528 129.43487497698516,72.22060122276889 115.26523853745311,72.30883437610464 114.36557908076793,65.42661971296184 109.3424804485403,60.92667868977878 106.19367235060781,55.632598603726365 105.29401289438829,45.661987693747506 109.71733855549246,37.63246895739576 118.71393312048167,32.426474956038874 127.33566957851872,33.04413700080477 134.75786009524018,37.9854164988501 138.8063276493922,45.397279546479695 139.03124251309782,52.191428098478355 136.4822073862888,58.809050784038845 130.18459119088948,64.89721617673058 129.80973308440298,72.22060122276889 115.19026691606268,72.30883437610464 114.36557908076793,65.69132135185646 108.89265072066337,60.3090377858025 105.29401289438829,53.338486548513174 105.66887100134045,43.01490235014353 109.64236693410203,37.27952126314631 112.56626016786322,35.1618318844703 121.2629682472907,32.25 130.33453443367034,34.45593420165824 134.83283171616495,38.07365336047951 138.2815262991935,43.36784755968256 138.8063276493922,53.42672174714971 136.4822073862888,58.98551998625044 130.40950605506077,64.98545012326213 130.2595628122799,71.95590170507785 116.91461420757696,72.75 115.19026691606268,72.30883437610464 114.14066421659663,65.16191798774526 108.59276423510164,59.691396413429175 105.14406965160742,52.27966342133004 104.91915478743613,46.27963970287237 108.89265072066337,38.33836388774216 112.11643043952063,35.4265433580149 117.96421690657735,32.86766217870172 126.8108682287857,32.86766217870172 133.3333992883563,36.573625415272545 138.9562708917074,45.5737516542431 138.2815262991935,54.66201352298958 136.18232090072706,59.16198915045243 130.10961956949905,64.45604630035814 129.88470470532775,71.95590170507785 115.64009664393961,72.39706752006896 114.0656925952062,65.07368406036403 107.3182466714643,58.19140827434603 105.06909803021699,52.45613403787138 105.29401289438829,45.30904347845353 108.44282099185511,38.95602144993609 112.0414588181302,35.4265433580149 117.28947231452912,32.95589959440986 126.66092498600483,32.95589959440986 134.60791685199365,37.72070585732581 139.33112899865955,47.77964977559168 136.7071222504601,58.54434690857306 130.2595628122799,64.1913442601799 130.03464794857427,71.95590170507785 115.11529529420659,72.39706752006896 114.21563583798707,65.42661971296184 107.54316153563559,58.456112264306284 105.06909803021699,51.57378057134338 106.19367235060781,42.83842968806857 110.09219666244462,37.19128431548597 116.16489799367264,33.30884916236391 125.7612655297853,32.602949873777106 131.45910875406116,35.1618318844703 136.55717900767922,40.3678084044368 138.88129927031696,46.8972912436584 138.8063276493922,52.8973104126635 135.88243441516533,59.4266928252182 130.18459119088948,64.63251427945215 130.33453443367034,71.51473565137712 131.23419388988987,65.25015190569684 135.35763306589797,61.63255343493074 138.8063276493922,55.9855383465183 140.0808452120982,49.897306352388114 139.55604386283085,45.5737516542431" stroke="#4DD2FF" stroke-linecap="round" stroke-linejoin="round" stroke-width="0.5"><title>2025-10-16 10.0km</title><desc>1760611285000</desc></polyline><polyline fill="none" points="158.0668935449794,35.09217052673921 166.9717460386455,32.25 175.12195001542568,33.848722133552656 181.9137866627425,40.332396608544514 184.5550564704463,47.70418338594027 182.81936488253996,57.20747337018838 175.34834457049146,65.28962398250587 175.27287971880287,72.21711824962404 160.78362820390612,72.66118639905471 159.80258513242006,65.55606715200702 153.08621333632618,59.07259212026838 150.4449435295537,52.23380262986757 150.8977326392196,44.32915670127841 155.1237643309869,37.49024424602976 164.17954652756453,32.42763594677672 172.70707476278767,33.049361456534825 179.72530596563593,37.223791957017966 184.4041267670691,46.99365260673221 183.04575943760574,56.76339685189305 175.57473912555724,64.93436628888594 175.27287971880287,72.21711824962404 160.70816335221753,72.75 159.65165542950854,65.55606715200702 153.31260789185762,59.33903730963357 150.59587323246524,52.85551312210737 150.82226778753102,44.68442332238192 155.4256237372756,36.86852210323559 165.085124747362,32.42763594677672 175.0464851637371,33.49345081788488 182.66843517962843,41.398201204952784 184.3286619153805,47.43773441587109 182.66843517962843,57.38510390999727 175.42380942218006,64.93436628888594 175.42380942218006,72.0394909226452 160.78362820390612,72.66118639905471 159.80258513242006,65.73369588318747 152.63342422712594,58.27325603249483 150.59587323246524,52.32261844340246 150.8977326392196,44.417973370989785 155.19922918267548,37.31260939594358 163.9531519729644,32.60527185461251 174.2918366473168,33.49345081788488 180.78181388881058,38.378417917585466 184.4041267670691,47.17128535924712 182.74390003131703,57.38510390999727 175.57473912555724,65.02318072662456 175.19741486711428,72.3059318989981 160.78362820390612,72.66118639905471 159.65165542950854,65.37843838200206 153.23714303970337,58.89496194612002 150.4449435295537,52.14498680655379 150.74680293584242,44.950873187044635 153.38807274308056,39.17777339951135 162.21746038505808,33.13817934808321 171.4241722850129,32.69408979418222 175.80113368015736,34.20399329578504 180.02716537192464,37.84551382996142 184.4041267670691,47.34891807328677 184.25319706415758,52.67788160091732 182.44204062456265,57.829180091561284 175.499274273403,65.28962398250587 175.42380942218006,72.3059318989981 160.8590930555947,72.75 159.80258513242006,65.64488152222475 153.99179155612364,60.138372358633205 150.52040838077664,52.76669736619806 150.8977326392196,44.06270663469331 154.74644007300958,37.84551382996142 163.57582771452144,32.69408979418222 173.61265298258513,33.226997229852714 180.4044896303676,38.2896005937946 184.25319706415758,47.082468987908214 182.8948297346942,56.674581519386265 179.57437626225874,61.64822532481048 175.499274273403,65.11199515487533 175.499274273403,72.0394909226452 160.8590930555947,72.66118639905471 159.57619057735428,65.28962398250587 153.4635375952348,59.516667388088536 150.59587323246524,52.85551312210737 151.3505217488855,42.197553742909804 154.3691158145666,38.2896005937946 163.80222226958722,32.60527185461251 173.53718813089654,33.13817934808321 180.78181388881058,38.7336871168809 184.1022673607804,46.10548826708691 183.4230836960487,55.25353489146801 180.1780950757675,60.84889174782438 175.499274273403,64.84555184148485 175.19741486711428,72.21711824962404 161.4628118686378,72.75 160.33083909424022,71.59542243659962" stroke="#4DD2FF" stroke-linecap="round" stroke-linejoin="round" stroke-width="0.5"><title>2025-10-08 10.1km</title><desc>1759919017000</desc></polyline><polyline fill="none" points="14.05967333726585,98.87307484692428 21.390918826218694,86.28272313403431 26.253479609265924,82.67286604072433 31.93893529428169,81.0 44.282358821015805,83.72941123973578 49.518962741829455,90.9491000106209 50.94032666273415,99.57742442720337 48.02279019309208,107.85348628065549 41.96329137077555,113.576245732198 41.73886548820883,120.88371077133343 27.076374511234462,121.2358761021751 26.328288236632943,114.45666668686317 21.540536080952734,110.05455237592105 18.17414784664288,104.94806990888901 17.052018434740603,95.08718539506663 21.091684316284955,86.89903859660262 28.946590196806937,82.05654737364966 36.72668745042756,81.44022823945852 45.62891411501914,85.66640720446594 50.26704901596531,93.32630057237111 50.71590078063309,100.19372980954358 48.47164195775986,107.06110102729872 41.88848274340853,113.75232999928994 41.21520509617403,120.9717521185521 27.151183139067143,121.41195871011587 26.178670981898904,114.19254050060408 18.17414784664288,105.3002421434503 16.977209807373583,96.14371445786674 21.016875688917935,87.25121865136316 28.72216431470588,82.14459292613901 36.57707019569352,81.44022823945852 45.404488232918084,85.40227166278055 50.042623133864254,92.62194557522889 50.79070940846577,100.01764260517666 48.02279019309208,107.85348628065549 41.88848274340853,113.92841422848869 41.36482235137373,121.05979345581727 27.00156588340178,121.3239174108603 25.655010589864105,113.576245732198 21.091684316284955,109.70238220109604 17.800104709342122,104.68394063296728 16.977209807373583,95.79153825592948 20.792449806816876,87.60339855332859 24.981732942629606,83.72941123973578 28.72216431470588,82.14459292613901 37.77400823449716,81.52827385847922 46.37700038962066,86.63490345590981 49.518962741829455,90.9491000106209 50.71590078063309,100.28177339734975 48.39683333039284,107.14914387156023 41.96329137077555,113.576245732198 41.36482235137373,120.9717521185521 27.30080039333552,121.5 26.103862354531884,114.01645632868167 22.064196472987533,111.02301956980955 18.69780823821202,106.26871500152629 16.902401180006564,96.31980250129709 20.193980787415057,88.30775789928157 27.45041764806956,82.5848205453949 36.72668745042756,81.44022823945852 44.656401958782226,84.78595506533748 49.444154114462435,90.86105541198049 50.641092153731734,100.28177339734975 48.24721607519314,107.50131515227258 42.11290862597525,113.3121192593826 41.43963097874075,120.9717521185521 27.151183139067143,121.3239174108603 26.253479609265924,114.45666668686317 19.520703140180558,107.58935794851277 16.677975297905505,97.37632996187313 18.17414784664288,91.74150097038364 21.390918826218694,86.54685838962905 27.076374511234462,82.67286604072433 31.789318039547652,81.26413697213866 37.84881686139852,81.79241065896349 44.880827840883285,85.13813603547169 49.294536859728396,90.68496618582867 50.56628352589905,101.2502522347495 48.39683333039284,107.23718670598464 41.88848274340853,113.92841422848869 41.21520509617403,120.88371077133343 27.52522627590224,121.5 26.178670981898904,114.10449841950322 20.418406669516116,108.82195609691553 17.725296081975102,103.53937944537029 16.902401180006564,98.5208998277667 19.07185137551278,89.71647476009093 23.63517764909193,84.78595506533748 31.714509412180632,81.44022823945852 41.29001372400671,82.49677504069405 49.294536859728396,90.33278761903057 50.641092153731734,95.7034941817983 50.042623133864254,103.27524971135426 45.55410548765212,110.75889226782601" stroke="#4DD2FF" stroke-linecap="round" stroke-linejoin="round" stroke-width="0.5"><title>2025-10-01 10.0km</title><desc>1759271073000</desc></polyline><polyline fill="none" points="73.170754914172,82.48068108630832 79.09109007474035,81.0 87.82358443643898,83.35166868701344 93.29989445954561,90.9292210029671 94.4099573022686,95.98088287556311 94.26194892311469,101.72928709205007 92.63385675381869,106.34540012269281 85.60345875145867,113.66144951339811 85.38144618272781,120.97743234463269 71.17264179792255,121.4129054142395 69.61855381773785,114.009831157804 63.92023122636601,108.60989871341735 61.25608040392399,103.20993000734597 60.59004269819707,97.54863355553243 62.29213905707002,91.01631889020791 68.58249516505748,84.22265534411417 77.1669811476022,81.78389032639097 85.2334378035739,83.35166868701344 88.78563890000805,85.79042894940358 92.11582742771134,90.23243756452575 94.33595311269164,96.76475859753555 93.07788189128041,105.03895572683541 90.33972687926143,109.4808580118115 85.60345875145867,113.40016318159178 85.4554503718391,120.62905371899251 80.34916129615158,121.3258108192822 70.65461247088388,121.23871621489525 69.76656219689175,114.27111729170429 64.21624798420817,109.04537848057225 61.03406783565879,103.29702656442532 61.404088783077896,93.28086065041134 64.14224379463121,88.22918181528803 67.99046164890751,84.65814831882017 74.87285127304494,81.95808807300637 85.2334378035739,83.35166868701344 92.11582742771134,89.97114361921558 94.1879447340034,95.80668816680554 94.03993635484949,102.1647705854266 90.9317603954114,109.13247440557461 85.60345875145867,113.83564035425661 84.93742104573175,121.06452697730856 70.80262085050344,121.23871621489525 69.91457057604566,114.27111729170429 61.5520971622318,105.12605208606692 60.59004269819707,99.9002538441564 61.25608040392399,93.36795828293543 65.84434015350416,86.48721623705933 74.65083870431408,82.0451869321987 84.19737915042788,83.0903725057724 89.45167660526931,86.7485113144503 93.74391959654167,94.4131291389931 94.11394054396078,101.81638380949153 91.00576458498836,108.78409064857988 85.52945456188172,113.7485449386877 85.52945456188172,120.54195903911022 84.64140428742394,121.15162160072941 70.80262085050344,121.23871621489525 69.84056638646871,114.27111729170429 64.95628987904638,109.82924146717414 61.774109730497,104.60347379028099 60.81205526692793,95.37120123009663 65.32631082693115,86.83560965483775 74.50283032516018,82.0451869321987 85.82547131972387,83.6129647831549 91.74580647982657,89.62275156041142 94.1879447340034,96.3292721794569 93.59591121738777,103.81960570946103 90.63574363756925,109.39376212458592 85.75146713014692,113.5743540787953 85.38144618272781,120.80324305064278 80.42316548572853,121.5 70.80262085050344,121.5 69.76656219689175,114.09692654508399 64.36425636289641,109.13247440557461 61.182076214812696,103.29702656442532 61.404088783077896,93.45505590626271 67.6204407014884,84.65814831882017 73.98480099905282,82.13228578201961 80.27515710704029,81.78389032639097 84.19737915042788,82.91617500444409 89.89570174226537,87.09690461878199 93.59591121738777,93.89054388081422 94.1879447340034,101.29380336293252 91.89381485944614,107.65184239554219 85.60345875145867,113.66144951339811 84.8634168561548,121.15162160072941 70.80262085050344,121.4129054142395 69.54454962862656,114.27111729170429 64.14224379463121,109.39376212458592 61.848113920073956,104.9518593584653 60.66404688823968,96.59056405862793 64.80828150035813,87.61949429207016 69.61855381773785,83.78716213349253 75.39088059961796,81.95808807300637 80.20115291699767,81.8709892044426 85.82547131972387,83.70006346289301 92.26383580639958,90.14533959201071 94.26194892311469,97.11314756207867 92.63385675381869,105.9970151577727 85.38144618272781,113.7485449386877 85.15943361446261,120.97743234463269 77.98102723248303,121.23871621489525" stroke="#4DD2FF" stroke-linecap="round" stroke-linejoin="round" stroke-width="0.5"><title>2025-09-27 10.0km</title><desc>1758965825000</desc></polyline><polyline fill="none" points="142.75,83.61537070729537 138.4241486066021,84.79596120334463 130.83823529374786,90.10859311482636 127.89164086687379,90.99402773857582 130.9009287925437,96.08525448956061 130.83823529374786,102.57835803454509 127.39009287930094,108.9976154739852 123.37770897825249,112.7606003334513 123.4404024768155,118.73706297698664 110.90170278656296,118.73706297698664 110.40015479852445,112.53924885834567 106.07430340582505,109.2189681000309 103.0023219815921,103.98026999441208 102.81424148613587,95.27361219475279 106.57585139316507,89.22315734031145 109.20897832815535,86.49305645673303 112.34365325071849,85.31246890220791 119.74148606788367,85.31246890220791 127.89164086687379,88.55907975422451 130.9009287925437,96.3066113111563 131.0890092877671,100.65994751971448 129.45897832815535,106.04624025541125 123.37770897825249,112.83438414265402 123.37770897825249,118.66327980731148 110.83900928776711,118.88462929264642 110.3374613004271,112.53924885834567 104.06811145506799,105.60353286983445 102.31269349856302,97.56096527533373 103.37848297227174,93.87168231682153 106.88931888551451,89.07558459939901 112.4690402476117,85.53382922435412 120.49380804947577,85.38625568419229 125.19582043332048,87.08334946690593 127.64086687285453,89.22315734031145 130.9636222908739,97.4871798120439 130.71284829708748,102.72592785040615 127.2647058821749,109.58788898342755 123.50309597491287,112.31789731135359 123.06424148613587,118.51571344374679 110.83900928776711,118.81084613874555 110.08668730640784,112.09654569218401 104.1934984519612,106.71030079439515 102.43808049545623,101.76672347623389 102.25,97.78232161747292 103.69195046438836,93.06003738456639 109.8986068109516,86.49305645673303 118.29953560372815,85.09110850770958 126.88854489126243,87.82121501024812 130.21130030951463,93.87168231682153 130.83823529374786,101.10265811812133 128.76934984489344,107.07922303647501 123.56578947370872,112.31789731135359 123.18962848279625,118.81084613874555 110.83900928776711,118.73706297698664 110.14938080497086,112.68681651644874 105.38467492256314,108.40734145336319 102.43808049545623,101.61915345239686 103.56656346772797,93.06003738456639 108.89551083603874,87.45228233840317 114.03637770889327,85.16489531379193 125.44659442687407,86.78820302599343 128.0797213620972,89.14937097369693 130.52476780163124,95.93768323533004 130.9009287925437,101.10265811812133 128.14241486042738,108.11220425111242 123.4404024768155,112.61303269129712 123.06424148613587,118.66327980731148 110.77631578943692,118.58949662942905 109.8986068109516,112.31789731135359 105.7608359134756,108.92383124947082 103.50386996893212,105.30839445296442 102.43808049545623,96.82311028195545 105.19659442733973,90.92024156381376 110.27476780163124,85.7551894748467 116.41873065009713,84.57460064132465 127.2020123838447,88.19014748191694 130.33668730640784,94.4619689330575 130.9009287925437,101.32401330932043 128.83204334322363,107.07922303647501 123.50309597491287,112.46546501724515 123.12693498423323,118.73706297698664 110.90170278656296,118.88462929264642 110.08668730640784,112.68681651644874 105.88622291036882,108.77626277622767 103.2530959751457,103.98026999441208 102.87693498446606,95.19982648361474 106.63854489196092,89.14937097369693 110.02399380831048,86.27169644617243 113.2213622292038,85.01732169359457 125.88544891634956,86.78820302599343 128.14241486042738,88.78043902164791 130.71284829708748,96.01146886649076 130.52476780163124,101.6929384683026 128.2051083589904,107.6694982079789 123.37770897825249,112.61303269129712 123.4404024768155,117.99923091969686 122.68808049545623,118.36814704816788" stroke="#4DD2FF" stroke-linecap="round" stroke-linejoin="round" stroke-width="0.5"><title>2020-04-24 10.0km</title><desc>1587724293000</desc></polyline><polyline fill="none" points="187.75,83.63302086520707 182.87499999976717,85.03064484224888 173.99999999976717,90.25331950944383 171.1875,89.37061675242148 167.62499999976717,86.42826594301732 161.12499999953434,85.10420391935622 153.31249999976717,87.67876659467584 150.81249999976717,89.95908538461663 147.81249999976717,96.4322066816967 147.87499999976717,102.31680886424147 150.18749999976717,107.76002048619557 155.49999999976717,112.61473999021109 156.5,118.86697913485114 168.49999999976717,117.98431356833316 168.31249999976717,112.39407167467289 173.75,106.95089719467796 175.4375,102.24325165170012 175.3125,96.94711140834261 173.4375,91.87160491693066 168.0,86.35470700950827 164.8125,85.32488110277336 160.0,85.47199918481056 151.31249999976717,89.66485113243107 147.25,99.15384152915794 148.74999999976717,105.47976146795554 155.49999999976717,112.76185216079466 156.24999999976717,118.64631285064388 168.43750000023283,118.13142457575304 168.43750000023283,112.46762778784614 174.0625,106.2153297297773 176.31249999976717,98.93316883977968 173.5,90.40043652412714 174.18749999976717,89.51773395843338 171.43749999976717,89.95908538461663 167.06249999976717,86.86961937724845 160.06249999976717,85.10420391935622 152.43749999953434,88.56147155090002 148.06249999976717,95.47595401061699 148.68749999976717,105.47976146795554 155.31249999976717,112.61473999021109 155.81249999953434,118.49920195474988 167.93749999976717,118.27853555121692 168.375,112.09984714229358 173.56249999976717,107.17156727873953 175.56250000023283,100.7721057269373 174.75,94.88749015913345 171.125,89.00282359845005 163.5,85.32488110277336 158.12499999976717,85.8397942512529 151.24999999976717,89.07638224540278 147.68749999976717,95.917301564652 148.24999999976717,104.22929359483533 150.625,108.34847318340326 155.06249999976717,112.46762778784614 155.68749999976717,118.42564649495762 167.93749999976717,118.27853555121692 168.0,112.46762778784614 173.4375,107.02445389743662 175.24999999976717,101.28700716316234 174.25,94.22546771680936 170.56250000023283,88.85570628126152 167.43749999976717,86.5753837862867 162.3125,85.47199918481056 158.9375,85.545558214013 152.75,87.67876659467584 148.49999999953434,93.4898864683928 147.25,97.6826889119111 148.49999999953434,105.40620459796628 151.68749999976717,109.67248988791835 155.12499999976717,112.24695942463586 155.87499999976717,118.57275740680052 168.0,118.35209102724912 168.0,112.46762778784614 173.875,106.28888651216403 175.4375,98.12403503182577 173.56249999976717,92.16583821334643 167.5,86.06047119543655 162.43749999976717,84.51573108014418 152.87499999976717,87.82588416727958 148.62499999953434,94.2990257976926 147.43749999976717,98.85961126053007 148.87499999953434,105.77398886845913 155.37499999976717,112.90896429918939 156.06249999976717,118.35209102724912 168.25000000023283,117.98431356833316 168.1875,112.68829607934458 173.81249999976717,106.3624432864599 175.375,97.82980431709439 173.25,91.94516325305449 168.49999999976717,87.38453135453165 161.0625,85.25132204953115 151.62499999976717,88.41435413784347 147.5625,96.28509097360075 147.74999999976717,102.31680886424147 149.375,106.50955681136111" stroke="#4DD2FF" stroke-linecap="round" stroke-linejoin="round" stroke-width="0.5"><title>2020-04-16 10.0km</title><desc>1587033949000</desc></polyline><polyline fill="none" points="52.75,132.3926228886121 47.49188562575728,133.79240732983453 38.477975270245224,139.24417190282838 36.97565687750466,139.24417190282838 34.40919629042037,136.5182950789458 29.401468314928934,134.30811666080263 24.8319165376015,134.16077117761597 17.75850077276118,137.10767477727495 13.501931993290782,142.11738159373635 12.500386398285627,150.7369378412841 15.31723338435404,156.85159954655683 20.45015455922112,161.78749118902488 20.88833075691946,167.5337079805322 32.65649149892852,167.01802384096663 33.345054095378146,161.8611609422951 37.852009273367,157.21995090611745 40.54366306005977,150.66326688311528 40.10548686236143,144.4012062792899 36.53748067980632,138.0654156979872 34.284003091044724,136.00258742383448 29.151081916410476,134.08709842391545 24.018160741310567,134.45546211203327 16.63176197814755,137.54970921605127 13.188948994968086,143.36980253231013 12.312596599338576,147.4954081363394 13.814914992079139,155.00983975763666 20.324961359612644,161.41914230340626 21.389103554422036,167.5337079805322 33.09466769709252,167.0916930276435 33.28245749603957,161.19813287624856 38.477975270245224,156.04122585389996 40.668856259435415,150.14756995276548 39.85510046361014,143.95917629339965 35.160355486674234,137.18134720396483 28.212132920976728,134.23444392334204 18.44706336921081,136.5182950789458 13.814914992079139,142.26472535310313 12.43778979871422,146.97970880416688 13.063755795592442,152.87339215475367 16.256182379787788,158.03032319428166 20.45015455922112,161.6401516587357 21.201313755242154,167.6073771113297 33.21986089623533,167.0916930276435 33.28245749603957,161.1244630512665 38.97874806798063,155.4518625618657 40.668856259435415,149.33718827285338 40.10548686236143,144.69589277677005 37.28863987606019,139.39151628513355 32.5312982997857,135.48687937762588 29.213678515749052,134.08709842391545 23.392194744665176,134.6764802292455 16.63176197814755,137.40236443502363 13.001159196021035,144.253862982383 12.375193199142814,148.8214903373737 13.689721792703494,154.86249875917565 20.387557959649712,161.41914230340626 20.88833075691946,167.38636969478102 33.407650695415214,166.7233470142237 33.345054095378146,161.05079321790254 38.72836166899651,155.89388507878175 40.481066460488364,150.0738989309175 39.792503863805905,143.5171460202546 34.59698608936742,137.18134720396483 28.775502318283543,133.86608011531644 23.267001545522362,134.82382560084807 16.63176197814755,137.8443986820639 13.251545594772324,143.66448947659228 12.43778979871422,150.36858297081199 15.12944358563982,156.6305886352784 20.262364759808406,161.56648188165855 21.013523956527933,167.6073771113297 33.407650695415214,166.9443546461407 33.407650695415214,161.19813287624856 38.477975270245224,156.1885665973532 40.60625966009684,149.70554370147875 39.66731066443026,143.66448947659228 35.9115146829281,138.0654156979872 29.151081916410476,134.30811666080263 23.141808345913887,134.52913482586155 15.692812982480973,138.36010494088987 12.43778979871422,147.56907943740953 14.127897990401834,155.0835102449637 20.262364759808406,161.34547250223113 20.950927356956527,167.31270054011839 33.03207109705545,167.23903137707384 33.28245749603957,161.41914230340626 38.35278207110241,156.1885665973532 40.41846986068413,149.2635171629954 38.916151468176395,142.0437097020913 33.78323029354215,136.29727756039938 29.02588871703483,134.30811666080263 25.833462132373825,134.30811666080263 22.077666151337326,135.04484359821072 16.819551777094603,137.8443986820639 13.501931993290782,142.85410007205792 12.25,147.2743941847002 13.12635239539668,153.09440428687958 15.379829984158278,157.14628065010766" stroke="#4DD2FF" stroke-linecap="round" stroke-linejoin="round" stroke-width="0.5"><title>2020-04-14 10.0km</title><desc>1586861907000</desc></polyline><polyline fill="none" points="97.75,132.49110238830326 91.66257668705657,134.31879843445495 83.83588957018219,139.14389221498277 77.81058282172307,135.48852130654268 71.97162576648407,134.02636739978334 67.43711656425148,134.83055244054412 60.914877300616354,137.97417567821685 58.05751533713192,144.7000180799514 58.11963190161623,150.7678401285666 60.16947852750309,156.1045541925705 65.57361963181756,161.221911610628 66.13266871124506,167.14337677310687 78.05904907966033,166.85095995961456 78.24539877288043,160.92949223186588 83.02837423305027,156.32387030636892 85.26457055215724,151.20647575269686 84.51917177881114,143.38409766653785 80.29524539853446,137.09688694536453 72.40644171764143,134.17258293298073 67.12653374206275,134.976767799526 61.10122699383646,137.75485360180028 57.87116564391181,145.6504034496029 58.49233128782362,152.3030635662726 60.728527607163414,156.76250231981976 65.38726993836462,161.14880677772453 66.25690184021369,167.50889761169674 78.12116564414464,166.70475150545826 78.36963190161623,160.7832824952202 83.21472392627038,155.95834341068985 85.63726993836462,149.30571932229213 85.01610429421999,144.18827155738836 81.35122699360363,137.82796096865786 74.26993865007535,134.3919061734341 67.9340490794275,134.75744474906242 60.976993864635006,137.97417567821685 57.25,145.06555107276654 57.560582821955904,150.62162819044897 58.98926380369812,154.2038115558098 65.44938650284894,161.14880677772453 65.69785276055336,166.9971683822223 78.05904907966033,166.70475150545826 78.18328220839612,161.221911610628 83.83588957018219,155.15418354328722 85.32668711640872,149.671249820909 84.89187116548419,144.62691145768622 80.23312883405015,136.65824215114117 74.45628834329545,134.31879843445495 67.43711656425148,134.6843370498391 61.41180981579237,137.462424055906 57.374233128735796,147.03942581324372 59.36196319013834,154.64244494703598 65.38726993836462,161.36812125256984 65.75996932480484,166.9971683822223 77.81058282172307,166.77785573643632 78.05904907966033,161.00259708840167 82.90414110384881,156.1045541925705 85.14033742318861,150.6947341634077 84.7676380367484,143.96895150031196 80.73006134969182,137.68174622708466 74.0835889566224,134.17258293298073 66.1947852759622,135.3423060583882 60.914877300616354,137.82796096865786 57.31211656401865,146.82010668271687 58.80291411024518,154.13070596277248 65.263036809396,161.29501643544063 65.75996932480484,166.77785573643632 78.24539877288043,166.63164726656396 78.18328220839612,160.7832824952202 83.40107361925766,155.37349996576086 85.32668711640872,149.671249820909 84.6434049080126,143.67652464687126 79.98466257657856,137.09688694536453 70.54294478497468,133.73393623827724 63.3374233127106,136.0002744255471 58.74079754576087,142.21438847860554 57.49846625747159,147.4780638604425 57.995398772880435,152.44927514030132 59.36196319013834,155.08107805333566 65.38726993836462,161.14880677772453 65.94631901825778,167.0702725815354 77.93481595092453,166.77785573643632 77.93481595092453,160.71017761452822 82.4072085886728,156.83560762781417 85.14033742318861,149.59814373694826 84.02223926363513,142.28749536216492 78.36963190161623,135.7809517076239 70.10812883428298,134.02636739978334 61.163343558087945,137.38931664958363 57.62269938620739,146.96631944412366 58.18174846586771,152.81480393605307 59.85889570508152,156.1045541925705" stroke="#4DD2FF" stroke-linecap="round" stroke-linejoin="round" stroke-width="0.5"><title>2020-04-13 10.0km</title><desc>1586775592000</desc></polyline><polyline fill="none" points="142.75,132.4022622842458 136.98219814244658,134.0255736889667 128.95743034034967,139.0430572089972 121.99845201196149,135.20616137154866 113.15866873064078,134.54208105179714 108.20588235300966,136.8294660942629 103.94272445817478,142.14207268500468 102.62616099091247,146.05271495081251 103.0023219815921,152.5458072432666 106.32507739937864,157.9320754762157 110.3374613004271,161.54749191040173 111.15247678011656,167.30260502069723 122.18653250765055,167.00747219769983 123.2523219815921,166.12207296147244 123.2523219815921,161.17857274517883 128.26780185755342,155.4971923713456 130.08591331238858,151.7341740912525 130.52476780186407,142.80614559579408 129.5216718262527,139.7071331407642 132.90712074306794,134.9848013370065 131.59055727533996,136.75567959976615 127.39009287883528,138.674125855905 119.74148606788367,134.61586778599303 112.53173374617472,135.1323747013812 107.26547987619415,137.78868979372783 103.2530959751457,143.54400362604065 103.0650154799223,152.3244528430514 105.38467492279597,156.67774284252664 110.40015479875728,161.54749191040173 110.96439628466032,167.45017138426192 122.43730650143698,166.9336889720871 123.2523219815921,161.03100502333837 128.26780185755342,156.0874678628752 130.39938080497086,150.99632493208628 130.08591331238858,144.6507891729707 127.13931888551451,138.96927095449064 119.99226006190293,134.61586778599303 112.90789473685436,134.8372279405594 106.26238390128128,138.674125855905 103.62925696582533,143.02750308881514 102.62616099091247,147.01192566286772 103.69195046438836,154.24285525426967 105.32198142423294,157.26801731070736 110.14938080497086,161.47370809339918 110.90170278656296,167.45017138426192 122.43730650143698,167.00747219769983 123.37770897825249,160.88343726913445 127.51547987619415,157.19423303031363 129.77244582027197,153.28365472401492 130.46207430306822,147.30706714879489 128.83204334345646,141.1090690928977 125.13312693499029,136.97703905886738 118.7383900929708,134.61586778599303 112.03018575836904,135.20616137154866 106.88931888551451,138.1576216261019 104.38157894741744,141.18285511579597 102.43808049545623,147.30706714879489 102.62616099091247,150.8487550043501 104.8204334366601,156.75152717885794 110.21207430353388,161.69505952042527 110.77631578966975,167.3763882063795 122.62538699689321,167.0812554153381 123.4404024768155,161.03100502333837 128.3931888542138,156.0874678628752 130.27399380807765,151.95552868314553 130.39938080497086,145.53621631569695 128.83204334345646,141.0352830621414 122.81346749211662,135.87024104385637 115.72910216706805,134.54208105179714 108.26857585133985,136.8294660942629 103.69195046438836,142.36343039391795 102.56346749234945,145.53621631569695 102.75154798780568,151.66038921126164 105.57275541801937,157.5631543531781 109.96130030974746,161.54749191040173 110.90170278656296,167.59773771569598 123.00154798757285,166.9336889720871 123.06424148613587,161.3261404352961 128.83204334345646,155.20205443404848 130.39938080497086,149.5206242162967 128.95743034034967,141.92071490449598 126.32430340535939,138.08383527590195 122.7507739935536,135.35373468801845 115.47832817328162,134.24693403521087 108.01780185778625,136.97703905886738 103.69195046438836,142.43721628095955 102.37538699689321,147.97113502433058 104.44427244598046,155.7923301809933 110.27476780186407,161.47370809339918 110.77631578966975,167.45017138426192 122.87616099091247,166.9336889720871 123.06424148613587,161.39992426824756 129.08281733747572,155.20205443404848 130.65015479852445,149.29926883330336 128.70665634656325,141.33042713749455 122.93885448900983,135.7226678392035 116.0425696594175,134.17314726114273 112.78250773996115,134.8372279405594 108.58204334368929,136.75567959976615 105.44736842112616,139.6333469580277 103.19040247704834,143.47021785902325 102.25,147.82356444123434 103.50386996916495,153.94771677342942 105.88622291036882,157.78450705093564" stroke="#4DD2FF" stroke-linecap="round" stroke-linejoin="round" stroke-width="0.5"><title>2020-04-12 10.0km</title><desc>1586649823000</desc></polyline><polyline fill="none" points="187.75,132.5551674545277 183.75078369909897,133.30228798196185 173.27664576820098,138.98037754220422 175.7523510970641,143.01478119270178 176.8315047021024,149.66402460203972 173.4670846394729,157.2097175687668 168.9600313482806,161.0945966099389 168.3887147337664,167.29541590093868 156.20062695932575,167.07129087345675 155.5658307208214,160.72105149907293 149.85266457684338,155.86494664906058 147.50391849526204,150.037575701077 148.96394984330982,141.29642696736846 154.55015673977323,134.5723910210654 158.93025078368373,132.92872781929327 169.213949843077,134.497679142165 173.4670846394729,137.41143641603412 176.3236677115783,145.10668490664102 176.1967084640637,151.08351770136505 173.78448275872506,156.3132039133925 168.76959247677587,160.94517858984182 168.32523510977626,167.22070756641915 156.1371473353356,167.14599922398338 155.4388714733068,160.8704695677734 150.3605015676003,156.46262293693144 148.07523510977626,152.80184754461516 147.3134796237573,146.22734500048682 150.93181818188168,138.4573975634994 155.4388714733068,134.64710289158393 162.9294670848176,132.92872781929327 172.19749216316268,136.14133860496804 175.7523510970641,143.5377577159088 176.51410658308305,148.99163211416453 174.29231974924915,155.26726984314155 168.6426332287956,161.24401459749788 168.70611285278574,167.22070756641915 156.010188087821,167.14599922398338 155.4388714733068,160.8704695677734 149.53526645782404,155.93965621327516 147.7578369907569,152.42829794291174 147.3134796237573,146.52618738485035 148.265673981281,142.04353802610422 154.61363636376336,134.79652660887223 159.3111285266932,133.00343986786902 167.81739811925218,134.42296725546475 173.27664576820098,137.8597056734725 176.26018808758818,144.65842035913374 176.3871473353356,149.21576301648747 174.1018808777444,155.86494664906058 168.89655172429048,161.0945966099389 168.57915360527113,167.22070756641915 156.010188087821,167.22070756641915 155.31191222579218,160.8704695677734 150.23354231985286,156.53733243665192 148.01175548601896,152.42829794291174 147.63087774300948,144.50899877859047 150.93181818188168,138.4573975634994 154.8040752352681,134.87123845511815 157.66065830737352,133.75055990973487 164.83385579916649,133.37699999002507 172.0705329151824,136.14133860496804 176.13322884007357,143.91131213260815 176.3236677115783,149.51460410584696 173.72100313473493,156.53733243665192 168.89655172429048,160.7957605374395 168.57915360527113,166.99658251466462 156.07366771181114,167.4448325454723 155.24843260180205,160.72105149907293 149.91614420083351,156.08907531789737 148.01175548601896,152.50300787965534 147.25,144.7331311374437 150.8683385583572,138.4573975634994 154.67711598752066,134.87123845511815 157.91457680240273,133.52642398216994 162.73902821331285,133.07815190852853 170.42006269586273,134.7218147543026 173.34012539195828,137.33672484516865 176.3236677115783,146.00321312743472 176.1967084640637,151.2329378577415 173.6575235107448,156.53733243665192 169.0869905957952,161.019887603994 168.76959247677587,167.29541590093868 156.07366771181114,167.29541590093868 155.24843260180205,160.94517858984182 150.61442006286234,157.35913639800856 147.7578369907569,153.02597720880294 147.56739811925218,144.35957716556732 150.4239811913576,138.68153188866563 155.8832288403064,134.1988315464696 161.9772727272939,132.92872781929327 165.1512539186515,133.37699999002507 170.48354231962003,135.319509363384 173.21316614421085,137.4861479793908 176.06974921631627,144.21015552029712 176.13322884007357,151.2329378577415 173.72100313473493,156.23849438957404 168.83307210030034,161.16930560796754 168.83307210030034,166.39891535404604 166.10344827594236,166.69774899899494" stroke="#4DD2FF" stroke-linecap="round" stroke-linejoin="round" stroke-width="0.5"><title>2020-04-08 10.0km</title><desc>1586343893000</desc></polyline><polyline fill="none" points="52.75,181.28742345131468 47.71082949312404,182.38572618633043 37.81912442413159,188.46296906331554 40.61866359482519,193.80796884337906 40.743087557842955,198.56717965338612 37.94354838714935,205.74254184111487 33.339861751301214,209.915931755153 33.09101382503286,216.06614361488027 20.8352534561418,215.9929271361907 20.088709677336738,209.47662876691902 15.547235022997484,205.81575942999916 12.809907834045589,201.34947199124144 12.561059908010066,195.2723449690966 13.929723502369598,190.29345319868298 19.52880184329115,184.43588651710888 24.879032258177176,182.6053865191643 29.793778802035376,183.11792701826198 36.32603686652146,186.119942136982 39.43663594475947,191.97749422537163 40.743087557842955,198.6403980194009 37.88133640564047,205.96219458407722 33.2776497695595,209.9891488919966 33.02880184329115,216.1393600856536 20.95967741915956,215.91971064935206 20.461981566855684,209.9891488919966 14.800691244192421,204.6442770548747 12.498847926268354,199.15292636031518 12.8721198157873,193.07577959098853 15.609447004506364,187.6575544733787 19.52880184329115,184.21622677898267 22.203917050734162,183.264367089374 30.353686636080965,183.11792701826198 36.13940092176199,185.97350268432638 40.55645161308348,194.10084432252916 39.93433179729618,201.9352162873256 37.259216590086,206.62115238513798 33.2776497695595,210.06236602109857 33.2776497695595,215.9929271361907 21.084101382642984,216.1393600856536 20.337557603837922,209.9891488919966 14.240783409914002,203.8388817445957 12.25,196.5170621817815 13.867511520860717,190.51311096182326 19.404377880040556,183.9965669696685 26.496543778805062,182.38572618633043 34.89516129018739,184.94842562818667 37.63248847913928,187.73077402130002 40.805299539351836,195.2723449690966 39.80990783404559,201.9352162873256 36.82373271905817,206.9140223125578 33.52649769606069,209.915931755153 33.15322580677457,215.9929271361907 20.8352534561418,216.06614361488027 20.21313364058733,209.84271461021854 14.489631336415187,204.86393015494104 12.31221198150888,198.56717965338612 13.245391705073416,192.05071330518695 19.59101382480003,183.92334701743675 26.496543778805062,182.6053865191643 35.08179723517969,184.5823263025959 38.56566820270382,189.4148214321467 40.9297235023696,195.85809453122783 40.99193548364565,199.22614466311643 39.37442396348342,203.6924461305607 33.339861751301214,209.84271461021854 33.339861751301214,215.9929271361907 21.270737327402458,216.21257654868532 20.15092165907845,210.28201736032497 14.489631336415187,204.7174947630847 12.374423963250592,199.59223605750594 12.561059908010066,193.5150932377437 15.422811059979722,188.38974959467305 20.21313364058733,183.9965669696685 25.501152073964477,182.75182670145296 29.731566820293665,183.0447069707443 36.20161290327087,185.75384344585473 39.68548387102783,191.90427513746545 40.4942396315746,200.1779818761861 38.814516129205,204.7174947630847 33.464285714318976,209.76949745742604 33.2776497695595,215.7000611416879 21.644009216921404,216.21257654868532 20.8352534561418,215.7732776523917 20.15092165907845,210.06236602109857 15.92050691251643,206.62115238513798 12.809907834045589,201.1298177493154 12.31221198150888,195.71165718819248 13.618663594592363,190.9524262738414 19.52880184329115,183.9965669696685 22.577188940020278,182.75182670145296 30.167050691321492,183.11792701826198 34.77073732716963,184.8752057789825 38.814516129205,189.56126013939502 40.61866359482519,195.56521981360856 39.99654377880506,201.71556223585503 36.94815668207593,206.69436987885274 33.402073732577264,209.915931755153 33.2776497695595,215.40719502046704 28.11405529966578,215.7000611416879" stroke="#4DD2FF" stroke-linecap="round" stroke-linejoin="round" stroke-width="0.5"><title>2020-04-07 10.0km</title><desc>1586257895000</desc></polyline><polyline fill="none" points="97.75,180.97846002993174 93.55376766086556,181.87641298648668 83.1267660909798,188.2368796808878 86.17857142863795,195.12108352046926 85.79709576140158,200.95763738715323 82.99960753507912,206.34518180636223 78.8669544737786,209.78720207873266 78.54905808460899,216.3718887299765 66.15109890094027,216.0725861529354 65.3245682886336,210.16133368352894 60.556122448528185,206.19552836206276 57.88579277833924,200.80798277590657 57.504317111102864,195.04625558666885 60.81043956032954,187.1892774301814 65.13383045513183,182.9988525409717 68.88500784896314,182.02607169921976 75.17935635754839,182.6247062254115 81.34654631046578,185.39338416152168 85.98783359490335,194.82177173666423 85.2248822604306,202.37935457850108 82.36381475627422,206.71931527537527 78.80337519641034,209.86202841589693 78.8669544737786,216.0725861529354 66.34183673420921,216.4467143539805 65.19740973273292,210.16133368352894 59.348116169217974,204.25003063573968 57.56789638916962,199.53591727017192 58.012951334239915,192.6517574248137 60.93759811576456,187.1892774301814 67.93131868098862,182.699535504682 74.03492935630493,182.32538902712986 81.66444270010106,185.16889717470622 85.54277864983305,194.07349170942325 84.77982731559314,202.82831729424652 81.91875981120393,207.4675816053641 78.8669544737786,210.01168106583646 78.48547880654223,215.9229348154622 66.53257456794381,216.52153997001005 65.5788853999693,210.46063882147428 60.42896389309317,206.1207016276894 57.88579277833924,200.6583281319472 58.012951334239915,192.6517574248137 60.42896389309317,187.9375649142894 65.19740973273292,183.52265704231104 70.02943485067226,182.02607169921976 74.73430141271092,182.17573037924012 82.3002354784403,186.51581800176064 85.35204081633128,192.05313158762874 85.54277864983305,200.88281008560443 82.61813186830841,206.27035508822883 78.61263736267574,210.08650737878634 78.48547880654223,215.99776048818603 66.46899529010989,216.3718887299765 65.5153061223682,210.16133368352894 59.72959183645435,205.07312649628147 57.63147566677071,199.91005442669848 57.75863422243856,193.7741794717731 60.874018837930635,187.41376376058906 65.83320251153782,183.07368177978788 73.7806122447364,181.95124234678224 81.41012558853254,185.76752897771075 84.58908948185854,189.80828007805394 85.73351648333482,193.62452330405358 86.0514128729701,198.86246987769846 85.034144426696,202.6038359727827 82.3002354784403,206.8689686061698 78.61263736267574,210.08650737878634 78.54905808460899,216.14741180930287 66.59615384601057,216.3718887299765 65.5788853999693,210.68511759012472 59.92032966995612,205.07312649628147 57.56789638916962,199.46108981448924 57.94937205617316,192.80141380330315 60.556122448528185,187.63825001794612 64.30729984282516,184.04646114638308 67.80416012555361,182.699535504682 75.81514913635328,182.40021833893843 80.07496075332165,183.7471445640549 83.50824175775051,188.16205100133084 85.79709576140158,193.32521087187342 85.6699372055009,201.70590995799284 82.17307692300528,207.2431017914787 78.80337519641034,210.38581254938617 78.23116169543937,216.14741180930287 66.40541601227596,216.52153997001005 65.3245682886336,210.23615998023888 60.49254317069426,205.8962213761988 57.94937205617316,201.10729196621105 57.25,196.61764049483463 59.030219780048355,190.25725096359383 64.87951334333047,183.7471445640549 69.90227629477158,182.25055970728863 74.28924646764062,182.40021833893843 80.45643642032519,184.34577759884996 83.63540031388402,187.9375649142894 86.1149921505712,195.195911446237 86.1149921505712,199.23660739918705 84.46193092595786,204.3248575727921 78.67621664027683,210.38581254938617 78.42189952917397,216.22223745752126 69.83869701693766,215.99776048818603" stroke="#4DD2FF" stroke-linecap="round" stroke-linejoin="round" stroke-width="0.5"><title>2020-04-02 10.0km</title><desc>1585825459000</desc></polyline><polyline fill="none" points="142.75,180.7772846892476 142.20352323842235,182.3494915967458 134.8564467765391,184.49340406869305 127.02361319353804,189.42437631468056 129.63455772097223,194.2838491377188 130.2417541227769,199.3576722717262 128.17728635668755,205.36045488587115 123.07683658157475,210.79149685846642 122.34820089954883,216.6512551647029 110.69002998503856,216.36541450361256 109.83995502255857,210.50565365870716 104.67878560721874,205.86068430513842 102.73575712135062,201.28714406804647 102.61431784112938,195.9989486472332 103.82871064473875,191.63972865859978 107.41116941533983,187.20901653170586 113.60457271360792,183.92169475730043 120.10157421277836,184.35047678725095 123.80547226383351,185.7082847103011 126.47713643172756,187.99511279002763 129.45239880052395,194.85554946947377 129.81671664188616,200.85837304533925 127.81296851555817,206.00360692694085 122.7125187406782,210.57711447030306 122.53035982022993,216.7227153107524 110.6293103445787,216.5797950110864 110.08283358300105,210.7200360702118 105.65029984991997,207.21844796015648 103.3429535231553,203.64537971193204 102.37143928022124,195.57017418782925 105.4681409294717,188.9241344332695 113.24025487224571,183.9931584483711 119.37293853075244,184.20754947513342 124.04835082450882,185.77974820765667 126.8414542726241,188.42389217257733 129.45239880052395,194.71262443310115 129.9381559221074,200.00083016400458 127.38793103420176,206.36091334518278 122.95539730112068,210.50565365870716 122.7125187406782,216.6512551647029 110.56859070481732,216.36541450361256 110.08283358300105,210.93441841180902 104.1930284856353,205.07460933330003 102.37143928022124,197.42819483269705 103.95014992495999,191.2824142674799 109.90067466255277,185.3509671066422 115.85119940014556,183.77876735222526 124.4126686656382,186.06560212024488 128.9059220389463,192.42581963760313 130.05959520232864,199.3576722717262 128.66304347803816,204.5743793179863 122.7125187406782,210.7200360702118 122.65179910045117,216.5797950110864 110.7507496252656,216.5797950110864 109.71851574233733,210.57711447030306 105.65029984991997,207.07552560174372 103.03935532248579,203.21661022177432 102.37143928022124,196.35626048385166 105.71101949037984,188.9241344332695 112.81521739135496,183.42144870350603 118.58358320826665,184.06462213164195 126.23425787081942,188.3524289613706 129.7559970014263,194.78408695512917 129.9988755621016,200.2152159890975 126.96289355307817,207.07552560174372 122.89467766135931,210.50565365870716 122.46964017977007,216.50833484972827 110.81146926549263,216.6512551647029 109.90067466255277,210.43419283942785 105.65029984991997,207.1469867846463 103.46439280360937,204.00268740748288 102.4321589206811,196.28479813196464 105.10382308857515,189.71022864803672 110.20427286368795,184.77925853861962 114.63680659653619,183.77876735222526 120.89092953503132,184.77925853861962 123.92691154405475,185.7082847103011 126.41641679150052,188.42389217257733 129.7559970014263,195.0699369663489 130.12031484255567,200.5010636469815 127.20577211375348,206.64675834064838 122.95539730112068,210.79149685846642 122.46964017977007,216.5797950110864 110.69002998503856,216.5797950110864 110.08283358300105,210.7200360702118 105.52886056969874,206.64675834064838 102.55359820090234,200.6439874296193 102.25,196.42772282805527 103.76799100451171,191.56826579582412 109.41491754120216,185.2795035627787 115.06184407812543,183.7073036378133 122.04460269864649,185.20804001117358 126.47713643172756,188.63828175910749 129.81671664188616,195.42724930605618 129.9381559221074,201.07275859150104 126.90217391285114,207.0040644109249 123.01611694158055,210.43419283942785 122.7125187406782,216.2939543190878 121.4374062968418,216.50833484972827" stroke="#4DD2FF" stroke-linecap="round" stroke-linejoin="round" stroke-width="0.5"><title>2020-03-23 10.0km</title><desc>1584960411000</desc></polyline><polyline fill="none" points="177.8266035929555,178.5 178.42621283396147,183.8715094718209 179.3256266952958,186.65525308711221 179.2590034462046,198.49572613398777 177.8599152175011,198.18207621367765 177.19368272763677,200.1031777097087 173.86252027831506,201.2009454150102 169.19889284914825,203.9061444767285 170.66460432682652,206.8857606232341 170.86447407398373,210.1005821142171 169.7651904654922,213.04094262351282 166.76714426127728,215.7852575488796 166.83376751013566,218.6863678470254 160.37131235841662,218.8823879743868 159.87163799093105,215.62844011370908 157.63975914998446,213.7466255914478 156.04080117412377,210.96309033920988 155.67437330482062,208.64999546445324 156.04080117412377,206.06244808784686 157.40657777839806,203.78852754662512 161.20410297065973,200.73047394902096 164.43533054669388,200.8088859024865 167.86642786941957,201.90665146740503 169.13226960028987,203.08282516355393 170.79785082489252,206.61132331955014 170.9310973228421,209.43409707816318 169.66525559220463,213.08014726889087 166.96701400820166,215.4716226105229 166.60058613866568,218.7647759106476 160.3380007337546,219.0 159.80501474195626,215.66764447884634 157.53982427646406,213.66821644071024 156.10742442321498,210.96309033920988 155.874243051745,206.96417124327854 157.43988940294366,203.9845557421213 161.03754484828096,200.76967992790742 165.268121158937,200.92650380081614 168.36610223690514,202.25950397746055 170.49804620444775,205.74880472457153 170.9310973228421,209.70853224169696 169.66525559220463,213.08014726889087 166.93370238365605,215.70684883985086 166.83376751013566,218.80397993620136 160.27137748489622,218.8823879743868 159.83832636661828,215.58923574423534 157.57313590100966,213.43298888663412 156.04080117412377,210.96309033920988 155.9075546761742,207.08178714147652 157.30664290499408,203.86693883757107 161.67046571348328,200.73047394902096 166.86707913468126,201.31856318598147 169.16558122471906,203.08282516355393 170.53135782887693,205.74880472457153 170.9310973228421,209.5517121735902 169.7651904654922,212.92332866168 166.96701400820166,215.70684883985086 166.86707913468126,218.84318395741866 160.27137748489622,218.96079599577934 159.80501474195626,215.4716226105229 157.30664290499408,213.19776117967558 156.1740476723062,211.19831949847867 155.9408663008362,206.57211797349737 157.47320102737285,203.78852754662512 161.07085647271015,201.0049157118483 164.73513516702224,201.0049157118483 168.13292086531874,202.14188651242875 169.19889284914825,203.0044137025834 170.76453920034692,206.7289393323881 170.9977205718169,209.7477372479043 169.49869746959303,213.19776117967558 166.96701400820166,215.7460531964025 166.83376751013566,218.84318395741866 160.23806586046703,218.84318395741866 159.80501474195626,215.55003137062886 156.30729417025577,211.39434368090588 155.8409314273158,209.66932723097852 155.97417792514898,206.37609117929242 157.63975914998446,203.59249924489995 161.5039075911045,201.1617394828936 166.1009117711801,201.4361809186812 169.29882772266865,203.12203088749084 170.59798107796814,205.63118839330855 170.9644089473877,209.82614724803716 169.56532071856782,213.43298888663412 167.03363725717645,215.58923574423534 167.03363725717645,218.80397993620136 160.17144261137582,218.84318395741866 159.93826123990584,215.58923574423534 156.8069685375085,212.4528724323609 155.8076198027702,209.90455723102787 155.9408663008362,206.25847505184356 157.47320102737285,203.59249924489995 160.7710518523818,201.39697501208866 163.80240968125872,201.04412166101974" stroke="#4DD2FF" stroke-linecap="round" stroke-linejoin="round" stroke-width="0.5"><title>2019-12-13 10.0km</title><desc>1576239112000</desc></polyline><polyline fill="none" points="41.58943785435986,228.7351511411689 41.12044966040412,227.25 41.65643616777379,233.0459293501699 41.51127315533813,233.5979081802434 41.01995219028322,233.55848120420706 40.87478917784756,234.24188030791265 40.059643031214364,234.38644500967348 38.15019109862624,235.51667219446972 38.65267844928894,236.62060486195696 38.708510377211496,237.63253431698104 38.46284989459673,238.34219409489742 37.41320965095656,239.4198176726568 37.35737772315042,239.91920096345711 37.55837266345043,245.42542256627348 38.74200953391846,245.87221717854118 39.445491824822966,246.358432975685 41.19861435936764,246.56868785219558 41.377276528510265,246.83150593558094 41.70110171008855,260.4709832555309 41.96909496374428,262.8886112300388 41.89093026483897,267.3558405947115 41.399609299667645,267.53978180976264 35.693586273118854,267.47408855063986 33.48264193022624,267.75 32.18734120402951,267.605475033306 31.874682408000808,265.14852427653386 31.629021925502457,254.04564009405294 27.430460950999986,253.44119358181342 27.22946601069998,253.17838981148088 26.42548624961637,253.060127929195 26.168659381452017,252.1534496700042 26.40315347845899,251.73295890303416 26.28032323718071,251.45701104543696 25.21951660804916,250.53718032218603 24.24804106337251,250.8262707292597 23.723220941552427,250.65544466285064 23.25423274759669,249.9852785420153 23.03090503619751,249.06543666435755 23.064404192904476,242.40294522049226 23.343563832168,240.655130487954 23.633889856981114,239.97176750608924 23.56689154356718,239.23583383690857 24.91802419757005,230.25971216129255 26.659980346623342,230.23342678878544 30.40071951271966,230.53570822881738 30.590548067411873,230.69341998543678 37.50254073558608,231.96824915814796 39.95914556103526,232.6516572196997" stroke="#4DD2FF" stroke-linecap="round" stroke-linejoin="round" stroke-width="0.5"><title>2019-11-23 10.0km</title><desc>1574497580000</desc></polyline></svg>