<?xml version="1.0" encoding="utf-8" ?>
<svg baseProfile="full" height="300mm" version="1.1" viewBox="0,0,200,300" width="200mm" xmlns="http://www.w3.org/2000/svg" xmlns:ev="http://www.w3.org/2001/xml-events" xmlns:xlink="http://www.w3.org/1999/xlink"><defs /><rect fill="#222222" height="300" width="200" x="0" y="0" /><text fill="#FFFFFF" style="font-size:12px; font-family:Arial; font-weight:bold;" x="10" y="20">Over 10km Runs</text><text fill="#FFFFFF" style="font-size:4px; font-family:Arial" x="10" y="280">Runner</text><text fill="#FFFFFF" style="font-size:9px; font-family:Arial" x="10" y="290">Floyd Li</text><text fill="#FFFFFF" style="font-size:4px; font-family:Arial" x="65" y="280">SPECIAL TRACKS</text><rect fill="yellow" height="2.6" width="2.6" x="65" y="283" /><text fill="#FFFFFF" style="font-size:3px; font-family:Arial" x="70" y="285.5">Over 20.0 km</text><rect fill="red" height="2.6" width="2.6" x="65" y="287" /><text fill="#FFFFFF" style="font-size:3px; font-family:Arial" x="70" y="289.5">Over 40.0 km</text><text fill="#FFFFFF" style="font-size:4px; font-family:Arial" x="120" y="280">STATISTICS</text><text fill="#FFFFFF" style="font-size:3px; font-family:Arial" x="120" y="285">Number: 25</text><text fill="#FFFFFF" style="font-size:3px; font-family:Arial" x="120" y="290">Weekly: 1.7</text><text fill="#FFFFFF" style="font-size:3px; font-family:Arial" x="141" y="285">Total: 312.2 km</text><text fill="#FFFFFF" style="font-size:3px; font-family:Arial" x="141" y="290">Avg: 12.5 km</text><text fill="#FFFFFF" style="font-size:3px; font-family:Arial" x="167" y="285">Min: 10.0 km</text><text fill="#FFFFFF" style="font-size:3px; font-family:Arial" x="167" y="290">Max: 35.3 km</text><polyline fill="none" opacity="1" points="41.76555589016061,31.80000000000291 39.900255808606744,32.32773044546775 37.855599949951284,33.699822915543336 38.39366728113964,36.92947936692508 37.87353552773129,38.42819064996729 36.3490114226006,39.99021549591271 36.044106601621024,41.86885041699861 32.70808914816007,41.953283021910465 32.331442016293295,40.159082296988345 31.111822732142173,39.04033701380831 30.179172691423446,37.03502279227541 30.25091500231065,35.72628027803148 30.98627368826419,33.99534926004708 32.0803439283045,32.96100509367534 33.694545921869576,32.32773044546775 35.14732771622948,32.348839633588796 36.2952046894934,32.83435032864509 37.425146084977314,33.76315002710908 38.070826882496476,34.86081669082341 38.33986054803245,36.29621761456656 38.16050477104727,37.68939075367234 37.29959704109933,39.166987745600636 36.331075844937004,39.99021549591271 36.15172006783541,40.81343976895732 36.456624888814986,49.67871159214701 40.366580829024315,51.5783602380543 42.178074177354574,51.641681540728314 42.518850153894164,51.979394807698554 42.84169055253733,62.42710996729147 42.55472130922135,63.20802780176746 39.54154425440356,63.82009635017312 35.183198871673085,64.15778851990763 27.81167643412482,63.82009635017312 20.224927064031363,62.76480454983539 13.714312356431037,62.933651621759054 13.463214268442243,62.511533667726326 13.15830944746267,55.356495297222864 13.463214268442243,52.50707061594585 28.600841853185557,52.021608924886095 32.63634683727287,49.784248113734066 32.45699106005486,40.433490536612226 30.466141934739426,38.027128196670674 30.161237113759853,36.42287012966699 30.286786157637835,35.36742998874979 31.237371776020154,33.63649578343029 32.331442016293295,32.77102291530173 33.49725456722081,32.32773044546775 35.29081233788747,32.41216718412761 37.26372588565573,33.50984145747498 38.303989392588846,35.57851847424172 38.16050477104727,37.73160796602315 37.46101724053733,39.06144547484291 36.40281815570779,39.96910713551915 36.169655645499006,40.70789838988276 36.3848825780442,49.34099433911615 36.61804508813657,49.76314081401506 40.043740430264734,51.49393180246989 42.53678573144134,51.916073614687775 42.69820593087934,63.06028682975739 39.82851349771954,63.798990570168826 33.08473627991043,64.17889426107286 28.24213029909879,63.86230790342961 20.960285749984905,62.78591044181667 13.839861400425434,62.891439867482404 13.517021001665853,62.617063241952565 13.176245025126263,54.892147449209006 13.373536380007863,52.50707061594585 28.08071009966079,52.06382303296414 29.748718826449476,51.599467341191485 32.67221799271647,49.742033511938644 32.421119904727675,40.47570715456095 30.681368867168203,38.55484177955077 30.179172691423446,35.91625957538781 30.69930444494821,34.35420207581774 31.84718141821213,33.08765977638541 33.01299396902323,32.47549471409002 34.19674209773075,32.30662125509116 36.68978739902377,33.066550668285345 38.12463361560367,34.92414342507254 38.214311504154466,37.520521812693914 37.568630706635304,38.85036076180404 36.2593335340498,40.18019063680549 36.169655645499006,40.79233149772335 36.36694700026419,49.488745709328214 39.900255808606744,51.40950333036017 42.48297899845056,51.83164532540832 42.84169055253733,61.47734081755334 42.644399197772145,63.10249854740687 39.52360867673997,63.841202127965516 33.4793189894408,64.19999999999709 28.834004363277927,63.925625216099434 21.33693288185168,62.80701633148419 13.463214268442243,62.8492281040526 13.247987336013466,52.570391616915 28.94161782960873,51.979394807698554 32.45699106005486,49.953106429442414 32.72602472570725,49.594282333753654 32.743960303487256,48.05344194387726 32.47492663783487,40.89787283113401 32.29557086084969,40.24351564265089 30.860724644269794,38.808143791844486 30.304721735301428,37.68939075367234 30.179172691423446,35.979585966750165 30.41233520163223,34.987470138803474 31.309114086907357,33.5520595752605 33.38964110089,32.391058002904174 35.14732771622948,32.391058002904174 36.97675664233975,33.21431437674619 38.10669803782366,34.92414342507254 38.33986054803245,37.0561314705119 37.6941797506297,38.76592681260081 36.2593335340498,40.13797395484289 36.20552680094261,41.72109327036014 35.95442871307023,41.91106672404567 32.58254010416567,41.80552593925677 32.38524874940049,40.306840627861675 30.717240022611804,38.51262474549003 30.286786157637835,37.393870010913815 30.19710826908704,35.979585966750165 30.591690978617407,34.670836364486604 31.631954485666938,33.23542346879549 33.04886512446683,32.47549471409002 35.595717158867046,32.49660388620396 37.712115328293294,33.88980418846768 40.15135389647912,32.41216718412761" stroke="yellow" stroke-dasharray="none" stroke-linecap="round" stroke-linejoin="round" stroke-width="0.5"><title>2026-05-17 22.3km</title><desc>1779013233000</desc></polyline><polyline fill="none" opacity="1" points="74.74725380304153,36.37536345290937 74.94440352279344,37.100953306602605 75.45284227380762,37.954576516363886 76.17918334668502,38.73502075348733 76.97815852682106,39.22279293573956 77.35170536427177,39.582522226366564 77.771945556422,40.503174910892994 77.7823218574631,40.85679911302941 77.33095276221866,42.2103058173052 77.13899119294365,43.338203344799695 77.13380304243765,44.307567584237404 77.26869495594292,45.679281065000396 77.18049639713718,46.47790782546508 76.35039231384872,48.51405026297289 76.04429143315065,49.92223767356336 75.26088070456171,51.85462832291887 75.10004803843913,52.000926506720134 74.09354683748097,52.007022256188066 72.47484387506847,52.573924087162595 71.9819695756596,52.537349946775066 71.15705364290625,52.23256452470741 70.8924579663726,52.464201595088525 70.3477021617291,53.54313020005429 69.75625300238607,54.15268529564128 66.68486789430608,50.76957166110515 64.47990392314387,50.409913459952804 64.16342674137559,50.269707101597305 64.01815852680011,50.08073276490177 64.03372297837632,49.202908220981044 63.935148118500365,49.129755561280035 62.648486789432354,49.050506739949924 58.881889511598274,49.15413979168443 58.60691753402352,49.032218534648564 57.99990392313339,48.53233863566493 56.97265012009302,48.22143549658358 56.692489991983166,47.89224207652296 56.235932746203616,46.73395371454899 56.012842273834394,45.40494102815137 54.7624979983957,44.94160816905787 53.62110488390317,45.03305574427577 51.06853482784936,45.61222028989141 48.49002401920734,45.264722273634106 48.34475580463186,45.343976394950005 48.21505204163259,45.58783453378055 47.820752602099674,46.868072527584445 47.8726341072761,47.10582782429992 48.88951160930446,48.55672312337265 51.83638110489119,49.129755561280035 52.739119295438286,49.87956584239146 52.920704563643085,50.57450308977786 53.45508406724548,51.84853255706548 53.57441152923275,52.689742042592115 54.279999999998836,55.67654432944619 54.316317053628154,56.21902824834979 54.83513210568344,58.86432482020973 55.22943154524546,59.54696194476492 55.61335468373727,59.784664012346184 57.26837469977909,60.357582844866556 59.01159327462665,61.472929482595646 60.697742193733575,61.570445084533276 61.382578062446555,62.106777894667175 61.922145716584055,62.161629827656725 62.793755004007835,62.56997032612708 65.84957566051162,62.93564588630397 66.04153722975752,62.78937594546369 66.14530024019768,62.545591871508805 66.49290632506018,61.338845255795604 66.67449159326497,59.778569099999004 66.62261008805945,59.55915181864839 66.32169735789648,59.351923605823686 66.30094475581427,59.25440418450671 66.50328262610128,58.6997592826483 66.64855084064766,58.53519326695459 66.65373899118276,57.64530949116306 67.04285028020968,56.475030090732616 67.74325060046976,55.560732482652384 69.19593274619547,54.60984731141434 70.25950360289426,53.6711373144135 70.93396317053703,52.39714885637659 71.17780624498846,52.220373073712835 71.53578863089206,52.348383178356016 71.20374699760578,52.21427734722238 70.91839871896082,52.40934026932155 70.35289031226421,53.53093903121044 69.73031224979786,54.1343987382279 66.73674939951161,50.80005106467797 64.22049639714533,50.30018677425687 64.02334667733521,50.06244489238088 63.98184147319989,49.13585161987794 63.525284227362135,49.04441067216976 58.830008006392745,49.14194767781373 58.04140912726871,48.544530880819366 56.98821457166923,48.22143549658358 56.65617293835385,47.837376320403564 56.2048038430803,46.648605213526025 56.04397117692861,45.4415197765411 54.78325060047791,44.935511658775795 54.456397117697634,44.90502909760107 53.24236989588826,45.08792421850376 51.01146517213783,45.60002741315475 48.4173899119196,45.27081874844225 48.25655724579701,45.47809850131671 47.79999999998836,46.95342069770413 48.86875900719315,48.5628192436634 51.867510008014506,49.15413979168443 52.72874299439718,49.86127790491082 52.88438750998466,50.48306446560673 53.46027221775148,51.921681704076036 53.538094475574326,52.59221114850152 54.259247397916624,55.572923214520415 54.81437950360123,58.80946969417346 54.91814251401229,59.120314706044155 55.281313050421886,59.57743662456414 55.63929543635459,59.778569099999004 57.25281024820288,60.36367769490971 59.01678142513265,61.46074002052774 59.34882305844803,61.53387675345948 60.70811849477468,61.55825564347833 61.39295436348766,62.1128725564995 61.79763010406168,62.11896721769881 62.90270616492489,62.60653798835483 65.61092073659529,62.94783503098006 65.90664531625225,62.911267589042836 66.06747798237484,62.77109217632824 66.26462770215585,62.25914424407165 66.5344115292246,61.08896016806466 66.68486789430608,59.821233472659515 66.63817453963566,59.55915181864839 66.3632025620318,59.38239839056769 66.32169735789648,59.26659412135268 66.45658927140175,58.77899460116896 66.66411529222387,58.48033782214043 66.64855084064766,57.63311920538763 67.04285028020968,56.475030090732616 67.52016012810054,55.78016525478233 69.35676541231805,54.50012876421897 69.9897197757964,53.95153283946638 70.337325860688,53.5736081106661 70.91321056845482,52.44591449240761 71.14667734186514,52.23256452470741 71.9871577261656,52.543445638471894 72.516349079262,52.58001977494132 74.01572457965813,52.03750099362151 75.19862289831508,52.03750099362151 75.44246597276651,51.946064732092054 75.587734187342,51.769287541130325 75.69149719775305,51.23285682452115 76.18955964769702,50.038061053193815 76.44896717375377,48.5689153632884 77.16493194553186,46.88026513119985 77.32576461168355,46.27672810014701 77.4139631705475,45.398844567778724 77.35689351480687,43.240656338453846 77.70968775020447,41.667687647499406 78.06767013610806,40.78363566628468 80.20000000001164,36.84486383249168 79.90946357086068,36.7046238674011 79.90427542032558,36.44243517423092 79.42696557246381,36.11927069473677 79.4010248198465,34.43024894717746 79.20387510009459,34.41805366096378 79.09492393914843,34.26561236142152 78.21812650118954,34.27171002129762 78.16624499598402,33.23509840283441 78.00022417935543,33.05216496902358" stroke="yellow" stroke-dasharray="none" stroke-linecap="round" stroke-linejoin="round" stroke-width="0.5"><title>2026-05-16 35.3km</title><desc>1778887035000</desc></polyline><polyline fill="none" opacity="1" points="116.19999999998254,49.89181112918595 115.96122448975802,49.89181112918595 114.69846938771661,49.81073811904571 113.44030612241477,49.540493800188415 113.35765306118992,45.2974660170039 98.22295918362215,45.72448769805851 97.2816326530301,45.719082383169734 97.06122448976384,45.638002589585085 96.776530612231,45.87583627696222 96.87295918361633,46.31366350805911 96.78112244894146,46.64878792731906 96.76734693875187,47.31903000987586 95.15561224485282,49.281057876523846 94.86173469384084,50.259340455711936 87.1061224489531,50.22691150641913 83.79999999998836,50.52958087988736 83.85051020403625,50.7025339829961 87.71683673464577,50.41067527362611 96.06020408158656,50.39446085081363 104.89030612242641,49.756689372399705 106.69030612241477,49.72966497712332 109.76683673466323,49.3891563420475 111.96173469384667,49.59454278108751 115.9887755101663,50.12421969456409" stroke="#4DD2FF" stroke-dasharray="none" stroke-linecap="round" stroke-linejoin="round" stroke-width="0.5"><title>2026-05-12 15.2km</title><desc>1778590468000</desc></polyline><polyline fill="none" opacity="1" points="149.86407320585568,31.79999999998836 147.57130657753441,32.64326939597959 145.83381936699152,33.90816663908481 146.29953758837655,36.20604226493742 146.13832743477542,37.63956561089435 145.6367847349029,38.71470119150763 144.22171783144586,40.25361041400174 144.0067709600553,41.855749553695205 140.58553325675894,41.91899161758192 140.35267414606642,40.380095562388306 138.6868358926149,38.44064758789318 138.1494687141385,36.60658661574416 138.3823278247146,34.98332283212221 139.31376426760107,33.52869832936267 141.53488193883095,32.411370676301885 143.34401810646523,32.47461580907111 144.49040142074227,32.91733116291289 145.85173160629347,34.56169366037648 146.29953758837655,35.99522911768872 146.10250295628794,37.766052458042395 144.18589335295837,40.35901471001853 144.40084022423252,49.57112969440641 147.87581464543473,51.468307475865004 150.0969323166646,51.67910386591393 150.5447382987477,52.07961637797416 150.8134218879277,62.176475380008924 150.68803621304687,62.97745639011555 149.97154664166737,63.44118073201389 145.2964521885151,64.09460861184925 141.1766371531412,64.19999999999709 136.60901613568421,63.92598227215058 128.65598189353477,62.82990750427416 121.54482289764564,62.766672233265126 121.1865781119559,55.852825385547476 121.36570050485898,52.564446211152244 136.4119815035956,52.01637761501479 137.9345218426315,51.42614817051799 140.62135773536284,49.781928138720104 140.4601475817617,40.86495453637326 140.24520071025472,40.16928693605587 139.27793978899717,39.30496918100107 138.4181523033185,37.955782574630575 138.113644235651,36.33253004371363 138.5793624568032,34.58277514067595 140.2272884710692,32.85408617401845 141.42740850313567,32.43245238949021 142.71708973147906,32.390288960858015 144.81282172782812,33.23355579916097 146.17415191337932,35.38386969921703 146.22788863128517,37.260104576242156 145.6367847349029,38.75686325014976 144.2038055921439,40.232529547894956 144.06050767784473,41.89791093186068 140.67509445315227,41.98223366093589 140.28102518885862,40.19036780894385 138.88387052470353,38.84118733997457 138.1494687141385,36.94388648220047 138.32859110692516,35.23629989671463 139.1704663533019,33.7395141483139 141.12290043523535,32.516779219484306 143.5589649779722,32.558942620802554 144.7232605314348,33.1703109129885 145.47557458130177,33.95032973890193 146.33536206686404,36.16387965375907 145.83381936699152,38.39848546079884 144.2396300707478,40.148206060854136 144.02468319935724,41.834668861105456 140.67509445315227,41.9611529820686 140.31684966746252,40.29577213920129 138.91969500330742,38.883349371142685 138.22111767122988,37.260104576242156 138.29276662832126,35.40495109044423 139.0271684390027,33.8449219721806 140.71091893175617,32.66435108403675 142.86038764577825,32.411370676301885 144.8844706849195,33.31788228201913 145.7084336921107,34.35087873201701 146.26371310988907,35.700090327824 146.17415191337932,37.55524100047478 145.5293112990912,38.862268356693676 144.22171783144586,40.33793385534955 144.0784199172631,41.855749553695205 140.76465564966202,42.00331433750398 140.38849862467032,40.35901471001853 138.97343172109686,38.862268356693676 138.18529319262598,36.94388648220047 138.47188902110793,34.81467127302312 139.49288666038774,33.38112712021393 141.64235537440982,32.390288960858015 143.5947894564597,32.558942620802554 144.9561196421273,33.38112712021393 146.26371310988907,35.61576487716229 146.20997639198322,37.34442931454396 145.42183786351234,39.00983541001915 144.22171783144586,40.19036780894385 144.15006887423806,41.81358816627471 140.7288311709417,42.00331433750398 140.24520071025472,40.148206060854136 139.134641874698,39.1363213667064 138.3106788676232,37.63956561089435 138.1494687141385,35.9530664607737 138.7943093283102,33.95032973890193 138.88387052470353,34.16114510121406 139.60036009608302,33.31788228201913 140.76465564966202,32.64326939597959 143.2902813886758,32.49569751537638 145.00985635991674,33.33896389698202 145.65469697408844,34.16114510121406 146.29953758837655,35.931985128932865 146.26371310988907,37.028211357595865 145.72634593129624,38.56713391444646 144.16798111354,40.29577213920129 144.06050767784473,41.855749553695205 140.78256788884755,42.00331433750398 140.31684966746252,40.31685299843957 138.61518693552352,38.37740439378831 138.1494687141385,36.986048924474744 138.47188902110793,34.70926397436415" stroke="#4DD2FF" stroke-dasharray="none" stroke-linecap="round" stroke-linejoin="round" stroke-width="0.5"><title>2026-05-11 15.3km</title><desc>1778503630000</desc></polyline><polyline fill="none" opacity="1" points="188.19999999995343,32.4925088804448 187.90500758728012,35.385773675108794 182.79180576629005,37.00599511532346 176.79362670704722,40.99866268807091 177.9244309561327,45.51207705400884 177.9244309561327,50.54622501466656 176.64613050059415,53.960160431219265 172.61456752661616,58.24201468919637 171.92625189688988,63.218180575058796 162.43732928694226,63.04459417326143 161.99484066781588,58.87850360851735 156.83247344451956,52.86075988196535 156.04582701064646,45.801397187111434 157.12746585765854,42.79246014315868 159.48740515951067,39.89923546399223 163.86312594846822,37.41104970744345 168.92716236738488,37.121725030010566 174.48285280750133,39.78350615105592 177.62943854322657,44.528387429134455 178.1210925646592,49.388953820685856 176.74446130520664,53.555118386866525 172.31957511371002,58.76277840684634 171.7787556904368,63.16031844745157 162.53566009108908,63.16031844745157 161.8473444613628,58.70491579652298 158.7990895297844,55.69605142873479 156.48831562977284,51.93494713853579 155.89833080442622,46.90081226424081 156.43915022769943,44.41265911888331 159.53657056158409,39.725641485187225 165.53474962059408,37.00599511532346 171.09044006071053,37.70037422812311 176.84279210935347,42.09808764915215 178.02276176051237,46.49576486740261 177.97359635820612,50.08331683790311 175.7119878605008,55.17528472171398 172.4670713201631,58.357740003673825 172.07374810334295,63.04459417326143 162.97814871021546,63.44962902314728 161.8473444613628,58.589190557424445 159.0449165403843,56.04322895151563 156.24248861917295,51.587766946002375 155.99666160880588,46.20644511032151 157.42245827033184,42.38740963139571 161.25735963578336,38.510482052282896 163.96145675284788,37.353184784413315 167.99301972682588,37.00599511532346 172.51623672246933,38.33688762184465 174.53201820957474,39.84137081052177 177.82610015175305,45.164892687345855 178.21942336880602,48.34740760241402 177.33444613032043,52.68717011483386 172.61456752661616,58.068426670331974 172.31957511371002,62.755283378239255 163.0273141125217,63.507491119613405 161.79817905905657,58.64705317997141 157.27496206387877,53.728707872040104 155.80000000004657,48.46313506050501 156.6358118362259,43.834017191664316 159.38907435513102,39.66777681285748 165.68224582727998,36.94813014846295 171.1887708650902,37.758239113376476 175.2203338390682,40.47788165346719 177.1869499241002,43.486831734422594 178.1702579667326,47.30585935380077 176.89195751142688,53.555118386866525 172.36874051601626,58.531327928300016 172.07374810334295,63.1024563133833 162.97814871021546,63.44962902314728 161.89650986343622,58.87850360851735 157.12746585765854,53.555118386866525 155.89833080442622,50.08331683790311 156.73414264037274,43.776152964448556 159.2907435509842,40.072829386685044 164.69893778464757,37.121725030010566 170.10713201831095,37.41104970744345 174.9253414266277,40.24642325291643 178.07192716235295,45.743533173110336 177.33444613032043,52.282127105339896 175.46616084990092,55.52246258291416 172.4670713201631,58.47346529306378 172.07374810334295,63.04459417326143 162.8306525037624,63.39176692056935 161.89650986343622,58.76277840684634 158.60242792102508,55.58032553771045 156.29165402124636,51.52990355878137 155.94749620649964,46.09071716357721 157.71745068277232,41.80876551032998 160.27405159338377,39.03126500477083 163.2731411231216,37.468914624128956 167.99301972682588,37.00599511532346 172.61456752661616,38.27902279922273 176.99028831580654,42.85032447683625 178.1210925646592,45.97498919174541 177.87526555382647,50.83554242149694 176.0561456750147,54.9438326889649 172.4670713201631,58.531327928300016 172.4670713201631,62.40811021724949 171.68042488628998,63.218180575058796 162.43732928694226,63.04459417326143 161.65068285283633,58.47346529306378 157.86494688945822,54.77024359861389 156.29165402124636,51.64563032705337 155.80000000004657,48.17381636874052 156.73414264037274,43.486831734422594 160.37238239776343,39.08912974590203 164.2564491655212,37.29531985515496 170.20546282245778,37.468914624128956 173.64704097132199,39.08912974590203 176.00698027317412,41.345849762205034" stroke="#4DD2FF" stroke-dasharray="none" stroke-linecap="round" stroke-linejoin="round" stroke-width="0.5"><title>2026-05-10 11.2km</title><desc>1778422578000</desc></polyline><polyline fill="none" opacity="1" points="30.554248282685876,88.74791168465163 30.207600301480852,87.56693258901942 30.408291237894446,85.46262512763496 31.375256659230217,83.93806189052702 33.03551804297604,82.95031043546624 34.951204254990444,82.80000000000291 37.085826034191996,83.76627938229649 38.25348239205778,85.48409776558401 38.47241795912851,86.64361675929104 38.19874850020278,88.40435485517082 37.39598475431558,89.800050771315 36.283062288188376,90.80924015880737 36.483753224718384,100.23525041079847 39.968477667542174,102.14616368760471 42.72341688675806,102.68293376687507 43.015330976224504,113.80448286360479 42.39501353609376,114.36269089662528 41.00842161127366,114.62032484344672 34.403865337371826,115.19999999999709 28.45611576468218,114.89942790809437 21.19475278945174,113.82595243238029 13.148870698874816,113.71860456527793 12.948179762461223,103.4558801282401 16.232213268755004,103.06940732423391 28.182446305756457,102.83322912866424 29.642016753088683,102.4038135069859 32.76184858416673,100.51437372335931 32.70711469242815,92.8490753625083 36.15534987405408,92.72024428630539 36.52024248579983,100.38554762797139 39.8590098839486,102.12469285426778 42.72341688675806,102.70440453985066 43.05182023742236,112.98863752748002 42.81464003981091,114.12652615133265 39.49411727220286,114.85648900063825 33.56461233017035,115.19999999999709 28.8574976377422,114.94236680628092 21.34070983424317,113.84742199885659 13.185359960072674,113.69713498484634 12.966424393001944,103.34852664718346 28.182446305756457,102.85469988537079 29.769729167222977,102.36087189373211 32.72535932296887,100.47143170084746" stroke="#4DD2FF" stroke-dasharray="none" stroke-linecap="round" stroke-linejoin="round" stroke-width="0.5"><title>2026-05-10 11.3km</title><desc>1778397813000</desc></polyline><polyline fill="none" opacity="1" points="68.00998902256833,82.80000000000109 68.33330601119087,82.91442803603786 68.38194662009482,83.06251075250839 68.34475086034217,83.35194311932173 68.58223148030811,83.59089106908868 68.6079823908949,83.82310633370798 67.25749019064824,84.02166583863436 66.4677955989755,83.89378020094045 66.13017254891747,83.8836839440064 61.082994071693975,83.87358768381091 60.253242507984396,83.83656803507074 59.703889748547226,83.84666430727339 59.583718832436716,83.89041478232139 59.55796792184992,87.30276246959693 59.446380642577424,87.62580559902744 59.480715190045885,89.59764206193358 59.41776851969189,98.25407544752852 59.45496427944454,101.1334131633048 59.392017609105096,112.92045305007377 59.42062973197608,114.19137143939406 59.58085762015253,114.2989600385281 62.85408447838563,114.33594353384251 62.90844751187251,114.38637550228486 62.91416993645544,114.47379072127296 62.791137808031635,115.20000000000073 62.931337210175116,114.49060131223996 62.865529327551485,113.4685009235618 62.899863875019946,112.96080046091993 63.088703886052826,112.22445200335824 64.44491851088242,109.50754574675375 65.13733188474725,108.40793847451278 65.60084827549872,107.80263353061855 65.52073433142505,107.72528816387603 65.26322522545524,108.05148254016967 64.45350214774953,109.39321529720473 64.30758032103768,109.39994062935875 64.12732394684281,109.29569781803548 64.03290394131909,109.16119045013147 64.01573666759941,108.98296729456342" stroke="yellow" stroke-dasharray="none" stroke-linecap="round" stroke-linejoin="round" stroke-width="0.5"><title>2025-11-09 21.3km</title><desc>1762645227000</desc></polyline><polyline fill="none" opacity="1" points="97.99947720440105,82.87028374656802 105.52383159962483,83.92453903198475 108.9277062069159,86.03304446360562 111.37610724032857,89.05522363370983 113.70507407700643,95.02925732271979 111.79412692878395,103.46309360093437 106.30015387875028,109.36671377375023 106.35987097676843,114.35663655918324 94.65531969559379,115.05943950259825 93.5206948267296,109.15587112109642 88.74332695640624,104.44703402655432 86.2949259232264,98.40280498831999 86.6532285134308,92.92078112473246 89.69880053051747,87.29814443376381 95.67051036795601,83.50283712340752 103.07543056621216,83.08113494073041 108.80827201041393,85.82219422899652 113.28705438855104,92.70993312814971 113.04818599484861,100.58154520095559 110.36091656796634,105.36069165694062 106.59873937047087,108.8044665476773 106.30015387875028,114.56747752224328 95.133056482533,115.05943950259825 93.58041192474775,109.01530931453453 87.25039949710481,101.70605341607006 86.35464302171022,96.01321053697029 87.60870208754204,90.60144939349266 92.44578705588356,85.04907611489762 99.79099015588872,82.79999999998836 106.77789066568948,84.34624066652032 109.70402848604135,86.94672802288551 112.86903469962999,92.00710597779835 113.52592278178781,96.01321053697029 112.9884688963648,100.08957224385813 111.31639014184475,104.165908342693 106.4793051739689,108.9450283999322 106.30015387875028,114.42691688769264 96.98428653203882,115.20000000001164 94.53588549909182,114.84859869937645 93.87899741646834,109.50727550429292 89.04191244835965,104.72815958817955 87.31011659558862,101.70605341607006 86.4143601199612,95.80236354510998 87.72813628427684,90.46088356774999 92.92352384258993,84.76794202683959 100.44787823781371,82.87028374656802 107.01675905915909,84.41652424575295 111.7344098307658,89.61748797266046 113.16762019181624,93.0613464177004 113.28705438855104,99.5975989138824 111.31639014184475,104.09562690288294 106.65845646872185,108.38278080819873 106.35987097676843,114.35663655918324 94.8344709908124,115.05943950259825 93.69984612148255,109.15587112109642 89.04191244835965,104.7984409595374 86.71294561168179,99.10562521097017 86.59351141494699,93.48304211394861 89.34049794031307,87.86041029548505 94.47616840037517,83.92453903198475 101.64222020539455,83.01085121714277 106.77789066568948,84.48680781712756 112.27186371595599,90.39060064329533 113.46620568353683,94.88869245589012 112.809317601379,101.00323600985575 110.48035076470114,105.07956636906601 106.4793051739689,108.87474747758824 106.24043678026646,114.42691688769264 102.8962792714592,115.05943950259825 94.5956025973428,114.98915924242465 93.75956321996637,109.15587112109642 89.34049794031307,105.14984770253068 87.48926789057441,101.91689848946407 86.59351141494699,93.41275951697025 91.01257669483311,86.17361124878516 97.46202331897803,83.08113494073041 105.64326579659246,84.06510627391981 111.31639014184475,88.98494055704214 113.40648858505301,94.74812755879248 112.92875179811381,100.65182702161837 110.30119946948253,105.43097295984626 106.59873937047087,108.6639046651544 106.35987097676843,114.42691688769264 102.65741087775677,114.98915924242465 94.53588549909182,114.84859869937645 93.81928031845018,109.22615201311419 89.22106374357827,105.07956636906601 86.77266271039844,100.08957224385813 87.19068239885382,91.58540932222968 91.72918187524192,85.61134392552776 97.04400363052264,83.15141865680926 103.7920357468538,83.36226975952741 107.97223263327032,85.2599266008474 111.01780465012416,88.56324193737237 113.46620568353683,94.60756263119401 112.809317601379,101.07351778488373 110.48035076470114,105.14984770253068 106.53902227198705,108.5936237120768 106.30015387875028,114.35663655918324" stroke="#4DD2FF" stroke-dasharray="none" stroke-linecap="round" stroke-linejoin="round" stroke-width="0.5"><title>2025-11-01 10.0km</title><desc>1761964262000</desc></polyline><polyline fill="none" opacity="1" points="149.37577968765981,95.68975858046906 149.07654524268582,99.98628799634753 146.20389457140118,105.69147170713404 142.4933874544222,108.79056286724517 141.8350716754794,114.84783476463053 130.4641627687961,115.20000000001164 129.56645943387412,109.4244660580298 124.29993320349604,104.21235481032636 122.08559831115417,98.08454896969488 122.62422031187452,91.95668538461905 125.37717720516957,87.58966689987574 128.84829676616937,84.70178372767987 135.431454554433,82.79999999998836 140.8176745630335,83.78611077531241 144.1092534570489,85.54701915418264 148.47807635297067,91.60450756183127 149.31593279866502,97.87324429035652 147.4606792400591,103.93061787734041 142.1941530094482,109.21316506306175 141.89491856470704,114.84783476463053 130.22477521258406,114.988700881775 129.32707187836058,109.14273138291901 124.95824898220599,105.4097354147234 123.10299542383291,101.95845592743717 122.32498586713336,93.92887766793137 125.85595231712796,87.23748671193607 131.9004881044384,83.5748014493729 138.72303344868124,83.36349205474835 144.94710990274325,86.5331257636426 148.53792324173264,91.95668538461905 149.37577968765981,98.08454896969488 147.4606792400591,103.86018362501636 142.31384678767063,108.720129141293 141.77522478695028,114.91826782719 130.2846221018117,115.05913392873481 129.56645943387412,109.21316506306175 123.4620767578017,102.87410329090199 122.0257514223922,96.32367454195628 122.68406720086932,92.23842750559561 124.71886142645963,88.64620631950675 129.80584699008614,84.27916560217272 137.10716744605452,82.94087305950234 144.4683347910177,86.18094500352163 148.77731079771183,92.8723468312528 149.31593279866502,98.36628843582002 146.92205723933876,104.49409162148368 142.31384678767063,108.79056286724517 141.53583723073825,115.05913392873481 130.34446899103932,115.05913392873481 129.7460001008585,109.14273138291901 125.49687098315917,105.6210376455565 123.04314853483811,101.46541450545192 122.38483275589533,93.2949593719095 126.5142680958379,86.46268962684553 132.5588038833812,83.29305557475891 140.21920567331836,83.64523789886152 145.90466012689285,87.80097492120694 148.89700457570143,93.99931299587479 149.07654524268582,99.07063656690298 147.2811385730747,104.0714863591711 142.25399989867583,109.07229769520927 142.0146123424638,114.63653553207405 141.2366027859971,114.988700881775 130.2846221018117,115.05913392873481 129.32707187836058,109.07229769520927 125.25748342741281,105.6210376455565 123.04314853483811,101.67671801749384 122.38483275589533,93.5062655393267 126.39457431808114,86.67399801441934 133.03757899510674,83.29305557475891 140.93736834079027,83.85654720210005 145.84481323766522,87.51923087757314 148.95685146469623,93.92887766793137 149.01669835392386,99.84541862958577 146.50312901637517,105.19843311543809 142.3736936764326,109.00186399975792 141.77522478695028,114.84783476463053 130.2846221018117,115.05913392873481 129.62630632310174,109.35403240064625 125.43702409416437,105.48016949929297 123.04314853483811,101.67671801749384 122.56437342311256,93.08365313598188 126.21503365109675,87.02617850754177 133.5163541068323,83.0817460884573 141.17675589676946,83.71567434089957 146.0842007936444,87.58966689987574 149.01669835392386,93.85844233218813 148.95685146469623,99.91585331672104 147.16144479508512,104.28278902487364 142.25399989867583,109.21316506306175 142.4933874544222,114.42523623054149 143.03200945514254,109.49489970767172 147.7599136850331,104.56452580535552 149.85455479938537,99.70454923220677 149.9742485776078,94.4219248041627" stroke="#4DD2FF" stroke-dasharray="none" stroke-linecap="round" stroke-linejoin="round" stroke-width="0.5"><title>2025-10-27 10.0km</title><desc>1761565093000</desc></polyline><polyline fill="none" opacity="1" points="167.519124325132,83.9719436452724 170.740668927785,83.42044102225918 178.29665535967797,84.66132125206059 183.33397964737378,89.9695038117934 185.20833287062123,95.41551523032831 184.73974456475116,100.58573611394968 183.33397964737378,104.17039793822914 178.23808182124048,109.27161264902679 178.23808182124048,114.44172097672708 166.75766832823865,114.92426227784017 165.93763879314065,109.27161264902679 161.19318219646811,104.79081812768709 158.85024066688493,99.75850359501783 158.79166712914594,93.8299724108656 161.6617705023382,87.97032336960547 168.39772739866748,83.8340680343681 176.77374336565845,84.10981922631618 179.5266996624414,85.55751102446811 182.6896707266569,89.00438300310634 185.2669064088259,95.48445178510156 183.6854208766017,103.27423437486868 178.29665535967797,109.06480744248256 178.12093474483117,114.44172097672708 166.64052125182934,114.92426227784017 165.87906525470316,109.27161264902679 161.8960646551568,105.75591499765869 159.02596128196456,100.37892808509059 158.96738774352707,93.2095415367512 161.42747634928674,88.59075935150031 167.6948449399788,84.24769477767404 174.3136547601316,83.76513021782739 178.99953781836666,85.48857339442475 181.40105288568884,87.48776163253933 185.2669064088259,94.45040268020239 185.1497593326494,99.06914234114811 183.80256795324385,103.3431700784713 178.29665535967797,109.06480744248256 178.12093474483117,114.5106554706581 167.05053601926193,115.06213115371065 165.76191817829385,109.34054770309012 161.72034404031,105.75591499765869 158.73309359070845,98.86233381944476 159.20168189657852,92.93379428761546 161.60319696413353,88.31501010089414 168.33915386046283,83.9719436452724 176.6565962890163,84.3166325421189 179.8195673536975,85.76432386960369 181.92821472976357,88.03926073072944 185.09118579421192,94.86402252380503 185.0326122562401,99.55169529718114 183.6268473386299,103.6189128178521 178.23808182124048,109.27161264902679 178.12093474483117,114.5106554706581 166.87481540464796,114.9931967195007 166.05478586931713,109.68522286077496 160.37315266113728,103.68784848396899 158.6745200525038,98.93127000099048 159.55312312580645,91.21037127240561 161.54462342569605,88.3839474246488 168.5148744750768,83.9719436452724 174.66509598935954,83.90300584351644 180.8153175036423,86.86732457543258 184.91546517959796,93.62316218676278 185.09118579421192,99.41382306138985 182.9239648799412,104.65294702653773 178.41380243585445,108.9269372675335 178.0623612063937,114.57958995708032 166.93338894285262,115.20000000001164 166.05478586931713,109.61628784402274 161.60319696413353,105.41123771195998 159.14310835837387,100.51680011168355 159.02596128196456,93.9678458563285 161.4860498874914,88.59075935150031 166.75766832823865,84.66132125206059 172.7907427661121,83.62725456192857 179.58527320064604,85.76432386960369 184.03686210606247,91.07249722973211 185.32547994726337,95.62232487212168 184.79831810318865,100.79254407557892 182.98253841814585,104.65294702653773 178.35522889811546,108.9269372675335 178.17950828326866,114.64852443616837 166.64052125182934,114.78639337193454 165.99621233087964,109.34054770309012 161.8960646551568,105.68697955546668 159.55312312580645,101.89551873656455 158.73309359070845,94.1746559686726 161.83749111695215,88.10819808451924 164.64902095193975,85.76432386960369 169.51062462478876,83.8340680343681 177.35947874793783,84.59238352510147 180.581023350358,86.79838708747411 182.98253841814585,89.90056665957673 183.86114149168134,88.93544574640691 179.29240550962277,84.45450804854045 173.37647814839147,82.80000000004657 166.5819477136247,83.8340680343681 162.3060794225894,86.79838708747411 160.7831674288027,88.79757121094735" stroke="#4DD2FF" stroke-dasharray="none" stroke-linecap="round" stroke-linejoin="round" stroke-width="0.5"><title>2025-10-19 10.0km</title><desc>1760866141000</desc></polyline><polyline fill="none" opacity="1" points="40.32533455407247,142.4825109335943 41.04506211937405,148.69431768817594 39.125788611825556,154.90606523456518 34.08769565541297,159.84718577656895 33.787809170084074,165.35296168125933 22.272168127121404,165.98824052343844 21.252554076025262,159.77659860410495 15.254824366187677,153.28254602261586 13.995301127200946,146.43548571888823 17.114120576530695,138.67069111019373 23.531691366108134,134.50589951808797 30.728967017959803,134.15294985455694 37.14653780753724,137.68243788660038 40.685198336606845,143.47075687773759 41.16501671355218,149.32961276889546 38.94585672067478,155.32959132036194 34.20765025005676,159.63542423583567 33.547899981727824,165.7764809782384 22.212190829915926,165.84706750087207 21.492463264614344,160.34129577036947 17.47398435883224,156.74134295183467 14.954937880625948,152.5060788829578 14.235210315324366,144.529590154998 17.77387084439397,138.10597516590497 24.971146496478468,133.94117996486602 31.86853566276841,134.4353096006089 37.80628807609901,138.38833319908008 41.04506211937405,144.31782363716047 41.224994010524824,149.7531424787594 39.1857659087982,155.04724062723108 34.14767295285128,159.91777294134954 33.84778646728955,165.7764809782384 22.152213532710448,165.84706750087207 21.492463264614344,160.55305708147353 17.114120576530695,156.24723022861872 14.235210315324366,150.67078923882218 14.535096801118925,142.41192188009154 17.71389354742132,137.82361701049376 20.05300813424401,136.12946550757624 27.01037459773943,133.79999999998836 34.267627546796575,135.56474736134987 37.866265372838825,138.4589226883836 40.62522103940137,142.69427804771112 41.04506211937405,150.7413773976732 39.1857659087982,155.1884159889887 34.32760484400205,159.98836009862134 34.20765025005676,165.56472136406228 23.531691366108134,166.20000000001164 22.152213532710448,165.84706750087207 21.31253137346357,160.12953439017292 16.874211387941614,155.75311713072006 14.115255721379071,149.8237307370291 13.935323829995468,145.02371176227462 17.114120576530695,138.67069111019373 19.693144351709634,136.341234686377 24.37137352535501,134.29412974294974 31.448694583028555,134.29412974294974 36.66671943082474,137.2589003322064 41.16501671355218,144.45900132338284 40.62522103940137,151.72961081838002 38.94585672067478,155.32959132036194 34.08769565541297,159.56483704026323 33.9077637642622,165.56472136406228 22.512077315477654,165.91765401605517 21.252554076025262,160.05894724826794 15.854597337311134,154.55312661948847 14.055278424406424,149.96490723028546 14.235210315324366,144.2472347827861 16.75425679376349,139.16481715993723 19.633167054736987,136.341234686377 23.831577851669863,134.3647196755046 31.32873998885043,134.3647196755046 37.68633348145522,138.17656468588393 41.464903198881075,146.22371982043842 39.365697800181806,154.83547752688173 34.20765025005676,159.35307540814392 34.027718358673155,165.56472136406228 22.09223623550497,165.91765401605517 21.37250867043622,160.34129577036947 16.034529228694737,154.76488981145667 14.055278424406424,149.2590244570747 14.954937880625948,142.27074375044322 18.073757329955697,137.75302745238878 22.931918394984677,134.6470793298795 30.60901242401451,134.08235989901004 35.16728700348176,136.12946550757624 39.24574320623651,140.29424672358437 41.10503941611387,145.51783299492672 41.04506211937405,150.3178483301308 38.7059475320857,155.54135426017456 34.14767295285128,159.70601142355008 34.267627546796575,165.21178852109006 34.98735511209816,160.2001215245691 38.28610645281151,157.30604274797952 41.04506211937405,152.788430677203 42.0646761697717,147.9178450818872" stroke="#4DD2FF" stroke-dasharray="none" stroke-linecap="round" stroke-linejoin="round" stroke-width="0.5"><title>2025-10-16 10.0km</title><desc>1760611285000</desc></polyline><polyline fill="none" opacity="1" points="63.577396830776706,133.80000000004657 70.09756001248024,135.07897770684212 75.5310293303337,140.2659172868589 77.64404517645016,146.16334670881042 76.25549190607853,153.765978696174 70.27867565630004,160.23169918602798 70.21830377494916,165.7736945997458 58.62690256326459,166.12894911924377 57.84206810593605,160.44485372165218 52.468970669200644,155.25807369622635 50.35595482354984,149.7870421038824 50.718186111189425,143.46332536108093 54.099011464742944,137.99219539680053 61.34363722219132,133.94210875744466 68.1656598104164,134.43948916526278 73.7802447725553,137.77903356560273 77.52330141398124,145.59492208540905 76.43660755013116,153.41071748151444 70.45979130035266,159.94749303115532 70.21830377494916,165.7736945997458 58.56653068191372,166.20000000001164 57.72132434346713,160.44485372165218 52.65008631325327,155.4712298476952 50.476698586018756,150.28441049769754 50.65781423007138,143.74753865791718 54.34049898991361,137.49481768260011 62.068099797936156,133.94210875744466 70.03718813089654,134.79476065433118 76.13474814360961,141.1185609640088 77.46292953239754,145.95018753269687 76.13474814360961,153.90808312798617 70.33904753788374,159.94749303115532 70.33904753788374,165.63159273815108 58.62690256326459,166.12894911924377 57.84206810593605,160.58695670659654 52.106739381793886,154.61860482604243 50.476698586018756,149.85809475474525 50.718186111189425,143.5343786968151 54.15938334632665,137.8500875167665 61.162521578371525,134.08421748370165 69.43346931808628,134.79476065433118 74.6254511110019,138.7027343340451 77.52330141398124,145.73702828737441 76.19512002519332,153.90808312798617 70.45979130035266,160.0185445813113 70.15793189383112,165.84474551922176 58.62690256326459,166.12894911924377 57.72132434346713,160.30275070562493 52.589714431902394,155.11596955690766 50.35595482354984,149.71598944527796 50.597442348720506,143.96069854969392 52.71045819460414,139.34221871959744 59.773968307999894,134.5105434784782 67.13933782815002,134.15527183539234 70.64090694440529,135.36319463665131 74.02173229772598,138.27641106396914 77.52330141398124,145.87913445866434 77.4025576512795,150.14230528078042 75.95363249978982,154.26334407326067 70.39941941876896,160.23169918602798 70.33904753788374,165.84474551922176 58.68727444438264,166.20000000001164 57.84206810593605,160.51590521779144 53.19343324494548,156.11069788696477 50.41632670466788,150.21335789299337 50.718186111189425,143.25016530777793 53.79715205845423,138.27641106396914 60.86066217161715,134.15527183539234 68.89012238616124,134.5815977838938 74.32359170424752,138.63168047508225 77.4025576512795,145.66597519034985 76.31586378766224,153.33966521557886 73.65950100962073,157.31858025986003 70.39941941876896,160.08959612390026 70.39941941876896,165.63159273815108 58.68727444438264,166.12894911924377 57.660952462116256,160.23169918602798 52.77083007595502,155.61333391047083 50.476698586018756,150.28441049769754 51.080417399294674,141.75804299436277 53.495292651699856,138.63168047508225 61.041777815902606,134.08421748370165 68.82975050481036,134.5105434784782 74.6254511110019,138.986949693528 77.28181388857774,144.88439061364625 76.73846695688553,152.20282791322097 74.14247606066056,156.67911339830607 70.39941941876896,159.87644147319952 70.15793189383112,165.7736945997458 59.170249494956806,166.20000000001164" stroke="#4DD2FF" stroke-dasharray="none" stroke-linecap="round" stroke-linejoin="round" stroke-width="0.5"><title>2025-10-08 10.1km</title><desc>1759919017000</desc></polyline><polyline fill="none" opacity="1" points="90.06541427690536,138.02617850725073 93.95546290325001,135.1382928325911 98.50382745126262,133.80000000004657 108.37856627255678,135.9835289918119 112.56784940930083,141.75928000849672 113.70494054607116,148.66193954175105 111.37091137026437,155.2827890245244 106.52331231231801,159.86099658574676 106.3437716064509,165.70696861710167 94.61377882468514,165.9887008817168 94.01530980505049,160.56533334951382 90.18510808050632,157.04364190076012 87.49199749296531,152.95845592714613 86.59429396362975,145.06974831607658 89.8260266687721,138.5192308772821 96.10995137318969,134.64523789891973 102.33402917603962,134.15218259155517 109.45581050775945,137.5331257635844 113.16631842846982,143.6610404578969 113.52539984020405,149.15498384763487 111.72999278199859,154.64888082188554 106.46346541075036,160.00186399946688 105.9248432929162,165.77740169485332 94.67362572671846,166.12956696812762 93.8956160012167,160.35403240047162 87.49199749296531,153.24019371479517 86.53444706182927,145.9149715662934 89.76617976697162,138.80097492109053 95.93041066732258,134.71567434095778 102.21433537220582,134.15218259155517 109.27626980189234,137.32181733025936 112.98677772283554,143.0975564601831 113.58524674247019,149.0141140841879 111.37091137026437,155.2827890245244 106.46346541075036,160.1427313828026 106.04453709674999,165.84783476468874 94.55393192265183,166.0591339287348 93.47668768768199,159.86099658574676 89.8260266687721,156.76190576091176 87.19276298303157,152.74715250637382 86.53444706182927,145.63323060475523 89.58663906133734,139.08271884266287 92.93806557008065,135.9835289918119 95.93041066732258,134.71567434095778 103.17188580334187,134.22261908679502 110.0542795273941,138.3079227647395 112.56784940930083,141.75928000849672 113.52539984020405,149.22541871789144 111.67014587996528,154.71931509725982 106.52331231231801,159.86099658574676 106.04453709674999,165.77740169485332 94.79331953055225,166.20000000001164 93.83576909941621,160.21316506294534 90.60403639427386,157.81841565587092 87.91092580626719,154.01497200125596 86.47460015979595,146.0558420010493 89.10786384553649,139.64620631939033 94.91301333438605,135.06785643630428 102.33402917603962,134.15218259155517 108.67780078272335,136.8287640523049 112.50800250703469,141.6888443295611 113.46555293863639,149.22541871789144 111.55045207589865,155.00105212186463 106.64300611661747,159.649695407541 106.10438399901614,165.77740169485332 94.67362572671846,166.0591339287348 93.95546290325001,160.56533334951382 88.56924172793515,155.07148635882186 86.29505945392884,146.90106396947522 87.49199749296531,142.3932007763069 90.06541427690536,138.23748671170324 94.61377882468514,135.1382928325911 98.38413364742883,134.011309577676 103.23173270490952,134.4339285271708 108.85734148835763,137.1105088283657 112.38830870343372,141.54797294863965 113.40570603660308,150.0002017877996 111.67014587996528,154.78974936477607 106.46346541075036,160.1427313828026 105.9248432929162,165.70696861710167 94.97286023641936,166.20000000001164 93.8956160012167,160.2835987355793 89.28740455117077,156.0575648774975 87.13291608123109,151.8315035562846 86.47460015979595,147.816719862225 88.21016031620093,140.77317980810767 91.86082133511081,136.8287640523049 98.32428674562834,134.15218259155517 105.98469019494951,134.99742003256688 112.38830870343372,141.2662300952361 113.46555293863639,145.56279534543864 112.98677772283554,151.62019976909505" stroke="#4DD2FF" stroke-dasharray="none" stroke-linecap="round" stroke-linejoin="round" stroke-width="0.5"><title>2025-10-01 10.0km</title><desc>1759271073000</desc></polyline><polyline fill="none" opacity="1" points="137.27287205960602,133.79999999998836 144.25886754877865,135.6813349496224 148.6399155673571,141.74337680236204 149.52796584158204,145.78470630041556 149.40955913835205,150.38342967367498 148.10708540305495,154.07632009813096 142.4827670007944,159.92915961070685 142.30515694618225,165.78194587567123 130.9381134379655,166.13032433140324 129.69484305405058,160.20786492625484 125.13618498085998,155.88791897072224 123.00486432295293,151.5679440058302 122.47203415841796,147.03890684439102 123.83371124533005,141.81305511214305 128.86599613167346,136.37812427530298 135.73358491784893,134.4271122610662 142.1867502424866,135.6813349496224 145.0285111197736,137.63234315952286 147.6926619419828,141.18595005158568 149.46876248996705,146.4118068779935 148.46230551274493,153.03116458147997 146.27178150322288,156.5846864094492 142.4827670007944,159.72013054526178 142.3643602973316,165.50324297515908 138.27932903682813,166.06064865540247 130.5236899764277,165.99097297195112 129.81324975728057,160.41689383337507 125.37299838708714,156.23630278446944 122.82725426810794,151.63762125151698 123.12327102641575,143.62468852032907 125.31379503547214,139.58334545220714 128.3923693189863,136.72651865507942 133.8982810182497,134.5664704584051 142.1867502424866,135.6813349496224 147.6926619419828,140.97691489534918 149.35035578673705,145.64535053342115 149.2319490837399,150.73181646835292 146.74540831614286,156.30597952444805 142.4827670007944,160.068512283382 141.94993683649227,165.85162158182357 130.64209668012336,165.99097297195112 129.9316564607434,160.41689383337507 123.24167772941291,153.1008416688419 122.47203415841796,148.92020307527855 123.00486432295293,143.69436662638327 126.67547212261707,138.1897729896591 133.7206709634047,134.63614954578225 141.35790332010947,135.47229800460627 145.56134128384292,138.3988090515486 148.99513567704707,144.53050331119448 149.29115243512206,150.45310704759322 146.80461166775785,156.02727251889883 142.4235636491794,159.99883595097344 142.4235636491794,165.43356723128818 141.71312342979945,165.92129728058353 130.64209668012336,165.99097297195112 129.87245310889557,160.41689383337507 125.96503190300427,156.86339317372767 123.4192877842579,152.68277903221315 122.64964421326295,145.29696098406566 126.26104866107926,138.46848772384692 133.60226425994188,134.63614954578225 142.66037705540657,135.89037182653556 147.396645183675,140.69820124830585 149.35035578673705,146.06341774354223 148.87672897381708,152.05568456754554 146.5085949099157,156.51500969968038 142.6011737040244,159.85948326304788 142.30515694618225,165.64259444054915 138.33853238844313,166.20000000001164 130.64209668012336,166.20000000001164 129.81324975728057,160.27754123607883 125.49140509031713,156.30597952444805 122.94566097157076,151.63762125151698 123.12327102641575,143.7640447249869 128.09635256091133,136.72651865507942 133.18784079910256,134.7058286256506 138.22012568521313,134.4271122610662 141.35790332010947,135.33294000360183 145.9165613935329,138.67752369504888 148.87672897381708,144.11243510467466 149.35035578673705,150.03504269034602 147.51505188713782,155.12147391639883 142.4827670007944,159.92915961070685 141.89073348464444,165.92129728058353 130.64209668012336,166.13032433140324 129.6356397026684,160.41689383337507 125.31379503547214,156.51500969968038 123.47849113564007,152.96148748678388 122.53123751026578,146.272451246914 125.84662520000711,139.09559543366777 129.69484305405058,136.0297297068173 134.31270447932184,134.5664704584051 138.16092233359814,134.49679136357736 142.66037705540657,135.9600507703144 147.81106864497997,141.1162716736435 149.40955913835205,146.69051804969786 148.10708540305495,153.79761212621816 142.30515694618225,159.99883595097344 142.12754689133726,165.78194587567123" stroke="#4DD2FF" stroke-dasharray="none" stroke-linecap="round" stroke-linejoin="round" stroke-width="0.5"><title>2025-09-27 10.0km</title><desc>1758965825000</desc></polyline><polyline fill="none" opacity="1" points="188.19999999995343,134.83308099641 181.4055459271185,139.59143138088984 178.7663778164424,140.3844861704274 181.4616984401364,144.94453120493563 181.4055459271185,150.76019136450486 178.3171577125322,156.50970998610137 174.72339688055217,159.88009226578288 174.77954939357005,165.23301409283886 163.54904679395258,165.23301409283886 163.09982668957673,159.6818350001122 159.2253032932058,156.70796828274615 156.47383015602827,152.0158379864297 156.30537261697464,144.2175697873463 159.67452339688316,138.79837556066923 162.0329289427027,136.35311362543143 164.84055459266528,135.29570002376568 171.46655112644657,135.29570002376568 178.7663778164424,138.2035830190871 181.4616984401364,145.14279325935058 181.63015597919002,149.04193390510045 180.17019064119086,153.8662598770461 174.72339688055217,159.94617800688138 174.72339688055217,165.16692892456194 163.49289428070188,165.3651844081469 163.04367417679168,159.6818350001122 157.42842287709936,153.46974137291545 155.85615251329727,146.26627701788675 156.81074523413554,142.96190711675445 159.95528596220538,138.66619949048618 164.95285961870104,135.49396521347808 172.14038128242828,135.361788427399 176.35181975737214,136.8818197392393 178.54176776413806,138.79837556066923 181.51785095315427,146.20018979534507 181.29324090131558,150.8923648148193 178.20485268626362,157.03839863376925 174.8357019063551,159.4835776699474 174.44263431546278,165.03475856635487 163.49289428070188,165.29909925401444 162.81906412472017,159.28532027517213 157.5407279029023,154.4610371500603 155.9684575391002,150.0332368761883 155.80000000004657,146.4645386429038 157.0915077989921,142.2349433369236 162.65060658566654,136.35311362543143 170.17504332773387,135.09743476920994 177.86793760815635,137.5427017371403 180.8440207974054,142.96190711675445 181.4055459271185,149.43845528678503 179.55251299822703,154.79146871803096 174.89185441937298,159.4835776699474 174.55493934149854,165.29909925401444 163.49289428070188,165.23301409283886 162.87521663797088,159.81400651775766 158.60762565000914,155.98102088063024 155.9684575391002,149.90106323955115 156.97920277318917,142.2349433369236 161.75216637784615,137.21226082759677 166.35667244368233,135.1635231944383 176.57642980921082,136.61746673978632 178.9348353552632,138.73228752904106 181.12478336226195,144.81235646631103 181.4616984401364,149.43845528678503 178.99098786804825,155.71667615603656 174.77954939357005,159.7479207624565 174.44263431546278,165.16692892456194 163.43674176791683,165.10084374895087 162.65060658566654,159.4835776699474 158.9445407281164,156.44362387311412 156.92305025993846,153.20539556036238 155.9684575391002,145.60540446924279 158.43916811118834,140.31839831062825 162.9875216637738,135.69223033904564 168.4904679376632,134.6348155917949 178.14870017324574,137.87314246740425 180.95632582320832,143.49060750368517 181.4616984401364,149.6367158809444 179.60866551101208,154.79146871803096 174.8357019063551,159.61574923043372 174.49878682824783,165.23301409283886 163.54904679395258,165.3651844081469 162.81906412472017,159.81400651775766 159.05684575415216,156.31145162531175 156.69844020809978,152.0158379864297 156.36152512999251,144.1514823428006 159.73067591013387,138.73228752904106 162.76291161193512,136.15484871476656 165.62668977491558,135.0313463367056 176.96949740033597,136.61746673978632 178.99098786804825,138.40184726414736 181.29324090131558,144.8784438392613 181.12478336226195,149.9671500614495 179.04714038129896,155.32015885430155 174.72339688055217,159.7479207624565 174.77954939357005,164.57216208725004" stroke="#4DD2FF" stroke-dasharray="none" stroke-linecap="round" stroke-linejoin="round" stroke-width="0.5"><title>2020-04-24 10.0km</title><desc>1587724293000</desc></polyline><polyline fill="none" opacity="1" points="44.200000000186265,185.84752245340496 36.128421052591875,190.59740762441652 33.57052631583065,189.79461269592866 30.33052631583996,187.11862206505612 24.418947368161753,185.91442249825923 17.313684210414067,188.25591949984664 15.039999999804422,190.32980943092844 12.311578947352245,196.21694290533196 12.368421052582562,201.56883373245364 14.471578947268426,206.51929146028124 19.3031578946393,210.93453109340044 20.212631579022855,216.62077806290472 31.126315789530054,215.81801695819013 30.955789473606274,210.73383906745585 35.90105263190344,205.78341511933831 37.43578947405331,201.50193538336316 37.322105263359845,196.68523520417511 35.61684210551903,192.0691956161172 30.67157894745469,187.05172215081984 27.772631579078734,186.1151225892827 23.395789473783225,186.2489226133912 15.494736841879785,190.0622111216071 11.800000000046566,198.6921981771593 13.164210526039824,204.44545588997426 19.3031578946393,211.06832574115833 19.985263157868758,216.42008788441308 31.069473684532568,215.951810548082 31.069473684532568,210.80073641671333 36.18526315805502,205.11443586699897 38.23157894751057,198.49150217336137 35.67368421074934,190.73120667779585 36.298947368515655,189.9284119233489 33.797894736984745,190.32980943092844 29.81894736830145,187.52002139895922 23.45263157901354,185.91442249825923 16.517894736491144,189.05871642846614 12.538947368273512,195.34725626558065 13.107368421042338,204.44545588997426 19.132631578715518,210.93453109340044 19.58736842079088,216.28629439591896 30.614736841991544,216.08560410892824 31.01263157906942,210.46624959801557 35.73052631574683,205.984108753677 37.54947368451394,200.1639668791322 36.810526315821335,194.81206387851853 33.51368421060033,189.46011450118385 26.578947368543595,186.1151225892827 21.690526315709576,186.58342254749732 15.437894736649469,189.52701415482443 12.197894736658782,195.7486502515385 12.709473684197292,203.3081882664119 14.869473684346303,207.0544737027958 18.905263157794252,210.80073641671333 19.473684210330248,216.2193976409617 30.614736841991544,216.08560410892824 30.67157894745469,210.80073641671333 35.61684210551903,205.85031300480478 37.2652631578967,200.6322561854031 36.3557894739788,194.20997188886395 33.00210526352748,189.3263151727151 30.15999999991618,187.25242187199183 25.49894736846909,186.2489226133912 22.429473684169352,186.31582261470612 16.80210526334122,188.25591949984664 12.936842104885727,193.54098010080634 11.800000000046566,197.35422358632786 12.936842104885727,204.37855785241118 15.835789473494515,208.25863205298083 18.96210526302457,210.60004434746224 19.644210526254028,216.3531911438913 30.67157894745469,216.15250087872846 30.67157894745469,210.80073641671333 36.01473684236407,205.18133382493397 37.43578947405331,197.75561626802664 35.73052631574683,192.33679305622354 30.216842105379328,186.78412242099876 25.612631578929722,185.3792219371535 16.91578947356902,188.38971906062216 13.05052631557919,194.27687102765776 11.970526315737516,198.4246034907992 13.277894736500457,204.71304796787445 19.189473684178665,211.20212035969598 19.814736841944978,216.15250087872846 30.898947368608788,215.81801695819013 30.84210526337847,211.00142842083005 35.957894736900926,205.2482317754184 37.37894736859016,197.48802117584273 35.446315789595246,192.13609498704318 31.126315789530054,187.98832029197365 24.362105263164267,186.04822256613988 15.778947368264198,188.92491701280233 12.084210526198149,196.08314504032023 12.254736841889098,201.56883373245364" stroke="#4DD2FF" stroke-dasharray="none" stroke-linecap="round" stroke-linejoin="round" stroke-width="0.5"><title>2020-04-16 10.0km</title><desc>1587033949000</desc></polyline><polyline fill="none" opacity="1" points="80.19999999995343,185.45592508086702 71.91296625207178,190.46806245739572 70.53179396060295,190.46806245739572 68.17229129653424,187.96199879120104 63.56838365853764,185.9300479044905 59.367317939409986,185.7945842773188 52.86429840140045,188.5038512456813 48.95097690890543,193.10957815189613 48.030195381492376,201.0340582828503 50.61989342770539,206.65563714370364 55.33889875654131,211.19350128964288 55.741740674711764,216.47634642507182 66.56092362315394,216.00224676146172 67.1939609234687,211.26123035582714 71.33747779740952,206.99428485898534 73.81207815278322,200.96632810891606 73.40923623437993,195.20923651289195 70.1289520424325,189.38436048291624 68.05719360546209,187.48787750833435 63.33818827709183,185.72685245261528 58.61918294802308,186.06551150232553 51.82841918268241,188.9102402785793 48.66323268180713,194.2610045778565 47.857548845233396,198.0539236908662 49.238721136702225,204.96239581739064 55.22380106546916,210.85485584876733 56.202131438301876,216.47634642507182 66.96376554179005,216.06997530680383 67.13641207828186,210.6516684961971 71.91296625207178,205.91061152500333 73.9271758433897,200.49221668590326 73.17904085246846,194.80285157385515 68.86287744203582,188.57158276974224 62.474955594865605,185.86231609468814 53.49733570148237,187.96199879120104 49.238721136702225,193.24504019424785 47.972646536072716,197.579810059804 48.54813499096781,202.99823013483547 51.48312610993162,207.7393091864651 55.33889875654131,211.05804313533008 56.029484902042896,216.54407491907477 67.07886323262937,216.06997530680383 67.13641207828186,210.58393936406355 72.37335701612756,205.36877415387426 73.9271758433897,199.7471837240737 73.40923623437993,195.48015965870582 70.81953818816692,190.6035250724526 66.44582593254745,187.01375586586073 63.39573712227866,185.72685245261528 58.04369449359365,186.26870684413007 51.82841918268241,188.77477729693055 48.49058614554815,195.0737748957472 47.915097690653056,199.27307137695607 49.12362344563007,204.8269363132422 55.28134991112165,210.85485584876733 55.741740674711764,216.34088941500522 67.25150976888835,215.7313325065188 67.1939609234687,210.5162102241302 72.14316163398325,205.7751522262697 73.75452930736355,200.4244864534121 73.1214920070488,194.396466370672 68.34493783279322,188.57158276974224 62.99289520410821,185.52365693479078 57.92859680275433,186.40417036873987 51.82841918268241,189.18116615357576 48.72078152722679,194.53192813444184 47.972646536072716,200.6954073397792 50.44724689144641,206.45244842668762 55.16625221981667,210.99031404720154 55.856838365783915,216.54407491907477 67.25150976888835,215.93451820861083 67.25150976888835,210.6516684961971 71.91296625207178,206.04607079463312 73.8696269984357,200.08583518024534 73.00639431620948,194.53192813444184 69.55346358777024,189.38436048291624 63.33818827709183,185.9300479044905 57.81349911168218,186.13324329035822 50.965186500456184,189.6552861527889 47.972646536072716,198.12165418016957 49.526465363800526,205.03012555843452 55.16625221981667,210.78712673851987 55.799289520364255,216.27316089905798 66.90621669613756,216.20543237548554 67.13641207828186,210.85485584876733 71.79786856123246,206.04607079463312 73.69698046171106,199.67945341061568 72.31580817047507,193.04184711968992 67.59680284187198,187.75880399974994 63.22309058601968,185.9300479044905 60.28809946682304,185.9300479044905 56.83516873861663,186.6073656004155 52.00106571917422,189.18116615357576 48.95097690890543,193.7868880708702 47.800000000046566,197.85073217871832 48.60568383638747,203.2014199742116" stroke="#4DD2FF" stroke-dasharray="none" stroke-linecap="round" stroke-linejoin="round" stroke-width="0.5"><title>2020-04-14 10.0km</title><desc>1586861907000</desc></polyline><polyline fill="none" opacity="1" points="116.19999999995343,185.65081984706922 108.83104693121277,190.1937240274856 103.15812274347991,186.75213293387787 97.66064981929958,185.37549127725651 93.39133573998697,186.1326445575105 87.25054151611403,189.09241690544877 84.56028880854137,195.42490679136245 84.61877256282605,201.13785982487025 86.5487364619039,206.1624628136633 91.63682310446166,210.98053795675514 92.16317689511925,216.5556936044013 103.39205776178278,216.28037842398044 103.56750902533531,210.705220361182 108.07075812271796,206.3689524977235 110.17617328534834,201.55084239086136 109.47436823090538,194.18594634433975 105.4974729239475,188.26643531152513 98.07003610115498,185.51315557706403 93.09891696739942,186.27030869334703 87.42599277966656,188.8859216074925 84.38483754498884,196.3197100563557 84.96967508993112,202.58329763193615 87.0750902525615,206.7819316641544 91.46137184090912,210.91170856897952 92.28014440415427,216.8998374119983 103.45054151630029,216.14272078918293 103.6844765341375,210.56756151886657 108.2462093862705,206.02480298728915 110.52707581222057,199.76124933292158 109.94223826704547,194.9430891267839 106.49169675074518,188.95475338108372 99.82454873621464,185.71965197095415 93.85920577589422,186.06381247827085 87.3090252703987,189.09241690544877 83.80000000004657,195.76906204229454 84.09241877240129,201.00019890983822 85.43754512630403,204.37288274266757 91.51985559542663,210.91170856897952 91.7537906137295,216.41803602909204 103.39205776178278,216.14272078918293 103.50902527058497,210.98053795675514 108.83104693121277,205.26767340814695 110.23465703986585,200.105402235582 109.82527075824328,195.3560757188243 105.43898916966282,187.8534441117663 99.99999999976717,185.65081984706922 93.39133573998697,185.99498039181344 87.71841155225411,188.61059443943668 83.91696750884876,197.6274971770472 85.7884476534091,204.7858632063144 91.46137184090912,211.11819670989644 91.81227436778136,216.41803602909204 103.15812274347991,216.21154961024877 103.39205776178278,210.77404977125116 107.95379061345011,206.1624628136633 110.05920577631332,201.06902937102132 109.70830324897543,194.73659573006444 105.9068592058029,188.8170898265671 99.6490974726621,185.51315557706403 92.22166064963676,186.61446890240768 87.25054151611403,188.95475338108372 83.85848375433125,197.42100465274416 85.2620938627515,204.30405263917055 91.3444043318741,211.04936733696377 91.81227436778136,216.21154961024877 103.56750902533531,216.07389196066651 103.50902527058497,210.56756151886657 108.4216606495902,205.47416338283801 110.23465703986585,200.105402235582 109.59133574017324,194.46127109695226 105.20505415159278,188.26643531152513 96.31552346539684,185.1001625880017 89.5314079420641,187.23395680909744 85.20361010800116,193.08464614138938 84.03393501788378,198.04048202442937 84.50180505402386,202.72095820418326 85.7884476534091,205.1988434017403 91.46137184090912,210.91170856897952 91.98772563179955,216.48686482035555 103.27509025274776,216.21154961024877 103.27509025274776,210.49873208609642 107.48592057754286,206.8507614992559 110.05920577631332,200.03657166991616 109.0064981947653,193.15347745991312 103.6844765341375,187.02746090717847 95.9061371840071,185.37549127725651 87.48447653418407,188.54176262870897 84.15090252668597,197.5586663428694 84.67725631734356,203.06510950357188" stroke="#4DD2FF" stroke-dasharray="none" stroke-linecap="round" stroke-linejoin="round" stroke-width="0.5"><title>2020-04-13 10.0km</title><desc>1586775592000</desc></polyline><polyline fill="none" opacity="1" points="152.20000000018626,185.34107006405247 144.71407942241058,190.02163952827686 138.22238267119974,186.4423836278729 129.9761732853949,185.8228949830518 125.35595667897724,187.95668666163692 121.37906137201935,192.91256226837868 120.15090252715163,196.56061267084442 120.50180505448952,202.6177067082608 123.60144404345192,207.64229772414546 127.34440433233976,211.01494612341048 128.10469314083457,216.38361481548054 138.3978339349851,216.10829957557144 139.3920577620156,215.2823531400063 139.3920577620156,210.6707991476287 144.07075812271796,205.37091218517162 145.76678700349294,201.86057311086915 146.17617328534834,193.53204400173854 145.24043321283534,190.64112407981884 148.39855595701374,186.235887480143 147.1703971119132,187.88785478373757 143.2519855594728,189.67748118302552 136.11696750903502,185.891727084585 129.3913357402198,186.3735515861772 124.47870036121458,188.85150039428845 120.7357400720939,194.22035633027554 120.5602888087742,202.41121581656625 122.72418772592209,206.4721910362714 127.40288808685727,211.01494612341048 127.92924187728204,216.5212723907316 138.63176895305514,216.03947074705502 139.3920577620156,210.53314030531328 144.07075812271796,205.92155184946023 146.05920577631332,201.1722690577153 145.76678700349294,195.25282342534047 143.0180505416356,189.95280787424417 136.3509025273379,185.891727084585 129.74223826732486,186.09822334430646 123.54296028916724,189.67748118302552 121.08664259919897,193.73853777861223 120.15090252715163,197.4554142881534 121.14512635394931,204.2008013149025 122.66570397140458,207.02282974595437 127.16895306878723,210.94611674320186 127.87075812299736,216.5212723907316 138.63176895305514,216.10829957557144 139.5090252708178,210.39548143278807 143.36895306874067,206.95399993343744 145.47436823113821,203.306009195745 146.117689530598,197.7307376093231 144.59711191314273,191.94892281631473 141.14657039707527,188.09435039467644 135.18122743698768,185.891727084585 128.9234657038469,186.4423836278729 124.12779783410951,189.19565918669105 121.7884476534091,192.0177542543388 119.9754512635991,197.7307376093231 120.15090252715163,201.03460815764265 122.1978339352645,206.54102090094239 127.22743682330474,211.15260486141779 127.75379061396234,216.45244360674405 138.80722021660767,216.17712839663727 139.5675090253353,210.53314030531328 144.18772563175298,205.92155184946023 145.9422382672783,202.06706418143585 146.05920577631332,196.07879589352524 144.59711191314273,191.88009137107292 138.9826714801602,187.06187166878954 132.37400722014718,185.8228949830518 125.41444043326192,187.95668666163692 121.14512635394931,193.11905624665087 120.09241877286695,196.07879589352524 120.26787003641948,201.79174273909302 122.8996389892418,207.29814892198192 126.9935018052347,211.01494612341048 127.87075812299736,216.65892993600573 139.15812274371274,216.03947074705502 139.21660649846308,210.80845796037465 144.59711191314273,205.0955921743298 146.05920577631332,199.79565871489467 144.71407942241058,192.7060682232841 142.25776173267514,189.1268274433678 138.9241877256427,186.58004768920364 132.14007220230997,185.54756650258787 125.1805054154247,188.09435039467644 121.14512635394931,193.18788755784044 119.91696750908159,198.35021464555757 121.84693140815943,205.64623207686236 127.28592057758942,210.94611674320186 127.75379061396234,216.5212723907316 139.04115523491055,216.03947074705502 139.21660649846308,210.87728735542623 144.8310469314456,205.0955921743298 146.29314079415053,199.58916690631304 144.48014440434054,192.15541710774414 139.09963898919523,186.92420771182515 132.66642599296756,185.4787343639182 129.62527075828984,186.09822334430646 125.70685920584947,187.88785478373757 122.78267148020677,190.57229249266675 120.67725631804205,194.1515251310193 119.80000000004657,198.21255313407164 120.96967509039678,203.92548079707194" stroke="#4DD2FF" stroke-dasharray="none" stroke-linecap="round" stroke-linejoin="round" stroke-width="0.5"><title>2020-04-12 10.0km</title><desc>1586649823000</desc></polyline><polyline fill="none" opacity="1" points="188.20000000018626,186.01244379294803 178.90260869590566,191.05261233472265 181.1001739129424,194.6337595055811 182.05808695661835,200.5359748727642 179.07165217376314,207.23392563837115 175.07095652190037,210.68234696460422 174.56382608716376,216.18651768832933 163.74504347820766,215.9875726204482 163.18156521720812,210.35076883493457 158.1102608696092,206.04023680806858 156.02539130439982,200.86755831784103 157.32139130448923,193.1084586419165 162.28000000002794,187.13985351665178 166.16800000006333,185.6808523024083 175.2963478260208,187.0735353549244 179.07165217376314,189.65993833338143 181.60730434791185,196.4906423848588 181.49460869585164,201.79599100822816 179.35339130437933,206.4381333431811 174.90191304357722,210.54971573426155 174.50747826090083,216.12020267278422 163.68869565194473,216.05388765019597 163.0688695651479,210.4834001084091 158.5610434783157,206.5707654642756 156.53252173913643,203.32127022906207 155.85634782607667,197.48539875337156 159.0681739130523,190.58838801970705 163.0688695651479,187.2061716709286 169.71791304368526,185.6808523024083 177.9446956522297,188.53253325028345 181.1001739129424,195.0979807532858 181.776347826235,199.93912421917776 179.80417391308583,205.50970769196283 174.78921739128418,210.8149781661341 174.84556521754712,216.12020267278422 163.57600000011735,216.05388765019597 163.0688695651479,210.4834001084091 157.82852173922583,206.10655291512376 156.2507826089859,202.98968811304076 155.85634782607667,197.75066684547346 156.70156521745957,193.77163339732215 162.33634782629088,187.33880795841105 166.50608695670962,185.74717061477713 174.05669565219432,187.00721718627028 178.90260869590566,190.05784551420948 181.5509565216489,196.0927393847378 181.66365217394195,200.13807450182503 179.6351304347627,206.04023680806858 175.01460869563743,210.68234696460422 174.7328695654869,216.12020267278422 163.57600000011735,216.12020267278422 162.9561739130877,210.4834001084091 158.44834782625549,206.63708151411265 156.47617391310632,202.98968811304076 156.13808695669286,195.96010499395197 159.0681739130523,190.58838801970705 162.50539130461402,187.40512609115103 165.04104347829707,186.41035334410844 171.4083478259854,186.0787620692863 177.83199999993667,188.53253325028345 181.4382608695887,195.42956714332104 181.60730434791185,200.40334144444205 179.2970434781164,206.63708151411265 175.01460869563743,210.4170844752225 174.7328695654869,215.92125758336624 163.63234782614745,216.3191476976499 162.89982608682476,210.35076883493457 158.16660869587213,206.23918510816293 156.47617391310632,203.05600455077365 155.80000000004657,196.1590565695078 159.01182608725503,190.58838801970705 162.39269565232098,187.40512609115103 165.26643478265032,186.21139860071708 169.5488695653621,185.81348892010283 176.36695652175695,187.2724898182787 178.95895652193576,189.59362044505542 181.60730434791185,197.28644760895986 181.49460869585164,201.9286241348018 179.24069565185346,206.63708151411265 175.18365217396058,210.61603135307087 174.90191304357722,216.18651768832933 163.63234782614745,216.18651768832933 162.89982608682476,210.54971573426155 158.78643478266895,207.36655758693814 156.2507826089859,203.5202194127487 156.08173913066275,195.82747057435336 158.6173913043458,190.78734134073602 163.46330434805714,186.80826263694325 168.87269565206952,185.6808523024083 171.69008695683442,186.0787620692863 176.42330434778705,187.80303473741515 178.84626086964272,189.72625621495536 181.3819130435586,195.69483612605836 181.4382608695887,201.9286241348018 179.2970434781164,206.37181727198185 174.9582608693745,210.74866256915266 174.9582608693745,215.39073702890892" stroke="#4DD2FF" stroke-dasharray="none" stroke-linecap="round" stroke-linejoin="round" stroke-width="0.5"><title>2020-04-08 10.0km</title><desc>1586343893000</desc></polyline><polyline fill="none" opacity="1" points="44.199999999953434,236.54647046601167 35.16210526321083,242.099151326227 37.72000000020489,246.9827932305634 37.833684210665524,251.3312090022373 35.275789473671466,257.8872241379577 31.069473684299737,261.7003846067819 30.84210526314564,267.3197360744234 19.644210526254028,267.25283933390165 18.96210526302457,261.2990004027961 14.812631578883156,257.95412189286435 12.311578947119415,253.87334558041766 12.08421052643098,248.32077057496645 13.334736841963604,243.77163577836473 18.45052631571889,238.4196695893188 23.33894736855291,236.74717064382276 27.82947368430905,237.2154708050657 33.797894736984745,239.95836461882573 36.639999999897555,245.31031747435918 37.833684210665524,251.39810746721923 35.21894736844115,258.08791738102445 31.01263157906942,261.767281948647 30.785263157682493,267.38663280772744 19.75789473671466,267.1859425859293 19.3031578946393,261.767281948647 14.130526315653697,256.88375694380375 12.027368420967832,251.86639651970472 12.368421052582562,246.31380347150844 14.869473684113473,241.36325673246756 18.45052631571889,238.21896995487623 20.894736842252314,237.3492707858677 28.34105263161473,237.2154708050657 33.627368421060964,239.8245652031619 37.663157894741744,247.25038893154124 37.09473684220575,254.40853089513257 34.650526316137984,258.68999671924394 31.01263157906942,261.834179283469 31.01263157906942,267.25283933390165 19.871578947408125,267.38663280772744 19.189473684178665,261.767281948647 13.618947368348017,256.14787996554514 11.800000000046566,249.45804903871613 13.277894736966118,243.9723336083116 18.336842105258256,238.0182702554157 24.81684210523963,236.54647046601167 32.49052631575614,238.88796848239144 34.99157894728705,241.43015627737623 37.89052631589584,248.32077057496645 36.981052631512284,254.40853089513257 34.25263157906011,258.95758734765695 31.240000000223517,261.7003846067819 30.898947368608788,267.25283933390165 19.644210526254028,267.3197360744234 19.075789473718032,261.6334872575244 13.846315789502114,257.08445051312447 11.856842105276883,251.3312090022373 12.709473684197292,245.37721659149975 18.507368420949206,237.95137034117943 24.81684210523963,236.74717064382276 32.66105263167992,238.55346930911765 35.84421052620746,242.9688438064186 38.004210526356474,248.8559607011848 38.06105263135396,251.93329492694465 36.58315789490007,256.01408405712573 31.069473684299737,261.6334872575244 31.069473684299737,267.25283933390165 20.042105263331905,267.4535295339301 19.018947368487716,262.03487124398816 13.846315789502114,256.9506548077334 11.9136842105072,252.2677868535975 12.08421052643098,246.71519741404336 14.698947368422523,242.03225185384508 19.075789473718032,238.0182702554157 23.907368421088904,236.88097072619712 27.772631579078734,237.14857080380898 33.68421052629128,239.62386602530023 36.86736842105165,245.24341834976804 37.60631578951143,252.8029735595337 36.07157894759439,256.9506548077334 31.18315789476037,261.56658990110736 31.01263157906942,266.9852522989386 20.383157894946635,267.4535295339301 19.644210526254028,267.0521490686806 19.018947368487716,261.834179283469 15.153684210497886,258.68999671924394 12.311578947119415,253.67265096778283 11.856842105276883,248.72216321300948 13.050526315812021,244.37372907233657 18.45052631571889,238.0182702554157 21.235789473634213,236.88097072619712 28.17052631569095,237.2154708050657 32.37684210529551,238.82106866227696 36.07157894759439,243.10264254105277 37.72000000020489,248.58836569596315 37.151578947436064,254.20783645653864 34.36631578928791,258.75689438718837 31.126315789297223,261.7003846067819 31.01263157906942,266.71766514814226" stroke="#4DD2FF" stroke-dasharray="none" stroke-linecap="round" stroke-linejoin="round" stroke-width="0.5"><title>2020-04-07 10.0km</title><desc>1586257895000</desc></polyline><polyline fill="none" opacity="1" points="80.20000000018626,236.54014298523543 70.89422066579573,242.21666457451647 73.61786339781247,248.3606055143755 73.27740805619396,253.5695509617799 70.78073555161245,258.37776923854835 67.09246935206465,261.4496668406646 66.80875656753778,267.3262978694984 55.74395796842873,267.0591794925276 55.00630472856574,261.7835678315023 50.75061295949854,258.24420812609605 48.367425569100305,253.43598880787613 48.0269702274818,248.29382387676742 50.97758318739943,241.28171167260734 54.836077057756484,237.54188588709803 58.18388791568577,236.67370879958617 63.80140105052851,237.20797176723136 69.30542907165363,239.67893197084777 73.44763572700322,248.0934789205785 72.7667250437662,254.83838998223655 70.21330998232588,258.71167189319385 67.03572679543868,261.5164470532909 67.09246935206465,267.0591794925276 55.914185639005154,267.39307744568214 54.89281961461529,261.7835678315023 49.67250437824987,256.5079110309016 48.083712784573436,252.30070933018578 48.48091068305075,246.15680765383877 51.09106830111705,241.28171167260734 57.332749562105164,237.27475460566347 62.78003502637148,236.94084034126718 69.58914185664617,239.4785842152196 73.0504378285259,247.42566192953382 72.36952714552172,255.23907544626854 69.81611208384857,259.37947665987303 67.09246935206465,261.6500074568321 66.75201401044615,266.9256202603574 56.08441330981441,267.45985701476457 55.2332749562338,262.05068849405507 50.637127845780924,258.17742755892687 48.367425569100305,253.30242662475212 48.48091068305075,246.15680765383877 50.637127845780924,241.9495353186503 54.89281961461529,238.00936535099754 59.2052539405413,236.67370879958617 63.404203152284026,236.80727458477486 70.15656742546707,240.68066977290437 72.88021015771665,245.622552440851 73.0504378285259,253.5027698884369 70.4402802104596,258.31098868587287 66.86549912462942,261.7167876478634 66.75201401044615,266.99239987996407 56.0276707529556,267.3262978694984 55.17653239937499,261.7835678315023 50.012959719635546,257.2424988602288 48.14045534119941,252.63461527583422 48.25394045514986,247.15853493078612 51.03432574425824,241.48205884243362 55.46024518366903,237.6086686893832 62.55306479870342,236.60692589590326 69.36217162874527,240.01284475252032 72.19929947471246,243.61909126868704 73.22066549910232,247.02497138775652 73.50437828409486,251.69967817224097 72.59649737295695,255.03873274679063 70.15656742546707,258.8452329043648 66.86549912462942,261.7167876478634 66.80875656753778,267.1259590975824 56.14115586690605,267.3262978694984 55.2332749562338,262.2510289152269 50.18318739021197,257.2424988602288 48.083712784573436,252.23392811929807 48.42416812595911,246.29037138493732 50.75061295949854,241.6824059470673 54.09842381766066,238.4768444603542 57.21926444838755,237.27475460566347 64.36882662004791,237.0076232086867 68.17057793354616,238.20971358404495 71.23467600671574,242.1498822713038 73.27740805619396,246.75784421537537 73.16392294224352,254.23736129817553 70.04308231174946,259.179135305807 67.03572679543868,261.9839083394618 66.52504378301091,267.1259590975824 55.97092819609679,267.45985701476457 55.00630472856574,261.8503480080981 50.69387040263973,257.9770858142874 48.42416812595911,253.70311308692908 47.800000000046566,249.69623674749164 49.388791593723,244.01978402398527 54.60910682985559,238.20971358404495 59.09176882659085,236.8740574666881 63.00700525403954,237.0076232086867 68.511033274699,238.74397522071376 71.34816112089902,241.9495353186503 73.56112084072083,248.42738714476582 73.56112084072083,252.03358444361947 72.08581436076201,256.574691778922 66.9222416812554,261.9839083394618 66.69527145382017,267.1927386953612" stroke="#4DD2FF" stroke-dasharray="none" stroke-linecap="round" stroke-linejoin="round" stroke-width="0.5"><title>2020-04-02 10.0km</title><desc>1585825459000</desc></polyline><polyline fill="none" opacity="1" points="116.19999999995343,238.06265032384545 110.24194528860971,239.8012395260157 103.88996960502118,243.79997325013392 106.0072948327288,247.74072507134406 106.49969604844227,251.8553026159061 104.82553191483021,256.72321265074424 100.6893617019523,261.1274740436929 100.09848024323583,265.87939962459495 90.6443768995814,265.64759935595794 89.95501519739628,260.89567171636736 85.76960486313328,257.12886982114287 84.19392097252421,253.41999281424796 84.09544072952121,249.1315717253019 85.08024316118099,245.5964960627607 87.98541033430956,242.00344440480694 93.0079027353786,239.33761629112996 98.27659574453719,239.68533375492552 101.28024316113442,240.78643756604288 103.44680851069279,242.64092307264218 105.85957446787506,248.2043410242768 106.15501519758254,253.07228427671362 104.53009118535556,257.2447718135081 100.39392097271048,260.9536223076866 100.24620060785674,265.93734967615455 90.59513677796349,265.82144956686534 90.1519756836351,261.0695234713494 86.5574468083214,258.22993773344206 84.68632218823768,255.33238573156996 83.89848024304956,248.78386040072655 86.40972644346766,243.394305973663 92.71246200590394,239.39556921750773 97.68571428558789,239.56942795892246 101.47720364737324,240.84439033537637 103.74224923993461,242.9886383896228 105.85957446787506,248.08843707380584 106.25349544081837,252.3768665237003 104.18541033403017,257.5345266839722 100.59088145871647,260.89567171636736 100.39392097271048,265.87939962459495 90.5458966565784,265.64759935595794 90.1519756836351,261.24337516963715 85.3756838904228,256.49140841537155 83.89848024304956,250.2906078416272 85.17872340418398,245.30673472670605 90.00425531901419,240.49667362484615 94.8297872338444,239.22171041974798 101.7726443768479,241.07620135019533 105.4164133737795,246.2339704494225 106.35197568382137,251.8553026159061 105.21945288730785,256.0857507616165 100.39392097271048,261.0695234713494 100.34468085109256,265.82144956686534 90.69361702119932,265.82144956686534 89.85653495439328,260.9536223076866 86.5574468083214,258.1140359546407 84.44012158061378,254.98467843682738 83.89848024304956,249.4213309897459 86.60668692993931,243.394305973663 92.36778115504421,238.93194563110592 97.04559270502068,239.45352213754086 103.24984802422114,242.93068585236324 106.10577507596463,248.14638905215543 106.30273556220345,252.55072104692226 103.84072948317043,258.1140359546407 100.54164133756422,260.89567171636736 100.19696048623882,265.7634995029075 90.74285714281723,265.87939962459495 90.00425531901419,260.8377211188199 86.5574468083214,258.1719868470682 84.78480243147351,255.62214163783938 83.94772036466748,249.36337914934848 86.11428571422584,244.03178298426792 90.25045592710376,240.03305099281715 93.84498480218463,239.22171041974798 98.9167173251044,240.03305099281715 101.37872340413742,240.78643756604288 103.39756838884205,242.9886383896228 106.10577507596463,248.3781969032134 106.40121580543928,252.78252698952565 104.03768996940926,257.76633046753705 100.59088145871647,261.1274740436929 100.19696048623882,265.82144956686534 90.6443768995814,265.82144956686534 90.1519756836351,261.0695234713494 86.4589665653184,257.76633046753705 84.04620060767047,252.8984299232834 83.80000000004657,249.47928282391513 85.03100303933024,245.53854380804114 89.61033434653655,240.4387208178523 94.18966565351002,239.16375747445272 99.85227963514626,240.38076800463023 103.44680851069279,243.1624959631008 106.15501519758254,248.6679565756349 106.25349544081837,253.2461385736824 103.79148936155252,258.0560850558104 100.64012158056721,260.8377211188199 100.39392097271048,265.5896492731408" stroke="#4DD2FF" stroke-dasharray="none" stroke-linecap="round" stroke-linejoin="round" stroke-width="0.5"><title>2020-03-23 10.0km</title><desc>1584960411000</desc></polyline><polyline fill="none" opacity="1" points="146.0775550128892,235.80000000001746 146.90710984624457,238.3675254410191 146.84566134004854,249.28832849720493 145.55524271039758,248.99904030785547 144.94075764867011,250.77092653285945 141.86833233979996,251.78342872459325 137.56693690747488,254.27851030314923 138.91880404332187,257.02669451758265 139.10314956202637,259.99181527120527 138.0892492099665,262.70379290156416 135.3240664320765,265.23495214708964 135.38551493827254,267.9107281980105 129.42500983912032,268.0915231035615 128.9641460427083,265.09031499296543 126.90562108589802,263.35466425461345 125.43085693765897,260.7873309927527 125.09289015375543,258.6538981917838 125.43085693765897,256.26733008874 126.69055131427012,254.17002888314892 130.19311616627965,251.34949958988 133.17336871591397,251.4218211515108 136.33796678390354,252.4343213691027 137.50548840139527,253.5191396229784 139.04170105583034,256.7735732332512 139.164598068106,259.3770972789498 137.9970764508471,262.73995245443075 135.5084119506646,264.94567777606426 135.17044516664464,267.9830461719248 129.3942855859641,268.20000000001164 128.9026975366287,265.1264742873609 126.81344832666218,263.28234527804307 125.492305443855,260.7873309927527 125.2772356722271,257.0990148493438 126.72127556742635,254.35083123014192 130.03949490084779,251.38566037270357 133.9414750430733,251.53030346456217 136.79883058031555,252.7597672153206 138.76518277789,255.9780479471665 139.164598068106,259.63021658937214 137.9970764508471,262.73995245443075 135.47768769750837,265.1626335779438 135.38551493827254,268.01920515310485 129.33283707988448,268.0915231035615 128.93342178978492,265.05415569458273 126.8441725798184,263.06538825435564 125.43085693765897,260.7873309927527 125.30795992526691,257.20749531761976 126.59837855503429,254.2423498336866 130.62325570953544,251.34949958988 135.41623919142876,251.89191092015244 137.53621265443508,253.5191396229784 138.79590703104623,255.9780479471665 139.164598068106,259.4855770067952 138.0892492099665,262.59531421927386 135.5084119506646,265.1626335779438 135.41623919142876,268.0553641302686 129.33283707988448,268.1638410385058 128.9026975366287,264.94567777606426 126.59837855503429,262.84843108966015 125.55375395005103,261.0042894969811 125.33868417853955,256.7374130341632 126.75199982046615,254.17002888314892 130.0702191538876,251.60262498701923 133.44988699362148,251.60262498701923 136.58376080857124,252.65128530192305 137.56693690747488,253.44681851557107 139.0109768025577,256.8820538072614 139.2260465741856,259.66637647504103 137.8434551852988,262.84843108966015 135.5084119506646,265.1987928643939 135.38551493827254,268.0553641302686 129.30211282684468,268.0553641302686 128.9026975366287,265.0179963923583 125.67665096244309,261.1850881426071 125.2465114191873,259.5940566995414 125.36940843146294,256.556611979584 126.90562108589802,253.9892264381633 130.46963444410358,251.74726798493066 134.70958137023263,252.0003930804378 137.65910966671072,253.55530017061392 138.85735553724226,255.86956707946956 139.1953223211458,259.7386962350283 137.90490369137842,263.06538825435564 135.5698604567442,265.05415569458273 135.5698604567442,268.01920515310485 129.24066432053223,268.0553641302686 129.02559454890434,265.05415569458273 126.13751475873869,262.1613991378108 125.21578716603108,259.81101597924135 125.33868417853955,256.4481312998978 126.75199982046615,253.9892264381633 129.79370087618008,251.9642323643202" stroke="#4DD2FF" stroke-dasharray="none" stroke-linecap="round" stroke-linejoin="round" stroke-width="0.5"><title>2019-12-13 10.0km</title><desc>1576239112000</desc></polyline><polyline fill="none" opacity="1" points="178.89635972835822,235.79999999999563 179.3251489342656,240.43674348013155 179.2090185242705,240.8783265441889 178.8159617522615,240.84678496335982 178.69983134232461,241.3935042463272 178.04771442495985,241.50915600773442 176.52015287894756,242.41333775556996 176.92214275948936,243.29648388955684 176.96680830180412,244.10602745357755 176.7702799157123,244.67375527591503 175.93056772078853,245.53585413812107 175.88590217853198,245.93536077075987 176.04669813078362,250.34033805301442 176.9936076271115,250.6977737428315 177.55639345990494,251.086746380548 178.95889148750575,251.2549502817492 179.1018212228082,251.4652047484633 179.36088136810577,262.3767866044145 179.57527597103035,264.3108889840223 179.51274421188282,267.88467247576045 179.1196874397574,268.0318254478043 174.55486901849508,267.9792708405075 172.78611354419263,268.1999999999971 171.74987296323525,268.0843800266448 171.4997459264123,266.1188194212227 171.3032175404369,257.23651207523653 167.9443687608,256.752954865442 167.78357280854834,256.5427118491789 167.14038899971638,256.44810234335455 166.93492750520818,255.72275973600335 167.1225227828254,255.38636712242442 167.0242585897795,255.1656088363452 166.17561328643933,254.42974425774446 165.3984328507213,254.66101658339903 164.9785767532885,254.52435573028197 164.60338619811228,253.98822283360641 164.42472402896965,253.25234933148022 164.45152335433522,247.92235617638653 164.6748510657344,246.52410439035884 164.90711188560817,245.97741400486848 164.85351323487703,245.38866706952103 165.93441935809096,238.20776972902968 167.3279842772754,238.18674143102544 170.32057561021065,238.4285665830539 170.4724384539295,238.55473598834214 176.00203258846886,239.57459932651545" stroke="#4DD2FF" stroke-dasharray="none" stroke-linecap="round" stroke-linejoin="round" stroke-width="0.5"><title>2019-11-23 10.0km</title><desc>1574497580000</desc></polyline></svg>