<?xml version="1.0" encoding="utf-8" ?>
<svg baseProfile="full" height="300mm" version="1.1" viewBox="0,0,200,300" width="200mm" xmlns="http://www.w3.org/2000/svg" xmlns:ev="http://www.w3.org/2001/xml-events" xmlns:xlink="http://www.w3.org/1999/xlink"><defs /><rect fill="#222222" height="300" width="200" x="0" y="0" /><text fill="#FFFFFF" style="font-size:12px; font-family:Arial; font-weight:bold;" x="10" y="20">Over 10km Runs</text><text fill="#FFFFFF" style="font-size:4px; font-family:Arial" x="10" y="280">Runner</text><text fill="#FFFFFF" style="font-size:9px; font-family:Arial" x="10" y="290">Floyd Li</text><text fill="#FFFFFF" style="font-size:4px; font-family:Arial" x="65" y="280">SPECIAL TRACKS</text><rect fill="yellow" height="2.6" width="2.6" x="65" y="283" /><text fill="#FFFFFF" style="font-size:3px; font-family:Arial" x="70" y="285.5">Over 20.0 km</text><rect fill="red" height="2.6" width="2.6" x="65" y="287" /><text fill="#FFFFFF" style="font-size:3px; font-family:Arial" x="70" y="289.5">Over 40.0 km</text><text fill="#FFFFFF" style="font-size:4px; font-family:Arial" x="120" y="280">STATISTICS</text><text fill="#FFFFFF" style="font-size:3px; font-family:Arial" x="120" y="285">Number: 46</text><text fill="#FFFFFF" style="font-size:3px; font-family:Arial" x="120" y="290">Weekly: 2.1</text><text fill="#FFFFFF" style="font-size:3px; font-family:Arial" x="141" y="285">Total: 858.6 km</text><text fill="#FFFFFF" style="font-size:3px; font-family:Arial" x="141" y="290">Avg: 18.7 km</text><text fill="#FFFFFF" style="font-size:3px; font-family:Arial" x="167" y="285">Min: 10.0 km</text><text fill="#FFFFFF" style="font-size:3px; font-family:Arial" x="167" y="290">Max: 100.8 km</text><polyline fill="none" opacity="1" points="31.944956406601705,38.29949144627608 32.126920329988934,46.13372818764765 34.947361141385045,47.70409985248989 37.252237503416836,48.11453543454991 37.41903776646359,57.51858375320444 36.812491355405655,57.87546306454169 34.477287672809325,58.23234160315769 29.76138932676986,58.5 25.682364712411072,58.28587331730523 18.873881248175167,57.3401438077417 12.762926156749018,57.304455795514514 12.47481661150232,51.18384738324676 12.611289553926326,48.66772960177332 25.136472942424007,48.25729539737222 26.45571138651576,47.88255023116653 28.927388011594303,46.34787065947603 29.01836997322971,42.76094754973019 28.715096767700743,38.33518357445428 27.502003945584875,37.12164687982295 27.062257797573693,36.33641249121865 26.834802893397864,34.74808603747806 27.122912438586354,33.5880626605358 28.078223036020063,32.3209508695727 29.109351934865117,31.732008269100334 30.39826305845054,31.5 32.29372059291927,32.14248363714432 33.0519036067999,32.82065809167398 33.55230439599836,33.837914539530175 33.779759300057776,34.94439687790873 33.567468056222424,36.318566211586585 31.929792746319436,38.37087569490541 32.08142934914213,45.90174019585538 32.399866214895155,46.38356104443665 34.93219748116098,47.6862548039644 37.297728484263644,48.132380436654785 37.52518338843947,57.072483527401346 37.28256482392317,57.66133557044668 32.96092164510628,58.37509280226368 28.138877677207347,58.46431223890977 19.73820988391526,57.37583181230002 12.97521740058437,57.411519809116726 12.732598836126272,57.16170366916049 12.47481661150232,50.84479829041811 12.47481661150232,48.881868780837976 12.687107855337672,48.63203971153416 25.36392784654163,48.22160541826452 26.577020668715704,47.81117010289745 28.98804265266517,46.312180266861105 28.74542408826528,38.602874289179454 27.36553100310266,36.96103105931252 26.789311912551057,34.94439687790873 27.016766816726886,33.784374883034616 27.668804208631627,32.71357810021436 28.426987222454045,32.05324994849798 29.367134159605484,31.67846792830096 31.35357365582604,31.71416149075958" stroke="#4dd2ff" stroke-dasharray="none" stroke-linecap="round" stroke-linejoin="round" stroke-width="0.5"><title>2026-07-02 12.5km</title><desc>1782990338000</desc></polyline><polyline fill="none" opacity="1" points="66.29648444242775,39.75827760680113 65.89837045338936,47.02077212079894 63.459922269685194,50.65198280016193 60.822417091578245,52.93611895991489 60.47406735084951,57.91433100722497 50.77003886527382,58.32429936871631 49.426404151832685,53.40465851809131 46.04243524395861,50.007737523526885 43.90257255220786,45.43943081604084 43.55422281171195,42.2181657050387 45.19644301687367,36.88839401473524 48.43111917888746,33.549938834039494 50.819803113816306,32.26140676002251 57.63750517810695,31.734279117255937 62.66369429137558,34.13563421642175 66.29648444242775,40.34396626416128 66.14719169656746,45.90797686984297 63.907800507498905,50.30057638074504 60.72288859426044,53.580360747582745 60.42430310253985,57.855764073028695 50.869567362591624,58.5 49.476168400608,53.40465851809131 46.1917279898189,50.24200862203725 43.85280830366537,45.556567367573734 43.80304405489005,41.10536057042191 46.14196374104358,35.65843924100045 50.52121762186289,32.26140676002251 56.39339896198362,31.558569788816385 62.36510879965499,33.959925668197684 65.55002071266063,38.05977691250155 66.34624869120307,44.795179329114035 64.55473573994823,49.304923618910834 60.72288859426044,53.40465851809131 60.22524610767141,58.26573247887427 50.91933161113411,58.38286625215551 49.874282389646396,53.81463029846782 45.19644301687367,48.77781259123003 43.75327980611473,45.02945268584881 44.201158044161275,39.28972622397123 46.29125648713671,35.599869896424934 52.063909329939634,31.909988388593774 58.83184714568779,31.9685581328813 62.66369429137558,34.252773216809146 65.59978496143594,38.294053187652025 66.29648444242775,40.63681035517948 66.19695594534278,46.08368153544143 64.55473573994823,49.304923618910834 60.62336009694263,53.46322593424702 60.374538853764534,57.97289793519303 51.01886010845192,58.38286625215551 50.123103632824495,57.21152737893863 49.72498964355327,53.8731976703275 46.092199492501095,50.12487308541313 43.90257255220786,45.26372594118584 44.00210104929283,40.28539742704015 46.04243524395861,35.83414723724127 51.71555958944373,31.909988388593774 57.38868393492885,31.675709347589873 62.86275128601119,34.487051141273696 66.04766319924966,39.816846501023974 66.04766319924966,46.20081794745056 63.70874351286329,50.593415079347324 60.87218134012073,53.1118213419104 60.42430310253985,57.97289793519303 50.67051036795601,58.38286625215551 49.72498964355327,53.931765035609715 44.69880053028464,47.957861082220916 43.65375130902976,44.32663231075276 44.649036281974986,38.235484128352255 46.73913472495042,35.13131491030799 51.66579534066841,31.9685581328813 58.73231864836998,32.02712787105702 63.211101026507095,34.60419006535085 66.04766319924966,39.58257088577375 65.74907770729624,47.37218067172216 64.35567874531262,49.83203413290903 60.77265284280293,53.05325388762867 60.324774604989216,57.91433100722497 51.51650259480812,58.5 50.42168912454508,58.14859868044732 49.77475389232859,53.8731976703275 46.63960622763261,50.65198280016193 44.15139379538596,46.31795433408115 43.703515557805076,41.691047768923454 44.99738602223806,37.474085780908354 47.43583420594223,34.31134270731127 50.7202746164985,32.20283704722533 56.49292745930143,31.5 61.767937815748155,33.60850840091007 65.35096371825784,37.884069639781956 66.44577718828805,42.511008780798875" stroke="#4dd2ff" stroke-dasharray="none" stroke-linecap="round" stroke-linejoin="round" stroke-width="0.5"><title>2026-07-01 10.0km</title><desc>1782903922000</desc></polyline><polyline fill="none" opacity="1" points="71.8499159203493,37.5970094971708 72.09253739780979,34.4001195969322 74.02380435861414,32.402014239371056 75.52805751899723,31.69410498092475 76.59559201990487,31.5 81.95267424278427,31.522835898635094 82.07883741107071,31.774030457570916 82.01090339734219,36.500943867155 82.4767366341548,37.14031686777162 87.52326336578699,37.23165555170999 89.07604082167381,37.63126136473875 91.79340136953397,38.738732426587376 94.58840079017682,39.19541814081458 98.2956569661037,57.8721714294079 97.89775774301961,58.0091525267635 95.51036240457324,58.077643008800806 93.23942537535913,58.5 89.91065870423336,58.020567610168655 72.96597471681889,57.95207709114038 71.95666937046917,57.92924690824293 71.7043430338963,57.73519015440252 71.84021106123691,45.63447640855884 71.73345761117525,40.69105002471042 72.05371796147665,34.53713114994753 73.6647245719214,32.721713638457004 75.28543604147853,31.785448377850116 76.87703293381492,31.511417949950555 81.87503536994336,31.522835898635094 82.07883741107071,31.774030457570916 82.00119853828801,36.61511790128861 82.31175402947702,37.04897810478724 83.51515655778348,37.254490210347285 87.30005160649307,37.185986219607 88.7751901896554,37.505671129358234 91.73517221491784,38.715898089016264 93.24913023441331,39.02416122952127" stroke="#4dd2ff" stroke-dasharray="none" stroke-linecap="round" stroke-linejoin="round" stroke-width="0.5"><title>2026-06-30 19.1km</title><desc>1782820136000</desc></polyline><polyline fill="none" opacity="1" points="128.5,47.42203031310055 128.32252763671568,48.15321363484691 128.28219300866476,49.197750651954266 125.45070212133578,52.644634459858935 124.96668658501585,54.325297223411326 111.13997609799844,54.25883094663732 105.54959665372735,54.68611327467079 105.14625037348014,53.271326038950065 104.62996713476605,52.06541552986164 103.79907379744691,50.76453282893635 102.15342097403482,48.893886622325226 101.74200776818907,48.06775096413185 101.50806692562765,46.937736701598624 101.58066925604362,45.86468445635546 101.90334628027631,45.000535483406566 103.56513295491459,42.85437039058161 104.09755004479666,41.76227504729468 104.99297878696234,36.27310267503344 122.06259336721268,35.92170795243874 123.24843143110047,35.82673616376269 126.03958769046585,35.313886725321936 126.74947714369046,37.11834366591211 126.9108156558068,38.86578232213651 126.86241410215735,40.83160913972824 128.48386614880292,47.365054733047145 128.31446071111714,48.02027166658081 128.2499253062415,49.235733581554086 125.42650134451105,52.66362517962989 124.96668658501585,54.325297223411326 111.6481924111431,54.24933576013427 105.51732895130408,54.67661813444283 104.69450253961259,52.18885595074971 103.80714072304545,50.79301951829257 102.10501942038536,48.78943311869807 101.62907080972218,47.74489123352396 101.5,46.94723268048256 101.5968031072698,45.83619616452779" stroke="#4dd2ff" stroke-dasharray="none" stroke-linecap="round" stroke-linejoin="round" stroke-width="0.5"><title>2026-06-29 19.4km</title><desc>1782731853000</desc></polyline><polyline fill="none" opacity="1" points="131.5,41.78515680570672 131.5860374953554,42.04460905567703 131.65773540814916,42.178543701500985 131.84916883530605,42.457356272490415 131.88860268734425,42.551695437367925 131.91011206118128,42.640137371794935 131.91728185246393,42.77658868184699 131.90581018641387,42.85997442263033 131.813319878911,43.12949801445666 131.7774709225123,43.28531210819119 131.76528227733797,43.4225943886463 131.77316904774852,43.59187781296123 131.85275373094555,44.31360736969191 131.97535716182392,44.843282543291934 131.9681873705449,44.91401546760517 131.91226299856498,45.05379532080815 131.89935737426276,45.13968290918501 131.94309310106837,45.6272034371118 132.00977215996681,45.819172108301245 132.0262626799049,45.910102995282614 131.9968665356646,46.52722641294349 132.01335705560632,46.58868351968022 132.05780976153983,46.66613562540397 132.20909235753425,46.80167496884951 132.26071485474677,46.88754340226296 132.27003558340948,46.95657420589032 132.22343194009227,47.167872033989624 132.247092251313,47.29161752000982 132.30588453980454,47.37158805357922 132.4191672420202,47.43893102810489 133.9463327845333,48.00290573379516 134.10335121355456,48.040783178271795 134.23527537309565,48.0550923874589 134.4883690052593,48.041624897181464 135.78036539380992,47.680519189518236 135.92089330288582,47.655266419985765 136.10515693876368,47.65021585631939 137.57998300494,47.77142848641597 137.75420893302726,47.77227023423984 137.96213288013314,47.74785951065087 138.33854692230307,47.63758943292305 138.56009347283543,47.5980265079379 140.00480641563627,47.50038098762798 140.1732965107003,47.461659151450476 140.3468054596633,47.39010742923847 140.51386159647518,47.28740852195915 140.6350310690941,47.183866458426564 140.95982261405152,46.81261903717677 141.17778426894438,46.594576641584354 141.38785915343396,46.34874550800669 141.52910404163777,46.13574174967471 141.6897073662949,45.7686544929129 141.76642413298396,45.652462741502404 141.91412183333887,45.54637311584611 142.44038451325105,45.23146370307586 142.54506346592825,45.13126259901537 142.58736523447806,45.05547940022052 142.62536512825682,44.9342247572431 142.68272345849255,44.711919703584954 142.73076106006556,44.43487162025667 142.7623081416932,44.32034432175715 142.89423230123793,43.969172973163495 143.0204206277558,43.698836099765686 143.09713739444123,43.567454062248544 143.17385416113393,43.46554724580665 143.40687237771635,43.209511044531155 143.50581549737035,43.066329255172604 143.5724945562688,42.92651392202015 143.6915130915113,42.58875694105336 143.71373944447623,42.58791463609896 143.73094694354222,42.619922160600254 143.7510223591271,42.61065683801826 143.76321100430505,42.628345171609 143.7510223591271,42.63761047325079 143.76321100430505,42.62076446210858 143.7495884008713,42.60981453542263 143.73381486005746,42.619922160600254 143.73238090179802,42.59212615996012 143.7101545488331,42.55843390563541 143.7503053799992,42.505368310987706 143.80622975197548,42.45819859149333 143.92094641245058,42.410186263646665 144.92901906633415,42.29899868943221 145.17207499070355,42.24087728335189 145.71339423229801,42.0639833915302 145.73418662701079,42.07998824149172 145.85463912050545,42.04376669216117 146.08694035795634,42.027761768120854 146.5314674172805,42.08672711589497 146.76233469647923,42.13979554903972 147.0340697859683,42.13558378177868 147.3387859153445,42.09767777442403 147.49293642785415,42.14400731403748 147.59976631791142,42.208025862899376 147.7632375590838,42.271201549071066 148.04429337723923,42.410186263646665 148.14825535078853,42.43461362514563 149.08534707100625,42.48936433087738 149.40511976206835,42.474202635327856 149.5822136066672,42.51294913224956 150.26047586169807,42.8431288900274 150.70428594189798,43.07138277467266 151.06564342238198,43.29794554744876 151.42986881937395,43.463862824476564 151.58401933187997,43.54218803306867 151.62560412129824,43.57587605385879 151.72096234532,43.60956392971002 152.02782941207988,43.687045494131326 151.8908863986435,44.01380713560957 151.88945244038405,44.03822949417554 151.93677306282552,44.0963375583583 152.09092357533518,44.18391991289309 152.30601731371644,44.2689749158817 152.5605449041359,44.39950307445497 152.6092994848368,44.43739793884424 152.64658239948767,44.49129254127911 152.7347708322268,44.547713055877466 152.75484624780802,44.572975841129846 153.00435498433217,44.68918360383941 153.12480747782683,44.731287440204596 153.3420521535918,44.87275467270956 153.4431462106295,44.91569957706861 153.47684422964448,44.94517143402845 153.49763662435362,44.99485231333938 153.64676828296797,45.09337109125681 153.8073716076251,45.100107372696584 153.88767326995367,45.1514713282163 153.93284295501508,45.166627840907495 154.24042700090286,45.193572679955196 154.3128418928245,45.297141042361545 154.34438897445216,45.31650733216611 154.6698974985411,45.450386026268916 155.20404694885656,45.692035487998055 155.33310319188604,45.7686544929129 156.08736523447806,46.287286519781446 156.4286472993772,46.49102542590981 156.6129109352587,46.567636619575296 156.82083488236094,46.60888849061439 158.0404163789899,46.62656779745248 158.0461522120131,47.08369031488019 158.11068033352785,47.12746492163251 158.20532157841444,47.16282115633521 158.4620001062176,47.1964936125637 158.42830208720625,48.57273151634172 158.41396250464823,48.71328778822499 158.3666418822031,48.73012070578716 158.36018907004836,48.808393297923885 158.3171703223743,48.85299990962994 158.24260449306894,48.91612203990417 158.06909554410595,49.01543316327616 157.95939773753344,49.05751376850367 157.36358808221485,49.23088348123474 157.33992777098683,49.22078437976597 157.2646449625572,49.24350733979372 157.24026767220494,49.264547058910466 157.27611662860727,49.27717086329676 157.99381273566905,49.06845468888832 158.131472728237,49.00449216894003 158.23471772266203,48.93884588245601 158.3666418822031,48.81428475174516 158.37739656912163,48.734328929532694 158.4232832333073,48.72002095958396 158.44837750278748,48.68972164294337 158.5,47.199019040949224 158.45984916883026,47.165346595567826 158.2899251155104,47.15356120551587 158.19600084975173,47.13335763849136 158.07769929364076,47.0744302705898 158.06622762759434,46.622358442296445 158.01675606776553,46.59794413782447 156.8401933188179,46.5878416447631 156.60430718572024,46.54238026484836 156.41645865420287,46.464926936183474 156.2594402251816,46.36137400754069 156.09453502575707,46.230036617715996 156.06370492325732,46.22161747919654 155.40049922991238,45.76444467692954 154.75593499389288,45.47227792214471 154.60752031440643,45.39313000939819 154.46842636358633,45.287036872152385 154.20314408624836,45.02095569993071 154.05831430240505,44.90727902614162 153.65250411599118,44.64707954115693 152.23145148441108,43.75694668244205 151.98696160178224,43.652515761212726 151.67005682723175,43.57166505918576 151.506585586063,43.47649597563168 151.08786977534692,43.29036548634167 150.6756067767783,43.03600806966779 150.06115566413428,42.723524566133165 149.55210048329536,42.482625803147585 149.38002549258817,42.453986995571995 149.06885655106453,42.469991048016254 148.6945934462783,42.4405098733946 148.34614159010016,42.432928981969326 148.1855382654394,42.413555559420274 147.9532370279885,42.341957712168096 147.4850496574436,42.10525899058257 147.4119177863904,42.081672960638116 147.3409368527282,42.077461162095005 147.13803175951762,42.107786061003026 146.77093844601404,42.12379082138568 146.5285995007689,42.06819519732426 146.15792129162583,42.01681101175927 146.0460725476696,42.00754497517892 145.89765786817952,42.01428391196305 145.67324340113555,42.05977158346832 145.21365978012545,42.20971055448308 144.9971320834884,42.26951687072369 144.80498167719634,42.30068336143222 143.96038026448514,42.38575882591522 143.85068245791263,42.41439788313846 143.77253173296413,42.461567866599125 143.70513569493778,42.53400693056392 143.69724892453087,42.54748389175711 143.73381486005746,42.605603021081606 143.73381486005746,42.62329136609014 143.74743746348759,42.60812992995852 143.7639279834293,42.61823755731075 143.73453183918537,42.62329136609014 143.73596579744117,42.59886459342033 143.70370173668198,42.58286080447806 143.68506027935655,42.57949158158317 143.67287163418223,42.593810768867115 143.54238143289695,42.9585200620445 143.50366455998665,43.029270012494635 143.48430612353332,43.03600806966779 143.31581602846563,42.95599326627462 143.1953635349746,42.91387988335646 142.76589303733635,42.79427664047989 142.59525200488497,42.76311211510665 141.6839715332717,42.72183998513992 140.72967231398434,42.634241273921816 139.8456370492313,42.6249759682928 139.5172606086344,42.576964663458966 138.6468479473151,42.35964665299434 138.40307504381417,42.3166877273502 138.09692495618583,42.298156353295326 137.6760582080824,42.32258406443907 137.5434170694134,42.3150030587949 137.2243613574792,42.22066104093119 136.7504381539111,42.106943704287914 136.65579690902086,42.06987991900769 136.58983482925396,42.01091444429676 136.55326889372736,41.94773665693492 136.4772691061662,41.595616445288215 136.3768920282564,41.40944122161136 136.32311859366018,41.33951906571292 136.23708109830477,41.28560275977543 136.1488926655693,41.26791139093257 135.54806415635176,41.310033631937586 135.4469700993177,41.286445204912525 135.3767061447761,41.23842568729424 135.3250836475636,41.17271429084076 135.2383291730839,40.914918097850205 135.1953104254062,40.838251578077234 135.1279143873835,40.76916681778039 135.0490466833071,40.722829136702785" stroke="red" stroke-dasharray="none" stroke-linecap="round" stroke-linejoin="round" stroke-width="0.5"><title>2026-06-27 100.8km</title><desc>1782515791000</desc></polyline><polyline fill="none" opacity="1" points="161.57064980373252,50.54060033534188 161.5,50.22205541159201 172.5920191887999,32.85323342807533 175.42978630610742,37.95054810559668 178.09092891408363,36.27455125746201 179.5627998256241,35.872862805161276 180.97579590062378,35.789754692304996 182.15329262975138,36.01137620686495 183.26013955520466,36.648535925662145 184.16681203665212,37.72892994560243 184.41408634977415,38.42148542267387 184.54361098998925,39.640373969552456 183.89598778891377,42.65984338002454 184.143262102094,44.820520930719795 184.9439598779427,46.4133047699288 186.46293065854115,48.144569095704355 187.21652856527362,49.34951526125951 188.05255124298856,51.35773369271192 188.5,53.50441514636623 188.12320104666287,53.87834952863341 180.51657217618776,57.13291752303485 179.1271260358044,55.110940322163515 175.75948539032834,51.759373602471896 174.29938944615424,49.432614579141955 173.7930658525438,48.144569095704355 173.333842128166,45.83159470635292 173.29851722629974,43.79558868640743 173.7930658525438,41.0947144493839 174.73506323591573,38.947825081428164 175.62996075011324,37.86744134052424 176.80745747929905,36.911709667372634 178.76210204977542,36.03907886921661 180.29284779768204,35.76205197600939 182.3770170082571,36.06678152560198 183.33078935893718,36.69008971028961 184.2492368076928,37.93669698185113 184.54361098998925,39.65422490914352 183.9666375927045,42.06426559793181 183.90776275622193,43.31082057977619 184.1197121674777,44.77896978294302 184.62603576102993,45.94239682680927 186.22743131272728,47.826018215724616 187.28717836900614,49.432614579141955 188.20562581776176,51.87017059743812 188.5,53.518264587415615 188.18207588314544,53.83680131781148 180.6107719145366,57.14676657192467 178.85630178806605,54.79240675865731 175.72416048846208,51.73167433877825 174.34648931532865,49.54341358588135 173.6635412123287,47.645967368094716 173.333842128166,45.59613988218189 173.333842128166,43.74018670989608 173.67531617969507,41.56564020933001 174.19341474049725,39.88969065285346 174.62908853031695,39.12788815247768 175.8183602267527,37.68737649792456" stroke="#4dd2ff" stroke-dasharray="none" stroke-linecap="round" stroke-linejoin="round" stroke-width="0.5"><title>2026-06-25 16.5km</title><desc>1782388992000</desc></polyline><polyline fill="none" opacity="1" points="11.621337407879764,72.35770928921556 11.545299298937607,72.64088114260085 11.504853496313444,72.94115237765254 11.5,73.25092051872343 11.689286356282537,75.02580626275267 11.974024806753732,76.2742004708798 11.9594643178134,76.41480555685848 11.830037749423354,76.74541310904897 11.802534603630193,77.01141469655158 11.902840194146847,78.04308298799515 12.05006291569589,78.46485268720244 12.08727305411594,78.65103611025916 12.01770627359656,80.02645290950932 12.05006291569589,80.17462678936863 12.13580801725766,80.34369546926064 12.25390976091876,80.476669700005 12.493348912459624,80.67232996460734 12.608214991916611,80.84899222759304 12.637335969804553,81.05604575226243 12.533794715083786,81.4663464941732 12.532176882974454,81.56892019262705 12.598507999282447,81.81585443464428 12.739259392408712,81.98870635315507 12.986787704474409,82.12356766611629 16.371292468094907,83.37715884842146 16.808107136435865,83.48731867653805 17.198004673744435,83.51960677205716 17.762628078373382,83.45503052210552 20.40778357002273,82.706688552782 20.962699982024787,82.60412145104783 21.360686679850915,82.60032265807968 24.90212115765462,82.8814311344413 25.46998022650223,82.82255067472033 26.31125292109209,82.57563048392694 26.80145604889549,82.48445908082431 29.980496135183785,82.2793217060007 30.25552759302809,82.23183586353662 30.611450656128,82.12546711388859 30.878392953447474,82.00580150606584 31.24240517706494,81.77786477561494 31.494786985436804,81.56512117736384 32.164569476903125,80.79770336527145 32.81008448678767,80.13663360518694 33.31646593564801,79.53063128405483 33.530019773505046,79.1829779455129 33.903738989756675,78.33186332756668 34.05419737552438,78.10387924092902 34.28231170232175,77.92338975408347 34.736922523821704,77.65360203296223 34.748247348557925,77.69350047647276 34.75310084487137,77.64030253178316 35.59599137156329,77.13871404014753 35.80954520942032,76.93351464610532 35.9276469530887,76.72641284248493 35.98103541255114,76.56490975212728 36.1395829588364,75.95118455059128 36.235035053032334,75.39064291347677 36.33534064354899,75.0125047842248 36.54565881718736,74.44433228237722 36.830397267658554,73.82103173540418 37.01321229552559,73.4713657038792 37.15072802445502,73.26802412289726 37.73476541434502,72.61807552381288 37.94508358799794,72.32920180416659 38.150548265330144,71.92249000731863 38.414254898445506,71.17175905742806 38.47896818264417,71.1926659208766 38.5,71.24208204519164 38.49676433579589,71.18886467481752 38.39484091317718,71.15275279644993 38.365719935289235,71.18696405148148 38.07451015639526,72.00611375833432 37.98714722272416,72.16955903772941 37.94346575588861,72.18856420462362 37.32221822757856,71.92058946292309 36.28680568039272,71.63740606261126 35.94867877045181,71.57088581345488 33.83255437713524,71.47585645150866 31.64524537120451,71.2781937409145 30.21993528672465,71.28389558086201 29.674725867342204,71.25728697870727 28.935376595363778,71.14324965829837 27.155761279886065,70.6927950441841 26.61216969261295,70.58255545623251 25.916501887477352,70.52553470969178 24.829318712931126,70.57875407885695 24.48148481035605,70.55024372246226 23.80199532626284,70.34496779770598 22.730990472773556,70.08836953626815 22.7423152975025,70.11117842160274 22.74716879382322,70.08836953626815 22.74069746540772,70.113079160712 22.735843969079724,70.09027027784032 22.528761459645466,70.0066374552407 22.38315657019848,69.86978289117724 22.289322308111878,69.69871319457707 22.116214272879006,68.90606863700486 21.873539457126753,68.466962450746 21.7295523997891,68.31678943067891 21.577476181919337,68.23504914870864 21.415692971422686,68.20083217411593 20.071274492183875,68.29397822727151 19.794625202230236,68.23504914870864 19.647402480681194,68.13429897812239 19.545479058062483,68.00883569771577 19.35457486967789,67.45564605560139 19.265594103904732,67.27124565581471 19.153963688659132,67.13246882682506 18.922613697650377,66.97468014781043 17.210947330582712,66.48039322794102" stroke="red" stroke-dasharray="none" stroke-linecap="round" stroke-linejoin="round" stroke-width="0.5"><title>2026-06-20 50.3km</title><desc>1781914442000</desc></polyline><polyline fill="none" opacity="1" points="62.28192347136792,76.2196694270242 65.34398752520792,77.76148355577607 67.03497812210117,77.85112347042013 67.33966111252084,78.06625906759291 67.59864165441832,86.47425637193373 67.5377050563693,87.33475226811424 67.1720854677842,87.76499853942369 62.9979284988367,88.39243901440932 58.91517642699182,88.5 54.710551159107126,88.19524369272403 49.16532073315466,87.37060616679082 42.99549017683603,87.46024087941623 42.675573036889546,87.17340962824528 42.40135834552348,81.04227281511703 42.614636438840535,78.58616894004808 55.670302578946576,78.10211497332784 58.945644726161845,76.29138203048205 58.76283493184019,68.45659641394741 57.08707848447375,66.25131528280326 56.828097942634486,64.92454662642558 57.11754678352736,63.52604923311446 58.442917791893706,61.93031341578171 59.5702448564698,61.5 61.032723210635595,61.5 61.87060143426061,61.75101629513665 63.10456754552433,62.79093689122237" stroke="#4dd2ff" stroke-dasharray="none" stroke-linecap="round" stroke-linejoin="round" stroke-width="0.5"><title>2026-06-15 12.8km</title><desc>1781522628000</desc></polyline><polyline fill="none" opacity="1" points="97.54247571952874,85.99687441671267 97.34495641681133,87.60603093265672 94.38216687680688,88.24968914894271 90.06712980318116,88.5 85.66092997428495,88.26756850800302 78.68697921087733,87.31995980905776 72.76140013075201,87.39147763645451 72.45752428052947,78.68395448414958 85.40263550158124,78.12966128571134 86.4358133925125,77.80781276818016 88.92759536462836,76.25220275683387 88.74526985443663,68.50969585271378 87.22589060314931,66.6500096325617 86.84604579035658,65.14794008503668 87.16511543316301,63.44915448578831 88.33503745665075,62.09011342008307 89.7024787827977,61.5 91.61689663946163,61.71458694228204 92.80201245547505,62.519285491653136 93.71364000625908,64.43266406856128 93.60728345863754,65.898976567114 93.1666634757421,66.90035322846961" stroke="#4dd2ff" stroke-dasharray="none" stroke-linecap="round" stroke-linejoin="round" stroke-width="0.5"><title>2026-06-14 10.1km</title><desc>1781439872000</desc></polyline><polyline fill="none" opacity="1" points="116.68851629295386,77.7361745199305 118.97520651924424,76.31044947639748 118.77833914884832,68.70043314655777 117.06710739003029,66.38349646590359 116.83995273179607,64.6368610940699 117.33969297993463,63.15755337008159 118.32402983226348,62.15945871725853 119.49009041127283,61.606939431032515 120.56528912694193,61.57129296170024 121.35275860887486,61.71387879247777 122.63996833900455,62.426806092931656 123.4728687524912,63.620952400931856 123.71516705467366,64.42298610098078 123.66973612306174,65.88445968004817 123.33657595753903,66.72212770860642 121.8827861448517,68.43309596368636 122.07965351530584,76.06094632393797 125.16895686736098,77.75399600484525 127.22849243547535,78.07478240280761 127.42535980598768,87.44859773671487 126.91047591395909,87.8406468234898 125.53240432054736,88.07231175406196 119.8838251522393,88.48217967862729 115.49216842622263,88.25051532492216 109.31356172193773,87.35949554129911 102.7866512084147,87.35949554129911 102.57464019401232,78.64506778874784 115.3710192751605,78.18171106319642 116.0676268938114,78.00349659060885 118.89948829985224,76.346092753025 118.76319550490007,68.59349832549924 117.05196374619845,66.4369646031555 116.83995273179607,64.45863195248239 117.38512391154654,63.086261095668306 118.41489169566194,62.03469645995938 120.56528912694193,61.5 122.48853190016234,62.26639771966438 122.9882721483009,62.76544547852245 123.66973612306174,64.20911082983366 123.50315604032949,66.31220558912901 121.97364800813375,68.36180597492785 122.10994080308592,76.13223297754303 124.92665856529493,77.64706706654397 126.97105048946105,77.89656781447411 127.2890670109773,78.25299679821183 127.53136531315977,87.0565477161581 127.30421065492555,87.62680198278395 124.68436026317067,88.17923391969816 120.32299082487589,88.5 115.44673749455251,88.23269497652655 109.61643459962215,87.37731598423852 102.80179485230474,87.35949554129911 102.46863468684023,80.83708384582133 102.6352147696307,78.66288917518978 115.1438646169263,78.25299679821183 116.41593070304953,77.89656781447411 118.89948829985224,76.38173602192546 118.91463194380049,69.93017859378597 118.58147177833598,68.18358086784428 117.65770950150909,67.27462981913413 116.8853836634662,65.88445968004817 116.85509637568612,64.35169437482546 117.15796925337054,63.44272215888486 118.73290821717819,61.89211090716708 121.00445479957853,61.5891161973268 122.88226664112881,62.6763299183076 123.56373061583145,63.95958932887879" stroke="#ffde00" stroke-dasharray="none" stroke-linecap="round" stroke-linejoin="round" stroke-width="0.5"><title>2026-06-10 21.8km</title><desc>1781089369000</desc></polyline><polyline fill="none" opacity="1" points="132.28377812402323,78.78723086655373 142.95632148440927,85.11391003255267 146.21106875035912,88.5 150.67688476620242,87.34160237043398 157.71622187597677,87.69803258415777 156.35376953240484,79.76742378488416 152.87194687593728,77.80703677929705 151.35811093822122,74.77733857266139 152.03933711024,64.79707724938635 154.0830156262964,61.5" stroke="#4dd2ff" stroke-dasharray="none" stroke-linecap="round" stroke-linejoin="round" stroke-width="0.5"><title>2026-06-09 11.9km</title><desc>1781004096000</desc></polyline><polyline fill="none" opacity="0.5" points="179.71351375617087,85.60715067572892 177.66415994800627,61.5 170.28648624382913,88.5 178.07403071038425,61.98214429104701 178.8937722314149,87.53571710037068 179.71351375617087,85.60715067572892 177.66415994800627,61.5 170.28648624382913,88.5 178.07403071038425,61.98214429104701 178.8937722314149,87.53571710037068 179.71351375617087,85.60715067572892 177.66415994800627,61.5 170.28648624382913,88.5 178.07403071038425,61.98214429104701 178.8937722314149,87.53571710037068 179.71351375617087,85.60715067572892 177.66415994800627,61.5 170.28648624382913,88.5 178.07403071038425,61.98214429104701 178.8937722314149,87.53571710037068 179.71351375617087,85.60715067572892 177.66415994800627,61.5 170.28648624382913,88.5 178.07403071038425,61.98214429104701 178.8937722314149,87.53571710037068 179.71351375617087,85.60715067572892 177.66415994800627,61.5 170.28648624382913,88.5 178.07403071038425,61.98214429104701 178.8937722314149,87.53571710037068 179.71351375617087,85.60715067572892 177.66415994800627,61.5 170.28648624382913,88.5 178.07403071038425,61.98214429104701 178.8937722314149,87.53571710037068 179.71351375617087,85.60715067572892 177.66415994800627,61.5 170.28648624382913,88.5 178.07403071038425,61.98214429104701 178.8937722314149,87.53571710037068 179.71351375617087,85.60715067572892 177.66415994800627,61.5 170.28648624382913,88.5 178.07403071038425,61.98214429104701 178.8937722314149,87.53571710037068 179.71351375617087,85.60715067572892 177.66415994800627,61.5 170.28648624382913,88.5 178.07403071038425,61.98214429104701 178.8937722314149,87.53571710037068 179.71351375617087,85.60715067572892 177.66415994800627,61.5 170.28648624382913,88.5 178.07403071038425,61.98214429104701 178.8937722314149,87.53571710037068 179.71351375617087,85.60715067572892 177.66415994800627,61.5 170.28648624382913,88.5 178.07403071038425,61.98214429104701 178.8937722314149,87.53571710037068 179.71351375617087,85.60715067572892 177.66415994800627,61.5 170.28648624382913,88.5 178.07403071038425,61.98214429104701 178.8937722314149,87.53571710037068 179.71351375617087,85.60715067572892 177.66415994800627,61.5 170.28648624382913,88.5 178.07403071038425,61.98214429104701 178.8937722314149,87.53571710037068 179.71351375617087,85.60715067572892 177.66415994800627,61.5 170.28648624382913,88.5 178.07403071038425,61.98214429104701 178.8937722314149,87.53571710037068 179.71351375617087,85.60715067572892 177.66415994800627,61.5 170.28648624382913,88.5 178.07403071038425,61.98214429104701 178.8937722314149,87.53571710037068 179.71351375617087,85.60715067572892 177.66415994800627,61.5 170.28648624382913,88.5 178.07403071038425,61.98214429104701 178.8937722314149,87.53571710037068 179.71351375617087,85.60715067572892 177.66415994800627,61.5 170.28648624382913,88.5 178.07403071038425,61.98214429104701 178.8937722314149,87.53571710037068 179.71351375617087,85.60715067572892 177.66415994800627,61.5 170.28648624382913,88.5 178.07403071038425,61.98214429104701 178.8937722314149,87.53571710037068 179.71351375617087,85.60715067572892 177.66415994800627,61.5 170.28648624382913,88.5 178.07403071038425,61.98214429104701 178.8937722314149,87.53571710037068 179.71351375617087,85.60715067572892 177.66415994800627,61.5 170.28648624382913,88.5 178.07403071038425,61.98214429104701 178.8937722314149,87.53571710037068 179.71351375617087,85.60715067572892 177.66415994800627,61.5 170.28648624382913,88.5 178.07403071038425,61.98214429104701 178.8937722314149,87.53571710037068 179.71351375617087,85.60715067572892 177.66415994800627,61.5 170.28648624382913,88.5 178.07403071038425,61.98214429104701 178.8937722314149,87.53571710037068 179.71351375617087,85.60715067572892 177.66415994800627,61.5 170.28648624382913,88.5 178.07403071038425,61.98214429104701 178.8937722314149,87.53571710037068 179.71351375617087,85.60715067572892 177.66415994800627,61.5 170.28648624382913,88.5 178.07403071038425,61.98214429104701 178.8937722314149,87.53571710037068 179.71351375617087,85.60715067572892 177.66415994800627,61.5 170.28648624382913,88.5 178.07403071038425,61.98214429104701 178.8937722314149,87.53571710037068 179.71351375617087,85.60715067572892 177.66415994800627,61.5 170.28648624382913,88.5 178.07403071038425,61.98214429104701 178.8937722314149,87.53571710037068 179.71351375617087,85.60715067572892 177.66415994800627,61.5 170.28648624382913,88.5 178.07403071038425,61.98214429104701 178.8937722314149,87.53571710037068 179.71351375617087,85.60715067572892 177.66415994800627,61.5 170.28648624382913,88.5 178.07403071038425,61.98214429104701 178.8937722314149,87.53571710037068 179.71351375617087,85.60715067572892 177.66415994800627,61.5 170.28648624382913,88.5 178.07403071038425,61.98214429104701 178.8937722314149,87.53571710037068 179.71351375617087,85.60715067572892 177.66415994800627,61.5 170.28648624382913,88.5 178.07403071038425,61.98214429104701 178.8937722314149,87.53571710037068 179.71351375617087,85.60715067572892 177.66415994800627,61.5 170.28648624382913,88.5 178.07403071038425,61.98214429104701 178.8937722314149,87.53571710037068 179.71351375617087,85.60715067572892 177.66415994800627,61.5 170.28648624382913,88.5 178.07403071038425,61.98214429104701 178.8937722314149,87.53571710037068 179.71351375617087,85.60715067572892 177.66415994800627,61.5 170.28648624382913,88.5 178.07403071038425,61.98214429104701 178.8937722314149,87.53571710037068 179.71351375617087,85.60715067572892 177.66415994800627,61.5 170.28648624382913,88.5 178.07403071038425,61.98214429104701 178.8937722314149,87.53571710037068 179.71351375617087,85.60715067572892 177.66415994800627,61.5 170.28648624382913,88.5 178.07403071038425,61.98214429104701 178.8937722314149,87.53571710037068 179.71351375617087,85.60715067572892 177.66415994800627,61.5 170.28648624382913,88.5 178.07403071038425,61.98214429104701 178.8937722314149,87.53571710037068 179.71351375617087,85.60715067572892 177.66415994800627,61.5 170.28648624382913,88.5 178.07403071038425,61.98214429104701 178.8937722314149,87.53571710037068 179.71351375617087,85.60715067572892 177.66415994800627,61.5 170.28648624382913,88.5 178.07403071038425,61.98214429104701 178.8937722314149,87.53571710037068 179.71351375617087,85.60715067572892 177.66415994800627,61.5 170.28648624382913,88.5 178.07403071038425,61.98214429104701 178.8937722314149,87.53571710037068 179.71351375617087,85.60715067572892 177.66415994800627,61.5 170.28648624382913,88.5 178.07403071038425,61.98214429104701 178.8937722314149,87.53571710037068 179.71351375617087,85.60715067572892 177.66415994800627,61.5 170.28648624382913,88.5 178.07403071038425,61.98214429104701" stroke="#4dd2ff" stroke-dasharray="1,0.5" stroke-linecap="round" stroke-linejoin="round" stroke-width="0.5"><title>2026-06-07 13.9km</title><desc>1780824448000</desc></polyline><polyline fill="none" opacity="1" points="15.899907961334975,110.08638492973023 15.962034054289688,110.19499621767591 16.268522779559135,110.47219461856821 16.362402208920685,110.62943355377956 16.37620800735749,110.80125979551394 16.287850897373573,111.17732549938773 16.307179015180736,111.32483147164476 16.361021629076276,111.4626104734798 16.087666820058075,111.69115875055468 15.800506212603068,112.00074699811103 15.534054302799632,112.23739132517403 15.13782788770186,112.81115737691653 14.912793373208842,113.18717301962442 14.846525540720904,113.26334746185512 14.644960883568274,113.40921234267626 14.577312471235928,113.51455832481497 14.595260009198682,113.5566965119051 14.738840312922548,113.60855873459786 15.039806718814361,113.6215242624503 15.064657155999157,113.64259322145426 15.070179475369514,113.77224770680641 15.090888173021085,113.79331645553884 15.303497468928981,113.88245314417964 15.456741831563704,113.87272916734764 15.634836631375947,113.73983418982243 16.097330878961657,113.49186848306545 16.08352508052485,113.4610750718748 15.846065347439435,113.41893661796894 15.823976069943456,113.34924584000055 15.855729406343016,113.2422779737226 16.071099861932453,113.26172673303881 16.118039576613228,113.06075501215037 16.152554072701605,113.04616825087487 16.264381040033186,113.0575135108611 16.29475379658834,113.08344550168385 16.26161988034437,113.33628007838433 16.280947998151532,113.38166019534128 16.816612977439945,113.208242584642 17.0734008283398,113.19365596583793 17.599401748731907,113.11261893811843 17.944546709608403,113.25848527489597 18.126783248961146,113.30548634992283 18.2938334100254,113.3184521379817 18.84744592729112,113.47890284390087 19.445236999534245,113.78683376675053 19.71583064886363,113.84355719928499 19.942245743201056,113.93107293441517 20.435112747349194,113.96348604095692 20.524850437170244,113.89703909768104 20.552462034051132,113.79169578359961 20.632535664975876,113.72524808448361 21.117119190057565,113.50969621873537 21.147491946612718,113.52266183146276 20.979061205704056,113.18717301962442 20.87413713758724,113.1142396829382 20.752646111352078,113.09803222694882 20.75678785089258,112.86626370322665 20.792682926818088,112.82088203735202 23.26254026690731,112.13527813213932 23.537275655769918,112.10124024765537 23.81063046478812,112.1044819542476 26.603543488257856,112.33464134312908 26.943166129763995,112.3378829996027 27.426369075001276,112.26980806742722 28.025540727096086,112.08341084896438 28.3651633686095,112.01695563198973 31.193971468004747,111.82245087689262 31.554302807169734,111.74951094766857 31.900828347897914,111.61659728156792 32.1976530142565,111.44315939651369 32.488955361244734,111.20001881970347 33.043948458347586,110.55972989802558 33.50644270592602,110.09611134558872 33.89714680164616,109.64058414172177 34.19535204785643,109.20287601004384 34.5404970087402,108.42469686936602 34.675793833404896,108.23987342548116 34.88426138977957,108.08747344404765 35.950069028986036,107.45029514605176 36.151633686138666,107.26059564477964 36.2427519558114,107.10818577022928 36.300736309240165,106.93307465162707 36.41946617578651,106.47096610558583 36.509203865614836,105.95046899946192 36.57685227794718,105.69426756514349 36.79360331338103,105.1007715734786 37.0918085595913,104.45698038378305 37.332029452358256,104.0888556882528 37.75034514495201,103.63314702863318 37.97814081913384,103.32825240489456 38.13966866082774,103.01199880618697 38.372986654387205,102.34865560117123 38.42544868844561,102.3600089089141 38.44339622640837,102.41353153021191 38.49033594108914,102.3956906775611 38.5,102.4394818236351 38.44063506672683,102.41353153021191 38.42544868844561,102.33568038185513 38.35089737688395,102.32757086410948 38.08168430740625,103.06227546287664 38.011274735385086,103.19364270980532 37.965715600541444,103.21472623541104 37.48389323515585,103.00388965231195 36.57685227794718,102.74926000133928 36.230326737219,102.68762924817747 34.561205706391775,102.6146451356326 32.58007363091747,102.43785993160691 30.992406810852117,102.42975046883566 30.20961803956743,102.30648609754917 28.75172572480369,101.93830888077628 28.20777726644883,101.83288203005759 27.74942475838907,101.79719892891353 26.718131615270977,101.84261377024905 26.471007823274704,101.81666244910048 25.90358950758673,101.64473381775406 24.927519558208587,101.40792324615904 24.78946157385508,101.33493293616266 24.709387942930334,101.26032025386212 24.626553152316774,101.13218022003366 24.471928209837642,100.42657950067314 24.256557754248206,100.00969182295557 24.18752876207145,99.91885095395901 24.031523239755188,99.83774257235564 23.812011044632527,99.7890773337931 23.742982052455773,99.69174638505046 23.669811320745794,99.66903573986292 23.538656235614326,99.73392320670882 23.47376898296352,99.68039106673768 23.385411872972327,99.70634606744443 23.27220432581089,99.82638736408171 23.025080533814617,99.858830793577 22.688219051997294,99.86694164003256 22.47008743671904,99.80529909744655 22.267142199714726,99.6398362885966 22.097330878968933,99.13694796907748 21.921997238830954,98.85954109845352 21.7162908421451,98.73786980657769 21.252416014722257,98.6032190978849 20.973538886326423,98.49614659084364 20.930740911171597,98.48641268882693 20.896226415090496,98.5075028019155 20.846525540720904,98.47505646185346 20.684997699027008,98.45072166092723 20.286010124247696,98.30633436674907 19.805568338691955,98.25928652246239 19.666129774501314,98.21872791804981 19.616428900131723,98.2268396476693 19.565347445917723,98.19114800466014 19.36240220892796,98.19277035390587 18.041187298651494,97.97375162519438 15.96479521398578,97.16903324153282 15.79636447307712,97.1511861770532 14.320524620336073,97.12847170075929 13.67993557293812,97.14307386802557 13.42038656234945,97.12360430852277 13.238150023003982,97.05870559505092 13.109756097554055,96.98244924930532 12.575471698102774,96.51192282831835 11.5,96.03651395904399" stroke="red" stroke-dasharray="none" stroke-linecap="round" stroke-linejoin="round" stroke-width="0.5"><title>2026-06-06 62.1km</title><desc>1780699923000</desc></polyline><polyline fill="none" opacity="1" points="52.64917873300146,107.03362269492936 51.91277689032722,103.86696066297009 50.49661950068548,102.66695390632958 49.052138963132165,100.50026318928576 48.59896859852597,97.33353393265861 49.561955623561516,94.5334514452843 51.03475930891,92.90005822878447 52.39427040296141,92.06669100280851 55.11329259118065,91.5 56.75603516330011,91.73334348047501 59.33344161254354,93.03339677554322 61.40103140147403,96.56684721296187 61.032830480253324,100.60026463505346 58.115546257351525,104.26696187542984 58.48374717857223,118.5" stroke="#4dd2ff" stroke-dasharray="none" stroke-linecap="round" stroke-linejoin="round" stroke-width="0.5"><title>2026-06-05 14.5km</title><desc>1780659860000</desc></polyline><polyline fill="none" opacity="0.5" points="88.65869980212301,93.24571017175913 79.75915974238887,99.76300308457576 75.30938971228898,108.25870056054555 75.11162215517834,118.5 75.30938971228898,108.25870056054555 79.75915974238887,99.76300308457576 88.65869980212301,93.24571017175913 94.888377844356,91.5 88.65869980212301,93.24571017175913 79.75915974238887,99.76300308457576 75.30938971228898,108.25870056054555 75.11162215517834,118.5 75.30938971228898,108.25870056054555 79.75915974238887,99.76300308457576 88.65869980212301,93.24571017175913 94.888377844356,91.5 88.65869980212301,93.24571017175913 79.75915974238887,99.76300308457576 75.30938971228898,108.25870056054555 75.11162215517834,118.5 75.30938971228898,108.25870056054555 79.75915974238887,99.76300308457576 88.65869980212301,93.24571017175913 94.888377844356,91.5 88.65869980212301,93.24571017175913 79.75915974238887,99.76300308457576 75.30938971228898,108.25870056054555 75.11162215517834,118.5 75.30938971228898,108.25870056054555 79.75915974238887,99.76300308457576 88.65869980212301,93.24571017175913 94.888377844356,91.5 88.65869980212301,93.24571017175913 79.75915974238887,99.76300308457576 75.30938971228898,108.25870056054555 75.11162215517834,118.5 75.30938971228898,108.25870056054555 79.75915974238887,99.76300308457576 88.65869980212301,93.24571017175913 94.888377844356,91.5 88.65869980212301,93.24571017175913 79.75915974238887,99.76300308457576 75.30938971228898,108.25870056054555 75.11162215517834,118.5 75.30938971228898,108.25870056054555 79.75915974238887,99.76300308457576 88.65869980212301,93.24571017175913 94.888377844356,91.5 88.65869980212301,93.24571017175913 79.75915974238887,99.76300308457576 75.30938971228898,108.25870056054555 75.11162215517834,118.5 75.30938971228898,108.25870056054555 79.75915974238887,99.76300308457576 88.65869980212301,93.24571017175913 94.888377844356,91.5 88.65869980212301,93.24571017175913 79.75915974238887,99.76300308457576 75.30938971228898,108.25870056054555 75.11162215517834,118.5 75.30938971228898,108.25870056054555 79.75915974238887,99.76300308457576 88.65869980212301,93.24571017175913 94.888377844356,91.5 88.65869980212301,93.24571017175913 79.75915974238887,99.76300308457576 75.30938971228898,108.25870056054555 75.11162215517834,118.5 75.30938971228898,108.25870056054555 79.75915974238887,99.76300308457576 88.65869980212301,93.24571017175913 94.888377844356,91.5 88.65869980212301,93.24571017175913 79.75915974238887,99.76300308457576 75.30938971228898,108.25870056054555 75.11162215517834,118.5 75.30938971228898,108.25870056054555 79.75915974238887,99.76300308457576 88.65869980212301,93.24571017175913 94.888377844356,91.5 88.65869980212301,93.24571017175913 79.75915974238887,99.76300308457576 75.30938971228898,108.25870056054555 75.11162215517834,118.5 75.30938971228898,108.25870056054555 79.75915974238887,99.76300308457576 88.65869980212301,93.24571017175913 94.888377844356,91.5 88.65869980212301,93.24571017175913 79.75915974238887,99.76300308457576 75.30938971228898,108.25870056054555 75.11162215517834,118.5 75.30938971228898,108.25870056054555 79.75915974238887,99.76300308457576 88.65869980212301,93.24571017175913 94.888377844356,91.5 88.65869980212301,93.24571017175913 79.75915974238887,99.76300308457576 75.30938971228898,108.25870056054555 75.11162215517834,118.5 75.30938971228898,108.25870056054555 79.75915974238887,99.76300308457576 88.65869980212301,93.24571017175913 94.888377844356,91.5 88.65869980212301,93.24571017175913 79.75915974238887,99.76300308457576 75.30938971228898,108.25870056054555 75.11162215517834,118.5 75.30938971228898,108.25870056054555 79.75915974238887,99.76300308457576 88.65869980212301,93.24571017175913 94.888377844356,91.5 88.65869980212301,93.24571017175913 79.75915974238887,99.76300308457576 75.30938971228898,108.25870056054555 75.11162215517834,118.5 75.30938971228898,108.25870056054555 79.75915974238887,99.76300308457576 88.65869980212301,93.24571017175913 94.888377844356,91.5 88.65869980212301,93.24571017175913 79.75915974238887,99.76300308457576 75.30938971228898,108.25870056054555 75.11162215517834,118.5 75.30938971228898,108.25870056054555 79.75915974238887,99.76300308457576 88.65869980212301,93.24571017175913 94.888377844356,91.5 88.65869980212301,93.24571017175913 79.75915974238887,99.76300308457576 75.30938971228898,108.25870056054555 75.11162215517834,118.5 75.30938971228898,108.25870056054555 79.75915974238887,99.76300308457576 88.65869980212301,93.24571017175913 94.888377844356,91.5 88.65869980212301,93.24571017175913 79.75915974238887,99.76300308457576 75.30938971228898,108.25870056054555 75.11162215517834,118.5 75.30938971228898,108.25870056054555 79.75915974238887,99.76300308457576 88.65869980212301,93.24571017175913 94.888377844356,91.5 88.65869980212301,93.24571017175913 79.75915974238887,99.76300308457576 75.30938971228898,108.25870056054555 75.11162215517834,118.5 75.30938971228898,108.25870056054555 79.75915974238887,99.76300308457576 88.65869980212301,93.24571017175913 94.888377844356,91.5 88.65869980212301,93.24571017175913 79.75915974238887,99.76300308457576 75.30938971228898,108.25870056054555 75.11162215517834,118.5 75.30938971228898,108.25870056054555 79.75915974238887,99.76300308457576 88.65869980212301,93.24571017175913 94.888377844356,91.5 88.65869980212301,93.24571017175913 79.75915974238887,99.76300308457576 75.30938971228898,108.25870056054555 75.11162215517834,118.5 75.30938971228898,108.25870056054555 79.75915974238887,99.76300308457576 88.65869980212301,93.24571017175913 94.888377844356,91.5 88.65869980212301,93.24571017175913 79.75915974238887,99.76300308457576 75.30938971228898,108.25870056054555 75.11162215517834,118.5 75.30938971228898,108.25870056054555 79.75915974238887,99.76300308457576 88.65869980212301,93.24571017175913 94.888377844356,91.5 88.65869980212301,93.24571017175913 79.75915974238887,99.76300308457576 75.30938971228898,108.25870056054555 75.11162215517834,118.5 75.30938971228898,108.25870056054555 79.75915974238887,99.76300308457576 88.65869980212301,93.24571017175913 94.888377844356,91.5 88.65869980212301,93.24571017175913 79.75915974238887,99.76300308457576 75.30938971228898,108.25870056054555 75.11162215517834,118.5 75.30938971228898,108.25870056054555 79.75915974238887,99.76300308457576 88.65869980212301,93.24571017175913 94.888377844356,91.5 88.65869980212301,93.24571017175913 79.75915974238887,99.76300308457576 75.30938971228898,108.25870056054555 75.11162215517834,118.5 75.30938971228898,108.25870056054555 79.75915974238887,99.76300308457576 88.65869980212301,93.24571017175913 94.888377844356,91.5 88.65869980212301,93.24571017175913 79.75915974238887,99.76300308457576 75.30938971228898,108.25870056054555 75.11162215517834,118.5 75.30938971228898,108.25870056054555 79.75915974238887,99.76300308457576 88.65869980212301,93.24571017175913 94.888377844356,91.5 88.65869980212301,93.24571017175913 79.75915974238887,99.76300308457576" stroke="#4dd2ff" stroke-dasharray="1,0.5" stroke-linecap="round" stroke-linejoin="round" stroke-width="0.5"><title>2026-06-04 19.5km</title><desc>1780570902000</desc></polyline><polyline fill="none" opacity="0.5" points="116.88249311875552,91.67724724649452 121.80207513598725,93.62696315604262 124.86426394223236,97.11280150373932 126.16945917136036,100.12596585322171 126.01885972172022,106.09316377597861 123.91046742885374,110.16972680547042 120.59727953979746,113.1828190293163 124.11126669473015,109.93340514291776 120.54707972356118,113.24189910257701 120.24588082451373,118.08644333877601 110.65771587286144,118.5 109.9047186251264,113.77361947420286 105.23613569070585,109.10627851757454 103.83054082840681,105.20695039018756 103.93094046134502,100.00780285883229 106.18993220408447,95.69483605015557 110.70791568909772,92.38623565633316 113.87050412874669,91.5 116.88249311875552,91.67724724649452 121.80207513598725,93.62696315604262 124.86426394223236,97.11280150373932 126.16945917136036,100.12596585322171 126.01885972172022,106.09316377597861 123.91046742885374,110.16972680547042 120.59727953979746,113.1828190293163 124.11126669473015,109.93340514291776 120.54707972356118,113.24189910257701 120.24588082451373,118.08644333877601 110.65771587286144,118.5 109.9047186251264,113.77361947420286 105.23613569070585,109.10627851757454 103.83054082840681,105.20695039018756 103.93094046134502,100.00780285883229 106.18993220408447,95.69483605015557 110.70791568909772,92.38623565633316 113.87050412874669,91.5 116.88249311875552,91.67724724649452 121.80207513598725,93.62696315604262 124.86426394223236,97.11280150373932 126.16945917136036,100.12596585322171 126.01885972172022,106.09316377597861 123.91046742885374,110.16972680547042 120.59727953979746,113.1828190293163 124.11126669473015,109.93340514291776 120.54707972356118,113.24189910257701 120.24588082451373,118.08644333877601 110.65771587286144,118.5 109.9047186251264,113.77361947420286 105.23613569070585,109.10627851757454 103.83054082840681,105.20695039018756 103.93094046134502,100.00780285883229 106.18993220408447,95.69483605015557 110.70791568909772,92.38623565633316 113.87050412874669,91.5 116.88249311875552,91.67724724649452 121.80207513598725,93.62696315604262 124.86426394223236,97.11280150373932 126.16945917136036,100.12596585322171 126.01885972172022,106.09316377597861 123.91046742885374,110.16972680547042 120.59727953979746,113.1828190293163 124.11126669473015,109.93340514291776 120.54707972356118,113.24189910257701 120.24588082451373,118.08644333877601 110.65771587286144,118.5 109.9047186251264,113.77361947420286 105.23613569070585,109.10627851757454 103.83054082840681,105.20695039018756 103.93094046134502,100.00780285883229 106.18993220408447,95.69483605015557 110.70791568909772,92.38623565633316 113.87050412874669,91.5 116.88249311875552,91.67724724649452 121.80207513598725,93.62696315604262 124.86426394223236,97.11280150373932 126.16945917136036,100.12596585322171 126.01885972172022,106.09316377597861 123.91046742885374,110.16972680547042 120.59727953979746,113.1828190293163 124.11126669473015,109.93340514291776 120.54707972356118,113.24189910257701 120.24588082451373,118.08644333877601 110.65771587286144,118.5 109.9047186251264,113.77361947420286 105.23613569070585,109.10627851757454 103.83054082840681,105.20695039018756 103.93094046134502,100.00780285883229 106.18993220408447,95.69483605015557 110.70791568909772,92.38623565633316 113.87050412874669,91.5 116.88249311875552,91.67724724649452 121.80207513598725,93.62696315604262 124.86426394223236,97.11280150373932 126.16945917136036,100.12596585322171 126.01885972172022,106.09316377597861 123.91046742885374,110.16972680547042 120.59727953979746,113.1828190293163 124.11126669473015,109.93340514291776 120.54707972356118,113.24189910257701 120.24588082451373,118.08644333877601 110.65771587286144,118.5 109.9047186251264,113.77361947420286 105.23613569070585,109.10627851757454 103.83054082840681,105.20695039018756 103.93094046134502,100.00780285883229 106.18993220408447,95.69483605015557 110.70791568909772,92.38623565633316 113.87050412874669,91.5 116.88249311875552,91.67724724649452 121.80207513598725,93.62696315604262 124.86426394223236,97.11280150373932 126.16945917136036,100.12596585322171 126.01885972172022,106.09316377597861 123.91046742885374,110.16972680547042 120.59727953979746,113.1828190293163 124.11126669473015,109.93340514291776 120.54707972356118,113.24189910257701 120.24588082451373,118.08644333877601 110.65771587286144,118.5 109.9047186251264,113.77361947420286 105.23613569070585,109.10627851757454 103.83054082840681,105.20695039018756 103.93094046134502,100.00780285883229 106.18993220408447,95.69483605015557 110.70791568909772,92.38623565633316 113.87050412874669,91.5 116.88249311875552,91.67724724649452 121.80207513598725,93.62696315604262 124.86426394223236,97.11280150373932 126.16945917136036,100.12596585322171 126.01885972172022,106.09316377597861 123.91046742885374,110.16972680547042 120.59727953979746,113.1828190293163 124.11126669473015,109.93340514291776 120.54707972356118,113.24189910257701 120.24588082451373,118.08644333877601 110.65771587286144,118.5 109.9047186251264,113.77361947420286 105.23613569070585,109.10627851757454 103.83054082840681,105.20695039018756 103.93094046134502,100.00780285883229 106.18993220408447,95.69483605015557 110.70791568909772,92.38623565633316 113.87050412874669,91.5 116.88249311875552,91.67724724649452 121.80207513598725,93.62696315604262 124.86426394223236,97.11280150373932 126.16945917136036,100.12596585322171 126.01885972172022,106.09316377597861 123.91046742885374,110.16972680547042 120.59727953979746,113.1828190293163 124.11126669473015,109.93340514291776 120.54707972356118,113.24189910257701 120.24588082451373,118.08644333877601 110.65771587286144,118.5 109.9047186251264,113.77361947420286 105.23613569070585,109.10627851757454" stroke="#4dd2ff" stroke-dasharray="1,0.5" stroke-linecap="round" stroke-linejoin="round" stroke-width="0.5"><title>2026-06-02 16.9km</title><desc>1780401150000</desc></polyline><polyline fill="none" opacity="0.5" points="152.06979358842364,106.06516040393035 154.73046859481838,107.60391071205959 157.01104717166163,107.90808058834227 157.2543088864768,108.1764653082937 157.54318217292894,117.12237321412249 157.36073588678846,117.64122101406974 153.71181016374612,118.32108807926124 148.54249872278888,118.4821088166791 145.4561157153803,118.26741446528467 139.1313111288473,117.33706905305735 133.12578754295828,117.408634270716 132.62406025605742,117.1581558733451 132.45681782707106,108.73112568142824 133.23221454321174,108.5164186610782 145.41050414391793,108.15857300722564 148.92259515234036,106.29776311405294 148.74014886614168,98.4069806184707 147.2349670053809,96.72499639309535 146.79405514721293,94.47039493142802 147.72149043512763,92.53785490211158 148.9530028666486,91.69683505149442 149.83482658310095,91.5 151.02072744298493,91.57157640949299 152.20662830304354,92.03682231523271 152.73876330436906,92.4483849087701 153.51416002045153,93.84411128693318 153.696606306592,95.311400662089 153.40773302013986,96.43869950031512 151.88734730222495,98.29962043486012 152.06979358842364,106.08305293168814 154.70006088039372,107.56812598396209 157.29992045811377,108.12278839915234 157.5127744586207,117.21182984759798 157.29992045811377,117.71278610000445 154.2287413078593,118.28530567191774 149.57636101101525,118.5 145.18244628619868,118.24952325675986 139.16171884321375,117.37285166572838 132.6696718276362,117.33706905305735 139.16171884321375,117.37285166572838 145.18244628619868,118.24952325675986 149.57636101101525,118.5 154.2287413078593,118.28530567191774 157.29992045811377,117.71278610000445 157.5127744586207,117.21182984759798 157.29992045811377,108.12278839915234 154.70006088039372,107.56812598396209 152.06979358842364,106.08305293168814 151.88734730222495,98.29962043486012 153.40773302013986,96.43869950031512 153.696606306592,95.311400662089 153.51416002045153,93.84411128693318 152.73876330436906,92.4483849087701 152.20662830304354,92.03682231523271 151.02072744298493,91.57157640949299 149.83482658310095,91.5 148.9530028666486,91.69683505149442 147.72149043512763,92.53785490211158 146.79405514721293,94.47039493142802 147.2349670053809,96.72499639309535 148.74014886614168,98.4069806184707 148.92259515234036,106.29776311405294 145.41050414391793,108.15857300722564 133.23221454321174,108.5164186610782 132.45681782707106,108.73112568142824 132.62406025605742,117.1581558733451" stroke="#4dd2ff" stroke-dasharray="1,0.5" stroke-linecap="round" stroke-linejoin="round" stroke-width="0.5"><title>2026-05-28 19.4km</title><desc>1779966212000</desc></polyline><polyline fill="none" opacity="1" points="182.07448139745975,106.07481820927933 184.73692063306225,107.61458882549778 187.01901140640257,107.91896038946288 187.2624344221549,108.18752306883107 187.55149925348815,117.13936278967594 187.36893199163023,117.65855462505715 183.71758675423916,118.33887249363761 178.54484766797395,118.5 175.456418154703,118.28516328998376 169.12741974333767,117.35420098822215 163.11791404010728,117.42581365905062 162.61585406993981,117.17516917551984 162.44850074657006,108.74255122384056 163.2244116095244,108.52770183645771 175.41077633929672,108.1696189038048 178.92519613023615,106.30757515263394 178.74262886837823,98.41156047015102 177.23644895793404,96.72846096173453 176.79524474177742,94.47236452841025 177.72329498961335,92.53854307856818 178.95562400721246,91.6969655680441 179.8380324395839,91.5 181.02471964166034,91.57162387006974 182.21140684385318,92.03717826910724 182.74389469099697,92.44901375983318 183.5198055539513,93.84566561039537 183.702372815751,95.31392790960672" stroke="#ffe200" stroke-dasharray="none" stroke-linecap="round" stroke-linejoin="round" stroke-width="0.5"><title>2026-05-27 20.2km</title><desc>1779879632000</desc></polyline><polyline fill="none" opacity="0.5" points="28.84319279936608,129.94347816277877 29.052549605548847,132.5643853978545 29.994655233458616,134.65756287002296 33.194823556696065,138.7558912151726 34.15188324212795,141.3063009618636 34.63041308481479,144.1380884071841 27.138430234685075,147.19847409968497 24.581286387634464,148.5 22.562488613591995,145.70346528981463 19.392228405515198,142.69581772851234 17.747282071155496,140.74345535122848 16.565911521960516,138.57999941456364 15.728484297171235,136.18785205177846 15.324724742386024,132.86341239951435 15.534081548568793,130.4887710653129 16.192060082394164,127.55120383504254 17.373430631589144,125.21166624678881 18.345444374601357,124.06827097707719 20.678277357888874,122.3619584779808 23.399915838439483,121.5 26.226232721935958,121.55277309930534 28.30484672629973,122.8017314523313 29.0824577207095,123.76922781179019 29.471263217914384,124.73671841810574 29.62080379377585,126.23191985757148 28.84319279936608,130.06660897789698 29.0824577207095,132.77546333838836 30.02456334856106,134.69274209321884 31.69941779813962,136.6627664580883 33.135007326258346,138.8438370442018 34.03225078136893,140.93693374945724 34.67527525755577,143.9797910302732 24.506516099674627,148.41205938864732 22.457810210471507,145.59793473726313 18.450122777663637,141.62290076234785 16.326646600675303,138.06991211762943 15.57894372130977,135.30837726914615 15.354632857546676,132.42366661869164 16.01261139131384,128.06132410521968 17.014533249486703,125.73938443041698 18.494984950404614,123.94513562263455 20.55864489718806,122.44991316793312 22.891477880533785,121.60554618145397 25.972013743012212,121.5 27.916041229094844,122.44991316793312 29.261906411731616,124.2089969823719 29.62080379377585,126.31987245555501 28.828238741727546,130.13696940189402 29.62080379377585,126.31987245555501 29.261906411731616,124.2089969823719 27.916041229094844,122.44991316793312 25.972013743012212,121.5 22.891477880533785,121.60554618145397 20.55864489718806,122.44991316793312 18.494984950404614,123.94513562263455 17.014533249486703,125.73938443041698 16.01261139131384,128.06132410521968 15.354632857546676,132.42366661869164 15.57894372130977,135.30837726914615 16.326646600675303,138.06991211762943 18.450122777663637,141.62290076234785 22.457810210471507,145.59793473726313 24.506516099674627,148.41205938864732 34.67527525755577,143.9797910302732 34.03225078136893,140.93693374945724 33.135007326258346,138.8438370442018 31.69941779813962,136.6627664580883 30.02456334856106,134.69274209321884 29.0824577207095,132.77546333838836" stroke="#4dd2ff" stroke-dasharray="1,0.5" stroke-linecap="round" stroke-linejoin="round" stroke-width="0.5"><title>2026-05-26 19.0km</title><desc>1779792854000</desc></polyline><polyline fill="none" opacity="1" points="58.84319279936608,129.94347816277877 59.05254960554885,132.5643853978545 59.994655233458616,134.65756287002296 63.194823556696065,138.7558912151726 64.15188324212795,141.3063009618636 64.63041308481479,144.1380884071841 57.138430234685075,147.19847409968497 54.581286387634464,148.5 52.562488613591995,145.70346528981463 49.3922284055152,142.69581772851234 47.747282071155496,140.74345535122848 46.565911521960516,138.57999941456364 45.728484297171235,136.18785205177846 45.324724742386024,132.86341239951435 45.53408154856879,130.4887710653129 46.192060082394164,127.55120383504254 47.373430631589144,125.21166624678881 48.34544437460136,124.06827097707719 50.678277357888874,122.3619584779808 53.39991583843948,121.5 56.22623272193596,121.55277309930534 58.30484672629973,122.8017314523313 59.0824577207095,123.76922781179019 59.471263217914384,124.73671841810574 59.62080379377585,126.23191985757148 58.84319279936608,130.06660897789698 59.0824577207095,132.77546333838836 60.02456334856106,134.69274209321884 61.69941779813962,136.6627664580883 63.135007326258346,138.8438370442018 64.03225078136893,140.93693374945724 64.67527525755577,143.9797910302732 54.50651609967463,148.41205938864732" stroke="#ffda00" stroke-dasharray="none" stroke-linecap="round" stroke-linejoin="round" stroke-width="0.5"><title>2026-05-24 23.2km</title><desc>1779623970000</desc></polyline><polyline fill="none" opacity="1" points="71.5,143.97000398185628 72.08004494381021,143.8645782108233 72.76930337077647,143.8617288598507 77.63051685392566,144.2606350200167 78.39986516852514,144.2606350200167 79.21775280898146,144.1210185459404 80.17640449437022,143.81898855852342 80.75159550560056,143.70216471702952 85.85307865166396,143.34029248113438 86.39914606741513,143.21776769256758 87.0738426966127,142.93852303745734 87.5082696629106,142.66782388332285 88.01793258426187,142.23184996713826 88.90620224717713,141.20030145884994 89.73379775280773,140.36534470837069 90.57595505616337,139.38787048435734 90.97883146067034,138.7665999254732 91.55402247190068,137.46131438019802 91.8137078651489,137.08795670058316 92.10737078651437,136.85424921892627 94.04166292132868,135.70278228887037 94.4275505617843,135.34365118654023 94.56346067413688,135.11562891466747 94.67267415729293,134.8077957373862 94.92022471908422,133.838667955235 95.077977528068,132.91796375074955 95.18233707862964,132.54739266284014 95.44444943818962,131.8233388200224 95.93712359548954,130.7799823598143 95.92984269661247,130.72581792498204 96.26961797750846,130.08438856961038 96.47591011234908,129.7907512850852 97.28408988761657,128.90696895299516 97.61415730335284,128.46506673450494 97.93694382021204,127.81502943365558 98.31555056177604,126.73159849450167 98.35195505616139,126.7059377509886 98.5,126.76581278050617 98.34467415728432,126.60899694013278 98.27671910110803,126.66316978992654 97.79860674156225,128.00034871019488 97.70638202245755,127.97183813662741 97.61415730335284,127.80362512815009 97.7622022471769,128.05166766532238 97.66755056178954,128.22273013130325 97.61415730335284,128.2426873470704 96.73559550561185,127.85209339264657 95.11923595504777,127.39876910281964 94.54647191010008,127.30183082676376 91.60256179774296,127.1763807665975 88.352853932578,126.87700890492852 86.01568539325672,126.87700890492852 85.12984269662411,126.82853885679287 84.10808988762437,126.66316978992654 81.28552808988024,125.96176537815154 80.50647191010648,125.81349865348056 79.53325842694903,125.73936497998147 77.81253932583786,125.82490381561001" stroke="red" stroke-dasharray="none" stroke-linecap="round" stroke-linejoin="round" stroke-width="0.5"><title>2026-05-23 52.6km</title><desc>1779516240000</desc></polyline><polyline fill="none" opacity="1" points="116.99038638820639,124.09290687530302 117.79565721692052,122.62657833528647 118.72247835953021,121.8934091811825 119.71007465897128,121.51788225583732 121.22945358121069,121.58941125984711 122.90077039564494,122.519285491755 123.7820101705147,124.27172653799062 123.66045985679375,126.09567603375763 123.06790207716404,127.22222300864814 122.17146851302823,127.99113160936395 121.97394925309345,128.61698480357882 122.15627472382039,135.93035058034002 122.35379398363875,136.28796407154005 125.25580772513058,137.75417128806293 127.3677444269997,138.1117808293493 127.5044885299867,147.55239263481053 125.07348225446185,148.17817169321643 119.36061750684166,148.5 115.25829441682436,148.23180978793243 109.08961599256145,147.31995980915963 103.05768167140195,147.40935708850157 102.78419346536975,147.17692406159767 102.4955114700715,140.632906119572 102.6626431515906,138.61243288610422 115.12155031383736,138.2369439858303 116.53457271150546,137.8435737459513 119.01116035477025,136.27008341533656 118.79844730562763,128.42028834101802 117.32464975106996,126.79306316272414 116.89922365284292,124.55783759537735 117.339843540336,123.23456979829643 118.31224605056923,122.16164217627374 119.29984234995209,121.64305799250724 120.3026324386592,121.5 122.41456914058654,122.14375999012555 123.63007227837807,123.71738495325553 123.70604122447548,125.91685834669624 123.15906481235288,127.0434065417212 122.04991819919087,128.16994704978424" stroke="#ffdd00" stroke-dasharray="none" stroke-linecap="round" stroke-linejoin="round" stroke-width="0.5"><title>2026-05-17 22.3km</title><desc>1779013233000</desc></polyline><polyline fill="none" opacity="1" points="131.97213114754413,125.51465545027168 131.52360655739903,126.97095531754167 131.5826229508093,127.24140738092683 132.73934426231426,128.8918338185831 136.09147540983395,129.54367126389116 137.11836065573152,130.39659753083106 137.32491803276935,131.18710447253397 137.9327868852415,132.63634199952503 138.06852459016955,133.59323694253544 138.87114754098002,136.99079254934622 138.91245901637012,137.60788035873702 139.502622950793,140.6169654391124 139.95114754099632,141.3934807110345 140.3878688524419,141.66387222506455 142.27049180329777,142.31558044166013 144.25344262295403,143.58431263703824 146.17147540982114,143.69523885453964 146.95049180326168,144.3053296376529 147.5642622950836,144.36772496033518 148.55573770491173,144.83222157471755 152.03180327865994,145.248185850367 152.25016393439728,145.08180046228517 152.36819672130514,144.80449052752374 152.76360655738972,143.43178877613536 152.97016393442755,141.65693912350253 152.91114754095906,141.40734697012522 152.5688524590223,141.1716201597228 152.54524590165238,141.06068959759432 152.77540983606013,140.4297683932018 152.94065573767875,140.24257080339885 152.9465573770285,139.23030774696235 153.38918032785296,137.89908828327316 154.18590163931367,136.85905393673602 155.83836065573269,135.77740040406206 157.04819672132726,134.70959640929505 157.81540983606828,133.26040553126222 158.092786885245,133.05931905352918 158.5,133.20493346218427 158.1222950819647,133.05238502585416 157.797704918019,133.27427354106476 157.1544262295065,134.55011767002725 156.44622950820485,135.23656682673754 153.04098360656644,131.44367042940576 150.17868852461106,130.8750634178068 149.95442622949486,130.60462661410565 149.907213114755,129.55060566934117 149.3878688524419,129.44658950933808 144.0468852458871,129.55754007404175 143.1498360655387,128.87796486507432 141.95180327870185,128.51043650905922 141.57409836063744,128.07356045163033 141.0606557377032,126.72130625082355 140.8777049180353,125.34821908252343 139.44360655738274,124.77262332742976 139.0718032786972,124.7379487200451 137.69081967210514,124.94599608435237 135.15311475409544,125.5285251281748 132.2022950819519,125.15404277641937 132.019344262284,125.38982821480022 131.5,127.06804080431903 132.71573770491523,128.89876829420973 136.1268852459034,129.57140888116555 137.106557377032,130.3757945855541 137.28360655737924,131.08309095560253 137.93868852456217,132.71955081976193 138.02721311475034,133.48229332985647 138.84754098358098,136.87292117180186 139.47901639342308,140.5545664842648 139.59704918033094,140.90815976280282 140.0101639344066,141.42814635317336 140.4173770491907,141.65693912350253 142.2527868852485,142.3225134723616 144.25934426230378,143.57044684640277 144.63704918031,143.65364154533017 146.18327868852066,143.6813730878057 146.9622950819612,144.31226245425933 147.42262295080582,144.31919527013815 148.67967213114025,144.87381812310196 151.76032786883297,145.26205127996218" stroke="#ffb800" stroke-dasharray="none" stroke-linecap="round" stroke-linejoin="round" stroke-width="0.5"><title>2026-05-16 35.3km</title><desc>1778887035000</desc></polyline><polyline fill="none" opacity="0.5" points="164.71162299765274,127.658012127853 169.3401349009946,122.80266219680198 172.71089900447987,121.61842396418797 176.33321266784333,121.5 182.21947237080894,123.86847441276768 186.04302568221465,129.9080377164064 186.19395541842096,135.1777982438798 184.53372832247987,139.3817280799267 180.50893536303192,143.52641598810442 180.10645606718026,148.20395459898282 170.59788270061836,148.44079093256732 169.49106463696808,143.40799676964525 165.56689150165766,139.61856823548442 163.50418511009775,134.289639916562 164.00728423008695,129.493560014409 166.37185009359382,125.28955413453514 171.85563050047494,121.85527181596262 178.69777853158303,121.9736957034911 181.96792281093076,123.69083918770775 184.08093911455944,125.88166959478986 186.49581488990225,132.0988432065933 185.087137354305,138.37515627412358 180.60955518716946,143.2895775255747 180.00583624327555,148.02632728155004 170.59788270061836,148.3815818587318 169.59168446087278,143.70404476759722 165.6675113257952,139.7369882746134 163.70542475767434,135.1777982438798 163.9066644059494,129.96724879107205 165.96937079750933,125.58561194490176 170.6985025247559,122.26975530968048 176.735691963695,121.5592119852663 182.4207120188512,124.10532128962222 184.73496797052212,127.0066872027237 186.29457524232566,130.79620316252112 186.04302568221465,136.00674471416278 184.23186885053292,139.67777825822122 180.55924527533352,143.82246392196976 180.15676597948186,148.08553639391903 170.8494322609622,148.5 169.79292410891503,143.88167348958086 165.81844106153585,139.67777825822122 163.60480493400246,134.289639916562 164.40976352570578,128.30933627695777 167.27742850943469,124.28295637993142 173.31461794814095,121.5 178.79839835548773,121.9736957034911 182.62195166689344,124.28295637993142 186.29457524232566,130.55935918481555 186.1436455063522,135.41464022081345 183.93000937858596,140.09224823868135 180.55924527533352,143.40799676964525 180.35800562705845,147.9671181628364 170.74881243659183,148.5 169.39044481283054,143.2895775255747 166.27123026945628,140.44750797189772 163.95697431778535,136.24358633183874 163.50418511009775,131.50673448044108 165.31534194154665,125.88166959478986" stroke="#4dd2ff" stroke-dasharray="1,0.5" stroke-linecap="round" stroke-linejoin="round" stroke-width="0.5"><title>2026-05-12 15.2km</title><desc>1778590468000</desc></polyline><polyline fill="none" opacity="1" points="14.689011738169938,157.67154588626 19.327695944113657,152.8055251199985 22.705868137301877,151.6186842302559 26.33614273299463,151.5 32.235338950995356,153.87367972254287 36.067295468878,159.92651646386366 36.21855691052042,165.20785859663738 34.55468105408363,169.42102761077695 30.521042614243925,173.57482449815143 30.117678770329803,178.262643159891 20.588207956403494,178.5 19.478957385523245,173.45614502415992 15.546159907011315,169.65838828129927 13.478920206660405,164.31774832122028 13.983125011669472,159.51112784439465 16.352887594839558,155.2978826192557 21.84871996892616,151.85605261387536 28.70590531663038,151.97473676723894 31.983236548723653,153.69565410003997 34.100896729389206,155.89129940012936 36.521079793339595,162.12213679228444 35.10930633940734,168.41224361385684 30.62188357533887,173.33746552444063 30.016837809467688,178.08462546236115 20.588207956403494,178.44066079956247 19.57979834638536,173.75284366094274 15.64700086787343,169.77706857782323 13.680602128384635,165.20785859663738 13.882284050574526,159.98585766955512 15.949523750692606,155.5945910901064 20.68904891749844,152.27144703781232 26.739506577141583,151.55934211832937" stroke="#4dd2ff" stroke-dasharray="none" stroke-linecap="round" stroke-linejoin="round" stroke-width="0.5"><title>2026-05-11 15.3km</title><desc>1778503630000</desc></polyline><polyline fill="none" opacity="1" points="45.253687110263854,157.0295210679178 49.152212266111746,153.08827245316934 51.90117231197655,151.91177478566533 55.99962183483876,151.55882498860592 60.5978822754696,152.9117979654111 62.64710703701712,154.4412416195264 65.99584018369205,159.8530845787609 66.39568891772069,163.08839972061105 65.49602926615626,167.50016203528503 60.69784445874393,172.97069753333926 60.39795790845528,177.73531258752337 50.951531569007784,178.5 49.70200427505188,173.5589238757384 45.1037438348867,168.5589796580025 43.60431108251214,163.20604718098184 44.45398964220658,158.50012889504433 47.25293077994138,154.26476757170167 53.650510523235425,151.5 59.248392798472196,152.32354925922118 63.34684232133441,155.08831263816683 65.34608599101193,158.14718337962404 66.3457078258507,162.02957143238746 65.04619944049045,168.38251019758172 60.44793900032528,173.44127865834162" stroke="#4dd2ff" stroke-dasharray="none" stroke-linecap="round" stroke-linejoin="round" stroke-width="0.5"><title>2026-05-10 11.2km</title><desc>1778422578000</desc></polyline><polyline fill="none" opacity="0.5" points="90.5693096416071,151.5 86.36466527637094,152.02090892614797 81.79119245847687,153.58363367349375 78.1029079281725,156.53543877106858 73.3819037284702,165.13033876172267 73.52943510981277,172.42290890100412 76.48006273433566,178.5 73.52943510981277,172.42290890100412 73.3819037284702,165.13033876172267 78.1029079281725,156.53543877106858 81.79119245847687,153.58363367349375 86.36466527637094,152.02090892614797 90.5693096416071,151.5 96.61809627199546,152.8890897175297 90.5693096416071,151.5 86.36466527637094,152.02090892614797 81.79119245847687,153.58363367349375 78.1029079281725,156.53543877106858 73.3819037284702,165.13033876172267 73.52943510981277,172.42290890100412 76.48006273433566,178.5 73.52943510981277,172.42290890100412 73.3819037284702,165.13033876172267 78.1029079281725,156.53543877106858 81.79119245847687,153.58363367349375 86.36466527637094,152.02090892614797 90.5693096416071,151.5 96.61809627199546,152.8890897175297 90.5693096416071,151.5 86.36466527637094,152.02090892614797 81.79119245847687,153.58363367349375 78.1029079281725,156.53543877106858 73.3819037284702,165.13033876172267 73.52943510981277,172.42290890100412 76.48006273433566,178.5 73.52943510981277,172.42290890100412 73.3819037284702,165.13033876172267 78.1029079281725,156.53543877106858 81.79119245847687,153.58363367349375 86.36466527637094,152.02090892614797 90.5693096416071,151.5 96.61809627199546,152.8890897175297 90.5693096416071,151.5 86.36466527637094,152.02090892614797 81.79119245847687,153.58363367349375 78.1029079281725,156.53543877106858 73.3819037284702,165.13033876172267 73.52943510981277,172.42290890100412 76.48006273433566,178.5 73.52943510981277,172.42290890100412 73.3819037284702,165.13033876172267 78.1029079281725,156.53543877106858 81.79119245847687,153.58363367349375 86.36466527637094,152.02090892614797 90.5693096416071,151.5 96.61809627199546,152.8890897175297 90.5693096416071,151.5 86.36466527637094,152.02090892614797 81.79119245847687,153.58363367349375 78.1029079281725,156.53543877106858 73.3819037284702,165.13033876172267 73.52943510981277,172.42290890100412 76.48006273433566,178.5 73.52943510981277,172.42290890100412 73.3819037284702,165.13033876172267 78.1029079281725,156.53543877106858 81.79119245847687,153.58363367349375 86.36466527637094,152.02090892614797 90.5693096416071,151.5 96.61809627199546,152.8890897175297 90.5693096416071,151.5 86.36466527637094,152.02090892614797 81.79119245847687,153.58363367349375 78.1029079281725,156.53543877106858 73.3819037284702,165.13033876172267 73.52943510981277,172.42290890100412 76.48006273433566,178.5 73.52943510981277,172.42290890100412 73.3819037284702,165.13033876172267 78.1029079281725,156.53543877106858 81.79119245847687,153.58363367349375 86.36466527637094,152.02090892614797 90.5693096416071,151.5 96.61809627199546,152.8890897175297 90.5693096416071,151.5 86.36466527637094,152.02090892614797 81.79119245847687,153.58363367349375 78.1029079281725,156.53543877106858 73.3819037284702,165.13033876172267 73.52943510981277,172.42290890100412 76.48006273433566,178.5 73.52943510981277,172.42290890100412 73.3819037284702,165.13033876172267 78.1029079281725,156.53543877106858 81.79119245847687,153.58363367349375 86.36466527637094,152.02090892614797 90.5693096416071,151.5 96.61809627199546,152.8890897175297" stroke="#4dd2ff" stroke-dasharray="1,0.5" stroke-linecap="round" stroke-linejoin="round" stroke-width="0.5"><title>2026-05-10 11.3km</title><desc>1778397813000</desc></polyline><polyline fill="none" opacity="0.5" points="107.94539342657663,169.0860935592209 112.55588433681987,173.40081890305737 113.1669132525567,178.5 124.27652990398929,178.17313070909586 124.27652990398929,173.00857241923222 124.27652990398929,178.17313070909586 113.1669132525567,178.5 112.55588433681987,173.40081890305737 107.94539342657663,169.0860935592209 105.72347009624355,163.46382940706098 106.05675859586336,158.10301713866647 110.33396100648679,151.5 106.05675859586336,158.10301713866647 105.72347009624355,163.46382940706098 107.94539342657663,169.0860935592209 112.55588433681987,173.40081890305737 113.1669132525567,178.5 124.27652990398929,178.17313070909586 124.27652990398929,173.00857241923222 124.27652990398929,178.17313070909586 113.1669132525567,178.5 112.55588433681987,173.40081890305737 107.94539342657663,169.0860935592209 105.72347009624355,163.46382940706098 106.05675859586336,158.10301713866647 110.33396100648679,151.5 106.05675859586336,158.10301713866647 105.72347009624355,163.46382940706098 107.94539342657663,169.0860935592209 112.55588433681987,173.40081890305737 113.1669132525567,178.5 124.27652990398929,178.17313070909586 124.27652990398929,173.00857241923222 124.27652990398929,178.17313070909586 113.1669132525567,178.5 112.55588433681987,173.40081890305737 107.94539342657663,169.0860935592209 105.72347009624355,163.46382940706098 106.05675859586336,158.10301713866647 110.33396100648679,151.5 106.05675859586336,158.10301713866647 105.72347009624355,163.46382940706098 107.94539342657663,169.0860935592209 112.55588433681987,173.40081890305737 113.1669132525567,178.5 124.27652990398929,178.17313070909586 124.27652990398929,173.00857241923222 124.27652990398929,178.17313070909586 113.1669132525567,178.5 112.55588433681987,173.40081890305737 107.94539342657663,169.0860935592209 105.72347009624355,163.46382940706098 106.05675859586336,158.10301713866647 110.33396100648679,151.5 106.05675859586336,158.10301713866647 105.72347009624355,163.46382940706098 107.94539342657663,169.0860935592209 112.55588433681987,173.40081890305737 113.1669132525567,178.5 124.27652990398929,178.17313070909586 124.27652990398929,173.00857241923222 124.27652990398929,178.17313070909586 113.1669132525567,178.5 112.55588433681987,173.40081890305737 107.94539342657663,169.0860935592209 105.72347009624355,163.46382940706098 106.05675859586336,158.10301713866647 110.33396100648679,151.5 106.05675859586336,158.10301713866647 105.72347009624355,163.46382940706098 107.94539342657663,169.0860935592209 112.55588433681987,173.40081890305737 113.1669132525567,178.5 124.27652990398929,178.17313070909586 124.27652990398929,173.00857241923222 124.27652990398929,178.17313070909586 113.1669132525567,178.5 112.55588433681987,173.40081890305737 107.94539342657663,169.0860935592209 105.72347009624355,163.46382940706098 106.05675859586336,158.10301713866647 110.33396100648679,151.5 106.05675859586336,158.10301713866647 105.72347009624355,163.46382940706098 107.94539342657663,169.0860935592209 112.55588433681987,173.40081890305737 113.1669132525567,178.5 124.27652990398929,178.17313070909586 124.27652990398929,173.00857241923222 124.27652990398929,178.17313070909586 113.1669132525567,178.5 112.55588433681987,173.40081890305737 107.94539342657663,169.0860935592209 105.72347009624355,163.46382940706098 106.05675859586336,158.10301713866647 110.33396100648679,151.5 106.05675859586336,158.10301713866647 105.72347009624355,163.46382940706098 107.94539342657663,169.0860935592209 112.55588433681987,173.40081890305737 113.1669132525567,178.5 124.27652990398929,178.17313070909586 124.27652990398929,173.00857241923222 124.27652990398929,178.17313070909586 113.1669132525567,178.5 112.55588433681987,173.40081890305737 107.94539342657663,169.0860935592209 105.72347009624355,163.46382940706098 106.05675859586336,158.10301713866647 110.33396100648679,151.5 106.05675859586336,158.10301713866647 105.72347009624355,163.46382940706098 107.94539342657663,169.0860935592209 112.55588433681987,173.40081890305737 113.1669132525567,178.5 124.27652990398929,178.17313070909586 124.27652990398929,173.00857241923222 124.27652990398929,178.17313070909586 113.1669132525567,178.5 112.55588433681987,173.40081890305737 107.94539342657663,169.0860935592209 105.72347009624355,163.46382940706098 106.05675859586336,158.10301713866647 110.33396100648679,151.5 106.05675859586336,158.10301713866647 105.72347009624355,163.46382940706098 107.94539342657663,169.0860935592209 112.55588433681987,173.40081890305737 113.1669132525567,178.5 124.27652990398929,178.17313070909586 124.27652990398929,173.00857241923222 124.27652990398929,178.17313070909586 113.1669132525567,178.5 112.55588433681987,173.40081890305737 107.94539342657663,169.0860935592209 105.72347009624355,163.46382940706098 106.05675859586336,158.10301713866647 110.33396100648679,151.5 106.05675859586336,158.10301713866647 105.72347009624355,163.46382940706098" stroke="#ffdf00" stroke-dasharray="1,0.5" stroke-linecap="round" stroke-linejoin="round" stroke-width="0.5"><title>2025-11-09 21.3km</title><desc>1762645227000</desc></polyline><polyline fill="none" opacity="1" points="134.2806944977492,157.8669329113327 138.638542996021,153.09174021077342 144.9499097871594,151.5 150.45983317610808,152.79697385645704 154.41695997375064,157.1594995993073 155.61912507680245,160.04817983444082 155.71930550201796,165.53073485183995 154.0663284852635,169.30364385951543 150.1592919002287,172.8996734144166 149.90884083718993,177.91049465182004 140.24142980016768,178.5 139.28971576015465,173.54813523194753 135.38267917535268,169.89315852941945" stroke="#4dd2ff" stroke-dasharray="none" stroke-linecap="round" stroke-linejoin="round" stroke-width="0.5"><title>2025-11-01 10.0km</title><desc>1761964262000</desc></polyline><polyline fill="none" opacity="1" points="187.94646924803965,153.59954762284178 188.5,159.24555840855464 186.03986332565546,165.5429757036036 181.30410022800788,169.9583708315622 180.50455580861308,176.40045237721642 169.00341685651802,176.40045237721642 168.38838268769905,170.32028717157664 164.02164009097032,166.70111495314632 161.5,162.43046652636258" stroke="#4dd2ff" stroke-dasharray="none" stroke-linecap="round" stroke-linejoin="round" stroke-width="0.5"><title>2025-10-27 10.0km</title><desc>1761565093000</desc></polyline><polyline fill="none" opacity="1" points="15.313664944609627,185.28007922577672 21.176446688827127,181.5 28.415707624983042,181.80000723031117 31.168666009325534,183.0600358225638 33.003971598576754,185.0400749623077 35.756929982919246,190.98014991579112 35.70594927226193,195.06016449740855 34.48241221252829,198.60015280137304 29.79218681715429,203.5200989775476 29.69022539560683,208.08001007605344 19.90192891820334,208.5 19.188198966672644,203.8800933236489 14.243070017313585,198.66015240811976" stroke="#4dd2ff" stroke-dasharray="none" stroke-linecap="round" stroke-linejoin="round" stroke-width="0.5"><title>2025-10-19 10.0km</title><desc>1760866141000</desc></polyline><polyline fill="none" opacity="1" points="68.5,190.14923686650582 66.64823008794338,194.57827416236978 61.80973451305181,199.3587884401204 61.69026548671536,204.91257699241396 51.05752212367952,205.54528406570898 49.68362831836566,205.19378021219745 48.847345132613555,199.4993912682403 44.426991150481626,195.1406894340762 41.679203539853916,189.23530477413442 41.5,184.45471593429102" stroke="#4dd2ff" stroke-dasharray="none" stroke-linecap="round" stroke-linejoin="round" stroke-width="0.5"><title>2025-10-16 10.0km</title><desc>1760611285000</desc></polyline><polyline fill="none" opacity="1" points="98.5,185.60908192646457 89.6855670097284,195.0000437356648 89.22164948424324,203.95413516042754 71.5,204.39091807353543" stroke="#4dd2ff" stroke-dasharray="none" stroke-linecap="round" stroke-linejoin="round" stroke-width="0.5"><title>2025-10-08 10.1km</title><desc>1759919017000</desc></polyline><polyline fill="none" opacity="1" points="103.41118813911453,182.1494945260929 112.95027817459777,181.5 122.0163554805331,186.8815112078446 125.32744458364323,191.42793398420326 126.58881186088547,201.2629700822872 124.14491276117042,208.5" stroke="#4dd2ff" stroke-dasharray="none" stroke-linecap="round" stroke-linejoin="round" stroke-width="0.5"><title>2025-10-01 10.0km</title><desc>1759271073000</desc></polyline><polyline fill="none" opacity="1" points="133.45287400251254,193.8001632015803 133.9117002012208,189.30013517703628 137.07250290270895,184.56006612384226 143.13920486159623,181.5 149.71571370773017,182.22001707943855 153.33534260769375,184.74006948713213 156.29222255409695,190.02014211774804 156.5471259977203,195.12016448780196 154.40593707119115,199.92014264996396 150.63336610491388,203.34010171686532 150.63336610491388,208.02001148939598 150.02159784012474,208.44000145880273 140.4882090475876,208.5 139.8254600937944,203.70009617996402" stroke="#4dd2ff" stroke-dasharray="none" stroke-linecap="round" stroke-linejoin="round" stroke-width="0.5"><title>2025-09-27 10.0km</title><desc>1758965825000</desc></polyline><polyline fill="none" opacity="1" points="164.131740904646,187.88086458528414 169.10152219980955,182.6225649213884 175.82829688256606,181.5 182.7056709981989,183.6860453475383 185.36626098467968,188.5307632710319 185.86825909512118,194.32073556474643 184.21166532998905,199.10627851769095 180.04508101195097,203.3009791696095 179.7438821454998,208.5" stroke="#4dd2ff" stroke-dasharray="none" stroke-linecap="round" stroke-linejoin="round" stroke-width="0.5"><title>2020-04-24 10.0km</title><desc>1587724293000</desc></polyline><polyline fill="none" opacity="1" points="38.5,232.48116708244197 37.71300448407419,226.78127038909588 34.20179372187704,221.0813243035227 26.81614349782467,217.51883291755803 21.609865470789373,218.0175828730571 14.950672645587474,221.1525739346398 11.5,227.77875587600283" stroke="#4dd2ff" stroke-dasharray="none" stroke-linecap="round" stroke-linejoin="round" stroke-width="0.5"><title>2020-04-16 10.0km</title><desc>1587033949000</desc></polyline><polyline fill="none" opacity="1" points="66.88716814201325,235.19395457027713 68.5,229.35885978414444 67.96238938090391,224.92977691395208 65.27433628332801,219.8679309108993 60.734513274626806,216.14182459947187 57.568584070773795,214.80604542978108 52.013274336233735,215.3684790994157 45.56194690265693,217.9697284816648 42.097345132846385,224.50795792142162 41.5,228.86674095783383" stroke="#4dd2ff" stroke-dasharray="none" stroke-linecap="round" stroke-linejoin="round" stroke-width="0.5"><title>2020-04-14 10.0km</title><desc>1586861907000</desc></polyline><polyline fill="none" opacity="1" points="98.5,238.33509859326296 86.44642857182771,217.71774784836452 71.5,211.66490140673704" stroke="#4dd2ff" stroke-dasharray="none" stroke-linecap="round" stroke-linejoin="round" stroke-width="0.5"><title>2020-04-13 10.0km</title><desc>1586775592000</desc></polyline><polyline fill="none" opacity="1" points="110.43751204921864,238.5 119.92336270445958,238.13596371089807 120.69666574709117,233.10010410827817 124.0991991343908,230.0664318955387 125.95512643642724,226.8507214129786 126.5222153342329,221.93610935035395 125.18182339379564,216.83942907484015 122.14016475970857,213.44161646143766 116.8817040703725,211.5 111.36547570000403,211.9854047463159 107.13808573409915,214.41242216835963 105.07594428723678,216.90010411286494 103.47778466599993,221.93610935035395 103.63244527461939,224.84847725898726 105.43681904068217,229.70239012589445 109.87042315118015,233.76750979019562" stroke="#4dd2ff" stroke-dasharray="none" stroke-linecap="round" stroke-linejoin="round" stroke-width="0.5"><title>2020-04-12 10.0km</title><desc>1586649823000</desc></polyline><polyline fill="none" opacity="1" points="149.62484792200848,211.5 154.11905042268336,214.32921739137964 156.57518434734084,219.92610592005076 156.67970068450086,223.67783547774889 154.79840661445633,229.15162593941204 150.51323678833432,233.45681732165394 150.25194594543427,238.5 139.90482856007293,238.5 139.32998870545998,233.27230978908483 135.149335216498,229.7051523742266 133.3202993152663,226.32248240127228" stroke="#4dd2ff" stroke-dasharray="none" stroke-linecap="round" stroke-linejoin="round" stroke-width="0.5"><title>2020-04-08 10.0km</title><desc>1586343893000</desc></polyline><polyline fill="none" opacity="1" points="174.07736046146601,211.5 180.81013547210023,213.55439511185978 183.00452140136622,215.7848724143696 185.5480141832959,221.83059367135866 184.75005566352047,227.17190293432213 182.3561801041942,231.16317658661865 179.71294250758365,233.56966561311856 179.41370806260966,238.44130580691854 169.5389713800978,238.5 169.04024730529636,233.5109708859236 164.4519858167041,229.5197145252023" stroke="#4dd2ff" stroke-dasharray="none" stroke-linecap="round" stroke-linejoin="round" stroke-width="0.5"><title>2020-04-07 10.0km</title><desc>1586257895000</desc></polyline><polyline fill="none" opacity="1" points="23.77546391543001,241.5 27.474062701454386,241.61764997051796 33.421809397870675,245.02948803221807 35.820900502381846,249.38249167997856 35.970843696501106,256.3236955893226 33.671714721480384,260.55896286922507 30.522907646838576,263.55892387620406 30.422945517115295,268.20588958414737 20.9765242934227,268.5 20.226808323524892,263.6177464753273 15.678531437879428,259.61779521690914 14.029156303498894,255.55899103253614 14.129118432756513,250.73544516571565" stroke="#4dd2ff" stroke-dasharray="none" stroke-linecap="round" stroke-linejoin="round" stroke-width="0.5"><title>2020-04-02 10.0km</title><desc>1585825459000</desc></polyline><polyline fill="none" opacity="1" points="44.2540710947942,247.67658900259994 49.15221543284133,242.79414827516302 54.05035977112129,241.5 61.09768989053555,243.38239647180308 64.79628867655993,248.61777734936913 65.74592890543863,254.32369678170653 64.59636441781186,258.6178027992137 59.698220079764724,263.6765690682223 59.64823901490308,268.5 49.85195033857599,268.5 49.0022722389549,263.55892387620406" stroke="#4dd2ff" stroke-dasharray="none" stroke-linecap="round" stroke-linejoin="round" stroke-width="0.5"><title>2020-03-23 10.0km</title><desc>1584960411000</desc></polyline><polyline fill="none" opacity="1" points="86.90672258054838,268.5 82.79062304203399,264.5818629467394 80.00620276574045,260.0937863694271 79.76407926343381,253.04103272932116 82.3063760374207,247.19930073292926 90.23592073656619,241.5" stroke="#4dd2ff" stroke-dasharray="none" stroke-linecap="round" stroke-linejoin="round" stroke-width="0.5"><title>2019-12-13 10.0km</title><desc>1576239112000</desc></polyline><polyline fill="none" opacity="0.5" points="117.4505575094372,260.2773408591747 108.89967598672956,268.5 117.4505575094372,260.2773408591747 121.10032401327044,250.95007318432909 120.57892879843712,241.5 121.10032401327044,250.95007318432909 117.4505575094372,260.2773408591747 108.89967598672956,268.5 117.4505575094372,260.2773408591747 121.10032401327044,250.95007318432909 120.57892879843712,241.5 121.10032401327044,250.95007318432909 117.4505575094372,260.2773408591747 108.89967598672956,268.5 117.4505575094372,260.2773408591747 121.10032401327044,250.95007318432909 120.57892879843712,241.5 121.10032401327044,250.95007318432909 117.4505575094372,260.2773408591747 108.89967598672956,268.5 117.4505575094372,260.2773408591747 121.10032401327044,250.95007318432909 120.57892879843712,241.5 121.10032401327044,250.95007318432909 117.4505575094372,260.2773408591747 108.89967598672956,268.5 117.4505575094372,260.2773408591747 121.10032401327044,250.95007318432909 120.57892879843712,241.5 121.10032401327044,250.95007318432909 117.4505575094372,260.2773408591747 108.89967598672956,268.5 117.4505575094372,260.2773408591747 121.10032401327044,250.95007318432909 120.57892879843712,241.5 121.10032401327044,250.95007318432909 117.4505575094372,260.2773408591747 108.89967598672956,268.5 117.4505575094372,260.2773408591747 121.10032401327044,250.95007318432909 120.57892879843712,241.5 121.10032401327044,250.95007318432909 117.4505575094372,260.2773408591747 108.89967598672956,268.5 117.4505575094372,260.2773408591747 121.10032401327044,250.95007318432909 120.57892879843712,241.5 121.10032401327044,250.95007318432909 117.4505575094372,260.2773408591747 108.89967598672956,268.5 117.4505575094372,260.2773408591747 121.10032401327044,250.95007318432909 120.57892879843712,241.5 121.10032401327044,250.95007318432909 117.4505575094372,260.2773408591747 108.89967598672956,268.5 117.4505575094372,260.2773408591747 121.10032401327044,250.95007318432909 120.57892879843712,241.5 121.10032401327044,250.95007318432909 117.4505575094372,260.2773408591747 108.89967598672956,268.5 117.4505575094372,260.2773408591747 121.10032401327044,250.95007318432909 120.57892879843712,241.5 121.10032401327044,250.95007318432909 117.4505575094372,260.2773408591747" stroke="#4dd2ff" stroke-dasharray="1,0.5" stroke-linecap="round" stroke-linejoin="round" stroke-width="0.5"><title>2019-11-23 10.0km</title><desc>1574497580000</desc></polyline></svg>