<?xml version="1.0" encoding="utf-8" ?>
<svg baseProfile="full" height="300mm" version="1.1" viewBox="0,0,200,300" width="200mm" xmlns="http://www.w3.org/2000/svg" xmlns:ev="http://www.w3.org/2001/xml-events" xmlns:xlink="http://www.w3.org/1999/xlink"><defs /><rect fill="#222222" height="300" width="200" x="0" y="0" /><text fill="#FFFFFF" style="font-size:12px; font-family:Arial; font-weight:bold;" x="10" y="20">Over 10km Runs</text><text fill="#FFFFFF" style="font-size:4px; font-family:Arial" x="10" y="280">Runner</text><text fill="#FFFFFF" style="font-size:9px; font-family:Arial" x="10" y="290">Floyd Li</text><text fill="#FFFFFF" style="font-size:4px; font-family:Arial" x="65" y="280">SPECIAL TRACKS</text><rect fill="yellow" height="2.6" width="2.6" x="65" y="283" /><text fill="#FFFFFF" style="font-size:3px; font-family:Arial" x="70" y="285.5">Over 20.0 km</text><rect fill="red" height="2.6" width="2.6" x="65" y="287" /><text fill="#FFFFFF" style="font-size:3px; font-family:Arial" x="70" y="289.5">Over 40.0 km</text><text fill="#FFFFFF" style="font-size:4px; font-family:Arial" x="120" y="280">STATISTICS</text><text fill="#FFFFFF" style="font-size:3px; font-family:Arial" x="120" y="285">Number: 19</text><text fill="#FFFFFF" style="font-size:3px; font-family:Arial" x="120" y="290">Weekly: 1.5</text><text fill="#FFFFFF" style="font-size:3px; font-family:Arial" x="141" y="285">Total: 201.6 km</text><text fill="#FFFFFF" style="font-size:3px; font-family:Arial" x="141" y="290">Avg: 10.6 km</text><text fill="#FFFFFF" style="font-size:3px; font-family:Arial" x="167" y="285">Min: 10.0 km</text><text fill="#FFFFFF" style="font-size:3px; font-family:Arial" x="167" y="290">Max: 21.3 km</text><polyline fill="none" points="32.16414333872672,32.25 36.91974751881207,37.039224034324434 37.27610247395933,37.16534483552823 37.329713396393345,37.328559301957284 37.288716808645404,37.64756715407202 37.550464253581595,37.91093186708531 37.578846506628906,38.166875919261656 36.090355012594955,38.38572511668099 35.21996591864445,38.244771556281194 34.84784304513596,38.23364361895074 29.284921444545034,38.222515678029595 28.370382179156877,38.18171319708563 27.764894113774062,38.192841151245375 27.632443599490216,38.241062244233035 27.604061346428352,42.00209878056921 27.481071583155426,42.3581518923711 27.51891458724276,44.531479366683925 27.449535746403853,54.07246557948747 27.490532334166346,57.246026817065285 27.42115349335654,70.23751881382486 27.45268933007901,71.6383052913443 27.62929001581506,71.75688777159667 31.23698973863793,71.79765040479106 31.296907828436815,71.85323573585993 31.30321499578713,71.94958343034159 31.167610897813574,72.75 31.32213649782352,71.96811180219083 31.24960407333856,70.84156865421392 31.287447077425895,70.28198910239007 31.495583599884412,69.47039728755408 32.99038226126868,66.47586547739047 33.753549510322046,65.2638954480899 34.264430065464694,64.59673775542979 34.176129722603946,64.51148889543765 33.89230719198531,64.87101526250626 32.99984301229415,66.34985223449257 32.839010244919336,66.35726479096775 32.64033447347174,66.24236998599372 32.536266212235205,66.09411805756827 32.51734471019881,65.89768326804915 32.514191126523656,63.52555194095112" stroke="yellow" stroke-linecap="round" stroke-linejoin="round" stroke-width="0.5"><title>2025-11-09 21.3km</title><desc>1762645227000</desc></polyline><polyline fill="none" points="67.75864832755178,35.500616942183115 74.99934650538489,32.33785468322458 84.40478949947283,33.655673789966386 88.65963275870308,36.29130557947792 91.72013405011967,40.06902954215184 94.63134259590879,47.53657165344339 92.24265866121277,58.07886700122617 85.37519234837964,65.45839221717324 85.44983872119337,71.6957956989645 70.81914961943403,72.57429937826237 69.40086853317916,65.19483890139963 63.429158695507795,59.30879253317835 60.36865740409121,51.75350623537088 60.81653564190492,44.900976405944675 64.62350066332147,37.87268054217566 72.08813796006143,33.128546404244844 81.34428820759058,32.60141867591301 88.51034001307562,36.02774278621655 94.10881798574701,44.637416410201695 93.81023249356076,54.47693150117993 90.45114570995793,60.45086457114667 85.74842421291396,64.75558318459662 85.37519234837964,71.95934690278955 71.41632060334086,72.57429937826237 69.4755149059929,65.01913664321182 61.56299937143922,55.882566770073026 60.44330377690494,48.76651317119831 62.01087760925293,42.00181174190948 68.05723381973803,35.061345143651124 77.23873769491911,32.25 85.97236333228648,34.18280083313584 89.6300356076099,37.43341002857778 93.5862933746539,43.75888247229159 94.40740347700194,48.76651317119831 93.73558612028137,53.86196530482266 91.64548767730594,58.95738542836625 85.5991314672865,64.93128549994435 85.37519234837964,71.78364610957215 73.73035816522315,72.75 70.66985687380657,72.31074837426422 69.84874677052721,65.63409438036615 63.802390560507774,59.66019948525354 61.63764574425295,55.882566770073026 60.51795015018433,48.502954431343824 62.160170355346054,41.82610445970204 68.6544048031792,34.70992753357859 78.05984779726714,32.33785468322458 86.27094882400706,34.27065530716209 92.16801228839904,40.77185996581102 93.95952523965389,45.07668302214006 94.10881798574701,53.24699864239665 91.64548767730594,58.86953362857457 85.82307058619335,64.22847601026297 85.44983872119337,71.6957956989645 71.04308873834088,72.57429937826237 69.62480765208602,65.19483890139963 63.802390560507774,59.74805119942175 60.89118201471865,52.63203151372727 60.74188926862553,45.603802642493974 64.17562242504209,38.57551286939997 70.59521050052717,33.655673789966386 79.5527752568014,32.51356402144302 85.97236333228648,34.358509771409445 92.83982964511961,41.73825080413371 94.3327571041882,47.3608655698481 93.51164700184017,55.00404501229059 90.60043845605105,60.099457961390726 85.5991314672865,64.8434343469562 85.30054597510025,71.78364610957215 81.12034908914939,72.57429937826237 70.7445032466203,72.48644905304536 69.69945402489975,65.19483890139963 64.17562242504209,60.1873096281779 61.861584863159806,56.14612311183009 60.74188926862553,45.51594939624192 66.26572086848319,36.46701406099601 74.32752914866433,32.60141867591301 84.55408224556595,33.83138284238521 91.64548767730594,39.98117569630267 94.25811073137447,47.18515944847604 93.66093974746764,54.56478377705207 90.3764993371442,60.53871619980782 85.74842421291396,64.57988083147211 85.44983872119337,71.78364610957215 80.82176359696314,72.48644905304536 70.66985687380657,72.31074837426422 69.77410039817914,65.28269001637818 64.02632967941463,60.099457961390726 60.965828387998044,53.86196530482266 61.48835299862549,43.231761652743444 67.16147734411061,35.764179906924255 73.80500453803688,32.68927332101157 82.24004468368366,32.952837199380156 87.46529079135507,35.32490825105924 91.27225581277162,39.45405242173001 94.3327571041882,47.009453288977966 93.51164700184017,55.09189723111922 90.60043845605105,60.1873096281779 85.67377784010023,64.49202964012511 85.37519234837964,71.6957956989645 80.89640997024253,72.39859871834051" stroke="#4DD2FF" stroke-linecap="round" stroke-linejoin="round" stroke-width="0.5"><title>2025-11-01 10.0km</title><desc>1761964262000</desc></polyline><polyline fill="none" points="137.94797821855173,42.63932286173804 139.21972460951656,48.362198225571774 138.84568155370653,53.73285999544896 135.2548682144843,60.864339633903 130.6167343184352,64.73820358410012 129.79383959434927,72.30979345581727 115.58020346099511,72.75 114.45807429263368,65.53058257250814 107.87491650460288,59.015443512937054 105.10699788900092,51.35568621207494 105.78027539001778,43.695856730802916 109.22147150663659,38.23708362481557 113.56037095794454,34.62722965958528 121.78931819321588,32.25 128.5220932038501,33.48263846914051 132.63656682148576,35.6837739427574 138.09759544115514,43.255634452274535 139.1449159984477,51.09155536291655 136.8258490501903,58.66327234666096 130.2426912621595,65.2664563288563 129.8686482058838,72.30979345581727 115.28096901578829,72.4858761021751 114.15883984789252,65.1784142286051 108.69781122775748,60.5121692683897 106.37874427996576,56.198069909296464 105.40623233420774,46.16109708492877 109.81994039658457,37.79685838986188 117.37561013037339,33.21850181167247 125.90379181085154,32.95436506840633 133.6838873787783,36.916407204582356 138.172404052224,43.695856730802916 139.21972460951656,51.35568621207494 136.8258490501903,58.57522953127045 130.3923084847629,64.6501614265726 129.71903098374605,72.39783478394384 115.35577762732282,72.5739174108603 114.45807429263368,65.2664563288563 106.82759594731033,57.34262911364203 105.03218927793205,49.1545931774308 105.85508400108665,44.04803438199451 108.39857678348199,39.55775789933978 114.7573087378405,34.09895700274501 123.88395930733532,32.42609132442158 133.08541848883033,36.47618125437293 138.47163849743083,44.840433539066 139.1449159984477,51.70786054478958 136.15257154917344,59.36761452682549 130.3923084847629,64.73820358410012 129.41979653853923,72.5739174108603 115.43058623885736,72.5739174108603 114.68250012630597,65.1784142286051 109.37108872877434,60.77629705693107 106.30393566843122,55.5817681318149 105.48104094481096,45.368699214828666 110.64283511973917,36.82836203352781 118.19850485445932,32.86631946847774 127.77400709176436,33.30654737353325 134.88082515867427,38.50121865153778 138.62125572003424,46.24914124485804 138.84568155370653,52.588295708585065 136.60142321651801,58.83935794897843 130.31749987322837,65.09037211898249 130.01826542802155,72.04566941503435 129.0457534827292,72.4858761021751 115.35577762732282,72.5739174108603 114.15883984789252,65.09037211898249 109.07185428449884,60.77629705693107 106.30393566843122,55.84589752188185 105.48104094481096,45.63283192412928 110.49321789760143,37.09249751799507 118.79697374394163,32.86631946847774 128.67171042598784,33.570684002595954 134.80601654713973,38.14903859695187 138.69606433110312,46.16109708492877 138.77087294263765,53.5567732869531 135.62891127076,60.248041394283064 130.46711709583178,65.00232999963919 129.71903098374605,72.30979345581727 115.35577762732282,72.5739174108603 114.53288290416822,65.4425405007787 109.29628011770546,60.60021187411621 106.30393566843122,55.84589752188185 105.7054667789489,45.104566419962794 110.26879206392914,37.53272313444177 119.39544263388962,32.60218261054251 128.97094487119466,33.39459292613901 135.1052509918809,38.23708362481557 138.77087294263765,46.07305291516241 138.69606433110312,53.64481664588675 136.4518059939146,59.10348628112115 130.31749987322837,65.2664563288563 130.6167343184352,71.7815452881041 131.2900118189864,65.6186246345751 137.199892106466,59.455657256708946 139.81819349946454,53.38068654021481 139.96781072206795,46.77740600518882 137.72355238487944,40.43820622365456" stroke="#4DD2FF" stroke-linecap="round" stroke-linejoin="round" stroke-width="0.5"><title>2025-10-27 10.0km</title><desc>1761565093000</desc></polyline><polyline fill="none" points="158.82379464944825,35.69688878051238 161.89890540624037,33.7149295565323 165.92583615984768,33.025551277794875 175.37081919936463,34.57665156503208 181.66747455950826,41.211879764683545 184.0104160886258,48.019394037895836 183.42468070611358,54.48217014234979 181.66747455950826,58.96299742272822 175.29760227631778,65.33951581123983 175.29760227631778,71.80215122085065 160.94708541035652,72.40532784728566 159.9220484914258,65.33951581123983 153.99147774558514,59.73852265952155 151.0628008339554,53.44812949374318 150.9895839113742,46.03746551356744 154.57721312809736,38.71290421200683 162.99715924821794,33.542585042945575 173.46717920713127,33.88727403280791 176.90837457822636,35.69688878051238 180.86208840832114,40.00547875382472 184.08363301120698,48.10556473134784 182.10677609592676,57.84279296855675 175.37081919936463,65.081009303045 175.15116843115538,71.80215122085065 160.80065156472847,72.40532784728566 159.84883156837896,65.33951581123983 154.8700808188878,60.94489374704426 151.28245160263032,54.22366010630503 151.20923467958346,45.2619269209099 154.28434543684125,39.488449189346284 162.11855617491528,34.05961847206345 170.39206844987348,33.45641277224058 176.24942227313295,35.61071674292907 179.25131610687822,38.10970204061596 184.08363301120698,46.81300335022388 183.93719916557893,52.586427926435135 182.25320994155481,57.92896259803092 175.37081919936463,65.081009303045 175.15116843115538,71.88831933826441 161.31317002419382,72.57766394212376 159.7023977227509,65.42568462877534 154.65043005067855,60.94489374704426 150.91636698832735,52.32791727426229 151.50210237083957,44.91724285943201 154.5039962050505,39.143762626103126 162.92394232563674,33.7149295565323 173.3207453615032,34.14579067757586 177.27445919206366,35.955404836975504 179.9102684124373,38.79907591332449 183.86398224253207,47.330028154712636 183.79076532041654,53.18961912143277 182.03355917334557,58.27364102227148 175.29760227631778,65.33951581123983 175.15116843115538,71.88831933826441 161.0935192555189,72.49149589933222 160.0684823365882,65.85652857588138 152.96644082618877,58.35981060494669 150.84315006574616,52.41408750117989 151.94140390725806,42.762964090448804 154.43077928200364,39.22993428079644 163.143593093846,33.7149295565323 170.83136998675764,33.62875730439555 178.51914687966928,37.33415571920341 183.6443314747885,45.77895273338072 183.86398224253207,53.0172788266791 181.1549561000429,59.566183783172164 175.51725304499269,64.90867158438778 175.07795150810853,71.97448744630674 161.16673617856577,72.75 160.0684823365882,65.77035980497021 154.5039962050505,60.514047139906324 151.4288854477927,54.39600013953168 151.28245160263032,46.209807320381515 154.35756235942245,39.488449189346284 160.94708541035652,34.57665156503208 168.4884284576401,33.284068202308845 176.98159150080755,35.955404836975504 182.54607763281092,42.59062153712148 184.15684993425384,48.27790609013755 183.49789762916043,54.740680094459094 181.2281730226241,59.566183783172164 175.4440361224115,64.90867158438778 175.22438535420224,72.06065554515226 160.80065156472847,72.23299171490362 159.99526541354135,65.42568462877534 154.8700808188878,60.85872444428969 151.94140390725806,56.11939842061838 150.91636698832735,46.46831996081164 154.7968638963066,38.88524760561995 158.3112761899829,35.955404836975504 164.38828078098595,33.542585042945575 174.19934843480587,34.49047940631863 178.2262791879475,37.24798385926988 181.2281730226241,41.12570832442725 182.32642686460167,39.91930718295043 176.61550688697025,34.3181350606028 169.22059768531471,32.25 160.72743464214727,33.542585042945575 155.38259927835315,37.24798385926988 153.4789592861198,39.74696401361143 155.8219008152373,38.28204556478886" stroke="#4DD2FF" stroke-linecap="round" stroke-linejoin="round" stroke-width="0.5"><title>2025-10-19 10.0km</title><desc>1760866141000</desc></polyline><polyline fill="none" points="44.15808712365106,85.50009943457553 47.906668192707,91.85313866694923 48.80632764939219,99.61789711023448 46.40723576489836,107.38258154317737 40.109619569499046,113.5589822207694 39.734761462546885,120.44120210158871 25.340210158843547,121.2353006543126 24.0656925952062,113.47074825508753 16.568530458025634,105.35318252828438 14.99412640882656,96.79435714863939 18.89265072066337,87.08836388774216 26.91461420757696,81.88237439759541 35.91120877256617,81.44118731823983 43.93317225947976,85.85304735822137 48.356497920583934,93.08844609721564 48.95627089170739,100.41201596113387 46.18232090072706,107.91198915045243 40.25956281227991,113.2942802948528 39.43487497698516,120.97060122276889 25.265238537453115,121.05883437610464 24.36557908076793,114.17661971296184 19.3424804485403,109.67667868977878 16.193672350607812,104.38259860372636 15.294012894388288,94.4119876937475 19.71733855549246,86.38246895739576 28.71393312048167,81.17647495603887 37.33566957851872,81.79413700080477 44.757860095240176,86.7354164988501 48.80632764939219,94.1472795464797 49.03124251309782,100.94142809847835 46.48220738628879,107.55905078403885 40.18459119088948,113.64721617673058 39.80973308440298,120.97060122276889 25.190266916062683,121.05883437610464 24.36557908076793,114.44132135185646 18.89265072066337,109.0590377858025 15.294012894388288,102.08848654851317 15.668871001340449,91.76490235014353 19.64236693410203,86.02952126314631 22.56626016786322,83.9118318844703 31.2629682472907,81.0 40.33453443367034,83.20593420165824 44.83283171616495,86.82365336047951 48.2815262991935,92.11784755968256 48.80632764939219,102.17672174714971 46.48220738628879,107.73551998625044 40.409506055060774,113.73545012326213 40.25956281227991,120.70590170507785 26.91461420757696,121.5 25.190266916062683,121.05883437610464 24.140664216596633,113.91191798774526 18.59276423510164,108.44139641342917 15.144069651607424,101.02966342133004 14.919154787436128,95.02963970287237 18.89265072066337,87.08836388774216 22.116430439520627,84.1765433580149 27.96421690657735,81.61766217870172 36.810868228785694,81.61766217870172 43.333399288356304,85.32362541527255 48.95627089170739,94.3237516542431 48.2815262991935,103.41201352298958 46.18232090072706,107.91198915045243 40.109619569499046,113.20604630035814 39.88470470532775,120.70590170507785 25.640096643939614,121.14706752006896 24.0656925952062,113.82368406036403 17.318246671464294,106.94140827434603 15.069098030216992,101.20613403787138 15.294012894388288,94.05904347845353 18.442820991855115,87.70602144993609 22.041458818130195,84.1765433580149 27.28947231452912,81.70589959440986 36.66092498600483,81.70589959440986 44.60791685199365,86.47070585732581 49.33112899865955,96.52964977559168 46.70712225046009,107.29434690857306 40.25956281227991,112.9413442601799 40.034647948574275,120.70590170507785 25.11529529420659,121.14706752006896 24.215635837987065,114.17661971296184 17.54316153563559,107.20611226430628 15.069098030216992,100.32378057134338 16.193672350607812,91.58842968806857 20.09219666244462,85.94128431548597 26.16489799367264,82.05884916236391 35.761265529785305,81.3529498737771 41.45910875406116,83.9118318844703 46.557179007679224,89.1178084044368 48.88129927031696,95.6472912436584 48.80632764939219,101.6473104126635 45.882434415165335,108.1766928252182 40.18459119088948,113.38251427945215 40.33453443367034,120.26473565137712 41.234193889889866,114.00015190569684 45.35763306589797,110.38255343493074 48.80632764939219,104.7355383465183 50.08084521209821,98.64730635238811 49.55604386283085,94.3237516542431" stroke="#4DD2FF" stroke-linecap="round" stroke-linejoin="round" stroke-width="0.5"><title>2025-10-16 10.0km</title><desc>1760611285000</desc></polyline><polyline fill="none" points="68.0668935449794,83.84217052673921 76.9717460386455,81.0 85.12195001542568,82.59872213355266 91.9137866627425,89.08239660854451 94.55505647044629,96.45418338594027 92.81936488253996,105.95747337018838 85.34834457049146,114.03962398250587 85.27287971880287,120.96711824962404 70.78362820390612,121.41118639905471 69.80258513242006,114.30606715200702 63.08621333632618,107.82259212026838 60.44494352955371,100.98380262986757 60.89773263921961,93.07915670127841 65.12376433098689,86.24024424602976 74.17954652756453,81.17763594677672 82.70707476278767,81.79936145653483 89.72530596563593,85.97379195701797 94.4041267670691,95.74365260673221 93.04575943760574,105.51339685189305 85.57473912555724,113.68436628888594 85.27287971880287,120.96711824962404 70.70816335221753,121.5 69.65165542950854,114.30606715200702 63.312607891857624,108.08903730963357 60.59587323246524,101.60551312210737 60.82226778753102,93.43442332238192 65.4256237372756,85.61852210323559 75.08512474736199,81.17763594677672 85.04648516373709,82.24345081788488 92.66843517962843,90.14820120495278 94.32866191538051,96.18773441587109 92.66843517962843,106.13510390999727 85.42380942218006,113.68436628888594 85.42380942218006,120.7894909226452 70.78362820390612,121.41118639905471 69.80258513242006,114.48369588318747 62.63342422712594,107.02325603249483 60.59587323246524,101.07261844340246 60.89773263921961,93.16797337098978 65.19922918267548,86.06260939594358 73.9531519729644,81.35527185461251 84.29183664731681,82.24345081788488 90.78181388881058,87.12841791758547 94.4041267670691,95.92128535924712 92.74390003131703,106.13510390999727 85.57473912555724,113.77318072662456 85.19741486711428,121.0559318989981 70.78362820390612,121.41118639905471 69.65165542950854,114.12843838200206 63.23714303970337,107.64496194612002 60.44494352955371,100.89498680655379 60.746802935842425,93.70087318704464 63.388072743080556,87.92777339951135 72.21746038505808,81.88817934808321 81.4241722850129,81.44408979418222 85.80113368015736,82.95399329578504 90.02716537192464,86.59551382996142 94.4041267670691,96.09891807328677 94.25319706415758,101.42788160091732 92.44204062456265,106.57918009156128 85.49927427340299,114.03962398250587 85.42380942218006,121.0559318989981 70.85909305559471,121.5 69.80258513242006,114.39488152222475 63.991791556123644,108.8883723586332 60.520408380776644,101.51669736619806 60.89773263921961,92.81270663469331 64.74644007300958,86.59551382996142 73.57582771452144,81.44408979418222 83.61265298258513,81.97699722985271 90.4044896303676,87.0396005937946 94.25319706415758,95.83246898790821 92.89482973469421,105.42458151938627 89.57437626225874,110.39822532481048 85.49927427340299,113.86199515487533 85.49927427340299,120.7894909226452 70.85909305559471,121.41118639905471 69.57619057735428,114.03962398250587 63.46353759523481,108.26666738808854 60.59587323246524,101.60551312210737 61.35052174888551,90.9475537429098 64.36911581456661,87.0396005937946 73.80222226958722,81.35527185461251 83.53718813089654,81.88817934808321 90.78181388881058,87.4836871168809 94.10226736078039,94.85548826708691 93.4230836960487,104.00353489146801 90.17809507576749,109.59889174782438 85.49927427340299,113.59555184148485 85.19741486711428,120.96711824962404 71.4628118686378,121.5 70.33083909424022,120.34542243659962" stroke="#4DD2FF" stroke-linecap="round" stroke-linejoin="round" stroke-width="0.5"><title>2025-10-08 10.1km</title><desc>1759919017000</desc></polyline><polyline fill="none" points="104.05967333726585,98.87307484692428 111.3909188262187,86.28272313403431 116.25347960926592,82.67286604072433 121.93893529428169,81.0 134.2823588210158,83.72941123973578 139.51896274182945,90.9491000106209 140.94032666273415,99.57742442720337 138.02279019309208,107.85348628065549 131.96329137077555,113.576245732198 131.73886548820883,120.88371077133343 117.07637451123446,121.2358761021751 116.32828823663294,114.45666668686317 111.54053608095273,110.05455237592105 108.17414784664288,104.94806990888901 107.0520184347406,95.08718539506663 111.09168431628495,86.89903859660262 118.94659019680694,82.05654737364966 126.72668745042756,81.44022823945852 135.62891411501914,85.66640720446594 140.2670490159653,93.32630057237111 140.7159007806331,100.19372980954358 138.47164195775986,107.06110102729872 131.88848274340853,113.75232999928994 131.21520509617403,120.9717521185521 117.15118313906714,121.41195871011587 116.1786709818989,114.19254050060408 108.17414784664288,105.3002421434503 106.97720980737358,96.14371445786674 111.01687568891793,87.25121865136316 118.72216431470588,82.14459292613901 126.57707019569352,81.44022823945852 135.40448823291808,85.40227166278055 140.04262313386425,92.62194557522889 140.79070940846577,100.01764260517666 138.02279019309208,107.85348628065549 131.88848274340853,113.92841422848869 131.36482235137373,121.05979345581727 117.00156588340178,121.3239174108603 115.6550105898641,113.576245732198 111.09168431628495,109.70238220109604 107.80010470934212,104.68394063296728 106.97720980737358,95.79153825592948 110.79244980681688,87.60339855332859 114.9817329426296,83.72941123973578 118.72216431470588,82.14459292613901 127.77400823449716,81.52827385847922 136.37700038962066,86.63490345590981 139.51896274182945,90.9491000106209 140.7159007806331,100.28177339734975 138.39683333039284,107.14914387156023 131.96329137077555,113.576245732198 131.36482235137373,120.9717521185521 117.30080039333552,121.5 116.10386235453188,114.01645632868167 112.06419647298753,111.02301956980955 108.69780823821202,106.26871500152629 106.90240118000656,96.31980250129709 110.19398078741506,88.30775789928157 117.45041764806956,82.5848205453949 126.72668745042756,81.44022823945852 134.65640195878223,84.78595506533748 139.44415411446244,90.86105541198049 140.64109215373173,100.28177339734975 138.24721607519314,107.50131515227258 132.11290862597525,113.3121192593826 131.43963097874075,120.9717521185521 117.15118313906714,121.3239174108603 116.25347960926592,114.45666668686317 109.52070314018056,107.58935794851277 106.6779752979055,97.37632996187313 108.17414784664288,91.74150097038364 111.3909188262187,86.54685838962905 117.07637451123446,82.67286604072433 121.78931803954765,81.26413697213866 127.84881686139852,81.79241065896349 134.88082784088328,85.13813603547169 139.2945368597284,90.68496618582867 140.56628352589905,101.2502522347495 138.39683333039284,107.23718670598464 131.88848274340853,113.92841422848869 131.21520509617403,120.88371077133343 117.52522627590224,121.5 116.1786709818989,114.10449841950322 110.41840666951612,108.82195609691553 107.7252960819751,103.53937944537029 106.90240118000656,98.5208998277667 109.07185137551278,89.71647476009093 113.63517764909193,84.78595506533748 121.71450941218063,81.44022823945852 131.2900137240067,82.49677504069405 139.2945368597284,90.33278761903057 140.64109215373173,95.7034941817983 140.04262313386425,103.27524971135426 135.55410548765212,110.75889226782601" stroke="#4DD2FF" stroke-linecap="round" stroke-linejoin="round" stroke-width="0.5"><title>2025-10-01 10.0km</title><desc>1759271073000</desc></polyline><polyline fill="none" points="163.170754914172,82.48068108630832 169.09109007474035,81.0 177.82358443643898,83.35166868701344 183.2998944595456,90.9292210029671 184.4099573022686,95.98088287556311 184.2619489231147,101.72928709205007 182.6338567538187,106.34540012269281 175.60345875145867,113.66144951339811 175.3814461827278,120.97743234463269 161.17264179792255,121.4129054142395 159.61855381773785,114.009831157804 153.920231226366,108.60989871341735 151.256080403924,103.20993000734597 150.59004269819707,97.54863355553243 152.29213905707002,91.01631889020791 158.58249516505748,84.22265534411417 167.1669811476022,81.78389032639097 175.2334378035739,83.35166868701344 178.78563890000805,85.79042894940358 182.11582742771134,90.23243756452575 184.33595311269164,96.76475859753555 183.0778818912804,105.03895572683541 180.33972687926143,109.4808580118115 175.60345875145867,113.40016318159178 175.4554503718391,120.62905371899251 170.34916129615158,121.3258108192822 160.65461247088388,121.23871621489525 159.76656219689175,114.27111729170429 154.21624798420817,109.04537848057225 151.0340678356588,103.29702656442532 151.4040887830779,93.28086065041134 154.1422437946312,88.22918181528803 157.9904616489075,84.65814831882017 164.87285127304494,81.95808807300637 175.2334378035739,83.35166868701344 182.11582742771134,89.97114361921558 184.1879447340034,95.80668816680554 184.0399363548495,102.1647705854266 180.9317603954114,109.13247440557461 175.60345875145867,113.83564035425661 174.93742104573175,121.06452697730856 160.80262085050344,121.23871621489525 159.91457057604566,114.27111729170429 151.5520971622318,105.12605208606692 150.59004269819707,99.9002538441564 151.256080403924,93.36795828293543 155.84434015350416,86.48721623705933 164.65083870431408,82.0451869321987 174.19737915042788,83.0903725057724 179.4516766052693,86.7485113144503 183.74391959654167,94.4131291389931 184.11394054396078,101.81638380949153 181.00576458498836,108.78409064857988 175.52945456188172,113.7485449386877 175.52945456188172,120.54195903911022 174.64140428742394,121.15162160072941 160.80262085050344,121.23871621489525 159.8405663864687,114.27111729170429 154.95628987904638,109.82924146717414 151.774109730497,104.60347379028099 150.81205526692793,95.37120123009663 155.32631082693115,86.83560965483775 164.50283032516018,82.0451869321987 175.82547131972387,83.6129647831549 181.74580647982657,89.62275156041142 184.1879447340034,96.3292721794569 183.59591121738777,103.81960570946103 180.63574363756925,109.39376212458592 175.75146713014692,113.5743540787953 175.3814461827278,120.80324305064278 170.42316548572853,121.5 160.80262085050344,121.5 159.76656219689175,114.09692654508399 154.3642563628964,109.13247440557461 151.1820762148127,103.29702656442532 151.4040887830779,93.45505590626271 157.6204407014884,84.65814831882017 163.98480099905282,82.13228578201961 170.2751571070403,81.78389032639097 174.19737915042788,82.91617500444409 179.89570174226537,87.09690461878199 183.59591121738777,93.89054388081422 184.1879447340034,101.29380336293252 181.89381485944614,107.65184239554219 175.60345875145867,113.66144951339811 174.8634168561548,121.15162160072941 160.80262085050344,121.4129054142395 159.54454962862656,114.27111729170429 154.1422437946312,109.39376212458592 151.84811392007396,104.9518593584653 150.66404688823968,96.59056405862793 154.80828150035813,87.61949429207016 159.61855381773785,83.78716213349253 165.39088059961796,81.95808807300637 170.20115291699767,81.8709892044426 175.82547131972387,83.70006346289301 182.26383580639958,90.14533959201071 184.2619489231147,97.11314756207867 182.6338567538187,105.9970151577727 175.3814461827278,113.7485449386877 175.1594336144626,120.97743234463269 167.98102723248303,121.23871621489525" stroke="#4DD2FF" stroke-linecap="round" stroke-linejoin="round" stroke-width="0.5"><title>2025-09-27 10.0km</title><desc>1758965825000</desc></polyline><polyline fill="none" points="52.75,132.36537070729537 48.4241486066021,133.54596120334463 40.83823529374786,138.85859311482636 37.891640866873786,139.74402773857582 40.90092879254371,144.8352544895606 40.83823529374786,151.3283580345451 37.39009287930094,157.7476154739852 33.377708978252485,161.5106003334513 33.44040247681551,167.48706297698664 20.901702786562964,167.48706297698664 20.400154798524454,161.28924885834567 16.07430340582505,157.9689681000309 13.002321981592104,152.73026999441208 12.81424148613587,144.0236121947528 16.575851393165067,137.97315734031145 19.208978328155354,135.24305645673303 22.34365325071849,134.0624689022079 29.74148606788367,134.0624689022079 37.891640866873786,137.3090797542245 40.90092879254371,145.0566113111563 41.08900928776711,149.40994751971448 39.458978328155354,154.79624025541125 33.377708978252485,161.58438414265402 33.377708978252485,167.41327980731148 20.839009287767112,167.63462929264642 20.337461300427094,161.28924885834567 14.068111455067992,154.35353286983445 12.312693498563021,146.31096527533373 13.37848297227174,142.62168231682153 16.889318885514513,137.825584599399 22.4690402476117,134.28382922435412 30.493808049475774,134.1362556841923 35.19582043332048,135.83334946690593 37.64086687285453,137.97315734031145 40.9636222908739,146.2371798120439 40.712848297087476,151.47592785040615 37.264705882174894,158.33788898342755 33.50309597491287,161.0678973113536 33.06424148613587,167.2657134437468 20.839009287767112,167.56084613874555 20.08668730640784,160.846545692184 14.193498451961204,155.46030079439515 12.438080495456234,150.5167234762339 12.25,146.53232161747292 13.691950464388356,141.81003738456639 19.898606810951605,135.24305645673303 28.299535603728145,133.84110850770958 36.88854489126243,136.57121501024812 40.21130030951463,142.62168231682153 40.83823529374786,149.85265811812133 38.76934984489344,155.829223036475 33.56578947370872,161.0678973113536 33.18962848279625,167.56084613874555 20.839009287767112,167.48706297698664 20.14938080497086,161.43681651644874 15.384674922563136,157.1573414533632 12.438080495456234,150.36915345239686 13.566563467727974,141.81003738456639 18.89551083603874,136.20228233840317 24.03637770889327,133.91489531379193 35.44659442687407,135.53820302599343 38.07972136209719,137.89937097369693 40.52476780163124,144.68768323533004 40.90092879254371,149.85265811812133 38.14241486042738,156.86220425111242 33.44040247681551,161.36303269129712 33.06424148613587,167.41327980731148 20.77631578943692,167.33949662942905 19.898606810951605,161.0678973113536 15.760835913475603,157.67383124947082 13.503869968932122,154.05839445296442 12.438080495456234,145.57311028195545 15.196594427339733,139.67024156381376 20.274767801631242,134.5051894748467 26.41873065009713,133.32460064132465 37.2020123838447,136.94014748191694 40.33668730640784,143.2119689330575 40.90092879254371,150.07401330932043 38.83204334322363,155.829223036475 33.50309597491287,161.21546501724515 33.12693498423323,167.48706297698664 20.901702786562964,167.63462929264642 20.08668730640784,161.43681651644874 15.886222910368815,157.52626277622767 13.253095975145698,152.73026999441208 12.876934984466061,143.94982648361474 16.63854489196092,137.89937097369693 20.02399380831048,135.02169644617243 23.221362229203805,133.76732169359457 35.88544891634956,135.53820302599343 38.14241486042738,137.5304390216479 40.712848297087476,144.76146886649076 40.52476780163124,150.4429384683026 38.2051083589904,156.4194982079789 33.377708978252485,161.36303269129712 33.44040247681551,166.74923091969686 32.688080495456234,167.11814704816788" stroke="#4DD2FF" stroke-linecap="round" stroke-linejoin="round" stroke-width="0.5"><title>2020-04-24 10.0km</title><desc>1587724293000</desc></polyline><polyline fill="none" points="97.75,132.38302086520707 92.87499999976717,133.78064484224888 83.99999999976717,139.00331950944383 81.1875,138.12061675242148 77.62499999976717,135.17826594301732 71.12499999953434,133.85420391935622 63.31249999976717,136.42876659467584 60.81249999976717,138.70908538461663 57.81249999976717,145.1822066816967 57.87499999976717,151.06680886424147 60.18749999976717,156.51002048619557 65.49999999976717,161.3647399902111 66.5,167.61697913485114 78.49999999976717,166.73431356833316 78.31249999976717,161.1440716746729 83.75,155.70089719467796 85.4375,150.99325165170012 85.3125,145.6971114083426 83.4375,140.62160491693066 78.0,135.10470700950827 74.8125,134.07488110277336 70.0,134.22199918481056 61.31249999976717,138.41485113243107 57.25,147.90384152915794 58.74999999976717,154.22976146795554 65.49999999976717,161.51185216079466 66.24999999976717,167.39631285064388 78.43750000023283,166.88142457575304 78.43750000023283,161.21762778784614 84.0625,154.9653297297773 86.31249999976717,147.68316883977968 83.5,139.15043652412714 84.18749999976717,138.26773395843338 81.43749999976717,138.70908538461663 77.06249999976717,135.61961937724845 70.06249999976717,133.85420391935622 62.43749999953434,137.31147155090002 58.06249999976717,144.225954010617 58.68749999976717,154.22976146795554 65.31249999976717,161.3647399902111 65.81249999953434,167.24920195474988 77.93749999976717,167.02853555121692 78.375,160.84984714229358 83.56249999976717,155.92156727873953 85.56250000023283,149.5221057269373 84.75,143.63749015913345 81.125,137.75282359845005 73.5,134.07488110277336 68.12499999976717,134.5897942512529 61.24999999976717,137.82638224540278 57.68749999976717,144.667301564652 58.24999999976717,152.97929359483533 60.625,157.09847318340326 65.06249999976717,161.21762778784614 65.68749999976717,167.17564649495762 77.93749999976717,167.02853555121692 78.0,161.21762778784614 83.4375,155.77445389743662 85.24999999976717,150.03700716316234 84.25,142.97546771680936 80.56250000023283,137.60570628126152 77.43749999976717,135.3253837862867 72.3125,134.22199918481056 68.9375,134.295558214013 62.75,136.42876659467584 58.49999999953434,142.2398864683928 57.25,146.4326889119111 58.49999999953434,154.15620459796628 61.68749999976717,158.42248988791835 65.12499999976717,160.99695942463586 65.87499999976717,167.32275740680052 78.0,167.10209102724912 78.0,161.21762778784614 83.875,155.03888651216403 85.4375,146.87403503182577 83.56249999976717,140.91583821334643 77.5,134.81047119543655 72.43749999976717,133.26573108014418 62.87499999976717,136.57588416727958 58.62499999953434,143.0490257976926 57.43749999976717,147.60961126053007 58.87499999953434,154.52398886845913 65.37499999976717,161.6589642991894 66.06249999976717,167.10209102724912 78.25000000023283,166.73431356833316 78.1875,161.43829607934458 83.81249999976717,155.1124432864599 85.375,146.57980431709439 83.25,140.6951632530545 78.49999999976717,136.13453135453165 71.0625,134.00132204953115 61.62499999976717,137.16435413784347 57.5625,145.03509097360075 57.74999999976717,151.06680886424147 59.375,155.2595568113611" stroke="#4DD2FF" stroke-linecap="round" stroke-linejoin="round" stroke-width="0.5"><title>2020-04-16 10.0km</title><desc>1587033949000</desc></polyline><polyline fill="none" points="142.75,132.3926228886121 137.49188562575728,133.79240732983453 128.47797527024522,139.24417190282838 126.97565687750466,139.24417190282838 124.40919629042037,136.5182950789458 119.40146831492893,134.30811666080263 114.8319165376015,134.16077117761597 107.75850077276118,137.10767477727495 103.50193199329078,142.11738159373635 102.50038639828563,150.7369378412841 105.31723338435404,156.85159954655683 110.45015455922112,161.78749118902488 110.88833075691946,167.5337079805322 122.65649149892852,167.01802384096663 123.34505409537815,161.8611609422951 127.852009273367,157.21995090611745 130.54366306005977,150.66326688311528 130.10548686236143,144.4012062792899 126.53748067980632,138.0654156979872 124.28400309104472,136.00258742383448 119.15108191641048,134.08709842391545 114.01816074131057,134.45546211203327 106.63176197814755,137.54970921605127 103.18894899496809,143.36980253231013 102.31259659933858,147.4954081363394 103.81491499207914,155.00983975763666 110.32496135961264,161.41914230340626 111.38910355442204,167.5337079805322 123.09466769709252,167.0916930276435 123.28245749603957,161.19813287624856 128.47797527024522,156.04122585389996 130.66885625943542,150.14756995276548 129.85510046361014,143.95917629339965 125.16035548667423,137.18134720396483 118.21213292097673,134.23444392334204 108.44706336921081,136.5182950789458 103.81491499207914,142.26472535310313 102.43778979871422,146.97970880416688 103.06375579559244,152.87339215475367 106.25618237978779,158.03032319428166 110.45015455922112,161.6401516587357 111.20131375524215,167.6073771113297 123.21986089623533,167.0916930276435 123.28245749603957,161.1244630512665 128.97874806798063,155.4518625618657 130.66885625943542,149.33718827285338 130.10548686236143,144.69589277677005 127.28863987606019,139.39151628513355 122.5312982997857,135.48687937762588 119.21367851574905,134.08709842391545 113.39219474466518,134.6764802292455 106.63176197814755,137.40236443502363 103.00115919602104,144.253862982383 102.37519319914281,148.8214903373737 103.6897217927035,154.86249875917565 110.38755795964971,161.41914230340626 110.88833075691946,167.38636969478102 123.40765069541521,166.7233470142237 123.34505409537815,161.05079321790254 128.7283616689965,155.89388507878175 130.48106646048836,150.0738989309175 129.7925038638059,143.5171460202546 124.59698608936742,137.18134720396483 118.77550231828354,133.86608011531644 113.26700154552236,134.82382560084807 106.63176197814755,137.8443986820639 103.25154559477232,143.66448947659228 102.43778979871422,150.36858297081199 105.12944358563982,156.6305886352784 110.2623647598084,161.56648188165855 111.01352395652793,167.6073771113297 123.40765069541521,166.9443546461407 123.40765069541521,161.19813287624856 128.47797527024522,156.1885665973532 130.60625966009684,149.70554370147875 129.66731066443026,143.66448947659228 125.9115146829281,138.0654156979872 119.15108191641048,134.30811666080263 113.14180834591389,134.52913482586155 105.69281298248097,138.36010494088987 102.43778979871422,147.56907943740953 104.12789799040183,155.0835102449637 110.2623647598084,161.34547250223113 110.95092735695653,167.31270054011839 123.03207109705545,167.23903137707384 123.28245749603957,161.41914230340626 128.3527820711024,156.1885665973532 130.41846986068413,149.2635171629954 128.9161514681764,142.0437097020913 123.78323029354215,136.29727756039938 119.02588871703483,134.30811666080263 115.83346213237382,134.30811666080263 112.07766615133733,135.04484359821072 106.8195517770946,137.8443986820639 103.50193199329078,142.85410007205792 102.25,147.2743941847002 103.12635239539668,153.09440428687958 105.37982998415828,157.14628065010766" stroke="#4DD2FF" stroke-linecap="round" stroke-linejoin="round" stroke-width="0.5"><title>2020-04-14 10.0km</title><desc>1586861907000</desc></polyline><polyline fill="none" points="187.75,132.49110238830326 181.66257668705657,134.31879843445495 173.8358895701822,139.14389221498277 167.81058282172307,135.48852130654268 161.97162576648407,134.02636739978334 157.43711656425148,134.83055244054412 150.91487730061635,137.97417567821685 148.05751533713192,144.7000180799514 148.11963190161623,150.7678401285666 150.1694785275031,156.1045541925705 155.57361963181756,161.221911610628 156.13266871124506,167.14337677310687 168.05904907966033,166.85095995961456 168.24539877288043,160.92949223186588 173.02837423305027,156.32387030636892 175.26457055215724,151.20647575269686 174.51917177881114,143.38409766653785 170.29524539853446,137.09688694536453 162.40644171764143,134.17258293298073 157.12653374206275,134.976767799526 151.10122699383646,137.75485360180028 147.8711656439118,145.6504034496029 148.49233128782362,152.3030635662726 150.72852760716341,156.76250231981976 155.38726993836462,161.14880677772453 156.2569018402137,167.50889761169674 168.12116564414464,166.70475150545826 168.36963190161623,160.7832824952202 173.21472392627038,155.95834341068985 175.63726993836462,149.30571932229213 175.01610429421999,144.18827155738836 171.35122699360363,137.82796096865786 164.26993865007535,134.3919061734341 157.9340490794275,134.75744474906242 150.976993864635,137.97417567821685 147.25,145.06555107276654 147.5605828219559,150.62162819044897 148.98926380369812,154.2038115558098 155.44938650284894,161.14880677772453 155.69785276055336,166.9971683822223 168.05904907966033,166.70475150545826 168.18328220839612,161.221911610628 173.8358895701822,155.15418354328722 175.32668711640872,149.671249820909 174.8918711654842,144.62691145768622 170.23312883405015,136.65824215114117 164.45628834329545,134.31879843445495 157.43711656425148,134.6843370498391 151.41180981579237,137.462424055906 147.3742331287358,147.03942581324372 149.36196319013834,154.64244494703598 155.38726993836462,161.36812125256984 155.75996932480484,166.9971683822223 167.81058282172307,166.77785573643632 168.05904907966033,161.00259708840167 172.90414110384881,156.1045541925705 175.1403374231886,150.6947341634077 174.7676380367484,143.96895150031196 170.73006134969182,137.68174622708466 164.0835889566224,134.17258293298073 156.1947852759622,135.3423060583882 150.91487730061635,137.82796096865786 147.31211656401865,146.82010668271687 148.80291411024518,154.13070596277248 155.263036809396,161.29501643544063 155.75996932480484,166.77785573643632 168.24539877288043,166.63164726656396 168.18328220839612,160.7832824952202 173.40107361925766,155.37349996576086 175.32668711640872,149.671249820909 174.6434049080126,143.67652464687126 169.98466257657856,137.09688694536453 160.54294478497468,133.73393623827724 153.3374233127106,136.0002744255471 148.74079754576087,142.21438847860554 147.4984662574716,147.4780638604425 147.99539877288043,152.44927514030132 149.36196319013834,155.08107805333566 155.38726993836462,161.14880677772453 155.94631901825778,167.0702725815354 167.93481595092453,166.77785573643632 167.93481595092453,160.71017761452822 172.4072085886728,156.83560762781417 175.1403374231886,149.59814373694826 174.02223926363513,142.28749536216492 168.36963190161623,135.7809517076239 160.10812883428298,134.02636739978334 151.16334355808794,137.38931664958363 147.6226993862074,146.96631944412366 148.1817484658677,152.81480393605307 149.85889570508152,156.1045541925705" stroke="#4DD2FF" stroke-linecap="round" stroke-linejoin="round" stroke-width="0.5"><title>2020-04-13 10.0km</title><desc>1586775592000</desc></polyline><polyline fill="none" points="52.75,181.1522622842458 46.98219814244658,182.7755736889667 38.957430340349674,187.7930572089972 31.99845201196149,183.95616137154866 23.158668730640784,183.29208105179714 18.205882353009656,185.5794660942629 13.94272445817478,190.89207268500468 12.626160990912467,194.80271495081251 13.002321981592104,201.2958072432666 16.325077399378642,206.6820754762157 20.337461300427094,210.29749191040173 21.152476780116558,216.05260502069723 32.186532507650554,215.75747219769983 33.252321981592104,214.87207296147244 33.252321981592104,209.92857274517883 38.26780185755342,204.2471923713456 40.085913312388584,200.4841740912525 40.52476780186407,191.55614559579408 39.521671826252714,188.4571331407642 42.907120743067935,183.7348013370065 41.59055727533996,185.50567959976615 37.390092878835276,187.424125855905 29.74148606788367,183.36586778599303 22.531733746174723,183.8823747013812 17.26547987619415,186.53868979372783 13.253095975145698,192.29400362604065 13.065015479922295,201.0744528430514 15.384674922795966,205.42774284252664 20.400154798757285,210.29749191040173 20.964396284660324,216.20017138426192 32.43730650143698,215.6836889720871 33.252321981592104,209.78100502333837 38.26780185755342,204.8374678628752 40.39938080497086,199.74632493208628 40.085913312388584,193.4007891729707 37.13931888551451,187.71927095449064 29.992260061902925,183.36586778599303 22.90789473685436,183.5872279405594 16.262383901281282,187.424125855905 13.629256965825334,191.77750308881514 12.626160990912467,195.76192566286772 13.691950464388356,202.99285525426967 15.321981424232945,206.01801731070736 20.14938080497086,210.22370809339918 20.901702786562964,216.20017138426192 32.43730650143698,215.75747219769983 33.377708978252485,209.63343726913445 37.51547987619415,205.94423303031363 39.77244582027197,202.03365472401492 40.46207430306822,196.05706714879489 38.83204334345646,189.8590690928977 35.13312693499029,185.72703905886738 28.738390092970803,183.36586778599303 22.030185758369043,183.95616137154866 16.889318885514513,186.9076216261019 14.381578947417438,189.93285511579597 12.438080495456234,196.05706714879489 12.626160990912467,199.5987550043501 14.820433436660096,205.50152717885794 20.212074303533882,210.44505952042527 20.776315789669752,216.1263882063795 32.62538699689321,215.8312554153381 33.44040247681551,209.78100502333837 38.393188854213804,204.8374678628752 40.27399380807765,200.70552868314553 40.39938080497086,194.28621631569695 38.83204334345646,189.7852830621414 32.813467492116615,184.62024104385637 25.72910216706805,183.29208105179714 18.268575851339847,185.5794660942629 13.691950464388356,191.11343039391795 12.563467492349446,194.28621631569695 12.75154798780568,200.41038921126164 15.57275541801937,206.3131543531781 19.961300309747458,210.29749191040173 20.901702786562964,216.34773771569598 33.00154798757285,215.6836889720871 33.06424148613587,210.0761404352961 38.83204334345646,203.95205443404848 40.39938080497086,198.2706242162967 38.957430340349674,190.67071490449598 36.32430340535939,186.83383527590195 32.750773993553594,184.10373468801845 25.478328173281625,182.99693403521087 18.017801857786253,185.72703905886738 13.691950464388356,191.18721628095955 12.375386996893212,196.72113502433058 14.44427244598046,204.5423301809933 20.274767801864073,210.22370809339918 20.776315789669752,216.20017138426192 32.87616099091247,215.6836889720871 33.06424148613587,210.14992426824756 39.08281733747572,203.95205443404848 40.650154798524454,198.04926883330336 38.70665634656325,190.08042713749455 32.93885448900983,184.4726678392035 26.042569659417495,182.92314726114273 22.782507739961147,183.5872279405594 18.582043343689293,185.50567959976615 15.447368421126157,188.3833469580277 13.190402477048337,192.22021785902325 12.25,196.57356444123434 13.503869969164953,202.69771677342942 15.886222910368815,206.53450705093564" stroke="#4DD2FF" stroke-linecap="round" stroke-linejoin="round" stroke-width="0.5"><title>2020-04-12 10.0km</title><desc>1586649823000</desc></polyline><polyline fill="none" points="97.75,181.3051674545277 93.75078369909897,182.05228798196185 83.27664576820098,187.73037754220422 85.75235109706409,191.76478119270178 86.8315047021024,198.41402460203972 83.46708463947289,205.9597175687668 78.96003134828061,209.8445966099389 78.38871473376639,216.04541590093868 66.20062695932575,215.82129087345675 65.5658307208214,209.47105149907293 59.85266457684338,204.61494664906058 57.50391849526204,198.787575701077 58.96394984330982,190.04642696736846 64.55015673977323,183.3223910210654 68.93025078368373,181.67872781929327 79.21394984307699,183.247679142165 83.46708463947289,186.16143641603412 86.32366771157831,193.85668490664102 86.1967084640637,199.83351770136505 83.78448275872506,205.0632039133925 78.76959247677587,209.69517858984182 78.32523510977626,215.97070756641915 66.13714733533561,215.89599922398338 65.43887147330679,209.6204695677734 60.360501567600295,205.21262293693144 58.07523510977626,201.55184754461516 57.3134796237573,194.97734500048682 60.93181818188168,187.2073975634994 65.43887147330679,183.39710289158393 72.92946708481759,181.67872781929327 82.19749216316268,184.89133860496804 85.75235109706409,192.2877577159088 86.51410658308305,197.74163211416453 84.29231974924915,204.01726984314155 78.6426332287956,209.99401459749788 78.70611285278574,215.97070756641915 66.010188087821,215.89599922398338 65.43887147330679,209.6204695677734 59.53526645782404,204.68965621327516 57.757836990756914,201.17829794291174 57.3134796237573,195.27618738485035 58.265673981281,190.79353802610422 64.61363636376336,183.54652660887223 69.31112852669321,181.75343986786902 77.81739811925218,183.17296725546475 83.27664576820098,186.6097056734725 86.26018808758818,193.40842035913374 86.38714733533561,197.96576301648747 84.1018808777444,204.61494664906058 78.89655172429048,209.8445966099389 78.57915360527113,215.97070756641915 66.010188087821,215.97070756641915 65.31191222579218,209.6204695677734 60.23354231985286,205.28733243665192 58.011755486018956,201.17829794291174 57.63087774300948,193.25899877859047 60.93181818188168,187.2073975634994 64.8040752352681,183.62123845511815 67.66065830737352,182.50055990973487 74.83385579916649,182.12699999002507 82.07053291518241,184.89133860496804 86.13322884007357,192.66131213260815 86.32366771157831,198.26460410584696 83.72100313473493,205.28733243665192 78.89655172429048,209.5457605374395 78.57915360527113,215.74658251466462 66.07366771181114,216.1948325454723 65.24843260180205,209.47105149907293 59.916144200833514,204.83907531789737 58.011755486018956,201.25300787965534 57.25,193.4831311374437 60.86833855835721,187.2073975634994 64.67711598752066,183.62123845511815 67.91457680240273,182.27642398216994 72.73902821331285,181.82815190852853 80.42006269586273,183.4718147543026 83.34012539195828,186.08672484516865 86.32366771157831,194.75321312743472 86.1967084640637,199.9829378577415 83.6575235107448,205.28733243665192 79.08699059579521,209.769887603994 78.76959247677587,216.04541590093868 66.07366771181114,216.04541590093868 65.24843260180205,209.69517858984182 60.61442006286234,206.10913639800856 57.757836990756914,201.77597720880294 57.567398119252175,193.10957716556732 60.4239811913576,187.43153188866563 65.8832288403064,182.9488315464696 71.9772727272939,181.67872781929327 75.15125391865149,182.12699999002507 80.48354231962003,184.069509363384 83.21316614421085,186.2361479793908 86.06974921631627,192.96015552029712 86.13322884007357,199.9829378577415 83.72100313473493,204.98849438957404 78.83307210030034,209.91930560796754 78.83307210030034,215.14891535404604 76.10344827594236,215.44774899899494" stroke="#4DD2FF" stroke-linecap="round" stroke-linejoin="round" stroke-width="0.5"><title>2020-04-08 10.0km</title><desc>1586343893000</desc></polyline><polyline fill="none" points="142.75,181.28742345131468 137.71082949312404,182.38572618633043 127.81912442413159,188.46296906331554 130.6186635948252,193.80796884337906 130.74308755784295,198.56717965338612 127.94354838714935,205.74254184111487 123.33986175130121,209.915931755153 123.09101382503286,216.06614361488027 110.8352534561418,215.9929271361907 110.08870967733674,209.47662876691902 105.54723502299748,205.81575942999916 102.80990783404559,201.34947199124144 102.56105990801007,195.2723449690966 103.9297235023696,190.29345319868298 109.52880184329115,184.43588651710888 114.87903225817718,182.6053865191643 119.79377880203538,183.11792701826198 126.32603686652146,186.119942136982 129.43663594475947,191.97749422537163 130.74308755784295,198.6403980194009 127.88133640564047,205.96219458407722 123.2776497695595,209.9891488919966 123.02880184329115,216.1393600856536 110.95967741915956,215.91971064935206 110.46198156685568,209.9891488919966 104.80069124419242,204.6442770548747 102.49884792626835,199.15292636031518 102.8721198157873,193.07577959098853 105.60944700450636,187.6575544733787 109.52880184329115,184.21622677898267 112.20391705073416,183.264367089374 120.35368663608097,183.11792701826198 126.13940092176199,185.97350268432638 130.55645161308348,194.10084432252916 129.93433179729618,201.9352162873256 127.259216590086,206.62115238513798 123.2776497695595,210.06236602109857 123.2776497695595,215.9929271361907 111.08410138264298,216.1393600856536 110.33755760383792,209.9891488919966 104.240783409914,203.8388817445957 102.25,196.5170621817815 103.86751152086072,190.51311096182326 109.40437788004056,183.9965669696685 116.49654377880506,182.38572618633043 124.89516129018739,184.94842562818667 127.63248847913928,187.73077402130002 130.80529953935184,195.2723449690966 129.8099078340456,201.9352162873256 126.82373271905817,206.9140223125578 123.52649769606069,209.915931755153 123.15322580677457,215.9929271361907 110.8352534561418,216.06614361488027 110.21313364058733,209.84271461021854 104.48963133641519,204.86393015494104 102.31221198150888,198.56717965338612 103.24539170507342,192.05071330518695 109.59101382480003,183.92334701743675 116.49654377880506,182.6053865191643 125.08179723517969,184.5823263025959 128.56566820270382,189.4148214321467 130.9297235023696,195.85809453122783 130.99193548364565,199.22614466311643 129.37442396348342,203.6924461305607 123.33986175130121,209.84271461021854 123.33986175130121,215.9929271361907 111.27073732740246,216.21257654868532 110.15092165907845,210.28201736032497 104.48963133641519,204.7174947630847 102.37442396325059,199.59223605750594 102.56105990801007,193.5150932377437 105.42281105997972,188.38974959467305 110.21313364058733,183.9965669696685 115.50115207396448,182.75182670145296 119.73156682029366,183.0447069707443 126.20161290327087,185.75384344585473 129.68548387102783,191.90427513746545 130.4942396315746,200.1779818761861 128.814516129205,204.7174947630847 123.46428571431898,209.76949745742604 123.2776497695595,215.7000611416879 111.6440092169214,216.21257654868532 110.8352534561418,215.7732776523917 110.15092165907845,210.06236602109857 105.92050691251643,206.62115238513798 102.80990783404559,201.1298177493154 102.31221198150888,195.71165718819248 103.61866359459236,190.9524262738414 109.52880184329115,183.9965669696685 112.57718894002028,182.75182670145296 120.16705069132149,183.11792701826198 124.77073732716963,184.8752057789825 128.814516129205,189.56126013939502 130.6186635948252,195.56521981360856 129.99654377880506,201.71556223585503 126.94815668207593,206.69436987885274 123.40207373257726,209.915931755153 123.2776497695595,215.40719502046704 118.11405529966578,215.7000611416879" stroke="#4DD2FF" stroke-linecap="round" stroke-linejoin="round" stroke-width="0.5"><title>2020-04-07 10.0km</title><desc>1586257895000</desc></polyline><polyline fill="none" points="187.75,180.97846002993174 183.55376766086556,181.87641298648668 173.1267660909798,188.2368796808878 176.17857142863795,195.12108352046926 175.79709576140158,200.95763738715323 172.99960753507912,206.34518180636223 168.8669544737786,209.78720207873266 168.549058084609,216.3718887299765 156.15109890094027,216.0725861529354 155.3245682886336,210.16133368352894 150.55612244852819,206.19552836206276 147.88579277833924,200.80798277590657 147.50431711110286,195.04625558666885 150.81043956032954,187.1892774301814 155.13383045513183,182.9988525409717 158.88500784896314,182.02607169921976 165.1793563575484,182.6247062254115 171.34654631046578,185.39338416152168 175.98783359490335,194.82177173666423 175.2248822604306,202.37935457850108 172.36381475627422,206.71931527537527 168.80337519641034,209.86202841589693 168.8669544737786,216.0725861529354 156.3418367342092,216.4467143539805 155.19740973273292,210.16133368352894 149.34811616921797,204.25003063573968 147.56789638916962,199.53591727017192 148.01295133423992,192.6517574248137 150.93759811576456,187.1892774301814 157.93131868098862,182.699535504682 164.03492935630493,182.32538902712986 171.66444270010106,185.16889717470622 175.54277864983305,194.07349170942325 174.77982731559314,202.82831729424652 171.91875981120393,207.4675816053641 168.8669544737786,210.01168106583646 168.48547880654223,215.9229348154622 156.5325745679438,216.52153997001005 155.5788853999693,210.46063882147428 150.42896389309317,206.1207016276894 147.88579277833924,200.6583281319472 148.01295133423992,192.6517574248137 150.42896389309317,187.9375649142894 155.19740973273292,183.52265704231104 160.02943485067226,182.02607169921976 164.73430141271092,182.17573037924012 172.3002354784403,186.51581800176064 175.35204081633128,192.05313158762874 175.54277864983305,200.88281008560443 172.6181318683084,206.27035508822883 168.61263736267574,210.08650737878634 168.48547880654223,215.99776048818603 156.4689952901099,216.3718887299765 155.5153061223682,210.16133368352894 149.72959183645435,205.07312649628147 147.6314756667707,199.91005442669848 147.75863422243856,193.7741794717731 150.87401883793063,187.41376376058906 155.83320251153782,183.07368177978788 163.7806122447364,181.95124234678224 171.41012558853254,185.76752897771075 174.58908948185854,189.80828007805394 175.73351648333482,193.62452330405358 176.0514128729701,198.86246987769846 175.034144426696,202.6038359727827 172.3002354784403,206.8689686061698 168.61263736267574,210.08650737878634 168.549058084609,216.14741180930287 156.59615384601057,216.3718887299765 155.5788853999693,210.68511759012472 149.92032966995612,205.07312649628147 147.56789638916962,199.46108981448924 147.94937205617316,192.80141380330315 150.55612244852819,187.63825001794612 154.30729984282516,184.04646114638308 157.8041601255536,182.699535504682 165.81514913635328,182.40021833893843 170.07496075332165,183.7471445640549 173.5082417577505,188.16205100133084 175.79709576140158,193.32521087187342 175.6699372055009,201.70590995799284 172.17307692300528,207.2431017914787 168.80337519641034,210.38581254938617 168.23116169543937,216.14741180930287 156.40541601227596,216.52153997001005 155.3245682886336,210.23615998023888 150.49254317069426,205.8962213761988 147.94937205617316,201.10729196621105 147.25,196.61764049483463 149.03021978004836,190.25725096359383 154.87951334333047,183.7471445640549 159.90227629477158,182.25055970728863 164.28924646764062,182.40021833893843 170.4564364203252,184.34577759884996 173.63540031388402,187.9375649142894 176.1149921505712,195.195911446237 176.1149921505712,199.23660739918705 174.46193092595786,204.3248575727921 168.67621664027683,210.38581254938617 168.42189952917397,216.22223745752126 159.83869701693766,215.99776048818603" stroke="#4DD2FF" stroke-linecap="round" stroke-linejoin="round" stroke-width="0.5"><title>2020-04-02 10.0km</title><desc>1585825459000</desc></polyline><polyline fill="none" points="52.75,229.5272846892476 52.20352323842235,231.0994915967458 44.85644677653909,233.24340406869305 37.02361319353804,238.17437631468056 39.634557720972225,243.0338491377188 40.24175412277691,248.1076722717262 38.177286356687546,254.11045488587115 33.07683658157475,259.5414968584664 32.34820089954883,265.4012551647029 20.690029985038564,265.11541450361256 19.83995502255857,259.25565365870716 14.678785607218742,254.61068430513842 12.735757121350616,250.03714406804647 12.614317841129377,244.7489486472332 13.828710644738749,240.38972865859978 17.411169415339828,235.95901653170586 23.604572713607922,232.67169475730043 30.10157421277836,233.10047678725095 33.80547226383351,234.4582847103011 36.47713643172756,236.74511279002763 39.45239880052395,243.60554946947377 39.81671664188616,249.60837304533925 37.81296851555817,254.75360692694085 32.712518740678206,259.32711447030306 32.53035982022993,265.4727153107524 20.6293103445787,265.3297950110864 20.082833583001047,259.4700360702118 15.650299849919975,255.96844796015648 13.342953523155302,252.39537971193204 12.371439280221239,244.32017418782925 15.468140929471701,237.6741344332695 23.240254872245714,232.7431584483711 29.372938530752435,232.95754947513342 34.048350824508816,234.52974820765667 36.841454272624105,237.17389217257733 39.45239880052395,243.46262443310115 39.9381559221074,248.75083016400458 37.387931034201756,255.11091334518278 32.95539730112068,259.25565365870716 32.712518740678206,265.4012551647029 20.568590704817325,265.11541450361256 20.082833583001047,259.684418411809 14.193028485635296,253.82460933330003 12.371439280221239,246.17819483269705 13.950149924959987,240.0324142674799 19.900674662552774,234.1009671066422 25.85119940014556,232.52876735222526 34.41266866563819,234.81560212024488 38.9059220389463,241.17581963760313 40.05959520232864,248.1076722717262 38.66304347803816,253.3243793179863 32.712518740678206,259.4700360702118 32.65179910045117,265.3297950110864 20.7507496252656,265.3297950110864 19.71851574233733,259.32711447030306 15.650299849919975,255.82552560174372 13.03935532248579,251.96661022177432 12.371439280221239,245.10626048385166 15.71101949037984,237.6741344332695 22.815217391354963,232.17144870350603 28.583583208266646,232.81462213164195 36.23425787081942,237.1024289613706 39.755997001426294,243.53408695512917 39.9988755621016,248.9652159890975 36.962893553078175,255.82552560174372 32.89467766135931,259.25565365870716 32.46964017977007,265.25833484972827 20.811469265492633,265.4012551647029 19.900674662552774,259.18419283942785 15.650299849919975,255.8969867846463 13.464392803609371,252.75268740748288 12.432158920681104,245.03479813196464 15.103823088575155,238.46022864803672 20.204272863687947,233.52925853861962 24.63680659653619,232.52876735222526 30.89092953503132,233.52925853861962 33.92691154405475,234.4582847103011 36.416416791500524,237.17389217257733 39.755997001426294,243.8199369663489 40.12031484255567,249.2510636469815 37.20577211375348,255.39675834064838 32.95539730112068,259.5414968584664 32.46964017977007,265.3297950110864 20.690029985038564,265.3297950110864 20.082833583001047,259.4700360702118 15.528860569698736,255.39675834064838 12.553598200902343,249.3939874296193 12.25,245.17772282805527 13.767991004511714,240.31826579582412 19.414917541202158,234.0295035627787 25.061844078125432,232.4573036378133 32.044602698646486,233.95804001117358 36.47713643172756,237.38828175910749 39.81671664188616,244.17724930605618 39.9381559221074,249.82275859150104 36.90217391285114,255.7540644109249 33.01611694158055,259.18419283942785 32.712518740678206,265.0439543190878 31.4374062968418,265.25833484972827" stroke="#4DD2FF" stroke-linecap="round" stroke-linejoin="round" stroke-width="0.5"><title>2020-03-23 10.0km</title><desc>1584960411000</desc></polyline><polyline fill="none" points="87.82660359295551,227.25 88.42621283396147,232.6215094718209 89.3256266952958,235.40525308711221 89.25900344620459,247.24572613398777 87.85991521750111,246.93207621367765 87.19368272763677,248.8531777097087 83.86252027831506,249.9509454150102 79.19889284914825,252.6561444767285 80.66460432682652,255.6357606232341 80.86447407398373,258.8505821142171 79.7651904654922,261.7909426235128 76.76714426127728,264.5352575488796 76.83376751013566,267.4363678470254 70.37131235841662,267.6323879743868 69.87163799093105,264.3784401137091 67.63975914998446,262.4966255914478 66.04080117412377,259.7130903392099 65.67437330482062,257.39999546445324 66.04080117412377,254.81244808784686 67.40657777839806,252.53852754662512 71.20410297065973,249.48047394902096 74.43533054669388,249.5588859024865 77.86642786941957,250.65665146740503 79.13226960028987,251.83282516355393 80.79785082489252,255.36132331955014 80.9310973228421,258.1840970781632 79.66525559220463,261.83014726889087 76.96701400820166,264.2216226105229 76.60058613866568,267.5147759106476 70.3380007337546,267.75 69.80501474195626,264.41764447884634 67.53982427646406,262.41821644071024 66.10742442321498,259.7130903392099 65.874243051745,255.71417124327854 67.43988940294366,252.7345557421213 71.03754484828096,249.51967992790742 75.26812115893699,249.67650380081614 78.36610223690514,251.00950397746055 80.49804620444775,254.49880472457153 80.9310973228421,258.45853224169696 79.66525559220463,261.83014726889087 76.93370238365605,264.45684883985086 76.83376751013566,267.55397993620136 70.27137748489622,267.6323879743868 69.83832636661828,264.33923574423534 67.57313590100966,262.1829888866341 66.04080117412377,259.7130903392099 65.90755467617419,255.83178714147652 67.30664290499408,252.61693883757107 71.67046571348328,249.48047394902096 76.86707913468126,250.06856318598147 79.16558122471906,251.83282516355393 80.53135782887693,254.49880472457153 80.9310973228421,258.3017121735902 79.7651904654922,261.67332866168 76.96701400820166,264.45684883985086 76.86707913468126,267.59318395741866 70.27137748489622,267.71079599577934 69.80501474195626,264.2216226105229 67.30664290499408,261.9477611796756 66.17404767230619,259.94831949847867 65.9408663008362,255.32211797349737 67.47320102737285,252.53852754662512 71.07085647271015,249.7549157118483 74.73513516702224,249.7549157118483 78.13292086531874,250.89188651242875 79.19889284914825,251.7544137025834 80.76453920034692,255.4789393323881 80.9977205718169,258.4977372479043 79.49869746959303,261.9477611796756 76.96701400820166,264.4960531964025 76.83376751013566,267.59318395741866 70.23806586046703,267.59318395741866 69.80501474195626,264.30003137062886 66.30729417025577,260.1443436809059 65.84093142731581,258.4193272309785 65.97417792514898,255.12609117929242 67.63975914998446,252.34249924489995 71.50390759110451,249.9117394828936 76.10091177118011,250.1861809186812 79.29882772266865,251.87203088749084 80.59798107796814,254.38118839330855 80.96440894738771,258.57614724803716 79.56532071856782,262.1829888866341 77.03363725717645,264.33923574423534 77.03363725717645,267.55397993620136 70.17144261137582,267.59318395741866 69.93826123990584,264.33923574423534 66.80696853750851,261.2028724323609 65.8076198027702,258.65455723102787 65.9408663008362,255.00847505184356 67.47320102737285,252.34249924489995 70.77105185238179,250.14697501208866 73.80240968125872,249.79412166101974" stroke="#4DD2FF" stroke-linecap="round" stroke-linejoin="round" stroke-width="0.5"><title>2019-12-13 10.0km</title><desc>1576239112000</desc></polyline><polyline fill="none" points="131.58943785435986,228.7351511411689 131.12044966040412,227.25 131.6564361677738,233.0459293501699 131.51127315533813,233.5979081802434 131.01995219028322,233.55848120420706 130.87478917784756,234.24188030791265 130.05964303121436,234.38644500967348 128.15019109862624,235.51667219446972 128.65267844928894,236.62060486195696 128.7085103772115,237.63253431698104 128.46284989459673,238.34219409489742 127.41320965095656,239.4198176726568 127.35737772315042,239.91920096345711 127.55837266345043,245.42542256627348 128.74200953391846,245.87221717854118 129.44549182482297,246.358432975685 131.19861435936764,246.56868785219558 131.37727652851027,246.83150593558094 131.70110171008855,260.4709832555309 131.96909496374428,262.8886112300388 131.89093026483897,267.3558405947115 131.39960929966765,267.53978180976264 125.69358627311885,267.47408855063986 123.48264193022624,267.75 122.18734120402951,267.605475033306 121.87468240800081,265.14852427653386 121.62902192550246,254.04564009405294 117.43046095099999,253.44119358181342 117.22946601069998,253.17838981148088 116.42548624961637,253.060127929195 116.16865938145202,252.1534496700042 116.40315347845899,251.73295890303416 116.28032323718071,251.45701104543696 115.21951660804916,250.53718032218603 114.24804106337251,250.8262707292597 113.72322094155243,250.65544466285064 113.25423274759669,249.9852785420153 113.03090503619751,249.06543666435755 113.06440419290448,242.40294522049226 113.343563832168,240.655130487954 113.63388985698111,239.97176750608924 113.56689154356718,239.23583383690857 114.91802419757005,230.25971216129255 116.65998034662334,230.23342678878544 120.40071951271966,230.53570822881738 120.59054806741187,230.69341998543678 127.50254073558608,231.96824915814796 129.95914556103526,232.6516572196997" stroke="#4DD2FF" stroke-linecap="round" stroke-linejoin="round" stroke-width="0.5"><title>2019-11-23 10.0km</title><desc>1574497580000</desc></polyline></svg>