<?xml version="1.0" encoding="utf-8" ?>
<svg baseProfile="full" height="300mm" version="1.1" viewBox="0,0,200,300" width="200mm" xmlns="http://www.w3.org/2000/svg" xmlns:ev="http://www.w3.org/2001/xml-events" xmlns:xlink="http://www.w3.org/1999/xlink"><defs /><rect fill="#222222" height="300" width="200" x="0" y="0" /><text fill="#FFFFFF" style="font-size:12px; font-family:Arial; font-weight:bold;" x="10" y="20">Over 10km Runs</text><text fill="#FFFFFF" style="font-size:4px; font-family:Arial" x="10" y="280">Runner</text><text fill="#FFFFFF" style="font-size:9px; font-family:Arial" x="10" y="290">Floyd Li</text><text fill="#FFFFFF" style="font-size:4px; font-family:Arial" x="65" y="280">SPECIAL TRACKS</text><rect fill="yellow" height="2.6" width="2.6" x="65" y="283" /><text fill="#FFFFFF" style="font-size:3px; font-family:Arial" x="70" y="285.5">Over 20.0 km</text><rect fill="red" height="2.6" width="2.6" x="65" y="287" /><text fill="#FFFFFF" style="font-size:3px; font-family:Arial" x="70" y="289.5">Over 40.0 km</text><text fill="#FFFFFF" style="font-size:4px; font-family:Arial" x="120" y="280">STATISTICS</text><text fill="#FFFFFF" style="font-size:3px; font-family:Arial" x="120" y="285">Number: 35</text><text fill="#FFFFFF" style="font-size:3px; font-family:Arial" x="120" y="290">Weekly: 1.9</text><text fill="#FFFFFF" style="font-size:3px; font-family:Arial" x="141" y="285">Total: 573.4 km</text><text fill="#FFFFFF" style="font-size:3px; font-family:Arial" x="141" y="290">Avg: 16.4 km</text><text fill="#FFFFFF" style="font-size:3px; font-family:Arial" x="167" y="285">Min: 10.0 km</text><text fill="#FFFFFF" style="font-size:3px; font-family:Arial" x="167" y="290">Max: 62.1 km</text><polyline fill="none" opacity="1" points="42.301684011355974,49.38820240290079 42.21176915799151,49.51320203153591 40.912090823054314,49.61897081083589 36.92314096502378,49.484355978973326 22.316064333019312,49.51320203153591 21.204389782389626,49.628586148166505 19.888363292324357,50.12858225710079 18.637729422887787,50.93626234140538 17.59962157049449,51.945852132339496 16.422554399207,51.67662930864026 14.632431409612764,50.97472311485035 13.340927152341465,50.19588921095419 11.714285714289872,48.782432483072625 14.297294228919782,46.724707020737696 16.05472090819967,44.86886705303914 17.55875118257245,43.01298835279158 18.09824030273012,42.676425890022074 18.97286660358077,42.378326644909976 37.446281929995166,42.33986215337791 37.5525449384877,42.551416650851024 37.57706717122346,43.53225365348044 37.487152317859,49.49397133086313 26.90989593186532,49.47474062604306 21.204389782389626,49.60935547245026 21.212563859997317,46.11891895752342 34.3156102175999,46.0708403630706 34.11125827813521,46.24392318151513 34.23386944181402,47.33049095720344 34.07856196782086,46.21507606850355 34.29926206241362,46.080456084055186 41.22270577104064,46.080456084055186 42.16272469254909,46.09968752286659 42.32620624406263,46.253538883778674 42.301684011355974,49.34012557587994 42.56325449387077,49.551663420359546 42.571428571420256,49.84012330654514" stroke="#4dd2ff" stroke-dasharray="none" stroke-linecap="round" stroke-linejoin="round" stroke-width="0.5"><title>2026-06-07 13.9km</title><desc>1780824448000</desc></polyline><polyline fill="none" opacity="1" points="53.26004438254313,39.52366628360596 53.49899039711454,39.52366628360596 53.72642094109324,39.560881987526045 53.79983206604811,41.183062633026566 53.825741874861706,41.35389776532975 54.13809901438799,42.31798199511468 54.356892955438525,43.195754592011326 54.556974256789545,43.82149701925664 54.68652330082841,44.08024268558529 55.10539854323724,44.68903921104902 55.18600683729892,44.90211242267651 55.22487155051931,45.12532887904763 55.22918985199067,45.29443014429944 55.20040117553435,45.50749514787185 55.00031987418333,46.07903620819252 54.94130308744934,46.3681807211733 54.92834818304982,46.866984776259415 55.086685903545,48.324416449887394 55.34578399162274,49.462201335797545 55.32131361663778,49.62956542124266 55.21191664611251,49.91357312699256 55.19320400642755,50.123194572552165 55.278130601960584,51.01743532719047 55.42063455040625,51.43157497471748 55.44654435921257,51.570182544081945 55.38176983719313,52.80069376377651 55.43646832245577,52.99337499322792 55.5012428444752,53.10661636939858 55.820797153115564,53.395631710098314 55.91867865306267,53.559573725221526 55.93307299129083,53.738724902270405 55.84094922663644,54.130822249082485 55.86110130015004,54.284616386024936 55.917239219234034,54.42826889278058 55.632231322342705,54.66656015980152 55.33282908722322,54.98934612305311 55.05501835944597,55.2360785738565 54.641900852329854,55.8343042143797 54.407273139222525,56.22634936592385 54.33818031573901,56.305771116925825 54.12802297763119,56.457854202871204 54.05749072031904,56.56769107357832 54.07620336001128,56.61162560732373 54.22590447757102,56.66569871132742 54.539701050918666,56.679216958321376 54.56561085973226,56.70118408491726 54.571368595010426,56.83636572787327 54.59296010235994,56.85833263523364 54.814632911053195,56.95126921190058 54.97441006536974,56.94113070291951 55.1600970284926,56.80257042593621 55.64230735910678,56.54403396616908 55.62791302087862,56.511927834972084 55.38033040337177,56.46799302303589 55.357299462208175,56.39533133424811 55.39040644013585,56.2838034386441 55.614958116471826,56.304081296604636 55.66389886644174,56.09454217157145 55.69988471200486,56.079333578137266 55.81647885165148,56.09116248540977 55.84814639574324,56.118199954379634 55.813599984001485,56.38181284352504 55.83375205752236,56.42912751028052 56.39225238071958,56.24831712436844 56.659987071754585,56.2331086794793 57.208411358202284,56.14861705146086 57.56826981386985,56.300701655428384 57.75827507847134,56.349706381533 57.93244657100877,56.36322489982558 58.50965953392006,56.53051560311724 59.13293437914399,56.85157359007826 59.4150634083926,56.910715136807084 59.651130555306736,57.00196165887883 60.165008430012676,57.035756532875894 60.258571628488426,56.96647696312539 60.28736030494474,56.85664287421423 60.37084746666369,56.78736251640203 60.876088738426915,56.562621696408314 60.90775628252595,56.57614003189519 60.73214535615989,56.22634936592385 60.62274838562735,56.15030688846764 60.4960782092312,56.133408510268055 60.50039651070256,55.89175971780969 60.53782179008704,55.84444343610721 63.11296889890218,55.12961230572546 63.39941622961487,55.0941233896674 63.684424126498925,55.09750328988321 66.59639874981804,55.33747435024543 66.95049947020016,55.340854198206216 67.4543013081493,55.26987723855473 68.07901558719459,55.07553392551199 68.43311630758399,55.006245729356124 71.3825162102803,54.80344925621284 71.75820843800466,54.72739990517948 72.11950632750813,54.58882014292976 72.42898459938442,54.40798861836902 72.73270513597527,54.154482983349226 73.31135753270064,53.48689860966988 73.79356786329299,53.003516045211654 74.20092763512366,52.52856976269504 74.51184534082859,52.07220217761278 74.87170379650343,51.260849338836124 75.01276831112773,51.06814689022394 75.23012281834963,50.90925011298896 76.34136572947318,50.24490896856423 76.551523067581,50.04712259672942 76.64652569988539,49.88821550463581 76.70698192044074,49.705639416749364 76.83077322919416,49.22383123010695 76.92433642766264,48.68114538496775 76.99486868497479,48.41402210940487 77.2208597951394,47.79522544361316 77.53177750084433,47.123989500584685 77.78223898598662,46.74017168649971 78.21838743426633,46.26503621278971 78.45589401500911,45.94714396206382 78.62430777226837,45.617408504414925 78.86757208830386,44.92578704562948 78.92227057357377,44.93762434373275 78.94098321326601,44.993428628965376 78.98992396323592,44.97482722257064 79.0,45.02048518077481 78.93810434562329,44.993428628965376 78.92227057357377,44.912258694024786 78.84454114713299,44.90380346835809 78.56385155172029,45.66982844989616 78.49044042675814,45.806795869281814 78.44293911060231,45.828778183452414 77.94057670648908,45.608953658129394 76.99486868497479,45.34346917087714 76.63357079547859,45.27921110493935 74.89329530383839,45.20311568705438 72.82770776827238,45.01879414765335 71.1723588721652,45.010338979303924 70.35619989469706,44.881819860330324 68.83615777793602,44.49794728602683 68.26902085179609,44.388026099320086 67.79112882265326,44.35082183118175 66.71587175710738,44.3981727026121 66.45821310283645,44.37111507926602 65.86660580171156,44.191857147747214 64.84892608906375,43.94495136542446 64.70498270679673,43.8688494858925 64.62149554508505,43.79105607248766 64.53512951572338,43.657453441971484 64.37391292757093,42.9217730352766 64.14936125123495,42.48711347800236 64.07738956010144,42.392400071944394 63.9147335381349,42.30783404823251 63.68586356032756,42.257094215469806 63.61389186919405,42.155614058221545 63.53760187658918,42.13193526052601 63.40085566343623,42.19958887352368 63.3332022737668,42.143774663836666 63.24107850911241,42.170836123600566 63.123044935651706,42.295994768578566 62.86538628139533,42.32982125819308 62.51416442865593,42.338277869213016 62.28673388466996,42.27400751126788 62.0751371127335,42.10149103960339 61.89808675254608,41.57716464186251 61.71527865705866,41.28793194438822 61.500803017479484,41.16107381763959 61.01715325305122,41.020682962847786 60.72638762086717,40.90904596565633 60.68176517236134,40.89889710837997 60.64577932679822,40.9208862908572 60.59395970917831,40.88705676659811 60.42554595191905,40.8616845755696 60.009549577160215,40.71114206563652 59.50862660686107,40.662088576504175 59.363243790772685,40.619800962886075 59.31142417315277,40.628258494719375 59.2581651217115,40.591045320576086 59.04656834978232,40.592736830406466 57.6690301814524,40.36438135543176 55.5041217121252,39.525357908426486 55.328510785759136,39.50675002539265 53.78975602929131,39.48306723327096 53.12185873556882,39.49829188945114 52.8512451768911,39.477992344595805 52.66123991229688,39.410327005528416 52.52737256678665,39.330819859473195 51.970311677403515,38.840234944726944 50.84899272953044,38.344559443416074 49.58516983319714,38.09248637591554 49.127429877575196,37.8488682895204 48.51423106911534,37.41406828041727 48.14573601050506,37.24995775283878 48.142857142855064,37.277027648767216 48.51998880440078,37.44621344050938 49.15621855403151,37.89623876911901 49.51463757588499,38.085719257899655 49.65858095815929,38.13985612028955 50.78277877368237,38.35132644984151 50.95551083240571,38.40546239619289 51.96887224358943,38.865610402495804 52.4597191771245,39.30882845012002 52.57487388293521,39.388335707542865 52.77351575047214,39.476300714674835 53.018219500328996,39.520283033424676 53.07147855177027,39.56257360833479 53.04700817678531,39.5574987453565 53.025416669443075,39.53550765350974 53.16504175023874,39.560881987526045 53.254286647243134,39.52366628360596 53.45724681625143,39.52366628360596 53.475959455943666,39.46107603717155 53.509066433864064,39.154887722082094 53.475959455943666,39.022937325197745 53.36224418395432,38.85038513275504" stroke="red" stroke-dasharray="none" stroke-linecap="round" stroke-linejoin="round" stroke-width="0.5"><title>2026-06-06 62.1km</title><desc>1780699923000</desc></polyline><polyline fill="none" opacity="1" points="110.31561528972816,31.714285714304424 110.61108123196755,38.07979128822626 109.98161031142808,38.548498750373255 109.93022493016906,39.364953151278314 108.33727811084827,39.894134008383844 107.02695088845212,40.771057868827484 107.48941931989975,42.40393589404994 107.39949490269646,43.12965332948079 106.92418012593407,44.32405506024952 105.90931884589372,45.382377168003586 105.85793346457649,46.51628480825457 106.12770671630278,52.170566765533295 108.58135867188685,53.44048095277685 110.2128445270937,53.57654250205087 110.43123239756096,53.84866520273499 110.6239275772823,60.98413784080185 110.46977143350523,61.78534398863849 107.84911698882934,62.3295568634494 103.21158632927109,62.57142857143481 95.27254492323846,61.60393922570802 89.62015298375627,61.51323675585445 89.3760724227177,55.919803932716604 89.38891876803245,54.42314471793361 89.56876760243904,54.1812588943867 100.48816112207714,53.81842937327747 103.3272034371621,52.24615721905138 103.39143516373588,46.7430652310577 103.0574301854358,45.306782997839036 102.41511291958159,44.762503764097346 101.75994930841262,43.77977199469751 101.55440778337652,42.34345927083632 101.99118352419464,41.07344412949169 102.65919348067837,40.33259662728233 103.27581805590307,39.95461169288319 104.50906720629428,39.697581352782436 105.25415523472475,39.80341743250028 106.42317265860038,40.39307412180642 107.36095586669398,41.99571817854303 107.19395337766036,43.8251289978798 105.87077980994945,45.48820893750235 106.03778229904128,51.943795159386354 106.20478478819132,52.21592104257434 108.55566598125733,53.4102450349601 110.19999818189535,53.59166044379526 110.43123239756096,53.81842937327747 110.54684950539377,61.66440750619222 110.05868838331662,61.996982580880285 108.4785879093688,62.2690888709767 103.98236704833107,62.55631160197663 100.37254401418613,62.34467385750031 95.20831319666468,61.60393922570802 89.62015298375627,61.54347091903037 89.45315049454803,54.21149464524933 100.23123421572382,53.84866520273499 101.45163702085847,53.42536299469066 103.37858881842112,52.14033057265624 103.18589363864157,45.53356538555818 101.92695179756265,44.06703276599001 101.55440778337652,42.94822432435467 101.87556641630363,41.26999484763655 102.27380312111927,40.680341862884234 103.26297171053011,39.95461169288319 104.25214029999916,39.72782024090702 105.40831137850182,39.848775727819884 106.33324824133888,40.3477160033508 106.78287032747176,40.831535173376324 107.65642180899158,42.61560386912606" stroke="#4dd2ff" stroke-dasharray="none" stroke-linecap="round" stroke-linejoin="round" stroke-width="0.5"><title>2026-06-05 14.5km</title><desc>1780659860000</desc></polyline><polyline fill="none" opacity="1" points="148.89786223281408,36.12585850328469 149.73159144894453,38.32624202254374 149.8690193417715,40.03042718287179 149.81404818460578,42.24150998528785 151.79300984053407,50.01765966102539 151.8113335595699,51.225550707364164 151.44485917885322,52.02361353296146 148.2656939260196,55.88442168827896 147.93586698337458,56.52068575072917 147.65184933837736,57.72849786532606 132.45232439768733,57.67457799420663 125.63590091618244,58.159855782432714 124.55480149301002,55.14031109869393 123.53783508652123,53.576582307287026 121.72378690191545,51.462813297061075 121.19239904987626,50.287279469368514 121.0,49.208795852529875 121.09161859517917,48.19501059383765 121.46725483541377,47.17042989052425 123.1988462843583,44.937885920197004 123.86766202916624,43.75148951234587 124.92127587378491,37.42020764483459 125.09535120462533,37.204483957561024 144.52765524259303,36.82696637906338 148.9619952493813,36.17979005379311 149.7774007465341,38.585107471837546 149.88734306074912,42.672935045957274 151.85714285710128,50.5784680417637 151.73803868342657,51.462813297061075 151.47234475740697,51.96969057068782 148.1649134713225,55.927558363444405 147.64268747880124,57.750065805572376 132.46148625720525,57.66379401648737 125.59925347811077,58.149071857311355 125.131998642697,56.488333438916015 124.45402103837114,54.967762920881796 123.82185273157666,53.95403633427486 121.79708177805878,51.592229016641795 121.24737020698376,50.4921900350746 121.00916185951792,49.208795852529875 121.09161859517917,48.18422558875318 121.46725483541377,47.15964477439411 123.24465558194788,44.88395911769476" stroke="#4dd2ff" stroke-dasharray="none" stroke-linecap="round" stroke-linejoin="round" stroke-width="0.5"><title>2026-06-04 19.5km</title><desc>1780570902000</desc></polyline><polyline fill="none" opacity="1" points="164.19490556581877,47.64517969486769 164.63223729797755,47.65420483535854 164.23326799843926,47.65420483535854 164.21025053886115,47.53687793325662 165.85983514261898,47.50980247087864 172.30472382708103,58.51074234316911 172.18963652913226,58.50171837613016 172.1359291234112,62.47216970658337 171.3149730648147,62.57142857142753 160.76530408731196,62.52631092019146 160.4737495991867,62.50826385290566 160.34331732819555,62.318769410696405 160.38167976084515,53.18643233846524 178.1895209948998,53.159358708209766 180.86721879351535,53.57448674100306 183.23034464451484,53.2315550360654 184.9873440596857,53.29472677176091 185.27122606124613,53.11423597156681 185.37096838609432,52.879597348030074 185.33260595347383,52.37421961160726 184.99501654622145,50.352678075076255 182.53214837037376,38.231426887141424 182.4017160993535,38.09603439432249 182.01041928638006,38.16824375116266 181.92602193457424,38.06895586942119 181.81093463665457,36.98580766785744 180.26109235774493,31.714285714282596 182.2405938822485,38.7459163567255 185.0026890327572,52.86154819584044" stroke="#4dd2ff" stroke-dasharray="none" stroke-linecap="round" stroke-linejoin="round" stroke-width="0.5"><title>2026-06-02 16.9km</title><desc>1780401150000</desc></polyline><polyline fill="none" opacity="1" points="38.654662816319615,90.81215366678953 38.39782571763499,92.0321987367206 23.19857312721433,91.94582435588381 16.300662476569414,92.4748662633283 15.392559877655003,89.6568759803049 14.411075250478461,88.04810249416187 12.448105996241793,85.74826709606714 11.96195005933987,84.76569212434697 11.714285714260768,83.4699740487049 11.888568031194154,82.12024979852868 12.273823679191992,81.23482075681386 14.025819602480624,79.02121371877001 14.64956684212666,77.75781594400905 15.631051469244994,71.7105619279755 15.796161032747477,71.46218471625616 35.24239850509912,71.08421820548392 39.62697468994884,70.38227659381664 40.39748598600272,72.28290705748077 40.580941056483425,76.71037145028822 42.57142857136205,84.78728728282294 42.516392050194554,85.52151988582045 42.23203669092618,86.20175996833132 38.994054696755484,90.03477202484646 38.36113470350392,92.0321987367206 23.189400373667013,91.94582435588381 16.33735349070048,92.45327277106117 15.181586546590552,89.26818141055264 14.438593511062209,88.13448025404068 13.136062510544434,86.72003500894061" stroke="#4dd2ff" stroke-dasharray="none" stroke-linecap="round" stroke-linejoin="round" stroke-width="0.5"><title>2026-05-28 19.4km</title><desc>1779966212000</desc></polyline><polyline fill="none" opacity="1" points="77.27032110875007,84.79207241776749 77.54741628019838,85.05702314789232 77.72060076228809,95.75664483505534 77.09713662660215,96.14385783567559 73.3390333642019,96.69410651906219 68.40327562310267,96.85714285714494 64.19489270710619,96.61258829713915 57.05969204293797,95.5732278725045 49.52616706979461,95.51208884535299 49.231753450178076,87.93069556844421 49.40493793232599,85.62768499217054 64.26416649995372,85.05702314789232 68.09154355537612,83.01893100830785 67.84908528020605,74.09182738690288 66.1691958035226,72.13514535618015 65.59768701245775,70.52494384169404 65.6150054607424,69.79117655633308 66.48092787136557,67.52870941445872 67.69321924634278,66.52995400343207 69.2345611374476,66.06114861504466 71.79769147309707,66.65225086922874 72.66361388383666,67.52870941445872 73.39098870876478,68.91472854897438 73.54685474274447,69.9542362003267 73.2351226748433,71.60520713828737 71.46864095702767,74.03068138140952 71.67646233562846,82.69283421788714 74.7071907731588,84.4455978233018 77.30495800520293,84.79207241776749 77.58205317653483,85.09778476557403 77.91110369266244,95.28791224228917 77.70328231411986,95.87892271079181 73.54685474274447,96.65334741250263 67.65858234994812,96.8367633226444 64.1429373624851,96.59220873609593 56.93846290552756,95.5324685232772 50.097675860859454,95.61398721300066 49.52616706979461,95.3286716445582 49.33566413947847,85.72958871080482 50.21890499838628,85.48501969326753 64.09098201792222,85.07740395786823 68.09154355537612,82.95778790314216 67.88372217677534,73.96953535600915 66.1691958035226,72.05361649669067 65.66696080536349,69.48543934291229 66.72338614641922,67.28411674268136 68.12618045171257,66.32612571724167 69.13065044820542,66.10191434735316 70.48148940881947,66.18344578548567 71.83232836954994,66.7133992723102 72.43847405706765,67.18220303564158 73.32171491597546,68.77205058000982 73.52953629451804,70.44341428455664 73.20048577844864,71.72750070563052 71.46864095702767,73.8472432456474 71.67646233562846,82.71321528381668 74.67255387658952,84.40483606442285 77.63400852127234,85.03664233571908 77.87646679626778,95.38981073132891 77.63400852127234,95.96044125045591 74.13568198197754,96.61258829713915 68.83623682847247,96.85714285714494 63.83120529464213,96.57182917289902 56.97309980186401,95.5732278725045 49.57812241453212,95.5324685232772 49.35298258764669,85.70920797149302 52.07197895727586,85.40349661678192 64.40271408570698,85.03664233571908 68.10886200348614,82.87626373200328 67.83176683209604,73.94915334314283 65.92673752852716,71.50329577145749 65.68427925358992,70.66762048153032 65.77087149460567,68.95549366307387 67.01779976603575,66.99875822391186 67.7624930391903,66.46880554077507 69.8407068249071,66.0 71.45132250891766,66.48918836384837 72.23065267846687,67.05990651437605 73.16584888205398,68.26248552207835" stroke="#ffcd00" stroke-dasharray="none" stroke-linecap="round" stroke-linejoin="round" stroke-width="0.5"><title>2026-05-27 20.2km</title><desc>1779879632000</desc></polyline><polyline fill="none" opacity="1" points="84.61756664392306,84.08503731056408 84.57142857142026,82.80328543217183 85.13431305537233,81.1739161579244 86.85987696517259,79.05569649284007 87.50580997951329,77.77388028206042 88.62235133285867,71.4188712910618 108.47095010254998,71.01691699712683 112.55878332193242,70.33250462356227 113.18626110738842,71.83168753587961 113.43540669855429,72.87458415647416 113.5461380725028,77.45885514379188 114.69958988385042,81.18477870745846 115.42857142857974,84.1936595976149 115.22556390985847,85.03004726424842 115.19788106635679,86.19228866634512 111.92207792215049,90.18942723840155 111.35919343814021,92.07932312567573 95.83834586467128,92.00329351926484 89.24982911825646,92.52463823357539 89.09295967192156,92.39430230919243 88.71462747780606,90.80853498815122 88.08714969240827,89.34222096278972 87.33048530417727,88.18001608853228" stroke="#4dd2ff" stroke-dasharray="none" stroke-linecap="round" stroke-linejoin="round" stroke-width="0.5"><title>2026-05-26 19.0km</title><desc>1779792854000</desc></polyline><polyline fill="none" opacity="1" points="140.3005132827675,67.62524408806348 141.57978922576876,69.89253613635083 141.64801727613667,72.11967215372715 140.8975087228464,74.84837894978409 140.77810963481897,76.29297218863212 141.17042092402698,79.10187130016857 142.2108986909734,81.16839136273484 144.10422708664555,83.335203223789 145.89521340694046,86.18412106846517 147.07214727450628,89.33393004442041 147.4474015510641,91.78151540517865 135.88274702616036,96.83708136172208 133.54593630356248,93.50684307144547 128.65057369496208,88.63174795928353 126.3819910226739,84.4988510060357 125.63148246938363,81.69003356693429 125.39268429338699,78.33946003018355 126.12613583402708,73.82511860263185 127.507753852522,70.57472478294221 129.2987401727587,68.54821587541664 132.0790332221659,66.7825267080334 135.09812444780255,66.0 137.9125315224519,66.14045375467686 140.18111419468187,67.5048561252479 141.44333312520757,69.43105415931495 141.69918831379618,71.95915873984632 140.81222366000293,75.69105970553937 141.05102183599956,78.68053914337361 142.12561362812994,81.06807538618159 145.77581431891304,85.74274229290313 146.8674631236354,88.65181034145644 147.41328752593836,91.88182559222332 138.86772422661306,95.37258633993042 135.95097507647006,96.85714285714494 133.64827837899793,93.66733785318502 130.0321917133988,90.23673167970264 128.15592033026041,88.00981303719163 126.80841633700766,85.54211522980768 125.8532236328465,82.81356564299494 125.39268429338699,79.02161762981268 125.63148246938363,76.31303590442985 126.3819910226739,72.96236529898306 127.72949501598487,70.2938238792267 128.838200833241,68.98963554231159 131.49909479473718,67.04336821078323 134.6034710832173,66.06019447930157 137.82724645955022,66.12038893911813 140.19817120733205,67.54498545483511 141.0851358611253,68.64853861919255 141.52861818805104,69.75208522137837 141.69918831379618,71.4575534267642 140.81222366000293,75.83150612616737 141.0851358611253,78.92130049293337 142.1597276532557,81.1082017832523 144.070113061578,83.35526617837604 145.70758626860334,85.84305574315658 146.731007023016,88.23049986097612 147.4644585637143,91.70126721647102 135.86569001356838,96.75683535831922 133.5288792909705,93.54696677988977 128.9575999212684,89.01293284932035 126.53550413588528,84.96029552047548 125.68265350710135,81.81041232890857 125.42679831845453,78.5200314034737 126.17730687180301,73.54422261851141 127.32012671412667,70.89575386659999 129.00877095898613,68.84918394399574 131.36263869411778,67.14369176805485 134.02353265573038,66.18058337936236 137.53727724577766,66.06019447930157 139.75468888040632,67.14369176805485 141.2898200119962,69.1501515245618 141.69918831379618,71.55787459787098 140.79516664735274,75.91176117600116 141.0851358611253,78.86111018479278 141.85270142694935,80.62668444518931 144.39419630041812,83.71639899036381 146.11695457034511,86.6455613936123 147.03803324938053,89.31386773602571 147.4474015510641,91.66114310917328 135.9168610513443,96.79695836434257 133.88707655499456,93.90807976553333 128.92348589614267,88.95274581346894 126.68901724898024,85.28129972355964 125.61442545684986,81.48940212340676" stroke="#ffbf00" stroke-dasharray="none" stroke-linecap="round" stroke-linejoin="round" stroke-width="0.5"><title>2026-05-24 23.2km</title><desc>1779623970000</desc></polyline><polyline fill="none" opacity="1" points="159.98498748957354,78.49466040659718 159.97126176575694,78.69823277496653 159.66758012628998,79.68381424602558 159.6195400929355,80.07279225380807 159.62468723936763,80.46377755333197 159.83915167401574,82.31983873995159 160.12052901227435,83.52890024715089 160.1119504348826,83.67801243069152 159.96096747289266,84.07295248289483 159.9386631716916,84.2885540004263 160.05018467770424,85.43099916748724 160.2389133802062,85.99715871770968 160.1651376146765,87.52227929418768 160.19945192421437,87.67740350014355 160.2852376980809,87.84864301686684 160.70558798999264,88.2434952380354 160.79995234124362,88.40868604812204 160.82054092697217,88.6343101700113 160.7141665673771,89.07547806740331 160.777648040028,89.40382917423995 160.901179554392,89.57505293173926 161.1173597045199,89.71203081260137 164.8198737042767,91.08779729986964 165.09781961158296,91.15829506177397 165.65714285714057,91.21872150403942 166.25764327415527,91.15829506177397 169.1983796020504,90.32640459376671 169.6084356010906,90.25187507613919 170.09569879661285,90.24986076074492 173.53227689740743,90.53186281209491 174.0761587036759,90.53186281209491 174.65435481948953,90.43316257624065 175.33206243297172,90.21964600385945 175.73868700106686,90.1370587534293 179.3451209341074,89.88123740234369 179.731156916474,89.79461993395853 180.2081258191247,89.59721118615562 180.51523888954398,89.40584358046726 180.87553913975717,89.09763691189073 181.5034910043978,88.36839574077385 182.08854998212337,87.77813281696763 182.68390325270593,87.08711882962052 182.96871202192415,86.6479188634512 183.37533659000474,85.72516249084401 183.5589181460673,85.46122163945438 183.76651971881074,85.29600486462368 185.13394495411922,84.4819887656904 185.40674371499335,84.22810522697 185.50282378171687,84.06690754480042 185.58003097819164,83.84928847511401 185.75503395686246,83.16417490736785 185.8665554628751,82.51329382234326 185.94033122839755,82.25132291941736 186.12562849993265,81.73946151101518 186.47391874180175,81.0018728461855 186.46877159536962,80.96358193153537 186.7089717621784,80.51013093961228 186.8548075777362,80.3025474905262 187.4261408316379,79.67776789200252 187.65947813653474,79.36537027934355 187.88766829499946,78.90583400089417 188.15531990944146,78.1399151511796 188.18105564160214,78.12177458822953 188.28571428571013,78.16410254110451 188.17590849517,78.05324341410596 188.12786846180825,78.09154027761724 187.7898725128034,79.0368432992127 187.72467532467272,79.0166880821871 187.65947813653474,78.89777186030005 187.76413678064273,79.07312263521817 187.69722387703223,79.1940532478111 187.65947813653474,79.20816176842891 187.03838913379877,78.93203593385624 185.8957226259954,78.61156362125621 185.4908137733728,78.54303423908095 183.4096508995499,78.45434878410015 181.11230787560635,78.24271134267292 179.46007387107966,78.24271134267292 178.83383772191155,78.2084460081951 178.11152150601265,78.09154027761724 176.116144406049,77.59569061998081 175.56539973787585,77.49087519049135 174.8773978315221,77.4384672557735 173.66095555820357,77.49893793666524 173.37614678898535,77.46668693114952 172.664124865958,77.25100690423096 171.45969260097627,76.95671052419493 171.33616108661226,76.90026959402894 171.20405099487107,76.79746603414242 171.09424520433822,76.64426752523832 170.8746336232507,75.71295488496617 170.625854879072,75.26542454164519 170.46972477064264,75.10011783565096 170.26898605981114,74.99932034739322 170.09741451209266,74.97311291155347 168.70940069104836,75.07189459363326 168.56013344453822,75.06181485403431 168.41601334445295,75.0114160746325 168.2478732276868,74.89045845054352 168.13635172167415,74.74127630456496 167.95105445013905,74.19493694586345 167.84982723697613,73.97921922918067 167.65595138806384,73.77357946531083 167.41403550577525,73.64454944044701 165.63826998689183,73.14253353800996 162.93773382580548,72.70905515939012 160.31783629214624,71.68882921513614 160.1668533301563,71.66463345830925 158.2829977362053,71.63842135310551 157.42857142857247,71.65656819907781" stroke="red" stroke-dasharray="none" stroke-linecap="round" stroke-linejoin="round" stroke-width="0.5"><title>2026-05-23 52.6km</title><desc>1779516240000</desc></polyline><polyline fill="none" opacity="1" points="36.26177431747783,101.69491952398675 36.8864765407634,102.75692230903951 37.146769133687485,104.14568615608732 36.97324073838536,105.49359422572888 36.140304440807085,106.92318316422461 35.203251106024254,107.71966372837778 35.02972271060571,108.51614092824457 35.324720982695,117.09337450715248 39.10764000099152,118.93130237655714 40.86027679371182,118.99256633037294 41.189980744966306,119.31930708140135 41.50233185652178,129.42756941975676 41.22468642395688,130.18311474377697 38.30940938240383,130.77529680098814 34.09266937582288,131.1020171402488 26.960652327747084,130.77529680098814 19.62040120526217,129.7542920934211 13.321320454764646,129.91765321802814 13.078380701248534,129.50925014118548 12.783382429159246,122.5866834569606 13.078380701248534,119.82983837153006 27.724177267227788,119.36014963542402 31.62856616213685,117.19548208091874 31.455037766776513,108.14853648484859 29.528872578637674,105.820358367273 29.233874306664802,104.2682236515102 29.355344183335546,103.24707542303076 30.275044678535778,101.57238035615592 31.33356789010577,100.73502724459104 32.46150245971512,100.306137625259 34.19678641302744,100.38783096129191 36.105598761700094,101.4498411087261 37.11206345458049,103.45130551117472 36.97324073838536,105.53443977436109 36.29647999664303,106.82107002807606 35.27266246412182,107.6992411918618 35.04707555018831,108.41402865479176 35.25530962459743,116.76662989957549 35.480896538472734,117.17506057061837 38.795288889319636,118.84961707382172 41.20733358437428,119.25804323366901 41.363509140210226,130.04017396866402 38.587054814968724,130.75487676102784 32.06238715047948,131.12243714263604 27.377120476565324,130.81613687440404 20.33186762605328,129.7747122417204 13.442790331493597,129.8768129501259 13.13043921982171,129.61135099333478 12.800735268683638,122.13742256190744 12.991616503626574,119.82983837153006 27.22094492072938,119.40099218064279 28.834758997312747,118.95172369667853 31.66327184124384,117.15463905803335 31.42033208772773,108.18938145838911 29.737106652988587,106.33092620472598 29.251227146130987,103.77807319202111 29.754459492571186,102.26676792076614 30.86504122277256,101.04137637536041 31.992975792323705,100.44910094006627 33.138263201515656,100.28571428571013 35.55030789668672,101.02095311542507 36.93853505933657,102.81819151795935 37.02529925695853,105.33021194259345 36.400597033672966,106.61684358979983 35.13383974781027,107.90346645773388 35.04707555018831,108.49571847797779 35.23795678501483,116.90958073505317 38.65646617306629,118.76793173575425 41.155275065859314,119.17635807249462 41.50233185652178,128.5086588656559 41.31145062169526,130.0810142011178 38.29205654282123,130.79571683882386 32.44414962019073,131.14285714285506 27.94976418110309,130.8773969678441 20.696277256298345,129.79513238780783 13.078380701248534,129.83597267339064 12.870146626839414,119.89110203343444 28.05388121830765,119.31930708140135 31.455037766776513,117.35885408399918 31.715330359817017,117.01168840832543 31.73268319934141,115.52091088955058 31.472390606359113,108.59783070723643 31.298862210998777,107.96473399440583 29.91063504840713,106.57599827568629 29.37269702285994,105.49359422572888 29.251227146130987,103.83934206918639 29.4768140600645,102.87946070701582 30.344456036691554,101.49068753336906 32.35738542251056,100.36740763061971 34.0579636968323,100.36740763061971 35.8279533291352,101.16391588828992" stroke="#ffc300" stroke-dasharray="none" stroke-linecap="round" stroke-linejoin="round" stroke-width="0.5"><title>2026-05-17 22.3km</title><desc>1779013233000</desc></polyline><polyline fill="none" opacity="1" points="76.7218045112968,113.62804332852829 74.9624060150527,114.24421952151897 74.42669172934256,114.20446640492082 73.53007518799859,113.87318943457285 73.24248120302218,114.1249600946503 72.65037593984744,115.29766775581811 72.00751879700692,115.96020457911436 68.66917293236475,112.28303515422158 66.27255639099167,111.89211593495929 65.92857142857974,111.73972302422044 65.77067669172538,111.53432328656709 65.78759398497641,110.58019938709913 65.68045112784603,110.50068839437154 64.28195488723577,110.41455136965305 60.18796992482385,110.52719207002883 59.889097744366154,110.39467357758622 59.229323308274616,109.85134477482279 58.11278195490013,109.51341834354389 57.808270676701795,109.15561186410196 57.31203007520526,107.89664660015478 57.06954887221218,106.45211787790322 55.71052631578641,105.94851273570384 54.46992481203051,106.0479088139582 51.69548872183077,106.67741358062995 48.892857142869616,106.29971149354606 48.734962406015256,106.38585427891667 48.59398496241192,106.6509082466473 48.16541353386128,108.0424228441334 48.221804511296796,108.30084351873302 49.32706766919,109.87784873015335 52.53007518799859,110.50068839437154 53.511278195510386,111.31567119956526 53.70864661654923,112.07101147907451 54.28947368421359,113.45577791307369 54.41917293233564,114.37010422140156 55.18609022558667,117.61651543718472 55.225563909771154,118.2061513452827 55.78947368421359,121.08137361819536 56.21804511282244,121.82334466436077 56.63533834586269,122.081707483223 58.43421052634949,122.70442366762654 60.328947368456284,123.91671476909687 62.16165413535782,124.02270629897976 62.90601503761718,124.6056564520186 63.49248120302218,124.66527604292787 64.43984962409013,125.10910896080168 67.76127819548128,125.50656856002752 67.96992481203051,125.34758502818295 68.08270676693064,125.08261156294975 68.46052631581551,123.77097611754289 68.65789473685436,122.0750828091077 68.60150375941885,121.83659406606239 68.27443609025795,121.61135384935915 68.25187969926628,121.50535816812044 68.4718045112968,120.90250426041894 68.62969924812205,120.72363438294269 68.6353383458918,119.75640307901995 69.0582706767018,118.4844045313148 69.81954887218308,117.49063737688994 71.39849624061026,116.45710251640776 72.55451127822744,115.43680108030821 73.28759398500551,114.05207922002592 73.55263157896115,113.85993831868473 73.94172932332731,113.99907489336692 73.58082706769346,113.85331275966018 73.27067669175449,114.0653302945575 72.65601503761718,115.28441694660432 71.97932330830372,115.94032857817001 68.72556390980026,112.31616378749095 65.990601503785,111.77285194996512 65.77631578946603,111.51444585620266 65.7312030075409,110.50731431436725 65.23496240604436,110.40792543967473 60.131578947388334,110.51394023364628 59.274436090228846,109.86459675390142 58.129699248151155,109.51341834354389 57.768796992488205,109.09597724857304 57.27819548873231,107.80387971960226 57.103383458656026,106.49187600302685 55.73308270680718,105.94188632475925 55.37781954888487,105.90875425943159 54.058270676701795,106.1075463838497 51.63345864665462,106.66416091507199 48.813909774442436,106.30633786593171 48.639097744366154,106.53163410247726 48.142857142869616,108.13518936501714 49.30451127819833,109.88447471720428 52.563909774442436,110.52719207002883 53.5,111.29579369859857 53.66917293233564,111.97162512987416 54.29511278195423,113.53528508779709 54.379699248151155,114.26409607019013 55.163533834595,117.5038877111474 55.766917293251026,121.02175055670523 55.879699248151155,121.35961380843582 56.274436090228846,121.85646816327426 56.663533834624104,122.0750828091077 58.41729323309846,122.7110482740245 60.334586466196924,123.90346581500853 60.69548872183077,123.98295949663589 62.1729323308391,124.00945736773065 62.91729323309846,124.61228085384573 63.357142857130384,124.6189052549853 64.5582706767018,125.14885503616824 67.50187969926628,125.51981716913724 67.82330827068654,125.48007133320789 67.99812030076282,125.32771205786776 68.2124060150527,124.7712662842423 68.50563909776974,123.49937134643551 68.66917293236475,122.12145551296271 68.61842105264077,121.83659406606239 68.31954887218308,121.64447746233782 68.27443609025795,121.51860763825243 68.42105263157282,120.98862660867599 68.64661654137308,120.66401097496782 68.62969924812205,119.74315322962866 69.0582706767018,118.4844045313148 69.57706766919,117.72914295715236 71.57330827068654,116.33784737730821 72.26127819548128,115.7415682158462 72.63909774439526,115.3307947663634 73.26503759401385,114.10508350104283 73.5187969924882,113.87318943457285 74.4323308270832,114.21109192612857 75.00751879700692,114.25084503846301 76.63721804512898,113.66117123775985 77.9229323308391,113.66117123775985 78.18796992482385,113.5617874565578 78.3458646616491,113.3696450245152 78.45864661657833,112.78658845509926 79.0000000000291,111.48794260576688" stroke="#ff8300" stroke-dasharray="none" stroke-linecap="round" stroke-linejoin="round" stroke-width="0.5"><title>2026-05-16 35.3km</title><desc>1778887035000</desc></polyline><polyline fill="none" opacity="0.5" points="109.5567133317818,102.39209447040048 109.99110939231468,103.78270151939068 109.79997512564296,105.50049608598056 107.94075998663902,108.01580993256357 108.14927009557141,116.95206049265107 111.52018352539744,118.79242571181385 113.67478798568482,118.996909629117 114.1091840461595,119.38542846178461 114.36982168245595,129.17992864605912 114.24819078552537,129.9569236154348 113.55315708863782,130.40676134727255 109.0180622167536,131.04062178725144 105.02161845978117,131.14285714285506 100.59077864239225,130.87704510315962 92.87590460735373,129.8137932033569 85.97769516601693,129.75245156500023 85.63017831760226,123.04564559589198 85.8039367418969,119.85573966345692 100.39964437577873,119.3240834360331 101.87659098155564,118.75152890183381 104.48296734475298,117.15654640270805 104.32658476295182,108.50659897117293 104.11807465384481,107.83176371417358 103.1797791630961,106.99332867120393 102.34573872690089,105.6845445768704 102.05034940585028,104.10990168940043 102.50212130864384,102.41254464829399 104.10069881146774,100.73562270661932 105.26488025370054,100.32661509550235 106.51594090799335,100.28571428571013 108.54891447129194,101.10372879909119 109.8694784953259,103.18964976580173 109.92160602268996,105.00969923316734 109.34820322267478,106.46163622708991 107.9581358289579,107.89311247353908 107.81912908965023,109.50862263058661 104.53509487194242,109.5904202456004 104.15282633871539,107.85221330283093 102.79751062986907,106.54343516210793 102.08510109066265,104.70295055225142 102.25885951484088,103.04649906345003 103.07552410865901,101.59453580580885 104.96949093253352,100.40841668861685 107.3326055018697,100.44931747191004 108.46203525923193,101.04237783349527 109.19182064087363,101.79903834866127 110.02586107706884,103.94630167527066 109.5393374892883,106.11399035788781 107.99288751382846,107.81131412326067 107.78437740483787,109.4472743961087 104.53509487194242,109.56997084514296 104.18757802352775,107.954461212983 102.83226231473964,106.58433461627283 102.15460446022917,105.00969923316734 102.22410782997031,103.21009985728597 102.93651736923493,101.6967871049419 104.56984655681299,100.55156939128938 106.65494764741743,100.30616469170491 108.61841784103308,101.18553005547437 109.41770659241593,102.18759256994235 109.95635770750232,103.4964009053947 109.8694784953259,105.2959975523845 109.24394816817949,106.5638848902745 107.97551167145139,107.99536036157224 107.83650493208552,109.46772380986658 104.62197408417705,109.61086964383139 104.25708139326889,108.01580993256357 102.88438984198729,106.5638848902745 102.1198527754168,104.70295055225142 102.39786625414854,102.6374964586139 103.38828927220311,101.24688097453327 105.47339036269113,100.28571428571013 107.36735718668206,100.44931747191004 108.68792121071601,101.24688097453327 109.95635770750232,103.41460065028514 109.90423018019646,105.09149879723554 109.13969311368419,106.70703292579856 107.97551167145139,107.85221330283093 107.90600830171024,109.42682498016802 104.58722239924828,109.61086964383139 104.11807465384481,107.81131412326067 103.04077242378844,106.82973115559435 102.2414836724056,105.37779699239763 102.08510109066265,103.74180145822174 102.71063141775085,101.79903834866127 102.79751062986907,102.00354067009175 103.49254432669841,101.18553005547437 104.62197408417705,100.5311190118664 107.07196786551503,100.38796629363787 104.62197408417705,100.5311190118664 103.49254432669841,101.18553005547437 102.79751062986907,102.00354067009175 102.71063141775085,101.79903834866127 102.08510109066265,103.74180145822174 102.2414836724056,105.37779699239763 103.04077242378844,106.82973115559435 104.11807465384481,107.81131412326067 104.58722239924828,109.61086964383139 107.90600830171024,109.42682498016802 107.97551167145139,107.85221330283093 109.13969311368419,106.70703292579856 109.90423018019646,105.09149879723554 109.95635770750232,103.41460065028514 108.68792121071601,101.24688097453327 107.36735718668206,100.44931747191004 105.47339036269113,100.28571428571013 103.38828927220311,101.24688097453327 102.39786625414854,102.6374964586139 102.1198527754168,104.70295055225142 102.88438984198729,106.5638848902745 104.25708139326889,108.01580993256357" stroke="#4dd2ff" stroke-dasharray="1,0.5" stroke-linecap="round" stroke-linejoin="round" stroke-width="0.5"><title>2026-05-12 15.2km</title><desc>1778590468000</desc></polyline><polyline fill="none" opacity="1" points="145.98528476030333,102.39209447040048 146.41968082083622,103.78270151939068 146.2285465541645,105.50049608598056 144.36933141516056,108.01580993256357 144.57784152409295,116.95206049265107 147.94875495391898,118.79242571181385 150.10335941420635,118.996909629117 150.53775547468103,119.38542846178461 150.79839311097749,129.17992864605912 150.6767622140469,129.9569236154348 149.98172851715935,130.40676134727255 145.44663364527514,131.04062178725144 141.4501898883027,131.14285714285506 137.0193500709138,130.87704510315962 129.30447603587527,129.8137932033569 122.40626659453847,129.75245156500023 122.0587497461238,123.04564559589198 122.23250817041844,119.85573966345692 136.82821580430027,119.3240834360331 138.30516241007717,118.75152890183381 140.91153877327451,117.15654640270805 140.75515619147336,108.50659897117293 140.54664608236635,107.83176371417358 139.60835059161764,106.99332867120393 138.77431015542243,105.6845445768704 138.47892083437182,104.10990168940043 138.93069273716537,102.41254464829399 140.52927023998927,100.73562270661932 141.69345168222208,100.32661509550235 142.9445123365149,100.28571428571013 144.97748589981347,101.10372879909119 146.29804992384743,103.18964976580173 146.3501774512115,105.00969923316734 145.77677465119632,106.46163622708991 144.38670725747943,107.89311247353908 144.24770051817177,109.50862263058661 140.96366630046396,109.5904202456004 140.58139776723692,107.85221330283093 139.2260820583906,106.54343516210793 138.51367251918418,104.70295055225142 138.68743094336241,103.04649906345003 139.50409553718055,101.59453580580885 141.39806236105505,100.40841668861685 143.76117693039123,100.44931747191004 144.89060668775346,101.04237783349527 145.62039206939517,101.79903834866127 146.45443250559038,103.94630167527066 145.96790891780984,106.11399035788781 144.42145894235,107.81131412326067 144.2129488333594,109.4472743961087 140.96366630046396,109.56997084514296 140.61614945204929,107.954461212983 139.26083374326117,106.58433461627283 138.5831758887507,105.00969923316734 138.65267925849184,103.21009985728597 139.36508879775647,101.6967871049419 140.99841798533453,100.55156939128938 143.08351907593897,100.30616469170491 145.04698926955462,101.18553005547437 145.84627802093746,102.18759256994235 146.38492913602386,103.4964009053947 146.29804992384743,105.2959975523845 145.67251959670102,106.5638848902745 144.40408309997292,107.99536036157224 144.26507636060705,109.46772380986658 141.0505455126986,109.61086964383139 140.68565282179043,108.01580993256357 139.31296127050882,106.5638848902745 138.54842420393834,104.70295055225142 138.82643768267008,102.6374964586139 139.81686070072465,101.24688097453327 141.90196179121267,100.28571428571013 143.7959286152036,100.44931747191004 145.11649263923755,101.24688097453327 146.38492913602386,103.41460065028514 146.332801608718,105.09149879723554 145.56826454220572,106.70703292579856 144.40408309997292,107.85221330283093 144.33457973023178,109.42682498016802 141.0157938277698,109.61086964383139 140.54664608236635,107.81131412326067 139.46934385230998,106.82973115559435 138.67005510092713,105.37779699239763 138.51367251918418,103.74180145822174" stroke="#4dd2ff" stroke-dasharray="none" stroke-linecap="round" stroke-linejoin="round" stroke-width="0.5"><title>2026-05-11 15.3km</title><desc>1778503630000</desc></polyline><polyline fill="none" opacity="1" points="181.53957250877284,103.5799050781643 185.19533236208372,109.0925934141851 185.76654483913444,114.73968679399695 184.16714990348555,119.58001165435417 179.0262376095634,125.63036464899778 178.39790388476104,130.73950569349108 167.65910931583494,130.73950569349108 166.8594118480105,125.56313882849645 163.31789449043572,122.06738613569178 160.63319584797136,117.6976675830083 159.94774087541737,111.84891922096722 160.57607460021973,108.95813818369061 164.17471320577897,103.51267686951905 171.14350542612374,100.3529428440961 177.5982064169366,101.15968497557333 184.281392398756,106.26902745652478 185.652302343864,111.37832787644584 185.59518109611236,115.54641022533178 182.96760370139964,121.46235001715831 179.1976013528183,125.15978375350824 178.74063137103803,130.60505515208934 168.17320054536685,131.07563191937516 166.8594118480105,125.42868716613157 163.60350072872825,122.47074322053231 160.347589609446,117.29430739633972 160.06198337092064,111.04219098348403 161.718499554554,106.60516693472164 166.1739568754565,102.10088280355558 169.3156254994683,100.75631404074375 173.99956781137735,100.3529428440961 179.25472260056995,101.89919767476385 181.59669375652447,103.64713327941718 185.42381735285744,109.83209666144103 185.88078733440489,113.52959968068171 184.8526048755739,118.57161375461146 179.3689650958404,124.8236543238163 179.0262376095634,130.26892867143033 168.2303217931185,131.1428571428405 166.80229060025886,125.49591300083557 161.54713581129909,119.7816910376423 159.8334983799141,113.6640539210639 160.80455959099345,108.28586159425322 164.0033494627569,103.44544865336502 171.31486916937865,100.28571428568102 177.71244891243987,101.22691343910992 182.39639122434892,104.38664301508106 184.68124113278463,107.88249529100722 185.82366608688608,112.3195102083846 184.3385136462748,119.58001165435417 179.08335885754786,125.36146132380236 178.74063137103803,130.67228042631177 168.17320054536685,131.07563191937516 166.91653309576213,125.76481626793975 161.375772068277,119.58001165435417 159.94774087541737,115.54641022533178 160.9188020862639,108.21863389521604 163.88910696748644,103.91604601260042 170.1724442152772,100.48739993863273 176.45578146283515,100.82354254811071 182.05366373830475,104.11773048591567 185.7094235913828,110.5043715761858 184.8526048755739,118.10102750739316 182.6819974631071,121.8657074951916 179.1976013528183,125.29423547437182 178.74063137103803,130.60505515208934 168.00183680211194,131.00840668880846 166.91653309576213,125.63036464899778 163.08940949942917,121.9329337158706 160.40471085719764,117.2270806732704 160.004862123169,110.90773617528612 162.06122704036534,105.93288779642899 165.03153192135505,102.70593779638875 168.51592803164385,100.89077104820171 173.99956781137735,100.3529428440961 179.3689650958404,101.83196928398684 184.45275614177808,107.14298972091638" stroke="#4dd2ff" stroke-dasharray="none" stroke-linecap="round" stroke-linejoin="round" stroke-width="0.5"><title>2026-05-10 11.2km</title><desc>1778422578000</desc></polyline><polyline fill="none" opacity="1" points="42.571428571478464,156.39836816702154 35.308563997852616,157.03582237046794 28.76797324907966,156.7052907938487 20.782834850484505,155.52481678771437 11.934980494203046,155.40676903574786 11.714285714318976,144.1211088563432 15.32565483939834,143.69611442515452 28.467025822028518,143.43639519823773 30.072078766534105,142.9641776295175" stroke="#4dd2ff" stroke-dasharray="none" stroke-linecap="round" stroke-linejoin="round" stroke-width="0.5"><title>2026-05-10 11.3km</title><desc>1778397813000</desc></polyline><polyline fill="none" opacity="1" points="59.67275232230895,134.57142857142753 59.52563246386126,162.12026681993302 59.592505126754986,165.09067546118604 59.96699203920434,165.34213307424216 67.61722467897926,165.42857142857247" stroke="#ffc700" stroke-dasharray="none" stroke-linecap="round" stroke-linejoin="round" stroke-width="0.5"><title>2025-11-09 21.3km</title><desc>1762645227000</desc></polyline><polyline fill="none" opacity="1" points="112.71121093980037,144.0094601220917 112.4837172315456,151.50623352470575 109.92441301536746,156.0578015780775 106.3413871130906,159.33758718828904 106.05701997806318,164.82616906880867 95.42168912454508,165.29470428824425 93.94298002193682,159.53838982339948 87.91439675772563,152.57719372957945 87.06129535241053,147.15543860662729 88.25563731975853,142.00138037477154 92.86238490859978,136.7134058237425 99.8578164326027,134.57142857147846 106.51200739433989,136.0440387300332 109.29880531853996,138.5206933551235 112.31309695052914,143.34010093129473 112.93870464758947,147.15543860662729 112.42684380430728,151.03768785129068 110.83438784792088,154.9199127073516 106.22764025931247,159.47145561903017 106.05701997806318,164.69230179779697 97.18476536218077,165.42857142857974 94.85295485449024,165.09390352328774 94.22734715696424,160.0069290517131 89.62059956835583,155.45539008401101 87.97127018449828,152.57719372957945 87.11816877941601,146.95463194773765 88.36938417400233,141.86750815977575 93.31737232464366,136.4456590731861 100.48342412966304,134.63836547295796 106.73950110236183,136.11097547214013 111.2325018371921,141.0642742596683 112.5974640857894,144.34413944545668 112.71121093980037,150.5691418228089 110.83438784792088,154.85297800274566 106.39826054009609,158.93598172214115 106.11389340483584,164.62536815163912 95.13732198951766,165.29470428824425 94.05672687618062,159.67225821060129 89.62059956835583,155.52232472336618 87.40253591444343,150.10059543902753 87.28878906019963,144.7457543942728 89.90496670338325,139.39086694811704 94.79608142748475,135.64241812570253 101.62089267023839,134.77223925443832 106.51200739433989,136.17791220679646 111.74436268024147,141.8005720412475 112.88183122081682,146.08446900564013 112.25622352352366,151.90784381894628 110.03815986961126,155.79006320866756 106.22764025931247,159.40452140721027 106.0001465510577,164.69230179779697 102.81523463781923,165.29470428824425 94.90982828149572,165.22777070710436 94.11360030295327,159.67225821060129 89.90496670338325,155.85699781193398 88.14189046574757,152.7779985613888 87.28878906019963,144.6788185876212 91.49742266023532,137.78439166554017 97.63975277822465,134.83917613408994 105.43141228077002,135.77629168948624 110.83438784792088,140.46184814959997 112.82495779381134,145.95059767505154 112.36997037753463,151.57316859206185 109.86753958836198,156.12473615229828 106.3413871130906,159.20371872879332" stroke="#4dd2ff" stroke-dasharray="none" stroke-linecap="round" stroke-linejoin="round" stroke-width="0.5"><title>2025-11-01 10.0km</title><desc>1761964262000</desc></polyline><polyline fill="none" opacity="1" points="147.72673411667347,154.73701465397608 142.666997136781,159.81214352924144 142.37951208115555,165.22556889004773 131.16759490896948,165.36090392316692 130.305139742326,159.74447541544214 126.107857929077,156.15805489453487 124.32545058382675,152.84228930529207 123.57798943924718,145.12799106084276 126.97031309618615,138.69933642470278 132.77751122112386,135.1804658716428 139.3321704911068,134.97745350422338 145.3118596491404,138.02263208845397 148.76168031734414,143.23323656979483 149.5666384731885,149.12049064069288 147.72673411667347,154.66934599052183 142.78199115931056,159.33846657845424 142.26451805909164,165.29323641041992 131.2250919204671,165.42857142857974 130.53512778668664,159.81214352924144 124.67043265071698,153.72198393184226 123.29050438362174,147.42875664576422 123.92297150590457,143.50391613459215 125.87786988471635,140.05274289811496 130.76511583128013,135.85717328666942 137.77975118998438,134.57142857147846 144.85188356018625,137.6842796455021 148.99166836193763,144.11294472654117 149.50914146215655,149.3911676549469 147.20926101668738,155.27836369804572 142.78199115931056,159.40613473625854 142.03453001426533,165.42857142857974 131.28258893173188,165.42857142857974 130.70761882001534,159.74447541544214 126.62533102929592,156.36106037953869 124.2679535727948,152.3686070702388 123.6354864500463,144.51896345813293 127.60278021870181,137.95496161445044 133.40997834363952,134.90978270058986 140.769595769234,135.24813664599787 146.23181182751432,139.24069936596788 149.10666238423437,145.1956607577158 149.2791534177959,150.06785967730684 147.55424308334477,154.87235195899848 142.72449414804578,159.67680729436688 142.49450610321946,165.02256628562463 141.7470449586399,165.36090392316692 131.2250919204671,165.42857142857974 130.305139742326,159.67680729436688 126.39534298493527,156.36106037953869 124.2679535727948,152.5716137861018 123.6354864500463,144.7219727251213 127.48778619640507,138.15797301440034 133.8699544328265,134.90978270058986 141.45955990278162,135.45114892564015 146.17431481624953,138.97001795395045 149.16415939526632,145.12799106084276 149.2216564065311,150.81222005496966 146.8067819387652,155.95504934387282 142.8394881701097,159.60913916595746 142.26451805909164,165.22556889004773 131.2250919204671,165.42857142857974" stroke="#4dd2ff" stroke-dasharray="none" stroke-linecap="round" stroke-linejoin="round" stroke-width="0.5"><title>2025-10-27 10.0km</title><desc>1761565093000</desc></polyline><polyline fill="none" opacity="1" points="180.21324836858548,136.45793538575526 183.3045300617814,139.826683322608 185.82335218274966,146.15988005150575 184.27771133603528,153.77310566307278 179.01108326553367,159.43243423564127 178.8393453937024,164.68747895077104 167.61913776537403,165.1590833569644 166.87494032038376,159.63455216091825 162.98221522476524,156.19853849895298 160.17716331779957,150.94342206860892 160.11991736036725,143.93653109826846 162.5242475667037,139.42243453371339 168.64956499636173,135.1778063857928 175.11835817014799,134.70617924811086 179.69803475309163,136.39056024083402 182.0451190015301,138.3444364783354 185.82335218274966,145.1492678760551 185.7088602683507,149.66332288016565 184.39220325066708,153.84047892520903 179.01108326553367,159.43243423564127 178.8393453937024,164.75485103065148 168.01985946600325,165.29382740717847 166.7604484059848,159.70192478818353 162.81047735293396,156.19853849895298 159.8909335313365,149.46120171493385 160.34890118963085,143.66703371558106 162.695985438535,139.15293519495754 169.27927052648738,134.9083052079077 177.40819646138698,135.24518166203052 180.49947815504856,136.6600607764558 182.5603326172568,138.8834357392625 185.65161431091838,145.5535129432683 185.5943683537189,150.1349386770744 184.2204653788358,154.10997190029593 178.95383730810136,159.63455216091825 178.8393453937024,164.75485103065148 167.84812159417197,165.2264553856803 167.04667819221504,160.0387878145557 161.49382033525035,154.17734512581956 159.833687574137,149.52857544412836 160.69237693329342,141.98267242719885 162.63873948110268,139.22031004045857 169.45100839831866,134.9083052079077 175.46183391381055,134.84092989517376 181.4726594290696,137.73806175100617 185.4798764390871,144.34077695361339 185.65161431091838,150.00019134301692 183.53351389151067,155.1205695171957 179.12557517993264,159.2976889157435 178.78209943627007,164.82222310313955 167.9053675516043,165.42857142857974 167.04667819221504,159.9714152237284 162.695985438535,155.8616733927629 160.29165523219854,151.07816919818288 160.17716331779957,144.67764829896623 162.5814935239032,139.42243453371339 167.733629679773,135.58205793355592 173.62996328040026,134.57142857142026 180.27049432578497,136.6600607764558 184.62118707969785,141.84792332723737 185.88059814018197,146.2946282174671 185.3653845244553,151.3476633700775 183.59075984871015,155.1205695171957 179.06832922296599,159.2976889157435 178.8965913511347,164.88959516852628" stroke="#4dd2ff" stroke-dasharray="none" stroke-linecap="round" stroke-linejoin="round" stroke-width="0.5"><title>2025-10-19 10.0km</title><desc>1760866141000</desc></polyline><polyline fill="none" opacity="1" points="32.7121775879059,199.31093426491134 21.91626411001198,199.37815952458186 21.230809286003932,194.13456740026595 17.403686518548056,190.70604090642883 15.00459463451989,186.67245607898803 14.319139810511842,179.07580014754785 17.689292695140466,172.95807158655953 24.543840935220942,168.99159996648086 31.112782998476177,169.46219961962197 36.7677852967754,173.22698399907677 39.852332004811615,178.87411774968496 40.023695710580796,184.05061188450782 38.08157370914705,189.09261012118077 33.28338994132355,193.73121232510312 32.99778376473114,199.31093426491134 21.859142874600366,199.37815952458186 21.230809286003932,194.33624483947642 17.060959106776863,190.23545736056985 14.319139810511842,184.9245611797669 14.604745987337083,177.05897321912926 17.632171459961683,172.68915905756876 19.859899637987837,171.07568143570097 26.485962936654687,168.85714285710128 33.397632411913946,170.5378546298016 36.824906531954184,173.29421208414715 39.452483357163146,177.32788385497406 39.852332004811615,184.99178799777292 38.08157370914705,189.22706284659216 33.45475364732556,193.79843818908557 33.34051117673516,199.10925844189478 23.172931287204847,199.71428571426077 21.859142874600366,199.37815952458186 21.05944558000192,193.93288989533903 16.832474165363237,189.7648734577815 14.204897339921445,184.1178387971595 14.033533633919433,179.54639215453062 17.060959106776863,173.4958962954115 19.517172225983813,171.27736636798363 23.972628581803292,169.32774261228042 30.71293435129337,169.32774261228042 35.682481825118884,172.15133364970097 39.96657447540201,179.00857268890832 39.452483357163146,185.93296268413542 37.853088767966256,189.36151554319076 33.226268705911934,193.3950828954694 33.05490499967709,199.10925844189478 22.20187028660439,199.44538477715105 21.002324344590306,193.8656640459667 15.86141316476278,188.62202535185497 14.147776104742661,184.25229260022752 14.319139810511842,178.80689026927575 16.71823169454001,173.96649253321812 19.46005099080503,171.27736636798363 23.458537464030087,169.39497111947276 30.59869188047014,169.39497111947276 36.65354282571934,173.02529970079195 40.25218065176159,180.6892569718184 38.25293741514906,188.89093097794103 33.34051117673516,193.1934051506105 33.16914747073315,199.10925844189478 21.80202163918875,199.44538477715105 21.116566815180704,194.13456740026595" stroke="#4dd2ff" stroke-dasharray="none" stroke-linecap="round" stroke-linejoin="round" stroke-width="0.5"><title>2025-10-16 10.0km</title><desc>1760611285000</desc></polyline><polyline fill="none" opacity="1" points="75.52574625122361,187.4803577508428 69.8084638826549,193.73328406410292 69.5774625746999,199.30649195803562 58.4316494720988,199.71428571426077 57.6231448946055,194.2090476458543 52.772117430344224,189.4513955959701 50.69310565991327,184.4898057495011 50.86635664082132,178.23678732733242 54.38912658509798,172.2555809636251 61.78116843546741,168.85714285710128 69.40421159379184,169.67276968131773 75.23699461645447,175.7219688707264 76.50750180939212,180.3437896258547 75.23699461645447,187.95612607337534 69.69296322879381,193.73328406410292 69.69296322879381,199.17056064715143 58.48939979914576,199.64632010669447 57.73864554846659,194.34498003131012 52.2523644878529,188.6357944799238 50.69310565991327,184.08200209971983 50.92410696763545,178.0328835035907 54.21587560442276,172.59542376187164 60.91491353115998,168.99308073462453 68.82670832425356,169.67276968131773 73.79323644284159,173.41104572702898 76.56525213667192,180.1398864868097 75.29474494373426,187.95612607337534 69.8084638826549,193.8012503120117 69.51971224788576,199.3744576026802 58.48939979914576,199.64632010669447 57.6231448946055,194.07311523065437 52.71436710329726,189.11156192666385 50.57760500605218,183.94606749067316 50.80860631377436,178.4406910847756 52.829867757158354,174.02276150509715 59.586656011175364,169.40089419099968 66.63219589996152,169.0610496623558 69.98171486356296,170.21652030857513 73.21573317283764,173.00323487701826 76.56525213667192,180.27582192019327 76.44975148281083,184.35387122893007 75.06374363554642,188.29596036870498 69.75071355560794,194.00514901196584 69.69296322879381,199.3744576026802 58.54715012572706,199.71428571426077 57.73864554846659,194.27701384213287 53.29187037283555,190.0630957374815 50.63535533263348,184.42183849279536 50.92410696763545,177.7610116356518 53.86937364260666,173.00323487701826 60.62616189639084,169.0610496623558 68.30695538176224,169.46886307455134 73.50448480783962,173.34307727054693 76.44975148281083,180.07191875914577 75.41024559736252,187.41239081817912 72.86923121125437,191.21852771088015" stroke="#4dd2ff" stroke-dasharray="none" stroke-linecap="round" stroke-linejoin="round" stroke-width="0.5"><title>2025-10-08 10.1km</title><desc>1759919017000</desc></polyline><polyline fill="none" opacity="1" points="109.1220237982925,172.23327229073038 112.67903936747462,178.1076939170016 113.02326668053865,183.37436969042756 111.30213011498563,188.64100096846232 106.25346285570413,193.77254762209486 105.73712188564241,199.30916900699958 94.95133274048567,199.64676628122106 94.20550689520314,194.11014789470937 88.06678647757508,187.29058693378465 87.14884697576053,180.2683867966989 90.24689279403538,173.4486744105816 96.1561283362098,169.53237020672532 102.1801063164603,168.99218838568777 108.94991014176048,172.03070504026255 112.5069257109426,177.56751952692866 113.0806378996931,183.23932727775536 110.95790280192159,189.24868632969446 106.25346285570413,193.90758775314316 105.85186432348564,199.37668847641908 94.8365903024096,199.5792468409636 93.80390836321749,193.63750746200094 90.30426401272416,190.66661653557094 87.77993038319983,186.8179413304897 87.14884697576053,179.99830059608212 90.07477913773619,173.71876344876364 93.2875673933886,170.74777759274002 96.1561283362098,169.53237020672532 103.09804581827484,169.05971113877604 109.69573598681018,172.97601831227075 112.10532717895694,176.28460347442888 113.02326668053865,183.4418908857624 111.24475889606401,188.70852159353672 106.31083407416008,193.63750746200094 105.85186432348564,199.30916900699958 95.06607517809607,199.71428571426077 94.14813567628153,193.97510780760786 91.05008985800669,191.67942185106222 88.4683850093279,188.0333150147926 87.09147575683892,180.403429852915 89.61580938659608,174.2589411739027 95.18081761570647,169.86998360714642 102.29484875430353,168.99218838568777 108.37619795324281,171.5580478667398 112.04795596003532,176.2170815038844 112.9658954620827,183.4418908857624 111.13001645822078,188.97860402002698 106.42557651223615,193.43494716653368 105.90923554240726,199.30916900699958 94.95133274048567,199.5792468409636 94.26287811412476,194.31270797044272 89.0994684167672,189.04612460831413 86.9193621003069,181.21368757646997 88.06678647757508,176.89230088109616 90.53374888841063,172.90849598305067 94.89396152156405,169.9375062654144 98.50834830966778,168.85714285710128 103.1554170367308,169.26227935461793 108.54831160977483,171.82813772413647" stroke="#4dd2ff" stroke-dasharray="none" stroke-linecap="round" stroke-linejoin="round" stroke-width="0.5"><title>2025-10-01 10.0km</title><desc>1759271073000</desc></polyline><polyline fill="none" opacity="1" points="145.22561508556828,171.96999393112492 147.81298086699098,175.42118025163654 149.53789138793945,180.49641961825546 148.56044209259562,186.92499696242157 146.43305245018564,190.37610067048809 142.75324333901517,193.4211763467756 142.63824930391274,199.0376103289891 138.67095510591753,199.5789506958099 131.13884583092295,199.51128317572875 130.4488816226367,194.09785781480605 126.13660532026552,190.03775801265147 123.66423357347958,185.57161775551504 123.95171866053715,177.78963042015675 126.0791083027143,173.86476525175385 129.06895320583135,171.09027672169032 134.41617582086474,168.99248453072505 142.4657582519576,170.07521686382825 147.81298086699098,175.21816981921438 149.4228973533027,179.75205375783844 149.30790331866592,184.6919196989038 146.89302858896554,190.10542655875906 142.75324333901517,193.75951717217686 142.23577018268406,199.37594811309827 131.25383986602537,199.51128317572875 130.5638756575063,194.09785781480605 124.06671269517392,186.99266584590077 123.31925146933645,182.93251986941323 123.83672462566756,177.85730029299157 127.40153970243409,172.51135775184957 134.24368476867676,169.0601553565939 141.66080000880174,169.87220469425665 145.74308824166656,172.7143690637895 149.07791524892673,178.66933819599217 149.36540033575147,184.42124312452506 146.95052560651675,189.83475232997444 142.69574632146396,193.69184902188135 142.69574632146396,198.96994275023462 142.00578211294487,199.4436156480224 131.25383986602537,199.51128317572875 130.50637863995507,194.09785781480605 126.71157549368218,190.64677466498688 124.23920374712907,186.5866524357698 123.49174252152443,179.41370534634916 126.99906058073975,172.78203948651208 134.12869073404,169.0601553565939 142.92573439097032,170.27822896733414 147.5254957799334,174.94748914032243 149.4228973533027,180.1580716096796 148.96292121428996,185.97763182548806 146.663040519692,190.30843215365894 142.86823737365194,193.5565126988222 142.5807522868272,199.1729454646702 138.7284521232359,199.71428571426077 131.25383986602537,199.71428571426077 130.4488816226367,193.96252157975687 126.25159935490228,190.10542655875906 123.77922760834917,185.57161775551504 123.95171866053715,177.92497015860863 128.78146811923943,171.09027672169032 133.72621161257848,169.12782617512858 138.61345808859915,168.85714285710128 141.66080000880174,169.73686321126297 146.08807034580968,172.9850507103838 148.96292121428996,178.26331937644864 149.4228973533027,184.01522804331034 147.64048981503583,188.95506027597003" stroke="#4dd2ff" stroke-dasharray="none" stroke-linecap="round" stroke-linejoin="round" stroke-width="0.5"><title>2025-09-27 10.0km</title><desc>1758965825000</desc></polyline><polyline fill="none" opacity="1" points="182.94990798155777,172.4406327587203 185.65634779143147,179.40846978599438 185.825500279665,183.32369581679814 184.35951204923913,188.16792390256887 178.89024826674722,194.2729239243199 178.89024826674722,199.51521235407563 167.61341572529636,199.71428571426077 167.16234242380597,194.00749040569644 161.52392615308054,187.76976961421315 159.9451695973985,180.53658832702786 160.90370036335662,177.21858668833738 164.06121347495355,172.90515769273043 169.07940395572223,169.7198367860401 176.2965767821297,169.58711472223513 180.52538898517378,171.11341672064736 182.72437133057974,173.037879037729 185.71273195417598,180.47022847045446 185.48719530343078,185.1817604326061 182.38606635434553,191.35314889496658 179.0030165920034,193.80841519136447 178.60832745325752,199.38249674468534 167.61341572529636,199.64792793459492 166.93680577282794,193.60933991213096 161.63669447833672,188.7651548499707 160.05793792265467,184.31908827618463 159.88878543465398,180.73566785396542 161.18562117684633,176.4886239162297 166.76765328459442,170.58252950024325 174.32313108746894,169.321670508245 182.04776137811132,171.77702509914525 185.03612200170755,177.21858668833738 185.59996362868696,183.72185299464036 183.73928625928238,189.09694956929889 179.0594007547479,193.80841519136447 178.7210957785137,199.64792793459492 167.61341572529636,199.58157014794415 166.99318993557245,194.14020717935637 162.70799356978387,190.29140907083638 160.05793792265467,184.18636937486008 161.07285285159014,176.4886239162297 165.86550668161362,171.44522099971073 170.48900802340358,169.38803157251095 180.75092563591897,170.8479731681291 183.11906046955846,172.97151836869307 185.31804281519726,179.07666982000228 185.65634779143147,183.72185299464036 183.17544463230297,190.0259738272871 178.94663242949173,194.07384879601886 178.60832745325752,199.51521235407563 167.5570315627847,199.44885455287294 166.76765328459442,193.80841519136447 163.04629854648374,190.75592047028476 161.0164686886128,187.50433327822248 160.05793792265467,179.87298943678616 162.538841082016,174.56417243886972 167.10595826082863,169.91891982790548 172.63160620629787,168.85714285710128 182.32968219183385,172.10882901860168 185.14889032696374,177.74946815823205 185.65634779143147,183.92093148641288 183.7956704220269,189.09694956929889" stroke="#4dd2ff" stroke-dasharray="none" stroke-linecap="round" stroke-linejoin="round" stroke-width="0.5"><title>2020-04-24 10.0km</title><desc>1587724293000</desc></polyline><polyline fill="none" opacity="1" points="37.86605204292573,209.36854377994314 32.86381099023856,204.2932604337111 29.931462787091732,203.34586964239134 25.504191970452666,203.48121127177728 17.512105690781027,207.33843538939254 13.774799157632515,216.06785466475412 15.1547277236823,221.88739975221688 21.36440627160482,228.5865763981128 22.054370554862544,234.0 33.266290155705065,233.52632730739424 33.266290155705065,228.31590398674598 38.441022278741,222.5640875234967 40.51091512804851,215.86484629951883 37.92354906653054,208.01513891934883 38.55601632595062,207.20309459540294 36.02614728780463,207.60911688924534 32.00135563616641,204.7669552905718 25.561688993824646,203.1428571428405 18.54705211543478,206.32337872014614 14.522260464029387,212.68437329801964 15.097230700077489,221.88739975221688 21.19191520079039,228.45124020706862 21.65189138939604,233.86466498154914 32.80631396663375,233.66166239901213 33.208793131867424,227.97756330744596 37.98104608990252,223.4437805300695 39.82095084525645,217.55658066092292 39.073489538393915,212.1430145787308 35.73866217001341,206.72940158558777 28.724025291623548,203.34586964239134 23.77928126254119,203.81956521753455 17.454608667409047,206.79707203770522 14.177278322633356,213.0903920296114 14.694751534843817,220.7370288593811 16.879638431593776,224.52647791517666 20.96192710637115,228.31590398674598 21.536897342419252,233.79699746146798 32.80631396663375,233.66166239901213 32.86381099023856,228.31590398674598 37.86605204292573,223.3084432252217 39.533465726999566,218.03026546136243 38.61351334955543,211.5339854589547 35.22118895780295,206.59406065981602 32.34633777779527,204.4962725591613 27.631581843364984,203.48121127177728 24.526742569403723,203.54888207558542 18.834537233691663,205.5113321969984 14.924739629030228,210.85728574066889 13.774799157632515,214.71446431690129 14.924739629030228,221.81973093480337 17.85708783240989,225.74451023031725 21.01942412997596,228.1128996014013 21.709388413233683,233.93233249452896 32.86381099023856,233.72932993405266 32.86381099023856,228.31590398674598 38.26853120792657,222.6317562603508 39.70595679804683,215.1204817292164 37.98104608990252,209.639224400511 32.40383480163291,204.0225774970604" stroke="#4dd2ff" stroke-dasharray="none" stroke-linecap="round" stroke-linejoin="round" stroke-width="0.5"><title>2020-04-16 10.0km</title><desc>1587033949000</desc></polyline><polyline fill="none" opacity="1" points="72.7594017307274,206.98323998280102 70.69854793814011,205.0967390948208 66.00438096583821,203.34498314664233 61.31021399330348,203.68185967364116 54.55519322841428,206.51161529723322 51.40666660061106,211.8342159940512 50.60522345895879,215.6071711804252 51.97912598773837,222.47928075160598 57.932703610975295,228.34072597970953 58.905884568579495,233.93262799317017 69.61087510315701,233.52839579817373 69.78261291934177,228.13860809826292 74.5340258302167,223.4225055516581 76.53763368399814,218.03263028647052 75.79343648138456,212.37321099312976 71.49999107979238,206.17474030307494 65.1456918856129,203.47973377950257 56.21532545052469,205.568364853214 51.97912598773837,210.8235991114052 50.719715336570516,215.13555303349858 51.292174723464996,220.52545340178767 54.211717596277595,225.24157791258767 58.04719548835419,228.5428437954979 58.734146752394736,234.0 69.72536698053591,233.52839579817373 69.78261291934177,228.07123545656214 74.99199333973229,222.88352012675023 76.53763368399814,217.2915187854087 76.02242023614235,213.0469540852937 73.44635299500078,208.1959875326138 69.0956616550684,204.62511297868332 66.06162690441124,203.34498314664233 60.73775460664183,203.88398550229613 54.55519322841428,206.37686532136286 51.23492878465913,212.64270831743488 50.66246939776465,216.81990191579098 51.864634110126644,222.3445342349005 57.98994954978116,228.34072597970953 58.44791705906391,233.7978839573334 69.89710479648784,233.1915354350931 69.83985885768197,228.00386280717794 74.7630095849745,223.2877592392033 76.36589586827904,217.96525655023288 75.7361905425787,211.96896478743292 70.98477763147093,206.17474030307494 65.66090533370152,203.14285714289872 60.623262729495764,204.01873601833358 54.55519322841428,206.781115161255 51.463912539416924,212.10371355188545 50.719715336570516,218.23475145193515 53.18129070010036,223.9614905095077 57.8754576719366,228.47547119756928 58.56240893667564,234.0 69.89710479648784,233.39365167479264 69.89710479648784,228.13860809826292 74.5340258302167,223.5572518350673 76.48038774565794,217.62838775885757 75.6216986651998,212.10371355188545 72.18694234406576,206.98323998280102 66.00438096583821,203.54710908478592 60.50877085188404,203.74923495721305 53.69650414818898,207.25273964274675" stroke="#4dd2ff" stroke-dasharray="none" stroke-linecap="round" stroke-linejoin="round" stroke-width="0.5"><title>2020-04-14 10.0km</title><desc>1586861907000</desc></polyline><polyline fill="none" opacity="1" points="100.87962988461368,203.5436091547599 96.05585309700109,204.2783205001615 90.5510725278873,206.81640750257066 87.60005614021793,214.02986089180922 88.16755929146893,220.10779777914286 90.21057063690387,224.18198567116633 94.46684427279979,228.1893573384732 95.26134868478402,234.0 106.10065887821838,233.26532406645129 106.32766013848595,227.8554106944357 110.75418472010642,223.44729804078816 112.96744701080024,217.36939406918827 112.39994385931641,212.69404255662812 109.05167526542209,206.88319912488805 102.58213933883235,203.74398506304715 96.79360719374381,204.0779447654495 90.43757189717144,207.01678234740393 87.03255298896693,213.49553390493384 87.31630456447601,218.57162158569554 88.6215618129354,221.84434017218882 94.5235945880413,228.1893573384732 94.75059584877454,233.5324790526647 106.04390856297687,233.26532406645129 106.15740919299424,228.2561466456973 111.32168787135743,222.71260953485034 112.68369543505833,217.70334639237262 112.28644322906621,213.09478836104972 108.03016959293745,205.81453230232 102.75239028432406,203.677193100797 96.33960467274301,204.01115283952095 90.83482410339639,206.54924094176386 87.1460536189843,215.2988856297452 88.96206370391883,222.24508002988296 94.46684427279979,228.38972523837583 94.80734616355039,233.5324790526647 105.81690730224364,233.3321128237294 106.04390856297687,228.05577870248817 110.47043314413168,223.58087767485995 112.51344448956661,218.63841193448752 112.17294259881601,212.49366955668665 108.48417211417109,206.74961587315192 102.41188839334063,203.5436091547599 95.20459836977534,204.61227991315536 90.38082158239558,206.88319912488805 87.08930330374278,215.09851347637596 88.45131086744368,221.77755017048912 94.35334364254959,228.32293594558723 94.80734616355039,233.3321128237294 106.21415950846858,233.1985353018972 106.15740919299424,227.8554106944357 110.92443566536531,222.91297921416117 112.68369543505833,217.70334639237262 112.0594419685658,212.2265054556774 107.80316833243705,206.21528257790487 99.17712042992935,203.14285714289872" stroke="#4dd2ff" stroke-dasharray="none" stroke-linecap="round" stroke-linejoin="round" stroke-width="0.5"><title>2020-04-13 10.0km</title><desc>1586775592000</desc></polyline><polyline fill="none" opacity="1" points="147.3916800378356,208.19479368516477 150.5239967838861,203.8255536367069 149.30587360495701,205.46402220439631 145.41948060551658,207.2390250126482 138.34276499506086,203.48420548223658 131.67209044424817,203.96209284674842 126.79959772899747,206.41979356849333 123.08722232654691,211.74477892153664 122.91320472978987,219.8687083607074 125.0594217593316,223.89650009549223 129.69989101192914,228.40213492530165 130.22194380266592,233.8634672971093 140.83701721858233,233.38560260366648 141.59109347243793,227.9242660916061 146.23156272480264,223.35036035184748 148.20376215758733,218.63988541916478 147.91373282880522,212.76880940853152 145.18745714309625,207.5121019242797 138.57478845794685,203.48420548223658 132.0201256382279,203.6890143970959 125.87150387861766,207.2390250126482 123.43525752052665,211.26689745829208 122.50716367014684,214.95340221992228 123.49326338618994,221.64367060229415 125.00141589343548,224.4426393659087 129.46786754927598,228.3338679713197 130.16393793723546,233.8634672971093 140.83701721858233,233.45386901055463 141.70710520353168,227.78773207234917 145.535492337076,224.3743719831109 147.6237035007216,220.7561901063891 148.26176802278496,215.22647578903707 146.75361551577225,209.49190599360736 143.33126944187097,205.66883047582814 137.41467114468105,203.48420548223658 131.20804351894185,204.0303624405642 126.4515625347849,206.76114013290498 124.13132790848613,209.56017498858273 122.33314607315697,215.22647578903707 122.50716367014684,218.50334938889137 124.53736896836199,223.96476753003662 129.52587341493927,228.53866881120484 130.04792620590888,233.79520093440078 141.0110348155722,233.5221354100504 141.76511106919497,227.9242660916061 146.34757445612922,223.35036035184748 148.08775042602792,219.52736889512744 148.20376215758733,213.58803260012064 146.75361551577225,209.42363699135603 141.18505241256207,204.64478845300619 134.63038959284313,203.41593582910718 127.72769157937728,205.5322916356963 123.49326338618994,210.65247790160356 122.44915780448355,213.58803260012064 122.62317540147342,219.2542971894145 125.23343935608864,224.71570882381639 129.2938499522861,228.40213492530165 130.16393793723546,234.0 141.35907000955194,233.38560260366648 141.41707587544806,228.19733404094586 146.75361551577225,222.53114984877175 148.20376215758733,217.274523785396 146.86962724709883,210.24286453117384 144.43338088924065,206.69287083507515 141.12704654666595,204.16690160625149 134.39836613018997,203.1428571428405 127.49566811695695,205.66883047582814 123.49326338618994,210.7207467709086" stroke="#4dd2ff" stroke-dasharray="none" stroke-linecap="round" stroke-linejoin="round" stroke-width="0.5"><title>2020-04-12 10.0km</title><desc>1586649823000</desc></polyline><polyline fill="none" opacity="1" points="185.6543389230501,219.3731052944786 183.49782694713213,224.04840616701404 179.0145520507358,228.1893573384732 178.61729984451085,233.7996339229867 167.7212393360678,233.73284521629103 167.0969858695753,228.12256802420598 162.55696065793745,224.18198567116633 160.51394931273535,220.9092794911121 159.83294553076848,215.0317227439955 163.06771349417977,208.08544708631234 167.0969858695753,204.67907177394954 173.7935230571311,203.14285714289872 182.07906906865537,206.0149074725923 185.25708671682514,212.62725156376837 185.93809049855918,217.50297502003377 183.95182946836576,223.11334882833762 178.90105142001994,228.45651452359743 178.9578017354943,233.7996339229867 167.60773870605044,233.73284521629103 167.0969858695753,228.12256802420598 161.8192065609619,223.71445728029357 160.23019773699343,220.5753289043787 159.83294553076848,215.2988856297452 160.68420025799423,211.29143019014737 166.35923177283257,204.81265547429211 170.5587550937198,203.20964916283265 178.16329732351005,204.4786961696227 183.04382442613132,207.5511149482918 185.71108923782595,213.6291156950174 185.82458986830898,217.70334639237262 183.78157852287404,223.64766748133115 179.128052680986,228.32293594558723 178.84430110524409,233.7996339229867 167.60773870605044,233.7996339229867 166.9834852393251,228.12256802420598 162.44346002768725,224.24877541244496 160.45719899749383,220.5753289043787 160.1166971065104,213.49553390493384 163.06771349417977,208.08544708631234 166.5294827183243,204.87944731337484 169.0832468997687,203.87756896566134 175.49603251134977,203.5436091547599 181.9655684379395,206.0149074725923 185.59758860757574,212.9612064550165 185.76783955306746,217.97050812043017 183.4410766318906,224.24877541244496 179.128052680986,228.05577870248817 178.84430110524409,233.59926778101362 167.66448902129196,234.0 166.92673492408358,227.98898937366903 162.15970845194533,223.8480368569144 160.45719899749383,220.64211903640535 159.7761952157598,213.69590657937806 163.01096317940392,208.08544708631234 166.41598208784126,204.87944731337484 169.3102481602691,203.677193100797 173.62327211163938,203.27644117578166 180.49006024445407,204.7458636277588 183.10057474114,207.08357394795166 185.76783955306746,214.8313505037804 185.6543389230501,219.50668581138598 183.3843263166491,224.24877541244496 179.2983036262449,228.2561466456973" stroke="#4dd2ff" stroke-dasharray="none" stroke-linecap="round" stroke-linejoin="round" stroke-width="0.5"><title>2020-04-08 10.0km</title><desc>1586343893000</desc></polyline><polyline fill="none" opacity="1" points="38.83341953065246,246.17826445249375 40.02517589088529,252.25622240634402 37.41466195951216,258.9352279935265 33.215139548294246,262.6086502314429 32.98813833692111,268.2189256005804 21.97857958334498,268.01855950203026 21.52457716059871,262.6086502314429 16.360299600986764,257.7330123264692 14.260538395261392,252.72375515219755 14.60104021243751,247.18012977723265 17.09805353800766,242.23757838102756 20.67332261777483,239.09836975991493 23.11358564044349,238.23007519193925 30.54787531425245,238.09649130376056 35.82565347966738,240.70137190376408 39.85492498218082,248.11520261201076 39.287421953631565,255.26178387284745 36.847158931195736,259.53633494809037 33.215139548294246,262.67543952417327 33.215139548294246,268.08534820890054 22.092080189380795,268.2189256005804 21.411076555028558,262.6086502314429 15.84954687510617,256.9983238207642 14.033537183888257,250.319297254493 15.509045058162883,244.84244148706784 20.559822011971846,238.8979941989528 27.029356537386775,237.42857142863795 34.69064742233604,239.7662878263509 37.18766074790619,242.30436988029396 40.081926193553954,249.18385554366978 39.17392134782858,255.26178387284745 36.449906811118126,259.80349340633256 33.44214075990021,262.54186093161115 33.101638942724094,268.08534820890054 21.86507897777483,268.15213690837845 21.297575949225575,262.47507162438706 16.076548086712137,257.9333817671868 14.090287486789748,252.18943198525812 14.941542029613629,246.24505552469054 20.73007292067632,238.83120233088266 27.029356537386775,237.62894746713573 34.86089833127335,239.4323288835003 38.038915290962905,243.8405723637552 40.19542679935694,249.718181315111 40.2521771020256,252.79054551565787 38.77666922821663,256.86474399844883 33.27188985142857,262.47507162438706 33.27188985142857,268.08534820890054 22.26233109785244,268.28571428573923 21.240825646324083,262.8758073586505 16.076548086712137,257.7998021475505 14.14703778969124,253.12449722364545 14.317288698395714,247.58087545150192 16.927802629536018,242.90549304691376 21.297575949225575,238.8979941989528 26.121351691894233,237.76253145665396 29.980372285703197,238.0296993488446 35.88240378256887,240.5009968635859 39.06042074225843,246.11147337284638 39.79817467951216,253.65881958039245 38.26591650233604,257.7998021475505 33.38539045699872,262.4082823100034 33.215139548294246,267.81819333834574" stroke="#4dd2ff" stroke-dasharray="none" stroke-linecap="round" stroke-linejoin="round" stroke-width="0.5"><title>2020-04-07 10.0km</title><desc>1586257895000</desc></polyline><polyline fill="none" opacity="1" points="76.22674610745162,248.91669248440303 75.54574247309938,255.66252429486485 72.99197884462774,259.53633494809037 69.81396188517101,262.34149298851844 69.87071218783967,267.8849820669857 58.6909025257919,268.2189256005804 57.66939707449637,262.6086502314429 52.448369211982936,257.3322732500965 50.85936073213816,253.12449722364545 51.25661285221577,246.97975684236735 53.86712678312324,242.10399536101613 60.10966009716503,238.09649130376056 65.5576891710516,237.76253145665396 72.36772551364265,240.30062175844796 75.82949398760684,248.24878432956757 75.14849035348743,256.0632644565194 72.59472672478296,260.2042308769305 69.87071218783967,262.47507162438706 69.53021037066355,267.75140460260445 58.86115343426354,268.28571428573923 58.00989889167249,262.8758073586505 53.41312436037697,259.00201768404804 51.143112246412784,254.126351262792 51.25661285221577,246.97975684236735 53.41312436037697,242.7719101717812 57.66939707449637,238.83120233088266 61.98242009128444,237.4953634488047 66.18194250250235,237.62894746713573 72.93522854195908,241.5028714130167 75.65924307890236,246.44542869809084 75.82949398760684,254.32672187534627 73.21898005646653,259.1355970434961 69.64371097669937,262.54186093161115 69.53021037066355,267.81819333834574 58.80440313136205,268.15213690837845 57.953148588771,262.6086502314429 52.788871029159054,258.0669613581267 50.91611103480682,253.45844875084003 51.0296116406098,247.9816208652337 53.81037648045458,242.30436988029396 58.23690010304563,238.43045097013237 65.33068795967847,237.42857142863795 72.14072430203669,240.83495522773592 74.97823944455013,244.44169403315755 75.99974489584565,247.84803908941103 76.28349641058594,252.52338401885936 75.37549156462774,255.8628944082302 72.93522854195908,259.6699141917634 69.64371097669937,262.54186093161115 69.58696067356504,267.95177078811685 58.917903737165034,268.15213690837845 58.00989889167249,263.0761751283426 52.9591219376307,258.0669613581267 50.85936073213816,253.0577068964485 51.199862549081445,247.11333880625898 53.52662496594712,242.504744334321 56.874892834573984,239.2987452559173 59.99615949159488,238.09649130376056 67.14669765089639,237.82932344061555 70.94896794203669,239.03157791355625 74.01348429592326,242.97228447382804 76.05649519897997,247.58087545150192 75.94299459317699,255.0614135642536 72.82172793638892,260.00386217422783 69.81396188517101,262.8090180879226" stroke="#4dd2ff" stroke-dasharray="none" stroke-linecap="round" stroke-linejoin="round" stroke-width="0.5"><title>2020-04-02 10.0km</title><desc>1585825459000</desc></polyline><polyline fill="none" opacity="1" points="107.00476386840455,239.54756666638423 109.4803430668544,241.66655455884757 112.23723808326758,248.0234741672757 112.57481706514955,253.5857246008818 110.71813266607933,258.3533275509835 105.99202692368999,262.5911656274693 105.82323743286543,268.28571428573923 94.79565736674704,268.15328352397773 94.28928889427334,262.723597594013 90.18207795149647,259.479006155103 88.04407773469575,256.1681808140711 87.14386711688712,248.68564949184656 90.0132884606719,242.527391292213 97.21497340151109,237.95832092664205 102.89755292562768,238.15697687020293 107.22981652291492,239.61378514906392 109.8179220482707,242.063863971096 112.23723808326758,247.89103901648195 112.68734339228831,252.79112049448304 110.3242905207444,258.6844097083085 106.21707957796752,262.52494963339996 105.99202692368999,268.21949890838005 94.73939420329407,267.9546373276389 94.28928889427334,262.92224548989907 88.83176202513278,257.49251310213003 87.14386711688712,250.407301978732 88.60670937062241,244.71258678642334 94.1204994036816,239.2164741444867 99.63428943650797,237.7596649187617 107.56739550456405,239.8786590087111 111.73086961102672,245.7720726992702 112.79986971942708,252.19516673701582 111.50581695651636,257.028997127607 105.99202692368999,262.723597594013 105.93576376000419,268.15328352397773 94.90818369411863,268.15328352397773 93.95170991285704,262.5911656274693 90.18207795149647,259.3465734857018 87.76276191673242,255.77088056819048 87.14386711688712,249.41404152027098 90.23834111518227,242.527391292213 96.82113125664182,237.42857142863795 102.16613179864362,238.0245395816164 109.25529041234404,241.9976457535522 112.51855390146375,247.9572565954295 112.74360655574128,252.98977161815856 109.9304483756423,259.3465734857018 106.16081641451456,262.52494963339996 105.76697426917963,268.0870681324159 94.96444685780443,268.21949890838005 94.1204994036816,262.45873363222927 90.18207795149647,259.41278982389485 88.15660406183451,256.49926415499067 87.20013028080575,249.3478240989498 89.6757094792556,243.25579065823695 94.40181522164494,238.68672573694494 98.50902616442181,237.7596649187617 104.30413201544434,238.68672573694494 107.11729019554332,239.54756666638423 109.4240799031686,242.063863971096 112.51855390146375,248.2221268400317 112.85613288311288,253.25463968218537 110.15550103015266,258.94927530532004" stroke="#4dd2ff" stroke-dasharray="none" stroke-linecap="round" stroke-linejoin="round" stroke-width="0.5"><title>2020-03-23 10.0km</title><desc>1584960411000</desc></polyline><polyline fill="none" opacity="1" points="123.96627799095586,246.4342504622764 126.2730681982357,242.5936094521894 132.68707023817115,237.42857142857974 138.14459829009138,237.56100884615444 143.9397053963039,239.41512967919698 146.0777060764376,241.40168147400254 148.89086486585438,247.36129812558647 149.11591756902635,252.12894961691927 146.97791688912548,258.28711109771393 142.42059965012595,262.32630160817644 141.80170471640304,267.8884219143656 131.22422766778618,268.28571428573923 130.32401685533114,262.6573816141463 126.4981209016405,259.28035714 124.07880434254184,254.71141198358964 123.6849621119909,247.9572565953713 126.32933137426153,242.92470014473656 132.40575435943902,237.49479014100507 139.55117768468335,237.75966491864529 144.7836530331988,240.0110958952573 148.38449628371745,245.9045083091478 149.11591756902635,252.59246930660447 146.97791688912548,258.28711109771393 142.36433647433296,262.723597594013 142.19554694695398,267.9546373276389 131.1117013162002,268.08706813229946 130.38028003112413,262.52494963328354 126.5543840774335,258.8830589167774 123.96627799095586,254.71141198358964 123.74122528778389,248.15590928966412 126.10427867108956,242.72604575072182 133.47475469927303,237.42857142857974 142.25181012274697,238.42185136082117 146.1339692522306,241.40168147400254 148.44075945951045,245.9045083091478 149.11591756902635,252.32760095532285 147.14670641627163,258.02224521385506 142.42059965012595,262.723597594013 142.25181012274697,268.02085273351986 131.1117013162002,268.21949890855467 130.32401685533114,262.32630160817644 126.10427867108956,258.48576043522917 124.19133069436066,255.10871291800868 123.79748846380971,247.29508048202842 126.38559454982169,242.5936094521894 132.462017535232,237.89210226450814 138.65096687199548,237.89210226450814 144.38981080264784,239.81244055461138 146.19023242779076,241.26924488827353 148.8346016900614,247.55995101347798 149.22844392061234,252.65868637617677 146.69660101016052,258.48576043522917 142.42059965012595,262.78981356631266 142.19554694695398,268.02085273351986 131.05543814064004,268.02085273351986 130.32401685533114,262.45873363217106 124.4163833972998,255.43979683250654 123.62869893643074,252.52625222946517" stroke="#4dd2ff" stroke-dasharray="none" stroke-linecap="round" stroke-linejoin="round" stroke-width="0.5"><title>2019-12-13 10.0km</title><desc>1576239112000</desc></polyline><polyline fill="none" opacity="1" points="187.75369458121713,252.98800570981984 188.28571428568102,257.78747622898663 188.1305418718839,266.6558115825319 187.1551724136807,267.02097133756615 175.82758620672394,266.890557202787 171.4384236453334,267.43829609442037 168.86699507385492,267.15138540169573 168.24630541855004,262.2738513689401 167.75862068962306,240.23242652056797 159.4236453201156,239.0324804385018 159.0246305417968,238.5107628866972 157.42857142852154,238.2759896198695" stroke="#4dd2ff" stroke-dasharray="none" stroke-linecap="round" stroke-linejoin="round" stroke-width="0.5"><title>2019-11-23 10.0km</title><desc>1574497580000</desc></polyline></svg>