<?xml version="1.0" encoding="utf-8" ?>
<svg baseProfile="full" height="300mm" version="1.1" viewBox="0,0,200,300" width="200mm" xmlns="http://www.w3.org/2000/svg" xmlns:ev="http://www.w3.org/2001/xml-events" xmlns:xlink="http://www.w3.org/1999/xlink"><defs /><rect fill="#222222" height="300" width="200" x="0" y="0" /><text fill="#FFFFFF" style="font-size:12px; font-family:Arial; font-weight:bold;" x="10" y="20">Over 10km Runs</text><text fill="#FFFFFF" style="font-size:4px; font-family:Arial" x="10" y="280">Runner</text><text fill="#FFFFFF" style="font-size:9px; font-family:Arial" x="10" y="290">Floyd Li</text><text fill="#FFFFFF" style="font-size:4px; font-family:Arial" x="65" y="280">SPECIAL TRACKS</text><rect fill="yellow" height="2.6" width="2.6" x="65" y="283" /><text fill="#FFFFFF" style="font-size:3px; font-family:Arial" x="70" y="285.5">Over 20.0 km</text><rect fill="red" height="2.6" width="2.6" x="65" y="287" /><text fill="#FFFFFF" style="font-size:3px; font-family:Arial" x="70" y="289.5">Over 40.0 km</text><text fill="#FFFFFF" style="font-size:4px; font-family:Arial" x="120" y="280">STATISTICS</text><text fill="#FFFFFF" style="font-size:3px; font-family:Arial" x="120" y="285">Number: 40</text><text fill="#FFFFFF" style="font-size:3px; font-family:Arial" x="120" y="290">Weekly: 2.0</text><text fill="#FFFFFF" style="font-size:3px; font-family:Arial" x="141" y="285">Total: 680.3 km</text><text fill="#FFFFFF" style="font-size:3px; font-family:Arial" x="141" y="290">Avg: 17.0 km</text><text fill="#FFFFFF" style="font-size:3px; font-family:Arial" x="167" y="285">Min: 10.0 km</text><text fill="#FFFFFF" style="font-size:3px; font-family:Arial" x="167" y="290">Max: 62.1 km</text><polyline fill="none" opacity="1" points="12.401744669063191,38.4069287229795 12.721766823597136,39.397975216379564 12.980476322351024,40.41883074685029 13.162918859037745,40.97227994363675 13.28853503184655,41.225279040703754 13.686319579057454,41.79451267264267 13.790999723067216,42.01763278633371 13.832871780672576,42.177504378343656 13.85530324010324,42.588595569339304 13.808944890617568,42.80467781432162 13.654915535866166,43.21750992506168 13.584630296310934,43.47925764376305 13.547244530600437,43.75681104402793 13.54275823871285,44.04314283612621 13.717723622263293,45.68374478473379 13.980919412904768,46.83768834272087 13.96746053724928,46.9676555695205 13.847826086959685,47.27325011056382 13.822403766273055,47.5191266264228 13.915120465251675,48.47274125483091 14.051204652452725,48.86260082337503 14.08559955691453,49.03469803452754 14.021296039878507,50.30605394495069 14.051204652452725,50.44301732800159 14.130462475768581,50.5992946583101 14.239628911658656,50.72220836292945 14.460952644694771,50.90306541947575 14.567128219328879,51.066361819752274 14.59404597064713,51.25775014837018 14.498338410412543,51.637008474692266 14.496842979780922,51.73182168175299 14.55815563556098,51.96007344386999 14.68825810024282,52.119847781617864 14.917058986429765,52.24450579612858 18.0454998615387,53.40325313711401 18.449266131268814,53.50507852462215 18.809664912776498,53.53492377669318 19.33157020215731,53.47523321809604 21.776599279983202,52.78350909037363 22.289531985596113,52.688701980938276 22.65740792024735,52.685190595957465 25.930905566325237,52.94503104801879 26.455801716983842,52.89060534919554 27.23342564386985,52.662366575217675 27.686541124341602,52.57809299192377 30.625062309612986,52.388475841637046 30.879285516479285,52.34458266939146 31.20828025478113,52.246261536029124 31.455026308503875,52.135649554364136 31.791498199949274,51.92495799554308 32.024785378009256,51.7283100912955 32.64389365827083,51.01895335543122 33.24057047909446,50.407898621228014 33.70864026585332,49.847745049508376 33.9060371088417,49.52639436731988 34.251481584055,48.739673134479744 34.39055663251929,48.52893780233535 34.601412351155886,48.36210373720314 35.02162835780473,48.112727537934916 35.03209637220425,48.149607356475826 35.03658266409184,48.10043424659307 35.81570202160219,47.63679479287384 36.0130988645833,47.44712031560084 36.12226530047337,47.25568736070454 36.17161451122229,47.106403224732276 36.31816671282286,46.53911106807573 36.40639711991389,46.020978729011404 36.49911381889251,45.671449665644104 36.693519800610375,45.146263795619234 36.95671559125185,44.57012074225713 37.12569925229036,44.24690964283218 37.25281085572351,44.05895242073166 37.79266131265467,43.458177445927504 37.98706729437981,43.19115925112237 38.176986984217365,42.81521833849001 38.42074217669142,42.12128597500305 38.48055940183258,42.14061107298767 38.5,42.18628848637309 38.49700913875131,42.137097420509235 38.40279700914107,42.10371768425466 38.37587925782282,42.135340593988076 38.106701744676684,42.892515307788926 38.025948490729206,43.04359469121846 37.98557186375547,43.06116197065967 37.41132650235522,42.813461584935794 36.454250900031184,42.551703192923014 36.14170589864807,42.490215713654834 34.185682636387355,42.40237605585753 32.16386042647355,42.219668053803616 30.846386042656377,42.22493850558203 30.34242592080409,42.200343049400544 29.65901412351377,42.09493353180005 28.014040432011825,41.67855928339486 27.51157574079116,41.576660170498144 26.868540570481855,41.52395348320897 25.863611188040522,41.57314639664037 25.542093602882233,41.546793068593615 24.91401273885276,41.35704785074631 23.924037662705814,41.119863226809684 23.93450567709806,41.14094644405486 23.938991968985647,41.119863226809684 23.933010246473714,41.142703377590806 23.928523954586126,41.121620162623 23.737108834116952,41.0443148080758 23.602520077540248,40.91781434728 23.515785101080837,40.75968739261043 23.355774023817503,40.02701250912469 23.131459429518145,39.62112809248356 22.998366103573062,39.48231681960169 22.857795624484424,39.4067608203859 22.70825256162061,39.37513262382163 21.465549709224433,39.461231459661576 21.209831071726512,39.4067608203859 21.073746884525463,39.31363317724572 20.97953475491522,39.197662161643166 20.803073940740433,38.68632558245372 20.720825256161334,38.51587649510657 20.61764054279047,38.38759920355369 20.40379396289063,38.24174845505877 18.821628357800364,37.78485815288877 16.508197175302485,37.41933669831997 16.185184159512573,37.317410986301184 14.206729437828471,36.52658640859954 13.97643312101718,36.48968032525772 12.335945721402823,36.46507622330682 11.591221268346999,36.48089315025027 11.5,36.763837807635355 11.772168374416651,37.317410986301184 11.873857657163171,37.607370392513985 11.936665743553021,37.718080806254875" stroke="red" stroke-dasharray="none" stroke-linecap="round" stroke-linejoin="round" stroke-width="0.5"><title>2026-06-20 50.3km</title><desc>1781914442000</desc></polyline><polyline fill="none" opacity="1" points="56.92430127499392,57.388533113189624 50.38885113026481,57.44231394075905 50.175573036889546,57.02999381633708 49.88612419599667,48.783375705912476 50.83064146630932,48.496529423311586 62.80468299041968,48.19175470349728 63.61209291504929,47.99454723295639 66.52181547367945,46.23759758082451 66.49134717468405,39.85505215309968 69.32489898568019,39.74747905411641 69.79715762089472,46.2196694270242 72.85922167473473,47.76148355577607 74.55021227162797,47.851123470420134 74.85489526204765,48.06625906759291 75.11387580394512,56.474256371933734 75.05293920589611,57.334752268114244 74.687319617311,57.76499853942369 70.5131626483635,58.39243901440932 66.43041057651863,58.5 62.22578530863393,58.195243692724034 56.68055488268146,57.37060616679082 50.51072432636283,57.46024087941623 50.19080718641635,57.17340962824528 49.91659249505028,51.04227281511703 50.12987058836734,48.58616894004808 63.18553672847338,48.10211497332784 66.46087887568865,46.291382030482055 66.278069081367,38.45659641394741 64.60231263400055,36.25131528280326 64.34333209216129,34.92454662642558 64.63278093305416,33.52604923311446 65.95815194142051,31.93031341578171 67.0854790059966,31.5 68.5479573601624,31.5 69.38583558378741,31.75101629513665 70.61980169505114,32.79093689122237 71.29010427399771,34.4942409946234 70.93971883505583,36.50232437287923 69.53817707905546,38.11594514967874 69.47724048089003,39.424759337780415 66.47611302515725,39.62197701697005 66.18666418426437,38.187661263524205 64.7851224282058,36.64575796776626 64.4195028397371,35.73136667108338 64.4195028397371,34.1177226491709 65.5163616053178,32.28890707435494" stroke="#4dd2ff" stroke-dasharray="none" stroke-linecap="round" stroke-linejoin="round" stroke-width="0.5"><title>2026-06-15 12.8km</title><desc>1781522628000</desc></polyline><polyline fill="none" opacity="1" points="106.60170284687774,31.71458694228204 108.19705106073525,33.002102738493704 108.6376710436889,34.02137895589112 108.72883379872655,35.43404962394561 108.13627589074895,37.007643224817 106.92077248974238,38.312999262314406 107.13348558486905,46.12703809593222 109.92914340726566,47.64688827426289 112.01069298153743,47.879334715238656 112.26898745424114,48.09390037029516 112.54247571952874,55.99687441671267 112.34495641681133,57.60603093265672 109.38216687680688,58.24968914894271 105.06712980318116,58.5 100.66092997428495,58.26756850800302 93.68697921087733,57.319959809057764 87.76140013075201,57.39147763645451 87.45752428052947,48.68395448414958 100.40263550158124,48.129661285711336 101.4358133925125,47.807812768180156 103.92759536462836,46.25220275683387 103.74526985443663,38.509695852713776 102.22589060314931,36.650009632561705 101.84604579035658,35.14794008503668 102.16511543316301,33.44915448578831 103.33503745665075,32.09011342008307 104.7024787827977,31.5 106.61689663946163,31.71458694228204 107.80201245547505,32.519285491653136 108.71364000625908,34.43266406856128 108.60728345863754,35.898976567114005 108.1666634757421,36.90035322846961 106.93596628226805,38.22359164379304 106.89038490474923,39.49317528937536 103.91240157216089,39.61834497922973 103.6389133069315,38.18782858287159 102.362634735764,36.90035322846961 101.8308519978309,35.48769510728016 101.92201475292677,34.075024898236734 102.87922368128784,32.465639043730334 104.82402912294492,31.517882255880977 106.63209043187089,31.786115861075814" stroke="#4dd2ff" stroke-dasharray="none" stroke-linecap="round" stroke-linejoin="round" stroke-width="0.5"><title>2026-06-14 10.1km</title><desc>1781439872000</desc></polyline><polyline fill="none" opacity="1" points="149.86478523042751,57.57334072922822 149.39533227006905,57.840646823489806 146.60890179558191,58.25051532492216 141.99009041127283,58.48217967862729 137.73472648020834,58.21487462615187 132.01042909245007,57.35949554129911 125.2866512084147,57.323854649599525 124.98377833078848,50.7479780712747 125.15035841352073,48.627246400370495 137.93159385066247,48.217353934567655 139.18851629295386,47.7361745199305 141.47520651924424,46.31044947639748 141.27833914884832,38.70043314655777 139.5671073900303,36.38349646590359 139.33995273179607,34.6368610940699 139.83969297993463,33.15755337008159 140.82402983226348,32.15945871725853 141.99009041127283,31.606939431032515 143.06528912694193,31.571292961700237 143.85275860887486,31.71387879247777 145.13996833900455,32.426806092931656 145.9728687524912,33.620952400931856 146.21516705467366,34.42298610098078 146.16973612306174,35.88445968004817 145.83657595753903,36.72212770860642 144.3827861448517,38.433095963686355 144.57965351530584,46.06094632393797 147.66895686736098,47.75399600484525 149.72849243547535,48.074782402807614 149.92535980598768,57.44859773671487 149.4104759139591,57.840646823489806 148.03240432054736,58.07231175406196 142.3838251522393,58.48217967862729 137.99216842622263,58.25051532492216 131.81356172193773,57.35949554129911 125.2866512084147,57.35949554129911 125.07464019401232,48.64506778874784 137.8710192751605,48.18171106319642 138.5676268938114,48.00349659060885 141.39948829985224,46.346092753025005 141.26319550490007,38.59349832549924 139.55196374619845,36.4369646031555 139.33995273179607,34.45863195248239 139.88512391154654,33.086261095668306 140.91489169566194,32.03469645995938 143.06528912694193,31.5 144.98853190016234,32.26639771966438 145.4882721483009,32.76544547852245 146.16973612306174,34.20911082983366 146.0031560403295,36.31220558912901 144.47364800813375,38.36180597492785 144.60994080308592,46.132232977543026 147.42665856529493,47.64706706654397 149.47105048946105,47.89656781447411 149.7890670109773,48.252996798211825 150.03136531315977,57.05654771615809 149.80421065492555,57.626801982783945 147.18436026317067,58.17923391969816 142.8229908248759,58.5 137.9467374945525,58.232694976526545 132.11643459962215,57.37731598423852 125.30179485230474,57.35949554129911 124.96863468684023,50.837083845821326 125.1352147696307,48.662889175189775 137.6438646169263,48.252996798211825 138.91593070304953,47.89656781447411 141.39948829985224,46.38173602192546 141.4146319438005,39.93017859378597 141.08147177833598,38.183580867844285 140.1577095015091,37.274629819134134 139.3853836634662,35.88445968004817 139.35509637568612,34.351694374825456 139.65796925337054,33.44272215888486 141.2329082171782,31.89211090716708 143.50445479957853,31.589116197326803 145.3822666411288,32.6763299183076 146.06373061583145,33.95958932887879 146.24545434245374,34.92202731911675 145.92743782087928,36.5260781266843 144.4887916520238,38.21922590468603 144.3070679254597,39.68066576792626 141.42977558763232,39.71631048050767 141.14204635383794,38.272693445454934 139.99112941877684,37.18551670099259 139.3853836634662,35.84881413742551 139.37024001957616,34.369517309227376 140.40000780363334,32.480275515888934" stroke="#ffc500" stroke-dasharray="none" stroke-linecap="round" stroke-linejoin="round" stroke-width="0.5"><title>2026-06-10 21.8km</title><desc>1781089369000</desc></polyline><polyline fill="none" opacity="1" points="171.83140495873522,54.4830674741097 171.1173553719418,54.509334968650364 170.7826446281979,54.167857317617745 170.9165289257653,52.09271355216333 165.8289256199496,47.33820323893451 166.3198347107973,45.578222724143416 168.70743801654316,41.34896354553348 168.88595041329972,39.930437723058276 165.6727272727294,37.80263341705722 161.5,36.67305069831491 165.40495867782738,37.72382549132453 168.5512396695558,39.588939525419846 169.51074380171485,40.58716367323359 170.8272727272706,40.24566640125704 172.90247933880892,40.3507425361895 172.5008264463395,38.01278776048275 171.47438016533852,37.43486287756241 171.02809917367995,36.54170352871006 171.22892561997287,33.59950826804561 171.83140495873522,32.62752519635251 171.22892561997287,33.57323850657849 171.00578512402717,36.69932012364734 172.45619834715035,38.0653263177519 173.01404958683997,40.24566640125704 176.91900826443452,40.98119838896673 178.5256198347779,39.43132481031353 177.92314049578272,43.8444980760396 176.40578512405045,47.44327629815962 186.53636363637634,57.37247480363294 188.5,49.38711967469135" stroke="#4dd2ff" stroke-dasharray="none" stroke-linecap="round" stroke-linejoin="round" stroke-width="0.5"><title>2026-06-09 11.9km</title><desc>1781004096000</desc></polyline><polyline fill="none" opacity="1" points="11.5,75.233552960628 12.713865546218585,74.81983066271641 38.35252100834623,74.76644703936472 38.5,75.06005668199214" stroke="#4dd2ff" stroke-dasharray="none" stroke-linecap="round" stroke-linejoin="round" stroke-width="0.5"><title>2026-06-07 13.9km</title><desc>1780824448000</desc></polyline><polyline fill="none" opacity="1" points="54.93730466016859,74.7586116792263 55.07585016560188,76.03386439365113 55.30256099267717,77.02942616882228 55.28114941455715,77.17586974358619 55.18542706534936,77.42437648611758 55.169053505625925,77.60779525098224 55.24336427672097,78.3902559112912 55.368055231607286,78.75262810287677 55.39072631431918,78.87390972607136 55.33404860754672,79.95060704330353 55.38190978215425,80.11920311907397 55.43858748891944,80.21828932322296 55.718197508984304,80.47117774633534 55.80384382142802,80.61462700956781 55.81643886738311,80.77138428948638 55.735830573306885,81.11446946794695 55.75346363763674,81.24903933777114 55.802584316836146,81.37473528118153 55.55320240705623,81.58324013982565 55.2912254513285,81.86567785767147 55.04814106451522,82.08156875212353 54.68666324578953,82.6050161875819 54.481363996826985,82.94805569518303 54.42090777627163,83.01754972730942 54.23702010542911,83.15062242751173 54.17530438028189,83.24672968938012 54.191677940012596,83.28517240640758 54.322666417872824,83.33248637241104 54.59723841955565,83.34431483853041 54.61990950226755,83.36353607430192 54.62494752064231,83.48182001188889 54.64384008956404,83.50104105582886 54.837803797170636,83.58236056041187 54.97760880720307,83.57348936505332 55.140084899932845,83.4522491226935 55.56201893922116,83.22602972039658 55.54942389327334,83.19793685559944 55.33278910295485,83.15949389515572 55.31263702944125,83.09591491746687 55.34160563511978,82.99832800881359 55.538088351917395,83.01607113452792 55.58091150814289,82.83272440012388 55.61239912301244,82.81941688086954 55.71441899519414,82.8297671747332 55.742128096280794,82.85342496008161 55.71189998600312,83.08408623808373 55.729533050332975,83.12548657149455 56.218220833136,82.96727748382182 56.45248868778435,82.95397009454337 56.93235993842973,82.88003992002723 57.247236087139754,83.01311394849927 57.41349069366697,83.0559930838408 57.56589074963995,83.06782178734647 58.07095209218096,83.21420115272667 58.61631758175645,83.49512689131734 58.86318048234534,83.54687574470609 59.06973923589976,83.6267164515184 59.51938237626746,83.65628696626572 59.60125017492828,83.59566734273449 59.626440266831196,83.49956251493677 59.69949153333437,83.4389422018512 60.14157764612901,83.24229398435637 60.169286747215665,83.25412252790738 60.01562718664354,82.94805569518303 59.919904837428476,82.88151852740884 59.80906843308185,82.8667324464841 59.812846946872014,82.6552897530828 59.84559406633343,82.61388800659279 62.09884778653941,81.98841076750978 62.34948920091847,81.95735796595818 62.59887111069111,81.96031537864746 65.14684890609351,82.17029005646418 65.45668703642878,82.17324742343044 65.89751364463154,82.11114258373436 66.4441386387989,81.94109218482208 66.75397676913417,81.88046501318604 69.33470168399799,81.7030180991851 69.66343238326226,81.63647491703068 69.97956803657144,81.51521762506309 70.2503615244641,81.3569900410721 70.516116993982,81.13517261042944 71.02243784111488,80.55103628346023 71.44437188038864,80.12807653955952 71.8008116807323,79.71249854235703 72.0728646732241,79.31317690541073 72.3877408219414,78.60324317148115 72.51117227223585,78.43462852894572 72.70135746605956,78.29559384886488 73.67369501329085,77.71429534749223 73.85758268414065,77.54123227213768 73.94070998740062,77.4021885665552 73.9936091803902,77.24243448965535 74.1019265755458,76.8208523263429 74.18379437420663,76.3460022118461 74.24551009935385,76.11226934572824 74.44325232075062,75.57082226316106 74.71530531324242,74.98349081301149 74.93445911274466,74.64765022568645 75.31608900498395,74.23190668619009 75.52390726313752,73.95375096680436 75.67126930073573,73.6652324413626 75.88412557727133,73.06006366492511 75.93198675187887,73.0704213007657 75.94836031160958,73.11925005034482 75.99118346783507,73.10297381974851 76.0,73.14292453317739 75.94584130241856,73.11925005034482 75.93198675187887,73.04822635727123 75.86397350375046,73.04082803481288 75.61837010775344,73.71109989365868 75.55413537341519,73.83094638562034 75.51257172178157,73.85018091052007 75.07300461818522,73.65783445086254 74.24551009935385,73.42553552451682 73.92937444604468,73.36930971682068 72.40663339086313,73.30272622617213 70.59924429724197,73.14144487919566 69.15081401314819,73.13404660688957 68.43667490786174,73.02159237778869 67.1066380557022,72.68570387527325 66.61039324531885,72.58952283690451 66.19223771982797,72.55696910228289 65.25138778746623,72.59840111478479 65.0259364649828,72.57472569435777 64.50828007650125,72.41787500427745 63.61781032793806,72.20183244474538 63.49185986845259,72.1352433001548 63.41880860194942,72.06717406342614 63.34323832625523,71.95027176172425 63.20217381163093,71.30655140586623 63.00569109483331,70.92622429325183 62.942715865094215,70.84335006295078 62.80039184587076,70.76935479220265 62.600130615290254,70.72495743853506 62.53715538555116,70.6361623009434 62.4704016420219,70.61544335296003 62.35074870551034,70.674640264333 62.29155198955414,70.62580283085663 62.21094369547791,70.64948160814947 62.10766431869706,70.758995422505 61.882212996220915,70.78859360091792 61.57489387507667,70.79599313556082 61.37589214908803,70.7397565723586 61.19074497364636,70.58880465965285 61.035825908482366,70.13001906162845 60.87586882492906,69.87694045133958 60.68820264029637,69.76593959043385 60.265009096423455,69.64309759249136 60.010589168261504,69.54541521994815 59.9715445258189,69.53653496983225 59.94005691094935,69.55577550449925 59.89471474553284,69.52617467077289 59.747352707934624,69.50397400362272 59.383355880017916,69.37224930743105 58.945048281006166,69.3293275044407 58.81783831692883,69.2923258425244 58.772496151512314,69.29972618287866 58.72589448150393,69.26716465550362 58.54074730606226,69.26864472660509 57.33540140877449,69.06883368600211 55.44110649811046,68.3346881698726 55.287446937538334,68.31840627221754 53.941036525633535,68.29768382911152 53.35662639362272,68.31100540326952 53.11983952978335,68.2932433015203 52.953584923263406,68.23403612983657 52.83645099594287,68.16446737703882 52.349022717731714,67.73520557663505 51.36786863834277,67.30148951298816 50.262023604052956,67.08092557892542 49.86150114288466,66.86775975332966 49.32495218548138,66.48730974536466 49.00251900919102,66.34371303373337 49.0,66.36739919267075 49.32999020385614,66.51543676044457 49.8866912347803,66.909208922978 50.20030787890573,67.0750043506614 50.3262583383912,67.12237410525267 51.30993142697844,67.30741064361064" stroke="red" stroke-dasharray="none" stroke-linecap="round" stroke-linejoin="round" stroke-width="0.5"><title>2026-06-06 62.1km</title><desc>1780699923000</desc></polyline><polyline fill="none" opacity="1" points="112.4038767926977,87.57211569909123 109.31048942630878,88.21449769452738 103.83640688081505,88.5 94.46526280022226,87.3579878109158 87.7932508335798,87.25092376250541 87.5051412259345,80.64850639121141 87.52030488947639,78.88186878045963 87.7325961792958,78.59634981317504 100.62171020597452,78.16807043470908 103.97287985292496,76.31218026641 104.04869817069266,69.81640007448732 103.65444291807944,68.1210306892608 102.89625974005321,67.47857036457572 102.12291289842688,66.31856621135375 101.88029428152367,64.62316083535552 102.3958588425885,63.12405102279445 103.18436934775673,62.24956399976509 103.91222519864095,61.8033953631093 105.36793690046761,61.5 106.24742938700365,61.62492757011205 107.62732277106261,62.32095086952904 108.73427021095995,64.21269164745172 108.53714258468244,66.37210504434188 106.97528523794608,68.33518357417779 107.17241286416538,75.95527591479186 107.3695404905011,76.27648986605345 110.14449092216091,77.68625480355695 112.08543985791039,77.90039525800967 112.3583858020138,78.16807043470908 112.4948587740073,87.42936380454921 111.91863955865847,87.82193121702585 110.05350894079311,88.14312204088492 104.74622669449309,88.48215612041531 100.48523723392282,88.23234160314314 94.38944448245456,87.3579878109158" stroke="#4dd2ff" stroke-dasharray="none" stroke-linecap="round" stroke-linejoin="round" stroke-width="0.5"><title>2026-06-05 14.5km</title><desc>1780659860000</desc></polyline><polyline fill="none" opacity="1" points="124.0,81.08888044542255 124.08563273074105,80.14133044308983 124.43672692673863,79.18369031220936 126.05518553761067,77.09700871355744 126.68030447192723,75.9881250427934 127.66508087539114,70.0704949560386 127.82778306378168,69.86886549000337 145.99048525214312,69.51601287223457 150.1351094195852,68.91111955457745 150.89724072310491,71.15928651651484 151.0,74.98003750317002" stroke="#4dd2ff" stroke-dasharray="none" stroke-linecap="round" stroke-linejoin="round" stroke-width="0.5"><title>2026-06-04 19.5km</title><desc>1780570902000</desc></polyline><polyline fill="none" opacity="0.5" points="180.54707972356118,83.24189910257701 180.24588082451373,88.08644333877601 170.65771587286144,88.5 169.9047186251264,83.77361947420286 165.23613569070585,79.10627851757454 163.8305408284068,75.20695039018756 163.93094046134502,70.00780285883229 166.18993220408447,65.69483605015557 170.70791568909772,62.386235656333156 173.8705041287467,61.5 176.88249311875552,61.67724724649452 181.80207513598725,63.62696315604262 184.86426394223236,67.11280150373932 186.16945917136036,70.12596585322171 186.01885972172022,76.09316377597861 183.91046742885374,80.16972680547042 180.59727953979746,83.1828190293163 184.11126669473015,79.93340514291776 180.54707972356118,83.24189910257701 180.24588082451373,88.08644333877601 170.65771587286144,88.5 169.9047186251264,83.77361947420286 165.23613569070585,79.10627851757454 163.8305408284068,75.20695039018756 163.93094046134502,70.00780285883229 166.18993220408447,65.69483605015557 170.70791568909772,62.386235656333156 173.8705041287467,61.5 176.88249311875552,61.67724724649452 181.80207513598725,63.62696315604262 184.86426394223236,67.11280150373932 186.16945917136036,70.12596585322171 186.01885972172022,76.09316377597861 183.91046742885374,80.16972680547042 180.59727953979746,83.1828190293163 184.11126669473015,79.93340514291776 180.54707972356118,83.24189910257701 180.24588082451373,88.08644333877601 170.65771587286144,88.5 169.9047186251264,83.77361947420286 165.23613569070585,79.10627851757454 163.8305408284068,75.20695039018756 163.93094046134502,70.00780285883229 166.18993220408447,65.69483605015557 170.70791568909772,62.386235656333156 173.8705041287467,61.5 176.88249311875552,61.67724724649452 181.80207513598725,63.62696315604262 184.86426394223236,67.11280150373932 186.16945917136036,70.12596585322171 186.01885972172022,76.09316377597861 183.91046742885374,80.16972680547042 180.59727953979746,83.1828190293163 184.11126669473015,79.93340514291776 180.54707972356118,83.24189910257701 180.24588082451373,88.08644333877601 170.65771587286144,88.5 169.9047186251264,83.77361947420286 165.23613569070585,79.10627851757454 163.8305408284068,75.20695039018756 163.93094046134502,70.00780285883229 166.18993220408447,65.69483605015557 170.70791568909772,62.386235656333156 173.8705041287467,61.5 176.88249311875552,61.67724724649452 181.80207513598725,63.62696315604262 184.86426394223236,67.11280150373932 186.16945917136036,70.12596585322171 186.01885972172022,76.09316377597861 183.91046742885374,80.16972680547042 180.59727953979746,83.1828190293163 184.11126669473015,79.93340514291776 180.54707972356118,83.24189910257701 180.24588082451373,88.08644333877601 170.65771587286144,88.5 169.9047186251264,83.77361947420286 165.23613569070585,79.10627851757454 163.8305408284068,75.20695039018756 163.93094046134502,70.00780285883229 166.18993220408447,65.69483605015557 170.70791568909772,62.386235656333156 173.8705041287467,61.5 176.88249311875552,61.67724724649452 181.80207513598725,63.62696315604262 184.86426394223236,67.11280150373932 186.16945917136036,70.12596585322171 186.01885972172022,76.09316377597861 183.91046742885374,80.16972680547042 180.59727953979746,83.1828190293163 184.11126669473015,79.93340514291776 180.54707972356118,83.24189910257701 180.24588082451373,88.08644333877601 170.65771587286144,88.5 169.9047186251264,83.77361947420286 165.23613569070585,79.10627851757454 163.8305408284068,75.20695039018756 163.93094046134502,70.00780285883229 166.18993220408447,65.69483605015557 170.70791568909772,62.386235656333156 173.8705041287467,61.5 176.88249311875552,61.67724724649452 181.80207513598725,63.62696315604262 184.86426394223236,67.11280150373932 186.16945917136036,70.12596585322171 186.01885972172022,76.09316377597861 183.91046742885374,80.16972680547042 180.59727953979746,83.1828190293163 184.11126669473015,79.93340514291776 180.54707972356118,83.24189910257701 180.24588082451373,88.08644333877601 170.65771587286144,88.5 169.9047186251264,83.77361947420286 165.23613569070585,79.10627851757454 163.8305408284068,75.20695039018756 163.93094046134502,70.00780285883229 166.18993220408447,65.69483605015557 170.70791568909772,62.386235656333156 173.8705041287467,61.5 176.88249311875552,61.67724724649452 181.80207513598725,63.62696315604262 184.86426394223236,67.11280150373932 186.16945917136036,70.12596585322171 186.01885972172022,76.09316377597861 183.91046742885374,80.16972680547042 180.59727953979746,83.1828190293163 184.11126669473015,79.93340514291776 180.54707972356118,83.24189910257701 180.24588082451373,88.08644333877601 170.65771587286144,88.5 169.9047186251264,83.77361947420286 165.23613569070585,79.10627851757454 163.8305408284068,75.20695039018756 163.93094046134502,70.00780285883229 166.18993220408447,65.69483605015557 170.70791568909772,62.386235656333156 173.8705041287467,61.5 176.88249311875552,61.67724724649452 181.80207513598725,63.62696315604262 184.86426394223236,67.11280150373932 186.16945917136036,70.12596585322171 186.01885972172022,76.09316377597861 183.91046742885374,80.16972680547042 180.59727953979746,83.1828190293163 184.11126669473015,79.93340514291776 180.54707972356118,83.24189910257701 180.24588082451373,88.08644333877601 170.65771587286144,88.5 169.9047186251264,83.77361947420286 165.23613569070585,79.10627851757454 163.8305408284068,75.20695039018756 163.93094046134502,70.00780285883229 166.18993220408447,65.69483605015557 170.70791568909772,62.386235656333156 173.8705041287467,61.5 176.88249311875552,61.67724724649452 181.80207513598725,63.62696315604262 184.86426394223236,67.11280150373932 186.16945917136036,70.12596585322171 186.01885972172022,76.09316377597861 183.91046742885374,80.16972680547042 180.59727953979746,83.1828190293163 184.11126669473015,79.93340514291776 180.54707972356118,83.24189910257701 180.24588082451373,88.08644333877601 170.65771587286144,88.5 169.9047186251264,83.77361947420286 165.23613569070585,79.10627851757454 163.8305408284068,75.20695039018756 163.93094046134502,70.00780285883229 166.18993220408447,65.69483605015557 170.70791568909772,62.386235656333156 173.8705041287467,61.5 176.88249311875552,61.67724724649452 181.80207513598725,63.62696315604262 184.86426394223236,67.11280150373932 186.16945917136036,70.12596585322171 186.01885972172022,76.09316377597861" stroke="#4dd2ff" stroke-dasharray="1,0.5" stroke-linecap="round" stroke-linejoin="round" stroke-width="0.5"><title>2026-06-02 16.9km</title><desc>1780401150000</desc></polyline><polyline fill="none" opacity="0.5" points="26.74612909980351,94.770255008596 27.50531566492282,92.786665443331 28.568176856148057,91.91101921851805 29.919528942147736,91.5 32.16672117495909,92.01824145496357 32.92590774013661,92.786665443331 33.56362445477862,94.00184025916678 33.7002780365292,94.91321549733402 33.42697087302804,96.36068346911634 31.878230280184653,98.48718745692167 32.06043505581329,106.0816208350443 34.71758803393459,107.6183342456934 36.99514772929251,107.92210148170125 37.23808743013069,108.19013093144167 37.52657832490513,117.12419682677137 37.3443735492765,117.64235780978925 33.7002780365292,118.32132491121592 28.537809393543284,118.48213249984838 25.455511939013377,118.2677223468636 19.139079717046116,117.33860846533207 13.141505852341652,117.41007894961513 12.640442719333805,117.15993211924797 12.473421675036661,108.74405708127597 13.247791971429251,108.52963427611394 25.40996074519353,108.17226231502718 28.91740267619025,106.31391564085789 28.735197900503408,98.43357844943239 27.232008501479868,96.7538207252801 26.791680293739773,94.50220375825302 27.717887903214432,92.57222189960885 28.947770138736814,91.73231533631042 29.82842655433342,91.53574084225693 31.01275759591954,91.60722250356048 32.197088637563866,92.07185254704382 32.72851923323469,92.48287034081295 33.50288952968549,93.87674914726813 33.685094305255916,95.34209622026538 33.396603410481475,96.46790281368885 31.878230280184653,98.3263603822561 32.06043505581329,106.09948967785749 34.6872205712134,107.58259688709222 37.28363862406695,108.13652507629013 37.49621086230036,117.2135350433673 37.28363862406695,117.71382816250843 34.216524900868535,118.28558987028373 29.57030312216375,118.5 25.182204775628634,118.24985482156626 19.169447179650888,117.37434371130075 12.685993913328275,117.33860846533207 19.169447179650888,117.37434371130075 25.182204775628634,118.24985482156626 29.57030312216375,118.5 34.216524900868535,118.28558987028373 37.28363862406695,117.71382816250843 37.49621086230036,117.2135350433673 37.28363862406695,108.13652507629013 34.6872205712134,107.58259688709222 32.06043505581329,106.09948967785749 31.878230280184653,98.3263603822561 33.396603410481475,96.46790281368885 33.685094305255916,95.34209622026538 33.50288952968549,93.87674914726813 32.72851923323469,92.48287034081295 32.197088637563866,92.07185254704382 31.01275759591954,91.60722250356048 29.82842655433342,91.53574084225693 28.947770138736814,91.73231533631042 27.717887903214432,92.57222189960885 26.791680293739773,94.50220375825302 27.232008501479868,96.7538207252801 28.735197900503408,98.43357844943239 28.91740267619025,106.31391564085789 25.40996074519353,108.17226231502718 13.247791971429251,108.52963427611394 12.473421675036661,108.74405708127597 12.640442719333805,117.15993211924797 13.141505852341652,117.41007894961513 19.139079717046116,117.33860846533207 25.455511939013377,118.2677223468636 28.537809393543284,118.48213249984838 33.7002780365292,118.32132491121592 37.3443735492765,117.64235780978925 37.52657832490513,117.12419682677137 37.23808743013069,108.19013093144167 36.99514772929251,107.92210148170125 34.71758803393459,107.6183342456934" stroke="#4dd2ff" stroke-dasharray="1,0.5" stroke-linecap="round" stroke-linejoin="round" stroke-width="0.5"><title>2026-05-28 19.4km</title><desc>1779966212000</desc></polyline><polyline fill="none" opacity="1" points="64.24612909980351,94.770255008596 65.00531566492282,92.786665443331 66.06817685614806,91.91101921851805 67.41952894214774,91.5 69.6667211749591,92.01824145496357 70.42590774013661,92.786665443331 71.06362445477862,94.00184025916678 71.2002780365292,94.91321549733402 70.92697087302804,96.36068346911634 69.37823028018465,98.48718745692167 69.56043505581329,106.0816208350443 72.21758803393459,107.6183342456934 74.49514772929251,107.92210148170125 74.73808743013069,108.19013093144167 75.02657832490513,117.12419682677137 74.8443735492765,117.64235780978925 71.2002780365292,118.32132491121592 66.03780939354328,118.48213249984838 62.95551193901338,118.2677223468636 56.639079717046116,117.33860846533207 50.64150585234165,117.41007894961513 50.140442719333805,117.15993211924797 49.97342167503666,108.74405708127597 50.74779197142925,108.52963427611394 62.90996074519353,108.17226231502718 66.41740267619025,106.31391564085789 66.23519790050341,98.43357844943239 64.73200850147987,96.7538207252801 64.29168029373977,94.50220375825302 65.21788790321443,92.57222189960885 66.44777013873681,91.73231533631042 67.32842655433342,91.53574084225693 68.51275759591954,91.60722250356048 69.69708863756387,92.07185254704382 70.22851923323469,92.48287034081295 71.00288952968549,93.87674914726813 71.18509430525592,95.34209622026538 70.89660341048148,96.46790281368885 69.37823028018465,98.3263603822561 69.56043505581329,106.09948967785749 72.1872205712134,107.58259688709222 74.78363862406695,108.13652507629013 74.99621086230036,117.2135350433673 74.78363862406695,117.71382816250843 71.71652490086854,118.28558987028373 67.07030312216375,118.5 62.682204775628634,118.24985482156626" stroke="#ffcd00" stroke-dasharray="none" stroke-linecap="round" stroke-linejoin="round" stroke-width="0.5"><title>2026-05-27 20.2km</title><desc>1779879632000</desc></polyline><polyline fill="none" opacity="0.5" points="90.34359875676455,102.29702752640878 90.9853688548319,98.3469787773065 92.19428462098585,95.50288418507262 93.76139765128028,93.72968889099138 96.19415406946791,92.1847108695365 98.83585889189271,91.5 101.29846508218907,91.62289703535498 103.28347492043395,92.816749109581 104.38791648461483,94.5021723894024 104.61178977461532,96.71426389737462 103.83569570252439,99.97967724234331 104.04464410658693,102.59547175045009 104.98491192469373,104.68456596291799 108.17883752915077,108.7748995062866 109.13403023325372,111.32033404878166 109.6116265853052,114.14659739319177 102.13425869832281,117.2010130474373 99.58210319199134,118.5 97.56724358169595,115.70892062154599 94.40316774928942,112.70714021974709 92.76143028907245,110.75858640753722 91.58236429496901,108.59935082608717 90.74657067883527,106.21186993762967 90.34359875676455,102.89391542608791 90.55254716076888,100.52390641637612 91.2092421449488,97.59206963660836 92.38830813905224,95.25709589432518 93.35842572915135,94.11593109951355 95.68670794548234,92.41294718443532 98.4030371978879,91.55267016938888 101.2238406521501,91.6053403217229 103.2983998064883,92.85186227297527 104.07449387852103,93.81747129179712 104.46254091459559,94.78307456869516 104.61178977461532,96.27535924842232 103.83569570252439,100.10256786039099 104.07449387852103,102.80613793132943 105.01476169668604,104.7196765603585 106.68634892895352,106.68585790607904 108.11913798504975,108.86267377526383 109.0146311452263,110.95168737835775 109.65640124329366,113.98860881441215 99.50747876195237,118.4122309385275 97.46276937966468,115.60359593240719 93.46289993118262,111.63631624315167 91.34356611897238,108.09025858041423 90.59732181881554,105.33411078779318 90.37344852875685,102.45502747803403 91.03014351287857,98.10119479119021 92.03011087496998,95.78378463328409 93.50767458917107,93.99303595100355 95.56730885745492,92.500730297048 97.89559107384412,91.65801045694388 100.97011759015732,91.55267016938888 102.91035277041374,92.500730297048 104.25359251059126,94.25638258398976 104.61178977461532,96.36314027314074 103.82077081652824,100.17279102899192 104.61178977461532,96.36314027314074 104.25359251059126,94.25638258398976 102.91035277041374,92.500730297048 100.97011759015732,91.55267016938888 97.89559107384412,91.65801045694388 95.56730885745492,92.500730297048 93.50767458917107,93.99303595100355 92.03011087496998,95.78378463328409 91.03014351287857,98.10119479119021 90.37344852875685,102.45502747803403 90.59732181881554,105.33411078779318 91.34356611897238,108.09025858041423 93.46289993118262,111.63631624315167 97.46276937966468,115.60359593240719 99.50747876195237,118.4122309385275 109.65640124329366,113.98860881441215 109.0146311452263,110.95168737835775 108.11913798504975,108.86267377526383 106.68634892895352,106.68585790607904 105.01476169668604,104.7196765603585 104.07449387852103,102.80613793132943 103.83569570252439,100.10256786039099 104.61178977461532,96.27535924842232 104.46254091459559,94.78307456869516 104.07449387852103,93.81747129179712 103.2983998064883,92.85186227297527 101.2238406521501,91.6053403217229 98.4030371978879,91.55267016938888 95.68670794548234,92.41294718443532 93.35842572915135,94.11593109951355 92.38830813905224,95.25709589432518" stroke="#4dd2ff" stroke-dasharray="1,0.5" stroke-linecap="round" stroke-linejoin="round" stroke-width="0.5"><title>2026-05-26 19.0km</title><desc>1779792854000</desc></polyline><polyline fill="none" opacity="1" points="127.84359875676455,102.29702752640878 128.4853688548319,98.3469787773065 129.69428462098585,95.50288418507262 131.26139765128028,93.72968889099138 133.6941540694679,92.1847108695365 136.3358588918927,91.5 138.79846508218907,91.62289703535498 140.78347492043395,92.816749109581 141.88791648461483,94.5021723894024 142.11178977461532,96.71426389737462 141.3356957025244,99.97967724234331 141.54464410658693,102.59547175045009 142.48491192469373,104.68456596291799 145.67883752915077,108.7748995062866 146.63403023325372,111.32033404878166 147.1116265853052,114.14659739319177 139.6342586983228,117.2010130474373 137.08210319199134,118.5 135.06724358169595,115.70892062154599 131.90316774928942,112.70714021974709 130.26143028907245,110.75858640753722 129.082364294969,108.59935082608717 128.24657067883527,106.21186993762967 127.84359875676455,102.89391542608791 128.05254716076888,100.52390641637612 128.7092421449488,97.59206963660836 129.88830813905224,95.25709589432518 130.85842572915135,94.11593109951355 133.18670794548234,92.41294718443532 135.9030371978879,91.55267016938888 138.7238406521501,91.6053403217229 140.7983998064883,92.85186227297527 141.57449387852103,93.81747129179712 141.9625409145956,94.78307456869516 142.11178977461532,96.27535924842232 141.3356957025244,100.10256786039099 141.57449387852103,102.80613793132943 142.51476169668604,104.7196765603585 144.18634892895352,106.68585790607904 145.61913798504975,108.86267377526383 146.5146311452263,110.95168737835775 147.15640124329366,113.98860881441215 137.00747876195237,118.4122309385275 134.96276937966468,115.60359593240719 130.96289993118262,111.63631624315167 128.84356611897238,108.09025858041423 128.09732181881554,105.33411078779318 127.87344852875685,102.45502747803403 128.53014351287857,98.10119479119021 129.53011087496998,95.78378463328409 131.00767458917107,93.99303595100355 133.06730885745492,92.500730297048 135.39559107384412,91.65801045694388" stroke="#ffbf00" stroke-dasharray="none" stroke-linecap="round" stroke-linejoin="round" stroke-width="0.5"><title>2026-05-24 23.2km</title><desc>1779623970000</desc></polyline><polyline fill="none" opacity="1" points="161.5840074673324,110.18980507611377 161.6041692594954,110.4107520956004 161.5,110.84277474994269 161.5621655258219,111.16431926297264 161.68313627877797,111.3319936169737 161.89483509645652,111.46613199836247 165.52059738643584,112.8133793685738 165.79278158058878,112.88241573863525 166.34051026757516,112.94158956369029 166.92856253889477,112.88241573863525 169.80833851898205,112.06777004425385 170.2098942128141,111.99478549523519 170.68705662725552,111.99281293583226 174.05239576850727,112.26896919170395 174.5850031113805,112.26896919170395 175.1512134411969,112.17231497427383 175.81487243309675,111.96322451938977 176.2130678282483,111.88234927131089 179.74474175481737,111.63183099972775 180.12277535780595,111.54700907858205 180.58985687615495,111.35369253918725 180.89060360920848,111.16629191132415 181.2434349719988,110.8644742499946 181.85836963284237,110.15034997154362 182.43130056004884,109.57232297409064 183.0143123833186,108.89563344439921 183.29321717485436,108.46553792681334 183.69141256999865,107.56190994354074 183.87118855008885,107.30344048581173 184.0744866210298,107.141648592009 185.41356565026945,106.34450673781612 185.68070939637983,106.09588610848004 185.7747977597901,105.93802999307263 185.85040448039217,105.72492208409676 186.02177971374476,105.05401066054765 186.13098942126817,104.41662209334754 186.2032358431752,104.16008174779745 186.38469197260565,103.6588310320949 186.7257622899706,102.93653230030759 186.7207218419353,102.89903514178332 186.95594275045733,102.45498401679652 187.0987554449166,102.2517036938134 187.65824517733563,101.63987553920924 187.88674548848212,101.3339538104774 188.11020535157877,100.88394354464435 188.37230864964658,100.1339019019506 188.39751088985213,100.11613738598498 188.5,100.15758789646316 188.39247044180956,100.04902683708679 188.34542626010807,100.08652982115382 188.01443683882098,101.01223706993915 187.95059116365155,100.99249966291063 187.88674548848212,100.87604852916593 187.98923459862272,101.04776434908126 187.92370877410576,101.166188115978 187.88674548848212,101.18000417231997 187.27853142501408,100.90960232148245 186.15955196016876,100.59577327827537 185.76303671436472,100.5286644841799 183.72501555692725,100.44181744501657 181.47529558182578,100.23456716741384 179.8573117610431,100.23456716741384 179.2440572495325,100.20101214031274 178.53671437460434,100.08652982115382 176.5827006844993,99.60095893870312 176.04337274424324,99.49831629327855 175.36963285625097,99.44699475515336 174.1784069695059,99.5062119017839 173.89950217796286,99.47462944737163 173.20224019912712,99.2634203855414 172.0227753578074,98.97522465775182 171.90180460484407,98.91995372664496 171.7724331051577,98.81928124552906 171.6649035469818,98.66925848356186 171.4498444306082,97.75725160080765 171.20622277536313,97.31899839162543 171.05332918481145,97.15711843089775 170.85675171126059,97.05841043630971" stroke="red" stroke-dasharray="none" stroke-linecap="round" stroke-linejoin="round" stroke-width="0.5"><title>2026-05-23 52.6km</title><desc>1779516240000</desc></polyline><polyline fill="none" opacity="1" points="18.417851054633502,147.28500558173982 12.906155397940893,147.42794656577462 12.69358311360702,147.07059387353365 12.435459625557996,141.01334802483325 12.69358311360702,138.6011085750797 25.508655108860694,138.19013093099056 28.924995391920675,136.2960468208039 28.773158045951277,128.37996942423342 27.08776350633707,126.3428135713475 26.829640018346254,124.98469569506415 26.93592616042588,124.09119099513919 27.740664093755186,122.6258328116237 28.66687190387165,121.89314883900806 29.653814652294386,121.51787042208889 31.172188111464493,121.58935209111951 32.84239891654579,122.5186109701317 33.72305552283069,124.26989232226333 33.60158564610174,126.09263480255322 33.0094199970481,127.2184362745611 32.11357965617208,127.98683604286634 31.916191106429324,128.61227507292642 32.09839592158096,135.9208011621231 32.2957844712073,136.27817799928016 35.19587777816923,137.7434149395849 37.30641688639298,138.1007878294622 37.44307049771305,147.53515222256829 35.01367296313401,148.16051716588845 29.30458875669865,148.48213249980472 25.204980417038314,148.21411976509262 19.040384172811173,147.30287321150536 13.012441540078726,147.39221133136016 12.739134317380376,147.15993211916066 12.450643360149115,140.6202447416581 12.617664440709632,138.6011085750797 25.068326805660035,138.22586815805698 26.48041412269231,137.83275823458098 28.955362861102913,136.2603091757628 28.74279057676904,128.4157087760832 27.269968321430497,126.78956042912614 26.844823752879165,124.55581404300756 27.285152056079824,123.23342193065037 28.256911069969647,122.16120432842581 29.243853818334173,121.6429633225489 30.245980301406235,121.5 32.35651940962998,122.14333397599694 33.57121817697771,123.71591757821443 33.647136849875096,125.91393544976017 33.100522404536605,127.03973814107303 31.99210977938492,128.16553315051715 31.916191106429324,128.68375366822875 32.08321218693163,136.0458831431606 35.07440790149849,137.67194026877405 37.26086568267783,138.02931331342552 37.56454037450021,146.19507650744345 37.3975192939979,147.57088742597261 34.75554947502678,148.19625223395997 29.638630917703267,148.5 25.706043658487033,148.2677223468636 19.35924259928288,147.32074083932093" stroke="#ffc300" stroke-dasharray="none" stroke-linecap="round" stroke-linejoin="round" stroke-width="0.5"><title>2026-05-17 22.3km</title><desc>1779013233000</desc></polyline><polyline fill="none" opacity="1" points="60.60262295079883,128.8640959086115 59.43409836065257,128.51043650905922 59.11540983605664,128.1359714984428 58.59606557377265,126.81839211400802 58.34229508199496,125.30660992337653 56.9199999999837,124.77955824668607 55.62163934423006,124.88358194563625 52.71803278688458,125.54239480308024 49.7849180327612,125.1471078975228 49.61967213114258,125.23726126502879 49.47213114754413,125.51465545027168 49.023606557399035,126.97095531754167 49.08262295080931,127.24140738092683 50.23934426231426,128.8918338185831 53.59147540983395,129.54367126389116 54.61836065573152,130.39659753083106 54.82491803276935,131.18710447253397 55.43278688524151,132.63634199952503 55.568524590169545,133.59323694253544 56.37114754098002,136.99079254934622 56.41245901637012,137.60788035873702 57.00262295079301,140.6169654391124 57.45114754099632,141.3934807110345 57.8878688524419,141.66387222506455 59.77049180329777,142.31558044166013 61.753442622954026,143.58431263703824 63.67147540982114,143.69523885453964 64.45049180326168,144.3053296376529 65.06426229508361,144.36772496033518 66.05573770491173,144.83222157471755 69.53180327865994,145.248185850367 69.75016393439728,145.08180046228517 69.86819672130514,144.80449052752374 70.26360655738972,143.43178877613536 70.47016393442755,141.65693912350253 70.41114754095906,141.40734697012522 70.06885245902231,141.1716201597228 70.04524590165238,141.06068959759432 70.27540983606013,140.4297683932018 70.44065573767875,140.24257080339885 70.44655737702851,139.23030774696235 70.88918032785296,137.89908828327316 71.68590163931367,136.85905393673602 73.33836065573269,135.77740040406206 74.54819672132726,134.70959640929505 75.31540983606828,133.26040553126222 75.592786885245,133.05931905352918 76.0,133.20493346218427 75.6222950819647,133.05238502585416 75.29770491801901,133.27427354106476 74.6544262295065,134.55011767002725 73.94622950820485,135.23656682673754 70.54098360656644,131.44367042940576 67.67868852461106,130.8750634178068 67.45442622949486,130.60462661410565 67.407213114755,129.55060566934117 66.8878688524419,129.44658950933808 61.5468852458871,129.55754007404175 60.64983606553869,128.87796486507432 59.451803278701846,128.51043650905922 59.074098360637436,128.07356045163033 58.5606557377032,126.72130625082355 58.377704918035306,125.34821908252343 56.943606557382736,124.77262332742976 56.57180327869719,124.7379487200451 55.190819672105135,124.94599608435237 52.65311475409544,125.5285251281748 49.70229508195189,125.15404277641937 49.519344262283994,125.38982821480022 49.0,127.06804080431903 50.21573770491523,128.89876829420973 53.626885245903395,129.57140888116555 54.606557377032004,130.3757945855541 54.783606557379244,131.08309095560253 55.43868852456217,132.71955081976193 55.52721311475034,133.48229332985647 56.347540983580984,136.87292117180186 56.97901639342308,140.5545664842648 57.09704918033094,140.90815976280282 57.51016393440659,141.42814635317336 57.91737704919069,141.65693912350253 59.7527868852485,142.3225134723616 61.759344262303784,143.57044684640277 62.13704918030999,143.65364154533017 63.68327868852066,143.6813730878057 64.4622950819612,144.31226245425933 64.92262295080582,144.31919527013815 66.17967213114025,144.87381812310196 69.26032786883297,145.26205127996218 69.59672131147818,145.22045498216903 69.77967213114607,145.061002258597 70.00393442620407,144.4786498292815 70.31081967212958,143.1475387992905 70.48196721309796,141.70547081881523 70.42885245900834,141.40734697012522 70.11606557373307,141.20628592124558 70.06885245902231,141.0745559283023 70.22229508194141,140.51990037209907 70.45836065572803,140.18017148593935" stroke="#ff8300" stroke-dasharray="none" stroke-linecap="round" stroke-linejoin="round" stroke-width="0.5"><title>2026-05-16 35.3km</title><desc>1778887035000</desc></polyline><polyline fill="none" opacity="0.5" points="86.5,147.59481342320214 86.69230769237038,144.06437481957255 102.8461538462434,143.475962587705 104.48076923086774,142.8422860238643 107.36538461549208,141.07703403641062 107.19230769237038,131.50367702262884 106.96153846161906,130.7568009413808 105.9230769231217,129.82886027322093 105.00000000011642,128.38035928655881 104.67307692323811,126.63761822944798 105.1730769231217,124.75906288987608 106.94230769237038,122.90312416205416 108.23076923086774,122.45045367896091 109.61538461537566,122.40518657678331 111.86538461537566,123.31052675843239 113.32692307699472,125.61912646668497 113.38461538474075,127.63347204182355 112.75000000011642,129.24040795840847 111.21153846161906,130.82469887722982 111.05769230774604,132.61266991580487 107.4230769231217,132.7031996880978 107.00000000011642,130.77943358909397 105.50000000011642,129.33093919162638 104.71153846161906,127.29397695712396 104.90384615398943,125.46069396854728 105.80769230774604,123.85372898449714 107.90384615387302,122.54098785403767 110.5192307693651,122.58625492690771 111.76923076924868,123.24262638084474 112.57692307699472,124.08006282855058 113.5,126.45655339001678 112.96153846161906,128.85564977963804 111.25000000011642,130.73416829116468 111.0192307693651,132.5447725608683 107.4230769231217,132.68056724868075 107.03846153849736,130.89259679101815 105.53846153861377,129.37620479347243 104.78846153849736,127.63347204182355 104.86538461549208,125.6417596709216 105.65384615387302,123.96689593719202 107.46153846161906,122.69942256604554 109.76923076924868,122.4278201290872 111.94230769237038,123.4010605608346 112.82692307699472,124.5100964569574 113.42307692323811,125.95862427253451 113.32692307699472,127.95033362323011 112.63461538462434,129.3535719937645 111.23076923086774,130.93786205467768 111.07692307711113,132.567405015041 107.5192307693651,132.7258321250556 107.11538461549208,130.9604946828331 105.5961538462434,129.3535719937645 104.75,127.29397695712396 105.05769230762962,125.00802902616851 106.15384615387302,123.46896088692301 108.46153846150264,122.40518657678331 110.55769230774604,122.58625492690771 112.0192307693651,123.46896088692301 113.42307692323811,125.8680915783043 113.36538461549208,127.72400397124875 112.5192307693651,129.51200154038088 111.23076923086774,130.77943358909397 111.15384615387302,132.52214010430907 107.48076923075132,132.7258321250556 106.96153846161906,130.73416829116468 105.76923076924868,129.64779819904652 104.88461538462434,128.04086541535798 104.71153846161906,126.23022212005162 105.40384615387302,124.08006282855058 105.50000000011642,124.30639642753522 106.26923076924868,123.4010605608346 107.5192307693651,122.67678904315108 110.23076923086774,122.51835431392828 107.5192307693651,122.67678904315108 106.26923076924868,123.4010605608346 105.50000000011642,124.30639642753522 105.40384615387302,124.08006282855058 104.71153846161906,126.23022212005162 104.88461538462434,128.04086541535798" stroke="#4dd2ff" stroke-dasharray="1,0.5" stroke-linecap="round" stroke-linejoin="round" stroke-width="0.5"><title>2026-05-12 15.2km</title><desc>1778590468000</desc></polyline><polyline fill="none" opacity="1" points="124.0,147.59481342320214 124.19230769237038,144.06437481957255 140.3461538462434,143.475962587705 141.98076923086774,142.8422860238643 144.86538461549208,141.07703403641062 144.69230769237038,131.50367702262884 144.46153846161906,130.7568009413808 143.4230769231217,129.82886027322093 142.50000000011642,128.38035928655881 142.1730769232381,126.63761822944798 142.6730769231217,124.75906288987608 144.44230769237038,122.90312416205416 145.73076923086774,122.45045367896091 147.11538461537566,122.40518657678331 149.36538461537566,123.31052675843239 150.82692307699472,125.61912646668497 150.88461538474075,127.63347204182355 150.25000000011642,129.24040795840847 148.71153846161906,130.82469887722982 148.55769230774604,132.61266991580487 144.9230769231217,132.7031996880978 144.50000000011642,130.77943358909397 143.00000000011642,129.33093919162638 142.21153846161906,127.29397695712396 142.40384615398943,125.46069396854728 143.30769230774604,123.85372898449714 145.40384615387302,122.54098785403767 148.0192307693651,122.58625492690771 149.26923076924868,123.24262638084474 150.07692307699472,124.08006282855058 151.0,126.45655339001678 150.46153846161906,128.85564977963804 148.75000000011642,130.73416829116468 148.5192307693651,132.5447725608683 144.9230769231217,132.68056724868075 144.53846153849736,130.89259679101815 143.03846153861377,129.37620479347243 142.28846153849736,127.63347204182355 142.36538461549208,125.6417596709216 143.15384615387302,123.96689593719202 144.96153846161906,122.69942256604554 147.26923076924868,122.4278201290872 149.44230769237038,123.4010605608346 150.32692307699472,124.5100964569574 150.9230769232381,125.95862427253451 150.82692307699472,127.95033362323011 150.13461538462434,129.3535719937645 148.73076923086774,130.93786205467768 148.57692307711113,132.567405015041 145.0192307693651,132.7258321250556 144.61538461549208,130.9604946828331 143.0961538462434,129.3535719937645" stroke="#4dd2ff" stroke-dasharray="none" stroke-linecap="round" stroke-linejoin="round" stroke-width="0.5"><title>2026-05-11 15.3km</title><desc>1778503630000</desc></polyline><polyline fill="none" opacity="1" points="186.1957645509392,131.20603689190466 186.1457834590692,134.8531089471653 183.84665323863737,140.02955626504263 180.5479011835996,143.26481078437064 180.1480524498038,148.02942325809272 170.9015504771378,148.44117792946054 169.75198536692187,143.50010127038695 166.9030631375499,140.91190031799488 164.05414090817794,136.38251897180453 163.80423544952646,130.9119171105558 165.25368711026385,127.02952106791781 169.15221226611175,123.08827245316934 171.90117231197655,121.91177478566533 175.99962183483876,121.55882498860592 180.5978822754696,122.9117979654111 182.64710703701712,124.44124161952641 185.99584018369205,129.8530845787609 186.3956889177207,133.08839972061105 185.49602926615626,137.50016203528503 180.69784445874393,142.97069753333926 180.39795790845528,147.73531258752337 170.95153156900778,148.5 169.70200427505188,143.5589238757384 165.1037438348867,138.5589796580025 163.60431108251214,133.20604718098184 164.45398964220658,128.50012889504433 167.25293077994138,124.26476757170167 173.65051052323543,121.5 179.2483927984722,122.32354925922118 183.3468423213344,125.08831263816683 185.34608599101193,128.14718337962404 186.3457078258507,132.02957143238746 185.04619944049045,138.38251019758172 180.44793900032528,143.44127865834162 180.1480524498038,148.08824537304463 170.9015504771378,148.44117792946054 169.80196645879187,143.79421423445456 164.95380055974238,138.38251019758172 163.7042732660193,134.8531089471653 164.5539518254809,128.44130465830676 167.15296859643422,124.6765402610763 172.65088868839666,121.6764749463182 178.14880877989344,121.97059972962597 183.04695577104576,124.85301417519804" stroke="#4dd2ff" stroke-dasharray="none" stroke-linecap="round" stroke-linejoin="round" stroke-width="0.5"><title>2026-05-10 11.2km</title><desc>1778422578000</desc></polyline><polyline fill="none" opacity="0.5" points="13.381903728470206,165.13033876172267 13.529435109812766,172.42290890100412 16.48006273433566,178.5 13.529435109812766,172.42290890100412 13.381903728470206,165.13033876172267 18.1029079281725,156.53543877106858 21.79119245847687,153.58363367349375 26.364665276370943,152.02090892614797 30.569309641607106,151.5 36.618096271995455,152.8890897175297 30.569309641607106,151.5 26.364665276370943,152.02090892614797 21.79119245847687,153.58363367349375 18.1029079281725,156.53543877106858 13.381903728470206,165.13033876172267 13.529435109812766,172.42290890100412 16.48006273433566,178.5 13.529435109812766,172.42290890100412 13.381903728470206,165.13033876172267 18.1029079281725,156.53543877106858 21.79119245847687,153.58363367349375 26.364665276370943,152.02090892614797 30.569309641607106,151.5 36.618096271995455,152.8890897175297 30.569309641607106,151.5 26.364665276370943,152.02090892614797 21.79119245847687,153.58363367349375 18.1029079281725,156.53543877106858 13.381903728470206,165.13033876172267 13.529435109812766,172.42290890100412 16.48006273433566,178.5 13.529435109812766,172.42290890100412 13.381903728470206,165.13033876172267 18.1029079281725,156.53543877106858 21.79119245847687,153.58363367349375 26.364665276370943,152.02090892614797 30.569309641607106,151.5 36.618096271995455,152.8890897175297 30.569309641607106,151.5 26.364665276370943,152.02090892614797 21.79119245847687,153.58363367349375 18.1029079281725,156.53543877106858 13.381903728470206,165.13033876172267 13.529435109812766,172.42290890100412 16.48006273433566,178.5 13.529435109812766,172.42290890100412 13.381903728470206,165.13033876172267 18.1029079281725,156.53543877106858 21.79119245847687,153.58363367349375 26.364665276370943,152.02090892614797 30.569309641607106,151.5 36.618096271995455,152.8890897175297 30.569309641607106,151.5 26.364665276370943,152.02090892614797 21.79119245847687,153.58363367349375 18.1029079281725,156.53543877106858 13.381903728470206,165.13033876172267 13.529435109812766,172.42290890100412 16.48006273433566,178.5 13.529435109812766,172.42290890100412 13.381903728470206,165.13033876172267 18.1029079281725,156.53543877106858 21.79119245847687,153.58363367349375 26.364665276370943,152.02090892614797 30.569309641607106,151.5 36.618096271995455,152.8890897175297 30.569309641607106,151.5 26.364665276370943,152.02090892614797 21.79119245847687,153.58363367349375 18.1029079281725,156.53543877106858 13.381903728470206,165.13033876172267 13.529435109812766,172.42290890100412 16.48006273433566,178.5 13.529435109812766,172.42290890100412 13.381903728470206,165.13033876172267 18.1029079281725,156.53543877106858 21.79119245847687,153.58363367349375 26.364665276370943,152.02090892614797 30.569309641607106,151.5 36.618096271995455,152.8890897175297 30.569309641607106,151.5 26.364665276370943,152.02090892614797 21.79119245847687,153.58363367349375 18.1029079281725,156.53543877106858 13.381903728470206,165.13033876172267 13.529435109812766,172.42290890100412 16.48006273433566,178.5 13.529435109812766,172.42290890100412 13.381903728470206,165.13033876172267 18.1029079281725,156.53543877106858 21.79119245847687,153.58363367349375 26.364665276370943,152.02090892614797 30.569309641607106,151.5 36.618096271995455,152.8890897175297 30.569309641607106,151.5 26.364665276370943,152.02090892614797 21.79119245847687,153.58363367349375 18.1029079281725,156.53543877106858 13.381903728470206,165.13033876172267 13.529435109812766,172.42290890100412 16.48006273433566,178.5 13.529435109812766,172.42290890100412 13.381903728470206,165.13033876172267 18.1029079281725,156.53543877106858 21.79119245847687,153.58363367349375 26.364665276370943,152.02090892614797 30.569309641607106,151.5 36.618096271995455,152.8890897175297 30.569309641607106,151.5 26.364665276370943,152.02090892614797 21.79119245847687,153.58363367349375 18.1029079281725,156.53543877106858 13.381903728470206,165.13033876172267 13.529435109812766,172.42290890100412 16.48006273433566,178.5 13.529435109812766,172.42290890100412 13.381903728470206,165.13033876172267 18.1029079281725,156.53543877106858" stroke="#4dd2ff" stroke-dasharray="1,0.5" stroke-linecap="round" stroke-linejoin="round" stroke-width="0.5"><title>2026-05-10 11.3km</title><desc>1778397813000</desc></polyline><polyline fill="none" opacity="0.5" points="71.77652990398929,173.00857241923222 71.77652990398929,178.17313070909586 60.6669132525567,178.5 60.05588433681987,173.40081890305737 55.44539342657663,169.0860935592209 53.223470096243545,163.46382940706098 53.55675859586336,158.10301713866647 57.83396100648679,151.5 53.55675859586336,158.10301713866647 53.223470096243545,163.46382940706098 55.44539342657663,169.0860935592209 60.05588433681987,173.40081890305737 60.6669132525567,178.5 71.77652990398929,178.17313070909586 71.77652990398929,173.00857241923222 71.77652990398929,178.17313070909586 60.6669132525567,178.5 60.05588433681987,173.40081890305737 55.44539342657663,169.0860935592209 53.223470096243545,163.46382940706098 53.55675859586336,158.10301713866647 57.83396100648679,151.5 53.55675859586336,158.10301713866647 53.223470096243545,163.46382940706098 55.44539342657663,169.0860935592209 60.05588433681987,173.40081890305737 60.6669132525567,178.5 71.77652990398929,178.17313070909586 71.77652990398929,173.00857241923222 71.77652990398929,178.17313070909586 60.6669132525567,178.5 60.05588433681987,173.40081890305737 55.44539342657663,169.0860935592209 53.223470096243545,163.46382940706098 53.55675859586336,158.10301713866647 57.83396100648679,151.5 53.55675859586336,158.10301713866647 53.223470096243545,163.46382940706098 55.44539342657663,169.0860935592209 60.05588433681987,173.40081890305737 60.6669132525567,178.5 71.77652990398929,178.17313070909586 71.77652990398929,173.00857241923222 71.77652990398929,178.17313070909586 60.6669132525567,178.5 60.05588433681987,173.40081890305737 55.44539342657663,169.0860935592209 53.223470096243545,163.46382940706098 53.55675859586336,158.10301713866647 57.83396100648679,151.5 53.55675859586336,158.10301713866647 53.223470096243545,163.46382940706098 55.44539342657663,169.0860935592209 60.05588433681987,173.40081890305737 60.6669132525567,178.5 71.77652990398929,178.17313070909586 71.77652990398929,173.00857241923222 71.77652990398929,178.17313070909586 60.6669132525567,178.5 60.05588433681987,173.40081890305737 55.44539342657663,169.0860935592209 53.223470096243545,163.46382940706098 53.55675859586336,158.10301713866647 57.83396100648679,151.5 53.55675859586336,158.10301713866647 53.223470096243545,163.46382940706098 55.44539342657663,169.0860935592209 60.05588433681987,173.40081890305737 60.6669132525567,178.5 71.77652990398929,178.17313070909586 71.77652990398929,173.00857241923222 71.77652990398929,178.17313070909586 60.6669132525567,178.5 60.05588433681987,173.40081890305737 55.44539342657663,169.0860935592209 53.223470096243545,163.46382940706098 53.55675859586336,158.10301713866647 57.83396100648679,151.5 53.55675859586336,158.10301713866647 53.223470096243545,163.46382940706098 55.44539342657663,169.0860935592209 60.05588433681987,173.40081890305737 60.6669132525567,178.5 71.77652990398929,178.17313070909586 71.77652990398929,173.00857241923222 71.77652990398929,178.17313070909586 60.6669132525567,178.5 60.05588433681987,173.40081890305737 55.44539342657663,169.0860935592209 53.223470096243545,163.46382940706098 53.55675859586336,158.10301713866647 57.83396100648679,151.5 53.55675859586336,158.10301713866647 53.223470096243545,163.46382940706098 55.44539342657663,169.0860935592209 60.05588433681987,173.40081890305737 60.6669132525567,178.5 71.77652990398929,178.17313070909586 71.77652990398929,173.00857241923222 71.77652990398929,178.17313070909586 60.6669132525567,178.5 60.05588433681987,173.40081890305737 55.44539342657663,169.0860935592209 53.223470096243545,163.46382940706098 53.55675859586336,158.10301713866647 57.83396100648679,151.5 53.55675859586336,158.10301713866647 53.223470096243545,163.46382940706098 55.44539342657663,169.0860935592209 60.05588433681987,173.40081890305737 60.6669132525567,178.5 71.77652990398929,178.17313070909586 71.77652990398929,173.00857241923222 71.77652990398929,178.17313070909586 60.6669132525567,178.5 60.05588433681987,173.40081890305737 55.44539342657663,169.0860935592209 53.223470096243545,163.46382940706098 53.55675859586336,158.10301713866647 57.83396100648679,151.5 53.55675859586336,158.10301713866647 53.223470096243545,163.46382940706098 55.44539342657663,169.0860935592209 60.05588433681987,173.40081890305737 60.6669132525567,178.5 71.77652990398929,178.17313070909586 71.77652990398929,173.00857241923222 71.77652990398929,178.17313070909586 60.6669132525567,178.5 60.05588433681987,173.40081890305737 55.44539342657663,169.0860935592209 53.223470096243545,163.46382940706098 53.55675859586336,158.10301713866647 57.83396100648679,151.5 53.55675859586336,158.10301713866647 53.223470096243545,163.46382940706098 55.44539342657663,169.0860935592209 60.05588433681987,173.40081890305737 60.6669132525567,178.5 71.77652990398929,178.17313070909586 71.77652990398929,173.00857241923222 71.77652990398929,178.17313070909586 60.6669132525567,178.5 60.05588433681987,173.40081890305737 55.44539342657663,169.0860935592209 53.223470096243545,163.46382940706098 53.55675859586336,158.10301713866647 57.83396100648679,151.5 53.55675859586336,158.10301713866647 53.223470096243545,163.46382940706098 55.44539342657663,169.0860935592209 60.05588433681987,173.40081890305737 60.6669132525567,178.5 71.77652990398929,178.17313070909586 71.77652990398929,173.00857241923222 71.77652990398929,178.17313070909586 60.6669132525567,178.5 60.05588433681987,173.40081890305737 55.44539342657663,169.0860935592209 53.223470096243545,163.46382940706098" stroke="#ffc700" stroke-dasharray="1,0.5" stroke-linecap="round" stroke-linejoin="round" stroke-width="0.5"><title>2025-11-09 21.3km</title><desc>1762645227000</desc></polyline><polyline fill="none" opacity="1" points="110.89712693705224,165.88060222310014 109.50069877132773,169.28493382333545 105.46103157731704,173.27619191340636 105.3114142739214,177.8543635251699 97.53131449222565,178.5 95.48654467822053,178.20652897033142 94.93794789840467,173.74574975605356 90.89828070462681,169.75449512444902 89.45198010420427,167.2305983476108 88.70389358676039,162.30016143113608 89.8010871456936,157.83925128087867 94.13998894672841,153.0848197727464 100.42391569307074,151.5 105.9098834877368,152.79133497952716 109.84980581281707,157.13489368959563 111.04674424068071,160.0110147569212 111.14648910984397,165.4697331698262 109.50069877132773,169.22623863216722 105.61064888071269,172.806633663713 105.36128670815378,177.79566926218104 95.7359068505466,178.3826116072014 94.78833059500903,173.45227615203476 90.89828070462681,169.81319025839912 88.95325575908646,165.0588638050831 88.85351089015603,160.36319179768907 91.14764287695289,155.66747910081176 95.43667224352248,152.38045600161422 101.42136438307352,151.61739421635866 105.71039374964312,152.85003195086028 110.29865772323683,157.78055484988727 111.29610641300678,161.53711361420574 110.74750963365659,166.64364392403513 108.80248468834907,170.04797073092777" stroke="#4dd2ff" stroke-dasharray="none" stroke-linecap="round" stroke-linejoin="round" stroke-width="0.5"><title>2025-11-01 10.0km</title><desc>1761964262000</desc></polyline><polyline fill="none" opacity="1" points="142.63160824403167,178.38158185908105 132.9721103727352,178.5 132.3683917557355,173.58562558802078 127.23678351170383,168.25673594034743 126.02934627817012,162.75016206502914 126.5827550101094,159.31592661776813 128.29329109145328,156.29615003586514 132.569631294813,152.6250266257557 138.70743723376654,151.5 144.89555305754766,154.22374468977796 148.5178647590801,159.84882663568715 148.97065372182988,164.46727169805672 146.95825833198614,169.61856823577546 143.08439720678143,173.230367894168 142.43036870495416,178.5 133.02242025756277,178.5 132.51932140998542,173.52641598845366 128.94731959304772,170.56592783203814 126.88461431860924,167.07253118645167 126.3312055862043,160.20409302582266 129.80258763371967,154.46059141261503 134.88388599315658,151.79605986294337 141.32355124060996,152.0921195652336 146.10299029154703,155.5856119451928 148.61848452873528,160.79620316298679 148.7694141829852,165.0593772176071 147.26011764025316,169.26330796408 143.03408732195385,173.46720638254192 142.83284778287634,178.14474549988518" stroke="#4dd2ff" stroke-dasharray="none" stroke-linecap="round" stroke-linejoin="round" stroke-width="0.5"><title>2025-10-27 10.0km</title><desc>1761565093000</desc></polyline><polyline fill="none" opacity="1" points="186.52141506643966,160.6395285251201 186.41990480176173,164.6417580358684 185.25253675528802,168.3452878287644 180.48155430471525,173.30320007086266 180.3292889073491,178.0221353842644 170.73656887374818,178.5 169.61995595996268,173.54213447490474 166.11785182077438,170.43597914854763 163.5293400657829,164.46255435055355 163.93538112542592,159.3253572769463 166.01634155586362,155.32308918377385 171.85318178776652,151.55973597231787 179.06041059596464,151.85841573693324 181.8011877485551,153.1128689814941 183.6283725167159,155.08414688607445 186.36914966907352,160.99793832207797 186.31839453685097,165.05989974178374 185.10027135792188,168.5842243807274 180.43079917225987,173.48240088351304 180.3292889073491,178.0221353842644 170.58430347638205,178.44026694569038 169.87373162223957,173.84080233430723 164.95048377430066,168.6439585025073 163.4785849333275,164.52228891896084 164.23991191992536,157.83197705692146 165.96558642340824,155.382824741886 172.00544718513265,151.55973597231787 177.33473609294742,151.5 182.66402500029653,154.06864096678328 186.21688427194022,159.92270823247964 186.36914966907352,164.94043071527267 184.49120976869017,169.4802355285501 180.583064569626,173.18373283016263" stroke="#4dd2ff" stroke-dasharray="none" stroke-linecap="round" stroke-linejoin="round" stroke-width="0.5"><title>2025-10-19 10.0km</title><desc>1760866141000</desc></polyline><polyline fill="none" opacity="1" points="19.951910827541724,203.79421423457097 16.30329192080535,200.206025190535 13.904200036311522,195.5589910323033 14.154105441179127,188.67660156678176 16.803102729609236,184.85301417543087 18.75236488552764,183.44122125627473 24.550170271657407,181.5 30.59788106265478,182.9706228011055 33.59674591757357,185.3824355736724 35.89587563974783,188.9118983731023 36.24574320646934,195.6178144980804 34.696329697733745,199.32367999077542 30.647862143581733,203.32363341550808 30.547899981960654,207.97060113667976 21.651267578592524,208.5 20.501702717505395,208.20588958403096 19.80196758476086,203.44127865845803 16.1033675968647,199.79426427558064 13.804237874690443,194.85310894751456 13.654294631909579,190.85309313522885 16.30329192080535,185.55890925851418 18.452478399965912,183.61769557197113 22.35100271133706,181.91177478578174 28.248770259553567,181.91177478578174 32.59712429926731,184.38241694349563 36.34570536809042,190.38250110280933 35.89587563974783,196.44134234864032 34.49640537425876,199.44132610032102 30.447937819873914,202.9706975335721 30.29799457709305,207.97060113667976" stroke="#4dd2ff" stroke-dasharray="none" stroke-linecap="round" stroke-linejoin="round" stroke-width="0.5"><title>2025-10-16 10.0km</title><desc>1760611285000</desc></polyline><polyline fill="none" opacity="1" points="58.02364514605142,208.5 57.36236545164138,203.83047126611928 52.52993691642769,198.8017038978287 51.15650985878892,194.79063045879593 51.35998053383082,189.46244311408373 54.25943765533157,184.67301739490358 60.16008723527193,181.5 67.1289578601718,182.09868392179487 71.50357737648301,185.39143389865058 73.94522547838278,191.3183344232384 72.82613676507026,198.20303806831362 67.99370822962373,203.3515430118423 67.73936988576315,208.2605379477609 58.02364514605142,208.5 57.260630114004016,203.59100719093112 52.936878266511485,199.22076959279366 51.05477452138439,194.670896475669 51.25824519642629,189.82164837000892 53.03861360414885,185.93024566362146 58.99013085314073,181.8592104309355 65.19598644576035,181.55986842134735 68.14631123607978,182.57763059221907 70.99490068829618,185.03222576354165 73.94522547838278,191.4380691323895" stroke="#4dd2ff" stroke-dasharray="none" stroke-linecap="round" stroke-linejoin="round" stroke-width="0.5"><title>2025-10-08 10.1km</title><desc>1759919017000</desc></polyline><polyline fill="none" opacity="1" points="109.57989129447378,199.302347236895 105.44541189377196,203.3968052775599 105.09246853017248,208.2033039338421 95.41173627460375,208.3813215927803 94.50416762568057,203.15944622678217 91.42851831554435,200.54848987975856 89.21001717378385,197.16609611199237 88.65539188822731,191.1726804326754 91.22683639382012,185.6539327650098 94.05038330121897,183.0428929894697 96.57140732603148,181.97473676723894 102.67228546622209,181.55934211832937 108.4706407233607,185.00117398781003 110.58830090425909,187.90891164721688 111.39502859208733,194.19906684203306 109.83199369674549,198.82762548461324 105.4958323740866,203.15944622678217 105.09246853017248,208.14396470144857 95.61341819679365,208.5 94.80669050873257,203.45614502415992 92.083984561963,201.43859003228135 89.8150629394222,198.23422271560412 88.60497140791267,191.52872676041443 90.82347254967317,186.12866593257058 95.71425915765576,182.27144703781232 101.9663987394888,181.5" stroke="#4dd2ff" stroke-dasharray="none" stroke-linecap="round" stroke-linejoin="round" stroke-width="0.5"><title>2025-10-01 10.0km</title><desc>1759271073000</desc></polyline><polyline fill="none" opacity="1" points="142.9039530053269,182.4000212031533 147.64515705755912,186.96010615694104 149.0726163419895,190.98014991596574 148.97065496467985,195.36016438377555 146.82946603768505,200.16014046623604 143.1588564494159,203.40010081010405 142.70003025070764,208.3800029112026 132.96271870308556,208.5 132.35095043829642,203.70009617996402 126.59013261157088,197.4001593007706 125.92738365801051,193.8001632015803 126.38620985671878,189.30013517703628 129.54701255820692,184.56006612384226 135.6137145170942,181.5 142.19022336322814,182.22001707943855 145.80985226319171,184.74006948713213 148.76673220959492,190.02014211774804 149.02163565321825,195.12016448780196 146.88044672668912,199.92014264996396 143.10787576041184,203.34010171686532 143.10787576041184,208.02001148939598 142.4961074956227,208.44000145880273 132.96271870308556,208.5 132.29996974929236,203.70009617996402 128.93524429295212,200.64013578707818 126.74307467788458,197.0401607437525 126.08032572432421,190.68014765775297 129.19014773680829,184.80007059528725 135.51175313955173,181.5 143.31179851549678,182.58002526819473 147.39025361370295,186.72010262170807 149.0726163419895,191.34015241125599 148.66477083205245,196.50016246933956 146.62554328306578,200.34013876039535" stroke="#4dd2ff" stroke-dasharray="none" stroke-linecap="round" stroke-linejoin="round" stroke-width="0.5"><title>2025-09-27 10.0km</title><desc>1758965825000</desc></polyline><polyline fill="none" opacity="1" points="186.49575673346408,191.4257571004564 186.29495748924091,195.62051681609591 183.53396788076498,201.11501243221574 180.52197921695188,203.3009791696095 180.17058053961955,208.26368194638053 170.38161738216877,208.5 169.77921964926645,203.12373894953635 165.06043740920722,198.81087584747002 163.6548426996451,194.85246463294607 163.5042432663031,191.66208244895097 164.6588389207609,187.88086458528414 169.62862021592446,182.6225649213884 176.35539489868097,181.5 183.23276901431382,183.6860453475383 185.8933590007946,188.5307632710319 186.39535711123608,194.32073556474643 184.73876334610395,199.10627851769095 180.57217902806588,203.3009791696095 180.27098016161472,208.5 170.38161738216877,208.44092049618484 169.82941946038045,203.59637940808898 166.01423381944187,200.16972680570325 163.6548426996451,194.7343026623712 164.55843929876573,187.88086458528414 168.8254232390318,183.39063432597322 172.94180774618872,181.5590824218816 182.078173359856,182.8588940843474 184.18656542454846,184.74952369974926 186.14435805613175,190.18504734081216" stroke="#4dd2ff" stroke-dasharray="none" stroke-linecap="round" stroke-linejoin="round" stroke-width="0.5"><title>2020-04-24 10.0km</title><desc>1587724293000</desc></polyline><polyline fill="none" opacity="1" points="29.396242210874334,212.92734601488337 23.736712008249015,211.5 17.57186660869047,214.2952157970867 14.034660232253373,219.88560469949152 14.539975428720936,227.97372619184898 19.89631651341915,233.74238711217185 20.3005686707329,238.5 30.103683486115187,238.32159026066074 30.45740412408486,233.32609402301023 34.651520256185904,229.34155848942464 36.26852888590656,224.16756621323293 35.611619130009785,219.40982913650805 32.680790989426896,214.65205083182082 26.515945590101182,211.67841845494695 22.170234898570925,212.09472795715556 16.61176773509942,214.711523315229 13.731471114093438,220.24243610119447 14.186254791216925,226.9627175210626 16.106452538631856,230.29309199133422 19.694190434878692,233.6234462618013 20.199505631579086,238.44053009338677 30.103683486115187,238.32159026066074 30.154215005924925,233.6234462618013 34.55045721703209,229.22261668590363 36.015871287323534,224.58386624610284 35.207366972696036,218.87458113551838 32.22600731253624,214.53310584608698" stroke="#4dd2ff" stroke-dasharray="none" stroke-linecap="round" stroke-linejoin="round" stroke-width="0.5"><title>2020-04-16 10.0km</title><desc>1587033949000</desc></polyline><polyline fill="none" opacity="1" points="63.852435301523656,211.79476705705747 56.03836467070505,213.62231924652588 52.33169014076702,218.2206492224359 51.229705821024254,221.99360890430398 51.73060778458603,226.70977172651328 54.285207798471674,230.836380673456 57.64125095400959,233.724988321017 58.24233330995776,238.5 67.85965100955218,238.08734632335836 67.90974120609462,233.31233102444094 72.46794907399453,228.77308011089917 73.82038437528536,223.88007893715985 73.36957260826603,220.1660848245956 71.11551377223805,215.92148909100797 67.3086588496808,212.79697385634063 64.6538784429431,211.6768602532684 59.995490182423964,212.14848731446546 54.58574897656217,214.32975715614157 51.680517588276416,219.8123697777046 51.17961562471464,223.46741417626617 52.2315097481478,228.3014674554579 57.59116075769998,233.54813523223856 57.9918823284097,238.32314846263034 68.00992159871385,237.7925935056992 67.9598314021714,233.25337995623704 72.26758828829043,229.12678933423012 73.67011378635652,224.469599481381 73.11912162625231,219.2228441889747 68.96163532906212,214.15289776510326 64.30324706854299,211.5" stroke="#4dd2ff" stroke-dasharray="none" stroke-linecap="round" stroke-linejoin="round" stroke-width="0.5"><title>2020-04-14 10.0km</title><desc>1586861907000</desc></polyline><polyline fill="none" opacity="1" points="91.48040608596057,214.52019916358404 88.40103479218669,220.37933889293345 88.65764906653203,224.96996206103358 89.83807472931221,227.92968590953387 95.17565163900144,233.66788127523614 95.38094305875711,238.5 105.59419118403457,238.2583950581029 105.6968368939124,233.72828301775735 110.3672166899778,228.71491613076068 111.59896520781331,224.18472656677477 111.2397052233573,220.01691966503859 107.39049110561609,213.43292934907367 102.61746559967287,211.5 96.81798299588263,211.8020206525689 91.83966607041657,214.0973722654162 88.5036805018317,222.01022250426468 90.14601185871288,228.29209999513114 95.12432878417894,233.84908648312557 95.43226591334678,238.5 105.3888997642789,238.31879630329786 105.59419118403457,233.54707777069416 109.59737386624329,229.50014524621656 111.44499664288014,225.03036474552937" stroke="#4dd2ff" stroke-dasharray="none" stroke-linecap="round" stroke-linejoin="round" stroke-width="0.5"><title>2020-04-13 10.0km</title><desc>1586775592000</desc></polyline><polyline fill="none" opacity="1" points="148.68775249272585,219.79386076540686 146.27016919571906,215.13236292859074 140.40624375105835,211.5605395756429 134.59375624894165,211.74215826310683 129.1413343444001,214.89020613429602 126.98094075918198,218.4620082078618 126.15793367940933,221.7310951835243 127.0323787019588,227.66383381997002 128.3697652069386,230.1458792592166 132.3304867791012,233.5965094837593 132.9477420891635,238.5 142.41232350841165,238.13677995547187 143.18389264587313,233.11221178999403 146.57879685075022,230.08534169686027 148.43056278047152,226.8768415012164 148.996380147757,221.9732490137685 147.6589936427772,216.88799654791364 144.6241550357081,213.49780253204517 139.3774849011097,211.5605395756429 133.87362505379133,212.04485594434664 129.65571376914158,214.46643149212468 127.5981960692443,216.94853553996654 126.00361985201016,221.9732490137685 126.15793367940933,224.87908679211978 127.95826166705228,229.72211618401343 132.38192472141236,233.77812101057498 132.84486620407552,238.43946334219072 142.5666373358108,238.19731664587744 143.2353305881843,233.2332862529438 147.29892804543488,229.17727747256868 148.84206632059067,225.78715799964266 148.94494220567867,220.5203244590084 147.6589936427772,216.8274575494579 142.7209511634428,212.58971135743195 136.90846366109326,211.5 130.7873485039454,213.37672379415017" stroke="#4dd2ff" stroke-dasharray="none" stroke-linecap="round" stroke-linejoin="round" stroke-width="0.5"><title>2020-04-12 10.0km</title><desc>1586649823000</desc></polyline><polyline fill="none" opacity="1" points="180.35965158976614,233.78393933782354 180.40974179189652,238.5 170.39170143636875,238.4410494939657 169.94088962045498,233.48918418982066 165.28250085539185,229.59840127453208 163.879975205753,226.8276752733509 163.52934379316866,222.1704657477094 164.28069681976922,218.63331796164857 169.2897169974167,212.91488041746197 172.99639192898758,211.5 179.70847896696068,212.62011396704474 184.01623631967232,215.33195928751957 186.37047580303624,220.69665696378797 186.4706562065985,224.29274338524556 184.6674089427106,229.53944980440428 180.5600123971235,233.66603729780763 180.30956138833426,238.5 170.39170143636875,238.5 169.84070921689272,233.48918418982066 165.83349307486787,230.07001280621625 164.0803360126447,226.8276752733509 163.7797948019579,220.57875208870973 166.3844852943439,215.80358318140497 169.4399876028765,212.97383368824376 171.69404668267816,212.0895339542185 177.35423948336393,211.79476705699926 183.0645224857144,213.97603831632296 186.2702953997068,220.10713233274873 186.4205660049338,224.5285515006981 184.36686773202382,230.07001280621625 180.5600123971235,233.43023314099992" stroke="#4dd2ff" stroke-dasharray="none" stroke-linecap="round" stroke-linejoin="round" stroke-width="0.5"><title>2020-04-08 10.0km</title><desc>1586343893000</desc></polyline><polyline fill="none" opacity="1" points="35.6495445962064,257.1379083301872 33.50968283158727,260.886253619974 30.3247722981032,263.6389281452866 30.3247722981032,268.38286625238834 20.57098378962837,268.5 19.97381306439638,263.5803607479902 15.096918809926137,258.6606767378398 13.504463543416932,252.80385169835063 14.798333447659388,248.0012078282889 19.227349658031017,242.78853388881544 24.900471545755863,241.5 31.618642202112824,243.54993883433053 33.80826819385402,245.77557791187428 36.34624377544969,251.80818513268605 35.55001614196226,257.1379083301872 33.16133324196562,261.12052433774807 30.523829206591472,263.52179334452376 30.225243844091892,268.38286625238834 20.371926881140098,268.4414331293665 19.874284610152245,263.46322593459627 15.295975718414411,259.4806271811249 13.55422777030617,254.44376910390565 14.300691176671535,249.23115727299592 19.376642339397222,242.7299642332946 24.900471545755863,241.67570934747346 31.76793488371186,243.25709090515738 34.554731600219384,247.12267079757294 36.44577222969383,252.27673433319433 36.49553645635024,254.97088435664773 35.20166655257344,258.5435408587218 30.374536525225267,263.46322593459627" stroke="#4dd2ff" stroke-dasharray="none" stroke-linecap="round" stroke-linejoin="round" stroke-width="0.5"><title>2020-04-07 10.0km</title><desc>1586257895000</desc></polyline><polyline fill="none" opacity="1" points="70.37055762670934,261.4287020172924 67.98704490694217,263.41568767128047 67.68910581688397,268.0324790272862 58.35368099762127,268.5 57.60883327270858,263.7663314387901 53.58665555808693,260.37676547351293 51.60039495816454,256.11055735487025 51.699707988183945,249.85728723701322 53.58665555808693,246.17542140028672 57.31089418265037,242.72730203950778 61.084789322456345,241.5584430177114 64.75937143224292,241.67532903369283 70.66849671676755,245.0650124863605 73.05200943676755,249.38975011080038 73.20097898179665,256.28588164091343 70.91677929204889,260.49364741303725 67.7884188471362,263.4741283151088 67.68910581688397,268.0909191710525 58.30402448261157,268.38311979477294 57.55917675793171,263.53256895247614 53.04043389321305,259.55859118833905 51.40176889812574,255.52614265697775 51.50108192814514,250.73391825705767 53.93425116292201,245.76632364524994 57.807459332747385,242.376644598844 64.01452370733023,241.5 69.97330550686456,244.48058582423255 72.45613125665113,247.63648227899102 73.34994852659293,250.61703420319827 73.59823110187426,254.707961016451 72.80372686171904,257.6300326071796 70.66849671676755,260.9611749177566 67.7884188471362,263.4741283151088" stroke="#4dd2ff" stroke-dasharray="none" stroke-linecap="round" stroke-linejoin="round" stroke-width="0.5"><title>2020-04-02 10.0km</title><desc>1585825459000</desc></polyline><polyline fill="none" opacity="1" points="108.6338239791803,245.564603079285 110.75527787115425,250.67434608162148 111.14996696752496,254.9711377255735 109.07784921233542,260.13885503058555 105.4763112096116,263.50655410508625 105.27896666177548,268.5 95.41173925693147,268.26774773397483 95.01705016032793,263.85493556043366 90.23144486919045,259.0937027405598 88.75136075844057,252.8808109575184 90.03410032112151,247.88721957273083 94.86904174950905,243.06777912459802 99.70398317766376,241.79032981354976 106.66037849825807,243.64843689615373 110.31125263823196,248.81626335246256 111.24863924155943,254.44855679775355 110.11390808993019,258.68725407740567 105.27896666177548,263.6807448611362 105.22963052452542,268.44193694298156 95.55974766798317,268.44193694298156 94.72103333845735,263.56461769680027 91.41551215783693,260.71949431148823 89.29405826586299,257.5840347239864 88.75136075844057,252.0098390650237 91.46484829485416,245.97106169210747 97.237176326802,241.5 101.924109343905,242.02259355102433 108.14046260900795,245.50653753784718 111.00195855647326,250.7324110629852 111.1993031045422,255.1453312552767 108.73249625321478,260.71949431148823" stroke="#4dd2ff" stroke-dasharray="none" stroke-linecap="round" stroke-linejoin="round" stroke-width="0.5"><title>2020-03-23 10.0km</title><desc>1584960411000</desc></polyline><polyline fill="none" opacity="1" points="128.64416148583405,246.31945454329252 133.97246543876827,241.55806597531773 140.23815619805828,241.79032981343335 144.82641793531366,243.76456837472506 147.98393138870597,248.93239371158415 148.62530130892992,254.7969441395835 146.7505276959855,259.7904711601441 142.70496358373202,263.6807448610198 142.5569551405497,268.2677477338584 132.83773404126987,268.38387387938565 132.19636412127875,263.5065541048534 128.84150607697666,260.3130468807067 126.57204328197986,256.6550061390153 126.37469869107008,250.90660596982343 128.4468168951571,246.1452581459307 134.90985224512406,241.5 142.60629128827713,242.37098896864336 146.01048548030667,244.98394738335628 148.0332675364334,248.93239371158415 148.62530130892992,254.56468593655154 146.89853613893501,259.5582151208073 142.75429973145947,263.6807448610198 142.60629128827713,268.32581080973614 132.83773404126987,268.5 132.14702797331847,263.33236329228384 128.4468168951571,259.9646631235955" stroke="#4dd2ff" stroke-dasharray="none" stroke-linecap="round" stroke-linejoin="round" stroke-width="0.5"><title>2019-12-13 10.0km</title><desc>1576239112000</desc></polyline><polyline fill="none" opacity="0.5" points="177.4505575094372,260.2773408591747 181.10032401327044,250.95007318432909 180.57892879843712,241.5 181.10032401327044,250.95007318432909 177.4505575094372,260.2773408591747 168.89967598672956,268.5 177.4505575094372,260.2773408591747 181.10032401327044,250.95007318432909 180.57892879843712,241.5 181.10032401327044,250.95007318432909 177.4505575094372,260.2773408591747 168.89967598672956,268.5 177.4505575094372,260.2773408591747 181.10032401327044,250.95007318432909 180.57892879843712,241.5 181.10032401327044,250.95007318432909 177.4505575094372,260.2773408591747 168.89967598672956,268.5 177.4505575094372,260.2773408591747 181.10032401327044,250.95007318432909 180.57892879843712,241.5 181.10032401327044,250.95007318432909 177.4505575094372,260.2773408591747 168.89967598672956,268.5 177.4505575094372,260.2773408591747 181.10032401327044,250.95007318432909 180.57892879843712,241.5 181.10032401327044,250.95007318432909 177.4505575094372,260.2773408591747 168.89967598672956,268.5 177.4505575094372,260.2773408591747 181.10032401327044,250.95007318432909 180.57892879843712,241.5 181.10032401327044,250.95007318432909 177.4505575094372,260.2773408591747 168.89967598672956,268.5 177.4505575094372,260.2773408591747 181.10032401327044,250.95007318432909 180.57892879843712,241.5 181.10032401327044,250.95007318432909 177.4505575094372,260.2773408591747 168.89967598672956,268.5 177.4505575094372,260.2773408591747 181.10032401327044,250.95007318432909 180.57892879843712,241.5 181.10032401327044,250.95007318432909 177.4505575094372,260.2773408591747 168.89967598672956,268.5 177.4505575094372,260.2773408591747 181.10032401327044,250.95007318432909 180.57892879843712,241.5 181.10032401327044,250.95007318432909 177.4505575094372,260.2773408591747 168.89967598672956,268.5 177.4505575094372,260.2773408591747 181.10032401327044,250.95007318432909 180.57892879843712,241.5 181.10032401327044,250.95007318432909 177.4505575094372,260.2773408591747 168.89967598672956,268.5 177.4505575094372,260.2773408591747 181.10032401327044,250.95007318432909 180.57892879843712,241.5 181.10032401327044,250.95007318432909 177.4505575094372,260.2773408591747 168.89967598672956,268.5 177.4505575094372,260.2773408591747 181.10032401327044,250.95007318432909 180.57892879843712,241.5 181.10032401327044,250.95007318432909 177.4505575094372,260.2773408591747 168.89967598672956,268.5 177.4505575094372,260.2773408591747 181.10032401327044,250.95007318432909 180.57892879843712,241.5 181.10032401327044,250.95007318432909 177.4505575094372,260.2773408591747 168.89967598672956,268.5 177.4505575094372,260.2773408591747 181.10032401327044,250.95007318432909 180.57892879843712,241.5 181.10032401327044,250.95007318432909 177.4505575094372,260.2773408591747 168.89967598672956,268.5 177.4505575094372,260.2773408591747 181.10032401327044,250.95007318432909 180.57892879843712,241.5" stroke="#4dd2ff" stroke-dasharray="1,0.5" stroke-linecap="round" stroke-linejoin="round" stroke-width="0.5"><title>2019-11-23 10.0km</title><desc>1574497580000</desc></polyline></svg>