<?xml version="1.0" encoding="utf-8" ?>
<svg baseProfile="full" height="300mm" version="1.1" viewBox="0,0,200,300" width="200mm" xmlns="http://www.w3.org/2000/svg" xmlns:ev="http://www.w3.org/2001/xml-events" xmlns:xlink="http://www.w3.org/1999/xlink"><defs /><rect fill="#222222" height="300" width="200" x="0" y="0" /><text fill="#FFFFFF" style="font-size:12px; font-family:Arial; font-weight:bold;" x="10" y="20">Over 10km Runs</text><text fill="#FFFFFF" style="font-size:4px; font-family:Arial" x="10" y="280">Runner</text><text fill="#FFFFFF" style="font-size:9px; font-family:Arial" x="10" y="290">Floyd Li</text><text fill="#FFFFFF" style="font-size:4px; font-family:Arial" x="65" y="280">SPECIAL TRACKS</text><rect fill="yellow" height="2.6" width="2.6" x="65" y="283" /><text fill="#FFFFFF" style="font-size:3px; font-family:Arial" x="70" y="285.5">Over 20.0 km</text><rect fill="red" height="2.6" width="2.6" x="65" y="287" /><text fill="#FFFFFF" style="font-size:3px; font-family:Arial" x="70" y="289.5">Over 40.0 km</text><text fill="#FFFFFF" style="font-size:4px; font-family:Arial" x="120" y="280">STATISTICS</text><text fill="#FFFFFF" style="font-size:3px; font-family:Arial" x="120" y="285">Number: 40</text><text fill="#FFFFFF" style="font-size:3px; font-family:Arial" x="120" y="290">Weekly: 2.0</text><text fill="#FFFFFF" style="font-size:3px; font-family:Arial" x="141" y="285">Total: 680.3 km</text><text fill="#FFFFFF" style="font-size:3px; font-family:Arial" x="141" y="290">Avg: 17.0 km</text><text fill="#FFFFFF" style="font-size:3px; font-family:Arial" x="167" y="285">Min: 10.0 km</text><text fill="#FFFFFF" style="font-size:3px; font-family:Arial" x="167" y="290">Max: 62.1 km</text><polyline fill="none" opacity="1" points="12.277623926893284,36.52658640859954 12.303046247579914,36.55646270061334 12.373331487120595,38.18200198887098 12.401744669063191,38.4069287229795 12.721766823597136,39.397975216379564 12.980476322351024,40.41883074685029 13.162918859037745,40.97227994363675 13.28853503184655,41.225279040703754 13.686319579057454,41.79451267264267 13.790999723067216,42.01763278633371 13.832871780672576,42.177504378343656 13.85530324010324,42.588595569339304 13.808944890617568,42.80467781432162 13.654915535866166,43.21750992506168 13.584630296310934,43.47925764376305 13.547244530600437,43.75681104402793 13.54275823871285,44.04314283612621 13.717723622263293,45.68374478473379 13.980919412904768,46.83768834272087 13.96746053724928,46.9676555695205 13.847826086959685,47.27325011056382 13.822403766273055,47.5191266264228 13.915120465251675,48.47274125483091 14.051204652452725,48.86260082337503 14.08559955691453,49.03469803452754 14.021296039878507,50.30605394495069 14.051204652452725,50.44301732800159 14.130462475768581,50.5992946583101 14.239628911658656,50.72220836292945 14.460952644694771,50.90306541947575 14.567128219328879,51.066361819752274 14.59404597064713,51.25775014837018 14.498338410412543,51.637008474692266 14.496842979780922,51.73182168175299 14.55815563556098,51.96007344386999 14.68825810024282,52.119847781617864 14.917058986429765,52.24450579612858 18.0454998615387,53.40325313711401 18.449266131268814,53.50507852462215 18.809664912776498,53.53492377669318 19.33157020215731,53.47523321809604 21.776599279983202,52.78350909037363 22.289531985596113,52.688701980938276 22.65740792024735,52.685190595957465 25.930905566325237,52.94503104801879 26.455801716983842,52.89060534919554 27.23342564386985,52.662366575217675 27.686541124341602,52.57809299192377 30.625062309612986,52.388475841637046 30.879285516479285,52.34458266939146 31.20828025478113,52.246261536029124 31.455026308503875,52.135649554364136 31.791498199949274,51.92495799554308 32.024785378009256,51.7283100912955 32.64389365827083,51.01895335543122 33.24057047909446,50.407898621228014 33.70864026585332,49.847745049508376 33.9060371088417,49.52639436731988 34.251481584055,48.739673134479744 34.39055663251929,48.52893780233535 34.601412351155886,48.36210373720314 35.02162835780473,48.112727537934916 35.03209637220425,48.149607356475826 35.03658266409184,48.10043424659307 35.81570202160219,47.63679479287384 36.0130988645833,47.44712031560084 36.12226530047337,47.25568736070454 36.17161451122229,47.106403224732276 36.31816671282286,46.53911106807573 36.40639711991389,46.020978729011404 36.49911381889251,45.671449665644104 36.693519800610375,45.146263795619234 36.95671559125185,44.57012074225713 37.12569925229036,44.24690964283218 37.25281085572351,44.05895242073166 37.79266131265467,43.458177445927504 37.98706729437981,43.19115925112237 38.176986984217365,42.81521833849001 38.42074217669142,42.12128597500305 38.48055940183258,42.14061107298767 38.5,42.18628848637309 38.49700913875131,42.137097420509235 38.40279700914107,42.10371768425466 38.37587925782282,42.135340593988076 38.106701744676684,42.892515307788926 38.025948490729206,43.04359469121846 37.98557186375547,43.06116197065967 37.41132650235522,42.813461584935794 36.454250900031184,42.551703192923014 36.14170589864807,42.490215713654834 34.185682636387355,42.40237605585753 32.16386042647355,42.219668053803616 30.846386042656377,42.22493850558203 30.34242592080409,42.200343049400544 29.65901412351377,42.09493353180005 28.014040432011825,41.67855928339486 27.51157574079116,41.576660170498144 26.868540570481855,41.52395348320897 25.863611188040522,41.57314639664037 25.542093602882233,41.546793068593615 24.91401273885276,41.35704785074631 23.924037662705814,41.119863226809684 23.93450567709806,41.14094644405486 23.938991968985647,41.119863226809684 23.933010246473714,41.142703377590806 23.928523954586126,41.121620162623 23.737108834116952,41.0443148080758 23.602520077540248,40.91781434728 23.515785101080837,40.75968739261043 23.355774023817503,40.02701250912469 23.131459429518145,39.62112809248356 22.998366103573062,39.48231681960169 22.857795624484424,39.4067608203859 22.70825256162061,39.37513262382163 21.465549709224433,39.461231459661576 21.209831071726512,39.4067608203859 21.073746884525463,39.31363317724572 20.97953475491522,39.197662161643166 20.803073940740433,38.68632558245372 20.720825256161334,38.51587649510657 20.61764054279047,38.38759920355369 20.40379396289063,38.24174845505877 18.821628357800364,37.78485815288877 16.508197175302485,37.41933669831997 16.185184159512573,37.317410986301184 14.206729437828471,36.52658640859954 13.97643312101718,36.48968032525772 12.335945721402823,36.46507622330682 11.591221268346999,36.48089315025027 11.5,36.763837807635355 11.772168374416651,37.317410986301184 11.873857657163171,37.607370392513985 11.936665743553021,37.718080806254875 11.784131819440518,37.33146974306328 11.505981722511933,36.77965444487563 11.549349210748915,36.58282408930427" stroke="red" stroke-dasharray="none" stroke-linecap="round" stroke-linejoin="round" stroke-width="0.5"><title>2026-06-20 50.3km</title><desc>1781914442000</desc></polyline><polyline fill="none" opacity="1" points="74.76349036500324,57.74707163372659 70.4522260503727,58.374512176727876 65.33355181099614,58.48207317390188 56.92430127499392,57.388533113189624 50.38885113026481,57.44231394075905 50.175573036889546,57.02999381633708 49.88612419599667,48.783375705912476 50.83064146630932,48.496529423311586 62.80468299041968,48.19175470349728 63.61209291504929,47.99454723295639 66.52181547367945,46.23759758082451 66.49134717468405,39.85505215309968 69.32489898568019,39.74747905411641 69.79715762089472,46.2196694270242 72.85922167473473,47.76148355577607 74.55021227162797,47.851123470420134 74.85489526204765,48.06625906759291 75.11387580394512,56.474256371933734 75.05293920589611,57.334752268114244 74.687319617311,57.76499853942369 70.5131626483635,58.39243901440932 66.43041057651863,58.5 62.22578530863393,58.195243692724034 56.68055488268146,57.37060616679082 50.51072432636283,57.46024087941623 50.19080718641635,57.17340962824528 49.91659249505028,51.04227281511703 50.12987058836734,48.58616894004808 63.18553672847338,48.10211497332784 66.46087887568865,46.291382030482055 66.278069081367,38.45659641394741 64.60231263400055,36.25131528280326 64.34333209216129,34.92454662642558 64.63278093305416,33.52604923311446 65.95815194142051,31.93031341578171 67.0854790059966,31.5 68.5479573601624,31.5 69.38583558378741,31.75101629513665 70.61980169505114,32.79093689122237 71.29010427399771,34.4942409946234 70.93971883505583,36.50232437287923 69.53817707905546,38.11594514967874 69.47724048089003,39.424759337780415 66.47611302515725,39.62197701697005 66.18666418426437,38.187661263524205 64.7851224282058,36.64575796776626 64.4195028397371,35.73136667108338 64.4195028397371,34.1177226491709 65.5163616053178,32.28890707435494 66.75032771652332,31.589648720560945 68.59365980874281,31.5 69.87332836847054,32.03789159488224" stroke="#4dd2ff" stroke-dasharray="none" stroke-linecap="round" stroke-linejoin="round" stroke-width="0.5"><title>2026-06-15 12.8km</title><desc>1781522628000</desc></polyline><polyline fill="none" opacity="1" points="102.43376800150145,32.96343130533933 103.38907880586339,32.05324994852708 105.39068239583867,31.5 106.58861181710381,31.767701819975628 108.18079649098217,33.05266450102499 108.6205427343375,34.0699195163761 108.7115247156471,35.47978888996295 108.12014183681458,37.05026208974596 106.90704875194933,38.3530296352983 107.11934004176874,46.15157340388396 109.90945413697045,47.668409753154265 111.98687604471343,47.90039525800967 112.24465832527494,48.114535434157006 112.51760426937835,56.001838059019065 112.32047664310085,57.60780365341634 109.36356224876363,58.25018550977984 105.05708179756766,58.5 100.65961936482927,58.268029414481134 93.69949779048329,57.322299802472116 87.78566900175065,57.39367581161787 87.48239573056344,48.70341948384885 100.40183708432596,48.15022543647501 101.4329662064556,47.82901513738034 103.91980703047011,46.27648986605345 103.7378430676763,38.54933618073119 102.22147671162384,36.693337676959345 101.84238512261072,35.194246699888026 102.16082205745624,33.498829754666076 103.32842415163759,32.14248363712977 104.69315387203824,31.55354039881786 106.60377548070392,31.767701819975628 107.78654123842716,32.57080467004562 108.6963610521052,34.48038905982685 108.5902154071373,35.94379389335518 108.15046916389838,36.94318484708492 106.92221241554944,38.263799310079776 106.87672142486554,39.530865399574395 103.90464336692821,39.655786880714004 103.6316974228248,38.2281071665202 102.35794968367554,36.94318484708492 101.82722145906882,35.53332799549389 101.91820344043663,34.12345908001589 102.87351424479857,32.51726460181817 104.81446318054805,31.571387194577255 106.6189391441876,31.83908889850136 107.90785054687876,32.76711810463166 108.72668837924721,34.748086037361645 108.30210579949198,36.63979894835211" stroke="#4dd2ff" stroke-dasharray="none" stroke-linecap="round" stroke-linejoin="round" stroke-width="0.5"><title>2026-06-14 10.1km</title><desc>1781439872000</desc></polyline><polyline fill="none" opacity="1" points="149.42561955784913,47.878746344998945 149.77392336714547,48.1104252973164 150.03136531315977,56.32590654987143 149.86478523042751,57.57334072922822 149.39533227006905,57.840646823489806 146.60890179558191,58.25051532492216 141.99009041127283,58.48217967862729 137.73472648020834,58.21487462615187 132.01042909245007,57.35949554129911 125.2866512084147,57.323854649599525 124.98377833078848,50.7479780712747 125.15035841352073,48.627246400370495 137.93159385066247,48.217353934567655 139.18851629295386,47.7361745199305 141.47520651924424,46.31044947639748 141.27833914884832,38.70043314655777 139.5671073900303,36.38349646590359 139.33995273179607,34.6368610940699 139.83969297993463,33.15755337008159 140.82402983226348,32.15945871725853 141.99009041127283,31.606939431032515 143.06528912694193,31.571292961700237 143.85275860887486,31.71387879247777 145.13996833900455,32.426806092931656 145.9728687524912,33.620952400931856 146.21516705467366,34.42298610098078 146.16973612306174,35.88445968004817 145.83657595753903,36.72212770860642 144.3827861448517,38.433095963686355 144.57965351530584,46.06094632393797 147.66895686736098,47.75399600484525 149.72849243547535,48.074782402807614 149.92535980598768,57.44859773671487 149.4104759139591,57.840646823489806 148.03240432054736,58.07231175406196 142.3838251522393,58.48217967862729 137.99216842622263,58.25051532492216 131.81356172193773,57.35949554129911 125.2866512084147,57.35949554129911 125.07464019401232,48.64506778874784 137.8710192751605,48.18171106319642 138.5676268938114,48.00349659060885 141.39948829985224,46.346092753025005 141.26319550490007,38.59349832549924 139.55196374619845,36.4369646031555 139.33995273179607,34.45863195248239 139.88512391154654,33.086261095668306 140.91489169566194,32.03469645995938 143.06528912694193,31.5 144.98853190016234,32.26639771966438 145.4882721483009,32.76544547852245 146.16973612306174,34.20911082983366 146.0031560403295,36.31220558912901 144.47364800813375,38.36180597492785 144.60994080308592,46.132232977543026 147.42665856529493,47.64706706654397 149.47105048946105,47.89656781447411 149.7890670109773,48.252996798211825 150.03136531315977,57.05654771615809 149.80421065492555,57.626801982783945 147.18436026317067,58.17923391969816 142.8229908248759,58.5 137.9467374945525,58.232694976526545 132.11643459962215,57.37731598423852 125.30179485230474,57.35949554129911 124.96863468684023,50.837083845821326 125.1352147696307,48.662889175189775 137.6438646169263,48.252996798211825 138.91593070304953,47.89656781447411 141.39948829985224,46.38173602192546 141.4146319438005,39.93017859378597 141.08147177833598,38.183580867844285 140.1577095015091,37.274629819134134 139.3853836634662,35.88445968004817 139.35509637568612,34.351694374825456 139.65796925337054,33.44272215888486 141.2329082171782,31.89211090716708 143.50445479957853,31.589116197326803 145.3822666411288,32.6763299183076 146.06373061583145,33.95958932887879 146.24545434245374,34.92202731911675 145.92743782087928,36.5260781266843 144.4887916520238,38.21922590468603 144.3070679254597,39.68066576792626 141.42977558763232,39.71631048050767 141.14204635383794,38.272693445454934 139.99112941877684,37.18551670099259 139.3853836634662,35.84881413742551 139.37024001957616,34.369517309227376 140.40000780363334,32.480275515888934 141.74779210920678,31.660409120406257 143.77704038948286,31.660409120406257 145.36712299718056,32.65850680049334" stroke="#ffc500" stroke-dasharray="none" stroke-linecap="round" stroke-linejoin="round" stroke-width="0.5"><title>2026-06-10 21.8km</title><desc>1781089369000</desc></polyline><polyline fill="none" opacity="1" points="171.18287937750574,58.13010759622557 169.44941634242423,55.18271310457203 168.90661478595575,51.86426323786145 169.60700389108388,49.0198315451853 169.04669260699302,49.04044352208439 168.78404669265728,48.77248764806427 168.8891050584498,47.14413229384809 164.8968871596153,43.41329086778569 165.2821011673659,42.032242603905615 167.15564202336827,38.71356322251086 167.29571984434733,37.600452817074256 164.7743190661422,35.93077498940693 161.5,35.04439685084799 164.5642023346736,35.86893478829006 167.0330739300116,37.33248082023056 167.78599221794866,38.11578251858009 168.81906614784384,37.84781124808069 170.44747081707465,37.930263986912905 170.13229571981356,36.09568209417921 169.32684824906755,35.64218721198267 168.9766536965035,34.94132935718517 169.13424124516314,32.63260285563592 169.60700389108388,31.86989240378898 169.13424124516314,32.61198909988161 168.95914396893932,35.065010342834285 170.097276264627,36.136908847940504 170.53501945530297,37.84781124808069 173.59922178986017,38.42497966905648 174.85992217896273,37.208801309679984 174.3871595329838,40.6717971926264 173.19649805448717,43.49574119312456 181.1459143968532,51.287135610487894 182.68677042797208,45.02106576223741 186.4513618677156,40.73363583162427 187.4669260699884,39.00214633785072 188.5,36.15752222156152" stroke="#4dd2ff" stroke-dasharray="none" stroke-linecap="round" stroke-linejoin="round" stroke-width="0.5"><title>2026-06-09 11.9km</title><desc>1781004096000</desc></polyline><polyline fill="none" opacity="1" points="11.5,75.93687930620217 13.538272471865639,73.78446659787733 15.282654494338203,71.63200896734634 15.908356741594616,71.24166209767282 16.92275280901231,70.89592506500776 38.348314606701024,70.85131375055062 38.471558988734614,71.09667574123159 38.5,72.23425552505068 38.395716292085126,79.14868624944211 26.128160112304613,79.12638237941428" stroke="#4dd2ff" stroke-dasharray="none" stroke-linecap="round" stroke-linejoin="round" stroke-width="0.5"><title>2026-06-07 13.9km</title><desc>1780824448000</desc></polyline><polyline fill="none" opacity="1" points="55.17535102859256,73.56905825438753 55.000279889914964,74.06915668216789 54.948640201517264,74.3221581310263 54.93730466016859,74.7586116792263 55.07585016560188,76.03386439365113 55.30256099267717,77.02942616882228 55.28114941455715,77.17586974358619 55.18542706534936,77.42437648611758 55.169053505625925,77.60779525098224 55.24336427672097,78.3902559112912 55.368055231607286,78.75262810287677 55.39072631431918,78.87390972607136 55.33404860754672,79.95060704330353 55.38190978215425,80.11920311907397 55.43858748891944,80.21828932322296 55.718197508984304,80.47117774633534 55.80384382142802,80.61462700956781 55.81643886738311,80.77138428948638 55.735830573306885,81.11446946794695 55.75346363763674,81.24903933777114 55.802584316836146,81.37473528118153 55.55320240705623,81.58324013982565 55.2912254513285,81.86567785767147 55.04814106451522,82.08156875212353 54.68666324578953,82.6050161875819 54.481363996826985,82.94805569518303 54.42090777627163,83.01754972730942 54.23702010542911,83.15062242751173 54.17530438028189,83.24672968938012 54.191677940012596,83.28517240640758 54.322666417872824,83.33248637241104 54.59723841955565,83.34431483853041 54.61990950226755,83.36353607430192 54.62494752064231,83.48182001188889 54.64384008956404,83.50104105582886 54.837803797170636,83.58236056041187 54.97760880720307,83.57348936505332 55.140084899932845,83.4522491226935 55.56201893922116,83.22602972039658 55.54942389327334,83.19793685559944 55.33278910295485,83.15949389515572 55.31263702944125,83.09591491746687 55.34160563511978,82.99832800881359 55.538088351917395,83.01607113452792 55.58091150814289,82.83272440012388 55.61239912301244,82.81941688086954 55.71441899519414,82.8297671747332 55.742128096280794,82.85342496008161 55.71189998600312,83.08408623808373 55.729533050332975,83.12548657149455 56.218220833136,82.96727748382182 56.45248868778435,82.95397009454337 56.93235993842973,82.88003992002723 57.247236087139754,83.01311394849927 57.41349069366697,83.0559930838408 57.56589074963995,83.06782178734647 58.07095209218096,83.21420115272667 58.61631758175645,83.49512689131734 58.86318048234534,83.54687574470609 59.06973923589976,83.6267164515184 59.51938237626746,83.65628696626572 59.60125017492828,83.59566734273449 59.626440266831196,83.49956251493677 59.69949153333437,83.4389422018512 60.14157764612901,83.24229398435637 60.169286747215665,83.25412252790738 60.01562718664354,82.94805569518303 59.919904837428476,82.88151852740884 59.80906843308185,82.8667324464841 59.812846946872014,82.6552897530828 59.84559406633343,82.61388800659279 62.09884778653941,81.98841076750978 62.34948920091847,81.95735796595818 62.59887111069111,81.96031537864746 65.14684890609351,82.17029005646418 65.45668703642878,82.17324742343044 65.89751364463154,82.11114258373436 66.4441386387989,81.94109218482208 66.75397676913417,81.88046501318604 69.33470168399799,81.7030180991851 69.66343238326226,81.63647491703068 69.97956803657144,81.51521762506309 70.2503615244641,81.3569900410721 70.516116993982,81.13517261042944 71.02243784111488,80.55103628346023 71.44437188038864,80.12807653955952 71.8008116807323,79.71249854235703 72.0728646732241,79.31317690541073 72.3877408219414,78.60324317148115 72.51117227223585,78.43462852894572 72.70135746605956,78.29559384886488 73.67369501329085,77.71429534749223 73.85758268414065,77.54123227213768 73.94070998740062,77.4021885665552 73.9936091803902,77.24243448965535 74.1019265755458,76.8208523263429 74.18379437420663,76.3460022118461 74.24551009935385,76.11226934572824 74.44325232075062,75.57082226316106 74.71530531324242,74.98349081301149 74.93445911274466,74.64765022568645 75.31608900498395,74.23190668619009 75.52390726313752,73.95375096680436 75.67126930073573,73.6652324413626 75.88412557727133,73.06006366492511 75.93198675187887,73.0704213007657 75.94836031160958,73.11925005034482 75.99118346783507,73.10297381974851 76.0,73.14292453317739 75.94584130241856,73.11925005034482 75.93198675187887,73.04822635727123 75.86397350375046,73.04082803481288 75.61837010775344,73.71109989365868 75.55413537341519,73.83094638562034 75.51257172178157,73.85018091052007 75.07300461818522,73.65783445086254 74.24551009935385,73.42553552451682 73.92937444604468,73.36930971682068 72.40663339086313,73.30272622617213 70.59924429724197,73.14144487919566 69.15081401314819,73.13404660688957 68.43667490786174,73.02159237778869 67.1066380557022,72.68570387527325 66.61039324531885,72.58952283690451 66.19223771982797,72.55696910228289 65.25138778746623,72.59840111478479 65.0259364649828,72.57472569435777 64.50828007650125,72.41787500427745 63.61781032793806,72.20183244474538 63.49185986845259,72.1352433001548 63.41880860194942,72.06717406342614 63.34323832625523,71.95027176172425 63.20217381163093,71.30655140586623 63.00569109483331,70.92622429325183 62.942715865094215,70.84335006295078 62.80039184587076,70.76935479220265 62.600130615290254,70.72495743853506 62.53715538555116,70.6361623009434 62.4704016420219,70.61544335296003 62.35074870551034,70.674640264333 62.29155198955414,70.62580283085663 62.21094369547791,70.64948160814947 62.10766431869706,70.758995422505 61.882212996220915,70.78859360091792 61.57489387507667,70.79599313556082 61.37589214908803,70.7397565723586 61.19074497364636,70.58880465965285 61.035825908482366,70.13001906162845 60.87586882492906,69.87694045133958 60.68820264029637,69.76593959043385 60.265009096423455,69.64309759249136 60.010589168261504,69.54541521994815 59.9715445258189,69.53653496983225 59.94005691094935,69.55577550449925 59.89471474553284,69.52617467077289 59.747352707934624,69.50397400362272 59.383355880017916,69.37224930743105 58.945048281006166,69.3293275044407 58.81783831692883,69.2923258425244 58.772496151512314,69.29972618287866 58.72589448150393,69.26716465550362 58.54074730606226,69.26864472660509 57.33540140877449,69.06883368600211 55.44110649811046,68.3346881698726 55.287446937538334,68.31840627221754 53.941036525633535,68.29768382911152 53.35662639362272,68.31100540326952 53.11983952978335,68.2932433015203 52.953584923263406,68.23403612983657 52.83645099594287,68.16446737703882 52.349022717731714,67.73520557663505 51.36786863834277,67.30148951298816 50.262023604052956,67.08092557892542 49.86150114288466,66.86775975332966 49.32495218548138,66.48730974536466 49.00251900919102,66.34371303373337 49.0,66.36739919267075 49.32999020385614,66.51543676044457 49.8866912347803,66.909208922978 50.20030787890573,67.0750043506614 50.3262583383912,67.12237410525267 51.30993142697844,67.30741064361064 51.461071978352265,67.35477959666787 52.34776321313984,67.75740910218337 52.777254279986664,68.14522489385399" stroke="red" stroke-dasharray="none" stroke-linecap="round" stroke-linejoin="round" stroke-width="0.5"><title>2026-06-06 62.1km</title><desc>1780699923000</desc></polyline><polyline fill="none" opacity="1" points="112.05511253071018,77.88255023074453 112.3128948113299,78.20376042542921 112.5403497646912,86.62638209403667 112.3583858020138,87.57211569909123 109.26499843562488,88.21449769452738 103.79091589013115,88.5 94.41977180953836,87.3579878109158 87.7477598428959,87.25092376250541 87.45965023525059,80.64850639121141 87.47481389879249,78.88186878045963 87.6871051886119,78.59634981317504 100.57621921529062,78.16807043470908 103.92738886224106,76.31218026641 104.00320718000876,69.81640007448732 103.60895192739554,68.1210306892608 102.85076874936931,67.47857036457572 102.07742190774297,66.31856621135375 101.83480329083977,64.62316083535552 102.3503678519046,63.12405102279445 103.13887835707283,62.24956399976509 103.86673420795705,61.8033953631093 105.32244590978371,61.5 106.20193839631975,61.62492757011205 107.5818317803787,62.32095086952904 108.68877922027605,64.21269164745172 108.49165159399854,66.37210504434188 106.92979424726218,68.33518357417779 107.12692187348148,75.95527591479186 107.32404949981719,76.27648986605345 110.09899993147701,77.68625480355695 112.03994886722649,77.90039525800967 112.3128948113299,78.16807043470908 112.4493677833234,87.42936380454921 111.87314856797457,87.82193121702585 110.0080179501092,88.14312204088492 104.70073570380919,88.48215612041531 100.43974624323891,88.23234160314314 94.34395349177066,87.3579878109158 87.7477598428959,87.28661178637412 87.55063221656019,78.63203971114126 100.2729459440452,78.20376042542921" stroke="#4dd2ff" stroke-dasharray="none" stroke-linecap="round" stroke-linejoin="round" stroke-width="0.5"><title>2026-06-05 14.5km</title><desc>1780659860000</desc></polyline><polyline fill="none" opacity="1" points="126.22060570074245,82.6110966109045 124.63331353917602,80.7615487269577 124.16834916864173,79.7329566277258 124.0,78.78928346298926 124.08016627078177,77.90222136164084 124.40884798101615,77.00571324623888 125.92399049884989,75.05223727220437 126.50920427552774,74.0141404153328 127.43111638957635,68.47426878126134 127.58343230406172,68.28551055489515 144.58669833731255,67.9551826737079 148.46674584323773,67.3889033890955 149.18022565322462,69.49355612988438 149.27642517819186,73.07040525724733 151.0,79.98774662857613 150.8957838480128,80.7615487269577 150.66330166277476,81.20506634138292" stroke="#4dd2ff" stroke-dasharray="none" stroke-linecap="round" stroke-linejoin="round" stroke-width="0.5"><title>2026-06-04 19.5km</title><desc>1780570902000</desc></polyline><polyline fill="none" opacity="1" points="161.5,73.8882316001982 175.8424657532014,76.11176839983091 188.5,74.27493444632273" stroke="#4dd2ff" stroke-dasharray="none" stroke-linecap="round" stroke-linejoin="round" stroke-width="0.5"><title>2026-06-02 16.9km</title><desc>1780401150000</desc></polyline><polyline fill="none" opacity="1" points="11.5,105.4311606050469 11.727315247873776,105.08920629133354 38.5,104.5688393949531" stroke="#4dd2ff" stroke-dasharray="none" stroke-linecap="round" stroke-linejoin="round" stroke-width="0.5"><title>2026-05-28 19.4km</title><desc>1779966212000</desc></polyline><polyline fill="none" opacity="1" points="66.20483043784043,98.54079644694866 64.73200850147987,96.82530012576899 64.23094536847202,95.41357623241493 64.24612909980351,94.770255008596 65.00531566492282,92.786665443331 66.06817685614806,91.91101921851805 67.41952894214774,91.5 69.6667211749591,92.01824145496357 70.42590774013661,92.786665443331 71.06362445477862,94.00184025916678 71.2002780365292,94.91321549733402 70.92697087302804,96.36068346911634 69.37823028018465,98.48718745692167 69.56043505581329,106.0816208350443 72.21758803393459,107.6183342456934 74.49514772929251,107.92210148170125 74.73808743013069,108.19013093144167 75.02657832490513,117.12419682677137 74.8443735492765,117.64235780978925 71.2002780365292,118.32132491121592 66.03780939354328,118.48213249984838 62.95551193901338,118.2677223468636 56.639079717046116,117.33860846533207 50.64150585234165,117.41007894961513 50.140442719333805,117.15993211924797 49.97342167503666,108.74405708127597 50.74779197142925,108.52963427611394 62.90996074519353,108.17226231502718 66.41740267619025,106.31391564085789 66.23519790050341,98.43357844943239 64.73200850147987,96.7538207252801 64.29168029373977,94.50220375825302 65.21788790321443,92.57222189960885 66.44777013873681,91.73231533631042 67.32842655433342,91.53574084225693 68.51275759591954,91.60722250356048 69.69708863756387,92.07185254704382 70.22851923323469,92.48287034081295 71.00288952968549,93.87674914726813 71.18509430525592,95.34209622026538 70.89660341048148,96.46790281368885 69.37823028018465,98.3263603822561 69.56043505581329,106.09948967785749 72.1872205712134,107.58259688709222 74.78363862406695,108.13652507629013 74.99621086230036,117.2135350433673 74.78363862406695,117.71382816250843 71.71652490086854,118.28558987028373 67.07030312216375,118.5 62.682204775628634,118.24985482156626 56.66944717965089,117.37434371130075 50.185993913328275,117.33860846533207 49.988605406309944,108.72618852484447" stroke="#ffcd00" stroke-dasharray="none" stroke-linecap="round" stroke-linejoin="round" stroke-width="0.5"><title>2026-05-27 20.2km</title><desc>1779879632000</desc></polyline><polyline fill="none" opacity="0.5" points="93.19425198313547,111.30277946437127 91.2092421449488,107.68649463028123 90.55254716076888,105.22877937107114 90.34359875676455,102.29702752640878 90.9853688548319,98.3469787773065 92.19428462098585,95.50288418507262 93.76139765128028,93.72968889099138 96.19415406946791,92.1847108695365 98.83585889189271,91.5 101.29846508218907,91.62289703535498 103.28347492043395,92.816749109581 104.38791648461483,94.5021723894024 104.61178977461532,96.71426389737462 103.83569570252439,99.97967724234331 104.04464410658693,102.59547175045009 104.98491192469373,104.68456596291799 108.17883752915077,108.7748995062866 109.13403023325372,111.32033404878166 109.6116265853052,114.14659739319177 102.13425869832281,117.2010130474373 99.58210319199134,118.5 97.56724358169595,115.70892062154599 94.40316774928942,112.70714021974709 92.76143028907245,110.75858640753722 91.58236429496901,108.59935082608717 90.74657067883527,106.21186993762967 90.34359875676455,102.89391542608791 90.55254716076888,100.52390641637612 91.2092421449488,97.59206963660836 92.38830813905224,95.25709589432518 93.35842572915135,94.11593109951355 95.68670794548234,92.41294718443532 98.4030371978879,91.55267016938888 101.2238406521501,91.6053403217229 103.2983998064883,92.85186227297527 104.07449387852103,93.81747129179712 104.46254091459559,94.78307456869516 104.61178977461532,96.27535924842232 103.83569570252439,100.10256786039099 104.07449387852103,102.80613793132943 105.01476169668604,104.7196765603585 106.68634892895352,106.68585790607904 108.11913798504975,108.86267377526383 109.0146311452263,110.95168737835775 109.65640124329366,113.98860881441215 99.50747876195237,118.4122309385275 97.46276937966468,115.60359593240719 93.46289993118262,111.63631624315167 91.34356611897238,108.09025858041423 90.59732181881554,105.33411078779318 90.37344852875685,102.45502747803403 91.03014351287857,98.10119479119021 92.03011087496998,95.78378463328409 93.50767458917107,93.99303595100355 95.56730885745492,92.500730297048 97.89559107384412,91.65801045694388 100.97011759015732,91.55267016938888 102.91035277041374,92.500730297048 104.25359251059126,94.25638258398976 104.61178977461532,96.36314027314074 103.82077081652824,100.17279102899192 104.61178977461532,96.36314027314074 104.25359251059126,94.25638258398976 102.91035277041374,92.500730297048 100.97011759015732,91.55267016938888 97.89559107384412,91.65801045694388 95.56730885745492,92.500730297048 93.50767458917107,93.99303595100355 92.03011087496998,95.78378463328409 91.03014351287857,98.10119479119021 90.37344852875685,102.45502747803403 90.59732181881554,105.33411078779318 91.34356611897238,108.09025858041423 93.46289993118262,111.63631624315167 97.46276937966468,115.60359593240719 99.50747876195237,118.4122309385275 109.65640124329366,113.98860881441215 109.0146311452263,110.95168737835775 108.11913798504975,108.86267377526383 106.68634892895352,106.68585790607904 105.01476169668604,104.7196765603585 104.07449387852103,102.80613793132943 103.83569570252439,100.10256786039099 104.61178977461532,96.27535924842232 104.46254091459559,94.78307456869516 104.07449387852103,93.81747129179712 103.2983998064883,92.85186227297527 101.2238406521501,91.6053403217229 98.4030371978879,91.55267016938888 95.68670794548234,92.41294718443532 93.35842572915135,94.11593109951355 92.38830813905224,95.25709589432518 91.2092421449488,97.59206963660836 90.55254716076888,100.52390641637612 90.34359875676455,102.89391542608791" stroke="#4dd2ff" stroke-dasharray="1,0.5" stroke-linecap="round" stroke-linejoin="round" stroke-width="0.5"><title>2026-05-26 19.0km</title><desc>1779792854000</desc></polyline><polyline fill="none" opacity="1" points="130.69425198313547,111.30277946437127 128.7092421449488,107.68649463028123 128.05254716076888,105.22877937107114 127.84359875676455,102.29702752640878 128.4853688548319,98.3469787773065 129.69428462098585,95.50288418507262 131.26139765128028,93.72968889099138 133.6941540694679,92.1847108695365 136.3358588918927,91.5 138.79846508218907,91.62289703535498 140.78347492043395,92.816749109581 141.88791648461483,94.5021723894024 142.11178977461532,96.71426389737462 141.3356957025244,99.97967724234331 141.54464410658693,102.59547175045009 142.48491192469373,104.68456596291799 145.67883752915077,108.7748995062866 146.63403023325372,111.32033404878166 147.1116265853052,114.14659739319177 139.6342586983228,117.2010130474373 137.08210319199134,118.5 135.06724358169595,115.70892062154599 131.90316774928942,112.70714021974709 130.26143028907245,110.75858640753722 129.082364294969,108.59935082608717 128.24657067883527,106.21186993762967 127.84359875676455,102.89391542608791 128.05254716076888,100.52390641637612 128.7092421449488,97.59206963660836 129.88830813905224,95.25709589432518 130.85842572915135,94.11593109951355 133.18670794548234,92.41294718443532 135.9030371978879,91.55267016938888 138.7238406521501,91.6053403217229 140.7983998064883,92.85186227297527 141.57449387852103,93.81747129179712 141.9625409145956,94.78307456869516 142.11178977461532,96.27535924842232 141.3356957025244,100.10256786039099 141.57449387852103,102.80613793132943 142.51476169668604,104.7196765603585 144.18634892895352,106.68585790607904 145.61913798504975,108.86267377526383 146.5146311452263,110.95168737835775 147.15640124329366,113.98860881441215 137.00747876195237,118.4122309385275 134.96276937966468,115.60359593240719 130.96289993118262,111.63631624315167 128.84356611897238,108.09025858041423 128.09732181881554,105.33411078779318 127.87344852875685,102.45502747803403 128.53014351287857,98.10119479119021 129.53011087496998,95.78378463328409 131.00767458917107,93.99303595100355 133.06730885745492,92.500730297048 135.39559107384412,91.65801045694388 138.47011759015732,91.55267016938888 140.41035277041374,92.500730297048 141.75359251059126,94.25638258398976" stroke="#ffbf00" stroke-dasharray="none" stroke-linecap="round" stroke-linejoin="round" stroke-width="0.5"><title>2026-05-24 23.2km</title><desc>1779623970000</desc></polyline><polyline fill="none" opacity="1" points="161.5,109.40429304195823 161.58246792914724,109.56890971084977 161.98656078193017,109.94849065452763 162.07727550398704,110.10729255614388 162.09706780697888,110.32419045493225 161.9948075748398,110.74829577290802 162.05583384240163,111.063947594801 162.17458766035998,111.22854911397008 162.38240684179618,111.3602292476844 165.94172266341775,112.68278668441599 166.2089187538295,112.75055787970632 166.746609651811,112.80864727302469 167.3238851557835,112.75055787970632 170.15088576665585,111.95084155052427 170.54508246793557,111.87919453142058 171.01350030544563,111.87725812154895 174.3171655467304,112.1483534808558 174.84001221747167,112.1483534808558 175.3958460598733,112.05347056857136 176.04734270006156,111.8482119485343 176.43824068418326,111.76881883695205 179.90519242516893,111.522891614939 180.27629810629878,111.43962415783426 180.73481979229837,111.24985037725492 181.03005497861886,111.06588409199139 181.37642028100527,110.76959760344107 181.98008552229294,110.06856051396608 182.54251679902518,109.5011265586163 183.11484422724607,108.83683818096688 183.38863775198843,108.41462468264035 183.77953573610284,107.52755677236746 183.95601710445771,107.2738240792878 184.15558949297701,107.11499721713517 185.47012828344305,106.33246394915295 185.7323762981032,106.08839959280522 185.82474037873908,105.9334363811613 185.89896151496941,105.72423393172721 186.06719609040738,105.06561776945273 186.1744043982835,104.43991011674007 186.24532681734854,104.18807118253244 186.42345754428243,103.69600649094173 186.75827733658662,102.9869447548499 186.7533292608423,102.95013477699467 186.98423946242838,102.51422142460979 187.12443494196486,102.31466645879846 187.67367135002132,101.71405079328179 187.89798411728407,101.41373544931776 188.1173488087952,100.97197216453242 188.37464874770376,100.23567593984626 188.3993891264472,100.21823698006847 188.5,100.25892785993346 188.39444105070288,100.15235631294672 188.3482590103813,100.18917200958458 188.0233353695803,101.09791455619234 187.9606597434322,101.078538860962 187.89798411728407,100.96422183473624 187.9985949908296,101.13279075508035 187.93427000610973,101.24904426357352 187.89798411728407,101.26260712401563 187.300916310327,100.9971607133266 186.20244349419954,100.68908296596419 185.81319486865686,100.62320402148544 183.81252290775592,100.53794855909291 181.60403176542604,100.33449639287028 180.01569945021765,100.33449639287028 179.413683567509,100.30155630212539 178.71930360415718,100.18917200958458 176.80109957238892,99.7124997993833 176.2716554673243,99.61173820427211 175.61026267562556,99.56135719525082 174.44086744044762,99.61948911622676 174.16707391569798,99.58848544839384 173.48259010385664,99.3811470474393 172.32474037874636,99.0982328540631 172.20598656078073,99.04397482945205 172.07898594990547,98.94514729301227 171.97342700061563,98.79787387915712 171.7623091020214,97.90258062284192 171.52315210752568,97.47235893246034 171.373060476486,97.31344561731748 171.18008552230458,97.21654656581813 171.01514966402465,97.19135272697531 169.6808185705595,97.28631393547766 169.5373243738577,97.27662403919749" stroke="red" stroke-dasharray="none" stroke-linecap="round" stroke-linejoin="round" stroke-width="0.5"><title>2026-05-23 52.6km</title><desc>1779516240000</desc></polyline><polyline fill="none" opacity="1" points="34.77073320967611,148.1783847008628 31.08108570391778,148.46426499770314 24.84057078685146,148.1783847008628 18.417851054633502,147.28500558173982 12.906155397940893,147.42794656577462 12.69358311360702,147.07059387353365 12.435459625557996,141.01334802483325 12.69358311360702,138.6011085750797 25.508655108860694,138.19013093099056 28.924995391920675,136.2960468208039 28.773158045951277,128.37996942423342 27.08776350633707,126.3428135713475 26.829640018346254,124.98469569506415 26.93592616042588,124.09119099513919 27.740664093755186,122.6258328116237 28.66687190387165,121.89314883900806 29.653814652294386,121.51787042208889 31.172188111464493,121.58935209111951 32.84239891654579,122.5186109701317 33.72305552283069,124.26989232226333 33.60158564610174,126.09263480255322 33.0094199970481,127.2184362745611 32.11357965617208,127.98683604286634 31.916191106429324,128.61227507292642 32.09839592158096,135.9208011621231 32.2957844712073,136.27817799928016 35.19587777816923,137.7434149395849 37.30641688639298,138.1007878294622 37.44307049771305,147.53515222256829 35.01367296313401,148.16051716588845 29.30458875669865,148.48213249980472 25.204980417038314,148.21411976509262 19.040384172811173,147.30287321150536 13.012441540078726,147.39221133136016 12.739134317380376,147.15993211916066 12.450643360149115,140.6202447416581 12.617664440709632,138.6011085750797 25.068326805660035,138.22586815805698 26.48041412269231,137.83275823458098 28.955362861102913,136.2603091757628 28.74279057676904,128.4157087760832 27.269968321430497,126.78956042912614 26.844823752879165,124.55581404300756 27.285152056079824,123.23342193065037 28.256911069969647,122.16120432842581 29.243853818334173,121.6429633225489 30.245980301406235,121.5 32.35651940962998,122.14333397599694 33.57121817697771,123.71591757821443 33.647136849875096,125.91393544976017 33.100522404536605,127.03973814107303 31.99210977938492,128.16553315051715 31.916191106429324,128.68375366822875 32.08321218693163,136.0458831431606 35.07440790149849,137.67194026877405 37.26086568267783,138.02931331342552 37.56454037450021,146.19507650744345 37.3975192939979,147.57088742597261 34.75554947502678,148.19625223395997 29.638630917703267,148.5 25.706043658487033,148.2677223468636 19.35924259928288,147.32074083932093 12.69358311360702,147.35647608920408 12.511378298513591,138.65471427925513 25.797146066033747,138.15439369621163" stroke="#ffc300" stroke-dasharray="none" stroke-linecap="round" stroke-linejoin="round" stroke-width="0.5"><title>2026-05-17 22.3km</title><desc>1779013233000</desc></polyline><polyline fill="none" opacity="1" points="65.89049180329312,129.45352392523637 61.605901639326476,129.57140888116555 61.29311475408031,129.4327206753078 60.60262295079883,128.8640959086115 59.43409836065257,128.51043650905922 59.11540983605664,128.1359714984428 58.59606557377265,126.81839211400802 58.34229508199496,125.30660992337653 56.9199999999837,124.77955824668607 55.62163934423006,124.88358194563625 52.71803278688458,125.54239480308024 49.7849180327612,125.1471078975228 49.61967213114258,125.23726126502879 49.47213114754413,125.51465545027168 49.023606557399035,126.97095531754167 49.08262295080931,127.24140738092683 50.23934426231426,128.8918338185831 53.59147540983395,129.54367126389116 54.61836065573152,130.39659753083106 54.82491803276935,131.18710447253397 55.43278688524151,132.63634199952503 55.568524590169545,133.59323694253544 56.37114754098002,136.99079254934622 56.41245901637012,137.60788035873702 57.00262295079301,140.6169654391124 57.45114754099632,141.3934807110345 57.8878688524419,141.66387222506455 59.77049180329777,142.31558044166013 61.753442622954026,143.58431263703824 63.67147540982114,143.69523885453964 64.45049180326168,144.3053296376529 65.06426229508361,144.36772496033518 66.05573770491173,144.83222157471755 69.53180327865994,145.248185850367 69.75016393439728,145.08180046228517 69.86819672130514,144.80449052752374 70.26360655738972,143.43178877613536 70.47016393442755,141.65693912350253 70.41114754095906,141.40734697012522 70.06885245902231,141.1716201597228 70.04524590165238,141.06068959759432 70.27540983606013,140.4297683932018 70.44065573767875,140.24257080339885 70.44655737702851,139.23030774696235 70.88918032785296,137.89908828327316 71.68590163931367,136.85905393673602 73.33836065573269,135.77740040406206 74.54819672132726,134.70959640929505 75.31540983606828,133.26040553126222 75.592786885245,133.05931905352918 76.0,133.20493346218427 75.6222950819647,133.05238502585416 75.29770491801901,133.27427354106476 74.6544262295065,134.55011767002725 73.94622950820485,135.23656682673754 70.54098360656644,131.44367042940576 67.67868852461106,130.8750634178068 67.45442622949486,130.60462661410565 67.407213114755,129.55060566934117 66.8878688524419,129.44658950933808 61.5468852458871,129.55754007404175 60.64983606553869,128.87796486507432 59.451803278701846,128.51043650905922 59.074098360637436,128.07356045163033 58.5606557377032,126.72130625082355 58.377704918035306,125.34821908252343 56.943606557382736,124.77262332742976 56.57180327869719,124.7379487200451 55.190819672105135,124.94599608435237 52.65311475409544,125.5285251281748 49.70229508195189,125.15404277641937 49.519344262283994,125.38982821480022 49.0,127.06804080431903 50.21573770491523,128.89876829420973 53.626885245903395,129.57140888116555 54.606557377032004,130.3757945855541 54.783606557379244,131.08309095560253 55.43868852456217,132.71955081976193 55.52721311475034,133.48229332985647 56.347540983580984,136.87292117180186 56.97901639342308,140.5545664842648 57.09704918033094,140.90815976280282 57.51016393440659,141.42814635317336 57.91737704919069,141.65693912350253 59.7527868852485,142.3225134723616 61.759344262303784,143.57044684640277 62.13704918030999,143.65364154533017 63.68327868852066,143.6813730878057 64.4622950819612,144.31226245425933 64.92262295080582,144.31919527013815 66.17967213114025,144.87381812310196 69.26032786883297,145.26205127996218 69.59672131147818,145.22045498216903 69.77967213114607,145.061002258597 70.00393442620407,144.4786498292815 70.31081967212958,143.1475387992905 70.48196721309796,141.70547081881523 70.42885245900834,141.40734697012522 70.11606557373307,141.20628592124558 70.06885245902231,141.0745559283023 70.22229508194141,140.51990037209907 70.45836065572803,140.18017148593935 70.44065573767875,139.21644101934362 70.88918032785296,137.89908828327316 71.43213114753598,137.1086637112312" stroke="#ff8300" stroke-dasharray="none" stroke-linecap="round" stroke-linejoin="round" stroke-width="0.5"><title>2026-05-16 35.3km</title><desc>1778887035000</desc></polyline><polyline fill="none" opacity="0.5" points="102.43841930123745,148.5 95.62924842245411,147.56157069576147 89.54086815461051,147.50743038243672 89.23414874565788,141.58798339117493 89.3875084501924,138.77256288235367 102.26972362637753,138.30332150720642 103.5732811143971,137.79798316427332 105.87367668160005,136.39024684402102 105.73565294750733,128.75577739103755 105.5516213021474,128.16016577651317 104.72347889794037,127.42016050197708 103.98735231650062,126.26502374907432 103.72664081893163,124.87523923086701 104.12537605047692,123.37714683392551 105.53628533170559,121.89709051682439 106.56379535171436,121.53609917695576 107.66798522393219,121.5 109.46229376632255,122.22198205409222 110.62782752036583,124.0630221329775 110.67383543180767,125.66940323199378 110.16774840693688,126.95088716186001 108.94087077112636,128.2143123748683 108.81818300753366,129.64016646734672 105.91968459286727,129.71236128680175 105.58229324303102,128.17821464457666 104.38608754816232,127.02308314635593 103.75731275981525,125.39866592951876 103.91067246429157,123.93667689527501 104.6314630752895,122.65516978497908 106.30308385408716,121.6082975074969 108.38877583504654,121.64439666105318 109.38561391411349,122.1678335085162 110.02972467290238,122.83566434044042 110.76585125434212,124.7308453694859 110.336444081855,126.64405387878651 108.97154271200998,128.14211690645607 108.78751106670825,129.5860203322518 105.91968459286727,129.69431258484838 105.61296518391464,128.26845895564475 104.41675948904594,127.05918112682411 103.81865664152429,125.66940323199378 103.88000052334974,124.08107144484529 104.50877531169681,122.74541708716424 105.9503565338091,121.73464451068139 107.79067298752489,121.51804958944558 109.523637648148,122.2941800874396 110.22909228876233,123.17860345731606 110.70450737263309,124.33376160549233 110.62782752036583,125.92209098412422 110.07573258422781,127.04113213755772 108.95620674156817,128.30455666640773 108.83351897803368,129.60406904594856 105.99636444519274,129.73040998679062 105.67430906574009,128.32260551887157 104.46276740037138,127.04113213755772 103.78798470064066,125.39866592951876 104.03336022776784,123.57568997396447 104.90751054335851,122.34832859193557 106.74782699701609,121.5 108.41944777587196,121.64439666105318 109.58498152991524,122.34832859193557 110.70450737263309,124.26156445588276 110.65849946130766,125.74159977170348 109.98371676157694,127.16747502150247 108.95620674156817,128.17821464457666 108.89486285974272,129.56797161663417 105.9656925041927,129.73040998679062 105.5516213021474,128.14211690645607 104.60079113440588,127.27576884579321 103.89533649379155,125.99428741433076 103.75731275981525,124.55035286677594 104.30940769589506,122.83566434044042 104.38608754816232,123.01615870048408 104.99952636600938,122.2941800874396 105.99636444519274,121.71659494467895 108.15873627830297,121.590247927772 105.99636444519274,121.71659494467895 104.99952636600938,122.2941800874396 104.38608754816232,123.01615870048408 104.30940769589506,122.83566434044042 103.75731275981525,124.55035286677594 103.89533649379155,125.99428741433076 104.60079113440588,127.27576884579321 105.5516213021474,128.14211690645607 105.9656925041927,129.73040998679062" stroke="#4dd2ff" stroke-dasharray="1,0.5" stroke-linecap="round" stroke-linejoin="round" stroke-width="0.5"><title>2026-05-12 15.2km</title><desc>1778590468000</desc></polyline><polyline fill="none" opacity="1" points="139.93841930123745,148.5 133.1292484224541,147.56157069576147 127.04086815461051,147.50743038243672 126.73414874565788,141.58798339117493 126.8875084501924,138.77256288235367 139.76972362637753,138.30332150720642 141.0732811143971,137.79798316427332 143.37367668160005,136.39024684402102 143.23565294750733,128.75577739103755 143.0516213021474,128.16016577651317 142.22347889794037,127.42016050197708 141.48735231650062,126.26502374907432 141.22664081893163,124.87523923086701 141.62537605047692,123.37714683392551 143.03628533170559,121.89709051682439 144.06379535171436,121.53609917695576 145.1679852239322,121.5 146.96229376632255,122.22198205409222 148.12782752036583,124.0630221329775 148.17383543180767,125.66940323199378 147.66774840693688,126.95088716186001 146.44087077112636,128.2143123748683 146.31818300753366,129.64016646734672 143.41968459286727,129.71236128680175 143.08229324303102,128.17821464457666 141.88608754816232,127.02308314635593 141.25731275981525,125.39866592951876 141.41067246429157,123.93667689527501 142.1314630752895,122.65516978497908 143.80308385408716,121.6082975074969 145.88877583504654,121.64439666105318 146.8856139141135,122.1678335085162 147.52972467290238,122.83566434044042 148.26585125434212,124.7308453694859 147.836444081855,126.64405387878651 146.47154271200998,128.14211690645607 146.28751106670825,129.5860203322518 143.41968459286727,129.69431258484838 143.11296518391464,128.26845895564475 141.91675948904594,127.05918112682411 141.31865664152429,125.66940323199378 141.38000052334974,124.08107144484529 142.0087753116968,122.74541708716424 143.4503565338091,121.73464451068139 145.29067298752489,121.51804958944558 147.023637648148,122.2941800874396 147.72909228876233,123.17860345731606 148.2045073726331,124.33376160549233 148.12782752036583,125.92209098412422 147.5757325842278,127.04113213755772 146.45620674156817,128.30455666640773 146.33351897803368,129.60406904594856 143.49636444519274,129.73040998679062 143.1743090657401,128.32260551887157 141.96276740037138,127.04113213755772 141.28798470064066,125.39866592951876 141.53336022776784,123.57568997396447 142.4075105433585,122.34832859193557" stroke="#4dd2ff" stroke-dasharray="none" stroke-linecap="round" stroke-linejoin="round" stroke-width="0.5"><title>2026-05-11 15.3km</title><desc>1778503630000</desc></polyline><polyline fill="none" opacity="1" points="173.50056724785827,121.55882498860592 179.1484306147322,122.26472435361939 184.9962183488533,126.73539902450284 186.1957645509392,131.20603689190466 186.1457834590692,134.8531089471653 183.84665323863737,140.02955626504263 180.5479011835996,143.26481078437064 180.1480524498038,148.02942325809272 170.9015504771378,148.44117792946054 169.75198536692187,143.50010127038695 166.9030631375499,140.91190031799488 164.05414090817794,136.38251897180453 163.80423544952646,130.9119171105558 165.25368711026385,127.02952106791781 169.15221226611175,123.08827245316934 171.90117231197655,121.91177478566533 175.99962183483876,121.55882498860592 180.5978822754696,122.9117979654111 182.64710703701712,124.44124161952641 185.99584018369205,129.8530845787609 186.3956889177207,133.08839972061105 185.49602926615626,137.50016203528503 180.69784445874393,142.97069753333926 180.39795790845528,147.73531258752337 170.95153156900778,148.5 169.70200427505188,143.5589238757384 165.1037438348867,138.5589796580025 163.60431108251214,133.20604718098184 164.45398964220658,128.50012889504433 167.25293077994138,124.26476757170167 173.65051052323543,121.5 179.2483927984722,122.32354925922118 183.3468423213344,125.08831263816683 185.34608599101193,128.14718337962404 186.3457078258507,132.02957143238746 185.04619944049045,138.38251019758172 180.44793900032528,143.44127865834162 180.1480524498038,148.08824537304463 170.9015504771378,148.44117792946054 169.80196645879187,143.79421423445456 164.95380055974238,138.38251019758172 163.7042732660193,134.8531089471653 164.5539518254809,128.44130465830676 167.15296859643422,124.6765402610763 172.65088868839666,121.6764749463182 178.14880877989344,121.97059972962597 183.04695577104576,124.85301417519804 186.24574564234354,130.4413251291844 185.49602926615626,137.0883990689763 183.59674778021872,140.38249405828537" stroke="#4dd2ff" stroke-dasharray="none" stroke-linecap="round" stroke-linejoin="round" stroke-width="0.5"><title>2026-05-10 11.2km</title><desc>1778422578000</desc></polyline><polyline fill="none" opacity="0.5" points="26.364665276370943,152.02090892614797 21.79119245847687,153.58363367349375 18.1029079281725,156.53543877106858 13.381903728470206,165.13033876172267 13.529435109812766,172.42290890100412 16.48006273433566,178.5 13.529435109812766,172.42290890100412 13.381903728470206,165.13033876172267 18.1029079281725,156.53543877106858 21.79119245847687,153.58363367349375 26.364665276370943,152.02090892614797 30.569309641607106,151.5 36.618096271995455,152.8890897175297 30.569309641607106,151.5 26.364665276370943,152.02090892614797 21.79119245847687,153.58363367349375 18.1029079281725,156.53543877106858 13.381903728470206,165.13033876172267 13.529435109812766,172.42290890100412 16.48006273433566,178.5 13.529435109812766,172.42290890100412 13.381903728470206,165.13033876172267 18.1029079281725,156.53543877106858 21.79119245847687,153.58363367349375 26.364665276370943,152.02090892614797 30.569309641607106,151.5 36.618096271995455,152.8890897175297 30.569309641607106,151.5 26.364665276370943,152.02090892614797 21.79119245847687,153.58363367349375 18.1029079281725,156.53543877106858 13.381903728470206,165.13033876172267 13.529435109812766,172.42290890100412 16.48006273433566,178.5 13.529435109812766,172.42290890100412 13.381903728470206,165.13033876172267 18.1029079281725,156.53543877106858 21.79119245847687,153.58363367349375 26.364665276370943,152.02090892614797 30.569309641607106,151.5 36.618096271995455,152.8890897175297 30.569309641607106,151.5 26.364665276370943,152.02090892614797 21.79119245847687,153.58363367349375 18.1029079281725,156.53543877106858 13.381903728470206,165.13033876172267 13.529435109812766,172.42290890100412 16.48006273433566,178.5 13.529435109812766,172.42290890100412 13.381903728470206,165.13033876172267 18.1029079281725,156.53543877106858 21.79119245847687,153.58363367349375 26.364665276370943,152.02090892614797 30.569309641607106,151.5 36.618096271995455,152.8890897175297 30.569309641607106,151.5 26.364665276370943,152.02090892614797 21.79119245847687,153.58363367349375 18.1029079281725,156.53543877106858 13.381903728470206,165.13033876172267 13.529435109812766,172.42290890100412 16.48006273433566,178.5 13.529435109812766,172.42290890100412 13.381903728470206,165.13033876172267 18.1029079281725,156.53543877106858 21.79119245847687,153.58363367349375 26.364665276370943,152.02090892614797 30.569309641607106,151.5 36.618096271995455,152.8890897175297 30.569309641607106,151.5 26.364665276370943,152.02090892614797 21.79119245847687,153.58363367349375 18.1029079281725,156.53543877106858 13.381903728470206,165.13033876172267 13.529435109812766,172.42290890100412 16.48006273433566,178.5 13.529435109812766,172.42290890100412 13.381903728470206,165.13033876172267 18.1029079281725,156.53543877106858 21.79119245847687,153.58363367349375 26.364665276370943,152.02090892614797 30.569309641607106,151.5 36.618096271995455,152.8890897175297 30.569309641607106,151.5 26.364665276370943,152.02090892614797 21.79119245847687,153.58363367349375 18.1029079281725,156.53543877106858 13.381903728470206,165.13033876172267 13.529435109812766,172.42290890100412 16.48006273433566,178.5 13.529435109812766,172.42290890100412 13.381903728470206,165.13033876172267 18.1029079281725,156.53543877106858 21.79119245847687,153.58363367349375 26.364665276370943,152.02090892614797 30.569309641607106,151.5 36.618096271995455,152.8890897175297 30.569309641607106,151.5 26.364665276370943,152.02090892614797 21.79119245847687,153.58363367349375 18.1029079281725,156.53543877106858 13.381903728470206,165.13033876172267 13.529435109812766,172.42290890100412 16.48006273433566,178.5 13.529435109812766,172.42290890100412 13.381903728470206,165.13033876172267 18.1029079281725,156.53543877106858 21.79119245847687,153.58363367349375 26.364665276370943,152.02090892614797 30.569309641607106,151.5 36.618096271995455,152.8890897175297 30.569309641607106,151.5 26.364665276370943,152.02090892614797 21.79119245847687,153.58363367349375 18.1029079281725,156.53543877106858 13.381903728470206,165.13033876172267 13.529435109812766,172.42290890100412 16.48006273433566,178.5 13.529435109812766,172.42290890100412 13.381903728470206,165.13033876172267 18.1029079281725,156.53543877106858 21.79119245847687,153.58363367349375 26.364665276370943,152.02090892614797 30.569309641607106,151.5" stroke="#4dd2ff" stroke-dasharray="1,0.5" stroke-linecap="round" stroke-linejoin="round" stroke-width="0.5"><title>2026-05-10 11.3km</title><desc>1778397813000</desc></polyline><polyline fill="none" opacity="0.5" points="60.05588433681987,173.40081890305737 60.6669132525567,178.5 71.77652990398929,178.17313070909586 71.77652990398929,173.00857241923222 71.77652990398929,178.17313070909586 60.6669132525567,178.5 60.05588433681987,173.40081890305737 55.44539342657663,169.0860935592209 53.223470096243545,163.46382940706098 53.55675859586336,158.10301713866647 57.83396100648679,151.5 53.55675859586336,158.10301713866647 53.223470096243545,163.46382940706098 55.44539342657663,169.0860935592209 60.05588433681987,173.40081890305737 60.6669132525567,178.5 71.77652990398929,178.17313070909586 71.77652990398929,173.00857241923222 71.77652990398929,178.17313070909586 60.6669132525567,178.5 60.05588433681987,173.40081890305737 55.44539342657663,169.0860935592209 53.223470096243545,163.46382940706098 53.55675859586336,158.10301713866647 57.83396100648679,151.5 53.55675859586336,158.10301713866647 53.223470096243545,163.46382940706098 55.44539342657663,169.0860935592209 60.05588433681987,173.40081890305737 60.6669132525567,178.5 71.77652990398929,178.17313070909586 71.77652990398929,173.00857241923222 71.77652990398929,178.17313070909586 60.6669132525567,178.5 60.05588433681987,173.40081890305737 55.44539342657663,169.0860935592209 53.223470096243545,163.46382940706098 53.55675859586336,158.10301713866647 57.83396100648679,151.5 53.55675859586336,158.10301713866647 53.223470096243545,163.46382940706098 55.44539342657663,169.0860935592209 60.05588433681987,173.40081890305737 60.6669132525567,178.5 71.77652990398929,178.17313070909586 71.77652990398929,173.00857241923222 71.77652990398929,178.17313070909586 60.6669132525567,178.5 60.05588433681987,173.40081890305737 55.44539342657663,169.0860935592209 53.223470096243545,163.46382940706098 53.55675859586336,158.10301713866647 57.83396100648679,151.5 53.55675859586336,158.10301713866647 53.223470096243545,163.46382940706098 55.44539342657663,169.0860935592209 60.05588433681987,173.40081890305737 60.6669132525567,178.5 71.77652990398929,178.17313070909586 71.77652990398929,173.00857241923222 71.77652990398929,178.17313070909586 60.6669132525567,178.5 60.05588433681987,173.40081890305737 55.44539342657663,169.0860935592209 53.223470096243545,163.46382940706098 53.55675859586336,158.10301713866647 57.83396100648679,151.5 53.55675859586336,158.10301713866647 53.223470096243545,163.46382940706098 55.44539342657663,169.0860935592209 60.05588433681987,173.40081890305737 60.6669132525567,178.5 71.77652990398929,178.17313070909586 71.77652990398929,173.00857241923222 71.77652990398929,178.17313070909586 60.6669132525567,178.5 60.05588433681987,173.40081890305737 55.44539342657663,169.0860935592209 53.223470096243545,163.46382940706098 53.55675859586336,158.10301713866647 57.83396100648679,151.5 53.55675859586336,158.10301713866647 53.223470096243545,163.46382940706098 55.44539342657663,169.0860935592209 60.05588433681987,173.40081890305737 60.6669132525567,178.5 71.77652990398929,178.17313070909586 71.77652990398929,173.00857241923222 71.77652990398929,178.17313070909586 60.6669132525567,178.5 60.05588433681987,173.40081890305737 55.44539342657663,169.0860935592209 53.223470096243545,163.46382940706098 53.55675859586336,158.10301713866647 57.83396100648679,151.5 53.55675859586336,158.10301713866647 53.223470096243545,163.46382940706098 55.44539342657663,169.0860935592209 60.05588433681987,173.40081890305737 60.6669132525567,178.5 71.77652990398929,178.17313070909586 71.77652990398929,173.00857241923222 71.77652990398929,178.17313070909586 60.6669132525567,178.5 60.05588433681987,173.40081890305737 55.44539342657663,169.0860935592209 53.223470096243545,163.46382940706098 53.55675859586336,158.10301713866647 57.83396100648679,151.5 53.55675859586336,158.10301713866647 53.223470096243545,163.46382940706098 55.44539342657663,169.0860935592209 60.05588433681987,173.40081890305737 60.6669132525567,178.5 71.77652990398929,178.17313070909586 71.77652990398929,173.00857241923222 71.77652990398929,178.17313070909586 60.6669132525567,178.5 60.05588433681987,173.40081890305737 55.44539342657663,169.0860935592209 53.223470096243545,163.46382940706098 53.55675859586336,158.10301713866647 57.83396100648679,151.5 53.55675859586336,158.10301713866647 53.223470096243545,163.46382940706098 55.44539342657663,169.0860935592209 60.05588433681987,173.40081890305737 60.6669132525567,178.5 71.77652990398929,178.17313070909586 71.77652990398929,173.00857241923222 71.77652990398929,178.17313070909586 60.6669132525567,178.5 60.05588433681987,173.40081890305737 55.44539342657663,169.0860935592209 53.223470096243545,163.46382940706098 53.55675859586336,158.10301713866647 57.83396100648679,151.5 53.55675859586336,158.10301713866647 53.223470096243545,163.46382940706098 55.44539342657663,169.0860935592209 60.05588433681987,173.40081890305737 60.6669132525567,178.5 71.77652990398929,178.17313070909586 71.77652990398929,173.00857241923222 71.77652990398929,178.17313070909586 60.6669132525567,178.5 60.05588433681987,173.40081890305737 55.44539342657663,169.0860935592209 53.223470096243545,163.46382940706098 53.55675859586336,158.10301713866647 57.83396100648679,151.5 53.55675859586336,158.10301713866647 53.223470096243545,163.46382940706098 55.44539342657663,169.0860935592209 60.05588433681987,173.40081890305737 60.6669132525567,178.5 71.77652990398929,178.17313070909586 71.77652990398929,173.00857241923222 71.77652990398929,178.17313070909586 60.6669132525567,178.5 60.05588433681987,173.40081890305737 55.44539342657663,169.0860935592209 53.223470096243545,163.46382940706098 53.55675859586336,158.10301713866647 57.83396100648679,151.5 53.55675859586336,158.10301713866647" stroke="#ffc700" stroke-dasharray="1,0.5" stroke-linecap="round" stroke-linejoin="round" stroke-width="0.5"><title>2025-11-09 21.3km</title><desc>1762645227000</desc></polyline><polyline fill="none" opacity="1" points="108.12920682295226,154.90442194411298 110.77244585100561,159.13057115348056 111.3210426303558,162.47624923638068 110.87219071993604,165.88060222310014 109.47576255421154,169.28493382333545 105.43609536020085,173.27619191340636 105.28647805680521,177.8543635251699 97.50637827510945,178.5 95.46160846110433,178.20652897033142 94.91301168128848,173.74574975605356 90.87334448751062,169.75449512444902 89.42704388708808,167.2305983476108 88.6789573696442,162.30016143113608 89.77615092857741,157.83925128087867 94.11505272961222,153.0848197727464 100.39897947595455,151.5 105.88494727062061,152.79133497952716 109.82486959570087,157.13489368959563 111.02180802356452,160.0110147569212 111.12155289272778,165.4697331698262 109.47576255421154,169.22623863216722 105.5857126635965,172.806633663713 105.33635049103759,177.79566926218104 95.7109706334304,178.3826116072014 94.76339437789284,173.45227615203476 90.87334448751062,169.81319025839912 88.92831954197027,165.0588638050831 88.82857467303984,160.36319179768907 91.1227066598367,155.66747910081176 95.41173602640629,152.38045600161422 101.39642816595733,151.61739421635866 105.68545753252693,152.85003195086028 110.27372150612064,157.78055484988727 111.27117019589059,161.53711361420574 110.7225734165404,166.64364392403513 108.77754847123288,170.04797073092777 105.43609536020085,173.2174971543718 105.23660562210716,177.8543635251699 102.44374929042533,178.3826116072014" stroke="#4dd2ff" stroke-dasharray="none" stroke-linecap="round" stroke-linejoin="round" stroke-width="0.5"><title>2025-11-01 10.0km</title><desc>1761964262000</desc></polyline><polyline fill="none" opacity="1" points="148.99580866424367,164.23042931058444 147.3858923520893,169.0856777416775 143.05924226436764,173.17115825612564 142.60645330161788,178.38158185908105 132.9469554303214,178.5 132.3432368133217,173.58562558802078 127.21162856929004,168.25673594034743 126.00419133575633,162.75016206502914 126.5576000676956,159.31592661776813 128.2681361490395,156.29615003586514 132.54447635239922,152.6250266257557 138.68228229135275,151.5 144.87039811513387,154.22374468977796 148.49270981666632,159.84882663568715 148.94549877941608,164.46727169805672 146.93310338957235,169.61856823577546 143.05924226436764,173.230367894168 142.40521376254037,178.5 132.99726531514898,178.5 132.49416646757163,173.52641598845366 128.92216465063393,170.56592783203814 126.85945937619545,167.07253118645167 126.30605064379051,160.20409302582266 129.77743269130588,154.46059141261503 134.8587310507428,151.79605986294337 141.29839629819617,152.0921195652336 146.07783534913324,155.5856119451928 148.5933295863215,160.79620316298679 148.7442592405714,165.0593772176071 147.23496269783936,169.26330796408 143.00893237954006,173.46720638254192 142.80769284046255,178.14474549988518 142.1536643388681,178.44079093274195 132.9469554303214,178.5 132.14199727447703,173.46720638254192" stroke="#4dd2ff" stroke-dasharray="none" stroke-linecap="round" stroke-linejoin="round" stroke-width="0.5"><title>2025-10-27 10.0km</title><desc>1761565093000</desc></polyline><polyline fill="none" opacity="1" points="177.01239647972398,151.5 181.03718943917193,152.9802977104555 183.099895830499,154.6974380327738 186.42035002214834,160.6777811864158 186.31973019824363,164.64490342070349 185.16260222229175,168.315946110175 180.43347049504519,173.23036789393518 180.2825407590717,177.90790903789457 170.7739673925098,178.3815818587318 169.66714932885952,173.46720638213446 166.19576540146954,170.38829803239787 163.62995988992043,164.46727169759106 164.03243918600492,159.37513775622938 166.09514557756484,155.40797727793688 171.8807854563929,151.677635936765 179.02479295921512,151.9736957034911 181.74152820697054,153.21714497217909 183.55268503865227,155.1711309652892 186.26942028617486,161.03304703778122 186.21911037433892,165.05937721696682 185.01167248631828,168.5527867274359 180.38316058297642,173.40799676964525 180.2825407590717,177.90790903789457 170.62303765653633,178.32237277860986 169.9186988887377,173.76325434807222 165.03863742551766,168.6119968656567 163.57964997785166,164.52648227853933 164.33429865771905,157.89485736272763 166.04483566526324,155.46718883991707 172.03171519259922,151.677635936765 177.31425595167093,151.61842396418797 182.59679671074264,154.16453299263958 186.1184905502014,159.96724879107205 186.26942028617486,164.94095616438426 184.4079535426572,169.44093812839128 180.5340903189499,173.1119486115058 180.23223084700294,177.9671181628364 170.67334756883793,178.5 169.9186988887377,173.70404476759722" stroke="#4dd2ff" stroke-dasharray="none" stroke-linecap="round" stroke-linejoin="round" stroke-width="0.5"><title>2025-10-19 10.0km</title><desc>1760866141000</desc></polyline><polyline fill="none" opacity="1" points="30.49791890080087,203.26481078448705 30.248013496398926,208.14706748182653 20.501702717505395,208.20588958403096 19.951910827541724,203.79421423457097 16.30329192080535,200.206025190535 13.904200036311522,195.5589910323033 14.154105441179127,188.67660156678176 16.803102729609236,184.85301417543087 18.75236488552764,183.44122125627473 24.550170271657407,181.5 30.59788106265478,182.9706228011055 33.59674591757357,185.3824355736724 35.89587563974783,188.9118983731023 36.24574320646934,195.6178144980804 34.696329697733745,199.32367999077542 30.647862143581733,203.32363341550808 30.547899981960654,207.97060113667976 21.651267578592524,208.5 20.501702717505395,208.20588958403096 19.80196758476086,203.44127865845803 16.1033675968647,199.79426427558064 13.804237874690443,194.85310894751456 13.654294631909579,190.85309313522885 16.30329192080535,185.55890925851418 18.452478399965912,183.61769557197113 22.35100271133706,181.91177478578174 28.248770259553567,181.91177478578174 32.59712429926731,184.38241694349563 36.34570536809042,190.38250110280933 35.89587563974783,196.44134234864032 34.49640537425876,199.44132610032102 30.447937819873914,202.9706975335721 30.29799457709305,207.97060113667976 20.801589203067124,208.26471168006537 19.751986503601074,203.3824560402427 15.2536892213393,198.79427218291676" stroke="#4dd2ff" stroke-dasharray="none" stroke-linecap="round" stroke-linejoin="round" stroke-width="0.5"><title>2025-10-16 10.0km</title><desc>1760611285000</desc></polyline><polyline fill="none" opacity="1" points="72.77526909625158,198.20303806831362 67.8919728922192,203.29167695093201 67.8919728922192,208.08094134030398 58.02364514605142,208.5 57.36236545164138,203.83047126611928 52.52993691642769,198.8017038978287 51.15650985878892,194.79063045879593 51.35998053383082,189.46244311408373 54.25943765533157,184.67301739490358 60.16008723527193,181.5 67.1289578601718,182.09868392179487 71.50357737648301,185.39143389865058 73.94522547838278,191.3183344232384 72.82613676507026,198.20303806831362 67.99370822962373,203.3515430118423 67.73936988576315,208.2605379477609 58.02364514605142,208.5 57.260630114004016,203.59100719093112 52.936878266511485,199.22076959279366 51.05477452138439,194.670896475669 51.25824519642629,189.82164837000892 53.03861360414885,185.93024566362146 58.99013085314073,181.8592104309355 65.19598644576035,181.55986842134735 68.14631123607978,182.57763059221907 70.99490068829618,185.03222576354165 73.94522547838278,191.4380691323895 73.84349014097825,195.03009834664408 72.62266608979553,198.50237106415443 67.94284056057222,203.53114115580684" stroke="#4dd2ff" stroke-dasharray="none" stroke-linecap="round" stroke-linejoin="round" stroke-width="0.5"><title>2025-10-08 10.1km</title><desc>1759919017000</desc></polyline><polyline fill="none" opacity="1" points="107.7899642365519,184.17038896452868 110.91603402746841,189.03639760782244 111.42023883224465,194.02104457491077 109.55468105408363,199.302347236895 105.42020165338181,203.3968052775599 105.06725828978233,208.2033039338421 95.3865260342136,208.3813215927803 94.47895738529041,203.15944622678217 91.4033080751542,200.54848987975856 89.1848069333937,197.16609611199237 88.63018164783716,191.1726804326754 91.20162615342997,185.6539327650098 94.02517306082882,183.0428929894697 96.54619708564132,181.97473676723894 102.64707522583194,181.55934211832937 108.44543048297055,185.00117398781003 110.56309066386893,187.90891164721688 111.36981835169718,194.19906684203306 109.80678345635533,198.82762548461324 105.47062213369645,203.15944622678217 105.06725828978233,208.14396470144857 95.5882079564035,208.5 94.78148026834242,203.45614502415992 92.05877432157286,201.43859003228135 89.78985269903205,198.23422271560412 88.57976116752252,191.52872676041443 90.79826230928302,186.12866593257058 95.68904891726561,182.27144703781232 101.94118849909864,181.5 107.28575943177566,183.75499598047463 110.51267018332146,187.84957021672744 111.31939787138253,194.19906684203306" stroke="#4dd2ff" stroke-dasharray="none" stroke-linecap="round" stroke-linejoin="round" stroke-width="0.5"><title>2025-10-01 10.0km</title><desc>1759271073000</desc></polyline><polyline fill="none" opacity="1" points="128.45485699991696,185.78202691249317 131.08249630732462,183.34365457016975 135.78192814532667,181.5 142.85634166491218,182.45156442228472 147.55577350314707,186.97147290571593 148.97065620706417,190.95609820849495 148.8695931569673,195.29752271069447 146.74726910074241,200.0552087702672 143.10899929096922,203.26662355585722 142.65421556448564,208.2026504020905 133.00269426289015,208.32159026071895 132.39631596091203,203.56397582683712 126.68625362007879,197.31954432319617 126.02934379316866,193.7512658648193 126.48412751965225,189.29088518122444 129.6170820784755,184.59257834212622 135.63033357006498,181.5594728247961 142.14890031307004,182.27314621867845 145.73663859791122,184.7709957920015 148.6674670560751,190.00454852572875 148.9201246816665,195.0596373254666 146.79780062590726,199.81732544646366 143.05846776557155,203.2071530825342 143.05846776557155,207.84583067224594 142.45208946382627,208.26212033454794 133.00269426289015,208.32159026071895 132.3457844357472,203.56397582683712 129.0107037764974,200.53097510896623 126.83784819557332,196.96271752100438 126.18093836866319,190.65873910981463 129.2633614023216,184.83046826248756 135.52927051950246,181.5594728247961 143.26059386623092,182.62998256779974 147.30311587709002,186.73358391330112 148.97065620706417,191.3129289142671 148.56640400574543,196.42747688264353 146.54514300031587,200.23362119565718 143.21006234106608,203.08821211615577 142.9574047154747,208.02424056612654 139.57179253082722,208.5" stroke="#4dd2ff" stroke-dasharray="none" stroke-linecap="round" stroke-linejoin="round" stroke-width="0.5"><title>2025-09-27 10.0km</title><desc>1758965825000</desc></polyline><polyline fill="none" opacity="1" points="178.11238828580827,181.7363296491676 181.87737411586568,183.0952231445699 183.83516674721614,184.80860576976556 186.49575673346408,191.4257571004564 186.29495748924091,195.62051681609591 183.53396788076498,201.11501243221574 180.52197921695188,203.3009791696095 180.17058053961955,208.26368194638053 170.38161738216877,208.5 169.77921964926645,203.12373894953635 165.06043740920722,198.81087584747002 163.6548426996451,194.85246463294607 163.5042432663031,191.66208244895097 164.6588389207609,187.88086458528414 169.62862021592446,182.6225649213884 176.35539489868097,181.5 183.23276901431382,183.6860453475383 185.8933590007946,188.5307632710319 186.39535711123608,194.32073556474643 184.73876334610395,199.10627851769095 180.57217902806588,203.3009791696095 180.27098016161472,208.5 170.38161738216877,208.44092049618484 169.82941946038045,203.59637940808898 166.01423381944187,200.16972680570325 163.6548426996451,194.7343026623712 164.55843929876573,187.88086458528414 168.8254232390318,183.39063432597322 172.94180774618872,181.5590824218816 182.078173359856,182.8588940843474 184.18656542454846,184.74952369974926 186.14435805613175,190.18504734081216 186.4455569225829,194.32073556474643 184.23676523566246,199.9334051430924 180.4717794060707,203.5372993730707" stroke="#4dd2ff" stroke-dasharray="none" stroke-linecap="round" stroke-linejoin="round" stroke-width="0.5"><title>2020-04-24 10.0km</title><desc>1587724293000</desc></polyline><polyline fill="none" opacity="1" points="34.600988736609,215.78202691243496 35.1568354528863,215.0683580795303 32.93344858754426,215.42519261187408 29.396242210874334,212.92734601488337 23.736712008249015,211.5 17.57186660869047,214.2952157970867 14.034660232253373,219.88560469949152 14.539975428720936,227.97372619184898 19.89631651341915,233.74238711217185 20.3005686707329,238.5 30.103683486115187,238.32159026066074 30.45740412408486,233.32609402301023 34.651520256185904,229.34155848942464 36.26852888590656,224.16756621323293 35.611619130009785,219.40982913650805 32.680790989426896,214.65205083182082 26.515945590101182,211.67841845494695 22.170234898570925,212.09472795715556 16.61176773509942,214.711523315229 13.731471114093438,220.24243610119447 14.186254791216925,226.9627175210626 16.106452538631856,230.29309199133422 19.694190434878692,233.6234462618013 20.199505631579086,238.44053009338677 30.103683486115187,238.32159026066074 30.154215005924925,233.6234462618013 34.55045721703209,229.22261668590363 36.015871287323534,224.58386624610284 35.207366972696036,218.87458113551838 32.22600731253624,214.53310584608698 29.699431328801438,212.68945527006872 25.5558467162773,211.79736405907897 22.82714465423487,211.85683685156982" stroke="#4dd2ff" stroke-dasharray="none" stroke-linecap="round" stroke-linejoin="round" stroke-width="0.5"><title>2020-04-16 10.0km</title><desc>1587033949000</desc></polyline><polyline fill="none" opacity="1" points="73.82038437528536,224.52855150063988 73.16921182279475,219.57655961893033 69.41244709631428,214.15289776510326 63.852435301523656,211.79476705705747 56.03836467070505,213.62231924652588 52.33169014076702,218.2206492224359 51.229705821024254,221.99360890430398 51.73060778458603,226.70977172651328 54.285207798471674,230.836380673456 57.64125095400959,233.724988321017 58.24233330995776,238.5 67.85965100955218,238.08734632335836 67.90974120609462,233.31233102444094 72.46794907399453,228.77308011089917 73.82038437528536,223.88007893715985 73.36957260826603,220.1660848245956 71.11551377223805,215.92148909100797 67.3086588496808,212.79697385634063 64.6538784429431,211.6768602532684 59.995490182423964,212.14848731446546 54.58574897656217,214.32975715614157 51.680517588276416,219.8123697777046 51.17961562471464,223.46741417626617 52.2315097481478,228.3014674554579 57.59116075769998,233.54813523223856 57.9918823284097,238.32314846263034 68.00992159871385,237.7925935056992 67.9598314021714,233.25337995623704 72.26758828829043,229.12678933423012 73.67011378635652,224.469599481381 73.11912162625231,219.2228441889747 68.96163532906212,214.15289776510326 64.30324706854299,211.5 59.89530978980474,212.26639401598368 54.58574897656217,214.68347576609813 51.88087837351486,219.340749357827" stroke="#4dd2ff" stroke-dasharray="none" stroke-linecap="round" stroke-linejoin="round" stroke-width="0.5"><title>2020-04-14 10.0km</title><desc>1586861907000</desc></polyline><polyline fill="none" opacity="1" points="108.27726684231311,214.50674648629501 102.45252350857481,211.68040524836397 97.24091105232947,211.98108053207397 91.5183561979793,214.62701600696892 88.45270181214437,220.46005648653954 88.70817301096395,225.0302309495164 89.8833405256737,227.97677085374016 95.19714146154001,233.6894057103782 95.40151842078194,238.5 105.56927213468589,238.25947127543623 105.67146061407402,233.74953839631053 110.32103643310256,228.75850330555113 111.5472981876228,224.24849324818933 111.18963850941509,220.0992516372935 107.35757052642293,213.54458938236348 102.60580622800626,211.62027017201763 96.83215713407844,211.92094548844034 91.87601587665267,214.20607257040683 88.5548902915325,222.08367540704785 90.18990596430376,228.33757058356423 95.14604722172953,233.8698037485592 95.45261266012676,238.5 105.36489517544396,238.3196034662542 105.56927213468589,233.56914031913038 109.554622836411,229.54023465653881 111.39401546842419,225.09036457323236 111.08745002979413,219.5580439234036 107.76632444490679,214.38647693925304 102.2992407893762,211.5" stroke="#4dd2ff" stroke-dasharray="none" stroke-linecap="round" stroke-linejoin="round" stroke-width="0.5"><title>2020-04-13 10.0km</title><desc>1586775592000</desc></polyline><polyline fill="none" opacity="1" points="143.08101676101796,233.2332862529438 147.1960521605797,229.17727747256868 148.94494220567867,225.00016303831944 148.68775249272585,219.79386076540686 146.27016919571906,215.13236292859074 140.40624375105835,211.5605395756429 134.59375624894165,211.74215826310683 129.1413343444001,214.89020613429602 126.98094075918198,218.4620082078618 126.15793367940933,221.7310951835243 127.0323787019588,227.66383381997002 128.3697652069386,230.1458792592166 132.3304867791012,233.5965094837593 132.9477420891635,238.5 142.41232350841165,238.13677995547187 143.18389264587313,233.11221178999403 146.57879685075022,230.08534169686027 148.43056278047152,226.8768415012164 148.996380147757,221.9732490137685 147.6589936427772,216.88799654791364 144.6241550357081,213.49780253204517 139.3774849011097,211.5605395756429 133.87362505379133,212.04485594434664 129.65571376914158,214.46643149212468 127.5981960692443,216.94853553996654 126.00361985201016,221.9732490137685 126.15793367940933,224.87908679211978 127.95826166705228,229.72211618401343 132.38192472141236,233.77812101057498 132.84486620407552,238.43946334219072 142.5666373358108,238.19731664587744 143.2353305881843,233.2332862529438 147.29892804543488,229.17727747256868 148.84206632059067,225.78715799964266 148.94494220567867,220.5203244590084 147.6589936427772,216.8274575494579 142.7209511634428,212.58971135743195 136.90846366109326,211.5 130.7873485039454,213.37672379415017 127.0323787019588,217.91715851949994 126.10649573709816,220.5203244590084 126.26080956449732,225.54500582185574" stroke="#4dd2ff" stroke-dasharray="none" stroke-linecap="round" stroke-linejoin="round" stroke-width="0.5"><title>2020-04-12 10.0km</title><desc>1586649823000</desc></polyline><polyline fill="none" opacity="1" points="185.84860502951778,219.75827760680113 186.4457759486977,224.0337902183528 184.704027434811,228.95351632434176 180.2750097848475,233.63892814487917 180.3247740282677,238.3242993687163 170.37192537728697,238.26573247899069 169.92404718790203,233.34609109564917 165.295972565189,229.48062718083384 163.90257375431247,226.727931487374 163.5542240513023,222.10102843039203 164.3006877002772,218.58689838869032 169.27711202576756,212.90567318105604 172.95966602652334,211.5 179.62807462271303,212.61282490292797 183.90779954288155,215.30702307762112 186.2467189754825,220.63681035512127 186.3462474620901,224.20949549309444 184.55473470501602,229.42205933335936 180.4740667580627,233.52179334423272 180.22524554189295,238.3242993687163 170.37192537728697,238.3242993687163 169.82451870152727,233.34609109564917 165.8433792409487,229.94916973315412 164.10163072729483,226.727931487374 163.80304526770487,220.5196727378643 166.3907859167084,215.77557791169966 169.42640475556254,212.96424281754298 171.66579570178874,212.0856976028299 177.2891551896464,211.792848880752 182.96227892069146,213.9599256683723 186.14719048910774,220.05112201481825 186.29648321890272,224.4437691035564 184.25614924542606,229.94916973315412 180.4740667580627,233.28752366668778 180.22524554189295,238.14859868044732 170.42168962070718,238.5 169.77475445810705,233.22895623143995" stroke="#4dd2ff" stroke-dasharray="none" stroke-linecap="round" stroke-linejoin="round" stroke-width="0.5"><title>2020-04-08 10.0km</title><desc>1586343893000</desc></polyline><polyline fill="none" opacity="1" points="27.979390899883583,242.0844298907905 32.597446794621646,244.36370041576447 36.12305935914628,250.8508022854803 35.6264942092821,257.10406088869786 33.49126406456344,260.8442930795718 30.31324710464105,263.59100958361523 30.31324710464105,268.324679682788 20.580570165300742,268.4415599004715 19.984691985417157,263.53256895247614 15.118353515397757,258.62353334313957 13.52934503578581,252.7793850976741 14.82041442557238,247.9871363011771 19.23984426027164,242.78574492404005 24.900686969980597,241.5 31.60431649442762,243.54550184804248 33.789203154155985,245.76632364524994 36.32168541918509,251.78587360068923 35.5271811792627,257.10406088869786 33.14366845949553,261.0780567305046 30.511873164679855,263.4741283151088 30.21393407485448,268.324679682788 20.381944105261937,268.38311979477294 19.885378955164924,263.41568767128047 15.316979575669393,259.4417090462521 13.57900155056268,254.4157529870863 14.323849275708199,249.2144235840533 19.388813805300742,242.72730203950778 24.900686969980597,241.67532903369283 31.753286039689556,243.2532877730555 34.5340508793015,247.11050081829308 36.42099844920449,252.25340865069302 36.47065496398136,254.94172732619336 35.17958557442762,258.50665099860635 30.36290361965075,263.41568767128047 30.36290361965075,268.324679682788 20.729539710329846,268.5 19.835722440388054,263.7663314387901" stroke="#4dd2ff" stroke-dasharray="none" stroke-linecap="round" stroke-linejoin="round" stroke-width="0.5"><title>2020-04-07 10.0km</title><desc>1586257895000</desc></polyline><polyline fill="none" opacity="1" points="70.17193156690337,244.01304403861286 73.20097898179665,250.9676862883498 72.60510080191307,257.8053563994472 70.37055762670934,261.4287020172924 67.98704490694217,263.41568767128047 67.68910581688397,268.0324790272862 58.35368099762127,268.5 57.60883327270858,263.7663314387901 53.58665555808693,260.37676547351293 51.60039495816454,256.11055735487025 51.699707988183945,249.85728723701322 53.58665555808693,246.17542140028672 57.31089418265037,242.72730203950778 61.084789322456345,241.5584430177114 64.75937143224292,241.67532903369283 70.66849671676755,245.0650124863605 73.05200943676755,249.38975011080038 73.20097898179665,256.28588164091343 70.91677929204889,260.49364741303725 67.7884188471362,263.4741283151088 67.68910581688397,268.0909191710525 58.30402448261157,268.38311979477294 57.55917675793171,263.53256895247614 53.04043389321305,259.55859118833905 51.40176889812574,255.52614265697775 51.50108192814514,250.73391825705767 53.93425116292201,245.76632364524994 57.807459332747385,242.376644598844 64.01452370733023,241.5 69.97330550686456,244.48058582423255 72.45613125665113,247.63648227899102 73.34994852659293,250.61703420319827 73.59823110187426,254.707961016451 72.80372686171904,257.6300326071796 70.66849671676755,260.9611749177566 67.7884188471362,263.4741283151088 67.7387623321265,268.2077994395513 58.4033375128638,268.38311979477294 57.60883327270858,263.94165323727066" stroke="#4dd2ff" stroke-dasharray="none" stroke-linecap="round" stroke-linejoin="round" stroke-width="0.5"><title>2020-04-02 10.0km</title><desc>1585825459000</desc></polyline><polyline fill="none" opacity="1" points="97.58252928568982,241.96452762611443 102.56547912536189,242.13872538221767 106.36436167615466,243.41617386293365 108.6338239791803,245.564603079285 110.75527787115425,250.67434608162148 111.14996696752496,254.9711377255735 109.07784921233542,260.13885503058555 105.4763112096116,263.50655410508625 105.27896666177548,268.5 95.41173925693147,268.26774773397483 95.01705016032793,263.85493556043366 90.23144486919045,259.0937027405598 88.75136075844057,252.8808109575184 90.03410032112151,247.88721957273083 94.86904174950905,243.06777912459802 99.70398317766376,241.79032981354976 106.66037849825807,243.64843689615373 110.31125263823196,248.81626335246256 111.24863924155943,254.44855679775355 110.11390808993019,258.68725407740567 105.27896666177548,263.6807448611362 105.22963052452542,268.44193694298156 95.55974766798317,268.44193694298156 94.72103333845735,263.56461769680027 91.41551215783693,260.71949431148823 89.29405826586299,257.5840347239864 88.75136075844057,252.0098390650237 91.46484829485416,245.97106169210747 97.237176326802,241.5 101.924109343905,242.02259355102433 108.14046260900795,245.50653753784718 111.00195855647326,250.7324110629852 111.1993031045422,255.1453312552767 108.73249625321478,260.71949431148823 105.42697507282719,263.50655410508625 105.08162211347371,268.3838738796767 95.60908380500041,268.5" stroke="#4dd2ff" stroke-dasharray="none" stroke-linecap="round" stroke-linejoin="round" stroke-width="0.5"><title>2020-03-23 10.0km</title><desc>1584960411000</desc></polyline><polyline fill="none" opacity="1" points="128.8168380027637,260.6614304113318 126.69538365118206,256.6550061390153 126.35003061708994,250.73241106286878 128.66882955958135,246.31945454329252 133.99713351251557,241.55806597531773 140.26282427180558,241.79032981343335 144.85108600906096,243.76456837472506 148.00859946245328,248.93239371158415 148.64996938267723,254.7969441395835 146.77519576973282,259.7904711601441 142.72963165747933,263.6807448610198 142.581623214297,268.2677477338584 132.86240211501718,268.38387387938565 132.22103219502605,263.5065541048534 128.86617415072396,260.3130468807067 126.59671135572717,256.6550061390153 126.39936676481739,250.90660596982343 128.4714849689044,246.1452581459307 134.93452031887136,241.5 142.63095936202444,242.37098896864336 146.03515355405398,244.98394738335628 148.05793561018072,248.93239371158415 148.64996938267723,254.56468593655154 146.92320421268232,259.5582151208073 142.77896780520678,263.6807448610198 142.63095936202444,268.32581080973614 132.86240211501718,268.5 132.17169604706578,263.33236329228384 128.4714849689044,259.9646631235955 126.79405594663695,257.00339204707416 126.44870291277766,250.15176096488722 128.7181657073088,246.02912718296284" stroke="#4dd2ff" stroke-dasharray="none" stroke-linecap="round" stroke-linejoin="round" stroke-width="0.5"><title>2019-12-13 10.0km</title><desc>1576239112000</desc></polyline><polyline fill="none" opacity="0.5" points="181.10032401327044,250.95007318432909 177.4505575094372,260.2773408591747 168.89967598672956,268.5 177.4505575094372,260.2773408591747 181.10032401327044,250.95007318432909 180.57892879843712,241.5 181.10032401327044,250.95007318432909 177.4505575094372,260.2773408591747 168.89967598672956,268.5 177.4505575094372,260.2773408591747 181.10032401327044,250.95007318432909 180.57892879843712,241.5 181.10032401327044,250.95007318432909 177.4505575094372,260.2773408591747 168.89967598672956,268.5 177.4505575094372,260.2773408591747 181.10032401327044,250.95007318432909 180.57892879843712,241.5 181.10032401327044,250.95007318432909 177.4505575094372,260.2773408591747 168.89967598672956,268.5 177.4505575094372,260.2773408591747 181.10032401327044,250.95007318432909 180.57892879843712,241.5 181.10032401327044,250.95007318432909 177.4505575094372,260.2773408591747 168.89967598672956,268.5 177.4505575094372,260.2773408591747 181.10032401327044,250.95007318432909 180.57892879843712,241.5 181.10032401327044,250.95007318432909 177.4505575094372,260.2773408591747 168.89967598672956,268.5 177.4505575094372,260.2773408591747 181.10032401327044,250.95007318432909 180.57892879843712,241.5 181.10032401327044,250.95007318432909 177.4505575094372,260.2773408591747 168.89967598672956,268.5 177.4505575094372,260.2773408591747 181.10032401327044,250.95007318432909 180.57892879843712,241.5 181.10032401327044,250.95007318432909 177.4505575094372,260.2773408591747 168.89967598672956,268.5 177.4505575094372,260.2773408591747 181.10032401327044,250.95007318432909 180.57892879843712,241.5 181.10032401327044,250.95007318432909 177.4505575094372,260.2773408591747 168.89967598672956,268.5 177.4505575094372,260.2773408591747 181.10032401327044,250.95007318432909 180.57892879843712,241.5 181.10032401327044,250.95007318432909 177.4505575094372,260.2773408591747 168.89967598672956,268.5 177.4505575094372,260.2773408591747 181.10032401327044,250.95007318432909 180.57892879843712,241.5 181.10032401327044,250.95007318432909 177.4505575094372,260.2773408591747 168.89967598672956,268.5 177.4505575094372,260.2773408591747 181.10032401327044,250.95007318432909 180.57892879843712,241.5 181.10032401327044,250.95007318432909 177.4505575094372,260.2773408591747 168.89967598672956,268.5 177.4505575094372,260.2773408591747 181.10032401327044,250.95007318432909 180.57892879843712,241.5 181.10032401327044,250.95007318432909 177.4505575094372,260.2773408591747 168.89967598672956,268.5 177.4505575094372,260.2773408591747 181.10032401327044,250.95007318432909 180.57892879843712,241.5 181.10032401327044,250.95007318432909 177.4505575094372,260.2773408591747 168.89967598672956,268.5 177.4505575094372,260.2773408591747 181.10032401327044,250.95007318432909 180.57892879843712,241.5 181.10032401327044,250.95007318432909 177.4505575094372,260.2773408591747 168.89967598672956,268.5 177.4505575094372,260.2773408591747 181.10032401327044,250.95007318432909 180.57892879843712,241.5 181.10032401327044,250.95007318432909 177.4505575094372,260.2773408591747 168.89967598672956,268.5" stroke="#4dd2ff" stroke-dasharray="1,0.5" stroke-linecap="round" stroke-linejoin="round" stroke-width="0.5"><title>2019-11-23 10.0km</title><desc>1574497580000</desc></polyline></svg>