<?xml version="1.0" encoding="utf-8" ?>
<svg baseProfile="full" height="300mm" version="1.1" viewBox="0,0,200,300" width="200mm" xmlns="http://www.w3.org/2000/svg" xmlns:ev="http://www.w3.org/2001/xml-events" xmlns:xlink="http://www.w3.org/1999/xlink"><defs /><rect fill="#222222" height="300" width="200" x="0" y="0" /><text fill="#FFFFFF" style="font-size:12px; font-family:Arial; font-weight:bold;" x="10" y="20">Over 10km Runs</text><text fill="#FFFFFF" style="font-size:4px; font-family:Arial" x="10" y="280">Runner</text><text fill="#FFFFFF" style="font-size:9px; font-family:Arial" x="10" y="290">Floyd Li</text><text fill="#FFFFFF" style="font-size:4px; font-family:Arial" x="65" y="280">SPECIAL TRACKS</text><rect fill="yellow" height="2.6" width="2.6" x="65" y="283" /><text fill="#FFFFFF" style="font-size:3px; font-family:Arial" x="70" y="285.5">Over 20.0 km</text><rect fill="red" height="2.6" width="2.6" x="65" y="287" /><text fill="#FFFFFF" style="font-size:3px; font-family:Arial" x="70" y="289.5">Over 40.0 km</text><text fill="#FFFFFF" style="font-size:4px; font-family:Arial" x="120" y="280">STATISTICS</text><text fill="#FFFFFF" style="font-size:3px; font-family:Arial" x="120" y="285">Number: 25</text><text fill="#FFFFFF" style="font-size:3px; font-family:Arial" x="120" y="290">Weekly: 1.7</text><text fill="#FFFFFF" style="font-size:3px; font-family:Arial" x="141" y="285">Total: 312.2 km</text><text fill="#FFFFFF" style="font-size:3px; font-family:Arial" x="141" y="290">Avg: 12.5 km</text><text fill="#FFFFFF" style="font-size:3px; font-family:Arial" x="167" y="285">Min: 10.0 km</text><text fill="#FFFFFF" style="font-size:3px; font-family:Arial" x="167" y="290">Max: 35.3 km</text><polyline fill="none" opacity="1" points="40.08928948175162,31.82144450650958 38.01215458963998,33.215332447507535 38.558769034803845,36.4962914785865 38.03037507110275,38.018809552289895 36.481634142808616,39.60564691478794 36.171885957126506,41.5141236531781 32.7828763963189,41.599897456602775 32.40024628455285,39.77719613818044 31.161253541940823,38.640679763877415 30.213788503431715,36.60351144448214 30.286670429515652,35.273979763282114 31.03371017135214,33.51555318104511 32.1451595434919,32.46477862189931 33.78500287933275,31.82144450650958 35.260861881659366,31.842889010731596 36.42697269830387,32.336111966040335 37.57486303336918,33.27966550018755 38.23080036777537,34.39476842447766 38.504107590415515,35.85297046387859 38.32190277532209,37.2682739370066 37.4473196627805,38.76934232242638 36.46341366134584,39.60564691478794 36.281208846135996,40.44194797464297 36.59095703181811,49.44804323249264 40.56302200094797,51.37786749537918 42.40329063346144,51.442194646879216 42.74947978218552,51.785272435459774 43.077448449330404,62.398947890731506 42.78592074511107,63.192270480969455 39.724879851564765,63.81406164103828 35.29730284458492,64.1571179972525 27.808684944175184,63.81406164103828 20.101421265513636,62.74200669808488 13.487386477529071,62.91353587892081 13.232299736351706,62.48471264823456 12.922551550669596,55.21601762980572 13.232299736351706,52.32133029009856 28.610386130516417,51.828157117182855 32.70999447023496,49.55525618496176 32.52778965514153,40.05596330908884 30.505316207534634,37.61137628562574 30.19556802196894,35.9816348340828 30.323111392441206,34.909429194172844 31.28879691241309,33.150999373960076 32.40024628455285,32.271778606809676 33.58457758266013,31.82144450650958 35.406625733710825,31.9072225093405 37.41087869973853,33.022333164160955 38.467666627373546,35.123870786716 38.32190277532209,37.311161763063865 37.61130399641115,38.66212352947332 36.53629558731336,39.58420325144834 36.29942932771519,40.33473008751753 36.518075105850585,49.10496139455063 36.75494136544876,49.53381359913328 40.23505333380308,51.29209792750771 42.767700263648294,51.72094539535465 42.93168459716253,63.04218266707903 40.01640755566768,63.79262059906614 33.16550650796853,64.17855899975984 28.24597650032956,63.85694371811405 20.848461007350124,62.76344785379479 13.614929848001339,62.87065359762346 13.286961180856451,62.5919185429957 12.940772032132372,54.74429368998972 13.141197328804992,52.32133029009856 28.08199216669891,51.87104178966547 29.776496947160922,51.399309881497175 32.74643543327693,49.51237101091829 32.491348692099564,40.09885053131438 30.72396198567003,38.1474725149601 30.213788503431715,35.4669768516178 30.742182467249222,33.88010631679208 31.908293283893727,32.59344519411388 33.09262458188459,31.971555987067404 34.295176361571066,31.79999999998836 36.827823291532695,32.572000771193416 38.28546181228012,34.45910109386023 38.37656421982683,37.09672253971803 37.72062688542064,38.44768576929346 36.3905317352619,39.79863978062349 36.29942932771519,40.420504401874496 36.49985462427139,49.25505977179273 40.08928948175162,51.20632832252886 42.71303881914355,51.63517597611644 43.077448449330404,61.434091808929224 42.8770231527742,63.08506491116714 39.70665936998557,63.83550268075487 33.566357101197354,64.19999999999709 28.84725239011459,63.92126681623631 21.231091119116172,62.78488900719094 13.232299736351706,62.82777130705654 13.013653958099894,52.38565713510616 28.956575279240496,51.785272435459774 32.52778965514153,49.72679678819259 32.801096877781674,49.36227282874461 32.819317359360866,47.79695643403102 32.54601013660431,40.52772224259388 32.36380532151088,39.86297069412831 30.906166800879873,38.40479818946915 30.341331874020398,37.2682739370066 30.213788503431715,35.53130917264207 30.45065476302989,34.523433742360794 31.361678838497028,33.06522191003023 33.47525469365064,31.885778012132505 35.260861881659366,31.885778012132505 37.119350995635614,32.722111682698596 38.26724133070093,34.45910109386023 38.504107590415515,36.62495543072873 37.848170256009325,38.3619106002152 36.3905317352619,39.755752493365435 36.33587029064074,41.364019407730666 36.08078354957979,41.55701055955433 32.655333025730215,41.44979327615874 32.45490772917401,39.927301586649264 30.760402948712,38.10458487001597 30.323111392441206,36.96805889418465 30.232008985010907,35.53130917264207 30.632859578123316,34.20177029083425 31.689647505641915,32.74355608932092 33.12906554504298,31.971555987067404 35.716373919392936,31.99300047502038 37.8663907374721,33.40833154277061" stroke="yellow" stroke-dasharray="none" stroke-linecap="round" stroke-linejoin="round" stroke-width="0.5"><title>2026-05-17 22.3km</title><desc>1779013233000</desc></polyline><polyline fill="none" opacity="1" points="74.94440352279344,37.00948658969719 75.45284227380762,37.86310979945847 76.17918334668502,38.64355403658192 76.97815852682106,39.13132621883415 77.35170536427177,39.49105550946115 77.771945556422,40.41170819398758 77.7823218574631,40.765332396123995 77.33095276221866,42.11883910039978 77.13899119294365,43.24673662789428 77.13380304243765,44.21610086733199 77.26869495594292,45.58781434809498 77.18049639713718,46.386441108559666 76.35039231384872,48.42258354606747 76.04429143315065,49.83077095665794 75.26088070456171,51.763161606013455 75.10004803843913,51.90945978981472 74.09354683748097,51.91555553928265 72.47484387506847,52.48245737025718 71.9819695756596,52.44588322986965 71.15705364290625,52.141097807802 70.8924579663726,52.37273487818311 70.3477021617291,53.45166348314888 69.75625300238607,54.06121857873586 66.68486789430608,50.67810494419973 64.47990392314387,50.31844674304739 64.16342674137559,50.17824038469189 64.01815852680011,49.98926604799635 64.03372297837632,49.11144150407563 63.935148118500365,49.03828884437462 62.648486789432354,48.95904002304451 58.881889511598274,49.06267307477901 58.60691753402352,48.94075181774315 57.99990392313339,48.44087191875951 56.97265012009302,48.129968779678165 56.692489991983166,47.800775359617546 56.235932746203616,46.64248699764357 56.012842273834394,45.313474311245955 54.7624979983957,44.85014145215246 53.62110488390317,44.941589027370355 51.06853482784936,45.520753572985996 48.49002401920734,45.17325555672869 48.34475580463186,45.25250967804459 48.21505204163259,45.496367816875136 47.820752602099674,46.77660581067903 47.8726341072761,47.01436110739451 48.88951160930446,48.46525640646723 51.83638110489119,49.03828884437462 52.739119295438286,49.78809912548604 52.920704563643085,50.48303637287245 53.45508406724548,51.75706584016007 53.57441152923275,52.5982753256867 54.279999999998836,55.58507761254077 54.316317053628154,56.12756153144437 54.83513210568344,58.772858103304316 55.22943154524546,59.4554952278595 55.61335468373727,59.69319729544077 57.26837469977909,60.26611612796114 59.01159327462665,61.38146276569023 60.697742193733575,61.47897836762786 61.382578062446555,62.01531117776176 61.922145716584055,62.07016311075131 62.793755004007835,62.47850360922166 65.84957566051162,62.84417916939856 66.04153722975752,62.697909228558274 66.14530024019768,62.45412515460339 66.49290632506018,61.24737853889019 66.67449159326497,59.68710238309359 66.62261008805945,59.46768510174297 66.32169735789648,59.26045688891827 66.30094475581427,59.162937467601296 66.50328262610128,58.608292565742886 66.64855084064766,58.44372655004918 66.65373899118276,57.553842774257646 67.04285028020968,56.3835633738272 67.74325060046976,55.46926576574697 69.19593274619547,54.518380594508926 70.25950360289426,53.579670597508084 70.93396317053703,52.30568213947117 71.17780624498846,52.12890635680742 71.53578863089206,52.2569164614506 71.20374699760578,52.12281063031696 70.91839871896082,52.31787355241613 70.35289031226421,53.43947231430502 69.73031224979786,54.042932021322486 66.73674939951161,50.70858434777256 64.22049639714533,50.20872005735146 64.02334667733521,49.970978175475466 63.98184147319989,49.044384902972524 63.525284227362135,48.952943955264345 58.830008006392745,49.05048096090832 58.04140912726871,48.45306416391395 56.98821457166923,48.129968779678165 56.65617293835385,47.74590960349815 56.2048038430803,46.55713849662061 56.04397117692861,45.350053059635684 54.78325060047791,44.84404494187038 54.456397117697634,44.81356238069566 53.24236989588826,44.99645750159834 51.01146517213783,45.50856069624933 48.4173899119196,45.17935203153684 48.25655724579701,45.38663178441129 47.79999999998836,46.86195398079872 48.86875900719315,48.47135252675798 51.867510008014506,49.06267307477901 52.72874299439718,49.769811188005406 52.88438750998466,50.391597748701315 53.46027221775148,51.83021498717062 53.538094475574326,52.500744431596104 54.259247397916624,55.481456497615 54.81437950360123,58.71800297726804 54.91814251401229,59.02884798913874 55.281313050421886,59.48596990765873 55.63929543635459,59.68710238309359 57.25281024820288,60.272210978004296 59.01678142513265,61.36927330362232 59.34882305844803,61.442410036554065 60.70811849477468,61.46678892657292 61.39295436348766,62.02140583959408 61.79763010406168,62.027500500793394 62.90270616492489,62.515071271449415 65.61092073659529,62.85636831407464 65.90664531625225,62.81980087213742 66.06747798237484,62.67962545942282 66.26462770215585,62.167677527166234 66.5344115292246,60.997493451159244 66.68486789430608,59.7297667557541 66.63817453963566,59.46768510174297 66.3632025620318,59.29093167366227 66.32169735789648,59.17512740444727 66.45658927140175,58.687527884263545 66.66411529222387,58.38887110523501 66.64855084064766,57.541652488482214 67.04285028020968,56.3835633738272 67.52016012810054,55.68869853787692 69.35676541231805,54.408662047313555 69.9897197757964,53.860066122560966 70.337325860688,53.482141393760685 70.91321056845482,52.354447775502194 71.14667734186514,52.141097807802 71.9871577261656,52.45197892156648 72.516349079262,52.488553058035905 74.01572457965813,51.94603427671609 75.19862289831508,51.94603427671609 75.44246597276651,51.85459801518664 75.587734187342,51.67782082422491 75.69149719775305,51.141390107615734 76.18955964769702,49.9465943362884 76.44896717375377,48.47744864638298 77.16493194553186,46.78879841429443 77.32576461168355,46.185261383241595 77.4139631705475,45.30737785087331 77.35689351480687,43.14918962154843 77.70968775020447,41.57622093059399 78.06767013610806,40.692168949379266 80.20000000001164,36.75339711558627 79.90946357086068,36.61315715049568 79.90427542032558,36.35096845732551 79.42696557246381,36.027803977831354 79.4010248198465,34.338782230272045 79.20387510009459,34.32658694405836 79.09492393914843,34.1741456445161 78.21812650118954,34.18024330439221 78.16624499598402,33.143631685928995" stroke="yellow" stroke-dasharray="none" stroke-linecap="round" stroke-linejoin="round" stroke-width="0.5"><title>2026-05-16 35.3km</title><desc>1778887035000</desc></polyline><polyline fill="none" opacity="1" points="116.19999999998254,49.90585655732866 114.92786978869117,49.82418163449256 113.66036550543504,49.55193093291382 113.57709880068433,45.27740151570106 98.33003997712513,45.70759354618713 97.38172472870792,45.70214810046309 97.15968018272542,45.62046634381841 96.87287264419138,45.86006578672459 96.9700171330478,46.301143591215805 96.87749857222661,46.63875608440503 96.8636207880918,47.31397426465992 95.23992004565662,49.29056887160914 94.94386065102299,50.276114542473806 87.13066818960942,50.243444829997316 83.79999999998836,50.54836132045966 83.85088520840509,50.72259848429894 87.74591661905288,50.42857291986002 96.1512278697628,50.41223811584132 105.04688749284833,49.76973161217393 106.86025128496112,49.7425065788957 109.95962307252921,49.39946989569944 112.17081667619641,49.6063811912245" stroke="#4DD2FF" stroke-dasharray="none" stroke-linecap="round" stroke-linejoin="round" stroke-width="0.5"><title>2026-05-12 15.2km</title><desc>1778590468000</desc></polyline><polyline fill="none" opacity="1" points="147.78603391442448,32.057674962459714 146.01630436372943,33.346044750738656 146.49066486186348,35.68656177667435 146.32646315102465,37.14668684201024 145.8156133837765,38.241773583577015 144.37428725499194,39.809240158399916 144.15535164054018,41.44111000036355 140.67062644287944,41.505525639571715 140.43344619381242,39.938072476375964 138.73669518134557,37.96263440036273 138.18935614521615,36.094538980556536 138.42653639416676,34.44115248721209 139.37525739043485,32.959534693465685 141.63759207364637,31.821472926283604 143.4803001624532,31.88589169133047 144.64795677317306,32.336822460463736 146.0345489983447,34.011699193913955 146.49066486186348,35.47183659535949 146.28997388191056,37.27552089028177 144.33779798599426,39.91660042917647 144.5567336003296,49.299663517274894 148.0961927017197,51.2320469973929 150.35852738493122,51.44675511056266 150.81464324845,51.85469988487603 151.08831276651472,62.13892507835408 150.96060032479,62.95476979619707 150.23081494309008,63.4270994146209 145.46896532760002,64.09265287661401 141.27269938285463,64.19999999999709 136.62031757447403,63.920897358315415 128.5196998376632,62.80448286351748 121.27657992439345,62.74007414323569 120.91168723348528,55.697927875677124 121.09413357893936,52.34852664663049 136.4196265945211,51.79028760782967 137.97042053064797,51.18910534691531 140.70711571199354,49.514373722835444 140.5429140011547,40.431928919715574 140.32397838658653,39.72335189986916 139.33876812132075,38.8429951047583 138.46302566328086,37.468771805695724 138.15286687610205,35.81539677386172 138.62722737411968,34.03317188069923 140.3057337520877,32.272403841954656 141.5281242664205,31.842945850279648 142.84173795336392,31.80000000000291 144.9763601948507,32.658915239037015 146.36295242013875,34.84913225407945 146.4176863238681,36.760184194819885 145.8156133837765,38.284718038426945 144.35604262037668,39.78776809721603 144.21008554415312,41.48405376210576 140.76184961560648,41.56994125786878 140.36046765570063,39.7448239679652 138.9373861614149,38.37060692020168 138.18935614521615,36.43809807985963 138.37180249055382,34.69882401661016 139.22930031409487,33.17426259609056 141.21796547912527,31.928837523038965 143.69923577690497,31.971783345506992 144.8851370222401,32.59449672517076 145.65141167293768,33.38899026608851 146.52715413097758,35.6436167590291 146.01630436372943,37.91968987578002 144.39253188949078,39.7018798294157 144.17359627503902,41.419638115898124 140.76184961560648,41.54846938738774 140.39695692469832,39.8521842736227 138.973875430529,38.41355134708283 138.26233468321152,36.760184194819885 138.33531322143972,34.870604850148084 139.0833432377549,33.28162646018609 140.79833888472058,32.07914786084439 142.98769502982032,31.821472926283604 145.0493387330789,32.74480655822845 145.8885919220047,33.796972198426374 146.4541755928658,35.17122095065133 146.36295242013875,37.06079742999282 145.70614557655063,38.39207913479186 144.37428725499194,39.89512837964867 144.22833017876837,41.44111000036355 140.85307278833352,41.591413126006955 140.46993546292651,39.91660042917647 139.02860933402553,38.39207913479186 138.22584541421384,36.43809807985963 138.51775956677739,34.26937128153804 139.55770373577252,32.809225023243926 141.74705988087226,31.80000000000291 143.73572504601907,31.971783345506992 145.1223172711907,32.809225023243926 146.4541755928658,35.08533068279212 146.39944168925285,36.8460737370915 145.59667776932474,38.542384572079754 144.37428725499194,39.7448239679652 144.30130871676374,41.3981662291626 140.81658351921942,41.591413126006955 140.32397838658653,39.7018798294157 139.19281104498077,38.67121771337406 138.35355785593856,37.14668684201024 138.18935614521615,35.42889153111901 138.84616298868787,33.38899026608851 138.9373861614149,33.60371770359052 139.6671715429984,32.74480655822845 140.85307278833352,32.057674962459714 143.42556625884026,31.90736460831249 145.17705117492005,32.76627938218007 145.83385801839177,33.60371770359052 146.49066486186348,35.407418995542685 146.4541755928658,36.52398776175687 145.90683655650355,38.09146791839157 144.319553351379,39.8521842736227 144.21008554415312,41.44111000036355 140.87131742283236,41.591413126006955 140.39695692469832,39.873656327821664 138.66371664323378,37.898217609967105 138.18935614521615,36.48104292547214" stroke="#4DD2FF" stroke-dasharray="none" stroke-linecap="round" stroke-linejoin="round" stroke-width="0.5"><title>2026-05-11 15.3km</title><desc>1778503630000</desc></polyline><polyline fill="none" opacity="1" points="188.20000000018626,33.80994502606336 183.0398162328638,35.44505364645738 176.9865237365011,39.474407291796524 178.12771822372451,44.02929254015908 178.12771822372451,49.10969607165316 176.8376722817775,52.554999960702844 172.76906584994867,56.87619744305266 172.07442572759464,61.89808613952482 162.49831546726637,61.72290476312628 162.05176110286266,57.51853465259774 156.84196018381044,51.44549772184109 156.0480857579969,44.32127105118707 157.13966309372336,41.28468680620426 159.52128637069836,38.364878133055754 163.9372128637042,35.85383002652088 169.0477794795297,35.561846929369494 174.65451761125587,38.24808545736596 177.83001531404443,43.0365644194535 178.3261868301779,47.94179145171074 176.936906585237,52.14623624359956 172.4713629402686,57.40174612595001 171.9255742726382,61.83969235373661 162.59754977049306,61.83969235373661 161.9029096479062,57.343351853021886 158.82664624834433,54.30684095202014 156.49464012263343,50.51117827632697 155.89923430327326,45.43078795139445 156.44502297090366,42.91977275570389 159.57090352242813,38.189689110033214 165.62419601832516,35.44505364645738 171.23093415028416,36.14581296546385 177.03614088823088,40.583934166817926 178.22695252718404,45.02201883267844 178.17733537545428,48.64253452728735 175.8949464012403,53.78128925227793 172.62021439522505,56.99298608355457 172.22327718231827,61.72290476312628 163.04410413489677,62.131661219580565 161.9029096479062,57.2265632886556 159.07473200629465,54.65720846736804 156.2465543646831,50.16080806666287 155.99846860673279,44.73004070110619 157.43736600340344,40.87591454398353 161.30750382854603,36.96336435311241 164.03644716716371,35.795433419698384 168.1050535987597,35.44505364645738 172.6698315469548,36.788174874323886 174.7041347627528,38.306481798237655 178.02848392049782,43.67891811806476 178.42542113317177,46.89067513035843 177.53231240413152,51.27031294920016 172.76906584994867,56.70101443474414 172.4713629402686,61.43093567591859 163.09372128662653,62.19005497393664 161.85329249617644,57.28495757386554 157.28851454844698,52.32142073166324 155.80000000004657,47.00746593414806 156.64349157735705,42.33581405732548 159.42205206747167,38.13129275618121 165.77304747351445,35.38665699533885 171.33016845351085,36.204209534218535 175.39877488533966,38.94884113286389 177.38346094964072,41.98543853464071 178.37580398167484,45.83955675998004 177.08575803996064,52.14623624359956 172.52098009199835,57.168168996751774 172.22327718231827,61.78129856148735 163.04410413489677,62.131661219580565 161.95252679940313,57.51853465259774 157.13966309372336,52.14623624359956 155.89923430327326,48.64253452728735 156.74272588058375,42.277418152661994 159.3228177644778,38.54006709950045 164.7807044412475,35.561846929369494 170.2385911180172,35.85383002652088 175.10107197565958,38.71525600890163 178.27656967844814,44.262875361717306 177.53231240413152,50.86154825810809 175.64686064328998,54.131657109130174 172.62021439522505,57.109774698736146 172.22327718231827,61.72290476312628 162.89525268017314,62.073267459112685 161.95252679940313,57.40174612595001 158.6281776416581,54.19005172967445 156.29617151618004,50.102413009735756 155.94885145500302,44.61324940418126 157.73506891261786,40.29195363156032 160.3151607962791,37.488932447566185 163.34180704457685,35.912226626998745 168.1050535987597,35.44505364645738 172.76906584994867,36.72977836878272 177.18499234318733,41.34308281831909 178.3261868301779,44.496458081936 178.07810107199475,49.40167183143785 176.24226646241732,53.54771055461606 172.62021439522505,57.168168996751774 172.62021439522505,61.08057256252505 171.82633996964432,61.89808613952482 162.49831546726637,61.72290476312628 161.70444104121998,57.109774698736146 157.88392036780715,53.37252646498382 156.29617151618004,50.21920311736176 155.80000000004657,46.715488877671305 156.74272588058375,41.98543853464071 160.41439509997144,37.54732887085993 164.3341500768438,35.73703680653125 170.3378254212439,35.912226626998745 173.81102603394538,37.54732887085993" stroke="#4DD2FF" stroke-dasharray="none" stroke-linecap="round" stroke-linejoin="round" stroke-width="0.5"><title>2026-05-10 11.2km</title><desc>1778422578000</desc></polyline><polyline fill="none" opacity="1" points="30.207600301480852,87.56693258901942 30.408291237894446,85.46262512763496 31.375256659230217,83.93806189052702 33.03551804297604,82.95031043546624 34.951204254990444,82.80000000000291 37.085826034191996,83.76627938229649 38.25348239205778,85.48409776558401 38.47241795912851,86.64361675929104 38.19874850020278,88.40435485517082 37.39598475431558,89.800050771315 36.283062288188376,90.80924015880737 36.483753224718384,100.23525041079847 39.968477667542174,102.14616368760471 42.72341688675806,102.68293376687507 43.015330976224504,113.80448286360479 42.39501353609376,114.36269089662528 41.00842161127366,114.62032484344672 34.403865337371826,115.19999999999709 28.45611576468218,114.89942790809437 21.19475278945174,113.82595243238029 13.148870698874816,113.71860456527793 12.948179762461223,103.4558801282401 16.232213268755004,103.06940732423391 28.182446305756457,102.83322912866424 29.642016753088683,102.4038135069859 32.76184858416673,100.51437372335931 32.70711469242815,92.8490753625083 36.15534987405408,92.72024428630539 36.52024248579983,100.38554762797139 39.8590098839486,102.12469285426778 42.72341688675806,102.70440453985066 43.05182023742236,112.98863752748002 42.81464003981091,114.12652615133265 39.49411727220286,114.85648900063825 33.56461233017035,115.19999999999709 28.8574976377422,114.94236680628092 21.34070983424317,113.84742199885659 13.185359960072674,113.69713498484634 12.966424393001944,103.34852664718346 28.182446305756457,102.85469988537079 29.769729167222977,102.36087189373211" stroke="#4DD2FF" stroke-dasharray="none" stroke-linecap="round" stroke-linejoin="round" stroke-width="0.5"><title>2026-05-10 11.3km</title><desc>1778397813000</desc></polyline><polyline fill="none" opacity="1" points="68.3486643172655,82.80000000000109 68.39747732049727,82.94860755817172 68.36014972979319,83.23906574473222 68.59847203969548,83.47886058501172 68.62431421787187,83.71189887784567 67.26903553990996,83.9111621266693 66.47654207568849,83.78282323070925 66.13772240620165,83.77269119014818 61.07265548266878,83.76255914631474 60.23996307462221,83.72540829080026 59.688663273409475,83.7355403466845 59.5680664419051,83.77944588421633 59.54222426372871,87.20388777395965 59.43024149160192,87.52807584797665 59.46469772918499,89.50690098601262 59.40152796028997,98.19401490817836 59.4388555510086,101.08355770752132 59.37568578212813,112.91237377302605 59.40439931342553,114.18779661081862 59.56519508876954,114.29576653050208 62.850023070917814,114.3328811044521 62.90457878042071,114.38349181623926 62.91032148669183,114.4712168563401 62.78685330203734,115.20000000000073 62.927549605461536,114.48808702819042 62.86150848346006,113.4623640634527 62.89596472104313,112.95286418505566 63.08547402768454,112.21390592681018 64.44649541190302,109.48737028382129 65.14136286966095,108.38386573199205 65.60652207692328,107.77641543797108 65.526124189244,107.69879594015947 65.26770240743645,108.02614642983644 64.45510947129515,109.37263461893963 64.30867046159983,109.37938378733088 64.127775214336,109.27477151375388 64.03302056099346,109.13978741853862" stroke="yellow" stroke-dasharray="none" stroke-linecap="round" stroke-linejoin="round" stroke-width="0.5"><title>2025-11-09 21.3km</title><desc>1762645227000</desc></polyline><polyline fill="none" opacity="1" points="105.52383159962483,83.92453903198475 108.9277062069159,86.03304446360562 111.37610724032857,89.05522363370983 113.70507407700643,95.02925732271979 111.79412692878395,103.46309360093437 106.30015387875028,109.36671377375023 106.35987097676843,114.35663655918324 94.65531969559379,115.05943950259825 93.5206948267296,109.15587112109642 88.74332695640624,104.44703402655432 86.2949259232264,98.40280498831999 86.6532285134308,92.92078112473246 89.69880053051747,87.29814443376381 95.67051036795601,83.50283712340752 103.07543056621216,83.08113494073041 108.80827201041393,85.82219422899652 113.28705438855104,92.70993312814971 113.04818599484861,100.58154520095559 110.36091656796634,105.36069165694062 106.59873937047087,108.8044665476773 106.30015387875028,114.56747752224328 95.133056482533,115.05943950259825 93.58041192474775,109.01530931453453 87.25039949710481,101.70605341607006 86.35464302171022,96.01321053697029 87.60870208754204,90.60144939349266 92.44578705588356,85.04907611489762 99.79099015588872,82.79999999998836 106.77789066568948,84.34624066652032 109.70402848604135,86.94672802288551 112.86903469962999,92.00710597779835 113.52592278178781,96.01321053697029 112.9884688963648,100.08957224385813 111.31639014184475,104.165908342693 106.4793051739689,108.9450283999322 106.30015387875028,114.42691688769264 96.98428653203882,115.20000000001164 94.53588549909182,114.84859869937645 93.87899741646834,109.50727550429292 89.04191244835965,104.72815958817955 87.31011659558862,101.70605341607006 86.4143601199612,95.80236354510998 87.72813628427684,90.46088356774999 92.92352384258993,84.76794202683959 100.44787823781371,82.87028374656802 107.01675905915909,84.41652424575295 111.7344098307658,89.61748797266046 113.16762019181624,93.0613464177004 113.28705438855104,99.5975989138824 111.31639014184475,104.09562690288294 106.65845646872185,108.38278080819873 106.35987097676843,114.35663655918324 94.8344709908124,115.05943950259825 93.69984612148255,109.15587112109642 89.04191244835965,104.7984409595374 86.71294561168179,99.10562521097017 86.59351141494699,93.48304211394861 89.34049794031307,87.86041029548505 94.47616840037517,83.92453903198475 101.64222020539455,83.01085121714277 106.77789066568948,84.48680781712756 112.27186371595599,90.39060064329533 113.46620568353683,94.88869245589012 112.809317601379,101.00323600985575 110.48035076470114,105.07956636906601 106.4793051739689,108.87474747758824 106.24043678026646,114.42691688769264 102.8962792714592,115.05943950259825 94.5956025973428,114.98915924242465 93.75956321996637,109.15587112109642 89.34049794031307,105.14984770253068 87.48926789057441,101.91689848946407 86.59351141494699,93.41275951697025 91.01257669483311,86.17361124878516 97.46202331897803,83.08113494073041 105.64326579659246,84.06510627391981 111.31639014184475,88.98494055704214 113.40648858505301,94.74812755879248 112.92875179811381,100.65182702161837 110.30119946948253,105.43097295984626 106.59873937047087,108.6639046651544 106.35987097676843,114.42691688769264 102.65741087775677,114.98915924242465 94.53588549909182,114.84859869937645 93.81928031845018,109.22615201311419 89.22106374357827,105.07956636906601 86.77266271039844,100.08957224385813 87.19068239885382,91.58540932222968 91.72918187524192,85.61134392552776 97.04400363052264,83.15141865680926 103.7920357468538,83.36226975952741 107.97223263327032,85.2599266008474 111.01780465012416,88.56324193737237 113.46620568353683,94.60756263119401 112.809317601379,101.07351778488373 110.48035076470114,105.14984770253068 106.53902227198705,108.5936237120768" stroke="#4DD2FF" stroke-dasharray="none" stroke-linecap="round" stroke-linejoin="round" stroke-width="0.5"><title>2025-11-01 10.0km</title><desc>1761964262000</desc></polyline><polyline fill="none" opacity="1" points="149.13639213191345,99.98628799634753 146.2637414606288,105.69147170713404 142.55323434364982,108.79056286724517 141.89491856470704,114.84783476463053 130.52400965802372,115.20000000001164 129.62630632310174,109.4244660580298 124.35978009272367,104.21235481032636 122.1454452003818,98.08454896969488 122.68406720110215,91.95668538461905 125.4370240943972,87.58966689987574 128.908143655397,84.70178372767987 135.49130144366063,82.79999999998836 140.87752145226113,83.78611077531241 144.16910034627654,85.54701915418264 148.5379232421983,91.60450756183127 149.37577968789265,97.87324429035652 147.52052612928674,103.93061787734041 142.25399989867583,109.21316506306175 141.95476545393467,114.84783476463053 130.2846221018117,114.988700881775 129.3869187675882,109.14273138291901 125.01809587143362,105.4097354147234 123.16284231306054,101.95845592743717 122.38483275636099,93.92887766793137 125.91579920635559,87.23748671193607 131.96033499366604,83.5748014493729 138.78288033790886,83.36349205474835 145.00695679197088,86.5331257636426 148.59777013096027,91.95668538461905 149.43562657688744,98.08454896969488 147.52052612928674,103.86018362501636 142.37369367689826,108.720129141293 141.8350716761779,114.91826782719 130.34446899103932,115.05913392873481 129.62630632310174,109.21316506306175 123.52192364702933,102.87410329090199 122.08559831161983,96.32367454195628 122.74391409009695,92.23842750559561 124.77870831568725,88.64620631950675 129.86569387931377,84.27916560217272 137.16701433528215,82.94087305950234 144.52818168024532,86.18094500352163 148.83715768693946,92.8723468312528 149.37577968789265,98.36628843582002 146.98190412856638,104.49409162148368 142.37369367689826,108.79056286724517 141.59568411996588,115.05913392873481 130.40431588026695,115.05913392873481 129.80584699008614,109.14273138291901 125.5567178723868,105.6210376455565 123.10299542406574,101.46541450545192 122.44467964512296,93.2949593719095 126.57411498506553,86.46268962684553 132.61865077260882,83.29305557475891 140.27905256254598,83.64523789886152 145.96450701612048,87.80097492120694 148.95685146492906,93.99931299587479 149.13639213191345,99.07063656690298 147.34098546230234,104.0714863591711 142.31384678790346,109.07229769520927 142.07445923169143,114.63653553207405 141.29644967522472,114.988700881775 130.34446899103932,115.05913392873481 129.3869187675882,109.07229769520927 125.31733031664044,105.6210376455565 123.10299542406574,101.67671801749384 122.44467964512296,93.5062655393267 126.45442120730877,86.67399801441934 133.09742588433437,83.29305557475891 140.9972152300179,83.85654720210005 145.90466012689285,87.51923087757314 149.01669835392386,93.92887766793137 149.0765452431515,99.84541862958577 146.5629759056028,105.19843311543809 142.43354056566022,109.00186399975792 141.8350716761779,114.84783476463053 130.34446899103932,115.05913392873481 129.68615321232937,109.35403240064625 125.496870983392,105.48016949929297 123.10299542406574,101.67671801749384 122.62422031234019,93.08365313598188 126.27488054032438,87.02617850754177 133.57620099605992,83.0817460884573 141.2366027859971,83.71567434089957 146.14404768287204,87.58966689987574 149.0765452431515,93.85844233218813 149.01669835392386,99.91585331672104 147.22129168431275,104.28278902487364 142.31384678790346,109.21316506306175 142.55323434364982,114.42523623054149 143.09185634437017,109.49489970767172 147.81976057426073,104.56452580535552 149.914401688613,99.70454923220677" stroke="#4DD2FF" stroke-dasharray="none" stroke-linecap="round" stroke-linejoin="round" stroke-width="0.5"><title>2025-10-27 10.0km</title><desc>1761565093000</desc></polyline><polyline fill="none" opacity="1" points="170.740668927785,83.42044102225918 178.29665535967797,84.66132125206059 183.33397964737378,89.9695038117934 185.20833287062123,95.41551523032831 184.73974456475116,100.58573611394968 183.33397964737378,104.17039793822914 178.23808182124048,109.27161264902679 178.23808182124048,114.44172097672708 166.75766832823865,114.92426227784017 165.93763879314065,109.27161264902679 161.19318219646811,104.79081812768709 158.85024066688493,99.75850359501783 158.79166712914594,93.8299724108656 161.6617705023382,87.97032336960547 168.39772739866748,83.8340680343681 176.77374336565845,84.10981922631618 179.5266996624414,85.55751102446811 182.6896707266569,89.00438300310634 185.2669064088259,95.48445178510156 183.6854208766017,103.27423437486868 178.29665535967797,109.06480744248256 178.12093474483117,114.44172097672708 166.64052125182934,114.92426227784017 165.87906525470316,109.27161264902679 161.8960646551568,105.75591499765869 159.02596128196456,100.37892808509059 158.96738774352707,93.2095415367512 161.42747634928674,88.59075935150031 167.6948449399788,84.24769477767404 174.3136547601316,83.76513021782739 178.99953781836666,85.48857339442475 181.40105288568884,87.48776163253933 185.2669064088259,94.45040268020239 185.1497593326494,99.06914234114811 183.80256795324385,103.3431700784713 178.29665535967797,109.06480744248256 178.12093474483117,114.5106554706581 167.05053601926193,115.06213115371065 165.76191817829385,109.34054770309012 161.72034404031,105.75591499765869 158.73309359070845,98.86233381944476 159.20168189657852,92.93379428761546 161.60319696413353,88.31501010089414 168.33915386046283,83.9719436452724 176.6565962890163,84.3166325421189 179.8195673536975,85.76432386960369 181.92821472976357,88.03926073072944 185.09118579421192,94.86402252380503 185.0326122562401,99.55169529718114 183.6268473386299,103.6189128178521 178.23808182124048,109.27161264902679 178.12093474483117,114.5106554706581 166.87481540464796,114.9931967195007 166.05478586931713,109.68522286077496 160.37315266113728,103.68784848396899 158.6745200525038,98.93127000099048 159.55312312580645,91.21037127240561 161.54462342569605,88.3839474246488 168.5148744750768,83.9719436452724 174.66509598935954,83.90300584351644 180.8153175036423,86.86732457543258 184.91546517959796,93.62316218676278 185.09118579421192,99.41382306138985 182.9239648799412,104.65294702653773 178.41380243585445,108.9269372675335 178.0623612063937,114.57958995708032 166.93338894285262,115.20000000001164 166.05478586931713,109.61628784402274 161.60319696413353,105.41123771195998 159.14310835837387,100.51680011168355 159.02596128196456,93.9678458563285 161.4860498874914,88.59075935150031 166.75766832823865,84.66132125206059 172.7907427661121,83.62725456192857 179.58527320064604,85.76432386960369 184.03686210606247,91.07249722973211 185.32547994726337,95.62232487212168 184.79831810318865,100.79254407557892 182.98253841814585,104.65294702653773 178.35522889811546,108.9269372675335 178.17950828326866,114.64852443616837 166.64052125182934,114.78639337193454 165.99621233087964,109.34054770309012 161.8960646551568,105.68697955546668 159.55312312580645,101.89551873656455 158.73309359070845,94.1746559686726 161.83749111695215,88.10819808451924 164.64902095193975,85.76432386960369 169.51062462478876,83.8340680343681 177.35947874793783,84.59238352510147 180.581023350358,86.79838708747411 182.98253841814585,89.90056665957673 183.86114149168134,88.93544574640691 179.29240550962277,84.45450804854045 173.37647814839147,82.80000000004657 166.5819477136247,83.8340680343681 162.3060794225894,86.79838708747411" stroke="#4DD2FF" stroke-dasharray="none" stroke-linecap="round" stroke-linejoin="round" stroke-width="0.5"><title>2025-10-19 10.0km</title><desc>1760866141000</desc></polyline><polyline fill="none" opacity="1" points="41.34494860493578,148.69431768817594 39.425675097387284,154.90606523456518 34.3875821409747,159.84718577656895 34.0876956556458,165.35296168125933 22.572054612683132,165.98824052343844 21.55244056158699,159.77659860410495 15.554710851749405,153.28254602261586 14.295187612762675,146.43548571888823 17.414007062092423,138.67069111019373 23.831577851669863,134.50589951808797 31.028853503521532,134.15294985455694 37.44642429309897,137.68243788660038 40.985084822168574,143.47075687773759 41.464903199113905,149.32961276889546 39.24574320623651,155.32959132036194 34.50753673561849,159.63542423583567 33.84778646728955,165.7764809782384 22.512077315477654,165.84706750087207 21.792349750176072,160.34129577036947 17.77387084439397,156.74134295183467 15.254824366187677,152.5060788829578 14.535096800886095,144.529590154998 18.073757329955697,138.10597516590497 25.271032982040197,133.94117996486602 32.16842214833014,134.4353096006089 38.10617456166074,138.38833319908008 41.34494860493578,144.31782363716047 41.52488049608655,149.7531424787594 39.48565239435993,155.04724062723108 34.44755943841301,159.91777294134954 34.14767295285128,165.7764809782384 22.452100018272176,165.84706750087207 21.792349750176072,160.55305708147353 17.414007062092423,156.24723022861872 14.535096800886095,150.67078923882218 14.834983286680654,142.41192188009154 18.01378003298305,137.82361701049376 20.35289461980574,136.12946550757624 27.310261083301157,133.79999999998836 34.567514032358304,135.56474736134987 38.16615185840055,138.4589226883836 40.925107524963096,142.69427804771112 41.34494860493578,150.7413773976732 39.48565239435993,155.1884159889887 34.62749132956378,159.98836009862134 34.50753673561849,165.56472136406228 23.831577851669863,166.20000000001164 22.452100018272176,165.84706750087207 21.6124178590253,160.12953439017292 17.174097873503342,155.75311713072006 14.4151422069408,149.8237307370291 14.235210315557197,145.02371176227462 17.414007062092423,138.67069111019373 19.993030837271363,136.341234686377 24.67126001091674,134.29412974294974 31.748581068590283,134.29412974294974 36.96660591638647,137.2589003322064 41.464903199113905,144.45900132338284 40.925107524963096,151.72961081838002 39.24574320623651,155.32959132036194 34.3875821409747,159.56483704026323 34.20765024982393,165.56472136406228 22.811963801039383,165.91765401605517 21.55244056158699,160.05894724826794 16.154483822872862,154.55312661948847 14.355164909968153,149.96490723028546 14.535096800886095,144.2472347827861 17.054143279325217,139.16481715993723 19.933053540298715,136.341234686377 24.13146433723159,134.3647196755046 31.628626474412158,134.3647196755046 37.98621996701695,138.17656468588393 41.7647896844428,146.22371982043842 39.665584285743535,154.83547752688173 34.50753673561849,159.35307540814392 34.327604844234884,165.56472136406228 22.3921227210667,165.91765401605517 21.672395155997947,160.34129577036947 16.334415714256465,154.76488981145667 14.355164909968153,149.2590244570747 15.254824366187677,142.27074375044322 18.373643815517426,137.75302745238878 23.231804880546406,134.6470793298795 30.908898909576237,134.08235989901004 35.46717348904349,136.12946550757624 39.54562969179824,140.29424672358437 41.4049259016756,145.51783299492672 41.34494860493578,150.3178483301308 39.00583401764743,155.54135426017456 34.44755943841301,159.70601142355008 34.567514032358304,165.21178852109006 35.287241597659886,160.2001215245691 38.58599293837324,157.30604274797952 41.34494860493578,152.788430677203" stroke="#4DD2FF" stroke-dasharray="none" stroke-linecap="round" stroke-linejoin="round" stroke-width="0.5"><title>2025-10-16 10.0km</title><desc>1760611285000</desc></polyline><polyline fill="none" opacity="1" points="70.12442217348143,134.94187730638077 75.58182807080448,140.15166740480345 77.70415258663706,146.0750773336622 76.30948219052516,153.71120191912632 70.30633570346981,160.20540646259906 70.24569785990752,165.7718165559927 58.60323194577359,166.1286361120874 57.814939982490614,160.41950002819067 52.4181719282642,155.20987018721644 50.295847413130105,149.71473653888097 50.6596744726412,143.36316132498905 54.055393697926775,137.86792887141928 61.33193489443511,133.80000000004657 68.18401118763722,134.29957156506134 73.8233306154143,137.65382797812345 77.58287689997815,145.50414857518626 76.49139572051354,153.35437563841697 70.48824923345819,159.919948267343 70.24569785990752,165.7718165559927 58.54259410244413,166.20000000001164 57.693664296064526,160.41950002819067 52.60008545848541,155.42396537581226 50.41712309955619,150.21429603698198 50.59903662954457,143.64862669375725 54.29794507101178,137.36836001183838 62.05958901392296,133.80000000004657 70.06378433015198,134.6564081654651 76.18820650409907,141.0080673142802 77.52223905664869,145.86097910720855 76.18820650409907,153.8539323771256 70.3669735470321,159.919948267343 70.3669735470321,165.6290886795614 58.60323194577359,166.1286361120874 57.814939982490614,160.56222903291928 52.054344868985936,154.56758420396363 50.41712309955619,149.7861022047582 50.6596744726412,143.43452767876443 54.116031541256234,137.72519495000597 61.15002136444673,133.94273477134993 69.45740589732304,134.6564081654651 74.67226042156108,138.58159801346483 77.58287689997815,145.64688081119675 76.24884434742853,153.8539323771256 70.48824923345819,159.99131282768212 70.18506001704372,165.84318048285786 58.60323194577359,166.1286361120874 57.693664296064526,160.27677099220455 52.53944761515595,155.06714002304943 50.295847413130105,149.6433708652621 50.53839878621511,143.8627256390755 52.66072330181487,139.22389958042186 59.755350968334824,134.37093890062533 67.15316785150208,134.0141021455638 70.67016276344657,135.22734632407082 74.06588198826648,138.1533966208808 77.58287689997815,145.78961301629897 77.46160121355206,150.07156479044352 76.00629297411069,154.21075838722754 70.4276113898959,160.20540646259906 70.3669735470321,165.84318048285786 58.663869788870215,166.20000000001164 57.814939982490614,160.49086453428026 53.145826048217714,156.0662505244254 50.3564852559939,150.14293041749625 50.6596744726412,143.14906221744604 53.75220448151231,138.1533966208808 60.84683214779943,134.0141021455638 68.91166530735791,134.4423062283313 74.36907120491378,138.51023113413248 77.46160121355206,145.57551469717873 76.37012003408745,153.283010359155 73.70205492828973,157.27945409651147 70.4276113898959,160.06267738033785 70.4276113898959,165.6290886795614 58.663869788870215,166.1286361120874 57.633026452735066,160.20540646259906 52.72136114514433,155.56669546308694 50.41712309955619,150.21429603698198 51.023501532617956,141.65036651561968 53.44901526486501,138.51023113413248 61.02874567802064,133.94273477134993 68.85102746402845,134.37093890062533 74.67226042156108,138.86706545384368 77.34032552689314,144.79048693162622 76.79458493716083,152.14116483926773 74.18715767515823,156.637170130678 70.4276113898959,159.84858369920403 70.18506001704372,165.7718165559927" stroke="#4DD2FF" stroke-dasharray="none" stroke-linecap="round" stroke-linejoin="round" stroke-width="0.5"><title>2025-10-08 10.1km</title><desc>1759919017000</desc></polyline><polyline fill="none" opacity="1" points="93.95546290325001,135.1382928325911 98.50382745126262,133.80000000004657 108.37856627255678,135.9835289918119 112.56784940930083,141.75928000849672 113.70494054607116,148.66193954175105 111.37091137026437,155.2827890245244 106.52331231231801,159.86099658574676 106.3437716064509,165.70696861710167 94.61377882468514,165.9887008817168 94.01530980505049,160.56533334951382 90.18510808050632,157.04364190076012 87.49199749296531,152.95845592714613 86.59429396362975,145.06974831607658 89.8260266687721,138.5192308772821 96.10995137318969,134.64523789891973 102.33402917603962,134.15218259155517 109.45581050775945,137.5331257635844 113.16631842846982,143.6610404578969 113.52539984020405,149.15498384763487 111.72999278199859,154.64888082188554 106.46346541075036,160.00186399946688 105.9248432929162,165.77740169485332 94.67362572671846,166.12956696812762 93.8956160012167,160.35403240047162 87.49199749296531,153.24019371479517 86.53444706182927,145.9149715662934 89.76617976697162,138.80097492109053 95.93041066732258,134.71567434095778 102.21433537220582,134.15218259155517 109.27626980189234,137.32181733025936 112.98677772283554,143.0975564601831 113.58524674247019,149.0141140841879 111.37091137026437,155.2827890245244 106.46346541075036,160.1427313828026 106.04453709674999,165.84783476468874 94.55393192265183,166.0591339287348 93.47668768768199,159.86099658574676 89.8260266687721,156.76190576091176 87.19276298303157,152.74715250637382 86.53444706182927,145.63323060475523 89.58663906133734,139.08271884266287 92.93806557008065,135.9835289918119 95.93041066732258,134.71567434095778 103.17188580334187,134.22261908679502 110.0542795273941,138.3079227647395 112.56784940930083,141.75928000849672 113.52539984020405,149.22541871789144 111.67014587996528,154.71931509725982 106.52331231231801,159.86099658574676 106.04453709674999,165.77740169485332 94.79331953055225,166.20000000001164 93.83576909941621,160.21316506294534 90.60403639427386,157.81841565587092 87.91092580626719,154.01497200125596 86.47460015979595,146.0558420010493 89.10786384553649,139.64620631939033 94.91301333438605,135.06785643630428 102.33402917603962,134.15218259155517 108.67780078272335,136.8287640523049 112.50800250703469,141.6888443295611 113.46555293863639,149.22541871789144 111.55045207589865,155.00105212186463 106.64300611661747,159.649695407541 106.10438399901614,165.77740169485332 94.67362572671846,166.0591339287348 93.95546290325001,160.56533334951382 88.56924172793515,155.07148635882186 86.29505945392884,146.90106396947522 87.49199749296531,142.3932007763069 90.06541427690536,138.23748671170324 94.61377882468514,135.1382928325911 98.38413364742883,134.011309577676 103.23173270490952,134.4339285271708 108.85734148835763,137.1105088283657 112.38830870343372,141.54797294863965 113.40570603660308,150.0002017877996 111.67014587996528,154.78974936477607 106.46346541075036,160.1427313828026 105.9248432929162,165.70696861710167 94.97286023641936,166.20000000001164 93.8956160012167,160.2835987355793 89.28740455117077,156.0575648774975 87.13291608123109,151.8315035562846 86.47460015979595,147.816719862225 88.21016031620093,140.77317980810767 91.86082133511081,136.8287640523049 98.32428674562834,134.15218259155517 105.98469019494951,134.99742003256688 112.38830870343372,141.2662300952361 113.46555293863639,145.56279534543864" stroke="#4DD2FF" stroke-dasharray="none" stroke-linecap="round" stroke-linejoin="round" stroke-width="0.5"><title>2025-10-01 10.0km</title><desc>1759271073000</desc></polyline><polyline fill="none" opacity="1" points="144.4218756183982,135.07897770707496 148.88939386769198,141.2606681358302 149.79497189144604,145.38176272483543 149.67422815482132,150.07125266094226 148.34604705357924,153.83703091618372 142.61071957158856,159.80538990721107 142.42960396688432,165.77369459962938 130.8382052660454,166.12894911906915 129.57039603288285,160.08959612401668 124.92176217911765,155.68438593007158 122.7483749226667,151.2791461542365 122.20502810855396,146.66071785031818 123.59358107787557,141.33172171004117 128.72518987767398,135.78951979998965 135.72832659282722,133.79999999998836 142.3088602302596,135.07897770707496 145.20670990552753,137.06849362771027 147.92344397609122,140.69223926425911 149.73460002290085,146.02124059922062 148.70827826298773,152.77124681061832 146.47451913845725,156.3949057040736 142.61071957158856,159.59223516419297 142.48997583496384,165.48949084547348 138.32431692699902,166.05789823067607 130.41560218809173,165.9868473345996 129.69113976950757,160.30275070556672 125.16324965213425,156.03964591334807 122.56725931796245,151.35019864334026 122.86911865929142,143.1791119412519 125.10287778358907,139.05800351436483 128.2422149318736,136.1447905577952 133.85679867770523,133.94210875732824 142.3088602302596,135.07897770707496 147.92344397609122,140.47907831025077 149.6138562867418,145.23965644580312 149.4931125503499,150.42651568393921 146.95749408425763,156.11069788679015 142.61071957158856,159.94749303080607 142.06737275747582,165.8447455188143 130.53634592494927,165.9868473345996 129.8118835061323,160.30275070556672 122.9898623956833,152.84229913825402 122.20502810855396,148.57914586295374 122.7483749226667,143.25016530766152 126.49143075337633,137.63692563946825 133.67568307300098,134.01316312444396 141.46365407505073,134.86581492901314 145.75005671940744,137.85008751705755 149.25162507710047,144.1028051057947 149.5534844181966,150.14230528083863 147.01786595257,155.8264899465139 142.5503477032762,159.8764414730249 142.5503477032762,165.4184398878133 141.82588528445922,165.91579643049045 130.53634592494927,165.9868473345996 129.7515116375871,160.30275070556672 125.76696833409369,156.67911339824786 123.17097800038755,152.41598505759612 122.3861437132582,144.88439061370445 126.06882767542265,137.92114146088716 133.55493933637626,134.01316312444396 142.7918351762928,135.29214041575324 147.62158463476226,140.19486359739676 149.6138562867418,145.66597519023344 149.13088134070858,151.77651341684395 146.71600661147386,156.32385376142338 142.73146330798045,159.73433833383024 142.42960396688432,165.63159273791825 138.38468879507855,166.20000000001164 130.53634592494927,166.20000000001164 129.69113976950757,160.16064765880583 125.28399338829331,156.11069788679015 122.68800305458717,151.35019864334026 122.86911865929142,143.32121866656234 127.94035559077747,136.1447905577952 133.13233625912108,134.08421748393448 138.26394505868666,133.79999999998836 141.46365407505073,134.7237063718494 146.11228792881593,138.13430324592628 149.13088134070858,143.67648534529144 149.6138562867418,149.715989445569 147.74232837138698,154.90281328983838 142.61071957158856,159.80538990721107 142.00700088916346,165.91579643049045 130.53634592494927,166.12894911906915 129.51002416503616,160.30275070556672 125.10287778358907,156.32385376142338 123.23134986846708,152.70019447541563 122.26539997686632,145.87913445872255 125.64622459793463,138.56062660826137 129.57039603288285,135.43424884974957 134.27940175519325,133.94210875732824 138.2035731903743,133.8710543825291 142.7918351762928,135.3631946364767 148.0441877124831,140.62118562049 149.67422815482132,146.305452787783 148.34604705357924,153.55282199050998 142.42960396688432,159.8764414730249" stroke="#4DD2FF" stroke-dasharray="none" stroke-linecap="round" stroke-linejoin="round" stroke-width="0.5"><title>2025-09-27 10.0km</title><desc>1758965825000</desc></polyline><polyline fill="none" opacity="1" points="185.37996181007475,139.02591682923958 182.597403380787,139.86205958219944 185.43916518124752,144.66985931934323 185.37996181007475,150.80149380431976 182.1237764141988,156.86339317343663 178.33476068009622,160.41689383314224 178.39396405103616,166.06064865534427 166.55328988283873,166.06064865534427 166.07966291555203,160.207864926022 161.9946303279139,157.07242316746851 159.09366515651345,152.12536176026333 158.9160550441593,143.9034008993185 162.4682572945021,138.1897729896591 164.95479886978865,135.61165597528452 167.9149674118962,134.49679136369377 174.90096517116763,134.49679136369377 182.597403380787,137.56266439671163 185.43916518124752,144.87889327533776 185.6167752938345,148.98988060763804 184.07748765172437,154.0763200977235 178.33476068009622,160.48657012055628 178.33476068009622,165.9909729718347 166.49408651166596,166.20000000001164 166.02045954507776,160.207864926022 160.10012246086262,153.6582580949762 158.44242807733826,146.06341774342582 159.44888538168743,142.57951602275716 162.76427414896898,138.05041557742516 168.0333741537761,134.70582862535957 175.61140562128276,134.5664704584051 180.05165843456052,136.16908755671466 182.36058989726007,138.1897729896591 185.49836855195463,145.9937398940674 185.26155506866053,150.94084845425095 182.00536967231892,157.4208063397091 178.45316742174327,159.99883595097344 178.03874382609501,165.85162158193998 166.49408651166596,166.13032433140324 165.78364606155083,159.7898069077637 160.21852920250967,154.70341259246925 158.5608348189853,150.03504269005498 158.38322470639832,146.27245124668116 159.74490223568864,141.81305511208484 165.60603594896384,135.61165597528452 173.53928764211014,134.28775403369218 181.65014944714494,136.86587635416072 184.78792810207233,142.57951602275716 185.37996181007475,149.40794564440148 183.42625057231635,155.0517970478395 178.5123707926832,159.99883595097344 178.15715056750923,166.13032433140324 166.49408651166596,166.06064865534427 165.84284943249077,160.34721753833583 161.3433932485059,156.30597952444805 158.5608348189853,149.89568784361472 159.62649549427442,141.81305511208484 164.65878201578744,136.517482049705 169.51345842471346,134.3574331511627 180.2884719176218,135.89037182659376 182.77501349314116,138.120094287151 185.08394495607354,144.53050331107806 185.43916518124752,149.40794564440148 182.83421686384827,156.027272518666 178.39396405103616,160.2775412359042 178.03874382609501,165.9909729718347 166.43488314095885,165.92129728058353 165.60603594896384,159.99883595097344 161.6986134739127,156.79371649381937 159.56729212333448,153.37954994215397 158.5608348189853,145.36663890862837 161.16578313615173,139.79238106089178 165.96125617413782,134.91486581938807 171.7631865167059,133.79999999998836 181.94616630137898,137.21427046955796 184.90633484348655,143.136941566132 185.43916518124752,149.61697806080338 183.48545394302346,155.0517970478395 178.45316742174327,160.1381886084564 178.0979471965693,166.06064865534427 166.55328988283873,166.20000000001164 165.78364606155083,160.34721753833583 161.81702021532692,156.65436311170924 159.33047864004038,152.12536176026333 158.9752584148664,143.8337228158489 162.52746066567488,138.120094287151 165.72444269107655,135.40261900785845 168.74381460389122,134.21807490859646 180.7028955137357,135.89037182659376 182.83421686384827,137.77170066238614 185.26155506866053,144.60018131899415 185.08394495607354,149.96536527061835 182.89342023502104,155.60921178362332 178.33476068009622,160.2775412359042" stroke="#4DD2FF" stroke-dasharray="none" stroke-linecap="round" stroke-linejoin="round" stroke-width="0.5"><title>2020-04-24 10.0km</title><desc>1587724293000</desc></polyline><polyline fill="none" opacity="1" points="39.52469043829478,190.2116771772853 36.87194839352742,189.37911443365738 33.51180847035721,186.60389747290174 27.381026855902746,185.35504591738572 20.01229895441793,187.78336615039734 17.654306025942788,189.9341563830385 14.82471451163292,196.03958608070388 14.883664334658533,201.5899262141902 17.06480779359117,206.7239480194985 22.075542766833678,211.3029057237436 23.01873993850313,217.20000000001164 34.33710599527694,216.36747233435744 34.16025652573444,211.09477199264802 39.288891145493835,205.96078521962045 40.88053637230769,201.52054725942435 40.7626367257908,196.5252427624655 38.99414202943444,191.73803939617937 33.86550740967505,186.53451689489884 30.859066425822675,185.56318801257294 26.319930038414896,185.70194937149063 18.125904611544684,189.65663546865107 14.294166102772579,198.60662437044084 15.708961859811097,204.57321416336345 22.075542766833678,211.44166150689125 22.782940645469353,216.99186818493763 34.27815617248416,216.5062270204653 34.27815617248416,211.1641499105608 39.58364026155323,205.2670000672806 41.70583389699459,198.3984865140519 39.05309185246006,190.3504375294433 39.70153990783729,189.51787496625911 37.1077476865612,189.9341563830385 32.98126006149687,187.0201807837002 26.37887986144051,185.35504591738572 19.187001429265365,188.61593096837169 15.060513804433867,195.1376512661809 15.650012036552653,204.57321416336345 21.898693297058344,211.3029057237436 22.37029188289307,216.853113604011 33.8065575864166,216.6449816764216 34.219206348992884,210.8172602459672 39.1120416757185,206.16892061871476 40.99843601882458,200.1329665844096 40.23208831693046,194.58261382597266 36.812998570501804,189.0322129711858 29.62112013855949,185.56318801257294 24.55143534182571,186.0488526377594 18.06695478828624,189.10159327893052 14.70681486511603,195.55392903077882 15.237363274209201,203.3937764025177 17.477456556400284,207.27897493902128 21.662894004257396,211.1641499105608 22.25239223637618,216.78373630240094 33.8065575864166,216.6449816764216 33.86550740967505,211.1641499105608 38.99414202943444,206.03016369359102 40.703686902532354,200.61862016265513 39.76048973132856,193.95819613098865 36.282450161641464,188.89345233375207 33.334959000814706,186.74265860655578 28.501073497347534,185.70194937149063 25.317783043719828,185.7713300397154 19.48175054555759,187.78336615039734 15.473162566777319,193.26439797808416 14.294166102772579,197.2190373831545 15.473162566777319,204.50383553170832 18.47960355086252,208.5277837496251 21.72184382751584,210.95601613458712 22.429241706151515,216.92249089834513 33.86550740967505,216.71435899334028 33.86550740967505,211.1641499105608 39.406790792010725,205.33637861639727 40.88053637230769,197.63531379506458 39.1120416757185,192.01555940910475 33.39390882407315,186.25699450739194 28.618973143631592,184.79999999998836 19.599650191841647,187.9221270288108 15.591062213294208,194.0275759047945 14.471015572315082,198.32910721341614 15.826861506095156,204.85072861530352 21.95764312054962,211.5804172597127 22.60609117592685,216.71435899334028 34.101306702708825,216.36747233435744 34.04235687945038,211.3722836189554 39.34784096851945,205.40575715788873 40.82158654904924,197.35779621719848 38.81729255965911,191.8074194107321 34.33710599527694,187.50584430422168 27.322077033109963,185.49380732164718 18.420653727604076,188.47717024048325 14.588915218831971,195.9008269609185" stroke="#4DD2FF" stroke-dasharray="none" stroke-linecap="round" stroke-linejoin="round" stroke-width="0.5"><title>2020-04-16 10.0km</title><desc>1587033949000</desc></polyline><polyline fill="none" opacity="1" points="75.54078123904765,189.96429981745314 74.09818358393386,189.96429981745314 71.63374592387117,187.34678309585433 66.82508707372472,185.22446453903103 62.43718587374315,185.0829763900838 55.64495524857193,187.91273354610894 51.55759522598237,192.72329257329693 50.59586345637217,201.00020091066835 53.30073405918665,206.8717902356293 58.229609380243346,211.61146841797745 58.65036702947691,217.12925939285196 69.95071532623842,216.63407492724946 70.61190591799095,211.6822096229298 74.93969888286665,207.22549875051482 77.52435301453806,200.92945854878053 77.1035953653045,194.91632978292182 73.6774259347003,188.83240198198473 71.51352945249528,186.8515760495211 66.58465413167141,185.01223230396863 61.65577881038189,185.36595265730284 54.56300700735301,188.33719606214436 51.2570540481247,193.92592679377412 50.41553874942474,197.88752973946976 51.85813640453853,205.10324478917755 58.10939290886745,211.2577622787212 59.13123291428201,217.12925939285196 70.37147297570482,216.7048155881348 70.55179768265225,211.045538503211 75.54078123904765,206.09363082924392 77.64456948568113,200.4342618008377 76.86316242278554,194.49187154276296 72.35504475119524,187.98347731819376 65.68303059716709,185.15372046851553 56.30614584032446,187.34678309585433 51.85813640453853,192.86477906699292 50.53575522080064,197.392330685223 51.136837576981634,203.0517260718625 54.202357593458146,208.0036568082287 58.229609380243346,211.46998598531354 58.95090820756741,217.20000000001164 70.49168944684789,216.7048155881348 70.55179768265225,210.97479722939897 76.02164712408558,205.52769613312557 77.64456948568113,199.65609472466167 77.1035953653045,195.19930178957293 74.39872476225719,190.10578690929106 69.83049885509536,186.35636862763204 66.64476236701012,185.01223230396863 61.054696454433724,185.5781847774051 54.56300700735301,188.19570858741645 51.0767293414101,194.77484373335028 50.475646985229105,199.16089701157762 51.73791993316263,204.96176094660768 58.16950114467181,211.2577622787212 58.65036702947691,216.98777815519134 70.67201415379532,216.35111220687395 70.61190591799095,210.9040559474961 75.78121418156661,205.95214720116928 77.46424477896653,200.36351937777363 76.80305418698117,194.0674130268162 71.81407063035294,187.98347731819376 66.22400471777655,184.80000000004657 60.93447998329066,185.71967281925026 54.56300700735301,188.62017091934104 51.317162283929065,194.2088992294739 50.53575522080064,200.64648902451154 53.12040935247205,206.65956503502093 58.049284673063084,211.39924475748558 58.77058350085281,217.20000000001164 70.67201415379532,216.56333425856428 70.67201415379532,211.045538503211 75.54078123904765,206.23511442681774 77.58446125034243,200.00980714685284 76.6828377158381,194.2088992294739 73.07634357875213,188.83240198198473 66.58465413167141,185.22446453903103 60.81426351191476,185.43669670505915 53.661383472848684,189.115376624919 50.53575522080064,197.95827243069652 52.158677582396194,205.17398669896647 58.049284673063084,211.1870210277848 58.710475265281275,216.91703752503963 70.31136474013329,216.84629688691348 70.55179768265225,211.2577622787212 75.42056476790458,206.23511442681774 77.40413654316217,199.58535221702186 75.96153888828121,192.65254931501113 71.03266356745735,187.13455155061092 66.46443766029552,185.22446453903103 63.39891764335334,185.22446453903103 59.79242350626737,185.931904824276 54.74333171430044,188.62017091934104 51.55759522598237,193.43072473577922 50.35543051408604,197.67530161928153" stroke="#4DD2FF" stroke-dasharray="none" stroke-linecap="round" stroke-linejoin="round" stroke-width="0.5"><title>2020-04-14 10.0km</title><desc>1586861907000</desc></polyline><polyline fill="none" opacity="1" points="111.8877722651232,189.9897194406367 106.10775266750716,186.48315680911765 100.50649656238966,185.08052643871633 96.15658490662463,185.85197351849638 89.89986266172491,188.86762146477122 87.15882244007662,195.31965826824307 87.21841027098708,201.14046238997253 89.1848086907994,206.25992155860877 94.36894997954369,211.1689539779909 94.90524045750499,216.84935932746157 106.346103991149,216.5688466526335 106.52486748388037,210.88843884231756 111.11313046352006,206.47030942578567 113.2582923762966,201.56124138255836 112.54323840513825,194.05730830063112 108.49126590369269,188.026046706771 100.9236113789957,185.22078961250372 95.8586457518395,185.99223652516957 90.07862615445629,188.6572278777021 86.98005894734524,196.23135393636767 87.575937256217,202.61318766803015 89.72109916899353,206.89108495466644 94.19018648681231,211.0988252054085 95.0244161193259,217.20000000001164 106.40569182229228,216.4285902697593 106.64404314570129,210.748181229108 111.29189395625144,206.11966294277227 113.61581936152652,199.73786377266515 113.01994105242193,194.82874468440423 109.50425902893767,188.72735908109462 102.71124630584382,185.4311843161704 96.63328755367547,185.78184200369287 89.95945049240254,188.86762146477122 86.38418063847348,195.67031060013687 86.68211979279295,201.00020266493084 88.0526399037335,204.43655718077207 94.24977431748994,211.0988252054085 94.4881256413646,216.70910300523974 106.346103991149,216.4285902697593 106.46527965296991,211.1689539779909 111.8877722651232,205.3482400116045 113.31788020697422,200.08851371193305 112.90076539083384,195.24952777911676 108.43167807278223,187.6052589173778 102.89000979857519,185.3610527557903 96.15658490662463,185.7117104814388 90.37656530877575,188.3767029888113 86.50335630006157,197.56382991123246 88.41016688919626,204.8573340313742 94.19018648681231,211.30921150028007 94.54771347204223,216.70910300523974 106.10775266750716,216.4987184649217 106.346103991149,210.95856763760094 110.99395480146632,206.25992155860877 113.13911671424285,201.07033253117697 112.78158972878009,194.61835303448606 108.9083807200659,188.58709666674258 102.53248281311244,185.22078961250372 94.96482828841545,186.34289390878985 89.89986266172491,188.72735908109462 86.44376846915111,197.35343915014528 87.87387641100213,204.3664276789641 94.07101082475856,211.23908274283167 94.54771347204223,216.4987184649217 106.52486748388037,216.3584620669717 106.46527965296991,210.748181229108 111.47065744874999,205.55862817482557 113.31788020697422,200.08851371193305 112.662414067192,194.3378307283856 108.1933267491404,188.026046706771 99.13597645168193,184.79999999998836 92.22378806676716,186.97407672076952 87.81428857985884,192.93521737447008 86.62253196188249,197.98461122828303 87.09923460916616,202.75344704382587 88.41016688919626,205.27811060863314 94.19018648681231,211.0988252054085 94.72647696500644,216.77923117007595 106.2269283295609,216.4987184649217 106.2269283295609,210.6780524107162 110.51725215441547,206.96121418301482 113.13911671424285,200.0183837392251 112.06653575785458,193.0053481142386 106.64404314570129,186.7636825183872 98.71886163554154,185.08052643871633 90.13821398536675,188.3065717475256 86.74170762347057,197.4936996649485" stroke="#4DD2FF" stroke-dasharray="none" stroke-linecap="round" stroke-linejoin="round" stroke-width="0.5"><title>2020-04-13 10.0km</title><desc>1586775592000</desc></polyline><polyline fill="none" opacity="1" points="147.03006445174105,189.52062873967225 140.2844052000437,185.8013483104296 131.71559479949065,185.15762457088567 126.91463010711595,187.37489258724963 122.78215416893363,192.524647638842 121.50594836473465,196.31541388877667 121.87057859450579,202.6094682784751 125.0914789577946,207.83062696357956 128.98086807597429,211.33521717321128 129.7709002404008,216.91391424136236 140.4667203151621,216.62782835867256 141.4998392998241,215.76956996670924 141.4998392998241,210.97760677948827 146.36157569731586,205.4703822597512 148.1239551412873,201.8227147605503 148.5493570761755,193.1683641965501 147.57700979639776,190.16434822574956 150.85868186526932,185.58677380043082 149.58247606060468,187.30336792866 145.51077182753943,189.16300653171493 138.09662382118404,185.2291494618985 131.1078777499497,185.72982348152436 126.00305453245528,188.30471244262299 122.1136654142756,193.8836040799506 121.93135029939003,202.39489923010115 124.1799033835996,206.6147443819209 129.04163978085853,211.33521717321128 129.58858512551524,217.05695713625755 140.7098071349319,216.55630686873337 141.4998392998241,210.8345625679358 146.36157569731586,206.0425635689753 148.42781366640702,201.10748347628396 148.1239551412873,194.95646245253738 145.26768500776961,189.44910431368044 138.33971064141952,185.2291494618985 131.47250797972083,185.44372408825438 125.03070725314319,189.16300653171493 122.47829564404674,193.38293624290964 121.50594836473465,197.2452211548225 122.53906734916382,204.25449533219216 124.11913167848252,207.18692469917005 128.79855296108872,211.26369510998484 129.52781342086382,217.05695713625755 140.7098071349319,216.62782835867256 141.62138270959258,210.69151832500938 145.63231523777358,207.1154021867551 147.8200966164004,203.3246979357791 148.48858537105843,197.53131543495692 146.90852104173973,191.52330952428747 143.32299044867977,187.51794188085478 137.12427654187195,185.2291494618985 130.6217041099444,185.8013483104296 125.63842430245131,188.66233511531027 123.20755610382184,191.59483372577233 121.32363324984908,197.53131543495692 121.50594836473465,200.96443712647306 123.63295803871006,206.6862669485854 128.85932466597296,211.4782612763811 129.4062700108625,216.98543569259346 140.89212224981748,216.69934984087013 141.68215441447683,210.8345625679358 146.48311910708435,206.0425635689753 148.3062702564057,202.03728399478132 148.42781366640702,195.81474789557979 146.90852104173973,191.4517853152356 141.07443736493587,186.44507142237853 134.2072347032372,185.15762457088567 126.97540181176737,187.37489258724963 122.53906734916382,192.73921989451628 121.4451766598504,195.81474789557979 121.62749177473597,201.75119166699005 124.36221849825233,207.47301467205398 128.61623784620315,211.33521717321128 129.52781342086382,217.20000000001164 141.25675247982144,216.55630686873337 141.31752418493852,211.1206509602489 146.90852104173973,205.1842914194567 148.42781366640702,199.67701858381042 147.03006445174105,192.31007531378418 144.47765284287743,188.59081059653545 141.0136656598188,185.94439794513164 133.96414788346738,184.87152492965106 126.73231499223039,187.51794188085478 122.53906734916382,192.81074396433542 121.262861544732,198.17502711171983 123.26832780893892,205.756472976238 128.9200963708572,211.26369510998484 129.4062700108625,217.05695713625755 141.13520907005295,216.55630686873337 141.31752418493852,211.19217303890036 147.15160786174238,205.1842914194567 148.670900485944,199.46244858275168 146.78697763197124,191.7378821054008 141.19598077470437,186.30202189611737 134.51109322812408,184.80000000004657 131.3509645697195,185.44372408825438 127.27926033665426,187.30336792866 124.24067508825101,190.0928238693159 122.05289370962419,193.81208012648858 121.14131813473068,198.03198012663051" stroke="#4DD2FF" stroke-dasharray="none" stroke-linecap="round" stroke-linejoin="round" stroke-width="0.5"><title>2020-04-12 10.0km</title><desc>1586649823000</desc></polyline><polyline fill="none" opacity="1" points="182.54704607021995,190.48063669342082 184.8709714752622,194.26770013273926 185.88396460074,200.50929338816786 182.7258095627185,207.59237689548172 178.4950735687744,211.23908274283167 177.95878309058025,217.0597437537508 166.51791955670342,216.84935932746157 165.92204124759883,210.88843884231756 160.559136466356,206.33005085535115 158.35438672290184,200.85994290973758 159.72490683360957,192.65469433902763 164.9686359532643,186.34289390878985 169.08019628562033,184.79999999998836 178.7334248921834,186.27276244712994 182.7258095627185,189.0078838178888 185.40726195345633,196.23135393636767 185.28808629186824,201.84176055918215 183.0237487172708,206.7508264753269 178.316310076043,211.0988252054085 177.89919525943696,216.98961561912438 166.45833172579296,216.91948747710558 165.8028655857779,211.02869642537553 161.03583911363967,206.89108495466644 158.89067720109597,203.4547434656415 158.17562323017046,197.28330888116034 161.57212959160097,189.9897194406367 165.8028655857779,186.41302536264993 172.83422963274643,184.79999999998836 181.53405294497497,187.8156528461841 184.8709714752622,194.7586141419015 185.58602544642054,199.8781237709918 183.50045136455446,205.76901626976905 178.19713441398926,211.37934024975402 178.25672224489972,216.98961561912438 166.33915606397204,216.91948747710558 165.8028655857779,211.02869642537553 160.2611973118037,206.4001801442937 158.59273804654367,203.10409534961218 158.17562323017046,197.56382991123246 159.06944069382735,193.35600169957615 165.02822378417477,186.55328824796015 169.4377232710831,184.87013162096264 177.42249261238612,186.20263097807765 182.54704607021995,189.42867069569184 185.34767412254587,195.8105714797275 185.4668497843668,200.08851371193305 183.3216878718231,206.33005085535115 178.4354857376311,211.23908274283167 178.13754658331163,216.98961561912438 166.33915606397204,216.98961561912438 165.68368992418982,211.02869642537553 160.91666345181875,206.96121418301482 158.8310893701855,203.10409534961218 158.47356238472275,195.67031060013687 161.57212959160097,189.9897194406367 165.20698727690615,186.62341967900284 167.88843966764398,185.57144741393859 174.62186455959454,185.22078961250372 181.4148772826884,187.8156528461841 185.22849846072495,195.1092667777557 185.40726195345633,200.3690335264546 182.96416088636033,206.96121418301482 178.4354857376311,210.95856763760094 178.13754658331163,216.77923117007595 166.39874389511533,217.20000000001164 165.62410209304653,210.88843884231756 160.61872429726645,206.54043869971065 158.8310893701855,203.17422498820815 158.11603539926,195.88070190831786 161.51254176115617,189.9897194406367 165.08781161508523,186.62341967900284 168.12679099128582,185.3610527557903 172.65546614001505,184.94026323454455 179.86559367948212,186.48315680911765 182.6066339011304,188.93775264534634 185.40726195345633,197.07291802891996 185.28808629186824,201.98202010191744 182.90457305521704,206.96121418301482 178.61424923036247,211.1689539779909 178.316310076043,217.0597437537508 166.39874389511533,217.0597437537508 165.62410209304653,211.0988252054085 161.2741904372815,207.73263519245666 158.59273804654367,203.6651322443504 158.4139745538123,195.53004969004542 161.09542694455013,190.2001125945826 166.21998040238395,185.99223652516957 171.94041216908954,184.79999999998836 174.9198037146125,185.22078961250372 179.92518151015975,187.04420810641022 182.48745823907666,189.07801498338813 185.16891063004732,195.38978874968598 185.22849846072495,201.98202010191744 182.96416088636033,206.68069722433574 178.37589790672064,211.30921150028007" stroke="#4DD2FF" stroke-dasharray="none" stroke-linecap="round" stroke-linejoin="round" stroke-width="0.5"><title>2020-04-08 10.0km</title><desc>1586343893000</desc></polyline><polyline fill="none" opacity="1" points="38.7258072393015,241.62089869746706 41.40725904935971,246.7404410438612 41.526434685103595,251.29890358448029 38.84498287527822,258.17160182248335 34.435484343674034,262.1689539781655 34.19713307148777,268.0597437537508 22.458332926267758,267.989615619299 21.743279110174626,261.748181229108 17.393368396675214,258.2417310202727 14.771504404721782,253.96383605030132 14.533153133001179,248.1430483207805 15.844085128745064,243.3741711822222 21.206988748395815,237.76368251867825 26.331541096093133,236.01039484044304 31.038978717988357,236.5013158689253 37.29569960734807,239.37670298904413 40.27509050699882,244.98717767506605 41.526434685103595,251.3690335266292 38.785395057173446,258.38198939315043 34.37589652556926,262.2390827429481 34.137545253382996,268.1298718805774 22.577508562244475,267.9194874771056 22.100806018337607,262.2390827429481 16.678314580582082,257.11966294277227 14.473565314896405,251.8599429097958 14.831092222826555,246.0391362660448 17.452956214547157,240.84945730003528 21.206988748395815,237.55328824784374 23.769264922244474,236.6415789515013 31.575269079767168,236.5013158689253 37.11693615349941,239.23644049890572 41.347671231022105,247.02096274256473 40.75179305113852,254.5248730664607 38.18951687752269,259.01315169548616 34.37589652556926,262.3092115003383 34.37589652556926,267.989615619299 22.696684198454022,268.1298718805774 21.98163038236089,262.2390827429481 16.14202421857044,256.3482400117791 14.235214042942971,249.3352621172089 15.784497310873121,243.58456356136594 21.0878131124191,237.34289390884805 27.880824363790452,235.79999999998836 35.92517979326658,238.25460221763933 38.54704378498718,240.919588374265 41.58602250297554,248.1430483207805 40.6326174151618,254.5248730664607 37.77240215125494,259.2936680766288 34.614247797755525,262.1689539781655 34.256720889825374,267.989615619299 22.458332926267758,268.0597437537508 21.862454746384174,262.0988252055831 16.380375490756705,257.33005085552577 14.294801860814914,251.29890358448029 15.188619130989537,245.05730830086395 21.26657656626776,237.27276244742097 27.880824363790452,236.01039484044304 36.1039432475809,237.90394532762002 39.440861055161804,242.53260098194005 41.705198139185086,248.70409038086655 41.7647859568242,251.93007279140875 40.21550268935971,256.2079811983276 34.435484343674034,262.0988252055831 34.435484343674034,267.989615619299 22.875447652535513,268.20000000001164 21.80286692851223,262.519597726583 16.380375490756705,257.18979225488147 14.354389678919688,252.28072208480444 14.533153133001179,246.45991922402754 17.274192760698497,241.55076769925654 21.862454746384174,237.34289390884805 26.927419276209548,236.15065802948084 30.979390899883583,236.4311843162286 37.17652397137135,239.0260467067128 40.51344177918509,244.91704704141011 41.28808341315016,252.84176055935677 39.67921232734807,257.18979225488147 34.55465997965075,262.02869642549194 34.37589652556926,267.70910300523974 23.232974560465664,268.20000000001164 22.458332926267758,267.7792311703088 21.80286692851223,262.3092115003383 17.750895304838195,259.01315169548616 14.771504404721782,253.75344704388408 14.294801860814914,248.56382991134888 15.546146038919687,244.0053481144132 21.206988748395815,237.34289390884805 24.126791830174625,236.15065802948084 31.396505625685677,236.5013158689253 35.80600415752269,238.18447085493244 39.67921232734807,242.6728627581033 41.40725904935971,248.42356941156322 40.81138086901046,254.31448424246628 37.891577787231654,259.0832808021223 34.495072161313146,262.1689539781655" stroke="#4DD2FF" stroke-dasharray="none" stroke-linecap="round" stroke-linejoin="round" stroke-width="0.5"><title>2020-04-07 10.0km</title><desc>1586257895000</desc></polyline><polyline fill="none" opacity="1" points="74.69601333048195,241.69102968811058 77.55622859415598,248.1430483207805 77.19870168622583,253.61318766820477 74.57683769403957,258.6625060479273 70.70362952444702,261.8884388426668 70.40569043462165,268.0597437537508 58.78606592537835,267.7792311703088 58.01142429141328,262.2390827429481 53.54233794170432,258.5222477358184 51.03964958596043,253.4729282623739 50.68212267779745,248.07291802909458 53.78068921389058,240.70919512904948 57.83266083756462,236.7818420038675 61.34834209899418,235.87013162125368 67.24753608065657,236.4311843162286 73.02755442610942,239.0260467067128 77.37746514007449,247.86252710857661 76.66241132421419,254.94565050961683 73.98095951415598,259.01315169548616 70.64404170680791,261.958567637892 70.70362952444702,267.7792311703088 58.96482937922701,268.1298718805774 57.89224865543656,262.2390827429481 52.41016939980909,256.6988869126071 50.741710496135056,252.28072208480444 51.15882522193715,245.82874468440423 53.89986484963447,240.70919512904948 60.45452482928522,236.5013158689253 66.17495535686612,236.15065802948084 73.32549351640046,238.8156528463005 76.9603504142724,247.16122354596155 76.2452965984121,255.36642767931335 73.56384478812106,259.71444242075086 70.70362952444702,262.0988252055831 70.34610261651687,267.6389748327201 59.1435928333085,268.20000000001164 58.24977556336671,262.519597726583 53.4231623057276,258.4521185682388 51.03964958596043,253.3326688258676 51.15882522193715,245.82874468440423 53.4231623057276,241.41050568036735 57.89224865543656,237.27276244742097 62.420922823250294,235.87013162125368 66.83042135485448,236.01039484044304 73.92137169628404,240.07801498362096 76.78158696019091,245.2677001329721 76.9603504142724,253.54305796907283 74.21931078657508,258.59237689565634 70.46527825272642,262.1689539781655 70.34610261651687,267.70910300523974 59.08400501520373,268.0597437537508 58.19018774549477,262.2390827429481 52.767696307972074,257.4703094260185 50.80129831377417,252.63137118838495 50.920473949750885,246.88070190849248 53.840277031762525,240.919588374265 58.488126835320145,236.8519735186128 65.93660408491269,235.79999999998836 73.08714224421419,239.37670298904413 76.06653314409778,243.16377873480087 77.13911386788823,246.7404410438612 77.4370529584121,251.64955321978778 76.4836478701327,255.15603912860388 73.92137169628404,259.1534099013079 70.46527825272642,262.1689539781655 70.40569043462165,267.84935932746157 59.20318065141328,268.0597437537508 58.24977556336671,262.7299838847248 52.9464597615879,257.4703094260185 50.741710496135056,252.2105922412593 51.099237403832376,245.9690057465341 53.54233794170432,241.12998155102832 57.05801920336671,237.76368251867825 60.3353491933085,236.5013158689253 67.84341426077299,236.22078961262014 71.83579806657508,237.48315680917585 75.05354023794644,241.62089869746706 77.19870168622583,246.45991922402754 77.07952605001628,254.31448424246628 73.80219606030732,259.50405528291594 70.64404170680791,262.44946899230126 70.10775134479627,267.84935932746157 59.024417197331786,268.20000000001164 58.01142429141328,262.3092115003383 53.482750123599544,258.2417310202727 51.099237403832376,253.75344704388408 50.44377140607685,249.5456525592017 52.112230309983715,243.58456356136594 57.59430956537835,237.48315680917585 62.301747187040746,236.08052643877454 66.41330662881956,236.22078961262014 72.1933249742724,238.04420810641022 75.17271587438881,241.41050568036735 77.49664077605121,248.21317860489944 77.49664077605121,252.0002026653383 75.94735750812106,256.7690162700601 70.52486607036553,262.44946899230126" stroke="#4DD2FF" stroke-dasharray="none" stroke-linecap="round" stroke-linejoin="round" stroke-width="0.5"><title>2020-04-02 10.0km</title><desc>1585825459000</desc></polyline><polyline fill="none" opacity="1" points="115.86199239850976,236.84294392884476 108.2411468885839,241.64046417502686 110.78142872522585,246.36842006095685 111.37219194299541,251.30492507386953 109.36359700234607,257.14524817606434 104.40118597284891,262.42930424475344 103.69227011152543,268.1304738537874 92.34961632918566,267.8523691939772 91.52254782430828,262.15119711501757 86.50106047303416,257.63193936937023 84.61061817593873,253.18217758013634 84.49246553238481,248.03710205934476 85.67399196815677,243.795860148035 89.15949495299719,239.48506096418714 95.1852797747124,236.28670737764332 101.50644620531239,236.7038848362281 105.11010183417238,238.0249449996627 107.70945999259129,240.24988228676375 110.60419975966215,246.92464787559584 110.95865769078955,252.76501083088806 109.00913907168433,257.7709939284832 104.04672804218717,262.22072390886024 103.8694990768563,268.20000000001164 92.29054000717588,268.0609477001126 91.75885311118327,262.3597774737282 87.44628162123263,258.95295646280283 85.20138139370829,255.47658985469025 84.25616024504416,247.6199319663574 87.26905265590176,241.15376085683238 94.83082184405066,236.3562369729625 100.79753034398891,236.5648257136927 105.34640712128021,238.09447440650547 108.0639179230202,240.66705716965953 110.60419975966215,246.78559096727986 111.07681033411063,251.93067651917227 108.5956048190128,258.11863019369775 104.28303332906216,262.15119711501757 104.04672804218717,268.1304738537874 92.23146368586458,267.8523691939772 91.75885311118327,262.568357764394 86.02844989858568,256.8671387571958 84.25616024504416,249.42766707763076 85.79214461147785,243.44821612571832 91.58162414608523,237.67729785171105 97.37110368069261,236.14764816465322 105.70086505194195,238.37259195913794 110.07251286390238,244.56067633419298 111.19496297766455,251.30492507386953 109.83620757656172,256.380446983967 104.04672804218717,262.3597774737282 103.98765172017738,268.0609477001126 92.40869265119545,268.0609477001126 91.4043951809872,262.22072390886024 87.44628162123263,258.81390215997817 84.9059997848235,255.05942459654761 84.25616024504416,248.38474359625252 87.50535794324242,241.15376085683238 94.4172875918448,235.79999999998836 100.02953816088848,236.42576656065648 107.47315470525064,240.5975280411658 110.89958136877976,246.85511942516314 111.13588665588759,252.13926019903738 108.18207056680694,258.81390215997817 104.22395700751804,262.15119711501757 103.81042275484651,267.9914215389872 92.46776897297241,268.1304738537874 91.58162414608523,262.0816703137825 87.44628162123263,258.8834293149994 85.3195340372622,255.82422736269655 84.31523656705394,248.31521530391183 86.91459472547285,241.9185801910935 91.87700575497001,237.1210620237398 96.18957724492066,236.14764816465322 102.27443838864565,237.1210620237398 105.2282544777263,238.0249449996627 107.6503836705815,240.66705716965953 110.89958136877976,247.13323318195762 111.2540392994415,252.41737166623352 108.41837585391477,258.39673907053657 104.28303332906216,262.42930424475344 103.81042275484651,268.0609477001126 92.34961632918566,268.0609477001126 91.75885311118327,262.3597774737282 87.32812897791155,258.39673907053657 84.43338921037503,252.55642735474976 84.13800760172307,248.45427188120084 85.61491564614698,243.72633135860087 91.10901357186958,237.60776839964092 96.60311149759218,236.07811854669126 103.39688850240782,237.5382389400038 107.70945999259129,240.8756445090985 110.95865769078955,247.48087520845002 111.07681033411063,252.97359423938906 108.12299424479716,258.74437499721535 104.34210965107195,262.0816703137825" stroke="#4DD2FF" stroke-dasharray="none" stroke-linecap="round" stroke-linejoin="round" stroke-width="0.5"><title>2020-03-23 10.0km</title><desc>1584960411000</desc></polyline><polyline fill="none" opacity="1" points="147.84582788532134,235.80000000001746 147.77909082674887,247.66069959840388 146.37761259824038,247.3465138839092 145.71024201309774,249.27089711188455 142.3733890876174,250.37054008472478 137.7017949919682,253.0803603172244 139.17001027916558,256.06506640897715 139.370221454883,259.285379635985 138.26905998925213,262.23076303186826 135.26589235651772,264.97976594787906 135.33262941497378,267.885832083266 128.85913473949768,268.0821870630607 128.3586068006698,264.82268062850926 126.12291534070391,262.93765148648527 124.521225936478,260.14936124527594 124.15417211467866,257.83231501383125 124.521225936478,255.240347445535 125.88933563581668,252.96254246740136 129.69334797083866,249.8992649333377 132.93009530869313,249.97781083444715 136.36705382179935,251.0774516632664 137.63505793351214,252.2556345644407 139.30348439631052,255.7901602963102 139.43695851322263,258.6177560733049 138.16895440162625,262.27003464876907 135.4661035320023,264.6655952409783 135.09904971020296,267.9643740878673 128.82576621021144,268.20000000001164 128.29186974221375,264.8619519647036 126.02280975296162,262.8591083929059 124.58796299493406,260.14936124527594 124.35438329027966,256.1436109743663 125.92270416521933,253.15890552909696 129.5265053246403,249.9385378860461 133.7643085399177,250.09562965418445 136.86758176062722,251.43090693553677 139.00316763296723,254.9261682993092 139.43695851322263,258.8926600421546 138.16895440162625,262.27003464876907 135.43273500271607,264.90122329679434 135.33262941497378,268.0036450839252 128.75902915175539,268.0821870630607 128.3252382716164,264.78340928797843 126.05617828224786,262.6234790101298 124.521225936478,260.14936124527594 124.38775181944948,256.2614277905668 125.7892300481908,253.04108770482708 130.1605073803803,249.8992649333377 135.36599794426002,250.48835877687088 137.66842646279838,252.2556345644407 139.03653616213705,254.9261682993092 139.43695851322263,258.7355720853375 138.26905998925213,262.11294815535075 135.4661035320023,264.90122329679434 135.36599794426002,268.04291607558844 128.75902915175539,268.16072902534506 128.29186974221375,264.6655952409783 125.7892300481908,262.38784947418026 124.65470005350653,260.38499223600957 124.42112034873571,255.75088797751232 125.95607269438915,252.96254246740136 129.55987385381013,250.17417551277322 133.23041207192,250.17417551277322 136.63400205573998,251.3130885498249 137.7017949919682,252.17708915667026 139.27011586690787,255.90797722732532 139.5036955716787,258.931932020525 138.0021117553115,262.38784947418026 135.4661035320023,264.94049462437397 135.33262941497378,268.04291607558844 128.72566062258556,268.04291607558844 128.29186974221375,264.74413794325665 124.78817417053506,260.5813512777968 124.32101476099342,258.85338805930223 124.45448887790553,255.55452631946537 126.12291534070391,252.76617929927306 129.99366473418195,250.33126717884443 134.59852177125867,250.60617743071634 137.8019005797105,252.294907261763 139.10327322070953,254.80835104931612 139.47032704250887,259.0104759649839 138.06884881376754,262.6234790101298 135.53284059045836,264.78340928797843 135.53284059045836,268.0036450839252 128.6589235640131,268.04291607558844 128.42534385924228,264.78340928797843 125.28870210924651,261.64168826665264 124.28764623170719,259.0890198922425 124.42112034873571,255.43670927363564 125.95607269438915,252.76617929927306" stroke="#4DD2FF" stroke-dasharray="none" stroke-linecap="round" stroke-linejoin="round" stroke-width="0.5"><title>2019-12-13 10.0km</title><desc>1576239112000</desc></polyline><polyline fill="none" opacity="1" points="179.90766603779048,238.22892874239187 179.7823006006074,238.7056277733427 179.3579868132365,238.67157791445788 179.23262137605343,239.26177390159137 178.52864622877678,239.38662262672733 176.87960855505662,240.36270753142162 177.3135658375686,241.3160840092023 177.36178331350675,242.19000482703268 177.14962641970487,242.80288001355802 176.24313787394203,243.73353547941952 176.1949203981203,244.16481203900184 176.3685033111833,248.92008589961915 177.39071379892994,249.30594591289992 177.99825399456313,249.72585078371048 179.51228273590095,249.90743074732745 179.6665786585654,250.13440525947226 179.94624001847114,261.9137077740743 180.17768390249694,264.0016155883859 180.11017943639308,267.85959671583987 179.68586564896395,268.018451719312 174.7580396180274,267.9617178171029 172.84862757480005,268.1999999999971 171.72998213529354,268.07518559078744 171.45996427058708,265.953317901236 171.24780737690162,256.364663695349 167.62185319373384,255.84265261276596 167.44827028067084,255.61569046164368 166.75393862859346,255.51355733332457 166.53213823965052,254.73053337661986 166.73465163825313,254.36738984607655 166.6285731914104,254.12907622036437 165.71244115044829,253.33469355472334 164.8734570708475,253.58435732695943 164.42021279793698,253.43682880615233 164.0151860008482,252.85806106548262 163.82231609750306,252.063668766692 163.85124658298446,246.30981908628019 164.09233396215132,244.80037425998307 164.34306483657565,244.21020946833596 164.28520386555465,243.57464366793283 165.4520667808829,235.8227005292938 166.95645202707965,235.79999999999563 170.1870229084161,236.06105578997813 170.35096232627984,236.19725855257275" stroke="#4DD2FF" stroke-dasharray="none" stroke-linecap="round" stroke-linejoin="round" stroke-width="0.5"><title>2019-11-23 10.0km</title><desc>1574497580000</desc></polyline></svg>