<?xml version="1.0" encoding="utf-8" ?>
<svg baseProfile="full" height="300mm" version="1.1" viewBox="0,0,200,300" width="200mm" xmlns="http://www.w3.org/2000/svg" xmlns:ev="http://www.w3.org/2001/xml-events" xmlns:xlink="http://www.w3.org/1999/xlink"><defs /><rect fill="#222222" height="300" width="200" x="0" y="0" /><text fill="#FFFFFF" style="font-size:12px; font-family:Arial; font-weight:bold;" x="10" y="20">Over 10km Runs</text><text fill="#FFFFFF" style="font-size:4px; font-family:Arial" x="10" y="280">Runner</text><text fill="#FFFFFF" style="font-size:9px; font-family:Arial" x="10" y="290">Floyd Li</text><text fill="#FFFFFF" style="font-size:4px; font-family:Arial" x="65" y="280">SPECIAL TRACKS</text><rect fill="yellow" height="2.6" width="2.6" x="65" y="283" /><text fill="#FFFFFF" style="font-size:3px; font-family:Arial" x="70" y="285.5">Over 20.0 km</text><rect fill="red" height="2.6" width="2.6" x="65" y="287" /><text fill="#FFFFFF" style="font-size:3px; font-family:Arial" x="70" y="289.5">Over 40.0 km</text><text fill="#FFFFFF" style="font-size:4px; font-family:Arial" x="120" y="280">STATISTICS</text><text fill="#FFFFFF" style="font-size:3px; font-family:Arial" x="120" y="285">Number: 37</text><text fill="#FFFFFF" style="font-size:3px; font-family:Arial" x="120" y="290">Weekly: 1.9</text><text fill="#FFFFFF" style="font-size:3px; font-family:Arial" x="141" y="285">Total: 607.1 km</text><text fill="#FFFFFF" style="font-size:3px; font-family:Arial" x="141" y="290">Avg: 16.4 km</text><text fill="#FFFFFF" style="font-size:3px; font-family:Arial" x="167" y="285">Min: 10.0 km</text><text fill="#FFFFFF" style="font-size:3px; font-family:Arial" x="167" y="290">Max: 62.1 km</text><polyline fill="none" opacity="1" points="29.232648465258535,31.696055570369936 31.33761496504303,31.696055570369936 32.18565902247792,32.070342828839784 33.03370307991281,32.854560990512255 33.684879766835365,34.24475672765402 33.51829968416132,36.31220558912901 31.913073432573583,38.39745097310515 32.079653515305836,45.9896596394683 32.367382749100216,46.346092753025005 35.184100511309225,47.75399600484525 36.92561955784913,47.878746344998945 37.27392336714547,48.1104252973164 37.53136531315977,56.32590654987143 37.364785230427515,57.57334072922822 36.89533227006905,57.840646823489806 34.108901795581914,58.25051532492216 29.49009041127283,58.48217967862729 25.234726480208337,58.21487462615187 19.510429092450067,57.35949554129911 12.786651208414696,57.323854649599525 12.483778330788482,50.7479780712747 12.650358413520735,48.627246400370495 25.431593850662466,48.217353934567655 26.688516292953864,47.7361745199305 28.97520651924424,46.31044947639748 28.778339148848318,38.70043314655777 27.067107390030287,36.38349646590359 26.839952731796075,34.6368610940699 27.339692979934625,33.15755337008159 28.324029832263477,32.15945871725853 29.49009041127283,31.606939431032515 30.565289126941934,31.571292961700237 31.352758608874865,31.71387879247777 32.639968339004554,32.426806092931656 33.472868752491195,33.620952400931856 33.71516705467366,34.42298610098078 33.66973612306174,35.88445968004817 33.336575957539026,36.72212770860642 31.882786144851707,38.433095963686355 32.079653515305836,46.06094632393797 35.168956867360976,47.75399600484525 37.228492435475346,48.074782402807614 37.42535980598768,57.44859773671487 36.91047591395909,57.840646823489806 35.53240432054736,58.07231175406196 29.883825152239297,58.48217967862729 25.492168426222634,58.25051532492216 19.31356172193773,57.35949554129911 12.786651208414696,57.35949554129911 12.574640194012318,48.64506778874784 25.371019275160506,48.18171106319642 26.067626893811394,48.00349659060885 28.899488299852237,46.346092753025005 28.763195504900068,38.59349832549924 27.051963746198453,36.4369646031555 26.839952731796075,34.45863195248239 27.385123911546543,33.086261095668306 28.414891695661936,32.03469645995938 30.565289126941934,31.5 32.48853190016234,32.26639771966438 32.988272148300894,32.76544547852245 33.66973612306174,34.20911082983366 33.503156040329486,36.31220558912901 31.97364800813375,38.36180597492785 32.10994080308592,46.132232977543026 34.92665856529493,47.64706706654397 36.97105048946105,47.89656781447411 37.289067010977305,48.252996798211825 37.53136531315977,57.05654771615809 37.304210654925555,57.626801982783945 34.684360263170674,58.17923391969816 30.322990824875887,58.5 25.446737494552508,58.232694976526545 19.616434599622153,57.37731598423852 12.801794852304738,57.35949554129911 12.468634686840232,50.837083845821326 12.635214769630693,48.662889175189775 25.143864616926294,48.252996798211825 26.415930703049526,47.89656781447411 28.899488299852237,46.38173602192546 28.914631943800487,39.93017859378597 28.58147177833598,38.183580867844285 27.65770950150909,37.274629819134134 26.8853836634662,35.88445968004817 26.855096375686117,34.351694374825456 27.15796925337054,33.44272215888486 28.732908217178192,31.89211090716708 31.004454799578525,31.589116197326803 32.88226664112881,32.6763299183076 33.563730615831446,33.95958932887879 33.74545434245374,34.92202731911675 33.42743782087928,36.5260781266843 31.988791652023792,38.21922590468603 31.807067925459705,39.68066576792626 28.92977558763232,39.71631048050767 28.64204635383794,38.272693445454934 27.491129418776836,37.18551670099259 26.8853836634662,35.84881413742551 26.87024001957616,34.369517309227376 27.900007803633343,32.480275515888934 29.247792109206785,31.660409120406257 31.277040389482863,31.660409120406257 32.86712299718056,32.65850680049334 33.71516705467366,34.56556946056662 33.700023410783615,36.04486452626588 32.912553928850684,37.32809766684659 32.00393529585563,38.11229077099415 31.89792978874175,39.59155395271955 28.97520651924424,39.71631048050767 28.64204635383794,38.20140338721103 27.14282560942229,36.57954621767567 26.8096654440742,34.868558689558995 27.188256541150622,33.44272215888486" stroke="#ffc500" stroke-dasharray="none" stroke-linecap="round" stroke-linejoin="round" stroke-width="0.5"><title>2026-06-10 21.8km</title><desc>1781089369000</desc></polyline><polyline fill="none" opacity="1" points="76.0,47.124102773064806 75.94238463588408,48.23466544240364 73.45772205918911,51.235649051654036 73.13363563615712,52.066409478014975 73.0256068284798,52.78695984635851 60.789543878345285,52.73609768510505 55.6545745532203,53.15994801837223 55.20805548148928,51.59169031465717 54.73272872765665,50.56594799960294 53.95492131233914,49.446941043155675 52.98266204324318,48.395738108047226 52.26967191253789,47.183446215232834 52.04641237662872,45.818535653896106 52.334489197150106,44.64859335724759 52.10402774074464,44.657071262925456 51.99599893306731,44.54685841743776 52.03921045616153,43.877100093566696 50.39717257939628,42.34256889084645 50.55561483063502,41.774530367794796 51.32622032542713,40.40952540484432 51.383835689513944,39.9516923172996 50.346759135776665,39.26493765998748 49.0,38.900361749161675 50.260336089646444,39.239502186494065 51.27580688186572,39.84147284033679 51.585489463876,40.1636524132482 52.010402774089016,40.053433235043485 52.680181381700095,40.087346844877175 52.55054681247566,39.33276554890472 52.21925846894737,39.14623871285585 52.075220058701234,38.85796909106284 52.14003734331345,37.908367526535585 52.334489197150106,37.59465733268735 52.14003734331345,37.89988888920925 52.068018138204934,38.90884027801803 52.53614297148306,39.34972251190629 52.71619098429801,40.053433235043485 53.976527073886245,40.29082819506584 54.49506535078399,39.790602260109154 54.30061349691823,41.21496599751117 53.8108829021221,42.37648150798486 57.08055481463089,45.581157472668565 57.714323819673155,43.00386227234412 59.26273672981188,41.2404008284866 59.68044811949949,40.52822243441187 60.105361429741606,39.35820099207194 61.07762069883756,38.10337593163422 61.77620698855026,37.7133586351556 64.68578287545824,36.933318205949035 65.46359029077576,36.84005198162049 67.04081088292878,36.958754429659166 68.56041611096589,37.53530661387049 70.0944251800538,38.34077681184135 72.84555881569395,39.34124403086753 74.06988530274248,40.307784950346104 74.58842357961112,40.47735230093531" stroke="#4dd2ff" stroke-dasharray="none" stroke-linecap="round" stroke-linejoin="round" stroke-width="0.5"><title>2026-06-09 11.9km</title><desc>1781004096000</desc></polyline><polyline fill="none" opacity="1" points="108.73444592795568,47.06522385661083 95.85086782378494,47.09066634456394 94.87036048065056,47.192436213787005 93.70961281709606,47.633437454729574 92.60654205610626,48.3458188375007 91.6909212283208,49.236286468527396 90.65273698262172,48.99882942192198 89.07383177569136,48.37974159912119 87.934712950635,47.69280281706597 86.5,46.44612077319471 88.77823765020003,44.63118768433924 90.32830440587713,42.99431948853453 91.65487316422514,41.35741713025345 92.1307076101657,41.06056589265063 92.9021361815976,40.797639572483604 109.1958611482114,40.763713531472604 109.28958611484268,40.95030657538882 109.31121495328262,41.8154139784092 109.23190921227797,47.0737046868453 99.90267022696207,47.05674302546686 94.87036048065056,47.17547457807814 94.87757009349298,44.096876951014565 106.43457943928661,44.0544711813709 106.25433911883738,44.20713184484339 106.36248331109527,45.16549477783701 106.22550066758413,44.18168842155865 106.42016021363088,44.06295233715355 112.52670226970804,44.06295233715355 113.35580774370464,44.0799146459176 113.5,44.215612984102336" stroke="#4dd2ff" stroke-dasharray="none" stroke-linecap="round" stroke-linejoin="round" stroke-width="0.5"><title>2026-06-07 13.9km</title><desc>1780824448000</desc></polyline><polyline fill="none" opacity="1" points="128.9498530577912,39.785179803897336 128.97252414050308,39.93466054466262 129.24583663759404,40.77823424572489 129.43728133600962,41.54628526800843 129.6123524746945,42.09380989184865 129.72570788823214,42.32021234988679 130.09222372533986,42.852909309667666 130.16275598264474,43.03934836984081 130.1967626067053,43.23466276916588 130.20054112049547,43.382626376261214 130.17535102859256,43.56905825438753 130.00027988991496,44.069156682167886 129.94864020151726,44.3221581310263 129.9373046601686,44.758611679226306 130.07585016560188,46.03386439365113 130.30256099267717,47.02942616882228 130.28114941455715,47.17586974358619 130.18542706534936,47.42437648611758 130.16905350562593,47.607795250982235 130.24336427672097,48.390255911291206 130.3680552316073,48.75262810287677 130.39072631431918,48.87390972607136 130.33404860754672,49.950607043303535 130.38190978215425,50.11920311907397 130.43858748891944,50.21828932322296 130.7181975089843,50.47117774633534 130.80384382142802,50.61462700956781 130.8164388673831,50.77138428948638 130.73583057330688,51.11446946794695 130.75346363763674,51.24903933777114 130.80258431683615,51.37473528118153 130.55320240705623,51.58324013982565 130.2912254513285,51.86567785767147 130.04814106451522,52.08156875212353 129.68666324578953,52.605016187581896 129.48136399682699,52.94805569518303 129.42090777627163,53.017549727309415 129.2370201054291,53.150622427511735 129.1753043802819,53.24672968938012 129.1916779400126,53.28517240640758 129.32266641787282,53.33248637241104 129.59723841955565,53.34431483853041 129.61990950226755,53.36353607430192 129.6249475206423,53.481820011888885 129.64384008956404,53.501041055828864 129.83780379717064,53.58236056041187 129.97760880720307,53.57348936505332 130.14008489993284,53.4522491226935 130.56201893922116,53.22602972039658 130.54942389327334,53.19793685559944 130.33278910295485,53.15949389515572 130.31263702944125,53.09591491746687 130.34160563511978,52.99832800881359 130.5380883519174,53.01607113452792 130.5809115081429,52.83272440012388 130.61239912301244,52.81941688086954 130.71441899519414,52.829767174733206 130.7421280962808,52.85342496008161 130.71189998600312,53.08408623808373 130.72953305033298,53.12548657149455 131.218220833136,52.96727748382182 131.45248868778435,52.953970094543365 131.93235993842973,52.88003992002723 132.24723608713975,53.01311394849927 132.41349069366697,53.055993083840804 132.56589074963995,53.067821787346475 133.07095209218096,53.21420115272667 133.61631758175645,53.49512689131734 133.86318048234534,53.546875744706085 134.06973923589976,53.626716451518405 134.51938237626746,53.656286966265725 134.60125017492828,53.59566734273449 134.6264402668312,53.49956251493677 134.69949153333437,53.438942201851205 135.141577646129,53.242293984356365 135.16928674721566,53.254122527907384 135.01562718664354,52.94805569518303 134.91990483742848,52.88151852740884 134.80906843308185,52.86673244648409 134.812846946872,52.6552897530828 134.84559406633343,52.61388800659279 137.0988477865394,51.98841076750978 137.34948920091847,51.95735796595818 137.5988711106911,51.960315378647465 140.1468489060935,52.17029005646418 140.45668703642878,52.17324742343044 140.89751364463154,52.11114258373436 141.4441386387989,51.94109218482208 141.75397676913417,51.88046501318604 144.334701683998,51.7030180991851 144.66343238326226,51.63647491703068 144.97956803657144,51.51521762506309 145.2503615244641,51.356990041072095 145.516116993982,51.135172610429436 146.02243784111488,50.551036283460235 146.44437188038864,50.128076539559515 146.8008116807323,49.712498542357025 147.0728646732241,49.31317690541073 147.3877408219414,48.603243171481154 147.51117227223585,48.43462852894572 147.70135746605956,48.29559384886488 148.67369501329085,47.714295347492225 148.85758268414065,47.54123227213768 148.94070998740062,47.402188566555196 148.9936091803902,47.24243448965535 149.1019265755458,46.8208523263429 149.18379437420663,46.3460022118461 149.24551009935385,46.11226934572824 149.44325232075062,45.57082226316106 149.71530531324242,44.983490813011485 149.93445911274466,44.64765022568645 150.31608900498395,44.23190668619009 150.52390726313752,43.953750966804364 150.67126930073573,43.665232441362605 150.88412557727133,43.06006366492511 150.93198675187887,43.0704213007657 150.94836031160958,43.11925005034482 150.99118346783507,43.10297381974851 151.0,43.14292453317739 150.94584130241856,43.11925005034482 150.93198675187887,43.04822635727123 150.86397350375046,43.040828034812876 150.61837010775344,43.711099893658684 150.5541353734152,43.83094638562034 150.51257172178157,43.850180910520066 150.07300461818522,43.65783445086254 149.24551009935385,43.42553552451682 148.92937444604468,43.36930971682068 147.40663339086313,43.302726226172126 145.59924429724197,43.14144487919566 144.1508140131482,43.13404660688957 143.43667490786174,43.02159237778869 142.1066380557022,42.68570387527325 141.61039324531885,42.58952283690451 141.19223771982797,42.55696910228289 140.25138778746623,42.59840111478479 140.0259364649828,42.57472569435777 139.50828007650125,42.41787500427745 138.61781032793806,42.20183244474538 138.4918598684526,42.1352433001548 138.41880860194942,42.06717406342614 138.34323832625523,41.95027176172425 138.20217381163093,41.30655140586623 138.0056910948333,40.926224293251835 137.94271586509421,40.843350062950776 137.80039184587076,40.76935479220265 137.60013061529025,40.72495743853506 137.53715538555116,40.6361623009434 137.4704016420219,40.61544335296003 137.35074870551034,40.67464026433299 137.29155198955414,40.62580283085663 137.2109436954779,40.64948160814947 137.10766431869706,40.758995422504995 136.88221299622091,40.78859360091792 136.57489387507667,40.79599313556082 136.37589214908803,40.7397565723586 136.19074497364636,40.58880465965285 136.03582590848237,40.130019061628445 135.87586882492906,39.87694045133958 135.68820264029637,39.765939590433845 135.26500909642346,39.64309759249136 135.0105891682615,39.545415219948154 134.9715445258189,39.536534969832246 134.94005691094935,39.55577550449925 134.89471474553284,39.52617467077289 134.74735270793462,39.503974003622716 134.38335588001792,39.37224930743105 133.94504828100617,39.3293275044407 133.81783831692883,39.292325842524406 133.7724961515123,39.29972618287866 133.72589448150393,39.26716465550362 133.54074730606226,39.26864472660509 132.3354014087745,39.06883368600211 130.44110649811046,38.33468816987261 130.28744693753833,38.318406272217544 128.94103652563354,38.29768382911152 128.35662639362272,38.31100540326952 128.11983952978335,38.293243301520306 127.9535849232634,38.23403612983657 127.83645099594287,38.16446737703882 127.34902271773171,37.73520557663505 126.36786863834277,37.301489512988155 125.26202360405296,37.08092557892542 124.86150114288466,36.867759753329665 124.32495218548138,36.487309745364655 124.00251900919102,36.343713033733366 124.0,36.367399192670746 124.32999020385614,36.51543676044457 124.8866912347803,36.909208922977996 125.20030787890573,37.0750043506614 125.3262583383912,37.122374105252675 126.30993142697844,37.30741064361064 126.46107197835227,37.35477959666787 127.34776321313984,37.757409102183374 127.77725427998666,38.14522489385399 127.87801464757649,38.21479374409955 128.05182628166222,38.29176312533946 128.2659420627897,38.330247654245795 128.31254373279808,38.367251907291575 128.29113215468533,38.36281140218671 128.2722395857636,38.34356919682068 128.39441153146618,38.365771739085176 128.4725008163441,38.33320799815374 128.65009096422,38.33320799815374 128.6664645239507,38.278441532524084" stroke="red" stroke-dasharray="none" stroke-linecap="round" stroke-linejoin="round" stroke-width="0.5"><title>2026-06-06 62.1km</title><desc>1780699923000</desc></polyline><polyline fill="none" opacity="1" points="186.55350255739177,31.5 184.70015932695242,32.115685186276096 183.1756350567448,33.135958355880575 183.71370244625723,35.03576028109819 183.60907823161688,35.88010955869686 183.05606452573556,37.269758186797844 181.87530553224497,38.501082478498574 181.81552026665304,39.8203481460514 182.1293929105741,46.398926326597575 184.9841393380775,47.876431308919564 186.8823215175653,48.03473461710382 187.13640889601083,48.351340770575916 187.3606036416022,56.65323744984926 187.18124784511747,57.58541545619664 184.13219930476043,58.2185899195174 178.73657909355825,58.5 169.49975557421567,57.37435675338202 162.92337636952288,57.26882729913632 162.6393963583978,50.76104516115447 162.65434267476667,49.01972951251082 162.86359110398917,48.73830300902773 175.5679600222502,48.316162339557195 178.87109594099456,46.48687342791527 178.94582752283895,40.08419999363832 178.5572232970735,38.413131052977405 177.80990747833857,37.77987938311708 177.04764534323476,36.63650205876911 176.80850428133272,34.96539764320187 177.3166790380492,33.487775203975616 178.09388748952188,32.625822572328616 178.81131067546085,32.18604905894608 180.246157047397,31.887002389557892 181.11304339714115,32.01013932011847 182.4731581871747,32.69618622396956 183.56423928251024,34.56081188333337 183.36993716965662,36.68927349707519 181.83046658308012,38.624214394250885 182.02476869593374,46.135084736917634 182.21907080884557,46.45169459312456 184.95424670539796,47.84125277507701 186.86737520131283,48.052323864074424 187.13640889601083,48.316162339557195 187.27092574333074,57.44470968477253 186.70296572108055,57.831650262945914 184.8645688071265,58.148237323228386 179.63335807604017,58.482411884266185 175.43344317487208,58.23617806387483 169.42502399237128,57.37435675338202 162.92337636952288,57.30400379150524 162.72907425661106,48.77348134861677 175.26903369475622,48.351340770575916 176.68893375032349,47.85884204295871 178.93088120647008,46.3637474727293 178.7066864608205,38.67698518668476 177.2419474561466,36.97072087849665 176.80850428133272,35.66902265086537 177.18216219067108,33.71645574654394 177.6454979982227,33.03041315282462 178.79636435909197,32.18604905894608 179.94723071990302,31.922184379262035 181.2923991936259,32.06291226176836" stroke="#4dd2ff" stroke-dasharray="none" stroke-linecap="round" stroke-linejoin="round" stroke-width="0.5"><title>2026-06-05 14.5km</title><desc>1780659860000</desc></polyline><polyline fill="none" opacity="1" points="36.71229216156644,70.68772618377261 38.443883610510966,77.49185715004569 38.45991686463822,78.54876181558939 38.139251781540224,79.24706678798248 35.35748218532535,82.62527392389165 35.06888361048186,83.18200497853832 34.820368171087466,84.23884057880787 21.520783848012798,84.19166069157654 15.556413301674183,84.61627875627892 14.61045130644925,81.97417715800111 13.720605700742453,80.6059144655228 12.133313539176015,78.756366581576 11.668349168641726,77.7277744823441 11.5,76.78410131760756 11.580166270781774,75.89703921625915 11.908847981016152,75.00053110085719 13.42399049884989,73.04705512682267 14.009204275527736,72.00895826995111 14.931116389576346,66.46908663587965 15.083432304061716,66.28032840951346 32.086698337312555,65.9500005283262 35.96674584323773,65.38372124371381 36.680225653224625,67.48837398450269 36.77642517819186,71.06522311186563 38.5,77.98256448319444 38.3957838480128,78.756366581576 38.16330166277476,79.19988419600122 35.2692992874654,82.66301851465687 34.812351543980185,84.25771252652339 21.52880047506187,84.18222471107583 15.524346793361474,84.60684282179136 15.115498812374426,83.15369670570362 14.522268408589298,81.82319750241732 13.969121140165953,80.93618673913443 12.197446555830538,78.86960533620731 11.716448931139894,77.90707122733875 11.508016627107281,76.78410131760756" stroke="#4dd2ff" stroke-dasharray="none" stroke-linecap="round" stroke-linejoin="round" stroke-width="0.5"><title>2026-06-04 19.5km</title><desc>1780570902000</desc></polyline><polyline fill="none" opacity="1" points="53.3751054557506,72.63433589278429 55.11587948148372,72.60576369252522 61.917043116962304,84.2148380890867 61.79559376632096,84.205315275045 61.73891740269028,88.39525408193731 60.87257870149915,88.5 49.73972156015225,88.45238823447289 49.43204987185891,88.43334352109378 49.29440727448673,88.23337378187716 49.33489039132837,78.59619898437813 68.12715324602323,78.5676287175229 70.95287480406114,79.00570512488048 73.44663480375311,78.64381607523683 75.3007615567476,78.71047995923436 75.60033662163187,78.52001158546045 75.70559272548417,78.27240208404692 75.66510960864252,77.73908694837155 75.30885818015668,75.60579412378138 72.7098420765833,62.81447734050744 72.57219947918202,62.67160031907406 72.15927168703638,62.74780142601958 72.07020882991492,62.64302488699468 71.94875947927358,61.5" stroke="#4dd2ff" stroke-dasharray="none" stroke-linecap="round" stroke-linejoin="round" stroke-width="0.5"><title>2026-06-02 16.9km</title><desc>1780401150000</desc></polyline><polyline fill="none" opacity="1" points="90.51307966705645,84.66550798041135 89.71848989298451,82.19976648276497 88.85969084419776,80.79208968239254 87.14209274671157,78.77973370905238 86.71670630198787,77.91998060879996 86.5,76.78622729261406 86.65249702733126,75.6052185737135 86.9895957193221,74.83046816221031 88.52259215217782,72.89356200392649 89.06837098690448,71.7880889510052 89.92717003566213,66.49674168697675 90.07164090368315,66.27941162672505 107.08709869201994,65.94869092979934 110.92360285372706,65.33449201958138 111.59780023779604,66.99754367529385 111.75832342446665,70.87157501899492 113.5,77.93887637247099 113.451843043993,78.58132990008744 113.20303210458951,79.17653997228626 110.36979785969015,82.53042552174156 109.81599286562414,84.27817389462871 96.54072532698046,84.20259631139925 90.54518430438475,84.64661367467488" stroke="#4dd2ff" stroke-dasharray="none" stroke-linecap="round" stroke-linejoin="round" stroke-width="0.5"><title>2026-05-28 19.4km</title><desc>1779966212000</desc></polyline><polyline fill="none" opacity="1" points="149.33499454823323,87.87587560620159 146.0466541936621,88.35734320417396 141.72786617017118,88.5 138.0455311186961,88.28601475998585 131.8022305375198,87.37657438842871 125.21039618604118,87.3230777396675 124.95278426888399,80.68935862237413 125.10432069073431,78.67422436813649 138.1061456874595,78.17489525438577 141.45510061091045,76.39156463225663 141.2429496201803,68.5803489635291 139.7730463280459,66.86825218664308 139.27297613589326,65.45932586146228 139.28812977811322,64.81727948678599 140.04581188742304,62.83762073764228 141.10656684054993,61.963709752992145 142.45524099521572,61.55350503814407 144.6979800389381,62.07071951056423 145.45566214830615,62.83762073764228 146.09211512014735,64.05038748033985 146.22849789983593,64.95995667527313 145.95573234045878,66.40455624597962 144.410060837341,68.5268462087115 144.59190454363124,76.10622994063306 147.24379192647757,77.63989809536724 149.51683825452346,77.94306336552836 149.7592965294607,78.21056166986818 150.0472157310578,87.12692321199575 149.86537202482577,87.6440573719301 146.22849789983593,88.32167898592888 141.07625955616822,88.48216790729202 138.00007019215263,88.26818264406756 131.69615504227113,87.34090995785664 125.71046637825202,87.41223881136102 125.21039618604118,87.16258768897387 125.0437061220291,78.76339012193785 125.81654187355889,78.54939223159454 137.95460926560918,78.19272846312379 141.45510061091045,76.33806441523484 141.2732569046202,68.47334343648981 139.7730463280459,66.79691443459888 139.33359070465667,64.5497594250337 140.257962878095,62.62360214983346 141.48540789523395,61.78536000257009 142.3643191421288,61.589175053915824 143.5463032326661,61.66051506229269 144.72828732331982,62.12422436325869 145.25866479991237,62.534427656180924 146.03150055150036,63.92554425749404 146.21334425767418,65.38798749897978 145.92542505607707,66.51156311741215 144.410060837341,68.36633783992147 144.59190454363124,76.12406337332504 147.21348464197945,77.60423155635362 149.80475745612057,78.15706204374146 150.0169084467343,87.2160843899037 149.80475745612057,87.71538609413255 146.74372173420852,88.28601475998585 142.1067072249134,88.5 137.72730463277549,88.25035052627209 131.72646232665284,87.37657438842871 125.25585711270105,87.34090995785664 125.05885976419086,78.74555697504547 127.43798158760183,78.47805953967327 138.22737482498633,78.15706204374146 141.470254253014,76.26673076549196 141.22779597807676,68.45550917524088 139.56089533743216,66.31538379999984 139.34874434681842,65.58416792133357 139.42451255774358,64.08605695517326 140.51557479525218,62.37391344590287 141.16718140925514,61.91020484815817 142.98561847175006,61.5" stroke="#ffcd00" stroke-dasharray="none" stroke-linecap="round" stroke-linejoin="round" stroke-width="0.5"><title>2026-05-27 20.2km</title><desc>1779879632000</desc></polyline><polyline fill="none" opacity="1" points="161.5,72.7574185846388 162.110465116275,71.54598633892601 163.1656976744125,65.53992810001364 181.9244186046708,65.16004493979563 185.78779069765005,64.51321334901877 186.38081395352492,65.93007678617141 186.61627906977083,66.91570841144858 186.72093023257912,71.24825909261563 187.81104651163332,74.76959383011126 188.5,77.61325839231722 188.30813953492907,78.40372037958878 188.28197674424155,79.50214361683902 185.18604651166243,83.27980106575706 184.65406976744998,85.06592360004288 169.985465116275,84.99406874592387 163.75872093025828,85.48678665098123 163.610465116275,85.36360741496173" stroke="#4dd2ff" stroke-dasharray="none" stroke-linecap="round" stroke-linejoin="round" stroke-width="0.5"><title>2026-05-26 19.0km</title><desc>1779792854000</desc></polyline><polyline fill="none" opacity="1" points="28.91032013250515,99.24233158105926 28.805845930532087,100.50635066504765 29.14911830855999,102.96413738765114 30.059536354674492,104.77234244238934 31.716198700887617,106.66830282082083 33.28331173112383,109.16110593490885 34.31312886526575,111.91718878886604 34.6414763572393,114.05882597953314 24.522403647948522,118.48244619151228 22.47769426566083,115.56848768751661 18.194251983135473,111.30277946437127 16.209242144948803,107.68649463028123 15.552547160768881,105.22877937107114 15.34359875676455,102.29702752640878 15.985368854831904,98.3469787773065 17.194284620985854,95.50288418507262 18.761397651280276,93.72968889099138 21.194154069467913,92.1847108695365 23.835858891892713,91.5 26.298465082189068,91.62289703535498 28.283474920433946,92.816749109581 29.387916484614834,94.5021723894024 29.611789774615318,96.71426389737462 28.83569570252439,99.97967724234331 29.04464410658693,102.59547175045009 29.984911924693733,104.68456596291799 33.17883752915077,108.7748995062866 34.134030233253725,111.32033404878166 34.6116265853052,114.14659739319177 27.13425869832281,117.2010130474373 24.582103191991337,118.5 22.567243581695948,115.70892062154599 19.403167749289423,112.70714021974709 17.76143028907245,110.75858640753722 16.58236429496901,108.59935082608717 15.746570678835269,106.21186993762967 15.34359875676455,102.89391542608791 15.552547160768881,100.52390641637612 16.209242144948803,97.59206963660836 17.388308139052242,95.25709589432518 18.35842572915135,94.11593109951355 20.68670794548234,92.41294718443532 23.403037197887897,91.55267016938888 26.223840652150102,91.6053403217229 28.298399806488305,92.85186227297527 29.074493878521025,93.81747129179712 29.462540914595593,94.78307456869516 29.611789774615318,96.27535924842232 28.83569570252439,100.10256786039099 29.074493878521025,102.80613793132943 30.014761696686037,104.7196765603585 31.68634892895352,106.68585790607904 33.11913798504975,108.86267377526383 34.0146311452263,110.95168737835775 34.65640124329366,113.98860881441215 24.50747876195237,118.4122309385275 22.462769379664678,115.60359593240719 18.46289993118262,111.63631624315167 16.343566118972376,108.09025858041423 15.597321818815544,105.33411078779318 15.373448528756853,102.45502747803403 16.030143512878567,98.10119479119021 17.030110874969978,95.78378463328409 18.507674589171074,93.99303595100355 20.56730885745492,92.500730297048 22.895591073844116,91.65801045694388 25.970117590157315,91.55267016938888 27.910352770413738,92.500730297048 29.25359251059126,94.25638258398976 29.611789774615318,96.36314027314074 28.82077081652824,100.17279102899192 29.074493878521025,102.75347141169186 29.74611374863889,104.29834888954065 31.96992176293861,107.00184911656834 33.47733524913201,109.56486621939985 34.28327909327345,111.8996342690225 34.6414763572393,113.95350022053753 24.552253419940826,118.44733856880339 22.77619198570028,115.9195697948453" stroke="#ffbf00" stroke-dasharray="none" stroke-linecap="round" stroke-linejoin="round" stroke-width="0.5"><title>2026-05-24 23.2km</title><desc>1779623970000</desc></polyline><polyline fill="none" opacity="1" points="49.0,103.6992842642594 49.00484797701938,104.06754418677701 49.20684701939899,105.81572487185076 49.471869762994174,106.95451166895873 49.46378980128793,107.09495695225814 49.321582475458854,107.46694176396704 49.30057457505609,107.6700117981527 49.40561407709174,108.74605422024979 49.583373234389,109.27930667846704 49.513885563799704,110.7157821316614 49.54620541057375,110.86188999846672 49.627005027534324,111.0231765001281 50.0229231505873,111.39507858583602 50.111802729232295,111.55066795197672 50.13119463730254,111.76317804314021 50.031003112278995,112.17870378262342 50.090794828822254,112.48797002181345 50.207146277229185,112.64924168022662 50.41076131194859,112.77825794722048 53.89807277950604,114.07406027181241 54.15986353842163,114.14046046734256 54.686677040939685,114.19737472210727 55.252274359590956,114.14046046734256 58.022085228629294,113.35692226356332 58.40830739765079,113.28672465147793 58.86724922192661,113.28482741485095 62.104081876939745,113.55043856111843 62.61635144840693,113.55043856111843 63.16094086664816,113.45747511402078 63.79925784054649,113.2563688409773 64.18224802489567,113.17858183854696 67.57906392146833,112.93762968243391 67.94266219774727,112.85604671183137 68.39190806798433,112.67011202257709 68.68117069666914,112.48986734399477 69.02052908785845,112.19957468074426 69.61198228392459,111.51271945242843 70.16303567153227,110.95676458954404 70.72378501316416,110.30591465285761 70.99203974143893,109.89224246183585 71.37502992577356,109.0231197846042 71.54794110605144,108.77452006077874 71.74347617907188,108.61890623904947 73.03142207325436,107.85220348606526 73.28836485515058,107.61307651015886 73.37886042613536,107.46124817794771 73.45158008139697,107.2562778585052 73.6164112999686,106.61098538924307 73.72145080200426,105.9979356959866 73.790938472579,105.75119142061158 73.9654656451894,105.26908111409102 74.29351209000743,104.57436357639563 74.28866411299532,104.53829825813409 74.51490304045001,104.11120335877422 74.65226238926698,103.91568535599981 75.19038783814904,103.32722004330572 75.4101627962591,103.03298002770134 75.62508977734251,102.60015353907693 75.87718458222662,101.87875246186377 75.90142446731625,101.8616662892764 76.0,101.90153399955852 75.89657649029687,101.79711837685318 75.85132870480447,101.83318929820598 75.5329782140252,102.72354813756283 75.47157050514215,102.70456440935232 75.4101627962591,102.59255999713605 75.50873832893558,102.75771879687454 75.44571462772001,102.87162051665291 75.4101627962591,102.88490900273246 74.82517356954486,102.62483252781203 73.74892267177347,102.32298714091121 73.36754847976408,102.25844091628096 71.40734977255488,102.17491015740234 69.24353603064083,101.97557379391947 67.68733540818357,101.97557379391947 67.09749820444995,101.94330007561075 66.41716542973154,101.83318929820598 64.53776633947564,101.36616008579222 64.01903279866383,101.26743688062379 63.37101987071219,101.21807507085032 62.22528130236606,101.27503099294518 61.95702657409129,101.24465452404365 61.28638975341164,101.04151054369686 60.15196313142951,100.76431965636402 60.03561168302258,100.7111592623678 59.91118027291668,100.61433099019087 59.8077567632281,100.47003689246412 59.600909743829106,99.59285526654457 59.36659085468273,99.17133688783179 59.21953555182699,99.0156383620415 59.03046444816573,98.92069956188425 58.86886521426641,98.89601539011892 57.561527412013675,98.98905554951307 57.42093607852439,98.97956167818847 57.28519272204721,98.93209224488783 57.12682547282748,98.81816508361044 57.021785970791825,98.67765390432578 56.84725879818143,98.16306962161798 56.75191525017726,97.95989014216684 56.569308115875174,97.76620285110403 56.34145319606614,97.64467248406254 54.66890112520923,97.17183542967723 52.12532918362558,96.76355226834494 49.657708881968574,95.80262527789273" stroke="red" stroke-dasharray="none" stroke-linecap="round" stroke-linejoin="round" stroke-width="0.5"><title>2026-05-23 52.6km</title><desc>1779516240000</desc></polyline><polyline fill="none" opacity="1" points="108.60158564610174,96.05689494749822 107.87276638572803,97.3077852686838 107.0528447178076,98.00470576231601 106.9010073718382,98.70162331219763 107.15913085988723,106.20670269374386 110.46918500086758,107.81488957947295 112.0027421945706,107.86849553906359 112.29123315186007,108.15439369621163 112.56454037450021,116.99912324227626 112.32160062104231,117.66022540080303 109.77073320967611,118.17838470086281 106.08108570391778,118.46426499770314 99.84057078685146,118.17838470086281 93.4178510546335,117.28500558173982 87.90615539794089,117.42794656577462 87.69358311360702,117.07059387353365 87.435459625558,111.01334802483325 87.69358311360702,108.6011085750797 100.5086551088607,108.19013093099056 103.92499539192067,106.2960468208039 103.77315804595128,98.37996942423342 102.08776350633707,96.3428135713475 101.82964001834625,94.98469569506415 101.93592616042588,94.09119099513919 102.74066409375519,92.6258328116237 103.66687190387165,91.89314883900806 104.65381465229439,91.51787042208889 106.1721881114645,91.58935209111951 107.84239891654579,92.5186109701317 108.72305552283069,94.26989232226333 108.60158564610174,96.09263480255322 108.0094199970481,97.2184362745611 107.11357965617208,97.98683604286634 106.91619110642932,98.61227507292642 107.09839592158096,105.9208011621231 107.2957844712073,106.27817799928016 110.19587777816923,107.74341493958491 112.30641688639298,108.1007878294622 112.44307049771305,117.53515222256829 110.01367296313401,118.16051716588845 104.30458875669865,118.48213249980472 100.20498041703831,118.21411976509262 94.04038417281117,117.30287321150536 88.01244154007873,117.39221133136016 87.73913431738038,117.15993211916066 87.45064336014912,110.6202447416581 87.61766444070963,108.6011085750797 100.06832680566004,108.22586815805698 101.48041412269231,107.83275823458098 103.95536286110291,106.26030917576281 103.74279057676904,98.41570877608319 102.2699683214305,96.78956042912614 101.84482375287917,94.55581404300756 102.28515205607982,93.23342193065037 103.25691106996965,92.16120432842581 104.24385381833417,91.6429633225489 105.24598030140623,91.5 107.35651940962998,92.14333397599694 108.57121817697771,93.71591757821443 108.6471368498751,95.91393544976017 108.1005224045366,97.03973814107303 106.99210977938492,98.16553315051715 106.91619110642932,98.68375366822875 107.08321218693163,106.04588314316061 110.07440790149849,107.67194026877405 112.26086568267783,108.02931331342552 112.56454037450021,116.19507650744345 112.3975192939979,117.57088742597261 109.75554947502678,118.19625223395997 104.63863091770327,118.5 100.70604365848703,118.2677223468636 94.35924259928288,117.32074083932093 87.69358311360702,117.35647608920408 87.51137829851359,108.65471427925513 100.79714606603375,108.15439369621163 103.77315804595128,106.43899732349382 104.00091406487627,106.13522735728475 104.01609779946739,104.83079702834948 103.7883417806006,98.77310186882096 103.63650443468941,98.21914224509965 102.4218056673999,97.00399849121459 101.951109895017,96.05689494749822 101.84482375287917,94.60942431053263 102.04221230256371,93.76952811863157 102.80139903217787,92.55435159169429" stroke="#ffc300" stroke-dasharray="none" stroke-linecap="round" stroke-linejoin="round" stroke-width="0.5"><title>2026-05-17 22.3km</title><desc>1779013233000</desc></polyline><polyline fill="none" opacity="1" points="146.814189189201,103.34550131620563 146.55574324325426,103.57175467965499 146.0236486486392,104.62560683462289 145.44594594594673,105.22099465555948 142.44594594594673,101.91651132102561 140.29222972973366,101.56521229290229 139.98310810807743,101.42826460960714 139.84121621621307,101.24368241292905 139.85641891890555,100.38626026003112 139.76013513514772,100.31480781386199 138.50337837837287,100.2374008930019 134.8243243243196,100.33862530617625 134.55574324322515,100.2195377420212 133.9628378378111,99.73127604764522 132.95945945943822,99.42759891683454 132.685810810799,99.10605660760848 132.23986486485228,97.97468917446531 132.02195945946733,96.6765653902803 130.8006756756513,96.22400130979076 129.685810810799,96.31332346119598 127.19256756757386,96.87902706908062 124.6739864864503,96.53960559893312 124.53209459458594,96.61701769659703 124.40540540538495,96.85520808651927 124.02027027026634,98.10569079912239 124.07094594594673,98.33792018913664 125.06418918920099,99.75509379128926 127.94256756754476,100.31480781386199 128.8243243243196,101.04719101042429 129.00168918917188,101.72597653187404 129.5236486486392,102.97039501648032 129.64020270269248,103.79205311788246 130.32939189189347,106.70943616990553 130.36486486485228,107.2393116819112 130.87162162159802,109.82312629203079 131.25675675677485,110.48989757000163 131.63175675674574,110.72207496803458 133.24831081082812,111.28167802563985 134.9510135135206,112.37110178574585 136.59797297295881,112.46635093084478 137.26689189189347,112.99021829809863 137.79391891890555,113.04379536290435 138.64527027026634,113.44264521477817 141.63006756754476,113.79982174651377 141.81756756754476,113.65695141046672 141.91891891890555,113.41883336400497 142.25844594594673,112.24013394347276 142.435810810799,110.71612171359448 142.38513513511862,110.5018041269359 142.09121621621307,110.29939231057506 142.07094594594673,110.2041394348671 142.26858108106535,109.66238558537952 142.41047297295881,109.50164441170273 142.41554054053267,108.63244330749876 142.79560810810653,107.48936353152021 143.47972972970456,106.59631602112859 144.8986486486392,105.66753131542282 145.9375,104.75063880865491 146.59628378378693,103.5062603801598 146.83445945946733,103.33359321882017 147.18412162162713,103.45862811363622 146.85979729730752,103.32763916915428 146.58108108106535,103.51816844037967 146.02871621621307,104.61369901282887 145.42060810810653,105.20313311416976 142.49662162162713,101.946282322544 140.0388513513608,101.45803587395858 139.84628378375783,101.22581958699811 139.80574324325426,100.3207621879119 139.35979729727842,100.23144650998074 134.7736486486392,100.32671656131788 134.00337837834377,99.74318492073871 132.9746621621598,99.42759891683454 132.6503378378402,99.0524660409501 132.20945945943822,97.89132434261774 132.05236486485228,96.7122939756955 130.82094594594673,96.21804649454862 130.501689189201,96.18827240881728 129.31587837834377,96.36691668278581 127.1368243243196,96.86711757908415 124.60304054053267,96.54556037952352 124.44594594591763,96.74802253803864 124.0,98.18905530775373 125.04391891890555,99.76104822559864 127.97297297295881,100.33862530617625 128.81418918917188,101.02932812103973 128.96621621621307,101.6366631234705 129.52871621621307,103.04184403160616 129.60472972973366,103.69678903605018 130.30912162159802,106.60822341610401 130.8513513513317,109.76954610839311 130.95270270272158,110.07316646298932 131.30743243242614,110.51966395754062 131.65709459458594,110.71612171359448 133.23310810810653,111.28763121922748 134.95608108106535,112.35919563105926 135.28040540538495,112.43063252062711 136.60810810810653,112.45444479668004 137.27702702701208,112.99617130785191 137.67229729727842,113.0021243169831 138.75168918917188,113.47836297169488 141.39695945946733,113.81172759118635 141.685810810799,113.77601004944154 141.84290540538495,113.63909259254433 142.03547297295881,113.13904335003099 142.2989864864794,111.99605668295044 142.44594594594673,110.7577944812474 142.4003378378402,110.5018041269359 142.13175675671664,110.32915880061773 142.09121621621307,110.21604605329776 142.22297297295881,109.7397793172604 142.4256756756513,109.44806391669408 142.41047297295881,108.62053634825133 142.79560810810653,107.48936353152021 143.2618243243196,106.81064873852665 145.05574324322515,105.5603628458266 145.6739864864794,105.02451738316086 146.0135135135206,104.65537637788293 146.5760135135206,103.5538926056688 146.80405405405327,103.34550131620563 147.6249999999709,103.64915693361763 148.14189189189347,103.6848810142983 149.60641891890555,103.15497145014888 150.7618243243196,103.15497145014888 151.0,103.06566034947537" stroke="#ff8300" stroke-dasharray="none" stroke-linecap="round" stroke-linejoin="round" stroke-width="0.5"><title>2026-05-16 35.3km</title><desc>1778887035000</desc></polyline><polyline fill="none" opacity="0.5" points="181.94816498825094,98.26383369098767 182.1306113335886,106.08305293106241 185.0801605847082,107.69337249782984 186.96543948742328,107.87229592546646 187.3455360403168,108.21224990405608 187.5735939720762,116.78243756529992 187.46716693724738,117.46230816350726 186.85901245253626,117.85591617885802 182.89080443960847,118.41054406383773 179.39391615230124,118.5 175.5169313120423,118.26741446525557 168.7664165313472,117.33706905294093 162.73048327025026,117.28339511936065 162.4264060278656,111.4149398964073 162.57844464911614,108.62377220552298 175.34968882874819,108.15857300652715 176.6420171087957,107.65758778910094 178.92259642662248,106.26197810236772 178.78576166753192,98.69327409977268 178.60331532207783,98.10279324989824 177.78230676765088,97.36916258730344 177.05252138600918,96.22397650475614 176.79405573004624,94.8461639782181 177.18935614504153,93.3609765672445 178.58811145997606,91.89366986829555 179.60677022195887,91.53578820856637 180.70144829445053,91.5 182.4803001623368,92.21576269919751 183.63579368335195,94.04094354507106 183.68140526977368,95.63348682901415 183.17967781983316,96.90393169868912 181.9633688502945,98.15647341434669 181.84173795336392,99.57004480175965 178.9682080129278,99.64161771489307 178.63372304633958,98.12068663997343 177.44782180112088,96.97550576683716 176.82446345424978,95.36508173320908 176.9765020754421,93.91568668051332 177.69108359504025,92.64521883007546 179.34830456593772,91.60736460253247 181.41602981410688,91.64315278791764 182.40428085176973,92.16208060430654 183.0428430607426,92.82415855507134 183.7726284423843,94.70301396586001 183.34692030306906,96.5997415631573 181.99377657455625,98.084899857844 181.81133022916038,99.5163650965842 178.9682080129278,99.62372448948736 178.66413077054312,98.21015356136195 177.47822952538263,97.01129278923327 176.88527890265686,95.63348682901415 176.94609435118036,94.0588373751234 177.56945269805146,92.73468871682417 178.99861573718954,91.73262321738002 180.82307919143932,91.51789410524361 182.5411156108603,92.28733879853098 183.24049326835666,93.16414349869592 183.71181299397722,94.30935079221672 183.63579368335195,95.88399785832735 183.08845464710612,96.99339927898836 181.97857271245448,98.24594031638117 181.8569418155239,99.53425833363144 179.04422732361127,99.65951093834883 178.72494621906662,98.26383369098767 177.52384111168794,96.99339927898836 176.85487117845332,95.36508173320908 177.0981329723145,93.55780940127443 177.96475311310496,92.3410208527057 179.78921656729653,91.5 181.44643753831042,91.64315278791764 182.60193105932558,92.3410208527057 183.71181299397722,94.23777556899586 183.6662014076137,95.70506144758838 182.99723147443729,97.11865381007374 181.97857271245448,98.12068663997343 181.91775726393098,99.4984718576452 179.0138195992913,99.65951093834883 178.60331532207783,98.084899857844 177.6606758707785,97.22601476115233 176.96129821328213,95.95557236834429 176.82446345424978,94.52407627593493 177.3718024904956,92.82415855507134 177.44782180112088,93.003098086323 178.0559762857738,92.28733879853098 179.04422732361127,91.71472913537582 181.18797188228928,91.58947050693678 179.04422732361127,91.71472913537582 178.0559762857738,92.28733879853098 177.44782180112088,93.003098086323 177.3718024904956,92.82415855507134 176.82446345424978,94.52407627593493 176.96129821328213,95.95557236834429 177.6606758707785,97.22601476115233 178.60331532207783,98.084899857844 179.0138195992913,99.65951093834883 181.91775726393098,99.4984718576452 181.97857271245448,98.12068663997343 182.99723147443729,97.11865381007374 183.6662014076137,95.70506144758838 183.71181299397722,94.23777556899586 182.60193105932558,92.3410208527057 181.44643753831042,91.64315278791764 179.78921656729653,91.5 177.96475311310496,92.3410208527057 177.0981329723145,93.55780940127443" stroke="#4dd2ff" stroke-dasharray="1,0.5" stroke-linecap="round" stroke-linejoin="round" stroke-width="0.5"><title>2026-05-12 15.2km</title><desc>1778590468000</desc></polyline><polyline fill="none" opacity="1" points="31.948164988250937,128.26383369098767 32.130611333588604,136.0830529310624 35.08016058470821,137.69337249782984 36.96543948742328,137.87229592546646 37.3455360403168,138.21224990405608 37.573593972076196,146.78243756529992 37.467166937247384,147.46230816350726 36.85901245253626,147.85591617885802 32.89080443960847,148.41054406383773 29.393916152301244,148.5 25.51693131204229,148.26741446525557 18.766416531347204,147.33706905294093 12.73048327025026,147.28339511936065 12.426406027865596,141.4149398964073 12.578444649116136,138.62377220552298 25.349688828748185,138.15857300652715 26.6420171087957,137.65758778910094 28.922596426622476,136.26197810236772 28.785761667531915,128.69327409977268 28.603315322077833,128.10279324989824 27.78230676765088,127.36916258730344 27.052521386009175,126.22397650475614 26.79405573004624,124.8461639782181 27.18935614504153,123.3609765672445 28.588111459976062,121.89366986829555 29.606770221958868,121.53578820856637 30.70144829445053,121.5 32.48030016233679,122.21576269919751 33.63579368335195,124.04094354507106 33.68140526977368,125.63348682901415 33.17967781983316,126.90393169868912 31.9633688502945,128.1564734143467 31.841737953363918,129.57004480175965 28.96820801292779,129.64161771489307 28.633723046339583,128.12068663997343 27.44782180112088,126.97550576683716 26.82446345424978,125.36508173320908 26.976502075442113,123.91568668051332 27.691083595040254,122.64521883007546 29.348304565937724,121.60736460253247 31.416029814106878,121.64315278791764 32.40428085176973,122.16208060430654 33.0428430607426,122.82415855507134 33.7726284423843,124.70301396586001 33.346920303069055,126.5997415631573 31.99377657455625,128.084899857844 31.811330229160376,129.5163650965842 28.96820801292779,129.62372448948736 28.664130770543125,128.21015356136195 27.47822952538263,127.01129278923327 26.885278902656864,125.63348682901415 26.946094351180363,124.0588373751234 27.569452698051464,122.73468871682417 28.99861573718954,121.73262321738002 30.82307919143932,121.51789410524361 32.54111561086029,122.28733879853098 33.24049326835666,123.16414349869592 33.71181299397722,124.30935079221672 33.63579368335195,125.88399785832735 33.08845464710612,126.99339927898836 31.97857271245448,128.24594031638117 31.856941815523896,129.53425833363144 29.044227323611267,129.65951093834883 28.724946219066624,128.26383369098767 27.523841111687943,126.99339927898836 26.854871178453322,125.36508173320908 27.098132972314488,123.55780940127443 27.964753113104962,122.3410208527057 29.789216567296535,121.5 31.44643753831042,121.64315278791764 32.60193105932558,122.3410208527057 33.71181299397722,124.23777556899586 33.6662014076137,125.70506144758838 32.997231474437285,127.11865381007374 31.97857271245448,128.12068663997343 31.91775726393098,129.4984718576452 29.01381959929131,129.65951093834883 28.603315322077833,128.084899857844" stroke="#4dd2ff" stroke-dasharray="none" stroke-linecap="round" stroke-linejoin="round" stroke-width="0.5"><title>2026-05-11 15.3km</title><desc>1778503630000</desc></polyline><polyline fill="none" opacity="1" points="72.39625616557896,138.38251019758172 67.89795790845528,143.67656906787306 67.34816589928232,148.14706748182653 57.95172065147199,148.14706748182653 57.25198536692187,143.61774647497805 54.153157679131255,140.5589628687594 51.804046366829425,136.7354591351468 51.2042732660193,131.61780431837542 51.75406527519226,129.08837091072928 54.902874055085704,124.32359226088738 61.00056724785827,121.55882498860592 66.6484306147322,122.26472435361939 72.49621834885329,126.73539902450284 73.6957645509392,131.20603689190466 73.64578345906921,134.8531089471653 71.34665323863737,140.02955626504263 68.0479011835996,143.26481078437064 67.6480524498038,148.02942325809272 58.40155047713779,148.44117792946054 57.25198536692187,143.50010127038695 54.40306313754991,140.91190031799488 51.55414090817794,136.38251897180453 51.30423544952646,130.9119171105558 52.753687110263854,127.02952106791781 56.652212266111746,123.08827245316934 59.40117231197655,121.91177478566533 63.49962183483876,121.55882498860592 68.0978822754696,122.9117979654111 70.14710703701712,124.44124161952641 73.49584018369205,129.8530845787609 73.89568891772069,133.08839972061105 72.99602926615626,137.50016203528503 68.19784445874393,142.97069753333926 67.89795790845528,147.73531258752337 58.451531569007784,148.5 57.20200427505188,143.5589238757384 52.6037438348867,138.5589796580025 51.10431108251214,133.20604718098184 51.95398964220658,128.50012889504433 54.75293077994138,124.26476757170167 61.150510523235425,121.5 66.7483927984722,122.32354925922118 70.8468423213344,125.08831263816683 72.84608599101193,128.14718337962404 73.8457078258507,132.02957143238746 72.54619944049045,138.38251019758172 67.94793900032528,143.44127865834162 67.6480524498038,148.08824537304463 58.40155047713779,148.44117792946054 57.30196645879187,143.79421423445456 52.453800559742376,138.38251019758172 51.2042732660193,134.8531089471653 52.05395182548091,128.44130465830676 54.65296859643422,124.6765402610763 60.15088868839666,121.6764749463182 65.64880877989344,121.97059972962597 70.54695577104576,124.85301417519804 73.74574564234354,130.4413251291844 72.99602926615626,137.0883990689763 71.09674778021872,140.38249405828537 68.0479011835996,143.38245604006806 67.6480524498038,148.02942325809272 58.251607201993465,148.38235585269285 57.30196645879187,143.67656906787306 53.953233311884105,140.44131700141588 51.60412200004794,136.32369558914797 51.254254357656464,130.79426915338263 53.05357366031967,126.44127682188991 55.65259043104015,123.61769557185471 58.70143702765927,122.02942466718378" stroke="#4dd2ff" stroke-dasharray="none" stroke-linecap="round" stroke-linejoin="round" stroke-width="0.5"><title>2026-05-10 11.2km</title><desc>1778422578000</desc></polyline><polyline fill="none" opacity="1" points="110.7355795216281,148.5 89.78694868506864,148.22050412703538 89.2644204783719,121.5" stroke="#4dd2ff" stroke-dasharray="none" stroke-linecap="round" stroke-linejoin="round" stroke-width="0.5"><title>2026-05-10 11.3km</title><desc>1778397813000</desc></polyline><polyline fill="none" opacity="0.5" points="146.77652990398929,148.17313070909586 135.6669132525567,148.5 135.05588433681987,143.40081890305737 130.44539342657663,139.0860935592209 128.22347009624355,133.46382940706098 128.55675859586336,128.10301713866647 132.8339610064868,121.5 128.55675859586336,128.10301713866647 128.22347009624355,133.46382940706098 130.44539342657663,139.0860935592209 135.05588433681987,143.40081890305737 135.6669132525567,148.5 146.77652990398929,148.17313070909586 146.77652990398929,143.00857241923222 146.77652990398929,148.17313070909586 135.6669132525567,148.5 135.05588433681987,143.40081890305737 130.44539342657663,139.0860935592209 128.22347009624355,133.46382940706098 128.55675859586336,128.10301713866647 132.8339610064868,121.5 128.55675859586336,128.10301713866647 128.22347009624355,133.46382940706098 130.44539342657663,139.0860935592209 135.05588433681987,143.40081890305737 135.6669132525567,148.5 146.77652990398929,148.17313070909586 146.77652990398929,143.00857241923222 146.77652990398929,148.17313070909586 135.6669132525567,148.5 135.05588433681987,143.40081890305737 130.44539342657663,139.0860935592209 128.22347009624355,133.46382940706098 128.55675859586336,128.10301713866647 132.8339610064868,121.5 128.55675859586336,128.10301713866647 128.22347009624355,133.46382940706098 130.44539342657663,139.0860935592209 135.05588433681987,143.40081890305737 135.6669132525567,148.5 146.77652990398929,148.17313070909586 146.77652990398929,143.00857241923222 146.77652990398929,148.17313070909586 135.6669132525567,148.5 135.05588433681987,143.40081890305737 130.44539342657663,139.0860935592209 128.22347009624355,133.46382940706098 128.55675859586336,128.10301713866647 132.8339610064868,121.5 128.55675859586336,128.10301713866647 128.22347009624355,133.46382940706098 130.44539342657663,139.0860935592209 135.05588433681987,143.40081890305737 135.6669132525567,148.5 146.77652990398929,148.17313070909586 146.77652990398929,143.00857241923222 146.77652990398929,148.17313070909586 135.6669132525567,148.5 135.05588433681987,143.40081890305737 130.44539342657663,139.0860935592209 128.22347009624355,133.46382940706098 128.55675859586336,128.10301713866647 132.8339610064868,121.5 128.55675859586336,128.10301713866647 128.22347009624355,133.46382940706098 130.44539342657663,139.0860935592209 135.05588433681987,143.40081890305737 135.6669132525567,148.5 146.77652990398929,148.17313070909586 146.77652990398929,143.00857241923222 146.77652990398929,148.17313070909586 135.6669132525567,148.5 135.05588433681987,143.40081890305737 130.44539342657663,139.0860935592209 128.22347009624355,133.46382940706098 128.55675859586336,128.10301713866647 132.8339610064868,121.5 128.55675859586336,128.10301713866647 128.22347009624355,133.46382940706098 130.44539342657663,139.0860935592209 135.05588433681987,143.40081890305737 135.6669132525567,148.5 146.77652990398929,148.17313070909586 146.77652990398929,143.00857241923222 146.77652990398929,148.17313070909586 135.6669132525567,148.5 135.05588433681987,143.40081890305737 130.44539342657663,139.0860935592209 128.22347009624355,133.46382940706098 128.55675859586336,128.10301713866647 132.8339610064868,121.5 128.55675859586336,128.10301713866647 128.22347009624355,133.46382940706098 130.44539342657663,139.0860935592209 135.05588433681987,143.40081890305737 135.6669132525567,148.5 146.77652990398929,148.17313070909586 146.77652990398929,143.00857241923222 146.77652990398929,148.17313070909586 135.6669132525567,148.5 135.05588433681987,143.40081890305737 130.44539342657663,139.0860935592209 128.22347009624355,133.46382940706098 128.55675859586336,128.10301713866647 132.8339610064868,121.5 128.55675859586336,128.10301713866647 128.22347009624355,133.46382940706098 130.44539342657663,139.0860935592209 135.05588433681987,143.40081890305737 135.6669132525567,148.5 146.77652990398929,148.17313070909586 146.77652990398929,143.00857241923222 146.77652990398929,148.17313070909586 135.6669132525567,148.5 135.05588433681987,143.40081890305737 130.44539342657663,139.0860935592209 128.22347009624355,133.46382940706098 128.55675859586336,128.10301713866647 132.8339610064868,121.5 128.55675859586336,128.10301713866647 128.22347009624355,133.46382940706098 130.44539342657663,139.0860935592209 135.05588433681987,143.40081890305737 135.6669132525567,148.5 146.77652990398929,148.17313070909586 146.77652990398929,143.00857241923222 146.77652990398929,148.17313070909586 135.6669132525567,148.5 135.05588433681987,143.40081890305737 130.44539342657663,139.0860935592209 128.22347009624355,133.46382940706098 128.55675859586336,128.10301713866647 132.8339610064868,121.5 128.55675859586336,128.10301713866647 128.22347009624355,133.46382940706098 130.44539342657663,139.0860935592209 135.05588433681987,143.40081890305737 135.6669132525567,148.5 146.77652990398929,148.17313070909586 146.77652990398929,143.00857241923222 146.77652990398929,148.17313070909586 135.6669132525567,148.5 135.05588433681987,143.40081890305737 130.44539342657663,139.0860935592209 128.22347009624355,133.46382940706098 128.55675859586336,128.10301713866647 132.8339610064868,121.5 128.55675859586336,128.10301713866647 128.22347009624355,133.46382940706098 130.44539342657663,139.0860935592209 135.05588433681987,143.40081890305737 135.6669132525567,148.5 146.77652990398929,148.17313070909586 146.77652990398929,143.00857241923222 146.77652990398929,148.17313070909586 135.6669132525567,148.5 135.05588433681987,143.40081890305737 130.44539342657663,139.0860935592209 128.22347009624355,133.46382940706098 128.55675859586336,128.10301713866647 132.8339610064868,121.5 128.55675859586336,128.10301713866647 128.22347009624355,133.46382940706098 130.44539342657663,139.0860935592209 135.05588433681987,143.40081890305737 135.6669132525567,148.5 146.77652990398929,148.17313070909586 146.77652990398929,143.00857241923222 146.77652990398929,148.17313070909586 135.6669132525567,148.5 135.05588433681987,143.40081890305737 130.44539342657663,139.0860935592209 128.22347009624355,133.46382940706098 128.55675859586336,128.10301713866647 132.8339610064868,121.5 128.55675859586336,128.10301713866647 128.22347009624355,133.46382940706098 130.44539342657663,139.0860935592209 135.05588433681987,143.40081890305737 135.6669132525567,148.5 146.77652990398929,148.17313070909586 146.77652990398929,143.00857241923222 146.77652990398929,148.17313070909586 135.6669132525567,148.5 135.05588433681987,143.40081890305737 130.44539342657663,139.0860935592209" stroke="#ffc700" stroke-dasharray="1,0.5" stroke-linecap="round" stroke-linejoin="round" stroke-width="0.5"><title>2025-11-09 21.3km</title><desc>1762645227000</desc></polyline><polyline fill="none" opacity="1" points="180.5487137241289,143.17038878973108 180.2998924809508,147.97289793519303 170.99397798394784,148.3828662521555 169.70010751928203,143.34609109547455 164.42509716306813,137.25504451338202 163.678633433301,132.51100878079887 164.72368265478872,128.00120782788144 168.75458679511212,123.37423009570921 174.87558937841095,121.5 180.6980064699892,122.78853388875723 183.13645465369336,124.95560668571852 185.7739598318003,129.17258831486106 186.321366566699,132.51100878079887 185.8734883288853,135.90797686984297 184.48008936690167,139.30492361891083 180.4491852268111,143.28752366662957 180.2998924809508,147.8557640730287 172.5366696920246,148.5 170.49633549782448,148.207165582804 169.94892876246013,143.7560629202053 165.91802462236956,139.77346632350236 164.47486141161062,137.25504451338202 163.72839768207632,132.33530295424862 164.82321115233935,127.88406963978196 169.1527007841505,123.1399516890524 175.42299611354247,121.55856978881638 180.8970634646248,122.84710353810806 184.8284391076304,127.18123997718794 186.0227810749784,130.05112201476004 186.12230957252905,135.4979990948923 184.48008936690167,139.24635575240245 180.5984779726714,142.81898400682257 180.34965672926046,147.7971971326624 170.74515674100257,148.3828662521555 169.79963601659983,143.46322593424702 165.91802462236956,139.83203413290903 163.9772189250216,135.0880210091127 163.87769042770378,130.40253509493778 166.16684586554766,125.71700857958058 170.44657124904916,122.43711585993879 176.4182810864877,121.67570934758987 180.6980064699892,122.90567318093963 185.27631734521128,127.82550053606974 186.2716023181565,131.57391037989873 185.724195583025,136.66936334152706 183.78338988590986,140.066305307555 180.4491852268111,143.22895623132354 180.25012823217548,147.8557640730287 177.46333030820824,148.3828662521555 170.54609974636696,148.3242993687163 169.84940026514232,143.46322593424702 166.16684586554766,140.12487308541313 164.6241541574709,137.43074874120066 163.87769042770378,130.34396626416128 167.5602448277641,124.31134270731127 172.93478368106298,121.73427911725594 179.75248574558645,122.5542552282568 184.48008936690167,126.65411713084904 186.22183806961402,131.4567729656701" stroke="#4dd2ff" stroke-dasharray="none" stroke-linecap="round" stroke-linejoin="round" stroke-width="0.5"><title>2025-11-01 10.0km</title><desc>1761964262000</desc></polyline><polyline fill="none" opacity="1" points="20.39664554549381,178.44079093274195 19.641997274477035,173.52641598845366 15.969375687884167,170.3882980326889 14.409769260790199,167.48700314207235 13.75574075919576,160.73699217825197 16.724023959133774,155.11191937158583 21.80532231857069,152.03290763765108 27.540649179602042,151.85527181613725 32.77287719305605,154.51980307733174 35.791470277821645,159.07908199855592 36.49580866424367,164.23042931058444 34.885892352089286,169.0856777416775 30.55924226436764,173.17115825612564 30.106453301617876,178.38158185908105 20.446955430321395,178.5 19.84323681332171,173.58562558802078 14.711628569290042,168.25673594034743 13.504191335756332,162.75016206502914 14.057600067695603,159.31592661776813 15.768136149039492,156.29615003586514 20.044476352399215,152.6250266257557 26.18228229135275,151.5 32.37039811513387,154.22374468977796 35.99270981666632,159.84882663568715 36.445498779416084,164.46727169805672 34.43310338957235,169.61856823577546 30.55924226436764,173.230367894168 29.90521376254037,178.5 20.49726531514898,178.5 19.99416646757163,173.52641598845366 16.42216465063393,170.56592783203814 14.359459376195446,167.07253118645167 13.806050643790513,160.20409302582266 17.277432691305876,154.46059141261503 22.35873105074279,151.79605986294337 28.798396298196167,152.0921195652336 33.57783534913324,155.5856119451928 36.09332958632149,160.79620316298679 36.24425924057141,165.0593772176071 34.734962697839364,169.26330796408 30.508932379540056,173.46720638254192 30.30769284046255,178.14474549988518 29.65366433886811,178.44079093274195 20.446955430321395,178.5 19.641997274477035,173.46720638254192 16.220925112022087,170.56592783203814 14.359459376195446,167.25016206281725 13.806050643790513,160.38172613445204 17.17681292188354,154.63822638755664 22.76121012866497,151.79605986294337 29.402114914963022,152.2697553099133 33.527525464305654,155.34876570967026 36.14363947091624,160.73699217825197 36.193949355743825,165.71069254807662 34.080934196477756,170.2106681758887" stroke="#4dd2ff" stroke-dasharray="none" stroke-linecap="round" stroke-linejoin="round" stroke-width="0.5"><title>2025-10-27 10.0km</title><desc>1761565093000</desc></polyline><polyline fill="none" opacity="1" points="72.49299741908908,168.30146745522507 67.88469785754569,173.25337995617883 67.73442721972242,177.85154408193193 57.9167455448769,178.2641979373293 57.26557278051041,173.4302331408253 53.85943832201883,170.42372118658386 51.40501790330745,165.8254943100037 51.354927690466866,159.69446471094852 53.45871662092395,155.7446302169701 58.81836937204935,152.0305805875687 64.47856339905411,151.61790684208972 68.48578040930443,153.09174021077342 70.5394791266881,154.80138191854348 73.84543316019699,160.7556093915482 73.74525273498148,164.70540752017405 72.59317784453742,168.36041905957973 67.88469785754569,173.25337995617883 67.73442721972242,177.91049465182004 58.2673770331312,178.3820989812957 57.1653923552949,173.48918418964604 53.70916768396273,170.42372118658386 51.15456684003584,164.52855150052346 51.55528854136355,159.45865450112615 53.60898725898005,155.50881829555146 59.369361710967496,151.79476705688285 66.48217190383002,152.0895339542767 69.18704338604584,153.3275531794061 70.99029104039073,155.27300627186196 73.69516252214089,161.10932382539613 73.64507230976596,165.11807134241099 72.44290720671415,168.59622541279532 67.83460764493793,173.4302331408253 67.73442721972242,177.91049465182004 58.1171063950751,178.32314846251393 57.41584341833368,173.78393933776533 52.55709279351868,168.65517698507756 51.104476627428085,164.58750351361232 51.85582981677726,157.98483837378444 53.558897046139464,155.56777128542308 59.519632348790765,151.79476705688285 64.77910467493348,151.73581365827704 70.03857700061053,154.2708040321013 73.54489188455045,160.04817983444082 73.69516252214089,165.0001674251398 71.84182465518825,169.4804983275244 67.9848782827612,173.1354778013192 67.68433700688183,177.9694452152471 58.167196607915685,178.5 57.41584341833368,173.72498832078418 53.60898725898005,170.12896421866026 51.505198328522965,165.94339804840274 51.40501790330745,160.34294226160273 53.50880683353171,155.7446302169701 58.016925970092416,152.38430069183232 63.176217870553955,151.5 68.98668253538199,153.3275531794061 72.79353869496845,157.8669329113327 73.89552337280475,161.75779969029827 73.44471145910211,166.17920544883236" stroke="#4dd2ff" stroke-dasharray="none" stroke-linecap="round" stroke-linejoin="round" stroke-width="0.5"><title>2025-10-19 10.0km</title><desc>1760866141000</desc></polyline><polyline fill="none" opacity="1" points="91.47822570358403,170.61778579314705 89.37902030511759,167.0883990691509 88.77924733399414,160.4413251291262 91.7281311082188,155.08831263822503 97.72586081828922,151.61764997069258 103.47368512372486,152.02942466718378 108.42181213456206,155.323610999214 111.12079050415196,160.26485303096706 111.27073374669999,164.79428539896617 109.57137699541636,169.2060338560259 105.37296619848348,173.26481078448705 105.12306079408154,178.14706748182653 95.37675001518801,178.20588958403096 94.82695812522434,173.79421423457097 91.17833921848796,170.206025190535 88.77924733399414,165.5589910323033 89.02915273886174,158.67660156678176 91.67815002729185,154.85301417543087 93.62741218321025,153.44122125627473 99.42521756934002,151.5 105.47292836033739,152.9706228011055 108.47179321525618,155.3824355736724 110.77092293743044,158.9118983731023 111.12079050415196,165.6178144980804 109.57137699541636,169.32367999077542 105.52290944126435,173.32363341550808 105.42294727964327,177.97060113667976 96.52631487627514,178.5 95.37675001518801,178.20588958403096 94.67701488244347,173.44127865845803 90.97841489454731,169.79426427558064 88.67928517237306,164.85310894751456 88.52934192959219,160.85309313522885 91.17833921848796,155.55890925851418 93.32752569764853,153.61769557197113 97.22605000901967,151.91177478578174 103.12381755723618,151.91177478578174 107.47217159694992,154.38241694349563 111.22075266577303,160.38250110280933 110.77092293743044,166.44134234864032 109.37145267194137,169.44132610032102 105.32298511755653,172.9706975335721 105.17304187477566,177.97060113667976 95.67663650074974,178.26471168006537 94.62703380128369,173.3824560402427 90.12873651902191,168.79427218291676 88.6293040914461,164.97075602522818 88.77924733399414,160.20602898561629 90.8784527326934,155.97068096662406 93.27754461672157,153.61769557197113 96.77622028090991,151.97059972956777 103.02385539538227,151.97059972956777 108.32184997247532,155.1471372382366 111.47065807040781,161.85309985035565 109.72132023819722,169.02956460573478 105.42294727964327,172.794229506806" stroke="#4dd2ff" stroke-dasharray="none" stroke-linecap="round" stroke-linejoin="round" stroke-width="0.5"><title>2025-10-16 10.0km</title><desc>1760611285000</desc></polyline><polyline fill="none" opacity="1" points="133.00269328826107,178.5 132.29525178298354,173.6829166901298 128.05060275178403,169.5199711464811 126.23146745259874,165.1785800307989 126.38306206092238,159.70718891144497 129.46548576210625,154.47363334317924 135.9335223811213,151.5 142.60368514456786,152.21367347118212 147.70737028960139,157.50672276184196 148.81906408350915,161.55081592261558 147.70737028960139,168.21161031420343 142.8563428253401,173.26662355609005 142.8563428253401,178.02424056624295 133.05322482436895,178.44053009332856 132.3963148551993,173.80185752740363 127.59581892704591,168.8063201699406 126.23146745259874,164.8217518372694 126.43359359679744,159.52877306559822 129.31389115401544,154.77099579165224 135.1755493399687,151.6189456427819 142.0983697839547,152.21367347118212 146.4440818876028,155.48466501117218 148.86959561961703,161.3724006759585 147.7579018259421,168.21161031420343 142.95740589755587,173.32609402301023 142.7047482172493,178.20265040238155 133.05322482436895,178.44053009332856 132.29525178298354,173.56397582677891 128.0000712154433,169.22261668584542 126.13040438038297,164.7028090543463 126.3325305248145,159.88560469920048 128.10113428765908,156.01991631696 134.01332400995307,151.97578241716838 140.17817141255364,151.6784184545977 143.1090005056467,152.6894552700105 145.93876652652398,155.12783051736187 148.86959561961703,161.49134418019094 148.7685325476341,165.0596373253502 147.55577568127774,168.5089653226314 142.90687436121516,173.5045053854701 142.8563428253401,178.20265040238155 133.103756360244,178.5 132.3963148551993,173.74238711188082 128.5053865762893,170.0552087703254 126.18093591625802,165.11910868121777 126.43359359679744,159.29088518116623 129.01070193736814,155.12783051736187 134.9228916594293,151.6784184545977 141.64358595921658,152.03525519021787 146.1914242070634,155.42519261169946" stroke="#4dd2ff" stroke-dasharray="none" stroke-linecap="round" stroke-linejoin="round" stroke-width="0.5"><title>2025-10-08 10.1km</title><desc>1759919017000</desc></polyline><polyline fill="none" opacity="1" points="184.93283465784043,168.76828523655422 180.49583237431943,173.2781257649185 180.042048049625,178.14396470144857 170.562997716479,178.44066079956247 169.90753146982752,173.57482449815143 164.51254005683586,167.5814789275173 163.7058123687748,161.41004467697348 166.42851831554435,155.4165660268627 171.62182780657895,151.97473676723894 176.91597825894132,151.5 182.86559495748952,154.17038896452868 185.99166474840604,159.03639760782244 186.49586955318227,164.02104457491077 184.63031177502126,169.302347236895 180.49583237431943,173.3968052775599 180.14288901071995,178.2033039338421 170.46215675515123,178.3813215927803 169.55458810622804,173.15944622678217 166.47893879609182,170.54848987975856 164.26043765433133,167.16609611199237 163.7058123687748,161.1726804326754 166.2772568743676,155.6539327650098 169.10080378176644,153.0428929894697 171.62182780657895,151.97473676723894 177.72270594676957,151.55934211832937 183.52106120390818,155.00117398781003 185.63872138480656,157.90891164721688 186.4454490726348,164.19906684203306 184.88241417729296,168.82762548461324 180.54625285463408,173.15944622678217 180.14288901071995,178.14396470144857 170.66383867734112,178.5 169.85711098928005,173.45614502415992 167.13440504251048,171.43859003228135 164.86548341996968,168.23422271560412 163.65539188846014,161.52872676041443 165.87389303022064,156.12866593257058 170.76467963820323,152.27144703781232 177.01681922003627,151.5 182.36139015271328,153.75499598047463 185.58830090425909,157.84957021672744 186.39502859232016,164.19906684203306 184.781573216198,169.06498641212238 180.64709381572902,172.98142687091604 180.19330949126743,178.14396470144857 170.562997716479,178.3813215927803 169.957951950375,173.75284366094274 165.42010870575905,169.12432662787614 163.50413044681773,162.2408187215333 164.51254005683586,158.44298423361033 166.68062071828172,154.9418322420679 170.5125772356987,152.3307890727301" stroke="#4dd2ff" stroke-dasharray="none" stroke-linecap="round" stroke-linejoin="round" stroke-width="0.5"><title>2025-10-01 10.0km</title><desc>1759271073000</desc></polyline><polyline fill="none" opacity="1" points="35.66569672129117,197.30937234219164 33.80423078406602,200.329088086728 30.584397811675444,202.99352930352325 30.483778031077236,207.90790903789457 27.012395607773215,208.38158185890643 20.421799992211163,208.3223727788427 19.818081310018897,203.58562558802078 16.044839545385912,200.0330382611137 13.881514267064631,196.1251655361266 14.133063717978075,189.31592661770992 15.994529654970393,185.88166959531372 18.610643945168704,183.4539921315154 23.28946373332292,181.6184239644208 30.33284836052917,182.5658147559152 35.011668148916215,187.06589859188534 36.42034507426433,191.03304703818867 36.319725293898955,195.3554297366063 34.20670990552753,200.0922482389724 30.584397811675444,203.28957752569113 30.131608800031245,208.20395459904103 20.52241977280937,208.3223727788427 19.918701090384275,203.58562558802078 14.233683498343453,197.36858261522138 13.579654925735667,193.81595488579478 14.032443937612697,189.375137756404 17.151657129870728,184.6974380328902 23.138534062774852,181.67763593705604 29.628509897738695,182.38817910751095 33.200512101640925,184.8750729308813 36.11848573293537,190.08567092154408 36.37003518384881,195.11858773400309 34.25701979571022,199.8554082887713 30.534087921492755,203.230367894168 30.534087921492755,207.84869990654988 29.93036923906766,208.26316369208507 20.52241977280937,208.3223727788427 19.868391199968755,203.58562558802078 16.5479384472128,200.56592783192173 14.38461316889152,197.0133208813495 13.730584596283734,190.73699217813555 16.799487898126245,184.9342845507781 23.037914282409474,181.67763593705604 30.73532748222351,182.74345034646103 34.76011869753711,186.82905299786944 36.42034507426433,191.38831265852787 36.01786595256999,196.48042784736026 34.00547034502961,200.26987813453889 30.685017592040822,203.1119486115058 30.433468141127378,208.02632728166645 27.062705497955903,208.5 20.52241977280937,208.5 19.818081310018897,203.4672063823673 16.14545932575129,200.0922482389724 13.982134047430009,196.1251655361266 14.133063717978075,189.43434888881166 18.35909449448809,183.4539921315154 22.685745051130652,181.73684790334664 26.962085717590526,181.5 29.628509897738695,182.2697553099133 33.50237144273706,185.11191937164403" stroke="#4dd2ff" stroke-dasharray="none" stroke-linecap="round" stroke-linejoin="round" stroke-width="0.5"><title>2025-09-27 10.0km</title><desc>1758965825000</desc></polyline><polyline fill="none" opacity="1" points="72.61390918539837,198.3969334147405 67.82830337574705,203.7388084338163 67.82830337574705,208.32581080985256 57.961074901977554,208.5 57.566385763231665,203.50655410496984 52.63277152646333,198.04854841245105 51.25135954003781,191.71951478620758 52.09007396036759,188.81626335228793 54.8528979329858,185.04201298113912 59.24381460365839,182.25485718779964 65.55884082685225,182.13872538198484 69.25905150454491,183.47423963056644 71.18316105660051,185.15814415802015 73.79797660233453,191.66144991165493 73.60063203284517,195.78404037852306 70.88714420236647,201.1840052831103 67.9269756602589,203.33236329245847 67.58162266388535,208.20968465163605 57.961074901977554,208.44193694280693 57.369041193509474,203.15817242313642 52.73144381097518,198.91951049369527 51.35003182478249,195.02920224168338 51.20202339766547,191.8937093722052 52.33675467222929,188.17754592670826 57.221032766392455,183.0097133127274 63.83207584405318,181.90646169468528 70.59112734813243,184.0548969617812 73.20594289386645,188.81626335228793 73.69930431735702,194.50662137032486 72.07121161930263,199.20983087318018 67.97631180286407,203.33236329245847 67.68029494863003,208.44193694280693 57.961074901977554,208.38387387944385 57.418377336114645,203.62268128193682 53.66883051604964,200.25498293701094 51.35003182478249,194.91307320300257 52.23808238748461,188.17754592670826 56.431654488667846,183.76456837472506 60.47721816273406,181.9645276259398 69.45639607380144,183.24197652214207 71.52851405320689,185.10007857257733 73.45262360572815,190.44208609254565 73.74864045996219,194.50662137032486 71.57785019557923,200.02272709883982 67.87763951835223,203.56461769656744 67.58162266388535,208.32581080985256 57.911738759838045,208.2677477338002 57.221032766392455,203.33236329245847 53.96484737051651,200.66143041150644 52.18874624511227,197.81629161845194 51.35003182478249,191.13886575720971 53.52082208916545,186.49365088401828 57.517049620626494,182.42905484943185 62.35199157288298,181.5 70.83780806022696,184.3452253912692" stroke="#4dd2ff" stroke-dasharray="none" stroke-linecap="round" stroke-linejoin="round" stroke-width="0.5"><title>2020-04-24 10.0km</title><desc>1587724293000</desc></polyline><polyline fill="none" opacity="1" points="98.56616797414608,181.79605986282695 91.5730924794916,185.17113096575486 88.30294926301576,192.80937283171806 89.51038675825112,197.90147478319705 94.94385548774153,203.76325434836326 95.54757423559204,208.5 105.35800388641655,208.08553639397724 105.35800388641655,203.52641598839546 109.88589449413121,198.49357658304507 111.69705073721707,192.63174051209353 109.43310543312691,185.76324655441567 109.9865142852068,185.05270777101396 107.77287887688726,185.4079772781115 104.25118618179113,182.92108587932307 98.61647786991671,181.5 92.47867060103454,184.28295638010604 88.95697790617123,189.84882663574535 89.46007686271332,197.90147478319705 94.79292580089532,203.64483518118504 95.19540496589616,208.38158185890643 104.95552472071722,208.20395459915744 105.3076939904131,203.2303678940516 109.48341532889754,199.26330796384718 111.09333198983222,194.11200807831483 110.43930334621109,189.375137756404 107.52132939873263,184.63822638738202 101.38352213031612,181.67763593711425 97.05687110498548,182.09211956535 91.52278258395381,184.69743803300662 88.65511853224598,190.20409302593907 89.10790759325027,196.89490025199484 91.01968362787738,200.2106681757723 94.59168621827848,203.52641598839546 95.09478517482057,208.32237277878448 104.95552472071722,208.20395459915744 105.00583461672068,203.52641598839546 109.38279553758912,199.1448878220981 110.84178251121193,194.52648227871396 110.03682418097742,188.8422372766072 107.068540338194,184.51980307738995 104.55304555571638,182.6842384893098 100.42763411300257,181.79605986282695 97.71089974837378,181.85527181613725 92.73022007965483,183.57241567241726 89.30914717540145,188.25012502312893 88.30294926301576,191.625156277325 89.30914717540145,197.8422645679675 91.87495185341686,201.27644645154942 94.64199611381628,203.34878715121886 95.24571486166678,208.44079093274195 105.00583461672068,208.2631636923179 105.00583461672068,203.52641598839546 109.73496480705217,198.55278672784334" stroke="#4dd2ff" stroke-dasharray="none" stroke-linecap="round" stroke-linejoin="round" stroke-width="0.5"><title>2020-04-16 10.0km</title><desc>1587033949000</desc></polyline><polyline fill="none" opacity="1" points="135.52143724402413,181.97162721439963 129.6107940748334,184.4476633850718 126.85583327547647,189.10493899474386 126.15457052644342,192.40627478284296 127.35673523903824,198.41937065758975 132.56611565942876,203.54813523223856 133.41764899739064,208.4410494939657 142.78451571520418,208.08734632335836 142.93478630436584,203.37128208595095 147.0922726013232,199.24469235760625 148.84542947355658,194.52855150063988 148.19425692106597,189.57655961893033 144.4374921945855,184.15289776510326 138.87748039979488,181.79476705705747 131.06340976897627,183.62231924652588 127.35673523903824,188.2206492224359 126.25475091929547,191.99360890430398 126.75565288285725,196.70977172651328 129.3102528967429,200.836380673456 132.6662960522808,203.724988321017 133.26737840822898,208.5 142.8846961078234,208.08734632335836 142.93478630436584,203.31233102444094 147.49299417226575,198.77308011089917 148.84542947355658,193.88007893715985 148.39461770653725,190.1660848245956 146.14055887050927,185.92148909100797 142.33370394795202,182.79697385634063 139.67892354121432,181.6768602532684 135.02053528069519,182.14848731446546 129.6107940748334,184.32975715614157 126.70556268654764,189.8123697777046 126.20466072298586,193.46741417626617 127.25655484641902,198.3014674554579 132.6162058559712,203.54813523223856 133.01692742668092,208.32314846263034 143.03496669698507,207.7925935056992 142.98487650044262,203.25337995623704 147.29263338656165,199.12678933423012 148.69515888462774,194.469599481381 148.14416672452353,189.2228441889747 143.98668042733334,184.15289776510326 139.3282921668142,181.5 134.92035488807596,182.26639401598368 129.6107940748334,184.68347576609813 126.90592347178608,189.340749357827 126.25475091929547,194.70540752040688 128.4086293624714,199.71630419575376 132.51602546288632,203.66603729786584 133.11710781930014,208.5 143.03496669698507,207.96944521542173 143.03496669698507,203.37128208595095 147.0922726013232,199.36259535566205 148.7953392774798,194.17483928898582 148.0439863319043,189.340749357827 145.03857455099933,184.86033498489996" stroke="#4dd2ff" stroke-dasharray="none" stroke-linecap="round" stroke-linejoin="round" stroke-width="0.5"><title>2020-04-14 10.0km</title><desc>1586861907000</desc></polyline><polyline fill="none" opacity="1" points="164.0072830391582,190.79620316269575 164.51038221339695,196.18437593703857 166.32153924158774,199.79619828471914 170.09478304954246,203.3487871508114 170.79912189370953,208.5 180.40831612492912,207.84869990643347 180.6095557946246,203.05273896059953 184.53372935508378,199.14488782180706 186.49581613508053,193.75674422772136 185.9927169608418,189.6119822471519 183.02443183166906,184.46059141249862 177.28910124348477,181.67763593688142 172.1574896646198,181.9736957034911 166.5227789110504,184.57901473541278 163.50418386491947,190.32251510425704 163.75573345203884,194.82253508613212 164.9128615532536,197.72384411795065 170.14509296696633,203.3487871508114 170.34633263689466,208.08553639386082 180.35800620750524,207.84869990643347 180.45862604212016,203.40799676970346 185.03682852932252,198.49357658269582 186.24426654796116,194.05279745248845 185.89209712599404,189.96724879124667 182.1188533178065,183.51320390502224 177.4400309957564,181.61842396430438 171.75501032499596,181.9144837631029 166.87494833325036,184.164532992756 163.60480369976722,191.92121065611718 165.21472105802968,198.07910539017757 170.09478304954246,203.52641598822083 170.3966425540857,208.08553639386082 180.1567665375769,207.90790903783636 180.35800620750524,203.23036789393518 184.28217976749875,199.26330796355614 186.09333679568954,194.88174562848872 185.79147729091346,189.43434888852062 182.52133265743032,184.34216806368204 177.1381714909803,181.5 170.74881197628565,182.44739099656 166.47246899385937,184.46059141249862 163.5544937821105,191.74357804795727 164.76193180098198,197.66463388339616 169.99416321446188,203.46720638207626 170.3966425540857,207.90790903783636 180.50893595977686,207.78949076862773 180.45862604212016,203.05273896059953 184.6846591073554,198.67120699759107 186.24426654796116,194.05279745248845" stroke="#4dd2ff" stroke-dasharray="none" stroke-linecap="round" stroke-linejoin="round" stroke-width="0.5"><title>2020-04-13 10.0km</title><desc>1586775592000</desc></polyline><polyline fill="none" opacity="1" points="33.9358508575242,214.87507165101124 27.68843650422059,211.56026931619272 21.799480351619422,211.98215434659505 17.49798194458708,214.15184373501688 14.220649824477732,218.85280838544713 14.06702488171868,226.02471639716532 15.961732513504103,229.58050205826294 20.058397663058713,233.55813366820803 20.51927249226719,238.3794671971118 29.89039402222261,237.95760218106443 30.55610210937448,233.1362649970688 34.65276725892909,229.09836296143476 36.39384994772263,224.93989590904675 36.13780837552622,219.75683549552923 33.7310176002793,215.1161474143155 27.89326976193115,211.56026931619272 22.106730237836018,211.7410772255389 16.67864891467616,214.87507165101124 14.527899710927159,218.43092856474686 13.708566681016237,221.68542175466428 14.579108025413007,227.59167559049092 15.910524199018255,230.06264073739294 19.853564405580983,233.49786673480412 20.468064178247005,238.3794671971118 29.89039402222261,238.01786863146117 30.658518737880513,233.01573103206465 34.0382674864959,230.0023734254646 35.88176680379547,226.80819654546212 36.445058261742815,221.92649456713116 35.11364208813757,216.86394357285462 32.09235154022463,213.4888839861378 26.8691034745425,211.56026931619272 21.38981383666396,212.04242361045908 17.190732058137655,214.4531888142228 15.14239948336035,216.92421230807668 13.554941738024354,221.92649456713116 13.708566681016237,224.81936016870895 15.500857684062794,229.64076941588428 19.90477272006683,233.67866751545807 20.36564754927531,238.3192007857142 30.04401896544732,238.07813507528044 30.70972705236636,233.1362649970688 34.75518388743512,229.09836296143476 36.29143331875093,225.7233775848872 36.39384994772263,220.48005612607813 35.11364208813757,216.80367483128794 30.197643908672035,212.58484669210156 24.411104384576902,211.5 18.317314974265173,213.36834576528054 14.579108025413007,217.88851118239108 13.65735836676322,220.48005612607813 13.810983309987932,225.48230641748523 16.115357456495985,230.30370992043754 19.6999394625891,233.55813366820803 20.468064178247005,238.5 30.351268851663917,237.95760218106443 30.402477166149765,233.3773328482639 35.11364208813757,228.37515353248455 36.39384994772263,223.7345373306307 35.21605871687643,217.52689930045744 33.06530951312743,214.39291981165297 30.146435593953356,212.16296211874578" stroke="#4dd2ff" stroke-dasharray="none" stroke-linecap="round" stroke-linejoin="round" stroke-width="0.5"><title>2020-04-12 10.0km</title><desc>1586649823000</desc></polyline><polyline fill="none" opacity="1" points="67.54013736383058,238.32467968267156 58.00608441908844,238.26623956428375 57.45986263593659,233.35724702116568 53.48734057578258,229.90923746227054 51.69970564846881,227.04561955475947 51.103827339364216,221.90275740099605 53.93424930726178,215.82476620055968 57.45986263593659,212.84418780222768 63.31933267484419,211.5 70.56918543507345,214.01304403849645 73.34995087701827,219.79884511831915 73.9458291863557,224.06510314252228 72.20785078476183,228.97418022481725 67.78841999266297,233.64945020817686 67.83807651838288,238.32467968267156 57.906771367648616,238.26623956428375 57.45986263593659,233.35724702116568 52.84180574095808,229.50015012029326 51.45142301986925,226.75341279135318 51.103827339364216,222.13652492605615 51.84867522586137,218.63000141637167 56.814327801112086,212.9610735399765 60.488910706946626,211.55844301753677 67.1428851580713,212.66885914839804 71.4133463727776,215.3572255797335 73.74720308301039,220.67547623312566 73.84651613468304,224.24042809329694 72.05888120736927,229.44170904619386 67.98704609577544,233.53256895235972 67.73876346717589,238.32467968267156 57.906771367648616,238.32467968267156 57.360549584496766,233.35724702116568 53.38802752410993,229.9676784859039 51.6500491227489,226.75341279135318 51.3521099681966,220.55859216680983 53.93424930726178,215.82476620055968 56.96329737850465,213.01951639918843 59.19784103729762,212.14287284499733 64.80902844737284,211.85065801045857 70.46987238316797,214.01304403849645 73.64789003157057,220.09105564816855 73.79685960896313,224.47419460536912 71.76094205281697,229.9676784859039 67.98704609577544,233.29880636470625 67.73876346717589,238.14935930841602 57.95642789360136,238.5 57.310893058544025,233.2403657019604 53.139744895510375,229.61703224980738 51.6500491227489,226.81185415684013 51.054170813644305,220.73391825694125 53.8845927817747,215.82476620055968 56.863984326831996,213.01951639918843 59.396467140410095,211.96754396316828 63.17036309768446,211.61688602878712 69.1788027137518,212.9026306743035 71.4630028984975,214.94812720449409 73.79685960896313,221.72743169078603" stroke="#4dd2ff" stroke-dasharray="none" stroke-linecap="round" stroke-linejoin="round" stroke-width="0.5"><title>2020-04-08 10.0km</title><desc>1586343893000</desc></polyline><polyline fill="none" opacity="1" points="105.31324710464105,233.53256895247614 105.11462104436941,238.44155990047147 95.48125713504851,238.26623956422554 95.08400501520373,233.53256895247614 90.56526215048507,229.26638578565326 88.72797109559178,224.88328575814376 89.02591018564999,220.03261355502764 91.21079684561118,215.70788108336274 94.33915729029104,212.96107353986008 96.47438743524253,212.20131579291774 102.97939089988358,212.0844298907905 107.59744679462165,214.36370041576447 111.12305935914628,220.8508022854803 110.6264942092821,227.10406088869786 108.49126406456344,230.8442930795718 105.31324710464105,233.59100958361523 105.31324710464105,238.32467968278797 95.58057016530074,238.44155990047147 94.98469198541716,233.53256895247614 90.11835351539776,228.62353334313957 88.52934503578581,222.7793850976741 89.82041442557238,217.9871363011771 94.23984426027164,212.78574492404005 99.9006869699806,211.5 106.60431649442762,213.54550184804248 108.78920315415598,215.76632364524994 111.32168541918509,221.78587360068923 110.5271811792627,227.10406088869786 108.14366845949553,231.0780567305046 105.51187316467986,233.47412831510883 105.21393407485448,238.32467968278797 95.38194410526194,238.38311979477294 94.88537895516492,233.41568767128047 90.3169795756694,229.44170904625207 88.57900155056268,224.4157529870863 89.3238492757082,219.2144235840533 94.38881380530074,212.72730203950778 99.9006869699806,211.67532903369283 106.75328603968956,213.2532877730555 109.5340508793015,217.11050081829308 111.42099844920449,222.25340865069302 111.47065496398136,224.94172732619336 110.17958557442762,228.50665099860635 105.36290361965075,233.41568767128047 105.36290361965075,238.32467968278797 95.72953971032985,238.5 94.83572244038805,233.76633143879008 90.3169795756694,229.3248268790776 88.62865806580521,225.23393507068977 88.77762761083432,220.38326602004236 91.06182730058208,216.2923064160277 94.88537895516492,212.78574492404005 99.10618273005821,211.79221502452856 102.48282574978657,212.0259869301808 107.64710330939852,214.188372255594 110.4278681492433,219.0975392012042 111.07340284436941,225.7014671327779" stroke="#4dd2ff" stroke-dasharray="none" stroke-linecap="round" stroke-linejoin="round" stroke-width="0.5"><title>2020-04-07 10.0km</title><desc>1586257895000</desc></polyline><polyline fill="none" opacity="1" points="142.96221664943732,233.29880636493908 143.0118731642142,238.14935930859065 133.22953970986418,238.44155990047147 132.3357224399224,233.53256895247614 127.76732306042686,228.91573909379076 126.37694064062089,225.23393507068977 126.72453624545597,219.85728723701322 129.00873593520373,215.59099594090367 134.47095258487388,212.0844298907905 139.23797802464105,211.79221502452856 145.1967598241754,214.01304403861286 148.22580723906867,220.9676862883498 147.6299290591851,227.8053563994472 145.39538588398136,231.42870201729238 143.0118731642142,233.41568767128047 142.713934074156,238.03247902728617 133.3785092548933,238.5 132.6336615299806,233.76633143879008 128.61148381535895,230.37676547351293 126.62522321543656,226.11055735487025 126.72453624545597,219.85728723701322 128.61148381535895,216.17542140028672 132.3357224399224,212.72730203950778 136.10961757972836,211.5584430177114 139.78419968951494,211.67532903369283 145.69332497403957,215.0650124863605 148.07683769403957,219.38975011080038 148.22580723906867,226.28588164091343 145.9416075493209,230.49364741303725 142.81324710440822,233.47412831510883 142.713934074156,238.09091917105252 133.3288527398836,238.38311979477294 132.58400501520373,233.53256895247614 128.06526215048507,229.55859118833905 126.42659715539776,225.52614265697775 126.52591018541716,220.73391825705767 128.95907942019403,215.76632364524994 132.8322875900194,212.376644598844 139.03935196460225,211.5 144.99813376413658,214.48058582423255 147.48095951392315,217.63648227899102 148.37477678386495,220.61703420319827 148.62305935914628,224.707961016451 147.82855511899106,227.6300326071796 145.69332497403957,230.96117491775658 142.81324710440822,233.47412831510883 142.76359058939852,238.2077994395513 133.42816577013582,238.38311979477294 132.6336615299806,233.94165323727066 128.21423169528134,229.55859118833905 126.37694064062089,225.17549353436334 126.67487973044626,219.97417145548388 128.71079684514552,215.9416512925527 131.6405312300194,213.13640209886944 134.3716395550873,212.0844298907905 140.62836044444703,211.85065801051678 143.9553469491657,212.9026306743035 146.63679875875823,216.35074891458498 148.42443329887465,220.38326602004236" stroke="#4dd2ff" stroke-dasharray="none" stroke-linecap="round" stroke-linejoin="round" stroke-width="0.5"><title>2020-04-02 10.0km</title><desc>1585825459000</desc></polyline><polyline fill="none" opacity="1" points="186.0275800661184,225.63750902574975 184.40298121678643,229.80916160705965 180.2676386923995,233.517269923992 180.1199478879571,238.5 170.47081532981247,238.38412308343686 170.0277429164853,233.63314789469587 166.43393334164284,230.79413038567873 164.563183151884,227.89715821220307 163.77549886144698,221.34994330530753 166.28624253696762,215.96146738063544 172.58771686046384,211.9635308107827 177.55997394397855,212.13735476136208 181.35070459148847,213.41206200537272 183.6152969263494,215.55588097468717 185.73219845700078,220.65465913934167 186.1260406023357,224.94223043258535 184.05836933967657,230.09885849471902 180.4645597646013,233.4593309291522 180.2676386923995,238.44206154474523 170.42158506205305,238.21030766161857 170.0277429164853,233.80696480360348 165.25240690587088,229.05594896426192 163.77549886144698,222.85638923133956 165.05548583343625,217.8735134380404 169.88005211227573,213.06441487639677 174.7046183908824,211.78970680385828 181.64608620060608,213.64382663258584 185.2891260436736,218.80056361178868 186.2245011383202,224.42077089485247 185.09220497100614,228.65037248661974 180.2676386923995,233.63314789469587 180.21840842394158,238.38412308343686 170.56927586649545,238.38412308343686 169.73236130783334,233.517269923992 166.43393334164284,230.6782517999527 164.3170318112243,227.5495204970939 163.77549886144698,221.98728633020073 166.48316360986792,215.96146738063544 172.24310498358682,211.5 176.9199804579839,212.0214721338707 183.12299424479716,215.49794003425632 185.97834979766048,220.71259952092078 186.17527087032795,225.11605016584508 183.71375746279955,230.6782517999527 180.41532949684188,233.4593309291522 180.0707176194992,238.32618461578386 170.6185061344877,238.44206154474523 169.88005211227573,233.4013919281424 166.43393334164284,230.7361910958425 164.66164368833415,228.18685613555135 163.82472912967205,221.92934608651558 165.99086092831567,216.59881682589184 170.12620345293544,212.60088501975406 173.72001302801073,211.78970680385828 178.79073064750992,212.60088501975406 181.25224405527115,213.35412083298434 183.27068504923955,215.55588097468717" stroke="#4dd2ff" stroke-dasharray="none" stroke-linecap="round" stroke-linejoin="round" stroke-width="0.5"><title>2020-03-23 10.0km</title><desc>1584960411000</desc></polyline><polyline fill="none" opacity="1" points="26.476908364333212,241.61588274029782 31.54762708232738,243.23823846923187 33.41837767744437,244.9764712897013 35.87989161815494,250.1911358598154 36.076812733430415,254.3628309147898 34.20606213854626,259.7512222104124 30.218409554567188,263.2855139070889 29.676876487443224,268.1523691750481 20.42158406972885,268.5 19.633899608859792,263.5752089123707 16.286240649409592,260.6203124974272 14.16933866031468,256.6224854856264 13.824726708699018,250.71259952086257 16.138549813069403,246.30911262659356 21.455419925041497,241.55794137332123 27.7076653346885,241.78970680374186 32.28608126472682,243.7597089082701 35.436819108901545,248.91644477046793 36.076812733430415,254.76841064321343 34.20606213854626,259.7512222104124 30.169179275631905,263.63314789469587 30.021488439058885,268.2103076616186 20.323123512323946,268.32618461566744 19.683129887795076,263.4593309290358 16.335470928344876,260.272676552122 14.070878102676943,256.6224854856264 13.87395698740147,250.88642062840518 15.94162869779393,246.13529003184522 22.390795222483575,241.5 30.07071871799417,242.36911994067486 33.46760795614682,244.9764712897013 35.486049387604,248.91644477046793 36.076812733430415,254.53665083582746 34.35375297488645,259.51946456206497 30.218409554567188,263.63314789469587 30.07071871799417,268.2682461417862 20.323123512323946,268.44206154491985 19.633899608859792,263.2855139070889 15.94162869779393,259.9250403807964 14.267799217952415,256.97012380324304 13.923187266336754,250.13319542171666 16.187780091771856,246.01940827060025 21.50465020374395,241.90558948140824 26.91998087358661,241.90558948140824 31.941469312645495,243.58588548522675 33.516838234849274,244.86058927717386 35.83066133921966,250.3649571367423 36.17527329106815,254.82635057909647 33.9599107443355,259.9250403807964 30.218409554567188,263.69108687044354 30.021488439058885,268.2682461417862 20.273893233388662,268.2682461417862" stroke="#4dd2ff" stroke-dasharray="none" stroke-linecap="round" stroke-linejoin="round" stroke-width="0.5"><title>2019-12-13 10.0km</title><desc>1576239112000</desc></polyline><polyline fill="none" opacity="1" points="72.12488802522421,268.08583318188903 60.883018811699,267.9564059041004 56.52706948842388,268.5 53.97509917768184,268.21526038956654 53.35910634405445,263.37463515145646 52.87511197477579,241.5" stroke="#4dd2ff" stroke-dasharray="none" stroke-linecap="round" stroke-linejoin="round" stroke-width="0.5"><title>2019-11-23 10.0km</title><desc>1574497580000</desc></polyline></svg>