<?xml version="1.0" encoding="utf-8" ?>
<svg baseProfile="full" height="300mm" version="1.1" viewBox="0,0,200,300" width="200mm" xmlns="http://www.w3.org/2000/svg" xmlns:ev="http://www.w3.org/2001/xml-events" xmlns:xlink="http://www.w3.org/1999/xlink"><defs /><rect fill="#222222" height="300" width="200" x="0" y="0" /><text fill="#FFFFFF" style="font-size:12px; font-family:Arial; font-weight:bold;" x="10" y="20">Over 10km Runs</text><text fill="#FFFFFF" style="font-size:4px; font-family:Arial" x="10" y="280">Runner</text><text fill="#FFFFFF" style="font-size:9px; font-family:Arial" x="10" y="290">Floyd Li</text><text fill="#FFFFFF" style="font-size:4px; font-family:Arial" x="65" y="280">SPECIAL TRACKS</text><rect fill="yellow" height="2.6" width="2.6" x="65" y="283" /><text fill="#FFFFFF" style="font-size:3px; font-family:Arial" x="70" y="285.5">Over 20.0 km</text><rect fill="red" height="2.6" width="2.6" x="65" y="287" /><text fill="#FFFFFF" style="font-size:3px; font-family:Arial" x="70" y="289.5">Over 40.0 km</text><text fill="#FFFFFF" style="font-size:4px; font-family:Arial" x="120" y="280">STATISTICS</text><text fill="#FFFFFF" style="font-size:3px; font-family:Arial" x="120" y="285">Number: 21</text><text fill="#FFFFFF" style="font-size:3px; font-family:Arial" x="120" y="290">Weekly: 1.5</text><text fill="#FFFFFF" style="font-size:3px; font-family:Arial" x="141" y="285">Total: 224.1 km</text><text fill="#FFFFFF" style="font-size:3px; font-family:Arial" x="141" y="290">Avg: 10.7 km</text><text fill="#FFFFFF" style="font-size:3px; font-family:Arial" x="167" y="285">Min: 10.0 km</text><text fill="#FFFFFF" style="font-size:3px; font-family:Arial" x="167" y="290">Max: 21.3 km</text><polyline fill="none" points="48.0,33.26266808115179 45.651063829660416,34.52476565307006 45.34468085085973,37.52974831609754 40.034042553044856,39.21253149828408 33.80425531882793,43.359368268051185 34.97872340423055,48.04705946921604 34.97872340423055,53.27559139369987 33.651063829427585,56.821349375590216 29.463829786982387,61.26853921957081 28.74893617001362,66.4368502026191 18.89361702138558,66.25656109501142 18.434042553184554,61.92960493720602 13.072340425336733,55.679497583711054 12.25531914876774,48.34755114413565 13.378723404370248,45.22242976987036 15.82978723407723,42.217488771362696 20.374468084890395,39.63322649622569 25.634042553137988,39.33273010153789 31.40425531915389,42.09729079302633 34.672340425429866,47.025386556982994 35.182978723431006,52.07363439316396 33.753191489260644,56.400667409878224 29.157446808181703,61.80941122886725 28.59574468061328,66.37675384001341 18.995744680752978,66.37675384001341 18.280851063784212,61.74931436491897 15.114893617108464,58.62426847306779 12.714893616968766,54.71793635765789 12.102127659600228,49.48941802489571 12.663829787168652,46.90518962015631 15.880851063877344,42.03719179413747 22.11063829762861,39.21253149828408 27.880851063644513,39.93372272810666 33.85531914886087,44.501245414372534 35.08085106383078,49.06873050000286 35.029787234030664,52.794808905920945 32.68085106369108,58.08339335897472 29.310638297582045,61.38873304496519 28.902127659413964,66.25656109501142 19.455319148954004,66.67723558848957 18.280851063784212,61.62912061775569 15.370212765876204,58.98485158971744 12.459574467968196,54.35735046811169 12.204255319200456,48.76823921565665 13.685106383170933,44.80173900985392 17.668085106182843,40.77511131140636 20.476595744723454,39.57312723022187 24.663829787168652,39.21253149828408 29.36170212761499,40.594813865143806 31.455319148721173,42.15738978527952 34.87659574463032,47.68646924442146 35.2851063827984,50.99187086627353 34.36595744639635,55.499204980791546 29.463829786982387,61.088248432439286 29.157446808181703,65.95607911876868 19.506382978754118,66.73733191879 18.229787233751267,61.68921749445144 13.53191489353776,56.58095971989678 12.0,51.11206691805273 12.868085106369108,46.30420454527484 15.727659574477002,41.97709278849652 22.263829787261784,39.15243218670366 27.982978723477572,39.99382195487851 32.17021276592277,42.818478273111396 34.21276595722884,45.94361318775918 35.23404255299829,49.910105230577756 33.906382978428155,56.400667409878224 29.208510638214648,61.56902373424964 28.902127659413964,66.31665747065563 19.455319148954004,66.67723558848957 18.331914893584326,61.92960493720602 13.378723404370248,56.400667409878224 12.102127659600228,52.794808905920945 12.970212765736505,46.24410600186093 15.625531914876774,42.397785690263845 21.242553191492334,39.33273010153789 26.859574467875063,39.63322649622569 31.863829787354916,42.57808255054988 35.13191489339806,48.28745282226009 34.36595744639635,55.078522012685426 32.42553191492334,58.443976827082224 29.310638297582045,61.50892684434075 28.902127659413964,66.25656109501142 19.302127659553662,66.61713925184449 18.331914893584326,61.80941122886725 14.910638297675177,58.50407404883299 12.51063829776831,54.29725279728882 12.153191489167511,48.64804265630664 13.991489361505955,44.20075165631715 16.646808510413393,41.316003298328724 19.76170212775469,39.69332575565204 24.663829787168652,39.21253149828408 29.463829786982387,40.53471470344812 34.008510638261214,45.282528423762415 35.182978723431006,48.52784607093781 34.927659574197605,53.57608023704961 33.03829787205905,57.84300425008405 29.310638297582045,61.56902373424964 29.310638297582045,65.59550053236308 28.493617021245882,66.4368502026191 18.89361702138558,66.25656109501142 18.076595744350925,61.50892684434075 14.144680851139128,57.662712350080255 12.51063829776831,54.41744813264813 12.0,50.81157674017595 12.970212765736505,45.94361318775918 16.748936170246452,41.376102375390474 20.78297872352414,39.513027957757004 26.961702127708122,39.69332575565204 30.536170212784782,41.376102375390474 32.987234042491764,43.71996130485786 42.48510638275184,38.431239941273816" stroke="#4DD2FF" stroke-linecap="round" stroke-linejoin="round" stroke-width="0.5"><title>2026-05-10 11.2km</title><desc>1778422578000</desc></polyline><polyline fill="none" points="81.87652229086962,41.591032133525005 79.50472031405661,38.60879076072888 79.11955589056015,37.29659176558198 79.34254581993446,34.9584723640437 80.4169518436538,33.26451321170316 82.2616867144825,32.167011594967335 84.39022695005406,32.0 86.76202892698348,33.07364375810721 88.05942488007713,34.98233085066022 88.30268662131857,36.270685288109235 87.99860944470856,38.22706095020112 87.10664972709492,39.777834190346766 85.870069209137,40.89915573201142 86.09305913862772,51.37250045646215 89.96497518615797,53.49573743068322 93.02601876307745,54.09214862987574 93.35036775143817,66.44942540401826 92.66112615121529,67.06965655180102 91.1204684569966,67.35591649272828 83.78207259706687,68.0 77.17346196074504,67.66603100899374 69.10528087732382,66.47328048042255 60.165411887690425,66.35400507254235 59.94242195831612,54.95097792026354 63.59134807647206,54.52156369360455 76.86938478425145,54.25914347630169 78.49112972570583,53.78201500776049 81.9576095379889,51.682637470410555 81.89679410273675,43.16563929169206 85.72816652676556,43.0224936514569 86.13360276212916,51.539497364428826 89.84334431553725,53.471880949189654 93.02601876307745,54.116005044284975 93.3909113749396,65.54293058610347 93.12737782194745,66.80725127925689 89.43790808029007,67.61832111183321 82.84956925571896,68.0 77.61944181972649,67.71374089588062 69.26745537144598,66.4971355542948 60.205955511308275,66.3301499831723 59.962693770066835,54.831696274646674 76.86938478425145,54.282999872652 78.63303240807727,53.734302104159724 81.91706591437105,51.634924112062436 81.71434779674746,42.02047156568733" stroke="#4DD2FF" stroke-linecap="round" stroke-linejoin="round" stroke-width="0.5"><title>2026-05-10 11.3km</title><desc>1778397813000</desc></polyline><polyline fill="none" points="123.0347940788779,32.0 127.26199779449962,36.257088030510204 127.5787577546289,36.369195409359236 127.62641190791328,36.514274935074354 127.58997049658501,36.79783747028523 127.82263489207253,37.031939437407345 127.84786356145923,37.259445261566725 126.52476001120522,37.45397788149421 125.75108081656799,37.32868582780611 125.42030492900813,37.31879432795722 120.47548572848609,37.308902824914185 119.66256193703157,37.27263395296541 119.12435032335634,37.28252546777367 119.00661653287534,37.32538866154209 118.98138786350319,40.66853224939587 118.87206362947472,40.985023904329864 118.90570185532852,42.9168705481643 118.84403177458444,51.397747181765226 118.88047318592726,54.21869050405985 118.81880310521228,65.76668339006574 118.84683496007347,67.01182692563998 119.00381334740086,67.11723357475239 122.2106575454527,67.15346702648276 122.2639180697297,67.20287620965428 122.26952444070776,67.2885186047497 122.14898746472318,68.0 122.28634355362738,67.30498826861367 122.22187028740882,66.30361658152287 122.25550851327716,65.80621253545723 122.4405187554512,65.08479758893736 123.76922867668327,62.422991535457186 124.44759956473717,61.3456848427486 124.9017156137561,60.75265578260223 124.82322642010695,60.6768790181668 124.57093972621078,60.996458011117284 123.77763823315036,62.3109797639936 123.6346757732681,62.31756870308345 123.45807508753205,62.21543998754896 123.36556996643776,62.08366049561664 123.34875085351814,61.90905179382207 123.34594766802911,59.80049061417776" stroke="yellow" stroke-linecap="round" stroke-linejoin="round" stroke-width="0.5"><title>2025-11-09 21.3km</title><desc>1762645227000</desc></polyline><polyline fill="none" points="161.34102073544636,34.88943728193408 167.77719689370133,32.078093051793985 176.13759066606872,33.249487813329324 179.91967356321402,35.59227162622847 182.64011915563606,38.950248481938615 185.22786008520052,45.58806369191734 183.10458547645248,54.958992889965884 177.00017097615637,61.518570859741885 177.06652330746874,67.06292951019714 164.06146632833406,67.84382166957948 162.80077202944085,61.2843012457015 157.4925855069887,56.05226002953714 154.77213991456665,49.336449987022206 155.17025390360504,43.24531236081384 158.55422281147912,36.997938259737566 165.18945596413687,32.78093013714533 173.41714507341385,32.31237215641886 179.7869689001236,35.35799358779332 184.76339376484975,43.01103680906817 184.49798443866894,51.75727244548034 181.51212951983325,57.06743517436553 177.33193263364956,60.89385171968024 177.00017097615637,67.29719724698225 164.59228498046286,67.84382166957948 162.86712436075322,61.12812146061333 155.83377721905708,53.00672601786209 154.83849224611185,46.68134504108457 156.23189120809548,40.668277103919536 161.60643006186,34.498973460984416 169.7677668395918,32.0 177.53098962828517,33.71804518502904 180.78225387330167,36.607475580996834 184.29892744403332,42.23011775314808 185.02880309079774,46.68134504108457 184.4316321068909,51.2106358265155 182.57376682432368,55.739898158528376 177.19922797079198,61.05003155552549 177.00017097615637,67.14101876411587 166.6492072576657,68.0 163.9287616654765,67.60955411044415 163.1988860182464,61.67475056031253 157.8243471647147,56.36462176468922 155.90012955036946,53.00672601786209 154.90484457765706,46.44707060564542 156.36459587141871,40.51209285308141 162.1372487139888,34.18660225206986 170.4976424863562,32.078093051793985 177.79639895446599,33.79613805084955 183.0382331451401,39.574986636289395 184.63068910175934,43.40149601968005 184.76339376484975,50.66399879322853 182.57376682432368,55.66180766985053 177.39828496519476,60.42531200911617 177.06652330746874,67.06292951019714 164.26052332296968,67.84382166957948 162.99982902384363,61.2843012457015 157.8243471647147,56.44271217728965 155.23660623515025,50.117361345503014 155.10390157205984,43.870046793308575 158.1561088222079,37.62267810612684 163.86240933369845,33.249487813329324 171.82468911702745,32.23427913017804 177.53098962828517,33.87423090793891 183.63540412881412,40.43400071479846 184.96245075925253,45.43188050651224 184.23257511248812,52.22581778874155 181.64483418292366,56.75507374346489 177.19922797079198,60.971941641764715 176.93381864461116,67.14101876411587 173.2180880792439,67.84382166957948 163.99511399678886,67.76573249162175 163.066181355156,61.2843012457015 158.1561088222079,56.833164113922976 156.09918654500507,53.24099832162028 155.10390157205984,43.79195501888171 160.01397410524078,35.74845694308169 167.1800259097945,32.31237215641886 176.27029532915913,33.405673637695145 182.57376682432368,38.8721561745042 184.89609842770733,45.27569728757953 184.3652797753457,51.835363357386086 181.44577718828805,57.145525510946754 177.33193263364956,60.737671850190964 177.06652330746874,67.14101876411587 172.95267875283025,67.76573249162175 163.9287616654765,67.60955411044415 163.13253368693404,61.36239112570183 158.02340415935032,56.75507374346489 155.30295856692828,51.2106358265155 155.76742488751188,41.76156591356266 160.81020208331756,35.12371547281509 166.71555958944373,32.39046517427778 174.2133730519563,32.62474417721387 178.85803625895642,34.73325177869992 182.2420051668305,38.40360215265537 184.96245075925253,45.11951403465355 184.23257511248812,52.30390864989022 181.64483418292366,56.833164113922976 177.26558030210435,60.6595819023205 177.00017097615637,67.06292951019714 173.0190310846083,67.6876433051657" stroke="#4DD2FF" stroke-linecap="round" stroke-linejoin="round" stroke-width="0.5"><title>2025-11-01 10.0km</title><desc>1761964262000</desc></polyline><polyline fill="none" points="43.73153619421646,81.23495365487179 44.86197743052617,86.32195397827309 44.52949471422471,91.09587555151666 41.3376606348902,97.4349685634952 37.21487494953908,100.87840318580857 36.48341297288425,107.60870529402746 23.849069743184373,108.0 22.851621593348682,101.58274006447755 16.999925781507045,95.79150534479413 14.53955367882736,88.98283218848519 15.138022568775341,82.17409487179248 18.196863561403006,77.32185211090837 22.05366307357326,74.11309303075541 29.368282838258892,72.0 35.352971736807376,73.09567863924894 39.01028161891736,75.05224350461503 43.86452928092331,81.78278617979959 44.795480887405574,88.74804921145551 42.73408804438077,95.47846430813661 36.88239223277196,101.34796118119266 36.549909516237676,107.60870529402746 23.58308356953785,107.76522320194636 22.58563542040065,101.269701536512 17.731387757929042,97.12192823854275 15.669994915369898,93.28717325272737 14.805539852473885,84.36541963100899 18.728835907764733,76.93054079101421 25.444986782735214,72.86089049925795 33.02559272083454,72.62610228301492 39.94123322539963,76.14791751519078 43.93102582427673,82.17409487179248 44.86197743052617,88.98283218848519 42.73408804438077,95.4002040278283 37.01538531971164,100.80014349031262 36.41691642976366,107.68696425238159 23.649580113124102,107.8434821430128 22.851621593348682,101.34796118119266 16.06897417525761,94.30455921211978 14.473057135939598,87.02630504657282 15.204519112128764,82.48714167287108 17.46540158498101,78.49578479939373 23.117607766762376,73.64351733576041 31.230186050990596,72.15652562165633 39.40926087880507,75.75660555943614 44.197011997457594,83.19149647915037 44.795480887405574,89.29587603977416 42.13561915466562,96.10454624606064 37.01538531971164,100.87840318580857 36.150930256349966,107.8434821430128 23.716076656710356,107.8434821430128 23.05111122317612,101.269701536512 18.329856647877023,97.35670849506278 15.603498372016475,92.7393494505086 14.872036395361647,83.66106596874306 19.46029788418673,76.06965514086187 26.17644875939004,72.54783952748403 34.68800630350597,72.93915322091198 41.00517791858874,77.55663880135398 44.33000508416444,84.44368110655341 44.52949471422471,90.07848507427843 42.53459841455333,95.63498484349111 36.94888877635822,101.19144188350765 36.68290260271169,107.37392836890649 35.81844753981568,107.76522320194636 23.649580113124102,107.8434821430128 22.58563542040065,101.19144188350765 18.06387047492899,97.35670849506278 15.603498372016475,92.97413113055518 14.872036395361647,83.89585059921956 19.327304797712713,76.30444223823724 26.708421105751768,72.54783952748403 35.48596482328139,73.17394133564085 40.93868137523532,77.24358986393781 44.396501627517864,84.36541963100899 44.46299817087129,90.93935403280193 41.670143351657316,96.88714790600352 37.08188186283223,101.11318222188856 36.41691642976366,107.60870529402746 23.649580113124102,107.8434821430128 22.918118136702105,101.50448044511722 18.26336010475643,97.20018833252834 15.603498372016475,92.97413113055518 15.071526025654748,83.42628126218915 19.127815167885274,76.69575389724923 27.240393452113494,72.31305120937759 35.751950996462256,73.01741593430052 41.20466754841618,77.32185211090837 44.46299817087129,84.28715814684983 44.396501627517864,91.01761479629204 42.40160532807931,95.86976558319293 36.94888877635822,101.34796118119266 37.21487494953908,107.13915136724245 37.8133438390214,101.66099967516493 43.06657076114789,96.18280645040795 45.393949777120724,90.78283248021035 45.5269428640604,84.913249782403 43.53204656438902,79.27840553212445" stroke="#4DD2FF" stroke-linecap="round" stroke-linejoin="round" stroke-width="0.5"><title>2025-10-27 10.0km</title><desc>1761565093000</desc></polyline><polyline fill="none" points="68.95448413281702,75.0639011383173 71.68791591678746,73.30215960583882 75.26740991976112,72.68937891366659 83.66295039956458,74.06813472451176 89.25997738610022,79.96611534641124 91.34259207872674,86.01723914482864 90.82193840527907,91.76192901545437 89.25997738610022,95.74488659802591 83.5978686902672,101.4129029433825 83.5978686902672,107.15746775193838 70.84185369801708,107.69362475315575 69.93070977018215,101.4129029433825 64.65909132943489,96.43424236407736 62.0558229633607,90.84278177225497 61.990741254528984,84.2555249009747 65.17974500288256,77.74480374401901 72.6641415541526,73.14896448265063 81.97082596179098,73.45535469590686 85.0296662915498,75.0639011383173 88.54407858522609,78.89375889237272 91.40767378779128,86.09383531677304 89.65046764095314,94.74914930539671 83.66295039956458,101.18311938049737 83.46770527213812,107.15746775193838 70.71169027988799,107.69362475315575 69.86562806088477,101.4129029433825 65.44007183914073,97.50657221965957 62.25106809125282,91.53214231674792 62.185986381722614,83.56615726306336 64.91941816592589,78.4341770572355 71.88316104444675,73.60854975297116 79.23739417782053,73.0723669087165 84.44393090950325,74.98730377154425 87.11228098417632,77.20862403616775 91.40767378779128,84.9448918668786 91.2775103696622,90.07682482351083 89.78063105931506,94.82574453164125 83.66295039956458,101.18311938049737 83.46770527213812,107.23406163405161 71.16726224380545,107.84681239299243 69.73546464275569,101.48949744785205 65.24482671171427,97.50657221965957 61.92565954523161,89.84703757718671 62.44631321867928,83.25977143069031 65.11466329335235,78.12778900103876 72.59905984508805,73.30215960583882 81.84066254342906,73.68514726898866 85.35507483757101,75.29369318846148 87.6980163664557,77.82140081189573 91.21242866036482,85.40446947084274 91.14734695153311,90.61299477465218 89.5853859318886,95.1321253531496 83.5978686902672,101.4129029433825 83.46770527213812,107.23406163405161 70.97201711614616,107.77021857723594 70.06087318831123,101.8724698452861 63.7479474011343,95.20872053777566 61.86057783616707,89.92363333445974 62.83680347329937,81.3448569693137 65.04958158405498,78.20438602741342 72.79430497251451,73.30215960583882 79.62788443290628,73.22556204837747 86.4614638928324,76.51924952823902 91.01718353317119,84.02573576307623 91.21242866036482,90.45980340149254 88.80440542218275,96.28105225175386 83.79311381769367,101.02993029728532 83.40262356284074,107.31065550784115 71.03709882567637,108.0 70.06087318831123,101.79587538226042 65.11466329335235,97.12359745771391 62.381231509381905,91.68533345742617 62.25106809125282,84.40871761814924 64.98449987499043,78.4341770572355 70.84185369801708,74.06813472451176 77.54526974004693,72.91917173546972 85.09474800061435,75.29369318846148 90.04095789580606,81.19166358857183 91.47275549708866,86.24702763569076 90.88702011457644,91.9917156395386 88.8694871312473,96.28105225175386 83.72803210909478,101.02993029728532 83.53278698143549,107.38724937353982 70.71169027988799,107.54043707996607 69.99579147901386,101.48949744785205 65.44007183914073,97.42997728381306 62.83680347329937,93.21724304062082 61.92565954523161,84.63850663189078 65.37499013007618,77.89799787168158 68.49891216889955,75.29369318846148 73.90069402754307,73.14896448265063 82.62164305336773,73.99153725011274 86.20113705610856,76.44265231938334 88.8694871312473,79.88951851066668 89.84571276861243,78.81716194044566 84.7693394550588,73.83834227611078 78.19608683162369,72.0 70.64660857059062,73.14896448265063 65.89564380305819,76.44265231938334 64.20351936551742,78.66396801214432 66.28613405791111,77.36181827983819" stroke="#4DD2FF" stroke-linecap="round" stroke-linejoin="round" stroke-width="0.5"><title>2025-10-19 10.0km</title><desc>1760866141000</desc></polyline><polyline fill="none" points="133.69607744319364,76.00008838629583 137.0281495046802,81.64723437064094 137.82784679951146,88.54924187576398 135.695320680039,95.45118359389016 130.09743961738423,100.94131752953399 129.76423241128214,107.05884631245863 116.96907569677569,107.76471169269644 115.83617119584233,100.86288733786205 109.17202707380056,93.64727335848147 107.77255680807866,86.03942857653601 111.23791175195947,77.41187901131343 118.36854596249759,72.78433279786259 126.36551890918054,72.39216650504386 133.49615311948583,76.31381987396162 137.427998151863,82.74528541968903 137.9611296816729,89.25512529874686 135.49539635656402,95.92176813370315 130.23072250024416,100.70602692873217 129.4976666464936,107.52942330914084 116.90243425569497,107.60785277868854 116.1027369608637,101.49032863369212 111.63776039867662,97.4903810575488 108.83881986746565,92.78453209216241 108.0391225728672,83.92176683887374 111.97096760501154,76.78441685100552 119.96794055169448,72.15686662757071 127.63170629204251,72.70589955622563 134.2292089734692,77.0981479989714 137.82784679951146,83.68647070793668 138.02777112298645,89.72571386530763 135.76196212111972,95.60804514138727 130.16408105869778,101.0197477125912 129.83087385282852,107.52942330914084 116.83579281414859,107.60785277868854 116.1027369608637,101.72561897942796 111.23791175195947,96.94136692065513 108.0391225728672,90.74532137642382 108.37232977896929,81.56880208902294 111.90432616393082,76.47068556718295 114.5033423716668,74.5882950083469 122.23374955309555,72.0 130.29736394109204,73.96083040145459 134.2958504143171,77.17658076487714 137.36135671054944,81.88253116415581 137.82784679951146,90.8237526640878 135.76196212111972,95.76490665436722 130.3640053824056,101.09817788732471 130.23072250024416,107.29413484892575 118.36854596249759,108.0 116.83579281414859,107.60785277868854 115.90281263715588,101.25503821129678 110.97134598670527,96.39235236746026 107.90583969047293,89.80414526333334 107.70591536676511,84.4707908469718 111.23791175195947,77.41187901131343 114.10349372425117,74.8235940960003 119.3015261394903,72.54903304768959 127.16521620354615,72.54903304768959 132.96302158990875,75.8432225913275 137.9611296816729,83.84333480376517 137.36135671054944,91.92178979818709 135.49539635656402,95.92176813370315 130.09743961738423,100.62759671139065 129.8975152936764,107.29413484892575 117.23564146156423,107.68628224002896 115.83617119584233,101.17660805361811 109.83844148600474,95.05902957718354 107.83919824939221,89.96100803365698 108.0391225728672,83.60803864750778 110.838063104311,77.96090795547934 114.03685228293762,74.8235940960003 118.70175316859968,72.62746630609035 127.03193332115188,72.62746630609035 134.09592609060928,76.86284965096274 138.294336887775,85.80413313384634 135.96188644482754,95.37275280762697 130.23072250024416,100.39230600901647 130.03079817653634,107.29413484892575 116.76915137283504,107.68628224002896 115.9694540782366,101.49032863369212 110.03836580971256,95.29432201269083 107.83919824939221,89.17669384117471 108.83881986746565,81.41193750046659 112.30417481111363,76.39225272485055 117.70213155006059,72.94119925540872 126.23223602678627,72.31373322108993 131.2969855593983,74.5882950083469 135.82860356243327,79.21582969283918 137.89448824035935,85.01981443882687 137.82784679951146,90.35316481121117 135.22883059154265,96.15706028905697 130.16408105869778,100.78445713722613 130.29736394109204,106.90198724565562 131.0970612356905,101.33346836059354 134.76234050327912,98.11782527546166 137.82784679951146,93.09825630794512 138.96075129997917,87.6864945354173 138.4942612114828,83.84333480376517" stroke="#4DD2FF" stroke-linecap="round" stroke-linejoin="round" stroke-width="0.5"><title>2025-10-16 10.0km</title><desc>1760611285000</desc></polyline><polyline fill="none" points="161.6150164846331,74.5263738015201 169.5304409232922,72.0 176.77506668074057,73.42108634090982 182.8122548116371,79.18435254093492 185.16005019610748,85.73705189861357 183.61721322941594,94.18442077346845 176.97630628524348,101.36855465109693 176.909226416843,107.52632733300561 164.0298917372711,107.92105457693106 163.15785345132463,101.60539302398684 157.18774518813007,95.84230410685996 154.83994980412535,89.7633801153861 155.24242901266553,82.73702817887533 158.998901627725,76.65799488528864 167.04848580271937,72.15789861936355 174.62851090054028,72.71054351690691 180.86693863663822,76.42114840616705 185.02589046000503,85.10546898370376 183.81845283368602,93.78968609054573 177.17754588951357,101.05277003458468 176.909226416843,107.52632733300561 163.96281186887063,108.0 163.02369371522218,101.60539302398684 157.3889847928658,96.07914427516516 154.9741095402278,90.31601166405017 155.17534914473072,83.05282073095441 159.26722110016271,76.10535298060859 167.85344422003254,72.15789861936355 176.7079868123401,73.10528961592354 183.4830534933135,80.13173440442188 184.9588105918374,85.50020836963085 183.4830534933135,94.34231458662543 177.04338615341112,101.05277003458468 177.04338615341112,107.36843637563288 164.0298917372711,107.92105457693106 163.15785345132463,101.76328522950644 156.78526597982273,95.13178314000834 154.9741095402278,89.8423275052337 155.24242901266553,82.81597632972989 159.06598149612546,76.50009724084521 166.84724619844928,72.31579720409354 176.0371881313622,73.10528961592354 181.80605679028668,77.44748259335756 185.02589046000503,85.26336476375582 183.55013336148113,94.34231458662543 177.17754588951357,101.13171620143112 176.84214654914103,107.60527279909002 164.0298917372711,107.92105457693106 163.02369371522218,101.44750078395009 157.32190492446534,95.68441061873455 154.83994980412535,89.68443271692377 155.10826927656308,83.28966505517019 157.45606466080062,78.1580207995139 165.30440923152491,72.78949275385821 173.48815314262174,72.39474648371106 177.37878549401648,73.73688292957377 181.1352581086103,76.97379007103154 185.02589046000503,85.42126050958177 184.8917307241354,90.15811697859317 183.28181388881058,94.73704897024436 177.1104660211131,101.36855465109693 177.04338615341112,107.60527279909002 164.09697160497308,108.0 163.15785345132463,101.68433913087938 157.99270360567607,96.78966431878507 154.90702967206016,90.23706432554172 155.24242901266553,82.50018367526354 158.66350228735246,76.97379007103154 166.5118468576111,72.39474648371106 175.4334693183191,72.86844198207837 181.47065744944848,77.36853386112489 184.8917307241354,85.18441687809536 183.68429309758358,93.71073912834981 180.73277889983729,98.13175584428245 177.1104660211131,101.21066235983744 177.1104660211131,107.36843637563288 164.09697160497308,107.92105457693106 162.95661384705454,101.36855465109693 157.5231445292011,96.23703767824918 154.9741095402278,90.31601166405017 155.64490822167136,80.8422699936782 158.32810294651426,77.36853386112489 166.71308646234684,72.31579720409354 175.36638944991864,72.78949275385821 181.80605679028668,77.76327743718866 184.7575709875673,84.31598957069218 184.15385217452422,92.44758657016791 181.26941784541123,97.42123710917076 177.1104660211131,100.9738238590653 176.84214654914103,107.52632733300561 164.6336105503142,108.0 163.6274125284981,106.97370883252006" stroke="#4DD2FF" stroke-linecap="round" stroke-linejoin="round" stroke-width="0.5"><title>2025-10-08 10.1km</title><desc>1759919017000</desc></polyline><polyline fill="none" points="13.608598521910608,127.88717764167814 20.12526117870584,116.69575389689999 24.44753743032925,113.48699203616707 29.50127581693232,112.0 40.47320784069598,114.42614332417725 45.127966881264,120.8436444538529 46.39140147785656,128.5132661574753 43.79803572688252,135.86976558278548 38.41181455133483,140.95666287303902 38.21232487820089,147.4521873522899 25.178999565076083,147.76522320188815 24.51403398765251,141.73925927723758 20.258254293818027,137.82626877859002 17.265909196576104,133.28717325231992 16.268460830673575,124.52194257336669 19.859274947550148,117.24358986358857 26.841413507936522,112.93915322097018 33.757055511232466,112.39131399057806 41.670145879732445,116.14791751507437 45.79293245822191,122.95671161985956 46.19191180472262,129.0610931640258 44.19701507338323,135.16542313538957 38.345317994011566,141.11318222159753 37.746848974144086,147.53044632758247 25.245496123097837,147.92174107563915 24.381040872307494,141.5044804449426 17.265909196576104,133.60021523863543 16.201964273117483,125.4610795180779 19.792778389761224,117.55663880117936 26.641923834802583,113.01741593435872 33.62406239565462,112.39131399057806 41.470656206598505,115.9131303668837 45.5934427853208,122.33061828906648 46.258408362511545,128.90457120462088 43.79803572688252,135.86976558278548 38.345317994011566,141.2697015363956 37.87984208972193,147.60870529408567 25.11250300728716,147.8434821430128 23.915564968483523,140.95666287303902 19.859274947550148,137.51322862319648 16.933426407864317,133.0523916737293 16.201964273117483,125.14803400525125 19.593288716860116,117.86968760297168 23.317095948848873,114.42614332417725 26.641923834802583,113.01741593435872 34.68800731911324,112.46957676310558 42.33511145692319,117.00880307191983 45.127966881264,120.8436444538529 46.19191180472262,129.1393541309517 44.13051851536147,135.24368344136747 38.41181455133483,140.95666287303902 37.87984208972193,147.53044632758247 25.378489238442853,148.0 24.3145443147514,141.34796118101804 20.72373019787483,138.68712850648444 17.731385100400075,134.4610800013761 16.13546771532856,125.61760222335579 19.06131625501439,118.49578479933552 25.51148235355504,113.40872937365202 33.757055511232466,112.39131399057806 40.805690629640594,115.36529339139815 45.06147032347508,120.76538258837536 46.12541524716653,129.1393541309517 43.997525399783626,135.55672457977198 38.544807667145506,140.72188378608553 37.946338647510856,147.53044632758247 25.245496123097837,147.8434821430128 24.44753743032925,141.73925927723758 18.46284723537974,135.63498484314186 15.93597804219462,126.55673774384195 17.265909196576104,121.5480008625309 20.12526117870584,116.93054079078138 25.178999565076083,113.48699203616707 29.368282701587304,112.2347884196206 34.75450387666933,112.7043650301639 41.0051803025417,115.67834314261563 44.92847720813006,120.6088588318089 46.058918689377606,130.00022420863388 44.13051851536147,135.3219437386142 38.345317994011566,141.2697015363956 37.746848974144086,147.4521873522899 25.577978911576793,148.0 24.381040872307494,141.4262208173168 19.2608059279155,136.7306276416639 16.866929850308225,132.03500395145966 16.13546771532856,127.57413318019826 18.06386788911186,119.7479775645188 22.120157910045236,115.36529339139815 29.30178614403121,112.39131399057806 37.81334553216584,113.33046670281328 44.92847720813006,120.295811216929 46.12541524716653,125.06977260601707 45.5934427853208,131.80022196564823 41.60364932217635,138.45234868244734" stroke="#4DD2FF" stroke-linecap="round" stroke-linejoin="round" stroke-width="0.5"><title>2025-10-01 10.0km</title><desc>1759271073000</desc></polyline><polyline fill="none" points="72.81844881223515,113.31616096559446 78.08096895483322,112.0 85.84318616520613,114.0903721661889 90.71101729711518,120.82597422483377 91.69773982395418,125.31634033378214 91.56617682031356,130.42603297071764 90.11898378096521,134.52924455347238 83.86974111199379,141.0323995674844 83.67239660653286,147.5354954174254 71.0423482642509,147.92258259042865 69.66093672649004,141.34207214025082 64.59576108958572,136.54213218967197 62.22762702545151,131.74216000648448 61.63559350930154,126.70989649376133 63.14856805023737,120.90339456906077 68.73999570170417,114.86458252806915 76.37064990843646,112.69679140119115 83.5408336026594,114.0903721661889 86.69834568840452,116.25815906614298 89.6585132686887,120.2066111684544 91.63195832190104,126.01311875332613 90.51367279165424,133.36796064605005 88.07975722569972,137.31631823268253 83.86974111199379,140.80014505027793 83.73817810812034,147.22582552797394 79.19925448508002,147.84516517265 70.58187775150873,147.7677477466059 69.79249973013066,141.57432648149552 64.85888709663413,136.92922531603836 62.03028251999058,131.81957916833926 62.35919002909213,122.91632057813695 64.79310559481382,118.42593939136714 68.21374368760735,115.25168739451328 74.3314233534038,112.85163384262705 83.5408336026594,114.0903721661889 89.6585132686887,119.97434988373425 91.50039531849325,125.16150059271604 91.36883231508546,130.81312940927455 88.60600923979655,137.0066439160728 83.86974111199379,141.1872358704568 83.27770759584382,147.61291286867345 70.71344075538218,147.7677477466059 69.92406273400411,141.57432648149552 62.490753032499924,133.44537963205948 61.63559350930154,128.80022563919192 62.22762702545151,122.99374069593614 66.30608013598248,116.87752554402687 74.13407884794287,112.92905505083036 82.61989257764071,113.85810889396816 87.29037920432165,117.10978783509927 91.10570630780421,123.92278145684395 91.4346138164401,130.50345227506477 88.67179074184969,136.6969694654108 83.80395960994065,141.10981772327796 83.80395960994065,147.14840803475818 83.01458158856258,147.6903303117724 70.71344075538218,147.7677477466059 69.85828123195097,141.57432648149552 65.51670211413875,137.62599241524003 62.68809753772803,132.98086559132207 61.832938014529645,124.77440109336749 65.8456096232403,117.18720858206507 74.00251584430225,112.92905505083036 84.06708561698906,114.32263536279788 89.32960575935431,119.66466805367963 91.50039531849325,125.62601971504046 90.97414330416359,132.28409396397183 88.34288323298097,137.23889966629213 84.00130411540158,140.95498140336713 83.67239660653286,147.38066048943438 79.26503598690033,148.0 70.71344075538218,148.0 69.79249973013066,141.41949026228394 64.99045010004193,137.0066439160728 62.1618455236312,131.81957916833926 62.35919002909213,123.07116080558626 67.88483617873862,115.25168739451328 73.54204533202574,113.00647625070997 79.13347298349254,112.69679140119115 82.61989257764071,113.70326667063637 87.68506821501069,117.4194707722636 90.97414330416359,123.45826122740982 91.50039531849325,130.03893632261315 89.46116876322776,135.69052657380234 83.86974111199379,141.0323995674844 83.21192609379068,147.6903303117724 70.71344075538218,147.92258259042865 69.59515522513539,141.57432648149552 64.79310559481382,137.23889966629213 62.75387903954834,133.29054165194975 61.701375011121854,125.8582791632507 65.38513911073096,117.88399492629105 69.66093672649004,114.47747745196102 74.79189386568032,112.85163384262705 79.0676914814394,112.77421262615826 84.06708561698906,114.40005641145399 89.79007627209648,120.12919074844103 91.56617682031356,126.32279783295235 90.11898378096521,134.2195690291701 83.67239660653286,141.10981772327796 83.47505210130475,147.5354954174254 77.09424642822705,147.7677477466059" stroke="#4DD2FF" stroke-linecap="round" stroke-linejoin="round" stroke-width="0.5"><title>2025-09-27 10.0km</title><desc>1758965825000</desc></polyline><polyline fill="none" points="141.33333333325572,114.3247739620856 137.48813209473155,115.37418773636455 130.74509803880937,120.09652721323073 128.12590299267322,120.88358021213207 130.80082559329458,125.40911510185106 130.74509803880937,131.1807626974187 127.68008255935274,136.886769310222 124.11351909162477,140.23164474085206 124.16924664610997,145.54405597958248 113.02373581007123,145.54405597958248 112.57791537628509,140.03488787414972 108.73271413845941,137.08352720009862 106.00206398358569,132.42690666177077 105.83488132082857,124.68765528430231 109.17853457177989,119.30947319144616 111.51909184711985,116.88271685043583 114.30546955601312,115.83330569090322 120.88132094917819,115.83330569090322 128.12590299267322,118.71918200375512 130.80082559329458,125.6058767210925 130.96800825581886,129.47550890647108 129.51909184711985,134.26332467148313 124.11351909162477,140.29723034903873 124.11351909162477,145.47847093985183 112.96800825581886,145.6752260379144 112.52218782249838,140.03488787414972 106.94943240447901,133.86980699544074 105.3890608875081,126.72085802257061 106.33642930863425,123.44149539276259 109.45717234280892,119.17829742172034 114.41692466451786,116.03007042169338 121.55005159950815,115.89889394154307 125.72961816308089,117.4074217484449 127.90299277589656,119.30947319144616 130.85655314731412,126.65527094411664 130.6336429307703,131.3119358670665 127.56862745061517,137.4114568741643 124.22497419989668,139.83813094347715 123.83488132082857,145.3473008389119 112.96800825581886,145.60964101227 112.2992776054889,139.64137394865975 107.06088751275092,134.85360070614843 105.50051599578,130.45930975669762 105.33333333325572,126.91761921555735 106.61506707943045,122.72003323078388 112.13209494296461,116.88271685043583 119.5995872032363,115.63654089579359 127.2342621255666,118.06330223137047 130.18782249744982,123.44149539276259 130.74509803880937,129.86902943835594 128.90608875104226,135.18153158802306 124.28070175438188,139.83813094347715 123.94633642910048,145.60964101227 112.96800825581886,145.54405597958248 112.3550051599741,140.16605912573868 108.11971104214899,136.36208129191073 105.50051599578,130.32813640212407 106.50361197115853,122.72003323078388 111.24045407632366,117.73536207864527 115.8101135189645,115.70212916785385 125.95252837939188,117.14506935648387 128.29308565496467,119.2438853100175 130.466460268246,125.27794065367198 130.80082559329458,129.86902943835594 128.34881320921704,136.09973711211933 124.16924664610997,140.10047350340756 123.83488132082857,145.47847093985183 112.91228070179932,145.41288589284522 112.13209494296461,139.83813094347715 108.45407636766322,136.82118333288236 106.44788441690616,133.60746173595544 105.50051599578,126.06498691730667 107.95252837985754,120.81799250119366 112.46646026824601,116.22683508880436 117.92776057776064,115.17742279235972 127.51289989659563,118.39124220615486 130.2992776054889,123.96619460720103 130.80082559329458,130.06578960834304 128.9618163050618,135.18153158802306 124.22497419989668,139.96930223761592 123.89060887484811,145.54405597958248 113.02373581007123,145.6752260379144 112.2992776054889,140.16605912573868 108.5655314757023,136.69001135666622 106.22497420012951,132.42690666177077 105.89060887508094,124.62206798547413 109.23426212603226,119.2438853100175 112.24355005170219,116.68595239665592 115.08565531484783,115.57095261651557 126.34262125892565,117.14506935648387 128.34881320921704,118.9159457970527 130.6336429307703,125.34352788137039 130.466460268246,130.39372308296151 128.4045407634694,135.70622062933398 124.11351909162477,140.10047350340756 124.16924664610997,144.88820526195923 123.50051599578,145.21613070950843" stroke="#4DD2FF" stroke-linecap="round" stroke-linejoin="round" stroke-width="0.5"><title>2020-04-24 10.0km</title><desc>1587724293000</desc></polyline><polyline fill="none" points="188.0,114.3404629912693 183.66666666651145,115.58279541530646 175.7777777777519,120.22517289721873 173.2777777777519,119.44054822431644 170.11111111100763,116.82512528263032 164.3333333330229,115.64818126161117 157.38888888875954,117.9366814174573 155.16666666651145,119.96363145293435 152.5,125.71751705033239 152.55555555550382,130.9482745459536 154.61111111100763,135.78668487659888 159.33333333325572,140.10199110233225 160.2222222222481,145.6595370087307 170.88888888875954,144.87494539405452 170.72222222201526,139.90584148850758 175.55555555573665,135.06746417301474 177.05555555573665,130.88289035705384 176.94444444449618,126.17521014070371 175.2777777777519,121.66364881501067 170.44444444449618,116.75973956397502 167.61111111124046,115.84433875797549 163.33333333325572,115.97511038649827 155.61111111100763,119.70208989549428 152.0,128.1367480258923 153.33333333325572,133.7597879714449 159.33333333325572,140.23275747621665 160.0,145.46338920056587 170.83333333348855,145.00571073399624 170.83333333348855,139.97122470027534 175.83333333348855,134.41362642642343 177.83333333325572,127.94059452420333 175.33333333325572,120.35594357695663 175.94444444426335,119.57131907413714 173.5,119.96363145293435 169.61111111100763,117.21743944636546 163.38888888875954,115.64818126161117 156.6111111107748,118.72130804520566 152.72222222201526,124.86751467606518 153.2777777777519,133.7597879714449 159.16666666651145,140.10199110233225 159.6111111107748,145.3326239597518 170.38888888875954,145.1364760454744 170.7777777777519,139.64430857088882 175.38888888875954,135.2636153587955 177.1666666669771,129.57520509057213 176.44444444449618,124.34443569695577 173.2222222222481,119.11362097639358 166.44444444449618,115.84433875797549 161.66666666651145,116.30203933437588 155.55555555550382,119.17900644027395 152.38888888875954,125.2598236129852 152.88888888875954,132.64826097310288 155.0,136.30975394073175 158.94444444426335,139.97122470027534 159.49999999976717,145.26724132883828 170.38888888875954,145.1364760454744 170.44444444449618,139.97122470027534 175.2777777777519,135.13284790876787 176.88888888875954,130.0328952561249 176.0,123.75597130379174 172.72222222248092,118.98285002773628 169.94444444426335,116.95589669886976 165.38888888875954,115.97511038649827 162.38888888875954,116.04049619019497 156.88888888899237,117.9366814174573 153.1111111107748,123.1021213051863 152.0,126.82905681052944 153.1111111107748,133.6944040870294 155.94444444426335,137.48665767814964 158.99999999976717,139.7750750440755 159.66666666651145,145.3980065837968 170.44444444449618,145.20185869088164 170.44444444449618,139.97122470027534 175.66666666674428,134.4790102330153 177.05555555573665,127.22136447270168 175.38888888875954,121.92518952290993 170.0,116.49819661816582 165.49999999976717,115.12509429338388 157.0,118.06745259312447 153.22222222201526,123.8213562645833 152.16666666651145,127.87521000934066 153.44444444403052,134.0213234385592 159.2222222222481,140.36352382146288 159.83333333325572,145.20185869088164 170.66666666674428,144.87494539405452 170.61111111124046,140.1673742927378 175.61111111100763,134.5443940323894 177.0,126.95982605958125 175.11111111124046,121.72903400263749 170.88888888875954,117.67513898178004 164.2777777777519,115.77895293285837 155.88888888875954,118.59053701139055 152.2777777777519,125.58674753201194 152.44444444426335,130.9482745459536 153.88888888899237,134.67516161000822" stroke="#4DD2FF" stroke-linecap="round" stroke-linejoin="round" stroke-width="0.5"><title>2020-04-16 10.0km</title><desc>1587033949000</desc></polyline><polyline fill="none" points="48.0,154.34899812319782 43.32612055633217,155.5932509598788 35.3137557960581,160.43926391366404 33.97836166899651,160.43926391366404 31.69706336944364,158.01626229239628 27.245749613270164,156.05165925406618 23.183925811434165,155.9206854912336 16.896445131395012,158.540155357623 13.112828438635916,162.99322808336 12.222565687494352,170.65505585889332 14.72642967524007,176.09031070803758 19.289026275044307,180.47776994580636 19.678516228683293,185.5855182048981 30.139103554654866,185.12713230313966 30.751159196021035,180.54325417091604 34.757341576507315,176.417734138784 37.14992272015661,170.58957056276267 36.760432766750455,165.0232944705058 33.58887171535753,159.3914806204848 31.585780525347218,157.55785548785934 27.02318392577581,155.8551985990489 22.460587325738743,156.18263298849342 15.894899536157027,158.9330748587381 12.834621328860521,164.1064911397989 12.05564142181538,167.77369612117764 13.39103554864414,174.45319089572877 19.177743430947885,180.15034871414537 20.12364760413766,185.5855182048981 30.528593508526683,185.19261602457846 30.695517774438486,179.95389589003753 35.3137557960581,175.3699785367935 37.2612055640202,170.13117329136003 36.53786707879044,164.63037892751163 32.36476043262519,158.60564195911866 26.18856259644963,155.98617237631697 17.50850077276118,158.01626229239628 13.39103554864414,163.12420031387592 12.166924265678972,167.3152967148344 12.72333848522976,172.55412635981338 15.561051004566252,177.13806506159017 19.289026275044307,180.3468014744576 19.956723338225856,185.65100187674398 30.639876352390274,185.19261602457846 30.695517774438486,179.88841160113225 35.7588871717453,174.84610005503055 37.2612055640202,169.41083402035292 36.760432766750455,165.28523802378913 34.25656877877191,160.57023669790942 30.027820711024106,157.09944833570626 27.07882534759119,155.8551985990489 21.904173106420785,156.3790935371071 15.894899536157027,158.80210172006628 12.66769706318155,164.89232265105238 12.111282843863592,168.95243585546268 13.279752704547718,174.32222111924784 19.233384852996096,180.15034871414537 19.678516228683293,185.45455083984416 30.806800618302077,184.8651973460219 30.751159196021035,179.8229273048346 35.53632148378529,175.2390089589171 37.09428129834123,170.06568793865154 36.48222565674223,164.23746312916046 31.863987635122612,158.60564195911866 26.689335394185036,155.6587378802942 21.792890262790024,156.51006720075384 15.894899536157027,159.19502105074935 12.890262751141563,164.3684350902913 12.166924265678972,170.32762930740137 14.559505409561098,175.8938565647113 19.122102008899674,180.28131722816033 19.789799072546884,185.65100187674398 30.806800618302077,185.0616485743667 30.806800618302077,179.95389589003753 35.3137557960581,175.50094808655558 37.20556414243765,169.73826106800698 36.37094281311147,164.3684350902913 33.03245749603957,159.3914806204848 27.02318392577581,156.05165925406618 21.681607418693602,156.24811984522967 15.060278206830844,159.65342661412433 12.166924265678972,167.8391817222 13.669242658186704,174.51867577334633 19.122102008899674,180.08486444648588 19.734157650731504,185.3890671467525 30.47295208647847,185.32358344632667 30.695517774438486,180.15034871414537 35.20247295219451,175.50094808655558 37.03863987629302,169.34534858929692 35.70324574946426,162.92774195742095 31.14064914989285,157.81980227591703 26.91190108191222,156.05165925406618 24.074188562342897,156.05165925406618 20.73570324573666,156.7065276428475 16.06182380206883,159.19502105074935 13.112828438635916,163.6480889529339 12.0,167.57723927532788 12.77897990704514,172.75058158836327 14.78207109728828,176.3522494668141" stroke="#4DD2FF" stroke-linecap="round" stroke-linejoin="round" stroke-width="0.5"><title>2020-04-14 10.0km</title><desc>1586861907000</desc></polyline><polyline fill="none" points="94.66666666674428,154.43653545627603 89.25562372198328,156.06115416396642 82.29856850695796,160.35012641333742 76.94274028623477,157.10090782807674 71.7525562371593,155.80121546646114 67.72188139054924,156.51604661380406 61.924335378455,159.31037838064367 59.384458077605814,165.2889049599762 59.43967280164361,170.6825245587388 61.261758691165596,175.42627039336367 66.06543967267498,179.975032542774 66.56237218808383,185.23855713166995 77.16359918192029,184.9786310751806 77.32924335380085,179.71510420611594 81.58077709609643,175.62121805007337 83.56850715749897,171.07242289127316 82.90593047020957,164.11919792584376 79.15132924332283,158.53056617366383 72.13905930472538,155.93118482932914 67.44580777082592,156.64601582183968 62.089979550102726,159.1154254238354 59.218813905958086,166.13369195524137 59.770961144939065,172.0471676144516 61.75869120657444,176.01111317315372 65.89979550102726,179.9100504691014 66.67280163592659,185.56346454372397 77.21881390619092,184.8486680048518 77.43967280164361,179.58513999573188 81.74642126797698,175.29630525398534 83.89979550102726,169.38286161981523 83.34764826181345,164.83401916216826 80.0899795498699,159.18040974991163 73.7955010223668,156.1261388208368 68.16359918192029,156.45106199913425 61.97955010202713,159.31037838064367 58.66666666674428,165.61382317577954 58.9427402864676,170.5525583914714 60.212678936775774,173.73672138294205 65.95501022483222,179.9100504691014 66.17586912075058,185.10859411751153 77.16359918192029,184.8486680048518 77.27402862976305,179.975032542774 82.29856850695796,174.58149648294784 83.62372188153677,169.70777761860518 83.23721881397069,165.22392129572108 79.09611451928504,158.14065968990326 73.96114519424736,156.06115416396642 67.72188139054924,156.38607737765415 62.366053169593215,158.8554880497395 58.77709611458704,167.36837850062875 60.54396728030406,174.12661773065338 65.89979550102726,180.10499666893156 66.23108384432271,185.10859411751153 76.94274028623477,184.91364954347955 77.16359918192029,179.78008630080149 81.47034764802083,175.42627039336367 83.45807770965621,170.61754147859756 83.12678936612792,164.63906800030963 79.53783231088892,159.05044109071605 73.62985685048625,155.93118482932914 66.61758691212162,156.9709387185867 61.924335378455,159.18040974991163 58.72188139054924,167.17342816240853 60.047034764895216,173.67173863359494 65.78936605295166,180.04001460928703 66.23108384432271,184.91364954347955 77.32924335380085,184.7836864591809 77.27402862976305,179.58513999573188 81.91206543962471,174.77644441404846 83.62372188153677,169.70777761860518 83.01635991828516,164.37913301942172 78.87525562359951,158.53056617366383 70.48261758661829,155.54127665626584 64.07770961127244,157.5557994893752 59.99182004085742,163.07945642544655 58.88752556219697,167.7582789870794 59.32924335380085,172.17713345808443 60.54396728030406,174.5165138252196 65.89979550102726,179.9100504691014 66.3967280164361,185.173575628025 77.05316973431036,184.91364954347955 77.05316973431036,179.5201578795677 81.02862985664979,176.0760956691811 83.45807770965621,169.64279443287523 82.46421267883852,163.14444032195024 77.43967280164361,157.3608459623647 70.09611451951787,155.80121546646114 62.14519427414052,158.79050368850585 58.99795501003973,167.30339506146265 59.494887525448576,172.50204794318415 60.985685071442276,175.42627039336367" stroke="#4DD2FF" stroke-linecap="round" stroke-linejoin="round" stroke-width="0.5"><title>2020-04-13 10.0km</title><desc>1586775592000</desc></polyline><polyline fill="none" points="141.33333333325572,154.3575664748787 136.20639834878966,155.8005099457223 129.07327141356654,160.26049529685406 122.88751289946958,156.8499212191091 115.02992776059546,156.25962760159746 110.6274509804789,158.29285875044297 106.8379772962071,163.0151757199783 105.66769865853712,166.49130217847414 106.00206398358569,172.26293977181194 108.9556243547704,177.05073375662323 112.52218782249838,180.26443725364516 113.24664602661505,185.380093351705 123.0546955622267,185.11775306460913 124.00206398358569,184.33073152130237 124.00206398358569,179.9365091068321 128.46026831772178,174.88639321894152 130.07636738871224,171.5414880811004 130.466460268246,163.60546275181696 129.5748194011394,160.85078501398675 132.58410732727498,156.65315674396697 131.41382868913934,158.22727075533476 127.68008255911991,159.93255631637294 120.88132094917819,156.32521580980392 114.47265221877024,156.78433306788793 109.79153766762465,159.1455020388239 106.22497420012951,164.26133655646117 106.05779153760523,172.06618030491518 108.11971104261465,175.93577141553396 112.57791537675075,180.26443725364516 113.07946336409077,185.51126345264493 123.27760577900335,185.05216797516914 124.00206398358569,179.80533779849065 128.46026831772178,175.4110825447715 130.3550051599741,170.885622161848 130.07636738871224,165.2451459314907 127.45717234257609,160.19490751507692 121.10423116618767,156.32521580980392 114.8070175438188,156.52198039164068 108.8998968009837,159.93255631637294 106.55933952517807,163.80222496780334 105.66769865853712,167.3439339225297 106.61506707943045,173.77142689266475 108.06398348812945,176.46045983175281 112.3550051599741,180.19885163853178 113.02373581030406,185.51126345264493 123.27760577900335,185.11775306460913 124.1135190918576,179.67416646145284 127.79153766762465,176.39487380470382 129.79772961791605,172.91880419908557 130.4107327137608,167.60628191003343 128.9618163050618,162.09695030475268 125.67389060882851,158.42403471894795 119.98968008253723,156.32521580980392 114.02683178521693,156.8499212191091 109.45717234257609,159.4734414454433 107.2280701752752,162.16253788070753 105.50051599578,167.60628191003343 105.66769865853712,170.7544488927815 107.61816305480897,176.0013574922923 112.41073271399364,180.3956084625679 112.91228070179932,185.44567840563832 123.44478844152763,185.1833381469478 124.16924664587714,179.80533779849065 128.5717234259937,175.4110825447715 130.24355005146936,171.73824771831278 130.3550051599741,166.03219228063244 128.9618163050618,162.03136272187112 123.61197110405192,157.440214261238 117.31475748191588,156.25962760159746 110.68317853426561,158.29285875044297 106.61506707943045,163.21193812793354 105.61197110428475,166.03219228063244 105.77915376680903,171.47590152110206 108.2868937049061,176.7228038694593 112.18782249744982,180.26443725364516 113.02373581030406,185.6424335250631 123.7791537665762,185.05216797516914 123.8348813210614,180.0676803869428 128.9618163050618,174.62404838576913 130.3550051599741,169.57388819224434 129.07327141356654,162.81841324846027 126.73271413799375,159.40785357856657 123.55624354979955,156.98109750048025 117.09184726513922,155.99727469793288 110.46026831795461,158.42403471894795 106.61506707943045,163.27752558304928 105.44478844152763,168.19656446605222 107.28379772976041,175.14873793860897 112.46646026824601,180.19885163853178 112.91228070179932,185.51126345264493 123.66769865853712,185.05216797516914 123.8348813210614,180.13326601620065 129.1847265220713,174.62404838576913 130.57791537651792,169.3771278518252 128.85036119702272,162.2937130110804 123.72342621232383,157.30903807928553 117.59339525271207,155.93168645433616 114.69556243531406,156.52198039164068 110.96181630529463,158.22727075533476 108.17543859640136,160.7851972960052 106.16924664610997,164.19574920798186 105.33333333325572,168.06539061438525 106.44788441690616,173.50908157636877 108.56553147593513,176.9195618230151" stroke="#4DD2FF" stroke-linecap="round" stroke-linejoin="round" stroke-width="0.5"><title>2020-04-12 10.0km</title><desc>1586649823000</desc></polyline><polyline fill="none" points="188.0,154.4934821818024 184.44514106586576,155.15758931729943 175.13479623850435,160.20478003751487 177.33542319759727,163.79091661574785 178.29467084631324,169.70135520183248 175.30407523503527,176.40863783890381 171.29780564294197,179.86186365323374 170.78996865218505,185.37370302306954 159.95611285278574,185.17448077641893 159.39184952969663,179.52982355473796 154.3134796237573,175.21328591025667 152.22570532909594,170.03340062318603 153.52351097180508,162.26349063764792 158.48902821308002,156.2865697965026 162.38244514120743,154.82553583936533 171.52351097180508,156.22015923750587 175.30407523503527,158.81016570318025 177.84326018812135,165.6503865837003 177.7304075236898,170.96312684565783 175.58620689669624,175.6117368119303 171.12852664594539,179.72904763539555 170.73354231985286,185.30729561456246 159.8996865202207,185.24088819907047 159.27899686526507,179.66263961576624 154.76489028241485,175.7445537216845 152.73354231985286,172.4905311507755 152.0564263323322,166.6465288893669 155.2727272727061,159.73990894533927 159.27899686526507,156.35298034810694 165.93730407534167,154.82553583936533 174.17554858955555,157.6811898711021 177.33542319759727,164.2557846363634 178.01253918511793,169.1036729904008 176.03761755488813,174.68201763834804 171.01567398104817,179.99467964225914 171.0721003136132,185.30729561456246 159.78683385578915,185.24088819907047 159.27899686526507,179.66263961576624 154.031347962562,175.2796944117872 152.45141065842472,172.15848706034012 152.0564263323322,166.91216656425968 152.90282131684944,162.92758935655002 158.54545454564504,156.48580143006984 162.72100313496776,154.8919465492363 170.28213166142814,156.15374867152423 175.13479623850435,159.20862726529595 177.78683385578915,165.25192920811241 177.89968652045354,169.3029004590935 175.86833855789155,175.21328591025667 171.24137931037694,179.86186365323374 170.95924764918163,185.30729561456246 159.78683385578915,185.30729561456246 159.16614420083351,179.66263961576624 154.65203761775047,175.81096216588048 152.6771159877535,172.15848706034012 152.33855799376033,165.11911002540728 155.2727272727061,159.73990894533927 158.7147335424088,156.55221196007915 161.25391849526204,155.55605325312354 167.63009404367767,155.22399999113986 174.06269592465833,157.6811898711021 177.6739811913576,164.58783300674986 177.84326018812135,169.568536982988 175.52978056413122,175.81096216588048 171.24137931037694,179.59623158880277 170.95924764918163,185.10807334637502 159.84326018835418,185.5065178181976 159.1097178682685,179.52982355473796 154.36990595632233,175.41251139366068 152.6771159877535,172.22489589301404 152.0,165.31833878881298 155.21630094083957,159.73990894533927 158.6018808777444,156.55221196007915 161.47962382459082,155.35682131745853 165.7680250783451,154.95835725206416 172.59561128541827,156.41939089266816 175.1912225706037,158.74375541787595 177.84326018812135,166.4473005576874 177.7304075236898,171.09594476240454 175.47335423179902,175.81096216588048 171.41065830737352,179.79545564798173 171.12852664594539,185.37370302306954 159.84326018835418,185.37370302306954 159.1097178682685,179.72904763539555 154.9905956115108,176.54145457601408 152.45141065842472,172.68975751893595 152.28213166166097,164.98629081383115 154.82131661451422,159.9391394566046 159.6739811913576,155.9545169302146 165.09090909082443,154.82553583936533 167.91222570557147,155.22399999113986 172.65203761751764,156.9506749896682 175.07836990593933,158.87657598167425 177.6175548590254,164.85347157355864 177.6739811913576,171.09594476240454 175.52978056413122,175.5453283463139 171.18495297804475,179.92827165150084 171.18495297804475,184.57681364798918 168.7586206898559,184.84244355466217" stroke="#4DD2FF" stroke-linecap="round" stroke-linejoin="round" stroke-width="0.5"><title>2020-04-08 10.0km</title><desc>1586343893000</desc></polyline><polyline fill="none" points="48.0,194.47770973452134 43.52073732740246,195.45397883228725 34.72811059933156,200.8559725006926 37.2165898620151,205.60708341631107 37.32718894025311,209.8374930251739 34.83870967756957,216.2155927476706 30.746543779037893,219.92527267121477 30.52534562232904,225.39212765765842 19.631336405640468,225.32704634330003 18.967741935513914,219.53478112613084 14.930875576101243,216.28067504888168 12.497695852536708,212.31064176996006 12.276497696060687,206.90875108365435 13.493087557610124,202.4830695099081 18.470046082977206,197.27634357073111 23.225806451868266,195.64923246146645 27.59447004646063,196.10482401621994 33.40092165931128,198.77328189951368 36.165898617589846,203.979994866997 37.32718894025311,209.9025760172517 34.78341013845056,216.41083963029087 30.691244239686057,219.99035457067657 30.470046082977206,225.4572089650319 19.74193548387848,225.26196502166567 19.299539170460775,219.99035457067657 14.26728110597469,215.2393573820591 12.221198156708851,210.3581567647052 12.552995391888544,204.95624852529727 14.986175115220249,200.1400484207552 18.470046082977206,197.08109047019389 20.847926267422736,196.23499296832597 28.092165898764506,196.10482401621994 33.23502304172143,198.643113497179 37.16129032266326,205.8674171756138 36.60829493100755,212.8313033665181 34.23041474679485,216.99657989788102 30.691244239686057,220.05543646315346 30.691244239686057,225.32704634330003 19.85253456234932,225.4572089650319 19.188940092222765,219.99035457067657 13.769585253437981,214.52345043962123 12.0,208.01516638381872 13.43778801849112,202.67832085496048 18.359447004739195,196.88583730638493 24.663594470126554,195.45397883228725 32.129032257944345,197.73193389171502 34.56221198150888,200.20513246336486 37.382488479372114,206.90875108365435 36.49769585253671,212.8313033665181 33.84331797249615,217.25690872228006 30.91244239662774,219.92527267121477 30.580645161680877,225.32704634330003 19.631336405640468,225.39212765765842 19.078341013984755,219.86019076459343 13.990783410379663,215.43460458214395 12.055299539119005,209.8374930251739 12.884792626835406,204.0450784934801 18.52534562209621,196.82075290434295 24.663594470126554,195.64923246146645 32.29493087576702,197.40651226899354 35.39170506922528,201.70206349523505 37.493087557842955,207.42941736109788 37.54838709672913,210.4232397005544 36.11059907870367,214.39328544936143 30.746543779037893,219.86019076459343 30.746543779037893,225.32704634330003 20.018433179939166,225.52229026547866 19.02304147486575,220.2506820980925 13.990783410379663,215.30443978944095 12.110599078470841,210.74865427333862 12.276497696060687,205.34674954460934 14.820276497630402,200.7908885285724 19.078341013984755,196.88583730638493 23.77880184352398,195.7794015124091 27.539170507108793,196.03973952954402 33.29032258084044,198.44786084076623 36.3870967742987,203.91491123329615 37.10599078354426,211.269317223283 35.612903226166964,215.30443978944095 30.857142857275903,219.79510885104537 30.691244239686057,225.0667210148531 20.350230415118858,225.52229026547866 19.631336405640468,225.13180235767504 19.02304147486575,220.05543646315346 15.262672811280936,216.99657989788102 12.497695852536708,212.11539355490822 12.055299539119005,207.299250833923 13.216589862015098,203.06882335455157 18.470046082977206,196.88583730638493 21.179723502369598,195.7794015124091 27.92626728117466,196.10482401621994 32.018433179939166,197.6668495812919 35.612903226166964,201.83223123499192 37.2165898620151,207.16908427875023 36.663594470126554,212.63605532079237 33.95391705073416,217.06166211451637 30.801843317924067,219.92527267121477 30.691244239686057,224.80639557377435 26.101382488617674,225.0667210148531" stroke="#4DD2FF" stroke-linecap="round" stroke-linejoin="round" stroke-width="0.5"><title>2020-04-07 10.0km</title><desc>1586257895000</desc></polyline><polyline fill="none" points="94.66666666674428,194.20307558221975 90.93668236513622,195.00125598802697 81.66823652549647,200.65500416082796 84.38095238106325,206.77429646265227 84.04186289897189,211.96234434418147 81.55520669789985,216.7512727167923 77.88173731020652,219.81084629223915 77.59916274202988,225.6639010933577 66.57875457871705,225.39785435819067 65.84406070108525,220.14340771868592 61.60544217657298,216.61824743298348 59.23181580309756,211.82931802305393 58.892726321006194,206.7077827437315 61.83150183130056,199.72380216018064 65.67451596003957,195.99898003647104 69.00889586564153,195.13428595487494 74.60387231782079,195.66640553373145 80.08581894263625,198.12745258805808 84.21140764001757,206.50824154372094 83.53322867606767,213.22609295864822 80.99005756131373,217.08383580035297 77.82522239675745,219.87735859194072 77.88173731020652,225.39785435819067 66.74829931929708,225.73041275911964 65.73103087372147,220.14340771868592 60.53165881708264,214.88891612068983 58.94924123492092,210.69859312905464 59.34484563046135,204.5793399331742 61.944531658431515,199.72380216018064 68.16117216087878,195.73292044864502 73.58660387224518,195.40034580189968 80.36839351127855,197.92790859978413 83.81580324447714,205.8431037417031 83.13762428052723,213.62517092825146 80.59445316554047,217.74896142701618 77.88173731020652,220.0103831696324 77.54264782811515,225.26483094709693 66.91784406034276,225.79692441783845 66.07012035558,220.40945673023816 61.49241234944202,216.55173478019424 59.23181580309756,211.69629167288076 59.34484563046135,204.5793399331742 61.49241234944202,200.38894659047946 65.73103087372147,196.46458403760334 70.0261643116828,195.13428595487494 74.20826792251319,195.2673158926773 80.93354264763184,199.12517155712703 83.64625850343145,204.04722807795042 83.81580324447714,211.89583118719747 81.21611721627414,216.68476007843856 77.65567765571177,220.07689544785535 77.54264782811515,225.33134265616536 66.8613291468937,225.6639010933577 66.01360544213094,220.14340771868592 60.87074829917401,215.6205568856094 59.00575614813715,211.03115949040512 59.11878597573377,205.57704841939267 61.88801674498245,199.923345564981 66.29618001030758,196.06549491541227 73.36054421775043,195.06777097494341 80.14233385655098,198.46002575795865 82.96807953948155,202.05180451384513 83.98534798505716,205.44402071472723 84.26792255369946,210.09997322468553 83.36368393502198,213.4256319758133 80.93354264763184,217.21686098328792 77.65567765571177,220.07689544785535 77.59916274202988,225.4643660527072 66.97435897425748,225.6639010933577 66.07012035558,220.60899341345066 61.040293039986864,215.6205568856094 58.94924123492092,210.63207983510802 59.288330716546625,204.7123678251519 61.60544217657298,200.1228889048216 64.93982208240777,196.9301876857062 68.04814233374782,195.73292044864502 75.16902145463973,195.46686074574245 78.95552066969685,196.66412850143388 82.00732600688934,200.58848977898015 84.04186289897189,205.17796521948185 83.9288330716081,212.6274755182094 80.82051282050088,217.5494238146348 77.82522239675745,220.3429444883368 77.31658817385323,225.4643660527072 66.8048142332118,225.79692441783845 65.84406070108525,220.20991998247337 61.548927262891084,216.35219677881105 59.288330716546625,212.09537063667085 58.66666666674428,208.10456932877423 60.249084248906,202.45088974543614 65.44845630531199,196.66412850143388 69.91313448431902,195.33383085095556 73.81266352673993,195.46686074574245 79.29461015155539,197.1962467545527 82.1203558347188,200.38894659047946 84.32443746714853,206.8408101744717 84.32443746714853,210.4325399104273 82.85504971188493,214.95542895363178 77.71219256916083,220.3429444883368 77.48613291466609,225.53087774006417 69.85661957063712,225.33134265616536" stroke="#4DD2FF" stroke-linecap="round" stroke-linejoin="round" stroke-width="0.5"><title>2020-04-02 10.0km</title><desc>1585825459000</desc></polyline><polyline fill="none" points="141.33333333325572,194.02425305714132 140.84757621167228,195.42177030822495 134.31684157904238,197.32747028331505 127.354322838597,201.71055672416696 129.67516241851263,206.03008812241023 130.21489255339839,210.54015313042328 128.37981009483337,215.875959898578 123.84607696137391,220.7035527630942 123.19840079941787,225.91222681308864 112.83558220858686,225.65814622543985 112.07996001979336,220.4494699188508 107.49225387303159,216.3206082712859 105.7651174410712,212.25523917161627 105.65717141423374,207.5546210198081 106.73663168400526,203.67975880764425 109.9210394800175,199.74134802818298 115.4262868561782,196.81928422872443 121.2013993000146,197.20042381092208 124.49375312332995,198.40736418694723 126.86856571701355,200.4401002578088 129.5132433779072,206.53826619510073 129.83708145935088,211.87410937366076 128.05597201362252,216.44765060173813 123.52223888062872,220.51299064030172 123.3603198400233,225.97574694291689 112.78160919505171,225.8487066765083 112.29585207346827,220.64003206242342 108.35582208866253,217.52750929794274 106.30484757595696,214.35144863289315 105.44127936009318,207.17348816699814 108.19390304805711,201.26589727401733 115.10244877520017,196.8828075096826 120.55372313829139,197.0733773112297 124.70964517723769,198.47088729572715 127.19240379775874,200.82123748678714 129.5132433779072,206.4112217183574 129.94502748618834,211.11184903467074 127.67816091910936,216.765256306855 123.73813093430363,220.4494699188508 123.52223888062872,225.91222681308864 112.7276361817494,225.65814622543985 112.29585207346827,220.83059414388845 107.06046976475045,215.62187496293336 105.44127936009318,208.82506207353435 106.84457771084271,203.36214601557003 112.13393303309567,198.08974853926338 117.42328835558146,196.6922376464354 125.03348325821571,198.72497966245282 129.02748625678942,204.37850634456845 130.0529735130258,210.54015313042328 128.81159420264885,215.17722606047755 123.52223888062872,220.64003206242342 123.46826586686075,225.8487066765083 112.88955522235483,225.8487066765083 111.97201399295591,220.51299064030172 108.35582208866253,217.4004672015435 106.03498250851408,213.97032019717153 105.44127936009318,207.87223154120147 108.40979510219768,201.26589727401733 114.72463768091984,196.37462106981548 119.8520739628002,196.94633078365587 126.65267366287299,200.7577146323747 129.7831084455829,206.47474396013422 129.99900049949065,211.3024142125505 127.30034982482903,217.4004672015435 123.68415792100132,220.4494699188508 123.30634682625532,225.78518653311767 112.94352823565714,225.91222681308864 112.13393303309567,220.3859491906478 108.35582208866253,217.46398825303186 106.41279360302724,214.66905547335045 105.49525237362832,207.80870945064817 107.87006496731192,201.96464768715668 112.40379810077138,197.58156314544613 116.34382808557712,196.6922376464354 121.90304847550578,197.58156314544613 124.6016991501674,198.40736418694723 126.81459270324558,200.82123748678714 129.7831084455829,206.72883285896387 130.10694652656093,211.55650101957144 127.51624187873676,217.01934074726887 123.73813093430363,220.7035527630942 123.30634682625532,225.8487066765083 112.83558220858686,225.8487066765083 112.29585207346827,220.64003206242342 108.24787606182508,217.01934074726887 105.60319840046577,211.6835443818709 105.33333333325572,207.9357536250027 106.68265867047012,203.61623626295477 111.7021489252802,198.02622538915602 116.72163918032311,196.62871434475528 122.92853573197499,197.96270223218016 126.86856571701355,201.01180600811495 129.83708145935088,207.0464438276249 129.94502748618834,212.06467430357588 127.24637681129389,217.33694614307024 123.79210394783877,220.3859491906478 123.52223888062872,225.5946260613855 122.38880559708923,225.78518653311767" stroke="#4DD2FF" stroke-linecap="round" stroke-linejoin="round" stroke-width="0.5"><title>2020-03-23 10.0km</title><desc>1584960411000</desc></polyline><polyline fill="none" points="179.17920319375116,192.0 179.71218918578234,196.77467508608242 180.51166817359626,199.2491138552141 180.45244750776328,209.7739787857863 179.20881352678407,209.49517885659589 178.61660686903633,211.20282463086187 175.6555735807633,212.17861814668868 171.5101269769948,214.5832395348698 172.8129816239234,217.23178722066223 172.99064362130594,220.0894063237647 172.01350263610948,222.70306010977947 169.3485726766521,225.14245115456288 169.40779334236868,227.72121586403227 163.66338876297232,227.89545597723918 163.21923376969062,225.0030578788719 161.23534146661405,223.33033385904855 159.8140454881359,220.85608030154253 159.48833182652015,218.79999596840935 159.8140454881359,216.4999538558477 161.02806913631503,214.4786911525589 164.40364708506968,211.7604212880251 167.27584937482607,211.8301208022167 170.32571366173215,212.805912415497 171.45090631139465,213.85140014538774 172.93142295547295,216.987842950708 173.0498642870225,219.49697518060566 171.92467163747642,222.73790868345532 169.52623467403464,224.8636645426741 169.20052101218607,227.7909119205724 163.63377843005583,228.0 163.16001310397405,225.03790620341897 161.146510467981,223.26063683617394 159.87326615396887,220.85608030154253 159.66599382378627,217.30148554957123 161.05767946934793,214.6529384374444 164.25559542072006,211.79527104704175 168.016107696807,211.93467004518607 170.76986865501385,213.11955909107928 172.66492995957378,216.2211597551941 173.0498642870225,219.7409175481589 171.92467163747642,222.73790868345532 169.49662434100173,225.07275452432805 169.40779334236868,227.82575994331273 163.57455776433926,227.89545597723918 163.18962343700696,224.96820955045405 161.1761208010139,223.0515456770372 159.8140454881359,220.85608030154253 159.69560415670276,217.4060330146458 160.93923813779838,214.54839007783448 164.8181917454349,211.7604212880251 169.43740367528517,212.28316727641504 171.48051664419472,213.85140014538774 172.69454029237386,216.2211597551941 173.0498642870225,219.60152193208341 172.01350263610948,222.59851436593453 169.52623467403464,225.07275452432805 169.43740367528517,227.86060796215315 163.57455776433926,227.96515199623536 163.16001310397405,224.8636645426741 160.93923813779838,222.84245438192738 159.93248681980185,221.06517288752366 159.72521448961925,216.9529937542393 161.087289802148,214.4786911525589 164.28520575352013,212.0043695216591 167.54234237072524,212.0043695216591 170.56259632471483,213.01501023327 171.5101269769948,213.78170106897596 172.90181262255646,217.0923905177042 173.10908495273907,219.77576644258806 171.77661997301038,222.84245438192738 169.52623467403464,225.1076028412499 169.40779334236868,227.86060796215315 163.54494743153919,227.86060796215315 163.16001310397405,224.93336121834 160.0509281513514,221.23941660526907 159.6363834909862,219.70606864977162 159.75482482241932,216.77874771493953 161.23534146661405,214.30444377326057 164.67014008108526,212.1437684292323 168.75636601890437,212.38771637217724 171.59895797574427,213.88624967777287 172.75376095820684,216.11661190516315 173.079474619939,219.84546422047424 171.83584063872695,223.0515456770372 169.5854553396348,224.96820955045405 169.5854553396348,227.82575994331273 163.4857267657062,227.86060796215315 163.2784544355236,224.96820955045405 160.49508314451668,222.1803310510004 159.6067731580697,219.91516198313911 159.72521448961925,216.67420004607993 161.087289802148,214.30444377326057 164.01871275762096,212.35286667742184 166.71325304999482,212.03921925424947" stroke="#4DD2FF" stroke-linecap="round" stroke-linejoin="round" stroke-width="0.5"><title>2019-12-13 10.0km</title><desc>1576239112000</desc></polyline><polyline fill="none" points="38.07950031501241,233.32013434770488 37.66262192040449,232.0 38.139054371393286,237.15193720014213 38.01002058252925,237.64258504909958 37.57329083583318,237.60753884818405 37.44425704702735,238.21500471814215 36.71968269441277,238.3435066752645 35.022392087674234,239.34815306175005 35.4690475105308,240.32942654395447 35.5186758908676,241.22891939286637 35.30031101743225,241.85972808435326 34.36729746754281,242.81761570902745 34.31766908726422,243.26151196751744 34.49633125640685,248.15593117001845 35.548452919058036,248.55308193647943 36.17377051099902,248.98527375616686 37.732101652771235,249.17216697972617 37.89091246982571,249.40578305385134 38.1787570756278,261.52976289379876 38.4169733011513,263.6787655378066 38.34749356872635,267.64963608418475 37.91076382197207,267.81313938645326 32.83874335390283,267.7547453783409 30.873459493508562,268.0 29.722081070241984,267.87153336293704 29.444162140483968,265.6875771346895 29.225797267106827,255.81834675026766 25.493743067549076,255.28106096160627 25.31508089840645,255.04745761019876 24.600432221894152,254.94233593706304 24.372141672414728,254.13639970667282 24.58058086974779,253.76263013602875 24.471398433088325,253.51734315149952 23.52845920715481,252.6997158419399 22.664925389690325,252.95668509267125 22.198418614745606,252.80483970031491 21.781540220079478,252.20913648178976 21.5830266988487,251.39149925720267 21.612803727039136,245.46928464043594 21.860945628606714,243.915671544848 22.11901320621837,243.30823778318882 22.059459149837494,242.65407452169165 23.26046595344087,234.67529969892348 24.808871419227216,234.65193492335675 28.133972900221124,234.92062953672576 28.302709393261466,235.06081776483188 34.44670287607005,236.19399925168545 36.630351609841455,236.8014730841751" stroke="#4DD2FF" stroke-linecap="round" stroke-linejoin="round" stroke-width="0.5"><title>2019-11-23 10.0km</title><desc>1574497580000</desc></polyline></svg>