<?xml version="1.0" encoding="utf-8" ?>
<svg baseProfile="full" height="300mm" version="1.1" viewBox="0,0,200,300" width="200mm" xmlns="http://www.w3.org/2000/svg" xmlns:ev="http://www.w3.org/2001/xml-events" xmlns:xlink="http://www.w3.org/1999/xlink"><defs /><rect fill="#222222" height="300" width="200" x="0" y="0" /><text fill="#FFFFFF" style="font-size:12px; font-family:Arial; font-weight:bold;" x="10" y="20">Over 10km Runs</text><text fill="#FFFFFF" style="font-size:4px; font-family:Arial" x="10" y="280">Runner</text><text fill="#FFFFFF" style="font-size:9px; font-family:Arial" x="10" y="290">Floyd Li</text><text fill="#FFFFFF" style="font-size:4px; font-family:Arial" x="65" y="280">SPECIAL TRACKS</text><rect fill="yellow" height="2.6" width="2.6" x="65" y="283" /><text fill="#FFFFFF" style="font-size:3px; font-family:Arial" x="70" y="285.5">Over 20.0 km</text><rect fill="red" height="2.6" width="2.6" x="65" y="287" /><text fill="#FFFFFF" style="font-size:3px; font-family:Arial" x="70" y="289.5">Over 40.0 km</text><text fill="#FFFFFF" style="font-size:4px; font-family:Arial" x="120" y="280">STATISTICS</text><text fill="#FFFFFF" style="font-size:3px; font-family:Arial" x="120" y="285">Number: 31</text><text fill="#FFFFFF" style="font-size:3px; font-family:Arial" x="120" y="290">Weekly: 1.7</text><text fill="#FFFFFF" style="font-size:3px; font-family:Arial" x="141" y="285">Total: 463.4 km</text><text fill="#FFFFFF" style="font-size:3px; font-family:Arial" x="141" y="290">Avg: 14.9 km</text><text fill="#FFFFFF" style="font-size:3px; font-family:Arial" x="167" y="285">Min: 10.0 km</text><text fill="#FFFFFF" style="font-size:3px; font-family:Arial" x="167" y="290">Max: 52.6 km</text><polyline fill="none" opacity="1" points="32.851187120541,53.02399042516481 18.449929905385943,52.9517939178113 18.342515093972906,52.78935154801002 18.373205040115863,47.75348131602368 18.4806198515289,47.64517969486769 18.91795158368768,47.65420483535854 18.518982284149388,47.65420483535854 18.495964824571274,47.53687793325662 20.145549428329105,47.50980247087864 26.590438112791162,58.51074234316911 26.475350814842386,58.50171837613016 26.421643409121316,62.47216970658337 25.600687350524822,62.57142857142753 15.051018373022089,62.52631092019146 14.759463884896832,62.50826385290566 14.629031613905681,62.318769410696405 14.667394046555273,53.18643233846524 32.47523528060992,53.159358708209766 35.15293307922548,53.57448674100306 37.51605893022497,53.2315550360654 39.27305834539584,53.29472677176091 39.55694034695625,53.11423597156681 39.65668267180445,52.879597348030074 39.61832023918396,52.37421961160726 39.28073083193158,50.352678075076255 36.81786265608389,38.231426887141424 36.687430385063635,38.09603439432249 36.296133572090184,38.16824375116266 36.211736220284365,38.06895586942119 36.09664892236469,36.98580766785744 34.54680664345506,31.714285714282596 36.52630816795863,38.7459163567255 39.28840331846732,52.86154819584044 39.21935093970387,52.99691674220958 37.58511130898842,53.02399042516481 36.50329070840962,53.21350595995318 35.958544164837804,52.91569564072415" stroke="#4dd2ff" stroke-dasharray="none" stroke-linecap="round" stroke-linejoin="round" stroke-width="0.5"><title>2026-06-02 16.9km</title><desc>1780401150000</desc></polyline><polyline fill="none" opacity="1" points="78.83498854085337,49.83052300858253 78.65164247516077,50.48878616219736 78.56913674558746,51.92400057208579 75.40641711227363,55.76552531786729 75.08556149731157,56.520863871737674 74.82887700531865,57.74018401887588 59.63865546218585,57.65386095971189 52.7448433918762,58.18258852258441 51.83728036668617,55.366272624756675 50.85637891513761,53.75845503492019 48.89457601221511,51.45998614627024 48.40870893804822,50.4779949980657 48.16119174938649,49.18304680838628 48.335370511806104,47.83412453340134 48.72039724973729,46.94922159331327 50.47135217720643,44.73692982979992 51.09472880058456,43.474282737020985 52.075630252074916,37.43062186062161 52.24064171122154,37.18239222894772 71.6753246752778,36.804650297206535 76.05729564552894,36.10312576314027 76.82734912144952,38.00262691577518 77.01069518714212,42.42746061078651 79.0,50.49957732519397 78.94499618024565,51.233373664013925 78.66080977843376,51.913209563470446 75.42475171887781,55.743944132140314 74.79220779216848,57.74018401887588 59.629488158854656,57.65386095971189 52.78151260496816,58.161007860675454 51.626432391116396,54.97780900840007 50.883880825014785,53.844781471110764 49.582123758562375,52.431176656944444 48.69289533991832,51.179418235085905 48.28953399538295,50.13267712767265 48.14285714284051,49.10750764408294 48.25286478223279,48.049953325615206" stroke="#4dd2ff" stroke-dasharray="none" stroke-linecap="round" stroke-linejoin="round" stroke-width="0.5"><title>2026-05-28 19.4km</title><desc>1779966212000</desc></polyline><polyline fill="none" opacity="1" points="108.0530784195289,48.264452408708166 108.22626290167682,48.65169257792877 111.0664884087746,50.09874089588993 112.34805357665755,50.52673897072964 113.69889253732981,50.50635813205736 113.97598770877812,50.771308862182195 114.14917219086783,61.47093054934521 113.5257080551819,61.85814354996546 109.76760479278164,62.40839223335206 104.83184705168242,62.57142857143481 100.62346413568594,62.32687401142903 93.48826347151771,61.287513586794375 85.95473849837435,61.22637455964286 85.66032487875782,53.64498128273408 85.83350936090574,51.341970706460415 100.69273792853346,50.771308862182195 104.52011498395586,48.73321672259772 104.2776567087858,39.80611310119275 102.59776723210234,37.84943107047002 102.0262584410375,36.23922955598391 102.04357688932214,35.50546227062296 102.90949929994531,33.24299512874859 104.12179067492252,32.24423971772194 105.66313256602734,31.77543432933453 108.22626290167682,32.36653658351861 109.0921853124164,33.24299512874859 109.81956013734452,34.62901426326425 109.97542617132422,35.668521914616576 109.66369410342304,37.31949285257724 107.89721238560742,39.744967095699394 108.1050337642082,48.40711993217701 111.13576220173854,50.15988353759167 113.73352943378268,50.50635813205736 114.01062460511457,50.812070479863905 114.33967512124218,61.00219795657904 114.1318537426996,61.593208425081684 109.97542617132422,62.3676331267925 104.08715377852786,62.55104903693427 100.57150879106484,62.3064944503858 93.3670343341073,61.246754237567075 86.5262472894392,61.32827292729053 85.95473849837435,61.04295735884807 85.76423556805821,51.44387442509469 86.64747642696602,51.199305407557404 100.51955344650196,50.7916896721581 104.52011498395586,48.672073617432034 104.31229360535508,39.68382107029902 102.59776723210234,37.76790221098054 102.09553223394323,35.19972505720216 103.15195757499896,32.998402456971235 104.55475188029232,32.04041143153154 105.55922187678516,31.81620006164303 106.91006083739921,31.897731499775546 108.26089979812969,32.42768498660007 108.8670454856474,32.89648874993145 109.7502863445552,34.48633629429969 109.95810772309778,36.15769999884651 109.62905720702838,37.44178641992039 107.89721238560742,39.56152895993728 108.1050337642082,48.42750099810655 111.10112530516926,50.119121778712724 114.06257994985208,50.75092805000895 114.30503822484752,61.10409644561878 114.06257994985208,61.67472696474579 110.56425341055728,62.32687401142903 105.26480825705221,62.57142857143481 100.25977672322188,62.28611488718889 93.40167123044375,61.287513586794375 86.00669384311186,61.246754237567075 85.78155401622644,51.42349368578289 88.5005503858556,51.117782331071794 100.83128551428672,50.75092805000895 104.53743343206588,48.59054944629315 104.26033826067578,39.6634390574327 102.3553089571069,37.21758148574736 102.11285068216966,36.38190619582019 102.19944292318542,34.66977937736374 103.4463711946155,32.713043938201736 104.19106446777005,32.18309125506494 106.26927825348685,31.714285714289872 107.8798939374974,32.20347407813824 108.65922410704661,32.774192228665925 109.59442031063372,33.97677123636822 109.95810772309778,35.07743003281939 109.87151548208203,36.830317788393586 108.97095617494779,38.46089639051934 107.93184928211849,39.43923677012208" stroke="#ffc200" stroke-dasharray="none" stroke-linecap="round" stroke-linejoin="round" stroke-width="0.5"><title>2026-05-27 20.2km</title><desc>1779879632000</desc></polyline><polyline fill="none" opacity="1" points="125.54649474855978,58.10203349217045 125.1222781999968,56.46293894648261 124.44906498165801,54.92151430754893 121.50721543852706,51.11127133811533 121.06455469224602,49.79773517913418 121.01844419777626,48.51674944053957 121.5809922295739,46.888354086957406 123.3055247204029,44.771400542413176 123.9510716421064,43.49035050988459 125.06694560672622,37.13914008971915 144.9036803006311,36.737426055369724 148.98907010501716,36.053422774682986 149.61617282906082,37.551709582447074 149.8651694987784,38.5939828338669 149.97583468537778,43.175513671158114 151.12859704555012,46.8992101436379 151.8571428571595,49.90629253953375 151.65425668179523,50.74218027331517 151.62659038515994,51.9037269704495 148.3527452822891,55.898476338341425 147.79019725049147,57.787242580721795 132.27862693194766,57.711258419389196 125.69404833071167,58.23229151103442 125.53727264964255,58.10203349217045 125.15916659554932,56.517214029656316 124.53206387162209,55.05177646216907 123.77585176337743,53.89026627104613 122.40175903000636,52.392223894064955 121.51643753744429,51.13298253487301 121.04611049441155,49.64575467697432 121.0,48.82071364080912" stroke="#4dd2ff" stroke-dasharray="none" stroke-linecap="round" stroke-linejoin="round" stroke-width="0.5"><title>2026-05-26 19.0km</title><desc>1779792854000</desc></polyline><polyline fill="none" opacity="1" points="166.80190339346882,33.419788400889956 168.38820556283463,32.55700664782489 171.42435380094685,31.714285714289872 174.5628441144945,31.934998709577485 176.72908471134724,33.339529802353354 178.0083606543485,35.6068218506407 178.07658870471641,37.83395786801702 177.32608015142614,40.562664664073964 177.20668106339872,42.00725790292199 177.59899235260673,44.81615701445844 178.63947011955315,46.88267707702471 180.5327985152253,49.049488938078866 182.3237848355202,51.898406782755046 183.50071870308602,55.048215758710285 183.87597297964385,57.495801119468524 172.3113184547401,62.55136707601196 169.97450773214223,59.221128785735345 165.07914512354182,54.3460336735734 162.81056245125365,50.213136720325565 162.06005389796337,47.40431928122416 161.82125572196674,44.05374574447342 162.55470726260683,39.53940431692172 163.93632528110174,36.289010497232084 165.72731160133844,34.26250158970652 168.50760465074563,32.49681242232327 171.5266958763823,31.714285714289872 174.34110295103164,31.854739468966727 176.6096856232616,33.21914183953777 177.87190455378732,35.145339873604826 178.12775974237593,37.67344445413619 177.24079508858267,41.405345419829246 177.4795932645793,44.39482485766348 178.55418505670968,46.78236110047146 182.20438574749278,51.457028007193 183.29603455221513,54.36609605574631 183.8418589545181,57.596111306513194 175.2962956551928,61.086872054220294 172.3795465050498,62.57142857143481 170.07684980757767,59.38162356747489 166.46076314197853,55.951017393992515 164.58449175884016,53.724098751481506 163.2369877655874,51.25640094409755 162.28179506142624,48.52785135728482 161.82125572196674,44.73590334410255 162.06005389796337,42.027321618719725 162.81056245125365,38.67665101327293 164.1580664445646,36.008109593516565 165.26677226182073,34.70392125660146 167.92766622331692,32.7576539250731 171.03204251179704,31.774480193591444 174.25581788812997,31.834674653408 176.6267426359118,33.259271169124986 177.51370728970505,34.36282433348242 177.95718961663079,35.46637093566824 178.12775974237593,37.17183914105408 177.24079508858267,41.54579184045724 177.51370728970505,44.63558620722324 178.58829908183543,46.82248749754217 180.49868449015776,49.06955189266591 182.13615769718308,51.557341457446455 183.15957845159573,53.944785575265996 183.89302999229403,57.415552930760896 172.29426144214813,62.471121072609094 169.95745071955025,59.261252494179644 165.38617134984815,54.72721856361022 162.96407556446502,50.674581234765355 162.1112249356811,47.52469804319844 161.85536974703427,44.23431711776357 162.60587830038276,39.258508332801284 163.74869814270642,36.61003958088986 165.43734238756588,34.56346965828561 167.79121012269752,32.85797748234472 170.45210408431012,31.894869093652233 173.9658486743574,31.774480193591444 176.18326030898606,32.85797748234472 177.71839144057594,34.86443723885168 178.12775974237593,37.27216031216085 177.2237380759325,41.626046890291036 177.51370728970505,44.57539589908265 178.2812728555291,46.340970159479184 180.82276772899786,49.430684704653686 182.54552599892486,52.35984710790217 183.46660467796028,55.028153450315585 183.87597297964385,57.37542882346315 172.34543247992406,62.511244078632444 170.3156479835743,59.6223654798232 165.3520573247224,54.66703152775881 163.11758867755998,50.99558543784951 162.0429968854296,47.203687837696634 161.85536974703427,43.75279306528682 162.55470726260683,39.41902037580439 163.40755789127434,37.21196761597821 165.24971524917055,34.70392125660146" stroke="#ffb000" stroke-dasharray="none" stroke-linecap="round" stroke-linejoin="round" stroke-width="0.5"><title>2026-05-24 23.2km</title><desc>1779623970000</desc></polyline><polyline fill="none" opacity="1" points="14.833377737522824,77.67922141362033 15.27567386523151,78.31088697837004 15.369394606037531,78.5175739417009 15.426942429337942,78.73198500547369 15.449961558668292,78.98888858305145 15.436807770478481,79.18397831743096 15.145780206898053,80.12849170566551 15.09974194825918,80.50126143284615 15.10467461882945,80.8759548101516 15.310202559208847,82.65467599315343 15.579855216994474,83.8133572531824 15.571634099367657,83.95625609801391 15.426942429337942,84.33473943785975 15.405567523550417,84.54135708014655 15.512442052546248,85.6361978287805 15.69330664008885,86.17876614074885 15.622605028591352,87.64033664045382 15.655489499040414,87.78899699342037 15.737700675199449,87.95310115009306 16.140535438345978,88.33150031872538 16.230967732124554,88.489807811633 16.250698414398357,88.706030427511 16.148756555958244,89.12881534969347 16.209592826315202,89.4434844314037 16.327976919979847,89.60757348552033 16.535149083887518,89.73884365056074 20.08338344663207,91.05728347970216 20.349747657368425,91.12484367834259 20.885764525875857,91.18275221802105 21.46124275895272,91.12484367834259 24.279441877464706,90.3276171601392 24.672411299470696,90.25619320455007 25.13937078001618,90.25426282343506 28.432750496685912,90.52451416320946 28.953969353497087,90.52451416320946 29.508072680771875,90.42992665631937 30.15754097237368,90.22530708183695 30.547221947337675,90.1461611502018 34.00337979278993,89.90099959005602 34.373330085487396,89.81799137516282 34.830424224885064,89.62880843013954 35.124740235514764,89.44541489956646 35.47002717536088,89.15005085979647 36.07181298478827,88.45119635654555 36.6324932061616,87.88552903173695 37.20303876865364,87.22330882805727 37.47597987348854,86.80240983559634 37.86566084844526,85.91810369389168 38.041592765410314,85.66516096398118 38.24054381170572,85.50682858824985 39.550989959578146,84.72673163406034 39.812421499736956,84.48342713979218 39.904498017029255,84.3289463856072 39.97848807556875,84.12039526031731 40.14619887492154,83.46382961232302 40.25307340391737,82.84007001759892 40.32377501540759,82.58901515059188 40.501351155893644,82.09848243731358 40.835128531078226,81.39162827111977 40.830195860507956,81.35493289625992 41.0603871537387,80.9203767024228 41.20014615319815,80.72144302459492 41.747672586367116,80.12269729648506 41.971286985506595,79.82331694460845 42.1899687140758,79.38292903136062 42.44646758367162,78.64892516755208 42.47113093651569,78.63154050166668 42.57142857142753,78.67210469586098 42.46619826594542,78.56586494528528 42.42016000730655,78.6025660211235 42.09624797326251,79.50847931804856 42.03376747938455,79.4891639464804 41.971286985506595,79.37520283119193 42.07158462041116,79.54324693450508 42.00745990301948,79.65913850308243 41.971286985506595,79.67265913735173 41.37607807017048,79.40803915894139 40.281025203810714,79.10092057088332 39.89298845236772,79.03524673178254 37.89854531890887,78.9502567009913 35.69693002154236,78.74743795616996 34.11354276884231,78.74743795616996 33.51340118292865,78.71460042003855 32.82118307972269,78.6025660211235 30.908951122408325,78.12737786677826 30.38115537151316,78.02692997956365 29.721821738763538,77.97670582514729 28.556067260920827,78.03465676007909 28.283126156093203,78.00374961806301 27.600773394027783,77.79705673778699 26.44652848084661,77.5150233603199 26.328144387181965,77.46093426088919 26.201539175905054,77.36241441090897 26.096308870437497,77.21559951333984 25.885848259480554,76.32309363412242 25.647435848644818,75.89421138205216 25.497811508044833,75.73579282248829 25.30543735584797,75.63919545336648 25.141015003537177,75.61408005220801 23.810838173390948,75.70874561155142 23.667790726889507,75.69908588348153 23.52967595095106,75.65078716511744 23.368542045689537,75.53486971058192 23.261667516693706,75.39190381856861 23.084091376207653,74.86832981279986 22.98708218833781,74.66160081325143 22.80128493023949,74.4645298294381 22.56944941348047,74.34087634208481 20.867678067130328,73.85977888349589 18.279670241841814,73.44436306639909 15.768940922134789,72.4666488016046 15.62424925211235,72.44346125503034 13.81889182379382,72.41834137907244 13.000068509318226,72.43573206617475 12.677800698795181,72.39515377004136 12.528176358202472,72.33911692442598 12.324292641344073,72.21351646200492 11.714285714282596,71.67439063912389" stroke="red" stroke-dasharray="none" stroke-linecap="round" stroke-linejoin="round" stroke-width="0.5"><title>2026-05-23 52.6km</title><desc>1779516240000</desc></polyline><polyline fill="none" opacity="1" points="67.51919956522761,66.6331224970636 69.08095512312138,66.02042333954887 70.48653512541205,66.0408466769004 71.597116855497,66.51058282481972 72.69034574605757,67.40920523827663 73.31504796934314,68.47120802332938 73.57534056226723,69.8599718703772 73.4018121669651,71.20787994001876 72.56887586938683,72.63746887851448 71.631822534604,73.43394944266765 71.45829413918545,74.23042664253444 71.75329241127474,82.80766022144235 75.53621142957127,84.64558809084701 77.28884822229156,84.70685204466281 77.61855217354605,85.03359279569122 77.93090328510152,95.14185513404664 77.65325785253663,95.89740045806684 74.73798081098357,96.48958251527802 70.52124080440262,96.81630285453866 63.38922375632683,96.48958251527802 56.04897263384191,95.46857780771097 49.74989188334439,95.63193893231801 49.50695212982828,95.22353585547535 49.21195385773899,88.30096917125047 49.50695212982828,85.54412408581993 64.15274869580753,85.0744353497139 68.0571375907166,82.90976779520861 67.88360919535626,73.86282219913846 65.95744400721742,71.53464408156287 65.66244573524455,69.98250936580007 65.78391561191529,68.96136113732064 66.70361610711552,67.28666607044579 67.76213931868551,66.44931295888091 68.89007388829486,66.02042333954887 70.62535784160718,66.10211667558178 72.53417019027984,67.16412682301598 73.54063488316024,69.1655912254646 73.4018121669651,71.24872548865096 72.72505142522277,72.53535574236594 71.70123389270157,73.41352690615167 71.47564697876805,74.12831436908164 71.68388105317717,82.48091561386536 71.90946796705248,82.88934628490824 75.22386031789938,84.56390278811159 77.63590501295403,84.97232894795889 77.79208056878997,95.7544596829539 75.01562624354847,96.46916247531772 68.49095857905922,96.83672285692592 63.80569190514507,96.53042258869391 56.760439054633025,95.48899795601028 49.87136176007334,95.59109866441577 49.559010648401454,95.32563670762465 49.22930669726338,87.85170827619731 49.42018793220632,85.54412408581993 63.649516349309124,85.11527789493266 65.26333042589249,84.6660094109684 68.09184326982358,82.86892477232323 67.84890351630747,73.90366717267898 66.16567808156833,72.04521191901586 65.67979857471073,69.49235890631098 66.18303092115093,67.98105363505601 67.2936126513523,66.75566208965029 68.42154722090345,66.16338665435615 69.5668346300954,66.0 71.97887932526646,66.73523882971494 73.36710648791632,68.53247723224922 73.45387068553828,71.04449765688332 72.82916846225271,72.3311293040897 71.56241117639001,73.61775217202376 71.47564697876805,74.21000419226766 71.66652821359457,82.62386644934304 75.08503760164604,84.48221745004412 77.58384649443906,84.8906437867845 77.93090328510152,94.22294457994576 77.740022050275,95.79529991540767 74.72062797140097,96.51000255311374 68.87272104877047,96.85714285714494 64.37833560968284,96.59168268213398 57.12484868487809,95.5094181020977 49.50695212982828,95.55025838768051 49.29871805541916,85.60538774772431 64.4824526468874,85.03359279569122 67.88360919535626,83.07313979828905 68.14390178839676,82.7259741226153 68.16125462792115,81.23519660384045 67.90096203493886,74.3121164215263 67.72743363957852,73.6790197086957 66.33920647698687,72.29028398997616 65.80126845143968,71.20787994001876 65.67979857471073,69.55362778347626 65.90538548864424,68.5937464213057 66.7730274652713,67.20497324765893 68.7859568510903,66.08169334490958 70.48653512541205,66.08169334490958 72.25652475771494,66.8782016025798 73.34975364833372,68.53247723224922 73.57534056226723,70.59519564831862 72.95063833909808,72.24943866688409 71.56241117639001,73.57690713655029" stroke="#ffb600" stroke-dasharray="none" stroke-linecap="round" stroke-linejoin="round" stroke-width="0.5"><title>2026-05-17 22.3km</title><desc>1779013233000</desc></polyline><polyline fill="none" opacity="1" points="114.32035238758544,75.78898048699921 114.0014015416964,77.25628291619432 113.18510361397057,79.26979437967384 113.01751927120495,79.4222340896631 111.96876564220292,79.42858573570993 110.2821103213355,80.01928582822075 109.76854539991473,79.98117632331196 108.90899989986792,79.66359615832698 108.63329662627075,79.90495723960339 108.0656722394342,81.02917873959086 107.44939433375839,81.66432265988988 104.24907398136565,78.13918757001375 101.95154670136981,77.76443109352476 101.62178396232775,77.61833894083247 101.47041745917522,77.42143155392841 101.48663529881742,76.50675636509186 101.38392231453327,76.4305327925249 100.04324757232098,76.34795714444408 96.11853038342088,76.45594066099147 95.8320152167289,76.32890120923184 95.1995194714109,75.8080365966307 94.12914205624838,75.48408189586917 93.83722094300902,75.14106909707698 93.36149764739093,73.93415635630663 93.12904194614384,72.54935236749225 91.82620882970514,72.06656902164104 90.63690059061628,72.1618555213281 87.9771748923813,72.76533311124149 85.29041946138022,72.40324729825443 85.1390529582277,72.48582846881254 85.00390429471736,72.7399236530182 84.59305235760985,74.0739054115038 84.64711182299652,74.32164155926148 85.70667734506424,75.8334447332054 88.77725498046493,76.4305327925249 89.7178896786354,77.21181974242427 89.90709780756151,77.93593011549456 90.46391030133236,79.26344271655398 90.588247071777,80.1399657647562 91.32345580137917,83.25215255045623 91.36129742715275,83.81740967888982 91.9018920812814,86.57375450674226 92.31274401841802,87.28504840383903 92.71278406245983,87.53272908793224 94.43728100910084,88.12969877276919 96.25367904696031,89.29186711671719 98.01061167282751,89.39347637591709 98.72419661626918,89.95232417504303 99.28641505655833,90.00947876534701 100.19461407547351,90.43496119818155 103.37871658822405,90.81598763948568 103.57873661024496,90.66357735808197 103.68685554107651,90.40955934796511 104.04905395934475,89.15215409966913 104.23826208827086,87.52637831414904 104.18420262285508,87.29775000266454 103.87065772348433,87.08182245084026 103.84903393732384,86.98020921192801 104.05986585241044,86.40228058842331 104.21123235556297,86.23080617189771 104.21663830211037,85.3035655105341 104.62208429269958,84.08415835337655 105.35188707575435,83.13147897899034 106.86555210730876,82.14067611344217 107.97377114827395,81.16255952998836 108.67654419862083,79.83508965972578 108.93062368602841,79.65089291618642 109.30363399739144,79.78427682239635 108.9576534187654,79.6445412940775 108.66032635897864,79.84779286221965 108.07107818601071,81.01647579144264 107.4223646010505,81.64526844174543 104.30313344678143,78.17094648403872 101.68124937432003,77.65009813524011 101.47582340572262,77.40237596547013 101.43257583343075,76.43688476067837 100.95685253778356,76.34160516672273 96.0644709180051,76.44323672814426 95.24276704373187,75.8207406662732 94.14535989589058,75.48408189586917 93.79937931723543,75.08390010335279 93.32906196813565,73.84522496696081 93.16147762537003,72.58746667384548 91.84783261586563,72.06021658283862 91.50725798378699,72.02845437865471 90.24226649312186,72.21902734726245 87.91770948041813,72.75262838349954 85.21473620980396,72.40959970009499 85.04715186703834,72.62558095559143 84.57142857142026,74.16283645604926 85.68505355890375,75.83979676564195 88.80969065972022,76.45594066099147 89.7070777855406,77.19276408627775 89.86925618178793,77.84065294261018 90.46931624785066,79.33966262897229 90.55040544597432,80.03834057144559 91.30183201518958,83.14418147181641 91.88026829512091,86.51659658935023 91.98838722595247,86.84049072275229 92.36680348380469,87.31680239578782 92.73981379516772,87.52637831414904 94.42106316948775,88.13604948163629 96.25908499347861,89.27916594699491 96.60506557210465,89.35537292419394 98.0214235658932,89.38077522808817 98.73500850933488,89.95867468779761 99.15667233953718,89.96502519989372 100.30813895282336,90.47306395298074 103.13004304733477,90.82868847849022 103.43818200018723,90.79058595322931 103.60576634295285,90.64452604526014 103.81119231152115,90.11108678925666 104.09230153166573,88.89177895820103 104.24907398136565,87.57083371630142 104.20042046249728,87.29775000266454 103.9139052957762,87.11357655214306 103.87065772348433,86.9929108763572 104.01121233354206,86.48484216685392 104.22745019517606,86.17364792234366 104.21123235556297,85.29086348252531 104.62208429269958,84.08415835337655 105.11943137450726,83.36012343154653 107.03313645007438,82.02635163531158 107.69266192810028,81.45472592201259 108.05486034636851,81.06093609797972 108.65492041243124,79.88590245330124 108.89818800677313,79.66359615832698 109.77395134646213,79.98752790916478 110.32535789365647,80.02563740998812 111.88767644407926,79.46034395563402 113.12023225546,79.46034395563402 113.37431174289668,79.36506924457353 113.52567824604921,79.1808710336154 113.63379717688076,78.62192121794942 114.15276804481982,77.37696850464272 114.4230653718987,75.84614879738729 115.16908599456656,74.0866098546503 115.33667033733218,73.45773663428918 115.42857142855064,72.54299998069837" stroke="#ff6800" stroke-dasharray="none" stroke-linecap="round" stroke-linejoin="round" stroke-width="0.5"><title>2026-05-16 35.3km</title><desc>1778887035000</desc></polyline><polyline fill="none" opacity="0.5" points="139.6431022764882,67.10431875569338 141.79770673677558,66.02045040599478 143.55266682128422,66.08180161079508 144.66472073626937,66.51125948615663 145.98528476030333,68.10638018469035 146.41968082083622,69.49698723368056 146.2285465541645,71.21478180027043 144.36933141516056,73.73009564685344 144.57784152409295,82.66634620694094 147.94875495391898,84.50671142610372 150.10335941420635,84.71119534340687 150.53775547468103,85.09971417607449 150.79839311097749,94.894214360349 150.6767622140469,95.67120932972466 149.98172851715935,96.12104706156242 145.44663364527514,96.75490750154131 141.4501898883027,96.85714285714494 137.0193500709138,96.59133081744949 129.30447603587527,95.52807891764678 122.40626659453847,95.4667372792901 122.0587497461238,88.75993131018186 122.23250817041844,85.57002537774679 136.82821580430027,85.03836915032298 138.30516241007717,84.46581461612368 140.91153877327451,82.87083211699792 140.75515619147336,74.2208846854628 140.54664608236635,73.54604942846345 139.60835059161764,72.7076143854938 138.77431015542243,71.39883029116027 138.47892083437182,69.8241874036903 138.93069273716537,68.12683036258386 140.52927023998927,66.4499084209092 141.69345168222208,66.04090080979222 142.9445123365149,66.0 144.97748589981347,66.81801451338106 146.29804992384743,68.9039354800916 146.3501774512115,70.72398494745721 145.77677465119632,72.17592194137978 144.38670725747943,73.60739818782895 144.24770051817177,75.22290834487649 140.96366630046396,75.30470595989027 140.58139776723692,73.5664990171208 139.2260820583906,72.2577208763978 138.51367251918418,70.4172362665413 138.68743094336241,68.7607847777399 139.50409553718055,67.30882152009872 141.39806236105505,66.12270240290673 143.76117693039123,66.16360318619991 144.89060668775346,66.75666354778514 145.62039206939517,67.51332406295114 146.45443250559038,69.66058738956053 145.96790891780984,71.82827607217769 144.42145894235,73.52559983755054 144.2129488333594,75.16156011039857 140.96366630046396,75.28425655943283 140.61614945204929,73.66874692727288 139.26083374326117,72.2986203305627 138.5831758887507,70.72398494745721 138.65267925849184,68.92438557157584 139.36508879775647,67.41107281923178 140.99841798533453,66.26585510557925 143.08351907593897,66.02045040599478 145.04698926955462,66.89981576976425 145.84627802093746,67.90187828423223 146.38492913602386,69.21068661968457 146.29804992384743,71.01028326667438 145.67251959670102,72.27817060456437 144.40408309997292,73.70964607586211 144.26507636060705,75.18200952415646 141.0505455126986,75.32515535812126 140.68565282179043,73.73009564685344 139.31296127050882,72.27817060456437 138.54842420393834,70.4172362665413 138.82643768267008,68.35178217290377 139.81686070072465,66.96116668882314 141.90196179121267,66.0 143.7959286152036,66.16360318619991 145.11649263923755,66.96116668882314 146.38492913602386,69.12888636457501 146.332801608718,70.80578451152542 145.56826454220572,72.42131864008843 144.40408309997292,73.5664990171208 144.33457973023178,75.1411106944579 141.0157938277698,75.32515535812126 140.54664608236635,73.52559983755054 139.46934385230998,72.54401686988422 138.67005510092713,71.0920827066875 138.51367251918418,69.45608717251162 139.13920284627238,67.51332406295114 139.2260820583906,67.71782638438162 139.92111575521994,66.89981576976425 141.0505455126986,66.24540472615627 143.50053929403657,66.10225200792775 141.0505455126986,66.24540472615627 139.92111575521994,66.89981576976425 139.2260820583906,67.71782638438162 139.13920284627238,67.51332406295114 138.51367251918418,69.45608717251162 138.67005510092713,71.0920827066875 139.46934385230998,72.54401686988422 140.54664608236635,73.52559983755054 141.0157938277698,75.32515535812126 144.33457973023178,75.1411106944579 144.40408309997292,73.5664990171208 145.56826454220572,72.42131864008843 146.332801608718,70.80578451152542 146.38492913602386,69.12888636457501 145.11649263923755,66.96116668882314 143.7959286152036,66.16360318619991 141.90196179121267,66.0 139.81686070072465,66.96116668882314 138.82643768267008,68.35178217290377 138.54842420393834,70.4172362665413 139.31296127050882,72.27817060456437 140.68565282179043,73.73009564685344 141.0505455126986,75.32515535812126 144.26507636060705,75.18200952415646 144.40408309997292,73.70964607586211 145.67251959670102,72.27817060456437" stroke="#4dd2ff" stroke-dasharray="1,0.5" stroke-linecap="round" stroke-linejoin="round" stroke-width="0.5"><title>2026-05-12 15.2km</title><desc>1778590468000</desc></polyline><polyline fill="none" opacity="1" points="176.07167370506795,67.10431875569338 178.22627816535532,66.02045040599478 179.98123824986396,66.08180161079508 181.09329216484912,66.51125948615663 182.41385618888307,68.10638018469035 182.84825224941596,69.49698723368056 182.65711798274424,71.21478180027043 180.7979028437403,73.73009564685344 181.0064129526727,82.66634620694094 184.37732638249872,84.50671142610372 186.5319308427861,84.71119534340687 186.96632690326078,85.09971417607449 187.22696453955723,94.894214360349 187.10533364262665,95.67120932972466 186.4102999457391,96.12104706156242 181.8752050738549,96.75490750154131 177.87876131688245,96.85714285714494 173.44792149949353,96.59133081744949 165.733047464455,95.52807891764678 158.8348380231182,95.4667372792901 158.48732117470354,88.75993131018186 158.66107959899819,85.57002537774679 173.25678723288001,85.03836915032298 174.73373383865692,84.46581461612368 177.34011020185426,82.87083211699792 177.1837276200531,74.2208846854628 176.9752175109461,73.54604942846345 176.03692202019738,72.7076143854938 175.20288158400217,71.39883029116027 174.90749226295156,69.8241874036903 175.35926416574512,68.12683036258386 176.95784166856902,66.4499084209092 178.12202311080182,66.04090080979222 179.37308376509463,66.0 181.40605732839322,66.81801451338106 182.72662135242717,68.9039354800916 182.77874887979124,70.72398494745721 182.20534607977606,72.17592194137978 180.81527868605917,73.60739818782895 180.6762719467515,75.22290834487649 177.3922377290437,75.30470595989027 177.00996919581667,73.5664990171208 175.65465348697035,72.2577208763978 174.94224394776393,70.4172362665413 175.11600237194216,68.7607847777399 175.9326669657603,67.30882152009872 177.8266337896348,66.12270240290673 180.18974835897097,66.16360318619991 181.3191781163332,66.75666354778514 182.0489634979749,67.51332406295114 182.88300393417012,69.66058738956053 182.39648034638958,71.82827607217769 180.85003037092974,73.52559983755054 180.64152026193915,75.16156011039857 177.3922377290437,75.28425655943283 177.04472088062903,73.66874692727288 175.68940517184092,72.2986203305627 175.01174731733045,70.72398494745721 175.0812506870716,68.92438557157584 175.79366022633621,67.41107281923178 177.42698941391427,66.26585510557925 179.5120905045187,66.02045040599478 181.47556069813436,66.89981576976425 182.2748494495172,67.90187828423223 182.8135005646036,69.21068661968457 182.72662135242717,71.01028326667438 182.10109102528077,72.27817060456437 180.83265452855267,73.70964607586211 180.6936477891868,75.18200952415646 177.47911694127833,75.32515535812126 177.11422425037017,73.73009564685344 175.74153269908857,72.27817060456437 174.97699563251808,70.4172362665413 175.25500911124982,68.35178217290377 176.2454321293044,66.96116668882314 178.33053321979241,66.0 180.22450004378334,66.16360318619991 181.5450640678173,66.96116668882314 182.8135005646036,69.12888636457501 182.76137303729774,70.80578451152542 181.99683597078547,72.42131864008843 180.83265452855267,73.5664990171208 180.76315115881152,75.1411106944579 177.44436525634956,75.32515535812126 176.9752175109461,73.52559983755054 175.89791528088972,72.54401686988422 175.09862652950687,71.0920827066875 174.94224394776393,69.45608717251162 175.56777427485213,67.51332406295114 175.65465348697035,67.71782638438162 176.3496871837997,66.89981576976425 177.47911694127833,66.24540472615627" stroke="#4dd2ff" stroke-dasharray="none" stroke-linecap="round" stroke-linejoin="round" stroke-width="0.5"><title>2026-05-11 15.3km</title><desc>1778503630000</desc></polyline><polyline fill="none" opacity="1" points="15.661486353958026,107.07576189812971 18.403306243941188,103.71436147368513 23.487097289646044,100.82354254811071 29.370585803641006,100.48739993863273 35.82528679445386,103.5799050781643 39.48104664776474,109.0925934141851 40.052259124815464,114.73968679399695 38.452864189166576,119.58001165435417 33.31195189524442,125.63036464899778 32.68361817044206,130.73950569349108 21.944823601515964,130.73950569349108 21.14512613369152,125.56313882849645 17.603608776116744,122.06738613569178 14.918910133652389,117.6976675830083 14.23345516109839,111.84891922096722 14.86178888590075,108.95813818369061 18.460427491459996,103.51267686951905 25.429219711804762,100.3529428440961 31.883920702617615,101.15968497557333 38.56710668443702,106.26902745652478 39.93801662954502,111.37832787644584 39.88089538179338,115.54641022533178 37.25331798708066,121.46235001715831 33.483315638499334,125.15978375350824 33.02634565671906,130.60505515208934 22.458914831047878,131.07563191937516 21.14512613369152,125.42868716613157 17.889215014409274,122.47074322053231 14.633303895127028,117.29430739633972 14.347697656601667,111.04219098348403 16.004213840235025,106.60516693472164 20.45967116113752,102.10088280355558 23.60133978514932,100.75631404074375 28.28528209705837,100.3529428440961 33.54043688625097,101.89919767476385 35.8824080422055,103.64713327941718 39.709531638538465,109.83209666144103 40.16650162008591,113.52959968068171 39.13831916125491,118.57161375461146 33.65467938152142,124.8236543238163 33.31195189524442,130.26892867143033 22.516036078799516,131.1428571428405 21.08800488593988,125.49591300083557 15.83285009698011,119.7816910376423 14.119212665595114,113.6640539210639 15.090273876674473,108.28586159425322 18.28906374843791,103.44544865336502 25.600583455059677,100.28571428568102 31.998163198120892,101.22691343910992 36.68210551002994,104.38664301508106 38.96695541846566,107.88249529100722 40.1093803725671,112.3195102083846 38.62422793195583,119.58001165435417 33.36907314322889,125.36146132380236 33.02634565671906,130.67228042631177 22.458914831047878,131.07563191937516 21.202247381443158,125.76481626793975 15.661486353958026,119.58001165435417 14.23345516109839,115.54641022533178 15.20451637194492,108.21863389521604 18.174821253167465,103.91604601260042 24.458158500958234,100.48739993863273 30.741495748516172,100.82354254811071 36.33937802398577,104.11773048591567 39.995137877063826,110.5043715761858 39.13831916125491,118.10102750739316 36.96771174878813,121.8657074951916 33.483315638499334,125.29423547437182 33.02634565671906,130.60505515208934 22.287551087792963,131.00840668880846 21.202247381443158,125.63036464899778 17.37512378511019,121.9329337158706 14.690425142878667,117.2270806732704 14.290576408850029,110.90773617528612 16.346941326046363,105.93288779642899 19.317246207036078,102.70593779638875 22.801642317324877,100.89077104820171 28.28528209705837,100.3529428440961 33.65467938152142,101.83196928398684 38.738470427459106,107.14298972091638 40.052259124815464,110.77328133798437 39.7666528862901,116.42035942611983 37.65316672087647,121.19344488624483 33.483315638499334,125.36146132380236" stroke="#4dd2ff" stroke-dasharray="none" stroke-linecap="round" stroke-linejoin="round" stroke-width="0.5"><title>2026-05-10 11.2km</title><desc>1778422578000</desc></polyline><polyline fill="none" opacity="1" points="75.8730929264566,113.8526668731356 78.70041608880274,114.40354018000653 79.0,125.81729956246272 78.36338418861851,126.39017408908694 76.9403606102569,126.65457717289974 70.16227461863309,127.24948285547725 64.05825242714491,126.9410134593345 56.60610263526905,125.8393332278938 48.34882108180318,125.72916487684415 48.14285714284051,115.19679512204311 51.51317614421714,114.80016803760373 63.77739251044113,114.55778443868621 65.27531206654385,114.11708624652238 68.47711511782836,112.17800286250713 68.42094313458074,104.3113045883365 71.95977808593307,104.17908857310249 72.33425797498785,112.04579195896804" stroke="#4dd2ff" stroke-dasharray="none" stroke-linecap="round" stroke-linejoin="round" stroke-width="0.5"><title>2026-05-10 11.3km</title><desc>1778397813000</desc></polyline><polyline fill="none" opacity="1" points="98.22613645123783,100.2857142857174 98.10270972794387,100.64303238873617 98.1406871812651,102.82408129583928 98.07106185017619,112.39896487782244 98.11220409127418,115.5838011947817 98.04257876019983,128.62144957314013 98.07422663795296,130.0272127873759 98.25145475343743,130.14621656936652 101.87197196982743,130.18712402470192 101.93210293758602,130.24290684022708 101.93843251313956,130.33959684034926 101.80234663875308,131.1428571428587 101.95742123980017,130.35819104009352" stroke="#ffbb00" stroke-dasharray="none" stroke-linecap="round" stroke-linejoin="round" stroke-width="0.5"><title>2025-11-09 21.3km</title><desc>1762645227000</desc></polyline><polyline fill="none" opacity="1" points="126.67477869382128,104.56966136547271 132.3621213962324,100.95508297468768 139.41442634700797,100.55346184835071 144.87427534139715,103.16399450378958 149.1397823682055,109.72374583635246 148.91228865995072,117.22051923896652 146.35298444377258,121.77208729233826 142.76995854149573,125.0518729025498 142.4855914064683,130.54045478306944 131.8502605529502,131.00899000250502 130.37155145034194,125.25267553766025 124.34296818613075,118.29147944384022 123.48986678081565,112.86972432088805 124.68420874816366,107.71566608903231 129.2909563370049,102.42769153800327 136.28638786100782,100.28571428573923 142.940578822745,101.75832444429398 145.72737674694508,104.23497906938428 148.74166837893426,109.0543866455555 149.3672760759946,112.86972432088805 148.8554152327124,116.75197356555145 147.262959276326,120.63419842161238 142.6562116877176,125.18574133329093 142.4855914064683,130.40658751205774 133.6133367905859,131.1428571428405 131.28152628289536,130.8081892375485 130.65591858536936,125.72121476597385 126.04917099676095,121.16967579827178 124.3998416129034,118.29147944384022 123.54674020782113,112.66891766199842 124.79795560240746,107.58179387403652 129.74594375304878,102.15994478744688 136.91199555806816,100.35265118721873 143.16807253076695,101.8252611864009 147.66107326559722,106.77855997392908 149.02603551419452,110.05842515971744 149.1397823682055,116.28342753706966 147.262959276326,120.56726371700643 142.8268319685012,124.65026743640192 142.54246483324096,130.3396538658999 131.56589341792278,131.00899000250502 130.48529830458574,125.38654392486205 126.04917099676095,121.23661043762695 123.83110734284855,115.8148811532883 123.71736048860475,110.46004010853358 126.33353813178837,105.1051526623778 131.22465285588987,101.3567038399633 138.0494640986435,100.48652496869909 142.940578822745,101.89219792105723 148.1729341086466,107.51485775550827 149.31040264922194,111.7987547199009 148.68479495192878,117.62212953320704 146.46673129801638,121.50434892292833 142.6562116877176,125.11880712147104 142.42871797946282,130.40658751205774 139.24380606622435,131.00899000250502 131.33839970990084,130.94205642136512 130.5421717313584,125.38654392486205 126.33353813178837,121.57128352619475 124.57046189415269,118.49228427564958 123.71736048860475,110.39310430188198 127.92599408864044,103.49867737980094 134.06832420662977,100.55346184835071 141.85998370917514,101.49057740374701 147.262959276326,106.17613386386074 149.25352922221646,111.66488338931231 148.79854180593975,117.28745430632262 146.2961110167671,121.83902186655905 142.76995854149573,124.91800444305409 142.54246483324096,130.40658751205774 139.01631235796958,130.94205642136512 131.28152628289536,130.8081892375485 130.5990451585967,125.45347810769454" stroke="#4dd2ff" stroke-dasharray="none" stroke-linecap="round" stroke-linejoin="round" stroke-width="0.5"><title>2025-11-01 10.0km</title><desc>1761964262000</desc></polyline><polyline fill="none" opacity="1" points="177.77313730935566,101.09776388737373 180.93547292193398,102.78953050036216 185.13275473495014,108.60917266312754 185.9377128907945,114.63176851766184 184.15530554531142,120.45130036823684 179.09556856541894,125.5264292435022 178.8080835097935,130.9398546043085 167.59616633760743,131.07518963742768 166.73371117096394,125.4587611297029 162.53642935771495,121.87234060879564 160.7540220124647,118.55657501955284 160.00656086788513,110.84227677510353 163.3988845248241,104.41362213896355 169.2060826497618,100.89475158590358 175.76074191974476,100.69173921848414 181.74043107777834,103.73691780271474 185.1902517459821,108.9475222840556 185.99520990182646,114.83477635495365 184.15530554531142,120.3836317047826 179.21056258794852,125.05275229271501 178.6930894877296,131.0075221246807 167.65366334910505,131.1428571428405 166.9636992153246,125.5264292435022 161.09900407935493,119.43626964610303 159.7190758122597,113.14304236002499 160.35154293454252,109.21820184885291 162.3064413133543,105.76702861237573 167.19368725991808,101.57145900093019 174.20832261862233,100.28571428573923 181.2804549888242,103.39856535976287 185.42023979057558,109.82723044080194 185.9377128907945,115.10545336920768 183.63783244532533,120.99264941230649 179.21056258794852,125.1204204505193 178.46310144290328,131.1428571428405 167.71116036036983,131.1428571428405 167.1361902486533,125.4587611297029 163.05390245793387,122.07534609379945 160.69652500143275,118.08289278449956 160.06405787868425,110.2332491723937 164.03135164733976,103.66924732871121 169.83854977227747,100.62406841485063 177.19816719787195,100.96242236025864 182.66038325615227,104.95498508022865 185.53523381287232,110.90994647197658 185.70772484643385,115.78214539156761 183.98281451198272,120.58663767325925 179.15306557668373,125.39109300862765 178.92307753185742,130.7368519998854 178.17561638727784,131.07518963742768 167.65366334910505,131.1428571428405 166.73371117096394,125.39109300862765 162.82391441357322,122.07534609379945 160.69652500143275,118.28589950036258 160.06405787868425,110.43625843938207 163.91635762504302,103.87225872866111 170.29852586146444,100.62406841485063 177.88813133141957,101.16543463990092 182.6028862448875,104.68430366821121 185.59273082390428,110.84227677510353 185.65022783516906,116.52650576923043 183.23535336740315,121.66933505813358 179.26805959874764,125.32342488021823 178.6930894877296,130.9398546043085 167.65366334910505,131.1428571428405 167.02119622658938,125.66176544915652 162.99640544690192,121.94000911113108 160.69652500143275,118.28589950036258 160.23654891224578,110.03023983963067" stroke="#4dd2ff" stroke-dasharray="none" stroke-linecap="round" stroke-linejoin="round" stroke-width="0.5"><title>2025-10-27 10.0km</title><desc>1761565093000</desc></polyline><polyline fill="none" opacity="1" points="14.233893774449825,144.54289978271117 17.03894568164833,138.81606085726526 23.62223076936789,134.7735545752803 31.8084026616998,135.04305581131484 34.498962654266506,136.45793538575526 37.59024434746243,139.826683322608 40.10906646843068,146.15988005150575 38.563425621716306,153.77310566307278 33.296797551214695,159.43243423564127 33.12505967938341,164.68747895077104 21.90485205105506,165.1590833569644 21.16065460606478,159.63455216091825 17.267929510446265,156.19853849895298 14.462877603480592,150.94342206860892 14.405631646048278,143.93653109826846 16.80996185238473,139.42243453371339 22.935279282042757,135.1778063857928 29.40407245582901,134.70617924811086 33.98374903877266,136.39056024083402 36.330833287211135,138.3444364783354 40.10906646843068,145.1492678760551 39.994574554031715,149.66332288016565 38.677917536348104,153.84047892520903 33.296797551214695,159.43243423564127 33.12505967938341,164.75485103065148 22.30557375168428,165.29382740717847 21.046162691665813,159.70192478818353 17.096191638614982,156.19853849895298 14.17664781701751,149.46120171493385 14.634615475311875,143.66703371558106 16.981699724216014,139.15293519495754 23.564984812168404,134.9083052079077 31.693910747068003,135.24518166203052 34.78519244072959,136.6600607764558 36.846046902937815,138.8834357392625 39.9373285965994,145.5535129432683 39.880082639399916,150.1349386770744 38.50617966451682,154.10997190029593 33.23955159378238,159.63455216091825 33.12505967938341,164.75485103065148 22.133835879852995,165.2264553856803 21.332392477896065,160.0387878145557 15.779534620931372,154.17734512581956 14.119401859818026,149.52857544412836 14.978091218974441,141.98267242719885 16.9244537667837,139.22031004045857 23.736722683999687,134.9083052079077 29.747548199491575,134.84092989517376 35.75837371475063,137.73806175100617 39.76559072476812,144.34077695361339 39.9373285965994,150.00019134301692 37.81922817719169,155.1205695171957 33.41128946561366,159.2976889157435 33.0678137219511,164.82222310313955 22.19108183728531,165.42857142857974 21.332392477896065,159.9714152237284 16.981699724216014,155.8616733927629 14.57736951787956,151.07816919818288 14.462877603480592,144.67764829896623 16.867207809584215,139.42243453371339 22.019343965454027,135.58205793355592 27.915677566081285,134.57142857142026 34.55620861146599,136.6600607764558 38.90690136537887,141.84792332723737 40.166312425863,146.2946282174671 39.65109881013632,151.3476633700775 37.876474134391174,155.1205695171957 33.35404350864701,159.2976889157435 33.18230563681573,164.88959516852628 21.90485205105506,165.02433927735547 21.27514652046375,159.70192478818353 17.267929510446265,156.13116549229017 14.978091218974441,152.4256388900685" stroke="#4dd2ff" stroke-dasharray="none" stroke-linecap="round" stroke-linejoin="round" stroke-width="0.5"><title>2025-10-19 10.0km</title><desc>1760866141000</desc></polyline><polyline fill="none" opacity="1" points="75.93817602121271,143.78167321690125 76.39514590403996,149.36153597035445 74.28166019660421,155.07580125750974 69.76908260537311,159.17659451032523 69.14074901654385,165.02521997923031 58.34483553864993,165.09244523890084 57.659380714641884,159.84885311458493 53.83225794718601,156.4203266207478 51.43316606315784,152.386741793307 50.747711239149794,144.79008586186683 54.11786412377842,138.6723573008785 60.97241236385889,134.70588568079984 67.54135442711413,135.17648533394095 73.19635672541335,138.94126971339574 76.28090343344957,144.58840346400393 76.45226713921875,149.7648975988268 74.510145137785,154.80689583549974 69.7119613699615,159.4454980394221 69.42635519336909,165.02521997923031 58.28771430323832,165.09244523890084 57.659380714641884,160.0505305537954 53.489530535414815,155.94974307488883 50.747711239149794,150.63884689408587 51.033317415975034,142.77325893344823 54.060742888599634,138.40344477188773 56.28847106662579,136.78996715001995 62.91453436529264,134.57142857142026 69.8262038405519,136.25214034412056 73.25347796059214,139.00849779846612 75.8810547858011,143.04216956929304 76.28090343344957,150.7060737120919 74.510145137785,154.94134856091114 69.88332507596351,159.51272390340455 69.76908260537311,164.82354415621376 59.6015027158428,165.42857142857974 58.28771430323832,165.09244523890084 57.48801700863987,159.647175609658 53.26104559400119,155.47915917210048 50.633468768559396,149.83212451147847 50.462105062557384,145.2606778688496 53.489530535414815,139.2101820097305 55.945743654621765,136.9916520823026 60.401200010441244,135.0420283265994 67.14150577993132,135.0420283265994 72.11105325375684,137.86561936401995 76.39514590403996,144.7228584032273 75.8810547858011,151.6472483984544 74.28166019660421,155.07580125750974 69.65484013454989,159.10936860978836 69.48347642831504,164.82354415621376 58.63044171524234,165.15967049147002 57.43089577322826,159.57994976028567 52.28998459340073,154.33631106617395 50.57634753338061,149.9665783145465 50.747711239149794,144.52117598359473 53.14680312317796,139.6807782475371 55.88862241944298,136.9916520823026 59.88710889266804,135.10925683379173 67.0272633091081,135.10925683379173 73.0821142543573,138.73958541511092 76.68075208039954,146.40354268613737 74.68150884378701,154.60521669226 69.76908260537311,158.90769086492946 69.5977188993711,164.82354415621376 58.2305930678267,165.15967049147002 57.545138243818656,159.84885311458493 52.461348299402744,154.53799029660877 50.57634753338061,149.29430900671287 51.43316606315784,142.63880357187008 54.40347030060366,138.33621662133373" stroke="#4dd2ff" stroke-dasharray="none" stroke-linecap="round" stroke-linejoin="round" stroke-width="0.5"><title>2025-10-16 10.0km</title><desc>1760611285000</desc></polyline><polyline fill="none" opacity="1" points="97.51673594070598,134.57142857142026 104.04252288676798,135.04721101431642 109.41330329398625,138.24174093152396 112.99382356530987,145.71823673829203 111.95431767986156,153.1946434651618 106.23703531129286,159.4475697784219 106.00603400333785,165.0207776723546 94.86022090073675,165.42857142857974 94.05171632324345,159.92333336017327 89.20068885898218,155.16568131028907 87.12167708855122,150.20409146382008 87.29492806945927,143.9510730416514 90.81769801373594,137.96986667794408 98.20973986410536,134.57142857142026 105.8327830224298,135.3870553956367 111.66556604509242,141.4362545850454 112.93607323803008,146.05807534017367 111.66556604509242,153.67041178769432 106.12153465743177,159.4475697784219 106.12153465743177,164.8848463614704 94.91797122778371,165.36060582101345 94.16721697710454,160.0592657456291 88.68093591649085,154.35008019424276 87.12167708855122,149.7962878140388 87.3526783962734,143.7471692179097 90.64444703306071,138.30970947619062 97.34348495979793,134.7073664489435 105.25527975289151,135.3870553956367 110.22180787147954,139.12533144134795 112.99382356530987,145.85417220112868 111.72331637237221,153.67041178769432 106.23703531129286,159.51553602633066 105.94828367652372,165.08874331699917 94.91797122778371,165.36060582101345 94.05171632324345,159.78740094497334 89.14293853193521,154.82584764098283 87.00617643469013,149.66035320499213 87.23717774241231,144.15497679909458 89.2584391857963,139.73704721941613 96.01522743981332,135.11517990531866 103.06076732859947,134.77533537667478 106.41028629220091,135.9308060228941 109.6443046014756,138.71752059133723 112.99382356530987,145.99010763451224 112.87832291144878,150.06815694324905 111.49231506418437,154.01024608302396 106.1792849842459,159.71943472628482 106.12153465743177,165.08874331699917 94.97572155436501,165.42857142857974 94.16721697710454,159.99129955645185 89.7204418014735,155.77738145180047 87.06392676127143,150.13612420711434 87.3526783962734,143.4752973499708 90.29794507124461,138.71752059133723 97.05473332502879,134.77533537667478 104.73552681040019,135.1831487888703 109.93305623647757,139.0573629848659 112.87832291144878,145.78620447346475 111.83881702600047,153.1266765324981 109.29780263989232,156.93281342519913 106.1792849842459,159.58350226696348 106.1792849842459,164.8848463614704 94.97572155436501,165.36060582101345 93.9939659961965,159.71943472628482" stroke="#4dd2ff" stroke-dasharray="none" stroke-linecap="round" stroke-linejoin="round" stroke-width="0.5"><title>2025-10-08 10.1km</title><desc>1759919017000</desc></polyline><polyline fill="none" opacity="1" points="123.63478962308727,145.1724135586992 126.73283544136211,138.89287096948829 132.75681342137977,135.17913321900414 138.72342018294148,134.70647410000674 145.55059522693045,137.94755800504936 149.10761079611257,143.82197963132057 149.4518381091766,149.08865540474653 147.73070154362358,154.3552866827813 142.68203428434208,159.48683333641384 142.16569331428036,165.02345472131856 131.37990416912362,165.36105199554004 130.6340783238411,159.82443360902835 124.49535790621303,153.00487264810363 123.57741840439849,145.98267251101788 126.67546422267333,139.16296012490056 132.58469976484776,135.2466559210443 138.60867774509825,134.70647410000674 145.37848157039843,137.74499075458152 148.93549713958055,143.28180524124764 149.50920932833105,148.95361299207434 147.38647423055954,154.96297204401344 142.68203428434208,159.62187346746214 142.2804357521236,165.09097419073805 131.26516173104756,165.29353255528258 130.23247979185544,159.35179317631992 126.73283544136211,156.3809022498899 124.20850181183778,152.53222704480868 123.57741840439849,145.7125863104011 126.50335056637414,139.43304916308261 129.71613882202655,136.462063307059 132.58469976484776,135.2466559210443 139.5266172469128,134.773996853095 146.12430741544813,138.69030402658973 148.5338986075949,141.99888918874785 149.4518381091766,149.15617660008138 147.67333032470196,154.4228073078557 142.73940550279804,159.35179317631992 142.2804357521236,165.02345472131856 131.49464660673402,165.42857142857974 130.57670710491948,159.68939352192683 127.47866128664464,157.3937075653812 124.89695643796586,153.74760072911158 123.52004718547687,146.11771556723397 126.04438081523404,139.9732268882217 131.60938904434443,135.5842693214654 138.72342018294148,134.70647410000674 144.80476938188076,137.27233358105877 148.47652738867328,141.93136721820338 149.39446689072065,149.15617660008138 147.55858788685873,154.69288973434595 142.8541479408741,159.14923288085265 142.3378069710452,165.02345472131856 131.37990416912362,165.29353255528258 130.6914495427627,160.0269936847617 125.52803984540515,154.7604103226331 123.34793352894485,146.92797329078894 124.49535790621303,142.60658659541514 126.96232031704858,138.62278169736965 131.322532950202,135.6517919797334 134.93691973830573,134.57142857142026 139.58398846536875,134.9765650689369 144.97688303841278,137.54242343845544 148.36178495106287,141.7963232549955 149.3370956715662,149.89890926668886 147.67333032470196,154.4903279253631 142.68203428434208,159.62187346746214" stroke="#4dd2ff" stroke-dasharray="none" stroke-linecap="round" stroke-linejoin="round" stroke-width="0.5"><title>2025-10-01 10.0km</title><desc>1759271073000</desc></polyline><polyline fill="none" opacity="1" points="161.07025429746136,141.74449686671142 165.9575007732492,136.4662093333318 172.62715478776954,134.57142857142026 178.89432968059555,135.78950257814722 181.65418651420623,137.6842796454439 184.24155229562894,141.13546596595552 185.9664628165774,146.21070533257443 184.98901352123357,152.63928267674055 182.8616238788236,156.09038638480706 179.18181476765312,159.1354620610946 179.0668207325507,164.75189604330808 175.09952653455548,165.29323641012888 167.5674172595609,165.22556889004773 166.87745305127464,159.81214352912502 162.56517674890347,155.75204372697044 160.09280500211753,151.285903469834 160.3802900891751,143.50391613447573 162.50767973135225,139.57905096607283 165.4975246344693,136.8045624360093 170.8447472495027,134.70677024504403 178.89432968059555,135.78950257814722 184.24155229562894,140.93245553353336 185.85146878194064,145.46633947215742 185.73647474730387,150.40620541322278 183.3216000176035,155.81971227307804 179.18181476765312,159.47380288649583 178.66434161132202,165.09023382741725 167.68241129466332,165.22556889004773 166.99244708614424,159.81214352912502 160.49528412381187,152.70695156021975 159.7478228979744,148.6468055837322 160.2652960543055,143.57158600731054 163.83011113107204,138.22564346616855 170.6722561973147,134.77444107091287 178.0893714374397,135.58649040857563 182.1716596703045,138.42865477810847 185.50648667756468,144.38362391031114 185.79397176438943,150.13552883884404 183.3790970351547,155.5490380442934 179.1243177501019,159.40613473620033 179.1243177501019,164.6842284645536 178.43435354158282,165.15790136234136 167.68241129466332,165.22556889004773 166.93495006859303,159.81214352912502 163.14014692232013,156.36106037930585 160.66777517576702,152.30093815008877 159.92031395016238,145.12799106066814 163.4276320093777,138.49632520083105 170.55726216267794,134.77444107091287 179.35430581960827,135.99251468165312 183.95406720857136,140.6617748546414 185.85146878194064,145.87235732399859 185.39149264292791,151.69191753980704 183.09161194832996,156.02271786797792 179.2968088022899,159.27079841314116 179.00932371546514,164.88723117898917 175.15702355187386,165.42857142857974 167.68241129466332,165.42857142857974 166.87745305127464,159.67680729407584 162.68017078354023,155.81971227307804 160.20779903698713,151.285903469834 160.3802900891751,143.6392558729276 165.2100395478774,136.8045624360093 170.15478304121643,134.84211188944755 175.0420295172371,134.57142857142026 178.0893714374397,135.45114892558195 182.51664177444763,138.69933642470278 185.39149264292791,143.9776050907676 185.85146878194064,149.72951375762932 184.0690612436738,154.669345990289 179.18181476765312,159.33846657827962 178.6068445937708,165.15790136234136 167.68241129466332,165.36090392287588 166.7049619993195,159.81214352912502" stroke="#4dd2ff" stroke-dasharray="none" stroke-linecap="round" stroke-linejoin="round" stroke-width="0.5"><title>2025-09-27 10.0km</title><desc>1758965825000</desc></polyline><polyline fill="none" opacity="1" points="18.065006947144866,173.037879037729 20.433141780551523,170.58252950024325 23.252349915914237,169.52075367968064 29.905681115342304,169.52075367968064 37.235622267238796,172.4406327587203 39.942062077112496,179.40846978599438 40.11121456534602,183.32369581679814 38.64522633492015,188.16792390256887 33.175962552428246,194.2729239243199 33.175962552428246,199.51521235407563 21.899130010977387,199.71428571426077 21.44805670948699,194.00749040569644 15.809640438761562,187.76976961421315 14.230883883079514,180.53658832702786 15.189414649037644,177.21858668833738 18.34692776063457,172.90515769273043 23.365118241403252,169.7198367860401 30.58229106781073,169.58711472223513 34.8111032708548,171.11341672064736 37.01008561626077,173.037879037729 39.998446239857,180.47022847045446 39.772909589111805,185.1817604326061 36.671780640026554,191.35314889496658 33.28873087768443,193.80841519136447 32.89404173893854,199.38249674468534 21.899130010977387,199.64792793459492 21.222520058508962,193.60933991213096 15.922408764017746,188.7651548499707 14.343652208335698,184.31908827618463 14.174499720335007,180.73566785396542 15.47133546252735,176.4886239162297 21.05336757027544,170.58252950024325 28.60884537314996,169.321670508245 36.33347566379234,171.77702509914525 39.32183628738858,177.21858668833738 39.88567791436799,183.72185299464036 38.025000544963405,189.09694956929889 33.34511504042894,193.80841519136447 33.006810064194724,199.64792793459492 21.899130010977387,199.58157014794415 21.27890422125347,194.14020717935637 16.99370785546489,190.29140907083638 14.343652208335698,184.18636937486008 15.358567137271166,176.4886239162297 20.15122096729465,171.44522099971073 24.77472230908461,169.38803157251095 35.0366399216,170.8479731681291 37.40477475523949,172.97151836869307 39.60375710087828,179.07666982000228 39.942062077112496,183.72185299464036 37.461158917983994,190.0259738272871 33.23234671517275,194.07384879601886 32.89404173893854,199.51521235407563 21.84274584846571,199.44885455287294 21.05336757027544,193.80841519136447 17.332012832164764,190.75592047028476 15.302182974293828,187.50433327822248 14.343652208335698,179.87298943678616 16.82455536769703,174.56417243886972 21.391672546509653,169.91891982790548 26.9173204919789,168.85714285710128 36.61539647751488,172.10882901860168 39.43460461264476,177.74946815823205 39.942062077112496,183.92093148641288 38.08138470770791,189.09694956929889 33.28873087768443,193.94113200798165 32.95042590145022,199.58157014794415 21.955514173954725,199.71428571426077 21.222520058508962,194.14020717935637" stroke="#4dd2ff" stroke-dasharray="none" stroke-linecap="round" stroke-linejoin="round" stroke-width="0.5"><title>2020-04-24 10.0km</title><desc>1587724293000</desc></polyline><polyline fill="none" opacity="1" points="69.47627120325342,194.061692376039 74.39226459083147,189.14056874410016 75.91791771096177,184.88443001144333 75.80490636848845,180.09623867092887 74.10973623511381,175.50752026197733 69.19374284776859,170.51974396203877 66.31195362075232,169.5886878981255 61.96101694460958,169.7216959935613 54.106728659244254,173.51241460465826 50.43386003677733,182.0913229341386 51.78999614343047,187.81052855937742 57.892608624184504,194.39419930713484 58.57067667762749,199.71428571426077 69.58928254572675,199.24877999391174 69.58928254572675,194.1281937767053 74.6747929463163,188.4755490119569 76.7089971061796,181.89181479957188 74.16624190611765,174.17745054420084 74.78780428832397,173.37940733024152 72.30155475926585,173.77842906682054 68.34615778084844,170.98527146456763 62.01752261584625,169.38917570054764 55.1238307391759,172.51485934463562 51.16843376122415,178.76617889368208 51.73349047242664,187.81052855937742 57.72309161070734,194.26119655632647 58.17513697966933,199.58128411584767 69.13723717653193,199.3817816642695 69.53277687449008,193.79568670148728 74.22274757712148,189.34007452317746 76.03092905320227,183.55438060680171 75.29635532852262,178.23415417596698 72.01902640378103,172.91388164297678 65.12533452734351,169.5886878981255 60.26584681123495,170.05421610653866 54.05022298824042,172.98038533434737 50.82939973450266,179.16519712947775 51.33795077446848,186.67999213724397 53.485166277270764,190.40410425094888 57.49706892622635,194.1281937767053 58.062125637428835,199.5147833059309 69.13723717653193,199.3817816642695 69.19374284776859,194.1281937767053 74.10973623511381,189.20707067771582 75.74840069725178,184.01989822625183 74.84430995956063,177.63562581758015 71.5104753638152,172.7808742391062 68.68519180756994,170.71925579203526 64.0517267761752,169.7216959935613 61.00042053568177,169.78820003051078 55.40635909512639,171.71681396942586 51.563973458716646,176.97059362393338 50.43386003677733,180.76126747886883 51.563973458716646,187.74402647453826 54.44576268596575,191.60113549034577 57.55357459746301,193.92868955340236 58.231642650906,199.6477849187795 69.19374284776859,199.4482824888546 69.19374284776859,194.1281937767053 74.50527593283914,188.54205101763364 75.91791771096177,181.16028441808885 74.22274757712148,175.77353386004688 68.7416974788066,170.25372808787506 64.16473811818287,168.8571428571595 55.51937043736689,171.84982160420623 51.676984801189974,177.7021289972472 50.60337705002166,181.82531207351713" stroke="#4dd2ff" stroke-dasharray="none" stroke-linecap="round" stroke-linejoin="round" stroke-width="0.5"><title>2020-04-16 10.0km</title><desc>1587033949000</desc></polyline><polyline fill="none" opacity="1" points="106.2684302860871,194.4592472598888 110.39013787172735,190.21476071473444 112.8517132352572,184.21853195119184 112.45099166454747,178.49174265033798 109.18797315913253,172.6975256970618 107.12711936654523,170.81102480908157 102.43295239424333,169.0592688609031 97.7387854217086,169.39614538790192 90.9837646568194,172.225901011494 87.83523802901618,177.54850170831196 87.03379488736391,181.32145689468598 88.40769741614349,188.19356646586675 94.36127503938042,194.0550116939703 95.33445599698462,199.64691370743094 106.03944653156213,199.2426815124345 106.2111843477469,193.8528938125237 110.96259725862183,189.13679126591887 112.96620511240326,183.7469160007313 112.22200790978968,178.08749670739053 107.9285625081975,171.8890260173357 101.57426331401803,169.19401949376334 92.64389687892981,171.28265056747478 88.40769741614349,176.53788482566597 87.14828676497564,180.84983874775935 87.72074615187012,186.23973911604844 90.64028902468272,190.95586362684844 94.47576691675931,194.25712950975867 95.16271818079986,199.71428571426077 106.15393840894103,199.2426815124345 106.2111843477469,193.7855211708229 111.42056476813741,188.597805841011 112.96620511240326,183.00580449966947 112.45099166454747,178.76123979955446 109.8749244234059,173.91027324687457 105.52423308347352,170.3393986929441 102.49019833281636,169.0592688609031 97.16632603504695,169.5982712165569 90.9837646568194,172.09115103562362 87.66350021306425,178.35699403169565 87.09104082616977,182.53418763005175 88.29320553853177,188.05881994916126 94.41852097818628,194.0550116939703 94.87648848746903,199.51216967159417 106.32567622489296,198.90582114935387 106.2684302860871,193.7181485214387 111.19158101337962,189.00204495346406 112.79446729668416,183.67954226449365 112.16476197098382,177.6832505016937 107.41334905987605,171.8890260173357 102.08947676210664,168.8571428571595 97.05183415790088,169.73302173259435 90.9837646568194,172.49540087551577 87.89248396782205,177.81799926614622 87.14828676497564,183.94903716619592 89.60986212850548,189.67577622376848 94.30402910034172,194.18975691183005 94.99098036508076,199.71428571426077 106.32567622489296,199.1079373890534 106.32567622489296,193.8528938125237 110.96259725862183,189.27153754932806 112.90895917406306,183.34267347311834 112.05027009360492,177.81799926614622 108.61551377247088,172.6975256970618 102.43295239424333,169.26139479904668 96.93734228028916,169.46352067147382 90.1250755765941,172.96702535700751 87.14828676497564,181.38883088633884 88.69392710947432,188.26093971327646 94.30402910034172,193.98763907403918 94.9337344262749,199.44479764287826" stroke="#4dd2ff" stroke-dasharray="none" stroke-linecap="round" stroke-linejoin="round" stroke-width="0.5"><title>2020-04-14 10.0km</title><desc>1586861907000</desc></polyline><polyline fill="none" opacity="1" points="147.01250520325266,189.49553278641542 149.0555165486876,184.82022988819517 148.37451276672073,177.67362695297925 144.5154913365841,171.92956829216564 137.30820131325163,169.25789486902067 132.48442452563904,169.99260621442227 126.97964395652525,172.53069321683142 124.02862756885588,179.74414660607 124.59613072010688,185.82208349340362 126.63914206554182,189.8962713854271 130.89541570143774,193.90364305273397 131.68992011342198,199.71428571426077 142.52923030685633,198.97960978071205 142.7562315671239,193.56969640869647 147.18275614874437,189.16158375504892 149.3960184394382,183.08367978344904 148.82851528795436,178.4083282708889 145.48024669406004,172.59748483914882 139.0107107674703,169.45827077730792 133.22217862238176,169.79223047971027 126.86614332580939,172.7310680616647 123.46112441760488,179.2098196191946 123.74487599311396,184.2859072999563 125.05013324157335,187.5586258864496 130.95216601667926,193.90364305273397 131.1791672774125,199.24676476692548 142.47247999161482,198.97960978071205 142.5859806216322,193.97043235995807 147.75025929999538,188.4268952491111 149.11226686369628,183.4176321066334 148.71501465770416,178.8090740753105 144.4587410215754,171.52881801658077 139.18096171296202,169.39147881505778 132.76817610138096,169.72543855378171 127.26339553203434,172.26352665602462 123.57462504762225,181.01317134400597 125.39063513255678,187.95936574414372 130.89541570143774,194.1040109526366 131.23591759218834,199.24676476692548 142.2454787308816,199.04639853799017 142.47247999161482,193.77006441674894 146.89900457276963,189.29516338912072 148.94201591820456,184.3526976487483 148.60151402745396,178.20795527094742 144.91274354280904,172.4639015874127 138.84045982197858,169.25789486902067 131.6331697984133,170.32656562741613 126.80939301103354,172.59748483914882 123.51787473238073,180.81279919063672 124.87988229608163,187.4918358847499 130.78191507118754,194.037221659848 131.23591759218834,199.04639853799017 142.64273093710653,198.91282101615798 142.5859806216322,193.56969640869647 147.35300709400326,188.62726492842194 149.11226686369628,183.4176321066334 148.48801339720376,177.94079116993817 144.231739761075,171.92956829216564 135.6056918585673,168.8571428571595 129.02265530172735,170.92769211501582 124.82313198084012,176.6049689280335 123.68812567787245,181.41391545551596 124.14212819910608,185.95566385128768" stroke="#4dd2ff" stroke-dasharray="none" stroke-linecap="round" stroke-linejoin="round" stroke-width="0.5"><title>2020-04-13 10.0km</title><desc>1586775592000</desc></polyline><polyline fill="none" opacity="1" points="178.04866783390753,193.7750857952633 182.68913708627224,188.51850584888598 184.37130719027482,185.03685084125027 184.77734825015068,176.77637672028504 183.8492543993052,173.90907939942554 186.9815711453557,169.53983935096767 185.7634479664266,171.17830791865708 181.87705496698618,172.95331072690897 174.80033935653046,169.19849119649734 168.12966480571777,169.6763785610092 163.25717209046707,172.1340792827541 159.5447966880165,177.4590646357974 159.37077909125946,185.58299407496816 161.5169961208012,189.610785809753 166.15746537339874,194.11642063956242 166.67951816413552,199.57775301137008 177.29459158005193,199.09988831792725 178.04866783390753,193.63855180586688 182.68913708627224,189.06464606610825 184.66133651905693,184.35417113342555 184.37130719027482,178.4830951227923 181.64503150456585,173.22638763854047 175.03236281941645,169.19849119649734 168.4776999996975,169.40330011135666 162.32907824008726,172.95331072690897 159.89283188199624,176.98118317255285 158.96473803161643,180.66768793418305 159.95083774765953,187.35795631655492 161.45899025490507,190.15692508016946 165.92544191074558,194.04815368558047 166.62151229870506,199.57775301137008 177.29459158005193,199.1681547248154 178.16467956500128,193.50201778660994 181.9930666985456,190.08865769737167 184.0812778621912,186.47047582064988 184.71934238425456,180.94076150329784 183.21118987724185,175.20619170786813 179.78884380334057,171.3831161900889 173.87224550615065,169.19849119649734 167.66561788041145,169.74464815482497 162.9091368962545,172.47542584716575 160.58890226995572,175.2744607028435 158.79072043462656,180.94076150329784 158.96473803161643,184.21763510315213 160.99494332983159,189.6790532442974 165.98344777640887,194.2529545254656 166.50550056737848,199.50948664866155 177.4686091770418,199.23642112431116 178.22268543066457,193.63855180586688 182.80514881759882,189.06464606610825 184.54532478749752,185.2416546093882 184.66133651905693,179.3023183143814 183.21118987724185,175.1379227056168 177.64262677403167,170.35907416726695 171.08796395431273,169.13022154336795 164.18526594084688,171.24657734995708 159.95083774765953,176.36676361586433 158.90673216595314,179.3023183143814 159.08074976294301,184.96858290367527 161.69101371755823,190.42999453807715 165.7514243137557,194.11642063956242 166.62151229870506,199.71428571426077 177.81664437102154,199.09988831792725 177.87465023691766,193.91161975520663 183.21118987724185,188.24543556303252 184.66133651905693,182.98880949965678 183.32720160856843,175.9571502454346 180.89095525071025,172.40715654933592 177.58462090813555,169.88118732051225 170.85594049165957,168.85714285710128 163.95324247842655,171.3831161900889 159.95083774765953,176.43503248516936 158.73271456873044,181.5551766009885 160.64690813585185,188.7915760165779 166.04145364207216,194.04815368558047 166.50550056737848,199.57775301137008" stroke="#4dd2ff" stroke-dasharray="none" stroke-linecap="round" stroke-linejoin="round" stroke-width="0.5"><title>2020-04-12 10.0km</title><desc>1586649823000</desc></polyline><polyline fill="none" opacity="1" points="24.503967488417402,203.14285714289872 33.69751854217611,204.5454880449106 37.49978965707123,207.1503655408742 40.053553838748485,214.02986089180922 39.940053208731115,219.3731052944786 37.78354123281315,224.04840616701404 33.300266336416826,228.1893573384732 32.90301413019188,233.7996339229867 22.006953621748835,233.73284521629103 21.382700155256316,228.12256802420598 16.842674943618476,224.18198567116633 14.799663598416373,220.9092794911121 14.118659816449508,215.0317227439955 17.353427779860795,208.08544708631234 21.382700155256316,204.67907177394954 28.07923734281212,203.14285714289872 36.364783354336396,206.0149074725923 39.54280100250617,212.62725156376837 40.2238047842402,217.50297502003377 38.23754375404678,223.11334882833762 33.186765705700964,228.45651452359743 33.24351602117531,233.7996339229867 21.893452991731465,233.73284521629103 21.382700155256316,228.12256802420598 16.104920846642926,223.71445728029357 14.515912022674456,220.5753289043787 14.118659816449508,215.2988856297452 14.969914543675259,211.29143019014737 20.644946058513597,204.81265547429211 24.844469379400834,203.20964916283265 32.449011609191075,204.4786961696227 37.32953871181235,207.5511149482918 39.99680352350697,213.6291156950174 40.11030415399,217.70334639237262 38.06729280855507,223.64766748133115 33.413766966667026,228.32293594558723 33.13001539092511,233.7996339229867 21.893452991731465,233.7996339229867 21.269199525006115,228.12256802420598 16.729174313368276,224.24877541244496 14.742913283174857,220.5753289043787 14.402411392191425,213.49553390493384 17.353427779860795,208.08544708631234 20.815197004005313,204.87944731337484 23.368961185449734,203.87756896566134 29.78174679703079,203.5436091547599 36.251282723620534,206.0149074725923 39.88330289325677,212.9612064550165 40.053553838748485,217.97050812043017 37.726790917571634,224.24877541244496 33.413766966667026,228.05577870248817 33.13001539092511,233.59926778101362 21.95020330697298,234.0 21.2124492097646,227.98898937366903 16.44542273762636,223.8480368569144 14.742913283174857,220.64211903640535 14.061909501440823,213.69590657937806 17.29667746508494,208.08544708631234 20.70169637352228,204.87944731337484 23.595962445950136,203.677193100797 27.908986397320405,203.27644117578166 34.775774530135095,204.7458636277588 37.38628902682103,207.08357394795166 40.053553838748485,214.8313505037804 39.940053208731115,219.50668581138598 37.67004060233012,224.24877541244496 33.58401791192591,228.2561466456973 33.300266336416826,233.86642262263922 21.95020330697298,233.86642262263922 21.2124492097646,228.1893573384732 17.069676204118878,224.98346208810108" stroke="#4dd2ff" stroke-dasharray="none" stroke-linecap="round" stroke-linejoin="round" stroke-width="0.5"><title>2020-04-08 10.0km</title><desc>1586343893000</desc></polyline><polyline fill="none" opacity="1" points="57.10189404641278,205.01303097017808 61.98242009198293,203.3432331813965 66.46569401747547,203.81077701802133 72.4244758170098,206.5492409419967 75.26199095929042,211.89255016675452 76.45374731952325,217.9705081206048 73.84323338815011,224.64951370778726 69.6437109769322,228.32293594570365 69.41670976555906,233.93321131484117 58.40715101198293,233.73284521629103 57.95314858923666,228.32293594570365 52.788871029624715,223.44729804072995 50.689109823899344,218.43804086645832 51.02961164107546,212.89441549149342 53.52662496664561,207.95186409528833 57.10189404641278,204.8126554741757 59.54215706908144,203.94436090620002 66.9764467428904,203.81077701802133 72.25422490830533,206.41565761802485 76.28349641081877,213.82948832627153 75.71599338226952,220.9760695871082 73.27573035983369,225.25062066235114 69.6437109769322,228.38972523843404 69.6437109769322,233.7996339231613 58.520651618018746,233.93321131484117 57.83964798366651,228.32293594570365 52.27811830374412,222.71260953502497 50.46210861252621,216.03358296875376 51.937616486800835,210.5567272013286 56.9883934406098,204.61227991321357 63.45792796602473,203.14285714289872 71.119218850974,205.48057354061166 73.61623217654414,208.01865559455473 76.5104976221919,214.89814125793055 75.60249277646653,220.9760695871082 72.87847823975608,225.51777912059333 69.87071218853816,228.25614664587192 69.53021037136205,233.7996339231613 58.29365040641278,233.86642262263922 57.726147377863526,228.18935733864782 52.50511951535009,223.64766748144757 50.5188589154277,217.9037176995189 51.37011345825158,211.9593412389513 57.15864434931427,204.54548804514343 63.45792796602473,203.3432331813965 71.2894697599113,205.14661459776107 74.46748671960086,209.55485807801597 76.62399822799489,215.43246702937176 76.68074853066355,218.50483122991864 75.20524065685458,222.5790297127096 69.70046128006652,228.18935733864782 69.70046128006652,233.7996339231613 58.69090252649039,234.0 57.669397074962035,228.59009307291126 52.50511951535009,223.51408786181128 50.57560921832919,218.83878293790622 50.745860127033666,213.2951611657627 53.35637405817397,208.61977876117453 57.726147377863526,204.61227991321357 62.549923120532185,203.47681717091473 66.40894371434115,203.74398506310536 72.31097521120682,206.21528257784666 75.48899217089638,211.82575908710714 76.22674610815011,219.37310529465321 74.69448793097399,223.51408786181128 69.81396188563667,228.12256802426418 69.6437109769322,233.5324790526065 59.03140434366651,234.0 58.29365040641278,233.59926778124645 57.669397074962035,228.38972523843404 53.81037648092024,225.25062066235114" stroke="#4dd2ff" stroke-dasharray="none" stroke-linecap="round" stroke-linejoin="round" stroke-width="0.5"><title>2020-04-07 10.0km</title><desc>1586257895000</desc></polyline><polyline fill="none" opacity="1" points="94.04121820023283,204.07794476556592 97.38948606839404,203.20964916306548 103.00776605075225,203.74398506310536 108.51254542754032,206.21528257784666 112.65531753608957,214.6309781986638 111.97431390173733,221.37681000912562 109.42055027326569,225.25062066235114 106.24253331380896,228.0557787027792 106.29928361647762,233.59926778124645 95.11947395442985,233.93321131484117 94.09796850313433,228.32293594570365 88.87694064062089,223.04655896435725 87.28793216077611,218.83878293790622 87.68518428085372,212.69404255662812 90.29569821176119,207.8182810752769 96.53823152580298,203.81077701802133 101.98626059968956,203.47681717091473 108.7962969422806,206.01490747270873 112.25806541624479,213.96307004382834 111.57706178212538,221.77755017078016 109.02329815342091,225.9185165911913 106.29928361647762,228.18935733864782 105.9587817993015,233.46569031686522 95.2897248629015,234.0 94.43847032031044,228.59009307291126 89.84169578901492,224.7163033983088 87.57168367505074,219.84063697705278 87.68518428085372,212.69404255662812 89.84169578901492,208.48619588604197 94.09796850313433,204.54548804514343 98.41099151992239,203.20964916306548 102.6105139311403,203.3432331813965 109.36379997059703,207.21715712727746 112.08781450754032,212.1597144123516 112.25806541624479,220.04100758960703 109.64755148510449,224.84988275775686 106.07228240533732,228.25614664587192 105.9587817993015,233.5324790526065 95.23297456,233.86642262263922 94.38172001740895,228.32293594570365 89.217442457797,223.7812470723875 87.34468246344477,219.1727344651008 87.45818306924775,213.69590657949448 90.23894790909253,208.01865559455473 94.66547153168358,204.14473668439314 101.75925938831642,203.14285714289872 108.56929573067464,206.5492409419967 111.40681087318808,210.15597974741831 112.4283163244836,213.5623248036718 112.71206783922389,218.23766973312013 111.80406299326569,221.57718012249097 109.36379997059703,225.38419990602415 106.07228240533732,228.25614664587192 106.015532102203,233.66605650237761 95.34647516580299,233.86642262263922 94.43847032031044,228.79046084260335 89.38769336626865,223.7812470723875 87.28793216077611,218.77199261070928 87.6284339777194,212.82762452051975 89.95519639458507,208.21903004858177 93.30346426321194,205.01303097017808 96.42473092023283,203.81077701802133 103.57526907953434,203.54360915487632 107.37753937067464,204.74586362781702 110.44205572456121,208.6865701880888 112.48506662761793,213.2951611657627 112.37156602181494,220.77569927851437 109.25029936502688,225.7181478884886 106.24253331380896,228.52330380218336 105.7317805881612,233.66605650237761 95.17622425733134,234.0 94.21146910893731,228.38972523843404 89.89844609191641,224.51593430503272" stroke="#4dd2ff" stroke-dasharray="none" stroke-linecap="round" stroke-linejoin="round" stroke-width="0.5"><title>2020-04-02 10.0km</title><desc>1585825459000</desc></polyline><polyline fill="none" opacity="1" points="124.9227544721216,210.75796204578364 128.24228112469427,206.65243901353097 133.98112381179817,203.6063879787107 140.00128231733106,204.0036998440046 143.4333352970425,205.261852380645 145.90891449549235,207.38084027310833 148.66580951190554,213.73775988153648 149.0033884937875,219.30001031514257 147.14670409471728,224.0676132652443 142.42059835232794,228.30545134173008 142.25180886150338,234.0 131.224228795385,233.8675692382385 130.7178603229113,228.43788330827374 126.61064938013442,225.19329186936375 124.4726491633337,221.88246652833186 123.57243854552507,214.39993520610733 126.44185988930985,208.24167700647376 133.64354483014904,203.6726066409028 139.32612435426563,203.8712625844637 143.65838795155287,205.32807086332468 146.24649347690865,207.77814968535677 148.66580951190554,213.60532473074272 149.11591482092626,218.5054062087438 146.75286194938235,224.3986954225693 142.64565100660548,228.23923534766072 142.42059835232794,233.93378462264081 131.16796563193202,233.6689230418997 130.7178603229113,228.63653120415984 125.26033345377073,223.2067988163908 123.57243854552507,216.12158769299276 125.03528079926036,210.4268725006841 130.54907083231956,204.93075985874748 136.06286086514592,203.47395063302247 143.995966933202,205.59294472297188 148.15944103966467,211.48635841353098 149.22844114806503,217.9094524512766 147.9343883851543,222.74328284186777 142.42059835232794,228.43788330827374 142.36433518864214,233.8675692382385 131.33675512275659,233.8675692382385 130.380281341495,228.30545134173008 126.61064938013442,225.06085919996258 124.19133334537037,221.48516628245125 123.57243854552507,215.12832723453175 126.66691254382022,208.24167700647376 133.24970268527977,203.14285714289872 138.59470322728157,203.73882529587718 145.683861840982,207.71193146781297 148.9471253301017,213.67154230969027 149.17217798437923,218.70405733241932 146.35901980428025,225.06085919996258 142.5893878431525,228.23923534766072 142.19554569781758,233.80135384667665 131.39301828644238,233.93378462264081 130.54907083231956,228.17301934649004 126.61064938013442,225.12707553815562 124.58517549047247,222.21354986925144 123.6287017094437,215.06210981321055 126.10428090789355,208.97007637249772 130.8303866502829,204.4010114512057 134.93759759305976,203.47395063302247 140.7327034440823,204.4010114512057 143.54586162418127,205.261852380645 145.85265133180656,207.77814968535677 148.9471253301017,213.93641255429247 149.28470431175083,218.96892539644614 146.58407245879062,224.6635610195808 142.64565100660548,228.50409928074805 142.19554569781758,233.8675692382385 131.2804919590708,233.8675692382385 130.7178603229113,228.43788330827374" stroke="#4dd2ff" stroke-dasharray="none" stroke-linecap="round" stroke-linejoin="round" stroke-width="0.5"><title>2020-03-23 10.0km</title><desc>1584960411000</desc></polyline><polyline fill="none" opacity="1" points="167.00577257503755,228.30545134161366 163.23613979737274,225.127075537981 160.53550735930912,220.4256976978504 159.9166124255862,216.5188914242317 160.53550735930912,212.14853617653716 162.84229756658897,208.30789516645018 169.2562996065244,203.1428571428405 174.71382765844464,203.2752945604152 180.50893476465717,205.12941539345775 182.64693544479087,207.1159671882633 185.46009423420765,213.07558383984724 185.6851469373796,217.84323533118004 183.54714625747874,224.0013968119747 178.9898290184792,228.0405873224372 178.3709340847563,233.60270762862638 167.79345703613944,234.0 166.8932462236844,228.37166732840706 163.06735026999377,224.99464285426075 160.6480337108951,220.4256976978504 160.25419148034416,213.67154230963206 162.8985607426148,208.63898585899733 168.97498372779228,203.20907585526584 176.12040705303662,203.47395063290605 181.35288240155205,205.72538160951808 184.95372565207072,211.61879402340855 185.6851469373796,218.30675502086524 183.54714625747874,224.0013968119747 178.93356584268622,228.43788330827374 178.76477631530724,233.6689230418997 167.68093068455346,233.80135384656023 166.9495093994774,228.2392353475443 163.12361344578676,224.59734463103814 160.53550735930912,220.4256976978504 160.31045465613715,213.8701950039249 162.67350803944282,208.4403314649826 170.0439840676263,203.1428571428405 178.82103949110024,204.13613707508193 182.70319862058386,207.1159671882633 185.0099888278637,211.61879402340855 185.6851469373796,218.04188666958362 183.7159357846249,223.73653092811583 178.9898290184792,228.43788330827374 178.82103949110024,233.73513844778063 167.68093068455346,233.93378462281544 166.8932462236844,228.0405873224372 162.67350803944282,224.20004614948994 160.76056006271392,220.82299863226945 160.36671783216298,213.0093661962892 162.95482391817495,208.30789516645018 169.03124690358527,203.6063879787689 175.22019624034874,203.6063879787689 180.9590401710011,205.52672626887215 182.75946179614402,206.9835306025343 185.40383105841465,213.27423672773875 185.7976732889656,218.37297209043754 183.26583037851378,224.20004614948994 178.9898290184792,228.50409928057343 178.76477631530724,233.73513844778063 167.6246675089933,233.73513844778063 166.8932462236844,228.17301934643183 160.98561276565306,221.1540825467673 160.197928304784,218.24053794372594 160.42298100772314,212.67827787052374 163.23613979737274,207.97680429450702 169.76266818889417,203.87126258428907 177.52698644786142,204.33479286782676" stroke="#4dd2ff" stroke-dasharray="none" stroke-linecap="round" stroke-linejoin="round" stroke-width="0.5"><title>2019-12-13 10.0km</title><desc>1576239112000</desc></polyline><polyline fill="none" opacity="1" points="34.40334744186839,237.4285714285652 35.39556195127079,238.1143461450556 37.868223506433424,238.410896522837 38.12021449295571,238.78158377259388 38.57694815599825,258.01915019296575 38.95493463578168,261.4290520277864 38.844688579265494,267.72977892530616 38.151713366271,267.98921565143974 30.103751234419178,267.89655972291075 26.98536277632229,268.2857142857101 25.158428124093916,268.0818715297937 24.717443897621706,264.6165075523895 24.37095629121177,248.95663533676998 18.449168108112644,248.10410413972568 18.165678248216864,247.73343707757886 17.03171880892478,247.5666366377991 16.669481765769888,246.28782786647207 17.000219935609493,245.694753889431 16.826976132404525,245.30554797526565 15.330779649957549,244.00818853700184" stroke="#4dd2ff" stroke-dasharray="none" stroke-linecap="round" stroke-linejoin="round" stroke-width="0.5"><title>2019-11-23 10.0km</title><desc>1574497580000</desc></polyline></svg>