<?xml version="1.0" encoding="utf-8" ?>
<svg baseProfile="full" height="300mm" version="1.1" viewBox="0,0,200,300" width="200mm" xmlns="http://www.w3.org/2000/svg" xmlns:ev="http://www.w3.org/2001/xml-events" xmlns:xlink="http://www.w3.org/1999/xlink"><defs /><rect fill="#222222" height="300" width="200" x="0" y="0" /><text fill="#FFFFFF" style="font-size:12px; font-family:Arial; font-weight:bold;" x="10" y="20">Over 10km Runs</text><text fill="#FFFFFF" style="font-size:4px; font-family:Arial" x="10" y="280">Runner</text><text fill="#FFFFFF" style="font-size:9px; font-family:Arial" x="10" y="290">Floyd Li</text><text fill="#FFFFFF" style="font-size:4px; font-family:Arial" x="65" y="280">SPECIAL TRACKS</text><rect fill="yellow" height="2.6" width="2.6" x="65" y="283" /><text fill="#FFFFFF" style="font-size:3px; font-family:Arial" x="70" y="285.5">Over 20.0 km</text><rect fill="red" height="2.6" width="2.6" x="65" y="287" /><text fill="#FFFFFF" style="font-size:3px; font-family:Arial" x="70" y="289.5">Over 40.0 km</text><text fill="#FFFFFF" style="font-size:4px; font-family:Arial" x="120" y="280">STATISTICS</text><text fill="#FFFFFF" style="font-size:3px; font-family:Arial" x="120" y="285">Number: 39</text><text fill="#FFFFFF" style="font-size:3px; font-family:Arial" x="120" y="290">Weekly: 1.9</text><text fill="#FFFFFF" style="font-size:3px; font-family:Arial" x="141" y="285">Total: 630.0 km</text><text fill="#FFFFFF" style="font-size:3px; font-family:Arial" x="141" y="290">Avg: 16.2 km</text><text fill="#FFFFFF" style="font-size:3px; font-family:Arial" x="167" y="285">Min: 10.0 km</text><text fill="#FFFFFF" style="font-size:3px; font-family:Arial" x="167" y="290">Max: 62.1 km</text><polyline fill="none" opacity="1" points="37.347278187342454,48.0841870214208 37.62149287876673,57.17340962824528 37.25587329029804,57.74707163372659 32.94460897566751,58.374512176727876 27.825934736290947,58.48207317390188 19.416684200288728,57.388533113189624 12.881234055559617,57.44231394075905 12.667955962184351,57.02999381633708 12.378507121291477,48.783375705912476 13.323024391604122,48.496529423311586 25.297065915714484,48.19175470349728 26.104475840344094,47.99454723295639 29.01419839897426,46.23759758082451 28.983730099978857,39.85505215309968 31.817281910974998,39.74747905411641 32.28954054618953,46.2196694270242 35.35160460002953,47.76148355577607 37.042595196922775,47.851123470420134 37.347278187342454,48.06625906759291 37.606258729239926,56.474256371933734 37.545322131190915,57.334752268114244 37.17970254260581,57.76499853942369 33.00554557365831,58.39243901440932 28.92279350181343,58.5 24.718168233928736,58.195243692724034 19.17293780797627,57.37060616679082 13.003107251657639,57.46024087941623 12.683190111711156,57.17340962824528 12.408975420345087,51.04227281511703 12.622253513662145,48.58616894004808 25.677919653768186,48.10211497332784 28.953261800983455,46.291382030482055 28.7704520066618,38.45659641394741 27.09469555929536,36.25131528280326 26.835715017456096,34.92454662642558 27.12516385834897,33.52604923311446 28.450534866715316,31.93031341578171 29.57786193129141,31.5 31.040340285457205,31.5 31.878218509082217,31.75101629513665 33.11218462034594,32.79093689122237 33.78248719929252,34.4942409946234 33.43210176035063,36.50232437287923 32.030560004350264,38.11594514967874 31.969623406184837,39.424759337780415 28.968495950452052,39.62197701697005 28.67904710955918,38.187661263524205 27.2775053535006,36.64575796776626 26.91188576503191,35.73136667108338 26.91188576503191,34.1177226491709 28.008744530612603,32.28890707435494 29.24271064181812,31.589648720560945 31.08604273403762,31.5 32.365711293765344,32.03789159488224 33.218823667033575,32.95230329471815 33.76725304982392,34.29701720624871" stroke="#4dd2ff" stroke-dasharray="none" stroke-linecap="round" stroke-linejoin="round" stroke-width="0.5"><title>2026-06-15 12.8km</title><desc>1781522628000</desc></polyline><polyline fill="none" opacity="1" points="64.35754878621083,35.72963790028007 64.53951274888823,33.74868176894961 64.93376800150145,32.96343130533933 65.88907880586339,32.05324994852708 67.89068239583867,31.5 69.08861181710381,31.767701819975628 70.68079649098217,33.05266450102499 71.1205427343375,34.0699195163761 71.2115247156471,35.47978888996295 70.62014183681458,37.05026208974596 69.40704875194933,38.3530296352983 69.61934004176874,46.15157340388396 72.40945413697045,47.668409753154265 74.48687604471343,47.90039525800967 74.74465832527494,48.114535434157006 75.01760426937835,56.001838059019065 74.82047664310085,57.60780365341634 71.86356224876363,58.25018550977984 67.55708179756766,58.5 63.15961936482927,58.268029414481134 56.19949779048329,57.322299802472116 50.28566900175065,57.39367581161787 49.98239573056344,48.70341948384885 62.90183708432596,48.15022543647501 63.9329662064556,47.82901513738034 66.41980703047011,46.27648986605345 66.2378430676763,38.54933618073119 64.72147671162384,36.693337676959345 64.34238512261072,35.194246699888026 64.66082205745624,33.498829754666076 65.82842415163759,32.14248363712977 67.19315387203824,31.55354039881786 69.10377548070392,31.767701819975628 70.28654123842716,32.57080467004562 71.1963610521052,34.48038905982685 71.0902154071373,35.94379389335518 70.65046916389838,36.94318484708492 69.42221241554944,38.263799310079776 69.37672142486554,39.530865399574395 66.40464336692821,39.655786880714004 66.1316974228248,38.2281071665202 64.85794968367554,36.94318484708492 64.32722145906882,35.53332799549389 64.41820344043663,34.12345908001589 65.37351424479857,32.51726460181817 67.31446318054805,31.571387194577255 69.1189391441876,31.83908889850136 70.40785054687876,32.76711810463166 71.22668837924721,34.748086037361645 70.80210579949198,36.63979894835211 69.42221241554944,38.192415015160805 69.34639409760712,39.56655726098688" stroke="#4dd2ff" stroke-dasharray="none" stroke-linecap="round" stroke-linejoin="round" stroke-width="0.5"><title>2026-06-14 10.1km</title><desc>1781439872000</desc></polyline><polyline fill="none" opacity="1" points="107.36738274910022,46.346092753025005 110.18410051130923,47.75399600484525 111.92561955784913,47.878746344998945 112.27392336714547,48.1104252973164 112.53136531315977,56.32590654987143 112.36478523042751,57.57334072922822 111.89533227006905,57.840646823489806 109.10890179558191,58.25051532492216 104.49009041127283,58.48217967862729 100.23472648020834,58.21487462615187 94.51042909245007,57.35949554129911 87.7866512084147,57.323854649599525 87.48377833078848,50.7479780712747 87.65035841352073,48.627246400370495 100.43159385066247,48.217353934567655 101.68851629295386,47.7361745199305 103.97520651924424,46.31044947639748 103.77833914884832,38.70043314655777 102.06710739003029,36.38349646590359 101.83995273179607,34.6368610940699 102.33969297993463,33.15755337008159 103.32402983226348,32.15945871725853 104.49009041127283,31.606939431032515 105.56528912694193,31.571292961700237 106.35275860887486,31.71387879247777 107.63996833900455,32.426806092931656 108.4728687524912,33.620952400931856 108.71516705467366,34.42298610098078 108.66973612306174,35.88445968004817 108.33657595753903,36.72212770860642 106.8827861448517,38.433095963686355 107.07965351530584,46.06094632393797 110.16895686736098,47.75399600484525 112.22849243547535,48.074782402807614 112.42535980598768,57.44859773671487 111.91047591395909,57.840646823489806 110.53240432054736,58.07231175406196 104.8838251522393,58.48217967862729 100.49216842622263,58.25051532492216 94.31356172193773,57.35949554129911 87.7866512084147,57.35949554129911 87.57464019401232,48.64506778874784 100.3710192751605,48.18171106319642 101.0676268938114,48.00349659060885 103.89948829985224,46.346092753025005 103.76319550490007,38.59349832549924 102.05196374619845,36.4369646031555 101.83995273179607,34.45863195248239 102.38512391154654,33.086261095668306 103.41489169566194,32.03469645995938 105.56528912694193,31.5 107.48853190016234,32.26639771966438 107.9882721483009,32.76544547852245 108.66973612306174,34.20911082983366 108.50315604032949,36.31220558912901 106.97364800813375,38.36180597492785 107.10994080308592,46.132232977543026 109.92665856529493,47.64706706654397 111.97105048946105,47.89656781447411 112.2890670109773,48.252996798211825 112.53136531315977,57.05654771615809 112.30421065492555,57.626801982783945 109.68436026317067,58.17923391969816 105.32299082487589,58.5 100.44673749455251,58.232694976526545 94.61643459962215,57.37731598423852 87.80179485230474,57.35949554129911 87.46863468684023,50.837083845821326 87.6352147696307,48.662889175189775 100.1438646169263,48.252996798211825 101.41593070304953,47.89656781447411 103.89948829985224,46.38173602192546 103.91463194380049,39.93017859378597 103.58147177833598,38.183580867844285 102.65770950150909,37.274629819134134 101.8853836634662,35.88445968004817 101.85509637568612,34.351694374825456 102.15796925337054,33.44272215888486 103.73290821717819,31.89211090716708 106.00445479957853,31.589116197326803 107.88226664112881,32.6763299183076 108.56373061583145,33.95958932887879 108.74545434245374,34.92202731911675 108.42743782087928,36.5260781266843 106.98879165202379,38.21922590468603 106.8070679254597,39.68066576792626 103.92977558763232,39.71631048050767 103.64204635383794,38.272693445454934 102.49112941877684,37.18551670099259 101.8853836634662,35.84881413742551 101.87024001957616,34.369517309227376 102.90000780363334,32.480275515888934 104.24779210920678,31.660409120406257 106.27704038948286,31.660409120406257 107.86712299718056,32.65850680049334 108.71516705467366,34.56556946056662 108.70002341078361,36.04486452626588" stroke="#ffc500" stroke-dasharray="none" stroke-linecap="round" stroke-linejoin="round" stroke-width="0.5"><title>2026-06-10 21.8km</title><desc>1781089369000</desc></polyline><polyline fill="none" opacity="1" points="136.1358243636787,58.5 134.5168027295149,56.17076472187182 132.4930256868247,53.9826648652961 131.00892252207268,51.45925513326074 130.54420334927272,48.61816660147451 131.1438409916591,46.18290839776455 130.66413087776164,46.20055532736296 130.4392667619395,45.97114509328094 130.52921240829164,44.577029795982526 127.11127784720156,41.38287251915608 127.44107855041511,40.20048901422706 129.04510924353963,37.359203983607586 129.16503677202854,36.40621528871998 127.00634125969373,34.97672178466746 124.2030352819711,34.21784976145136 126.82644996704767,34.923777339747176 128.9401726561482,36.17679125108407 129.58478312165244,36.84741445213149 130.46924864401808,36.61799103637168 131.86340616230154,36.68858289104537 131.59356922330335,35.11790688705514 130.90398593468126,34.72964756093279 130.60416711354628,34.129608598857885 130.73908558307448,32.15299401975062 131.1438409916591,31.5 130.73908558307448,32.135345567177865 130.589176172507,34.2354979882075 131.56358734122477,35.15320314343262 131.9383608676726,36.61799103637168 134.56177555269096,37.11213337619847 135.64112330885837,36.07090312465152 135.23636790027376,39.03574462712277 134.21698390843812,41.45346230751602 141.0228711484815,48.124059187059174 142.34207396156853,42.75936787023966 145.56512628897326,39.08868773463473 146.43460087029962,37.60627421589743 147.31906639266526,35.17085126884922 149.34284343535546,32.55890790086414 150.7969647180289,31.74707912642043" stroke="#4dd2ff" stroke-dasharray="none" stroke-linecap="round" stroke-linejoin="round" stroke-width="0.5"><title>2026-06-09 11.9km</title><desc>1781004096000</desc></polyline><polyline fill="none" opacity="1" points="163.19816687740968,49.100733150211454 161.5,47.62512497881835 164.19658659925335,45.47691877851321 166.03128950693645,43.53947522816452 167.60145385586657,41.60199124214705 168.16466498104273,41.25062971091393 169.07774968395825,40.93942267266539 188.36346396966837,40.899266849788546 188.47439949432737,41.1201236606139 188.5,42.14408928144985 188.40613147913245,48.367951071297284 177.36378002527636,48.347874768565816 171.4073957016517,48.488408796547446 171.41592920356197,44.84449346362817" stroke="#4dd2ff" stroke-dasharray="none" stroke-linecap="round" stroke-linejoin="round" stroke-width="0.5"><title>2026-06-07 13.9km</title><desc>1780824448000</desc></polyline><polyline fill="none" opacity="1" points="17.696762606705306,73.23466276916588 17.700541120495473,73.38262637626121 17.67535102859256,73.56905825438753 17.500279889914964,74.06915668216789 17.448640201517264,74.3221581310263 17.437304660168593,74.7586116792263 17.575850165601878,76.03386439365113 17.802560992677172,77.02942616882228 17.78114941455715,77.17586974358619 17.68542706534936,77.42437648611758 17.669053505625925,77.60779525098224 17.743364276720968,78.3902559112912 17.868055231607286,78.75262810287677 17.89072631431918,78.87390972607136 17.83404860754672,79.95060704330353 17.881909782154253,80.11920311907397 17.93858748891944,80.21828932322296 18.218197508984304,80.47117774633534 18.303843821428018,80.61462700956781 18.316438867383113,80.77138428948638 18.235830573306885,81.11446946794695 18.25346363763674,81.24903933777114 18.302584316836146,81.37473528118153 18.053202407056233,81.58324013982565 17.7912254513285,81.86567785767147 17.54814106451522,82.08156875212353 17.186663245789532,82.6050161875819 16.981363996826985,82.94805569518303 16.920907776271633,83.01754972730942 16.73702010542911,83.15062242751173 16.675304380281887,83.24672968938012 16.691677940012596,83.28517240640758 16.822666417872824,83.33248637241104 17.09723841955565,83.34431483853041 17.119909502267546,83.36353607430192 17.12494752064231,83.48182001188889 17.143840089564037,83.50104105582886 17.337803797170636,83.58236056041187 17.47760880720307,83.57348936505332 17.640084899932845,83.4522491226935 18.06201893922116,83.22602972039658 18.049423893273342,83.19793685559944 17.832789102954848,83.15949389515572 17.812637029441248,83.09591491746687 17.841605635119777,82.99832800881359 18.038088351917395,83.01607113452792 18.08091150814289,82.83272440012388 18.112399123012437,82.81941688086954 18.214418995194137,82.8297671747332 18.242128096280794,82.85342496008161 18.211899986003118,83.08408623808373 18.229533050332975,83.12548657149455 18.718220833136,82.96727748382182 18.952488687784353,82.95397009454337 19.432359938429727,82.88003992002723 19.747236087139754,83.01311394849927 19.913490693666972,83.0559930838408 20.065890749639948,83.06782178734647 20.57095209218096,83.21420115272667 21.116317581756448,83.49512689131734 21.363180482345342,83.54687574470609 21.56973923589976,83.6267164515184 22.01938237626746,83.65628696626572 22.101250174928282,83.59566734273449 22.126440266831196,83.49956251493677 22.199491533334367,83.4389422018512 22.641577646129008,83.24229398435637 22.669286747215665,83.25412252790738 22.515627186643542,82.94805569518303 22.419904837428476,82.88151852740884 22.309068433081848,82.8667324464841 22.312846946872014,82.6552897530828 22.345594066333433,82.61388800659279 24.59884778653941,81.98841076750978 24.84948920091847,81.95735796595818 25.098871110691107,81.96031537864746 27.64684890609351,82.17029005646418 27.956687036428775,82.17324742343044 28.397513644631545,82.11114258373436 28.944138638798904,81.94109218482208 29.25397676913417,81.88046501318604 31.83470168399799,81.7030180991851 32.16343238326226,81.63647491703068 32.479568036571436,81.51521762506309 32.7503615244641,81.3569900410721 33.016116993981996,81.13517261042944 33.52243784111488,80.55103628346023 33.944371880388644,80.12807653955952 34.300811680732295,79.71249854235703 34.5728646732241,79.31317690541073 34.88774082194141,78.60324317148115 35.011172272235854,78.43462852894572 35.20135746605956,78.29559384886488 36.17369501329085,77.71429534749223 36.35758268414065,77.54123227213768 36.44070998740062,77.4021885665552 36.493609180390195,77.24243448965535 36.601926575545804,76.8208523263429 36.68379437420663,76.3460022118461 36.74551009935385,76.11226934572824 36.94325232075062,75.57082226316106 37.215305313242425,74.98349081301149 37.43445911274466,74.64765022568645 37.81608900498395,74.23190668619009 38.02390726313752,73.95375096680436 38.17126930073573,73.6652324413626 38.384125577271334,73.06006366492511 38.43198675187887,73.0704213007657 38.44836031160958,73.11925005034482 38.49118346783507,73.10297381974851 38.5,73.14292453317739 38.44584130241856,73.11925005034482 38.43198675187887,73.04822635727123 38.36397350375046,73.04082803481288 38.118370107753435,73.71109989365868 38.05413537341519,73.83094638562034 38.01257172178157,73.85018091052007 37.57300461818522,73.65783445086254 36.74551009935385,73.42553552451682 36.429374446044676,73.36930971682068 34.906633390863135,73.30272622617213 33.09924429724197,73.14144487919566 31.650814013148192,73.13404660688957 30.936674907861743,73.02159237778869 29.606638055702206,72.68570387527325 29.110393245318846,72.58952283690451 28.692237719827972,72.55696910228289 27.75138778746623,72.59840111478479 27.525936464982806,72.57472569435777 27.00828007650125,72.41787500427745 26.11781032793806,72.20183244474538 25.991859868452593,72.1352433001548 25.918808601949422,72.06717406342614 25.843238326255232,71.95027176172425 25.702173811630928,71.30655140586623 25.50569109483331,70.92622429325183 25.442715865094215,70.84335006295078 25.300391845870763,70.76935479220265 25.100130615290254,70.72495743853506 25.03715538555116,70.6361623009434 24.970401642021898,70.61544335296003 24.85074870551034,70.674640264333 24.791551989554137,70.62580283085663 24.71094369547791,70.64948160814947 24.60766431869706,70.758995422505 24.382212996220915,70.78859360091792 24.07489387507667,70.79599313556082 23.87589214908803,70.7397565723586 23.69074497364636,70.58880465965285 23.535825908482366,70.13001906162845 23.375868824929057,69.87694045133958 23.188202640296367,69.76593959043385 22.765009096423455,69.64309759249136 22.510589168261504,69.54541521994815 22.4715445258189,69.53653496983225 22.44005691094935,69.55577550449925 22.394714745532838,69.52617467077289 22.247352707934624,69.50397400362272 21.883355880017916,69.37224930743105 21.445048281006166,69.3293275044407 21.317838316928828,69.2923258425244 21.272496151512314,69.29972618287866 21.22589448150393,69.26716465550362 21.040747306062258,69.26864472660509 19.835401408774487,69.06883368600211 17.941106498110457,68.3346881698726 17.787446937538334,68.31840627221754 16.441036525633535,68.29768382911152 15.856626393622719,68.31100540326952 15.619839529783349,68.2932433015203 15.453584923263406,68.23403612983657 15.336450995942869,68.16446737703882 14.849022717731714,67.73520557663505 13.86786863834277,67.30148951298816 12.762023604052956,67.08092557892542 12.361501142884663,66.86775975332966 11.82495218548138,66.48730974536466 11.502519009191019,66.34371303373337 11.5,66.36739919267075 11.829990203856141,66.51543676044457 12.3866912347803,66.909208922978 12.700307878905733,67.0750043506614 12.826258338391199,67.12237410525267 13.809931426978437,67.30741064361064 13.961071978352265,67.35477959666787 14.847763213139842,67.75740910218337 15.277254279986664,68.14522489385399 15.378014647576492,68.21479374409955 15.551826281662215,68.29176312533946" stroke="red" stroke-dasharray="none" stroke-linecap="round" stroke-linejoin="round" stroke-width="0.5"><title>2026-06-06 62.1km</title><desc>1780699923000</desc></polyline><polyline fill="none" opacity="1" points="69.73306751844939,76.222954250974 72.6293272585608,77.72194489857065 74.55511253071018,77.88255023074453 74.8128948113299,78.20376042542921 75.0403497646912,86.62638209403667 74.8583858020138,87.57211569909123 71.76499843562488,88.21449769452738 66.29091589013115,88.5 56.91977180953836,87.3579878109158 50.2477598428959,87.25092376250541 49.95965023525059,80.64850639121141 49.97481389879249,78.88186878045963 50.187105188611895,78.59634981317504 63.07621921529062,78.16807043470908 66.42738886224106,76.31218026641 66.50320718000876,69.81640007448732 66.10895192739554,68.1210306892608 65.35076874936931,67.47857036457572 64.57742190774297,66.31856621135375 64.33480329083977,64.62316083535552 64.8503678519046,63.12405102279445 65.63887835707283,62.24956399976509 66.36673420795705,61.8033953631093 67.82244590978371,61.5 68.70193839631975,61.62492757011205 70.0818317803787,62.32095086952904 71.18877922027605,64.21269164745172 70.99165159399854,66.37210504434188 69.42979424726218,68.33518357417779 69.62692187348148,75.95527591479186 69.82404949981719,76.27648986605345 72.59899993147701,77.68625480355695 74.53994886722649,77.90039525800967 74.8128948113299,78.16807043470908 74.9493677833234,87.42936380454921 74.37314856797457,87.82193121702585 72.5080179501092,88.14312204088492 67.20073570380919,88.48215612041531 62.939746243238915,88.23234160314314 56.84395349177066,87.3579878109158 50.2477598428959,87.28661178637412 50.05063221656019,78.63203971114126 62.772945944045205,78.20376042542921 64.21349398238817,77.70409985203878 66.48804351646686,76.18726383126341" stroke="#4dd2ff" stroke-dasharray="none" stroke-linecap="round" stroke-linejoin="round" stroke-width="0.5"><title>2026-06-05 14.5km</title><desc>1780659860000</desc></polyline><polyline fill="none" opacity="1" points="90.55641330167418,84.61627875627892 89.61045130644925,81.97417715800111 88.72060570074245,80.6059144655228 87.13331353917602,78.756366581576 86.66834916864173,77.7277744823441 86.5,76.78410131760756 86.58016627078177,75.89703921625915 86.90884798101615,75.00053110085719 88.42399049884989,73.04705512682267 89.00920427552774,72.00895826995111 89.93111638957635,66.46908663587965 90.08343230406172,66.28032840951346 107.08669833731255,65.9500005283262 110.96674584323773,65.38372124371381 111.68022565322462,67.48837398450269 111.77642517819186,71.06522311186563 113.5,77.98256448319444 113.3957838480128,78.756366581576 113.16330166277476,79.19988419600122 110.2692992874654,82.66301851465687 109.81235154398018,84.25771252652339" stroke="#4dd2ff" stroke-dasharray="none" stroke-linecap="round" stroke-linejoin="round" stroke-width="0.5"><title>2026-06-04 19.5km</title><desc>1780570902000</desc></polyline><polyline fill="none" opacity="1" points="124.0,79.98482254403643 124.04155124654062,70.09337502669223 143.32963988921256,70.06405094561342 146.22991689748596,70.51368581091083 148.7894736842427,70.14224847405421 150.6925207756285,70.2106712560053 151.0,70.01517745596357" stroke="#4dd2ff" stroke-dasharray="none" stroke-linecap="round" stroke-linejoin="round" stroke-width="0.5"><title>2026-06-02 16.9km</title><desc>1780401150000</desc></polyline><polyline fill="none" opacity="1" points="161.5,79.42238459605869 162.13860869564814,78.1288849960547 163.14347826084122,71.9375485799901 163.31252173910616,71.68325351121894 183.2220869564917,71.29628153749945 187.71113043476362,70.57761540394858 188.5,72.52353045430937" stroke="#4dd2ff" stroke-dasharray="none" stroke-linecap="round" stroke-linejoin="round" stroke-width="0.5"><title>2026-05-28 19.4km</title><desc>1779966212000</desc></polyline><polyline fill="none" opacity="1" points="25.561798058159184,108.15439369661908 28.91740267619025,106.3675220880541 28.704830437840428,98.54079644694866 27.232008501479868,96.82530012576899 26.73094536847202,95.41357623241493 26.74612909980351,94.770255008596 27.50531566492282,92.786665443331 28.568176856148057,91.91101921851805 29.919528942147736,91.5 32.16672117495909,92.01824145496357 32.92590774013661,92.786665443331 33.56362445477862,94.00184025916678 33.7002780365292,94.91321549733402 33.42697087302804,96.36068346911634 31.878230280184653,98.48718745692167 32.06043505581329,106.0816208350443 34.71758803393459,107.6183342456934 36.99514772929251,107.92210148170125 37.23808743013069,108.19013093144167 37.52657832490513,117.12419682677137 37.3443735492765,117.64235780978925 33.7002780365292,118.32132491121592 28.537809393543284,118.48213249984838 25.455511939013377,118.2677223468636 19.139079717046116,117.33860846533207 13.141505852341652,117.41007894961513 12.640442719333805,117.15993211924797 12.473421675036661,108.74405708127597 13.247791971429251,108.52963427611394 25.40996074519353,108.17226231502718 28.91740267619025,106.31391564085789 28.735197900503408,98.43357844943239 27.232008501479868,96.7538207252801 26.791680293739773,94.50220375825302 27.717887903214432,92.57222189960885 28.947770138736814,91.73231533631042 29.82842655433342,91.53574084225693 31.01275759591954,91.60722250356048 32.197088637563866,92.07185254704382 32.72851923323469,92.48287034081295 33.50288952968549,93.87674914726813 33.685094305255916,95.34209622026538 33.396603410481475,96.46790281368885 31.878230280184653,98.3263603822561 32.06043505581329,106.09948967785749 34.6872205712134,107.58259688709222 37.28363862406695,108.13652507629013 37.49621086230036,117.2135350433673 37.28363862406695,117.71382816250843 34.216524900868535,118.28558987028373 29.57030312216375,118.5 25.182204775628634,118.24985482156626 19.169447179650888,117.37434371130075 12.685993913328275,117.33860846533207 12.488605406309944,108.72618852484447 14.87245122087188,108.45815994577424 25.68326790863648,108.13652507629013" stroke="#ffcd00" stroke-dasharray="none" stroke-linecap="round" stroke-linejoin="round" stroke-width="0.5"><title>2026-05-27 20.2km</title><desc>1779879632000</desc></polyline><polyline fill="none" opacity="0.5" points="62.02240364794852,118.48244619151228 59.97769426566083,115.56848768751661 55.69425198313547,111.30277946437127 53.7092421449488,107.68649463028123 53.05254716076888,105.22877937107114 52.84359875676455,102.29702752640878 53.485368854831904,98.3469787773065 54.694284620985854,95.50288418507262 56.26139765128028,93.72968889099138 58.69415406946791,92.1847108695365 61.33585889189271,91.5 63.79846508218907,91.62289703535498 65.78347492043395,92.816749109581 66.88791648461483,94.5021723894024 67.11178977461532,96.71426389737462 66.33569570252439,99.97967724234331 66.54464410658693,102.59547175045009 67.48491192469373,104.68456596291799 70.67883752915077,108.7748995062866 71.63403023325372,111.32033404878166 72.1116265853052,114.14659739319177 64.63425869832281,117.2010130474373 62.08210319199134,118.5 60.06724358169595,115.70892062154599 56.90316774928942,112.70714021974709 55.26143028907245,110.75858640753722 54.08236429496901,108.59935082608717 53.24657067883527,106.21186993762967 52.84359875676455,102.89391542608791 53.05254716076888,100.52390641637612 53.7092421449488,97.59206963660836 54.88830813905224,95.25709589432518 55.85842572915135,94.11593109951355 58.18670794548234,92.41294718443532 60.9030371978879,91.55267016938888 63.7238406521501,91.6053403217229 65.7983998064883,92.85186227297527 66.57449387852103,93.81747129179712 66.96254091459559,94.78307456869516 67.11178977461532,96.27535924842232 66.33569570252439,100.10256786039099 66.57449387852103,102.80613793132943 67.51476169668604,104.7196765603585 69.18634892895352,106.68585790607904 70.61913798504975,108.86267377526383 71.5146311452263,110.95168737835775 72.15640124329366,113.98860881441215 62.00747876195237,118.4122309385275 59.96276937966468,115.60359593240719 55.96289993118262,111.63631624315167 53.843566118972376,108.09025858041423 53.097321818815544,105.33411078779318 52.87344852875685,102.45502747803403 53.53014351287857,98.10119479119021 54.53011087496998,95.78378463328409 56.007674589171074,93.99303595100355 58.06730885745492,92.500730297048 60.395591073844116,91.65801045694388 63.470117590157315,91.55267016938888 65.41035277041374,92.500730297048 66.75359251059126,94.25638258398976 67.11178977461532,96.36314027314074 66.32077081652824,100.17279102899192 67.11178977461532,96.36314027314074 66.75359251059126,94.25638258398976 65.41035277041374,92.500730297048 63.470117590157315,91.55267016938888 60.395591073844116,91.65801045694388 58.06730885745492,92.500730297048 56.007674589171074,93.99303595100355 54.53011087496998,95.78378463328409 53.53014351287857,98.10119479119021 52.87344852875685,102.45502747803403 53.097321818815544,105.33411078779318 53.843566118972376,108.09025858041423 55.96289993118262,111.63631624315167 59.96276937966468,115.60359593240719 62.00747876195237,118.4122309385275 72.15640124329366,113.98860881441215 71.5146311452263,110.95168737835775 70.61913798504975,108.86267377526383 69.18634892895352,106.68585790607904 67.51476169668604,104.7196765603585 66.57449387852103,102.80613793132943 66.33569570252439,100.10256786039099 67.11178977461532,96.27535924842232 66.96254091459559,94.78307456869516 66.57449387852103,93.81747129179712 65.7983998064883,92.85186227297527 63.7238406521501,91.6053403217229 60.9030371978879,91.55267016938888 58.18670794548234,92.41294718443532 55.85842572915135,94.11593109951355 54.88830813905224,95.25709589432518 53.7092421449488,97.59206963660836 53.05254716076888,100.52390641637612 52.84359875676455,102.89391542608791 53.24657067883527,106.21186993762967 53.97789009293774,108.28336272353772" stroke="#4dd2ff" stroke-dasharray="1,0.5" stroke-linecap="round" stroke-linejoin="round" stroke-width="0.5"><title>2026-05-26 19.0km</title><desc>1779792854000</desc></polyline><polyline fill="none" opacity="1" points="99.52240364794852,118.48244619151228 97.47769426566083,115.56848768751661 93.19425198313547,111.30277946437127 91.2092421449488,107.68649463028123 90.55254716076888,105.22877937107114 90.34359875676455,102.29702752640878 90.9853688548319,98.3469787773065 92.19428462098585,95.50288418507262 93.76139765128028,93.72968889099138 96.19415406946791,92.1847108695365 98.83585889189271,91.5 101.29846508218907,91.62289703535498 103.28347492043395,92.816749109581 104.38791648461483,94.5021723894024 104.61178977461532,96.71426389737462 103.83569570252439,99.97967724234331 104.04464410658693,102.59547175045009 104.98491192469373,104.68456596291799 108.17883752915077,108.7748995062866 109.13403023325372,111.32033404878166 109.6116265853052,114.14659739319177 102.13425869832281,117.2010130474373 99.58210319199134,118.5 97.56724358169595,115.70892062154599 94.40316774928942,112.70714021974709 92.76143028907245,110.75858640753722 91.58236429496901,108.59935082608717 90.74657067883527,106.21186993762967 90.34359875676455,102.89391542608791 90.55254716076888,100.52390641637612 91.2092421449488,97.59206963660836 92.38830813905224,95.25709589432518 93.35842572915135,94.11593109951355 95.68670794548234,92.41294718443532 98.4030371978879,91.55267016938888 101.2238406521501,91.6053403217229 103.2983998064883,92.85186227297527 104.07449387852103,93.81747129179712 104.46254091459559,94.78307456869516 104.61178977461532,96.27535924842232 103.83569570252439,100.10256786039099 104.07449387852103,102.80613793132943 105.01476169668604,104.7196765603585 106.68634892895352,106.68585790607904 108.11913798504975,108.86267377526383 109.0146311452263,110.95168737835775 109.65640124329366,113.98860881441215 99.50747876195237,118.4122309385275 97.46276937966468,115.60359593240719 93.46289993118262,111.63631624315167 91.34356611897238,108.09025858041423 90.59732181881554,105.33411078779318 90.37344852875685,102.45502747803403 91.03014351287857,98.10119479119021 92.03011087496998,95.78378463328409 93.50767458917107,93.99303595100355 95.56730885745492,92.500730297048 97.89559107384412,91.65801045694388 100.97011759015732,91.55267016938888 102.91035277041374,92.500730297048 104.25359251059126,94.25638258398976 104.61178977461532,96.36314027314074 103.82077081652824,100.17279102899192" stroke="#ffbf00" stroke-dasharray="none" stroke-linecap="round" stroke-linejoin="round" stroke-width="0.5"><title>2026-05-24 23.2km</title><desc>1779623970000</desc></polyline><polyline fill="none" opacity="1" points="124.07083587554371,107.82531033843043 124.0,109.2896563952927 124.03294691884366,109.43859905780664 124.1153142159892,109.60301485217678 124.51891397193685,109.98213260983539 124.6095179987824,110.14074073243864 124.62928615009878,110.35737396020886 124.52715070164413,110.78096176102008 124.58810250151873,111.09622840680277 124.70671140939521,111.26062906993866 124.91427699816995,111.39214852014629 128.46924954240967,112.71309209789433 128.73611958511174,112.78078059495965 129.2731543624177,112.8387991043328 129.84972544234915,112.78078059495965 132.67327638804272,111.98204012462884 133.06699206832855,111.91048053324812 133.53483831604535,111.90854648629465 136.834472239163,112.1793110397939 137.35668090298714,112.1793110397939 137.9118364856622,112.08454390897532 138.56253813300282,111.87953575705433 138.95295912140864,111.8002395254116 142.41568029285554,111.55461239762917 142.78633312995953,111.47144654815929 143.24429530200723,111.28190434022326 143.5391702257475,111.0981625409695 143.88511287370056,110.80223759785986 144.48804148870113,110.10205595327898 145.04978645515803,109.53531441276027 145.62141549724765,108.87183663715768 145.89487492373155,108.45013834749261 146.28529591213737,107.5641528873839 146.46156192800117,107.31072981321086 146.66089078706864,107.15209676053018 147.9738255033517,106.37051838366096 148.23575350822648,106.12675184837099 148.3280048810193,105.97197773155676 148.402135448443,105.76303056271718 148.57016473459225,105.10521808093472 148.67724222085963,104.4802739518982 148.74807809639606,104.22874232572394 148.92599145819986,103.7372780791502 149.26040268455836,103.02908158007631 149.25546064673108,102.992316519827 149.4860890787022,102.55693509343655 149.6261134838278,102.35762363582035 150.17467968272103,101.75774087532591 150.39871873092488,101.45779199303797 150.61781574130146,101.01656777266362 150.87480170834897,100.28117001805003 150.89951189749263,100.26375233827093 151.0,100.30439356483657 150.89456985966535,100.19795206244635 150.84844417327258,100.23472283450064 150.52391702256864,101.14235648233262 150.46131787675404,101.12300443041386 150.39871873092488,101.00882690025537 150.49920683342498,101.17719012332054 150.43496034167038,101.2933017727446 150.39871873092488,101.30684808301885 149.8023794996916,101.04172558497339 148.70524710189056,100.73402377140883 148.31647345942474,100.66822521612448 146.3182428309883,100.58307378724385 144.1124466137844,100.37986988479861 142.52605247101746,100.37986988479861 141.92477120194962,100.3469699894049 141.23123856009624,100.23472283450064 139.31537522879808,99.7586322865427 138.78657718121394,99.65799364640043 138.12599145820423,99.60767411512097 136.95802318486676,99.66573510025592 136.68456375838286,99.63476926484327 136.00091519219131,99.4276838698679 134.8444783404484,99.14511490430596 134.72586943257193,99.09092308838808 134.59902379498817,98.99221614686758 134.49359365466808,98.84512244431608 134.28273337400606,97.95092167519579 134.04386821232765,97.52122496552329 133.89395973154024,97.36250556534651 133.7012202562546,97.26572475552166 133.53648566198535,97.24056165961883 132.20378279438592,97.33540699111109 132.06046369737305,97.3257289189878 131.92208663819474,97.27733848020944 131.76064673581277,97.16120089566903" stroke="red" stroke-dasharray="none" stroke-linecap="round" stroke-linejoin="round" stroke-width="0.5"><title>2026-05-23 52.6km</title><desc>1779516240000</desc></polyline><polyline fill="none" opacity="1" points="187.5645403745002,116.99912324227626 187.3216006210423,117.66022540080303 184.7707332096761,118.17838470086281 181.08108570391778,118.46426499770314 174.84057078685146,118.17838470086281 168.4178510546335,117.28500558173982 162.9061553979409,117.42794656577462 162.69358311360702,117.07059387353365 162.435459625558,111.01334802483325 162.69358311360702,108.6011085750797 175.5086551088607,108.19013093099056 178.92499539192067,106.2960468208039 178.77315804595128,98.37996942423342 177.08776350633707,96.3428135713475 176.82964001834625,94.98469569506415 176.93592616042588,94.09119099513919 177.74066409375519,92.6258328116237 178.66687190387165,91.89314883900806 179.6538146522944,91.51787042208889 181.1721881114645,91.58935209111951 182.8423989165458,92.5186109701317 183.7230555228307,94.26989232226333 183.60158564610174,96.09263480255322 183.0094199970481,97.2184362745611 182.11357965617208,97.98683604286634 181.91619110642932,98.61227507292642 182.09839592158096,105.9208011621231 182.2957844712073,106.27817799928016 185.19587777816923,107.74341493958491 187.30641688639298,108.1007878294622 187.44307049771305,117.53515222256829 185.013672963134,118.16051716588845 179.30458875669865,118.48213249980472 175.2049804170383,118.21411976509262 169.04038417281117,117.30287321150536 163.01244154007873,117.39221133136016 162.73913431738038,117.15993211916066 162.45064336014912,110.6202447416581 162.61766444070963,108.6011085750797 175.06832680566004,108.22586815805698 176.4804141226923,107.83275823458098 178.9553628611029,106.26030917576281 178.74279057676904,98.41570877608319 177.2699683214305,96.78956042912614 176.84482375287917,94.55581404300756 177.28515205607982,93.23342193065037 178.25691106996965,92.16120432842581 179.24385381833417,91.6429633225489 180.24598030140623,91.5 182.35651940962998,92.14333397599694 183.5712181769777,93.71591757821443 183.6471368498751,95.91393544976017 183.1005224045366,97.03973814107303 181.99210977938492,98.16553315051715 181.91619110642932,98.68375366822875 182.08321218693163,106.04588314316061 185.0744079014985,107.67194026877405 187.26086568267783,108.02931331342552 187.5645403745002,116.19507650744345 187.3975192939979,117.57088742597261 184.75554947502678,118.19625223395997 179.63863091770327,118.5 175.70604365848703,118.2677223468636 169.35924259928288,117.32074083932093 162.69358311360702,117.35647608920408 162.5113782985136,108.65471427925513 175.79714606603375,108.15439369621163 178.77315804595128,106.43899732349382 179.00091406487627,106.13522735728475" stroke="#ffc300" stroke-dasharray="none" stroke-linecap="round" stroke-linejoin="round" stroke-width="0.5"><title>2026-05-17 22.3km</title><desc>1779013233000</desc></polyline><polyline fill="none" opacity="1" points="29.966229508194374,129.62688407988026 29.854098360665375,129.54367126389116 28.390491803293116,129.45352392523637 24.105901639326476,129.57140888116555 23.793114754080307,129.4327206753078 23.102622950798832,128.8640959086115 21.93409836065257,128.51043650905922 21.615409836056642,128.1359714984428 21.09606557377265,126.81839211400802 20.842295081994962,125.30660992337653 19.419999999983702,124.77955824668607 18.12163934423006,124.88358194563625 15.218032786884578,125.54239480308024 12.284918032761198,125.1471078975228 12.119672131142579,125.23726126502879 11.972131147544133,125.51465545027168 11.523606557399035,126.97095531754167 11.58262295080931,127.24140738092683 12.739344262314262,128.8918338185831 16.091475409833947,129.54367126389116 17.11836065573152,130.39659753083106 17.324918032769347,131.18710447253397 17.932786885241512,132.63634199952503 18.068524590169545,133.59323694253544 18.87114754098002,136.99079254934622 18.91245901637012,137.60788035873702 19.50262295079301,140.6169654391124 19.951147540996317,141.3934807110345 20.387868852441898,141.66387222506455 22.270491803297773,142.31558044166013 24.253442622954026,143.58431263703824 26.17147540982114,143.69523885453964 26.950491803261684,144.3053296376529 27.56426229508361,144.36772496033518 28.555737704911735,144.83222157471755 32.031803278659936,145.248185850367 32.25016393439728,145.08180046228517 32.36819672130514,144.80449052752374 32.76360655738972,143.43178877613536 32.970163934427546,141.65693912350253 32.911147540959064,141.40734697012522 32.56885245902231,141.1716201597228 32.54524590165238,141.06068959759432 32.775409836060135,140.4297683932018 32.94065573767875,140.24257080339885 32.94655737702851,139.23030774696235 33.389180327852955,137.89908828327316 34.18590163931367,136.85905393673602 35.838360655732686,135.77740040406206 37.04819672132726,134.70959640929505 37.815409836068284,133.26040553126222 38.092786885245005,133.05931905352918 38.5,133.20493346218427 38.122295081964694,133.05238502585416 37.79770491801901,133.27427354106476 37.1544262295065,134.55011767002725 36.44622950820485,135.23656682673754 33.04098360656644,131.44367042940576 30.17868852461106,130.8750634178068 29.954426229494857,130.60462661410565 29.907213114754995,129.55060566934117 29.387868852441898,129.44658950933808 24.046885245887097,129.55754007404175 23.149836065538693,128.87796486507432 21.951803278701846,128.51043650905922 21.574098360637436,128.07356045163033 21.0606557377032,126.72130625082355 20.877704918035306,125.34821908252343 19.443606557382736,124.77262332742976 19.07180327869719,124.7379487200451 17.690819672105135,124.94599608435237 15.15311475409544,125.5285251281748 12.202295081951888,125.15404277641937 12.019344262283994,125.38982821480022 11.5,127.06804080431903 12.715737704915227,128.89876829420973 16.126885245903395,129.57140888116555 17.106557377032004,130.3757945855541 17.283606557379244,131.08309095560253 17.938688524562167,132.71955081976193 18.02721311475034,133.48229332985647 18.847540983580984,136.87292117180186 19.47901639342308,140.5545664842648 19.59704918033094,140.90815976280282 20.01016393440659,141.42814635317336 20.41737704919069,141.65693912350253 22.252786885248497,142.3225134723616 24.259344262303784,143.57044684640277 24.637049180309987,143.65364154533017 26.18327868852066,143.6813730878057 26.9622950819612,144.31226245425933 27.422622950805817,144.31919527013815 28.67967213114025,144.87381812310196 31.760327868832974,145.26205127996218 32.09672131147818,145.22045498216903 32.27967213114607,145.061002258597 32.50393442620407,144.4786498292815 32.81081967212958,143.1475387992905 32.98196721309796,141.70547081881523 32.92885245900834,141.40734697012522 32.61606557373307,141.20628592124558 32.56885245902231,141.0745559283023 32.72229508194141,140.51990037209907 32.95836065572803,140.18017148593935 32.94065573767875,139.21644101934362 33.389180327852955,137.89908828327316 33.93213114753598,137.1086637112312 36.02131147540058,135.65259305848303 36.74131147537264,135.0285527032829" stroke="#ff8300" stroke-dasharray="none" stroke-linecap="round" stroke-linejoin="round" stroke-width="0.5"><title>2026-05-16 35.3km</title><desc>1778887035000</desc></polyline><polyline fill="none" opacity="0.5" points="72.29128720448352,148.41054406383773 68.7943989171763,148.5 64.91741407691734,148.26741446525557 58.166899296222255,147.33706905294093 52.13096603512531,147.28339511936065 51.82688879274065,141.4149398964073 51.97892741399119,138.62377220552298 64.75017159362324,138.15857300652715 66.04249987367075,137.65758778910094 68.32307919149753,136.26197810236772 68.18624443240697,128.69327409977268 68.00379808695288,128.10279324989824 67.18278953252593,127.36916258730344 66.45300415088423,126.22397650475614 66.19453849492129,124.8461639782181 66.58983890991658,123.3609765672445 67.98859422485111,121.89366986829555 69.00725298683392,121.53578820856637 70.10193105932558,121.5 71.88078292721184,122.21576269919751 73.036276448227,124.04094354507106 73.08188803464873,125.63348682901415 72.58016058470821,126.90393169868912 71.36385161516955,128.1564734143467 71.24222071823897,129.57004480175965 68.36869077780284,129.64161771489307 68.03420581121463,128.12068663997343 66.84830456599593,126.97550576683716 66.22494621912483,125.36508173320908 66.37698484031716,123.91568668051332 67.0915663599153,122.64521883007546 68.74878733081277,121.60736460253247 70.81651257898193,121.64315278791764 71.80476361664478,122.16208060430654 72.44332582561765,122.82415855507134 73.17311120725935,124.70301396586001 72.7474030679441,126.5997415631573 71.3942593394313,128.084899857844 71.21181299403543,129.5163650965842 68.36869077780284,129.62372448948736 68.06461353541818,128.21015356136195 66.87871229025768,127.01129278923327 66.28576166753192,125.63348682901415 66.34657711605541,124.0588373751234 66.96993546292651,122.73468871682417 68.39909850206459,121.73262321738002 70.22356195631437,121.51789410524361 71.94159837573534,122.28733879853098 72.64097603323171,123.16414349869592 73.11229575885227,124.30935079221672 73.036276448227,125.88399785832735 72.48893741198117,126.99339927898836 71.37905547732953,128.24594031638117 71.25742458039895,129.53425833363144 68.44471008848632,129.65951093834883 68.12542898394167,128.26383369098767 66.924323876563,126.99339927898836 66.25535394332837,125.36508173320908 66.49861573718954,123.55780940127443 67.36523587798001,122.3410208527057 69.18969933217159,121.5 70.84692030318547,121.64315278791764 72.00241382420063,122.3410208527057 73.11229575885227,124.23777556899586 73.06668417248875,125.70506144758838 72.39771423931234,127.11865381007374 71.37905547732953,128.12068663997343 71.31824002880603,129.4984718576452 68.41430236416636,129.65951093834883 68.00379808695288,128.084899857844 67.06115863565356,127.22601476115233 66.36178097815719,125.95557236834429 66.22494621912483,124.52407627593493 66.77228525537066,122.82415855507134 66.84830456599593,123.003098086323 67.45645905064885,122.28733879853098 68.44471008848632,121.71472913537582 70.58845464716433,121.58947050693678 68.44471008848632,121.71472913537582 67.45645905064885,122.28733879853098 66.84830456599593,123.003098086323 66.77228525537066,122.82415855507134 66.22494621912483,124.52407627593493 66.36178097815719,125.95557236834429 67.06115863565356,127.22601476115233 68.00379808695288,128.084899857844 68.41430236416636,129.65951093834883 71.31824002880603,129.4984718576452 71.37905547732953,128.12068663997343" stroke="#4dd2ff" stroke-dasharray="1,0.5" stroke-linecap="round" stroke-linejoin="round" stroke-width="0.5"><title>2026-05-12 15.2km</title><desc>1778590468000</desc></polyline><polyline fill="none" opacity="1" points="109.79128720448352,148.41054406383773 106.2943989171763,148.5 102.41741407691734,148.26741446525557 95.66689929622225,147.33706905294093 89.63096603512531,147.28339511936065 89.32688879274065,141.4149398964073 89.47892741399119,138.62377220552298 102.25017159362324,138.15857300652715 103.54249987367075,137.65758778910094 105.82307919149753,136.26197810236772 105.68624443240697,128.69327409977268 105.50379808695288,128.10279324989824 104.68278953252593,127.36916258730344 103.95300415088423,126.22397650475614 103.69453849492129,124.8461639782181 104.08983890991658,123.3609765672445 105.48859422485111,121.89366986829555 106.50725298683392,121.53578820856637 107.60193105932558,121.5 109.38078292721184,122.21576269919751 110.536276448227,124.04094354507106 110.58188803464873,125.63348682901415 110.08016058470821,126.90393169868912 108.86385161516955,128.1564734143467 108.74222071823897,129.57004480175965 105.86869077780284,129.64161771489307 105.53420581121463,128.12068663997343 104.34830456599593,126.97550576683716 103.72494621912483,125.36508173320908 103.87698484031716,123.91568668051332 104.5915663599153,122.64521883007546 106.24878733081277,121.60736460253247 108.31651257898193,121.64315278791764 109.30476361664478,122.16208060430654 109.94332582561765,122.82415855507134 110.67311120725935,124.70301396586001 110.2474030679441,126.5997415631573 108.8942593394313,128.084899857844 108.71181299403543,129.5163650965842 105.86869077780284,129.62372448948736 105.56461353541818,128.21015356136195 104.37871229025768,127.01129278923327 103.78576166753192,125.63348682901415 103.84657711605541,124.0588373751234 104.46993546292651,122.73468871682417 105.89909850206459,121.73262321738002 107.72356195631437,121.51789410524361 109.44159837573534,122.28733879853098 110.14097603323171,123.16414349869592 110.61229575885227,124.30935079221672 110.536276448227,125.88399785832735 109.98893741198117,126.99339927898836 108.87905547732953,128.24594031638117 108.75742458039895,129.53425833363144 105.94471008848632,129.65951093834883 105.62542898394167,128.26383369098767 104.424323876563,126.99339927898836 103.75535394332837,125.36508173320908 103.99861573718954,123.55780940127443 104.86523587798001,122.3410208527057 106.68969933217159,121.5 108.34692030318547,121.64315278791764" stroke="#4dd2ff" stroke-dasharray="none" stroke-linecap="round" stroke-linejoin="round" stroke-width="0.5"><title>2026-05-11 15.3km</title><desc>1778503630000</desc></polyline><polyline fill="none" opacity="1" points="126.75406527519226,129.08837091072928 129.9028740550857,124.32359226088738 136.00056724785827,121.55882498860592 141.6484306147322,122.26472435361939 147.4962183488533,126.73539902450284 148.6957645509392,131.20603689190466 148.6457834590692,134.8531089471653 146.34665323863737,140.02955626504263 143.0479011835996,143.26481078437064 142.6480524498038,148.02942325809272 133.4015504771378,148.44117792946054 132.25198536692187,143.50010127038695 129.4030631375499,140.91190031799488 126.55414090817794,136.38251897180453 126.30423544952646,130.9119171105558 127.75368711026385,127.02952106791781 131.65221226611175,123.08827245316934 134.40117231197655,121.91177478566533 138.49962183483876,121.55882498860592 143.0978822754696,122.9117979654111 145.14710703701712,124.44124161952641 148.49584018369205,129.8530845787609 148.8956889177207,133.08839972061105 147.99602926615626,137.50016203528503 143.19784445874393,142.97069753333926 142.89795790845528,147.73531258752337 133.45153156900778,148.5 132.20200427505188,143.5589238757384 127.6037438348867,138.5589796580025 126.10431108251214,133.20604718098184 126.95398964220658,128.50012889504433 129.75293077994138,124.26476757170167 136.15051052323543,121.5 141.7483927984722,122.32354925922118 145.8468423213344,125.08831263816683 147.84608599101193,128.14718337962404 148.8457078258507,132.02957143238746 147.54619944049045,138.38251019758172 142.94793900032528,143.44127865834162 142.6480524498038,148.08824537304463 133.4015504771378,148.44117792946054 132.30196645879187,143.79421423445456 127.45380055974238,138.38251019758172 126.2042732660193,134.8531089471653 127.05395182548091,128.44130465830676 129.65296859643422,124.6765402610763 135.15088868839666,121.6764749463182 140.64880877989344,121.97059972962597 145.54695577104576,124.85301417519804 148.74574564234354,130.4413251291844 147.99602926615626,137.0883990689763 146.09674778021872,140.38249405828537 143.0479011835996,143.38245604006806 142.6480524498038,148.02942325809272" stroke="#4dd2ff" stroke-dasharray="none" stroke-linecap="round" stroke-linejoin="round" stroke-width="0.5"><title>2026-05-10 11.2km</title><desc>1778422578000</desc></polyline><polyline fill="none" opacity="0.5" points="186.61809627199546,122.88908971752971 180.5693096416071,121.5 176.36466527637094,122.02090892614797 171.79119245847687,123.58363367349375 168.1029079281725,126.53543877106858 163.3819037284702,135.13033876172267 163.52943510981277,142.42290890100412 166.48006273433566,148.5 163.52943510981277,142.42290890100412 163.3819037284702,135.13033876172267 168.1029079281725,126.53543877106858 171.79119245847687,123.58363367349375 176.36466527637094,122.02090892614797 180.5693096416071,121.5 186.61809627199546,122.88908971752971 180.5693096416071,121.5 176.36466527637094,122.02090892614797 171.79119245847687,123.58363367349375 168.1029079281725,126.53543877106858 163.3819037284702,135.13033876172267 163.52943510981277,142.42290890100412 166.48006273433566,148.5 163.52943510981277,142.42290890100412 163.3819037284702,135.13033876172267 168.1029079281725,126.53543877106858 171.79119245847687,123.58363367349375 176.36466527637094,122.02090892614797 180.5693096416071,121.5 186.61809627199546,122.88908971752971 180.5693096416071,121.5 176.36466527637094,122.02090892614797 171.79119245847687,123.58363367349375 168.1029079281725,126.53543877106858 163.3819037284702,135.13033876172267 163.52943510981277,142.42290890100412 166.48006273433566,148.5 163.52943510981277,142.42290890100412 163.3819037284702,135.13033876172267 168.1029079281725,126.53543877106858 171.79119245847687,123.58363367349375 176.36466527637094,122.02090892614797 180.5693096416071,121.5 186.61809627199546,122.88908971752971 180.5693096416071,121.5 176.36466527637094,122.02090892614797 171.79119245847687,123.58363367349375 168.1029079281725,126.53543877106858 163.3819037284702,135.13033876172267 163.52943510981277,142.42290890100412 166.48006273433566,148.5 163.52943510981277,142.42290890100412 163.3819037284702,135.13033876172267 168.1029079281725,126.53543877106858 171.79119245847687,123.58363367349375 176.36466527637094,122.02090892614797 180.5693096416071,121.5 186.61809627199546,122.88908971752971 180.5693096416071,121.5 176.36466527637094,122.02090892614797 171.79119245847687,123.58363367349375 168.1029079281725,126.53543877106858 163.3819037284702,135.13033876172267 163.52943510981277,142.42290890100412 166.48006273433566,148.5 163.52943510981277,142.42290890100412 163.3819037284702,135.13033876172267 168.1029079281725,126.53543877106858 171.79119245847687,123.58363367349375 176.36466527637094,122.02090892614797 180.5693096416071,121.5 186.61809627199546,122.88908971752971 180.5693096416071,121.5 176.36466527637094,122.02090892614797 171.79119245847687,123.58363367349375 168.1029079281725,126.53543877106858 163.3819037284702,135.13033876172267 163.52943510981277,142.42290890100412 166.48006273433566,148.5 163.52943510981277,142.42290890100412 163.3819037284702,135.13033876172267 168.1029079281725,126.53543877106858 171.79119245847687,123.58363367349375 176.36466527637094,122.02090892614797 180.5693096416071,121.5 186.61809627199546,122.88908971752971 180.5693096416071,121.5 176.36466527637094,122.02090892614797 171.79119245847687,123.58363367349375 168.1029079281725,126.53543877106858 163.3819037284702,135.13033876172267 163.52943510981277,142.42290890100412 166.48006273433566,148.5 163.52943510981277,142.42290890100412 163.3819037284702,135.13033876172267 168.1029079281725,126.53543877106858 171.79119245847687,123.58363367349375 176.36466527637094,122.02090892614797 180.5693096416071,121.5 186.61809627199546,122.88908971752971 180.5693096416071,121.5 176.36466527637094,122.02090892614797 171.79119245847687,123.58363367349375 168.1029079281725,126.53543877106858 163.3819037284702,135.13033876172267 163.52943510981277,142.42290890100412 166.48006273433566,148.5 163.52943510981277,142.42290890100412 163.3819037284702,135.13033876172267 168.1029079281725,126.53543877106858 171.79119245847687,123.58363367349375 176.36466527637094,122.02090892614797 180.5693096416071,121.5 186.61809627199546,122.88908971752971 180.5693096416071,121.5 176.36466527637094,122.02090892614797 171.79119245847687,123.58363367349375 168.1029079281725,126.53543877106858 163.3819037284702,135.13033876172267 163.52943510981277,142.42290890100412 166.48006273433566,148.5 163.52943510981277,142.42290890100412 163.3819037284702,135.13033876172267 168.1029079281725,126.53543877106858 171.79119245847687,123.58363367349375 176.36466527637094,122.02090892614797 180.5693096416071,121.5 186.61809627199546,122.88908971752971 180.5693096416071,121.5" stroke="#4dd2ff" stroke-dasharray="1,0.5" stroke-linecap="round" stroke-linejoin="round" stroke-width="0.5"><title>2026-05-10 11.3km</title><desc>1778397813000</desc></polyline><polyline fill="none" opacity="0.5" points="15.723470096243545,163.46382940706098 17.94539342657663,169.0860935592209 22.555884336819872,173.40081890305737 23.166913252556697,178.5 34.276529903989285,178.17313070909586 34.276529903989285,173.00857241923222 34.276529903989285,178.17313070909586 23.166913252556697,178.5 22.555884336819872,173.40081890305737 17.94539342657663,169.0860935592209 15.723470096243545,163.46382940706098 16.056758595863357,158.10301713866647 20.33396100648679,151.5 16.056758595863357,158.10301713866647 15.723470096243545,163.46382940706098 17.94539342657663,169.0860935592209 22.555884336819872,173.40081890305737 23.166913252556697,178.5 34.276529903989285,178.17313070909586 34.276529903989285,173.00857241923222 34.276529903989285,178.17313070909586 23.166913252556697,178.5 22.555884336819872,173.40081890305737 17.94539342657663,169.0860935592209 15.723470096243545,163.46382940706098 16.056758595863357,158.10301713866647 20.33396100648679,151.5 16.056758595863357,158.10301713866647 15.723470096243545,163.46382940706098 17.94539342657663,169.0860935592209 22.555884336819872,173.40081890305737 23.166913252556697,178.5 34.276529903989285,178.17313070909586 34.276529903989285,173.00857241923222 34.276529903989285,178.17313070909586 23.166913252556697,178.5 22.555884336819872,173.40081890305737 17.94539342657663,169.0860935592209 15.723470096243545,163.46382940706098 16.056758595863357,158.10301713866647 20.33396100648679,151.5 16.056758595863357,158.10301713866647 15.723470096243545,163.46382940706098 17.94539342657663,169.0860935592209 22.555884336819872,173.40081890305737 23.166913252556697,178.5 34.276529903989285,178.17313070909586 34.276529903989285,173.00857241923222 34.276529903989285,178.17313070909586 23.166913252556697,178.5 22.555884336819872,173.40081890305737 17.94539342657663,169.0860935592209 15.723470096243545,163.46382940706098 16.056758595863357,158.10301713866647 20.33396100648679,151.5 16.056758595863357,158.10301713866647 15.723470096243545,163.46382940706098 17.94539342657663,169.0860935592209 22.555884336819872,173.40081890305737 23.166913252556697,178.5 34.276529903989285,178.17313070909586 34.276529903989285,173.00857241923222 34.276529903989285,178.17313070909586 23.166913252556697,178.5 22.555884336819872,173.40081890305737 17.94539342657663,169.0860935592209 15.723470096243545,163.46382940706098 16.056758595863357,158.10301713866647 20.33396100648679,151.5 16.056758595863357,158.10301713866647 15.723470096243545,163.46382940706098 17.94539342657663,169.0860935592209 22.555884336819872,173.40081890305737 23.166913252556697,178.5 34.276529903989285,178.17313070909586 34.276529903989285,173.00857241923222 34.276529903989285,178.17313070909586 23.166913252556697,178.5 22.555884336819872,173.40081890305737 17.94539342657663,169.0860935592209 15.723470096243545,163.46382940706098 16.056758595863357,158.10301713866647 20.33396100648679,151.5 16.056758595863357,158.10301713866647 15.723470096243545,163.46382940706098 17.94539342657663,169.0860935592209 22.555884336819872,173.40081890305737 23.166913252556697,178.5 34.276529903989285,178.17313070909586 34.276529903989285,173.00857241923222 34.276529903989285,178.17313070909586 23.166913252556697,178.5 22.555884336819872,173.40081890305737 17.94539342657663,169.0860935592209 15.723470096243545,163.46382940706098 16.056758595863357,158.10301713866647 20.33396100648679,151.5 16.056758595863357,158.10301713866647 15.723470096243545,163.46382940706098 17.94539342657663,169.0860935592209 22.555884336819872,173.40081890305737 23.166913252556697,178.5 34.276529903989285,178.17313070909586 34.276529903989285,173.00857241923222 34.276529903989285,178.17313070909586 23.166913252556697,178.5 22.555884336819872,173.40081890305737 17.94539342657663,169.0860935592209 15.723470096243545,163.46382940706098 16.056758595863357,158.10301713866647 20.33396100648679,151.5 16.056758595863357,158.10301713866647 15.723470096243545,163.46382940706098 17.94539342657663,169.0860935592209 22.555884336819872,173.40081890305737 23.166913252556697,178.5 34.276529903989285,178.17313070909586 34.276529903989285,173.00857241923222 34.276529903989285,178.17313070909586 23.166913252556697,178.5 22.555884336819872,173.40081890305737 17.94539342657663,169.0860935592209 15.723470096243545,163.46382940706098 16.056758595863357,158.10301713866647 20.33396100648679,151.5 16.056758595863357,158.10301713866647 15.723470096243545,163.46382940706098 17.94539342657663,169.0860935592209 22.555884336819872,173.40081890305737 23.166913252556697,178.5 34.276529903989285,178.17313070909586 34.276529903989285,173.00857241923222 34.276529903989285,178.17313070909586 23.166913252556697,178.5 22.555884336819872,173.40081890305737 17.94539342657663,169.0860935592209 15.723470096243545,163.46382940706098 16.056758595863357,158.10301713866647 20.33396100648679,151.5 16.056758595863357,158.10301713866647 15.723470096243545,163.46382940706098 17.94539342657663,169.0860935592209 22.555884336819872,173.40081890305737 23.166913252556697,178.5 34.276529903989285,178.17313070909586 34.276529903989285,173.00857241923222 34.276529903989285,178.17313070909586 23.166913252556697,178.5 22.555884336819872,173.40081890305737 17.94539342657663,169.0860935592209 15.723470096243545,163.46382940706098 16.056758595863357,158.10301713866647 20.33396100648679,151.5 16.056758595863357,158.10301713866647 15.723470096243545,163.46382940706098 17.94539342657663,169.0860935592209 22.555884336819872,173.40081890305737 23.166913252556697,178.5 34.276529903989285,178.17313070909586 34.276529903989285,173.00857241923222 34.276529903989285,178.17313070909586 23.166913252556697,178.5 22.555884336819872,173.40081890305737 17.94539342657663,169.0860935592209 15.723470096243545,163.46382940706098 16.056758595863357,158.10301713866647 20.33396100648679,151.5 16.056758595863357,158.10301713866647 15.723470096243545,163.46382940706098 17.94539342657663,169.0860935592209" stroke="#ffc700" stroke-dasharray="1,0.5" stroke-linecap="round" stroke-linejoin="round" stroke-width="0.5"><title>2025-11-09 21.3km</title><desc>1762645227000</desc></polyline><polyline fill="none" opacity="1" points="62.350707253906876,151.5 68.17312434548512,152.78853388875723 70.61157252918929,154.95560668571852 73.24907770729624,159.17258831486106 73.79648444219492,162.51100878079887 73.34860620438121,165.90797686984297 71.95520724239759,169.30492361891083 67.92430310230702,173.28752366662957 67.77501035644673,177.8557640730287 60.011787567520514,178.5 57.9714533733204,178.207165582804 57.42404663795605,173.7560629202053 53.39314249786548,169.77346632350236 51.949979287106544,167.25504451338202 51.203515557572246,162.33530295424862 52.29832902783528,157.88406963978196 56.62781865964644,153.1399516890524 62.89811398903839,151.55856978881638 68.37218134012073,152.84710353810806 72.30355698312633,157.18123997718794 73.49789895047434,160.05112201476004 73.59742744802497,165.4979990948923 71.95520724239759,169.24635575240245 68.07359584816732,172.81898400682257 67.82477460475639,177.7971971326624 58.2202746164985,178.3828662521555 57.27475389209576,173.46322593424702 53.39314249786548,169.83203413290903 51.452336800517514,165.0880210091127 51.35280830319971,160.40253509493778 53.64196374104358,155.71700857958058 57.92168912454508,152.43711585993879 63.89339896198362,151.67570934758987 68.17312434548512,152.90567318093963 72.75143522070721,157.82550053606974 73.74672019365244,161.57391037989873 73.19931345852092,166.66936334152706 71.25850776140578,170.066305307555 67.92430310230702,173.22895623132354 67.72524610767141,177.8557640730287 64.93844818370417,178.3828662521555 58.02121762186289,178.3242993687163 57.32451814063825,173.46322593424702" stroke="#4dd2ff" stroke-dasharray="none" stroke-linecap="round" stroke-linejoin="round" stroke-width="0.5"><title>2025-11-01 10.0km</title><desc>1761964262000</desc></polyline><polyline fill="none" opacity="1" points="107.77287719305605,154.51980307733174 110.79147027782165,159.07908199855592 111.49580866424367,164.23042931058444 109.88589235208929,169.0856777416775 105.55924226436764,173.17115825612564 105.10645330161788,178.38158185908105 95.4469554303214,178.5 94.84323681332171,173.58562558802078 89.71162856929004,168.25673594034743 88.50419133575633,162.75016206502914 89.0576000676956,159.31592661776813 90.76813614903949,156.29615003586514 95.04447635239922,152.6250266257557 101.18228229135275,151.5 107.37039811513387,154.22374468977796 110.99270981666632,159.84882663568715 111.44549877941608,164.46727169805672 109.43310338957235,169.61856823577546 105.55924226436764,173.230367894168 104.90521376254037,178.5 95.49726531514898,178.5 94.99416646757163,173.52641598845366 91.42216465063393,170.56592783203814 89.35945937619545,167.07253118645167 88.80605064379051,160.20409302582266 92.27743269130588,154.46059141261503 97.35873105074279,151.79605986294337 103.79839629819617,152.0921195652336 108.57783534913324,155.5856119451928 111.09332958632149,160.79620316298679 111.24425924057141,165.0593772176071 109.73496269783936,169.26330796408 105.50893237954006,173.46720638254192 105.30769284046255,178.14474549988518 104.65366433886811,178.44079093274195 95.4469554303214,178.5 94.64199727447703,173.46720638254192 91.22092511202209,170.56592783203814 89.35945937619545,167.25016206281725" stroke="#4dd2ff" stroke-dasharray="none" stroke-linecap="round" stroke-linejoin="round" stroke-width="0.5"><title>2025-10-27 10.0km</title><desc>1761565093000</desc></polyline><polyline fill="none" opacity="1" points="128.44421584159136,155.64482348778984 133.82737642456777,151.91448376292828 139.51239647972398,151.5 143.53718943917193,152.9802977104555 145.599895830499,154.6974380327738 148.92035002214834,160.6777811864158 148.81973019824363,164.64490342070349 147.66260222229175,168.315946110175 142.93347049504519,173.23036789393518 142.7825407590717,177.90790903789457 133.2739673925098,178.3815818587318 132.16714932885952,173.46720638213446 128.69576540146954,170.38829803239787 126.12995988992043,164.46727169759106 126.53243918600492,159.37513775622938 128.59514557756484,155.40797727793688 134.3807854563929,151.677635936765 141.52479295921512,151.9736957034911 144.24152820697054,153.21714497217909 146.05268503865227,155.1711309652892 148.76942028617486,161.03304703778122 148.71911037433892,165.05937721696682 147.51167248631828,168.5527867274359 142.88316058297642,173.40799676964525 142.7825407590717,177.90790903789457 133.12303765653633,178.32237277860986 132.4186988887377,173.76325434807222 127.53863742551766,168.6119968656567 126.07964997785166,164.52648227853933 126.83429865771905,157.89485736272763 128.54483566526324,155.46718883991707 134.53171519259922,151.677635936765 139.81425595167093,151.61842396418797 145.09679671074264,154.16453299263958 148.6184905502014,159.96724879107205 148.76942028617486,164.94095616438426 146.9079535426572,169.44093812839128 143.0340903189499,173.1119486115058 142.73223084700294,177.9671181628364 133.17334756883793,178.5 132.4186988887377,173.70404476759722 128.59514557756484,170.09224823868135 126.48212927370332,165.888323866704" stroke="#4dd2ff" stroke-dasharray="none" stroke-linecap="round" stroke-linejoin="round" stroke-width="0.5"><title>2025-10-19 10.0km</title><desc>1760866141000</desc></polyline><polyline fill="none" opacity="1" points="186.3706959085539,164.79428539896617 184.67133915727027,169.2060338560259 180.4729283603374,173.26481078448705 180.22302295593545,178.14706748182653 170.47671217704192,178.20588958403096 169.92692028707825,173.79421423457097 166.27830138034187,170.206025190535 163.87920949584804,165.5589910323033 164.12911490071565,158.67660156678176 166.77811218914576,154.85301417543087 168.72737434506416,153.44122125627473 174.52517973119393,151.5 180.5728905221913,152.9706228011055 183.5717553771101,155.3824355736724 185.87088509928435,158.9118983731023 186.22075266600586,165.6178144980804 184.67133915727027,169.32367999077542 180.62287160311826,173.32363341550808 180.52290944149718,177.97060113667976 171.62627703812905,178.5 170.47671217704192,178.20588958403096 169.77697704429738,173.44127865845803 166.07837705640122,169.79426427558064 163.77924733422697,164.85310894751456 163.6293040914461,160.85309313522885 166.27830138034187,155.55890925851418 168.42748785950243,153.61769557197113 172.32601217087358,151.91177478578174 178.2237797190901,151.91177478578174 182.57213375880383,154.38241694349563 186.32071482762694,160.38250110280933 185.87088509928435,166.44134234864032 184.47141483379528,169.44132610032102 180.42294727941044,172.9706975335721 180.27300403662957,177.97060113667976 170.77659866260365,178.26471168006537 169.7269959631376,173.3824560402427 165.22869868087582,168.79427218291676 163.7292662533,164.97075602522818 163.87920949584804,160.20602898561629" stroke="#4dd2ff" stroke-dasharray="none" stroke-linecap="round" stroke-linejoin="round" stroke-width="0.5"><title>2025-10-16 10.0km</title><desc>1760611285000</desc></polyline><polyline fill="none" opacity="1" points="35.25253675528802,187.41382987075485 36.36914966907352,191.47581768903183 35.25253675528802,198.16608534677653 30.38004404003732,203.24346645380137 30.38004404003732,208.0221353842644 20.5335483441595,208.44026694569038 19.873731622239575,203.78106877527898 15.051994039444253,198.76342672674218 13.681605463149026,194.7612271272228 13.88462599273771,189.44482751970645 16.7776685426943,184.6659976163064 22.665263907052577,181.5 29.618717053206638,182.09735943214037 33.98365844413638,185.382824741886 36.41990480176173,191.29661297489656 35.30329188797623,198.16608534677653 30.481554304715246,203.30320007086266 30.227778642671183,208.2013346638414 20.5335483441595,208.44026694569038 19.772221357328817,203.54213447490474 15.458035098854452,199.18156530789565 13.580095198238268,194.6417580358684 13.783115728059784,189.8032380931545 15.55954536376521,185.92044447449734 21.497895860811695,181.85841573693324 27.690022019902244,181.55973597231787 30.633819702081382,182.57524651195854 33.47610711934976,185.02441129559884 36.41990480176173,191.41608279076172 36.318394536850974,195.00016523181694 35.10027135792188,198.464756117668 30.430799172259867,203.48240088351304 30.38004404003732,208.2013346638414 20.584303476382047,208.5" stroke="#4dd2ff" stroke-dasharray="none" stroke-linecap="round" stroke-linejoin="round" stroke-width="0.5"><title>2025-10-08 10.1km</title><desc>1759919017000</desc></polyline><polyline fill="none" opacity="1" points="59.046197085641325,181.97473676723894 64.3403475380037,181.5 70.2899642365519,184.17038896452868 73.41603402746841,189.03639760782244 73.92023883224465,194.02104457491077 72.05468105408363,199.302347236895 67.92020165338181,203.3968052775599 67.56725828978233,208.2033039338421 57.8865260342136,208.3813215927803 56.978957385290414,203.15944622678217 53.9033080751542,200.54848987975856 51.6848069333937,197.16609611199237 51.13018164783716,191.1726804326754 53.70162615342997,185.6539327650098 56.52517306082882,183.0428929894697 59.046197085641325,181.97473676723894 65.14707522583194,181.55934211832937 70.94543048297055,185.00117398781003 73.06309066386893,187.90891164721688 73.86981835169718,194.19906684203306 72.30678345635533,198.82762548461324 67.97062213369645,203.15944622678217 67.56725828978233,208.14396470144857 58.088207956403494,208.5 57.28148026834242,203.45614502415992 54.558774321572855,201.43859003228135 52.28985269903205,198.23422271560412 51.07976116752252,191.52872676041443 53.29826230928302,186.12866593257058 58.18904891726561,182.27144703781232 64.44118849909864,181.5 69.78575943177566,183.75499598047463 73.01267018332146,187.84957021672744 73.81939787138253,194.19906684203306 72.20594249526039,199.06498641212238 68.0714630947914,202.98142687091604" stroke="#4dd2ff" stroke-dasharray="none" stroke-linecap="round" stroke-linejoin="round" stroke-width="0.5"><title>2025-10-01 10.0km</title><desc>1759271073000</desc></polyline><polyline fill="none" opacity="1" points="88.83253294415772,196.07064950052882 89.08519056998193,189.23141319409478 90.95485699991696,185.78202691249317 93.58249630732462,183.34365457016975 98.28192814532667,181.5 105.35634166491218,182.45156442228472 110.05577350314707,186.97147290571593 111.47065620706417,190.95609820849495 111.36959315696731,195.29752271069447 109.24726910074241,200.0552087702672 105.60899929096922,203.26662355585722 105.15421556448564,208.2026504020905 95.50269426289015,208.32159026071895 94.89631596091203,203.56397582683712 89.18625362007879,197.31954432319617 88.52934379316866,193.7512658648193 88.98412751965225,189.29088518122444 92.1170820784755,184.59257834212622 98.13033357006498,181.5594728247961 104.64890031307004,182.27314621867845 108.23663859791122,184.7709957920015 111.16746705607511,190.00454852572875 111.4201246816665,195.0596373254666 109.29780062590726,199.81732544646366 105.55846776557155,203.2071530825342 105.55846776557155,207.84583067224594 104.95208946382627,208.26212033454794 95.50269426289015,208.32159026071895 94.84578443574719,203.56397582683712 91.5107037764974,200.53097510896623 89.33784819557332,196.96271752100438 88.68093836866319,190.65873910981463 91.7633614023216,184.83046826248756 98.02927051950246,181.5594728247961 105.76059386623092,182.62998256779974 109.80311587709002,186.73358391330112 111.47065620706417,191.3129289142671 111.06640400574543,196.42747688264353 109.04514300031587,200.23362119565718 105.71006234106608,203.08821211615577 105.4574047154747,208.02424056612654 102.07179253082722,208.5 95.50269426289015,208.5 94.79525291058235,203.44503493781667" stroke="#4dd2ff" stroke-dasharray="none" stroke-linecap="round" stroke-linejoin="round" stroke-width="0.5"><title>2025-09-27 10.0km</title><desc>1758965825000</desc></polyline><polyline fill="none" opacity="1" points="129.7190292852465,184.69044162362115 134.18681246973574,181.85449443524703 140.61238828580827,181.7363296491676 144.37737411586568,183.0952231445699 146.33516674721614,184.80860576976556 148.99575673346408,191.4257571004564 148.79495748924091,195.62051681609591 146.03396788076498,201.11501243221574 143.02197921695188,203.3009791696095 142.67058053961955,208.26368194638053 132.88161738216877,208.5 132.27921964926645,203.12373894953635 127.56043740920722,198.81087584747002 126.15484269964509,194.85246463294607 126.00424326630309,191.66208244895097 127.1588389207609,187.88086458528414 132.12862021592446,182.6225649213884 138.85539489868097,181.5 145.73276901431382,183.6860453475383 148.3933590007946,188.5307632710319 148.89535711123608,194.32073556474643 147.23876334610395,199.10627851769095 143.07217902806588,203.3009791696095 142.77098016161472,208.5 132.88161738216877,208.44092049618484 132.32941946038045,203.59637940808898 128.51423381944187,200.16972680570325 126.15484269964509,194.7343026623712 127.05843929876573,187.88086458528414 131.3254232390318,183.39063432597322 135.44180774618872,181.5590824218816 144.578173359856,182.8588940843474 146.68656542454846,184.74952369974926 148.64435805613175,190.18504734081216 148.9455569225829,194.32073556474643 146.73676523566246,199.9334051430924 142.9717794060707,203.5372993730707 142.67058053961955,208.38184098608326 132.83141757105477,208.322761469346" stroke="#4dd2ff" stroke-dasharray="none" stroke-linecap="round" stroke-linejoin="round" stroke-width="0.5"><title>2020-04-24 10.0km</title><desc>1587724293000</desc></polyline><polyline fill="none" opacity="1" points="184.75258329580538,198.56843630527146 186.57171800360084,192.68077780556632 184.2977996186819,185.78202691243496 184.8536463349592,185.0683580795303 182.63025946961716,185.42519261187408 179.09305309294723,182.92734601488337 173.4335228903219,181.5 167.26867749076337,184.2952157970867 163.73147111432627,189.88560469949152 164.23678631079383,197.97372619184898 169.59312739549205,203.74238711217185 169.9973795528058,208.5 179.80049436818808,208.32159026066074 180.15421500615776,203.32609402301023 184.3483311382588,199.34155848942464 185.96533976797946,194.16756621323293 185.30843001208268,189.40982913650805 182.3776018714998,184.65205083182082 176.21275647217408,181.67841845494695 171.86704578064382,182.09472795715556 166.30857861717232,184.711523315229 163.42828199616633,190.24243610119447 163.88306567328982,196.9627175210626 165.80326342070475,200.29309199133422 169.3910013169516,203.6234462618013 169.89631651365198,208.44053009338677 179.80049436818808,208.32159026066074 179.85102588799782,203.6234462618013 184.24726809910499,199.22261668590363 185.71268216939643,194.58386624610284 184.90417785476893,188.87458113551838 181.92281819460914,184.53310584608698 179.39624221087433,182.68945527006872 175.2526575983502,181.79736405907897 172.52395553630777,181.85683685156982 167.5213350893464,183.58154503139667 164.08519175159745,188.2798605223652" stroke="#4dd2ff" stroke-dasharray="none" stroke-linecap="round" stroke-linejoin="round" stroke-width="0.5"><title>2020-04-16 10.0km</title><desc>1587033949000</desc></polyline><polyline fill="none" opacity="1" points="30.409741206094623,233.37128208595095 34.56722750305198,229.24469235760625 36.32038437528536,224.52855150063988 35.66921182279475,219.57655961893033 31.91244709631428,214.15289776510326 26.352435301523656,211.79476705705747 18.53836467070505,213.62231924652588 14.831690140767023,218.2206492224359 13.729705821024254,221.99360890430398 14.230607784586027,226.70977172651328 16.785207798471674,230.836380673456 20.141250954009593,233.724988321017 20.742333309957758,238.5 30.35965100955218,238.08734632335836 30.409741206094623,233.31233102444094 34.96794907399453,228.77308011089917 36.32038437528536,223.88007893715985 35.869572608266026,220.1660848245956 33.615513772238046,215.92148909100797 29.808658849680796,212.79697385634063 27.153878442943096,211.6768602532684 22.495490182423964,212.14848731446546 17.085748976562172,214.32975715614157 14.180517588276416,219.8123697777046 13.679615624714643,223.46741417626617 14.7315097481478,228.3014674554579 20.09116075769998,233.54813523223856 20.4918823284097,238.32314846263034 30.509921598713845,237.7925935056992 30.459831402171403,233.25337995623704 34.767588288290426,229.12678933423012 36.170113786356524,224.469599481381 35.61912162625231,219.2228441889747 31.46163532906212,214.15289776510326 26.803247068542987,211.5 22.39530978980474,212.26639401598368 17.085748976562172,214.68347576609813 14.38087837351486,219.340749357827 13.729705821024254,224.70540752040688 15.88358426420018,229.71630419575376" stroke="#4dd2ff" stroke-dasharray="none" stroke-linecap="round" stroke-linejoin="round" stroke-width="0.5"><title>2020-04-14 10.0km</title><desc>1586861907000</desc></polyline><polyline fill="none" opacity="1" points="74.17503378726542,223.94782460830174 73.66409138962626,219.73844655335415 70.64953124313615,214.50674648629501 64.82478790939786,211.68040524836397 59.61317545315251,211.98108053207397 53.89062059880234,214.62701600696892 50.82496621296741,220.46005648653954 51.08043741178699,225.0302309495164 52.255604926496744,227.97677085374016 57.569405862363055,233.6894057103782 57.77378282160498,238.5 67.94153653550893,238.25947127543623 68.04372501489706,233.74953839631053 72.6933008339256,228.75850330555113 73.91956258844584,224.24849324818933 73.56190291023813,220.0992516372935 69.72983492724597,213.54458938236348 64.9780706288293,211.62027017201763 59.204421534901485,211.92094548844034 54.248280277475715,214.20607257040683 50.92715469235554,222.08367540704785 52.5621703651268,228.33757058356423 57.518311622552574,233.8698037485592 57.8248770609498,238.5 67.737159576267,238.3196034662542 67.94153653550893,233.56914031913038 71.92688723723404,229.54023465653881 73.76627986924723,225.09036457323236 73.45971443061717,219.5580439234036 70.13858884572983,214.38647693925304 64.67150519019924,211.5 58.182536739623174,212.4621606473811 53.83952635922469,214.50674648629501" stroke="#4dd2ff" stroke-dasharray="none" stroke-linecap="round" stroke-linejoin="round" stroke-width="0.5"><title>2020-04-13 10.0km</title><desc>1586775592000</desc></polyline><polyline fill="none" opacity="1" points="95.49918003147468,238.5 104.91232350841165,238.07624325848883 105.58101676101796,233.2332862529438 109.69605216057971,229.17727747256868 111.44494220567867,225.00016303831944 111.18775249272585,219.79386076540686 108.77016919571906,215.13236292859074 102.90624375105835,211.5605395756429 97.09375624894165,211.74215826310683 91.6413343444001,214.89020613429602 89.48094075918198,218.4620082078618 88.65793367940933,221.7310951835243 89.5323787019588,227.66383381997002 90.86976520693861,230.1458792592166 94.8304867791012,233.5965094837593 95.44774208916351,238.5 104.91232350841165,238.13677995547187 105.68389264587313,233.11221178999403 109.07879685075022,230.08534169686027 110.93056278047152,226.8768415012164 111.49638014775701,221.9732490137685 110.1589936427772,216.88799654791364 107.1241550357081,213.49780253204517 101.87748490110971,211.5605395756429 96.37362505379133,212.04485594434664 92.15571376914158,214.46643149212468 90.0981960692443,216.94853553996654 88.50361985201016,221.9732490137685 88.65793367940933,224.87908679211978 90.45826166705228,229.72211618401343 94.88192472141236,233.77812101057498 95.34486620407552,238.43946334219072 105.06663733581081,238.19731664587744 105.7353305881843,233.2332862529438 109.79892804543488,229.17727747256868 111.34206632059067,225.78715799964266 111.44494220567867,220.5203244590084 110.1589936427772,216.8274575494579 105.2209511634428,212.58971135743195 99.40846366109326,211.5 93.2873485039454,213.37672379415017 89.5323787019588,217.91715851949994 88.60649573709816,220.5203244590084 88.76080956449732,225.54500582185574 91.07551697688177,230.38802944374038 94.6761729514692,233.65704666590318" stroke="#4dd2ff" stroke-dasharray="none" stroke-linecap="round" stroke-linejoin="round" stroke-width="0.5"><title>2020-04-12 10.0km</title><desc>1586649823000</desc></polyline><polyline fill="none" opacity="1" points="138.29450441198424,211.5 145.5443571722135,214.01304403849645 148.32512261415832,219.79884511831915 148.92100092349574,224.06510314252228 147.18302252190188,228.97418022481725 142.763591729803,233.64945020817686 142.81324825552292,238.32467968267156 132.88194310478866,238.26623956428375 132.43503437307663,233.35724702116568 127.81697747809812,229.50015012029326 126.4265947570093,226.75341279135318 126.07899907650426,222.13652492605615 126.82384696300142,218.63000141637167 131.78949953825213,212.9610735399765 135.46408244408667,211.55844301753677 142.11805689521134,212.66885914839804 146.38851810991764,215.3572255797335 148.72237482015043,220.67547623312566 148.8216878718231,224.24042809329694 147.0340529445093,229.44170904619386 142.96221783291548,233.53256895235972 142.71393520431593,238.32467968267156 132.88194310478866,238.32467968267156 132.3357213216368,233.35724702116568 128.36319926124997,229.9676784859039 126.62522085988894,226.75341279135318 126.32728170533665,220.55859216680983 128.90942104440182,215.82476620055968 131.9384691156447,213.01951639918843 134.17301277443767,212.14287284499733 139.78420018451288,211.85065801045857 145.445044120308,214.01304403849645 148.6230617687106,220.09105564816855 148.77203134610318,224.47419460536912 146.73611378995702,229.9676784859039 142.96221783291548,233.29880636470625 142.71393520431593,238.14935930841602 132.9315996307414,238.5 132.28606479568407,233.2403657019604 128.11491663265042,229.61703224980738 126.62522085988894,226.81185415684013" stroke="#4dd2ff" stroke-dasharray="none" stroke-linecap="round" stroke-linejoin="round" stroke-width="0.5"><title>2020-04-08 10.0km</title><desc>1586343893000</desc></polyline><polyline fill="none" opacity="1" points="169.33915729029104,212.96107353986008 171.47438743524253,212.20131579291774 177.97939089988358,212.0844298907905 182.59744679462165,214.36370041576447 186.12305935914628,220.8508022854803 185.6264942092821,227.10406088869786 183.49126406456344,230.8442930795718 180.31324710464105,233.59100958361523 180.31324710464105,238.32467968278797 170.58057016530074,238.44155990047147 169.98469198541716,233.53256895247614 165.11835351539776,228.62353334313957 163.5293450357858,222.7793850976741 164.82041442557238,217.9871363011771 169.23984426027164,212.78574492404005 174.9006869699806,211.5 181.60431649442762,213.54550184804248 183.78920315415598,215.76632364524994 186.3216854191851,221.78587360068923 185.5271811792627,227.10406088869786 183.14366845949553,231.0780567305046 180.51187316467986,233.47412831510883 180.21393407485448,238.32467968278797 170.38194410526194,238.38311979477294 169.88537895516492,233.41568767128047 165.3169795756694,229.44170904625207 163.57900155056268,224.4157529870863 164.3238492757082,219.2144235840533 169.38881380530074,212.72730203950778 174.9006869699806,211.67532903369283 181.75328603968956,213.2532877730555 184.5340508793015,217.11050081829308 186.4209984492045,222.25340865069302 186.47065496398136,224.94172732619336 185.17958557442762,228.50665099860635 180.36290361965075,233.41568767128047 180.36290361965075,238.32467968278797 170.72953971032985,238.5 169.83572244038805,233.76633143879008 165.3169795756694,229.3248268790776 163.6286580658052,225.23393507068977" stroke="#4dd2ff" stroke-dasharray="none" stroke-linecap="round" stroke-linejoin="round" stroke-width="0.5"><title>2020-04-07 10.0km</title><desc>1586257895000</desc></polyline><polyline fill="none" opacity="1" points="21.970952584873885,242.0844298907905 26.737978024641052,241.79221502452856 32.69675982417539,244.01304403861286 35.72580723906867,250.9676862883498 35.12992905918509,257.8053563994472 32.89538588398136,261.4287020172924 30.511873164214194,263.41568767128047 30.213934074155986,268.0324790272862 20.878509254893288,268.5 20.1336615299806,263.7663314387901 16.11148381535895,260.37676547351293 14.125223215436563,256.11055735487025 14.224536245455965,249.85728723701322 16.11148381535895,246.17542140028672 19.835722439922392,242.72730203950778 23.609617579728365,241.5584430177114 27.284199689514935,241.67532903369283 33.19332497403957,245.0650124863605 35.57683769403957,249.38975011080038 35.72580723906867,256.28588164091343 33.441607549320906,260.49364741303725 30.31324710440822,263.4741283151088 30.213934074155986,268.0909191710525 20.828852739883587,268.38311979477294 20.08400501520373,263.53256895247614 15.565262150485069,259.55859118833905 13.926597155397758,255.52614265697775 14.02591018541716,250.73391825705767 16.45907942019403,245.76632364524994 20.332287590019405,242.376644598844 26.539351964602247,241.5 32.49813376413658,244.48058582423255 34.98095951392315,247.63648227899102 35.874776783864945,250.61703420319827 36.12305935914628,254.707961016451 35.32855511899106,257.6300326071796 33.19332497403957,260.9611749177566 30.31324710440822,263.4741283151088 30.263590589398518,268.2077994395513 20.92816577013582,268.38311979477294 20.1336615299806,263.94165323727066 15.714231695281342,259.55859118833905 13.876940640620887,255.17549353436334" stroke="#4dd2ff" stroke-dasharray="none" stroke-linecap="round" stroke-linejoin="round" stroke-width="0.5"><title>2020-04-02 10.0km</title><desc>1585825459000</desc></polyline><polyline fill="none" opacity="1" points="51.25136075844057,251.37112544459524 53.76750374655239,245.97106169210747 60.082529285689816,241.96452762611443 65.06547912536189,242.13872538221767 68.86436167615466,243.41617386293365 71.1338239791803,245.564603079285 73.25527787115425,250.67434608162148 73.64996696752496,254.9711377255735 71.57784921233542,260.13885503058555 67.9763112096116,263.50655410508625 67.77896666177548,268.5 57.91173925693147,268.26774773397483 57.517050160327926,263.85493556043366 52.731444869190454,259.0937027405598 51.25136075844057,252.8808109575184 52.534100321121514,247.88721957273083 57.36904174950905,243.06777912459802 62.20398317766376,241.79032981354976 69.16037849825807,243.64843689615373 72.81125263823196,248.81626335246256 73.74863924155943,254.44855679775355 72.61390808993019,258.68725407740567 67.77896666177548,263.6807448611362 67.72963052452542,268.44193694298156 58.059747667983174,268.44193694298156 57.221033338457346,263.56461769680027 53.91551215783693,260.71949431148823 51.794058265862986,257.5840347239864 51.25136075844057,252.0098390650237 53.964848294854164,245.97106169210747 59.737176326802,241.5 64.424109343905,242.02259355102433 70.64046260900795,245.50653753784718 73.50195855647326,250.7324110629852 73.6993031045422,255.1453312552767 71.23249625321478,260.71949431148823 67.92697507282719,263.50655410508625 67.58162211347371,268.3838738796767 58.10908380500041,268.5 57.36904174950905,263.4484905072022 53.91551215783693,260.77755820483435" stroke="#4dd2ff" stroke-dasharray="none" stroke-linecap="round" stroke-linejoin="round" stroke-width="0.5"><title>2020-03-23 10.0km</title><desc>1584960411000</desc></polyline><polyline fill="none" opacity="1" points="95.47081434866413,268.5 94.68312988779508,263.5752089123707 91.33547092834488,260.6203124974272 89.21856893924996,256.6224854856264 88.8739569876343,250.71259952086257 91.18778009200469,246.30911262659356 96.50465020397678,241.55794137332123 102.75689561362378,241.78970680374186 107.3353115436621,243.7597089082701 110.48604938783683,248.91644477046793 111.1260430123657,254.76841064321343 109.25529241748154,259.7512222104124 105.21840955456719,263.63314789469587 105.07071871799417,268.2103076616186 95.37235379125923,268.32618461566744 94.73236016673036,263.4593309290358 91.38470120728016,260.272676552122 89.12010838161223,256.6224854856264 88.92318726633675,250.88642062840518 90.99085897672921,246.13529003184522 97.44002550141886,241.5 105.11994899692945,242.36911994067486 108.5168382350821,244.9764712897013 110.53527966653928,248.91644477046793 111.1260430123657,254.53665083582746 109.40298325382173,259.51946456206497 105.26763983350247,263.63314789469587 105.11994899692945,268.2682461417862 95.37235379125923,268.44206154491985 94.68312988779508,263.2855139070889 90.99085897672921,259.9250403807964 89.3170294968877,256.97012380324304 88.97241754527204,250.13319542171666 91.23701037070714,246.01940827060025 96.55388048267923,241.90558948140824 101.9692111525219,241.90558948140824" stroke="#4dd2ff" stroke-dasharray="none" stroke-linecap="round" stroke-linejoin="round" stroke-width="0.5"><title>2019-12-13 10.0km</title><desc>1576239112000</desc></polyline><polyline fill="none" opacity="0.5" points="143.60032401327044,250.95007318432909 143.07892879843712,241.5 143.60032401327044,250.95007318432909 139.9505575094372,260.2773408591747 131.39967598672956,268.5 139.9505575094372,260.2773408591747 143.60032401327044,250.95007318432909 143.07892879843712,241.5 143.60032401327044,250.95007318432909 139.9505575094372,260.2773408591747 131.39967598672956,268.5 139.9505575094372,260.2773408591747 143.60032401327044,250.95007318432909 143.07892879843712,241.5 143.60032401327044,250.95007318432909 139.9505575094372,260.2773408591747 131.39967598672956,268.5 139.9505575094372,260.2773408591747 143.60032401327044,250.95007318432909 143.07892879843712,241.5 143.60032401327044,250.95007318432909 139.9505575094372,260.2773408591747 131.39967598672956,268.5 139.9505575094372,260.2773408591747 143.60032401327044,250.95007318432909 143.07892879843712,241.5 143.60032401327044,250.95007318432909 139.9505575094372,260.2773408591747 131.39967598672956,268.5 139.9505575094372,260.2773408591747 143.60032401327044,250.95007318432909 143.07892879843712,241.5 143.60032401327044,250.95007318432909 139.9505575094372,260.2773408591747 131.39967598672956,268.5 139.9505575094372,260.2773408591747 143.60032401327044,250.95007318432909 143.07892879843712,241.5 143.60032401327044,250.95007318432909 139.9505575094372,260.2773408591747 131.39967598672956,268.5 139.9505575094372,260.2773408591747 143.60032401327044,250.95007318432909 143.07892879843712,241.5 143.60032401327044,250.95007318432909 139.9505575094372,260.2773408591747 131.39967598672956,268.5 139.9505575094372,260.2773408591747 143.60032401327044,250.95007318432909 143.07892879843712,241.5 143.60032401327044,250.95007318432909 139.9505575094372,260.2773408591747 131.39967598672956,268.5 139.9505575094372,260.2773408591747 143.60032401327044,250.95007318432909 143.07892879843712,241.5 143.60032401327044,250.95007318432909 139.9505575094372,260.2773408591747 131.39967598672956,268.5 139.9505575094372,260.2773408591747 143.60032401327044,250.95007318432909 143.07892879843712,241.5 143.60032401327044,250.95007318432909 139.9505575094372,260.2773408591747 131.39967598672956,268.5 139.9505575094372,260.2773408591747 143.60032401327044,250.95007318432909 143.07892879843712,241.5 143.60032401327044,250.95007318432909 139.9505575094372,260.2773408591747 131.39967598672956,268.5 139.9505575094372,260.2773408591747 143.60032401327044,250.95007318432909 143.07892879843712,241.5 143.60032401327044,250.95007318432909 139.9505575094372,260.2773408591747 131.39967598672956,268.5 139.9505575094372,260.2773408591747 143.60032401327044,250.95007318432909 143.07892879843712,241.5 143.60032401327044,250.95007318432909 139.9505575094372,260.2773408591747 131.39967598672956,268.5 139.9505575094372,260.2773408591747 143.60032401327044,250.95007318432909 143.07892879843712,241.5 143.60032401327044,250.95007318432909 139.9505575094372,260.2773408591747 131.39967598672956,268.5 139.9505575094372,260.2773408591747 143.60032401327044,250.95007318432909 143.07892879843712,241.5 143.60032401327044,250.95007318432909 139.9505575094372,260.2773408591747 131.39967598672956,268.5 139.9505575094372,260.2773408591747 143.60032401327044,250.95007318432909" stroke="#4dd2ff" stroke-dasharray="1,0.5" stroke-linecap="round" stroke-linejoin="round" stroke-width="0.5"><title>2019-11-23 10.0km</title><desc>1574497580000</desc></polyline></svg>