<?xml version="1.0" encoding="utf-8" ?>
<svg baseProfile="full" height="300mm" version="1.1" viewBox="0,0,200,300" width="200mm" xmlns="http://www.w3.org/2000/svg" xmlns:ev="http://www.w3.org/2001/xml-events" xmlns:xlink="http://www.w3.org/1999/xlink"><defs /><rect fill="#222222" height="300" width="200" x="0" y="0" /><text fill="#FFFFFF" style="font-size:12px; font-family:Arial; font-weight:bold;" x="10" y="20">Over 10km Runs</text><text fill="#FFFFFF" style="font-size:4px; font-family:Arial" x="10" y="280">Runner</text><text fill="#FFFFFF" style="font-size:9px; font-family:Arial" x="10" y="290">Floyd Li</text><text fill="#FFFFFF" style="font-size:4px; font-family:Arial" x="65" y="280">SPECIAL TRACKS</text><rect fill="yellow" height="2.6" width="2.6" x="65" y="283" /><text fill="#FFFFFF" style="font-size:3px; font-family:Arial" x="70" y="285.5">Over 20.0 km</text><rect fill="red" height="2.6" width="2.6" x="65" y="287" /><text fill="#FFFFFF" style="font-size:3px; font-family:Arial" x="70" y="289.5">Over 40.0 km</text><text fill="#FFFFFF" style="font-size:4px; font-family:Arial" x="120" y="280">STATISTICS</text><text fill="#FFFFFF" style="font-size:3px; font-family:Arial" x="120" y="285">Number: 37</text><text fill="#FFFFFF" style="font-size:3px; font-family:Arial" x="120" y="290">Weekly: 1.9</text><text fill="#FFFFFF" style="font-size:3px; font-family:Arial" x="141" y="285">Total: 607.1 km</text><text fill="#FFFFFF" style="font-size:3px; font-family:Arial" x="141" y="290">Avg: 16.4 km</text><text fill="#FFFFFF" style="font-size:3px; font-family:Arial" x="167" y="285">Min: 10.0 km</text><text fill="#FFFFFF" style="font-size:3px; font-family:Arial" x="167" y="290">Max: 62.1 km</text><polyline fill="none" opacity="1" points="33.03370307991281,32.854560990512255 33.684879766835365,34.24475672765402 33.51829968416132,36.31220558912901 31.913073432573583,38.39745097310515 32.079653515305836,45.9896596394683 32.367382749100216,46.346092753025005 35.184100511309225,47.75399600484525 36.92561955784913,47.878746344998945 37.27392336714547,48.1104252973164 37.53136531315977,56.32590654987143 37.364785230427515,57.57334072922822 36.89533227006905,57.840646823489806 34.108901795581914,58.25051532492216 29.49009041127283,58.48217967862729 25.234726480208337,58.21487462615187 19.510429092450067,57.35949554129911 12.786651208414696,57.323854649599525 12.483778330788482,50.7479780712747 12.650358413520735,48.627246400370495 25.431593850662466,48.217353934567655 26.688516292953864,47.7361745199305 28.97520651924424,46.31044947639748 28.778339148848318,38.70043314655777 27.067107390030287,36.38349646590359 26.839952731796075,34.6368610940699 27.339692979934625,33.15755337008159 28.324029832263477,32.15945871725853 29.49009041127283,31.606939431032515 30.565289126941934,31.571292961700237 31.352758608874865,31.71387879247777 32.639968339004554,32.426806092931656 33.472868752491195,33.620952400931856 33.71516705467366,34.42298610098078 33.66973612306174,35.88445968004817 33.336575957539026,36.72212770860642 31.882786144851707,38.433095963686355 32.079653515305836,46.06094632393797 35.168956867360976,47.75399600484525 37.228492435475346,48.074782402807614 37.42535980598768,57.44859773671487 36.91047591395909,57.840646823489806 35.53240432054736,58.07231175406196 29.883825152239297,58.48217967862729 25.492168426222634,58.25051532492216 19.31356172193773,57.35949554129911 12.786651208414696,57.35949554129911 12.574640194012318,48.64506778874784 25.371019275160506,48.18171106319642 26.067626893811394,48.00349659060885 28.899488299852237,46.346092753025005 28.763195504900068,38.59349832549924 27.051963746198453,36.4369646031555 26.839952731796075,34.45863195248239 27.385123911546543,33.086261095668306 28.414891695661936,32.03469645995938 30.565289126941934,31.5 32.48853190016234,32.26639771966438 32.988272148300894,32.76544547852245 33.66973612306174,34.20911082983366 33.503156040329486,36.31220558912901 31.97364800813375,38.36180597492785 32.10994080308592,46.132232977543026 34.92665856529493,47.64706706654397 36.97105048946105,47.89656781447411 37.289067010977305,48.252996798211825 37.53136531315977,57.05654771615809 37.304210654925555,57.626801982783945 34.684360263170674,58.17923391969816 30.322990824875887,58.5 25.446737494552508,58.232694976526545 19.616434599622153,57.37731598423852 12.801794852304738,57.35949554129911 12.468634686840232,50.837083845821326 12.635214769630693,48.662889175189775 25.143864616926294,48.252996798211825 26.415930703049526,47.89656781447411 28.899488299852237,46.38173602192546 28.914631943800487,39.93017859378597 28.58147177833598,38.183580867844285 27.65770950150909,37.274629819134134 26.8853836634662,35.88445968004817 26.855096375686117,34.351694374825456 27.15796925337054,33.44272215888486 28.732908217178192,31.89211090716708 31.004454799578525,31.589116197326803 32.88226664112881,32.6763299183076 33.563730615831446,33.95958932887879 33.74545434245374,34.92202731911675 33.42743782087928,36.5260781266843 31.988791652023792,38.21922590468603 31.807067925459705,39.68066576792626 28.92977558763232,39.71631048050767 28.64204635383794,38.272693445454934 27.491129418776836,37.18551670099259 26.8853836634662,35.84881413742551 26.87024001957616,34.369517309227376 27.900007803633343,32.480275515888934 29.247792109206785,31.660409120406257 31.277040389482863,31.660409120406257 32.86712299718056,32.65850680049334 33.71516705467366,34.56556946056662 33.700023410783615,36.04486452626588 32.912553928850684,37.32809766684659 32.00393529585563,38.11229077099415 31.89792978874175,39.59155395271955 28.97520651924424,39.71631048050767 28.64204635383794,38.20140338721103" stroke="#ffc500" stroke-dasharray="none" stroke-linecap="round" stroke-linejoin="round" stroke-width="0.5"><title>2026-06-10 21.8km</title><desc>1781089369000</desc></polyline><polyline fill="none" opacity="1" points="76.0,52.90569057985704 75.8791405550437,53.71182108744688 62.189794091304066,53.65491800104792 56.444941808411386,54.12910925720644 55.945389436004916,52.374588776394376 55.41360787823214,51.22701851702732 54.54341987465159,49.97510652665369 53.45568487021956,48.79905167625111 52.6580125335895,47.44277524946665 52.40823634734261,45.91575355610257 52.7305282005691,44.60685660887975 52.472694717987906,44.61634143979609 52.351835273060715,44.49303855774633 52.400179051066516,43.74373269197531 50.56311548795202,42.02694442608481 50.7403760071611,41.39143967439304 51.60250671443646,39.86431236728822 51.66696508505265,39.3521022075729 50.50671441361192,38.58378134507075 49.0,38.17590456509788 50.410026857687626,38.55532488725294 51.54610564012546,39.22879190643289 51.89256938229664,39.58923691354721 52.36794986570021,39.46592694664287 53.11727842432447,39.5038684934334 52.97224709042348,38.65966518736968 52.6016114592785,38.45098446271004 52.44046553267981,38.12847690910712 52.51298119965941,37.0660906765188 52.7305282005691,36.715120960987406 52.51298119965941,37.05660502705723 52.43240823637461,38.185390093196474 52.95613249778398,38.67863613762165 53.15756490602507,39.46592694664287 54.56759176365449,39.73151742862683 55.14771709937486,39.1718794011249 54.93017009846517,40.76541555496806 54.382273948082,42.064884862273175 58.0402864816424,45.65018184574001 58.749328558624256,42.76677996390936 60.48164726948016,40.79387129395036 60.948970456578536,39.9971071043401 61.42435094004031,38.68812161124515 62.51208594447235,37.28426033056894 63.29364368846291,36.84792047843075 66.54879140557023,35.97523424473911 67.41897940915078,35.87089074280084 69.18352730528568,36.003691541875014 70.88361683080439,36.64872112665762 72.59982094896259,37.54985743587167" stroke="#4dd2ff" stroke-dasharray="none" stroke-linecap="round" stroke-linejoin="round" stroke-width="0.5"><title>2026-06-09 11.9km</title><desc>1781004096000</desc></polyline><polyline fill="none" opacity="1" points="95.03350189633784,48.117011146641744 93.7278761062189,48.9602059249155 92.64412136538886,50.0141886297788 91.4152970922587,49.73312774497026 89.5464601769927,49.00035786622175 88.19816687740968,48.18727767064411 86.5,46.711669499251 89.19658659925335,44.56346329894586 91.03128950693645,42.62601974859717 92.60145385586657,40.688535762579704 93.16466498104273,40.33717423134658 94.07774968395825,40.02596719309804 113.36346396966837,39.9858113702212 113.47439949432737,40.20666818104655 113.5,41.230633801882504 113.40613147913245,47.45449559172994 102.36378002527636,47.43441928899847 96.4073957016517,47.5749533169801 96.41592920356197,43.93103798406082 110.09513274338678,43.880845314241014 109.88179519594996,44.06153879865451 110.00979772440041,45.19588430562726 109.84766118836706,44.03142324234068 110.07806573956623,43.89088385039213" stroke="#4dd2ff" stroke-dasharray="none" stroke-linecap="round" stroke-linejoin="round" stroke-width="0.5"><title>2026-06-07 13.9km</title><desc>1780824448000</desc></polyline><polyline fill="none" opacity="1" points="129.43728133600962,41.54628526800843 129.6123524746945,42.09380989184865 129.72570788823214,42.32021234988679 130.09222372533986,42.852909309667666 130.16275598264474,43.03934836984081 130.1967626067053,43.23466276916588 130.20054112049547,43.382626376261214 130.17535102859256,43.56905825438753 130.00027988991496,44.069156682167886 129.94864020151726,44.3221581310263 129.9373046601686,44.758611679226306 130.07585016560188,46.03386439365113 130.30256099267717,47.02942616882228 130.28114941455715,47.17586974358619 130.18542706534936,47.42437648611758 130.16905350562593,47.607795250982235 130.24336427672097,48.390255911291206 130.3680552316073,48.75262810287677 130.39072631431918,48.87390972607136 130.33404860754672,49.950607043303535 130.38190978215425,50.11920311907397 130.43858748891944,50.21828932322296 130.7181975089843,50.47117774633534 130.80384382142802,50.61462700956781 130.8164388673831,50.77138428948638 130.73583057330688,51.11446946794695 130.75346363763674,51.24903933777114 130.80258431683615,51.37473528118153 130.55320240705623,51.58324013982565 130.2912254513285,51.86567785767147 130.04814106451522,52.08156875212353 129.68666324578953,52.605016187581896 129.48136399682699,52.94805569518303 129.42090777627163,53.017549727309415 129.2370201054291,53.150622427511735 129.1753043802819,53.24672968938012 129.1916779400126,53.28517240640758 129.32266641787282,53.33248637241104 129.59723841955565,53.34431483853041 129.61990950226755,53.36353607430192 129.6249475206423,53.481820011888885 129.64384008956404,53.501041055828864 129.83780379717064,53.58236056041187 129.97760880720307,53.57348936505332 130.14008489993284,53.4522491226935 130.56201893922116,53.22602972039658 130.54942389327334,53.19793685559944 130.33278910295485,53.15949389515572 130.31263702944125,53.09591491746687 130.34160563511978,52.99832800881359 130.5380883519174,53.01607113452792 130.5809115081429,52.83272440012388 130.61239912301244,52.81941688086954 130.71441899519414,52.829767174733206 130.7421280962808,52.85342496008161 130.71189998600312,53.08408623808373 130.72953305033298,53.12548657149455 131.218220833136,52.96727748382182 131.45248868778435,52.953970094543365 131.93235993842973,52.88003992002723 132.24723608713975,53.01311394849927 132.41349069366697,53.055993083840804 132.56589074963995,53.067821787346475 133.07095209218096,53.21420115272667 133.61631758175645,53.49512689131734 133.86318048234534,53.546875744706085 134.06973923589976,53.626716451518405 134.51938237626746,53.656286966265725 134.60125017492828,53.59566734273449 134.6264402668312,53.49956251493677 134.69949153333437,53.438942201851205 135.141577646129,53.242293984356365 135.16928674721566,53.254122527907384 135.01562718664354,52.94805569518303 134.91990483742848,52.88151852740884 134.80906843308185,52.86673244648409 134.812846946872,52.6552897530828 134.84559406633343,52.61388800659279 137.0988477865394,51.98841076750978 137.34948920091847,51.95735796595818 137.5988711106911,51.960315378647465 140.1468489060935,52.17029005646418 140.45668703642878,52.17324742343044 140.89751364463154,52.11114258373436 141.4441386387989,51.94109218482208 141.75397676913417,51.88046501318604 144.334701683998,51.7030180991851 144.66343238326226,51.63647491703068 144.97956803657144,51.51521762506309 145.2503615244641,51.356990041072095 145.516116993982,51.135172610429436 146.02243784111488,50.551036283460235 146.44437188038864,50.128076539559515 146.8008116807323,49.712498542357025 147.0728646732241,49.31317690541073 147.3877408219414,48.603243171481154 147.51117227223585,48.43462852894572 147.70135746605956,48.29559384886488 148.67369501329085,47.714295347492225 148.85758268414065,47.54123227213768 148.94070998740062,47.402188566555196 148.9936091803902,47.24243448965535 149.1019265755458,46.8208523263429 149.18379437420663,46.3460022118461 149.24551009935385,46.11226934572824 149.44325232075062,45.57082226316106 149.71530531324242,44.983490813011485 149.93445911274466,44.64765022568645 150.31608900498395,44.23190668619009 150.52390726313752,43.953750966804364 150.67126930073573,43.665232441362605 150.88412557727133,43.06006366492511 150.93198675187887,43.0704213007657 150.94836031160958,43.11925005034482 150.99118346783507,43.10297381974851 151.0,43.14292453317739 150.94584130241856,43.11925005034482 150.93198675187887,43.04822635727123 150.86397350375046,43.040828034812876 150.61837010775344,43.711099893658684 150.5541353734152,43.83094638562034 150.51257172178157,43.850180910520066 150.07300461818522,43.65783445086254 149.24551009935385,43.42553552451682 148.92937444604468,43.36930971682068 147.40663339086313,43.302726226172126 145.59924429724197,43.14144487919566 144.1508140131482,43.13404660688957 143.43667490786174,43.02159237778869 142.1066380557022,42.68570387527325 141.61039324531885,42.58952283690451 141.19223771982797,42.55696910228289 140.25138778746623,42.59840111478479 140.0259364649828,42.57472569435777 139.50828007650125,42.41787500427745 138.61781032793806,42.20183244474538 138.4918598684526,42.1352433001548 138.41880860194942,42.06717406342614 138.34323832625523,41.95027176172425 138.20217381163093,41.30655140586623 138.0056910948333,40.926224293251835 137.94271586509421,40.843350062950776 137.80039184587076,40.76935479220265 137.60013061529025,40.72495743853506 137.53715538555116,40.6361623009434 137.4704016420219,40.61544335296003 137.35074870551034,40.67464026433299 137.29155198955414,40.62580283085663 137.2109436954779,40.64948160814947 137.10766431869706,40.758995422504995 136.88221299622091,40.78859360091792 136.57489387507667,40.79599313556082 136.37589214908803,40.7397565723586 136.19074497364636,40.58880465965285 136.03582590848237,40.130019061628445 135.87586882492906,39.87694045133958 135.68820264029637,39.765939590433845 135.26500909642346,39.64309759249136 135.0105891682615,39.545415219948154 134.9715445258189,39.536534969832246 134.94005691094935,39.55577550449925 134.89471474553284,39.52617467077289 134.74735270793462,39.503974003622716 134.38335588001792,39.37224930743105 133.94504828100617,39.3293275044407 133.81783831692883,39.292325842524406 133.7724961515123,39.29972618287866 133.72589448150393,39.26716465550362 133.54074730606226,39.26864472660509 132.3354014087745,39.06883368600211 130.44110649811046,38.33468816987261 130.28744693753833,38.318406272217544 128.94103652563354,38.29768382911152 128.35662639362272,38.31100540326952 128.11983952978335,38.293243301520306 127.9535849232634,38.23403612983657 127.83645099594287,38.16446737703882 127.34902271773171,37.73520557663505 126.36786863834277,37.301489512988155 125.26202360405296,37.08092557892542 124.86150114288466,36.867759753329665 124.32495218548138,36.487309745364655 124.00251900919102,36.343713033733366 124.0,36.367399192670746 124.32999020385614,36.51543676044457 124.8866912347803,36.909208922977996 125.20030787890573,37.0750043506614 125.3262583383912,37.122374105252675 126.30993142697844,37.30741064361064 126.46107197835227,37.35477959666787 127.34776321313984,37.757409102183374 127.77725427998666,38.14522489385399 127.87801464757649,38.21479374409955 128.05182628166222,38.29176312533946 128.2659420627897,38.330247654245795 128.31254373279808,38.367251907291575 128.29113215468533,38.36281140218671 128.2722395857636,38.34356919682068 128.39441153146618,38.365771739085176" stroke="red" stroke-dasharray="none" stroke-linecap="round" stroke-linejoin="round" stroke-width="0.5"><title>2026-06-06 62.1km</title><desc>1780699923000</desc></polyline><polyline fill="none" opacity="1" points="183.84041585586965,34.69454667663376 183.73427021095995,35.55117436016735 183.17321465921123,36.961031059065135 181.97528523794608,38.2102610917791 181.91463058366207,39.548711331226514 182.2330675184494,46.222954250974 185.1293272585608,47.721944898570655 187.05511253071018,47.88255023074453 187.3128948113299,48.20376042542921 187.5403497646912,56.62638209403667 187.3583858020138,57.57211569909123 184.26499843562488,58.21449769452738 178.79091589013115,58.5 169.41977180953836,57.3579878109158 162.7477598428959,57.25092376250541 162.4596502352506,50.64850639121141 162.4748138987925,48.88186878045963 162.6871051886119,48.59634981317504 175.57621921529062,48.16807043470908 178.92738886224106,46.312180266409996 179.00320718000876,39.81640007448732 178.60895192739554,38.121030689260806 177.8507687493693,37.47857036457572 177.07742190774297,36.318566211353755 176.83480329083977,34.62316083535552 177.3503678519046,33.12405102279445 178.13887835707283,32.24956399976509 178.86673420795705,31.803395363109303 180.3224459097837,31.5 181.20193839631975,31.62492757011205 182.5818317803787,32.32095086952904 183.68877922027605,34.21269164745172 183.49165159399854,36.37210504434188 181.92979424726218,38.33518357417779 182.12692187348148,45.955275914791855 182.3240494998172,46.27648986605345 185.098999931477,47.68625480355695 187.03994886722649,47.90039525800967 187.3128948113299,48.16807043470908 187.4493677833234,57.42936380454921 186.87314856797457,57.82193121702585 185.0080179501092,58.14312204088492 179.7007357038092,58.48215612041531 175.43974624323891,58.23234160314314 169.34395349177066,57.3579878109158 162.7477598428959,57.286611786374124 162.5506322165602,48.63203971114126 175.2729459440452,48.20376042542921 176.71349398238817,47.70409985203878 178.98804351646686,46.18726383126341 178.76058856298914,38.388721751907724 177.2745495340787,36.65764519316144 176.83480329083977,35.337017856829334 177.2138948798529,33.35605700497399 177.6839684501756,32.66003807837842" stroke="#4dd2ff" stroke-dasharray="none" stroke-linecap="round" stroke-linejoin="round" stroke-width="0.5"><title>2026-06-05 14.5km</title><desc>1780659860000</desc></polyline><polyline fill="none" opacity="1" points="38.139251781540224,79.24706678798248 35.35748218532535,82.62527392389165 35.06888361048186,83.18200497853832 34.820368171087466,84.23884057880787 21.520783848012798,84.19166069157654 15.556413301674183,84.61627875627892 14.61045130644925,81.97417715800111 13.720605700742453,80.6059144655228 12.133313539176015,78.756366581576 11.668349168641726,77.7277744823441 11.5,76.78410131760756 11.580166270781774,75.89703921625915 11.908847981016152,75.00053110085719 13.42399049884989,73.04705512682267 14.009204275527736,72.00895826995111 14.931116389576346,66.46908663587965 15.083432304061716,66.28032840951346 32.086698337312555,65.9500005283262 35.96674584323773,65.38372124371381 36.680225653224625,67.48837398450269 36.77642517819186,71.06522311186563 38.5,77.98256448319444 38.3957838480128,78.756366581576 38.16330166277476,79.19988419600122 35.2692992874654,82.66301851465687 34.812351543980185,84.25771252652339 21.52880047506187,84.18222471107583 15.524346793361474,84.60684282179136 15.115498812374426,83.15369670570362 14.522268408589298,81.82319750241732 13.969121140165953,80.93618673913443" stroke="#4dd2ff" stroke-dasharray="none" stroke-linecap="round" stroke-linejoin="round" stroke-width="0.5"><title>2026-06-04 19.5km</title><desc>1780570902000</desc></polyline><polyline fill="none" opacity="1" points="61.779889638273744,83.81167975402786 61.72194972410216,88.09502962471015 60.83629675046541,88.20211076246778 49.45524218273931,88.15343753378693 49.14071122012683,88.13396823498624 49.0,87.92954034329159 49.04138565296307,78.07751306435966 68.25260576338042,78.04830584809679 71.1413243408897,78.49614879026922 73.69068056411925,78.1261917370939 75.58614347031107,78.19434183475823 75.89239730229019,77.99962713324203 76.0,77.74649739203596 75.95861434703693,77.20129245642602 75.59442060091533,75.0204397123889 72.93746168000507,61.94395157865074 72.79675045984914,61.79788923753222" stroke="#4dd2ff" stroke-dasharray="none" stroke-linecap="round" stroke-linejoin="round" stroke-width="0.5"><title>2026-06-02 16.9km</title><desc>1780401150000</desc></polyline><polyline fill="none" opacity="1" points="87.14209274671157,79.84727493838727 86.71670630198787,78.98752183813485 86.5,77.85376852194895 86.65249702733126,76.6727598030484 86.9895957193221,75.8980093915452 88.52259215217782,73.96110323326138 89.06837098690448,72.85563018034009 89.92717003566213,67.56428291631164 90.07164090368315,67.34695285605994 107.08709869201994,67.01623215913423 110.92360285372706,66.40203324891627 111.59780023779604,68.06508490462875 111.75832342446665,71.93911624832981 113.5,79.00641760180588 113.451843043993,79.64887112942233 113.20303210458951,80.24408120162116 110.36979785969015,83.59796675107646" stroke="#4dd2ff" stroke-dasharray="none" stroke-linecap="round" stroke-linejoin="round" stroke-width="0.5"><title>2026-05-28 19.4km</title><desc>1779966212000</desc></polyline><polyline fill="none" opacity="1" points="138.0466143269441,88.28558987028373 131.79091703012818,87.37434371130075 125.18599391332828,87.32074083943735 124.9278704811586,80.67384979032795 125.07970779418247,78.65471427970624 138.10734925215365,78.15439369661908 141.46295387018472,76.3675220880541 141.2503816318349,68.54079644694866 139.77755969547434,66.82530012576899 139.2764965624665,65.41357623241493 139.29168029379798,64.770255008596 140.0508668589173,62.786665443331 141.11372805014253,61.91101921851805 142.4650801361422,61.5 144.71227236895356,62.01824145496357 145.47145893413108,62.786665443331 146.1091756487731,64.00184025916678 146.24582923052367,64.91321549733402 145.9725220670225,66.36068346911634 144.42378147417912,68.48718745692167 144.60598624980776,76.0816208350443 147.26313922792906,77.6183342456934 149.54069892328698,77.92210148170125 149.78363862412516,78.19013093144167 150.0721295188996,87.12419682677137 149.88992474327097,87.64235780978925 146.24582923052367,88.32132491121592 141.08336058753775,88.48213249984838 138.00106313300785,88.2677223468636 131.68463091104059,87.33860846533207 125.68705704633612,87.41007894961513 125.18599391332828,87.15993211924797 125.01897286903113,78.74405708127597 125.79334316542372,78.52963427611394 137.955511939188,78.17226231502718 141.46295387018472,76.31391564085789 141.28074909449788,68.43357844943239 139.77755969547434,66.7538207252801 139.33723148773424,64.50220375825302 140.2634390972089,62.57222189960885 141.49332133273128,61.73231533631042 142.3739777483279,61.53574084225693 143.558308789914,61.60722250356048 144.74263983155834,62.07185254704382 145.27407042722916,62.48287034081295 146.04844072367996,63.87674914726813 146.2306454992504,65.34209622026538 145.94215460447595,66.46790281368885 144.42378147417912,68.3263603822561 144.60598624980776,76.09948967785749 147.23277176520787,77.58259688709222 149.82918981806142,78.13652507629013 150.04176205629483,87.2135350433673 149.82918981806142,87.71382816250843 146.762076094863,88.28558987028373 142.11585431615822,88.5 137.7277559696231,88.24985482156626 131.71499837364536,87.37434371130075 125.23154510732275,87.33860846533207 125.03415660030441,78.72618852484447 127.41800241486635,78.45815994577424 138.22881910263095,78.13652507629013 141.4781376013998,76.24244035080483 141.23519790061982,68.41570877643244 139.56498745724093,66.27133396206773 139.35241521900753,65.53866617903986 139.42833387549035,64.03758055942308" stroke="#ffcd00" stroke-dasharray="none" stroke-linecap="round" stroke-linejoin="round" stroke-width="0.5"><title>2026-05-27 20.2km</title><desc>1779879632000</desc></polyline><polyline fill="none" opacity="1" points="170.6808446305804,62.34973965660174 175.75613860576414,61.5 176.53519050270552,63.36132691679086 176.84451993234688,64.6561466051644 176.9819996788283,70.34779831254127 178.41408037161455,74.97375940240454 179.3191553694196,78.70946833041671 179.06710916757584,79.74789457179577 179.03273923095549,81.19088807696244 174.96563006343786,86.15357912232867 174.2667746852967,88.5" stroke="#4dd2ff" stroke-dasharray="none" stroke-linecap="round" stroke-linejoin="round" stroke-width="0.5"><title>2026-05-26 19.0km</title><desc>1779792854000</desc></polyline><polyline fill="none" opacity="1" points="30.059536354674492,104.77234244238934 31.716198700887617,106.66830282082083 33.28331173112383,109.16110593490885 34.31312886526575,111.91718878886604 34.6414763572393,114.05882597953314 24.522403647948522,118.48244619151228 22.47769426566083,115.56848768751661 18.194251983135473,111.30277946437127 16.209242144948803,107.68649463028123 15.552547160768881,105.22877937107114 15.34359875676455,102.29702752640878 15.985368854831904,98.3469787773065 17.194284620985854,95.50288418507262 18.761397651280276,93.72968889099138 21.194154069467913,92.1847108695365 23.835858891892713,91.5 26.298465082189068,91.62289703535498 28.283474920433946,92.816749109581 29.387916484614834,94.5021723894024 29.611789774615318,96.71426389737462 28.83569570252439,99.97967724234331 29.04464410658693,102.59547175045009 29.984911924693733,104.68456596291799 33.17883752915077,108.7748995062866 34.134030233253725,111.32033404878166 34.6116265853052,114.14659739319177 27.13425869832281,117.2010130474373 24.582103191991337,118.5 22.567243581695948,115.70892062154599 19.403167749289423,112.70714021974709 17.76143028907245,110.75858640753722 16.58236429496901,108.59935082608717 15.746570678835269,106.21186993762967 15.34359875676455,102.89391542608791 15.552547160768881,100.52390641637612 16.209242144948803,97.59206963660836 17.388308139052242,95.25709589432518 18.35842572915135,94.11593109951355 20.68670794548234,92.41294718443532 23.403037197887897,91.55267016938888 26.223840652150102,91.6053403217229 28.298399806488305,92.85186227297527 29.074493878521025,93.81747129179712 29.462540914595593,94.78307456869516 29.611789774615318,96.27535924842232 28.83569570252439,100.10256786039099 29.074493878521025,102.80613793132943 30.014761696686037,104.7196765603585 31.68634892895352,106.68585790607904 33.11913798504975,108.86267377526383 34.0146311452263,110.95168737835775 34.65640124329366,113.98860881441215 24.50747876195237,118.4122309385275 22.462769379664678,115.60359593240719 18.46289993118262,111.63631624315167 16.343566118972376,108.09025858041423 15.597321818815544,105.33411078779318 15.373448528756853,102.45502747803403 16.030143512878567,98.10119479119021 17.030110874969978,95.78378463328409 18.507674589171074,93.99303595100355 20.56730885745492,92.500730297048 22.895591073844116,91.65801045694388 25.970117590157315,91.55267016938888 27.910352770413738,92.500730297048 29.25359251059126,94.25638258398976 29.611789774615318,96.36314027314074 28.82077081652824,100.17279102899192 29.074493878521025,102.75347141169186 29.74611374863889,104.29834888954065 31.96992176293861,107.00184911656834 33.47733524913201,109.56486621939985 34.28327909327345,111.8996342690225" stroke="#ffbf00" stroke-dasharray="none" stroke-linecap="round" stroke-linejoin="round" stroke-width="0.5"><title>2026-05-24 23.2km</title><desc>1779623970000</desc></polyline><polyline fill="none" opacity="1" points="49.173223580677586,106.04512278202674 49.165052657052,106.18714915857709 49.02124440139596,106.5633216700171 49.0,106.76867780917564 49.106222007016186,107.85683401232563 49.28598232659715,108.39608967579625 49.21571238348406,109.84873656309719 49.24839607794274,109.99648927091584 49.330105314118555,110.15959149036644 49.7304805713502,110.53568034450109 49.82036073114432,110.69302129169046 49.83997094782535,110.90792376131685 49.73865149496851,111.3281273719731 49.799116329733806,111.64087524295792 49.91677762981999,111.80396245206066 50.12268490497081,111.93443114767251 53.649255538068246,113.24482124810311 53.91399346325488,113.31196895823996 54.446737683079846,113.36952393757747 55.018702336274146,113.31196895823996 57.819694952180726,112.51960990311818 58.210265101071855,112.44862202618242 58.67437356251321,112.44670343100188 61.947645563479455,112.71530475238251 62.46568212079728,112.71530475238251 63.016402372588345,112.62129474910762 63.661905338325596,112.41792447855914 64.04920711777231,112.33926177206922 67.48426340635342,112.09559704477579 67.85195496912638,112.01309563618088 68.30625832222722,111.82506774681679 68.59877738772047,111.64279392465505 68.94195617963123,111.34923322876057 69.54006778838811,110.65464557867563 70.09732477907528,110.09243193328803 70.66438687809568,109.43425491221751 70.93566154217842,109.01592571674519 71.32296332162514,108.13701870238947 71.49782108702493,107.88562031322908 71.69555743856472,107.72825463513618 72.99800266310922,106.95292055954815 73.25783803412196,106.71110155982569 73.34935237863829,106.55756398722042 73.42289069119579,106.35028616993077 73.58957753297727,105.6977291806761 73.69579953999346,105.07777794747926 73.76606948309927,104.82825589488311 73.94256143322855,104.34071812697584 74.27430093208386,103.63817965585804 74.26939837790997,103.60170832445147 74.49818423918623,103.16980531158879 74.63708994067565,102.9720862224749 75.18127345356334,102.37699613383484 75.40352257595077,102.07944364740979 75.62086914416432,101.64174452067346 75.87580196101044,100.91222211430068 75.90031473186536,100.89494359041964 76.0,100.93526012009897 75.89541217769147,100.82966901586587 75.84965500544058,100.86614601344263 75.52772061492578,101.76652826062673 75.46562159544555,101.74733081897648 75.40352257595077,101.63406549278625 75.50320784407813,101.80108360355007 75.43947463986842,101.91626759665269 75.40352257595077,101.92970568074816 74.81194770608272,101.66670133847947 73.72358068030007,101.36145786163979 73.33791308557556,101.29618499388198 71.3556470160911,101.2117138693593 69.16747367146309,101.01013343351224 67.59375378282857,101.01013343351224 66.99727635878662,100.97749638681489 66.30928459023562,100.86614601344263 64.40872775692696,100.39385911833233 63.88415446072031,100.29402451526039 63.22884638662799,100.24410700420412 62.070209417739534,100.30170411994914 61.79893475364952,100.27098568135807 61.12074809344631,100.06555476357426 59.97355041762057,99.78524333968016 59.85588911752711,99.73148448101347 59.7300568938299,99.63356614355325 59.62546907153592,99.48764762371138 59.41629342693341,98.60059093530435 59.179336642053386,98.17432722197918 59.030625832216174,98.016875886251 58.839426219579764,97.92086829195068 58.67600774723542,97.89590623276672 57.35395230600989,97.98999381194335 57.21177823507605,97.98039306130158 57.07450671830884,97.93238923055651 56.91435661541618,97.81717950954044 56.808134608399996,97.6750864951664 56.63164265827072,97.15470916824052 56.5352257595805,96.94924235171129 56.35056288584747,96.75337458394279 56.12014283984172,96.63047606242435" stroke="red" stroke-dasharray="none" stroke-linecap="round" stroke-linejoin="round" stroke-width="0.5"><title>2026-05-23 52.6km</title><desc>1779516240000</desc></polyline><polyline fill="none" opacity="1" points="106.9010073718382,98.70162331219763 107.15913085988723,106.20670269374386 110.46918500086758,107.81488957947295 112.0027421945706,107.86849553906359 112.29123315186007,108.15439369621163 112.56454037450021,116.99912324227626 112.32160062104231,117.66022540080303 109.77073320967611,118.17838470086281 106.08108570391778,118.46426499770314 99.84057078685146,118.17838470086281 93.4178510546335,117.28500558173982 87.90615539794089,117.42794656577462 87.69358311360702,117.07059387353365 87.435459625558,111.01334802483325 87.69358311360702,108.6011085750797 100.5086551088607,108.19013093099056 103.92499539192067,106.2960468208039 103.77315804595128,98.37996942423342 102.08776350633707,96.3428135713475 101.82964001834625,94.98469569506415 101.93592616042588,94.09119099513919 102.74066409375519,92.6258328116237 103.66687190387165,91.89314883900806 104.65381465229439,91.51787042208889 106.1721881114645,91.58935209111951 107.84239891654579,92.5186109701317 108.72305552283069,94.26989232226333 108.60158564610174,96.09263480255322 108.0094199970481,97.2184362745611 107.11357965617208,97.98683604286634 106.91619110642932,98.61227507292642 107.09839592158096,105.9208011621231 107.2957844712073,106.27817799928016 110.19587777816923,107.74341493958491 112.30641688639298,108.1007878294622 112.44307049771305,117.53515222256829 110.01367296313401,118.16051716588845 104.30458875669865,118.48213249980472 100.20498041703831,118.21411976509262 94.04038417281117,117.30287321150536 88.01244154007873,117.39221133136016 87.73913431738038,117.15993211916066 87.45064336014912,110.6202447416581 87.61766444070963,108.6011085750797 100.06832680566004,108.22586815805698 101.48041412269231,107.83275823458098 103.95536286110291,106.26030917576281 103.74279057676904,98.41570877608319 102.2699683214305,96.78956042912614 101.84482375287917,94.55581404300756 102.28515205607982,93.23342193065037 103.25691106996965,92.16120432842581 104.24385381833417,91.6429633225489 105.24598030140623,91.5 107.35651940962998,92.14333397599694 108.57121817697771,93.71591757821443 108.6471368498751,95.91393544976017 108.1005224045366,97.03973814107303 106.99210977938492,98.16553315051715 106.91619110642932,98.68375366822875 107.08321218693163,106.04588314316061 110.07440790149849,107.67194026877405 112.26086568267783,108.02931331342552 112.56454037450021,116.19507650744345 112.3975192939979,117.57088742597261 109.75554947502678,118.19625223395997 104.63863091770327,118.5 100.70604365848703,118.2677223468636 94.35924259928288,117.32074083932093 87.69358311360702,117.35647608920408 87.51137829851359,108.65471427925513 100.79714606603375,108.15439369621163 103.77315804595128,106.43899732349382 104.00091406487627,106.13522735728475 104.01609779946739,104.83079702834948 103.7883417806006,98.77310186882096 103.63650443468941,98.21914224509965 102.4218056673999,97.00399849121459 101.951109895017,96.05689494749822" stroke="#ffc300" stroke-dasharray="none" stroke-linecap="round" stroke-linejoin="round" stroke-width="0.5"><title>2026-05-17 22.3km</title><desc>1779013233000</desc></polyline><polyline fill="none" opacity="1" points="147.98488664985052,105.2471577508004 144.62972292190534,101.55146354290991 142.22103274558322,101.15857495730233 141.8753148614196,101.00541432409227 141.7166246851266,100.7989798270537 141.73362720399746,99.84004925806585 141.62594458437525,99.76013770618374 140.22040302265668,99.6735667417961 136.10579345087172,99.78677490161863 135.80541561709833,99.6535888097169 135.14231738031958,99.10752283414331 134.02015113347443,98.76789400270718 133.71410579342046,98.40828497173061 133.21536523927352,97.14297731350598 132.97166246850975,95.6911713684749 131.60579345087172,95.18502917266233 130.35894206547528,95.28492598682715 127.57052896724781,95.9176020621453 124.75377833750099,95.53799719376912 124.59508816117886,95.62457394782905 124.45340050375671,95.89096320003591 124.02267002518056,97.28948794662574 124.07934508813196,97.54921048860342 125.19017632241594,99.13416031065935 128.40931989921955,99.76013770618374 129.39546599495225,100.57922621820398 129.5938287153549,101.33837173841675 130.1775818639726,102.73011432573549 130.30793450880446,103.6490468119373 131.07871536523453,106.9118127441725 131.11838790928596,107.50441911024609 131.68513853903278,110.3941261301261 132.11586901763803,111.13983506569275 132.5352644836239,111.39949946046909 134.34319899245747,112.02535275411356 136.24748110832297,113.24375111554036 138.08942065489828,113.35027660779087 138.83753148614778,113.9361635374189 139.42695214104606,113.99608347891262 140.3790931989788,114.44215233088107 143.71725440802402,114.84161424546619 143.92695214101695,114.68182978903133 144.04030226700706,114.41552144488014 144.4200251889124,113.09727826423114 144.61838790931506,111.39284141268217 144.56171284633456,111.15315121501044 144.23299748110003,110.92677628688762 144.21032745591947,110.82024662237018 144.43136020150268,110.21435566727087 144.5900503777957,110.03458468210374 144.5957178841054,109.06248067639535 145.02078085640096,107.78407407555278 145.78589420652133,106.78530053747818 147.3727959697717,105.7465589522617 148.53463476069737,104.72111745854636 149.2714105793566,103.32941966949875 149.53778337530093,103.1363108039186 149.92884130982566,103.27614831852406 149.56612090679118,103.12965186676229 149.25440806042752,103.34273750007196 148.636649874039,104.56796564658725 147.95654911838938,105.22718161886951 144.68639798488584,101.58475907105822 141.9376574307389,101.03871014618926 141.72229219140718,100.77900225850317 141.67695214104606,99.76679700612658 141.17821158689912,99.66690743181607 136.0491183878912,99.77345630535274 135.1876574307098,99.12084157382196 134.0371536524035,98.76789400270718 133.67443324933993,98.3483499299291 133.18136020150268,97.04974309350655 133.0056675062806,95.73112978641802 131.62846347608138,95.17836937929678 131.2714105793275,95.14507040179888 129.94521410577,95.3448639978742 127.50818639798672,95.90428263252761 124.67443324933993,95.54465694838291 124.49874055414693,95.77108817856424 124.0,97.38272180514468 125.16750629720627,99.14081967799939 128.4433249370195,99.78677490161863 129.38413098233286,100.55924857869104 129.55415617127437,101.23848470231678 130.18324937025318,102.81002204038305 130.26826196472393,103.54250461462652 131.05604534002487,106.79861762405199 131.66246851382311,110.3342027005674 131.77581863981322,110.6737680341721 132.17254408058943,111.17312543361913 132.56360201511416,111.39284141268217 134.3261964735575,112.03201073384116 136.25314861460356,113.2304354160915 136.61586901760893,113.31032956966737 138.10075566748856,113.33696093129402 138.84886649870896,113.94282131154614 139.2909319899045,113.9494790849858 140.4981108312204,114.48209863836382 143.45654911838938,114.85492959820112 143.7795969773142,114.81498353135976 143.9552896725363,114.66185670299456 144.17065491180983,114.10260767610089 144.46536523927352,112.82430520712296 144.62972292190534,111.43944773216936 144.57871536523453,111.15315121501044 144.27833753143204,110.96006676945399 144.23299748110003,110.83356284046022 144.38035264480277,110.30091188126244 144.60705289669568,109.97466090431044 144.5900503777957,109.04916407713245 145.02078085640096,107.78407407555278 145.54219143575756,107.02500765719014 147.54848866496468,105.62670303160121 148.23992443323368,105.02741994489406 148.61964735516813,104.61457710775358 149.24874055414693,103.38269097459852 149.503778337501,103.14962867605936 150.4219143576629,103.48923344716604 151.0,103.52918682707241" stroke="#ff8300" stroke-dasharray="none" stroke-linecap="round" stroke-linejoin="round" stroke-width="0.5"><title>2026-05-16 35.3km</title><desc>1778887035000</desc></polyline><polyline fill="none" opacity="0.5" points="186.96543948742328,107.87229592546646 187.3455360403168,108.21224990405608 187.5735939720762,116.78243756529992 187.46716693724738,117.46230816350726 186.85901245253626,117.85591617885802 182.89080443960847,118.41054406383773 179.39391615230124,118.5 175.5169313120423,118.26741446525557 168.7664165313472,117.33706905294093 162.73048327025026,117.28339511936065 162.4264060278656,111.4149398964073 162.57844464911614,108.62377220552298 175.34968882874819,108.15857300652715 176.6420171087957,107.65758778910094 178.92259642662248,106.26197810236772 178.78576166753192,98.69327409977268 178.60331532207783,98.10279324989824 177.78230676765088,97.36916258730344 177.05252138600918,96.22397650475614 176.79405573004624,94.8461639782181 177.18935614504153,93.3609765672445 178.58811145997606,91.89366986829555 179.60677022195887,91.53578820856637 180.70144829445053,91.5 182.4803001623368,92.21576269919751 183.63579368335195,94.04094354507106 183.68140526977368,95.63348682901415 183.17967781983316,96.90393169868912 181.9633688502945,98.15647341434669 181.84173795336392,99.57004480175965 178.9682080129278,99.64161771489307 178.63372304633958,98.12068663997343 177.44782180112088,96.97550576683716 176.82446345424978,95.36508173320908 176.9765020754421,93.91568668051332 177.69108359504025,92.64521883007546 179.34830456593772,91.60736460253247 181.41602981410688,91.64315278791764 182.40428085176973,92.16208060430654 183.0428430607426,92.82415855507134 183.7726284423843,94.70301396586001 183.34692030306906,96.5997415631573 181.99377657455625,98.084899857844 181.81133022916038,99.5163650965842 178.9682080129278,99.62372448948736 178.66413077054312,98.21015356136195 177.47822952538263,97.01129278923327 176.88527890265686,95.63348682901415 176.94609435118036,94.0588373751234 177.56945269805146,92.73468871682417 178.99861573718954,91.73262321738002 180.82307919143932,91.51789410524361 182.5411156108603,92.28733879853098 183.24049326835666,93.16414349869592 183.71181299397722,94.30935079221672 183.63579368335195,95.88399785832735 183.08845464710612,96.99339927898836 181.97857271245448,98.24594031638117 181.8569418155239,99.53425833363144 179.04422732361127,99.65951093834883 178.72494621906662,98.26383369098767 177.52384111168794,96.99339927898836 176.85487117845332,95.36508173320908 177.0981329723145,93.55780940127443 177.96475311310496,92.3410208527057 179.78921656729653,91.5 181.44643753831042,91.64315278791764 182.60193105932558,92.3410208527057 183.71181299397722,94.23777556899586 183.6662014076137,95.70506144758838 182.99723147443729,97.11865381007374 181.97857271245448,98.12068663997343 181.91775726393098,99.4984718576452 179.0138195992913,99.65951093834883 178.60331532207783,98.084899857844 177.6606758707785,97.22601476115233 176.96129821328213,95.95557236834429 176.82446345424978,94.52407627593493 177.3718024904956,92.82415855507134 177.44782180112088,93.003098086323 178.0559762857738,92.28733879853098 179.04422732361127,91.71472913537582 181.18797188228928,91.58947050693678 179.04422732361127,91.71472913537582 178.0559762857738,92.28733879853098 177.44782180112088,93.003098086323 177.3718024904956,92.82415855507134 176.82446345424978,94.52407627593493 176.96129821328213,95.95557236834429 177.6606758707785,97.22601476115233 178.60331532207783,98.084899857844 179.0138195992913,99.65951093834883 181.91775726393098,99.4984718576452 181.97857271245448,98.12068663997343 182.99723147443729,97.11865381007374 183.6662014076137,95.70506144758838 183.71181299397722,94.23777556899586 182.60193105932558,92.3410208527057 181.44643753831042,91.64315278791764" stroke="#4dd2ff" stroke-dasharray="1,0.5" stroke-linecap="round" stroke-linejoin="round" stroke-width="0.5"><title>2026-05-12 15.2km</title><desc>1778590468000</desc></polyline><polyline fill="none" opacity="1" points="36.96543948742328,137.87229592546646 37.3455360403168,138.21224990405608 37.573593972076196,146.78243756529992 37.467166937247384,147.46230816350726 36.85901245253626,147.85591617885802 32.89080443960847,148.41054406383773 29.393916152301244,148.5 25.51693131204229,148.26741446525557 18.766416531347204,147.33706905294093 12.73048327025026,147.28339511936065 12.426406027865596,141.4149398964073 12.578444649116136,138.62377220552298 25.349688828748185,138.15857300652715 26.6420171087957,137.65758778910094 28.922596426622476,136.26197810236772 28.785761667531915,128.69327409977268 28.603315322077833,128.10279324989824 27.78230676765088,127.36916258730344 27.052521386009175,126.22397650475614 26.79405573004624,124.8461639782181 27.18935614504153,123.3609765672445 28.588111459976062,121.89366986829555 29.606770221958868,121.53578820856637 30.70144829445053,121.5 32.48030016233679,122.21576269919751 33.63579368335195,124.04094354507106 33.68140526977368,125.63348682901415 33.17967781983316,126.90393169868912 31.9633688502945,128.1564734143467 31.841737953363918,129.57004480175965 28.96820801292779,129.64161771489307 28.633723046339583,128.12068663997343 27.44782180112088,126.97550576683716 26.82446345424978,125.36508173320908 26.976502075442113,123.91568668051332 27.691083595040254,122.64521883007546 29.348304565937724,121.60736460253247 31.416029814106878,121.64315278791764 32.40428085176973,122.16208060430654 33.0428430607426,122.82415855507134 33.7726284423843,124.70301396586001 33.346920303069055,126.5997415631573 31.99377657455625,128.084899857844 31.811330229160376,129.5163650965842 28.96820801292779,129.62372448948736 28.664130770543125,128.21015356136195 27.47822952538263,127.01129278923327 26.885278902656864,125.63348682901415 26.946094351180363,124.0588373751234 27.569452698051464,122.73468871682417 28.99861573718954,121.73262321738002 30.82307919143932,121.51789410524361 32.54111561086029,122.28733879853098 33.24049326835666,123.16414349869592 33.71181299397722,124.30935079221672 33.63579368335195,125.88399785832735 33.08845464710612,126.99339927898836 31.97857271245448,128.24594031638117 31.856941815523896,129.53425833363144 29.044227323611267,129.65951093834883 28.724946219066624,128.26383369098767 27.523841111687943,126.99339927898836 26.854871178453322,125.36508173320908 27.098132972314488,123.55780940127443 27.964753113104962,122.3410208527057 29.789216567296535,121.5 31.44643753831042,121.64315278791764 32.60193105932558,122.3410208527057 33.71181299397722,124.23777556899586 33.6662014076137,125.70506144758838 32.997231474437285,127.11865381007374 31.97857271245448,128.12068663997343" stroke="#4dd2ff" stroke-dasharray="none" stroke-linecap="round" stroke-linejoin="round" stroke-width="0.5"><title>2026-05-11 15.3km</title><desc>1778503630000</desc></polyline><polyline fill="none" opacity="1" points="57.95172065147199,148.14706748182653 57.25198536692187,143.61774647497805 54.153157679131255,140.5589628687594 51.804046366829425,136.7354591351468 51.2042732660193,131.61780431837542 51.75406527519226,129.08837091072928 54.902874055085704,124.32359226088738 61.00056724785827,121.55882498860592 66.6484306147322,122.26472435361939 72.49621834885329,126.73539902450284 73.6957645509392,131.20603689190466 73.64578345906921,134.8531089471653 71.34665323863737,140.02955626504263 68.0479011835996,143.26481078437064 67.6480524498038,148.02942325809272 58.40155047713779,148.44117792946054 57.25198536692187,143.50010127038695 54.40306313754991,140.91190031799488 51.55414090817794,136.38251897180453 51.30423544952646,130.9119171105558 52.753687110263854,127.02952106791781 56.652212266111746,123.08827245316934 59.40117231197655,121.91177478566533 63.49962183483876,121.55882498860592 68.0978822754696,122.9117979654111 70.14710703701712,124.44124161952641 73.49584018369205,129.8530845787609 73.89568891772069,133.08839972061105 72.99602926615626,137.50016203528503 68.19784445874393,142.97069753333926 67.89795790845528,147.73531258752337 58.451531569007784,148.5 57.20200427505188,143.5589238757384 52.6037438348867,138.5589796580025 51.10431108251214,133.20604718098184 51.95398964220658,128.50012889504433 54.75293077994138,124.26476757170167 61.150510523235425,121.5 66.7483927984722,122.32354925922118 70.8468423213344,125.08831263816683 72.84608599101193,128.14718337962404 73.8457078258507,132.02957143238746 72.54619944049045,138.38251019758172 67.94793900032528,143.44127865834162 67.6480524498038,148.08824537304463 58.40155047713779,148.44117792946054 57.30196645879187,143.79421423445456 52.453800559742376,138.38251019758172 51.2042732660193,134.8531089471653 52.05395182548091,128.44130465830676 54.65296859643422,124.6765402610763 60.15088868839666,121.6764749463182 65.64880877989344,121.97059972962597 70.54695577104576,124.85301417519804 73.74574564234354,130.4413251291844 72.99602926615626,137.0883990689763 71.09674778021872,140.38249405828537 68.0479011835996,143.38245604006806 67.6480524498038,148.02942325809272 58.251607201993465,148.38235585269285 57.30196645879187,143.67656906787306 53.953233311884105,140.44131700141588 51.60412200004794,136.32369558914797 51.254254357656464,130.79426915338263" stroke="#4dd2ff" stroke-dasharray="none" stroke-linecap="round" stroke-linejoin="round" stroke-width="0.5"><title>2026-05-10 11.2km</title><desc>1778422578000</desc></polyline><polyline fill="none" opacity="0.5" points="88.3819037284702,135.13033876172267 93.1029079281725,126.53543877106858 96.79119245847687,123.58363367349375 101.36466527637094,122.02090892614797 105.5693096416071,121.5 111.61809627199546,122.88908971752971 105.5693096416071,121.5 101.36466527637094,122.02090892614797 96.79119245847687,123.58363367349375 93.1029079281725,126.53543877106858 88.3819037284702,135.13033876172267 88.52943510981277,142.42290890100412 91.48006273433566,148.5 88.52943510981277,142.42290890100412 88.3819037284702,135.13033876172267 93.1029079281725,126.53543877106858 96.79119245847687,123.58363367349375 101.36466527637094,122.02090892614797 105.5693096416071,121.5 111.61809627199546,122.88908971752971 105.5693096416071,121.5 101.36466527637094,122.02090892614797 96.79119245847687,123.58363367349375 93.1029079281725,126.53543877106858 88.3819037284702,135.13033876172267 88.52943510981277,142.42290890100412 91.48006273433566,148.5 88.52943510981277,142.42290890100412 88.3819037284702,135.13033876172267 93.1029079281725,126.53543877106858 96.79119245847687,123.58363367349375 101.36466527637094,122.02090892614797 105.5693096416071,121.5 111.61809627199546,122.88908971752971 105.5693096416071,121.5 101.36466527637094,122.02090892614797 96.79119245847687,123.58363367349375 93.1029079281725,126.53543877106858 88.3819037284702,135.13033876172267 88.52943510981277,142.42290890100412 91.48006273433566,148.5 88.52943510981277,142.42290890100412 88.3819037284702,135.13033876172267 93.1029079281725,126.53543877106858 96.79119245847687,123.58363367349375 101.36466527637094,122.02090892614797 105.5693096416071,121.5 111.61809627199546,122.88908971752971 105.5693096416071,121.5 101.36466527637094,122.02090892614797 96.79119245847687,123.58363367349375 93.1029079281725,126.53543877106858 88.3819037284702,135.13033876172267 88.52943510981277,142.42290890100412 91.48006273433566,148.5 88.52943510981277,142.42290890100412 88.3819037284702,135.13033876172267 93.1029079281725,126.53543877106858 96.79119245847687,123.58363367349375 101.36466527637094,122.02090892614797 105.5693096416071,121.5 111.61809627199546,122.88908971752971 105.5693096416071,121.5 101.36466527637094,122.02090892614797 96.79119245847687,123.58363367349375 93.1029079281725,126.53543877106858 88.3819037284702,135.13033876172267 88.52943510981277,142.42290890100412 91.48006273433566,148.5 88.52943510981277,142.42290890100412 88.3819037284702,135.13033876172267 93.1029079281725,126.53543877106858 96.79119245847687,123.58363367349375 101.36466527637094,122.02090892614797 105.5693096416071,121.5 111.61809627199546,122.88908971752971 105.5693096416071,121.5 101.36466527637094,122.02090892614797 96.79119245847687,123.58363367349375 93.1029079281725,126.53543877106858 88.3819037284702,135.13033876172267 88.52943510981277,142.42290890100412 91.48006273433566,148.5 88.52943510981277,142.42290890100412 88.3819037284702,135.13033876172267 93.1029079281725,126.53543877106858 96.79119245847687,123.58363367349375 101.36466527637094,122.02090892614797 105.5693096416071,121.5 111.61809627199546,122.88908971752971 105.5693096416071,121.5 101.36466527637094,122.02090892614797 96.79119245847687,123.58363367349375 93.1029079281725,126.53543877106858 88.3819037284702,135.13033876172267 88.52943510981277,142.42290890100412 91.48006273433566,148.5 88.52943510981277,142.42290890100412 88.3819037284702,135.13033876172267 93.1029079281725,126.53543877106858 96.79119245847687,123.58363367349375 101.36466527637094,122.02090892614797 105.5693096416071,121.5 111.61809627199546,122.88908971752971 105.5693096416071,121.5 101.36466527637094,122.02090892614797 96.79119245847687,123.58363367349375 93.1029079281725,126.53543877106858 88.3819037284702,135.13033876172267 88.52943510981277,142.42290890100412 91.48006273433566,148.5 88.52943510981277,142.42290890100412 88.3819037284702,135.13033876172267 93.1029079281725,126.53543877106858 96.79119245847687,123.58363367349375 101.36466527637094,122.02090892614797 105.5693096416071,121.5 111.61809627199546,122.88908971752971 105.5693096416071,121.5 101.36466527637094,122.02090892614797 96.79119245847687,123.58363367349375 93.1029079281725,126.53543877106858 88.3819037284702,135.13033876172267 88.52943510981277,142.42290890100412 91.48006273433566,148.5 88.52943510981277,142.42290890100412 88.3819037284702,135.13033876172267 93.1029079281725,126.53543877106858 96.79119245847687,123.58363367349375 101.36466527637094,122.02090892614797 105.5693096416071,121.5 111.61809627199546,122.88908971752971 105.5693096416071,121.5 101.36466527637094,122.02090892614797 96.79119245847687,123.58363367349375 93.1029079281725,126.53543877106858 88.3819037284702,135.13033876172267 88.52943510981277,142.42290890100412" stroke="#4dd2ff" stroke-dasharray="1,0.5" stroke-linecap="round" stroke-linejoin="round" stroke-width="0.5"><title>2026-05-10 11.3km</title><desc>1778397813000</desc></polyline><polyline fill="none" opacity="0.5" points="130.44539342657663,139.0860935592209 128.22347009624355,133.46382940706098 128.55675859586336,128.10301713866647 132.8339610064868,121.5 128.55675859586336,128.10301713866647 128.22347009624355,133.46382940706098 130.44539342657663,139.0860935592209 135.05588433681987,143.40081890305737 135.6669132525567,148.5 146.77652990398929,148.17313070909586 146.77652990398929,143.00857241923222 146.77652990398929,148.17313070909586 135.6669132525567,148.5 135.05588433681987,143.40081890305737 130.44539342657663,139.0860935592209 128.22347009624355,133.46382940706098 128.55675859586336,128.10301713866647 132.8339610064868,121.5 128.55675859586336,128.10301713866647 128.22347009624355,133.46382940706098 130.44539342657663,139.0860935592209 135.05588433681987,143.40081890305737 135.6669132525567,148.5 146.77652990398929,148.17313070909586 146.77652990398929,143.00857241923222 146.77652990398929,148.17313070909586 135.6669132525567,148.5 135.05588433681987,143.40081890305737 130.44539342657663,139.0860935592209 128.22347009624355,133.46382940706098 128.55675859586336,128.10301713866647 132.8339610064868,121.5 128.55675859586336,128.10301713866647 128.22347009624355,133.46382940706098 130.44539342657663,139.0860935592209 135.05588433681987,143.40081890305737 135.6669132525567,148.5 146.77652990398929,148.17313070909586 146.77652990398929,143.00857241923222 146.77652990398929,148.17313070909586 135.6669132525567,148.5 135.05588433681987,143.40081890305737 130.44539342657663,139.0860935592209 128.22347009624355,133.46382940706098 128.55675859586336,128.10301713866647 132.8339610064868,121.5 128.55675859586336,128.10301713866647 128.22347009624355,133.46382940706098 130.44539342657663,139.0860935592209 135.05588433681987,143.40081890305737 135.6669132525567,148.5 146.77652990398929,148.17313070909586 146.77652990398929,143.00857241923222 146.77652990398929,148.17313070909586 135.6669132525567,148.5 135.05588433681987,143.40081890305737 130.44539342657663,139.0860935592209 128.22347009624355,133.46382940706098 128.55675859586336,128.10301713866647 132.8339610064868,121.5 128.55675859586336,128.10301713866647 128.22347009624355,133.46382940706098 130.44539342657663,139.0860935592209 135.05588433681987,143.40081890305737 135.6669132525567,148.5 146.77652990398929,148.17313070909586 146.77652990398929,143.00857241923222 146.77652990398929,148.17313070909586 135.6669132525567,148.5 135.05588433681987,143.40081890305737 130.44539342657663,139.0860935592209 128.22347009624355,133.46382940706098 128.55675859586336,128.10301713866647 132.8339610064868,121.5 128.55675859586336,128.10301713866647 128.22347009624355,133.46382940706098 130.44539342657663,139.0860935592209 135.05588433681987,143.40081890305737 135.6669132525567,148.5 146.77652990398929,148.17313070909586 146.77652990398929,143.00857241923222 146.77652990398929,148.17313070909586 135.6669132525567,148.5 135.05588433681987,143.40081890305737 130.44539342657663,139.0860935592209 128.22347009624355,133.46382940706098 128.55675859586336,128.10301713866647 132.8339610064868,121.5 128.55675859586336,128.10301713866647 128.22347009624355,133.46382940706098 130.44539342657663,139.0860935592209 135.05588433681987,143.40081890305737 135.6669132525567,148.5 146.77652990398929,148.17313070909586 146.77652990398929,143.00857241923222 146.77652990398929,148.17313070909586 135.6669132525567,148.5 135.05588433681987,143.40081890305737 130.44539342657663,139.0860935592209 128.22347009624355,133.46382940706098 128.55675859586336,128.10301713866647 132.8339610064868,121.5 128.55675859586336,128.10301713866647 128.22347009624355,133.46382940706098 130.44539342657663,139.0860935592209 135.05588433681987,143.40081890305737 135.6669132525567,148.5 146.77652990398929,148.17313070909586 146.77652990398929,143.00857241923222 146.77652990398929,148.17313070909586 135.6669132525567,148.5 135.05588433681987,143.40081890305737 130.44539342657663,139.0860935592209 128.22347009624355,133.46382940706098 128.55675859586336,128.10301713866647 132.8339610064868,121.5 128.55675859586336,128.10301713866647 128.22347009624355,133.46382940706098 130.44539342657663,139.0860935592209 135.05588433681987,143.40081890305737 135.6669132525567,148.5 146.77652990398929,148.17313070909586 146.77652990398929,143.00857241923222 146.77652990398929,148.17313070909586 135.6669132525567,148.5 135.05588433681987,143.40081890305737 130.44539342657663,139.0860935592209 128.22347009624355,133.46382940706098 128.55675859586336,128.10301713866647 132.8339610064868,121.5 128.55675859586336,128.10301713866647 128.22347009624355,133.46382940706098 130.44539342657663,139.0860935592209 135.05588433681987,143.40081890305737 135.6669132525567,148.5 146.77652990398929,148.17313070909586 146.77652990398929,143.00857241923222 146.77652990398929,148.17313070909586 135.6669132525567,148.5 135.05588433681987,143.40081890305737 130.44539342657663,139.0860935592209 128.22347009624355,133.46382940706098 128.55675859586336,128.10301713866647 132.8339610064868,121.5 128.55675859586336,128.10301713866647 128.22347009624355,133.46382940706098 130.44539342657663,139.0860935592209 135.05588433681987,143.40081890305737 135.6669132525567,148.5 146.77652990398929,148.17313070909586 146.77652990398929,143.00857241923222 146.77652990398929,148.17313070909586 135.6669132525567,148.5 135.05588433681987,143.40081890305737 130.44539342657663,139.0860935592209 128.22347009624355,133.46382940706098 128.55675859586336,128.10301713866647 132.8339610064868,121.5 128.55675859586336,128.10301713866647 128.22347009624355,133.46382940706098 130.44539342657663,139.0860935592209 135.05588433681987,143.40081890305737 135.6669132525567,148.5 146.77652990398929,148.17313070909586 146.77652990398929,143.00857241923222 146.77652990398929,148.17313070909586 135.6669132525567,148.5 135.05588433681987,143.40081890305737 130.44539342657663,139.0860935592209 128.22347009624355,133.46382940706098 128.55675859586336,128.10301713866647 132.8339610064868,121.5 128.55675859586336,128.10301713866647 128.22347009624355,133.46382940706098 130.44539342657663,139.0860935592209 135.05588433681987,143.40081890305737 135.6669132525567,148.5 146.77652990398929,148.17313070909586 146.77652990398929,143.00857241923222 146.77652990398929,148.17313070909586" stroke="#ffc700" stroke-dasharray="1,0.5" stroke-linecap="round" stroke-linejoin="round" stroke-width="0.5"><title>2025-11-09 21.3km</title><desc>1762645227000</desc></polyline><polyline fill="none" opacity="1" points="169.70010751928203,143.34609109547455 164.42509716306813,137.25504451338202 163.678633433301,132.51100878079887 164.72368265478872,128.00120782788144 168.75458679511212,123.37423009570921 174.87558937841095,121.5 180.6980064699892,122.78853388875723 183.13645465369336,124.95560668571852 185.7739598318003,129.17258831486106 186.321366566699,132.51100878079887 185.8734883288853,135.90797686984297 184.48008936690167,139.30492361891083 180.4491852268111,143.28752366662957 180.2998924809508,147.8557640730287 172.5366696920246,148.5 170.49633549782448,148.207165582804 169.94892876246013,143.7560629202053 165.91802462236956,139.77346632350236 164.47486141161062,137.25504451338202 163.72839768207632,132.33530295424862 164.82321115233935,127.88406963978196 169.1527007841505,123.1399516890524 175.42299611354247,121.55856978881638 180.8970634646248,122.84710353810806 184.8284391076304,127.18123997718794 186.0227810749784,130.05112201476004 186.12230957252905,135.4979990948923 184.48008936690167,139.24635575240245 180.5984779726714,142.81898400682257 180.34965672926046,147.7971971326624 170.74515674100257,148.3828662521555 169.79963601659983,143.46322593424702 165.91802462236956,139.83203413290903 163.9772189250216,135.0880210091127 163.87769042770378,130.40253509493778 166.16684586554766,125.71700857958058 170.44657124904916,122.43711585993879 176.4182810864877,121.67570934758987 180.6980064699892,122.90567318093963 185.27631734521128,127.82550053606974 186.2716023181565,131.57391037989873 185.724195583025,136.66936334152706 183.78338988590986,140.066305307555 180.4491852268111,143.22895623132354 180.25012823217548,147.8557640730287 177.46333030820824,148.3828662521555 170.54609974636696,148.3242993687163 169.84940026514232,143.46322593424702 166.16684586554766,140.12487308541313 164.6241541574709,137.43074874120066 163.87769042770378,130.34396626416128 167.5602448277641,124.31134270731127 172.93478368106298,121.73427911725594" stroke="#4dd2ff" stroke-dasharray="none" stroke-linecap="round" stroke-linejoin="round" stroke-width="0.5"><title>2025-11-01 10.0km</title><desc>1761964262000</desc></polyline><polyline fill="none" opacity="1" points="14.409769260790199,167.48700314207235 13.75574075919576,160.73699217825197 16.724023959133774,155.11191937158583 21.80532231857069,152.03290763765108 27.540649179602042,151.85527181613725 32.77287719305605,154.51980307733174 35.791470277821645,159.07908199855592 36.49580866424367,164.23042931058444 34.885892352089286,169.0856777416775 30.55924226436764,173.17115825612564 30.106453301617876,178.38158185908105 20.446955430321395,178.5 19.84323681332171,173.58562558802078 14.711628569290042,168.25673594034743 13.504191335756332,162.75016206502914 14.057600067695603,159.31592661776813 15.768136149039492,156.29615003586514 20.044476352399215,152.6250266257557 26.18228229135275,151.5 32.37039811513387,154.22374468977796 35.99270981666632,159.84882663568715 36.445498779416084,164.46727169805672 34.43310338957235,169.61856823577546 30.55924226436764,173.230367894168 29.90521376254037,178.5 20.49726531514898,178.5 19.99416646757163,173.52641598845366 16.42216465063393,170.56592783203814 14.359459376195446,167.07253118645167 13.806050643790513,160.20409302582266 17.277432691305876,154.46059141261503 22.35873105074279,151.79605986294337 28.798396298196167,152.0921195652336 33.57783534913324,155.5856119451928 36.09332958632149,160.79620316298679 36.24425924057141,165.0593772176071 34.734962697839364,169.26330796408 30.508932379540056,173.46720638254192 30.30769284046255,178.14474549988518 29.65366433886811,178.44079093274195 20.446955430321395,178.5 19.641997274477035,173.46720638254192 16.220925112022087,170.56592783203814 14.359459376195446,167.25016206281725 13.806050643790513,160.38172613445204 17.17681292188354,154.63822638755664 22.76121012866497,151.79605986294337 29.402114914963022,152.2697553099133 33.527525464305654,155.34876570967026" stroke="#4dd2ff" stroke-dasharray="none" stroke-linecap="round" stroke-linejoin="round" stroke-width="0.5"><title>2025-10-27 10.0km</title><desc>1761565093000</desc></polyline><polyline fill="none" opacity="1" points="57.941790651064366,178.2641979373293 57.29061788669787,173.4302331408253 53.884483428206295,170.42372118658386 51.430063009494916,165.8254943100037 51.37997279665433,159.69446471094852 53.483761727111414,155.7446302169701 58.84341447823681,152.0305805875687 64.50360850524157,151.61790684208972 68.51082551549189,153.09174021077342 70.56452423287556,154.80138191854348 73.87047826638445,160.7556093915482 73.77029784116894,164.70540752017405 72.61822295072488,168.36041905957973 67.90974296373315,173.25337995617883 67.75947232590988,177.91049465182004 58.29242213931866,178.3820989812957 57.19043746148236,173.48918418964604 53.734212790150195,170.42372118658386 51.179611946223304,164.52855150052346 51.580333647551015,159.45865450112615 53.63403236516751,155.50881829555146 59.39440681715496,151.79476705688285 66.50721701001748,152.0895339542767 69.2120884922333,153.3275531794061 71.01533614657819,155.27300627186196 73.72020762832835,161.10932382539613 73.67011741595343,165.11807134241099 72.46795231290162,168.59622541279532 67.8596527511254,173.4302331408253 67.75947232590988,177.91049465182004 58.14215150126256,178.32314846251393 57.44088852452114,173.78393933776533 52.58213789970614,168.65517698507756 51.12952173361555,164.58750351361232 51.88087492296472,157.98483837378444 53.58394215232693,155.56777128542308 59.54467745497823,151.79476705688285 64.80414978112094,151.73581365827704 70.063622106798,154.2708040321013 73.56993699073792,160.04817983444082 73.72020762832835,165.0001674251398 71.86686976137571,169.4804983275244 68.00992338894866,173.1354778013192 67.7093821130693,177.9694452152471 58.19224171410315,178.5 57.44088852452114,173.72498832078418 53.63403236516751,170.12896421866026 51.53024343471043,165.94339804840274 51.430063009494916,160.34294226160273 53.53385193971917,155.7446302169701 58.04197107627988,152.38430069183232 63.20126297674142,151.5 69.01172764156945,153.3275531794061" stroke="#4dd2ff" stroke-dasharray="none" stroke-linecap="round" stroke-linejoin="round" stroke-width="0.5"><title>2025-10-19 10.0km</title><desc>1760866141000</desc></polyline><polyline fill="none" opacity="1" points="91.82809327007271,155.08831263822503 97.82582298014313,151.61764997069258 103.57364728557877,152.02942466718378 108.52177429641597,155.323610999214 111.22075266600586,160.26485303096706 111.3706959085539,164.79428539896617 109.67133915727027,169.2060338560259 105.47292836033739,173.26481078448705 105.22302295593545,178.14706748182653 95.47671217704192,178.20588958403096 94.92692028707825,173.79421423457097 91.27830138034187,170.206025190535 88.87920949584804,165.5589910323033 89.12911490071565,158.67660156678176 91.77811218914576,154.85301417543087 93.72737434506416,153.44122125627473 99.52517973119393,151.5 105.5728905221913,152.9706228011055 108.5717553771101,155.3824355736724 110.87088509928435,158.9118983731023 111.22075266600586,165.6178144980804 109.67133915727027,169.32367999077542 105.62287160311826,173.32363341550808 105.52290944149718,177.97060113667976 96.62627703812905,178.5 95.47671217704192,178.20588958403096 94.77697704429738,173.44127865845803 91.07837705640122,169.79426427558064 88.77924733422697,164.85310894751456 88.6293040914461,160.85309313522885 91.27830138034187,155.55890925851418 93.42748785950243,153.61769557197113 97.32601217087358,151.91177478578174 103.22377971909009,151.91177478578174 107.57213375880383,154.38241694349563 111.32071482762694,160.38250110280933 110.87088509928435,166.44134234864032 109.47141483379528,169.44132610032102 105.42294727941044,172.9706975335721 105.27300403662957,177.97060113667976 95.77659866260365,178.26471168006537 94.7269959631376,173.3824560402427 90.22869868087582,168.79427218291676 88.72926625330001,164.97075602522818 88.87920949584804,160.20602898561629 90.97841489454731,155.97068096662406 93.37750677857548,153.61769557197113 96.87618244276382,151.97059972956777 103.12381755723618,151.97059972956777 108.42181213432923,155.1471372382366" stroke="#4dd2ff" stroke-dasharray="none" stroke-linecap="round" stroke-linejoin="round" stroke-width="0.5"><title>2025-10-16 10.0km</title><desc>1760611285000</desc></polyline><polyline fill="none" opacity="1" points="126.23146745259874,165.1785800307989 126.38306206092238,159.70718891144497 129.46548576210625,154.47363334317924 135.9335223811213,151.5 142.60368514456786,152.21367347118212 147.70737028960139,157.50672276184196 148.81906408350915,161.55081592261558 147.70737028960139,168.21161031420343 142.8563428253401,173.26662355609005 142.8563428253401,178.02424056624295 133.05322482436895,178.44053009332856 132.3963148551993,173.80185752740363 127.59581892704591,168.8063201699406 126.23146745259874,164.8217518372694 126.43359359679744,159.52877306559822 129.31389115401544,154.77099579165224 135.1755493399687,151.6189456427819 142.0983697839547,152.21367347118212 146.4440818876028,155.48466501117218 148.86959561961703,161.3724006759585 147.7579018259421,168.21161031420343 142.95740589755587,173.32609402301023 142.7047482172493,178.20265040238155 133.05322482436895,178.44053009332856 132.29525178298354,173.56397582677891 128.0000712154433,169.22261668584542 126.13040438038297,164.7028090543463 126.3325305248145,159.88560469920048 128.10113428765908,156.01991631696 134.01332400995307,151.97578241716838 140.17817141255364,151.6784184545977 143.1090005056467,152.6894552700105 145.93876652652398,155.12783051736187 148.86959561961703,161.49134418019094 148.7685325476341,165.0596373253502 147.55577568127774,168.5089653226314 142.90687436121516,173.5045053854701 142.8563428253401,178.20265040238155 133.103756360244,178.5 132.3963148551993,173.74238711188082 128.5053865762893,170.0552087703254 126.18093591625802,165.11910868121777 126.43359359679744,159.29088518116623 129.01070193736814,155.12783051736187" stroke="#4dd2ff" stroke-dasharray="none" stroke-linecap="round" stroke-linejoin="round" stroke-width="0.5"><title>2025-10-08 10.1km</title><desc>1759919017000</desc></polyline><polyline fill="none" opacity="1" points="170.562997716479,178.44066079956247 169.90753146982752,173.57482449815143 164.51254005683586,167.5814789275173 163.7058123687748,161.41004467697348 166.42851831554435,155.4165660268627 171.62182780657895,151.97473676723894 176.91597825894132,151.5 182.86559495748952,154.17038896452868 185.99166474840604,159.03639760782244 186.49586955318227,164.02104457491077 184.63031177502126,169.302347236895 180.49583237431943,173.3968052775599 180.14288901071995,178.2033039338421 170.46215675515123,178.3813215927803 169.55458810622804,173.15944622678217 166.47893879609182,170.54848987975856 164.26043765433133,167.16609611199237 163.7058123687748,161.1726804326754 166.2772568743676,155.6539327650098 169.10080378176644,153.0428929894697 171.62182780657895,151.97473676723894 177.72270594676957,151.55934211832937 183.52106120390818,155.00117398781003 185.63872138480656,157.90891164721688 186.4454490726348,164.19906684203306 184.88241417729296,168.82762548461324 180.54625285463408,173.15944622678217 180.14288901071995,178.14396470144857 170.66383867734112,178.5 169.85711098928005,173.45614502415992 167.13440504251048,171.43859003228135 164.86548341996968,168.23422271560412 163.65539188846014,161.52872676041443 165.87389303022064,156.12866593257058 170.76467963820323,152.27144703781232 177.01681922003627,151.5 182.36139015271328,153.75499598047463 185.58830090425909,157.84957021672744 186.39502859232016,164.19906684203306 184.781573216198,169.06498641212238 180.64709381572902,172.98142687091604 180.19330949126743,178.14396470144857 170.562997716479,178.3813215927803 169.957951950375,173.75284366094274 165.42010870575905,169.12432662787614 163.50413044681773,162.2408187215333" stroke="#4dd2ff" stroke-dasharray="none" stroke-linecap="round" stroke-linejoin="round" stroke-width="0.5"><title>2025-10-01 10.0km</title><desc>1759271073000</desc></polyline><polyline fill="none" opacity="1" points="30.507936240406707,207.90530064329505 27.021261005895212,208.38106018019607 20.40163121232763,208.32159026071895 19.79525291058235,203.56397582683712 16.00538852531463,199.995737949037 13.83253294415772,196.07064950052882 14.085190569981933,189.23141319409478 15.954856999916956,185.78202691249317 18.582496307324618,183.34365457016975 23.281928145326674,181.5 30.35634166491218,182.45156442228472 35.055773503147066,186.97147290571593 36.47065620706417,190.95609820849495 36.36959315696731,195.29752271069447 34.247269100742415,200.0552087702672 30.608999290969223,203.26662355585722 30.15421556448564,208.2026504020905 20.502694262890145,208.32159026071895 19.896315960912034,203.56397582683712 14.186253620078787,197.31954432319617 13.529343793168664,193.7512658648193 13.984127519652247,189.29088518122444 17.117082078475505,184.59257834212622 23.130333570064977,181.5594728247961 29.648900313070044,182.27314621867845 33.236638597911224,184.7709957920015 36.16746705607511,190.00454852572875 36.42012468166649,195.0596373254666 34.29780062590726,199.81732544646366 30.55846776557155,203.2071530825342 30.55846776557155,207.84583067224594 29.95208946382627,208.26212033454794 20.502694262890145,208.32159026071895 19.84578443574719,203.56397582683712 16.510703776497394,200.53097510896623 14.337848195573315,196.96271752100438 13.680938368663192,190.65873910981463 16.763361402321607,184.83046826248756 23.02927051950246,181.5594728247961 30.76059386623092,182.62998256779974 34.80311587709002,186.73358391330112 36.47065620706417,191.3129289142671 36.066404005745426,196.42747688264353 34.045143000315875,200.23362119565718 30.710062341066077,203.08821211615577 30.457404715474695,208.02424056612654 27.071792530827224,208.5 20.502694262890145,208.5 19.79525291058235,203.44503493781667 16.106451575411484,200.0552087702672 13.933595994487405,196.07064950052882 14.085190569981933,189.35035716212587 18.329838681733236,183.34365457016975 22.675549843814224,181.61894564313116" stroke="#4dd2ff" stroke-dasharray="none" stroke-linecap="round" stroke-linejoin="round" stroke-width="0.5"><title>2025-09-27 10.0km</title><desc>1758965825000</desc></polyline><polyline fill="none" opacity="1" points="57.89170093741268,208.5 57.49097927985713,203.4302331409417 52.48195855971426,197.888806046627 51.079432758037,191.4630380293238 51.93096628040075,188.51541263941908 54.73601788375527,184.68347576627275 59.19404632458463,181.8537204490858 65.60559284640476,181.73581365833525 69.36235838662833,183.09174021083163 71.31587646738626,184.80138191842707 73.97065744921565,191.40408567804843 73.77029662043788,195.5896867563133 71.01533522410318,201.07218595402082 68.0099227919709,203.25337995635346 67.65929134190083,208.20524740574183 57.89170093741268,208.44104949379107 57.29061845084652,203.07652671413962 52.58213897398673,198.77308011066634 51.17961317230947,194.82331150147365 51.02934255078435,191.63989504508208 52.18141731643118,187.8669329113327 57.1403478293214,182.62011396692833 63.852435594424605,181.5 70.7147939808201,183.681272440881 73.36957496288233,188.51541263941908 73.87047703471035,194.29274338507093 72.21750019700266,199.0678378128796 68.06001299945638,203.25337995635346 67.7594717561733,208.44104949379107 57.89170093741268,208.38209898141213 57.340708658099174,203.54813523212215 53.533852910855785,200.12896421883488 51.17961317230947,194.70540752011584 52.08123690215871,187.8669329113327 56.3389045142103,183.3865064056008 60.446301504503936,181.55895342410076 69.56271921517327,182.85592714010272 71.66650791792199,184.7424288453767 73.62002599867992,190.1660848246538 73.920567241963,194.29274338507093 71.71659812494181,199.89315852959407 67.9598325851839,203.48918418964604 67.65929134190083,208.32314846263034 57.84161073016003,208.2641979372711 57.1403478293214,203.25337995635346 53.834394154371694,200.54162392910803 52.031146694673225,197.65299938688986 51.17961317230947,190.8735142283258 53.38358228933066,186.15730083337985" stroke="#4dd2ff" stroke-dasharray="none" stroke-linecap="round" stroke-linejoin="round" stroke-width="0.5"><title>2020-04-24 10.0km</title><desc>1587724293000</desc></polyline><polyline fill="none" opacity="1" points="89.51038675825112,197.90147478319705 94.94385548774153,203.76325434836326 95.54757423559204,208.5 105.35800388641655,208.08553639397724 105.35800388641655,203.52641598839546 109.88589449413121,198.49357658304507 111.69705073721707,192.63174051209353 109.43310543312691,185.76324655441567 109.9865142852068,185.05270777101396 107.77287887688726,185.4079772781115 104.25118618179113,182.92108587932307 98.61647786991671,181.5 92.47867060103454,184.28295638010604 88.95697790617123,189.84882663574535 89.46007686271332,197.90147478319705 94.79292580089532,203.64483518118504 95.19540496589616,208.38158185890643 104.95552472071722,208.20395459915744 105.3076939904131,203.2303678940516 109.48341532889754,199.26330796384718 111.09333198983222,194.11200807831483 110.43930334621109,189.375137756404 107.52132939873263,184.63822638738202 101.38352213031612,181.67763593711425 97.05687110498548,182.09211956535 91.52278258395381,184.69743803300662 88.65511853224598,190.20409302593907 89.10790759325027,196.89490025199484 91.01968362787738,200.2106681757723 94.59168621827848,203.52641598839546 95.09478517482057,208.32237277878448 104.95552472071722,208.20395459915744 105.00583461672068,203.52641598839546 109.38279553758912,199.1448878220981 110.84178251121193,194.52648227871396 110.03682418097742,188.8422372766072 107.068540338194,184.51980307738995 104.55304555571638,182.6842384893098 100.42763411300257,181.79605986282695 97.71089974837378,181.85527181613725 92.73022007965483,183.57241567241726 89.30914717540145,188.25012502312893 88.30294926301576,191.625156277325 89.30914717540145,197.8422645679675 91.87495185341686,201.27644645154942 94.64199611381628,203.34878715121886 95.24571486166678,208.44079093274195" stroke="#4dd2ff" stroke-dasharray="none" stroke-linecap="round" stroke-linejoin="round" stroke-width="0.5"><title>2020-04-16 10.0km</title><desc>1587033949000</desc></polyline><polyline fill="none" opacity="1" points="126.15457052644342,192.40627478284296 127.35673523903824,198.41937065758975 132.56611565942876,203.54813523223856 133.41764899739064,208.4410494939657 142.78451571520418,208.08734632335836 142.93478630436584,203.37128208595095 147.0922726013232,199.24469235760625 148.84542947355658,194.52855150063988 148.19425692106597,189.57655961893033 144.4374921945855,184.15289776510326 138.87748039979488,181.79476705705747 131.06340976897627,183.62231924652588 127.35673523903824,188.2206492224359 126.25475091929547,191.99360890430398 126.75565288285725,196.70977172651328 129.3102528967429,200.836380673456 132.6662960522808,203.724988321017 133.26737840822898,208.5 142.8846961078234,208.08734632335836 142.93478630436584,203.31233102444094 147.49299417226575,198.77308011089917 148.84542947355658,193.88007893715985 148.39461770653725,190.1660848245956 146.14055887050927,185.92148909100797 142.33370394795202,182.79697385634063 139.67892354121432,181.6768602532684 135.02053528069519,182.14848731446546 129.6107940748334,184.32975715614157 126.70556268654764,189.8123697777046 126.20466072298586,193.46741417626617 127.25655484641902,198.3014674554579 132.6162058559712,203.54813523223856 133.01692742668092,208.32314846263034 143.03496669698507,207.7925935056992 142.98487650044262,203.25337995623704 147.29263338656165,199.12678933423012 148.69515888462774,194.469599481381 148.14416672452353,189.2228441889747 143.98668042733334,184.15289776510326 139.3282921668142,181.5 134.92035488807596,182.26639401598368 129.6107940748334,184.68347576609813 126.90592347178608,189.340749357827 126.25475091929547,194.70540752040688 128.4086293624714,199.71630419575376 132.51602546288632,203.66603729786584 133.11710781930014,208.5 143.03496669698507,207.96944521542173 143.03496669698507,203.37128208595095 147.0922726013232,199.36259535566205" stroke="#4dd2ff" stroke-dasharray="none" stroke-linecap="round" stroke-linejoin="round" stroke-width="0.5"><title>2020-04-14 10.0km</title><desc>1586861907000</desc></polyline><polyline fill="none" opacity="1" points="170.09478304954246,203.3487871508114 170.79912189370953,208.5 180.40831612492912,207.84869990643347 180.6095557946246,203.05273896059953 184.53372935508378,199.14488782180706 186.49581613508053,193.75674422772136 185.9927169608418,189.6119822471519 183.02443183166906,184.46059141249862 177.28910124348477,181.67763593688142 172.1574896646198,181.9736957034911 166.5227789110504,184.57901473541278 163.50418386491947,190.32251510425704 163.75573345203884,194.82253508613212 164.9128615532536,197.72384411795065 170.14509296696633,203.3487871508114 170.34633263689466,208.08553639386082 180.35800620750524,207.84869990643347 180.45862604212016,203.40799676970346 185.03682852932252,198.49357658269582 186.24426654796116,194.05279745248845 185.89209712599404,189.96724879124667 182.1188533178065,183.51320390502224 177.4400309957564,181.61842396430438 171.75501032499596,181.9144837631029 166.87494833325036,184.164532992756 163.60480369976722,191.92121065611718 165.21472105802968,198.07910539017757 170.09478304954246,203.52641598822083 170.3966425540857,208.08553639386082 180.1567665375769,207.90790903783636 180.35800620750524,203.23036789393518 184.28217976749875,199.26330796355614 186.09333679568954,194.88174562848872 185.79147729091346,189.43434888852062 182.52133265743032,184.34216806368204 177.1381714909803,181.5 170.74881197628565,182.44739099656 166.47246899385937,184.46059141249862 163.5544937821105,191.74357804795727 164.76193180098198,197.66463388339616 169.99416321446188,203.46720638207626 170.3966425540857,207.90790903783636 180.50893595977686,207.78949076862773" stroke="#4dd2ff" stroke-dasharray="none" stroke-linecap="round" stroke-linejoin="round" stroke-width="0.5"><title>2020-04-13 10.0km</title><desc>1586775592000</desc></polyline><polyline fill="none" opacity="1" points="17.49798194458708,214.15184373501688 14.220649824477732,218.85280838544713 14.06702488171868,226.02471639716532 15.961732513504103,229.58050205826294 20.058397663058713,233.55813366820803 20.51927249226719,238.3794671971118 29.89039402222261,237.95760218106443 30.55610210937448,233.1362649970688 34.65276725892909,229.09836296143476 36.39384994772263,224.93989590904675 36.13780837552622,219.75683549552923 33.7310176002793,215.1161474143155 27.89326976193115,211.56026931619272 22.106730237836018,211.7410772255389 16.67864891467616,214.87507165101124 14.527899710927159,218.43092856474686 13.708566681016237,221.68542175466428 14.579108025413007,227.59167559049092 15.910524199018255,230.06264073739294 19.853564405580983,233.49786673480412 20.468064178247005,238.3794671971118 29.89039402222261,238.01786863146117 30.658518737880513,233.01573103206465 34.0382674864959,230.0023734254646 35.88176680379547,226.80819654546212 36.445058261742815,221.92649456713116 35.11364208813757,216.86394357285462 32.09235154022463,213.4888839861378 26.8691034745425,211.56026931619272 21.38981383666396,212.04242361045908 17.190732058137655,214.4531888142228 15.14239948336035,216.92421230807668 13.554941738024354,221.92649456713116 13.708566681016237,224.81936016870895 15.500857684062794,229.64076941588428 19.90477272006683,233.67866751545807 20.36564754927531,238.3192007857142 30.04401896544732,238.07813507528044 30.70972705236636,233.1362649970688 34.75518388743512,229.09836296143476 36.29143331875093,225.7233775848872 36.39384994772263,220.48005612607813 35.11364208813757,216.80367483128794 30.197643908672035,212.58484669210156 24.411104384576902,211.5 18.317314974265173,213.36834576528054 14.579108025413007,217.88851118239108 13.65735836676322,220.48005612607813 13.810983309987932,225.48230641748523 16.115357456495985,230.30370992043754 19.6999394625891,233.55813366820803 20.468064178247005,238.5 30.351268851663917,237.95760218106443 30.402477166149765,233.3773328482639 35.11364208813757,228.37515353248455 36.39384994772263,223.7345373306307" stroke="#4dd2ff" stroke-dasharray="none" stroke-linecap="round" stroke-linejoin="round" stroke-width="0.5"><title>2020-04-12 10.0km</title><desc>1586649823000</desc></polyline><polyline fill="none" opacity="1" points="53.48734057578258,229.90923746227054 51.69970564846881,227.04561955475947 51.103827339364216,221.90275740099605 53.93424930726178,215.82476620055968 57.45986263593659,212.84418780222768 63.31933267484419,211.5 70.56918543507345,214.01304403849645 73.34995087701827,219.79884511831915 73.9458291863557,224.06510314252228 72.20785078476183,228.97418022481725 67.78841999266297,233.64945020817686 67.83807651838288,238.32467968267156 57.906771367648616,238.26623956428375 57.45986263593659,233.35724702116568 52.84180574095808,229.50015012029326 51.45142301986925,226.75341279135318 51.103827339364216,222.13652492605615 51.84867522586137,218.63000141637167 56.814327801112086,212.9610735399765 60.488910706946626,211.55844301753677 67.1428851580713,212.66885914839804 71.4133463727776,215.3572255797335 73.74720308301039,220.67547623312566 73.84651613468304,224.24042809329694 72.05888120736927,229.44170904619386 67.98704609577544,233.53256895235972 67.73876346717589,238.32467968267156 57.906771367648616,238.32467968267156 57.360549584496766,233.35724702116568 53.38802752410993,229.9676784859039 51.6500491227489,226.75341279135318 51.3521099681966,220.55859216680983 53.93424930726178,215.82476620055968 56.96329737850465,213.01951639918843 59.19784103729762,212.14287284499733 64.80902844737284,211.85065801045857 70.46987238316797,214.01304403849645 73.64789003157057,220.09105564816855 73.79685960896313,224.47419460536912 71.76094205281697,229.9676784859039 67.98704609577544,233.29880636470625 67.73876346717589,238.14935930841602 57.95642789360136,238.5 57.310893058544025,233.2403657019604 53.139744895510375,229.61703224980738 51.6500491227489,226.81185415684013 51.054170813644305,220.73391825694125 53.8845927817747,215.82476620055968 56.863984326831996,213.01951639918843 59.396467140410095,211.96754396316828 63.17036309768446,211.61688602878712" stroke="#4dd2ff" stroke-dasharray="none" stroke-linecap="round" stroke-linejoin="round" stroke-width="0.5"><title>2020-04-08 10.0km</title><desc>1586343893000</desc></polyline><polyline fill="none" opacity="1" points="95.08400501520373,233.53256895247614 90.56526215048507,229.26638578565326 88.72797109559178,224.88328575814376 89.02591018564999,220.03261355502764 91.21079684561118,215.70788108336274 94.33915729029104,212.96107353986008 96.47438743524253,212.20131579291774 102.97939089988358,212.0844298907905 107.59744679462165,214.36370041576447 111.12305935914628,220.8508022854803 110.6264942092821,227.10406088869786 108.49126406456344,230.8442930795718 105.31324710464105,233.59100958361523 105.31324710464105,238.32467968278797 95.58057016530074,238.44155990047147 94.98469198541716,233.53256895247614 90.11835351539776,228.62353334313957 88.52934503578581,222.7793850976741 89.82041442557238,217.9871363011771 94.23984426027164,212.78574492404005 99.9006869699806,211.5 106.60431649442762,213.54550184804248 108.78920315415598,215.76632364524994 111.32168541918509,221.78587360068923 110.5271811792627,227.10406088869786 108.14366845949553,231.0780567305046 105.51187316467986,233.47412831510883 105.21393407485448,238.32467968278797 95.38194410526194,238.38311979477294 94.88537895516492,233.41568767128047 90.3169795756694,229.44170904625207 88.57900155056268,224.4157529870863 89.3238492757082,219.2144235840533 94.38881380530074,212.72730203950778 99.9006869699806,211.67532903369283 106.75328603968956,213.2532877730555 109.5340508793015,217.11050081829308 111.42099844920449,222.25340865069302 111.47065496398136,224.94172732619336 110.17958557442762,228.50665099860635 105.36290361965075,233.41568767128047 105.36290361965075,238.32467968278797 95.72953971032985,238.5 94.83572244038805,233.76633143879008 90.3169795756694,229.3248268790776 88.62865806580521,225.23393507068977 88.77762761083432,220.38326602004236 91.06182730058208,216.2923064160277 94.88537895516492,212.78574492404005 99.10618273005821,211.79221502452856 102.48282574978657,212.0259869301808" stroke="#4dd2ff" stroke-dasharray="none" stroke-linecap="round" stroke-linejoin="round" stroke-width="0.5"><title>2020-04-07 10.0km</title><desc>1586257895000</desc></polyline><polyline fill="none" opacity="1" points="132.3357224399224,233.53256895247614 127.76732306042686,228.91573909379076 126.37694064062089,225.23393507068977 126.72453624545597,219.85728723701322 129.00873593520373,215.59099594090367 134.47095258487388,212.0844298907905 139.23797802464105,211.79221502452856 145.1967598241754,214.01304403861286 148.22580723906867,220.9676862883498 147.6299290591851,227.8053563994472 145.39538588398136,231.42870201729238 143.0118731642142,233.41568767128047 142.713934074156,238.03247902728617 133.3785092548933,238.5 132.6336615299806,233.76633143879008 128.61148381535895,230.37676547351293 126.62522321543656,226.11055735487025 126.72453624545597,219.85728723701322 128.61148381535895,216.17542140028672 132.3357224399224,212.72730203950778 136.10961757972836,211.5584430177114 139.78419968951494,211.67532903369283 145.69332497403957,215.0650124863605 148.07683769403957,219.38975011080038 148.22580723906867,226.28588164091343 145.9416075493209,230.49364741303725 142.81324710440822,233.47412831510883 142.713934074156,238.09091917105252 133.3288527398836,238.38311979477294 132.58400501520373,233.53256895247614 128.06526215048507,229.55859118833905 126.42659715539776,225.52614265697775 126.52591018541716,220.73391825705767 128.95907942019403,215.76632364524994 132.8322875900194,212.376644598844 139.03935196460225,211.5 144.99813376413658,214.48058582423255 147.48095951392315,217.63648227899102 148.37477678386495,220.61703420319827 148.62305935914628,224.707961016451 147.82855511899106,227.6300326071796 145.69332497403957,230.96117491775658 142.81324710440822,233.47412831510883 142.76359058939852,238.2077994395513 133.42816577013582,238.38311979477294 132.6336615299806,233.94165323727066 128.21423169528134,229.55859118833905 126.37694064062089,225.17549353436334 126.67487973044626,219.97417145548388 128.71079684514552,215.9416512925527 131.6405312300194,213.13640209886944 134.3716395550873,212.0844298907905 140.62836044444703,211.85065801051678" stroke="#4dd2ff" stroke-dasharray="none" stroke-linecap="round" stroke-linejoin="round" stroke-width="0.5"><title>2020-04-02 10.0km</title><desc>1585825459000</desc></polyline><polyline fill="none" opacity="1" points="180.1199478879571,238.5 170.47081532981247,238.38412308343686 170.0277429164853,233.63314789469587 166.43393334164284,230.79413038567873 164.563183151884,227.89715821220307 163.77549886144698,221.34994330530753 166.28624253696762,215.96146738063544 172.58771686046384,211.9635308107827 177.55997394397855,212.13735476136208 181.35070459148847,213.41206200537272 183.6152969263494,215.55588097468717 185.73219845700078,220.65465913934167 186.1260406023357,224.94223043258535 184.05836933967657,230.09885849471902 180.4645597646013,233.4593309291522 180.2676386923995,238.44206154474523 170.42158506205305,238.21030766161857 170.0277429164853,233.80696480360348 165.25240690587088,229.05594896426192 163.77549886144698,222.85638923133956 165.05548583343625,217.8735134380404 169.88005211227573,213.06441487639677 174.7046183908824,211.78970680385828 181.64608620060608,213.64382663258584 185.2891260436736,218.80056361178868 186.2245011383202,224.42077089485247 185.09220497100614,228.65037248661974 180.2676386923995,233.63314789469587 180.21840842394158,238.38412308343686 170.56927586649545,238.38412308343686 169.73236130783334,233.517269923992 166.43393334164284,230.6782517999527 164.3170318112243,227.5495204970939 163.77549886144698,221.98728633020073 166.48316360986792,215.96146738063544 172.24310498358682,211.5 176.9199804579839,212.0214721338707 183.12299424479716,215.49794003425632 185.97834979766048,220.71259952092078 186.17527087032795,225.11605016584508 183.71375746279955,230.6782517999527 180.41532949684188,233.4593309291522 180.0707176194992,238.32618461578386 170.6185061344877,238.44206154474523 169.88005211227573,233.4013919281424 166.43393334164284,230.7361910958425 164.66164368833415,228.18685613555135 163.82472912967205,221.92934608651558 165.99086092831567,216.59881682589184 170.12620345293544,212.60088501975406 173.72001302801073,211.78970680385828" stroke="#4dd2ff" stroke-dasharray="none" stroke-linecap="round" stroke-linejoin="round" stroke-width="0.5"><title>2020-03-23 10.0km</title><desc>1584960411000</desc></polyline><polyline fill="none" opacity="1" points="35.87989161815494,250.1911358598154 36.076812733430415,254.3628309147898 34.20606213854626,259.7512222104124 30.218409554567188,263.2855139070889 29.676876487443224,268.1523691750481 20.42158406972885,268.5 19.633899608859792,263.5752089123707 16.286240649409592,260.6203124974272 14.16933866031468,256.6224854856264 13.824726708699018,250.71259952086257 16.138549813069403,246.30911262659356 21.455419925041497,241.55794137332123 27.7076653346885,241.78970680374186 32.28608126472682,243.7597089082701 35.436819108901545,248.91644477046793 36.076812733430415,254.76841064321343 34.20606213854626,259.7512222104124 30.169179275631905,263.63314789469587 30.021488439058885,268.2103076616186 20.323123512323946,268.32618461566744 19.683129887795076,263.4593309290358 16.335470928344876,260.272676552122 14.070878102676943,256.6224854856264 13.87395698740147,250.88642062840518 15.94162869779393,246.13529003184522 22.390795222483575,241.5 30.07071871799417,242.36911994067486 33.46760795614682,244.9764712897013 35.486049387604,248.91644477046793 36.076812733430415,254.53665083582746 34.35375297488645,259.51946456206497 30.218409554567188,263.63314789469587 30.07071871799417,268.2682461417862 20.323123512323946,268.44206154491985 19.633899608859792,263.2855139070889 15.94162869779393,259.9250403807964 14.267799217952415,256.97012380324304 13.923187266336754,250.13319542171666 16.187780091771856,246.01940827060025 21.50465020374395,241.90558948140824 26.91998087358661,241.90558948140824 31.941469312645495,243.58588548522675 33.516838234849274,244.86058927717386 35.83066133921966,250.3649571367423 36.17527329106815,254.82635057909647 33.9599107443355,259.9250403807964" stroke="#4dd2ff" stroke-dasharray="none" stroke-linecap="round" stroke-linejoin="round" stroke-width="0.5"><title>2019-12-13 10.0km</title><desc>1576239112000</desc></polyline><polyline fill="none" opacity="0.5" points="68.07892879843712,241.5 68.60032401327044,250.95007318432909 64.9505575094372,260.2773408591747 56.39967598672956,268.5 64.9505575094372,260.2773408591747 68.60032401327044,250.95007318432909 68.07892879843712,241.5 68.60032401327044,250.95007318432909 64.9505575094372,260.2773408591747 56.39967598672956,268.5 64.9505575094372,260.2773408591747 68.60032401327044,250.95007318432909 68.07892879843712,241.5 68.60032401327044,250.95007318432909 64.9505575094372,260.2773408591747 56.39967598672956,268.5 64.9505575094372,260.2773408591747 68.60032401327044,250.95007318432909 68.07892879843712,241.5 68.60032401327044,250.95007318432909 64.9505575094372,260.2773408591747 56.39967598672956,268.5 64.9505575094372,260.2773408591747 68.60032401327044,250.95007318432909 68.07892879843712,241.5 68.60032401327044,250.95007318432909 64.9505575094372,260.2773408591747 56.39967598672956,268.5 64.9505575094372,260.2773408591747 68.60032401327044,250.95007318432909 68.07892879843712,241.5 68.60032401327044,250.95007318432909 64.9505575094372,260.2773408591747 56.39967598672956,268.5 64.9505575094372,260.2773408591747 68.60032401327044,250.95007318432909 68.07892879843712,241.5 68.60032401327044,250.95007318432909 64.9505575094372,260.2773408591747 56.39967598672956,268.5 64.9505575094372,260.2773408591747 68.60032401327044,250.95007318432909 68.07892879843712,241.5 68.60032401327044,250.95007318432909 64.9505575094372,260.2773408591747 56.39967598672956,268.5 64.9505575094372,260.2773408591747 68.60032401327044,250.95007318432909 68.07892879843712,241.5 68.60032401327044,250.95007318432909 64.9505575094372,260.2773408591747 56.39967598672956,268.5 64.9505575094372,260.2773408591747 68.60032401327044,250.95007318432909 68.07892879843712,241.5 68.60032401327044,250.95007318432909 64.9505575094372,260.2773408591747 56.39967598672956,268.5 64.9505575094372,260.2773408591747 68.60032401327044,250.95007318432909 68.07892879843712,241.5 68.60032401327044,250.95007318432909 64.9505575094372,260.2773408591747 56.39967598672956,268.5 64.9505575094372,260.2773408591747 68.60032401327044,250.95007318432909 68.07892879843712,241.5 68.60032401327044,250.95007318432909 64.9505575094372,260.2773408591747 56.39967598672956,268.5 64.9505575094372,260.2773408591747 68.60032401327044,250.95007318432909 68.07892879843712,241.5 68.60032401327044,250.95007318432909 64.9505575094372,260.2773408591747 56.39967598672956,268.5 64.9505575094372,260.2773408591747 68.60032401327044,250.95007318432909 68.07892879843712,241.5 68.60032401327044,250.95007318432909 64.9505575094372,260.2773408591747 56.39967598672956,268.5 64.9505575094372,260.2773408591747 68.60032401327044,250.95007318432909 68.07892879843712,241.5 68.60032401327044,250.95007318432909 64.9505575094372,260.2773408591747 56.39967598672956,268.5 64.9505575094372,260.2773408591747 68.60032401327044,250.95007318432909 68.07892879843712,241.5 68.60032401327044,250.95007318432909 64.9505575094372,260.2773408591747 56.39967598672956,268.5 64.9505575094372,260.2773408591747 68.60032401327044,250.95007318432909 68.07892879843712,241.5 68.60032401327044,250.95007318432909 64.9505575094372,260.2773408591747 56.39967598672956,268.5 64.9505575094372,260.2773408591747 68.60032401327044,250.95007318432909 68.07892879843712,241.5 68.60032401327044,250.95007318432909 64.9505575094372,260.2773408591747 56.39967598672956,268.5 62.030744306743145,263.10005146916956" stroke="#4dd2ff" stroke-dasharray="1,0.5" stroke-linecap="round" stroke-linejoin="round" stroke-width="0.5"><title>2019-11-23 10.0km</title><desc>1574497580000</desc></polyline></svg>