<?xml version="1.0" encoding="utf-8" ?>
<svg baseProfile="full" height="300mm" version="1.1" viewBox="0,0,200,300" width="200mm" xmlns="http://www.w3.org/2000/svg" xmlns:ev="http://www.w3.org/2001/xml-events" xmlns:xlink="http://www.w3.org/1999/xlink"><defs /><rect fill="#222222" height="300" width="200" x="0" y="0" /><text fill="#FFFFFF" style="font-size:12px; font-family:Arial; font-weight:bold;" x="10" y="20">Over 10km Runs</text><text fill="#FFFFFF" style="font-size:4px; font-family:Arial" x="10" y="280">Runner</text><text fill="#FFFFFF" style="font-size:9px; font-family:Arial" x="10" y="290">Floyd Li</text><text fill="#FFFFFF" style="font-size:4px; font-family:Arial" x="65" y="280">SPECIAL TRACKS</text><rect fill="yellow" height="2.6" width="2.6" x="65" y="283" /><text fill="#FFFFFF" style="font-size:3px; font-family:Arial" x="70" y="285.5">Over 20.0 km</text><rect fill="red" height="2.6" width="2.6" x="65" y="287" /><text fill="#FFFFFF" style="font-size:3px; font-family:Arial" x="70" y="289.5">Over 40.0 km</text><text fill="#FFFFFF" style="font-size:4px; font-family:Arial" x="120" y="280">STATISTICS</text><text fill="#FFFFFF" style="font-size:3px; font-family:Arial" x="120" y="285">Number: 32</text><text fill="#FFFFFF" style="font-size:3px; font-family:Arial" x="120" y="290">Weekly: 1.8</text><text fill="#FFFFFF" style="font-size:3px; font-family:Arial" x="141" y="285">Total: 482.9 km</text><text fill="#FFFFFF" style="font-size:3px; font-family:Arial" x="141" y="290">Avg: 15.1 km</text><text fill="#FFFFFF" style="font-size:3px; font-family:Arial" x="167" y="285">Min: 10.0 km</text><text fill="#FFFFFF" style="font-size:3px; font-family:Arial" x="167" y="290">Max: 52.6 km</text><polyline fill="none" opacity="1" points="15.754665761778597,37.797736460517626 15.892093654547352,37.87323986159754 35.77332880895119,37.4633635668506 39.612147947074845,36.794614407321205 40.445877163205296,38.994997926580254 40.58330505603226,40.699183086908306 40.52833389886655,42.910265889324364 42.50729555479484,50.68641556506191 42.52561927383067,51.89430661140068 42.15914489311399,52.69236943699798 38.97997964028036,56.55317759231548 38.65015269763535,57.18944165476569 38.36613505263813,58.39725376936258 23.166610111948103,58.343333898243145 16.350186630443204,58.82861168646923 15.269087207270786,55.809067002730444 14.252120800781995,54.24533821132354 12.438072616176214,52.13156920109759 11.906684764137026,50.95603537340503 11.714285714260768,49.87755175656639 11.805904309439939,48.86376649787417 12.181540549674537,47.83918579456076 13.913131998619065,45.60664182423352 14.581947743427008,44.420245416382386 15.635561588045675,38.08896354887111 15.809636918886099,37.87323986159754 35.241940956853796,37.495722283099894 39.67628096364206,36.84854595782963 40.49168646079488,39.25386337587406 40.601628775009885,43.34169094999379 42.57142857136205,51.247223945800215 42.452324397687335,52.13156920109759 42.18663047166774,52.63844647472433 38.879199185583275,56.59631426748092 38.356973193062004,58.41882170960889 23.17577197146602,58.33254992052389 16.313539192371536,58.81782776134787 15.846284356957767,57.15708934295253 15.168306752631906,55.63651882491831 14.536138445837423,54.622792238311376 12.51136749231955,52.26098492067831 11.961655921244528,51.160945939111116 11.723447573778685,49.87755175656639 11.805904309439939,48.852981492789695 12.181540549674537,47.828400678430626 13.95894129620865,45.552715021731274 14.746861214749515,43.91332627357042 15.681370885577053,37.8948122513757 15.388191381003708,35.457102599248174" stroke="#4dd2ff" stroke-dasharray="none" stroke-linecap="round" stroke-linejoin="round" stroke-width="0.5"><title>2026-06-04 19.5km</title><desc>1780570902000</desc></polyline><polyline fill="none" opacity="1" points="54.87850133396569,52.9517939178113 54.77108652255265,52.78935154801002 54.80177646869561,47.75348131602368 54.909191280108644,47.64517969486769 55.346523012267426,47.65420483535854 54.94755371272913,47.65420483535854 54.92453625315102,47.53687793325662 56.57412085690885,47.50980247087864 63.019009541370906,58.51074234316911 62.90392224342213,58.50171837613016 62.85021483770106,62.47216970658337 62.029258779104566,62.57142857142753 51.47958980160183,62.52631092019146 51.188035313476576,62.50826385290566 51.057603042485425,62.318769410696405 51.09596547513502,53.18643233846524 68.90380670918967,53.159358708209766 71.58150450780522,53.57448674100306 73.94463035880472,53.2315550360654 75.70162977397558,53.29472677176091 75.985511775536,53.11423597156681 76.08525410038419,52.879597348030074 76.0468916677637,52.37421961160726 75.70930226051132,50.352678075076255 73.24643408466363,38.231426887141424 73.11600181364338,38.09603439432249 72.72470500066993,38.16824375116266 72.64030764886411,38.06895586942119 72.52522035094444,36.98580766785744 70.9753780720348,31.714285714282596 72.95487959653838,38.7459163567255 75.71697474704706,52.86154819584044 75.64792236828362,52.99691674220958 74.01368273756816,53.02399042516481 72.93186213698937,53.21350595995318" stroke="#4dd2ff" stroke-dasharray="none" stroke-linecap="round" stroke-linejoin="round" stroke-width="0.5"><title>2026-06-02 16.9km</title><desc>1780401150000</desc></polyline><polyline fill="none" opacity="1" points="115.08021390374051,50.48878616219736 114.9977081741672,51.92400057208579 111.83498854085337,55.76552531786729 111.51413292589132,56.520863871737674 111.25744843389839,57.74018401887588 96.0672268907656,57.65386095971189 89.17341482045595,58.18258852258441 88.26585179526592,55.366272624756675 87.28495034371736,53.75845503492019 85.32314744079486,51.45998614627024 84.83728036662797,50.4779949980657 84.58976317796623,49.18304680838628 84.76394194038585,47.83412453340134 85.14896867831703,46.94922159331327 86.89992360578617,44.73692982979992 87.5233002291643,43.474282737020985 88.50420168065466,37.43062186062161 88.66921313980129,37.18239222894772 108.10389610385755,36.804650297206535 112.48586707410868,36.10312576314027 113.25592055002926,38.00262691577518 113.43926661572186,42.42746061078651 115.42857142857974,50.49957732519397 115.3735676088254,51.233373664013925 115.0893812070135,51.913209563470446 111.85332314745756,55.743944132140314 111.22077922074823,57.74018401887588 96.0580595874344,57.65386095971189 89.2100840335479,58.161007860675454 88.05500381969614,54.97780900840007 87.31245225359453,53.844781471110764 86.01069518714212,52.431176656944444 85.12146676849807,51.179418235085905 84.7181054239627,50.13267712767265 84.57142857142026,49.10750764408294" stroke="#4dd2ff" stroke-dasharray="none" stroke-linecap="round" stroke-linejoin="round" stroke-width="0.5"><title>2026-05-28 19.4km</title><desc>1779966212000</desc></polyline><polyline fill="none" opacity="1" points="144.65483433025656,48.65169257792877 147.49505983735435,50.09874089588993 148.7766250052373,50.52673897072964 150.12746396590956,50.50635813205736 150.40455913735786,50.771308862182195 150.57774361944757,61.47093054934521 149.95427948376164,61.85814354996546 146.19617622136138,62.40839223335206 141.26041848026216,62.57142857143481 137.05203556426568,62.32687401142903 129.91683490009746,61.287513586794375 122.3833099269541,61.22637455964286 122.08889630733756,53.64498128273408 122.26208078948548,51.341970706460415 137.1213093571132,50.771308862182195 140.9486864125356,48.73321672259772 140.70622813736554,39.80611310119275 139.0263386606821,37.84943107047002 138.45482986961724,36.23922955598391 138.47214831790188,35.50546227062296 139.33807072852505,33.24299512874859 140.55036210350227,32.24423971772194 142.0917039946071,31.77543432933453 144.65483433025656,32.36653658351861 145.52075674099615,33.24299512874859 146.24813156592427,34.62901426326425 146.40399759990396,35.668521914616576 146.09226553200278,37.31949285257724 144.32578381418716,39.744967095699394 144.53360519278795,48.40711993217701 147.5643336303183,50.15988353759167 150.16210086236242,50.50635813205736 150.43919603369432,50.812070479863905 150.76824654982192,61.00219795657904 150.56042517127935,61.593208425081684 146.40399759990396,62.3676331267925 140.5157252071076,62.55104903693427 137.0000802196446,62.3064944503858 129.79560576268705,61.246754237567075 122.95481871801894,61.32827292729053 122.3833099269541,61.04295735884807 122.19280699663796,51.44387442509469 123.07604785554577,51.199305407557404 136.9481248750817,50.7916896721581 140.9486864125356,48.672073617432034 140.74086503393482,39.68382107029902 139.0263386606821,37.76790221098054 138.52410366252298,35.19972505720216 139.5805290035787,32.998402456971235 140.98332330887206,32.04041143153154 141.9877933053649,31.81620006164303 143.33863226597896,31.897731499775546 144.68947122670943,32.42768498660007 145.29561691422714,32.89648874993145 146.17885777313495,34.48633629429969 146.38667915167753,36.15769999884651 146.05762863560813,37.44178641992039 144.32578381418716,39.56152895993728 144.53360519278795,48.42750099810655 147.529696733749,50.119121778712724 150.49115137843182,50.75092805000895 150.73360965342727,61.10409644561878 150.49115137843182,61.67472696474579 146.99282483913703,62.32687401142903 141.69337968563195,62.57142857143481 136.68834815180162,62.28611488718889 129.8302426590235,61.287513586794375 122.4352652716916,61.246754237567075 122.21012544480618,51.42349368578289 124.92912181443535,51.117782331071794 137.25985694286646,50.75092805000895 140.96600486064563,48.59054944629315 140.68890968925552,39.6634390574327 138.78388038568664,37.21758148574736 138.5414221107494,36.38190619582019 138.62801435176516,34.66977937736374 139.87494262319524,32.713043938201736 140.6196358963498,32.18309125506494 142.6978496820666,31.714285714289872 144.30846536607714,32.20347407813824 145.08779553562636,32.774192228665925 146.02299173921347,33.97677123636822 146.38667915167753,35.07743003281939 146.30008691066178,36.830317788393586 145.39952760352753,38.46089639051934" stroke="#ffc200" stroke-dasharray="none" stroke-linecap="round" stroke-linejoin="round" stroke-width="0.5"><title>2026-05-27 20.2km</title><desc>1779879632000</desc></polyline><polyline fill="none" opacity="1" points="161.53485987702152,56.46851315809181 160.86124401917914,54.926166614473914 157.91763499658555,51.1136447915851 157.47470950108254,49.79932302485395 157.42857142857974,48.517571146461705 157.99145591253182,46.88820187221427 159.71701982233208,44.76998220712994 160.36295283667278,43.48816599635029 161.47949419001816,37.13315700535168 181.32809295970947,36.7312027114167 185.4159261790919,36.046790337852144 186.0434039645479,37.54597325016948 186.29254955571378,38.58886987076403 186.4032809296623,43.17314085808175 187.5567327410099,46.899064421748335 188.28571428573923,49.90794531190477 188.08270676701795,50.744332978538296 188.05502392351627,51.90657438063499 184.77922077930998,55.90371295269142 184.2163362952997,57.7936088399656 168.69548872183077,57.717579233554716 162.10697197541595,58.23892394786526 161.95010252908105,58.1085880234823 161.57177033496555,56.522820702441095 160.94429254956776,55.0565066770796 160.18762816133676,53.894301802822156 158.81271360220853,52.39536346748355 157.92686261114432,51.13536897350423 157.45625427208142,49.64725162526156" stroke="#4dd2ff" stroke-dasharray="none" stroke-linecap="round" stroke-linejoin="round" stroke-width="0.5"><title>2026-05-26 19.0km</title><desc>1779792854000</desc></polyline><polyline fill="none" opacity="1" points="22.67391984857386,66.84272093353502 25.71006808668608,66.0 28.848558400233742,66.22071299528761 31.014798997086473,67.62524408806348 32.29407494008774,69.89253613635083 32.362302990455646,72.11967215372715 31.611794437165372,74.84837894978409 31.49239534913795,76.29297218863212 31.88470663834596,79.10187130016857 32.925184405292384,81.16839136273484 34.81851280096453,83.335203223789 36.60949912125943,86.18412106846517 37.786432988825254,89.33393004442041 38.16168726538308,91.78151540517865 26.597032740479335,96.83708136172208 24.26022201788146,93.50684307144547 19.364859409281053,88.63174795928353 17.096276736992877,84.4988510060357 16.345768183702603,81.69003356693429 16.106970007705968,78.33946003018355 16.840421548346058,73.82511860263185 18.222039566840976,70.57472478294221 20.013025887077674,68.54821587541664 22.793318936484866,66.7825267080334 25.812410162121523,66.0 28.626817236770876,66.14045375467686 30.895399909000844,67.5048561252479 32.15761883952655,69.43105415931495 32.41347402811516,71.95915873984632 31.526509374321904,75.69105970553937 31.76530755031854,78.68053914337361 32.839899342448916,81.06807538618159 36.49010003323201,85.74274229290313 37.581748837954365,88.65181034145644 38.127573240257334,91.88182559222332 29.58200994093204,95.37258633993042 26.665260790789034,96.85714285714494 24.362564093316905,93.66733785318502 20.746477427717764,90.23673167970264 18.87020604457939,88.00981303719163 17.522702051326632,85.54211522980768 16.56750934716547,82.81356564299494 16.106970007705968,79.02161762981268 16.345768183702603,76.31303590442985 17.096276736992877,72.96236529898306 18.443780730303843,70.2938238792267 19.552486547559965,68.98963554231159 22.21338050905615,67.04336821078323 25.317756797536276,66.06019447930157 28.5415321738692,66.12038893911813 30.912456921651028,67.54498545483511 31.799421575444285,68.64853861919255 32.24290390237002,69.75208522137837 32.41347402811516,71.4575534267642 31.526509374321904,75.83150612616737 31.799421575444285,78.92130049293337 32.87401336757466,81.1082017832523 34.78439877589699,83.35526617837604 36.42187198292231,85.84305574315658 37.44529273733497,88.23049986097612 38.178744278033264,91.70126721647102 26.57997572788736,96.75683535831922 24.243165005289484,93.54696677988977 19.671885635587387,89.01293284932035 17.24978985020425,84.96029552047548 16.396939221420325,81.81041232890857 16.141084032773506,78.5200314034737 16.891592586121988,73.54422261851141 18.03441242844565,70.89575386659999 19.72305667330511,68.84918394399574 22.076924408436753,67.14369176805485 24.737818370049354,66.18058337936236 28.251562960096635,66.06019447930157 30.468974594725296,67.14369176805485 32.004105726315174,69.1501515245618 32.41347402811516,71.55787459787098 31.50945236167172,75.91176117600116 31.799421575444285,78.86111018479278 32.56698714126833,80.62668444518931 35.10848201473709,83.71639899036381 36.83124028466409,86.6455613936123 37.75231896369951,89.31386773602571 38.16168726538308,91.66114310917328 26.63114676566329,96.79695836434257 24.60136226931354,93.90807976553333 19.63777161046164,88.95274581346894 17.40330296329921,85.28129972355964 16.328711171168834,81.48940212340676 16.141084032773506,78.03850735099695 16.840421548346058,73.70473466151452 17.69327217701357,71.49768190168834" stroke="#ffb000" stroke-dasharray="none" stroke-linecap="round" stroke-linejoin="round" stroke-width="0.5"><title>2026-05-24 23.2km</title><desc>1779623970000</desc></polyline><polyline fill="none" opacity="1" points="51.15376013419154,77.97301200065522 51.24937098126975,78.18386730837483 51.30807939613442,78.40260249177663 51.33156276209047,78.66468715368137 51.31814369583299,78.86371134617366 51.0212468548998,79.82727313987925 50.974280123002245,80.20756067358161 50.97931227285153,80.58981065248554 51.18898518311471,82.4044040663448 51.46407604137494,83.58645294691632 51.45568912495946,83.73223369387051 51.30807939613442,84.11835006910951 51.28627341347601,84.3291346577571 51.395303326804424,85.44605552803478 51.57981548784301,85.99956604720865 51.5076880067063,87.49061266429635 51.5412356723391,87.64227111418404 51.62510483645019,87.80968482957178 52.036063740561076,88.19571533607996 52.12831982108037,88.35721548390393 52.14844842047023,88.57779875375672 52.044450656969275,89.00911016029022 52.10651383840741,89.33012530795531 52.22728543471749,89.49752361620813 52.43863572826376,89.63144116281183 56.05842885099264,90.97647053188666 56.33016494268668,91.04539324594771 56.876991892640945,91.10446965191295 57.46407604137494,91.04539324594771 60.339110986853484,90.23208871957831 60.740005591273075,90.15922432652769 61.21638244338101,90.15725501459201 64.57618115738296,90.43295662872151 65.10791165780392,90.43295662872151 65.67318982387224,90.33646153512382 66.3357562202873,90.12771531016733 66.7332960581407,90.04697320867854 70.25915571707446,89.79686737049269 70.63656695554528,89.71218509342725 71.10287950795464,89.51918681503776 71.40313111545402,89.33209470869406 71.75538160469296,89.03077393600688 72.36930388592737,88.31782533508704 72.94129158512078,87.74074995540286 73.52334358399821,87.06517447364422 73.8017892088319,86.63578703118219 74.19932904667803,85.73364670929914 74.37880905786005,85.47560277517005 74.58177243499813,85.31407724269957 75.91864691080991,84.5182477395847 76.18535085265466,84.2700364195207 76.27928431645705,84.11244018589241 76.35476656415267,83.89968312086239 76.52585965891922,83.22987623262998 76.6348895722549,82.59353701137661 76.70701705338433,82.33741901349094 76.88817444784945,81.83699351717951 77.228683254114,81.11588392069461 77.22365110426472,81.07844849451612 77.45848476375977,80.6351284200573 77.60106234273553,80.43218276166408 78.15963097566419,79.82136187236938 78.38775510202686,79.5159437888924 78.61084707854752,79.06667438424302 78.87251887055027,78.31786755057692 78.89767961978214,78.30013228069947 78.99999999999272,78.34151455034771 78.89264746993285,78.23313221728495 78.84568073804257,78.27057345941466 78.51523623146932,79.19475669725944 78.45149566675536,79.17505178433203 78.38775510202686,79.0587923664898 78.49007548223744,79.23022548710833 78.4246575342404,79.34845429051529 78.38775510202686,79.36224760119876 77.78054235392483,79.09229091850648 76.66340508805297,78.77897853852846 76.26754263348266,78.71198022702447 74.2328767123181,78.62527616593252 71.98686049761454,78.4183670887378 70.37154039697634,78.4183670887378 69.75929549901775,78.38486730397017 69.05311713725678,78.27057345941466 67.10232038020331,77.78580198232339 66.56388034665724,77.6833283196047 65.89124965053634,77.63209127318623 64.70198490354232,77.69121092940804 64.42353927871591,77.65968046984017 63.72742521666078,77.44881912584424 62.54990215263388,77.1610978606277 62.4291305563238,77.10591792319428 62.29997204360552,77.00541118126239 62.19261951355293,76.85563540486328 61.97791445344774,75.94512997785205 61.73469387755176,75.50759827396905 61.58205199887743,75.34598481955982 61.385798154871736,75.2474393299799 61.2180598266641,75.22181741578424 59.861056751462456,75.31839213595049 59.715124405920506,75.3085375960145 59.57422421022784,75.25926481673923 59.409840648586396,75.1410096053205 59.30081073525071,74.9951604590151 59.119653340792865,74.46102731233987 59.020687727141194,74.25012912063903 58.83114341626788,74.04908372200771 58.59463237348973,73.92293646188773 56.85854067654145,73.43213650508551 54.218339390543406,73.0083428195303 51.65697511880717,72.010910572988 51.5093653899894,71.9872553932455 49.667598546264344,71.9616289140049 48.83226167179237,71.97937032653135 48.5034945485022,71.93797367054503 48.35085266983515,71.88080670589625 48.142857142855064,71.75267320523017" stroke="red" stroke-dasharray="none" stroke-linecap="round" stroke-linejoin="round" stroke-width="0.5"><title>2026-05-23 52.6km</title><desc>1779516240000</desc></polyline><polyline fill="none" opacity="1" points="105.50952655170113,66.02042333954887 106.91510655399179,66.0408466769004 108.02568828407675,66.51058282481972 109.11891717463732,67.40920523827663 109.74361939792288,68.47120802332938 110.00391199084697,69.8599718703772 109.83038359554484,71.20787994001876 108.99744729796657,72.63746887851448 108.06039396318374,73.43394944266765 107.8868655677652,74.23042664253444 108.18186383985449,82.80766022144235 111.96478285815101,84.64558809084701 113.7174196508713,84.70685204466281 114.0471236021258,85.03359279569122 114.35947471368127,95.14185513404664 114.08182928111637,95.89740045806684 111.16655223956332,96.48958251527802 106.94981223298237,96.81630285453866 99.81779518490657,96.48958251527802 92.47754406242166,95.46857780771097 86.17846331192413,95.63193893231801 85.93552355840802,95.22353585547535 85.64052528631873,88.30096917125047 85.93552355840802,85.54412408581993 100.58132012438728,85.0744353497139 104.48570901929634,82.90976779520861 104.312180623936,73.86282219913846 102.38601543579716,71.53464408156287 102.09101716382429,69.98250936580007 102.21248704049503,68.96136113732064 103.13218753569527,67.28666607044579 104.19071074726526,66.44931295888091 105.31864531687461,66.02042333954887 107.05392927018693,66.10211667558178 108.96274161885958,67.16412682301598 109.96920631173998,69.1655912254646 109.83038359554484,71.24872548865096 109.15362285380252,72.53535574236594 108.12980532128131,73.41352690615167 107.9042184073478,74.12831436908164 108.11245248175692,82.48091561386536 108.33803939563222,82.88934628490824 111.65243174647912,84.56390278811159 114.06447644153377,84.97232894795889 114.22065199736971,95.7544596829539 111.44419767212821,96.46916247531772 104.91953000763897,96.83672285692592 100.23426333372481,96.53042258869391 93.18901048321277,95.48899795601028 86.29993318865309,95.59109866441577 85.9875820769812,95.32563670762465 85.65787812584313,87.85170827619731 85.84875936078606,85.54412408581993 100.07808777788887,85.11527789493266 101.69190185447223,84.6660094109684 104.52041469840333,82.86892477232323 104.27747494488722,73.90366717267898 102.59424951014807,72.04521191901586 102.10837000329047,69.49235890631098 102.61160234973067,67.98105363505601 103.72218407993205,66.75566208965029 104.85011864948319,66.16338665435615 105.99540605867514,66.0 108.4074507538462,66.73523882971494 109.79567791649606,68.53247723224922 109.88244211411802,71.04449765688332 109.25773989083245,72.3311293040897 107.99098260496976,73.61775217202376 107.9042184073478,74.21000419226766 108.09509964217432,82.62386644934304 111.51360903022578,84.48221745004412 114.0124179230188,84.8906437867845 114.35947471368127,94.22294457994576 114.16859347885475,95.79529991540767 111.14919939998072,96.51000255311374 105.30129247735022,96.85714285714494 100.80690703826258,96.59168268213398 93.55342011345783,95.5094181020977 85.93552355840802,95.55025838768051 85.7272894839989,85.60538774772431 100.91102407546714,85.03359279569122 104.312180623936,83.07313979828905 104.5724732169765,82.7259741226153 104.5898260565009,81.23519660384045 104.3295334635186,74.3121164215263 104.15600506815827,73.6790197086957 102.76777790556662,72.29028398997616 102.22983988001943,71.20787994001876 102.10837000329047,69.55362778347626 102.33395691722399,68.5937464213057 103.20159889385104,67.20497324765893 105.21452827967005,66.08169334490958 106.91510655399179,66.08169334490958 108.68509618629469,66.8782016025798 109.77832507691346,68.53247723224922 110.00391199084697,70.59519564831862 109.37920976767782,72.24943866688409" stroke="#ffb600" stroke-dasharray="none" stroke-linecap="round" stroke-linejoin="round" stroke-width="0.5"><title>2026-05-17 22.3km</title><desc>1779013233000</desc></polyline><polyline fill="none" opacity="1" points="150.5178853829566,77.24381956972866 149.6991490323271,79.26334573974236 149.53106408618623,79.41624081347618 148.47917764895828,79.42261143298674 146.78748399729375,80.01507604870494 146.2723849687609,79.9768527041233 145.41027185783605,79.65832387232876 145.13374501094222,79.90040594084712 144.56442503200378,81.02798568463913 143.94630619775853,81.66502688953915 140.7364259356982,78.12936161225298 138.43203554485808,77.75348567343462 138.10128774755867,77.60695711825247 137.94946908653947,77.40946153497134 137.96573537166114,76.49205405335306 137.86271556594875,76.4156027878089 136.5180359967053,76.33278047200656 132.58159499964677,76.44108655396849 132.29422396264272,76.31366761341997 131.6598388433049,75.79124708825475 130.58626402591472,75.4663246788441 130.2934708938992,75.12228724157467 129.81632653062115,73.91176924397587 129.5831764440518,72.5228286064521 128.27645154003403,72.03860310335585 127.08359063180978,72.13417424027648 124.41591987348511,72.73945452198677 121.72113863995764,72.37628709613637 121.56931997890933,72.45911495091423 121.4337676029827,72.7139691613229 121.02168838016223,74.05193575373778 121.0759093305387,74.30041193216312 122.13863995784777,75.81673112332282 125.21838993902202,76.4156027878089 126.16183447549702,77.19922357677933 126.35160780180013,77.9254969926078 126.91008359062835,79.25697510310783 127.03479177650297,80.13611647705693 127.77219670158229,83.25759990225197 127.81015136680799,83.82454555136428 128.35236087054363,86.5891240573219 128.7644400934223,87.30254271214653 129.16567512613256,87.55096326122657 130.8953234430519,88.14971619762582 132.7171473755734,89.31535613915912 134.47932826267788,89.41726892276711 135.19504480759497,89.97778609679881 135.75894269149285,90.03511141773924 136.6698546577536,90.46186484009013 139.86346863469225,90.84402947318813 140.06408615107648,90.69116391595162 140.17252805182943,90.43638711015956 140.53580841934308,89.17522577519776 140.7255817456171,87.54459351658443 140.67136079524062,87.31528225284274 140.35687928309198,87.09870968812538 140.33519090295886,86.99679291291613 140.5466526093951,86.41713791678922 140.6984712704434,86.24515127656196 140.70389336548396,85.31514078718101 141.11055049326387,84.09209105021728 141.84253332330263,83.13656585798526 143.36071993375663,82.14280329313624 144.4722494164016,81.16176490649741 145.17712177126668,79.83032965443999 145.43196023799828,79.64558268340988 145.80608479556395,79.77936503039018 145.45907071317197,79.63921208790998 145.1608554861159,79.84307080359213 144.56984712707344,81.01524479059299 143.91919572258485,81.64591575315353 140.79064688607468,78.1612153956412 138.1609307930048,77.63881118286008 137.95489118155092,77.39034902417552 137.91151442128466,76.42197373038653 137.4343700580066,76.3264095198283 132.5273740492703,76.42834467228022 131.70321560357115,75.80398910714939 130.6025303110364,75.4663246788441 130.2555162286444,75.06494747419129 129.7837939604069,73.82257220121028 129.61570901423693,72.56105676682273 128.29813992019626,72.03223168872137 127.95654793284484,72.00037460534804 126.68777769408189,72.19151684832832 124.35627682809718,72.72671184303181 121.64522930944804,72.38265847369621 121.47714436327806,72.59928490250968 121.0,74.1411324506771 122.11695157768554,75.82310213037636 125.25092250923626,76.44108655396849 126.1509902854159,77.18011099809519 126.31365313654533,77.8299352103495 126.9155056856689,79.33342269756758 126.99683711124817,80.03418771173892 127.75050832142006,83.14930629535229 128.3306724904105,86.53179539935809 128.43911439116346,86.85665706048167 128.81866104376968,87.33439155875749 129.19278560133534,87.54459351658443 130.87905715793022,88.15608587715542 132.72256947061396,89.30261702885036 133.06958355300594,89.37905164945187 134.490172452759,89.40452983441719 135.20588899767608,89.9841555796338 135.62881241057767,89.9905250618067 136.783718653518,90.50008141440048 139.6140522630012,90.8567682517969 139.9231116801093,90.81855190770875 140.09119662625017,90.67205569356884 140.29723623767495,90.13702296236443 140.57918517960934,88.91407284820525 140.7364259356982,87.58918171470214 140.6876270803623,87.31528225284274 140.40025604335824,87.13055864441412 140.35687928309198,87.00953251941246 140.49785375405918,86.49994612091541 140.71473755553598,86.18782228544296 140.6984712704434,85.30240081602096 141.11055049326387,84.09209105021728 141.60938323670416,83.3658933110164 143.5288048798975,82.02813730803973 144.19030047443812,81.45480405000126 144.55358084195177,81.0598379077419 145.15543339110445,79.88129423460487 145.39942766775494,79.65832387232876 146.27780706380145,79.98322326325797 146.8308607576182,80.02144660374688 148.39784622337902,79.45446452020042 149.63408389186952,79.45446452020042 149.88892235863023,79.35890520711837 150.04074101964943,79.17415676428936 150.14918292043149,78.61353726897869 150.6697040440049,77.36486566687381 150.94080879588728,75.82947313673867 151.6890579109895,74.06467814725693 151.8571428571595,73.43392637395664" stroke="#ff6800" stroke-dasharray="none" stroke-linecap="round" stroke-linejoin="round" stroke-width="0.5"><title>2026-05-16 35.3km</title><desc>1778887035000</desc></polyline><polyline fill="none" opacity="0.5" points="178.22627816535532,66.02045040599478 179.98123824986396,66.08180161079508 181.09329216484912,66.51125948615663 182.41385618888307,68.10638018469035 182.84825224941596,69.49698723368056 182.65711798274424,71.21478180027043 180.7979028437403,73.73009564685344 181.0064129526727,82.66634620694094 184.37732638249872,84.50671142610372 186.5319308427861,84.71119534340687 186.96632690326078,85.09971417607449 187.22696453955723,94.894214360349 187.10533364262665,95.67120932972466 186.4102999457391,96.12104706156242 181.8752050738549,96.75490750154131 177.87876131688245,96.85714285714494 173.44792149949353,96.59133081744949 165.733047464455,95.52807891764678 158.8348380231182,95.4667372792901 158.48732117470354,88.75993131018186 158.66107959899819,85.57002537774679 173.25678723288001,85.03836915032298 174.73373383865692,84.46581461612368 177.34011020185426,82.87083211699792 177.1837276200531,74.2208846854628 176.9752175109461,73.54604942846345 176.03692202019738,72.7076143854938 175.20288158400217,71.39883029116027 174.90749226295156,69.8241874036903 175.35926416574512,68.12683036258386 176.95784166856902,66.4499084209092 178.12202311080182,66.04090080979222 179.37308376509463,66.0 181.40605732839322,66.81801451338106 182.72662135242717,68.9039354800916 182.77874887979124,70.72398494745721 182.20534607977606,72.17592194137978 180.81527868605917,73.60739818782895 180.6762719467515,75.22290834487649 177.3922377290437,75.30470595989027 177.00996919581667,73.5664990171208 175.65465348697035,72.2577208763978 174.94224394776393,70.4172362665413 175.11600237194216,68.7607847777399 175.9326669657603,67.30882152009872 177.8266337896348,66.12270240290673 180.18974835897097,66.16360318619991 181.3191781163332,66.75666354778514 182.0489634979749,67.51332406295114 182.88300393417012,69.66058738956053 182.39648034638958,71.82827607217769 180.85003037092974,73.52559983755054 180.64152026193915,75.16156011039857 177.3922377290437,75.28425655943283 177.04472088062903,73.66874692727288 175.68940517184092,72.2986203305627 175.01174731733045,70.72398494745721 175.0812506870716,68.92438557157584 175.79366022633621,67.41107281923178 177.42698941391427,66.26585510557925 179.5120905045187,66.02045040599478 181.47556069813436,66.89981576976425 182.2748494495172,67.90187828423223 182.8135005646036,69.21068661968457 182.72662135242717,71.01028326667438 182.10109102528077,72.27817060456437 180.83265452855267,73.70964607586211 180.6936477891868,75.18200952415646 177.47911694127833,75.32515535812126 177.11422425037017,73.73009564685344 175.74153269908857,72.27817060456437 174.97699563251808,70.4172362665413 175.25500911124982,68.35178217290377 176.2454321293044,66.96116668882314 178.33053321979241,66.0 180.22450004378334,66.16360318619991 181.5450640678173,66.96116668882314 182.8135005646036,69.12888636457501 182.76137303729774,70.80578451152542 181.99683597078547,72.42131864008843 180.83265452855267,73.5664990171208 180.76315115881152,75.1411106944579 177.44436525634956,75.32515535812126 176.9752175109461,73.52559983755054 175.89791528088972,72.54401686988422 175.09862652950687,71.0920827066875 174.94224394776393,69.45608717251162 175.56777427485213,67.51332406295114 175.65465348697035,67.71782638438162 176.3496871837997,66.89981576976425 177.47911694127833,66.24540472615627 179.92911072261631,66.10225200792775 177.47911694127833,66.24540472615627 176.3496871837997,66.89981576976425 175.65465348697035,67.71782638438162 175.56777427485213,67.51332406295114 174.94224394776393,69.45608717251162 175.09862652950687,71.0920827066875 175.89791528088972,72.54401686988422 176.9752175109461,73.52559983755054 177.44436525634956,75.32515535812126 180.76315115881152,75.1411106944579 180.83265452855267,73.5664990171208 181.99683597078547,72.42131864008843 182.76137303729774,70.80578451152542 182.8135005646036,69.12888636457501 181.5450640678173,66.96116668882314 180.22450004378334,66.16360318619991 178.33053321979241,66.0 176.2454321293044,66.96116668882314 175.25500911124982,68.35178217290377 174.97699563251808,70.4172362665413 175.74153269908857,72.27817060456437 177.11422425037017,73.73009564685344 177.47911694127833,75.32515535812126 180.6936477891868,75.18200952415646 180.83265452855267,73.70964607586211" stroke="#4dd2ff" stroke-dasharray="1,0.5" stroke-linecap="round" stroke-linejoin="round" stroke-width="0.5"><title>2026-05-12 15.2km</title><desc>1778590468000</desc></polyline><polyline fill="none" opacity="1" points="32.51199245109456,100.30616469170491 34.266952535603195,100.36751589650521 35.37900645058835,100.79697377186676 36.699570474622305,102.39209447040048 37.133966535155196,103.78270151939068 36.94283226848347,105.50049608598056 35.083617129479535,108.01580993256357 35.29212723841192,116.95206049265107 38.663040668237954,118.79242571181385 40.81764512852533,118.996909629117 41.25204118900001,119.38542846178461 41.51267882529646,129.17992864605912 41.39104792836588,129.9569236154348 40.69601423147833,130.40676134727255 36.16091935959412,131.04062178725144 32.16447560262168,131.14285714285506 27.733635785232764,130.87704510315962 20.018761750194244,129.8137932033569 13.120552308857441,129.75245156500023 12.77303546044277,123.04564559589198 12.946793884737417,119.85573966345692 27.542501518619247,119.3240834360331 29.01944812439615,118.75152890183381 31.62582448759349,117.15654640270805 31.469441905792337,108.50659897117293 31.260931796685327,107.83176371417358 30.322636305936612,106.99332867120393 29.488595869741403,105.6845445768704 29.193206548690796,104.10990168940043 29.64497845148435,102.41254464829399 31.24355595430825,100.73562270661932 32.40773739654105,100.32661509550235 33.658798050833866,100.28571428571013 35.69177161413245,101.10372879909119 37.012335638166405,103.18964976580173 37.06446316553047,105.00969923316734 36.491060365515295,106.46163622708991 35.100992971798405,107.89311247353908 34.961986232490744,109.50862263058661 31.67795201478293,109.5904202456004 31.295683481555898,107.85221330283093 29.94036777270958,106.54343516210793 29.22795823350316,104.70295055225142 29.40171665768139,103.04649906345003 30.218381251499522,101.59453580580885 32.11234807537403,100.40841668861685 34.475462644710205,100.44931747191004 35.60489240207244,101.04237783349527 36.33467778371414,101.79903834866127 37.16871821990935,103.94630167527066 36.68219463212881,106.11399035788781 35.135744656668976,107.81131412326067 34.92723454767838,109.4472743961087 31.67795201478293,109.56997084514296 31.33043516636826,107.954461212983 29.97511945758015,106.58433461627283 29.297461603069678,105.00969923316734 29.36696497281082,103.21009985728597 30.079374512075447,101.6967871049419 31.712703699653503,100.55156939128938 33.79780479025794,100.30616469170491 35.76127498387359,101.18553005547437 36.56056373525644,102.18759256994235 37.09921485034283,103.4964009053947 37.012335638166405,105.2959975523845 36.38680531102,106.5638848902745 35.1183688142919,107.99536036157224 34.97936207492603,109.46772380986658 31.764831227017567,109.61086964383139 31.399938536109403,108.01580993256357 30.027246984827798,106.5638848902745 29.262709918257315,104.70295055225142 29.54072339698905,102.6374964586139 30.531146415043622,101.24688097453327 32.616247505531646,100.28571428571013 34.51021432952257,100.44931747191004 35.830778353556525,101.24688097453327 37.09921485034283,103.41460065028514 37.047087323036976,105.09149879723554 36.2825502565247,106.70703292579856 35.1183688142919,107.85221330283093 35.048865444550756,109.42682498016802 31.730079542088788,109.61086964383139 31.260931796685327,107.81131412326067 30.18362956662895,106.82973115559435 29.384340815246105,105.37779699239763 29.22795823350316,103.74180145822174 29.85348856059136,101.79903834866127 29.94036777270958,102.00354067009175 30.63540146953892,101.18553005547437" stroke="#4dd2ff" stroke-dasharray="none" stroke-linecap="round" stroke-linejoin="round" stroke-width="0.5"><title>2026-05-11 15.3km</title><desc>1778503630000</desc></polyline><polyline fill="none" opacity="1" points="54.83187767257914,103.71436147368513 59.915668718283996,100.82354254811071 65.79915723227896,100.48739993863273 72.25385822309181,103.5799050781643 75.9096180764027,109.0925934141851 76.48083055345342,114.73968679399695 74.88143561780453,119.58001165435417 69.74052332388237,125.63036464899778 69.11218959908001,130.73950569349108 58.373395030153915,130.73950569349108 57.57369756232947,125.56313882849645 54.032180204754695,122.06738613569178 51.34748156229034,117.6976675830083 50.66202658973634,111.84891922096722 51.2903603145387,108.95813818369061 54.88899892009795,103.51267686951905 61.857791140442714,100.3529428440961 68.31249213125557,101.15968497557333 74.99567811307497,106.26902745652478 76.36658805818297,111.37832787644584 76.30946681043133,115.54641022533178 73.68188941571862,121.46235001715831 69.91188706713729,125.15978375350824 69.45491708535701,130.60505515208934 58.88748625968583,131.07563191937516 57.57369756232947,125.42868716613157 54.317786443047225,122.47074322053231 51.06187532376498,117.29430739633972 50.77626908523962,111.04219098348403 52.432785268872976,106.60516693472164 56.88824258977547,102.10088280355558 60.02991121378727,100.75631404074375 64.71385352569632,100.3529428440961 69.96900831488892,101.89919767476385 72.31097947084345,103.64713327941718 76.13810306717642,109.83209666144103 76.59507304872386,113.52959968068171 75.56689058989286,118.57161375461146 70.08325081015937,124.8236543238163 69.74052332388237,130.26892867143033 58.94460750743747,131.1428571428405 57.51657631457783,125.49591300083557 52.26142152561806,119.7816910376423 50.547784094233066,113.6640539210639 51.518845305312425,108.28586159425322 54.71763517707586,103.44544865336502 62.02915488369763,100.28571428568102 68.42673462675884,101.22691343910992 73.1106769386679,104.38664301508106 75.39552684710361,107.88249529100722 76.53795180120505,112.3195102083846 75.05279936059378,119.58001165435417 69.79764457186684,125.36146132380236 69.45491708535701,130.67228042631177 58.88748625968583,131.07563191937516 57.63081881008111,125.76481626793975 52.09005778259598,119.58001165435417 50.66202658973634,115.54641022533178 51.63308780058287,108.21863389521604 54.60339268180542,103.91604601260042 60.886729929596186,100.48739993863273 67.17006717715412,100.82354254811071 72.76794945262372,104.11773048591567 76.42370930570178,110.5043715761858 75.56689058989286,118.10102750739316 73.39628317742608,121.8657074951916 69.91188706713729,125.29423547437182 69.45491708535701,130.60505515208934 58.716122516430914,131.00840668880846 57.63081881008111,125.63036464899778 53.80369521374814,121.9329337158706 51.11899657151662,117.2270806732704 50.71914783748798,110.90773617528612 52.775512754684314,105.93288779642899 55.74581763567403,102.70593779638875 59.23021374596283,100.89077104820171 64.71385352569632,100.3529428440961 70.08325081015937,101.83196928398684 75.16704185609706,107.14298972091638 76.48083055345342,110.77328133798437 76.19522431492805,116.42035942611983 74.08173814951442,121.19344488624483" stroke="#4dd2ff" stroke-dasharray="none" stroke-linecap="round" stroke-linejoin="round" stroke-width="0.5"><title>2026-05-10 11.2km</title><desc>1778422578000</desc></polyline><polyline fill="none" opacity="1" points="115.12898751744069,114.40354018000653 115.42857142863795,125.81729956246272 114.79195561725646,126.39017408908694 113.36893203889485,126.65457717289974 106.59084604727104,127.24948285547725 100.48682385578286,126.9410134593345 93.034674063907,125.8393332278938 84.77739251044113,125.72916487684415 84.57142857147846,115.19679512204311 87.94174757285509,114.80016803760373 100.20596393907908,114.55778443868621 101.7038834951818,114.11708624652238 104.90568654646631,112.17800286250713 104.84951456321869,104.3113045883365 108.38834951457102,104.17908857310249" stroke="#4dd2ff" stroke-dasharray="none" stroke-linecap="round" stroke-linejoin="round" stroke-width="0.5"><title>2026-05-10 11.3km</title><desc>1778397813000</desc></polyline><polyline fill="none" opacity="1" points="134.51865920741693,100.2857142857174 134.55708158237394,102.49231508580124 134.48664056163398,112.1793724020863 134.52826480116346,115.40152039805616 134.45782378043805,128.59191023719177 134.48984242620645,130.01414255080817 134.66914684261428,130.134540511488 138.3320799205394,130.17592721463734 138.39291534753283,130.23236354899564 138.39931907669234,130.33018631258892 138.261638899814,131.1428571428587" stroke="#ffbb00" stroke-dasharray="none" stroke-linecap="round" stroke-linejoin="round" stroke-width="0.5"><title>2025-11-09 21.3km</title><desc>1762645227000</desc></polyline><polyline fill="none" opacity="1" points="168.79069282487035,100.95508297468768 175.84299777564593,100.55346184835071 181.3028467700351,103.16399450378958 185.56835379684344,109.72374583635246 185.34086008858867,117.22051923896652 182.78155587241054,121.77208729233826 179.19852997013368,125.0518729025498 178.91416283510625,130.54045478306944 168.27883198158816,131.00899000250502 166.8001228789799,125.25267553766025 160.7715396147687,118.29147944384022 159.9184382094536,112.86972432088805 161.1127801768016,107.71566608903231 165.71952776564285,102.42769153800327 172.71495928964578,100.28571428573923 179.36915025138296,101.75832444429398 182.15594817558303,104.23497906938428 185.17023980757222,109.0543866455555 185.79584750463255,112.86972432088805 185.28398666135035,116.75197356555145 183.69153070496395,120.63419842161238 179.08478311635554,125.18574133329093 178.91416283510625,130.40658751205774 170.04190821922384,131.1428571428405 167.7100977115333,130.8081892375485 167.08449001400732,125.72121476597385 162.4777424253989,121.16967579827178 160.82841304154135,118.29147944384022 159.97531163645908,112.66891766199842 161.2265270310454,107.58179387403652 166.17451518168673,102.15994478744688 173.3405669867061,100.35265118721873 179.5966439594049,101.8252611864009 184.08964469423518,106.77855997392908 185.45460694283247,110.05842515971744 185.56835379684344,116.28342753706966 183.69153070496395,120.56726371700643 179.25540339713916,124.65026743640192 178.9710362618789,130.3396538658999 167.99446484656073,131.00899000250502 166.9138697332237,125.38654392486205 162.4777424253989,121.23661043762695 160.2596787714865,115.8148811532883 160.1459319172427,110.46004010853358 162.76210956042632,105.1051526623778 167.65322428452782,101.3567038399633 174.47803552728146,100.48652496869909 179.36915025138296,101.89219792105723 184.60150553728454,107.51485775550827 185.7389740778599,111.7987547199009 185.11336638056673,117.62212953320704 182.89530272665434,121.50434892292833 179.08478311635554,125.11880712147104 178.85728940810077,130.40658751205774 175.6723774948623,131.00899000250502 167.7669711385388,130.94205642136512 166.97074315999635,125.38654392486205 162.76210956042632,121.57128352619475 160.99903332279064,118.49228427564958 160.1459319172427,110.39310430188198 164.3545655172784,103.49867737980094 170.49689563526772,100.55346184835071 178.2885551378131,101.49057740374701 183.69153070496395,106.17613386386074 185.6821006508544,111.66488338931231 185.2271132345777,117.28745430632262 182.72468244540505,121.83902186655905 179.19852997013368,124.91800444305409 178.9710362618789,130.40658751205774 175.44488378660753,130.94205642136512 167.7100977115333,130.8081892375485" stroke="#4dd2ff" stroke-dasharray="none" stroke-linecap="round" stroke-linejoin="round" stroke-width="0.5"><title>2025-11-01 10.0km</title><desc>1761964262000</desc></polyline><polyline fill="none" opacity="1" points="35.221187207615,137.0752447861014 39.418469020631164,142.89488694886677 40.223427176475525,148.91748280340107 38.441019830992445,154.73701465397608 33.38128285109997,159.81214352924144 33.09379779547453,165.22556889004773 21.881880623288453,165.36090392316692 21.019425456644967,159.74447541544214 16.822143643395975,156.15805489453487 15.039736298145726,152.84228930529207 14.292275153566152,145.12799106084276 17.684598810505122,138.69933642470278 23.491796935442835,135.1804658716428 30.046456205425784,134.97745350422338 36.026145363459364,138.02263208845397 39.47596603166312,143.23323656979483 40.28092418750748,149.12049064069288 38.441019830992445,154.66934599052183 33.49627687362954,159.33846657845424 32.97880377341062,165.29323641041992 21.93937763478607,165.42857142857974 21.24941350100562,159.81214352924144 15.384718365035951,153.72198393184226 14.004790097940713,147.42875664576422 14.637257220223546,143.50391613459215 16.592155599035323,140.05274289811496 21.479401545599103,135.85717328666942 28.494036904303357,134.57142857147846 35.56616927450523,137.6842796455021 39.7059540762566,144.11294472654117 40.223427176475525,149.3911676549469 37.923546731006354,155.27836369804572 33.49627687362954,159.40613473625854 32.748815728584304,165.42857142857974 21.996874646050856,165.42857142857974 21.421904534334317,159.74447541544214 17.339616743614897,156.36106037953869 14.98223928711377,152.3686070702388 14.349772164365277,144.51896345813293 18.317065933020785,137.95496161445044 24.1242640579585,134.90978270058986 31.483881483552977,135.24813664599787 36.946097541833296,139.24069936596788 39.820948098553345,145.1956607577158 39.99343913211487,150.06785967730684 38.26852879766375,154.87235195899848 33.438779862364754,159.67680729436688 33.20879181753844,165.02256628562463 32.461330672958866,165.36090392316692 21.93937763478607,165.42857142857974 21.019425456644967,159.67680729436688 17.109628699254245,156.36106037953869 14.98223928711377,152.5716137861018 14.349772164365277,144.7219727251213 18.202071910724044,138.15797301440034 24.584240147145465,134.90978270058986 32.173845617100596,135.45114892564015 36.88860053056851,138.97001795395045 39.8784451095853,145.12799106084276 39.935942120850086,150.81222005496966 37.521067653084174,155.95504934387282 33.553773884428665,159.60913916595746 32.97880377341062,165.22556889004773 21.93937763478607,165.42857142857974 21.306910512270406,159.94747973489575 17.28211973258294,156.2257233968703 14.98223928711377,152.5716137861018" stroke="#4dd2ff" stroke-dasharray="none" stroke-linecap="round" stroke-linejoin="round" stroke-width="0.5"><title>2025-10-27 10.0km</title><desc>1761565093000</desc></polyline><polyline fill="none" opacity="1" points="53.46751711028628,138.81606085726526 60.05080219800584,134.7735545752803 68.23697409033775,135.04305581131484 70.92753408290446,136.45793538575526 74.01881577610038,139.826683322608 76.53763789706863,146.15988005150575 74.99199705035426,153.77310566307278 69.72536897985265,159.43243423564127 69.55363110802136,164.68747895077104 58.33342347969301,165.1590833569644 57.58922603470273,159.63455216091825 53.69650093908422,156.19853849895298 50.891449032118544,150.94342206860892 50.83420307468623,143.93653109826846 53.23853328102268,139.42243453371339 59.36385071068071,135.1778063857928 65.83264388446696,134.70617924811086 70.41232046741061,136.39056024083402 72.75940471584909,138.3444364783354 76.53763789706863,145.1492678760551 76.42314598266967,149.66332288016565 75.10648896498606,153.84047892520903 69.72536897985265,159.43243423564127 69.55363110802136,164.75485103065148 58.73414518032223,165.29382740717847 57.474734120303765,159.70192478818353 53.524763067252934,156.19853849895298 50.60521924565546,149.46120171493385 51.06318690394983,143.66703371558106 53.410271152853966,139.15293519495754 59.993556240806356,134.9083052079077 68.12248217570595,135.24518166203052 71.21376386936754,136.6600607764558 73.27461833157577,138.8834357392625 76.36590002523735,145.5535129432683 76.30865406803787,150.1349386770744 74.93475109315477,154.10997190029593 69.66812302242033,159.63455216091825 69.55363110802136,164.75485103065148 58.56240730849095,165.2264553856803 57.760963906534016,160.0387878145557 52.208106049569324,154.17734512581956 50.54797328845598,149.52857544412836 51.40666264761239,141.98267242719885 53.35302519542165,139.22031004045857 60.16529411263764,134.9083052079077 66.17611962812953,134.84092989517376 72.18694514338858,137.73806175100617 76.19416215340607,144.34077695361339 76.36590002523735,150.00019134301692 74.24779960582964,155.1205695171957 69.83986089425161,159.2976889157435 69.49638515058905,164.82222310313955 58.61965326592326,165.42857142857974 57.760963906534016,159.9714152237284 53.410271152853966,155.8616733927629 51.00594094651751,151.07816919818288 50.891449032118544,144.67764829896623 53.29577923822217,139.42243453371339 58.44791539409198,135.58205793355592 64.34424899471924,134.57142857142026 70.98478004010394,136.6600607764558 75.33547279401682,141.84792332723737 76.59488385450095,146.2946282174671 76.07967023877427,151.3476633700775 74.30504556302913,155.1205695171957 69.78261493728496,159.2976889157435 69.61087706545368,164.88959516852628 58.33342347969301,165.02433927735547 57.7037179491017,159.70192478818353 53.69650093908422,156.13116549229017" stroke="#4dd2ff" stroke-dasharray="none" stroke-linecap="round" stroke-linejoin="round" stroke-width="0.5"><title>2025-10-19 10.0km</title><desc>1760866141000</desc></polyline><polyline fill="none" opacity="1" points="112.82371733244509,149.36153597035445 110.71023162500933,155.07580125750974 106.19765403377824,159.17659451032523 105.56932044494897,165.02521997923031 94.77340696705505,165.09244523890084 94.087952143047,159.84885311458493 90.26082937559113,156.4203266207478 87.86173749156296,152.386741793307 87.17628266755491,144.79008586186683 90.54643555218354,138.6723573008785 97.40098379226401,134.70588568079984 103.96992585551925,135.17648533394095 109.62492815381847,138.94126971339574 112.70947486185469,144.58840346400393 112.88083856762387,149.7648975988268 110.93871656619012,154.80689583549974 106.14053279836662,159.4454980394221 105.85492662177421,165.02521997923031 94.71628573164344,165.09244523890084 94.087952143047,160.0505305537954 89.91810196381994,155.94974307488883 87.17628266755491,150.63884689408587 87.46188884438016,142.77325893344823 90.48931431700476,138.40344477188773 92.71704249503091,136.78996715001995 99.34310579369776,134.57142857142026 106.25477526895702,136.25214034412056 109.68204938899726,139.00849779846612 112.30962621420622,143.04216956929304 112.70947486185469,150.7060737120919 110.93871656619012,154.94134856091114 106.31189650436863,159.51272390340455 106.19765403377824,164.82354415621376 96.03007414424792,165.42857142857974 94.71628573164344,165.09244523890084 93.916588437045,159.647175609658 89.68961702240631,155.47915917210048 87.06204019696452,149.83212451147847 86.8906764909625,145.2606778688496 89.91810196381994,139.2101820097305 92.37431508302689,136.9916520823026 96.82977143884636,135.0420283265994 103.57007720833644,135.0420283265994 108.53962468216196,137.86561936401995 112.82371733244509,144.7228584032273 112.30962621420622,151.6472483984544 110.71023162500933,155.07580125750974 106.083411562955,159.10936860978836 105.91204785672016,164.82354415621376 95.05901314364746,165.15967049147002 93.85946720163338,159.57994976028567 88.71855602180585,154.33631106617395 87.00491896178573,149.9665783145465 87.17628266755491,144.52117598359473 89.57537455158308,139.6807782475371 92.3171938478481,136.9916520823026 96.31568032107316,135.10925683379173 103.45583473751321,135.10925683379173 109.51068568276241,138.73958541511092 113.10932350880466,146.40354268613737 111.11008027219214,154.60521669226 106.19765403377824,158.90769086492946 106.02629032777622,164.82354415621376 94.65916449623182,165.15967049147002 93.97370967222378,159.84885311458493 88.88991972780786,154.53799029660877 87.00491896178573,149.29430900671287 87.86173749156296,142.63880357187008" stroke="#4dd2ff" stroke-dasharray="none" stroke-linecap="round" stroke-linejoin="round" stroke-width="0.5"><title>2025-10-16 10.0km</title><desc>1760611285000</desc></polyline><polyline fill="none" opacity="1" points="140.47109431540594,135.04721101431642 145.8418747226242,138.24174093152396 149.42239499394782,145.71823673829203 148.3828891084995,153.1946434651618 142.6656067399308,159.4475697784219 142.4346054319758,165.0207776723546 131.2887923293747,165.42857142857974 130.4802877518814,159.92333336017327 125.62926028762013,155.16568131028907 123.55024851718917,150.20409146382008 123.72349949809723,143.9510730416514 127.24626944237389,137.96986667794408 134.6383112927433,134.57142857142026 142.26135445106775,135.3870553956367 148.09413747373037,141.4362545850454 149.36464466666803,146.05807534017367 148.09413747373037,153.67041178769432 142.55010608606972,159.4475697784219 142.55010608606972,164.8848463614704 131.34654265642166,165.36060582101345 130.5957884057425,160.0592657456291 125.1095073451288,154.35008019424276 123.55024851718917,149.7962878140388 123.78124982491136,143.7471692179097 127.07301846169867,138.30970947619062 133.77205638843589,134.7073664489435 141.68385118152946,135.3870553956367 146.6503793001175,139.12533144134795 149.42239499394782,145.85417220112868 148.15188780101016,153.67041178769432 142.6656067399308,159.51553602633066 142.37685510516167,165.08874331699917 131.34654265642166,165.36060582101345 130.4802877518814,159.78740094497334 125.57150996057317,154.82584764098283 123.43474786332808,149.66035320499213 123.66574917105027,144.15497679909458 125.68701061443426,139.73704721941613 132.44379886845127,135.11517990531866 139.48933875723742,134.77533537667478 142.83885772083886,135.9308060228941 146.07287603011355,138.71752059133723 149.42239499394782,145.99010763451224 149.30689434008673,150.06815694324905 147.92088649282232,154.01024608302396 142.60785641288385,159.71943472628482 142.55010608606972,165.08874331699917 131.40429298300296,165.42857142857974 130.5957884057425,159.99129955645185 126.14901323011145,155.77738145180047 123.49249818990938,150.13612420711434 123.78124982491136,143.4752973499708 126.72651649988256,138.71752059133723 133.48330475366674,134.77533537667478 141.16409823903814,135.1831487888703 146.36162766511552,139.0573629848659 149.30689434008673,145.78620447346475 148.26738845463842,153.1266765324981 145.72637406853028,156.93281342519913 142.60785641288385,159.58350226696348 142.60785641288385,164.8848463614704 131.40429298300296,165.36060582101345" stroke="#4dd2ff" stroke-dasharray="none" stroke-linecap="round" stroke-linejoin="round" stroke-width="0.5"><title>2025-10-08 10.1km</title><desc>1759919017000</desc></polyline><polyline fill="none" opacity="1" points="163.16140687000006,138.89287096948829 169.18538485001773,135.17913321900414 175.15199161157943,134.70647410000674 181.9791666555684,137.94755800504936 185.53618222475052,143.82197963132057 185.88040953781456,149.08865540474653 184.15927297226153,154.3552866827813 179.11060571298003,159.48683333641384 178.5942647429183,165.02345472131856 167.80847559776157,165.36105199554004 167.06264975247905,159.82443360902835 160.92392933485098,153.00487264810363 160.00598983303644,145.98267251101788 163.10403565131128,139.16296012490056 169.0132711934857,135.2466559210443 175.0372491737362,134.70647410000674 181.8070529990364,137.74499075458152 185.3640685682185,143.28180524124764 185.937780756969,148.95361299207434 183.8150456591975,154.96297204401344 179.11060571298003,159.62187346746214 178.70900718076155,165.09097419073805 167.6937331596855,165.29353255528258 166.6610512204934,159.35179317631992 163.16140687000006,156.3809022498899 160.63707324047573,152.53222704480868 160.00598983303644,145.7125863104011 162.9319219950121,139.43304916308261 166.1447102506645,136.462063307059 169.0132711934857,135.2466559210443 175.95518867555074,134.773996853095 182.55287884408608,138.69030402658973 184.96247003623284,141.99888918874785 185.88040953781456,149.15617660008138 184.10190175333992,154.4228073078557 179.167976931436,159.35179317631992 178.70900718076155,165.02345472131856 167.92321803537197,165.42857142857974 167.00527853355743,159.68939352192683 163.9072327152826,157.3937075653812 161.3255278666038,153.74760072911158 159.94861861411482,146.11771556723397 162.472952243872,139.9732268882217 168.03796047298238,135.5842693214654 175.15199161157943,134.70647410000674 181.2333408105187,137.27233358105877 184.90509881731123,141.93136721820338 185.8230383193586,149.15617660008138 183.98715931549668,154.69288973434595 179.28271936951205,159.14923288085265 178.76637839968316,165.02345472131856 167.80847559776157,165.29353255528258 167.12002097140066,160.0269936847617 161.9566112740431,154.7604103226331 159.7765049575828,146.92797329078894 160.92392933485098,142.60658659541514 163.39089174568653,138.62278169736965 167.75110437883995,135.6517919797334 171.36549116694368,134.57142857142026 176.0125598940067,134.9765650689369 181.40545446705073,137.54242343845544 184.79035637970082,141.7963232549955 185.76566710020415,149.89890926668886 184.10190175333992,154.4903279253631" stroke="#4dd2ff" stroke-dasharray="none" stroke-linecap="round" stroke-linejoin="round" stroke-width="0.5"><title>2025-10-01 10.0km</title><desc>1759271073000</desc></polyline><polyline fill="none" opacity="1" points="20.243215058930218,170.7519236190128 26.912869073450565,168.85714285710128 33.18004396627657,170.07521686382825 35.939900799887255,171.96999393112492 38.52726658130996,175.42118025163654 40.25217710225843,180.49641961825546 39.2747278069146,186.92499696242157 37.14733816450462,190.37610067048809 33.46752905333415,193.4211763467756 33.35253501823172,199.0376103289891 29.385240820236504,199.5789506958099 21.853131545241922,199.51128317572875 21.163167336955667,194.09785781480605 16.850891034584492,190.03775801265147 14.378519287798554,185.57161775551504 14.66600437485613,177.78963042015675 16.79339401703328,173.86476525175385 19.783238920150325,171.09027672169032 25.130461535183713,168.99248453072505 33.18004396627657,170.07521686382825 38.52726658130996,175.21816981921438 40.13718306762166,179.75205375783844 40.0221890329849,184.6919196989038 37.60731430328451,190.10542655875906 33.46752905333415,193.75951717217686 32.95005589700304,199.37594811309827 21.96812558034435,199.51128317572875 21.278161371825263,194.09785781480605 14.780998409492895,186.99266584590077 14.033537183655426,182.93251986941323 14.551010339986533,177.85730029299157 18.11582541675307,172.51135775184957 24.957970482995734,169.0601553565939 32.37508572312072,169.87220469425665 36.45737395598553,172.7143690637895 39.792200963245705,178.66933819599217 40.07968605007045,184.42124312452506 37.664811320835724,189.83475232997444 33.41003203578293,193.69184902188135 33.41003203578293,198.96994275023462 32.72006782726385,199.4436156480224 21.96812558034435,199.51128317572875 21.22066435427405,194.09785781480605 17.42586120800115,190.64677466498688 14.953489461448044,186.5866524357698 14.206028235843405,179.41370534634916 17.713346295058727,172.78203948651208 24.842976448358968,169.0601553565939 33.640020105289295,170.27822896733414 38.239781494252384,174.94748914032243 40.13718306762166,180.1580716096796 39.67720692860894,185.97763182548806 37.37732623401098,190.30843215365894 33.58252308797091,193.5565126988222 33.29503800114617,199.1729454646702 29.442737837554887,199.71428571426077 21.96812558034435,199.71428571426077 21.163167336955667,193.96252157975687 16.965885069221258,190.10542655875906 14.49351332266815,185.57161775551504 14.66600437485613,177.92497015860863 19.49575383355841,171.09027672169032 24.440497326897457,169.12782617512858 29.32774380291812,168.85714285710128 32.37508572312072,169.73686321126297 36.80235606012866,172.9850507103838 39.67720692860894,178.26331937644864 40.13718306762166,184.01522804331034 38.35477552935481,188.95506027597003 33.46752905333415,193.62418086396065 32.892558879451826,199.4436156480224 21.96812558034435,199.6466182085569" stroke="#4dd2ff" stroke-dasharray="none" stroke-linecap="round" stroke-linejoin="round" stroke-width="0.5"><title>2025-09-27 10.0km</title><desc>1758965825000</desc></polyline><polyline fill="none" opacity="1" points="56.861713209189475,170.58252950024325 59.68092134455219,169.52075367968064 66.33425254398026,169.52075367968064 73.66419369587675,172.4406327587203 76.37063350575045,179.40846978599438 76.53978599398397,183.32369581679814 75.0737977635581,188.16792390256887 69.6045339810662,194.2729239243199 69.6045339810662,199.51521235407563 58.32770143961534,199.71428571426077 57.87662813812494,194.00749040569644 52.238211867399514,187.76976961421315 50.659455311717466,180.53658832702786 51.617986077675596,177.21858668833738 54.77549918927252,172.90515769273043 59.7936896700412,169.7198367860401 67.01086249644868,169.58711472223513 71.23967469949275,171.11341672064736 73.43865704489872,173.037879037729 76.42701766849495,180.47022847045446 76.20148101774976,185.1817604326061 73.1003520686645,191.35314889496658 69.71730230632238,193.80841519136447 69.32261316757649,199.38249674468534 58.32770143961534,199.64792793459492 57.651091487146914,193.60933991213096 52.3509801926557,188.7651548499707 50.77222363697365,184.31908827618463 50.60307114897296,180.73566785396542 51.8999068911653,176.4886239162297 57.48193899891339,170.58252950024325 65.03741680178791,169.321670508245 72.7620470924303,171.77702509914525 75.75040771602653,177.21858668833738 76.31424934300594,183.72185299464036 74.45357197360136,189.09694956929889 69.77368646906689,193.80841519136447 69.43538149283268,199.64792793459492 58.32770143961534,199.58157014794415 57.70747564989142,194.14020717935637 53.42227928410284,190.29140907083638 50.77222363697365,184.18636937486008 51.78713856590912,176.4886239162297 56.5797923959326,171.44522099971073 61.20329373772256,169.38803157251095 71.46521135023795,170.8479731681291 73.83334618387744,172.97151836869307 76.03232852951623,179.07666982000228 76.37063350575045,183.72185299464036 73.88973034662195,190.0259738272871 69.6609181438107,194.07384879601886 69.32261316757649,199.51521235407563 58.27131727710366,199.44885455287294 57.48193899891339,193.80841519136447 53.760584260802716,190.75592047028476 51.73075440293178,187.50433327822248 50.77222363697365,179.87298943678616 53.25312679633498,174.56417243886972 57.820243975147605,169.91891982790548 63.34589192061685,168.85714285710128 73.04396790615283,172.10882901860168 75.86317604128271,177.74946815823205 76.37063350575045,183.92093148641288 74.50995613634586,189.09694956929889 69.71730230632238,193.94113200798165 69.37899733008817,199.58157014794415 58.38408560259268,199.71428571426077" stroke="#4dd2ff" stroke-dasharray="none" stroke-linecap="round" stroke-linejoin="round" stroke-width="0.5"><title>2020-04-24 10.0km</title><desc>1587724293000</desc></polyline><polyline fill="none" opacity="1" points="110.8208360192366,189.14056874410016 112.3464891393669,184.88443001144333 112.23347779689357,180.09623867092887 110.53830766351894,175.50752026197733 105.62231427617371,170.51974396203877 102.74052504915744,169.5886878981255 98.3895883730147,169.7216959935613 90.53530008764938,173.51241460465826 86.86243146518245,182.0913229341386 88.21856757183559,187.81052855937742 94.32118005258963,194.39419930713484 94.99924810603261,199.71428571426077 106.01785397413187,199.24877999391174 106.01785397413187,194.1281937767053 111.10336437472142,188.4755490119569 113.13756853458472,181.89181479957188 110.59481333452277,174.17745054420084 111.21637571672909,173.37940733024152 108.73012618767098,173.77842906682054 104.77472920925356,170.98527146456763 98.44609404425137,169.38917570054764 91.55240216758102,172.51485934463562 87.59700518962927,178.76617889368208 88.16206190083176,187.81052855937742 94.15166303911246,194.26119655632647 94.60370840807445,199.58128411584767 105.56580860493705,199.3817816642695 105.9613483028952,193.79568670148728 110.6513190055266,189.34007452317746 112.45950048160739,183.55438060680171 111.72492675692774,178.23415417596698 108.44759783218615,172.91388164297678 101.55390595574863,169.5886878981255 96.69441823964007,170.05421610653866 90.47879441664554,172.98038533434737 87.25797116290778,179.16519712947775 87.7665222028736,186.67999213724397 89.91373770567589,190.40410425094888 93.92564035463147,194.1281937767053 94.49069706583396,199.5147833059309 105.56580860493705,199.3817816642695 105.62231427617371,194.1281937767053 110.53830766351894,189.20707067771582 112.1769721256569,184.01989822625183 111.27288138796575,177.63562581758015 107.93904679222032,172.7808742391062 105.11376323597506,170.71925579203526 100.48029820458032,169.7216959935613 97.42899196408689,169.78820003051078 91.83493052353151,171.71681396942586 87.99254488712177,176.97059362393338 86.86243146518245,180.76126747886883 87.99254488712177,187.74402647453826 90.87433411437087,191.60113549034577 93.98214602586813,193.92868955340236 94.66021407931112,199.6477849187795 105.62231427617371,199.4482824888546 105.62231427617371,194.1281937767053 110.93384736124426,188.54205101763364 112.3464891393669,181.16028441808885 110.6513190055266,175.77353386004688 105.17026890721172,170.25372808787506 100.59330954658799,168.8571428571595 91.94794186577201,171.84982160420623 88.1055562295951,177.7021289972472" stroke="#4dd2ff" stroke-dasharray="none" stroke-linecap="round" stroke-linejoin="round" stroke-width="0.5"><title>2020-04-16 10.0km</title><desc>1587033949000</desc></polyline><polyline fill="none" opacity="1" points="146.8187093003653,190.21476071473444 149.28028466389515,184.21853195119184 148.87956309318542,178.49174265033798 145.61654458777048,172.6975256970618 143.55569079518318,170.81102480908157 138.86152382288128,169.0592688609031 134.16735685034655,169.39614538790192 127.41233608545735,172.225901011494 124.26380945765413,177.54850170831196 123.46236631600186,181.32145689468598 124.83626884478144,188.19356646586675 130.78984646801837,194.0550116939703 131.76302742562257,199.64691370743094 142.4680179602001,199.2426815124345 142.63975577638485,193.8528938125237 147.39116868725978,189.13679126591887 149.3947765410412,183.7469160007313 148.65057933842763,178.08749670739053 144.35713393683545,171.8890260173357 138.00283474265598,169.19401949376334 129.07246830756776,171.28265056747478 124.83626884478144,176.53788482566597 123.57685819361359,180.84983874775935 124.14931758050807,186.23973911604844 127.06886045332067,190.95586362684844 130.90433834539726,194.25712950975867 131.5912896094378,199.71428571426077 142.58250983757898,199.2426815124345 142.63975577638485,193.7855211708229 147.84913619677536,188.597805841011 149.3947765410412,183.00580449966947 148.87956309318542,178.76123979955446 146.30349585204385,173.91027324687457 141.95280451211147,170.3393986929441 138.9187697614543,169.0592688609031 133.5948974636849,169.5982712165569 127.41233608545735,172.09115103562362 124.0920716417022,178.35699403169565 123.51961225480773,182.53418763005175 124.72177696716972,188.05881994916126 130.84709240682423,194.0550116939703 131.30505991610698,199.51216967159417 142.7542476535309,198.90582114935387 142.69700171472505,193.7181485214387 147.62015244201757,189.00204495346406 149.2230387253221,183.67954226449365 148.59333339962177,177.6832505016937 143.841920488514,171.8890260173357 138.5180481907446,168.8571428571595 133.48040558653884,169.73302173259435 127.41233608545735,172.49540087551577 124.32105539646,177.81799926614622 123.57685819361359,183.94903716619592 126.03843355714343,189.67577622376848 130.73260052897967,194.18975691183005 131.4195517937187,199.71428571426077 142.7542476535309,199.1079373890534 142.7542476535309,193.8528938125237 147.39116868725978,189.27153754932806 149.337530602701,183.34267347311834 148.47884152224287,177.81799926614622 145.04408520110883,172.6975256970618 138.86152382288128,169.26139479904668 133.3659137089271,169.46352067147382 126.55364700523205,172.96702535700751 123.57685819361359,181.38883088633884 125.12249853811227,188.26093971327646 130.73260052897967,193.98763907403918" stroke="#4dd2ff" stroke-dasharray="none" stroke-linecap="round" stroke-linejoin="round" stroke-width="0.5"><title>2020-04-14 10.0km</title><desc>1586861907000</desc></polyline><polyline fill="none" opacity="1" points="185.48408797732554,184.82022988819517 184.80308419535868,177.67362695297925 180.94406276522204,171.92956829216564 173.73677274188958,169.25789486902067 168.912995954277,169.99260621442227 163.4082153851632,172.53069321683142 160.45719899749383,179.74414660607 161.02470214874484,185.82208349340362 163.06771349417977,189.8962713854271 167.3239871300757,193.90364305273397 168.11849154205993,199.71428571426077 178.9578017354943,198.97960978071205 179.18480299576186,193.56969640869647 183.61132757738233,189.16158375504892 185.82458986807615,183.08367978344904 185.2570867165923,178.4083282708889 181.908818122698,172.59748483914882 175.43928219610825,169.45827077730792 169.6507500510197,169.79223047971027 163.29471475444734,172.7310680616647 159.88969584624283,179.2098196191946 160.17344742175192,184.2859072999563 161.4787046702113,187.5586258864496 167.3807374453172,193.90364305273397 167.60773870605044,199.24676476692548 178.90105142025277,198.97960978071205 179.01455205027014,193.97043235995807 184.17883072863333,188.4268952491111 185.54083829233423,183.4176321066334 185.1435860863421,178.8090740753105 180.88731245021336,171.52881801658077 175.60953314159997,169.39147881505778 169.1967475300189,169.72543855378171 163.6919669606723,172.26352665602462 160.0031964762602,181.01317134400597 161.81920656119473,187.95936574414372 167.3239871300757,194.1040109526366 167.6644890208263,199.24676476692548 178.67405015951954,199.04639853799017 178.90105142025277,193.77006441674894 183.32757600140758,189.29516338912072 185.3705873468425,184.3526976487483 185.0300854560919,178.20795527094742 181.341314971447,172.4639015874127 175.26903125061654,169.25789486902067 168.06174122705124,170.32656562741613 163.2379644396715,172.59748483914882 159.94644616101868,180.81279919063672 161.30845372471958,187.4918358847499 167.2104864998255,194.037221659848 167.6644890208263,199.04639853799017 179.0713023657445,198.91282101615798 179.01455205027014,193.56969640869647 183.7815785226412,188.62726492842194 185.54083829233423,183.4176321066334 184.9165848258417,177.94079116993817 180.66031118971296,171.92956829216564 172.03426328720525,168.8571428571595 165.4512267303653,170.92769211501582 161.25170340947807,176.6049689280335 160.1166971065104,181.41391545551596" stroke="#4dd2ff" stroke-dasharray="none" stroke-linecap="round" stroke-linejoin="round" stroke-width="0.5"><title>2020-04-13 10.0km</title><desc>1586775592000</desc></polyline><polyline fill="none" opacity="1" points="36.974851372186095,222.8042201346252 38.657021476188675,219.3225651269895 39.063062536064535,211.06209100602427 38.134968685219064,208.19479368516477 41.267285431269556,203.8255536367069 40.049162252340466,205.46402220439631 36.162769252900034,207.2390250126482 29.086053642444313,203.48420548223658 22.41537909163162,203.96209284674842 17.54288637638092,206.41979356849333 13.830510973930359,211.74477892153664 13.65649337717332,219.8687083607074 15.80271040671505,223.89650009549223 20.44317965931259,228.40213492530165 20.96523245004937,233.8634672971093 31.580305865965784,233.38560260366648 32.334382119821385,227.9242660916061 36.974851372186095,223.35036035184748 38.947050804970786,218.63988541916478 38.657021476188675,212.76880940853152 35.930745790479705,207.5121019242797 29.318077105330303,203.48420548223658 22.76341428561136,203.6890143970959 16.61479252600111,207.2390250126482 14.178546167910099,211.26689745829208 13.25045231753029,214.95340221992228 14.236552033573389,221.64367060229415 15.74470454081893,224.4426393659087 20.21115619665943,228.3338679713197 20.90722658461891,233.8634672971093 31.580305865965784,233.45386901055463 32.450393850915134,227.78773207234917 36.278780984459445,224.3743719831109 38.366992148105055,220.7561901063891 39.005056670168415,215.22647578903707 37.496904163155705,209.49190599360736 34.074558089254424,205.66883047582814 28.157959792064503,203.48420548223658 21.9513321663253,204.0303624405642 17.19485118216835,206.76114013290498 14.87461655586958,209.56017498858273 13.07643472054042,215.22647578903707 13.25045231753029,218.50334938889137 15.28065761574544,223.96476753003662 20.26916206232272,228.53866881120484 20.79121485329233,233.79520093440078 31.754323462955654,233.5221354100504 32.508399716578424,227.9242660916061 37.090863103512675,223.35036035184748 38.831039073411375,219.52736889512744 38.947050804970786,213.58803260012064 37.496904163155705,209.42363699135603 31.928341059945524,204.64478845300619 25.37367824022658,203.41593582910718 18.47098022676073,205.5322916356963 14.236552033573389,210.65247790160356 13.192446451867,213.58803260012064 13.36646404885687,219.2542971894145 15.97672800347209,224.71570882381639 20.03713859966956,228.40213492530165 20.90722658461891,234.0 32.102358656935394,233.38560260366648 32.160364522831514,228.19733404094586 37.496904163155705,222.53114984877175 38.947050804970786,217.274523785396 37.612915894482285,210.24286453117384 35.176669536624104,206.69287083507515 31.870335194049403,204.16690160625149 25.14165477757342,203.1428571428405 18.2389567643404,205.66883047582814 14.236552033573389,210.7207467709086 13.018428854644299,215.84089088672772 14.9326224217657,223.07729030231712 20.32716792798601,228.3338679713197" stroke="#4dd2ff" stroke-dasharray="none" stroke-linecap="round" stroke-linejoin="round" stroke-width="0.5"><title>2020-04-12 10.0km</title><desc>1586649823000</desc></polyline><polyline fill="none" opacity="1" points="70.12608997081406,204.5454880449106 73.92836108570918,207.1503655408742 76.48212526738644,214.02986089180922 76.36862463736907,219.3731052944786 74.2121126614511,224.04840616701404 69.72883776505478,228.1893573384732 69.33158555882983,233.7996339229867 58.43552505038679,233.73284521629103 57.81127158389427,228.12256802420598 53.27124637225643,224.18198567116633 51.228235027054325,220.9092794911121 50.54723124508746,215.0317227439955 53.781999208498746,208.08544708631234 57.81127158389427,204.67907177394954 64.50780877145007,203.14285714289872 72.79335478297435,206.0149074725923 75.97137243114412,212.62725156376837 76.65237621287815,217.50297502003377 74.66611518268473,223.11334882833762 69.61533713433892,228.45651452359743 69.67208744981326,233.7996339229867 58.32202442036942,233.73284521629103 57.81127158389427,228.12256802420598 52.53349227528088,223.71445728029357 50.94448345131241,220.5753289043787 50.54723124508746,215.2988856297452 51.39848597231321,211.29143019014737 57.07351748715155,204.81265547429211 61.273040808038786,203.20964916283265 68.87758303782903,204.4786961696227 73.7581101404503,207.5511149482918 76.42537495214492,213.6291156950174 76.53887558262795,217.70334639237262 74.49586423719302,223.64766748133115 69.84233839530498,228.32293594558723 69.55858681956306,233.7996339229867 58.32202442036942,233.7996339229867 57.69777095364407,228.12256802420598 53.15774574200623,224.24877541244496 51.17148471181281,220.5753289043787 50.83098282082938,213.49553390493384 53.781999208498746,208.08544708631234 57.243768432643265,204.87944731337484 59.797532614087686,203.87756896566134 66.21031822566874,203.5436091547599 72.67985415225849,206.0149074725923 76.31187432189472,212.9612064550165 76.48212526738644,217.97050812043017 74.15536234620959,224.24877541244496 69.84233839530498,228.05577870248817 69.55858681956306,233.59926778101362 58.37877473561093,234.0 57.64102063840255,227.98898937366903 52.87399416626431,223.8480368569144 51.17148471181281,220.64211903640535 50.490480930078775,213.69590657937806 53.72524889372289,208.08544708631234 57.13026780216023,204.87944731337484 60.02453387458809,203.677193100797 64.33755782595836,203.27644117578166 71.20434595877305,204.7458636277588 73.81486045545898,207.08357394795166 76.48212526738644,214.8313505037804 76.36862463736907,219.50668581138598 74.09861203096807,224.24877541244496 70.01258934056386,228.2561466456973 69.72883776505478,233.86642262263922 58.37877473561093,233.86642262263922 57.64102063840255,228.1893573384732" stroke="#4dd2ff" stroke-dasharray="none" stroke-linecap="round" stroke-linejoin="round" stroke-width="0.5"><title>2020-04-08 10.0km</title><desc>1586343893000</desc></polyline><polyline fill="none" opacity="1" points="98.41099152038805,203.3432331813965 102.89426544588059,203.81077701802133 108.85304724541493,206.5492409419967 111.69056238769554,211.89255016675452 112.88231874792837,217.9705081206048 110.27180481655523,224.64951370778726 106.07228240533732,228.32293594570365 105.84528119396418,233.93321131484117 94.83572244038805,233.73284521629103 94.38172001764178,228.32293594570365 89.21744245802984,223.44729804072995 87.11768125230446,218.43804086645832 87.45818306948058,212.89441549149342 89.95519639505073,207.95186409528833 93.5304654748179,204.8126554741757 95.97072849748656,203.94436090620002 103.40501817129552,203.81077701802133 108.68279633671045,206.41565761802485 112.71206783922389,213.82948832627153 112.14456481067464,220.9760695871082 109.70430178823881,225.25062066235114 106.07228240533732,228.38972523843404 106.07228240533732,233.7996339231613 94.94922304642387,233.93321131484117 94.26821941207163,228.32293594570365 88.70668973214924,222.71260953502497 86.89068004093133,216.03358296875376 88.36618791520596,210.5567272013286 93.41696486901492,204.61227991321357 99.88649939442985,203.14285714289872 107.54779027937911,205.48057354061166 110.04480360494927,208.01865559455473 112.93906905059703,214.89814125793055 112.03106420487165,220.9760695871082 109.3070496681612,225.51777912059333 106.29928361694328,228.25614664587192 105.95878179976717,233.7996339231613 94.7222218348179,233.86642262263922 94.15471880626865,228.18935733864782 88.93369094375521,223.64766748144757 86.94743034383282,217.9037176995189 87.7986848866567,211.9593412389513 93.5872157777194,204.54548804514343 99.88649939442985,203.3432331813965 107.71804118831642,205.14661459776107 110.89605814800598,209.55485807801597 113.05256965640001,215.43246702937176 113.10931995906867,218.50483122991864 111.6338120852597,222.5790297127096 106.12903270847164,228.18935733864782 106.12903270847164,233.7996339231613 95.11947395489551,234.0 94.09796850336716,228.59009307291126 88.93369094375521,223.51408786181128 87.00418064673431,218.83878293790622 87.17443155543879,213.2951611657627 89.78494548657909,208.61977876117453 94.15471880626865,204.61227991321357 98.9784945489373,203.47681717091473 102.83751514274627,203.74398506310536 108.73954663961194,206.21528257784666 111.9175635993015,211.82575908710714 112.65531753655523,219.37310529465321 111.12305935937911,223.51408786181128 106.2425333140418,228.12256802426418 106.07228240533732,233.5324790526065 95.45997577207163,234.0 94.7222218348179,233.59926778124645 94.09796850336716,228.38972523843404" stroke="#4dd2ff" stroke-dasharray="none" stroke-linecap="round" stroke-linejoin="round" stroke-width="0.5"><title>2020-04-07 10.0km</title><desc>1586257895000</desc></polyline><polyline fill="none" opacity="1" points="133.818057497032,203.20964916306548 139.4363374793902,203.74398506310536 144.94111685617827,206.21528257784666 149.08388896472752,214.6309781986638 148.40288533037528,221.37681000912562 145.84912170190364,225.25062066235114 142.67110474244691,228.0557787027792 142.72785504511558,233.59926778124645 131.5480453830678,233.93321131484117 130.52653993177228,228.32293594570365 125.30551206925884,223.04655896435725 123.71650358941406,218.83878293790622 124.11375570949167,212.69404255662812 126.72426964039914,207.8182810752769 132.96680295444094,203.81077701802133 138.4148320283275,203.47681717091473 145.22486837091856,206.01490747270873 148.68663684488274,213.96307004382834 148.00563321076334,221.77755017078016 145.45186958205886,225.9185165911913 142.72785504511558,228.18935733864782 142.38735322793946,233.46569031686522 131.71829629153945,234.0 130.8670417489484,228.59009307291126 126.27026721765287,224.7163033983088 124.00025510368869,219.84063697705278 124.11375570949167,212.69404255662812 126.27026721765287,208.48619588604197 130.52653993177228,204.54548804514343 134.83956294856034,203.20964916306548 139.03908535977826,203.3432331813965 145.79237139923498,207.21715712727746 148.51638593617827,212.1597144123516 148.68663684488274,220.04100758960703 146.07612291374244,224.84988275775686 142.50085383397527,228.25614664587192 142.38735322793946,233.5324790526065 131.66154598863795,233.86642262263922 130.8102914460469,228.32293594570365 125.64601388643496,223.7812470723875 123.77325389208272,219.1727344651008 123.8867544978857,213.69590657949448 126.66751933773048,208.01865559455473 131.09404296032153,204.14473668439314 138.18783081695437,203.14285714289872 144.9978671593126,206.5492409419967 147.83538230182603,210.15597974741831 148.85688775312155,213.5623248036718 149.14063926786184,218.23766973312013 148.23263442190364,221.57718012249097 145.79237139923498,225.38419990602415 142.50085383397527,228.25614664587192 142.44410353084095,233.66605650237761 131.77504659444094,233.86642262263922 130.8670417489484,228.79046084260335 125.8162647949066,223.7812470723875 123.71650358941406,218.77199261070928 124.05700540635735,212.82762452051975 126.38376782322302,208.21903004858177 129.7320356918499,205.01303097017808 132.85330234887078,203.81077701802133 140.0038405081723,203.54360915487632 143.8061107993126,204.74586362781702 146.87062715319917,208.6865701880888 148.91363805625588,213.2951611657627 148.8001374504529,220.77569927851437 145.67887079366483,225.7181478884886 142.67110474244691,228.52330380218336 142.16035201679915,233.66605650237761 131.6047956859693,234.0 130.64004053757526,228.38972523843404" stroke="#4dd2ff" stroke-dasharray="none" stroke-linecap="round" stroke-linejoin="round" stroke-width="0.5"><title>2020-04-02 10.0km</title><desc>1585825459000</desc></polyline><polyline fill="none" opacity="1" points="164.67085255333222,206.65243901353097 170.40969524043612,203.6063879787107 176.429853745969,204.0036998440046 179.86190672568046,205.261852380645 182.3374859241303,207.38084027310833 185.0943809405435,213.73775988153648 185.43195992242545,219.30001031514257 183.57527552335523,224.0676132652443 178.8491697809659,228.30545134173008 178.68038029014133,234.0 167.65280022402294,233.8675692382385 167.14643175154924,228.43788330827374 163.03922080877237,225.19329186936375 160.90122059197165,221.88246652833186 160.00100997416303,214.39993520610733 162.8704313179478,208.24167700647376 170.072116258787,203.6726066409028 175.75469578290358,203.8712625844637 180.08695938019082,205.32807086332468 182.6750649055466,207.77814968535677 185.0943809405435,213.60532473074272 185.54448624956422,218.5054062087438 183.1814333780203,224.3986954225693 179.07422243524343,228.23923534766072 178.8491697809659,233.93378462264081 167.59653706056997,233.6689230418997 167.14643175154924,228.63653120415984 161.68890488240868,223.2067988163908 160.00100997416303,216.12158769299276 161.46385222789831,210.4268725006841 166.9776422609575,204.93075985874748 172.49143229378387,203.47395063302247 180.42453836183995,205.59294472297188 184.58801246830262,211.48635841353098 185.65701257670298,217.9094524512766 184.36295981379226,222.74328284186777 178.8491697809659,228.43788330827374 178.7929066172801,233.8675692382385 167.76532655139454,233.8675692382385 166.80885277013294,228.30545134173008 163.03922080877237,225.06085919996258 160.61990477400832,221.48516628245125 160.00100997416303,215.12832723453175 163.09548397245817,208.24167700647376 169.67827411391772,203.14285714289872 175.02327465591952,203.73882529587718 182.11243326961994,207.71193146781297 185.37569675873965,213.67154230969027 185.60074941301718,218.70405733241932 182.7875912329182,225.06085919996258 179.01795927179046,228.23923534766072 178.62411712645553,233.80135384667665 167.82158971508034,233.93378462264081 166.9776422609575,228.17301934649004 163.03922080877237,225.12707553815562 161.01374691911042,222.21354986925144 160.05727313808165,215.06210981321055 162.5328523365315,208.97007637249772 167.25895807892084,204.4010114512057 171.36616902169771,203.47395063302247 177.16127487272024,204.4010114512057 179.97443305281922,205.261852380645 182.2812227604445,207.77814968535677 185.37569675873965,213.93641255429247 185.71327574038878,218.96892539644614 183.01264388742857,224.6635610195808 179.07422243524343,228.50409928074805 178.62411712645553,233.8675692382385 167.70906338770874,233.8675692382385" stroke="#4dd2ff" stroke-dasharray="none" stroke-linecap="round" stroke-linejoin="round" stroke-width="0.5"><title>2020-03-23 10.0km</title><desc>1584960411000</desc></polyline><polyline fill="none" opacity="1" points="17.521854083053768,259.41278982372023 14.821221644990146,254.71141198358964 14.202326711267233,250.80460570997093 14.821221644990146,246.4342504622764 17.128011852269992,242.5936094521894 23.542013892205432,237.42857142857974 28.999541944125667,237.56100884615444 34.794649050338194,239.41512967919698 36.932649730471894,241.40168147400254 39.74580851988867,247.36129812558647 39.97086122306064,252.12894961691927 37.83286054315977,258.28711109771393 33.27554330416024,262.32630160817644 32.656648370437324,267.8884219143656 22.079171321820468,268.28571428573923 21.178960509365425,262.6573816141463 17.35306455567479,259.28035714 14.93374799657613,254.71141198358964 14.539905766025186,247.9572565953713 17.184275028295815,242.92470014473656 23.260698013473302,237.49479014100507 30.40612133871764,237.75966491864529 35.638596687233075,240.0110958952573 39.23943993775174,245.9045083091478 39.97086122306064,252.59246930660447 37.83286054315977,258.28711109771393 33.219280128367245,262.723597594013 33.05049060098827,267.9546373276389 21.966644970234483,268.08706813229946 21.235223685158417,262.52494963328354 17.409327731467783,258.8830589167774 14.821221644990146,254.71141198358964 14.596168941818178,248.15590928966412 16.959222325123847,242.72604575072182 24.32969835330732,237.42857142857974 33.10675377678126,238.42185136082117 36.988912906264886,241.40168147400254 39.29570311354473,245.9045083091478 39.97086122306064,252.32760095532285 38.001650070305914,258.02224521385506 33.27554330416024,262.723597594013 33.10675377678126,268.02085273351986 21.966644970234483,268.21949890855467 21.178960509365425,262.32630160817644 16.959222325123847,258.48576043522917 15.046274348394945,255.10871291800868 14.652432117844,247.29508048202842 17.240538203855976,242.5936094521894 23.316961189266294,237.89210226450814 29.505910526029766,237.89210226450814 35.24475445668213,239.81244055461138 37.04517608182505,241.26924488827353 39.68954534409568,247.55995101347798 40.08338757464662,252.65868637617677 37.55154466419481,258.48576043522917 33.27554330416024,262.78981356631266 33.05049060098827,268.02085273351986 21.910381794674322,268.02085273351986 21.178960509365425,262.45873363217106 15.271327051334083,255.43979683250654 14.483642590465024,252.52625222946517 14.708695293404162,246.96399215626298 17.521854083053768,242.26251858024625 24.04838247457519,238.1569768700283" stroke="#4dd2ff" stroke-dasharray="none" stroke-linecap="round" stroke-linejoin="round" stroke-width="0.5"><title>2019-12-13 10.0km</title><desc>1576239112000</desc></polyline><polyline fill="none" opacity="1" points="71.32714680489153,237.4285714285652 73.85601027862867,237.73186219512718 74.1137288492173,238.11097491442342 74.58084375842009,257.78579816041747 74.96742161427392,261.27320474918815 74.85466973972507,267.7171428919537 74.1459436705918,267.9824764387595 65.91505682264687,267.88771450385684 62.725789511809126,268.2857142857101 60.857329875114374,268.07723832232296 60.406322376511525,264.533108974123 60.051959342032205,248.51729849349067 53.99557293346152,247.64538984105457 53.705639541498385,247.26629776820482 52.5459059739369,247.0957060676592 52.1754355286248,245.78783084105817 52.51369115256239,245.18127669513342 52.33650963532273,244.78322439473413" stroke="#4dd2ff" stroke-dasharray="none" stroke-linecap="round" stroke-linejoin="round" stroke-width="0.5"><title>2019-11-23 10.0km</title><desc>1574497580000</desc></polyline></svg>