<?xml version="1.0" encoding="utf-8" ?>
<svg baseProfile="full" height="300mm" version="1.1" viewBox="0,0,200,300" width="200mm" xmlns="http://www.w3.org/2000/svg" xmlns:ev="http://www.w3.org/2001/xml-events" xmlns:xlink="http://www.w3.org/1999/xlink"><defs /><rect fill="#222222" height="300" width="200" x="0" y="0" /><text fill="#FFFFFF" style="font-size:12px; font-family:Arial; font-weight:bold;" x="10" y="20">Over 10km Runs</text><text fill="#FFFFFF" style="font-size:4px; font-family:Arial" x="10" y="280">Runner</text><text fill="#FFFFFF" style="font-size:9px; font-family:Arial" x="10" y="290">Floyd Li</text><text fill="#FFFFFF" style="font-size:4px; font-family:Arial" x="65" y="280">SPECIAL TRACKS</text><rect fill="yellow" height="2.6" width="2.6" x="65" y="283" /><text fill="#FFFFFF" style="font-size:3px; font-family:Arial" x="70" y="285.5">Over 20.0 km</text><rect fill="red" height="2.6" width="2.6" x="65" y="287" /><text fill="#FFFFFF" style="font-size:3px; font-family:Arial" x="70" y="289.5">Over 40.0 km</text><text fill="#FFFFFF" style="font-size:4px; font-family:Arial" x="120" y="280">STATISTICS</text><text fill="#FFFFFF" style="font-size:3px; font-family:Arial" x="120" y="285">Number: 41</text><text fill="#FFFFFF" style="font-size:3px; font-family:Arial" x="120" y="290">Weekly: 2.0</text><text fill="#FFFFFF" style="font-size:3px; font-family:Arial" x="141" y="285">Total: 696.8 km</text><text fill="#FFFFFF" style="font-size:3px; font-family:Arial" x="141" y="290">Avg: 17.0 km</text><text fill="#FFFFFF" style="font-size:3px; font-family:Arial" x="167" y="285">Min: 10.0 km</text><text fill="#FFFFFF" style="font-size:3px; font-family:Arial" x="167" y="290">Max: 62.1 km</text><polyline fill="none" opacity="1" points="33.570125147292856,43.149532822215406 35.1597029659315,45.10535646643257 36.121815856255125,46.67983158324205 36.801569528644904,48.684795710709295 36.9375202631345,49.98861846088403 30.066779296961613,52.9898140715668 28.424912734306417,54.08449277489126 23.269242572481744,58.5 13.07293748576194,47.20875193014217 13.010190992907155,46.92584135266952 22.861390369012952,31.5 25.381707831460517,36.02709847650112 27.74515906185843,34.53858869089163 29.052377662737854,34.1818355187861 30.307307519600727,34.10802437803795 31.353082400222775,34.30485398036399 32.33611078810645,34.87073719039472 33.1413574462058,35.830271853461454 33.36097017116845,36.445353919909394 33.47600540803978,37.52789028123516 32.900829223683104,40.20958372823952 33.12044194864575,42.12855492518429 33.831568867492024,43.54316040827689 35.18061846354976,45.08075511990319 35.84991438721772,46.15090877832699 36.592414552520495,47.934475847789145 36.98980900715105,49.84101663508045 36.65516104531707,50.17312047393352 29.899455316073727,53.06361296679097 28.665440956887323,51.26782626640488 25.674524798057973,48.29118590761209 24.377763946016785,46.22471210796357 23.92808074725326,45.08075511990319 23.520228543842677,43.02652392236632 23.48885529738618,41.21827775076963 23.92808074725326,38.8195395097282 24.764700651867315,36.91281406667986 25.559489561186638,35.95328853275714 26.6052644419251,35.10447073844989 28.341250743891578,34.32945765670593 29.700758088729344,34.08342065379111 31.551779627567157,34.35406132774369 32.39885728096124,34.90764251937071 33.214561687840614,36.014796822550124 33.47600540803978,37.54019177163718 32.96357571647968,39.680630849994486 32.91128697246313,40.78773871289741 33.09952645102749,42.09165193807712 33.5492096497328,43.12493105287285 34.97146348742535,44.79783925248921 35.91266088007251,46.22471210796357 36.72836528701009,48.38958848599577 36.98980900715105,49.85331679456431 36.70744978939183,50.13622009524988 29.983117306546774,53.07591277798929 28.424912734306417,50.984925778342586 25.643151551659685,48.266585249737545 24.419594941253308,46.32311647307506 23.813045510381926,44.63792997288692 23.520228543842677,42.81740848743357 23.520228543842677,41.16907337173325 23.82350325922016,39.237784688855754 24.28364420676371,37.74931690457743 24.67058091261424,37.0727342023165 25.726813542074524,35.7933668237456 26.63663768832339,35.116772490808216 27.692870317783672,34.56319231670204 29.1360396532109,34.15723181053909 31.04980768484529,34.2064392217726 32.409315029741265,34.932246065371146 33.10998419980751,35.7810651445252 33.36097017116845,36.42075070107967 33.47600540803978,37.589397719821136" stroke="#4dd2ff" stroke-dasharray="none" stroke-linecap="round" stroke-linejoin="round" stroke-width="0.5"><title>2026-06-25 16.5km</title><desc>1782388992000</desc></polyline><polyline fill="none" opacity="1" points="42.980476322351024,40.41883074685029 43.162918859037745,40.97227994363675 43.28853503184655,41.225279040703754 43.686319579057454,41.79451267264267 43.790999723067216,42.01763278633371 43.832871780672576,42.177504378343656 43.85530324010324,42.588595569339304 43.80894489061757,42.80467781432162 43.65491553586617,43.21750992506168 43.584630296310934,43.47925764376305 43.54724453060044,43.75681104402793 43.54275823871285,44.04314283612621 43.71772362226329,45.68374478473379 43.98091941290477,46.83768834272087 43.96746053724928,46.9676555695205 43.847826086959685,47.27325011056382 43.822403766273055,47.5191266264228 43.915120465251675,48.47274125483091 44.051204652452725,48.86260082337503 44.08559955691453,49.03469803452754 44.02129603987851,50.30605394495069 44.051204652452725,50.44301732800159 44.13046247576858,50.5992946583101 44.239628911658656,50.72220836292945 44.46095264469477,50.90306541947575 44.56712821932888,51.066361819752274 44.59404597064713,51.25775014837018 44.49833841041254,51.637008474692266 44.49684297978092,51.73182168175299 44.55815563556098,51.96007344386999 44.68825810024282,52.119847781617864 44.917058986429765,52.24450579612858 48.0454998615387,53.40325313711401 48.449266131268814,53.50507852462215 48.8096649127765,53.53492377669318 49.33157020215731,53.47523321809604 51.7765992799832,52.78350909037363 52.28953198559611,52.688701980938276 52.65740792024735,52.685190595957465 55.93090556632524,52.94503104801879 56.45580171698384,52.89060534919554 57.23342564386985,52.662366575217675 57.6865411243416,52.57809299192377 60.625062309612986,52.388475841637046 60.879285516479285,52.34458266939146 61.20828025478113,52.246261536029124 61.455026308503875,52.135649554364136 61.791498199949274,51.92495799554308 62.024785378009256,51.7283100912955 62.64389365827083,51.01895335543122 63.24057047909446,50.407898621228014 63.70864026585332,49.847745049508376 63.9060371088417,49.52639436731988 64.251481584055,48.739673134479744 64.39055663251929,48.52893780233535 64.60141235115589,48.36210373720314 65.02162835780473,48.112727537934916 65.03209637220425,48.149607356475826 65.03658266409184,48.10043424659307 65.81570202160219,47.63679479287384 66.0130988645833,47.44712031560084 66.12226530047337,47.25568736070454 66.17161451122229,47.106403224732276 66.31816671282286,46.53911106807573 66.40639711991389,46.020978729011404 66.49911381889251,45.671449665644104 66.69351980061037,45.146263795619234 66.95671559125185,44.57012074225713 67.12569925229036,44.24690964283218 67.25281085572351,44.05895242073166 67.79266131265467,43.458177445927504 67.98706729437981,43.19115925112237 68.17698698421736,42.81521833849001 68.42074217669142,42.12128597500305 68.48055940183258,42.14061107298767 68.5,42.18628848637309 68.49700913875131,42.137097420509235 68.40279700914107,42.10371768425466 68.37587925782282,42.135340593988076 68.10670174467668,42.892515307788926 68.0259484907292,43.04359469121846 67.98557186375547,43.06116197065967 67.41132650235522,42.813461584935794 66.45425090003118,42.551703192923014 66.14170589864807,42.490215713654834 64.18568263638736,42.40237605585753 62.16386042647355,42.219668053803616 60.84638604265638,42.22493850558203 60.34242592080409,42.200343049400544 59.65901412351377,42.09493353180005 58.014040432011825,41.67855928339486 57.51157574079116,41.576660170498144 56.868540570481855,41.52395348320897 55.86361118804052,41.57314639664037 55.54209360288223,41.546793068593615 54.91401273885276,41.35704785074631 53.924037662705814,41.119863226809684 53.93450567709806,41.14094644405486 53.93899196898565,41.119863226809684 53.933010246473714,41.142703377590806 53.928523954586126,41.121620162623 53.73710883411695,41.0443148080758 53.60252007754025,40.91781434728 53.51578510108084,40.75968739261043 53.3557740238175,40.02701250912469 53.131459429518145,39.62112809248356 52.99836610357306,39.48231681960169 52.857795624484424,39.4067608203859 52.70825256162061,39.37513262382163 51.46554970922443,39.461231459661576 51.20983107172651,39.4067608203859 51.07374688452546,39.31363317724572 50.97953475491522,39.197662161643166 50.80307394074043,38.68632558245372 50.72082525616133,38.51587649510657 50.61764054279047,38.38759920355369 50.40379396289063,38.24174845505877 48.821628357800364,37.78485815288877 46.508197175302485,37.41933669831997 46.18518415951257,37.317410986301184 44.20672943782847,36.52658640859954 43.97643312101718,36.48968032525772 42.33594572140282,36.46507622330682 41.591221268347,36.48089315025027 41.5,36.763837807635355 41.77216837441665,37.317410986301184" stroke="red" stroke-dasharray="none" stroke-linecap="round" stroke-linejoin="round" stroke-width="0.5"><title>2026-06-20 50.3km</title><desc>1781914442000</desc></polyline><polyline fill="none" opacity="1" points="72.67557303688955,57.02999381633708 72.38612419599667,48.783375705912476 73.33064146630932,48.496529423311586 85.30468299041968,48.19175470349728 86.11209291504929,47.99454723295639 89.02181547367945,46.23759758082451 88.99134717468405,39.85505215309968 91.82489898568019,39.74747905411641 92.29715762089472,46.2196694270242 95.35922167473473,47.76148355577607 97.05021227162797,47.851123470420134 97.35489526204765,48.06625906759291 97.61387580394512,56.474256371933734 97.55293920589611,57.334752268114244 97.187319617311,57.76499853942369 93.0131626483635,58.39243901440932 88.93041057651863,58.5 84.72578530863393,58.195243692724034 79.18055488268146,57.37060616679082 73.01072432636283,57.46024087941623 72.69080718641635,57.17340962824528 72.41659249505028,51.04227281511703 72.62987058836734,48.58616894004808 85.68553672847338,48.10211497332784 88.96087887568865,46.291382030482055 88.778069081367,38.45659641394741 87.10231263400055,36.25131528280326 86.84333209216129,34.92454662642558 87.13278093305416,33.52604923311446 88.45815194142051,31.93031341578171 89.5854790059966,31.5 91.0479573601624,31.5 91.88583558378741,31.75101629513665 93.11980169505114,32.79093689122237 93.79010427399771,34.4942409946234 93.43971883505583,36.50232437287923 92.03817707905546,38.11594514967874 91.97724048089003,39.424759337780415 88.97611302515725,39.62197701697005 88.68666418426437,38.187661263524205 87.2851224282058,36.64575796776626 86.9195028397371,35.73136667108338" stroke="#4dd2ff" stroke-dasharray="none" stroke-linecap="round" stroke-linejoin="round" stroke-width="0.5"><title>2026-06-15 12.8km</title><desc>1781522628000</desc></polyline><polyline fill="none" opacity="1" points="123.6376710436889,34.02137895589112 123.72883379872655,35.43404962394561 123.13627589074895,37.007643224817 121.92077248974238,38.312999262314406 122.13348558486905,46.12703809593222 124.92914340726566,47.64688827426289 127.01069298153743,47.879334715238656 127.26898745424114,48.09390037029516 127.54247571952874,55.99687441671267 127.34495641681133,57.60603093265672 124.38216687680688,58.24968914894271 120.06712980318116,58.5 115.66092997428495,58.26756850800302 108.68697921087733,57.319959809057764 102.76140013075201,57.39147763645451 102.45752428052947,48.68395448414958 115.40263550158124,48.129661285711336 116.4358133925125,47.807812768180156 118.92759536462836,46.25220275683387 118.74526985443663,38.509695852713776 117.22589060314931,36.650009632561705 116.84604579035658,35.14794008503668 117.16511543316301,33.44915448578831 118.33503745665075,32.09011342008307 119.7024787827977,31.5 121.61689663946163,31.71458694228204 122.80201245547505,32.519285491653136 123.71364000625908,34.43266406856128 123.60728345863754,35.898976567114005 123.1666634757421,36.90035322846961 121.93596628226805,38.22359164379304 121.89038490474923,39.49317528937536 118.91240157216089,39.61834497922973 118.6389133069315,38.18782858287159 117.362634735764,36.90035322846961 116.8308519978309,35.48769510728016 116.92201475292677,34.075024898236734 117.87922368128784,32.465639043730334" stroke="#4dd2ff" stroke-dasharray="none" stroke-linecap="round" stroke-linejoin="round" stroke-width="0.5"><title>2026-06-14 10.1km</title><desc>1781439872000</desc></polyline><polyline fill="none" opacity="1" points="154.10890179558191,58.25051532492216 149.49009041127283,58.48217967862729 145.23472648020834,58.21487462615187 139.51042909245007,57.35949554129911 132.7866512084147,57.323854649599525 132.48377833078848,50.7479780712747 132.65035841352073,48.627246400370495 145.43159385066247,48.217353934567655 146.68851629295386,47.7361745199305 148.97520651924424,46.31044947639748 148.77833914884832,38.70043314655777 147.0671073900303,36.38349646590359 146.83995273179607,34.6368610940699 147.33969297993463,33.15755337008159 148.32402983226348,32.15945871725853 149.49009041127283,31.606939431032515 150.56528912694193,31.571292961700237 151.35275860887486,31.71387879247777 152.63996833900455,32.426806092931656 153.4728687524912,33.620952400931856 153.71516705467366,34.42298610098078 153.66973612306174,35.88445968004817 153.33657595753903,36.72212770860642 151.8827861448517,38.433095963686355 152.07965351530584,46.06094632393797 155.16895686736098,47.75399600484525 157.22849243547535,48.074782402807614 157.42535980598768,57.44859773671487 156.9104759139591,57.840646823489806 155.53240432054736,58.07231175406196 149.8838251522393,58.48217967862729 145.49216842622263,58.25051532492216 139.31356172193773,57.35949554129911 132.7866512084147,57.35949554129911 132.57464019401232,48.64506778874784 145.3710192751605,48.18171106319642 146.0676268938114,48.00349659060885 148.89948829985224,46.346092753025005 148.76319550490007,38.59349832549924 147.05196374619845,36.4369646031555 146.83995273179607,34.45863195248239 147.38512391154654,33.086261095668306 148.41489169566194,32.03469645995938 150.56528912694193,31.5 152.48853190016234,32.26639771966438 152.9882721483009,32.76544547852245 153.66973612306174,34.20911082983366 153.5031560403295,36.31220558912901 151.97364800813375,38.36180597492785 152.10994080308592,46.132232977543026 154.92665856529493,47.64706706654397 156.97105048946105,47.89656781447411 157.2890670109773,48.252996798211825 157.53136531315977,57.05654771615809 157.30421065492555,57.626801982783945 154.68436026317067,58.17923391969816 150.3229908248759,58.5 145.4467374945525,58.232694976526545 139.61643459962215,57.37731598423852 132.80179485230474,57.35949554129911 132.46863468684023,50.837083845821326 132.6352147696307,48.662889175189775 145.1438646169263,48.252996798211825 146.41593070304953,47.89656781447411 148.89948829985224,46.38173602192546 148.9146319438005,39.93017859378597 148.58147177833598,38.183580867844285 147.6577095015091,37.274629819134134 146.8853836634662,35.88445968004817 146.85509637568612,34.351694374825456 147.15796925337054,33.44272215888486 148.7329082171782,31.89211090716708 151.00445479957853,31.589116197326803 152.8822666411288,32.6763299183076 153.56373061583145,33.95958932887879 153.74545434245374,34.92202731911675 153.42743782087928,36.5260781266843 151.9887916520238,38.21922590468603 151.8070679254597,39.68066576792626 148.92977558763232,39.71631048050767 148.64204635383794,38.272693445454934 147.49112941877684,37.18551670099259 146.8853836634662,35.84881413742551" stroke="#ffc500" stroke-dasharray="none" stroke-linecap="round" stroke-linejoin="round" stroke-width="0.5"><title>2026-06-10 21.8km</title><desc>1781089369000</desc></polyline><polyline fill="none" opacity="1" points="175.96495899290312,58.5 176.1327779481653,55.89888496833737 169.75565764738712,49.93928426515777 170.37099381675944,47.73321457076236 173.3637651859317,42.43199650320457 173.58752379298676,40.65392748406157 169.55986886611208,37.986804436077364 164.32951142650563,36.570914781535976 169.22423095570412,37.888021651189774 173.16797640477307,40.22587227655458 174.37067891773768,41.47710887956782 176.02089864457957,41.04905483231414 178.62209245143458,41.1807638341852 178.118635585648,38.250225038907956 176.83202359522693,37.52581783148344 176.27262707753107,36.40627602112363 176.52435551048256,32.71834439635859 177.27954080933705,31.5 176.52435551048256,32.685416233725846 176.24465725175105,36.60384252286167 178.06269593397155,38.31608015377424 178.76194158103317,41.04905483231414 183.65666110999882,41.971016645926284 185.67048857337795,40.028308131120866 184.91530327452347,45.56005562245264 183.0133551148465,50.07098941170261" stroke="#4dd2ff" stroke-dasharray="none" stroke-linecap="round" stroke-linejoin="round" stroke-width="0.5"><title>2026-06-09 11.9km</title><desc>1781004096000</desc></polyline><polyline fill="none" opacity="0.5" points="32.003937719389796,66.5 21.540223536081612,93.10294405266177 21.87776270415634,92.30883190047462 21.033914785832167,82.38240102259442 17.996062280610204,93.5 21.20268436986953,82.58093016617931 21.540223536081612,93.10294405266177 21.87776270415634,92.30883190047462 21.033914785832167,82.38240102259442 17.996062280610204,93.5 21.20268436986953,82.58093016617931 21.540223536081612,93.10294405266177 21.87776270415634,92.30883190047462 21.033914785832167,82.38240102259442 17.996062280610204,93.5 21.20268436986953,82.58093016617931 21.540223536081612,93.10294405266177 21.87776270415634,92.30883190047462 21.033914785832167,82.38240102259442 17.996062280610204,93.5 21.20268436986953,82.58093016617931 21.540223536081612,93.10294405266177 21.87776270415634,92.30883190047462 21.033914785832167,82.38240102259442 17.996062280610204,93.5 21.20268436986953,82.58093016617931 21.540223536081612,93.10294405266177 21.87776270415634,92.30883190047462 21.033914785832167,82.38240102259442 17.996062280610204,93.5 21.20268436986953,82.58093016617931 21.540223536081612,93.10294405266177 21.87776270415634,92.30883190047462 21.033914785832167,82.38240102259442 17.996062280610204,93.5 21.20268436986953,82.58093016617931 21.540223536081612,93.10294405266177 21.87776270415634,92.30883190047462 21.033914785832167,82.38240102259442 17.996062280610204,93.5 21.20268436986953,82.58093016617931 21.540223536081612,93.10294405266177 21.87776270415634,92.30883190047462 21.033914785832167,82.38240102259442 17.996062280610204,93.5 21.20268436986953,82.58093016617931 21.540223536081612,93.10294405266177 21.87776270415634,92.30883190047462 21.033914785832167,82.38240102259442 17.996062280610204,93.5 21.20268436986953,82.58093016617931 21.540223536081612,93.10294405266177 21.87776270415634,92.30883190047462 21.033914785832167,82.38240102259442 17.996062280610204,93.5 21.20268436986953,82.58093016617931 21.540223536081612,93.10294405266177 21.87776270415634,92.30883190047462 21.033914785832167,82.38240102259442 17.996062280610204,93.5 21.20268436986953,82.58093016617931 21.540223536081612,93.10294405266177 21.87776270415634,92.30883190047462 21.033914785832167,82.38240102259442 17.996062280610204,93.5 21.20268436986953,82.58093016617931 21.540223536081612,93.10294405266177 21.87776270415634,92.30883190047462 21.033914785832167,82.38240102259442 17.996062280610204,93.5 21.20268436986953,82.58093016617931 21.540223536081612,93.10294405266177 21.87776270415634,92.30883190047462 21.033914785832167,82.38240102259442 17.996062280610204,93.5 21.20268436986953,82.58093016617931 21.540223536081612,93.10294405266177 21.87776270415634,92.30883190047462 21.033914785832167,82.38240102259442 17.996062280610204,93.5 21.20268436986953,82.58093016617931 21.540223536081612,93.10294405266177 21.87776270415634,92.30883190047462 21.033914785832167,82.38240102259442 17.996062280610204,93.5 21.20268436986953,82.58093016617931 21.540223536081612,93.10294405266177 21.87776270415634,92.30883190047462 21.033914785832167,82.38240102259442 17.996062280610204,93.5 21.20268436986953,82.58093016617931 21.540223536081612,93.10294405266177 21.87776270415634,92.30883190047462 21.033914785832167,82.38240102259442 17.996062280610204,93.5 21.20268436986953,82.58093016617931 21.540223536081612,93.10294405266177 21.87776270415634,92.30883190047462 21.033914785832167,82.38240102259442 17.996062280610204,93.5 21.20268436986953,82.58093016617931 21.540223536081612,93.10294405266177 21.87776270415634,92.30883190047462 21.033914785832167,82.38240102259442 17.996062280610204,93.5 21.20268436986953,82.58093016617931 21.540223536081612,93.10294405266177 21.87776270415634,92.30883190047462 21.033914785832167,82.38240102259442 17.996062280610204,93.5 21.20268436986953,82.58093016617931 21.540223536081612,93.10294405266177 21.87776270415634,92.30883190047462 21.033914785832167,82.38240102259442 17.996062280610204,93.5 21.20268436986953,82.58093016617931 21.540223536081612,93.10294405266177 21.87776270415634,92.30883190047462 21.033914785832167,82.38240102259442 17.996062280610204,93.5 21.20268436986953,82.58093016617931 21.540223536081612,93.10294405266177 21.87776270415634,92.30883190047462 21.033914785832167,82.38240102259442 17.996062280610204,93.5 21.20268436986953,82.58093016617931 21.540223536081612,93.10294405266177 21.87776270415634,92.30883190047462 21.033914785832167,82.38240102259442 17.996062280610204,93.5 21.20268436986953,82.58093016617931 21.540223536081612,93.10294405266177 21.87776270415634,92.30883190047462 21.033914785832167,82.38240102259442 17.996062280610204,93.5 21.20268436986953,82.58093016617931 21.540223536081612,93.10294405266177 21.87776270415634,92.30883190047462 21.033914785832167,82.38240102259442 17.996062280610204,93.5 21.20268436986953,82.58093016617931 21.540223536081612,93.10294405266177 21.87776270415634,92.30883190047462 21.033914785832167,82.38240102259442 17.996062280610204,93.5 21.20268436986953,82.58093016617931 21.540223536081612,93.10294405266177 21.87776270415634,92.30883190047462 21.033914785832167,82.38240102259442 17.996062280610204,93.5 21.20268436986953,82.58093016617931 21.540223536081612,93.10294405266177 21.87776270415634,92.30883190047462 21.033914785832167,82.38240102259442 17.996062280610204,93.5 21.20268436986953,82.58093016617931 21.540223536081612,93.10294405266177 21.87776270415634,92.30883190047462 21.033914785832167,82.38240102259442 17.996062280610204,93.5 21.20268436986953,82.58093016617931 21.540223536081612,93.10294405266177 21.87776270415634,92.30883190047462 21.033914785832167,82.38240102259442 17.996062280610204,93.5 21.20268436986953,82.58093016617931 21.540223536081612,93.10294405266177 21.87776270415634,92.30883190047462 21.033914785832167,82.38240102259442 17.996062280610204,93.5 21.20268436986953,82.58093016617931 21.540223536081612,93.10294405266177 21.87776270415634,92.30883190047462 21.033914785832167,82.38240102259442 17.996062280610204,93.5 21.20268436986953,82.58093016617931 21.540223536081612,93.10294405266177 21.87776270415634,92.30883190047462 21.033914785832167,82.38240102259442 17.996062280610204,93.5 21.20268436986953,82.58093016617931 21.540223536081612,93.10294405266177 21.87776270415634,92.30883190047462 21.033914785832167,82.38240102259442 17.996062280610204,93.5 21.20268436986953,82.58093016617931 21.540223536081612,93.10294405266177 21.87776270415634,92.30883190047462 21.033914785832167,82.38240102259442 17.996062280610204,93.5 21.20268436986953,82.58093016617931 21.540223536081612,93.10294405266177 21.87776270415634,92.30883190047462 21.033914785832167,82.38240102259442 17.996062280610204,93.5 21.20268436986953,82.58093016617931 21.540223536081612,93.10294405266177 21.87776270415634,92.30883190047462 21.033914785832167,82.38240102259442 17.996062280610204,93.5 21.20268436986953,82.58093016617931 21.540223536081612,93.10294405266177 21.87776270415634,92.30883190047462 21.033914785832167,82.38240102259442 17.996062280610204,93.5 21.20268436986953,82.58093016617931 21.540223536081612,93.10294405266177 21.87776270415634,92.30883190047462 21.033914785832167,82.38240102259442 17.996062280610204,93.5 21.20268436986953,82.58093016617931 21.540223536081612,93.10294405266177 21.87776270415634,92.30883190047462 21.033914785832167,82.38240102259442 17.996062280610204,93.5 21.20268436986953,82.58093016617931 21.540223536081612,93.10294405266177 21.87776270415634,92.30883190047462" stroke="#4dd2ff" stroke-dasharray="1,0.5" stroke-linecap="round" stroke-linejoin="round" stroke-width="0.5"><title>2026-06-07 13.9km</title><desc>1780824448000</desc></polyline><polyline fill="none" opacity="1" points="47.80256099267717,82.02942616882228 47.78114941455715,82.17586974358619 47.68542706534936,82.42437648611758 47.669053505625925,82.60779525098224 47.74336427672097,83.3902559112912 47.868055231607286,83.75262810287677 47.89072631431918,83.87390972607136 47.83404860754672,84.95060704330353 47.88190978215425,85.11920311907397 47.93858748891944,85.21828932322296 48.218197508984304,85.47117774633534 48.30384382142802,85.61462700956781 48.31643886738311,85.77138428948638 48.235830573306885,86.11446946794695 48.25346363763674,86.24903933777114 48.302584316836146,86.37473528118153 48.05320240705623,86.58324013982565 47.7912254513285,86.86567785767147 47.54814106451522,87.08156875212353 47.18666324578953,87.6050161875819 46.981363996826985,87.94805569518303 46.92090777627163,88.01754972730942 46.73702010542911,88.15062242751173 46.67530438028189,88.24672968938012 46.691677940012596,88.28517240640758 46.822666417872824,88.33248637241104 47.09723841955565,88.34431483853041 47.11990950226755,88.36353607430192 47.12494752064231,88.48182001188889 47.14384008956404,88.50104105582886 47.337803797170636,88.58236056041187 47.47760880720307,88.57348936505332 47.640084899932845,88.4522491226935 48.06201893922116,88.22602972039658 48.04942389327334,88.19793685559944 47.83278910295485,88.15949389515572 47.81263702944125,88.09591491746687 47.84160563511978,87.99832800881359 48.038088351917395,88.01607113452792 48.08091150814289,87.83272440012388 48.11239912301244,87.81941688086954 48.21441899519414,87.8297671747332 48.242128096280794,87.85342496008161 48.21189998600312,88.08408623808373 48.229533050332975,88.12548657149455 48.718220833136,87.96727748382182 48.95248868778435,87.95397009454337 49.43235993842973,87.88003992002723 49.747236087139754,88.01311394849927 49.91349069366697,88.0559930838408 50.06589074963995,88.06782178734647 50.57095209218096,88.21420115272667 51.11631758175645,88.49512689131734 51.36318048234534,88.54687574470609 51.56973923589976,88.6267164515184 52.01938237626746,88.65628696626572 52.10125017492828,88.59566734273449 52.126440266831196,88.49956251493677 52.19949153333437,88.4389422018512 52.64157764612901,88.24229398435637 52.669286747215665,88.25412252790738 52.51562718664354,87.94805569518303 52.419904837428476,87.88151852740884 52.30906843308185,87.8667324464841 52.312846946872014,87.6552897530828 52.34559406633343,87.61388800659279 54.59884778653941,86.98841076750978 54.84948920091847,86.95735796595818 55.09887111069111,86.96031537864746 57.64684890609351,87.17029005646418 57.956687036428775,87.17324742343044 58.397513644631545,87.11114258373436 58.944138638798904,86.94109218482208 59.25397676913417,86.88046501318604 61.83470168399799,86.7030180991851 62.16343238326226,86.63647491703068 62.479568036571436,86.51521762506309 62.7503615244641,86.3569900410721 63.016116993981996,86.13517261042944 63.52243784111488,85.55103628346023 63.944371880388644,85.12807653955952 64.3008116807323,84.71249854235703 64.5728646732241,84.31317690541073 64.8877408219414,83.60324317148115 65.01117227223585,83.43462852894572 65.20135746605956,83.29559384886488 66.17369501329085,82.71429534749223 66.35758268414065,82.54123227213768 66.44070998740062,82.4021885665552 66.4936091803902,82.24243448965535 66.6019265755458,81.8208523263429 66.68379437420663,81.3460022118461 66.74551009935385,81.11226934572824 66.94325232075062,80.57082226316106 67.21530531324242,79.98349081301149 67.43445911274466,79.64765022568645 67.81608900498395,79.23190668619009 68.02390726313752,78.95375096680436 68.17126930073573,78.6652324413626 68.38412557727133,78.06006366492511 68.43198675187887,78.0704213007657 68.44836031160958,78.11925005034482 68.49118346783507,78.10297381974851 68.5,78.14292453317739 68.44584130241856,78.11925005034482 68.43198675187887,78.04822635727123 68.36397350375046,78.04082803481288 68.11837010775344,78.71109989365868 68.05413537341519,78.83094638562034 68.01257172178157,78.85018091052007 67.57300461818522,78.65783445086254 66.74551009935385,78.42553552451682 66.42937444604468,78.36930971682068 64.90663339086313,78.30272622617213 63.09924429724197,78.14144487919566 61.65081401314819,78.13404660688957 60.93667490786174,78.02159237778869 59.606638055702206,77.68570387527325 59.110393245318846,77.58952283690451 58.69223771982797,77.55696910228289 57.75138778746623,77.59840111478479 57.525936464982806,77.57472569435777 57.00828007650125,77.41787500427745 56.11781032793806,77.20183244474538 55.99185986845259,77.1352433001548 55.91880860194942,77.06717406342614 55.84323832625523,76.95027176172425 55.70217381163093,76.30655140586623 55.50569109483331,75.92622429325183 55.442715865094215,75.84335006295078 55.30039184587076,75.76935479220265 55.100130615290254,75.72495743853506 55.03715538555116,75.6361623009434 54.9704016420219,75.61544335296003 54.85074870551034,75.674640264333 54.79155198955414,75.62580283085663 54.71094369547791,75.64948160814947 54.60766431869706,75.758995422505 54.382212996220915,75.78859360091792 54.07489387507667,75.79599313556082 53.87589214908803,75.7397565723586 53.69074497364636,75.58880465965285 53.535825908482366,75.13001906162845 53.37586882492906,74.87694045133958 53.18820264029637,74.76593959043385 52.765009096423455,74.64309759249136 52.510589168261504,74.54541521994815 52.4715445258189,74.53653496983225 52.44005691094935,74.55577550449925 52.39471474553284,74.52617467077289 52.247352707934624,74.50397400362272 51.883355880017916,74.37224930743105 51.445048281006166,74.3293275044407 51.31783831692883,74.2923258425244 51.272496151512314,74.29972618287866 51.22589448150393,74.26716465550362 51.04074730606226,74.26864472660509 49.83540140877449,74.06883368600211 47.94110649811046,73.3346881698726 47.787446937538334,73.31840627221754 46.441036525633535,73.29768382911152 45.85662639362272,73.31100540326952 45.61983952978335,73.2932433015203 45.453584923263406,73.23403612983657 45.33645099594287,73.16446737703882 44.849022717731714,72.73520557663505 43.86786863834277,72.30148951298816 42.762023604052956,72.08092557892542 42.36150114288466,71.86775975332966 41.82495218548138,71.48730974536466 41.50251900919102,71.34371303373337 41.5,71.36739919267075 41.82999020385614,71.51543676044457 42.3866912347803,71.909208922978 42.70030787890573,72.0750043506614" stroke="red" stroke-dasharray="none" stroke-linecap="round" stroke-linejoin="round" stroke-width="0.5"><title>2026-06-06 62.1km</title><desc>1780699923000</desc></polyline><polyline fill="none" opacity="1" points="88.83640688081505,93.5 79.46526280022226,92.3579878109158 72.7932508335798,92.25092376250541 72.5051412259345,85.64850639121141 72.52030488947639,83.88186878045963 72.7325961792958,83.59634981317504 85.62171020597452,83.16807043470908 88.97287985292496,81.31218026641 89.04869817069266,74.81640007448732 88.65444291807944,73.1210306892608 87.89625974005321,72.47857036457572 87.12291289842688,71.31856621135375 86.88029428152367,69.62316083535552 87.3958588425885,68.12405102279445 88.18436934775673,67.24956399976509 88.91222519864095,66.8033953631093 90.36793690046761,66.5 91.24742938700365,66.62492757011205 92.62732277106261,67.32095086952904 93.73427021095995,69.21269164745172 93.53714258468244,71.37210504434188 91.97528523794608,73.33518357417779 92.17241286416538,80.95527591479186 92.3695404905011,81.27648986605345 95.14449092216091,82.68625480355695 97.08543985791039,82.90039525800967 97.3583858020138,83.16807043470908 97.4948587740073,92.42936380454921 96.91863955865847,92.82193121702585 95.05350894079311,93.14312204088492 89.74622669449309,93.48215612041531" stroke="#4dd2ff" stroke-dasharray="none" stroke-linecap="round" stroke-linejoin="round" stroke-width="0.5"><title>2026-06-05 14.5km</title><desc>1780659860000</desc></polyline><polyline fill="none" opacity="1" points="101.5,85.39643712076213 103.20043318899116,83.20406555110094 103.85721426195232,82.03901716259134 104.8918693769374,75.82166039365984 105.06281239591772,75.60981843884656 124.14545151620405,75.23909391240886 128.5,74.6035628792306" stroke="#4dd2ff" stroke-dasharray="none" stroke-linecap="round" stroke-linejoin="round" stroke-width="0.5"><title>2026-06-04 19.5km</title><desc>1780570902000</desc></polyline><polyline fill="none" opacity="0.5" points="140.65771587286144,93.5 139.9047186251264,88.77361947420286 135.23613569070585,84.10627851757454 133.8305408284068,80.20695039018756 133.93094046134502,75.00780285883229 136.18993220408447,70.69483605015557 140.70791568909772,67.38623565633316 143.8705041287467,66.5 146.88249311875552,66.67724724649452 151.80207513598725,68.62696315604262 154.86426394223236,72.11280150373932 156.16945917136036,75.12596585322171 156.01885972172022,81.09316377597861 153.91046742885374,85.16972680547042 150.59727953979746,88.1828190293163 154.11126669473015,84.93340514291776 150.54707972356118,88.24189910257701 150.24588082451373,93.08644333877601 140.65771587286144,93.5 139.9047186251264,88.77361947420286 135.23613569070585,84.10627851757454 133.8305408284068,80.20695039018756 133.93094046134502,75.00780285883229 136.18993220408447,70.69483605015557 140.70791568909772,67.38623565633316 143.8705041287467,66.5 146.88249311875552,66.67724724649452 151.80207513598725,68.62696315604262 154.86426394223236,72.11280150373932 156.16945917136036,75.12596585322171 156.01885972172022,81.09316377597861 153.91046742885374,85.16972680547042 150.59727953979746,88.1828190293163 154.11126669473015,84.93340514291776 150.54707972356118,88.24189910257701 150.24588082451373,93.08644333877601 140.65771587286144,93.5 139.9047186251264,88.77361947420286 135.23613569070585,84.10627851757454 133.8305408284068,80.20695039018756 133.93094046134502,75.00780285883229 136.18993220408447,70.69483605015557 140.70791568909772,67.38623565633316 143.8705041287467,66.5 146.88249311875552,66.67724724649452 151.80207513598725,68.62696315604262 154.86426394223236,72.11280150373932 156.16945917136036,75.12596585322171 156.01885972172022,81.09316377597861 153.91046742885374,85.16972680547042 150.59727953979746,88.1828190293163 154.11126669473015,84.93340514291776 150.54707972356118,88.24189910257701 150.24588082451373,93.08644333877601 140.65771587286144,93.5 139.9047186251264,88.77361947420286 135.23613569070585,84.10627851757454 133.8305408284068,80.20695039018756 133.93094046134502,75.00780285883229 136.18993220408447,70.69483605015557 140.70791568909772,67.38623565633316 143.8705041287467,66.5 146.88249311875552,66.67724724649452 151.80207513598725,68.62696315604262 154.86426394223236,72.11280150373932 156.16945917136036,75.12596585322171 156.01885972172022,81.09316377597861 153.91046742885374,85.16972680547042 150.59727953979746,88.1828190293163 154.11126669473015,84.93340514291776 150.54707972356118,88.24189910257701 150.24588082451373,93.08644333877601 140.65771587286144,93.5 139.9047186251264,88.77361947420286 135.23613569070585,84.10627851757454 133.8305408284068,80.20695039018756 133.93094046134502,75.00780285883229 136.18993220408447,70.69483605015557 140.70791568909772,67.38623565633316 143.8705041287467,66.5 146.88249311875552,66.67724724649452 151.80207513598725,68.62696315604262 154.86426394223236,72.11280150373932 156.16945917136036,75.12596585322171 156.01885972172022,81.09316377597861 153.91046742885374,85.16972680547042 150.59727953979746,88.1828190293163 154.11126669473015,84.93340514291776 150.54707972356118,88.24189910257701 150.24588082451373,93.08644333877601 140.65771587286144,93.5 139.9047186251264,88.77361947420286 135.23613569070585,84.10627851757454 133.8305408284068,80.20695039018756 133.93094046134502,75.00780285883229 136.18993220408447,70.69483605015557 140.70791568909772,67.38623565633316 143.8705041287467,66.5 146.88249311875552,66.67724724649452 151.80207513598725,68.62696315604262 154.86426394223236,72.11280150373932 156.16945917136036,75.12596585322171 156.01885972172022,81.09316377597861 153.91046742885374,85.16972680547042 150.59727953979746,88.1828190293163 154.11126669473015,84.93340514291776 150.54707972356118,88.24189910257701 150.24588082451373,93.08644333877601 140.65771587286144,93.5 139.9047186251264,88.77361947420286 135.23613569070585,84.10627851757454 133.8305408284068,80.20695039018756 133.93094046134502,75.00780285883229 136.18993220408447,70.69483605015557 140.70791568909772,67.38623565633316 143.8705041287467,66.5 146.88249311875552,66.67724724649452 151.80207513598725,68.62696315604262 154.86426394223236,72.11280150373932 156.16945917136036,75.12596585322171 156.01885972172022,81.09316377597861 153.91046742885374,85.16972680547042 150.59727953979746,88.1828190293163 154.11126669473015,84.93340514291776 150.54707972356118,88.24189910257701 150.24588082451373,93.08644333877601 140.65771587286144,93.5 139.9047186251264,88.77361947420286 135.23613569070585,84.10627851757454 133.8305408284068,80.20695039018756 133.93094046134502,75.00780285883229 136.18993220408447,70.69483605015557 140.70791568909772,67.38623565633316 143.8705041287467,66.5 146.88249311875552,66.67724724649452 151.80207513598725,68.62696315604262 154.86426394223236,72.11280150373932 156.16945917136036,75.12596585322171 156.01885972172022,81.09316377597861 153.91046742885374,85.16972680547042 150.59727953979746,88.1828190293163 154.11126669473015,84.93340514291776 150.54707972356118,88.24189910257701 150.24588082451373,93.08644333877601 140.65771587286144,93.5 139.9047186251264,88.77361947420286 135.23613569070585,84.10627851757454 133.8305408284068,80.20695039018756 133.93094046134502,75.00780285883229 136.18993220408447,70.69483605015557 140.70791568909772,67.38623565633316 143.8705041287467,66.5 146.88249311875552,66.67724724649452 151.80207513598725,68.62696315604262 154.86426394223236,72.11280150373932 156.16945917136036,75.12596585322171 156.01885972172022,81.09316377597861 153.91046742885374,85.16972680547042 150.59727953979746,88.1828190293163 154.11126669473015,84.93340514291776 150.54707972356118,88.24189910257701 150.24588082451373,93.08644333877601 140.65771587286144,93.5 139.9047186251264,88.77361947420286 135.23613569070585,84.10627851757454 133.8305408284068,80.20695039018756 133.93094046134502,75.00780285883229 136.18993220408447,70.69483605015557 140.70791568909772,67.38623565633316 143.8705041287467,66.5 146.88249311875552,66.67724724649452 151.80207513598725,68.62696315604262 154.86426394223236,72.11280150373932" stroke="#4dd2ff" stroke-dasharray="1,0.5" stroke-linecap="round" stroke-linejoin="round" stroke-width="0.5"><title>2026-06-02 16.9km</title><desc>1780401150000</desc></polyline><polyline fill="none" opacity="0.5" points="178.56817685614806,66.91101921851805 179.91952894214774,66.5 182.1667211749591,67.01824145496357 182.9259077401366,67.786665443331 183.56362445477862,69.00184025916678 183.7002780365292,69.91321549733402 183.42697087302804,71.36068346911634 181.87823028018465,73.48718745692167 182.0604350558133,81.0816208350443 184.7175880339346,82.6183342456934 186.9951477292925,82.92210148170125 187.2380874301307,83.19013093144167 187.52657832490513,92.12419682677137 187.3443735492765,92.64235780978925 183.7002780365292,93.32132491121592 178.53780939354328,93.48213249984838 175.45551193901338,93.2677223468636 169.13907971704612,92.33860846533207 163.14150585234165,92.41007894961513 162.6404427193338,92.15993211924797 162.47342167503666,83.74405708127597 163.24779197142925,83.52963427611394 175.40996074519353,83.17226231502718 178.91740267619025,81.31391564085789 178.7351979005034,73.43357844943239 177.23200850147987,71.7538207252801 176.79168029373977,69.50220375825302 177.71788790321443,67.57222189960885 178.94777013873681,66.73231533631042 179.82842655433342,66.53574084225693 181.01275759591954,66.60722250356048 182.19708863756387,67.07185254704382 182.7285192332347,67.48287034081295 183.5028895296855,68.87674914726813 183.68509430525592,70.34209622026538 183.39660341048148,71.46790281368885 181.87823028018465,73.3263603822561 182.0604350558133,81.09948967785749 184.6872205712134,82.58259688709222 187.28363862406695,83.13652507629013 187.49621086230036,92.2135350433673 187.28363862406695,92.71382816250843 184.21652490086854,93.28558987028373 179.57030312216375,93.5 175.18220477562863,93.24985482156626 169.1694471796509,92.37434371130075 162.68599391332828,92.33860846533207 169.1694471796509,92.37434371130075 175.18220477562863,93.24985482156626 179.57030312216375,93.5 184.21652490086854,93.28558987028373 187.28363862406695,92.71382816250843 187.49621086230036,92.2135350433673 187.28363862406695,83.13652507629013 184.6872205712134,82.58259688709222 182.0604350558133,81.09948967785749 181.87823028018465,73.3263603822561 183.39660341048148,71.46790281368885 183.68509430525592,70.34209622026538 183.5028895296855,68.87674914726813 182.7285192332347,67.48287034081295 182.19708863756387,67.07185254704382 181.01275759591954,66.60722250356048 179.82842655433342,66.53574084225693 178.94777013873681,66.73231533631042 177.71788790321443,67.57222189960885 176.79168029373977,69.50220375825302 177.23200850147987,71.7538207252801 178.7351979005034,73.43357844943239 178.91740267619025,81.31391564085789 175.40996074519353,83.17226231502718 163.24779197142925,83.52963427611394 162.47342167503666,83.74405708127597 162.6404427193338,92.15993211924797 163.14150585234165,92.41007894961513 169.13907971704612,92.33860846533207 175.45551193901338,93.2677223468636 178.53780939354328,93.48213249984838 183.7002780365292,93.32132491121592 187.3443735492765,92.64235780978925 187.52657832490513,92.12419682677137 187.2380874301307,83.19013093144167" stroke="#4dd2ff" stroke-dasharray="1,0.5" stroke-linecap="round" stroke-linejoin="round" stroke-width="0.5"><title>2026-05-28 19.4km</title><desc>1779966212000</desc></polyline><polyline fill="none" opacity="1" points="28.570539693930186,101.91129139439727 29.92278664186597,101.5 32.17146695969859,102.0185846331442 32.931156256294344,102.78751746994385 33.569295265420806,104.00349697149068 33.7060393387801,104.91547572003037 33.4325511920033,106.36390220145404 31.88278502697358,108.49181435484206 32.065110458177514,116.09127674762567 34.72402299626265,117.62900776602328 37.003090885991696,117.93297615592019 37.24619146081386,118.20118309407553 37.534873393538874,127.14116510533495 37.352547962393146,127.65966921324434 33.7060393387801,128.33908592497755 28.540152122091968,128.5 25.455813577980734,128.2854478651425 19.135198630508967,127.35571872674336 13.133653187425807,127.42723653859866 12.632258251716848,127.17692406162678 12.465126606461126,118.75547605242173 13.240009688946884,118.54091125700506 25.410232220194302,118.18330264510587 28.919996770389844,116.32372537846095 28.73767133918591,108.43816984760633 27.233486531942617,106.75729979212338 26.792866739968304,104.5041918100178 27.719687681819778,102.5729319222446 28.950384342228062,101.73246917493816 29.831623926293105,101.53576450975379 31.016739228914957,101.60729350603651 32.20185453159502,102.07223122636788 32.73363703925861,102.48352119507035 33.50852012174437,103.87832302456081 33.690845552890096,105.34464044669585 33.402163620165084,106.47119254640711 31.88278502697358,108.3308807808935 32.065110458177514,116.109157423125 34.69363542430801,117.59324674222444 37.29177281871671,118.14754174127302 37.504485821700655,127.23056248147623 37.29177281871671,127.73118689346302 34.22262806043727,128.30332722040475" stroke="#ffcd00" stroke-dasharray="none" stroke-linecap="round" stroke-linejoin="round" stroke-width="0.5"><title>2026-05-27 20.2km</title><desc>1779879632000</desc></polyline><polyline fill="none" opacity="0.5" points="47.194284620985854,105.50288418507262 48.76139765128028,103.72968889099138 51.19415406946791,102.1847108695365 53.83585889189271,101.5 56.29846508218907,101.62289703535498 58.283474920433946,102.816749109581 59.387916484614834,104.5021723894024 59.61178977461532,106.71426389737462 58.83569570252439,109.97967724234331 59.04464410658693,112.59547175045009 59.98491192469373,114.68456596291799 63.17883752915077,118.7748995062866 64.13403023325372,121.32033404878166 64.6116265853052,124.14659739319177 57.13425869832281,127.2010130474373 54.58210319199134,128.5 52.56724358169595,125.70892062154599 49.40316774928942,122.70714021974709 47.76143028907245,120.75858640753722 46.58236429496901,118.59935082608717 45.74657067883527,116.21186993762967 45.34359875676455,112.89391542608791 45.55254716076888,110.52390641637612 46.2092421449488,107.59206963660836 47.38830813905224,105.25709589432518 48.35842572915135,104.11593109951355 50.68670794548234,102.41294718443532 53.4030371978879,101.55267016938888 56.2238406521501,101.6053403217229 58.298399806488305,102.85186227297527 59.074493878521025,103.81747129179712 59.46254091459559,104.78307456869516 59.61178977461532,106.27535924842232 58.83569570252439,110.10256786039099 59.074493878521025,112.80613793132943 60.01476169668604,114.7196765603585 61.68634892895352,116.68585790607904 63.11913798504975,118.86267377526383 64.0146311452263,120.95168737835775 64.65640124329366,123.98860881441215 54.50747876195237,128.4122309385275 52.46276937966468,125.60359593240719 48.46289993118262,121.63631624315167 46.343566118972376,118.09025858041423 45.597321818815544,115.33411078779318 45.37344852875685,112.45502747803403 46.03014351287857,108.10119479119021 47.03011087496998,105.78378463328409 48.507674589171074,103.99303595100355 50.56730885745492,102.500730297048 52.895591073844116,101.65801045694388 55.970117590157315,101.55267016938888 57.91035277041374,102.500730297048 59.25359251059126,104.25638258398976 59.61178977461532,106.36314027314074 58.82077081652824,110.17279102899192 59.61178977461532,106.36314027314074 59.25359251059126,104.25638258398976 57.91035277041374,102.500730297048 55.970117590157315,101.55267016938888 52.895591073844116,101.65801045694388 50.56730885745492,102.500730297048 48.507674589171074,103.99303595100355 47.03011087496998,105.78378463328409 46.03014351287857,108.10119479119021 45.37344852875685,112.45502747803403 45.597321818815544,115.33411078779318 46.343566118972376,118.09025858041423 48.46289993118262,121.63631624315167 52.46276937966468,125.60359593240719 54.50747876195237,128.4122309385275 64.65640124329366,123.98860881441215 64.0146311452263,120.95168737835775 63.11913798504975,118.86267377526383 61.68634892895352,116.68585790607904 60.01476169668604,114.7196765603585 59.074493878521025,112.80613793132943 58.83569570252439,110.10256786039099 59.61178977461532,106.27535924842232 59.46254091459559,104.78307456869516 59.074493878521025,103.81747129179712 58.298399806488305,102.85186227297527 56.2238406521501,101.6053403217229 53.4030371978879,101.55267016938888 50.68670794548234,102.41294718443532" stroke="#4dd2ff" stroke-dasharray="1,0.5" stroke-linecap="round" stroke-linejoin="round" stroke-width="0.5"><title>2026-05-26 19.0km</title><desc>1779792854000</desc></polyline><polyline fill="none" opacity="1" points="77.19428462098585,105.50288418507262 78.76139765128028,103.72968889099138 81.19415406946791,102.1847108695365 83.83585889189271,101.5 86.29846508218907,101.62289703535498 88.28347492043395,102.816749109581 89.38791648461483,104.5021723894024 89.61178977461532,106.71426389737462 88.83569570252439,109.97967724234331 89.04464410658693,112.59547175045009 89.98491192469373,114.68456596291799 93.17883752915077,118.7748995062866 94.13403023325372,121.32033404878166 94.6116265853052,124.14659739319177 87.13425869832281,127.2010130474373 84.58210319199134,128.5 82.56724358169595,125.70892062154599 79.40316774928942,122.70714021974709 77.76143028907245,120.75858640753722 76.58236429496901,118.59935082608717 75.74657067883527,116.21186993762967 75.34359875676455,112.89391542608791 75.55254716076888,110.52390641637612 76.2092421449488,107.59206963660836 77.38830813905224,105.25709589432518 78.35842572915135,104.11593109951355 80.68670794548234,102.41294718443532 83.4030371978879,101.55267016938888 86.2238406521501,101.6053403217229 88.2983998064883,102.85186227297527 89.07449387852103,103.81747129179712 89.46254091459559,104.78307456869516 89.61178977461532,106.27535924842232 88.83569570252439,110.10256786039099 89.07449387852103,112.80613793132943 90.01476169668604,114.7196765603585 91.68634892895352,116.68585790607904 93.11913798504975,118.86267377526383 94.0146311452263,120.95168737835775 94.65640124329366,123.98860881441215 84.50747876195237,128.4122309385275 82.46276937966468,125.60359593240719 78.46289993118262,121.63631624315167 76.34356611897238,118.09025858041423 75.59732181881554,115.33411078779318 75.37344852875685,112.45502747803403 76.03014351287857,108.10119479119021 77.03011087496998,105.78378463328409 78.50767458917107,103.99303595100355" stroke="#ffbf00" stroke-dasharray="none" stroke-linecap="round" stroke-linejoin="round" stroke-width="0.5"><title>2026-05-24 23.2km</title><desc>1779623970000</desc></polyline><polyline fill="none" opacity="1" points="101.5,120.71248077228483 101.56216552582191,121.03402528531478 101.68313627877797,121.20169963931585 101.89483509645652,121.33583802070461 105.52059738643584,122.68308539091595 105.79278158058878,122.75212176097739 106.34051026757516,122.81129558603243 106.92856253889477,122.75212176097739 109.80833851898205,121.93747606659599 110.2098942128141,121.86449151757733 110.68705662725552,121.8625189581744 114.05239576850727,122.13867521404609 114.5850031113805,122.13867521404609 115.15121344119689,122.04202099661597 115.81487243309675,121.83293054173191 116.21306782824831,121.75205529365303 119.74474175481737,121.5015370220699 120.12277535780595,121.4167151009242 120.58985687615495,121.2233985615294 120.89060360920848,121.0359979336663 121.2434349719988,120.73418027233674 121.85836963284237,120.02005599388576 122.43130056004884,119.44202899643278 123.01431238331861,118.76533946674135 123.29321717485436,118.33524394915548 123.69141256999865,117.43161596588288 123.87118855008885,117.17314650815388 124.07448662102979,117.01135461435115 125.41356565026945,116.21421276015826 125.68070939637983,115.96559213082219 125.77479775979009,115.80773601541478 125.85040448039217,115.5946281064389 126.02177971374476,114.92371668288979 126.13098942126817,114.28632811568968 126.20323584317521,114.02978777013959 126.38469197260565,113.52853705443704 126.72576228997059,112.80623832264973 126.7207218419353,112.76874116412546 126.95594275045733,112.32469003913866 127.0987554449166,112.12140971615554 127.65824517733563,111.50958156155139 127.88674548848212,111.20365983281954 128.11020535157877,110.7536495669865 128.37230864964658,110.00360792429274 128.39751088985213,109.98584340832713 128.5,110.0272939188053 128.39247044180956,109.91873285942893 128.34542626010807,109.95623584349596 128.01443683882098,110.88194309228129 127.95059116365155,110.86220568525277 127.88674548848212,110.74575455150807 127.98923459862272,110.9174703714234 127.92370877410576,111.03589413832015 127.88674548848212,111.04971019466211 127.27853142501408,110.7793083438246 126.15955196016876,110.46547930061752 125.76303671436472,110.39837050652204 123.72501555692725,110.31152346735871 121.47529558182578,110.10427318975599 119.85731176104309,110.10427318975599 119.24405724953249,110.07071816265488 118.53671437460434,109.95623584349596 116.58270068449929,109.47066496104526 116.04337274424324,109.36802231562069 115.36963285625097,109.3167007774955 114.17840696950589,109.37591792412604 113.89950217796286,109.34433546971377 113.20224019912712,109.13312640788354 112.0227753578074,108.84493068009397 111.90180460484407,108.7896597489871 111.77243310515769,108.6889872678712 111.6649035469818,108.538964505904 111.44984443060821,107.62695762314979 111.20622277536313,107.18870441396757" stroke="red" stroke-dasharray="none" stroke-linecap="round" stroke-linejoin="round" stroke-width="0.5"><title>2026-05-23 52.6km</title><desc>1779516240000</desc></polyline><polyline fill="none" opacity="1" points="132.69358311360702,127.07059387353365 132.435459625558,121.01334802483325 132.69358311360702,118.6011085750797 145.5086551088607,118.19013093099056 148.92499539192067,116.2960468208039 148.77315804595128,108.37996942423342 147.08776350633707,106.3428135713475 146.82964001834625,104.98469569506415 146.93592616042588,104.09119099513919 147.74066409375519,102.6258328116237 148.66687190387165,101.89314883900806 149.6538146522944,101.51787042208889 151.1721881114645,101.58935209111951 152.8423989165458,102.5186109701317 153.7230555228307,104.26989232226333 153.60158564610174,106.09263480255322 153.0094199970481,107.2184362745611 152.11357965617208,107.98683604286634 151.91619110642932,108.61227507292642 152.09839592158096,115.9208011621231 152.2957844712073,116.27817799928016 155.19587777816923,117.74341493958491 157.30641688639298,118.1007878294622 157.44307049771305,127.53515222256829 155.013672963134,128.16051716588845 149.30458875669865,128.48213249980472 145.2049804170383,128.21411976509262 139.04038417281117,127.30287321150536 133.01244154007873,127.39221133136016 132.73913431738038,127.15993211916066 132.45064336014912,120.6202447416581 132.61766444070963,118.6011085750797 145.06832680566004,118.22586815805698 146.4804141226923,117.83275823458098 148.9553628611029,116.26030917576281 148.74279057676904,108.41570877608319 147.2699683214305,106.78956042912614 146.84482375287917,104.55581404300756 147.28515205607982,103.23342193065037 148.25691106996965,102.16120432842581 149.24385381833417,101.6429633225489 150.24598030140623,101.5 152.35651940962998,102.14333397599694 153.5712181769777,103.71591757821443 153.6471368498751,105.91393544976017 153.1005224045366,107.03973814107303 151.99210977938492,108.16553315051715 151.91619110642932,108.68375366822875 152.08321218693163,116.04588314316061 155.0744079014985,117.67194026877405 157.26086568267783,118.02931331342552 157.5645403745002,126.19507650744345 157.3975192939979,127.57088742597261 154.75554947502678,128.19625223395997 149.63863091770327,128.5" stroke="#ffc300" stroke-dasharray="none" stroke-linecap="round" stroke-linejoin="round" stroke-width="0.5"><title>2026-05-17 22.3km</title><desc>1779013233000</desc></polyline><polyline fill="none" opacity="1" points="171.61540983605664,108.13597149844281 171.09606557377265,106.81839211400802 170.84229508199496,105.30660992337653 169.4199999999837,104.77955824668607 168.12163934423006,104.88358194563625 165.21803278688458,105.54239480308024 162.2849180327612,105.1471078975228 162.11967213114258,105.23726126502879 161.97213114754413,105.51465545027168 161.52360655739903,106.97095531754167 161.5826229508093,107.24140738092683 162.73934426231426,108.89183381858311 166.09147540983395,109.54367126389116 167.11836065573152,110.39659753083106 167.32491803276935,111.18710447253397 167.9327868852415,112.63634199952503 168.06852459016955,113.59323694253544 168.87114754098002,116.99079254934622 168.91245901637012,117.60788035873702 169.502622950793,120.61696543911239 169.95114754099632,121.3934807110345 170.3878688524419,121.66387222506455 172.27049180329777,122.31558044166013 174.25344262295403,123.58431263703824 176.17147540982114,123.69523885453964 176.95049180326168,124.3053296376529 177.5642622950836,124.36772496033518 178.55573770491173,124.83222157471755 182.03180327865994,125.24818585036701 182.25016393439728,125.08180046228517 182.36819672130514,124.80449052752374 182.76360655738972,123.43178877613536 182.97016393442755,121.65693912350253 182.91114754095906,121.40734697012522 182.5688524590223,121.1716201597228 182.54524590165238,121.06068959759432 182.77540983606013,120.42976839320181 182.94065573767875,120.24257080339885 182.9465573770285,119.23030774696235 183.38918032785296,117.89908828327316 184.18590163931367,116.85905393673602 185.83836065573269,115.77740040406206 187.04819672132726,114.70959640929505 187.81540983606828,113.26040553126222 188.092786885245,113.05931905352918 188.5,113.20493346218427 188.1222950819647,113.05238502585416 187.797704918019,113.27427354106476 187.1544262295065,114.55011767002725 186.44622950820485,115.23656682673754 183.04098360656644,111.44367042940576 180.17868852461106,110.87506341780681 179.95442622949486,110.60462661410565 179.907213114755,109.55060566934117 179.3878688524419,109.44658950933808 174.0468852458871,109.55754007404175 173.1498360655387,108.87796486507432 171.95180327870185,108.51043650905922 171.57409836063744,108.07356045163033 171.0606557377032,106.72130625082355 170.8777049180353,105.34821908252343 169.44360655738274,104.77262332742976 169.0718032786972,104.7379487200451 167.69081967210514,104.94599608435237 165.15311475409544,105.5285251281748 162.2022950819519,105.15404277641937 162.019344262284,105.38982821480022 161.5,107.06804080431903 162.71573770491523,108.89876829420973 166.1268852459034,109.57140888116555 167.106557377032,110.3757945855541 167.28360655737924,111.08309095560253 167.93868852456217,112.71955081976193 168.02721311475034,113.48229332985647 168.84754098358098,116.87292117180186 169.47901639342308,120.5545664842648 169.59704918033094,120.90815976280282 170.0101639344066,121.42814635317336 170.4173770491907,121.65693912350253 172.2527868852485,122.3225134723616 174.25934426230378,123.57044684640277 174.63704918031,123.65364154533017 176.18327868852066,123.6813730878057 176.9622950819612,124.31226245425933 177.42262295080582,124.31919527013815 178.67967213114025,124.87381812310196 181.76032786883297,125.26205127996218 182.09672131147818,125.22045498216903 182.27967213114607,125.061002258597 182.50393442620407,124.4786498292815 182.81081967212958,123.14753879929049 182.98196721309796,121.70547081881523 182.92885245900834,121.40734697012522 182.61606557373307,121.20628592124558 182.5688524590223,121.07455592830229" stroke="#ff8300" stroke-dasharray="none" stroke-linecap="round" stroke-linejoin="round" stroke-width="0.5"><title>2026-05-16 35.3km</title><desc>1778887035000</desc></polyline><polyline fill="none" opacity="0.5" points="18.174104124074802,163.5 20.268693111254834,162.6880096293171 23.96502661809791,160.42602347195498 23.74324660759885,148.15876576688606 23.447539927088656,147.20172203087714 22.116859864559956,146.01266292706714 20.934033142402768,144.1565601134207 20.515115345129743,141.92341936350567 21.155813152785413,139.51624678750522 23.422897703712806,137.13805503866752 25.07392667012755,136.55800506626838 26.848166753421538,136.5 29.731306888745166,137.66009893949376 31.604115865542553,140.6183284840663 31.678042535786517,143.19950207255897 30.864849164150655,145.25862271079677 28.89347129384987,147.28872614819556 28.696333506843075,149.5798243980389 24.03895328810904,149.6958288513415 23.496824373840354,147.23072340645012 21.57473095029127,145.37462903614505 20.564399791765027,142.764474559488 20.810822025639936,140.41531377556385 21.969006524421275,138.35615589041845 24.655008872621693,136.6740151612903 28.00635125231929,136.73202018998563 29.60809577186592,137.57309169333894 30.64306915376801,138.64617908585933 31.825895875925198,141.6914036720991 31.135913621285,144.7655952674395 28.94275574060157,147.17272065213183 28.64704906020779,149.49282102510915 24.03895328810904,149.66682774270885 23.546108820592053,147.37573023725417 21.624015397159383,145.4326321798726 20.66296868515201,143.19950207255897 20.761537578771822,140.64733057274134 21.771868737298064,138.50116752742906 24.088237734977156,136.87703270663042 27.045304540428333,136.52900253466214 29.82987578236498,137.77610855695093 30.96341805777047,139.19722229189938 31.727326982538216,141.05335948400898 31.604115865542553,143.60552711377386 30.71699582389556,145.40363060956588 28.918113517342135,147.43373294762569 28.72097573033534,149.5218221526593 24.16216440522112,149.72482995686005 23.644677714211866,147.46273429811117 21.697942067170516,145.40363060956588 20.613684238516726,142.764474559488 21.007959812530316,139.83527090301504 22.412566545186564,137.86311573709827 25.36963335063774,136.5 28.055635698954575,136.73202018998563 29.928444675868377,137.86311573709827 31.727326982538216,140.9373512865568 31.653400312410668,143.31550929002697 30.569142483756877,145.60664153599646 28.918113517342135,147.23072340645012 28.819544623722322,149.4638198945031 24.112879958353005,149.72482995686005 23.447539927088656,147.17272065213183 21.919722077669576,145.78065077905194 20.78617980214767,143.7215341552801 20.564399791765027,141.40138377508265 21.45151983341202,138.64617908585933 21.57473095029127,138.93620196726988 22.56041988544166,137.77610855695093 24.16216440522112,136.84803020959953 27.636717901565135,136.6450126421987 24.16216440522112,136.84803020959953 22.56041988544166,137.77610855695093 21.57473095029127,138.93620196726988 21.45151983341202,138.64617908585933" stroke="#4dd2ff" stroke-dasharray="1,0.5" stroke-linecap="round" stroke-linejoin="round" stroke-width="0.5"><title>2026-05-12 15.2km</title><desc>1778590468000</desc></polyline><polyline fill="none" opacity="1" points="48.1741041240748,163.5 50.268693111254834,162.6880096293171 53.96502661809791,160.42602347195498 53.74324660759885,148.15876576688606 53.447539927088656,147.20172203087714 52.116859864559956,146.01266292706714 50.93403314240277,144.1565601134207 50.51511534512974,141.92341936350567 51.15581315278541,139.51624678750522 53.422897703712806,137.13805503866752 55.07392667012755,136.55800506626838 56.84816675342154,136.5 59.731306888745166,137.66009893949376 61.60411586554255,140.6183284840663 61.67804253578652,143.19950207255897 60.864849164150655,145.25862271079677 58.89347129384987,147.28872614819556 58.696333506843075,149.5798243980389 54.03895328810904,149.6958288513415 53.496824373840354,147.23072340645012 51.57473095029127,145.37462903614505 50.56439979176503,142.764474559488 50.810822025639936,140.41531377556385 51.969006524421275,138.35615589041845 54.65500887262169,136.6740151612903 58.00635125231929,136.73202018998563 59.60809577186592,137.57309169333894 60.64306915376801,138.64617908585933 61.8258958759252,141.6914036720991 61.135913621285,144.7655952674395 58.94275574060157,147.17272065213183 58.64704906020779,149.49282102510915 54.03895328810904,149.66682774270885 53.54610882059205,147.37573023725417 51.62401539715938,145.4326321798726 50.66296868515201,143.19950207255897 50.76153757877182,140.64733057274134 51.771868737298064,138.50116752742906 54.088237734977156,136.87703270663042 57.04530454042833,136.52900253466214 59.82987578236498,137.77610855695093 60.96341805777047,139.19722229189938 61.727326982538216,141.05335948400898 61.60411586554255,143.60552711377386 60.71699582389556,145.40363060956588 58.918113517342135,147.43373294762569 58.72097573033534,149.5218221526593 54.16216440522112,149.72482995686005" stroke="#4dd2ff" stroke-dasharray="none" stroke-linecap="round" stroke-linejoin="round" stroke-width="0.5"><title>2026-05-11 15.3km</title><desc>1778503630000</desc></polyline><polyline fill="none" opacity="1" points="93.84665323863737,155.02955626504263 90.5479011835996,158.26481078437064 90.1480524498038,163.02942325809272 80.90155047713779,163.44117792946054 79.75198536692187,158.50010127038695 76.9030631375499,155.91190031799488 74.05414090817794,151.38251897180453 73.80423544952646,145.9119171105558 75.25368711026385,142.0295210679178 79.15221226611175,138.08827245316934 81.90117231197655,136.91177478566533 85.99962183483876,136.55882498860592 90.5978822754696,137.9117979654111 92.64710703701712,139.4412416195264 95.99584018369205,144.8530845787609 96.39568891772069,148.08839972061105 95.49602926615626,152.50016203528503 90.69784445874393,157.97069753333926 90.39795790845528,162.73531258752337 80.95153156900778,163.5 79.70200427505188,158.5589238757384 75.1037438348867,153.5589796580025 73.60431108251214,148.20604718098184 74.45398964220658,143.50012889504433 77.25293077994138,139.26476757170167 83.65051052323543,136.5 89.2483927984722,137.32354925922118 93.3468423213344,140.08831263816683 95.34608599101193,143.14718337962404 96.3457078258507,147.02957143238746 95.04619944049045,153.38251019758172 90.44793900032528,158.44127865834162 90.1480524498038,163.08824537304463 80.90155047713779,163.44117792946054 79.80196645879187,158.79421423445456 74.95380055974238,153.38251019758172 73.7042732660193,149.8531089471653 74.55395182548091,143.44130465830676 77.15296859643422,139.6765402610763 82.65088868839666,136.6764749463182" stroke="#4dd2ff" stroke-dasharray="none" stroke-linecap="round" stroke-linejoin="round" stroke-width="0.5"><title>2026-05-10 11.2km</title><desc>1778422578000</desc></polyline><polyline fill="none" opacity="0.5" points="106.48006273433566,163.5 103.52943510981277,157.42290890100412 103.3819037284702,150.13033876172267 108.1029079281725,141.53543877106858 111.79119245847687,138.58363367349375 116.36466527637094,137.02090892614797 120.5693096416071,136.5 126.61809627199546,137.8890897175297 120.5693096416071,136.5 116.36466527637094,137.02090892614797 111.79119245847687,138.58363367349375 108.1029079281725,141.53543877106858 103.3819037284702,150.13033876172267 103.52943510981277,157.42290890100412 106.48006273433566,163.5 103.52943510981277,157.42290890100412 103.3819037284702,150.13033876172267 108.1029079281725,141.53543877106858 111.79119245847687,138.58363367349375 116.36466527637094,137.02090892614797 120.5693096416071,136.5 126.61809627199546,137.8890897175297 120.5693096416071,136.5 116.36466527637094,137.02090892614797 111.79119245847687,138.58363367349375 108.1029079281725,141.53543877106858 103.3819037284702,150.13033876172267 103.52943510981277,157.42290890100412 106.48006273433566,163.5 103.52943510981277,157.42290890100412 103.3819037284702,150.13033876172267 108.1029079281725,141.53543877106858 111.79119245847687,138.58363367349375 116.36466527637094,137.02090892614797 120.5693096416071,136.5 126.61809627199546,137.8890897175297 120.5693096416071,136.5 116.36466527637094,137.02090892614797 111.79119245847687,138.58363367349375 108.1029079281725,141.53543877106858 103.3819037284702,150.13033876172267 103.52943510981277,157.42290890100412 106.48006273433566,163.5 103.52943510981277,157.42290890100412 103.3819037284702,150.13033876172267 108.1029079281725,141.53543877106858 111.79119245847687,138.58363367349375 116.36466527637094,137.02090892614797 120.5693096416071,136.5 126.61809627199546,137.8890897175297 120.5693096416071,136.5 116.36466527637094,137.02090892614797 111.79119245847687,138.58363367349375 108.1029079281725,141.53543877106858 103.3819037284702,150.13033876172267 103.52943510981277,157.42290890100412 106.48006273433566,163.5 103.52943510981277,157.42290890100412 103.3819037284702,150.13033876172267 108.1029079281725,141.53543877106858 111.79119245847687,138.58363367349375 116.36466527637094,137.02090892614797 120.5693096416071,136.5 126.61809627199546,137.8890897175297 120.5693096416071,136.5 116.36466527637094,137.02090892614797 111.79119245847687,138.58363367349375 108.1029079281725,141.53543877106858 103.3819037284702,150.13033876172267 103.52943510981277,157.42290890100412 106.48006273433566,163.5 103.52943510981277,157.42290890100412 103.3819037284702,150.13033876172267 108.1029079281725,141.53543877106858 111.79119245847687,138.58363367349375 116.36466527637094,137.02090892614797 120.5693096416071,136.5 126.61809627199546,137.8890897175297 120.5693096416071,136.5 116.36466527637094,137.02090892614797 111.79119245847687,138.58363367349375 108.1029079281725,141.53543877106858 103.3819037284702,150.13033876172267 103.52943510981277,157.42290890100412 106.48006273433566,163.5 103.52943510981277,157.42290890100412 103.3819037284702,150.13033876172267 108.1029079281725,141.53543877106858 111.79119245847687,138.58363367349375 116.36466527637094,137.02090892614797 120.5693096416071,136.5 126.61809627199546,137.8890897175297 120.5693096416071,136.5 116.36466527637094,137.02090892614797 111.79119245847687,138.58363367349375 108.1029079281725,141.53543877106858 103.3819037284702,150.13033876172267 103.52943510981277,157.42290890100412 106.48006273433566,163.5 103.52943510981277,157.42290890100412 103.3819037284702,150.13033876172267 108.1029079281725,141.53543877106858 111.79119245847687,138.58363367349375 116.36466527637094,137.02090892614797 120.5693096416071,136.5 126.61809627199546,137.8890897175297 120.5693096416071,136.5 116.36466527637094,137.02090892614797 111.79119245847687,138.58363367349375 108.1029079281725,141.53543877106858 103.3819037284702,150.13033876172267 103.52943510981277,157.42290890100412 106.48006273433566,163.5 103.52943510981277,157.42290890100412" stroke="#4dd2ff" stroke-dasharray="1,0.5" stroke-linecap="round" stroke-linejoin="round" stroke-width="0.5"><title>2026-05-10 11.3km</title><desc>1778397813000</desc></polyline><polyline fill="none" opacity="0.5" points="143.1669132525567,163.5 142.55588433681987,158.40081890305737 137.94539342657663,154.0860935592209 135.72347009624355,148.46382940706098 136.05675859586336,143.10301713866647 140.3339610064868,136.5 136.05675859586336,143.10301713866647 135.72347009624355,148.46382940706098 137.94539342657663,154.0860935592209 142.55588433681987,158.40081890305737 143.1669132525567,163.5 154.27652990398929,163.17313070909586 154.27652990398929,158.00857241923222 154.27652990398929,163.17313070909586 143.1669132525567,163.5 142.55588433681987,158.40081890305737 137.94539342657663,154.0860935592209 135.72347009624355,148.46382940706098 136.05675859586336,143.10301713866647 140.3339610064868,136.5 136.05675859586336,143.10301713866647 135.72347009624355,148.46382940706098 137.94539342657663,154.0860935592209 142.55588433681987,158.40081890305737 143.1669132525567,163.5 154.27652990398929,163.17313070909586 154.27652990398929,158.00857241923222 154.27652990398929,163.17313070909586 143.1669132525567,163.5 142.55588433681987,158.40081890305737 137.94539342657663,154.0860935592209 135.72347009624355,148.46382940706098 136.05675859586336,143.10301713866647 140.3339610064868,136.5 136.05675859586336,143.10301713866647 135.72347009624355,148.46382940706098 137.94539342657663,154.0860935592209 142.55588433681987,158.40081890305737 143.1669132525567,163.5 154.27652990398929,163.17313070909586 154.27652990398929,158.00857241923222 154.27652990398929,163.17313070909586 143.1669132525567,163.5 142.55588433681987,158.40081890305737 137.94539342657663,154.0860935592209 135.72347009624355,148.46382940706098 136.05675859586336,143.10301713866647 140.3339610064868,136.5 136.05675859586336,143.10301713866647 135.72347009624355,148.46382940706098 137.94539342657663,154.0860935592209 142.55588433681987,158.40081890305737 143.1669132525567,163.5 154.27652990398929,163.17313070909586 154.27652990398929,158.00857241923222 154.27652990398929,163.17313070909586 143.1669132525567,163.5 142.55588433681987,158.40081890305737 137.94539342657663,154.0860935592209 135.72347009624355,148.46382940706098 136.05675859586336,143.10301713866647 140.3339610064868,136.5 136.05675859586336,143.10301713866647 135.72347009624355,148.46382940706098 137.94539342657663,154.0860935592209 142.55588433681987,158.40081890305737 143.1669132525567,163.5 154.27652990398929,163.17313070909586 154.27652990398929,158.00857241923222 154.27652990398929,163.17313070909586 143.1669132525567,163.5 142.55588433681987,158.40081890305737 137.94539342657663,154.0860935592209 135.72347009624355,148.46382940706098 136.05675859586336,143.10301713866647 140.3339610064868,136.5 136.05675859586336,143.10301713866647 135.72347009624355,148.46382940706098 137.94539342657663,154.0860935592209 142.55588433681987,158.40081890305737 143.1669132525567,163.5 154.27652990398929,163.17313070909586 154.27652990398929,158.00857241923222 154.27652990398929,163.17313070909586 143.1669132525567,163.5 142.55588433681987,158.40081890305737 137.94539342657663,154.0860935592209 135.72347009624355,148.46382940706098 136.05675859586336,143.10301713866647 140.3339610064868,136.5 136.05675859586336,143.10301713866647 135.72347009624355,148.46382940706098 137.94539342657663,154.0860935592209 142.55588433681987,158.40081890305737 143.1669132525567,163.5 154.27652990398929,163.17313070909586 154.27652990398929,158.00857241923222 154.27652990398929,163.17313070909586 143.1669132525567,163.5 142.55588433681987,158.40081890305737 137.94539342657663,154.0860935592209 135.72347009624355,148.46382940706098 136.05675859586336,143.10301713866647 140.3339610064868,136.5 136.05675859586336,143.10301713866647 135.72347009624355,148.46382940706098 137.94539342657663,154.0860935592209 142.55588433681987,158.40081890305737 143.1669132525567,163.5 154.27652990398929,163.17313070909586 154.27652990398929,158.00857241923222 154.27652990398929,163.17313070909586 143.1669132525567,163.5 142.55588433681987,158.40081890305737 137.94539342657663,154.0860935592209 135.72347009624355,148.46382940706098 136.05675859586336,143.10301713866647 140.3339610064868,136.5 136.05675859586336,143.10301713866647 135.72347009624355,148.46382940706098 137.94539342657663,154.0860935592209 142.55588433681987,158.40081890305737 143.1669132525567,163.5 154.27652990398929,163.17313070909586 154.27652990398929,158.00857241923222 154.27652990398929,163.17313070909586 143.1669132525567,163.5 142.55588433681987,158.40081890305737 137.94539342657663,154.0860935592209 135.72347009624355,148.46382940706098 136.05675859586336,143.10301713866647 140.3339610064868,136.5 136.05675859586336,143.10301713866647 135.72347009624355,148.46382940706098 137.94539342657663,154.0860935592209 142.55588433681987,158.40081890305737 143.1669132525567,163.5 154.27652990398929,163.17313070909586 154.27652990398929,158.00857241923222 154.27652990398929,163.17313070909586 143.1669132525567,163.5 142.55588433681987,158.40081890305737 137.94539342657663,154.0860935592209 135.72347009624355,148.46382940706098 136.05675859586336,143.10301713866647 140.3339610064868,136.5 136.05675859586336,143.10301713866647 135.72347009624355,148.46382940706098 137.94539342657663,154.0860935592209 142.55588433681987,158.40081890305737 143.1669132525567,163.5 154.27652990398929,163.17313070909586 154.27652990398929,158.00857241923222 154.27652990398929,163.17313070909586 143.1669132525567,163.5 142.55588433681987,158.40081890305737" stroke="#ffc700" stroke-dasharray="1,0.5" stroke-linecap="round" stroke-linejoin="round" stroke-width="0.5"><title>2025-11-09 21.3km</title><desc>1762645227000</desc></polyline><polyline fill="none" opacity="1" points="180.46103157731704,158.27619191340636 180.3114142739214,162.8543635251699 172.53131449222565,163.5 170.48654467822053,163.20652897033142 169.93794789840467,158.74574975605356 165.8982807046268,154.75449512444902 164.45198010420427,152.2305983476108 163.7038935867604,147.30016143113608 164.8010871456936,142.83925128087867 169.1399889467284,138.0848197727464 175.42391569307074,136.5 180.9098834877368,137.79133497952716 184.84980581281707,142.13489368959563 186.0467442406807,145.0110147569212 186.14648910984397,150.4697331698262 184.50069877132773,154.22623863216722 180.6106488807127,157.806633663713 180.36128670815378,162.79566926218104 170.7359068505466,163.3826116072014 169.78833059500903,158.45227615203476 165.8982807046268,154.81319025839912 163.95325575908646,150.0588638050831 163.85351089015603,145.36319179768907 166.1476428769529,140.66747910081176 170.43667224352248,137.38045600161422 176.42136438307352,136.61739421635866 180.71039374964312,137.85003195086028 185.29865772323683,142.78055484988727 186.29610641300678,146.53711361420574" stroke="#4dd2ff" stroke-dasharray="none" stroke-linecap="round" stroke-linejoin="round" stroke-width="0.5"><title>2025-11-01 10.0km</title><desc>1761964262000</desc></polyline><polyline fill="none" opacity="1" points="19.8683917557355,193.58562558802078 14.736783511703834,188.25673594034743 13.529346278170124,182.75016206502914 14.082755010109395,179.31592661776813 15.793291091453284,176.29615003586514 20.069631294813007,172.6250266257557 26.20743723376654,171.5 32.39555305754766,174.22374468977796 36.01786475908011,179.84882663568715 36.470653721829876,184.46727169805672 34.458258331986144,189.61856823577546 30.584397206781432,193.230367894168 29.930368704954162,198.5 20.52242025756277,198.5 20.019321409985423,193.52641598845366 16.447319593047723,190.56592783203814 14.384614318609238,187.07253118645167 13.831205586204305,180.20409302582266 17.302587633719668,174.46059141261503 22.383885993156582,171.79605986294337 28.82355124060996,172.0921195652336 33.60299029154703,175.5856119451928 36.11848452873528,180.79620316298679 36.2694141829852,185.0593772176071 34.760117640253156,189.26330796408" stroke="#4dd2ff" stroke-dasharray="none" stroke-linecap="round" stroke-linejoin="round" stroke-width="0.5"><title>2025-10-27 10.0km</title><desc>1761565093000</desc></polyline><polyline fill="none" opacity="1" points="65.32866945397109,188.3452878287644 60.557687003398314,193.30320007086266 60.40542160603218,198.0221353842644 50.81270157243125,198.5 49.69608865864575,193.54213447490474 46.193984519457445,190.43597914854763 43.60547276446596,184.46255435055355 44.01151382410899,179.3253572769463 46.09247425454669,175.32308918377385 51.929314486449584,171.55973597231787 59.13654329464771,171.85841573693324 61.87732044723816,173.1128689814941 63.70450521539897,175.08414688607445 66.44528236775659,180.99793832207797 66.39452723553404,185.05989974178374 65.17640405660495,188.5842243807274 60.506931870942935,193.48240088351304 60.40542160603218,198.0221353842644 50.660436175065115,198.44026694569038 49.94986432092264,193.84080233430723 45.02661647298373,188.6439585025073 43.55471763201058,184.52228891896084 44.31604461860843,177.83197705692146 46.04171912209131,175.382824741886 52.08157988381572,171.55973597231787 57.41086879163049,171.5 62.7401576989796,174.06864096678328 66.29301697062328,179.92270823247964 66.44528236775659,184.94043071527267" stroke="#4dd2ff" stroke-dasharray="none" stroke-linecap="round" stroke-linejoin="round" stroke-width="0.5"><title>2025-10-19 10.0km</title><desc>1760866141000</desc></polyline><polyline fill="none" opacity="1" points="73.90420003631152,185.5589910323033 74.15410544117913,178.67660156678176 76.80310272960924,174.85301417543087 78.75236488552764,173.44122125627473 84.55017027165741,171.5 90.59788106265478,172.9706228011055 93.59674591757357,175.3824355736724 95.89587563974783,178.9118983731023 96.24574320646934,185.6178144980804 94.69632969773374,189.32367999077542 90.64786214358173,193.32363341550808 90.54789998196065,197.97060113667976 81.65126757859252,198.5 80.5017027175054,198.20588958403096 79.80196758476086,193.44127865845803 76.1033675968647,189.79426427558064 73.80423787469044,184.85310894751456 73.65429463190958,180.85309313522885 76.30329192080535,175.55890925851418 78.45247839996591,173.61769557197113 82.35100271133706,171.91177478578174 88.24877025955357,171.91177478578174 92.5971242992673,174.38241694349563 96.34570536809042,180.38250110280933 95.89587563974783,186.44134234864032 94.49640537425876,189.44132610032102" stroke="#4dd2ff" stroke-dasharray="none" stroke-linecap="round" stroke-linejoin="round" stroke-width="0.5"><title>2025-10-16 10.0km</title><desc>1760611285000</desc></polyline><polyline fill="none" opacity="1" points="105.02993691642769,188.8017038978287 103.65650985878892,184.79063045879593 103.85998053383082,179.46244311408373 106.75943765533157,174.67301739490358 112.66008723527193,171.5 119.6289578601718,172.09868392179487 124.00357737648301,175.39143389865058 126.44522547838278,181.3183344232384 125.32613676507026,188.20303806831362 120.49370822962373,193.3515430118423 120.23936988576315,198.2605379477609 110.52364514605142,198.5 109.76063011400402,193.59100719093112 105.43687826651148,189.22076959279366 103.55477452138439,184.670896475669 103.75824519642629,179.82164837000892 105.53861360414885,175.93024566362146 111.49013085314073,171.8592104309355 117.69598644576035,171.55986842134735 120.64631123607978,172.57763059221907" stroke="#4dd2ff" stroke-dasharray="none" stroke-linecap="round" stroke-linejoin="round" stroke-width="0.5"><title>2025-10-08 10.1km</title><desc>1759919017000</desc></polyline><polyline fill="none" opacity="1" points="150.10368569754064,198.20265040214872 140.40162971778773,198.38106018013787 139.49206196982414,193.14768260257551 136.40963793476112,190.5309751086752 134.1862501061987,187.14113095082575 133.6304031489417,181.1345135900774 136.20751176867634,175.60360979108373 139.03727809572592,172.9868186848471 141.56385517376475,171.91630963765783 147.67817170266062,171.5 153.48929898208007,174.9494131837273 155.6116237277165,177.86355570948217 156.4201283925213,184.1675662130583 154.85365060414188,188.8063201699406 150.50793802994303,193.14768260257551 150.10368569754064,198.14318046334665 140.60375588433817,198.5 139.79525121930055,193.44503493764205 137.06654797494411,191.4230358825298 134.7926286046859,188.21161031414522 133.5798716074787,181.49134418019094 135.80325943604112,176.07938865217147" stroke="#4dd2ff" stroke-dasharray="none" stroke-linecap="round" stroke-linejoin="round" stroke-width="0.5"><title>2025-10-01 10.0km</title><desc>1759271073000</desc></polyline><polyline fill="none" opacity="1" points="186.5726163419895,180.98014991596574 186.47065496467985,185.36016438377555 184.32946603768505,190.16014046623604 180.6588564494159,193.40010081010405 180.20003025070764,198.3800029112026 170.46271870308556,198.5 169.85095043829642,193.70009617996402 164.09013261157088,187.4001593007706 163.4273836580105,183.8001632015803 163.88620985671878,179.30013517703628 167.04701255820692,174.56006612384226 173.1137145170942,171.5 179.69022336322814,172.22001707943855 183.30985226319171,174.74006948713213 186.26673220959492,180.02014211774804 186.52163565321825,185.12016448780196 184.38044672668912,189.92014264996396 180.60787576041184,193.34010171686532 180.60787576041184,198.02001148939598 179.9961074956227,198.44000145880273 170.46271870308556,198.5 169.79996974929236,193.70009617996402 166.43524429295212,190.64013578707818 164.24307467788458,187.0401607437525 163.5803257243242,180.68014765775297 166.69014773680829,174.80007059528725 173.01175313955173,171.5 180.81179851549678,172.58002526819473 184.89025361370295,176.72010262170807 186.5726163419895,181.34015241125599" stroke="#4dd2ff" stroke-dasharray="none" stroke-linecap="round" stroke-linejoin="round" stroke-width="0.5"><title>2025-09-27 10.0km</title><desc>1758965825000</desc></polyline><polyline fill="none" opacity="1" points="33.584167691878974,226.11501243221574 30.572179028065875,228.3009791696095 30.22078035073355,233.26368194638053 20.431817193282768,233.5 19.82941946038045,228.12373894953635 15.110637220321223,223.81087584747002 13.705042510759085,219.85246463294607 13.55444307741709,216.66208244895097 14.709038731874898,212.88086458528414 19.678820027038455,207.6225649213884 26.40559470979497,206.5 33.282968825427815,208.6860453475383 35.94355881190859,213.5307632710319 36.44555692235008,219.32073556474643 34.78896315721795,224.10627851769095 30.622378839179873,228.3009791696095 30.321179972728714,233.5 20.431817193282768,233.44092049618484 19.879619271494448,228.59637940808898 16.064433630555868,225.16972680570325 13.705042510759085,219.7343026623712 14.608639109879732,212.88086458528414 18.875623050145805,208.39063432597322 22.992007557302713,206.5590824218816 32.12837317097001,207.8588940843474" stroke="#4dd2ff" stroke-dasharray="none" stroke-linecap="round" stroke-linejoin="round" stroke-width="0.5"><title>2020-04-24 10.0km</title><desc>1587724293000</desc></polyline><polyline fill="none" opacity="1" points="47.52245430694893,209.1342044044286 43.96171826287173,214.76178084360436 44.47039484069683,222.90370491048088 49.86236656457186,228.71073924162192 50.2693078268785,233.5 60.13763343519531,233.32040347048314 60.493707039626315,228.2916769507574 64.71572263492271,224.28063609451056 66.34348768391646,219.07222617196385 65.68220813269727,214.2828403986059 62.73188398173079,209.49341312301112 56.52602973324247,206.5 52.15141116455197,206.9190788131673 46.555968809407204,209.5532812202582 43.656512316083536,215.12098590494134 44.11432123626582,221.8859709611861 46.047292231814936,225.23849924316164 49.65889593353495,228.59100719098933 50.16757251136005,233.4401344967191 60.13763343519531,233.32040347048314 60.188501093070954,228.59100719098933 64.61398731940426,224.16090308438288 66.08914939477108,219.49129545275355" stroke="#4dd2ff" stroke-dasharray="none" stroke-linecap="round" stroke-linejoin="round" stroke-width="0.5"><title>2020-04-16 10.0km</title><desc>1587033949000</desc></polyline><polyline fill="none" opacity="1" points="74.76464467658661,213.0869359006756 73.65539434575476,216.8847728568362 74.15959904156625,221.63203202938894 76.7310429897625,225.7858500619186 80.10921445116401,228.69350394658977 80.71426008595154,233.5 90.39499024441466,233.08462546241935 90.44541071401909,228.27812576520955 95.03367344522849,223.7089449823252 96.39502612338401,218.78368146222783 95.94124189740978,215.04519886890193 93.6723207666073,210.7726160956663 89.84036507899873,207.62749915063614 87.16808019136079,206.5 82.47897652117535,206.97473676729714 77.03356580715626,209.1703889646451 74.10917857196182,214.68915157712763 73.60497387638316,218.36829576722812 74.66380373737775,223.23422271583695 80.0587939817924,228.51548476453172 80.4621577381622,233.32198237959528 90.54625165299512,232.78792917134706 90.49583118339069,228.21878599893535 94.83199156681076,224.064986412297 96.24376471503638,219.37708905147156 95.68913954938762,214.0957389100222" stroke="#4dd2ff" stroke-dasharray="none" stroke-linecap="round" stroke-linejoin="round" stroke-width="0.5"><title>2020-04-14 10.0km</title><desc>1586861907000</desc></polyline><polyline fill="none" opacity="1" points="103.60632621170953,219.96996206103358 104.78675187448971,222.92968590953387 110.12432878417894,228.66788127523614 110.32962020393461,233.5 120.54286832921207,233.2583950581029 120.6455140390899,228.72828301775735 125.3158938351553,223.71491613076068 126.5476423529908,219.18472656677477 126.1883823685348,215.01691966503859 122.33916825079359,208.43292934907367 117.56614274485037,206.5 111.76666014106013,206.8020206525689 106.78834321559407,209.0973722654162 103.4523576470092,217.01022250426468 105.09468900389038,223.29209999513114 110.07300592935644,228.84908648312557 110.38094305852428,233.5 120.3375769094564,233.31879630329786 120.54286832921207,228.54707777069416" stroke="#4dd2ff" stroke-dasharray="none" stroke-linecap="round" stroke-linejoin="round" stroke-width="0.5"><title>2020-04-13 10.0km</title><desc>1586775592000</desc></polyline><polyline fill="none" opacity="1" points="147.9127747938037,206.5 142.08722520666197,206.6820268292213 136.62255037249997,209.83714913611766 134.45730185322464,213.41697792510968 133.63244527461939,216.69341134105343 134.50885538943112,222.6394822964794 135.84924732986838,225.1271055007237 139.81886961497366,228.5854901377461 140.43751204921864,233.5 149.92336270445958,233.13596371089807 150.69666574709117,228.10010410827817 154.0991991343908,225.0664318955387 155.95512643642724,221.8507214129786 156.5222153342329,216.93610935035395 155.18182339379564,211.83942907484015 152.14016475970857,208.44161646143766 146.8817040703725,206.5 141.36547570000403,206.9854047463159 137.13808573409915,209.41242216835963 135.07594428723678,211.90010411286494 133.47778466599993,216.93610935035395 133.63244527461939,219.84847725898726 135.43681904068217,224.70239012589445 139.87042315118015,228.76750979019562 140.33440497680567,233.43932730145752 150.07802331307903,233.19663644209504 150.74821928329766,228.22145065519726 154.82094864058308,224.15632702823495 156.36755472584628,220.75858912529657 156.47066179825924,215.47991971776355 155.18182339379564,211.77875403041253 150.23268392146565,207.53148458321812" stroke="#4dd2ff" stroke-dasharray="none" stroke-linecap="round" stroke-linejoin="round" stroke-width="0.5"><title>2020-04-12 10.0km</title><desc>1586649823000</desc></polyline><polyline fill="none" opacity="1" points="170.39170143636875,233.4410494939657 169.94088962045498,228.48918418982066 165.28250085539185,224.59840127453208 163.879975205753,221.8276752733509 163.52934379316866,217.1704657477094 164.28069681976922,213.63331796164857 169.2897169974167,207.91488041746197 172.99639192898758,206.5 179.70847896696068,207.62011396704474 184.01623631967232,210.33195928751957 186.37047580303624,215.69665696378797 186.4706562065985,219.29274338524556 184.6674089427106,224.53944980440428 180.5600123971235,228.66603729780763 180.30956138833426,233.5 170.39170143636875,233.5 169.84070921689272,228.48918418982066 165.83349307486787,225.07001280621625 164.0803360126447,221.8276752733509 163.7797948019579,215.57875208870973 166.3844852943439,210.80358318140497 169.4399876028765,207.97383368824376 171.69404668267816,207.0895339542185 177.35423948336393,206.79476705699926 183.0645224857144,208.97603831632296 186.2702953997068,215.10713233274873 186.4205660049338,219.5285515006981" stroke="#4dd2ff" stroke-dasharray="none" stroke-linecap="round" stroke-linejoin="round" stroke-width="0.5"><title>2020-04-08 10.0km</title><desc>1586343893000</desc></polyline><polyline fill="none" opacity="1" points="30.3247722981032,263.6389281452866 30.3247722981032,268.38286625238834 20.57098378962837,268.5 19.97381306439638,263.5803607479902 15.096918809926137,258.6606767378398 13.504463543416932,252.80385169835063 14.798333447659388,248.0012078282889 19.227349658031017,242.78853388881544 24.900471545755863,241.5 31.618642202112824,243.54993883433053 33.80826819385402,245.77557791187428 36.34624377544969,251.80818513268605 35.55001614196226,257.1379083301872 33.16133324196562,261.12052433774807 30.523829206591472,263.52179334452376 30.225243844091892,268.38286625238834 20.371926881140098,268.4414331293665 19.874284610152245,263.46322593459627 15.295975718414411,259.4806271811249 13.55422777030617,254.44376910390565 14.300691176671535,249.23115727299592 19.376642339397222,242.7299642332946 24.900471545755863,241.67570934747346 31.76793488371186,243.25709090515738 34.554731600219384,247.12267079757294 36.44577222969383,252.27673433319433 36.49553645635024,254.97088435664773" stroke="#4dd2ff" stroke-dasharray="none" stroke-linecap="round" stroke-linejoin="round" stroke-width="0.5"><title>2020-04-07 10.0km</title><desc>1586257895000</desc></polyline><polyline fill="none" opacity="1" points="60.189105816883966,268.0324790272862 50.85368099762127,268.5 50.10883327270858,263.7663314387901 46.08665555808693,260.37676547351293 44.10039495816454,256.11055735487025 44.199707988183945,249.85728723701322 46.08665555808693,246.17542140028672 49.81089418265037,242.72730203950778 53.584789322456345,241.5584430177114 57.259371432242915,241.67532903369283 63.16849671676755,245.0650124863605 65.55200943676755,249.38975011080038 65.70097898179665,256.28588164091343 63.416779292048886,260.49364741303725 60.2884188471362,263.4741283151088 60.189105816883966,268.0909191710525 50.80402448261157,268.38311979477294 50.05917675793171,263.53256895247614 45.54043389321305,259.55859118833905 43.90176889812574,255.52614265697775 44.00108192814514,250.73391825705767 46.43425116292201,245.76632364524994 50.307459332747385,242.376644598844 56.51452370733023,241.5 62.47330550686456,244.48058582423255 64.95613125665113,247.63648227899102 65.84994852659293,250.61703420319827 66.09823110187426,254.707961016451 65.30372686171904,257.6300326071796" stroke="#4dd2ff" stroke-dasharray="none" stroke-linecap="round" stroke-linejoin="round" stroke-width="0.5"><title>2020-04-02 10.0km</title><desc>1585825459000</desc></polyline><polyline fill="none" opacity="1" points="96.14996696752496,254.9711377255735 94.07784921233542,260.13885503058555 90.4763112096116,263.50655410508625 90.27896666177548,268.5 80.41173925693147,268.26774773397483 80.01705016032793,263.85493556043366 75.23144486919045,259.0937027405598 73.75136075844057,252.8808109575184 75.03410032112151,247.88721957273083 79.86904174950905,243.06777912459802 84.70398317766376,241.79032981354976 91.66037849825807,243.64843689615373 95.31125263823196,248.81626335246256 96.24863924155943,254.44855679775355 95.11390808993019,258.68725407740567 90.27896666177548,263.6807448611362 90.22963052452542,268.44193694298156 80.55974766798317,268.44193694298156 79.72103333845735,263.56461769680027 76.41551215783693,260.71949431148823 74.29405826586299,257.5840347239864 73.75136075844057,252.0098390650237 76.46484829485416,245.97106169210747 82.237176326802,241.5 86.924109343905,242.02259355102433 93.14046260900795,245.50653753784718 96.00195855647326,250.7324110629852" stroke="#4dd2ff" stroke-dasharray="none" stroke-linecap="round" stroke-linejoin="round" stroke-width="0.5"><title>2020-03-23 10.0km</title><desc>1584960411000</desc></polyline><polyline fill="none" opacity="1" points="117.73815619805828,241.79032981343335 122.32641793531366,243.76456837472506 125.48393138870597,248.93239371158415 126.12530130892992,254.7969441395835 124.25052769598551,259.7904711601441 120.20496358373202,263.6807448610198 120.05695514054969,268.2677477338584 110.33773404126987,268.38387387938565 109.69636412127875,263.5065541048534 106.34150607697666,260.3130468807067 104.07204328197986,256.6550061390153 103.87469869107008,250.90660596982343 105.9468168951571,246.1452581459307 112.40985224512406,241.5 120.10629128827713,242.37098896864336 123.51048548030667,244.98394738335628 125.53326753643341,248.93239371158415 126.12530130892992,254.56468593655154 124.39853613893501,259.5582151208073 120.25429973145947,263.6807448610198 120.10629128827713,268.32581080973614 110.33773404126987,268.5" stroke="#4dd2ff" stroke-dasharray="none" stroke-linecap="round" stroke-linejoin="round" stroke-width="0.5"><title>2019-12-13 10.0km</title><desc>1576239112000</desc></polyline><polyline fill="none" opacity="0.5" points="150.57892879843712,241.5 151.10032401327044,250.95007318432909 147.4505575094372,260.2773408591747 138.89967598672956,268.5 147.4505575094372,260.2773408591747 151.10032401327044,250.95007318432909 150.57892879843712,241.5 151.10032401327044,250.95007318432909 147.4505575094372,260.2773408591747 138.89967598672956,268.5 147.4505575094372,260.2773408591747 151.10032401327044,250.95007318432909 150.57892879843712,241.5 151.10032401327044,250.95007318432909 147.4505575094372,260.2773408591747 138.89967598672956,268.5 147.4505575094372,260.2773408591747 151.10032401327044,250.95007318432909 150.57892879843712,241.5 151.10032401327044,250.95007318432909 147.4505575094372,260.2773408591747 138.89967598672956,268.5 147.4505575094372,260.2773408591747 151.10032401327044,250.95007318432909 150.57892879843712,241.5 151.10032401327044,250.95007318432909 147.4505575094372,260.2773408591747 138.89967598672956,268.5 147.4505575094372,260.2773408591747 151.10032401327044,250.95007318432909 150.57892879843712,241.5 151.10032401327044,250.95007318432909 147.4505575094372,260.2773408591747 138.89967598672956,268.5 147.4505575094372,260.2773408591747 151.10032401327044,250.95007318432909 150.57892879843712,241.5 151.10032401327044,250.95007318432909 147.4505575094372,260.2773408591747 138.89967598672956,268.5 147.4505575094372,260.2773408591747 151.10032401327044,250.95007318432909 150.57892879843712,241.5 151.10032401327044,250.95007318432909 147.4505575094372,260.2773408591747 138.89967598672956,268.5 147.4505575094372,260.2773408591747 151.10032401327044,250.95007318432909 150.57892879843712,241.5 151.10032401327044,250.95007318432909 147.4505575094372,260.2773408591747 138.89967598672956,268.5 147.4505575094372,260.2773408591747 151.10032401327044,250.95007318432909 150.57892879843712,241.5 151.10032401327044,250.95007318432909 147.4505575094372,260.2773408591747 138.89967598672956,268.5 147.4505575094372,260.2773408591747 151.10032401327044,250.95007318432909 150.57892879843712,241.5 151.10032401327044,250.95007318432909 147.4505575094372,260.2773408591747 138.89967598672956,268.5 147.4505575094372,260.2773408591747 151.10032401327044,250.95007318432909 150.57892879843712,241.5 151.10032401327044,250.95007318432909 147.4505575094372,260.2773408591747 138.89967598672956,268.5 147.4505575094372,260.2773408591747 151.10032401327044,250.95007318432909 150.57892879843712,241.5 151.10032401327044,250.95007318432909 147.4505575094372,260.2773408591747 138.89967598672956,268.5 147.4505575094372,260.2773408591747 151.10032401327044,250.95007318432909 150.57892879843712,241.5 151.10032401327044,250.95007318432909 147.4505575094372,260.2773408591747 138.89967598672956,268.5 147.4505575094372,260.2773408591747" stroke="#4dd2ff" stroke-dasharray="1,0.5" stroke-linecap="round" stroke-linejoin="round" stroke-width="0.5"><title>2019-11-23 10.0km</title><desc>1574497580000</desc></polyline></svg>