<?xml version="1.0" encoding="utf-8" ?>
<svg baseProfile="full" height="300mm" version="1.1" viewBox="0,0,200,300" width="200mm" xmlns="http://www.w3.org/2000/svg" xmlns:ev="http://www.w3.org/2001/xml-events" xmlns:xlink="http://www.w3.org/1999/xlink"><defs /><rect fill="#222222" height="300" width="200" x="0" y="0" /><text fill="#FFFFFF" style="font-size:12px; font-family:Arial; font-weight:bold;" x="10" y="20">Over 10km Runs</text><text fill="#FFFFFF" style="font-size:4px; font-family:Arial" x="10" y="280">Runner</text><text fill="#FFFFFF" style="font-size:9px; font-family:Arial" x="10" y="290">Floyd Li</text><text fill="#FFFFFF" style="font-size:4px; font-family:Arial" x="65" y="280">SPECIAL TRACKS</text><rect fill="yellow" height="2.6" width="2.6" x="65" y="283" /><text fill="#FFFFFF" style="font-size:3px; font-family:Arial" x="70" y="285.5">Over 20.0 km</text><rect fill="red" height="2.6" width="2.6" x="65" y="287" /><text fill="#FFFFFF" style="font-size:3px; font-family:Arial" x="70" y="289.5">Over 40.0 km</text><text fill="#FFFFFF" style="font-size:4px; font-family:Arial" x="120" y="280">STATISTICS</text><text fill="#FFFFFF" style="font-size:3px; font-family:Arial" x="120" y="285">Number: 18</text><text fill="#FFFFFF" style="font-size:3px; font-family:Arial" x="120" y="290">Weekly: 1.5</text><text fill="#FFFFFF" style="font-size:3px; font-family:Arial" x="141" y="285">Total: 180.3 km</text><text fill="#FFFFFF" style="font-size:3px; font-family:Arial" x="141" y="290">Avg: 10.0 km</text><text fill="#FFFFFF" style="font-size:3px; font-family:Arial" x="167" y="285">Min: 10.0 km</text><text fill="#FFFFFF" style="font-size:3px; font-family:Arial" x="167" y="290">Max: 10.1 km</text><polyline fill="none" points="22.758648327551782,35.500616942183115 29.999346505384892,32.33785468322458 39.40478949947283,33.655673789966386 43.65963275870308,36.29130557947792 46.72013405011967,40.06902954215184 49.63134259590879,47.53657165344339 47.24265866121277,58.07886700122617 40.37519234837964,65.45839221717324 40.44983872119337,71.6957956989645 25.81914961943403,72.57429937826237 24.400868533179164,65.19483890139963 18.429158695507795,59.30879253317835 15.36865740409121,51.75350623537088 15.81653564190492,44.900976405944675 19.623500663321465,37.87268054217566 27.08813796006143,33.128546404244844 36.34428820759058,32.60141867591301 43.51034001307562,36.02774278621655 49.10881798574701,44.637416410201695 48.81023249356076,54.47693150117993 45.45114570995793,60.45086457114667 40.74842421291396,64.75558318459662 40.37519234837964,71.95934690278955 26.416320603340864,72.57429937826237 24.475514905992895,65.01913664321182 16.56299937143922,55.882566770073026 15.44330377690494,48.76651317119831 17.01087760925293,42.00181174190948 23.05723381973803,35.061345143651124 32.23873769491911,32.25 40.97236333228648,34.18280083313584 44.6300356076099,37.43341002857778 48.586293374653906,43.75888247229159 49.407403477001935,48.76651317119831 48.73558612028137,53.86196530482266 46.64548767730594,58.95738542836625 40.5991314672865,64.93128549994435 40.37519234837964,71.78364610957215 28.73035816522315,72.75 25.669856873806566,72.31074837426422 24.848746770527214,65.63409438036615 18.802390560507774,59.66019948525354 16.63764574425295,55.882566770073026 15.517950150184333,48.502954431343824 17.160170355346054,41.82610445970204 23.654404803179204,34.70992753357859 33.05984779726714,32.33785468322458 41.270948824007064,34.27065530716209 47.16801228839904,40.77185996581102 48.959525239653885,45.07668302214006 49.10881798574701,53.24699864239665 46.64548767730594,58.86953362857457 40.82307058619335,64.22847601026297 40.44983872119337,71.6957956989645 26.043088738340884,72.57429937826237 24.62480765208602,65.19483890139963 18.802390560507774,59.74805119942175 15.891182014718652,52.63203151372727 15.741889268625528,45.603802642493974 19.175622425042093,38.57551286939997 25.595210500527173,33.655673789966386 34.5527752568014,32.51356402144302 40.97236333228648,34.358509771409445 47.83982964511961,41.73825080413371 49.332757104188204,47.3608655698481 48.511647001840174,55.00404501229059 45.60043845605105,60.099457961390726 40.5991314672865,64.8434343469562 40.30054597510025,71.78364610957215 36.120349089149386,72.57429937826237 25.744503246620297,72.48644905304536 24.69945402489975,65.19483890139963 19.175622425042093,60.1873096281779 16.861584863159806,56.14612311183009 15.741889268625528,45.51594939624192 21.265720868483186,36.46701406099601 29.327529148664325,32.60141867591301 39.55408224556595,33.83138284238521 46.64548767730594,39.98117569630267 49.25811073137447,47.18515944847604 48.66093974746764,54.56478377705207 45.376499337144196,60.53871619980782 40.74842421291396,64.57988083147211 40.44983872119337,71.78364610957215 35.82176359696314,72.48644905304536 25.669856873806566,72.31074837426422 24.774100398179144,65.28269001637818 19.02632967941463,60.099457961390726 15.965828387998044,53.86196530482266 16.488352998625487,43.231761652743444 22.161477344110608,35.764179906924255 28.805004538036883,32.68927332101157 37.240044683683664,32.952837199380156 42.46529079135507,35.32490825105924 46.27225581277162,39.45405242173001 49.332757104188204,47.009453288977966 48.511647001840174,55.09189723111922 45.60043845605105,60.1873096281779 40.67377784010023,64.49202964012511 40.37519234837964,71.6957956989645 35.89640997024253,72.39859871834051" stroke="#4DD2FF" stroke-linecap="round" stroke-linejoin="round" stroke-width="0.5"><title>2025-11-01 10.0km</title><desc>1761964262000</desc></polyline><polyline fill="none" points="92.94797821855173,42.63932286173804 94.21972460951656,48.362198225571774 93.84568155370653,53.73285999544896 90.2548682144843,60.864339633903 85.61673431843519,64.73820358410012 84.79383959434927,72.30979345581727 70.58020346099511,72.75 69.45807429263368,65.53058257250814 62.87491650460288,59.015443512937054 60.10699788900092,51.35568621207494 60.78027539001778,43.695856730802916 64.22147150663659,38.23708362481557 68.56037095794454,34.62722965958528 76.78931819321588,32.25 83.52209320385009,33.48263846914051 87.63656682148576,35.6837739427574 93.09759544115514,43.255634452274535 94.14491599844769,51.09155536291655 91.8258490501903,58.66327234666096 85.2426912621595,65.2664563288563 84.8686482058838,72.30979345581727 70.28096901578829,72.4858761021751 69.15883984789252,65.1784142286051 63.697811227757484,60.5121692683897 61.37874427996576,56.198069909296464 60.40623233420774,46.16109708492877 64.81994039658457,37.79685838986188 72.37561013037339,33.21850181167247 80.90379181085154,32.95436506840633 88.68388737877831,36.916407204582356 93.17240405222401,43.695856730802916 94.21972460951656,51.35568621207494 91.8258490501903,58.57522953127045 85.3923084847629,64.6501614265726 84.71903098374605,72.39783478394384 70.35577762732282,72.5739174108603 69.45807429263368,65.2664563288563 61.82759594731033,57.34262911364203 60.03218927793205,49.1545931774308 60.85508400108665,44.04803438199451 63.398576783481985,39.55775789933978 69.7573087378405,34.09895700274501 78.88395930733532,32.42609132442158 88.08541848883033,36.47618125437293 93.47163849743083,44.840433539066 94.14491599844769,51.70786054478958 91.15257154917344,59.36761452682549 85.3923084847629,64.73820358410012 84.41979653853923,72.5739174108603 70.43058623885736,72.5739174108603 69.68250012630597,65.1784142286051 64.37108872877434,60.77629705693107 61.30393566843122,55.5817681318149 60.48104094481096,45.368699214828666 65.64283511973917,36.82836203352781 73.19850485445932,32.86631946847774 82.77400709176436,33.30654737353325 89.88082515867427,38.50121865153778 93.62125572003424,46.24914124485804 93.84568155370653,52.588295708585065 91.60142321651801,58.83935794897843 85.31749987322837,65.09037211898249 85.01826542802155,72.04566941503435 84.0457534827292,72.4858761021751 70.35577762732282,72.5739174108603 69.15883984789252,65.09037211898249 64.07185428449884,60.77629705693107 61.30393566843122,55.84589752188185 60.48104094481096,45.63283192412928 65.49321789760143,37.09249751799507 73.79697374394163,32.86631946847774 83.67171042598784,33.570684002595954 89.80601654713973,38.14903859695187 93.69606433110312,46.16109708492877 93.77087294263765,53.5567732869531 90.62891127076,60.248041394283064 85.46711709583178,65.00232999963919 84.71903098374605,72.30979345581727 70.35577762732282,72.5739174108603 69.53288290416822,65.4425405007787 64.29628011770546,60.60021187411621 61.30393566843122,55.84589752188185 60.7054667789489,45.104566419962794 65.26879206392914,37.53272313444177 74.39544263388962,32.60218261054251 83.97094487119466,33.39459292613901 90.1052509918809,38.23708362481557 93.77087294263765,46.07305291516241 93.69606433110312,53.64481664588675 91.4518059939146,59.10348628112115 85.31749987322837,65.2664563288563 85.61673431843519,71.7815452881041 86.29001181898639,65.6186246345751 92.199892106466,59.455657256708946 94.81819349946454,53.38068654021481 94.96781072206795,46.77740600518882 92.72355238487944,40.43820622365456" stroke="#4DD2FF" stroke-linecap="round" stroke-linejoin="round" stroke-width="0.5"><title>2025-10-27 10.0km</title><desc>1761565093000</desc></polyline><polyline fill="none" points="113.82379464944825,35.69688878051238 116.89890540624037,33.7149295565323 120.92583615984768,33.025551277794875 130.37081919936463,34.57665156503208 136.66747455950826,41.211879764683545 139.0104160886258,48.019394037895836 138.42468070611358,54.48217014234979 136.66747455950826,58.96299742272822 130.29760227631778,65.33951581123983 130.29760227631778,71.80215122085065 115.94708541035652,72.40532784728566 114.92204849142581,65.33951581123983 108.99147774558514,59.73852265952155 106.06280083395541,53.44812949374318 105.98958391137421,46.03746551356744 109.57721312809736,38.71290421200683 117.99715924821794,33.542585042945575 128.46717920713127,33.88727403280791 131.90837457822636,35.69688878051238 135.86208840832114,40.00547875382472 139.08363301120698,48.10556473134784 137.10677609592676,57.84279296855675 130.37081919936463,65.081009303045 130.15116843115538,71.80215122085065 115.80065156472847,72.40532784728566 114.84883156837896,65.33951581123983 109.8700808188878,60.94489374704426 106.28245160263032,54.22366010630503 106.20923467958346,45.2619269209099 109.28434543684125,39.488449189346284 117.11855617491528,34.05961847206345 125.39206844987348,33.45641277224058 131.24942227313295,35.61071674292907 134.25131610687822,38.10970204061596 139.08363301120698,46.81300335022388 138.93719916557893,52.586427926435135 137.25320994155481,57.92896259803092 130.37081919936463,65.081009303045 130.15116843115538,71.88831933826441 116.31317002419382,72.57766394212376 114.7023977227509,65.42568462877534 109.65043005067855,60.94489374704426 105.91636698832735,52.32791727426229 106.50210237083957,44.91724285943201 109.5039962050505,39.143762626103126 117.92394232563674,33.7149295565323 128.3207453615032,34.14579067757586 132.27445919206366,35.955404836975504 134.9102684124373,38.79907591332449 138.86398224253207,47.330028154712636 138.79076532041654,53.18961912143277 137.03355917334557,58.27364102227148 130.29760227631778,65.33951581123983 130.15116843115538,71.88831933826441 116.09351925551891,72.49149589933222 115.0684823365882,65.85652857588138 107.96644082618877,58.35981060494669 105.84315006574616,52.41408750117989 106.94140390725806,42.762964090448804 109.43077928200364,39.22993428079644 118.143593093846,33.7149295565323 125.83136998675764,33.62875730439555 133.51914687966928,37.33415571920341 138.6443314747885,45.77895273338072 138.86398224253207,53.0172788266791 136.1549561000429,59.566183783172164 130.51725304499269,64.90867158438778 130.07795150810853,71.97448744630674 116.16673617856577,72.75 115.0684823365882,65.77035980497021 109.5039962050505,60.514047139906324 106.42888544779271,54.39600013953168 106.28245160263032,46.209807320381515 109.35756235942245,39.488449189346284 115.94708541035652,34.57665156503208 123.48842845764011,33.284068202308845 131.98159150080755,35.955404836975504 137.54607763281092,42.59062153712148 139.15684993425384,48.27790609013755 138.49789762916043,54.740680094459094 136.2281730226241,59.566183783172164 130.4440361224115,64.90867158438778 130.22438535420224,72.06065554515226 115.80065156472847,72.23299171490362 114.99526541354135,65.42568462877534 109.8700808188878,60.85872444428969 106.94140390725806,56.11939842061838 105.91636698832735,46.46831996081164 109.7968638963066,38.88524760561995 113.31127618998289,35.955404836975504 119.38828078098595,33.542585042945575 129.19934843480587,34.49047940631863 133.2262791879475,37.24798385926988 136.2281730226241,41.12570832442725 137.32642686460167,39.91930718295043 131.61550688697025,34.3181350606028 124.22059768531471,32.25 115.72743464214727,33.542585042945575 110.38259927835315,37.24798385926988 108.47895928611979,39.74696401361143 110.82190081523731,38.28204556478886" stroke="#4DD2FF" stroke-linecap="round" stroke-linejoin="round" stroke-width="0.5"><title>2025-10-19 10.0km</title><desc>1760866141000</desc></polyline><polyline fill="none" points="179.15808712365106,36.75009943457553 182.906668192707,43.103138666949235 183.8063276493922,50.86789711023448 181.40723576489836,58.632581543177366 175.10961956949905,64.8089822207694 174.73476146254689,71.69120210158871 160.34021015884355,72.4853006543126 159.0656925952062,64.72074825508753 151.56853045802563,56.60318252828438 149.99412640882656,48.04435714863939 153.89265072066337,38.33836388774216 161.91461420757696,33.13237439759541 170.91120877256617,32.69118731823983 178.93317225947976,37.103047358221374 183.35649792058393,44.33844609721564 183.9562708917074,51.662015961133875 181.18232090072706,59.16198915045243 175.2595628122799,64.5442802948528 174.43487497698516,72.22060122276889 160.26523853745311,72.30883437610464 159.36557908076793,65.42661971296184 154.3424804485403,60.92667868977878 151.1936723506078,55.632598603726365 150.2940128943883,45.661987693747506 154.71733855549246,37.63246895739576 163.71393312048167,32.426474956038874 172.33566957851872,33.04413700080477 179.75786009524018,37.9854164988501 183.8063276493922,45.397279546479695 184.03124251309782,52.191428098478355 181.4822073862888,58.809050784038845 175.18459119088948,64.89721617673058 174.80973308440298,72.22060122276889 160.19026691606268,72.30883437610464 159.36557908076793,65.69132135185646 153.89265072066337,60.3090377858025 150.2940128943883,53.338486548513174 150.66887100134045,43.01490235014353 154.64236693410203,37.27952126314631 157.56626016786322,35.1618318844703 166.2629682472907,32.25 175.33453443367034,34.45593420165824 179.83283171616495,38.07365336047951 183.2815262991935,43.36784755968256 183.8063276493922,53.42672174714971 181.4822073862888,58.98551998625044 175.40950605506077,64.98545012326213 175.2595628122799,71.95590170507785 161.91461420757696,72.75 160.19026691606268,72.30883437610464 159.14066421659663,65.16191798774526 153.59276423510164,59.691396413429175 150.14406965160742,52.27966342133004 149.91915478743613,46.27963970287237 153.89265072066337,38.33836388774216 157.11643043952063,35.4265433580149 162.96421690657735,32.86766217870172 171.8108682287857,32.86766217870172 178.3333992883563,36.573625415272545 183.9562708917074,45.5737516542431 183.2815262991935,54.66201352298958 181.18232090072706,59.16198915045243 175.10961956949905,64.45604630035814 174.88470470532775,71.95590170507785 160.64009664393961,72.39706752006896 159.0656925952062,65.07368406036403 152.3182466714643,58.19140827434603 150.069098030217,52.45613403787138 150.2940128943883,45.30904347845353 153.44282099185511,38.95602144993609 157.0414588181302,35.4265433580149 162.28947231452912,32.95589959440986 171.66092498600483,32.95589959440986 179.60791685199365,37.72070585732581 184.33112899865955,47.77964977559168 181.7071222504601,58.54434690857306 175.2595628122799,64.1913442601799 175.03464794857427,71.95590170507785 160.1152952942066,72.39706752006896 159.21563583798707,65.42661971296184 152.5431615356356,58.456112264306284 150.069098030217,51.57378057134338 151.1936723506078,42.83842968806857 155.09219666244462,37.19128431548597 161.16489799367264,33.30884916236391 170.7612655297853,32.602949873777106 176.45910875406116,35.1618318844703 181.55717900767922,40.3678084044368 183.88129927031696,46.8972912436584 183.8063276493922,52.8973104126635 180.88243441516533,59.4266928252182 175.18459119088948,64.63251427945215 175.33453443367034,71.51473565137712 176.23419388988987,65.25015190569684 180.35763306589797,61.63255343493074 183.8063276493922,55.9855383465183 185.0808452120982,49.897306352388114 184.55604386283085,45.5737516542431" stroke="#4DD2FF" stroke-linecap="round" stroke-linejoin="round" stroke-width="0.5"><title>2025-10-16 10.0km</title><desc>1760611285000</desc></polyline><polyline fill="none" points="23.066893544979393,83.84217052673921 31.971746038645506,81.0 40.12195001542568,82.59872213355266 46.913786662742496,89.08239660854451 49.55505647044629,96.45418338594027 47.81936488253996,105.95747337018838 40.34834457049146,114.03962398250587 40.27287971880287,120.96711824962404 25.78362820390612,121.41118639905471 24.802585132420063,114.30606715200702 18.086213336326182,107.82259212026838 15.444943529553711,100.98380262986757 15.897732639219612,93.07915670127841 20.123764330986887,86.24024424602976 29.179546527564526,81.17763594677672 37.70707476278767,81.79936145653483 44.725305965635926,85.97379195701797 49.4041267670691,95.74365260673221 48.04575943760574,105.51339685189305 40.574739125557244,113.68436628888594 40.27287971880287,120.96711824962404 25.708163352217525,121.5 24.651655429508537,114.30606715200702 18.312607891857624,108.08903730963357 15.595873232465237,101.60551312210737 15.822267787531018,93.43442332238192 20.4256237372756,85.61852210323559 30.085124747361988,81.17763594677672 40.04648516373709,82.24345081788488 47.66843517962843,90.14820120495278 49.32866191538051,96.18773441587109 47.66843517962843,106.13510390999727 40.42380942218006,113.68436628888594 40.42380942218006,120.7894909226452 25.78362820390612,121.41118639905471 24.802585132420063,114.48369588318747 17.633424227125943,107.02325603249483 15.595873232465237,101.07261844340246 15.897732639219612,93.16797337098978 20.19922918267548,86.06260939594358 28.953151972964406,81.35527185461251 39.29183664731681,82.24345081788488 45.781813888810575,87.12841791758547 49.4041267670691,95.92128535924712 47.743900031317025,106.13510390999727 40.574739125557244,113.77318072662456 40.197414867114276,121.0559318989981 25.78362820390612,121.41118639905471 24.651655429508537,114.12843838200206 18.23714303970337,107.64496194612002 15.444943529553711,100.89498680655379 15.746802935842425,93.70087318704464 18.388072743080556,87.92777339951135 27.217460385058075,81.88817934808321 36.4241722850129,81.44408979418222 40.80113368015736,82.95399329578504 45.02716537192464,86.59551382996142 49.4041267670691,96.09891807328677 49.253197064157575,101.42788160091732 47.44204062456265,106.57918009156128 40.49927427340299,114.03962398250587 40.42380942218006,121.0559318989981 25.859093055594712,121.5 24.802585132420063,114.39488152222475 18.991791556123644,108.8883723586332 15.520408380776644,101.51669736619806 15.897732639219612,92.81270663469331 19.74644007300958,86.59551382996142 28.575827714521438,81.44408979418222 38.61265298258513,81.97699722985271 45.40448963036761,87.0396005937946 49.253197064157575,95.83246898790821 47.89482973469421,105.42458151938627 44.57437626225874,110.39822532481048 40.49927427340299,113.86199515487533 40.49927427340299,120.7894909226452 25.859093055594712,121.41118639905471 24.576190577354282,114.03962398250587 18.46353759523481,108.26666738808854 15.595873232465237,101.60551312210737 16.350521748885512,90.9475537429098 19.369115814566612,87.0396005937946 28.80222226958722,81.35527185461251 38.53718813089654,81.88817934808321 45.781813888810575,87.4836871168809 49.10226736078039,94.85548826708691 48.42308369604871,104.00353489146801 45.17809507576749,109.59889174782438 40.49927427340299,113.59555184148485 40.197414867114276,120.96711824962404 26.4628118686378,121.5 25.33083909424022,120.34542243659962" stroke="#4DD2FF" stroke-linecap="round" stroke-linejoin="round" stroke-width="0.5"><title>2025-10-08 10.1km</title><desc>1759919017000</desc></polyline><polyline fill="none" points="59.05967333726585,98.87307484692428 66.3909188262187,86.28272313403431 71.25347960926592,82.67286604072433 76.93893529428169,81.0 89.2823588210158,83.72941123973578 94.51896274182945,90.9491000106209 95.94032666273415,99.57742442720337 93.02279019309208,107.85348628065549 86.96329137077555,113.576245732198 86.73886548820883,120.88371077133343 72.07637451123446,121.2358761021751 71.32828823663294,114.45666668686317 66.54053608095273,110.05455237592105 63.17414784664288,104.94806990888901 62.0520184347406,95.08718539506663 66.09168431628495,86.89903859660262 73.94659019680694,82.05654737364966 81.72668745042756,81.44022823945852 90.62891411501914,85.66640720446594 95.26704901596531,93.32630057237111 95.71590078063309,100.19372980954358 93.47164195775986,107.06110102729872 86.88848274340853,113.75232999928994 86.21520509617403,120.9717521185521 72.15118313906714,121.41195871011587 71.1786709818989,114.19254050060408 63.17414784664288,105.3002421434503 61.97720980737358,96.14371445786674 66.01687568891793,87.25121865136316 73.72216431470588,82.14459292613901 81.57707019569352,81.44022823945852 90.40448823291808,85.40227166278055 95.04262313386425,92.62194557522889 95.79070940846577,100.01764260517666 93.02279019309208,107.85348628065549 86.88848274340853,113.92841422848869 86.36482235137373,121.05979345581727 72.00156588340178,121.3239174108603 70.6550105898641,113.576245732198 66.09168431628495,109.70238220109604 62.80010470934212,104.68394063296728 61.97720980737358,95.79153825592948 65.79244980681688,87.60339855332859 69.9817329426296,83.72941123973578 73.72216431470588,82.14459292613901 82.77400823449716,81.52827385847922 91.37700038962066,86.63490345590981 94.51896274182945,90.9491000106209 95.71590078063309,100.28177339734975 93.39683333039284,107.14914387156023 86.96329137077555,113.576245732198 86.36482235137373,120.9717521185521 72.30080039333552,121.5 71.10386235453188,114.01645632868167 67.06419647298753,111.02301956980955 63.69780823821202,106.26871500152629 61.902401180006564,96.31980250129709 65.19398078741506,88.30775789928157 72.45041764806956,82.5848205453949 81.72668745042756,81.44022823945852 89.65640195878223,84.78595506533748 94.44415411446244,90.86105541198049 95.64109215373173,100.28177339734975 93.24721607519314,107.50131515227258 87.11290862597525,113.3121192593826 86.43963097874075,120.9717521185521 72.15118313906714,121.3239174108603 71.25347960926592,114.45666668686317 64.52070314018056,107.58935794851277 61.677975297905505,97.37632996187313 63.17414784664288,91.74150097038364 66.3909188262187,86.54685838962905 72.07637451123446,82.67286604072433 76.78931803954765,81.26413697213866 82.84881686139852,81.79241065896349 89.88082784088328,85.13813603547169 94.2945368597284,90.68496618582867 95.56628352589905,101.2502522347495 93.39683333039284,107.23718670598464 86.88848274340853,113.92841422848869 86.21520509617403,120.88371077133343 72.52522627590224,121.5 71.1786709818989,114.10449841950322 65.41840666951612,108.82195609691553 62.7252960819751,103.53937944537029 61.902401180006564,98.5208998277667 64.07185137551278,89.71647476009093 68.63517764909193,84.78595506533748 76.71450941218063,81.44022823945852 86.29001372400671,82.49677504069405 94.2945368597284,90.33278761903057 95.64109215373173,95.7034941817983 95.04262313386425,103.27524971135426 90.55410548765212,110.75889226782601" stroke="#4DD2FF" stroke-linecap="round" stroke-linejoin="round" stroke-width="0.5"><title>2025-10-01 10.0km</title><desc>1759271073000</desc></polyline><polyline fill="none" points="118.170754914172,82.48068108630832 124.09109007474035,81.0 132.82358443643898,83.35166868701344 138.2998944595456,90.9292210029671 139.4099573022686,95.98088287556311 139.2619489231147,101.72928709205007 137.6338567538187,106.34540012269281 130.60345875145867,113.66144951339811 130.3814461827278,120.97743234463269 116.17264179792255,121.4129054142395 114.61855381773785,114.009831157804 108.92023122636601,108.60989871341735 106.25608040392399,103.20993000734597 105.59004269819707,97.54863355553243 107.29213905707002,91.01631889020791 113.58249516505748,84.22265534411417 122.1669811476022,81.78389032639097 130.2334378035739,83.35166868701344 133.78563890000805,85.79042894940358 137.11582742771134,90.23243756452575 139.33595311269164,96.76475859753555 138.0778818912804,105.03895572683541 135.33972687926143,109.4808580118115 130.60345875145867,113.40016318159178 130.4554503718391,120.62905371899251 125.34916129615158,121.3258108192822 115.65461247088388,121.23871621489525 114.76656219689175,114.27111729170429 109.21624798420817,109.04537848057225 106.03406783565879,103.29702656442532 106.4040887830779,93.28086065041134 109.14224379463121,88.22918181528803 112.99046164890751,84.65814831882017 119.87285127304494,81.95808807300637 130.2334378035739,83.35166868701344 137.11582742771134,89.97114361921558 139.1879447340034,95.80668816680554 139.0399363548495,102.1647705854266 135.9317603954114,109.13247440557461 130.60345875145867,113.83564035425661 129.93742104573175,121.06452697730856 115.80262085050344,121.23871621489525 114.91457057604566,114.27111729170429 106.5520971622318,105.12605208606692 105.59004269819707,99.9002538441564 106.25608040392399,93.36795828293543 110.84434015350416,86.48721623705933 119.65083870431408,82.0451869321987 129.19737915042788,83.0903725057724 134.4516766052693,86.7485113144503 138.74391959654167,94.4131291389931 139.11394054396078,101.81638380949153 136.00576458498836,108.78409064857988 130.52945456188172,113.7485449386877 130.52945456188172,120.54195903911022 129.64140428742394,121.15162160072941 115.80262085050344,121.23871621489525 114.84056638646871,114.27111729170429 109.95628987904638,109.82924146717414 106.774109730497,104.60347379028099 105.81205526692793,95.37120123009663 110.32631082693115,86.83560965483775 119.50283032516018,82.0451869321987 130.82547131972387,83.6129647831549 136.74580647982657,89.62275156041142 139.1879447340034,96.3292721794569 138.59591121738777,103.81960570946103 135.63574363756925,109.39376212458592 130.75146713014692,113.5743540787953 130.3814461827278,120.80324305064278 125.42316548572853,121.5 115.80262085050344,121.5 114.76656219689175,114.09692654508399 109.36425636289641,109.13247440557461 106.1820762148127,103.29702656442532 106.4040887830779,93.45505590626271 112.6204407014884,84.65814831882017 118.98480099905282,82.13228578201961 125.27515710704029,81.78389032639097 129.19737915042788,82.91617500444409 134.89570174226537,87.09690461878199 138.59591121738777,93.89054388081422 139.1879447340034,101.29380336293252 136.89381485944614,107.65184239554219 130.60345875145867,113.66144951339811 129.8634168561548,121.15162160072941 115.80262085050344,121.4129054142395 114.54454962862656,114.27111729170429 109.14224379463121,109.39376212458592 106.84811392007396,104.9518593584653 105.66404688823968,96.59056405862793 109.80828150035813,87.61949429207016 114.61855381773785,83.78716213349253 120.39088059961796,81.95808807300637 125.20115291699767,81.8709892044426 130.82547131972387,83.70006346289301 137.26383580639958,90.14533959201071 139.2619489231147,97.11314756207867 137.6338567538187,105.9970151577727 130.3814461827278,113.7485449386877 130.1594336144626,120.97743234463269 122.98102723248303,121.23871621489525" stroke="#4DD2FF" stroke-linecap="round" stroke-linejoin="round" stroke-width="0.5"><title>2025-09-27 10.0km</title><desc>1758965825000</desc></polyline><polyline fill="none" points="187.75,83.61537070729537 183.4241486066021,84.79596120334463 175.83823529374786,90.10859311482636 172.8916408668738,90.99402773857582 175.9009287925437,96.08525448956061 175.83823529374786,102.57835803454509 172.39009287930094,108.9976154739852 168.37770897825249,112.7606003334513 168.4404024768155,118.73706297698664 155.90170278656296,118.73706297698664 155.40015479852445,112.53924885834567 151.07430340582505,109.2189681000309 148.0023219815921,103.98026999441208 147.81424148613587,95.27361219475279 151.57585139316507,89.22315734031145 154.20897832815535,86.49305645673303 157.3436532507185,85.31246890220791 164.74148606788367,85.31246890220791 172.8916408668738,88.55907975422451 175.9009287925437,96.3066113111563 176.0890092877671,100.65994751971448 174.45897832815535,106.04624025541125 168.37770897825249,112.83438414265402 168.37770897825249,118.66327980731148 155.8390092877671,118.88462929264642 155.3374613004271,112.53924885834567 149.068111455068,105.60353286983445 147.31269349856302,97.56096527533373 148.37848297227174,93.87168231682153 151.8893188855145,89.07558459939901 157.4690402476117,85.53382922435412 165.49380804947577,85.38625568419229 170.19582043332048,87.08334946690593 172.64086687285453,89.22315734031145 175.9636222908739,97.4871798120439 175.71284829708748,102.72592785040615 172.2647058821749,109.58788898342755 168.50309597491287,112.31789731135359 168.06424148613587,118.51571344374679 155.8390092877671,118.81084613874555 155.08668730640784,112.09654569218401 149.1934984519612,106.71030079439515 147.43808049545623,101.76672347623389 147.25,97.78232161747292 148.69195046438836,93.06003738456639 154.8986068109516,86.49305645673303 163.29953560372815,85.09110850770958 171.88854489126243,87.82121501024812 175.21130030951463,93.87168231682153 175.83823529374786,101.10265811812133 173.76934984489344,107.07922303647501 168.56578947370872,112.31789731135359 168.18962848279625,118.81084613874555 155.8390092877671,118.73706297698664 155.14938080497086,112.68681651644874 150.38467492256314,108.40734145336319 147.43808049545623,101.61915345239686 148.56656346772797,93.06003738456639 153.89551083603874,87.45228233840317 159.03637770889327,85.16489531379193 170.44659442687407,86.78820302599343 173.0797213620972,89.14937097369693 175.52476780163124,95.93768323533004 175.9009287925437,101.10265811812133 173.14241486042738,108.11220425111242 168.4404024768155,112.61303269129712 168.06424148613587,118.66327980731148 155.77631578943692,118.58949662942905 154.8986068109516,112.31789731135359 150.7608359134756,108.92383124947082 148.50386996893212,105.30839445296442 147.43808049545623,96.82311028195545 150.19659442733973,90.92024156381376 155.27476780163124,85.7551894748467 161.41873065009713,84.57460064132465 172.2020123838447,88.19014748191694 175.33668730640784,94.4619689330575 175.9009287925437,101.32401330932043 173.83204334322363,107.07922303647501 168.50309597491287,112.46546501724515 168.12693498423323,118.73706297698664 155.90170278656296,118.88462929264642 155.08668730640784,112.68681651644874 150.88622291036882,108.77626277622767 148.2530959751457,103.98026999441208 147.87693498446606,95.19982648361474 151.63854489196092,89.14937097369693 155.02399380831048,86.27169644617243 158.2213622292038,85.01732169359457 170.88544891634956,86.78820302599343 173.14241486042738,88.78043902164791 175.71284829708748,96.01146886649076 175.52476780163124,101.6929384683026 173.2051083589904,107.6694982079789 168.37770897825249,112.61303269129712 168.4404024768155,117.99923091969686 167.68808049545623,118.36814704816788" stroke="#4DD2FF" stroke-linecap="round" stroke-linejoin="round" stroke-width="0.5"><title>2020-04-24 10.0km</title><desc>1587724293000</desc></polyline><polyline fill="none" points="52.75,132.38302086520707 47.87499999976717,133.78064484224888 38.99999999976717,139.00331950944383 36.1875,138.12061675242148 32.62499999976717,135.17826594301732 26.12499999953434,133.85420391935622 18.31249999976717,136.42876659467584 15.81249999976717,138.70908538461663 12.81249999976717,145.1822066816967 12.87499999976717,151.06680886424147 15.18749999976717,156.51002048619557 20.49999999976717,161.3647399902111 21.5,167.61697913485114 33.49999999976717,166.73431356833316 33.31249999976717,161.1440716746729 38.75,155.70089719467796 40.4375,150.99325165170012 40.3125,145.6971114083426 38.4375,140.62160491693066 33.0,135.10470700950827 29.8125,134.07488110277336 25.0,134.22199918481056 16.31249999976717,138.41485113243107 12.25,147.90384152915794 13.74999999976717,154.22976146795554 20.49999999976717,161.51185216079466 21.24999999976717,167.39631285064388 33.43750000023283,166.88142457575304 33.43750000023283,161.21762778784614 39.0625,154.9653297297773 41.31249999976717,147.68316883977968 38.5,139.15043652412714 39.18749999976717,138.26773395843338 36.43749999976717,138.70908538461663 32.06249999976717,135.61961937724845 25.06249999976717,133.85420391935622 17.43749999953434,137.31147155090002 13.06249999976717,144.225954010617 13.68749999976717,154.22976146795554 20.31249999976717,161.3647399902111 20.81249999953434,167.24920195474988 32.93749999976717,167.02853555121692 33.375,160.84984714229358 38.56249999976717,155.92156727873953 40.56250000023283,149.5221057269373 39.75,143.63749015913345 36.125,137.75282359845005 28.5,134.07488110277336 23.12499999976717,134.5897942512529 16.24999999976717,137.82638224540278 12.68749999976717,144.667301564652 13.24999999976717,152.97929359483533 15.625,157.09847318340326 20.06249999976717,161.21762778784614 20.68749999976717,167.17564649495762 32.93749999976717,167.02853555121692 33.0,161.21762778784614 38.4375,155.77445389743662 40.24999999976717,150.03700716316234 39.25,142.97546771680936 35.56250000023283,137.60570628126152 32.43749999976717,135.3253837862867 27.3125,134.22199918481056 23.9375,134.295558214013 17.75,136.42876659467584 13.499999999534339,142.2398864683928 12.25,146.4326889119111 13.499999999534339,154.15620459796628 16.68749999976717,158.42248988791835 20.12499999976717,160.99695942463586 20.87499999976717,167.32275740680052 33.0,167.10209102724912 33.0,161.21762778784614 38.875,155.03888651216403 40.4375,146.87403503182577 38.56249999976717,140.91583821334643 32.5,134.81047119543655 27.43749999976717,133.26573108014418 17.87499999976717,136.57588416727958 13.624999999534339,143.0490257976926 12.43749999976717,147.60961126053007 13.874999999534339,154.52398886845913 20.37499999976717,161.6589642991894 21.06249999976717,167.10209102724912 33.25000000023283,166.73431356833316 33.1875,161.43829607934458 38.81249999976717,155.1124432864599 40.375,146.57980431709439 38.25,140.6951632530545 33.49999999976717,136.13453135453165 26.0625,134.00132204953115 16.62499999976717,137.16435413784347 12.5625,145.03509097360075 12.74999999976717,151.06680886424147 14.375,155.2595568113611" stroke="#4DD2FF" stroke-linecap="round" stroke-linejoin="round" stroke-width="0.5"><title>2020-04-16 10.0km</title><desc>1587033949000</desc></polyline><polyline fill="none" points="97.75,132.3926228886121 92.49188562575728,133.79240732983453 83.47797527024522,139.24417190282838 81.97565687750466,139.24417190282838 79.40919629042037,136.5182950789458 74.40146831492893,134.30811666080263 69.8319165376015,134.16077117761597 62.75850077276118,137.10767477727495 58.50193199329078,142.11738159373635 57.50038639828563,150.7369378412841 60.31723338435404,156.85159954655683 65.45015455922112,161.78749118902488 65.88833075691946,167.5337079805322 77.65649149892852,167.01802384096663 78.34505409537815,161.8611609422951 82.852009273367,157.21995090611745 85.54366306005977,150.66326688311528 85.10548686236143,144.4012062792899 81.53748067980632,138.0654156979872 79.28400309104472,136.00258742383448 74.15108191641048,134.08709842391545 69.01816074131057,134.45546211203327 61.63176197814755,137.54970921605127 58.18894899496809,143.36980253231013 57.312596599338576,147.4954081363394 58.81491499207914,155.00983975763666 65.32496135961264,161.41914230340626 66.38910355442204,167.5337079805322 78.09466769709252,167.0916930276435 78.28245749603957,161.19813287624856 83.47797527024522,156.04122585389996 85.66885625943542,150.14756995276548 84.85510046361014,143.95917629339965 80.16035548667423,137.18134720396483 73.21213292097673,134.23444392334204 63.44706336921081,136.5182950789458 58.81491499207914,142.26472535310313 57.43778979871422,146.97970880416688 58.06375579559244,152.87339215475367 61.25618237978779,158.03032319428166 65.45015455922112,161.6401516587357 66.20131375524215,167.6073771113297 78.21986089623533,167.0916930276435 78.28245749603957,161.1244630512665 83.97874806798063,155.4518625618657 85.66885625943542,149.33718827285338 85.10548686236143,144.69589277677005 82.28863987606019,139.39151628513355 77.5312982997857,135.48687937762588 74.21367851574905,134.08709842391545 68.39219474466518,134.6764802292455 61.63176197814755,137.40236443502363 58.001159196021035,144.253862982383 57.375193199142814,148.8214903373737 58.689721792703494,154.86249875917565 65.38755795964971,161.41914230340626 65.88833075691946,167.38636969478102 78.40765069541521,166.7233470142237 78.34505409537815,161.05079321790254 83.72836166899651,155.89388507878175 85.48106646048836,150.0738989309175 84.7925038638059,143.5171460202546 79.59698608936742,137.18134720396483 73.77550231828354,133.86608011531644 68.26700154552236,134.82382560084807 61.63176197814755,137.8443986820639 58.251545594772324,143.66448947659228 57.43778979871422,150.36858297081199 60.12944358563982,156.6305886352784 65.2623647598084,161.56648188165855 66.01352395652793,167.6073771113297 78.40765069541521,166.9443546461407 78.40765069541521,161.19813287624856 83.47797527024522,156.1885665973532 85.60625966009684,149.70554370147875 84.66731066443026,143.66448947659228 80.9115146829281,138.0654156979872 74.15108191641048,134.30811666080263 68.14180834591389,134.52913482586155 60.69281298248097,138.36010494088987 57.43778979871422,147.56907943740953 59.127897990401834,155.0835102449637 65.2623647598084,161.34547250223113 65.95092735695653,167.31270054011839 78.03207109705545,167.23903137707384 78.28245749603957,161.41914230340626 83.35278207110241,156.1885665973532 85.41846986068413,149.2635171629954 83.9161514681764,142.0437097020913 78.78323029354215,136.29727756039938 74.02588871703483,134.30811666080263 70.83346213237382,134.30811666080263 67.07766615133733,135.04484359821072 61.8195517770946,137.8443986820639 58.50193199329078,142.85410007205792 57.25,147.2743941847002 58.12635239539668,153.09440428687958 60.37982998415828,157.14628065010766" stroke="#4DD2FF" stroke-linecap="round" stroke-linejoin="round" stroke-width="0.5"><title>2020-04-14 10.0km</title><desc>1586861907000</desc></polyline><polyline fill="none" points="142.75,132.49110238830326 136.66257668705657,134.31879843445495 128.8358895701822,139.14389221498277 122.81058282172307,135.48852130654268 116.97162576648407,134.02636739978334 112.43711656425148,134.83055244054412 105.91487730061635,137.97417567821685 103.05751533713192,144.7000180799514 103.11963190161623,150.7678401285666 105.16947852750309,156.1045541925705 110.57361963181756,161.221911610628 111.13266871124506,167.14337677310687 123.05904907966033,166.85095995961456 123.24539877288043,160.92949223186588 128.02837423305027,156.32387030636892 130.26457055215724,151.20647575269686 129.51917177881114,143.38409766653785 125.29524539853446,137.09688694536453 117.40644171764143,134.17258293298073 112.12653374206275,134.976767799526 106.10122699383646,137.75485360180028 102.87116564391181,145.6504034496029 103.49233128782362,152.3030635662726 105.72852760716341,156.76250231981976 110.38726993836462,161.14880677772453 111.25690184021369,167.50889761169674 123.12116564414464,166.70475150545826 123.36963190161623,160.7832824952202 128.21472392627038,155.95834341068985 130.63726993836462,149.30571932229213 130.01610429421999,144.18827155738836 126.35122699360363,137.82796096865786 119.26993865007535,134.3919061734341 112.9340490794275,134.75744474906242 105.976993864635,137.97417567821685 102.25,145.06555107276654 102.5605828219559,150.62162819044897 103.98926380369812,154.2038115558098 110.44938650284894,161.14880677772453 110.69785276055336,166.9971683822223 123.05904907966033,166.70475150545826 123.18328220839612,161.221911610628 128.8358895701822,155.15418354328722 130.32668711640872,149.671249820909 129.8918711654842,144.62691145768622 125.23312883405015,136.65824215114117 119.45628834329545,134.31879843445495 112.43711656425148,134.6843370498391 106.41180981579237,137.462424055906 102.3742331287358,147.03942581324372 104.36196319013834,154.64244494703598 110.38726993836462,161.36812125256984 110.75996932480484,166.9971683822223 122.81058282172307,166.77785573643632 123.05904907966033,161.00259708840167 127.90414110384881,156.1045541925705 130.1403374231886,150.6947341634077 129.7676380367484,143.96895150031196 125.73006134969182,137.68174622708466 119.0835889566224,134.17258293298073 111.1947852759622,135.3423060583882 105.91487730061635,137.82796096865786 102.31211656401865,146.82010668271687 103.80291411024518,154.13070596277248 110.263036809396,161.29501643544063 110.75996932480484,166.77785573643632 123.24539877288043,166.63164726656396 123.18328220839612,160.7832824952202 128.40107361925766,155.37349996576086 130.32668711640872,149.671249820909 129.6434049080126,143.67652464687126 124.98466257657856,137.09688694536453 115.54294478497468,133.73393623827724 108.3374233127106,136.0002744255471 103.74079754576087,142.21438847860554 102.49846625747159,147.4780638604425 102.99539877288043,152.44927514030132 104.36196319013834,155.08107805333566 110.38726993836462,161.14880677772453 110.94631901825778,167.0702725815354 122.93481595092453,166.77785573643632 122.93481595092453,160.71017761452822 127.4072085886728,156.83560762781417 130.1403374231886,149.59814373694826 129.02223926363513,142.28749536216492 123.36963190161623,135.7809517076239 115.10812883428298,134.02636739978334 106.16334355808794,137.38931664958363 102.62269938620739,146.96631944412366 103.18174846586771,152.81480393605307 104.85889570508152,156.1045541925705" stroke="#4DD2FF" stroke-linecap="round" stroke-linejoin="round" stroke-width="0.5"><title>2020-04-13 10.0km</title><desc>1586775592000</desc></polyline><polyline fill="none" points="187.75,132.4022622842458 181.98219814244658,134.0255736889667 173.95743034034967,139.0430572089972 166.9984520119615,135.20616137154866 158.15866873064078,134.54208105179714 153.20588235300966,136.8294660942629 148.94272445817478,142.14207268500468 147.62616099091247,146.05271495081251 148.0023219815921,152.5458072432666 151.32507739937864,157.9320754762157 155.3374613004271,161.54749191040173 156.15247678011656,167.30260502069723 167.18653250765055,167.00747219769983 168.2523219815921,166.12207296147244 168.2523219815921,161.17857274517883 173.26780185755342,155.4971923713456 175.08591331238858,151.7341740912525 175.52476780186407,142.80614559579408 174.5216718262527,139.7071331407642 177.90712074306794,134.9848013370065 176.59055727533996,136.75567959976615 172.39009287883528,138.674125855905 164.74148606788367,134.61586778599303 157.53173374617472,135.1323747013812 152.26547987619415,137.78868979372783 148.2530959751457,143.54400362604065 148.0650154799223,152.3244528430514 150.38467492279597,156.67774284252664 155.40015479875728,161.54749191040173 155.96439628466032,167.45017138426192 167.43730650143698,166.9336889720871 168.2523219815921,161.03100502333837 173.26780185755342,156.0874678628752 175.39938080497086,150.99632493208628 175.08591331238858,144.6507891729707 172.1393188855145,138.96927095449064 164.99226006190293,134.61586778599303 157.90789473685436,134.8372279405594 151.26238390128128,138.674125855905 148.62925696582533,143.02750308881514 147.62616099091247,147.01192566286772 148.69195046438836,154.24285525426967 150.32198142423294,157.26801731070736 155.14938080497086,161.47370809339918 155.90170278656296,167.45017138426192 167.43730650143698,167.00747219769983 168.37770897825249,160.88343726913445 172.51547987619415,157.19423303031363 174.77244582027197,153.28365472401492 175.46207430306822,147.30706714879489 173.83204334345646,141.1090690928977 170.1331269349903,136.97703905886738 163.7383900929708,134.61586778599303 157.03018575836904,135.20616137154866 151.8893188855145,138.1576216261019 149.38157894741744,141.18285511579597 147.43808049545623,147.30706714879489 147.62616099091247,150.8487550043501 149.8204334366601,156.75152717885794 155.21207430353388,161.69505952042527 155.77631578966975,167.3763882063795 167.6253869968932,167.0812554153381 168.4404024768155,161.03100502333837 173.3931888542138,156.0874678628752 175.27399380807765,151.95552868314553 175.39938080497086,145.53621631569695 173.83204334345646,141.0352830621414 167.81346749211662,135.87024104385637 160.72910216706805,134.54208105179714 153.26857585133985,136.8294660942629 148.69195046438836,142.36343039391795 147.56346749234945,145.53621631569695 147.75154798780568,151.66038921126164 150.57275541801937,157.5631543531781 154.96130030974746,161.54749191040173 155.90170278656296,167.59773771569598 168.00154798757285,166.9336889720871 168.06424148613587,161.3261404352961 173.83204334345646,155.20205443404848 175.39938080497086,149.5206242162967 173.95743034034967,141.92071490449598 171.3243034053594,138.08383527590195 167.7507739935536,135.35373468801845 160.47832817328162,134.24693403521087 153.01780185778625,136.97703905886738 148.69195046438836,142.43721628095955 147.3753869968932,147.97113502433058 149.44427244598046,155.7923301809933 155.27476780186407,161.47370809339918 155.77631578966975,167.45017138426192 167.87616099091247,166.9336889720871 168.06424148613587,161.39992426824756 174.08281733747572,155.20205443404848 175.65015479852445,149.29926883330336 173.70665634656325,141.33042713749455 167.93885448900983,135.7226678392035 161.0425696594175,134.17314726114273 157.78250773996115,134.8372279405594 153.5820433436893,136.75567959976615 150.44736842112616,139.6333469580277 148.19040247704834,143.47021785902325 147.25,147.82356444123434 148.50386996916495,153.94771677342942 150.88622291036882,157.78450705093564" stroke="#4DD2FF" stroke-linecap="round" stroke-linejoin="round" stroke-width="0.5"><title>2020-04-12 10.0km</title><desc>1586649823000</desc></polyline><polyline fill="none" points="52.75,181.3051674545277 48.750783699098974,182.05228798196185 38.27664576820098,187.73037754220422 40.75235109706409,191.76478119270178 41.83150470210239,198.41402460203972 38.46708463947289,205.9597175687668 33.96003134828061,209.8445966099389 33.38871473376639,216.04541590093868 21.200626959325746,215.82129087345675 20.565830720821396,209.47105149907293 14.852664576843381,204.61494664906058 12.503918495262042,198.787575701077 13.96394984330982,190.04642696736846 19.55015673977323,183.3223910210654 23.930250783683732,181.67872781929327 34.21394984307699,183.247679142165 38.46708463947289,186.16143641603412 41.32366771157831,193.85668490664102 41.196708464063704,199.83351770136505 38.78448275872506,205.0632039133925 33.76959247677587,209.69517858984182 33.32523510977626,215.97070756641915 21.137147335335612,215.89599922398338 20.43887147330679,209.6204695677734 15.360501567600295,205.21262293693144 13.075235109776258,201.55184754461516 12.313479623757303,194.97734500048682 15.931818181881681,187.2073975634994 20.43887147330679,183.39710289158393 27.92946708481759,181.67872781929327 37.19749216316268,184.89133860496804 40.75235109706409,192.2877577159088 41.51410658308305,197.74163211416453 39.292319749249145,204.01726984314155 33.6426332287956,209.99401459749788 33.706112852785736,215.97070756641915 21.010188087821007,215.89599922398338 20.43887147330679,209.6204695677734 14.535266457824036,204.68965621327516 12.757836990756914,201.17829794291174 12.313479623757303,195.27618738485035 13.265673981280997,190.79353802610422 19.613636363763362,183.54652660887223 24.31112852669321,181.75343986786902 32.817398119252175,183.17296725546475 38.27664576820098,186.6097056734725 41.260188087588176,193.40842035913374 41.38714733533561,197.96576301648747 39.10188087774441,204.61494664906058 33.896551724290475,209.8445966099389 33.57915360527113,215.97070756641915 21.010188087821007,215.97070756641915 20.311912225792184,209.6204695677734 15.233542319852859,205.28733243665192 13.011755486018956,201.17829794291174 12.630877743009478,193.25899877859047 15.931818181881681,187.2073975634994 19.8040752352681,183.62123845511815 22.660658307373524,182.50055990973487 29.833855799166486,182.12699999002507 37.07053291518241,184.89133860496804 41.13322884007357,192.66131213260815 41.32366771157831,198.26460410584696 38.72100313473493,205.28733243665192 33.896551724290475,209.5457605374395 33.57915360527113,215.74658251466462 21.07366771181114,216.1948325454723 20.24843260180205,209.47105149907293 14.916144200833514,204.83907531789737 13.011755486018956,201.25300787965534 12.25,193.4831311374437 15.868338558357209,187.2073975634994 19.677115987520665,183.62123845511815 22.914576802402735,182.27642398216994 27.73902821331285,181.82815190852853 35.420062695862725,183.4718147543026 38.34012539195828,186.08672484516865 41.32366771157831,194.75321312743472 41.196708464063704,199.9829378577415 38.657523510744795,205.28733243665192 34.086990595795214,209.769887603994 33.76959247677587,216.04541590093868 21.07366771181114,216.04541590093868 20.24843260180205,209.69517858984182 15.614420062862337,206.10913639800856 12.757836990756914,201.77597720880294 12.567398119252175,193.10957716556732 15.423981191357598,187.43153188866563 20.8832288403064,182.9488315464696 26.977272727293894,181.67872781929327 30.15125391865149,182.12699999002507 35.48354231962003,184.069509363384 38.213166144210845,186.2361479793908 41.06974921631627,192.96015552029712 41.13322884007357,199.9829378577415 38.72100313473493,204.98849438957404 33.83307210030034,209.91930560796754 33.83307210030034,215.14891535404604 31.103448275942355,215.44774899899494" stroke="#4DD2FF" stroke-linecap="round" stroke-linejoin="round" stroke-width="0.5"><title>2020-04-08 10.0km</title><desc>1586343893000</desc></polyline><polyline fill="none" points="97.75,181.28742345131468 92.71082949312404,182.38572618633043 82.81912442413159,188.46296906331554 85.6186635948252,193.80796884337906 85.74308755784295,198.56717965338612 82.94354838714935,205.74254184111487 78.33986175130121,209.915931755153 78.09101382503286,216.06614361488027 65.8352534561418,215.9929271361907 65.08870967733674,209.47662876691902 60.547235022997484,205.81575942999916 57.80990783404559,201.34947199124144 57.561059908010066,195.2723449690966 58.9297235023696,190.29345319868298 64.52880184329115,184.43588651710888 69.87903225817718,182.6053865191643 74.79377880203538,183.11792701826198 81.32603686652146,186.119942136982 84.43663594475947,191.97749422537163 85.74308755784295,198.6403980194009 82.88133640564047,205.96219458407722 78.2776497695595,209.9891488919966 78.02880184329115,216.1393600856536 65.95967741915956,215.91971064935206 65.46198156685568,209.9891488919966 59.80069124419242,204.6442770548747 57.498847926268354,199.15292636031518 57.8721198157873,193.07577959098853 60.609447004506364,187.6575544733787 64.52880184329115,184.21622677898267 67.20391705073416,183.264367089374 75.35368663608097,183.11792701826198 81.13940092176199,185.97350268432638 85.55645161308348,194.10084432252916 84.93433179729618,201.9352162873256 82.259216590086,206.62115238513798 78.2776497695595,210.06236602109857 78.2776497695595,215.9929271361907 66.08410138264298,216.1393600856536 65.33755760383792,209.9891488919966 59.240783409914,203.8388817445957 57.25,196.5170621817815 58.86751152086072,190.51311096182326 64.40437788004056,183.9965669696685 71.49654377880506,182.38572618633043 79.89516129018739,184.94842562818667 82.63248847913928,187.73077402130002 85.80529953935184,195.2723449690966 84.80990783404559,201.9352162873256 81.82373271905817,206.9140223125578 78.52649769606069,209.915931755153 78.15322580677457,215.9929271361907 65.8352534561418,216.06614361488027 65.21313364058733,209.84271461021854 59.48963133641519,204.86393015494104 57.31221198150888,198.56717965338612 58.245391705073416,192.05071330518695 64.59101382480003,183.92334701743675 71.49654377880506,182.6053865191643 80.08179723517969,184.5823263025959 83.56566820270382,189.4148214321467 85.9297235023696,195.85809453122783 85.99193548364565,199.22614466311643 84.37442396348342,203.6924461305607 78.33986175130121,209.84271461021854 78.33986175130121,215.9929271361907 66.27073732740246,216.21257654868532 65.15092165907845,210.28201736032497 59.48963133641519,204.7174947630847 57.37442396325059,199.59223605750594 57.561059908010066,193.5150932377437 60.42281105997972,188.38974959467305 65.21313364058733,183.9965669696685 70.50115207396448,182.75182670145296 74.73156682029366,183.0447069707443 81.20161290327087,185.75384344585473 84.68548387102783,191.90427513746545 85.4942396315746,200.1779818761861 83.814516129205,204.7174947630847 78.46428571431898,209.76949745742604 78.2776497695595,215.7000611416879 66.6440092169214,216.21257654868532 65.8352534561418,215.7732776523917 65.15092165907845,210.06236602109857 60.92050691251643,206.62115238513798 57.80990783404559,201.1298177493154 57.31221198150888,195.71165718819248 58.61866359459236,190.9524262738414 64.52880184329115,183.9965669696685 67.57718894002028,182.75182670145296 75.16705069132149,183.11792701826198 79.77073732716963,184.8752057789825 83.814516129205,189.56126013939502 85.6186635948252,195.56521981360856 84.99654377880506,201.71556223585503 81.94815668207593,206.69436987885274 78.40207373257726,209.915931755153 78.2776497695595,215.40719502046704 73.11405529966578,215.7000611416879" stroke="#4DD2FF" stroke-linecap="round" stroke-linejoin="round" stroke-width="0.5"><title>2020-04-07 10.0km</title><desc>1586257895000</desc></polyline><polyline fill="none" points="142.75,180.97846002993174 138.55376766086556,181.87641298648668 128.1267660909798,188.2368796808878 131.17857142863795,195.12108352046926 130.79709576140158,200.95763738715323 127.99960753507912,206.34518180636223 123.8669544737786,209.78720207873266 123.54905808460899,216.3718887299765 111.15109890094027,216.0725861529354 110.3245682886336,210.16133368352894 105.55612244852819,206.19552836206276 102.88579277833924,200.80798277590657 102.50431711110286,195.04625558666885 105.81043956032954,187.1892774301814 110.13383045513183,182.9988525409717 113.88500784896314,182.02607169921976 120.17935635754839,182.6247062254115 126.34654631046578,185.39338416152168 130.98783359490335,194.82177173666423 130.2248822604306,202.37935457850108 127.36381475627422,206.71931527537527 123.80337519641034,209.86202841589693 123.8669544737786,216.0725861529354 111.34183673420921,216.4467143539805 110.19740973273292,210.16133368352894 104.34811616921797,204.25003063573968 102.56789638916962,199.53591727017192 103.01295133423992,192.6517574248137 105.93759811576456,187.1892774301814 112.93131868098862,182.699535504682 119.03492935630493,182.32538902712986 126.66444270010106,185.16889717470622 130.54277864983305,194.07349170942325 129.77982731559314,202.82831729424652 126.91875981120393,207.4675816053641 123.8669544737786,210.01168106583646 123.48547880654223,215.9229348154622 111.53257456794381,216.52153997001005 110.5788853999693,210.46063882147428 105.42896389309317,206.1207016276894 102.88579277833924,200.6583281319472 103.01295133423992,192.6517574248137 105.42896389309317,187.9375649142894 110.19740973273292,183.52265704231104 115.02943485067226,182.02607169921976 119.73430141271092,182.17573037924012 127.3002354784403,186.51581800176064 130.35204081633128,192.05313158762874 130.54277864983305,200.88281008560443 127.61813186830841,206.27035508822883 123.61263736267574,210.08650737878634 123.48547880654223,215.99776048818603 111.46899529010989,216.3718887299765 110.5153061223682,210.16133368352894 104.72959183645435,205.07312649628147 102.63147566677071,199.91005442669848 102.75863422243856,193.7741794717731 105.87401883793063,187.41376376058906 110.83320251153782,183.07368177978788 118.7806122447364,181.95124234678224 126.41012558853254,185.76752897771075 129.58908948185854,189.80828007805394 130.73351648333482,193.62452330405358 131.0514128729701,198.86246987769846 130.034144426696,202.6038359727827 127.3002354784403,206.8689686061698 123.61263736267574,210.08650737878634 123.54905808460899,216.14741180930287 111.59615384601057,216.3718887299765 110.5788853999693,210.68511759012472 104.92032966995612,205.07312649628147 102.56789638916962,199.46108981448924 102.94937205617316,192.80141380330315 105.55612244852819,187.63825001794612 109.30729984282516,184.04646114638308 112.80416012555361,182.699535504682 120.81514913635328,182.40021833893843 125.07496075332165,183.7471445640549 128.5082417577505,188.16205100133084 130.79709576140158,193.32521087187342 130.6699372055009,201.70590995799284 127.17307692300528,207.2431017914787 123.80337519641034,210.38581254938617 123.23116169543937,216.14741180930287 111.40541601227596,216.52153997001005 110.3245682886336,210.23615998023888 105.49254317069426,205.8962213761988 102.94937205617316,201.10729196621105 102.25,196.61764049483463 104.03021978004836,190.25725096359383 109.87951334333047,183.7471445640549 114.90227629477158,182.25055970728863 119.28924646764062,182.40021833893843 125.45643642032519,184.34577759884996 128.63540031388402,187.9375649142894 131.1149921505712,195.195911446237 131.1149921505712,199.23660739918705 129.46193092595786,204.3248575727921 123.67621664027683,210.38581254938617 123.42189952917397,216.22223745752126 114.83869701693766,215.99776048818603" stroke="#4DD2FF" stroke-linecap="round" stroke-linejoin="round" stroke-width="0.5"><title>2020-04-02 10.0km</title><desc>1585825459000</desc></polyline><polyline fill="none" points="187.75,180.7772846892476 187.20352323842235,182.3494915967458 179.8564467765391,184.49340406869305 172.02361319353804,189.42437631468056 174.63455772097223,194.2838491377188 175.2417541227769,199.3576722717262 173.17728635668755,205.36045488587115 168.07683658157475,210.79149685846642 167.34820089954883,216.6512551647029 155.69002998503856,216.36541450361256 154.83995502255857,210.50565365870716 149.67878560721874,205.86068430513842 147.73575712135062,201.28714406804647 147.61431784112938,195.9989486472332 148.82871064473875,191.63972865859978 152.41116941533983,187.20901653170586 158.60457271360792,183.92169475730043 165.10157421277836,184.35047678725095 168.8054722638335,185.7082847103011 171.47713643172756,187.99511279002763 174.45239880052395,194.85554946947377 174.81671664188616,200.85837304533925 172.81296851555817,206.00360692694085 167.7125187406782,210.57711447030306 167.53035982022993,216.7227153107524 155.6293103445787,216.5797950110864 155.08283358300105,210.7200360702118 150.65029984991997,207.21844796015648 148.3429535231553,203.64537971193204 147.37143928022124,195.57017418782925 150.4681409294717,188.9241344332695 158.2402548722457,183.9931584483711 164.37293853075244,184.20754947513342 169.04835082450882,185.77974820765667 171.8414542726241,188.42389217257733 174.45239880052395,194.71262443310115 174.9381559221074,200.00083016400458 172.38793103420176,206.36091334518278 167.95539730112068,210.50565365870716 167.7125187406782,216.6512551647029 155.56859070481732,216.36541450361256 155.08283358300105,210.93441841180902 149.1930284856353,205.07460933330003 147.37143928022124,197.42819483269705 148.95014992496,191.2824142674799 154.90067466255277,185.3509671066422 160.85119940014556,183.77876735222526 169.4126686656382,186.06560212024488 173.9059220389463,192.42581963760313 175.05959520232864,199.3576722717262 173.66304347803816,204.5743793179863 167.7125187406782,210.7200360702118 167.65179910045117,216.5797950110864 155.7507496252656,216.5797950110864 154.71851574233733,210.57711447030306 150.65029984991997,207.07552560174372 148.0393553224858,203.21661022177432 147.37143928022124,196.35626048385166 150.71101949037984,188.9241344332695 157.81521739135496,183.42144870350603 163.58358320826665,184.06462213164195 171.23425787081942,188.3524289613706 174.7559970014263,194.78408695512917 174.9988755621016,200.2152159890975 171.96289355307817,207.07552560174372 167.8946776613593,210.50565365870716 167.46964017977007,216.50833484972827 155.81146926549263,216.6512551647029 154.90067466255277,210.43419283942785 150.65029984991997,207.1469867846463 148.46439280360937,204.00268740748288 147.4321589206811,196.28479813196464 150.10382308857515,189.71022864803672 155.20427286368795,184.77925853861962 159.6368065965362,183.77876735222526 165.89092953503132,184.77925853861962 168.92691154405475,185.7082847103011 171.41641679150052,188.42389217257733 174.7559970014263,195.0699369663489 175.12031484255567,200.5010636469815 172.20577211375348,206.64675834064838 167.95539730112068,210.79149685846642 167.46964017977007,216.5797950110864 155.69002998503856,216.5797950110864 155.08283358300105,210.7200360702118 150.52886056969874,206.64675834064838 147.55359820090234,200.6439874296193 147.25,196.42772282805527 148.7679910045117,191.56826579582412 154.41491754120216,185.2795035627787 160.06184407812543,183.7073036378133 167.0446026986465,185.20804001117358 171.47713643172756,188.63828175910749 174.81671664188616,195.42724930605618 174.9381559221074,201.07275859150104 171.90217391285114,207.0040644109249 168.01611694158055,210.43419283942785 167.7125187406782,216.2939543190878 166.4374062968418,216.50833484972827" stroke="#4DD2FF" stroke-linecap="round" stroke-linejoin="round" stroke-width="0.5"><title>2020-03-23 10.0km</title><desc>1584960411000</desc></polyline><polyline fill="none" points="42.82660359295551,227.25 43.42621283396147,232.6215094718209 44.325626695295796,235.40525308711221 44.25900344620459,247.24572613398777 42.85991521750111,246.93207621367765 42.19368272763677,248.8531777097087 38.86252027831506,249.9509454150102 34.19889284914825,252.6561444767285 35.66460432682652,255.6357606232341 35.86447407398373,258.8505821142171 34.765190465492196,261.7909426235128 31.76714426127728,264.5352575488796 31.833767510135658,267.4363678470254 25.371312358416617,267.6323879743868 24.87163799093105,264.3784401137091 22.639759149984457,262.4966255914478 21.04080117412377,259.7130903392099 20.67437330482062,257.39999546445324 21.04080117412377,254.81244808784686 22.40657777839806,252.53852754662512 26.204102970659733,249.48047394902096 29.435330546693876,249.5588859024865 32.86642786941957,250.65665146740503 34.132269600289874,251.83282516355393 35.79785082489252,255.36132331955014 35.931097322842106,258.1840970781632 34.66525559220463,261.83014726889087 31.96701400820166,264.2216226105229 31.600586138665676,267.5147759106476 25.338000733754598,267.75 24.805014741956256,264.41764447884634 22.53982427646406,262.41821644071024 21.10742442321498,259.7130903392099 20.874243051744998,255.71417124327854 22.439889402943663,252.7345557421213 26.03754484828096,249.51967992790742 30.268121158936992,249.67650380081614 33.366102236905135,251.00950397746055 35.498046204447746,254.49880472457153 35.931097322842106,258.45853224169696 34.66525559220463,261.83014726889087 31.933702383656055,264.45684883985086 31.833767510135658,267.55397993620136 25.27137748489622,267.6323879743868 24.838326366618276,264.33923574423534 22.573135901009664,262.1829888866341 21.04080117412377,259.7130903392099 20.907554676174186,255.83178714147652 22.306642904994078,252.61693883757107 26.67046571348328,249.48047394902096 31.867079134681262,250.06856318598147 34.16558122471906,251.83282516355393 35.531357828876935,254.49880472457153 35.931097322842106,258.3017121735902 34.765190465492196,261.67332866168 31.96701400820166,264.45684883985086 31.867079134681262,267.59318395741866 25.27137748489622,267.71079599577934 24.805014741956256,264.2216226105229 22.306642904994078,261.9477611796756 21.174047672306187,259.94831949847867 20.940866300836205,255.32211797349737 22.473201027372852,252.53852754662512 26.070856472710148,249.7549157118483 29.735135167022236,249.7549157118483 33.13292086531874,250.89188651242875 34.19889284914825,251.7544137025834 35.76453920034692,255.4789393323881 35.9977205718169,258.4977372479043 34.498697469593026,261.9477611796756 31.96701400820166,264.4960531964025 31.833767510135658,267.59318395741866 25.23806586046703,267.59318395741866 24.805014741956256,264.30003137062886 21.307294170255773,260.1443436809059 20.84093142731581,258.4193272309785 20.97417792514898,255.12609117929242 22.639759149984457,252.34249924489995 26.503907591104507,249.9117394828936 31.100911771180108,250.1861809186812 34.29882772266865,251.87203088749084 35.59798107796814,254.38118839330855 35.96440894738771,258.57614724803716 34.56532071856782,262.1829888866341 32.03363725717645,264.33923574423534 32.03363725717645,267.55397993620136 25.171442611375824,267.59318395741866 24.93826123990584,264.33923574423534 21.80696853750851,261.2028724323609 20.807619802770205,258.65455723102787 20.940866300836205,255.00847505184356 22.473201027372852,252.34249924489995 25.771051852381788,250.14697501208866 28.802409681258723,249.79412166101974" stroke="#4DD2FF" stroke-linecap="round" stroke-linejoin="round" stroke-width="0.5"><title>2019-12-13 10.0km</title><desc>1576239112000</desc></polyline><polyline fill="none" points="86.58943785435986,228.7351511411689 86.12044966040412,227.25 86.65643616777379,233.0459293501699 86.51127315533813,233.5979081802434 86.01995219028322,233.55848120420706 85.87478917784756,234.24188030791265 85.05964303121436,234.38644500967348 83.15019109862624,235.51667219446972 83.65267844928894,236.62060486195696 83.7085103772115,237.63253431698104 83.46284989459673,238.34219409489742 82.41320965095656,239.4198176726568 82.35737772315042,239.91920096345711 82.55837266345043,245.42542256627348 83.74200953391846,245.87221717854118 84.44549182482297,246.358432975685 86.19861435936764,246.56868785219558 86.37727652851027,246.83150593558094 86.70110171008855,260.4709832555309 86.96909496374428,262.8886112300388 86.89093026483897,267.3558405947115 86.39960929966765,267.53978180976264 80.69358627311885,267.47408855063986 78.48264193022624,267.75 77.18734120402951,267.605475033306 76.87468240800081,265.14852427653386 76.62902192550246,254.04564009405294 72.43046095099999,253.44119358181342 72.22946601069998,253.17838981148088 71.42548624961637,253.060127929195 71.16865938145202,252.1534496700042 71.40315347845899,251.73295890303416 71.28032323718071,251.45701104543696 70.21951660804916,250.53718032218603 69.24804106337251,250.8262707292597 68.72322094155243,250.65544466285064 68.25423274759669,249.9852785420153 68.03090503619751,249.06543666435755 68.06440419290448,242.40294522049226 68.343563832168,240.655130487954 68.63388985698111,239.97176750608924 68.56689154356718,239.23583383690857 69.91802419757005,230.25971216129255 71.65998034662334,230.23342678878544 75.40071951271966,230.53570822881738 75.59054806741187,230.69341998543678 82.50254073558608,231.96824915814796 84.95914556103526,232.6516572196997" stroke="#4DD2FF" stroke-linecap="round" stroke-linejoin="round" stroke-width="0.5"><title>2019-11-23 10.0km</title><desc>1574497580000</desc></polyline></svg>