<?xml version="1.0" encoding="utf-8" ?>
<svg baseProfile="full" height="300mm" version="1.1" viewBox="0,0,200,300" width="200mm" xmlns="http://www.w3.org/2000/svg" xmlns:ev="http://www.w3.org/2001/xml-events" xmlns:xlink="http://www.w3.org/1999/xlink"><defs /><rect fill="#222222" height="300" width="200" x="0" y="0" /><text fill="#FFFFFF" style="font-size:12px; font-family:Arial; font-weight:bold;" x="10" y="20">Over 10km Runs</text><text fill="#FFFFFF" style="font-size:4px; font-family:Arial" x="10" y="280">Runner</text><text fill="#FFFFFF" style="font-size:9px; font-family:Arial" x="10" y="290">Floyd Li</text><text fill="#FFFFFF" style="font-size:4px; font-family:Arial" x="65" y="280">SPECIAL TRACKS</text><rect fill="yellow" height="2.6" width="2.6" x="65" y="283" /><text fill="#FFFFFF" style="font-size:3px; font-family:Arial" x="70" y="285.5">Over 20.0 km</text><rect fill="red" height="2.6" width="2.6" x="65" y="287" /><text fill="#FFFFFF" style="font-size:3px; font-family:Arial" x="70" y="289.5">Over 40.0 km</text><text fill="#FFFFFF" style="font-size:4px; font-family:Arial" x="120" y="280">STATISTICS</text><text fill="#FFFFFF" style="font-size:3px; font-family:Arial" x="120" y="285">Number: 23</text><text fill="#FFFFFF" style="font-size:3px; font-family:Arial" x="120" y="290">Weekly: 1.5</text><text fill="#FFFFFF" style="font-size:3px; font-family:Arial" x="141" y="285">Total: 254.6 km</text><text fill="#FFFFFF" style="font-size:3px; font-family:Arial" x="141" y="290">Avg: 11.1 km</text><text fill="#FFFFFF" style="font-size:3px; font-family:Arial" x="167" y="285">Min: 10.0 km</text><text fill="#FFFFFF" style="font-size:3px; font-family:Arial" x="167" y="290">Max: 21.3 km</text><polyline fill="none" points="48.0,51.69197403560611 47.96432111001923,51.75796804080164 47.69927792722592,51.75796804080164 46.29760724902735,51.667976196047675 44.90103355515748,51.368002323779365 44.80928783802665,46.65819943263341 28.009627636958612,47.132197730730695 26.964745858684182,47.126197777633934 26.72009061303106,47.03619840318788 26.404077587416396,47.30019615330093 26.511114257358713,47.786188719037455 26.409174571715994,48.15818014576871 26.393883618846303,48.90215550003995 24.604842135042418,51.08002587729425 24.27863514085766,52.165929235758085 15.6698286847095,52.12993278064823 12.0,52.46589878489249 12.056066827091854,52.65787844344959 16.347727594489697,52.333912383492134 25.60894803906558,52.31591421347184 35.410448817769065,51.60798155160592 37.408466657216195,51.577984205017856 40.82344612770248,51.20001624536599 43.25980461560539,51.42799722824566 47.7298598329362,52.01594385172575 47.78082967578666,53.34180056737023" stroke="#4DD2FF" stroke-linecap="round" stroke-linejoin="round" stroke-width="0.5"><title>2026-05-12 15.2km</title><desc>1778590468000</desc></polyline><polyline fill="none" points="91.69064204860479,32.0 91.65192046249285,32.97982838284224 89.17373895621859,33.89129254849104 87.29574203351513,35.25848139205482 87.79912265192252,37.74218505786848 87.62487551476806,39.29163671196147 87.08277331036516,40.453717963348026 85.5532706619706,42.117077996517764 85.32094114564825,43.84878131833102 81.62302967929281,43.91713773594529 81.37133937003091,42.25379193489789 79.57078561931849,40.15750178336748 78.98996182892006,38.17512122778862 79.24165213806555,36.42058492277283 80.24841337499674,34.848325671991915 82.64915170927998,33.64064029660949 84.60459180409089,33.70900003127463 85.84368255722802,34.18751755193807 87.31510282657109,35.96485881309491 87.79912265192252,37.51432355798897 87.58615392877255,39.42835248647316 85.51454907597508,42.23100628465181 85.7468785920646,52.18810034978378 89.50287243758794,54.238701939131715 91.90361077187117,54.466545326664345 92.3876305972226,54.89944708306575 92.67804249248002,65.81283396718209 92.54251694132108,66.6785899065726 91.76808522059582,67.17981540151231 86.71491824300028,67.88608566358744 82.26193584885914,68.0 77.32493362936657,67.70382259706093 68.72874152939767,66.51910881693766 61.042506701196544,66.45075974153588 60.65529084089212,58.97779359517153 60.84889877110254,55.4234848596825 77.11196490610018,54.83109423331916 78.7576323125977,54.19313323209644 81.66175126528833,52.415945957705844 81.48750412813388,42.77786120894598 81.25517461192794,42.025935321551515 80.20969178900123,41.091720626689494 79.28037372406106,39.633425981664914 78.95124024292454,37.8789018393436 79.45462086121552,35.98764514205686 81.23581381887197,34.1191579727747 82.5329869510606,33.663426877275924 83.92696404841263,33.617853713498334 86.19217683142051,34.52931511461793 87.66359710088,36.85352381247503 87.7216794800479,38.88148885530245 87.08277331036516,40.499289646351826 85.53390986891463,42.09429233142873 85.37902352481615,43.89435226582282 81.71983364433981,43.985494131353335 81.29389619792346,42.04872099396016 79.78375434258487,40.59043298268807 78.98996182892006,38.53969836389297 79.18356975901406,36.694020114679006 80.09352703089826,35.076190059640794 82.20385346980765,33.754573175363475 84.83692132029682,33.80014630962978 86.09537286637351,34.46095564648567 86.90852617309429,35.30405420043098 87.83784423791803,37.69661277763953 87.29574203351513,40.11193002638174 85.57263145491015,42.00314964662539 85.34030193882063,43.82599584078707 81.71983364433981,43.96270866865234 81.33261778391898,42.16264931911428 79.8224759286968,40.63600463599141 79.0674050009111,38.88148885530245 79.14484817301854,36.87631004516152 79.93864068668336,35.19012216091505 81.75855523045175,33.9140791020036 84.08185039251111,33.64064029660949 86.26962000364438,34.6204610374989 87.1602164824726,35.736995388084324 87.76040106604341,37.195317043428076 87.66359710088,39.20049281294632 86.96660855214577,40.61321881055483 85.5532706619706,42.20822063193191 85.39838431787211,43.84878131833102 81.81663760950323,44.008279591595056 81.41006095614284,42.23100628465181 79.88055830763187,40.61321881055483 79.02868341491558,38.53969836389297 79.33845610311255,36.238294597380445 80.44202130520716,34.68882045378268 82.76531646726653,33.617853713498334 84.87564290629234,33.80014630962978 86.34706317563541,34.68882045378268 87.76040106604341,37.10417223619879 87.70231868687551,38.972632892560796 86.85044379415922,40.77271953687887 85.5532706619706,42.04872099396016 85.47582748986315,43.80321036082751 81.7779160233913,44.008279591595056 81.25517461192794,42.00314964662539 80.05480544478633,40.90943434892688 79.1642089659581,39.29163671196147 78.98996182892006,37.468751228341716 79.68695037742145,35.30405420043098 79.78375434258487,35.53191809449345 80.55818606319372,34.6204610374989 81.81663760950323,33.89129254849104 84.54650942492299,33.731786604519584 86.4051455546869,34.64324751200911 87.1021341033047,35.53191809449345 87.79912265192252,37.44596505984373 87.76040106604341,38.63084254931891 87.17957727541216,40.29421699520026 85.49518828291912,42.16264931911428 85.37902352481615,43.84878131833102 81.83599840244278,44.008279591595056 81.33261778391898,42.185434976781835 79.49334244732745,40.08914414414903 78.98996182892006,38.58527046155359 79.33845610311255,36.12436306376185 80.38393892615568,34.75717984774383" stroke="#4DD2FF" stroke-linecap="round" stroke-linejoin="round" stroke-width="0.5"><title>2026-05-11 15.3km</title><desc>1778503630000</desc></polyline><polyline fill="none" points="141.33333333325572,33.26266808115179 138.98439716291614,34.52476565307006 138.67801418411545,37.52974831609754 133.36737588630058,39.21253149828408 127.13758865208365,43.359368268051185 128.31205673748627,48.04705946921604 128.31205673748627,53.27559139369987 126.98439716268331,56.821349375590216 122.79716312023811,61.26853921957081 122.08226950326934,66.4368502026191 112.2269503546413,66.25656109501142 111.76737588644028,61.92960493720602 106.40567375859246,55.679497583711054 105.58865248202346,48.34755114413565 106.71205673762597,45.22242976987036 109.16312056733295,42.217488771362696 113.70780141814612,39.63322649622569 118.96737588639371,39.33273010153789 124.73758865240961,42.09729079302633 128.0056737586856,47.025386556982994 128.51631205668673,52.07363439316396 127.08652482251637,56.400667409878224 122.49078014143743,61.80941122886725 121.929078013869,66.37675384001341 112.3290780140087,66.37675384001341 111.61418439703993,61.74931436491897 108.44822695036419,58.62426847306779 106.04822695022449,54.71793635765789 105.43546099285595,49.48941802489571 105.99716312042437,46.90518962015631 109.21418439713307,42.03719179413747 115.44397163088433,39.21253149828408 121.21418439690024,39.93372272810666 127.1886524821166,44.501245414372534 128.4141843970865,49.06873050000286 128.3631205672864,52.794808905920945 126.0141843969468,58.08339335897472 122.64397163083777,61.38873304496519 122.23546099266969,66.25656109501142 112.78865248220973,66.67723558848957 111.61418439703993,61.62912061775569 108.70354609913193,58.98485158971744 105.79290780122392,54.35735046811169 105.53758865245618,48.76823921565665 107.01843971642666,44.80173900985392 111.00141843943857,40.77511131140636 113.80992907797918,39.57312723022187 117.99716312042437,39.21253149828408 122.69503546087071,40.594813865143806 124.7886524819769,42.15738978527952 128.20992907788604,47.68646924442146 128.61843971605413,50.99187086627353 127.69929077965207,55.499204980791546 122.79716312023811,61.088248432439286 122.49078014143743,65.95607911876868 112.83971631200984,66.73733191879 111.56312056700699,61.68921749445144 106.86524822679348,56.58095971989678 105.33333333325572,51.11206691805273 106.20141843962483,46.30420454527484 109.06099290773273,41.97709278849652 115.59716312051751,39.15243218670366 121.3163120567333,39.99382195487851 125.5035460991785,42.818478273111396 127.54609929048456,45.94361318775918 128.567375886254,49.910105230577756 127.23971631168388,56.400667409878224 122.54184397147037,61.56902373424964 122.23546099266969,66.31665747065563 112.78865248220973,66.67723558848957 111.66524822684005,61.92960493720602 106.71205673762597,56.400667409878224 105.43546099285595,52.794808905920945 106.30354609899223,46.24410600186093 108.9588652481325,42.397785690263845 114.57588652474806,39.33273010153789 120.19290780113079,39.63322649622569 125.19716312061064,42.57808255054988 128.46524822665378,48.28745282226009 127.69929077965207,55.078522012685426 125.75886524817906,58.443976827082224 122.64397163083777,61.50892684434075 122.23546099266969,66.25656109501142 112.63546099280939,66.61713925184449 111.66524822684005,61.80941122886725 108.2439716309309,58.50407404883299 105.84397163102403,54.29725279728882 105.48652482242323,48.64804265630664 107.32482269476168,44.20075165631715 109.98014184366912,41.316003298328724 113.09503546101041,39.69332575565204 117.99716312042437,39.21253149828408 122.79716312023811,40.53471470344812 127.34184397151694,45.282528423762415 128.51631205668673,48.52784607093781 128.26099290745333,53.57608023704961 126.37163120531477,57.84300425008405 122.64397163083777,61.56902373424964 122.64397163083777,65.59550053236308 121.8269503545016,66.4368502026191 112.2269503546413,66.25656109501142 111.40992907760665,61.50892684434075 107.47801418439485,57.662712350080255 105.84397163102403,54.41744813264813 105.33333333325572,50.81157674017595 106.30354609899223,45.94361318775918 110.08226950350218,41.376102375390474 114.11631205677986,39.513027957757004 120.29503546096385,39.69332575565204 123.8695035460405,41.376102375390474 126.32056737574749,43.71996130485786 135.81843971600756,38.431239941273816" stroke="#4DD2FF" stroke-linecap="round" stroke-linejoin="round" stroke-width="0.5"><title>2026-05-10 11.2km</title><desc>1778422578000</desc></polyline><polyline fill="none" points="175.20985562424175,41.591032133525005 172.83805364742875,38.60879076072888 172.4528892239323,37.29659176558198 172.6758791533066,34.9584723640437 173.75028517702594,33.26451321170316 175.59502004785463,32.167011594967335 177.7235602834262,32.0 180.0953622603556,33.07364375810721 181.39275821344927,34.98233085066022 181.6360199546907,36.270685288109235 181.3319427780807,38.22706095020112 180.43998306046706,39.777834190346766 179.20340254250914,40.89915573201142 179.42639247199986,51.37250045646215 183.2983085195301,53.49573743068322 186.35935209644958,54.09214862987574 186.6837010848103,66.44942540401826 185.99445948458742,67.06965655180102 184.45380179036874,67.35591649272828 177.115405930439,68.0 170.50679529411718,67.66603100899374 162.43861421069596,66.47328048042255 153.49874522106256,66.35400507254235 153.27575529168826,54.95097792026354 156.9246814098442,54.52156369360455 170.2027181176236,54.25914347630169 171.82446305907797,53.78201500776049 175.29094287136104,51.682637470410555 175.2301274361089,43.16563929169206 179.0614998601377,43.0224936514569 179.4669360955013,51.539497364428826 183.1766776489094,53.471880949189654 186.35935209644958,54.116005044284975 186.72424470831174,65.54293058610347 186.4607111553196,66.80725127925689 182.7712414136622,67.61832111183321 176.1829025890911,68.0 170.95277515309863,67.71374089588062 162.60078870481811,66.4971355542948 153.5392888446804,66.3301499831723 153.29602710343897,54.831696274646674 170.2027181176236,54.282999872652 171.9663657414494,53.734302104159724 175.2503992477432,51.634924112062436 175.0476811301196,42.02047156568733" stroke="#4DD2FF" stroke-linecap="round" stroke-linejoin="round" stroke-width="0.5"><title>2026-05-10 11.3km</title><desc>1778397813000</desc></polyline><polyline fill="none" points="29.70146074553486,72.0 33.928664461156586,76.2570880305102 34.24542442128586,76.36919540935924 34.293078574570245,76.51427493507435 34.256637163241976,76.79783747028523 34.489301558729494,77.03193943740735 34.5145302281162,77.25944526156673 33.19142667786218,77.45397788149421 32.41774748322496,77.32868582780611 32.08697159566509,77.31879432795722 27.142152395143057,77.30890282491418 26.329228603688534,77.2726339529654 25.791016990013304,77.28252546777367 25.673283199532307,77.32538866154209 25.648054530160152,80.66853224939587 25.53873029613169,80.98502390432986 25.57236852198548,82.9168705481643 25.510698441241402,91.39774718176523 25.547139852584223,94.21869050405985 25.485469771869248,105.76668339006574 25.51350162673043,107.01182692563998 25.67048001405783,107.11723357475239 28.87732421210967,107.15346702648276 28.930584736386663,107.20287620965428 28.93619110736472,107.2885186047497 28.815654131380143,108.0 28.95301022028434,107.30498826861367 28.888536954065785,106.30361658152287 28.92217517993413,105.80621253545723 29.10718542210816,105.08479758893736 30.435895343340235,102.42299153545719 31.11426623139414,101.3456848427486 31.56838228041306,100.75265578260223 31.489893086763914,100.6768790181668 31.237606392867747,100.99645801111728 30.44430489980732,102.3109797639936 30.301342439925065,102.31756870308345 30.124741754189017,102.21543998754896 30.032236633094726,102.08366049561664 30.015417520175106,101.90905179382207 30.012614334686077,99.80049061417776" stroke="yellow" stroke-linecap="round" stroke-linejoin="round" stroke-width="0.5"><title>2025-11-09 21.3km</title><desc>1762645227000</desc></polyline><polyline fill="none" points="68.00768740219064,74.88943728193408 74.4438635604456,72.07809305179399 82.804257332813,73.24948781332932 86.5863402299583,75.59227162622847 89.30678582238033,78.95024848193862 91.8945267519448,85.58806369191734 89.77125214319676,94.95899288996588 83.66683764290065,101.51857085974189 83.73318997421302,107.06292951019714 70.72813299507834,107.84382166957948 69.46743869618513,101.2843012457015 64.15925217373297,96.05226002953714 61.43880658131093,89.3364499870222 61.83692057034932,83.24531236081384 65.2208894782234,76.99793825973757 71.85612263088115,72.78093013714533 80.08381174015813,72.31237215641886 86.45363556686789,75.35799358779332 91.43006043159403,83.01103680906817 91.16465110541321,91.75727244548034 88.17879618657753,97.06743517436553 83.99859930039383,100.89385171968024 83.66683764290065,107.29719724698225 71.25895164720714,107.84382166957948 69.5337910274975,101.12812146061333 62.50044388580136,93.00672601786209 61.50515891285613,86.68134504108457 62.89855787483975,80.66827710391954 68.27309672860429,74.49897346098442 76.43443350633606,72.0 84.19765629502945,73.71804518502904 87.44892054004595,76.60747558099683 90.9655941107776,82.23011775314808 91.69546975754201,86.68134504108457 91.09829877363518,91.2106358265155 89.24043349106796,95.73989815852838 83.86589463753626,101.05003155552549 83.66683764290065,107.14101876411587 73.31587392440997,108.0 70.59542833222076,107.60955411044415 69.86555268499069,101.67475056031253 64.49101383145899,96.36462176468922 62.56679621711373,93.00672601786209 61.571511244401336,86.44707060564542 63.03126253816299,80.51209285308141 68.80391538073309,74.18660225206986 77.16430915310048,72.07809305179399 84.46306562121026,73.79613805084955 89.70489981188439,79.5749866362894 91.29735576850362,83.40149601968005 91.43006043159403,90.66399879322853 89.24043349106796,95.66180766985053 84.06495163193904,100.42531200911617 83.73318997421302,107.06292951019714 70.92718998971395,107.84382166957948 69.66649569058791,101.2843012457015 64.49101383145899,96.44271217728965 61.903272901894525,90.11736134550301 61.77056823880412,83.87004679330857 64.82277548895217,77.62267810612684 70.52907600044273,73.24948781332932 78.49135578377172,72.23427913017804 84.19765629502945,73.87423090793891 90.3020707955584,80.43400071479846 91.62911742599681,85.43188050651224 90.8992417792324,92.22581778874155 88.31150084966794,96.75507374346489 83.86589463753626,100.97194164176472 83.60048531135544,107.14101876411587 79.88475474598818,107.84382166957948 70.66178066353314,107.76573249162175 69.73284802190028,101.2843012457015 64.82277548895217,96.83316411392298 62.765853211749345,93.24099832162028 61.77056823880412,83.79195501888171 66.68064077198505,75.74845694308169 73.84669257653877,72.31237215641886 82.9369619959034,73.40567363769514 89.24043349106796,78.8721561745042 91.5627650944516,85.27569728757953 91.03194644208997,91.83536335738609 88.11244385503232,97.14552551094675 83.99859930039383,100.73767185019096 83.73318997421302,107.14101876411587 79.61934541957453,107.76573249162175 70.59542833222076,107.60955411044415 69.79920035367832,101.36239112570183 64.6900708260946,96.75507374346489 61.96962523367256,91.2106358265155 62.434091554256156,81.76156591356266 67.47686875006184,75.12371547281509 73.382226256188,72.39046517427778 80.88003971870057,72.62474417721387 85.5247029257007,74.73325177869992 88.90867183357477,78.40360215265537 91.62911742599681,85.11951403465355 90.8992417792324,92.30390864989022 88.31150084966794,96.83316411392298 83.93224696884863,100.6595819023205 83.66683764290065,107.06292951019714 79.68569775135256,107.6876433051657" stroke="#4DD2FF" stroke-linecap="round" stroke-linejoin="round" stroke-width="0.5"><title>2025-11-01 10.0km</title><desc>1761964262000</desc></polyline><polyline fill="none" points="137.06486952747218,81.23495365487179 138.1953107637819,86.32195397827309 137.86282804748043,91.09587555151666 134.67099396814592,97.4349685634952 130.5482082827948,100.87840318580857 129.81674630613998,107.60870529402746 117.1824030764401,108.0 116.1849549266044,101.58274006447755 110.33325911476277,95.79150534479413 107.87288701208308,88.98283218848519 108.47135590203106,82.17409487179248 111.53019689465873,77.32185211090837 115.38699640682898,74.11309303075541 122.70161617151462,72.0 128.6863050700631,73.09567863924894 132.34361495217308,75.05224350461503 137.19786261417903,81.78278617979959 138.1288142206613,88.74804921145551 136.0674213776365,95.47846430813661 130.2157255660277,101.34796118119266 129.8832428494934,107.60870529402746 116.91641690279357,107.76522320194636 115.91896875365637,101.269701536512 111.06472109118477,97.12192823854275 109.00332824862562,93.28717325272737 108.13887318572961,84.36541963100899 112.06216924102046,76.93054079101421 118.77832011599094,72.86089049925795 126.35892605409026,72.62610228301492 133.27456655865535,76.14791751519078 137.26435915753245,82.17409487179248 138.1953107637819,88.98283218848519 136.0674213776365,95.4002040278283 130.34871865296736,100.80014349031262 129.75024976301938,107.68696425238159 116.98291344637983,107.8434821430128 116.1849549266044,101.34796118119266 109.40230750851333,94.30455921211978 107.80639046919532,87.02630504657282 108.53785244538449,82.48714167287108 110.79873491823673,78.49578479939373 116.4509411000181,73.64351733576041 124.56351938424632,72.15652562165633 132.7425942120608,75.75660555943614 137.53034533071332,83.19149647915037 138.1288142206613,89.29587603977416 135.46895248792134,96.10454624606064 130.34871865296736,100.87840318580857 129.4842635896057,107.8434821430128 117.04940998996608,107.8434821430128 116.38444455643184,101.269701536512 111.66318998113275,97.35670849506278 108.9368317052722,92.7393494505086 108.20536972861737,83.66106596874306 112.79363121744245,76.06965514086187 119.50978209264576,72.54783952748403 128.0213396367617,72.93915322091198 134.33851125184447,77.55663880135398 137.66333841742016,84.44368110655341 137.86282804748043,90.07848507427843 135.86793174780905,95.63498484349111 130.28222210961394,101.19144188350765 130.01623593596742,107.37392836890649 129.1517808730714,107.76522320194636 116.98291344637983,107.8434821430128 115.91896875365637,101.19144188350765 111.39720380818471,97.35670849506278 108.9368317052722,92.97413113055518 108.20536972861737,83.89585059921956 112.66063813096844,76.30444223823724 120.04175443900749,72.54783952748403 128.81929815653712,73.17394133564085 134.27201470849104,77.24358986393781 137.7298349607736,84.36541963100899 137.796331504127,90.93935403280193 135.00347668491304,96.88714790600352 130.41521519608796,101.11318222188856 129.75024976301938,107.60870529402746 116.98291344637983,107.8434821430128 116.25145146995783,101.50448044511722 111.59669343801215,97.20018833252834 108.9368317052722,92.97413113055518 108.40485935891047,83.42628126218915 112.461148501141,76.69575389724923 120.57372678536922,72.31305120937759 129.08528432971798,73.01741593430052 134.5380008816719,77.32185211090837 137.796331504127,84.28715814684983 137.7298349607736,91.01761479629204 135.73493866133504,95.86976558319293 130.28222210961394,101.34796118119266 130.5482082827948,107.13915136724245 131.14667717227712,101.66099967516493 136.3999040944036,96.18280645040795 138.72728311037645,90.78283248021035 138.86027619731613,84.913249782403 136.86537989764474,79.27840553212445" stroke="#4DD2FF" stroke-linecap="round" stroke-linejoin="round" stroke-width="0.5"><title>2025-10-27 10.0km</title><desc>1761565093000</desc></polyline><polyline fill="none" points="162.28781746630557,75.0639011383173 165.021249250276,73.30215960583882 168.60074325324968,72.68937891366659 176.99628373305313,74.06813472451176 182.59331071958877,79.96611534641124 184.6759254122153,86.01723914482864 184.15527173876762,91.76192901545437 182.59331071958877,95.74488659802591 176.93120202375576,101.4129029433825 176.93120202375576,107.15746775193838 164.17518703150563,107.69362475315575 163.2640431036707,101.4129029433825 157.99242466292344,96.43424236407736 155.38915629684925,90.84278177225497 155.32407458801754,84.2555249009747 158.5130783363711,77.74480374401901 165.99747488764115,73.14896448265063 175.30415929527953,73.45535469590686 178.36299962503836,75.0639011383173 181.87741191871464,78.89375889237272 184.74100712127984,86.09383531677304 182.9838009744417,94.74914930539671 176.99628373305313,101.18311938049737 176.80103860562667,107.15746775193838 164.04502361337654,107.69362475315575 163.19896139437333,101.4129029433825 158.77340517262928,97.50657221965957 155.58440142474137,91.53214231674792 155.51931971521117,83.56615726306336 158.25275149941444,78.4341770572355 165.2164943779353,73.60854975297116 172.5707275113091,73.0723669087165 177.7772642429918,74.98730377154425 180.44561431766488,77.20862403616775 184.74100712127984,84.9448918668786 184.61084370315075,90.07682482351083 183.1139643928036,94.82574453164125 176.99628373305313,101.18311938049737 176.80103860562667,107.23406163405161 164.500595577294,107.84681239299243 163.06879797624424,101.48949744785205 158.57816004520282,97.50657221965957 155.25899287872016,89.84703757718671 155.77964655216783,83.25977143069031 158.4479966268409,78.12778900103876 165.9323931785766,73.30215960583882 175.17399587691762,73.68514726898866 178.68840817105956,75.29369318846148 181.03134969994426,77.82140081189573 184.54576199385338,85.40446947084274 184.48068028502166,90.61299477465218 182.91871926537715,95.1321253531496 176.93120202375576,101.4129029433825 176.80103860562667,107.23406163405161 164.30535044963472,107.77021857723594 163.3942065217998,101.8724698452861 157.08128073462285,95.20872053777566 155.19391116965562,89.92363333445974 156.17013680678792,81.3448569693137 158.38291491754353,78.20438602741342 166.12763830600306,73.30215960583882 172.96121776639484,73.22556204837747 179.79479722632095,76.51924952823902 184.35051686665975,84.02573576307623 184.54576199385338,90.45980340149254 182.1377387556713,96.28105225175386 177.12644715118222,101.02993029728532 176.7359568963293,107.31065550784115 164.37043215916492,108.0 163.3942065217998,101.79587538226042 158.4479966268409,97.12359745771391 155.71456484287046,91.68533345742617 155.58440142474137,84.40871761814924 158.317833208479,78.4341770572355 164.17518703150563,74.06813472451176 170.8786030735355,72.91917173546972 178.4280813341029,75.29369318846148 183.3742912292946,81.19166358857183 184.8060888305772,86.24702763569076 184.220353448065,91.9917156395386 182.20282046473585,96.28105225175386 177.06136544258334,101.02993029728532 176.86612031492405,107.38724937353982 164.04502361337654,107.54043707996607 163.3291248125024,101.48949744785205 158.77340517262928,97.42997728381306 156.17013680678792,93.21724304062082 155.25899287872016,84.63850663189078 158.70832346356474,77.89799787168158 161.8322455023881,75.29369318846148 167.23402736103162,73.14896448265063 175.9549763868563,73.99153725011274 179.53447038959712,76.44265231938334 182.20282046473585,79.88951851066668 183.17904610210098,78.81716194044566 178.10267278854735,73.83834227611078 171.52942016511224,72.0 163.97994190407917,73.14896448265063 159.22897713654675,76.44265231938334 157.53685269900598,78.66396801214432 159.61946739139967,77.36181827983819" stroke="#4DD2FF" stroke-linecap="round" stroke-linejoin="round" stroke-width="0.5"><title>2025-10-19 10.0km</title><desc>1760866141000</desc></polyline><polyline fill="none" points="40.36274410993792,116.00008838629583 43.69481617142446,121.64723437064094 44.49451346625574,128.54924187576398 42.36198734678328,135.45118359389016 36.7641062841285,140.941317529534 36.430899078026414,147.05884631245863 23.635742363519967,147.76471169269644 22.502837862586603,140.86288733786205 15.83869374054484,133.64727335848147 14.439223474822938,126.03942857653601 17.90457841870375,117.41187901131343 25.03521262924187,112.78433279786259 33.032185575924814,112.39216650504386 40.1628197862301,116.31381987396162 44.09466481860727,122.74528541968903 44.62779634841718,129.25512529874686 42.16206302330829,135.92176813370315 36.89738916698843,140.70602692873217 36.164333313237876,147.52942330914084 23.569100922439247,147.60785277868854 22.76940362760797,141.49032863369212 18.304427065420896,137.4903810575488 15.505486534209922,132.7845320921624 14.705789239611477,123.92176683887374 18.637634271755815,116.78441685100552 26.63460721843876,112.15686662757071 34.298372958786786,112.70589955622563 40.89587564021349,117.0981479989714 44.49451346625574,123.68647070793668 44.69443778973073,129.72571386530763 42.428628787864,135.60804514138727 36.83074772544205,141.0197477125912 36.497540519572794,147.52942330914084 23.502459480892867,147.60785277868854 22.76940362760797,141.72561897942796 17.90457841870375,136.94136692065513 14.705789239611477,130.74532137642382 15.038996445713565,121.56880208902294 18.570992830675095,116.47068556718295 21.17000903841108,114.5882950083469 28.900416219839826,112.0 36.96403060783632,113.96083040145459 40.96251708106138,117.17658076487714 44.02802337729372,121.88253116415581 44.49451346625574,130.8237526640878 42.428628787864,135.76490665436722 37.03067204914987,141.0981778873247 36.89738916698843,147.29413484892575 25.03521262924187,148.0 23.502459480892867,147.60785277868854 22.569479303900152,141.25503821129678 17.63801265344955,136.39235236746026 14.572506357217208,129.80414526333334 14.372582033509389,124.4707908469718 17.90457841870375,117.41187901131343 20.770160390995443,114.8235940960003 25.968192806234583,112.54903304768959 33.83188287029043,112.54903304768959 39.629688256653026,115.8432225913275 44.62779634841718,123.84333480376517 44.02802337729372,131.9217897981871 42.16206302330829,135.92176813370315 36.7641062841285,140.62759671139065 36.56418196042068,147.29413484892575 23.902308128308505,147.68628224002896 22.502837862586603,141.1766080536181 16.505108152749017,135.05902957718354 14.505864916136488,129.96100803365698 14.705789239611477,123.60803864750778 17.50472977105528,117.96090795547934 20.703518949681893,114.8235940960003 25.368419835343957,112.62746630609035 33.69859998789616,112.62746630609035 40.76259275735356,116.86284965096274 44.961003554519266,125.80413313384634 42.62855311157182,135.37275280762697 36.89738916698843,140.39230600901647 36.69746484328061,147.29413484892575 23.435818039579317,147.68628224002896 22.63612074498087,141.49032863369212 16.705032476456836,135.29432201269083 14.505864916136488,129.1766938411747 15.505486534209922,121.41193750046659 18.970841477857903,116.39225272485055 24.368798216804862,112.94119925540872 32.898902693530545,112.31373322108993 37.963652226142585,114.5882950083469 42.49527022917755,119.21582969283918 44.56115490710363,125.01981443882687 44.49451346625574,130.35316481121117 41.89549725828692,136.15706028905697 36.83074772544205,140.78445713722613 36.96403060783632,146.90198724565562 37.763727902434766,141.33346836059354 41.4290071700234,138.11782527546166 44.49451346625574,133.09825630794512 45.62741796672344,127.6864945354173 45.160927878227085,123.84333480376517" stroke="#4DD2FF" stroke-linecap="round" stroke-linejoin="round" stroke-width="0.5"><title>2025-10-16 10.0km</title><desc>1760611285000</desc></polyline><polyline fill="none" points="68.28168315114453,114.5263738015201 76.19710758980364,112.0 83.44173334725201,113.42108634090982 89.47892147814855,119.18435254093492 91.82671686261892,125.73705189861357 90.28387989592738,134.18442077346845 83.64297295175493,141.36855465109693 83.57589308335446,147.5263273330056 70.69655840378255,147.92105457693106 69.82452011783607,141.60539302398684 63.85441185464151,135.84230410685996 61.5066164706368,129.7633801153861 61.90909567917697,122.73702817887533 65.66556829423644,116.65799488528864 73.71515246923082,112.15789861936355 81.29517756705172,112.71054351690691 87.53360530314967,116.42114840616705 91.69255712651648,125.10546898370376 90.48511950019747,133.78968609054573 83.84421255602501,141.05277003458468 83.57589308335446,147.5263273330056 70.62947853538208,148.0 69.69036038173363,141.60539302398684 64.05565145937726,136.07914427516516 61.64077620673925,130.31601166405017 61.84201581124216,123.05282073095441 65.93388776667416,116.10535298060859 74.52011088654399,112.15789861936355 83.37465347885154,113.10528961592354 90.14972015982494,120.13173440442188 91.62547725834884,125.50020836963085 90.14972015982494,134.34231458662543 83.71005281992257,141.05277003458468 83.71005281992257,147.36843637563288 70.69655840378255,147.92105457693106 69.82452011783607,141.76328522950644 63.45193264633417,135.13178314000834 61.64077620673925,129.8423275052337 61.90909567917697,122.81597632972989 65.7326481626369,116.50009724084521 73.51391286496073,112.31579720409354 82.70385479787365,113.10528961592354 88.47272345679812,117.44748259335756 91.69255712651648,125.26336476375582 90.21680002799258,134.34231458662543 83.84421255602501,141.13171620143112 83.50881321565248,147.60527279909002 70.69655840378255,147.92105457693106 69.69036038173363,141.4475007839501 63.98857159097679,135.68441061873455 61.5066164706368,129.68443271692377 61.774935943074524,123.28966505517019 64.12273132731207,118.1580207995139 71.97107589803636,112.78949275385821 80.15481980913319,112.39474648371106 84.04545216052793,113.73688292957377 87.80192477512173,116.97379007103154 91.69255712651648,125.42126050958177 91.55839739064686,130.15811697859317 89.94848055532202,134.73704897024436 83.77713268762454,141.36855465109693 83.71005281992257,147.60527279909002 70.76363827148452,148.0 69.82452011783607,141.68433913087938 64.65937027218752,136.78966431878507 61.57369633857161,130.23706432554172 61.90909567917697,122.50018367526354 65.3301689538639,116.97379007103154 73.17851352412254,112.39474648371106 82.10013598483056,112.86844198207837 88.13732411595993,117.36853386112489 91.55839739064686,125.18441687809536 90.35095976409502,133.71073912834981 87.39944556634873,138.13175584428245 83.77713268762454,141.21066235983744 83.77713268762454,147.36843637563288 70.76363827148452,147.92105457693106 69.62328051356599,141.36855465109693 64.18981119571254,136.23703767824918 61.64077620673925,130.31601166405017 62.311574888182804,120.8422699936782 64.99476961302571,117.36853386112489 73.37975312885828,112.31579720409354 82.03305611643009,112.78949275385821 88.47272345679812,117.76327743718866 91.42423765407875,124.31598957069218 90.82051884103566,132.4475865701679 87.93608451192267,137.42123710917076 83.77713268762454,140.9738238590653 83.50881321565248,147.5263273330056 71.30027721682563,148.0 70.29407919500954,146.97370883252006" stroke="#4DD2FF" stroke-linecap="round" stroke-linejoin="round" stroke-width="0.5"><title>2025-10-08 10.1km</title><desc>1759919017000</desc></polyline><polyline fill="none" points="106.94193185539916,127.88717764167814 113.4585945121944,116.69575389689999 117.7808707638178,113.48699203616707 122.83460915042087,112.0 133.80654117418453,114.42614332417725 138.46130021475255,120.8436444538529 139.72473481134512,128.5132661574753 137.13136906037107,135.86976558278548 131.74514788482338,140.95666287303902 131.54565821168944,147.4521873522899 118.51233289856464,147.76522320188815 117.84736732114106,141.73925927723758 113.59158762730658,137.82626877859002 110.59924253006466,133.28717325231992 109.60179416416213,124.52194257336669 113.1926082810387,117.24358986358857 120.17474684142508,112.93915322097018 127.09038884472102,112.39131399057806 135.003479213221,116.14791751507437 139.12626579171047,122.95671161985956 139.52524513821118,129.0610931640258 137.53034840687178,135.16542313538957 131.67865132750012,141.11318222159753 131.08018230763264,147.53044632758247 118.57882945658639,147.92174107563915 117.71437420579605,141.5044804449426 110.59924253006466,133.60021523863543 109.53529760660604,125.4610795180779 113.12611172324978,117.55663880117936 119.97525716829114,113.01741593435872 126.95739572914317,112.39131399057806 134.80398954008706,115.9131303668837 138.92677611880936,122.33061828906648 139.5917416960001,128.90457120462088 137.13136906037107,135.86976558278548 131.67865132750012,141.2697015363956 131.2131754232105,147.60870529408567 118.44583634077571,147.8434821430128 117.24889830197208,140.95666287303902 113.1926082810387,137.51322862319648 110.26675974135287,133.0523916737293 109.53529760660604,125.14803400525125 112.92662205034867,117.86968760297168 116.65042928233743,114.42614332417725 119.97525716829114,113.01741593435872 128.0213406526018,112.46957676310558 135.66844479041174,117.00880307191983 138.46130021475255,120.8436444538529 139.52524513821118,129.1393541309517 137.46385184885003,135.24368344136747 131.74514788482338,140.95666287303902 131.2131754232105,147.53044632758247 118.7118225719314,148.0 117.64787764823996,141.34796118101804 114.05706353136338,138.68712850648444 111.06471843388863,134.4610800013761 109.46880104881711,125.61760222335579 112.39464958850294,118.49578479933552 118.84481568704359,113.40872937365202 127.09038884472102,112.39131399057806 134.13902396312915,115.36529339139815 138.39480365696363,120.76538258837536 139.45874858065508,129.1393541309517 137.33085873327218,135.55672457977198 131.87814100063406,140.72188378608553 131.2796719809994,147.53044632758247 118.57882945658639,147.8434821430128 117.7808707638178,141.73925927723758 111.7961805688683,135.63498484314186 109.26931137568317,126.55673774384195 110.59924253006466,121.5480008625309 113.4585945121944,116.93054079078138 118.51233289856464,113.48699203616707 122.70161603507586,112.2347884196206 128.0878372101579,112.7043650301639 134.33851363603026,115.67834314261563 138.26181054161862,120.6088588318089 139.39225202286616,130.00022420863388 137.46385184885003,135.3219437386142 131.67865132750012,141.2697015363956 131.08018230763264,147.4521873522899 118.91131224506535,148.0 117.71437420579605,141.4262208173168 112.59413926140405,136.7306276416639 110.20026318379678,132.03500395145966 109.46880104881711,127.57413318019826 111.39720122260042,119.7479775645188 115.45349124353379,115.36529339139815 122.63511947751977,112.39131399057806 131.1466788656544,113.33046670281328 138.26181054161862,120.295811216929 139.45874858065508,125.06977260601707 138.92677611880936,131.80022196564823 134.9369826556649,138.45234868244734" stroke="#4DD2FF" stroke-linecap="round" stroke-linejoin="round" stroke-width="0.5"><title>2025-10-01 10.0km</title><desc>1759271073000</desc></polyline><polyline fill="none" points="166.1517821457237,113.31616096559446 171.41430228832178,112.0 179.1765194986947,114.0903721661889 184.04435063060373,120.82597422483377 185.03107315744273,125.31634033378214 184.8995101538021,130.42603297071764 183.45231711445376,134.52924455347238 177.20307444548234,141.0323995674844 177.0057299400214,147.5354954174254 164.37568159773946,147.92258259042865 162.9942700599786,141.34207214025082 157.92909442307428,136.54213218967197 155.56096035894006,131.74216000648448 154.9689268427901,126.70989649376133 156.48190138372593,120.90339456906077 162.07332903519273,114.86458252806915 169.70398324192502,112.69679140119115 176.87416693614796,114.0903721661889 180.03167902189307,116.25815906614298 182.99184660217725,120.2066111684544 184.9652916553896,126.01311875332613 183.8470061251428,133.36796064605005 181.41309055918828,137.31631823268253 177.20307444548234,140.80014505027793 177.0715114416089,147.22582552797394 172.53258781856857,147.84516517265 163.91521108499728,147.7677477466059 163.1258330636192,141.57432648149552 158.1922204301227,136.92922531603836 155.36361585347913,131.81957916833926 155.6925233625807,122.91632057813695 158.12643892830238,118.42593939136714 161.5470770210959,115.25168739451328 167.66475668689236,112.85163384262705 176.87416693614796,114.0903721661889 182.99184660217725,119.97434988373425 184.8337286519818,125.16150059271604 184.702165648574,130.81312940927455 181.9393425732851,137.0066439160728 177.20307444548234,141.1872358704568 176.61104092933238,147.61291286867345 164.04677408887073,147.7677477466059 163.25739606749266,141.57432648149552 155.82408636598848,133.44537963205948 154.9689268427901,128.80022563919192 155.56096035894006,122.99374069593614 159.63941346947104,116.87752554402687 167.46741218143143,112.92905505083036 175.95322591112927,113.85810889396816 180.6237125378102,117.10978783509927 184.43903964129277,123.92278145684395 184.76794714992866,130.50345227506477 182.00512407533824,136.6969694654108 177.1372929434292,141.10981772327796 177.1372929434292,147.14840803475818 176.34791492205113,147.6903303117724 164.04677408887073,147.7677477466059 163.19161456543952,141.57432648149552 158.8500354476273,137.62599241524003 156.02143087121658,132.98086559132207 155.1662713480182,124.77440109336749 159.17894295672886,117.18720858206507 167.3358491777908,112.92905505083036 177.40041895047761,114.32263536279788 182.66293909284286,119.66466805367963 184.8337286519818,125.62601971504046 184.30747663765214,132.28409396397183 181.67621656646952,137.23889966629213 177.33463744889013,140.95498140336713 177.0057299400214,147.38066048943438 172.59836932038888,148.0 164.04677408887073,148.0 163.1258330636192,141.41949026228394 158.32378343353048,137.0066439160728 155.49517885711975,131.81957916833926 155.6925233625807,123.07116080558626 161.21816951222718,115.25168739451328 166.8753786655143,113.00647625070997 172.4668063169811,112.69679140119115 175.95322591112927,113.70326667063637 181.01840154849924,117.4194707722636 184.30747663765214,123.45826122740982 184.8337286519818,130.03893632261315 182.79450209671631,135.69052657380234 177.20307444548234,141.0323995674844 176.54525942727923,147.6903303117724 164.04677408887073,147.92258259042865 162.92848855862394,141.57432648149552 158.12643892830238,137.23889966629213 156.0872123730369,133.29054165194975 155.0347083446104,125.8582791632507 158.71847244421951,117.88399492629105 162.9942700599786,114.47747745196102 168.12522719916888,112.85163384262705 172.40102481492795,112.77421262615826 177.40041895047761,114.40005641145399 183.12340960558504,120.12919074844103 184.8995101538021,126.32279783295235 183.45231711445376,134.2195690291701 177.0057299400214,141.10981772327796 176.8083854347933,147.5354954174254 170.4275797617156,147.7677477466059" stroke="#4DD2FF" stroke-linecap="round" stroke-linejoin="round" stroke-width="0.5"><title>2025-09-27 10.0km</title><desc>1758965825000</desc></polyline><polyline fill="none" points="48.0,154.3247739620856 44.15479876147583,155.37418773636455 37.41176470555365,160.09652721323073 34.792569659417495,160.88358021213207 37.46749226003885,165.40911510185106 37.41176470555365,171.1807626974187 34.34674922609702,176.886769310222 30.780185758369043,180.23164474085206 30.835913312854245,185.54405597958248 19.690402476815507,185.54405597958248 19.244582043029368,180.03488787414972 15.399380805203691,177.08352720009862 12.668730650329962,172.42690666177077 12.501547987572849,164.6876552843023 15.845201238524169,159.30947319144616 18.18575851386413,156.88271685043583 20.9721362227574,155.83330569090322 27.547987615922466,155.83330569090322 34.792569659417495,158.71918200375512 37.46749226003885,165.6058767210925 37.634674922563136,169.47550890647108 36.18575851386413,174.26332467148313 30.780185758369043,180.29723034903873 30.780185758369043,185.47847093985183 19.634674922563136,185.6752260379144 19.188854489242658,180.03488787414972 13.616099071223289,173.86980699544074 12.055727554252371,166.7208580225706 13.003095975378528,163.4414953927626 16.123839009553194,159.17829742172034 21.08359133126214,156.03007042169338 28.21671826625243,155.89889394154307 32.39628482982516,157.4074217484449 34.56965944264084,159.30947319144616 37.52321981405839,166.65527094411664 37.30030959751457,171.3119358670665 34.235294117359444,177.4114568741643 30.891640866640955,179.83813094347715 30.50154798757285,185.3473008389119 19.634674922563136,185.60964101227 18.965944272233173,179.64137394865975 13.7275541794952,174.85360070614843 12.167182662524283,170.45930975669762 12.0,166.91761921555735 13.281733746174723,162.72003323078388 18.79876160970889,156.88271685043583 26.266253869980574,155.6365408957936 33.90092879231088,158.06330223137047 36.85448916419409,163.4414953927626 37.41176470555365,169.86902943835594 35.57275541778654,175.18153158802306 30.947368421126157,179.83813094347715 30.61300309584476,185.60964101227 19.634674922563136,185.54405597958248 19.021671826718375,180.16605912573868 14.78637770889327,176.36208129191073 12.167182662524283,170.32813640212407 13.170278637902811,162.72003323078388 17.907120743067935,157.73536207864527 22.476780185708776,155.70212916785385 32.619195046136156,157.14506935648387 34.95975232170895,159.2438853100175 37.13312693499029,165.27794065367198 37.46749226003885,169.86902943835594 35.01547987596132,176.09973711211933 30.835913312854245,180.10047350340756 30.50154798757285,185.47847093985183 19.578947368543595,185.41288589284522 18.79876160970889,179.83813094347715 15.120743034407496,176.82118333288236 13.11455108365044,173.60746173595544 12.167182662524283,166.06498691730667 14.619195046601817,160.81799250119366 19.133126934990287,156.22683508880436 24.594427244504914,155.17742279235972 34.179566563339904,158.39124220615486 36.96594427223317,163.96619460720103 37.46749226003885,170.06578960834304 35.62848297180608,175.18153158802306 30.891640866640955,179.96930223761592 30.55727554159239,185.54405597958248 19.690402476815507,185.6752260379144 18.965944272233173,180.16605912573868 15.232198142446578,176.69001135666622 12.891640866873786,172.42690666177077 12.55727554182522,164.62206798547413 15.90092879277654,159.2438853100175 18.910216718446463,156.68595239665592 21.752321981592104,155.57095261651557 33.00928792566992,157.14506935648387 35.01547987596132,158.9159457970527 37.30030959751457,165.3435278813704 37.13312693499029,170.39372308296151 35.07120743021369,175.70622062933398 30.780185758369043,180.10047350340756 30.835913312854245,184.88820526195923 30.167182662524283,185.21613070950843" stroke="#4DD2FF" stroke-linecap="round" stroke-linejoin="round" stroke-width="0.5"><title>2020-04-24 10.0km</title><desc>1587724293000</desc></polyline><polyline fill="none" points="94.66666666674428,154.3404629912693 90.33333333325572,155.58279541530646 82.44444444449618,160.22517289721873 79.94444444449618,159.44054822431644 76.77777777775191,156.82512528263032 70.99999999976717,155.64818126161117 64.05555555550382,157.9366814174573 61.83333333325572,159.96363145293435 59.16666666674428,165.7175170503324 59.22222222224809,170.9482745459536 61.27777777775191,175.78668487659888 66.0,180.10199110233225 66.88888888899237,185.6595370087307 77.55555555550382,184.87494539405452 77.38888888875954,179.90584148850758 82.22222222248092,175.06746417301474 83.72222222248092,170.88289035705384 83.61111111124046,166.1752101407037 81.94444444449618,161.66364881501067 77.11111111124046,156.75973956397502 74.27777777798474,155.8443387579755 70.0,155.97511038649827 62.27777777775191,159.70208989549428 58.66666666674428,168.1367480258923 60.0,173.7597879714449 66.0,180.23275747621665 66.66666666674428,185.46338920056587 77.50000000023283,185.00571073399624 77.50000000023283,179.97122470027534 82.50000000023283,174.41362642642343 84.5,167.94059452420333 82.0,160.35594357695663 82.61111111100763,159.57131907413714 80.16666666674428,159.96363145293435 76.27777777775191,157.21743944636546 70.05555555550382,155.64818126161117 63.27777777751908,158.72130804520566 59.38888888875954,164.86751467606518 59.944444444496185,173.7597879714449 65.83333333325572,180.10199110233225 66.27777777751908,185.3326239597518 77.05555555550382,185.1364760454744 77.44444444449618,179.64430857088882 82.05555555550382,175.2636153587955 83.83333333372138,169.57520509057213 83.11111111124046,164.34443569695577 79.88888888899237,159.11362097639358 73.11111111124046,155.8443387579755 68.33333333325572,156.30203933437588 62.22222222224809,159.17900644027395 59.055555555503815,165.2598236129852 59.555555555503815,172.64826097310288 61.66666666674428,176.30975394073175 65.61111111100763,179.97122470027534 66.16666666651145,185.26724132883828 77.05555555550382,185.1364760454744 77.11111111124046,179.97122470027534 81.94444444449618,175.13284790876787 83.55555555550382,170.0328952561249 82.66666666674428,163.75597130379174 79.3888888892252,158.98285002773628 76.61111111100763,156.95589669886976 72.05555555550382,155.97511038649827 69.05555555550382,156.04049619019497 63.555555555736646,157.9366814174573 59.77777777751908,163.1021213051863 58.66666666674428,166.82905681052944 59.77777777751908,173.6944040870294 62.61111111100763,177.48665767814964 65.66666666651145,179.7750750440755 66.33333333325572,185.3980065837968 77.11111111124046,185.20185869088164 77.11111111124046,179.97122470027534 82.33333333348855,174.4790102330153 83.72222222248092,167.22136447270168 82.05555555550382,161.92518952290993 76.66666666674428,156.49819661816582 72.16666666651145,155.12509429338388 63.66666666674428,158.06745259312447 59.88888888875954,163.8213562645833 58.83333333325572,167.87521000934066 60.1111111107748,174.0213234385592 65.88888888899237,180.36352382146288 66.5,185.20185869088164 77.33333333348855,184.87494539405452 77.27777777798474,180.1673742927378 82.27777777775191,174.5443940323894 83.66666666674428,166.95982605958125 81.77777777798474,161.7290340026375 77.55555555550382,157.67513898178004 70.94444444449618,155.77895293285837 62.555555555503815,158.59053701139055 58.944444444496185,165.58674753201194 59.11111111100763,170.9482745459536 60.555555555736646,174.67516161000822" stroke="#4DD2FF" stroke-linecap="round" stroke-linejoin="round" stroke-width="0.5"><title>2020-04-16 10.0km</title><desc>1587033949000</desc></polyline><polyline fill="none" points="141.33333333325572,154.34899812319782 136.6594538895879,155.5932509598788 128.64708912931383,160.43926391366404 127.31169500225224,160.43926391366404 125.03039670269936,158.01626229239628 120.57908294652589,156.05165925406618 116.51725914468989,155.9206854912336 110.22977846465074,158.540155357623 106.44616177189164,162.99322808336 105.55589902075008,170.65505585889332 108.05976300849579,176.09031070803758 112.62235960830003,180.47776994580636 113.01184956193902,185.5855182048981 123.47243688791059,185.12713230313966 124.08449252927676,180.54325417091604 128.09067490976304,176.417734138784 130.48325605341233,170.58957056276267 130.09376610000618,165.0232944705058 126.92220504861325,159.3914806204848 124.91911385860294,157.55785548785934 120.35651725903153,155.8551985990489 115.79392065899447,156.18263298849342 109.22823286941275,158.9330748587381 106.16795466211624,164.1064911397989 105.3889747550711,167.77369612117764 106.72436888189986,174.45319089572877 112.51107676420361,180.15034871414537 113.45698093739338,185.5855182048981 123.8619268417824,185.19261602457846 124.02885110769421,179.95389589003753 128.64708912931383,175.3699785367935 130.59453889727592,170.13117329136003 129.87120041204616,164.63037892751163 125.69809376588091,158.60564195911866 119.52189592970535,155.98617237631697 110.8418341060169,158.01626229239628 106.72436888189986,163.12420031387592 105.5002575989347,167.3152967148344 106.05667181848548,172.55412635981338 108.89438433782198,177.13806506159017 112.62235960830003,180.3468014744576 113.29005667148158,185.65100187674398 123.973209685646,185.19261602457846 124.02885110769421,179.88841160113225 129.09222050500102,174.84610005503055 130.59453889727592,169.41083402035292 130.09376610000618,165.28523802378913 127.58990211202763,160.57023669790942 123.36115404427983,157.09944833570626 120.41215868084691,155.8551985990489 115.23750643967651,156.3790935371071 109.22823286941275,158.80210172006628 106.00103039643727,164.89232265105238 105.44461617711931,168.95243585546268 106.61308603780344,174.32222111924784 112.56671818625182,180.15034871414537 113.01184956193902,185.45455083984416 124.1401339515578,184.8651973460219 124.08449252927676,179.8229273048346 128.869654817041,175.2390089589171 130.42761463159695,170.06568793865154 129.81555898999795,164.23746312916046 125.19732096837834,158.60564195911866 120.02266872744076,155.6587378802942 115.12622359604575,156.51006720075384 109.22823286941275,159.19502105074935 106.22359608439729,164.3684350902913 105.5002575989347,170.32762930740137 107.89283874281682,175.8938565647113 112.4554353421554,180.28131722816033 113.12313240580261,185.65100187674398 124.1401339515578,185.0616485743667 124.1401339515578,179.95389589003753 128.64708912931383,175.50094808655558 130.53889747569337,169.73826106800698 129.7042761463672,164.3684350902913 126.36579082929529,159.3914806204848 120.35651725903153,156.05165925406618 115.01494075194933,156.24811984522967 108.39361154008657,159.65342661412433 105.5002575989347,167.8391817222 107.00257599144243,174.51867577334633 112.4554353421554,180.08486444648588 113.06749098398723,185.3890671467525 123.8062854197342,185.32358344632667 124.02885110769421,180.15034871414537 128.53580628545024,175.50094808655558 130.37197320954874,169.34534858929692 129.03657908271998,162.92774195742095 124.47398248314857,157.81980227591703 120.24523441516794,156.05165925406618 117.40752189559862,156.05165925406618 114.06903657899238,156.7065276428475 109.39515713532455,159.19502105074935 106.44616177189164,163.6480889529339 105.33333333325572,167.57723927532788 106.11231324030086,172.75058158836327 108.115404430544,176.3522494668141" stroke="#4DD2FF" stroke-linecap="round" stroke-linejoin="round" stroke-width="0.5"><title>2020-04-14 10.0km</title><desc>1586861907000</desc></polyline><polyline fill="none" points="188.0,154.43653545627603 182.588957055239,156.06115416396642 175.6319018402137,160.35012641333742 170.2760736194905,157.10090782807674 165.08588957041502,155.80121546646114 161.05521472380497,156.51604661380406 155.25766871171072,159.31037838064367 152.71779141086154,165.2889049599762 152.77300613489933,170.6825245587388 154.59509202442132,175.42627039336367 159.3987730059307,179.975032542774 159.89570552133955,185.23855713166995 170.496932515176,184.9786310751806 170.66257668705657,179.71510420611594 174.91411042935215,175.62121805007337 176.9018404907547,171.07242289127316 176.2392638034653,164.11919792584376 172.48466257657856,158.53056617366383 165.4723926379811,155.93118482932914 160.77914110408165,156.64601582183968 155.42331288335845,159.1154254238354 152.5521472392138,166.13369195524137 153.1042944781948,172.0471676144516 155.09202453983016,176.01111317315372 159.23312883428298,179.9100504691014 160.0061349691823,185.56346454372397 170.55214723944664,184.8486680048518 170.77300613489933,179.58513999573188 175.0797546012327,175.29630525398534 177.23312883428298,169.38286161981523 176.68098159506917,164.83401916216826 173.42331288312562,159.18040974991163 167.12883435562253,156.1261388208368 161.496932515176,156.45106199913425 155.31288343528286,159.31037838064367 152.0,165.61382317577954 152.27607361972332,170.5525583914714 153.5460122700315,173.73672138294205 159.28834355808794,179.9100504691014 159.5092024540063,185.10859411751153 170.496932515176,184.8486680048518 170.60736196301877,179.975032542774 175.6319018402137,174.58149648294784 176.9570552147925,169.70777761860518 176.5705521472264,165.22392129572108 172.42944785254076,158.14065968990326 167.2944785275031,156.06115416396642 161.05521472380497,156.38607737765415 155.69938650284894,158.8554880497395 152.11042944784276,167.36837850062875 153.87730061355978,174.12661773065338 159.23312883428298,180.10499666893156 159.56441717757843,185.10859411751153 170.2760736194905,184.91364954347955 170.496932515176,179.78008630080149 174.80368098127656,175.42627039336367 176.79141104291193,170.61754147859756 176.46012269938365,164.63906800030963 172.87116564414464,159.05044109071605 166.96319018374197,155.93118482932914 159.95092024537735,156.9709387185867 155.25766871171072,159.18040974991163 152.05521472380497,167.17342816240853 153.38036809815094,173.67173863359494 159.1226993862074,180.04001460928703 159.56441717757843,184.91364954347955 170.66257668705657,184.7836864591809 170.60736196301877,179.58513999573188 175.24539877288043,174.77644441404846 176.9570552147925,169.70777761860518 176.34969325154088,164.37913301942172 172.20858895685524,158.53056617366383 163.815950919874,155.54127665626584 157.41104294452816,157.5557994893752 153.32515337411314,163.07945642544655 152.2208588954527,167.7582789870794 152.66257668705657,172.17713345808443 153.87730061355978,174.5165138252196 159.23312883428298,179.9100504691014 159.73006134969182,185.173575628025 170.38650306756608,184.91364954347955 170.38650306756608,179.5201578795677 174.3619631899055,176.0760956691811 176.79141104291193,169.64279443287523 175.79754601209424,163.14444032195024 170.77300613489933,157.3608459623647 163.4294478527736,155.80121546646114 155.47852760739625,158.79050368850585 152.33128834329545,167.30339506146265 152.8282208587043,172.50204794318415 154.319018404698,175.42627039336367" stroke="#4DD2FF" stroke-linecap="round" stroke-linejoin="round" stroke-width="0.5"><title>2020-04-13 10.0km</title><desc>1586775592000</desc></polyline><polyline fill="none" points="48.0,194.3575664748787 42.87306501553394,195.8005099457223 35.73993808031082,200.26049529685406 29.55417956621386,196.8499212191091 21.696594427339733,196.25962760159746 17.294117647223175,198.29285875044297 13.504643962951377,203.0151757199783 12.334365325281397,206.49130217847414 12.668730650329962,212.26293977181194 15.622291021514684,217.05073375662323 19.188854489242658,220.26443725364516 19.91331269335933,225.380093351705 29.721362228970975,225.11775306460913 30.668730650329962,224.33073152130237 30.668730650329962,219.9365091068321 35.12693498446606,214.88639321894152 36.74303405545652,211.5414880811004 37.13312693499029,203.60546275181696 36.24148606788367,200.85078501398675 39.250773994019255,196.65315674396697 38.08049535588361,198.22727075533476 34.34674922586419,199.93255631637294 27.547987615922466,196.32521580980392 21.139318885514513,196.78433306788793 16.45820433436893,199.1455020388239 12.891640866873786,204.26133655646117 12.724458204349503,212.06618030491518 14.78637770935893,215.93577141553396 19.24458204349503,220.26443725364516 19.746130030835047,225.51126345264493 29.94427244574763,225.05216797516914 30.668730650329962,219.80533779849065 35.12693498446606,215.4110825447715 37.021671826718375,210.885622161848 36.74303405545652,205.2451459314907 34.12383900932036,200.19490751507692 27.77089783293195,196.32521580980392 21.47368421056308,196.52198039164068 15.566563467727974,199.93255631637294 13.226006191922352,203.80222496780334 12.334365325281397,207.3439339225297 13.281733746174723,213.77142689266475 14.730650154873729,216.46045983175281 19.021671826718375,220.19885163853178 19.690402477048337,225.51126345264493 29.94427244574763,225.11775306460913 30.780185758601874,219.67416646145284 34.45820433436893,216.39487380470382 36.464396284660324,212.91880419908557 37.077399380505085,207.60628191003343 35.62848297180608,202.09695030475268 32.34055727557279,198.42403471894795 26.65634674928151,196.32521580980392 20.693498451961204,196.8499212191091 16.123839009320363,199.4734414454433 13.894736842019483,202.16253788070753 12.167182662524283,207.60628191003343 12.334365325281397,210.7544488927815 14.284829721553251,216.0013574922923 19.077399380737916,220.3956084625679 19.578947368543595,225.44567840563832 30.11145510827191,225.1833381469478 30.835913312621415,219.80533779849065 35.23839009273797,215.4110825447715 36.91021671821363,211.73824771831278 37.021671826718375,206.03219228063244 35.62848297180608,202.03136272187112 30.278637770796195,197.440214261238 23.981424148660153,196.25962760159746 17.349845201009884,198.29285875044297 13.281733746174723,203.21193812793354 12.278637771029025,206.03219228063244 12.445820433553308,211.47590152110206 14.953560371650383,216.7228038694593 18.854489164194092,220.26443725364516 19.690402477048337,225.6424335250631 30.445820433320478,225.05216797516914 30.50154798780568,220.0676803869428 35.62848297180608,214.62404838576913 37.021671826718375,209.57388819224434 35.73993808031082,202.81841324846027 33.39938080473803,199.40785357856657 30.222910216543823,196.98109750048025 23.7585139318835,195.99727469793288 17.12693498469889,198.42403471894795 13.281733746174723,203.27752558304928 12.111455108271912,208.19656446605222 13.950464396504685,215.14873793860897 19.133126934990287,220.19885163853178 19.578947368543595,225.51126345264493 30.334365325281397,225.05216797516914 30.50154798780568,220.13326601620065 35.851393188815564,214.62404838576913 37.2445820432622,209.3771278518252 35.517027863767,202.2937130110804 30.390092879068106,197.30903807928553 24.260061919456348,195.93168645433616 21.362229102058336,196.52198039164068 17.62848297203891,198.22727075533476 14.84210526314564,200.7851972960052 12.835913312854245,204.19574920798186 12.0,208.06539061438525 13.11455108365044,213.50908157636877 15.232198142679408,216.9195618230151" stroke="#4DD2FF" stroke-linecap="round" stroke-linejoin="round" stroke-width="0.5"><title>2020-04-12 10.0km</title><desc>1586649823000</desc></polyline><polyline fill="none" points="94.66666666674428,194.4934821818024 91.11180773261003,195.15758931729943 81.80146290524863,200.20478003751487 84.00208986434154,203.79091661574785 84.96133751305752,209.70135520183248 81.97074190177955,216.40863783890381 77.96447230968624,219.86186365323374 77.45663531892933,225.37370302306954 66.62277951953001,225.17448077641893 66.0585161964409,219.52982355473796 60.98014629050158,215.21328591025667 58.89237199584022,210.03340062318603 60.19017763854936,202.26349063764792 65.1556948798243,196.2865697965026 69.0491118079517,194.82553583936533 78.19017763854936,196.22015923750587 81.97074190177955,198.81016570318025 84.50992685486563,205.6503865837003 84.39707419043407,210.96312684565783 82.25287356344052,215.6117368119303 77.79519331268966,219.72904763539555 77.40020898659714,225.30729561456246 66.56635318696499,225.24088819907047 65.94566353200935,219.66263961576624 61.43155694915913,215.7445537216845 59.400208986597136,212.4905311507755 58.72309299907647,206.6465288893669 61.93939393945038,199.73990894533927 65.94566353200935,196.35298034810694 72.60397074208595,194.82553583936533 80.84221525629982,197.6811898711021 84.00208986434154,204.2557846363634 84.6792058518622,209.1036729904008 82.7042842216324,214.68201763834804 77.68234064779244,219.99467964225914 77.73876698035747,225.30729561456246 66.45350052253343,225.24088819907047 65.94566353200935,219.66263961576624 60.69801462930627,215.2796944117872 59.118077325169,212.15848706034012 58.72309299907647,206.91216656425968 59.56948798359372,202.92758935655002 65.21212121238932,196.48580143006984 69.38766980171204,194.8919465492363 76.94879832817242,196.15374867152423 81.80146290524863,199.20862726529595 84.45350052253343,205.25192920811241 84.56635318719782,209.3029004590935 82.53500522463582,215.21328591025667 77.90804597712122,219.86186365323374 77.62591431592591,225.30729561456246 66.45350052253343,225.30729561456246 65.83281086757779,219.66263961576624 61.31870428449474,215.81096216588048 59.34378265449777,212.15848706034012 59.00522466050461,205.11911002540728 61.93939393945038,199.73990894533927 65.38140020915307,196.55221196007915 67.92058516200632,195.55605325312354 74.29676071042195,195.22399999113986 80.7293625914026,197.6811898711021 84.34064785810187,204.58783300674986 84.50992685486563,209.568536982988 82.19644723087549,215.81096216588048 77.90804597712122,219.59623158880277 77.62591431592591,225.10807334637502 66.50992685509846,225.5065178181976 65.77638453501277,219.52982355473796 61.036572623066604,215.41251139366068 59.34378265449777,212.22489589301404 58.66666666674428,205.31833878881298 61.88296760758385,199.73990894533927 65.26854754448868,196.55221196007915 68.1462904913351,195.35682131745853 72.43469174508937,194.95835725206416 79.26227795216255,196.41939089266816 81.85788923734799,198.74375541787595 84.50992685486563,206.4473005576874 84.39707419043407,211.09594476240454 82.1400208985433,215.81096216588048 78.0773249741178,219.79545564798173 77.79519331268966,225.37370302306954 66.50992685509846,225.37370302306954 65.77638453501277,219.72904763539555 61.657262278255075,216.54145457601408 59.118077325169,212.68975751893595 58.948798328405246,204.98629081383115 61.487983281258494,199.9391394566046 66.34064785810187,195.9545169302146 71.7575757575687,194.82553583936533 74.57889237231575,195.22399999113986 79.31870428426191,196.9506749896682 81.7450365726836,198.87657598167425 84.28422152576968,204.85347157355864 84.34064785810187,211.09594476240454 82.19644723087549,215.5453283463139 77.85161964478903,219.92827165150084 77.85161964478903,224.57681364798918 75.42528735660017,224.84244355466217" stroke="#4DD2FF" stroke-linecap="round" stroke-linejoin="round" stroke-width="0.5"><title>2020-04-08 10.0km</title><desc>1586343893000</desc></polyline><polyline fill="none" points="141.33333333325572,194.47770973452134 136.85407066065818,195.45397883228725 128.06144393258728,200.8559725006926 130.54992319527082,205.60708341631107 130.66052227350883,209.8374930251739 128.1720430108253,216.2155927476706 124.07987711229362,219.92527267121477 123.85867895558476,225.39212765765842 112.96466973889619,225.32704634330003 112.30107526876964,219.53478112613084 108.26420890935697,216.28067504888168 105.83102918579243,212.31064176996006 105.60983102931641,206.90875108365435 106.82642089086585,202.4830695099081 111.80337941623293,197.27634357073111 116.55913978512399,195.64923246146645 120.92780337971635,196.10482401621994 126.734254992567,198.77328189951368 129.49923195084557,203.979994866997 130.66052227350883,209.9025760172517 128.1167434717063,216.41083963029087 124.02457757294178,219.99035457067657 123.80337941623293,225.4572089650319 113.0752688171342,225.26196502166567 112.6328725037165,219.99035457067657 107.60061443923041,215.2393573820591 105.55453148996457,210.3581567647052 105.88632872514427,204.95624852529727 108.31950844847597,200.1400484207552 111.80337941623293,197.08109047019389 114.18125960067846,196.23499296832597 121.42549923202023,196.10482401621994 126.56835637497716,198.643113497179 130.49462365591899,205.8674171756138 129.94162826426327,212.8313033665181 127.56374808005057,216.99657989788102 124.02457757294178,220.05543646315346 124.02457757294178,225.32704634330003 113.18586789560504,225.4572089650319 112.52227342547849,219.99035457067657 107.1029185866937,214.52345043962123 105.33333333325572,208.01516638381872 106.77112135174684,202.67832085496048 111.69278033799492,196.88583730638493 117.99692780338228,195.45397883228725 125.46236559120007,197.73193389171502 127.8955453147646,200.20513246336486 130.71582181262784,206.90875108365435 129.83102918579243,212.8313033665181 127.17665130575188,217.25690872228006 124.24577572988346,219.92527267121477 123.9139784949366,225.32704634330003 112.96466973889619,225.39212765765842 112.41167434724048,219.86019076459343 107.32411674363539,215.43460458214395 105.38863287237473,209.8374930251739 106.21812596009113,204.0450784934801 111.85867895535193,196.82075290434295 117.99692780338228,195.64923246146645 125.62826420902275,197.40651226899354 128.725038402481,201.70206349523505 130.82642089109868,207.42941736109788 130.88172042998485,210.4232397005544 129.4439324119594,214.39328544936143 124.07987711229362,219.86019076459343 124.07987711229362,225.32704634330003 113.35176651319489,225.52229026547866 112.35637480812147,220.2506820980925 107.32411674363539,215.30443978944095 105.44393241172656,210.74865427333862 105.60983102931641,205.34674954460934 108.15360983088613,200.7908885285724 112.41167434724048,196.88583730638493 117.1121351767797,195.7794015124091 120.87250384036452,196.03973952954402 126.62365591409616,198.44786084076623 129.72043010755442,203.91491123329615 130.43932411679998,211.269317223283 128.9462365594227,215.30443978944095 124.19047619053163,219.79510885104537 124.02457757294178,225.0667210148531 113.68356374837458,225.52229026547866 112.96466973889619,225.13180235767504 112.35637480812147,220.05543646315346 108.59600614453666,216.99657989788102 105.83102918579243,212.11539355490822 105.38863287237473,207.299250833923 106.54992319527082,203.06882335455157 111.80337941623293,196.88583730638493 114.51305683562532,195.7794015124091 121.25960061443038,196.10482401621994 125.35176651319489,197.6668495812919 128.9462365594227,201.83223123499192 130.54992319527082,207.16908427875023 129.99692780338228,212.63605532079237 127.28725038398989,217.06166211451637 124.13517665117979,219.92527267121477 124.02457757294178,224.80639557377435 119.4347158218734,225.0667210148531" stroke="#4DD2FF" stroke-linecap="round" stroke-linejoin="round" stroke-width="0.5"><title>2020-04-07 10.0km</title><desc>1586257895000</desc></polyline><polyline fill="none" points="188.0,194.20307558221975 184.27001569839194,195.00125598802697 175.0015698587522,200.65500416082796 177.71428571431898,206.77429646265227 177.3751962322276,211.96234434418147 174.88854003115557,216.7512727167923 171.21507064346224,219.81084629223915 170.9324960752856,225.6639010933577 159.91208791197278,225.39785435819067 159.17739403434098,220.14340771868592 154.9387755098287,216.61824743298348 152.56514913635328,211.82931802305393 152.22605965426192,206.7077827437315 155.16483516455628,199.72380216018064 159.0078492932953,195.99898003647104 162.34222919889726,195.13428595487494 167.9372056510765,195.66640553373145 173.41915227589197,198.12745258805808 177.5447409732733,206.50824154372094 176.8665620093234,213.22609295864822 174.32339089456946,217.08383580035297 171.15855573001318,219.87735859194072 171.21507064346224,225.39785435819067 160.0816326525528,225.73041275911964 159.0643642069772,220.14340771868592 153.86499215033837,214.88891612068983 152.28257456817664,210.69859312905464 152.67817896371707,204.5793399331742 155.27786499168724,199.72380216018064 161.4945054941345,195.73292044864502 166.9199372055009,195.40034580189968 173.70172684453428,197.92790859978413 177.14913657773286,205.8431037417031 176.47095761378296,213.62517092825146 173.9277864987962,217.74896142701618 171.21507064346224,220.0103831696324 170.87598116137087,225.26483094709693 160.25117739359848,225.79692441783845 159.40345368883573,220.40945673023816 154.82574568269774,216.55173478019424 152.56514913635328,211.69629167288076 152.67817896371707,204.5793399331742 154.82574568269774,200.38894659047946 159.0643642069772,196.46458403760334 163.35949764493853,195.13428595487494 167.5416012557689,195.2673158926773 174.26687598088756,199.12517155712703 176.97959183668718,204.04722807795042 177.14913657773286,211.89583118719747 174.54945054952987,216.68476007843856 170.9890109889675,220.07689544785535 170.87598116137087,225.33134265616536 160.19466248014942,225.6639010933577 159.34693877538666,220.14340771868592 154.20408163242973,215.6205568856094 152.33908948139288,211.03115949040512 152.4521193089895,205.57704841939267 155.22135007823817,199.923345564981 159.6295133435633,196.06549491541227 166.69387755100615,195.06777097494341 173.4756671898067,198.46002575795865 176.30141287273727,202.05180451384513 177.31868131831288,205.44402071472723 177.6012558869552,210.09997322468553 176.6970172682777,213.4256319758133 174.26687598088756,217.21686098328792 170.9890109889675,220.07689544785535 170.9324960752856,225.4643660527072 160.3076923075132,225.6639010933577 159.40345368883573,220.60899341345066 154.3736263732426,215.6205568856094 152.28257456817664,210.63207983510802 152.62166404980235,204.7123678251519 154.9387755098287,200.1228889048216 158.2731554156635,196.9301876857062 161.38147566700354,195.73292044864502 168.50235478789546,195.46686074574245 172.28885400295258,196.66412850143388 175.34065934014507,200.58848977898015 177.3751962322276,205.17796521948185 177.26216640486382,212.6274755182094 174.1538461537566,217.5494238146348 171.15855573001318,220.3429444883368 170.64992150710896,225.4643660527072 160.13814756646752,225.79692441783845 159.17739403434098,220.20991998247337 154.8822605961468,216.35219677881105 152.62166404980235,212.09537063667085 152.0,208.10456932877423 153.58241758216172,202.45088974543614 158.78178963856772,196.66412850143388 163.24646781757474,195.33383085095556 167.14599685999565,195.46686074574245 172.6279434848111,197.1962467545527 175.45368916797452,200.38894659047946 177.65777080040425,206.8408101744717 177.65777080040425,210.4325399104273 176.18838304514065,214.95542895363178 171.04552590241656,220.3429444883368 170.8194662479218,225.53087774006417 163.18995290389284,225.33134265616536" stroke="#4DD2FF" stroke-linecap="round" stroke-linejoin="round" stroke-width="0.5"><title>2020-04-02 10.0km</title><desc>1585825459000</desc></polyline><polyline fill="none" points="48.0,234.02425305714132 47.51424287841655,235.42177030822495 40.98350824578665,237.32747028331505 34.02098950534128,241.71055672416696 36.341829085256904,246.03008812241023 36.88155922014266,250.54015313042328 35.04647676157765,255.875959898578 30.512743628118187,260.7035527630942 29.865067466162145,265.91222681308864 19.502248875331134,265.65814622543985 18.74662668653764,260.4494699188508 14.158920539775863,256.3206082712859 12.431784107815474,252.25523917161627 12.323838080978021,247.5546210198081 13.403298350749537,243.67975880764425 16.587706146761775,239.74134802818298 22.09295352292247,236.81928422872443 27.868065966758877,237.20042381092208 31.16041979007423,238.40736418694723 33.53523238375783,240.4401002578088 36.17991004465148,246.53826619510073 36.50374812609516,251.87410937366076 34.7226386803668,256.44765060173813 30.188905547372997,260.5129906403017 30.02698650676757,265.9757469429169 19.44827586179599,265.8487066765083 18.962518740212545,260.6400320624234 15.022488755406812,257.52750929794274 12.971514242701232,254.35144863289315 12.107946026837453,247.17348816699814 14.860569714801386,241.26589727401733 21.76911544194445,236.8828075096826 27.220389805035666,237.0733773112297 31.376311843981966,238.47088729572715 33.85907046450302,240.82123748678714 36.17991004465148,246.4112217183574 36.611694152932614,251.11184903467074 34.344827585853636,256.765256306855 30.404797601047903,260.4494699188508 30.188905547372997,265.91222681308864 19.39430284849368,265.65814622543985 18.962518740212545,260.83059414388845 13.727136431494728,255.62187496293336 12.107946026837453,248.82506207353435 13.51124437758699,243.36214601557003 18.80059969983995,238.08974853926338 24.08995502232574,236.6922376464354 31.700149924959987,238.72497966245282 35.69415292353369,244.37850634456845 36.71964017977007,250.54015313042328 35.478260869393125,255.17722606047755 30.188905547372997,260.6400320624234 30.134932533605024,265.8487066765083 19.556221889099106,265.8487066765083 18.638680659700185,260.5129906403017 15.022488755406812,257.4004672015435 12.701649175258353,253.97032019717153 12.107946026837453,247.87223154120147 15.076461768941954,241.26589727401733 21.391304347664118,236.37462106981548 26.51874062954448,236.94633078365587 33.31934032961726,240.7577146323747 36.44977511232719,246.47474396013422 36.665667166234925,251.3024142125505 33.967016491573304,257.4004672015435 30.350824587745592,260.4494699188508 29.9730134929996,265.78518653311767 19.610194902401417,265.91222681308864 18.80059969983995,260.3859491906478 15.022488755406812,257.46398825303186 13.079460269771516,254.66905547335045 12.161919040372595,247.80870945064817 14.536731634056196,241.96464768715668 19.07046476751566,237.58156314544613 23.010494752321392,236.6922376464354 28.56971514225006,237.58156314544613 31.268365816911682,238.40736418694723 33.48125936998986,240.82123748678714 36.44977511232719,246.72883285896387 36.77361319330521,251.55650101957144 34.18290854548104,257.01934074726887 30.404797601047903,260.7035527630942 29.9730134929996,265.8487066765083 19.502248875331134,265.8487066765083 18.962518740212545,260.6400320624234 14.914542728569359,257.01934074726887 12.269865067210048,251.6835443818709 12.0,247.9357536250027 13.349325337214395,243.61623626295477 18.368815592024475,238.02622538915602 23.388305847067386,236.62871434475528 29.595202398719266,237.96270223218016 33.53523238375783,241.01180600811495 36.50374812609516,247.0464438276249 36.611694152932614,252.06467430357588 33.91304347803816,257.33694614307024 30.458770614583045,260.3859491906478 30.188905547372997,265.5946260613855 29.055472263833508,265.78518653311767" stroke="#4DD2FF" stroke-linecap="round" stroke-linejoin="round" stroke-width="0.5"><title>2020-03-23 10.0km</title><desc>1584960411000</desc></polyline><polyline fill="none" points="85.84586986037903,232.0 86.3788558524102,236.77467508608242 87.17833484022412,239.2491138552141 87.11911417439114,249.7739787857863 85.87548019341193,249.49517885659589 85.2832735356642,251.20282463086187 82.32224024739116,252.17861814668868 78.17679364362266,254.5832395348698 79.47964829055127,257.2317872206622 79.6573102879338,260.0894063237647 78.68016930273734,262.70306010977947 76.01523934327997,265.1424511545629 76.07446000899654,267.7212158640323 70.33005542960018,267.8954559772392 69.88590043631848,265.0030578788719 67.9020081332419,263.33033385904855 66.48071215476375,260.85608030154253 66.15499849314801,258.79999596840935 66.48071215476375,256.4999538558477 67.69473580294289,254.4786911525589 71.07031375169754,251.7604212880251 73.94251604145393,251.8301208022167 76.99238032836001,252.805912415497 78.11757297802251,253.85140014538774 79.59808962210082,256.987842950708 79.71653095365036,259.49697518060566 78.59133830410428,262.7379086834553 76.1929013406625,264.8636645426741 75.86718767881393,267.7909119205724 70.30044509668369,268.0 69.82667977060191,265.03790620341897 67.81317713460885,263.26063683617394 66.53993282059673,260.85608030154253 66.33266049041413,257.3014855495712 67.7243461359758,254.6529384374444 70.92226208734792,251.79527104704175 74.68277436343487,251.93467004518607 77.43653532164171,253.11955909107928 79.33159662620164,256.2211597551941 79.71653095365036,259.7409175481589 78.59133830410428,262.7379086834553 76.1632910076296,265.07275452432805 76.07446000899654,267.82575994331273 70.24122443096712,267.8954559772392 69.85629010363482,264.96820955045405 67.84278746764176,263.0515456770372 66.48071215476375,260.85608030154253 66.36227082333062,257.4060330146458 67.60590480442625,254.54839007783448 71.48485841206275,251.7604212880251 76.10407034191303,252.28316727641504 78.14718331082258,253.85140014538774 79.36120695900172,256.2211597551941 79.71653095365036,259.6015219320834 78.68016930273734,262.59851436593453 76.1929013406625,265.07275452432805 76.10407034191303,267.86060796215315 70.24122443096712,267.96515199623536 69.82667977060191,264.8636645426741 67.60590480442625,262.8424543819274 66.59915348642971,261.06517288752366 66.39188115624711,256.9529937542393 67.75395646877587,254.4786911525589 70.95187242014799,252.0043695216591 74.2090090373531,252.0043695216591 77.2292629913427,253.01501023327 78.17679364362266,253.78170106897596 79.56847928918432,257.0923905177042 79.77575161936693,259.77576644258806 78.44328663963825,262.8424543819274 76.1929013406625,265.1076028412499 76.07446000899654,267.86060796215315 70.21161409816705,267.86060796215315 69.82667977060191,264.93336121834 66.71759481797926,261.23941660526907 66.30305015761405,259.7060686497716 66.42149148904718,256.7787477149395 67.9020081332419,254.30444377326057 71.33680674771313,252.1437684292323 75.42303268553223,252.38771637217724 78.26562464237213,253.88624967777287 79.4204276248347,256.11661190516315 79.74614128656685,259.84546422047424 78.50250730535481,263.0515456770372 76.25212200626265,264.96820955045405 76.25212200626265,267.82575994331273 70.15239343233407,267.86060796215315 69.94512110215146,264.96820955045405 67.16174981114455,262.1803310510004 66.27343982469756,259.9151619831391 66.39188115624711,256.67420004607993 67.75395646877587,254.30444377326057 70.68537942424882,252.35286667742184 73.37991971662268,252.03921925424947" stroke="#4DD2FF" stroke-linecap="round" stroke-linejoin="round" stroke-width="0.5"><title>2019-12-13 10.0km</title><desc>1576239112000</desc></polyline><polyline fill="none" points="131.41283364832634,233.32013434770488 130.99595525371842,232.0 131.47238770470722,237.15193720014213 131.34335391584318,237.64258504909958 130.9066241691471,237.60753884818405 130.77759038034128,238.21500471814215 130.0530160277267,238.3435066752645 128.35572542098816,239.34815306175005 128.80238084384473,240.32942654395447 128.85200922418153,241.22891939286637 128.63364435074618,241.85972808435326 127.70063080085674,242.81761570902745 127.65100242057815,243.26151196751744 127.82966458972078,248.15593117001845 128.88178625237197,248.55308193647943 129.50710384431295,248.98527375616686 131.06543498608517,249.17216697972617 131.22424580313964,249.40578305385134 131.51209040894173,261.52976289379876 131.75030663446523,263.6787655378066 131.68082690204028,267.64963608418475 131.244097155286,267.81313938645326 126.17207668721676,267.7547453783409 124.2067928268225,268.0 123.05541440355591,267.87153336293704 122.7774954737979,265.6875771346895 122.55913060042076,255.81834675026766 118.827076400863,255.28106096160627 118.64841423172038,255.04745761019876 117.93376555520808,254.94233593706304 117.70547500572866,254.13639970667282 117.91391420306172,253.76263013602875 117.80473176640226,253.51734315149952 116.86179254046874,252.6997158419399 115.99825872300426,252.95668509267125 115.53175194805954,252.80483970031491 115.11487355339341,252.20913648178976 114.91636003216263,251.39149925720267 114.94613706035307,245.46928464043594 115.19427896192065,243.915671544848 115.4523465395323,243.30823778318882 115.39279248315142,242.65407452169165 116.5937992867548,234.67529969892348 118.14220475254115,234.65193492335675 121.46730623353506,234.92062953672576 121.6360427265754,235.06081776483188 127.78003620938398,236.19399925168545 129.96368494315539,236.8014730841751" stroke="#4DD2FF" stroke-linecap="round" stroke-linejoin="round" stroke-width="0.5"><title>2019-11-23 10.0km</title><desc>1574497580000</desc></polyline></svg>