<?xml version="1.0" encoding="utf-8" ?>
<svg baseProfile="full" height="300mm" version="1.1" viewBox="0,0,200,300" width="200mm" xmlns="http://www.w3.org/2000/svg" xmlns:ev="http://www.w3.org/2001/xml-events" xmlns:xlink="http://www.w3.org/1999/xlink"><defs /><rect fill="#222222" height="300" width="200" x="0" y="0" /><text fill="#FFFFFF" style="font-size:12px; font-family:Arial; font-weight:bold;" x="10" y="20">Over 10km Runs</text><text fill="#FFFFFF" style="font-size:4px; font-family:Arial" x="10" y="280">Runner</text><text fill="#FFFFFF" style="font-size:9px; font-family:Arial" x="10" y="290">Floyd Li</text><text fill="#FFFFFF" style="font-size:4px; font-family:Arial" x="65" y="280">SPECIAL TRACKS</text><rect fill="yellow" height="2.6" width="2.6" x="65" y="283" /><text fill="#FFFFFF" style="font-size:3px; font-family:Arial" x="70" y="285.5">Over 20.0 km</text><rect fill="red" height="2.6" width="2.6" x="65" y="287" /><text fill="#FFFFFF" style="font-size:3px; font-family:Arial" x="70" y="289.5">Over 40.0 km</text><text fill="#FFFFFF" style="font-size:4px; font-family:Arial" x="120" y="280">STATISTICS</text><text fill="#FFFFFF" style="font-size:3px; font-family:Arial" x="120" y="285">Number: 38</text><text fill="#FFFFFF" style="font-size:3px; font-family:Arial" x="120" y="290">Weekly: 2.0</text><text fill="#FFFFFF" style="font-size:3px; font-family:Arial" x="141" y="285">Total: 617.2 km</text><text fill="#FFFFFF" style="font-size:3px; font-family:Arial" x="141" y="290">Avg: 16.2 km</text><text fill="#FFFFFF" style="font-size:3px; font-family:Arial" x="167" y="285">Min: 10.0 km</text><text fill="#FFFFFF" style="font-size:3px; font-family:Arial" x="167" y="290">Max: 62.1 km</text><polyline fill="none" opacity="1" points="28.98046168469591,45.99096638477931 28.798497721960302,39.08471647943952 28.677188413450494,38.3530296352983 27.585404637095053,37.228724006257835 26.857548786210828,35.72963790028007 27.039512748888228,33.74868176894961 27.43376800150145,32.96343130533933 28.38907880586339,32.05324994852708 30.390682395838667,31.5 31.58861181710381,31.767701819975628 33.180796490982175,33.05266450102499 33.620542734337505,34.0699195163761 33.7115247156471,35.47978888996295 33.12014183681458,37.05026208974596 31.907048751949333,38.3530296352983 32.11934004176874,46.15157340388396 34.90945413697045,47.668409753154265 36.986876044713426,47.90039525800967 37.24465832527494,48.114535434157006 37.51760426937835,56.001838059019065 37.32047664310085,57.60780365341634 34.36356224876363,58.25018550977984 30.057081797567662,58.5 25.65961936482927,58.268029414481134 18.699497790483292,57.322299802472116 12.785669001750648,57.39367581161787 12.48239573056344,48.70341948384885 25.40183708432596,48.15022543647501 26.432966206455603,47.82901513738034 28.91980703047011,46.27648986605345 28.737843067676295,38.54933618073119 27.221476711623836,36.693337676959345 26.84238512261072,35.194246699888026 27.160822057456244,33.498829754666076 28.32842415163759,32.14248363712977 29.693153872038238,31.55354039881786 31.603775480703916,31.767701819975628 32.78654123842716,32.57080467004562 33.6963610521052,34.48038905982685 33.59021540713729,35.94379389335518 33.15046916389838,36.94318484708492 31.92221241554944,38.263799310079776 31.876721424865536,39.530865399574395 28.904643366928212,39.655786880714004 28.6316974228248,38.2281071665202 27.357949683675542,36.94318484708492 26.827221459068824,35.53332799549389 26.918203440436628,34.12345908001589 27.87351424479857,32.51726460181817 29.814463180548046,31.571387194577255 31.618939144187607,31.83908889850136 32.90785054687876,32.76711810463166 33.72668837924721,34.748086037361645 33.30210579949198,36.63979894835211 31.92221241554944,38.192415015160805 31.846394097607117,39.56655726098688 29.22308030165732,39.673632798861945 28.8136613855022,40.10193425466423 28.889479703386314,45.93743067694595 28.267769497295376,46.52632250636816" stroke="#4dd2ff" stroke-dasharray="none" stroke-linecap="round" stroke-linejoin="round" stroke-width="0.5"><title>2026-06-14 10.1km</title><desc>1781439872000</desc></polyline><polyline fill="none" opacity="1" points="71.18487976683537,34.24475672765402 71.01829968416132,36.31220558912901 69.41307343257358,38.39745097310515 69.57965351530584,45.9896596394683 69.86738274910022,46.346092753025005 72.68410051130923,47.75399600484525 74.42561955784913,47.878746344998945 74.77392336714547,48.1104252973164 75.03136531315977,56.32590654987143 74.86478523042751,57.57334072922822 74.39533227006905,57.840646823489806 71.60890179558191,58.25051532492216 66.99009041127283,58.48217967862729 62.73472648020834,58.21487462615187 57.01042909245007,57.35949554129911 50.286651208414696,57.323854649599525 49.98377833078848,50.7479780712747 50.150358413520735,48.627246400370495 62.931593850662466,48.217353934567655 64.18851629295386,47.7361745199305 66.47520651924424,46.31044947639748 66.27833914884832,38.70043314655777 64.56710739003029,36.38349646590359 64.33995273179607,34.6368610940699 64.83969297993463,33.15755337008159 65.82402983226348,32.15945871725853 66.99009041127283,31.606939431032515 68.06528912694193,31.571292961700237 68.85275860887486,31.71387879247777 70.13996833900455,32.426806092931656 70.9728687524912,33.620952400931856 71.21516705467366,34.42298610098078 71.16973612306174,35.88445968004817 70.83657595753903,36.72212770860642 69.3827861448517,38.433095963686355 69.57965351530584,46.06094632393797 72.66895686736098,47.75399600484525 74.72849243547535,48.074782402807614 74.92535980598768,57.44859773671487 74.41047591395909,57.840646823489806 73.03240432054736,58.07231175406196 67.3838251522393,58.48217967862729 62.992168426222634,58.25051532492216 56.81356172193773,57.35949554129911 50.286651208414696,57.35949554129911 50.07464019401232,48.64506778874784 62.871019275160506,48.18171106319642 63.56762689381139,48.00349659060885 66.39948829985224,46.346092753025005 66.26319550490007,38.59349832549924 64.55196374619845,36.4369646031555 64.33995273179607,34.45863195248239 64.88512391154654,33.086261095668306 65.91489169566194,32.03469645995938 68.06528912694193,31.5 69.98853190016234,32.26639771966438 70.4882721483009,32.76544547852245 71.16973612306174,34.20911082983366 71.00315604032949,36.31220558912901 69.47364800813375,38.36180597492785 69.60994080308592,46.132232977543026 72.42665856529493,47.64706706654397 74.47105048946105,47.89656781447411 74.7890670109773,48.252996798211825 75.03136531315977,57.05654771615809 74.80421065492555,57.626801982783945 72.18436026317067,58.17923391969816 67.82299082487589,58.5 62.94673749455251,58.232694976526545 57.11643459962215,57.37731598423852 50.30179485230474,57.35949554129911 49.96863468684023,50.837083845821326 50.13521476963069,48.662889175189775 62.643864616926294,48.252996798211825 63.915930703049526,47.89656781447411 66.39948829985224,46.38173602192546 66.41463194380049,39.93017859378597 66.08147177833598,38.183580867844285 65.15770950150909,37.274629819134134 64.3853836634662,35.88445968004817 64.35509637568612,34.351694374825456 64.65796925337054,33.44272215888486 66.23290821717819,31.89211090716708 68.50445479957853,31.589116197326803 70.38226664112881,32.6763299183076 71.06373061583145,33.95958932887879 71.24545434245374,34.92202731911675 70.92743782087928,36.5260781266843 69.48879165202379,38.21922590468603 69.3070679254597,39.68066576792626 66.42977558763232,39.71631048050767 66.14204635383794,38.272693445454934 64.99112941877684,37.18551670099259 64.3853836634662,35.84881413742551 64.37024001957616,34.369517309227376 65.40000780363334,32.480275515888934 66.74779210920678,31.660409120406257 68.77704038948286,31.660409120406257 70.36712299718056,32.65850680049334 71.21516705467366,34.56556946056662 71.20002341078361,36.04486452626588 70.41255392885068,37.32809766684659 69.50393529585563,38.11229077099415 69.39792978874175,39.59155395271955 66.47520651924424,39.71631048050767" stroke="#ffc500" stroke-dasharray="none" stroke-linecap="round" stroke-linejoin="round" stroke-width="0.5"><title>2026-06-10 21.8km</title><desc>1781089369000</desc></polyline><polyline fill="none" opacity="1" points="113.5,53.75099294485699 99.74910071943305,53.69383399925573 93.97841726621846,54.170157410342654 93.47661870505544,52.40774789858551 92.94244604316191,51.25501770100527 92.06834532372886,49.9974766099549 90.97571942448849,48.81613374313747 90.17446043167729,47.453758951123746 89.92356115108123,45.9198711530189 90.24730215829914,44.60508887779724 89.98830935254227,44.61461635633168 89.8669064748683,44.4907590548537 89.91546762594953,43.738084008029546 88.07014388492098,42.013576370438386 88.24820143886609,41.37521413335344 89.11420863310923,39.84122024662793 89.17895683454117,39.3267069836802 88.01348920864984,38.55493144103821 86.5,38.145220682738 87.91636690651649,38.5263470315258 89.0575539568672,39.20284222974442 89.40557553959661,39.56490794282581 89.8830935251899,39.44104352463182 90.63579136689077,39.47915567189921 90.49010791367618,38.631156487666885 90.11780575543526,38.42153745039104 89.95593525181175,38.09757977289701 90.0287769784627,37.030416623798374 90.24730215829914,36.67786880702624 90.0287769784627,37.020888323029794 89.94784172665095,38.15474886159063 90.47392086332547,38.65021273894672 90.6762589928403,39.44104352463182 92.09262589926948,39.70782820842578 92.67535971224424,39.14567382288078 92.4568345323496,40.74637515727227 91.90647482016357,42.05168740211229 95.58093525181175,45.653105325262004 96.2931654676213,42.756738506905094 98.03327338132658,40.774958844725916 98.50269784175907,39.974612082318345 98.98021582738147,38.65974086309143 100.07284172662185,37.24956725650554 100.85791366911144,36.811265444601304 104.12769784178818,35.93465526201908 105.00179856119212,35.829842589657346 106.77428057556972,35.96324051461852 108.48201438851538,36.61117041228863" stroke="#4dd2ff" stroke-dasharray="none" stroke-linecap="round" stroke-linejoin="round" stroke-width="0.5"><title>2026-06-09 11.9km</title><desc>1781004096000</desc></polyline><polyline fill="none" opacity="1" points="131.2278761062189,48.9602059249155 130.14412136538886,50.0141886297788 128.9152970922587,49.73312774497026 127.0464601769927,49.00035786622175 125.69816687740968,48.18727767064411 124.0,46.711669499251 126.69658659925335,44.56346329894586 128.53128950693645,42.62601974859717 130.10145385586657,40.688535762579704 130.66466498104273,40.33717423134658 131.57774968395825,40.02596719309804 150.86346396966837,39.9858113702212 150.97439949432737,40.20666818104655 151.0,41.230633801882504 150.90613147913245,47.45449559172994 139.86378002527636,47.43441928899847 133.9073957016517,47.5749533169801 133.91592920356197,43.93103798406082 147.59513274338678,43.880845314241014 147.38179519594996,44.06153879865451 147.5097977244004,45.19588430562726 147.34766118836706,44.03142324234068" stroke="#4dd2ff" stroke-dasharray="none" stroke-linecap="round" stroke-linejoin="round" stroke-width="0.5"><title>2026-06-07 13.9km</title><desc>1780824448000</desc></polyline><polyline fill="none" opacity="1" points="167.1123524746945,42.09380989184865 167.22570788823214,42.32021234988679 167.59222372533986,42.852909309667666 167.66275598264474,43.03934836984081 167.6967626067053,43.23466276916588 167.70054112049547,43.382626376261214 167.67535102859256,43.56905825438753 167.50027988991496,44.069156682167886 167.44864020151726,44.3221581310263 167.4373046601686,44.758611679226306 167.57585016560188,46.03386439365113 167.80256099267717,47.02942616882228 167.78114941455715,47.17586974358619 167.68542706534936,47.42437648611758 167.66905350562593,47.607795250982235 167.74336427672097,48.390255911291206 167.8680552316073,48.75262810287677 167.89072631431918,48.87390972607136 167.83404860754672,49.950607043303535 167.88190978215425,50.11920311907397 167.93858748891944,50.21828932322296 168.2181975089843,50.47117774633534 168.30384382142802,50.61462700956781 168.3164388673831,50.77138428948638 168.23583057330688,51.11446946794695 168.25346363763674,51.24903933777114 168.30258431683615,51.37473528118153 168.05320240705623,51.58324013982565 167.7912254513285,51.86567785767147 167.54814106451522,52.08156875212353 167.18666324578953,52.605016187581896 166.98136399682699,52.94805569518303 166.92090777627163,53.017549727309415 166.7370201054291,53.150622427511735 166.6753043802819,53.24672968938012 166.6916779400126,53.28517240640758 166.82266641787282,53.33248637241104 167.09723841955565,53.34431483853041 167.11990950226755,53.36353607430192 167.1249475206423,53.481820011888885 167.14384008956404,53.501041055828864 167.33780379717064,53.58236056041187 167.47760880720307,53.57348936505332 167.64008489993284,53.4522491226935 168.06201893922116,53.22602972039658 168.04942389327334,53.19793685559944 167.83278910295485,53.15949389515572 167.81263702944125,53.09591491746687 167.84160563511978,52.99832800881359 168.0380883519174,53.01607113452792 168.0809115081429,52.83272440012388 168.11239912301244,52.81941688086954 168.21441899519414,52.829767174733206 168.2421280962808,52.85342496008161 168.21189998600312,53.08408623808373 168.22953305033298,53.12548657149455 168.718220833136,52.96727748382182 168.95248868778435,52.953970094543365 169.43235993842973,52.88003992002723 169.74723608713975,53.01311394849927 169.91349069366697,53.055993083840804 170.06589074963995,53.067821787346475 170.57095209218096,53.21420115272667 171.11631758175645,53.49512689131734 171.36318048234534,53.546875744706085 171.56973923589976,53.626716451518405 172.01938237626746,53.656286966265725 172.10125017492828,53.59566734273449 172.1264402668312,53.49956251493677 172.19949153333437,53.438942201851205 172.641577646129,53.242293984356365 172.66928674721566,53.254122527907384 172.51562718664354,52.94805569518303 172.41990483742848,52.88151852740884 172.30906843308185,52.86673244648409 172.312846946872,52.6552897530828 172.34559406633343,52.61388800659279 174.5988477865394,51.98841076750978 174.84948920091847,51.95735796595818 175.0988711106911,51.960315378647465 177.6468489060935,52.17029005646418 177.95668703642878,52.17324742343044 178.39751364463154,52.11114258373436 178.9441386387989,51.94109218482208 179.25397676913417,51.88046501318604 181.834701683998,51.7030180991851 182.16343238326226,51.63647491703068 182.47956803657144,51.51521762506309 182.7503615244641,51.356990041072095 183.016116993982,51.135172610429436 183.52243784111488,50.551036283460235 183.94437188038864,50.128076539559515 184.3008116807323,49.712498542357025 184.5728646732241,49.31317690541073 184.8877408219414,48.603243171481154 185.01117227223585,48.43462852894572 185.20135746605956,48.29559384886488 186.17369501329085,47.714295347492225 186.35758268414065,47.54123227213768 186.44070998740062,47.402188566555196 186.4936091803902,47.24243448965535 186.6019265755458,46.8208523263429 186.68379437420663,46.3460022118461 186.74551009935385,46.11226934572824 186.94325232075062,45.57082226316106 187.21530531324242,44.983490813011485 187.43445911274466,44.64765022568645 187.81608900498395,44.23190668619009 188.02390726313752,43.953750966804364 188.17126930073573,43.665232441362605 188.38412557727133,43.06006366492511 188.43198675187887,43.0704213007657 188.44836031160958,43.11925005034482 188.49118346783507,43.10297381974851 188.5,43.14292453317739 188.44584130241856,43.11925005034482 188.43198675187887,43.04822635727123 188.36397350375046,43.040828034812876 188.11837010775344,43.711099893658684 188.0541353734152,43.83094638562034 188.01257172178157,43.850180910520066 187.57300461818522,43.65783445086254 186.74551009935385,43.42553552451682 186.42937444604468,43.36930971682068 184.90663339086313,43.302726226172126 183.09924429724197,43.14144487919566 181.6508140131482,43.13404660688957 180.93667490786174,43.02159237778869 179.6066380557022,42.68570387527325 179.11039324531885,42.58952283690451 178.69223771982797,42.55696910228289 177.75138778746623,42.59840111478479 177.5259364649828,42.57472569435777 177.00828007650125,42.41787500427745 176.11781032793806,42.20183244474538 175.9918598684526,42.1352433001548 175.91880860194942,42.06717406342614 175.84323832625523,41.95027176172425 175.70217381163093,41.30655140586623 175.5056910948333,40.926224293251835 175.44271586509421,40.843350062950776 175.30039184587076,40.76935479220265 175.10013061529025,40.72495743853506 175.03715538555116,40.6361623009434 174.9704016420219,40.61544335296003 174.85074870551034,40.67464026433299 174.79155198955414,40.62580283085663 174.7109436954779,40.64948160814947 174.60766431869706,40.758995422504995 174.38221299622091,40.78859360091792 174.07489387507667,40.79599313556082 173.87589214908803,40.7397565723586 173.69074497364636,40.58880465965285 173.53582590848237,40.130019061628445 173.37586882492906,39.87694045133958 173.18820264029637,39.765939590433845 172.76500909642346,39.64309759249136 172.5105891682615,39.545415219948154 172.4715445258189,39.536534969832246 172.44005691094935,39.55577550449925 172.39471474553284,39.52617467077289 172.24735270793462,39.503974003622716 171.88335588001792,39.37224930743105 171.44504828100617,39.3293275044407 171.31783831692883,39.292325842524406 171.2724961515123,39.29972618287866 171.22589448150393,39.26716465550362 171.04074730606226,39.26864472660509 169.8354014087745,39.06883368600211 167.94110649811046,38.33468816987261 167.78744693753833,38.318406272217544 166.44103652563354,38.29768382911152 165.85662639362272,38.31100540326952 165.61983952978335,38.293243301520306 165.4535849232634,38.23403612983657 165.33645099594287,38.16446737703882 164.8490227177317,37.73520557663505 163.86786863834277,37.301489512988155 162.76202360405296,37.08092557892542 162.36150114288466,36.867759753329665 161.82495218548138,36.487309745364655 161.50251900919102,36.343713033733366 161.5,36.367399192670746 161.82999020385614,36.51543676044457 162.3866912347803,36.909208922977996 162.70030787890573,37.0750043506614 162.8262583383912,37.122374105252675 163.80993142697844,37.30741064361064 163.96107197835227,37.35477959666787 164.84776321313984,37.757409102183374 165.27725427998666,38.14522489385399 165.3780146475765,38.21479374409955 165.55182628166222,38.29176312533946 165.7659420627897,38.330247654245795 165.81254373279808,38.367251907291575 165.79113215468533,38.36281140218671 165.7722395857636,38.34356919682068" stroke="red" stroke-dasharray="none" stroke-linecap="round" stroke-linejoin="round" stroke-width="0.5"><title>2026-06-06 62.1km</title><desc>1780699923000</desc></polyline><polyline fill="none" opacity="1" points="33.73427021095995,65.55117436016735 33.173214659211226,66.96103105906514 31.975285237946082,68.2102610917791 31.914630583662074,69.54871133122651 32.23306751844939,76.222954250974 35.12932725856081,77.72194489857065 37.055112530710176,77.88255023074453 37.3128948113299,78.20376042542921 37.5403497646912,86.62638209403667 37.3583858020138,87.57211569909123 34.264998435624875,88.21449769452738 28.790915890131146,88.5 19.41977180953836,87.3579878109158 12.747759842895903,87.25092376250541 12.459650235250592,80.64850639121141 12.47481389879249,78.88186878045963 12.687105188611895,78.59634981317504 25.57621921529062,78.16807043470908 28.92738886224106,76.31218026641 29.003207180008758,69.81640007448732 28.608951927395537,68.1210306892608 27.85076874936931,67.47857036457572 27.077421907742973,66.31856621135375 26.834803290839773,64.62316083535552 27.350367851904593,63.12405102279445 28.138878357072826,62.24956399976509 28.86673420795705,61.8033953631093 30.32244590978371,61.5 31.201938396319747,61.62492757011205 32.58183178037871,62.32095086952904 33.68877922027605,64.21269164745172 33.49165159399854,66.37210504434188 31.92979424726218,68.33518357417779 32.12692187348148,75.95527591479186 32.32404949981719,76.27648986605345 35.09899993147701,77.68625480355695 37.039948867226485,77.90039525800967 37.3128948113299,78.16807043470908 37.449367783323396,87.42936380454921 36.87314856797457,87.82193121702585 35.008017950109206,88.14312204088492 29.700735703809187,88.48215612041531 25.439746243238915,88.23234160314314 19.343953491770662,87.3579878109158 12.747759842895903,87.28661178637412 12.550632216560189,78.63203971114126 25.272945944045205,78.20376042542921 26.713493982388172,77.70409985203878 28.98804351646686,76.18726383126341 28.760588562989142,68.38872175190772 27.274549534078687,66.65764519316144 26.834803290839773,65.33701785682933 27.213894879852887,63.35605700497399" stroke="#4dd2ff" stroke-dasharray="none" stroke-linecap="round" stroke-linejoin="round" stroke-width="0.5"><title>2026-06-05 14.5km</title><desc>1780659860000</desc></polyline><polyline fill="none" opacity="1" points="72.85748218532535,82.62527392389165 72.56888361048186,83.18200497853832 72.32036817108747,84.23884057880787 59.0207838480128,84.19166069157654 53.05641330167418,84.61627875627892 52.11045130644925,81.97417715800111 51.22060570074245,80.6059144655228 49.633313539176015,78.756366581576 49.168349168641726,77.7277744823441 49.0,76.78410131760756 49.080166270781774,75.89703921625915 49.40884798101615,75.00053110085719 50.92399049884989,73.04705512682267 51.509204275527736,72.00895826995111 52.431116389576346,66.46908663587965 52.583432304061716,66.28032840951346 69.58669833731255,65.9500005283262 73.46674584323773,65.38372124371381 74.18022565322462,67.48837398450269 74.27642517819186,71.06522311186563 76.0,77.98256448319444 75.8957838480128,78.756366581576 75.66330166277476,79.19988419600122 72.7692992874654,82.66301851465687 72.31235154398018,84.25771252652339 59.02880047506187,84.18222471107583 53.024346793361474,84.60684282179136 52.615498812374426,83.15369670570362 52.0222684085893,81.82319750241732" stroke="#4dd2ff" stroke-dasharray="none" stroke-linecap="round" stroke-linejoin="round" stroke-width="0.5"><title>2026-06-04 19.5km</title><desc>1780570902000</desc></polyline><polyline fill="none" opacity="1" points="99.22194972410216,88.02199845415453 98.33629675046541,88.12907959191216 86.95524218273931,88.0804063632313 86.64071122012683,88.06093706443062 86.5,87.85650917273597 86.54138565296307,78.00448189380404 105.75260576338042,77.97527467754117 108.6413243408897,78.4231176197136 111.19068056411925,78.05316056653828 113.08614347031107,78.12131066420261 113.39239730229019,77.9265959626864 113.5,77.67346622148034 113.45861434703693,77.1282612858704 113.09442060091533,74.94740854183328 110.43746168000507,61.87092040809512" stroke="#4dd2ff" stroke-dasharray="none" stroke-linecap="round" stroke-linejoin="round" stroke-width="0.5"><title>2026-06-02 16.9km</title><desc>1780401150000</desc></polyline><polyline fill="none" opacity="1" points="124.21670630198787,80.6644646128625 124.0,79.5307112966766 124.15249702733126,78.34970257777604 124.4895957193221,77.57495216627285 126.02259215217782,75.63804600798903 126.56837098690448,74.53257295506774 127.42717003566213,69.24122569103929 127.57164090368315,69.02389563078759 144.58709869201994,68.69317493386188 148.42360285372706,68.07897602364392 149.09780023779604,69.7420276793564 149.25832342446665,73.61605902305746 151.0,80.68336037653353 150.951843043993,81.32581390414998 150.7030321045895,81.9210239763488" stroke="#4dd2ff" stroke-dasharray="none" stroke-linecap="round" stroke-linejoin="round" stroke-width="0.5"><title>2026-05-28 19.4km</title><desc>1779966212000</desc></polyline><polyline fill="none" opacity="1" points="169.29091703012818,87.37434371130075 162.68599391332828,87.32074083943735 162.4278704811586,80.67384979032795 162.57970779418247,78.65471427970624 175.60734925215365,78.15439369661908 178.96295387018472,76.3675220880541 178.7503816318349,68.54079644694866 177.27755969547434,66.82530012576899 176.7764965624665,65.41357623241493 176.79168029379798,64.770255008596 177.5508668589173,62.786665443331 178.61372805014253,61.91101921851805 179.9650801361422,61.5 182.21227236895356,62.01824145496357 182.97145893413108,62.786665443331 183.6091756487731,64.00184025916678 183.74582923052367,64.91321549733402 183.4725220670225,66.36068346911634 181.92378147417912,68.48718745692167 182.10598624980776,76.0816208350443 184.76313922792906,77.6183342456934 187.04069892328698,77.92210148170125 187.28363862412516,78.19013093144167 187.5721295188996,87.12419682677137 187.38992474327097,87.64235780978925 183.74582923052367,88.32132491121592 178.58336058753775,88.48213249984838 175.50106313300785,88.2677223468636 169.18463091104059,87.33860846533207 163.18705704633612,87.41007894961513 162.68599391332828,87.15993211924797 162.51897286903113,78.74405708127597 163.29334316542372,78.52963427611394 175.455511939188,78.17226231502718 178.96295387018472,76.31391564085789 178.78074909449788,68.43357844943239 177.27755969547434,66.7538207252801 176.83723148773424,64.50220375825302 177.7634390972089,62.57222189960885 178.99332133273128,61.73231533631042 179.8739777483279,61.53574084225693 181.058308789914,61.60722250356048 182.24263983155834,62.07185254704382 182.77407042722916,62.48287034081295 183.54844072367996,63.87674914726813 183.7306454992504,65.34209622026538 183.44215460447595,66.46790281368885 181.92378147417912,68.3263603822561 182.10598624980776,76.09948967785749 184.73277176520787,77.58259688709222 187.32918981806142,78.13652507629013 187.54176205629483,87.2135350433673 187.32918981806142,87.71382816250843 184.262076094863,88.28558987028373 179.61585431615822,88.5 175.2277559696231,88.24985482156626 169.21499837364536,87.37434371130075 162.73154510732275,87.33860846533207 162.5341566003044,78.72618852484447 164.91800241486635,78.45815994577424 175.72881910263095,78.13652507629013 178.9781376013998,76.24244035080483 178.73519790061982,68.41570877643244 177.06498745724093,66.27133396206773 176.85241521900753,65.53866617903986" stroke="#ffcd00" stroke-dasharray="none" stroke-linecap="round" stroke-linejoin="round" stroke-width="0.5"><title>2026-05-27 20.2km</title><desc>1779879632000</desc></polyline><polyline fill="none" opacity="1" points="23.481808227370493,91.5 24.335006909561343,93.5384799506719 24.673776974435896,94.95653496867453 24.824341447791085,101.18989343305293 26.392721378069837,106.2561334628117 27.383937493956182,110.34739098593127 27.10790262633236,111.48465013918758 27.070261507993564,113.0649815160723 22.61606250598561,118.5" stroke="#4dd2ff" stroke-dasharray="none" stroke-linecap="round" stroke-linejoin="round" stroke-width="0.5"><title>2026-05-26 19.0km</title><desc>1779792854000</desc></polyline><polyline fill="none" opacity="1" points="69.21619870088762,106.66830282082083 70.78331173112383,109.16110593490885 71.81312886526575,111.91718878886604 72.1414763572393,114.05882597953314 62.02240364794852,118.48244619151228 59.97769426566083,115.56848768751661 55.69425198313547,111.30277946437127 53.7092421449488,107.68649463028123 53.05254716076888,105.22877937107114 52.84359875676455,102.29702752640878 53.485368854831904,98.3469787773065 54.694284620985854,95.50288418507262 56.26139765128028,93.72968889099138 58.69415406946791,92.1847108695365 61.33585889189271,91.5 63.79846508218907,91.62289703535498 65.78347492043395,92.816749109581 66.88791648461483,94.5021723894024 67.11178977461532,96.71426389737462 66.33569570252439,99.97967724234331 66.54464410658693,102.59547175045009 67.48491192469373,104.68456596291799 70.67883752915077,108.7748995062866 71.63403023325372,111.32033404878166 72.1116265853052,114.14659739319177 64.63425869832281,117.2010130474373 62.08210319199134,118.5 60.06724358169595,115.70892062154599 56.90316774928942,112.70714021974709 55.26143028907245,110.75858640753722 54.08236429496901,108.59935082608717 53.24657067883527,106.21186993762967 52.84359875676455,102.89391542608791 53.05254716076888,100.52390641637612 53.7092421449488,97.59206963660836 54.88830813905224,95.25709589432518 55.85842572915135,94.11593109951355 58.18670794548234,92.41294718443532 60.9030371978879,91.55267016938888 63.7238406521501,91.6053403217229 65.7983998064883,92.85186227297527 66.57449387852103,93.81747129179712 66.96254091459559,94.78307456869516 67.11178977461532,96.27535924842232 66.33569570252439,100.10256786039099 66.57449387852103,102.80613793132943 67.51476169668604,104.7196765603585 69.18634892895352,106.68585790607904 70.61913798504975,108.86267377526383 71.5146311452263,110.95168737835775 72.15640124329366,113.98860881441215 62.00747876195237,118.4122309385275 59.96276937966468,115.60359593240719 55.96289993118262,111.63631624315167 53.843566118972376,108.09025858041423 53.097321818815544,105.33411078779318 52.87344852875685,102.45502747803403 53.53014351287857,98.10119479119021 54.53011087496998,95.78378463328409 56.007674589171074,93.99303595100355 58.06730885745492,92.500730297048 60.395591073844116,91.65801045694388 63.470117590157315,91.55267016938888 65.41035277041374,92.500730297048 66.75359251059126,94.25638258398976 67.11178977461532,96.36314027314074 66.32077081652824,100.17279102899192 66.57449387852103,102.75347141169186 67.24611374863889,104.29834888954065 69.46992176293861,107.00184911656834 70.97733524913201,109.56486621939985" stroke="#ffbf00" stroke-dasharray="none" stroke-linecap="round" stroke-linejoin="round" stroke-width="0.5"><title>2026-05-24 23.2km</title><desc>1779623970000</desc></polyline><polyline fill="none" opacity="1" points="86.665052657052,106.12569989781696 86.52124440139596,106.50187240925698 86.5,106.70722854841551 86.60622200701619,107.7953847515655 86.78598232659715,108.33464041503612 86.71571238348406,109.78728730233706 86.74839607794274,109.93504001015572 86.83010531411855,110.09814222960631 87.2304805713502,110.47423108374096 87.32036073114432,110.63157203093033 87.33997094782535,110.84647450055672 87.23865149496851,111.26667811121297 87.2991163297338,111.57942598219779 87.41677762981999,111.74251319130053 87.62268490497081,111.87298188691238 91.14925553806825,113.18337198734298 91.41399346325488,113.25051969747983 91.94673768307985,113.30807467681734 92.51870233627415,113.25051969747983 95.31969495218073,112.45816064235805 95.71026510107185,112.38717276542229 96.17437356251321,112.38525417024175 99.44764556347945,112.65385549162238 99.96568212079728,112.65385549162238 100.51640237258835,112.55984548834749 101.1619053383256,112.35647521779902 101.54920711777231,112.2778125113091 104.98426340635342,112.03414778401566 105.35195496912638,111.95164637542075 105.80625832222722,111.76361848605666 106.09877738772047,111.58134466389492 106.44195617963123,111.28778396800044 107.04006778838811,110.5931963179155 107.59732477907528,110.0309826725279 108.16438687809568,109.37280565145738 108.43566154217842,108.95447645598506 108.82296332162514,108.07556944162934 108.99782108702493,107.82417105246896 109.19555743856472,107.66680537437605 110.49800266310922,106.89147129878802 110.75783803412196,106.64965229906556 110.84935237863829,106.49611472646029 110.92289069119579,106.28883690917064 111.08957753297727,105.63627991991598 111.19579953999346,105.01632868671913 111.26606948309927,104.76680663412299 111.44256143322855,104.27926886621572 111.77430093208386,103.57673039509791 111.76939837790997,103.54025906369134 111.99818423918623,103.10835605082866 112.13708994067565,102.91063696171477 112.68127345356334,102.31554687307471 112.90352257595077,102.01799438664966 113.12086914416432,101.58029525991333 113.37580196101044,100.85077285354055 113.40031473186536,100.83349432965952 113.5,100.87381085933885 113.39541217769147,100.76821975510575 113.34965500544058,100.8046967526825 113.02772061492578,101.7050789998666 112.96562159544555,101.68588155821635 112.90352257595077,101.57261623202612 113.00320784407813,101.73963434278994 112.93947463986842,101.85481833589256 112.90352257595077,101.86825641998803 112.31194770608272,101.60525207771934 111.22358068030007,101.30000860087966 110.83791308557556,101.23473573312185 108.8556470160911,101.15026460859917 106.66747367146309,100.94868417275211 105.09375378282857,100.94868417275211 104.49727635878662,100.91604712605476 103.80928459023562,100.8046967526825 101.90872775692696,100.3324098575722 101.38415446072031,100.23257525450026 100.72884638662799,100.182657743444 99.57020941773953,100.24025485918901 99.29893475364952,100.20953642059794 98.62074809344631,100.00410550281413 97.47355041762057,99.72379407892004 97.35588911752711,99.67003522025334 97.2300568938299,99.57211688279313 97.12546907153592,99.42619836295125 96.91629342693341,98.53914167454423 96.67933664205339,98.11287796121906 96.53062583221617,97.95542662549087 96.33942621957976,97.85941903119055 96.17600774723542,97.83445697200659 94.85395230600989,97.92854455118322 94.71177823507605,97.91894380054146 94.57450671830884,97.87093996979638 94.41435661541618,97.75573024878031 94.3081346084,97.61363723440627 94.13164265827072,97.09325990748039 94.0352257595805,96.88779309095116 93.85056288584747,96.69192532318266" stroke="red" stroke-dasharray="none" stroke-linecap="round" stroke-linejoin="round" stroke-width="0.5"><title>2026-05-23 52.6km</title><desc>1779516240000</desc></polyline><polyline fill="none" opacity="1" points="144.65913085988723,106.20670269374386 147.96918500086758,107.81488957947295 149.5027421945706,107.86849553906359 149.79123315186007,108.15439369621163 150.0645403745002,116.99912324227626 149.8216006210423,117.66022540080303 147.2707332096761,118.17838470086281 143.58108570391778,118.46426499770314 137.34057078685146,118.17838470086281 130.9178510546335,117.28500558173982 125.40615539794089,117.42794656577462 125.19358311360702,117.07059387353365 124.935459625558,111.01334802483325 125.19358311360702,108.6011085750797 138.0086551088607,108.19013093099056 141.42499539192067,106.2960468208039 141.27315804595128,98.37996942423342 139.58776350633707,96.3428135713475 139.32964001834625,94.98469569506415 139.43592616042588,94.09119099513919 140.24066409375519,92.6258328116237 141.16687190387165,91.89314883900806 142.1538146522944,91.51787042208889 143.6721881114645,91.58935209111951 145.3423989165458,92.5186109701317 146.2230555228307,94.26989232226333 146.10158564610174,96.09263480255322 145.5094199970481,97.2184362745611 144.61357965617208,97.98683604286634 144.41619110642932,98.61227507292642 144.59839592158096,105.9208011621231 144.7957844712073,106.27817799928016 147.69587777816923,107.74341493958491 149.80641688639298,108.1007878294622 149.94307049771305,117.53515222256829 147.513672963134,118.16051716588845 141.80458875669865,118.48213249980472 137.7049804170383,118.21411976509262 131.54038417281117,117.30287321150536 125.51244154007873,117.39221133136016 125.23913431738038,117.15993211916066 124.95064336014912,110.6202447416581 125.11766444070963,108.6011085750797 137.56832680566004,108.22586815805698 138.9804141226923,107.83275823458098 141.4553628611029,106.26030917576281 141.24279057676904,98.41570877608319 139.7699683214305,96.78956042912614 139.34482375287917,94.55581404300756 139.78515205607982,93.23342193065037 140.75691106996965,92.16120432842581 141.74385381833417,91.6429633225489 142.74598030140623,91.5 144.85651940962998,92.14333397599694 146.0712181769777,93.71591757821443 146.1471368498751,95.91393544976017 145.6005224045366,97.03973814107303 144.49210977938492,98.16553315051715 144.41619110642932,98.68375366822875 144.58321218693163,106.04588314316061 147.5744079014985,107.67194026877405 149.76086568267783,108.02931331342552 150.0645403745002,116.19507650744345 149.8975192939979,117.57088742597261 147.25554947502678,118.19625223395997 142.13863091770327,118.5 138.20604365848703,118.2677223468636 131.85924259928288,117.32074083932093 125.19358311360702,117.35647608920408 125.01137829851359,108.65471427925513 138.29714606603375,108.15439369621163 141.27315804595128,106.43899732349382 141.50091406487627,106.13522735728475 141.5160977994674,104.83079702834948 141.2883417806006,98.77310186882096 141.1365044346894,98.21914224509965 139.9218056673999,97.00399849121459" stroke="#ffc300" stroke-dasharray="none" stroke-linecap="round" stroke-linejoin="round" stroke-width="0.5"><title>2026-05-17 22.3km</title><desc>1779013233000</desc></polyline><polyline fill="none" opacity="1" points="182.58108108109445,101.4760129383103 180.11969111970393,101.07452833473872 179.76640926641994,100.91801669668712 179.60424710426014,100.70706561477346 179.62162162162713,99.72715458288803 179.5115830115974,99.64549464441006 178.07528957532486,99.55702959199698 173.87065637068008,99.67271463562429 173.56370656369836,99.53661456230475 172.88610038609477,98.97860119730103 171.73938223937876,98.63154161923376 171.42664092665655,98.2640646944019 170.91698841701145,96.97107334223983 170.6679536679876,95.48750330317125 169.27220077221864,94.97028721118113 167.9980694980768,95.07236966992787 165.1486486486683,95.71888807894356 162.27027027026634,95.3309778273433 162.10810810810653,95.4194487961031 161.96332046334282,95.6916663845841 161.5231660231948,97.12078948470298 161.58108108109445,97.38619450186161 162.71621621624217,99.00582147575187 166.0057915057987,99.64549464441006 167.0135135135206,100.48250401190671 167.21621621621307,101.25825889356565 167.8127413127513,102.68045144740245 167.94594594594673,103.61948927757112 168.73359073360916,106.95364133703333 168.77413127411273,107.5592133507489 169.353281853284,110.5121443337448 169.79343629346113,111.27416865143095 170.22200772201177,111.53951424917977 172.06949806952616,112.17906060073074 174.0154440154729,113.42411632656513 175.89768339769216,113.5329724923904 176.6621621621889,114.13167805497142 177.26447876449674,114.19290898617692 178.23745173745556,114.64873738831739 181.6486486486392,115.05693913887444 181.86293436292908,114.89365875481963 181.97876447878662,114.62152384457659 182.36679536683368,113.2744387925377 182.56949806952616,111.53271052981654 182.5115830115974,111.28777614506907 182.1756756757095,111.0564483549424 182.1525096525438,110.94758792555876 182.37837837840198,110.32844066900361 182.54054054053267,110.14473647051273 182.54633204636048,109.15136377999806 182.9806949807098,107.84498689316752 183.76254826254444,106.82436116700046 185.38416988417157,105.76289293190712 186.57142857147846,104.71501578131938 187.3243243243778,103.29286900589432 187.59652509653824,103.09553510721526 187.9961389961536,103.23843212986321 187.62548262550263,103.08873047902671 187.30694980695262,103.3064782175752 186.6756756757095,104.55851315751715 185.9806949807098,105.23215213047297 182.63899613902322,101.51003694004248 179.8301158301474,100.95204099879993 179.61003861002973,100.68665095656252 179.56370656372746,99.6522996433232 179.05405405405327,99.55022458282838 173.8127413127513,99.65910464150147 172.93243243242614,98.99221133797982 171.75675675677485,98.63154161923376 171.38610038609477,98.2028183325092 170.88223938224837,96.87579924870079 170.70270270272158,95.52833597221615 169.29536679538433,94.96348170804777 168.93050193053205,94.92945418149611 167.57528957526665,95.13361906603313 165.08494208496995,95.70527723323175 162.18918918917188,95.33778329087363 162.0096525096451,95.56916861489663 161.5,97.21606320885621 162.69305019304738,99.01262654353559 166.04054054056178,99.67271463562429 167.0019305019232,100.46208928118358 167.1756756756804,101.15618642681875 167.8185328185209,102.76210746468496 167.90540540541406,103.51061604119968 168.71042471041437,106.83796961840198 169.3301158301183,110.45090983816408 169.44594594597584,110.79790452912493 169.8513513513608,111.30818738004382 170.25096525097615,111.53271052981654 172.05212355215917,112.18586425054309 174.0212355212425,113.41050929263656 174.39189189189347,113.49215145214475 175.90926640928956,113.51936548191952 176.6737451737572,114.13848149468322 177.12548262547352,114.14528493369653 178.35907335908269,114.68955768193337 181.38223938224837,115.07054581850025 181.71235521236667,115.02972577078981 181.89189189189347,114.87324867719508 182.11196911198203,114.30176382860736 182.41312741313595,112.9954933519366 182.58108108109445,111.58033654999235 182.52895752896438,111.28777614506907 182.22200772198266,111.09046720070546 182.1756756757095,110.96119548948263 182.3262548262719,110.41689064829188 182.55791505792877,110.08350161907947 182.54054054053267,109.13775582657036 182.9806949807098,107.84498689316752 183.5135135135497,107.06931284402162 185.56370656372746,105.64041468094001 186.27027027026634,105.02801986646591 186.6583011583134,104.60614443185841 187.30115830118302,103.34730583504643 187.56177606177516,103.10914436137318 188.5,103.45617935269911" stroke="#ff8300" stroke-dasharray="none" stroke-linecap="round" stroke-linejoin="round" stroke-width="0.5"><title>2026-05-16 35.3km</title><desc>1778887035000</desc></polyline><polyline fill="none" opacity="0.5" points="37.3455360403168,138.21224990405608 37.573593972076196,146.78243756529992 37.467166937247384,147.46230816350726 36.85901245253626,147.85591617885802 32.89080443960847,148.41054406383773 29.393916152301244,148.5 25.51693131204229,148.26741446525557 18.766416531347204,147.33706905294093 12.73048327025026,147.28339511936065 12.426406027865596,141.4149398964073 12.578444649116136,138.62377220552298 25.349688828748185,138.15857300652715 26.6420171087957,137.65758778910094 28.922596426622476,136.26197810236772 28.785761667531915,128.69327409977268 28.603315322077833,128.10279324989824 27.78230676765088,127.36916258730344 27.052521386009175,126.22397650475614 26.79405573004624,124.8461639782181 27.18935614504153,123.3609765672445 28.588111459976062,121.89366986829555 29.606770221958868,121.53578820856637 30.70144829445053,121.5 32.48030016233679,122.21576269919751 33.63579368335195,124.04094354507106 33.68140526977368,125.63348682901415 33.17967781983316,126.90393169868912 31.9633688502945,128.1564734143467 31.841737953363918,129.57004480175965 28.96820801292779,129.64161771489307 28.633723046339583,128.12068663997343 27.44782180112088,126.97550576683716 26.82446345424978,125.36508173320908 26.976502075442113,123.91568668051332 27.691083595040254,122.64521883007546 29.348304565937724,121.60736460253247 31.416029814106878,121.64315278791764 32.40428085176973,122.16208060430654 33.0428430607426,122.82415855507134 33.7726284423843,124.70301396586001 33.346920303069055,126.5997415631573 31.99377657455625,128.084899857844 31.811330229160376,129.5163650965842 28.96820801292779,129.62372448948736 28.664130770543125,128.21015356136195 27.47822952538263,127.01129278923327 26.885278902656864,125.63348682901415 26.946094351180363,124.0588373751234 27.569452698051464,122.73468871682417 28.99861573718954,121.73262321738002 30.82307919143932,121.51789410524361 32.54111561086029,122.28733879853098 33.24049326835666,123.16414349869592 33.71181299397722,124.30935079221672 33.63579368335195,125.88399785832735 33.08845464710612,126.99339927898836 31.97857271245448,128.24594031638117 31.856941815523896,129.53425833363144 29.044227323611267,129.65951093834883 28.724946219066624,128.26383369098767 27.523841111687943,126.99339927898836 26.854871178453322,125.36508173320908 27.098132972314488,123.55780940127443 27.964753113104962,122.3410208527057 29.789216567296535,121.5 31.44643753831042,121.64315278791764 32.60193105932558,122.3410208527057 33.71181299397722,124.23777556899586 33.6662014076137,125.70506144758838 32.997231474437285,127.11865381007374 31.97857271245448,128.12068663997343 31.91775726393098,129.4984718576452 29.01381959929131,129.65951093834883 28.603315322077833,128.084899857844 27.660675870778505,127.22601476115233 26.961298213282134,125.95557236834429 26.82446345424978,124.52407627593493 27.37180249049561,122.82415855507134 27.44782180112088,123.003098086323 28.055976285773795,122.28733879853098 29.044227323611267,121.71472913537582 31.187971882289276,121.58947050693678 29.044227323611267,121.71472913537582 28.055976285773795,122.28733879853098 27.44782180112088,123.003098086323 27.37180249049561,122.82415855507134 26.82446345424978,124.52407627593493 26.961298213282134,125.95557236834429 27.660675870778505,127.22601476115233 28.603315322077833,128.084899857844 29.01381959929131,129.65951093834883 31.91775726393098,129.4984718576452 31.97857271245448,128.12068663997343 32.997231474437285,127.11865381007374 33.6662014076137,125.70506144758838 33.71181299397722,124.23777556899586 32.60193105932558,122.3410208527057" stroke="#4dd2ff" stroke-dasharray="1,0.5" stroke-linecap="round" stroke-linejoin="round" stroke-width="0.5"><title>2026-05-12 15.2km</title><desc>1778590468000</desc></polyline><polyline fill="none" opacity="1" points="74.8455360403168,138.21224990405608 75.0735939720762,146.78243756529992 74.96716693724738,147.46230816350726 74.35901245253626,147.85591617885802 70.39080443960847,148.41054406383773 66.89391615230124,148.5 63.01693131204229,148.26741446525557 56.266416531347204,147.33706905294093 50.23048327025026,147.28339511936065 49.926406027865596,141.4149398964073 50.078444649116136,138.62377220552298 62.849688828748185,138.15857300652715 64.1420171087957,137.65758778910094 66.42259642662248,136.26197810236772 66.28576166753192,128.69327409977268 66.10331532207783,128.10279324989824 65.28230676765088,127.36916258730344 64.55252138600918,126.22397650475614 64.29405573004624,124.8461639782181 64.68935614504153,123.3609765672445 66.08811145997606,121.89366986829555 67.10677022195887,121.53578820856637 68.20144829445053,121.5 69.98030016233679,122.21576269919751 71.13579368335195,124.04094354507106 71.18140526977368,125.63348682901415 70.67967781983316,126.90393169868912 69.4633688502945,128.1564734143467 69.34173795336392,129.57004480175965 66.46820801292779,129.64161771489307 66.13372304633958,128.12068663997343 64.94782180112088,126.97550576683716 64.32446345424978,125.36508173320908 64.47650207544211,123.91568668051332 65.19108359504025,122.64521883007546 66.84830456593772,121.60736460253247 68.91602981410688,121.64315278791764 69.90428085176973,122.16208060430654 70.5428430607426,122.82415855507134 71.2726284423843,124.70301396586001 70.84692030306906,126.5997415631573 69.49377657455625,128.084899857844 69.31133022916038,129.5163650965842 66.46820801292779,129.62372448948736 66.16413077054312,128.21015356136195 64.97822952538263,127.01129278923327 64.38527890265686,125.63348682901415 64.44609435118036,124.0588373751234 65.06945269805146,122.73468871682417 66.49861573718954,121.73262321738002 68.32307919143932,121.51789410524361 70.04111561086029,122.28733879853098 70.74049326835666,123.16414349869592 71.21181299397722,124.30935079221672 71.13579368335195,125.88399785832735 70.58845464710612,126.99339927898836 69.47857271245448,128.24594031638117 69.3569418155239,129.53425833363144 66.54422732361127,129.65951093834883 66.22494621906662,128.26383369098767 65.02384111168794,126.99339927898836 64.35487117845332,125.36508173320908 64.59813297231449,123.55780940127443 65.46475311310496,122.3410208527057 67.28921656729653,121.5 68.94643753831042,121.64315278791764 70.10193105932558,122.3410208527057 71.21181299397722,124.23777556899586 71.1662014076137,125.70506144758838 70.49723147443729,127.11865381007374" stroke="#4dd2ff" stroke-dasharray="none" stroke-linecap="round" stroke-linejoin="round" stroke-width="0.5"><title>2026-05-11 15.3km</title><desc>1778503630000</desc></polyline><polyline fill="none" opacity="1" points="94.75198536692187,143.61774647497805 91.65315767913125,140.5589628687594 89.30404636682943,136.7354591351468 88.7042732660193,131.61780431837542 89.25406527519226,129.08837091072928 92.4028740550857,124.32359226088738 98.50056724785827,121.55882498860592 104.1484306147322,122.26472435361939 109.99621834885329,126.73539902450284 111.1957645509392,131.20603689190466 111.14578345906921,134.8531089471653 108.84665323863737,140.02955626504263 105.5479011835996,143.26481078437064 105.1480524498038,148.02942325809272 95.90155047713779,148.44117792946054 94.75198536692187,143.50010127038695 91.9030631375499,140.91190031799488 89.05414090817794,136.38251897180453 88.80423544952646,130.9119171105558 90.25368711026385,127.02952106791781 94.15221226611175,123.08827245316934 96.90117231197655,121.91177478566533 100.99962183483876,121.55882498860592 105.5978822754696,122.9117979654111 107.64710703701712,124.44124161952641 110.99584018369205,129.8530845787609 111.39568891772069,133.08839972061105 110.49602926615626,137.50016203528503 105.69784445874393,142.97069753333926 105.39795790845528,147.73531258752337 95.95153156900778,148.5 94.70200427505188,143.5589238757384 90.1037438348867,138.5589796580025 88.60431108251214,133.20604718098184 89.45398964220658,128.50012889504433 92.25293077994138,124.26476757170167 98.65051052323543,121.5 104.2483927984722,122.32354925922118 108.3468423213344,125.08831263816683 110.34608599101193,128.14718337962404 111.3457078258507,132.02957143238746 110.04619944049045,138.38251019758172 105.44793900032528,143.44127865834162 105.1480524498038,148.08824537304463 95.90155047713779,148.44117792946054 94.80196645879187,143.79421423445456 89.95380055974238,138.38251019758172 88.7042732660193,134.8531089471653 89.55395182548091,128.44130465830676 92.15296859643422,124.6765402610763 97.65088868839666,121.6764749463182 103.14880877989344,121.97059972962597 108.04695577104576,124.85301417519804 111.24574564234354,130.4413251291844 110.49602926615626,137.0883990689763 108.59674778021872,140.38249405828537 105.5479011835996,143.38245604006806 105.1480524498038,148.02942325809272 95.75160720199347,148.38235585269285 94.80196645879187,143.67656906787306 91.4532333118841,140.44131700141588 89.10412200004794,136.32369558914797" stroke="#4dd2ff" stroke-dasharray="none" stroke-linecap="round" stroke-linejoin="round" stroke-width="0.5"><title>2026-05-10 11.2km</title><desc>1778422578000</desc></polyline><polyline fill="none" opacity="0.5" points="130.6029079281725,126.53543877106858 134.29119245847687,123.58363367349375 138.86466527637094,122.02090892614797 143.0693096416071,121.5 149.11809627199546,122.88908971752971 143.0693096416071,121.5 138.86466527637094,122.02090892614797 134.29119245847687,123.58363367349375 130.6029079281725,126.53543877106858 125.8819037284702,135.13033876172267 126.02943510981277,142.42290890100412 128.98006273433566,148.5 126.02943510981277,142.42290890100412 125.8819037284702,135.13033876172267 130.6029079281725,126.53543877106858 134.29119245847687,123.58363367349375 138.86466527637094,122.02090892614797 143.0693096416071,121.5 149.11809627199546,122.88908971752971 143.0693096416071,121.5 138.86466527637094,122.02090892614797 134.29119245847687,123.58363367349375 130.6029079281725,126.53543877106858 125.8819037284702,135.13033876172267 126.02943510981277,142.42290890100412 128.98006273433566,148.5 126.02943510981277,142.42290890100412 125.8819037284702,135.13033876172267 130.6029079281725,126.53543877106858 134.29119245847687,123.58363367349375 138.86466527637094,122.02090892614797 143.0693096416071,121.5 149.11809627199546,122.88908971752971 143.0693096416071,121.5 138.86466527637094,122.02090892614797 134.29119245847687,123.58363367349375 130.6029079281725,126.53543877106858 125.8819037284702,135.13033876172267 126.02943510981277,142.42290890100412 128.98006273433566,148.5 126.02943510981277,142.42290890100412 125.8819037284702,135.13033876172267 130.6029079281725,126.53543877106858 134.29119245847687,123.58363367349375 138.86466527637094,122.02090892614797 143.0693096416071,121.5 149.11809627199546,122.88908971752971 143.0693096416071,121.5 138.86466527637094,122.02090892614797 134.29119245847687,123.58363367349375 130.6029079281725,126.53543877106858 125.8819037284702,135.13033876172267 126.02943510981277,142.42290890100412 128.98006273433566,148.5 126.02943510981277,142.42290890100412 125.8819037284702,135.13033876172267 130.6029079281725,126.53543877106858 134.29119245847687,123.58363367349375 138.86466527637094,122.02090892614797 143.0693096416071,121.5 149.11809627199546,122.88908971752971 143.0693096416071,121.5 138.86466527637094,122.02090892614797 134.29119245847687,123.58363367349375 130.6029079281725,126.53543877106858 125.8819037284702,135.13033876172267 126.02943510981277,142.42290890100412 128.98006273433566,148.5 126.02943510981277,142.42290890100412 125.8819037284702,135.13033876172267 130.6029079281725,126.53543877106858 134.29119245847687,123.58363367349375 138.86466527637094,122.02090892614797 143.0693096416071,121.5 149.11809627199546,122.88908971752971 143.0693096416071,121.5 138.86466527637094,122.02090892614797 134.29119245847687,123.58363367349375 130.6029079281725,126.53543877106858 125.8819037284702,135.13033876172267 126.02943510981277,142.42290890100412 128.98006273433566,148.5 126.02943510981277,142.42290890100412 125.8819037284702,135.13033876172267 130.6029079281725,126.53543877106858 134.29119245847687,123.58363367349375 138.86466527637094,122.02090892614797 143.0693096416071,121.5 149.11809627199546,122.88908971752971 143.0693096416071,121.5 138.86466527637094,122.02090892614797 134.29119245847687,123.58363367349375 130.6029079281725,126.53543877106858 125.8819037284702,135.13033876172267 126.02943510981277,142.42290890100412 128.98006273433566,148.5 126.02943510981277,142.42290890100412 125.8819037284702,135.13033876172267 130.6029079281725,126.53543877106858 134.29119245847687,123.58363367349375 138.86466527637094,122.02090892614797 143.0693096416071,121.5 149.11809627199546,122.88908971752971 143.0693096416071,121.5 138.86466527637094,122.02090892614797 134.29119245847687,123.58363367349375 130.6029079281725,126.53543877106858 125.8819037284702,135.13033876172267 126.02943510981277,142.42290890100412 128.98006273433566,148.5 126.02943510981277,142.42290890100412 125.8819037284702,135.13033876172267 130.6029079281725,126.53543877106858 134.29119245847687,123.58363367349375 138.86466527637094,122.02090892614797 143.0693096416071,121.5 149.11809627199546,122.88908971752971 143.0693096416071,121.5 138.86466527637094,122.02090892614797 134.29119245847687,123.58363367349375 130.6029079281725,126.53543877106858 125.8819037284702,135.13033876172267 126.02943510981277,142.42290890100412 128.98006273433566,148.5 126.02943510981277,142.42290890100412 125.8819037284702,135.13033876172267 130.6029079281725,126.53543877106858 134.29119245847687,123.58363367349375 138.86466527637094,122.02090892614797 143.0693096416071,121.5 149.11809627199546,122.88908971752971 143.0693096416071,121.5 138.86466527637094,122.02090892614797 134.29119245847687,123.58363367349375 130.6029079281725,126.53543877106858 125.8819037284702,135.13033876172267" stroke="#4dd2ff" stroke-dasharray="1,0.5" stroke-linecap="round" stroke-linejoin="round" stroke-width="0.5"><title>2026-05-10 11.3km</title><desc>1778397813000</desc></polyline><polyline fill="none" opacity="0.5" points="165.72347009624355,133.46382940706098 166.05675859586336,128.10301713866647 170.3339610064868,121.5 166.05675859586336,128.10301713866647 165.72347009624355,133.46382940706098 167.94539342657663,139.0860935592209 172.55588433681987,143.40081890305737 173.1669132525567,148.5 184.27652990398929,148.17313070909586 184.27652990398929,143.00857241923222 184.27652990398929,148.17313070909586 173.1669132525567,148.5 172.55588433681987,143.40081890305737 167.94539342657663,139.0860935592209 165.72347009624355,133.46382940706098 166.05675859586336,128.10301713866647 170.3339610064868,121.5 166.05675859586336,128.10301713866647 165.72347009624355,133.46382940706098 167.94539342657663,139.0860935592209 172.55588433681987,143.40081890305737 173.1669132525567,148.5 184.27652990398929,148.17313070909586 184.27652990398929,143.00857241923222 184.27652990398929,148.17313070909586 173.1669132525567,148.5 172.55588433681987,143.40081890305737 167.94539342657663,139.0860935592209 165.72347009624355,133.46382940706098 166.05675859586336,128.10301713866647 170.3339610064868,121.5 166.05675859586336,128.10301713866647 165.72347009624355,133.46382940706098 167.94539342657663,139.0860935592209 172.55588433681987,143.40081890305737 173.1669132525567,148.5 184.27652990398929,148.17313070909586 184.27652990398929,143.00857241923222 184.27652990398929,148.17313070909586 173.1669132525567,148.5 172.55588433681987,143.40081890305737 167.94539342657663,139.0860935592209 165.72347009624355,133.46382940706098 166.05675859586336,128.10301713866647 170.3339610064868,121.5 166.05675859586336,128.10301713866647 165.72347009624355,133.46382940706098 167.94539342657663,139.0860935592209 172.55588433681987,143.40081890305737 173.1669132525567,148.5 184.27652990398929,148.17313070909586 184.27652990398929,143.00857241923222 184.27652990398929,148.17313070909586 173.1669132525567,148.5 172.55588433681987,143.40081890305737 167.94539342657663,139.0860935592209 165.72347009624355,133.46382940706098 166.05675859586336,128.10301713866647 170.3339610064868,121.5 166.05675859586336,128.10301713866647 165.72347009624355,133.46382940706098 167.94539342657663,139.0860935592209 172.55588433681987,143.40081890305737 173.1669132525567,148.5 184.27652990398929,148.17313070909586 184.27652990398929,143.00857241923222 184.27652990398929,148.17313070909586 173.1669132525567,148.5 172.55588433681987,143.40081890305737 167.94539342657663,139.0860935592209 165.72347009624355,133.46382940706098 166.05675859586336,128.10301713866647 170.3339610064868,121.5 166.05675859586336,128.10301713866647 165.72347009624355,133.46382940706098 167.94539342657663,139.0860935592209 172.55588433681987,143.40081890305737 173.1669132525567,148.5 184.27652990398929,148.17313070909586 184.27652990398929,143.00857241923222 184.27652990398929,148.17313070909586 173.1669132525567,148.5 172.55588433681987,143.40081890305737 167.94539342657663,139.0860935592209 165.72347009624355,133.46382940706098 166.05675859586336,128.10301713866647 170.3339610064868,121.5 166.05675859586336,128.10301713866647 165.72347009624355,133.46382940706098 167.94539342657663,139.0860935592209 172.55588433681987,143.40081890305737 173.1669132525567,148.5 184.27652990398929,148.17313070909586 184.27652990398929,143.00857241923222 184.27652990398929,148.17313070909586 173.1669132525567,148.5 172.55588433681987,143.40081890305737 167.94539342657663,139.0860935592209 165.72347009624355,133.46382940706098 166.05675859586336,128.10301713866647 170.3339610064868,121.5 166.05675859586336,128.10301713866647 165.72347009624355,133.46382940706098 167.94539342657663,139.0860935592209 172.55588433681987,143.40081890305737 173.1669132525567,148.5 184.27652990398929,148.17313070909586 184.27652990398929,143.00857241923222 184.27652990398929,148.17313070909586 173.1669132525567,148.5 172.55588433681987,143.40081890305737 167.94539342657663,139.0860935592209 165.72347009624355,133.46382940706098 166.05675859586336,128.10301713866647 170.3339610064868,121.5 166.05675859586336,128.10301713866647 165.72347009624355,133.46382940706098 167.94539342657663,139.0860935592209 172.55588433681987,143.40081890305737 173.1669132525567,148.5 184.27652990398929,148.17313070909586 184.27652990398929,143.00857241923222 184.27652990398929,148.17313070909586 173.1669132525567,148.5 172.55588433681987,143.40081890305737 167.94539342657663,139.0860935592209 165.72347009624355,133.46382940706098 166.05675859586336,128.10301713866647 170.3339610064868,121.5 166.05675859586336,128.10301713866647 165.72347009624355,133.46382940706098 167.94539342657663,139.0860935592209 172.55588433681987,143.40081890305737 173.1669132525567,148.5 184.27652990398929,148.17313070909586 184.27652990398929,143.00857241923222 184.27652990398929,148.17313070909586 173.1669132525567,148.5 172.55588433681987,143.40081890305737 167.94539342657663,139.0860935592209 165.72347009624355,133.46382940706098 166.05675859586336,128.10301713866647 170.3339610064868,121.5 166.05675859586336,128.10301713866647 165.72347009624355,133.46382940706098 167.94539342657663,139.0860935592209 172.55588433681987,143.40081890305737 173.1669132525567,148.5 184.27652990398929,148.17313070909586 184.27652990398929,143.00857241923222 184.27652990398929,148.17313070909586 173.1669132525567,148.5 172.55588433681987,143.40081890305737 167.94539342657663,139.0860935592209 165.72347009624355,133.46382940706098 166.05675859586336,128.10301713866647 170.3339610064868,121.5 166.05675859586336,128.10301713866647 165.72347009624355,133.46382940706098 167.94539342657663,139.0860935592209 172.55588433681987,143.40081890305737 173.1669132525567,148.5 184.27652990398929,148.17313070909586 184.27652990398929,143.00857241923222 184.27652990398929,148.17313070909586 173.1669132525567,148.5 172.55588433681987,143.40081890305737 167.94539342657663,139.0860935592209 165.72347009624355,133.46382940706098 166.05675859586336,128.10301713866647 170.3339610064868,121.5 166.05675859586336,128.10301713866647 165.72347009624355,133.46382940706098 167.94539342657663,139.0860935592209 172.55588433681987,143.40081890305737 173.1669132525567,148.5 184.27652990398929,148.17313070909586 184.27652990398929,143.00857241923222" stroke="#ffc700" stroke-dasharray="1,0.5" stroke-linecap="round" stroke-linejoin="round" stroke-width="0.5"><title>2025-11-09 21.3km</title><desc>1762645227000</desc></polyline><polyline fill="none" opacity="1" points="14.42509716306813,167.25504451338202 13.678633433301002,162.51100878079887 14.723682654788718,158.00120782788144 18.754586795112118,153.3742300957092 24.87558937841095,151.5 30.698006469989195,152.78853388875723 33.13645465369336,154.95560668571852 35.77395983180031,159.17258831486106 36.321366566699,162.51100878079887 35.87348832888529,165.90797686984297 34.480089366901666,169.30492361891083 30.449185226811096,173.28752366662957 30.299892480950803,177.8557640730287 22.53666969202459,178.5 20.496335497824475,178.207165582804 19.948928762460127,173.7560629202053 15.918024622369558,169.77346632350236 14.474861411610618,167.25504451338202 13.72839768207632,162.33530295424862 14.823211152339354,157.88406963978196 19.15270078415051,153.1399516890524 25.422996113542467,151.55856978881638 30.897063464624807,152.84710353810806 34.8284391076304,157.18123997718794 36.02278107497841,160.05112201476004 36.12230957252905,165.4979990948923 34.480089366901666,169.24635575240245 30.59847797267139,172.81898400682257 30.34965672926046,177.7971971326624 20.745156741002575,178.3828662521555 19.799636016599834,173.46322593424702 15.918024622369558,169.83203413290903 13.977218925021589,165.0880210091127 13.877690427703783,160.40253509493778 16.166845865547657,155.71700857958058 20.446571249049157,152.43711585993879 26.418281086487696,151.67570934758987 30.698006469989195,152.90567318093963 35.27631734521128,157.82550053606974 36.27160231815651,161.57391037989873 35.72419558302499,166.66936334152706 33.783389885909855,170.066305307555 30.449185226811096,173.22895623132354 30.250128232175484,177.8557640730287 27.463330308208242,178.3828662521555 20.546099746366963,178.3242993687163 19.84940026514232,173.46322593424702 16.166845865547657,170.12487308541313 14.624154157470912,167.43074874120066 13.877690427703783,160.34396626416128 17.56024482776411,154.31134270731127" stroke="#4dd2ff" stroke-dasharray="none" stroke-linecap="round" stroke-linejoin="round" stroke-width="0.5"><title>2025-11-01 10.0km</title><desc>1761964262000</desc></polyline><polyline fill="none" opacity="1" points="51.25574075919576,160.73699217825197 54.224023959133774,155.11191937158583 59.30532231857069,152.03290763765108 65.04064917960204,151.85527181613725 70.27287719305605,154.51980307733174 73.29147027782165,159.07908199855592 73.99580866424367,164.23042931058444 72.38589235208929,169.0856777416775 68.05924226436764,173.17115825612564 67.60645330161788,178.38158185908105 57.946955430321395,178.5 57.34323681332171,173.58562558802078 52.21162856929004,168.25673594034743 51.00419133575633,162.75016206502914 51.5576000676956,159.31592661776813 53.26813614903949,156.29615003586514 57.544476352399215,152.6250266257557 63.68228229135275,151.5 69.87039811513387,154.22374468977796 73.49270981666632,159.84882663568715 73.94549877941608,164.46727169805672 71.93310338957235,169.61856823577546 68.05924226436764,173.230367894168 67.40521376254037,178.5 57.99726531514898,178.5 57.49416646757163,173.52641598845366 53.92216465063393,170.56592783203814 51.859459376195446,167.07253118645167 51.30605064379051,160.20409302582266 54.777432691305876,154.46059141261503 59.85873105074279,151.79605986294337 66.29839629819617,152.0921195652336 71.07783534913324,155.5856119451928 73.59332958632149,160.79620316298679 73.74425924057141,165.0593772176071 72.23496269783936,169.26330796408 68.00893237954006,173.46720638254192 67.80769284046255,178.14474549988518 67.15366433886811,178.44079093274195 57.946955430321395,178.5 57.141997274477035,173.46720638254192 53.72092511202209,170.56592783203814 51.859459376195446,167.25016206281725 51.30605064379051,160.38172613445204 54.67681292188354,154.63822638755664 60.26121012866497,151.79605986294337 66.90211491496302,152.2697553099133" stroke="#4dd2ff" stroke-dasharray="none" stroke-linecap="round" stroke-linejoin="round" stroke-width="0.5"><title>2025-10-27 10.0km</title><desc>1761565093000</desc></polyline><polyline fill="none" opacity="1" points="94.79061788669787,173.4302331408253 91.3844834282063,170.42372118658386 88.93006300949492,165.8254943100037 88.87997279665433,159.69446471094852 90.98376172711141,155.7446302169701 96.34341447823681,152.0305805875687 102.00360850524157,151.61790684208972 106.01082551549189,153.09174021077342 108.06452423287556,154.80138191854348 111.37047826638445,160.7556093915482 111.27029784116894,164.70540752017405 110.11822295072488,168.36041905957973 105.40974296373315,173.25337995617883 105.25947232590988,177.91049465182004 95.79242213931866,178.3820989812957 94.69043746148236,173.48918418964604 91.2342127901502,170.42372118658386 88.6796119462233,164.52855150052346 89.08033364755102,159.45865450112615 91.13403236516751,155.50881829555146 96.89440681715496,151.79476705688285 104.00721701001748,152.0895339542767 106.7120884922333,153.3275531794061 108.51533614657819,155.27300627186196 111.22020762832835,161.10932382539613 111.17011741595343,165.11807134241099 109.96795231290162,168.59622541279532 105.3596527511254,173.4302331408253 105.25947232590988,177.91049465182004 95.64215150126256,178.32314846251393 94.94088852452114,173.78393933776533 90.08213789970614,168.65517698507756 88.62952173361555,164.58750351361232 89.38087492296472,157.98483837378444 91.08394215232693,155.56777128542308 97.04467745497823,151.79476705688285 102.30414978112094,151.73581365827704 107.563622106798,154.2708040321013 111.06993699073792,160.04817983444082 111.22020762832835,165.0001674251398 109.36686976137571,169.4804983275244 105.50992338894866,173.1354778013192 105.2093821130693,177.9694452152471 95.69224171410315,178.5 94.94088852452114,173.72498832078418 91.13403236516751,170.12896421866026 89.03024343471043,165.94339804840274 88.93006300949492,160.34294226160273 91.03385193971917,155.7446302169701 95.54197107627988,152.38430069183232 100.70126297674142,151.5" stroke="#4dd2ff" stroke-dasharray="none" stroke-linecap="round" stroke-linejoin="round" stroke-width="0.5"><title>2025-10-19 10.0km</title><desc>1760866141000</desc></polyline><polyline fill="none" opacity="1" points="135.32582298014313,151.61764997069258 141.07364728557877,152.02942466718378 146.02177429641597,155.323610999214 148.72075266600586,160.26485303096706 148.8706959085539,164.79428539896617 147.17133915727027,169.2060338560259 142.9729283603374,173.26481078448705 142.72302295593545,178.14706748182653 132.97671217704192,178.20588958403096 132.42692028707825,173.79421423457097 128.77830138034187,170.206025190535 126.37920949584804,165.5589910323033 126.62911490071565,158.67660156678176 129.27811218914576,154.85301417543087 131.22737434506416,153.44122125627473 137.02517973119393,151.5 143.0728905221913,152.9706228011055 146.0717553771101,155.3824355736724 148.37088509928435,158.9118983731023 148.72075266600586,165.6178144980804 147.17133915727027,169.32367999077542 143.12287160311826,173.32363341550808 143.02290944149718,177.97060113667976 134.12627703812905,178.5 132.97671217704192,178.20588958403096 132.27697704429738,173.44127865845803 128.57837705640122,169.79426427558064 126.27924733422697,164.85310894751456 126.1293040914461,160.85309313522885 128.77830138034187,155.55890925851418 130.92748785950243,153.61769557197113 134.82601217087358,151.91177478578174 140.7237797190901,151.91177478578174 145.07213375880383,154.38241694349563 148.82071482762694,160.38250110280933 148.37088509928435,166.44134234864032 146.97141483379528,169.44132610032102 142.92294727941044,172.9706975335721 142.77300403662957,177.97060113667976 133.27659866260365,178.26471168006537 132.2269959631376,173.3824560402427 127.72869868087582,168.79427218291676 126.22926625330001,164.97075602522818 126.37920949584804,160.20602898561629 128.4784148945473,155.97068096662406 130.87750677857548,153.61769557197113 134.37618244276382,151.97059972956777 140.62381755723618,151.97059972956777" stroke="#4dd2ff" stroke-dasharray="none" stroke-linecap="round" stroke-linejoin="round" stroke-width="0.5"><title>2025-10-16 10.0km</title><desc>1760611285000</desc></polyline><polyline fill="none" opacity="1" points="163.88306206092238,159.70718891144497 166.96548576210625,154.47363334317924 173.4335223811213,151.5 180.10368514456786,152.21367347118212 185.20737028960139,157.50672276184196 186.31906408350915,161.55081592261558 185.20737028960139,168.21161031420343 180.3563428253401,173.26662355609005 180.3563428253401,178.02424056624295 170.55322482436895,178.44053009332856 169.8963148551993,173.80185752740363 165.0958189270459,168.8063201699406 163.73146745259874,164.8217518372694 163.93359359679744,159.52877306559822 166.81389115401544,154.77099579165224 172.6755493399687,151.6189456427819 179.5983697839547,152.21367347118212 183.9440818876028,155.48466501117218 186.36959561961703,161.3724006759585 185.2579018259421,168.21161031420343 180.45740589755587,173.32609402301023 180.2047482172493,178.20265040238155 170.55322482436895,178.44053009332856 169.79525178298354,173.56397582677891 165.5000712154433,169.22261668584542 163.63040438038297,164.7028090543463 163.8325305248145,159.88560469920048 165.60113428765908,156.01991631696 171.51332400995307,151.97578241716838 177.67817141255364,151.6784184545977 180.6090005056467,152.6894552700105 183.43876652652398,155.12783051736187 186.36959561961703,161.49134418019094 186.2685325476341,165.0596373253502 185.05577568127774,168.5089653226314 180.40687436121516,173.5045053854701 180.3563428253401,178.20265040238155 170.603756360244,178.5 169.8963148551993,173.74238711188082 166.0053865762893,170.0552087703254 163.68093591625802,165.11910868121777 163.93359359679744,159.29088518116623" stroke="#4dd2ff" stroke-dasharray="none" stroke-linecap="round" stroke-linejoin="round" stroke-width="0.5"><title>2025-10-08 10.1km</title><desc>1759919017000</desc></polyline><polyline fill="none" opacity="1" points="19.831900748889893,203.57482449815143 14.436909335898235,197.5814789275173 13.630181647837162,191.41004467697348 16.352887594606727,185.4165660268627 21.546197085641325,181.97473676723894 26.840347538003698,181.5 32.789964236551896,184.17038896452868 35.91603402746841,189.03639760782244 36.42023883224465,194.02104457491077 34.55468105408363,199.302347236895 30.42020165338181,203.3968052775599 30.06725828978233,208.2033039338421 20.386526034213603,208.3813215927803 19.478957385290414,203.15944622678217 16.4033080751542,200.54848987975856 14.184806933393702,197.16609611199237 13.630181647837162,191.1726804326754 16.20162615342997,185.6539327650098 19.02517306082882,183.0428929894697 21.546197085641325,181.97473676723894 27.64707522583194,181.55934211832937 33.44543048297055,185.00117398781003 35.563090663868934,187.90891164721688 36.36981835169718,194.19906684203306 34.80678345635533,198.82762548461324 30.470622133696452,203.15944622678217 30.06725828978233,208.14396470144857 20.588207956403494,208.5 19.78148026834242,203.45614502415992 17.058774321572855,201.43859003228135 14.789852699032053,198.23422271560412 13.57976116752252,191.52872676041443 15.798262309283018,186.12866593257058 20.68904891726561,182.27144703781232 26.941188499098644,181.5 32.28575943177566,183.75499598047463 35.51267018332146,187.84957021672744 36.319397871382535,194.19906684203306 34.70594249526039,199.06498641212238 30.571463094791397,202.98142687091604 30.117678770329803,208.14396470144857 20.48736699554138,208.3813215927803 19.882321229437366,203.75284366094274 15.344477984821424,199.12432662787614" stroke="#4dd2ff" stroke-dasharray="none" stroke-linecap="round" stroke-linejoin="round" stroke-width="0.5"><title>2025-10-01 10.0km</title><desc>1759271073000</desc></polyline><polyline fill="none" opacity="1" points="64.52126100589521,208.38106018019607 57.90163121232763,208.32159026071895 57.29525291058235,203.56397582683712 53.50538852531463,199.995737949037 51.33253294415772,196.07064950052882 51.58519056998193,189.23141319409478 53.454856999916956,185.78202691249317 56.08249630732462,183.34365457016975 60.781928145326674,181.5 67.85634166491218,182.45156442228472 72.55577350314707,186.97147290571593 73.97065620706417,190.95609820849495 73.86959315696731,195.29752271069447 71.74726910074241,200.0552087702672 68.10899929096922,203.26662355585722 67.65421556448564,208.2026504020905 58.002694262890145,208.32159026071895 57.396315960912034,203.56397582683712 51.68625362007879,197.31954432319617 51.029343793168664,193.7512658648193 51.48412751965225,189.29088518122444 54.617082078475505,184.59257834212622 60.63033357006498,181.5594728247961 67.14890031307004,182.27314621867845 70.73663859791122,184.7709957920015 73.66746705607511,190.00454852572875 73.9201246816665,195.0596373254666 71.79780062590726,199.81732544646366 68.05846776557155,203.2071530825342 68.05846776557155,207.84583067224594 67.45208946382627,208.26212033454794 58.002694262890145,208.32159026071895 57.34578443574719,203.56397582683712 54.010703776497394,200.53097510896623 51.837848195573315,196.96271752100438 51.18093836866319,190.65873910981463 54.26336140232161,184.83046826248756 60.52927051950246,181.5594728247961 68.26059386623092,182.62998256779974 72.30311587709002,186.73358391330112 73.97065620706417,191.3129289142671 73.56640400574543,196.42747688264353 71.54514300031587,200.23362119565718 68.21006234106608,203.08821211615577 67.9574047154747,208.02424056612654 64.57179253082722,208.5 58.002694262890145,208.5 57.29525291058235,203.44503493781667 53.606451575411484,200.0552087702672 51.433595994487405,196.07064950052882 51.58519056998193,189.35035716212587 55.829838681733236,183.34365457016975" stroke="#4dd2ff" stroke-dasharray="none" stroke-linecap="round" stroke-linejoin="round" stroke-width="0.5"><title>2025-09-27 10.0km</title><desc>1758965825000</desc></polyline><polyline fill="none" opacity="1" points="94.98001889372244,203.47821933182422 89.96003778721206,197.9246668772539 88.55444307741709,191.4848384471261 89.40783986565657,188.5307632710319 92.2190292852465,184.69044162362115 96.68681246973574,181.85449443524703 103.11238828580827,181.7363296491676 106.87737411586568,183.0952231445699 108.83516674721614,184.80860576976556 111.49575673346408,191.4257571004564 111.29495748924091,195.62051681609591 108.53396788076498,201.11501243221574 105.52197921695188,203.3009791696095 105.17058053961955,208.26368194638053 95.38161738216877,208.5 94.77921964926645,203.12373894953635 90.06043740920722,198.81087584747002 88.65484269964509,194.85246463294607 88.50424326630309,191.66208244895097 89.6588389207609,187.88086458528414 94.62862021592446,182.6225649213884 101.35539489868097,181.5 108.23276901431382,183.6860453475383 110.89335900079459,188.5307632710319 111.39535711123608,194.32073556474643 109.73876334610395,199.10627851769095 105.57217902806588,203.3009791696095 105.27098016161472,208.5 95.38161738216877,208.44092049618484 94.82941946038045,203.59637940808898 91.01423381944187,200.16972680570325 88.65484269964509,194.7343026623712 89.55843929876573,187.88086458528414 93.8254232390318,183.39063432597322 97.94180774618872,181.5590824218816 107.07817335985601,182.8588940843474 109.18656542454846,184.74952369974926 111.14435805613175,190.18504734081216 111.44555692258291,194.32073556474643 109.23676523566246,199.9334051430924 105.47177940607071,203.5372993730707 105.17058053961955,208.38184098608326 95.33141757105477,208.322761469346 94.62862021592446,203.3009791696095 91.31543268612586,200.58328946889378 89.50823948765174,197.68834424199304 88.65484269964509,190.8940246917191" stroke="#4dd2ff" stroke-dasharray="none" stroke-linecap="round" stroke-linejoin="round" stroke-width="0.5"><title>2020-04-24 10.0km</title><desc>1587724293000</desc></polyline><polyline fill="none" opacity="1" points="132.44385548774153,203.76325434836326 133.04757423559204,208.5 142.85800388641655,208.08553639397724 142.85800388641655,203.52641598839546 147.3858944941312,198.49357658304507 149.19705073721707,192.63174051209353 146.9331054331269,185.76324655441567 147.4865142852068,185.05270777101396 145.27287887688726,185.4079772781115 141.75118618179113,182.92108587932307 136.1164778699167,181.5 129.97867060103454,184.28295638010604 126.45697790617123,189.84882663574535 126.96007686271332,197.90147478319705 132.29292580089532,203.64483518118504 132.69540496589616,208.38158185890643 142.45552472071722,208.20395459915744 142.8076939904131,203.2303678940516 146.98341532889754,199.26330796384718 148.59333198983222,194.11200807831483 147.9393033462111,189.375137756404 145.02132939873263,184.63822638738202 138.88352213031612,181.67763593711425 134.55687110498548,182.09211956535 129.0227825839538,184.69743803300662 126.15511853224598,190.20409302593907 126.60790759325027,196.89490025199484 128.51968362787738,200.2106681757723 132.09168621827848,203.52641598839546 132.59478517482057,208.32237277878448 142.45552472071722,208.20395459915744 142.50583461672068,203.52641598839546 146.88279553758912,199.1448878220981 148.34178251121193,194.52648227871396 147.53682418097742,188.8422372766072 144.568540338194,184.51980307738995 142.05304555571638,182.6842384893098 137.92763411300257,181.79605986282695 135.21089974837378,181.85527181613725 130.23022007965483,183.57241567241726 126.80914717540145,188.25012502312893 125.80294926301576,191.625156277325 126.80914717540145,197.8422645679675 129.37495185341686,201.27644645154942 132.14199611381628,203.34878715121886" stroke="#4dd2ff" stroke-dasharray="none" stroke-linecap="round" stroke-linejoin="round" stroke-width="0.5"><title>2020-04-16 10.0km</title><desc>1587033949000</desc></polyline><polyline fill="none" opacity="1" points="164.83169014076702,198.41937065758975 170.04107056115754,203.54813523223856 170.89260389911942,208.4410494939657 180.25947061693296,208.08734632335836 180.40974120609462,203.37128208595095 184.56722750305198,199.24469235760625 186.32038437528536,194.52855150063988 185.66921182279475,189.57655961893033 181.91244709631428,184.15289776510326 176.35243530152366,181.79476705705747 168.53836467070505,183.62231924652588 164.83169014076702,188.2206492224359 163.72970582102425,191.99360890430398 164.23060778458603,196.70977172651328 166.78520779847167,200.836380673456 170.1412509540096,203.724988321017 170.74233330995776,208.5 180.35965100955218,208.08734632335836 180.40974120609462,203.31233102444094 184.96794907399453,198.77308011089917 186.32038437528536,193.88007893715985 185.86957260826603,190.1660848245956 183.61551377223805,185.92148909100797 179.8086588496808,182.79697385634063 177.1538784429431,181.6768602532684 172.49549018242396,182.14848731446546 167.08574897656217,184.32975715614157 164.18051758827642,189.8123697777046 163.67961562471464,193.46741417626617 164.7315097481478,198.3014674554579 170.09116075769998,203.54813523223856 170.4918823284097,208.32314846263034 180.50992159871385,207.7925935056992 180.4598314021714,203.25337995623704 184.76758828829043,199.12678933423012 186.17011378635652,194.469599481381 185.6191216262523,189.2228441889747 181.46163532906212,184.15289776510326 176.803247068543,181.5 172.39530978980474,182.26639401598368 167.08574897656217,184.68347576609813 164.38087837351486,189.340749357827 163.72970582102425,194.70540752040688 165.88358426420018,199.71630419575376 169.9909803646151,203.66603729786584 170.59206272102892,208.5 180.50992159871385,207.96944521542173 180.50992159871385,203.37128208595095" stroke="#4dd2ff" stroke-dasharray="none" stroke-linecap="round" stroke-linejoin="round" stroke-width="0.5"><title>2020-04-14 10.0km</title><desc>1586861907000</desc></polyline><polyline fill="none" opacity="1" points="20.799121893709525,238.5 30.408316124929115,237.84869990643347 30.60955579462461,233.05273896059953 34.53372935508378,229.14488782180706 36.49581613508053,223.75674422772136 35.99271696084179,219.6119822471519 33.02443183166906,214.46059141249862 27.289101243484765,211.67763593688142 22.15748966461979,211.9736957034911 16.52277891105041,214.57901473541278 13.504183864919469,220.32251510425704 13.75573345203884,224.82253508613212 14.912861553253606,227.72384411795065 20.14509296696633,233.3487871508114 20.346332636894658,238.08553639386082 30.35800620750524,237.84869990643347 30.45862604212016,233.40799676970346 35.03682852932252,228.49357658269582 36.24426654796116,224.05279745248845 35.89209712599404,219.96724879124667 32.1188533178065,213.51320390502224 27.440030995756388,211.61842396430438 21.755010324995965,211.9144837631029 16.87494833325036,214.164532992756 13.604803699767217,221.92121065611718 15.214721058029681,228.07910539017757 20.094783049542457,233.52641598822083 20.3966425540857,238.08553639386082 30.156766537576914,237.90790903783636 30.35800620750524,233.23036789393518 34.28217976749875,229.26330796355614 36.09333679568954,224.88174562848872 35.79147729091346,219.43434888852062 32.52133265743032,214.34216806368204 27.138171490980312,211.5 20.74881197628565,212.44739099656 16.472468993859366,214.46059141249862 13.554493782110512,221.74357804795727 14.761931800981984,227.66463388339616 19.994163214461878,233.46720638207626 20.3966425540857,237.90790903783636" stroke="#4dd2ff" stroke-dasharray="none" stroke-linecap="round" stroke-linejoin="round" stroke-width="0.5"><title>2020-04-13 10.0km</title><desc>1586775592000</desc></polyline><polyline fill="none" opacity="1" points="51.72064982447773,218.85280838544713 51.56702488171868,226.02471639716532 53.4617325135041,229.58050205826294 57.55839766305871,233.55813366820803 58.01927249226719,238.3794671971118 67.39039402222261,237.95760218106443 68.05610210937448,233.1362649970688 72.15276725892909,229.09836296143476 73.89384994772263,224.93989590904675 73.63780837552622,219.75683549552923 71.2310176002793,215.1161474143155 65.39326976193115,211.56026931619272 59.60673023783602,211.7410772255389 54.17864891467616,214.87507165101124 52.02789971092716,218.43092856474686 51.20856668101624,221.68542175466428 52.07910802541301,227.59167559049092 53.410524199018255,230.06264073739294 57.35356440558098,233.49786673480412 57.968064178247005,238.3794671971118 67.39039402222261,238.01786863146117 68.15851873788051,233.01573103206465 71.5382674864959,230.0023734254646 73.38176680379547,226.80819654546212 73.94505826174282,221.92649456713116 72.61364208813757,216.86394357285462 69.59235154022463,213.4888839861378 64.3691034745425,211.56026931619272 58.88981383666396,212.04242361045908 54.690732058137655,214.4531888142228 52.64239948336035,216.92421230807668 51.054941738024354,221.92649456713116 51.20856668101624,224.81936016870895 53.000857684062794,229.64076941588428 57.40477272006683,233.67866751545807 57.86564754927531,238.3192007857142 67.54401896544732,238.07813507528044 68.20972705236636,233.1362649970688 72.25518388743512,229.09836296143476 73.79143331875093,225.7233775848872 73.89384994772263,220.48005612607813 72.61364208813757,216.80367483128794 67.69764390867203,212.58484669210156 61.9111043845769,211.5 55.81731497426517,213.36834576528054 52.07910802541301,217.88851118239108 51.15735836676322,220.48005612607813 51.31098330998793,225.48230641748523 53.615357456495985,230.30370992043754 57.1999394625891,233.55813366820803 57.968064178247005,238.5 67.85126885166392,237.95760218106443 67.90247716614977,233.3773328482639 72.61364208813757,228.37515353248455" stroke="#4dd2ff" stroke-dasharray="none" stroke-linecap="round" stroke-linejoin="round" stroke-width="0.5"><title>2020-04-12 10.0km</title><desc>1586649823000</desc></polyline><polyline fill="none" opacity="1" points="89.19970564846881,227.04561955475947 88.60382733936422,221.90275740099605 91.43424930726178,215.82476620055968 94.95986263593659,212.84418780222768 100.81933267484419,211.5 108.06918543507345,214.01304403849645 110.84995087701827,219.79884511831915 111.4458291863557,224.06510314252228 109.70785078476183,228.97418022481725 105.28841999266297,233.64945020817686 105.33807651838288,238.32467968267156 95.40677136764862,238.26623956428375 94.95986263593659,233.35724702116568 90.34180574095808,229.50015012029326 88.95142301986925,226.75341279135318 88.60382733936422,222.13652492605615 89.34867522586137,218.63000141637167 94.31432780111209,212.9610735399765 97.98891070694663,211.55844301753677 104.6428851580713,212.66885914839804 108.9133463727776,215.3572255797335 111.24720308301039,220.67547623312566 111.34651613468304,224.24042809329694 109.55888120736927,229.44170904619386 105.48704609577544,233.53256895235972 105.23876346717589,238.32467968267156 95.40677136764862,238.32467968267156 94.86054958449677,233.35724702116568 90.88802752410993,229.9676784859039 89.1500491227489,226.75341279135318 88.8521099681966,220.55859216680983 91.43424930726178,215.82476620055968 94.46329737850465,213.01951639918843 96.69784103729762,212.14287284499733 102.30902844737284,211.85065801045857 107.96987238316797,214.01304403849645 111.14789003157057,220.09105564816855 111.29685960896313,224.47419460536912 109.26094205281697,229.9676784859039 105.48704609577544,233.29880636470625 105.23876346717589,238.14935930841602 95.45642789360136,238.5 94.81089305854402,233.2403657019604 90.63974489551038,229.61703224980738 89.1500491227489,226.81185415684013 88.5541708136443,220.73391825694125 91.3845927817747,215.82476620055968 94.363984326832,213.01951639918843 96.8964671404101,211.96754396316828" stroke="#4dd2ff" stroke-dasharray="none" stroke-linecap="round" stroke-linejoin="round" stroke-width="0.5"><title>2020-04-08 10.0km</title><desc>1586343893000</desc></polyline><polyline fill="none" opacity="1" points="128.06526215048507,229.26638578565326 126.22797109559178,224.88328575814376 126.52591018564999,220.03261355502764 128.71079684561118,215.70788108336274 131.83915729029104,212.96107353986008 133.97438743524253,212.20131579291774 140.47939089988358,212.0844298907905 145.09744679462165,214.36370041576447 148.62305935914628,220.8508022854803 148.1264942092821,227.10406088869786 145.99126406456344,230.8442930795718 142.81324710464105,233.59100958361523 142.81324710464105,238.32467968278797 133.08057016530074,238.44155990047147 132.48469198541716,233.53256895247614 127.61835351539776,228.62353334313957 126.02934503578581,222.7793850976741 127.32041442557238,217.9871363011771 131.73984426027164,212.78574492404005 137.4006869699806,211.5 144.10431649442762,213.54550184804248 146.28920315415598,215.76632364524994 148.8216854191851,221.78587360068923 148.0271811792627,227.10406088869786 145.64366845949553,231.0780567305046 143.01187316467986,233.47412831510883 142.71393407485448,238.32467968278797 132.88194410526194,238.38311979477294 132.38537895516492,233.41568767128047 127.8169795756694,229.44170904625207 126.07900155056268,224.4157529870863 126.8238492757082,219.2144235840533 131.88881380530074,212.72730203950778 137.4006869699806,211.67532903369283 144.25328603968956,213.2532877730555 147.0340508793015,217.11050081829308 148.9209984492045,222.25340865069302 148.97065496398136,224.94172732619336 147.67958557442762,228.50665099860635 142.86290361965075,233.41568767128047 142.86290361965075,238.32467968278797 133.22953971032985,238.5 132.33572244038805,233.76633143879008 127.8169795756694,229.3248268790776 126.12865806580521,225.23393507068977 126.27762761083432,220.38326602004236 128.56182730058208,216.2923064160277 132.38537895516492,212.78574492404005 136.6061827300582,211.79221502452856" stroke="#4dd2ff" stroke-dasharray="none" stroke-linecap="round" stroke-linejoin="round" stroke-width="0.5"><title>2020-04-07 10.0km</title><desc>1586257895000</desc></polyline><polyline fill="none" opacity="1" points="165.26732306042686,228.91573909379076 163.8769406406209,225.23393507068977 164.22453624545597,219.85728723701322 166.50873593520373,215.59099594090367 171.97095258487388,212.0844298907905 176.73797802464105,211.79221502452856 182.6967598241754,214.01304403861286 185.72580723906867,220.9676862883498 185.1299290591851,227.8053563994472 182.89538588398136,231.42870201729238 180.5118731642142,233.41568767128047 180.213934074156,238.03247902728617 170.8785092548933,238.5 170.1336615299806,233.76633143879008 166.11148381535895,230.37676547351293 164.12522321543656,226.11055735487025 164.22453624545597,219.85728723701322 166.11148381535895,216.17542140028672 169.8357224399224,212.72730203950778 173.60961757972836,211.5584430177114 177.28419968951494,211.67532903369283 183.19332497403957,215.0650124863605 185.57683769403957,219.38975011080038 185.72580723906867,226.28588164091343 183.4416075493209,230.49364741303725 180.31324710440822,233.47412831510883 180.213934074156,238.09091917105252 170.8288527398836,238.38311979477294 170.08400501520373,233.53256895247614 165.56526215048507,229.55859118833905 163.92659715539776,225.52614265697775 164.02591018541716,220.73391825705767 166.45907942019403,215.76632364524994 170.3322875900194,212.376644598844 176.53935196460225,211.5 182.49813376413658,214.48058582423255 184.98095951392315,217.63648227899102 185.87477678386495,220.61703420319827 186.12305935914628,224.707961016451 185.32855511899106,227.6300326071796 183.19332497403957,230.96117491775658 180.31324710440822,233.47412831510883 180.26359058939852,238.2077994395513 170.92816577013582,238.38311979477294 170.1336615299806,233.94165323727066 165.71423169528134,229.55859118833905 163.8769406406209,225.17549353436334 164.17487973044626,219.97417145548388 166.21079684514552,215.9416512925527 169.1405312300194,213.13640209886944 171.8716395550873,212.0844298907905" stroke="#4dd2ff" stroke-dasharray="none" stroke-linecap="round" stroke-linejoin="round" stroke-width="0.5"><title>2020-04-02 10.0km</title><desc>1585825459000</desc></polyline><polyline fill="none" opacity="1" points="20.461075393715873,268.44193694298156 20.017050160327926,263.6807448611362 16.41551215783693,260.8356220921851 14.540738950949162,257.9324200282572 13.751360758440569,251.37112544459524 16.267503746552393,245.97106169210747 22.582529285689816,241.96452762611443 27.56547912536189,242.13872538221767 31.364361676154658,243.41617386293365 33.633823979180306,245.564603079285 35.75527787115425,250.67434608162148 36.14996696752496,254.9711377255735 34.07784921233542,260.13885503058555 30.476311209611595,263.50655410508625 30.278966661775485,268.5 20.41173925693147,268.26774773397483 20.017050160327926,263.85493556043366 15.231444869190454,259.0937027405598 13.751360758440569,252.8808109575184 15.034100321121514,247.88721957273083 19.86904174950905,243.06777912459802 24.70398317766376,241.79032981354976 31.66037849825807,243.64843689615373 35.31125263823196,248.81626335246256 36.24863924155943,254.44855679775355 35.11390808993019,258.68725407740567 30.278966661775485,263.6807448611362 30.22963052452542,268.44193694298156 20.559747667983174,268.44193694298156 19.721033338457346,263.56461769680027 16.41551215783693,260.71949431148823 14.294058265862986,257.5840347239864 13.751360758440569,252.0098390650237 16.464848294854164,245.97106169210747 22.237176326802,241.5 26.924109343905002,242.02259355102433 33.140462609007955,245.50653753784718 36.001958556473255,250.7324110629852 36.199303104542196,255.1453312552767 33.73249625321478,260.71949431148823 30.42697507282719,263.50655410508625 30.081622113473713,268.3838738796767 20.60908380500041,268.5 19.86904174950905,263.4484905072022 16.41551215783693,260.77755820483435 14.639411224983633,258.22274094214663 13.800696895690635,251.95177422184497 15.971486924681813,246.60978174669435 20.115722434595227,242.60325245471904" stroke="#4dd2ff" stroke-dasharray="none" stroke-linecap="round" stroke-linejoin="round" stroke-width="0.5"><title>2020-03-23 10.0km</title><desc>1584960411000</desc></polyline><polyline fill="none" opacity="1" points="73.57681273343042,254.3628309147898 71.70606213854626,259.7512222104124 67.71840955456719,263.2855139070889 67.17687648744322,268.1523691750481 57.92158406972885,268.5 57.13389960885979,263.5752089123707 53.78624064940959,260.6203124974272 51.66933866031468,256.6224854856264 51.32472670869902,250.71259952086257 53.6385498130694,246.30911262659356 58.9554199250415,241.55794137332123 65.2076653346885,241.78970680374186 69.78608126472682,243.7597089082701 72.93681910890155,248.91644477046793 73.57681273343042,254.76841064321343 71.70606213854626,259.7512222104124 67.6691792756319,263.63314789469587 67.52148843905888,268.2103076616186 57.823123512323946,268.32618461566744 57.183129887795076,263.4593309290358 53.835470928344876,260.272676552122 51.57087810267694,256.6224854856264 51.37395698740147,250.88642062840518 53.44162869779393,246.13529003184522 59.890795222483575,241.5 67.57071871799417,242.36911994067486 70.96760795614682,244.9764712897013 72.986049387604,248.91644477046793 73.57681273343042,254.53665083582746 71.85375297488645,259.51946456206497 67.71840955456719,263.63314789469587 67.57071871799417,268.2682461417862 57.823123512323946,268.44206154491985 57.13389960885979,263.2855139070889 53.44162869779393,259.9250403807964 51.767799217952415,256.97012380324304 51.423187266336754,250.13319542171666 53.687780091771856,246.01940827060025 59.00465020374395,241.90558948140824 64.41998087358661,241.90558948140824 69.4414693126455,243.58588548522675 71.01683823484927,244.86058927717386 73.33066133921966,250.3649571367423 73.67527329106815,254.82635057909647" stroke="#4dd2ff" stroke-dasharray="none" stroke-linecap="round" stroke-linejoin="round" stroke-width="0.5"><title>2019-12-13 10.0km</title><desc>1576239112000</desc></polyline><polyline fill="none" opacity="0.5" points="106.10032401327044,250.95007318432909 102.4505575094372,260.2773408591747 93.89967598672956,268.5 102.4505575094372,260.2773408591747 106.10032401327044,250.95007318432909 105.57892879843712,241.5 106.10032401327044,250.95007318432909 102.4505575094372,260.2773408591747 93.89967598672956,268.5 102.4505575094372,260.2773408591747 106.10032401327044,250.95007318432909 105.57892879843712,241.5 106.10032401327044,250.95007318432909 102.4505575094372,260.2773408591747 93.89967598672956,268.5 102.4505575094372,260.2773408591747 106.10032401327044,250.95007318432909 105.57892879843712,241.5 106.10032401327044,250.95007318432909 102.4505575094372,260.2773408591747 93.89967598672956,268.5 102.4505575094372,260.2773408591747 106.10032401327044,250.95007318432909 105.57892879843712,241.5 106.10032401327044,250.95007318432909 102.4505575094372,260.2773408591747 93.89967598672956,268.5 102.4505575094372,260.2773408591747 106.10032401327044,250.95007318432909 105.57892879843712,241.5 106.10032401327044,250.95007318432909 102.4505575094372,260.2773408591747 93.89967598672956,268.5 102.4505575094372,260.2773408591747 106.10032401327044,250.95007318432909 105.57892879843712,241.5 106.10032401327044,250.95007318432909 102.4505575094372,260.2773408591747 93.89967598672956,268.5 102.4505575094372,260.2773408591747 106.10032401327044,250.95007318432909 105.57892879843712,241.5 106.10032401327044,250.95007318432909 102.4505575094372,260.2773408591747 93.89967598672956,268.5 102.4505575094372,260.2773408591747 106.10032401327044,250.95007318432909 105.57892879843712,241.5 106.10032401327044,250.95007318432909 102.4505575094372,260.2773408591747 93.89967598672956,268.5 102.4505575094372,260.2773408591747 106.10032401327044,250.95007318432909 105.57892879843712,241.5 106.10032401327044,250.95007318432909 102.4505575094372,260.2773408591747 93.89967598672956,268.5 102.4505575094372,260.2773408591747 106.10032401327044,250.95007318432909 105.57892879843712,241.5 106.10032401327044,250.95007318432909 102.4505575094372,260.2773408591747 93.89967598672956,268.5 102.4505575094372,260.2773408591747 106.10032401327044,250.95007318432909 105.57892879843712,241.5 106.10032401327044,250.95007318432909 102.4505575094372,260.2773408591747 93.89967598672956,268.5 102.4505575094372,260.2773408591747 106.10032401327044,250.95007318432909 105.57892879843712,241.5 106.10032401327044,250.95007318432909 102.4505575094372,260.2773408591747 93.89967598672956,268.5 102.4505575094372,260.2773408591747 106.10032401327044,250.95007318432909 105.57892879843712,241.5 106.10032401327044,250.95007318432909 102.4505575094372,260.2773408591747 93.89967598672956,268.5 102.4505575094372,260.2773408591747 106.10032401327044,250.95007318432909 105.57892879843712,241.5 106.10032401327044,250.95007318432909 102.4505575094372,260.2773408591747 93.89967598672956,268.5 102.4505575094372,260.2773408591747 106.10032401327044,250.95007318432909 105.57892879843712,241.5 106.10032401327044,250.95007318432909 102.4505575094372,260.2773408591747 93.89967598672956,268.5 102.4505575094372,260.2773408591747 106.10032401327044,250.95007318432909 105.57892879843712,241.5 106.10032401327044,250.95007318432909 102.4505575094372,260.2773408591747 93.89967598672956,268.5 102.4505575094372,260.2773408591747 106.10032401327044,250.95007318432909 105.57892879843712,241.5 106.10032401327044,250.95007318432909 102.4505575094372,260.2773408591747 93.89967598672956,268.5" stroke="#4dd2ff" stroke-dasharray="1,0.5" stroke-linecap="round" stroke-linejoin="round" stroke-width="0.5"><title>2019-11-23 10.0km</title><desc>1574497580000</desc></polyline></svg>