<?xml version="1.0" encoding="utf-8" ?>
<svg baseProfile="full" height="300mm" version="1.1" viewBox="0,0,200,300" width="200mm" xmlns="http://www.w3.org/2000/svg" xmlns:ev="http://www.w3.org/2001/xml-events" xmlns:xlink="http://www.w3.org/1999/xlink"><defs /><rect fill="#222222" height="300" width="200" x="0" y="0" /><text fill="#FFFFFF" style="font-size:12px; font-family:Arial; font-weight:bold;" x="10" y="20">Over 10km Runs</text><text fill="#FFFFFF" style="font-size:4px; font-family:Arial" x="10" y="280">Runner</text><text fill="#FFFFFF" style="font-size:9px; font-family:Arial" x="10" y="290">Floyd Li</text><text fill="#FFFFFF" style="font-size:4px; font-family:Arial" x="65" y="280">SPECIAL TRACKS</text><rect fill="yellow" height="2.6" width="2.6" x="65" y="283" /><text fill="#FFFFFF" style="font-size:3px; font-family:Arial" x="70" y="285.5">Over 20.0 km</text><rect fill="red" height="2.6" width="2.6" x="65" y="287" /><text fill="#FFFFFF" style="font-size:3px; font-family:Arial" x="70" y="289.5">Over 40.0 km</text><text fill="#FFFFFF" style="font-size:4px; font-family:Arial" x="120" y="280">STATISTICS</text><text fill="#FFFFFF" style="font-size:3px; font-family:Arial" x="120" y="285">Number: 15</text><text fill="#FFFFFF" style="font-size:3px; font-family:Arial" x="120" y="290">Weekly: 1.4</text><text fill="#FFFFFF" style="font-size:3px; font-family:Arial" x="141" y="285">Total: 150.2 km</text><text fill="#FFFFFF" style="font-size:3px; font-family:Arial" x="141" y="290">Avg: 10.0 km</text><text fill="#FFFFFF" style="font-size:3px; font-family:Arial" x="167" y="285">Min: 10.0 km</text><text fill="#FFFFFF" style="font-size:3px; font-family:Arial" x="167" y="290">Max: 10.1 km</text><polyline fill="none" points="46.4352929322049,37.200106063566636 50.43377940589562,43.97668124473421 51.393416159786284,52.259090250881854 48.83438481623307,60.54142031271476 42.11692754086107,67.12958103540586 41.71707889391109,74.47061557497364 26.362890836317092,75.31765403121244 25.00340543501079,67.03546480543446 17.006432489026338,58.37672803015448 15.327068170066923,49.24731429183157 19.485494102351367,38.894254813552834 28.042255155276507,33.341199357411824 37.63862269138917,32.870599806075916 46.19538374384865,37.5765838487423 50.91359778260812,45.294342503650114 51.55335561838001,53.106150358507875 48.59447562834248,61.106121760443784 42.27686700038612,66.84723231446696 41.39719997625798,75.03530797094572 26.28292110702023,75.12942333443789 25.323284353129566,67.78839436045382 19.965312478598207,62.98845726903528 16.60658384114504,57.341438510629814 15.646947087720037,46.7061202066252 20.365161126013845,38.14130022120662 29.96152866212651,32.58823995309649 39.15804755082354,33.247079467459116 47.07505076844245,38.51777759875404 51.393416159786284,46.4237648495473 51.63332534767687,53.67085663834587 48.91435454552993,60.729654169641435 42.196897270623595,67.22369725513272 41.79704862367362,75.03530797094572 26.202951377257705,75.12942333443789 25.323284353129566,68.07074277527863 19.485494102351367,62.32964030478615 15.646947087720037,54.8943856516853 16.046795735135674,43.88256250676932 20.285191396716982,37.764822680619545 23.40401084627956,35.50595401006285 32.68049946427345,32.399999999965075 42.35683672968298,34.75299648172222 47.155020497739315,38.61189691780601 50.8336280528456,44.25903739692876 51.393416159786284,54.98850319691701 48.91435454552993,60.91788798524067 42.436806458979845,67.31781346478965 42.27686700038612,74.7529618187109 28.042255155276507,75.59999999997672 26.202951377257705,75.12942333443789 25.083375164773315,67.50604585354449 19.165615184232593,61.67082284094067 15.487007628660649,53.76497431600001 15.247098440304399,47.364949016366154 19.485494102351367,38.894254813552834 22.9241924691014,35.788312915188726 29.161831367760897,33.05883965722751 38.598259444814175,33.05883965722751 45.55562590807676,37.01186710956972 51.55335561838001,46.61200176447164 50.8336280528456,56.30614775780123 48.59447562834248,61.106121760443784 42.11692754086107,66.7531160536455 41.87701835250482,74.7529618187109 26.682769754435867,75.22353868803475 25.00340543501079,67.41192966431845 17.806129783391953,60.070835492631886 15.407037899363786,53.95320964034181 15.646947087720037,46.32964637700934 19.005675725173205,39.55308954656357 22.844222739804536,35.788312915188726 28.442103802692145,33.15295956732007 38.43831998575479,33.15295956732007 46.9151113089174,38.23541958112037 51.95320426532999,48.96495976060396 49.15426373388618,60.447303369117435 42.27686700038612,66.47076721081976 42.03695781202987,74.7529618187109 26.12298164749518,75.22353868803475 25.16334489407018,67.78839436045382 18.046038971748203,60.35318641521735 15.407037899363786,53.01203260937473 16.60658384114504,43.69432500057155 20.765009773895144,37.6707032698323 27.24255786044523,33.52943910646718 37.478683232329786,32.77647986530792 43.556382671464235,35.50595401006285 48.994324275292456,41.058995631407015 51.473385888617486,48.02377732656896 51.393416159786284,54.42379777348833 48.274596710223705,61.3884723468218 42.196897270623595,66.94134856469464 42.35683672968298,74.28238469472853 43.316473483107984,67.60016203270061 47.71480860421434,63.74139033060055 51.393416159786284,57.71790756954579 52.75290156016126,51.22379344253568 52.1931134541519,46.61200176447164" stroke="#4DD2FF" stroke-linecap="round" stroke-linejoin="round" stroke-width="0.5"><title>2025-10-16 10.0km</title><desc>1760611285000</desc></polyline><polyline fill="none" points="89.9380197818391,35.431648561847396 99.43652910832316,32.399999999965075 108.13008001679555,34.10530360910343 115.37470577424392,41.021223049086984 118.1920602354221,48.88446227833629 116.34065587539226,59.02130492817378 108.37156754219905,67.64226558129303 108.29107170039788,75.03159279958345 92.83587008481845,75.50526549230563 91.78942414186895,67.92647162877256 84.62529422575608,61.01076492824359 81.80793976504356,53.716056138509884 82.2909148153849,45.28443381469697 86.79868195345625,37.9895938623813 96.45818296354264,32.589478343201336 105.55421308102086,33.25265222025337 113.04032636387274,37.7053780874121 118.03106855228543,48.12656278046779 116.58214340079576,58.547623308666516 108.61305506760255,67.26332404150162 108.29107170039788,75.03159279958345 92.75537424301729,75.59999999997672 91.62843245826662,67.92647162877256 84.86678175162524,61.29497313022148 81.96893144864589,54.37921399687184 82.21041897358373,45.6633848772035 87.12066532066092,37.326423576741945 97.42413306422532,32.589478343201336 108.04958417499438,33.72634753910825 116.17966419178993,42.15808128530625 117.95057271048427,48.600250043557025 116.17966419178993,59.21077750396216 108.45206338446587,67.26332404150162 108.45206338446587,74.8421236507711 92.83587008481845,75.50526549230563 91.78942414186895,68.11594227538444 84.1423191758804,60.158139767998364 81.96893144864589,53.810793006268796 82.2909148153849,45.37917159567587 86.87917779525742,37.80011668900261 96.21669543813914,32.778956644877326 107.24462575791404,33.72634753910825 114.1672681486234,38.93697911204072 118.03106855228543,48.316037716460414 116.26016003405675,59.21077750396216 108.61305506760255,67.35805944172898 108.21057585906237,75.12632735888474 92.83587008481845,75.50526549230563 91.62843245826662,67.73700094077503 84.78628590982407,60.82129274250474 81.80793976504356,53.6213192603318 82.12992313224822,45.947598066180944 84.9472775934264,39.789624959463254 94.3652910781093,33.34739130461821 104.18578377133235,32.873695780464914 108.85454259300604,34.48425951547688 113.36230973061174,38.36854808527278 118.03106855228543,48.50551261147484 117.87007686914876,54.18974037433509 115.93817666685209,59.68445876426995 108.53255922580138,67.64226558129303 108.45206338446587,75.12632735888474 92.91636592615396,75.59999999997672 91.78942414186895,68.02120695705526 85.59124432690442,62.147597182542086 81.88843560637906,54.28447719063843 82.2909148153849,45.00022041029297 86.39620274491608,38.36854808527278 95.81421622913331,32.873695780464914 106.5201631821692,33.44213037844747 113.76478893961757,38.84224063338479 117.87007686914876,48.221300253761 116.42115171719342,58.452886954008136 112.87933467980474,63.7581070131273 108.53255922580138,67.45279483182821 108.53255922580138,74.8421236507711 92.91636592615396,75.50526549230563 91.54793661646545,67.64226558129303 85.02777343522757,61.4844452139223 81.96893144864589,54.37921399687184 82.7738898661919,43.01072399242548 85.99372353591025,38.84224063338479 96.05570375500247,32.778956644877326 106.43966733990237,33.34739130461821 114.1672681486234,39.3159329246846 117.70908518554643,47.17918748484226 116.98462260933593,56.93710388423642 113.52330141467974,62.905484531016555 108.53255922580138,67.16858863085508 108.21057585906237,75.03159279958345 93.56033266056329,75.59999999997672 92.35289503447711,74.36845059902407" stroke="#4DD2FF" stroke-linecap="round" stroke-linejoin="round" stroke-width="0.5"><title>2025-10-08 10.1km</title><desc>1759919017000</desc></polyline><polyline fill="none" points="146.330318226479,51.464613169955555 154.15031341463327,38.0349046762567 159.33704491658136,34.1843904433772 165.40153098059818,32.399999999965075 178.56784940883517,35.31137198902434 184.15356025798246,43.012373344565276 185.669681773521,52.215919388923794 182.55764287244529,61.04371869924944 176.09417746169493,67.14799544762354 175.85478985402733,74.9426248226664 160.21479947818443,75.31826784223085 159.416840785183,68.08711113262689 154.3099051527679,63.391522534308024 150.71909103589132,57.9446079027839 149.5221529970877,47.4263310880051 153.83112993696705,38.69230783631792 162.2096962099895,33.526983865129296 170.50846661347896,32.869576788682025 180.00417505577207,37.37750101805432 184.95151895005256,45.548053943843115 185.4302941658534,52.873311796807684 183.03641808824614,60.19850776239764 176.01438159309328,67.33581866585882 175.29621876915917,75.03653559304075 160.2945953477174,75.50608929072041 159.2572490470484,67.80537653388456 150.71909103589132,58.32025828625774 149.44235712755471,48.55329542164691 153.75133406789973,39.067966561357025 161.97030860185623,33.62089912116062 170.34887487487867,32.869576788682025 179.76478744810447,37.095756440248806 184.71213134238496,44.79674194683321 185.51009003538638,52.68548544548685 182.55764287244529,61.04371869924944 176.01438159309328,67.52364184363978 175.45581050775945,75.13044635282131 160.13500360865146,75.4121785715688 158.69867796218023,67.14799544762354 153.83112993696705,63.01587434776593 150.32011168962345,57.662870008382015 149.44235712755471,48.17764080624329 153.5119464606978,39.44362512353109 157.98051513871178,35.31137198902434 161.97030860185623,33.62089912116062 171.62560878321528,32.96349211566849 180.80213374830782,38.410563686222304 184.15356025798246,43.012373344565276 185.4302941658534,52.967224957130384 182.95662221871316,60.29242012958275 176.09417746169493,67.14799544762354 175.45581050775945,75.03653559304075 160.4541870863177,75.59999999997672 159.17745317798108,67.61755341716344 154.86847623763606,64.42455420771148 151.2776621207595,59.35329600155819 149.3625612584874,48.74112266802695 152.87357950629666,40.194941759167705 160.6137788244523,34.0904752483475 170.50846661347896,32.869576788682025 178.9668287555687,36.43835206964286 184.0737643884495,42.918459106003866 185.3504982967861,52.967224957130384 182.79703048011288,60.668069495703094 176.25376920076087,66.86626054329099 175.53560637729242,75.03653559304075 160.2945953477174,75.4121785715688 159.33704491658136,68.08711113262689 152.15541668282822,60.761981811665464 149.1231736508198,49.868085292575415 150.71909103589132,43.85760103497887 154.15031341463327,38.31664894887945 160.21479947818443,34.1843904433772 165.2419392419979,32.681746103509795 171.7054046522826,33.24523803615011 179.2062163632363,36.814011771115474 183.9141726498492,42.7306305981474 185.27070242725313,54.00026905036066 182.95662221871316,60.386332486290485 176.01438159309328,67.52364184363978 175.29621876915917,74.9426248226664 160.69357469398528,75.59999999997672 159.2572490470484,67.71146498073358 153.1129671134986,62.076753169938456 150.24031582055613,56.44200474169338 149.3625612584874,51.08895981620299 151.67664146702737,41.697573077399284 156.54418949224055,36.43835206964286 165.1621433729306,32.869576788682025 175.37601463869214,33.9965600433643 183.9141726498492,42.35497346025659 185.3504982967861,48.083727127173916 184.71213134238496,56.16026635869639 179.92437918670475,64.14281841891352" stroke="#4DD2FF" stroke-linecap="round" stroke-linejoin="round" stroke-width="0.5"><title>2025-10-01 10.0km</title><desc>1759271073000</desc></polyline><polyline fill="none" points="29.38213857449591,81.97939315869007 35.69716274552047,80.39999999996508 45.0118233980611,82.90844659943832 50.85322075616568,90.99116906977724 52.03728778846562,96.37960840051528 51.87941218400374,102.51123956486117 50.14278053678572,107.43509346415522 42.643689333926886,115.23887948092306 42.4068759274669,123.04259450087557 27.25081791682169,123.50709910847945 25.59312407160178,115.61048656830098 19.514913307502866,109.85055862757144 16.67315243044868,104.09059200779302 15.96271221106872,98.05187579250196 17.778281660284847,91.084073482838 24.487994841765612,83.8374990336597 33.64477988984436,81.23614968144102 42.24900032300502,82.90844659943832 46.038014825899154,85.50979087932501 49.5902159223333,90.24793340207543 51.95834998600185,97.21574250399135 50.616407349705696,106.04155277524842 47.6957086706534,110.7795818792074 42.643689333926886,114.96017406031024 42.48581372946501,122.67099063354544 37.039105381816626,123.4141982072033 26.698253301437944,123.32129729585722 25.750999676063657,115.88919177779462 19.83066451596096,110.31507037923438 16.436339023988694,104.18349500198383 16.8310280344449,93.4995846937527 19.75172671349719,88.11112726962892 23.85649242484942,84.30202487338101 31.19770802371204,81.42196061112918 42.24900032300502,82.90844659943832 49.5902159223333,89.96921986044617 51.80047438200563,96.1938007112476 51.642598778009415,102.97575529105961 48.327211087569594,110.40797269926406 42.643689333926886,115.42468304448994 41.933249114546925,123.13549544243142 26.856128906365484,123.32129729585722 25.908875280525535,115.88919177779462 16.988903638906777,106.13445555843646 15.96271221106872,100.56027076701866 16.67315243044868,93.59248883510008 21.56729616317898,86.2530306528206 30.960894617252052,81.51486606098479 41.143871093168855,82.62973067275016 46.748455044813454,86.5317454020842 51.32684756908566,94.7073377482011 51.72153657954186,102.60414273006609 48.406148890033364,110.03636335849296 42.56475153192878,115.33178126794519 42.56475153192878,122.57808964169817 41.61749790608883,123.22839637409197 26.856128906365484,123.32129729585722 25.829937478061765,115.88919177779462 20.62004253687337,111.15119089826476 17.225717045366764,105.57703870959813 16.199525617528707,95.72928131202934 21.014731547795236,86.62465029844316 30.803019012790173,81.51486606098479 42.88050274038687,83.18716243532253 49.19552691094577,89.5976016644272 51.80047438200563,96.7512236580369 51.16897196462378,104.74091275670798 48.01145987957716,110.68667959951563 42.801564938388765,115.14597768400563 42.4068759274669,122.85679258732125 37.118043183814734,123.59999999997672 26.856128906365484,123.59999999997672 25.750999676063657,115.70338831469417 19.98854011995718,110.40797269926406 16.59421462798491,104.18349500198383 16.8310280344449,93.68539296666859 23.461803414393216,84.30202487338101 30.25045439833775,81.60777150082868 36.96016757981852,81.23614968144102 41.143871093168855,82.44392000470543 47.22208185773343,86.90336492669303 51.16897196462378,94.14991347282194 51.80047438200563,102.04672358708922 49.35340251587331,108.82863188855117 42.643689333926886,115.23887948092306 41.854311312548816,123.22839637409197 26.856128906365484,123.50709910847945 25.51418627006933,115.88919177779462 19.75172671349719,110.68667959951563 17.304654847364873,105.9486499823397 16.04165001306683,97.02993499586591 20.462166932877153,87.46079391147941 25.59312407160178,83.37297294236487 31.750272638630122,81.42196061112918 36.88122977735475,81.32905515137827 42.88050274038687,83.28006769373314 49.74809152632952,90.15502889815252 51.87941218400374,97.58735739951953 50.14278053678572,107.06348283495754 42.4068759274669,115.33178126794519 42.17006252100691,123.04259450087557 34.5130957136862,123.32129729585722" stroke="#4DD2FF" stroke-linecap="round" stroke-linejoin="round" stroke-width="0.5"><title>2025-09-27 10.0km</title><desc>1758965825000</desc></polyline><polyline fill="none" points="121.60000000009313,83.18972875451436 116.9857585139107,84.44902528362582 108.89411764685065,90.11583265586523 105.75108359148726,91.06029625452356 108.96099071204662,96.49093812220963 108.89411764685065,103.41691523691406 105.21609907131642,110.26412317226641 100.93622291018255,114.27797368902247 101.00309597537853,120.65286717546405 87.62848297227174,120.65286717546405 87.09349845186807,114.0418654489331 82.4792569661513,110.50023264007177 79.20247678039595,104.91228799411329 79.00185758527368,95.6251863411162 83.0142414860893,89.17136782972375 85.82291021663696,86.25926022051135 89.16656346735545,84.99996682908386 97.0575851390604,84.99996682908386 105.75108359148726,88.4630184044945 108.96099071204662,96.72705206525279 109.1616099071689,101.37061068770709 107.42291021673009,107.11598960577976 100.93622291018255,114.35667641885811 100.93622291018255,120.5741651278222 87.56160990707576,120.81027124548564 87.02662538713776,114.0418654489331 80.33931888546795,106.64376839454053 78.46687306533568,98.06502962700324 79.60371517040767,94.12979447131511 83.3486068113707,89.01395690609934 89.30030959751457,85.23608450603206 97.86006191931665,85.07867272984004 102.87554179574363,86.88890609808732 105.48359133116901,89.17136782972375 109.02786377700977,97.9863251328934 108.76037151692435,103.57432304049144 105.08235294092447,110.8937482489855 101.06996904010884,113.80575713212602 100.60185758513398,120.41676100669429 87.56160990707576,120.7315692146658 86.7591331268195,113.56964873836841 80.47306501539424,107.82432084734319 78.60061919502914,102.55117170803715 78.39999999990687,98.3011430586921 79.93808049545623,93.26403987692902 86.55851393169723,86.25926022051135 95.51950464397669,84.7638490749523 104.68111455091275,87.67596267763292 108.22538699698634,94.12979447131511 108.89411764685065,101.84283532603877 106.68730650120415,108.21783790562768 101.13684210530482,113.80575713212602 100.73560371506028,120.7315692146658 87.56160990707576,120.65286717546405 86.82600619201548,114.19927095092135 81.74365325085819,109.63449755025795 78.60061919502914,102.39376368257217 79.80433436552994,93.26403987692902 85.48854489182122,87.28243449435104 90.9721362227574,84.84255500143627 103.14303405536339,86.57408322772244 105.95170278614387,89.09266237198608 108.55975232180208,96.33352878439473 108.96099071204662,101.84283532603877 106.01857585110702,109.31968453450827 101.00309597537853,114.12056820408907 100.60185758513398,120.5741651278222 87.49473684211262,120.49546307139099 86.55851393169723,113.80575713212602 82.14489164110273,110.18541999947047 79.73746130033396,106.32895408314653 78.60061919502914,97.27798430074472 81.54303405596875,90.98159100144403 86.95975232194178,85.47220210649539 93.51331269345246,84.21290735079674 105.01547987596132,88.06949064740911 108.35913312691264,94.75943352858303 108.96099071204662,102.07894752995344 106.7541795661673,108.21783790562768 101.06996904010884,113.96316268510418 100.6687306498643,120.65286717546405 87.62848297227174,120.81027124548564 86.7591331268195,114.19927095092135 82.27863777102903,110.02801362797618 79.46996904024854,104.91228799411329 79.06873065023683,95.54648158256896 83.08111455128528,89.09266237198608 86.69226006208919,86.0231428759289 90.10278637777083,84.68514313985361 103.61114551080391,86.57408322772244 106.01857585110702,88.69913495640503 108.76037151692435,96.41223345760955 108.55975232180208,102.47246769955382 106.085448916303,108.8474647552357 100.93622291018255,114.12056820408907 101.00309597537853,119.86584631435107 100.20061919512227,120.25935685139848" stroke="#4DD2FF" stroke-linecap="round" stroke-linejoin="round" stroke-width="0.5"><title>2020-04-24 10.0km</title><desc>1587724293000</desc></polyline><polyline fill="none" points="187.5999999998603,83.20855558948824 182.39999999967404,84.69935449835612 172.93333333311602,90.27020747668575 169.93333333311602,89.32865786919137 166.13333333306946,86.19015033915639 159.19999999948777,84.77781751391012 150.86666666646488,87.52401770092547 148.1999999997206,89.95635774353286 144.99999999976717,96.86102046043379 145.06666666618548,103.13792945514433 147.53333333297633,108.9440218519303 153.19999999948777,114.12238932284527 154.26666666660458,120.79144441045355 167.0666666664183,119.84993447287707 166.86666666623205,113.8870097862673 172.66666666674428,108.08095700765261 174.466666666558,103.05946842842968 174.33333333325572,97.41025216889102 172.33333333325572,91.99637857801281 166.53333333320916,86.11168747674674 163.13333333306946,85.01320650958223 157.99999999976717,85.17013246379793 148.73333333292976,89.6425078745815 144.39999999990687,99.76409763103584 145.99999999953434,106.51174556580372 153.19999999948777,114.27930897142505 153.99999999976717,120.55606704065576 167.0,120.00685288076056 167.0,113.96546964033041 172.99999999976717,107.2963517116732 175.39999999967404,99.52871342905564 172.39999999967404,90.4271322923596 173.13333333306946,89.48558288894128 170.1999999997206,89.95635774353286 165.53333333297633,86.66092733567348 158.0666666664183,84.77781751391012 149.9333333328832,88.465569654305 145.26666666637175,95.84101761132479 145.93333333311602,106.51174556580372 152.99999999953434,114.12238932284527 153.5333333327435,120.39914875169052 166.46666666632518,120.16377125459258 166.93333333311602,113.57317028503167 172.46666666632518,108.31633843062446 174.60000000009313,101.49024610867491 173.7333333331626,95.21332283632364 169.86666666646488,88.93634517164901 161.7333333331626,85.01320650958223 155.99999999976717,85.56244720128598 148.66666666627862,89.01480772835203 144.86666666623205,96.31178833555896 145.46666666632518,105.17791316774674 148.0,109.57170472893631 152.73333333292976,113.96546964033041 153.39999999967404,120.32068959460594 166.46666666632518,120.16377125459258 166.53333333320916,113.96546964033041 172.33333333325572,108.15941749053309 174.26666666637175,102.0394743073266 173.19999999995343,94.50716556457337 169.26666666660458,88.7794200333301 165.93333333311602,86.34707603865536 160.466666666558,85.17013246379793 156.86666666646488,85.24859542824561 150.26666666660458,87.52401770092547 145.73333333269693,93.72254556621192 144.39999999990687,98.19486817263532 145.73333333269693,106.43328490445856 149.13333333283663,110.98398921376793 152.7999999995809,113.73009005287895 153.59999999962747,120.47760790056782 166.53333333320916,120.24223042902304 166.53333333320916,113.96546964033041 172.79999999981374,107.37481227959506 174.466666666558,98.66563736723037 172.46666666632518,92.3102274275152 166.0,85.7978359417757 160.59999999962747,84.15011315210722 150.39999999967404,87.68094311171444 145.86666666623205,94.58562751748832 144.59999999962747,99.45025201124372 146.13333333283663,106.8255881263176 153.0666666664183,114.43622858577874 153.7999999995809,120.24223042902304 166.80000000004657,119.84993447287707 166.7333333331626,114.200849151297 172.73333333292976,107.45327283884399 174.39999999990687,98.35179127153242 172.13333333306946,92.0748408032232 167.0666666664183,87.2101667781244 159.13333333306946,84.93474351946497 149.0666666664183,88.30864441365702 144.7333333331626,96.70409703842597 144.9333333328832,103.13792945514433 146.66666666651145,107.6101939320215" stroke="#4DD2FF" stroke-linecap="round" stroke-linejoin="round" stroke-width="0.5"><title>2020-04-16 10.0km</title><desc>1587033949000</desc></polyline><polyline fill="none" points="55.5999999998603,131.21879774791887 49.99134466750547,132.7119011518662 40.376506954897195,138.52711669640848 38.774034002562985,138.52711669640848 36.03647604305297,135.61951475089882 30.69489953573793,133.26199110492598 25.82071097334847,133.10482258949196 18.275734157534316,136.2481864291476 13.735394126037136,141.591873700032 12.667078824946657,150.78606703074183 15.67171560996212,157.30837284971494 21.14683152968064,162.57332393503748 21.614219474140555,168.70262184593594 34.16692426544614,168.15255876380252 34.901391035178676,162.65190500515746 39.708809891482815,157.70128096657572 42.5799072640948,150.7074846753967 42.112519319867715,144.0279533646535 38.3066460583359,137.2697767445934 35.90293663041666,135.0694265854545 30.427820710698143,133.02623831888195 24.952704790746793,133.41915958625032 17.073879443109035,136.71968983049737 13.401545594446361,142.9277893677936 12.466769705759361,147.32843534549465 14.069242658093572,155.34382907487452 21.01329211704433,162.180418457021 22.148377124685794,168.70262184593594 34.63431221013889,168.23113922955235 34.83462132909335,161.94467506807996 40.376506954897195,156.4439742442337 42.71344667673111,150.1574079496786 41.845440494362265,143.55645471304888 36.83771251910366,136.3267703509191 29.426275115692988,133.18340685160365 19.01020092703402,135.61951475089882 14.069242658093572,141.74904037668603 12.600309118628502,146.77835605782457 13.268006182042882,153.06495163182262 16.673261205200106,158.5656780739664 21.14683152968064,162.41616176936077 21.94806800573133,168.78120225208113 34.767851622542366,168.23113922955235 34.83462132909335,161.8660939214169 40.910664605908096,155.81532006605994 42.71344667673111,149.29300082445843 42.112519319867715,144.34228562860517 39.10788253438659,138.68428403750295 34.03338485304266,134.51933800283587 30.494590416783467,133.02623831888195 24.285007727565244,133.65491224458674 17.073879443109035,136.56252206407953 13.201236475724727,143.87078718125122 12.533539412310347,148.74292302661343 13.935703245457262,155.1866653431789 21.080061823595315,162.180418457021 21.614219474140555,168.54546100780135 34.96816074172966,167.8382368152379 34.901391035178676,161.78751276578987 40.643585780169815,156.28681075072382 42.513137557776645,150.07882552640513 41.77867078804411,143.0849557549809 36.236785161774606,136.3267703509191 30.027202472789213,132.79048545635305 24.151468315161765,133.8120806409861 17.073879443109035,137.03402526094578 13.468315300997347,143.24212210840778 12.600309118628502,150.39315516891656 15.471406491240487,157.07262787770014 20.946522410493344,162.33758067380404 21.747758886776865,168.78120225208113 34.96816074172966,168.07397828926332 34.96816074172966,161.94467506807996 40.376506954897195,156.6011377038667 42.646676970645785,149.68591328163166 41.6451313754078,143.24212210840778 37.63894899515435,137.2697767445934 30.427820710698143,133.26199110492598 24.017928902292624,133.49774381425232 16.07233384810388,137.58411193703068 12.600309118628502,147.40701806661673 14.403091189684346,155.42241092800396 20.946522410493344,162.1018373357947 21.68098918069154,168.4668805761612 34.5675425035879,168.38830013561528 34.83462132909335,162.180418457021 40.242967542493716,156.6011377038667 42.44636785122566,149.2144183072378 40.84389489935711,141.51329034892842 35.36877897963859,135.38376273110043 30.294281298061833,133.26199110492598 26.889026274671778,133.26199110492598 22.88284389465116,134.0478331714403 17.27418856229633,137.03402526094578 13.735394126037136,142.37770674360218 12.399999999906868,147.09268713038182 13.334775888361037,153.3006979060592 15.738485316513106,157.62269936018856" stroke="#4DD2FF" stroke-linecap="round" stroke-linejoin="round" stroke-width="0.5"><title>2020-04-14 10.0km</title><desc>1586861907000</desc></polyline><polyline fill="none" points="121.60000000009313,131.32384254748467 115.10674846591428,133.27338499668986 106.75828220811673,138.42015169595834 100.33128834306262,134.52108939364552 94.10306748421863,132.9614585597301 89.2662576683797,133.8192559365416 82.30920245382003,137.17245405673748 79.26134969294071,144.34668595192488 79.3276073615998,150.81902947044 81.51411042921245,156.5115244720364 87.27852760720998,161.97003905131714 87.87484662537463,168.28626855794573 100.59631901816465,167.97435729019344 100.79509202437475,161.65812504728092 105.89693251531571,156.74546166008804 108.28220858890563,151.2869074695045 107.48711656406522,142.94303751090774 102.98159509175457,136.23667940835003 94.56687116553076,133.1174217950902 88.93496932485141,133.97521898616105 82.50797546003014,136.93851050850935 79.06257668696344,145.3604303462198 79.72515337378718,152.45660113729537 82.11042944760993,157.21333580772625 87.07975460099988,161.89206056291005 88.00736196292564,168.67615745245712 100.66257668705657,167.81840160576394 100.92760736169294,161.50216799485497 106.09570552129298,156.35556630470091 108.67975460086018,149.25943394377828 108.01717791380361,143.80082299449714 104.10797545965761,137.0164916998474 96.55460122646764,133.35136658494594 89.79631901811808,133.74127439892618 82.3754601222463,137.17245405673748 78.39999999990687,144.73658781085396 78.73128834343515,150.6630700697424 80.2552147237584,154.4840656594606 87.14601226965897,161.89206056291005 87.411042944761,168.1303129409789 100.59631901816465,167.81840160576394 100.72883435548283,161.97003905131714 106.75828220811673,155.49779577949084 108.34846625756472,149.649333142268 107.88466257648543,144.26870555483038 102.91533742309548,135.76879162783735 96.75337423267774,133.27338499668986 89.2662576683797,133.66329285310348 82.8392638033256,136.6265856596292 78.53251533722505,146.84205420070793 80.6527607361786,154.95194127678405 87.07975460099988,162.1259960026946 87.47730061295442,168.1303129409789 100.33128834306262,167.89637945214054 100.59631901816465,161.73610356095014 105.76441717729904,156.5115244720364 108.14969325135462,150.74104977428215 107.75214723893441,143.5668816003017 103.44539877283387,136.86052930884762 96.35582822049037,133.1174217950902 87.94110429426655,134.36512646224583 82.30920245382003,137.0164916998474 78.46625766833313,146.6081137948786 80.05644171778113,154.406086360279 86.94723926344886,162.0480175311095 87.47730061295442,167.89637945214054 100.79509202437475,167.74042375094723 100.72883435548283,161.50216799485497 106.29447852727026,155.73173329676501 108.34846625756472,149.649333142268 107.61963190184906,143.25495962327113 102.65030674822628,136.23667940835003 92.57914110389538,132.6495319874375 84.89325153338723,135.06695938721532 79.99018404865637,141.69534771045437 78.66503067454323,147.30993478442542 79.19509202428162,152.61256014963146 80.6527607361786,155.4198165902053 87.07975460099988,161.89206056291005 87.67607361939736,168.20829075359507 100.46380368084647,167.89637945214054 100.46380368084647,161.42418945545796 105.23435582779348,157.29131480294745 108.14969325135462,149.57135331939207 106.95705521432683,141.77332838630537 100.92760736169294,134.83301515475614 92.11533742304891,132.9614585597301 82.57423312868923,136.5486044261488 78.79754601186141,146.76407407369697 79.3938650302589,153.00245753175113 81.18282208545133,156.5115244720364" stroke="#4DD2FF" stroke-linecap="round" stroke-linejoin="round" stroke-width="0.5"><title>2020-04-13 10.0km</title><desc>1586775592000</desc></polyline><polyline fill="none" points="187.5999999998603,131.22907976992428 181.44767801836133,132.96061193489004 172.88792569632642,138.31259435630636 165.4650154793635,134.21990546298912 156.03591331257485,133.5115531219053 150.7529411765281,135.9514305005432 146.20557275530882,141.6182108640205 144.8012383901514,145.78956261422718 145.20247678016312,152.7155277261627 148.74674922577105,158.46088050794788 153.02662538690493,162.3173247044324 153.8959752318915,168.4561120221042 165.6656346747186,168.14130367757753 166.80247678025626,167.19687782559777 166.80247678025626,161.92381092824508 172.15232198126614,155.8636718627531 174.09164086636156,151.8497856973554 174.55975232180208,142.3265553022502 173.48978328122757,139.02094201685395 177.10092879249714,133.9837880927953 175.6965944271069,135.872724906425 171.21609907085076,137.9190675796708 163.0575851390604,133.590258971788 155.36718266247772,134.14119968150044 149.74984520114958,136.97460244665854 145.4699690400157,143.11360386776505 145.26934984512627,152.47941636596806 147.7436532508582,157.12292569869896 153.09349845186807,162.3173247044324 153.69535603676923,168.61351614323212 165.93312693480402,168.0626015702146 166.80247678025626,161.76640535827028 172.15232198126614,156.49329905374907 174.42600619187579,151.06274659425253 174.09164086636156,144.29417511785869 170.94860681099817,138.23388901812723 163.32507739937864,133.590258971788 155.76842105248943,133.82637646998046 148.67987616104074,137.9190675796708 145.87120743002743,142.56266996142222 144.8012383901514,146.81272070709383 145.9380804952234,154.52571227122098 147.6767801856622,157.75255179812666 152.82600619201548,162.23862196633127 153.62848297227174,168.61351614323212 165.93312693480402,168.14130367757753 166.93622291018255,161.60899975377833 171.34984520124272,157.67384856566787 173.75727554154582,153.50256503897253 174.4928792566061,147.12753829208668 172.7541795661673,140.51634036574978 168.80866873031482,136.10884166281903 161.98761609895155,133.590258971788 154.83219814207405,134.21990546298912 149.34860681090504,137.36812973453198 146.67368421028368,140.5950454568374 144.60061919502914,147.12753829208668 144.8012383901514,150.90533867134945 147.1417956657242,157.2016289908206 152.8928792567458,162.4747301551397 153.49473684211262,168.5348140868009 166.13374612969346,168.2200057763839 167.00309597491287,161.76640535827028 172.2860681109596,156.49329905374907 174.29226006171666,152.08589726203354 174.42600619187579,145.23863073677057 172.7541795661673,140.43763526628027 166.33436532481574,134.92825711349724 158.77770897815935,133.5115531219053 150.81981424125843,135.9514305005432 145.9380804952234,141.85432575352024 144.73436532518826,145.23863073677057 144.93498452031054,151.77108182536904 147.94427244574763,158.0673646433861 152.6253869968932,162.3173247044324 153.62848297227174,168.77092023007572 166.534984519938,168.0626015702146 166.60185758513398,162.08121646434302 172.7541795661673,155.54885806300445 174.42600619187579,149.48866583075142 172.88792569632642,141.38209589815233 170.07925696554594,137.2894242943148 166.26749225961976,134.37731700058794 158.51021671807393,133.19672963756602 150.55232198140584,136.10884166281903 145.9380804952234,141.933030699729 144.53374612983316,147.83587735932088 146.7405572757125,156.17848552641226 152.95975232170895,162.23862196633127 153.49473684211262,168.61351614323212 166.4012383900117,168.0626015702146 166.60185758513398,162.159919219499 173.02167182648554,155.54885806300445 174.69349845172837,149.2525534221786 172.620433436241,140.75245561334305 166.46811145474203,134.77084569516592 159.11207430320792,133.11802374524996 155.6346749223303,133.82637646998046 151.154179566307,135.872724906425 147.8105263155885,138.9422367552179 145.4030959752854,143.03489904961316 144.39999999990687,147.6784687373438 145.73746130033396,154.21089789172402 148.27863777102903,158.30347418767633" stroke="#4DD2FF" stroke-linecap="round" stroke-linejoin="round" stroke-width="0.5"><title>2020-04-12 10.0km</title><desc>1586649823000</desc></polyline><polyline fill="none" points="55.60000000009313,179.3921786181745 51.33416927885264,180.18910718080588 40.16175548592582,186.2457360450062 42.80250783683732,190.54909993894398 43.95360501552932,197.6416262422572 40.364890282042325,205.69036540674279 35.55736677139066,209.83423638396198 34.9479623825755,216.44844362768345 21.947335423203185,216.20937693171436 21.27021943544969,209.43578826572048 15.176175548462197,204.25594309240114 12.6708463949617,198.04008074785816 14.22821316611953,188.71618876524735 20.186833855696023,181.5438837558031 24.858934169169515,179.79064300726168 35.82821316597983,181.46419108501868 40.364890282042325,184.5721988438163 43.411912225652486,192.7804639004753 43.276489028241485,199.15575221483596 40.70344827580266,204.73408417432802 35.35423197504133,209.67485716252122 34.880250783637166,216.3687547375448 21.879623824264854,216.28906583890785 21.13479623803869,209.59516753896605 15.717868338571861,204.89346446609125 13.280250783776864,200.98863738100044 12.467711598612368,193.9758346672752 16.327272727154195,185.68789073440712 21.13479623803869,181.62357641773997 29.124764890177175,179.79064300726168 39.010658307233825,183.2174278453458 42.80250783683732,191.10694156371756 43.61504702200182,196.9244075884926 41.24514106567949,203.6184211660293 35.21880877716467,209.99361557071097 35.286520376103,216.3687547375448 21.744200626853853,216.28906583890785 21.13479623803869,209.59516753896605 14.837617554934695,204.3356332941912 12.941692790016532,200.59018447250128 12.467711598612368,194.29459987720475 13.483385579893366,189.51310722791823 20.254545454634354,181.78296171611873 25.26520376186818,179.87033585913014 34.33855799376033,181.38449840585236 40.16175548592582,185.05035271839006 43.344200626714155,192.30231504974654 43.47962382435799,197.16348055098206 41.04200626933016,204.25594309240114 35.48965517245233,209.83423638396198 35.151097178692,216.3687547375448 21.744200626853853,216.3687547375448 20.999373040627688,209.59516753896605 15.58244514092803,204.97315459913807 13.212539185071364,200.59018447250128 12.806269592605531,192.14293203054694 16.327272727154195,185.68789073440712 20.457680250983685,181.86265435215319 23.504702194361016,180.66726390377153 31.15611285250634,180.26879998942604 38.87523510935716,183.2174278453458 43.208777429303154,191.50539960811147 43.411912225652486,197.4822443795856 40.635736676864326,204.97315459913807 35.48965517245233,209.51547790662153 35.151097178692,216.1296880156733 21.811912225792184,216.6078213818837 20.931661441689357,209.43578826572048 15.243887147400528,204.49501367245102 13.212539185071364,200.66987507167505 12.399999999906868,192.38200654659886 16.259561128681526,185.68789073440712 20.322257053339854,181.86265435215319 23.775548589183018,180.4281855809968 28.921630094060674,179.95002870250028 37.11473354231566,181.70326907129493 40.229467084631324,184.4925065014977 43.411912225652486,193.73676066927146 43.276489028241485,199.31513371493202 40.568025077925995,204.97315459913807 35.69278996856883,209.75454677763628 35.35423197504133,216.44844362768345 21.811912225792184,216.44844362768345 20.931661441689357,209.67485716252122 15.988714733626693,205.84974549128674 12.941692790016532,201.22770902275806 12.73855799390003,191.98354897665558 15.785579937277362,185.9269673479721 21.608777429442853,181.14542031631572 28.109090908896178,179.79064300726168 31.494670846499503,180.26879998942604 37.18244514078833,182.3408099876251 40.09404388698749,184.65189117804402 43.141065830830485,191.8241658883635 43.208777429303154,199.31513371493202 40.635736676864326,204.65439401561162 35.421943573514,209.91392598184757 35.421943573514,215.49217637768015 32.51034482754767,215.8109322655946" stroke="#4DD2FF" stroke-linecap="round" stroke-linejoin="round" stroke-width="0.5"><title>2020-04-08 10.0km</title><desc>1586343893000</desc></polyline><polyline fill="none" points="121.5999999998603,179.37325168139068 116.22488479269668,180.54477459873306 105.67373271891847,187.02716700086603 108.65990783437155,192.72850009956164 108.7926267280709,197.80499163025524 105.80645161285065,205.45871129719308 100.8958525347989,209.91032720549265 100.63041474646889,216.47055318916682 87.5576036865823,216.39245561196003 86.76129032229073,209.441737351357 81.91705069132149,205.53681005869294 78.99723502271809,200.77277012402192 78.73179723508656,194.29050130042015 80.19170506903902,188.9796834118897 86.16405529947951,182.73161228490062 91.87096774205565,180.77907895378303 97.11336405551992,181.32578881946392 104.081105990801,184.5279382794397 107.39907834096812,190.7759938404197 108.7926267280709,197.8830912206904 105.74009216600098,205.69300755631411 100.82949308748357,209.98842548480025 100.56405529938638,216.54865075804992 87.69032258028165,216.31435802596388 87.15944700455293,209.98842548480025 81.12073732702993,204.28722885850584 78.66543778800406,198.42978811764624 79.06359447003342,191.94749823038 81.98341013817117,186.16805810492951 86.16405529947951,182.49730856425595 89.01751152076758,181.4819915620028 97.71059907833114,181.32578881946392 103.88202764978632,184.37173619662644 108.59354838705622,193.04090061073657 107.92995391716249,201.39756403985666 105.07649769610725,206.39589587744558 100.82949308748357,210.06652375584235 100.82949308748357,216.39245561196003 87.82304147467948,216.54865075804992 87.02672811062075,209.98842548480025 80.52350230398588,203.42814052756876 78.39999999990687,195.61819966055918 80.12534562218934,189.21398502599914 86.0313364053145,182.26300476765027 93.59631336387247,180.54477459873306 102.55483870953321,183.27832067006966 105.47465437767096,186.2461589560262 108.8589861751534,194.29050130042015 107.79723502299748,201.39756403985666 104.61198156676255,206.7082904666895 101.09493087581359,209.91032720549265 100.69677419378422,216.39245561196003 87.5576036865823,216.47055318916682 86.89400921645574,209.83222891757032 80.78894009208307,204.52152549859602 78.46635944675654,197.80499163025524 79.46175115206279,190.85409419221105 86.23041474632919,182.18490348523483 93.59631336387247,180.77907895378303 102.75391705078073,182.8878147227806 106.4700460829772,188.04247619427042 108.99170506931841,194.91530083329417 109.05806451593526,198.50788764067693 107.33271889411844,203.271942539257 100.8958525347989,209.83222891757032 100.8958525347989,216.39245561196003 88.02211981569417,216.62674831860932 86.82764976960607,210.30081851768773 80.78894009208307,204.36532774730586 78.53271889407188,198.89838512800634 78.73179723508656,192.41609945357777 81.78433179715648,186.94906623434508 86.89400921645574,182.26300476765027 92.53456221194938,180.9352818148909 97.04700460820459,181.2476874354761 103.94838709686883,184.1374330089311 107.6645161290653,190.69789347995538 108.52718894020654,199.52318066795124 106.7354838710744,204.36532774730586 101.02857142849825,209.75413062126609 100.82949308748357,216.08006521780044 88.42027649795637,216.62674831860932 87.5576036865823,216.15816282923333 86.82764976960607,210.06652375584235 82.31520737335086,206.39589587744558 78.99723502271809,200.53847226593643 78.46635944675654,194.75910100073088 79.85990783409216,189.68258802546188 86.16405529947951,182.26300476765027 89.41566820256412,180.9352818148909 97.51152073731646,181.32578881946392 102.42211981560104,183.2002194976085 106.7354838710744,188.19867748202523 108.65990783437155,194.60290113446536 107.99631336401217,201.16326638491591 104.74470046069473,206.47399453743128 100.96221198141575,209.91032720549265 100.82949308748357,215.76767468848266 95.32165898615494,216.08006521780044" stroke="#4DD2FF" stroke-linecap="round" stroke-linejoin="round" stroke-width="0.5"><title>2020-04-07 10.0km</title><desc>1586257895000</desc></polyline><polyline fill="none" points="187.5999999998603,179.04369069862878 183.12401883793063,180.00150718563236 172.0018838304095,186.78600499295862 175.25714285694994,194.12915575521765 174.85023547848687,200.3548132129945 171.86624803720042,206.10152726015076 167.4580847718753,209.77301555068698 167.1189952902496,216.79668131197104 153.8945054942742,216.4774252298521 153.01287284120917,210.17208926239982 147.9265306117013,205.94189691956853 145.0781789633911,200.19518162764143 144.67127158516087,194.04933929245453 148.19780219742097,185.66856259218184 152.80941915186122,181.19877604371868 156.81067503872328,180.161143145815 163.52464678115211,180.79968664044281 170.10298273107037,183.7529431056464 175.05368916783482,193.80988985247677 174.23987441090867,201.87131155037787 171.18806907325052,206.50060296041192 167.39026687596925,209.85283031029394 167.4580847718753,216.4774252298521 154.0979591831565,216.8764953109203 152.87723704823293,210.17208926239982 146.63799058040604,203.8666993447696 144.7390894817654,198.83831175486557 145.21381475636736,191.4952079197974 148.33343799016438,185.66856259218184 155.79340659291483,180.87950453837402 162.30392464646138,180.4804149622796 170.44207221339457,183.51349031971768 174.57896389300004,193.01172449003207 173.76514913653955,202.35020511387847 170.71334379864857,207.2987537123845 167.4580847718753,210.01245980360545 167.05117739364505,216.31779713649303 154.3014128722716,216.95630930137122 153.284144426696,210.4913480762625 147.79089481919073,205.8620817362098 145.0781789633911,200.035550007422 145.21381475636736,191.4952079197974 147.79089481919073,186.466735908587 152.87723704823293,181.757500845124 158.03139717387967,180.161143145815 163.049921506783,180.32077907124767 171.1202511768788,184.95020586851751 174.37551020388491,190.85667369351722 174.57896389300004,200.27499742462533 171.45934065943584,206.0217120941379 167.1868131866213,210.09227453742642 167.05117739364505,216.39761118742172 154.2335949758999,216.79668131197104 153.2163265303243,210.17208926239982 147.04489795886911,204.74466826271964 144.80690737767145,199.23739138845121 144.9425431706477,192.69245810323628 148.26562009379268,185.90801467798883 153.55541601218283,181.2785938984598 162.03265306097455,180.08132516994374 170.1708006276749,184.15203090955038 173.5616954471916,188.4621654166258 174.78241758211516,192.5328248576261 175.12150706443936,198.11996786959935 174.03642072179355,202.1107583710109 171.1202511768788,206.66023317992222 167.1868131866213,210.09227453742642 167.1189952902496,216.55723926326027 154.36923076887615,216.79668131197104 153.284144426696,210.7307920961175 147.2483516477514,204.74466826271964 144.7390894817654,198.75849580211798 145.14599685976282,191.65484139014734 147.9265306117013,186.14746668579755 151.9277864987962,182.31622522283578 155.65777080040425,180.87950453837402 164.20282574533485,180.56023289484438 168.7466248034034,181.99695420166245 172.40879120817408,186.7061877347296 174.85023547848687,192.21355826337822 174.71459968574345,201.152970621828 170.98461538436823,207.05930857756175 167.39026687596925,210.41153338603908 166.77990580839105,216.55723926326027 154.16577707976103,216.95630930137122 153.01287284120917,210.25190397893311 147.8587127153296,205.62263613461982 145.14599685976282,200.5144447639468 144.39999999990687,195.72548319451744 146.2989010985475,188.94106769451173 152.53814756614156,181.99695420166245 157.89576138113625,180.4005970211001 162.5751962319482,180.56023289484438 169.15353218163364,182.63549610547489 172.54442700138316,186.466735908587 175.1893249603454,194.20897220936604 175.1893249603454,198.51904789247783 173.42605965421535,203.94651474431157 167.25463108276017,210.41153338603908 166.98335949750617,216.63705328805372 157.82794348476455,216.39761118742172" stroke="#4DD2FF" stroke-linecap="round" stroke-linejoin="round" stroke-width="0.5"><title>2020-04-02 10.0km</title><desc>1585825459000</desc></polyline><polyline fill="none" points="55.5999999998603,226.82910366851138 55.01709145400673,228.5061243698583 47.180209894897416,230.79296433995478 38.82518740626983,236.05266806896543 41.61019490240142,241.23610574688064 42.25787106435746,246.64818375650793 40.055772113846615,253.05115187825868 34.61529235355556,258.8442633157247 33.838080959394574,265.09467217570636 21.402698650490493,264.78977547050454 20.495952023891732,258.53936390258605 14.990704647498205,253.5847299254965 12.918140929425135,248.70628700591624 12.788605697220191,243.06554522371152 14.083958020899445,238.41571056918474 17.905247376067564,233.68961763381958 24.511544227600098,230.1831410744344 31.441679160110652,230.64050857303664 35.39250374794938,232.08883702429011 38.24227886041626,234.5281203093473 41.41589205362834,241.8459194340976 41.804497751174495,248.24893124838127 39.66716641653329,253.73718072206248 34.2266866567079,258.61558876832714 34.03238380816765,265.1708963314886 21.33793103415519,265.01844801177504 20.75502248830162,258.76803847489646 16.02698650653474,255.03301115747308 13.565817091381177,251.22173835942522 12.529535232111812,242.60818580037449 15.832683657761663,235.51907672878588 24.122938530286774,230.25936901156092 30.664467765949667,230.488052773464 35.651574212824926,232.16506475483766 38.630884557496756,234.98548498412129 41.41589205362834,241.69346606195904 41.93403298337944,247.33421884156996 39.213793102884665,254.11830756819109 34.485757121117786,258.53936390258605 34.2266866567079,265.09467217570636 21.27316341828555,264.78977547050454 20.75502248830162,258.99671297264285 14.472563717979938,252.74624995549675 12.529535232111812,244.59007448825287 14.213493253104389,238.03457521862583 20.560719639994204,231.7076982470462 26.90794602665119,230.0306851756759 36.04017990990542,232.46997559495503 40.83298350824043,239.2542076134705 42.06356821558438,246.64818375650793 40.57391304313205,252.21267127251485 34.2266866567079,258.76803847489646 34.161919040372595,265.01844801177504 21.467466266825795,265.01844801177504 20.366416791686788,258.61558876832714 16.02698650653474,254.88056064181728 13.241979010403156,250.7643842365942 12.529535232111812,243.4466778494534 16.091754122870043,235.51907672878588 23.66956521733664,229.6495452837553 29.822488755453378,230.33559694036376 37.983208395540714,234.90925755881472 41.73973013483919,241.76969275210286 41.99880059948191,247.5628970550606 38.76041978993453,254.88056064181728 34.420989505248144,258.53936390258605 33.96761619183235,264.94222383969463 21.532233882928267,265.09467217570636 20.560719639994204,258.4631390286959 16.02698650653474,254.9567859036033 13.695352323818952,251.60286656796234 12.594302848447114,243.37045134074287 15.444077960914,236.3575772245531 20.884557720972225,231.097875774547 25.612593702739105,230.0306851756759 32.28365817060694,231.097875774547 35.52203898038715,232.08883702429011 38.17751124408096,234.98548498412129 41.73973013483919,242.07459943072172 42.128335831919685,247.8678012234741 39.01949025457725,254.4232088966528 34.485757121117786,258.8442633157247 33.96761619183235,265.01844801177504 21.402698650490493,265.01844801177504 20.75502248830162,258.76803847489646 15.897451274329796,254.4232088966528 12.723838080652058,248.02025325823342 12.399999999906868,243.52290434995666 14.019190404564142,238.33948351553408 20.042578710475937,231.63147046696395 26.06596701638773,229.9544572136947 33.51424287841655,231.5552426786162 38.24227886041626,235.21416720969137 41.804497751174495,242.45573259313824 41.93403298337944,248.47760916425614 38.69565217359923,254.80433537164936 34.55052473745309,258.4631390286959 34.2266866567079,264.7135512736277 32.86656671646051,264.94222383969463" stroke="#4DD2FF" stroke-linecap="round" stroke-linejoin="round" stroke-width="0.5"><title>2020-03-23 10.0km</title><desc>1584960411000</desc></polyline><polyline fill="none" points="111.0150438323617,224.40000000002328 111.6546270227991,230.1296101032931 112.61400180822238,233.0989366262511 112.54293700912967,245.7287745429494 111.05057623190805,245.39421462791506 110.3399282428436,247.44338955704006 106.78668829682283,248.61434177603223 101.81215237244032,251.49988744183793 103.37557794852182,254.67814466479467 103.58877234556712,258.1072875885002 102.41620316309854,261.24367213176447 99.21828721184283,264.17094138546963 99.28935201070271,267.265459036862 92.39606651547365,267.47454717269284 91.86308052367531,264.00366945462883 89.48240975989029,261.99640063088736 87.7768545858562,259.0272963618336 87.38599819177762,256.55999516209704 87.7768545858562,253.79994462704053 89.23368296353146,251.37442938308232 93.28437650203705,248.11250554563594 96.73101924965158,248.19614496265422 100.39085639407858,249.3670948985964 101.74108757358044,250.62168017448857 103.51770754647441,254.38541154086124 103.659837144427,257.39637021673843 102.30960596492514,261.2854904201522 99.4314816086553,263.8363974512322 99.04062521457672,267.3490943046927 92.3605341159273,267.6000000000058 91.79201572481543,264.0454874441202 89.37581256148405,261.91276420344366 87.84791938471608,259.0272963618336 87.59919258859009,254.76178265950875 89.26921536307782,251.5835261249449 93.10671450477093,248.15432525644428 97.61932923621498,248.32160405421746 100.92384238587692,249.74347090930678 103.19791595148854,253.46539170623873 103.659837144427,257.6891010578256 102.30960596492514,261.2854904201522 99.39594920910895,264.08730542918784 99.28935201070271,267.3909119319869 92.28946931706741,267.47454717269284 91.82754812436178,263.96185146053904 89.41134496103041,261.66185481243883 87.7768545858562,259.0272963618336 87.63472498790361,254.8872396175866 89.12708576535806,251.45806809340138 93.78183009428903,248.11250554563594 99.32488441024907,248.7398007317097 101.77661997289397,250.62168017448857 103.23344835080206,253.46539170623873 103.659837144427,257.5218263184943 102.41620316309854,261.11821723915637 99.4314816086553,264.08730542918784 99.32488441024907,267.4327295545954 92.28946931706741,267.5581823954999 91.79201572481543,263.8363974512322 89.12708576535806,261.41094525833614 87.91898418380879,259.27820746504585 87.67025738744996,254.34359250508714 89.30474776262417,251.37442938308232 93.14224690408446,248.40524342597928 97.05081084487028,248.40524342597928 100.6751155895181,249.61801227994147 101.81215237244032,250.53804128276533 103.48217514692806,254.51086862123339 103.73090194328688,257.7309197311115 102.13194396765903,261.41094525833614 99.4314816086553,264.1291234095115 99.28935201070271,267.4327295545954 92.25393691775389,267.4327295545954 91.79201572481543,263.92003346199635 88.06111378152855,259.48729992631706 87.56366018904373,257.6472823797376 87.70578978676349,254.13449725790997 89.48240975989029,251.1653325279185 93.60416809725575,248.57252211507875 98.50763922254555,248.86525964661269 101.91874957084656,250.66349961335072 103.30451314966194,253.33993428619578 103.69536954374053,257.81455706458655 102.2030087665189,261.66185481243883 99.50254640751518,263.96185146053904 99.50254640751518,267.3909119319869 92.18287211866118,267.4327295545954 91.93414532253519,263.96185146053904 88.59409977332689,260.6163972612121 87.52812778949738,257.8981943797844 87.67025738744996,254.00904005530174 89.30474776262417,251.1653325279185 92.82245530909859,248.8234400129004 96.05590365990065,248.44706310509355" stroke="#4DD2FF" stroke-linecap="round" stroke-linejoin="round" stroke-width="0.5"><title>2019-12-13 10.0km</title><desc>1576239112000</desc></polyline><polyline fill="none" points="175.69540037796833,225.9841612172604 175.19514630443882,224.40000000000873 175.76686524564866,230.5823246401851 175.61202469898853,231.17110205894278 175.08794900297653,231.1290466178325 174.9331084563746,231.85800566177932 174.0636192332604,232.01220801033196 172.0268705051858,233.21778367410298 172.56285701255547,234.395311852757 172.62241106899455,235.4747032714513 172.36037322087213,236.23167370122974 171.24075696105137,237.3811388508475 171.1812029046705,237.91381436103256 171.3955975076533,243.78711740403378 172.6581435027765,244.26369832378987 173.40852461312898,244.78232850741188 175.2785219833022,245.00660037568014 175.46909496374428,245.28693966462743 175.81450849073008,259.83571547256724 176.100367961335,262.4145186453825 176.01699228247162,267.17956330103334 175.492916586285,267.37576726375846 169.4064920246601,267.3056944540149 167.04815139219863,267.6000000000058 165.66649728425546,267.4458400355361 165.3329945685109,264.82509256164485 165.0709567205049,252.98201610032993 160.59249168104725,252.33727315394208 160.37809707806446,252.05694913225307 159.5205186662497,251.93080312448728 159.24657000688603,250.96367964801902 159.496697043709,250.51515616325196 159.36567811964778,250.22081178180815 158.23415104852756,249.23965901034535 157.1979104676284,249.54802211122296 156.6381023376598,249.3658076403808 156.1378482640721,248.65096377815644 155.8996320386068,247.66979910865484 155.93536447238876,240.56314156853477 156.23313475429313,238.69880585382634 156.54281584743876,237.96988533984404 156.47135097975843,237.18488942604745 157.91255914408248,227.61035963872564 159.77064570301445,227.58232190804847 163.76076748024207,227.90475544407673 163.9632512718672,228.07298131780408 171.33604345127242,229.43279910204 173.9564219317981,230.16176770102174" stroke="#4DD2FF" stroke-linecap="round" stroke-linejoin="round" stroke-width="0.5"><title>2019-11-23 10.0km</title><desc>1574497580000</desc></polyline></svg>