<?xml version="1.0" encoding="utf-8" ?>
<svg baseProfile="full" height="300mm" version="1.1" viewBox="0,0,200,300" width="200mm" xmlns="http://www.w3.org/2000/svg" xmlns:ev="http://www.w3.org/2001/xml-events" xmlns:xlink="http://www.w3.org/1999/xlink"><defs /><rect fill="#222222" height="300" width="200" x="0" y="0" /><text fill="#FFFFFF" style="font-size:12px; font-family:Arial; font-weight:bold;" x="10" y="20">Over 10km Runs</text><text fill="#FFFFFF" style="font-size:4px; font-family:Arial" x="10" y="280">Runner</text><text fill="#FFFFFF" style="font-size:9px; font-family:Arial" x="10" y="290">Floyd Li</text><text fill="#FFFFFF" style="font-size:4px; font-family:Arial" x="65" y="280">SPECIAL TRACKS</text><rect fill="yellow" height="2.6" width="2.6" x="65" y="283" /><text fill="#FFFFFF" style="font-size:3px; font-family:Arial" x="70" y="285.5">Over 20.0 km</text><rect fill="red" height="2.6" width="2.6" x="65" y="287" /><text fill="#FFFFFF" style="font-size:3px; font-family:Arial" x="70" y="289.5">Over 40.0 km</text><text fill="#FFFFFF" style="font-size:4px; font-family:Arial" x="120" y="280">STATISTICS</text><text fill="#FFFFFF" style="font-size:3px; font-family:Arial" x="120" y="285">Number: 37</text><text fill="#FFFFFF" style="font-size:3px; font-family:Arial" x="120" y="290">Weekly: 1.9</text><text fill="#FFFFFF" style="font-size:3px; font-family:Arial" x="141" y="285">Total: 607.1 km</text><text fill="#FFFFFF" style="font-size:3px; font-family:Arial" x="141" y="290">Avg: 16.4 km</text><text fill="#FFFFFF" style="font-size:3px; font-family:Arial" x="167" y="285">Min: 10.0 km</text><text fill="#FFFFFF" style="font-size:3px; font-family:Arial" x="167" y="290">Max: 62.1 km</text><polyline fill="none" opacity="1" points="32.18565902247792,32.070342828839784 33.03370307991281,32.854560990512255 33.684879766835365,34.24475672765402 33.51829968416132,36.31220558912901 31.913073432573583,38.39745097310515 32.079653515305836,45.9896596394683 32.367382749100216,46.346092753025005 35.184100511309225,47.75399600484525 36.92561955784913,47.878746344998945 37.27392336714547,48.1104252973164 37.53136531315977,56.32590654987143 37.364785230427515,57.57334072922822 36.89533227006905,57.840646823489806 34.108901795581914,58.25051532492216 29.49009041127283,58.48217967862729 25.234726480208337,58.21487462615187 19.510429092450067,57.35949554129911 12.786651208414696,57.323854649599525 12.483778330788482,50.7479780712747 12.650358413520735,48.627246400370495 25.431593850662466,48.217353934567655 26.688516292953864,47.7361745199305 28.97520651924424,46.31044947639748 28.778339148848318,38.70043314655777 27.067107390030287,36.38349646590359 26.839952731796075,34.6368610940699 27.339692979934625,33.15755337008159 28.324029832263477,32.15945871725853 29.49009041127283,31.606939431032515 30.565289126941934,31.571292961700237 31.352758608874865,31.71387879247777 32.639968339004554,32.426806092931656 33.472868752491195,33.620952400931856 33.71516705467366,34.42298610098078 33.66973612306174,35.88445968004817 33.336575957539026,36.72212770860642 31.882786144851707,38.433095963686355 32.079653515305836,46.06094632393797 35.168956867360976,47.75399600484525 37.228492435475346,48.074782402807614 37.42535980598768,57.44859773671487 36.91047591395909,57.840646823489806 35.53240432054736,58.07231175406196 29.883825152239297,58.48217967862729 25.492168426222634,58.25051532492216 19.31356172193773,57.35949554129911 12.786651208414696,57.35949554129911 12.574640194012318,48.64506778874784 25.371019275160506,48.18171106319642 26.067626893811394,48.00349659060885 28.899488299852237,46.346092753025005 28.763195504900068,38.59349832549924 27.051963746198453,36.4369646031555 26.839952731796075,34.45863195248239 27.385123911546543,33.086261095668306 28.414891695661936,32.03469645995938 30.565289126941934,31.5 32.48853190016234,32.26639771966438 32.988272148300894,32.76544547852245 33.66973612306174,34.20911082983366 33.503156040329486,36.31220558912901 31.97364800813375,38.36180597492785 32.10994080308592,46.132232977543026 34.92665856529493,47.64706706654397 36.97105048946105,47.89656781447411 37.289067010977305,48.252996798211825 37.53136531315977,57.05654771615809 37.304210654925555,57.626801982783945 34.684360263170674,58.17923391969816 30.322990824875887,58.5 25.446737494552508,58.232694976526545 19.616434599622153,57.37731598423852 12.801794852304738,57.35949554129911 12.468634686840232,50.837083845821326 12.635214769630693,48.662889175189775 25.143864616926294,48.252996798211825 26.415930703049526,47.89656781447411 28.899488299852237,46.38173602192546 28.914631943800487,39.93017859378597 28.58147177833598,38.183580867844285 27.65770950150909,37.274629819134134 26.8853836634662,35.88445968004817 26.855096375686117,34.351694374825456 27.15796925337054,33.44272215888486 28.732908217178192,31.89211090716708 31.004454799578525,31.589116197326803 32.88226664112881,32.6763299183076 33.563730615831446,33.95958932887879 33.74545434245374,34.92202731911675 33.42743782087928,36.5260781266843 31.988791652023792,38.21922590468603 31.807067925459705,39.68066576792626 28.92977558763232,39.71631048050767 28.64204635383794,38.272693445454934 27.491129418776836,37.18551670099259 26.8853836634662,35.84881413742551 26.87024001957616,34.369517309227376 27.900007803633343,32.480275515888934 29.247792109206785,31.660409120406257 31.277040389482863,31.660409120406257 32.86712299718056,32.65850680049334 33.71516705467366,34.56556946056662 33.700023410783615,36.04486452626588 32.912553928850684,37.32809766684659 32.00393529585563,38.11229077099415 31.89792978874175,39.59155395271955 28.97520651924424,39.71631048050767 28.64204635383794,38.20140338721103 27.14282560942229,36.57954621767567" stroke="#ffc500" stroke-dasharray="none" stroke-linecap="round" stroke-linejoin="round" stroke-width="0.5"><title>2026-06-10 21.8km</title><desc>1781089369000</desc></polyline><polyline fill="none" opacity="1" points="76.0,51.88381869690056 75.64222614842583,52.80093319584557 75.5229681978526,53.596381762079545 62.01501766781439,53.54023269184836 56.346289752662415,54.00814049496694 55.853356890467694,52.276868960449065 55.32862190809101,51.144505020776705 54.46996466428391,49.909181970200734 53.39664310956141,48.74871088548389 52.60954063604004,47.41040631947544 52.36307420494268,45.90361901250435 52.681095406383974,44.612066106106795 52.426678445219295,44.62142525463423 52.307420494704274,44.49975624469516 52.355123674933566,43.76037934357737 50.542402826889884,42.06634003880754 50.71731448764331,41.43925628647412 51.56802120141219,39.9323647652418 51.63162544168881,39.42694184262655 50.48674911659327,38.66880191027303 49.0,38.26632985795732 50.3913427561929,38.640722525669844 51.51236749117379,39.30526551190269 51.85424028270063,39.66093430426554 52.323321554780705,39.53925830335356 53.06272084804368,39.57669709112815 52.919611307414016,38.743680224630225 52.553886925801635,38.5377647039204 52.39487632509554,38.21953066030255 52.466431095439475,37.17122198380093 52.681095406383974,36.824902927044604 52.466431095439475,37.16186202756944 52.38692579508643,38.275689694426546 52.90371024736669,38.762399793035 53.10247349826386,39.53925830335356 54.49381625439855,39.8013294768316 55.066254416975426,39.249107147566974 54.85159010597272,40.821527539657836 54.310954063606914,42.10377773069922 57.92049469964695,45.64156636191183 58.62014134274796,42.79637210218789 60.32950530038215,40.84960621495702 60.79063604242401,40.06339985471277 61.25971731450409,38.77175957575673 62.333038869226584,37.38650069720461 63.10424028270063,36.95594273356255 66.31625441700453,36.09482036339614 67.17491166081163,35.99185950503306 68.91607773854048,36.122900576199754 70.59363957599271,36.759382949174324 72.28710247349227,37.64857840623881 75.32420494698454,38.75304000933829" stroke="#4dd2ff" stroke-dasharray="none" stroke-linecap="round" stroke-linejoin="round" stroke-width="0.5"><title>2026-06-09 11.9km</title><desc>1781004096000</desc></polyline><polyline fill="none" opacity="1" points="95.18337950136629,47.27442482566403 93.97922437672969,47.731917802768294 92.83490304709994,48.47093948654947 91.88504155125702,49.39470715363859 90.80803324095905,49.148370134375 89.17008310247911,48.50613082790369 87.98836565099191,47.793503199427505 86.5,46.50020008189313 88.86343490303261,44.61739553404186 90.47146814403823,42.91931481567008 91.84764542934136,41.22119865728746 92.34127423822065,40.913246334625 93.14155124654644,40.640487589742406 110.04459833793226,40.605292846368684 110.14182825485477,40.798863746495044 110.16426592797507,41.69632281140366 110.08199445981882,47.15125320007064 100.4038781163108,47.13365723833704 95.18337950136629,47.25682889056043 95.19085872577853,44.06310365140962 107.18005540166632,44.01911207043304 106.99307479223353,44.17748165068042 107.1052631578932,45.17168364072131 106.9631578947301,44.151086742043844 107.16509695290006,44.02791038854775 113.5,44.02791038854775" stroke="#4dd2ff" stroke-dasharray="none" stroke-linecap="round" stroke-linejoin="round" stroke-width="0.5"><title>2026-06-07 13.9km</title><desc>1780824448000</desc></polyline><polyline fill="none" opacity="1" points="129.24583663759404,40.77823424572489 129.43728133600962,41.54628526800843 129.6123524746945,42.09380989184865 129.72570788823214,42.32021234988679 130.09222372533986,42.852909309667666 130.16275598264474,43.03934836984081 130.1967626067053,43.23466276916588 130.20054112049547,43.382626376261214 130.17535102859256,43.56905825438753 130.00027988991496,44.069156682167886 129.94864020151726,44.3221581310263 129.9373046601686,44.758611679226306 130.07585016560188,46.03386439365113 130.30256099267717,47.02942616882228 130.28114941455715,47.17586974358619 130.18542706534936,47.42437648611758 130.16905350562593,47.607795250982235 130.24336427672097,48.390255911291206 130.3680552316073,48.75262810287677 130.39072631431918,48.87390972607136 130.33404860754672,49.950607043303535 130.38190978215425,50.11920311907397 130.43858748891944,50.21828932322296 130.7181975089843,50.47117774633534 130.80384382142802,50.61462700956781 130.8164388673831,50.77138428948638 130.73583057330688,51.11446946794695 130.75346363763674,51.24903933777114 130.80258431683615,51.37473528118153 130.55320240705623,51.58324013982565 130.2912254513285,51.86567785767147 130.04814106451522,52.08156875212353 129.68666324578953,52.605016187581896 129.48136399682699,52.94805569518303 129.42090777627163,53.017549727309415 129.2370201054291,53.150622427511735 129.1753043802819,53.24672968938012 129.1916779400126,53.28517240640758 129.32266641787282,53.33248637241104 129.59723841955565,53.34431483853041 129.61990950226755,53.36353607430192 129.6249475206423,53.481820011888885 129.64384008956404,53.501041055828864 129.83780379717064,53.58236056041187 129.97760880720307,53.57348936505332 130.14008489993284,53.4522491226935 130.56201893922116,53.22602972039658 130.54942389327334,53.19793685559944 130.33278910295485,53.15949389515572 130.31263702944125,53.09591491746687 130.34160563511978,52.99832800881359 130.5380883519174,53.01607113452792 130.5809115081429,52.83272440012388 130.61239912301244,52.81941688086954 130.71441899519414,52.829767174733206 130.7421280962808,52.85342496008161 130.71189998600312,53.08408623808373 130.72953305033298,53.12548657149455 131.218220833136,52.96727748382182 131.45248868778435,52.953970094543365 131.93235993842973,52.88003992002723 132.24723608713975,53.01311394849927 132.41349069366697,53.055993083840804 132.56589074963995,53.067821787346475 133.07095209218096,53.21420115272667 133.61631758175645,53.49512689131734 133.86318048234534,53.546875744706085 134.06973923589976,53.626716451518405 134.51938237626746,53.656286966265725 134.60125017492828,53.59566734273449 134.6264402668312,53.49956251493677 134.69949153333437,53.438942201851205 135.141577646129,53.242293984356365 135.16928674721566,53.254122527907384 135.01562718664354,52.94805569518303 134.91990483742848,52.88151852740884 134.80906843308185,52.86673244648409 134.812846946872,52.6552897530828 134.84559406633343,52.61388800659279 137.0988477865394,51.98841076750978 137.34948920091847,51.95735796595818 137.5988711106911,51.960315378647465 140.1468489060935,52.17029005646418 140.45668703642878,52.17324742343044 140.89751364463154,52.11114258373436 141.4441386387989,51.94109218482208 141.75397676913417,51.88046501318604 144.334701683998,51.7030180991851 144.66343238326226,51.63647491703068 144.97956803657144,51.51521762506309 145.2503615244641,51.356990041072095 145.516116993982,51.135172610429436 146.02243784111488,50.551036283460235 146.44437188038864,50.128076539559515 146.8008116807323,49.712498542357025 147.0728646732241,49.31317690541073 147.3877408219414,48.603243171481154 147.51117227223585,48.43462852894572 147.70135746605956,48.29559384886488 148.67369501329085,47.714295347492225 148.85758268414065,47.54123227213768 148.94070998740062,47.402188566555196 148.9936091803902,47.24243448965535 149.1019265755458,46.8208523263429 149.18379437420663,46.3460022118461 149.24551009935385,46.11226934572824 149.44325232075062,45.57082226316106 149.71530531324242,44.983490813011485 149.93445911274466,44.64765022568645 150.31608900498395,44.23190668619009 150.52390726313752,43.953750966804364 150.67126930073573,43.665232441362605 150.88412557727133,43.06006366492511 150.93198675187887,43.0704213007657 150.94836031160958,43.11925005034482 150.99118346783507,43.10297381974851 151.0,43.14292453317739 150.94584130241856,43.11925005034482 150.93198675187887,43.04822635727123 150.86397350375046,43.040828034812876 150.61837010775344,43.711099893658684 150.5541353734152,43.83094638562034 150.51257172178157,43.850180910520066 150.07300461818522,43.65783445086254 149.24551009935385,43.42553552451682 148.92937444604468,43.36930971682068 147.40663339086313,43.302726226172126 145.59924429724197,43.14144487919566 144.1508140131482,43.13404660688957 143.43667490786174,43.02159237778869 142.1066380557022,42.68570387527325 141.61039324531885,42.58952283690451 141.19223771982797,42.55696910228289 140.25138778746623,42.59840111478479 140.0259364649828,42.57472569435777 139.50828007650125,42.41787500427745 138.61781032793806,42.20183244474538 138.4918598684526,42.1352433001548 138.41880860194942,42.06717406342614 138.34323832625523,41.95027176172425 138.20217381163093,41.30655140586623 138.0056910948333,40.926224293251835 137.94271586509421,40.843350062950776 137.80039184587076,40.76935479220265 137.60013061529025,40.72495743853506 137.53715538555116,40.6361623009434 137.4704016420219,40.61544335296003 137.35074870551034,40.67464026433299 137.29155198955414,40.62580283085663 137.2109436954779,40.64948160814947 137.10766431869706,40.758995422504995 136.88221299622091,40.78859360091792 136.57489387507667,40.79599313556082 136.37589214908803,40.7397565723586 136.19074497364636,40.58880465965285 136.03582590848237,40.130019061628445 135.87586882492906,39.87694045133958 135.68820264029637,39.765939590433845 135.26500909642346,39.64309759249136 135.0105891682615,39.545415219948154 134.9715445258189,39.536534969832246 134.94005691094935,39.55577550449925 134.89471474553284,39.52617467077289 134.74735270793462,39.503974003622716 134.38335588001792,39.37224930743105 133.94504828100617,39.3293275044407 133.81783831692883,39.292325842524406 133.7724961515123,39.29972618287866 133.72589448150393,39.26716465550362 133.54074730606226,39.26864472660509 132.3354014087745,39.06883368600211 130.44110649811046,38.33468816987261 130.28744693753833,38.318406272217544 128.94103652563354,38.29768382911152 128.35662639362272,38.31100540326952 128.11983952978335,38.293243301520306 127.9535849232634,38.23403612983657 127.83645099594287,38.16446737703882 127.34902271773171,37.73520557663505 126.36786863834277,37.301489512988155 125.26202360405296,37.08092557892542 124.86150114288466,36.867759753329665 124.32495218548138,36.487309745364655 124.00251900919102,36.343713033733366 124.0,36.367399192670746 124.32999020385614,36.51543676044457 124.8866912347803,36.909208922977996 125.20030787890573,37.0750043506614 125.3262583383912,37.122374105252675 126.30993142697844,37.30741064361064 126.46107197835227,37.35477959666787 127.34776321313984,37.757409102183374 127.77725427998666,38.14522489385399 127.87801464757649,38.21479374409955 128.05182628166222,38.29176312533946 128.2659420627897,38.330247654245795 128.31254373279808,38.367251907291575 128.29113215468533,38.36281140218671 128.2722395857636,38.34356919682068 128.39441153146618,38.365771739085176 128.4725008163441,38.33320799815374" stroke="red" stroke-dasharray="none" stroke-linecap="round" stroke-linejoin="round" stroke-width="0.5"><title>2026-06-06 62.1km</title><desc>1780699923000</desc></polyline><polyline fill="none" opacity="1" points="183.29452396766283,32.76711810463166 183.84041585586965,34.69454667663376 183.73427021095995,35.55117436016735 183.17321465921123,36.961031059065135 181.97528523794608,38.2102610917791 181.91463058366207,39.548711331226514 182.2330675184494,46.222954250974 185.1293272585608,47.721944898570655 187.05511253071018,47.88255023074453 187.3128948113299,48.20376042542921 187.5403497646912,56.62638209403667 187.3583858020138,57.57211569909123 184.26499843562488,58.21449769452738 178.79091589013115,58.5 169.41977180953836,57.3579878109158 162.7477598428959,57.25092376250541 162.4596502352506,50.64850639121141 162.4748138987925,48.88186878045963 162.6871051886119,48.59634981317504 175.57621921529062,48.16807043470908 178.92738886224106,46.312180266409996 179.00320718000876,39.81640007448732 178.60895192739554,38.121030689260806 177.8507687493693,37.47857036457572 177.07742190774297,36.318566211353755 176.83480329083977,34.62316083535552 177.3503678519046,33.12405102279445 178.13887835707283,32.24956399976509 178.86673420795705,31.803395363109303 180.3224459097837,31.5 181.20193839631975,31.62492757011205 182.5818317803787,32.32095086952904 183.68877922027605,34.21269164745172 183.49165159399854,36.37210504434188 181.92979424726218,38.33518357417779 182.12692187348148,45.955275914791855 182.3240494998172,46.27648986605345 185.098999931477,47.68625480355695 187.03994886722649,47.90039525800967 187.3128948113299,48.16807043470908 187.4493677833234,57.42936380454921 186.87314856797457,57.82193121702585 185.0080179501092,58.14312204088492 179.7007357038092,58.48215612041531 175.43974624323891,58.23234160314314 169.34395349177066,57.3579878109158 162.7477598428959,57.286611786374124 162.5506322165602,48.63203971114126 175.2729459440452,48.20376042542921 176.71349398238817,47.70409985203878 178.98804351646686,46.18726383126341 178.76058856298914,38.388721751907724 177.2745495340787,36.65764519316144 176.83480329083977,35.337017856829334 177.2138948798529,33.35605700497399 177.6839684501756,32.66003807837842 178.85157054435695,31.803395363109303" stroke="#4dd2ff" stroke-dasharray="none" stroke-linecap="round" stroke-linejoin="round" stroke-width="0.5"><title>2026-06-05 14.5km</title><desc>1780659860000</desc></polyline><polyline fill="none" opacity="1" points="38.45991686463822,78.54876181558939 38.139251781540224,79.24706678798248 35.35748218532535,82.62527392389165 35.06888361048186,83.18200497853832 34.820368171087466,84.23884057880787 21.520783848012798,84.19166069157654 15.556413301674183,84.61627875627892 14.61045130644925,81.97417715800111 13.720605700742453,80.6059144655228 12.133313539176015,78.756366581576 11.668349168641726,77.7277744823441 11.5,76.78410131760756 11.580166270781774,75.89703921625915 11.908847981016152,75.00053110085719 13.42399049884989,73.04705512682267 14.009204275527736,72.00895826995111 14.931116389576346,66.46908663587965 15.083432304061716,66.28032840951346 32.086698337312555,65.9500005283262 35.96674584323773,65.38372124371381 36.680225653224625,67.48837398450269 36.77642517819186,71.06522311186563 38.5,77.98256448319444 38.3957838480128,78.756366581576 38.16330166277476,79.19988419600122 35.2692992874654,82.66301851465687 34.812351543980185,84.25771252652339 21.52880047506187,84.18222471107583 15.524346793361474,84.60684282179136 15.115498812374426,83.15369670570362 14.522268408589298,81.82319750241732 13.969121140165953,80.93618673913443 12.197446555830538,78.86960533620731" stroke="#4dd2ff" stroke-dasharray="none" stroke-linecap="round" stroke-linejoin="round" stroke-width="0.5"><title>2026-06-04 19.5km</title><desc>1780570902000</desc></polyline><polyline fill="none" opacity="1" points="61.904046597192064,83.82141487098124 61.779889638273744,83.81167975402786 61.72194972410216,88.09502962471015 60.83629675046541,88.20211076246778 49.45524218273931,88.15343753378693 49.14071122012683,88.13396823498624 49.0,87.92954034329159 49.04138565296307,78.07751306435966 68.25260576338042,78.04830584809679 71.1413243408897,78.49614879026922 73.69068056411925,78.1261917370939 75.58614347031107,78.19434183475823 75.89239730229019,77.99962713324203 76.0,77.74649739203596 75.95861434703693,77.20129245642602 75.59442060091533,75.0204397123889 72.93746168000507,61.94395157865074 72.79675045984914,61.79788923753222 72.37461679952685,61.87578918228246" stroke="#4dd2ff" stroke-dasharray="none" stroke-linecap="round" stroke-linejoin="round" stroke-width="0.5"><title>2026-06-02 16.9km</title><desc>1780401150000</desc></polyline><polyline fill="none" opacity="1" points="88.85969084419776,80.98575672528386 87.14209274671157,78.9734007519437 86.71670630198787,78.11364765169128 86.5,76.97989433550538 86.65249702733126,75.79888561660482 86.9895957193221,75.02413520510163 88.52259215217782,73.08722904681781 89.06837098690448,71.98175599389651 89.92717003566213,66.69040872986807 90.07164090368315,66.47307866961637 107.08709869201994,66.14235797269066 110.92360285372706,65.5281590624727 111.59780023779604,67.19121071818518 111.75832342446665,71.06524206188624 113.5,78.1325434153623 113.451843043993,78.77499694297876 113.20303210458951,79.37020701517758 110.36979785969015,82.72409256463288 109.81599286562414,84.47184093752003" stroke="#4dd2ff" stroke-dasharray="none" stroke-linecap="round" stroke-linejoin="round" stroke-width="0.5"><title>2026-05-28 19.4km</title><desc>1779966212000</desc></polyline><polyline fill="none" opacity="1" points="141.73626103351125,88.5 138.0466143269441,88.28558987028373 131.79091703012818,87.37434371130075 125.18599391332828,87.32074083943735 124.9278704811586,80.67384979032795 125.07970779418247,78.65471427970624 138.10734925215365,78.15439369661908 141.46295387018472,76.3675220880541 141.2503816318349,68.54079644694866 139.77755969547434,66.82530012576899 139.2764965624665,65.41357623241493 139.29168029379798,64.770255008596 140.0508668589173,62.786665443331 141.11372805014253,61.91101921851805 142.4650801361422,61.5 144.71227236895356,62.01824145496357 145.47145893413108,62.786665443331 146.1091756487731,64.00184025916678 146.24582923052367,64.91321549733402 145.9725220670225,66.36068346911634 144.42378147417912,68.48718745692167 144.60598624980776,76.0816208350443 147.26313922792906,77.6183342456934 149.54069892328698,77.92210148170125 149.78363862412516,78.19013093144167 150.0721295188996,87.12419682677137 149.88992474327097,87.64235780978925 146.24582923052367,88.32132491121592 141.08336058753775,88.48213249984838 138.00106313300785,88.2677223468636 131.68463091104059,87.33860846533207 125.68705704633612,87.41007894961513 125.18599391332828,87.15993211924797 125.01897286903113,78.74405708127597 125.79334316542372,78.52963427611394 137.955511939188,78.17226231502718 141.46295387018472,76.31391564085789 141.28074909449788,68.43357844943239 139.77755969547434,66.7538207252801 139.33723148773424,64.50220375825302 140.2634390972089,62.57222189960885 141.49332133273128,61.73231533631042 142.3739777483279,61.53574084225693 143.558308789914,61.60722250356048 144.74263983155834,62.07185254704382 145.27407042722916,62.48287034081295 146.04844072367996,63.87674914726813 146.2306454992504,65.34209622026538 145.94215460447595,66.46790281368885 144.42378147417912,68.3263603822561 144.60598624980776,76.09948967785749 147.23277176520787,77.58259688709222 149.82918981806142,78.13652507629013 150.04176205629483,87.2135350433673 149.82918981806142,87.71382816250843 146.762076094863,88.28558987028373 142.11585431615822,88.5 137.7277559696231,88.24985482156626 131.71499837364536,87.37434371130075 125.23154510732275,87.33860846533207 125.03415660030441,78.72618852484447 127.41800241486635,78.45815994577424 138.22881910263095,78.13652507629013 141.4781376013998,76.24244035080483 141.23519790061982,68.41570877643244 139.56498745724093,66.27133396206773 139.35241521900753,65.53866617903986 139.42833387549035,64.03758055942308 140.52156252937857,62.32203741306148" stroke="#ffcd00" stroke-dasharray="none" stroke-linecap="round" stroke-linejoin="round" stroke-width="0.5"><title>2026-05-27 20.2km</title><desc>1779879632000</desc></polyline><polyline fill="none" opacity="1" points="161.5,65.14220771101827 181.49208261619788,64.7373477233923 185.60946643719217,64.0479877905018 186.24148020660505,65.55800816965348 186.49242685030913,66.60844380196068 186.603958691936,71.22585409761814 187.7657487091492,74.97871204849798 188.5,78.00934388484893 188.29552495706594,78.85177772738825 188.26764199661557,80.0224208745567 184.96815834770678,84.04845442424994 184.40120481932536,85.9520122094982 168.76815834769513,85.87543299147364" stroke="#4dd2ff" stroke-dasharray="none" stroke-linecap="round" stroke-linejoin="round" stroke-width="0.5"><title>2026-05-26 19.0km</title><desc>1779792854000</desc></polyline><polyline fill="none" opacity="1" points="29.14911830855999,102.96413738765114 30.059536354674492,104.77234244238934 31.716198700887617,106.66830282082083 33.28331173112383,109.16110593490885 34.31312886526575,111.91718878886604 34.6414763572393,114.05882597953314 24.522403647948522,118.48244619151228 22.47769426566083,115.56848768751661 18.194251983135473,111.30277946437127 16.209242144948803,107.68649463028123 15.552547160768881,105.22877937107114 15.34359875676455,102.29702752640878 15.985368854831904,98.3469787773065 17.194284620985854,95.50288418507262 18.761397651280276,93.72968889099138 21.194154069467913,92.1847108695365 23.835858891892713,91.5 26.298465082189068,91.62289703535498 28.283474920433946,92.816749109581 29.387916484614834,94.5021723894024 29.611789774615318,96.71426389737462 28.83569570252439,99.97967724234331 29.04464410658693,102.59547175045009 29.984911924693733,104.68456596291799 33.17883752915077,108.7748995062866 34.134030233253725,111.32033404878166 34.6116265853052,114.14659739319177 27.13425869832281,117.2010130474373 24.582103191991337,118.5 22.567243581695948,115.70892062154599 19.403167749289423,112.70714021974709 17.76143028907245,110.75858640753722 16.58236429496901,108.59935082608717 15.746570678835269,106.21186993762967 15.34359875676455,102.89391542608791 15.552547160768881,100.52390641637612 16.209242144948803,97.59206963660836 17.388308139052242,95.25709589432518 18.35842572915135,94.11593109951355 20.68670794548234,92.41294718443532 23.403037197887897,91.55267016938888 26.223840652150102,91.6053403217229 28.298399806488305,92.85186227297527 29.074493878521025,93.81747129179712 29.462540914595593,94.78307456869516 29.611789774615318,96.27535924842232 28.83569570252439,100.10256786039099 29.074493878521025,102.80613793132943 30.014761696686037,104.7196765603585 31.68634892895352,106.68585790607904 33.11913798504975,108.86267377526383 34.0146311452263,110.95168737835775 34.65640124329366,113.98860881441215 24.50747876195237,118.4122309385275 22.462769379664678,115.60359593240719 18.46289993118262,111.63631624315167 16.343566118972376,108.09025858041423 15.597321818815544,105.33411078779318 15.373448528756853,102.45502747803403 16.030143512878567,98.10119479119021 17.030110874969978,95.78378463328409 18.507674589171074,93.99303595100355 20.56730885745492,92.500730297048 22.895591073844116,91.65801045694388 25.970117590157315,91.55267016938888 27.910352770413738,92.500730297048 29.25359251059126,94.25638258398976 29.611789774615318,96.36314027314074 28.82077081652824,100.17279102899192 29.074493878521025,102.75347141169186 29.74611374863889,104.29834888954065 31.96992176293861,107.00184911656834 33.47733524913201,109.56486621939985 34.28327909327345,111.8996342690225 34.6414763572393,113.95350022053753" stroke="#ffbf00" stroke-dasharray="none" stroke-linecap="round" stroke-linejoin="round" stroke-width="0.5"><title>2026-05-24 23.2km</title><desc>1779623970000</desc></polyline><polyline fill="none" opacity="1" points="49.0,105.13213205976172 49.267068757537345,106.27971045578852 49.25892641735845,106.4212399970038 49.11562123039039,106.79609658530353 49.09445114595292,107.00073434954902 49.20030156814755,108.0850839749055 49.379433051872184,108.62245321929004 49.30940892641229,110.0700184709167 49.34197828707693,110.21725431160485 49.423401688771264,110.37978596840367 49.82237635704951,110.75455919204796 49.911942098908185,110.91134973061708 49.93148371532152,111.12550043044575 49.83051869721385,111.54423408878574 49.89077201446344,111.85588790811016 50.00802171289979,112.01840460707172 50.21320868515613,112.14841689832065 53.727442702045664,113.4542230044317 53.99125452351291,113.52113581908088 54.52213510252477,113.5784894601311 55.09209891434875,113.52113581908088 57.883293124235934,112.73154858694943 58.27249698431115,112.66080903913826 58.734981905901805,112.65889715556841 61.99680337755126,112.92655885833301 62.51302774425858,112.92655885833301 63.06182147164509,112.83287771996766 63.705066344984516,112.63021887738614 64.09101326898963,112.55183134803701 67.51405307598179,112.30901900639947 67.88045838358812,112.22680620345636 68.33317249697575,112.03943607148358 68.62466827502067,111.85779987789283 68.96664656211942,111.56526611326262 69.56266586247511,110.87310826316025 70.11797346199455,110.31286134825677 70.68305186971702,109.65698675584827 70.95337756332447,109.24012095563194 71.3393244873223,108.36428852552308 71.51357056693814,108.11376957584253 71.71061519903014,107.95695439288465 73.00850422194344,107.18433258366531 73.26743063930917,106.94335951289031 73.35862484920654,106.79035904397824 73.43190591072926,106.58380632399894 73.59800965017348,105.93353210346504 73.70386007236812,105.31574957783778 73.77388419782073,105.06710040093822 73.94975874546799,104.58126813306444 74.28033775632503,103.88118727541587 74.27545235222351,103.84484352767686 74.50343787694874,103.41445139386997 74.64185765982256,103.21742396381342 75.18413751506887,102.6244156137218 75.40560916766117,102.32790402260616 75.62219541615923,101.8917360508367 75.87623642942344,101.16476565288212 75.90066344993102,101.14754757256924 76.0,101.18772306734536 75.8957780458295,101.0825013409194 75.85018094088446,101.11885073500525 75.52937273823045,102.01608327348367 75.46749095294945,101.99695298814368 75.40560916766117,101.88408388565222 75.50494571772288,102.05051773523337 75.44143546441046,102.1652987927755 75.40560916766117,102.17868986788926 74.8161037394384,101.91660556493662 73.73154402894579,101.61242988795675 73.34722557297209,101.54738535712931 71.37189384800149,101.46320972869944 69.19137515077455,101.2623344596359 67.6231604342538,101.2623344596359 67.02876960192225,101.22981158355105 66.3431845597006,101.11885073500525 64.44927623642434,100.64821598946764 63.92653799758409,100.5487306268642 63.27352231603436,100.49898773677705 62.11893848008913,100.55638336683478 61.84861278648168,100.52577238719459 61.17279855247034,100.32106010591451 60.029613992752274,100.04172926480715 59.91236429431592,99.98815846487378 59.78697225571523,99.89058266442044 59.68275030156656,99.7451745953731 59.47430639323284,98.8612210003248 59.23817852834327,98.43644843871152 59.089987937266415,98.27954789776595 58.899457177314616,98.18387615632855 58.73661037393322,98.15900141918428 57.41917973461386,98.25275986207635 57.27750301567721,98.24319269669104 57.1407117008348,98.19535679249384 56.98112183353078,98.08055009704003 56.87527141133614,97.93895415111183 56.69939686368889,97.42039720325556 56.60331724969001,97.21564914880946 56.41930036187841,97.02046656382299 56.18968636910722,96.89799796475745 54.5042219541574,96.42151053986709" stroke="red" stroke-dasharray="none" stroke-linecap="round" stroke-linejoin="round" stroke-width="0.5"><title>2026-05-23 52.6km</title><desc>1779516240000</desc></polyline><polyline fill="none" opacity="1" points="107.0528447178076,98.00470576231601 106.9010073718382,98.70162331219763 107.15913085988723,106.20670269374386 110.46918500086758,107.81488957947295 112.0027421945706,107.86849553906359 112.29123315186007,108.15439369621163 112.56454037450021,116.99912324227626 112.32160062104231,117.66022540080303 109.77073320967611,118.17838470086281 106.08108570391778,118.46426499770314 99.84057078685146,118.17838470086281 93.4178510546335,117.28500558173982 87.90615539794089,117.42794656577462 87.69358311360702,117.07059387353365 87.435459625558,111.01334802483325 87.69358311360702,108.6011085750797 100.5086551088607,108.19013093099056 103.92499539192067,106.2960468208039 103.77315804595128,98.37996942423342 102.08776350633707,96.3428135713475 101.82964001834625,94.98469569506415 101.93592616042588,94.09119099513919 102.74066409375519,92.6258328116237 103.66687190387165,91.89314883900806 104.65381465229439,91.51787042208889 106.1721881114645,91.58935209111951 107.84239891654579,92.5186109701317 108.72305552283069,94.26989232226333 108.60158564610174,96.09263480255322 108.0094199970481,97.2184362745611 107.11357965617208,97.98683604286634 106.91619110642932,98.61227507292642 107.09839592158096,105.9208011621231 107.2957844712073,106.27817799928016 110.19587777816923,107.74341493958491 112.30641688639298,108.1007878294622 112.44307049771305,117.53515222256829 110.01367296313401,118.16051716588845 104.30458875669865,118.48213249980472 100.20498041703831,118.21411976509262 94.04038417281117,117.30287321150536 88.01244154007873,117.39221133136016 87.73913431738038,117.15993211916066 87.45064336014912,110.6202447416581 87.61766444070963,108.6011085750797 100.06832680566004,108.22586815805698 101.48041412269231,107.83275823458098 103.95536286110291,106.26030917576281 103.74279057676904,98.41570877608319 102.2699683214305,96.78956042912614 101.84482375287917,94.55581404300756 102.28515205607982,93.23342193065037 103.25691106996965,92.16120432842581 104.24385381833417,91.6429633225489 105.24598030140623,91.5 107.35651940962998,92.14333397599694 108.57121817697771,93.71591757821443 108.6471368498751,95.91393544976017 108.1005224045366,97.03973814107303 106.99210977938492,98.16553315051715 106.91619110642932,98.68375366822875 107.08321218693163,106.04588314316061 110.07440790149849,107.67194026877405 112.26086568267783,108.02931331342552 112.56454037450021,116.19507650744345 112.3975192939979,117.57088742597261 109.75554947502678,118.19625223395997 104.63863091770327,118.5 100.70604365848703,118.2677223468636 94.35924259928288,117.32074083932093 87.69358311360702,117.35647608920408 87.51137829851359,108.65471427925513 100.79714606603375,108.15439369621163 103.77315804595128,106.43899732349382 104.00091406487627,106.13522735728475 104.01609779946739,104.83079702834948 103.7883417806006,98.77310186882096 103.63650443468941,98.21914224509965 102.4218056673999,97.00399849121459 101.951109895017,96.05689494749822 101.84482375287917,94.60942431053263" stroke="#ffc300" stroke-dasharray="none" stroke-linecap="round" stroke-linejoin="round" stroke-width="0.5"><title>2026-05-17 22.3km</title><desc>1779013233000</desc></polyline><polyline fill="none" opacity="1" points="147.22224421135616,104.60523119233403 146.61310112805222,105.23302187310401 143.44983178313123,101.74869826210124 141.17890362162143,101.3782804465809 140.85295863842475,101.23387964376889 140.70334454780095,101.03925190898008 140.7193746289413,100.13516617166533 140.61785078173853,100.05982506080545 139.29269740750897,99.9782054141906 135.41341777163325,100.08493877524234 135.1302196714969,99.95937009488989 134.5050465070235,99.44453567817982 133.44706115178997,99.12433149196295 133.1585196912638,98.78528984866716 132.68830397783313,97.59234987562377 132.45853948153672,96.22357815147552 131.17078962991945,95.74638412399509 129.9952503463137,95.84056746511487 127.36631703938474,96.43705842549753 124.71066693053581,96.07916458165346 124.56105283991201,96.16078968680813 124.42746883039945,96.41194313970846 124.02137344155926,97.73048101676613 124.0748070453119,97.97534905356952 125.12210567982402,99.46964965762163 128.15713437562226,100.05982506080545 129.08687908173306,100.83206683228127 129.27389669502736,101.54779397621314 129.82426281418884,102.8599375910926 129.94716010292177,103.72631288582124 130.67385711459792,106.8024690111306 130.71126063723932,107.36118199905104 131.24559667523135,110.08561584878771 131.65169206415885,110.78867489668846 132.0471007322485,111.03348811194519 133.7516326934856,111.62354651109854 135.5470017811458,112.77226010576487 137.28359390460537,112.87269300604021 137.98891747478046,113.42507086725891 138.54462695430266,113.48156376281986 139.44231149813277,113.90212026604422 142.58955076191342,114.2787354572356 142.78725509598735,114.12808967246019 142.89412230360904,113.87701250017926 143.2521274490573,112.63416458555366 143.4391450623516,111.02721086285601 143.38571145854075,110.80122944553659 143.07579655651352,110.58780174762069 143.05442311501247,110.487364913708 143.26281416980783,109.91612713217546 143.41242826043162,109.74663792312276 143.41777162082144,108.83013218728229 143.81852364933002,107.62484244922598 144.53987730061635,106.68319251148932 146.03601820702897,105.70386044895349 147.13140708493302,104.73706779586428 147.82604393432848,103.42496641707476 148.07718187215505,103.24290217096132 148.44587373838294,103.37474185423343 148.10389867407503,103.23662408336531 147.81001385315903,103.43752255102663 147.22758757177508,104.59267530978468 146.58638432616135,105.21418825099681 143.50326538691297,101.78008949426294 140.91173560265452,101.26527115306453 140.70868790816166,101.02041693241699 140.66594102515955,100.06610349043694 140.1957253116998,99.97192697509672 135.3599841678224,100.07238191939177 134.54779339005472,99.4570926692395 133.4630912329594,99.12433149196295 133.1211161686224,98.72878271644004 132.65624381555244,97.50444806995074 132.4905996437883,96.26125119780045 131.19216307147872,95.74010522916069 130.8555313675315,95.70871074493334 129.60518503858475,95.89707739676669 127.30754007521318,96.42450078395996 124.63585988522391,96.08544343995163 124.47021571343066,96.29892421980185 124.0,97.81838248163695 125.10073223826475,99.47592815079406 128.18919453790295,100.08493877524234 129.07619236098253,100.81323178881576 129.23649317238596,101.45361985391355 129.82960617454955,102.93527508418265 129.90975658025127,103.62586423591347 130.65248367306776,106.69574794398795 131.2242232337303,110.02911966465399 131.331090441352,110.34926398472089 131.7051256679406,110.82006126375563 132.07381753416848,111.02721086285601 133.73560261234525,111.62982369602469 135.55234514150652,112.75970598105414 135.89432020584354,112.83503068867867 137.294280625385,112.86013890296454 137.999604195531,113.43134785834263 138.4163863051508,113.4376248487788 139.55452206611517,113.93978189455083 142.34375618444756,114.29128925506302 142.64832772611408,114.25362785343532 142.81397189787822,114.10925892203886 143.01701959231286,113.5819954421022 143.2948743320885,112.37680388021545 143.44983178313123,111.07115159233217 143.4017415396811,110.80122944553659 143.11854343951563,110.61918822277221 143.07579655651352,110.49991952739947 143.2147239263868,109.99773287202333 143.42845834157197,109.69014141067237 143.41242826043162,108.81757721422036 143.81852364933002,107.62484244922598 144.31011280429084,106.90918988300837 146.20166237879312,105.59085953741305 146.85355234512826,105.02585169552185 147.21155749060563,104.6366208868676 147.80467049279832,103.47519093666779 148.04512170987437,103.25545834409786 148.9107460914238,103.57563984609078 149.45576885019545,103.61330814252142 151.0,103.05455924923444" stroke="#ff8300" stroke-dasharray="none" stroke-linecap="round" stroke-linejoin="round" stroke-width="0.5"><title>2026-05-16 35.3km</title><desc>1778887035000</desc></polyline><polyline fill="none" opacity="0.5" points="185.0801605847082,107.69337249782984 186.96543948742328,107.87229592546646 187.3455360403168,108.21224990405608 187.5735939720762,116.78243756529992 187.46716693724738,117.46230816350726 186.85901245253626,117.85591617885802 182.89080443960847,118.41054406383773 179.39391615230124,118.5 175.5169313120423,118.26741446525557 168.7664165313472,117.33706905294093 162.73048327025026,117.28339511936065 162.4264060278656,111.4149398964073 162.57844464911614,108.62377220552298 175.34968882874819,108.15857300652715 176.6420171087957,107.65758778910094 178.92259642662248,106.26197810236772 178.78576166753192,98.69327409977268 178.60331532207783,98.10279324989824 177.78230676765088,97.36916258730344 177.05252138600918,96.22397650475614 176.79405573004624,94.8461639782181 177.18935614504153,93.3609765672445 178.58811145997606,91.89366986829555 179.60677022195887,91.53578820856637 180.70144829445053,91.5 182.4803001623368,92.21576269919751 183.63579368335195,94.04094354507106 183.68140526977368,95.63348682901415 183.17967781983316,96.90393169868912 181.9633688502945,98.15647341434669 181.84173795336392,99.57004480175965 178.9682080129278,99.64161771489307 178.63372304633958,98.12068663997343 177.44782180112088,96.97550576683716 176.82446345424978,95.36508173320908 176.9765020754421,93.91568668051332 177.69108359504025,92.64521883007546 179.34830456593772,91.60736460253247 181.41602981410688,91.64315278791764 182.40428085176973,92.16208060430654 183.0428430607426,92.82415855507134 183.7726284423843,94.70301396586001 183.34692030306906,96.5997415631573 181.99377657455625,98.084899857844 181.81133022916038,99.5163650965842 178.9682080129278,99.62372448948736 178.66413077054312,98.21015356136195 177.47822952538263,97.01129278923327 176.88527890265686,95.63348682901415 176.94609435118036,94.0588373751234 177.56945269805146,92.73468871682417 178.99861573718954,91.73262321738002 180.82307919143932,91.51789410524361 182.5411156108603,92.28733879853098 183.24049326835666,93.16414349869592 183.71181299397722,94.30935079221672 183.63579368335195,95.88399785832735 183.08845464710612,96.99339927898836 181.97857271245448,98.24594031638117 181.8569418155239,99.53425833363144 179.04422732361127,99.65951093834883 178.72494621906662,98.26383369098767 177.52384111168794,96.99339927898836 176.85487117845332,95.36508173320908 177.0981329723145,93.55780940127443 177.96475311310496,92.3410208527057 179.78921656729653,91.5 181.44643753831042,91.64315278791764 182.60193105932558,92.3410208527057 183.71181299397722,94.23777556899586 183.6662014076137,95.70506144758838 182.99723147443729,97.11865381007374 181.97857271245448,98.12068663997343 181.91775726393098,99.4984718576452 179.0138195992913,99.65951093834883 178.60331532207783,98.084899857844 177.6606758707785,97.22601476115233 176.96129821328213,95.95557236834429 176.82446345424978,94.52407627593493 177.3718024904956,92.82415855507134 177.44782180112088,93.003098086323 178.0559762857738,92.28733879853098 179.04422732361127,91.71472913537582 181.18797188228928,91.58947050693678 179.04422732361127,91.71472913537582 178.0559762857738,92.28733879853098 177.44782180112088,93.003098086323 177.3718024904956,92.82415855507134 176.82446345424978,94.52407627593493 176.96129821328213,95.95557236834429 177.6606758707785,97.22601476115233 178.60331532207783,98.084899857844 179.0138195992913,99.65951093834883 181.91775726393098,99.4984718576452 181.97857271245448,98.12068663997343 182.99723147443729,97.11865381007374 183.6662014076137,95.70506144758838 183.71181299397722,94.23777556899586 182.60193105932558,92.3410208527057 181.44643753831042,91.64315278791764 179.78921656729653,91.5" stroke="#4dd2ff" stroke-dasharray="1,0.5" stroke-linecap="round" stroke-linejoin="round" stroke-width="0.5"><title>2026-05-12 15.2km</title><desc>1778590468000</desc></polyline><polyline fill="none" opacity="1" points="35.08016058470821,137.69337249782984 36.96543948742328,137.87229592546646 37.3455360403168,138.21224990405608 37.573593972076196,146.78243756529992 37.467166937247384,147.46230816350726 36.85901245253626,147.85591617885802 32.89080443960847,148.41054406383773 29.393916152301244,148.5 25.51693131204229,148.26741446525557 18.766416531347204,147.33706905294093 12.73048327025026,147.28339511936065 12.426406027865596,141.4149398964073 12.578444649116136,138.62377220552298 25.349688828748185,138.15857300652715 26.6420171087957,137.65758778910094 28.922596426622476,136.26197810236772 28.785761667531915,128.69327409977268 28.603315322077833,128.10279324989824 27.78230676765088,127.36916258730344 27.052521386009175,126.22397650475614 26.79405573004624,124.8461639782181 27.18935614504153,123.3609765672445 28.588111459976062,121.89366986829555 29.606770221958868,121.53578820856637 30.70144829445053,121.5 32.48030016233679,122.21576269919751 33.63579368335195,124.04094354507106 33.68140526977368,125.63348682901415 33.17967781983316,126.90393169868912 31.9633688502945,128.1564734143467 31.841737953363918,129.57004480175965 28.96820801292779,129.64161771489307 28.633723046339583,128.12068663997343 27.44782180112088,126.97550576683716 26.82446345424978,125.36508173320908 26.976502075442113,123.91568668051332 27.691083595040254,122.64521883007546 29.348304565937724,121.60736460253247 31.416029814106878,121.64315278791764 32.40428085176973,122.16208060430654 33.0428430607426,122.82415855507134 33.7726284423843,124.70301396586001 33.346920303069055,126.5997415631573 31.99377657455625,128.084899857844 31.811330229160376,129.5163650965842 28.96820801292779,129.62372448948736 28.664130770543125,128.21015356136195 27.47822952538263,127.01129278923327 26.885278902656864,125.63348682901415 26.946094351180363,124.0588373751234 27.569452698051464,122.73468871682417 28.99861573718954,121.73262321738002 30.82307919143932,121.51789410524361 32.54111561086029,122.28733879853098 33.24049326835666,123.16414349869592 33.71181299397722,124.30935079221672 33.63579368335195,125.88399785832735 33.08845464710612,126.99339927898836 31.97857271245448,128.24594031638117 31.856941815523896,129.53425833363144 29.044227323611267,129.65951093834883 28.724946219066624,128.26383369098767 27.523841111687943,126.99339927898836 26.854871178453322,125.36508173320908 27.098132972314488,123.55780940127443 27.964753113104962,122.3410208527057 29.789216567296535,121.5 31.44643753831042,121.64315278791764 32.60193105932558,122.3410208527057 33.71181299397722,124.23777556899586 33.6662014076137,125.70506144758838 32.997231474437285,127.11865381007374 31.97857271245448,128.12068663997343 31.91775726393098,129.4984718576452" stroke="#4dd2ff" stroke-dasharray="none" stroke-linecap="round" stroke-linejoin="round" stroke-width="0.5"><title>2026-05-11 15.3km</title><desc>1778503630000</desc></polyline><polyline fill="none" opacity="1" points="67.34816589928232,148.14706748182653 57.95172065147199,148.14706748182653 57.25198536692187,143.61774647497805 54.153157679131255,140.5589628687594 51.804046366829425,136.7354591351468 51.2042732660193,131.61780431837542 51.75406527519226,129.08837091072928 54.902874055085704,124.32359226088738 61.00056724785827,121.55882498860592 66.6484306147322,122.26472435361939 72.49621834885329,126.73539902450284 73.6957645509392,131.20603689190466 73.64578345906921,134.8531089471653 71.34665323863737,140.02955626504263 68.0479011835996,143.26481078437064 67.6480524498038,148.02942325809272 58.40155047713779,148.44117792946054 57.25198536692187,143.50010127038695 54.40306313754991,140.91190031799488 51.55414090817794,136.38251897180453 51.30423544952646,130.9119171105558 52.753687110263854,127.02952106791781 56.652212266111746,123.08827245316934 59.40117231197655,121.91177478566533 63.49962183483876,121.55882498860592 68.0978822754696,122.9117979654111 70.14710703701712,124.44124161952641 73.49584018369205,129.8530845787609 73.89568891772069,133.08839972061105 72.99602926615626,137.50016203528503 68.19784445874393,142.97069753333926 67.89795790845528,147.73531258752337 58.451531569007784,148.5 57.20200427505188,143.5589238757384 52.6037438348867,138.5589796580025 51.10431108251214,133.20604718098184 51.95398964220658,128.50012889504433 54.75293077994138,124.26476757170167 61.150510523235425,121.5 66.7483927984722,122.32354925922118 70.8468423213344,125.08831263816683 72.84608599101193,128.14718337962404 73.8457078258507,132.02957143238746 72.54619944049045,138.38251019758172 67.94793900032528,143.44127865834162 67.6480524498038,148.08824537304463 58.40155047713779,148.44117792946054 57.30196645879187,143.79421423445456 52.453800559742376,138.38251019758172 51.2042732660193,134.8531089471653 52.05395182548091,128.44130465830676 54.65296859643422,124.6765402610763 60.15088868839666,121.6764749463182 65.64880877989344,121.97059972962597 70.54695577104576,124.85301417519804 73.74574564234354,130.4413251291844 72.99602926615626,137.0883990689763 71.09674778021872,140.38249405828537 68.0479011835996,143.38245604006806 67.6480524498038,148.02942325809272 58.251607201993465,148.38235585269285 57.30196645879187,143.67656906787306 53.953233311884105,140.44131700141588 51.60412200004794,136.32369558914797 51.254254357656464,130.79426915338263 53.05357366031967,126.44127682188991" stroke="#4dd2ff" stroke-dasharray="none" stroke-linecap="round" stroke-linejoin="round" stroke-width="0.5"><title>2026-05-10 11.2km</title><desc>1778422578000</desc></polyline><polyline fill="none" opacity="0.5" points="88.52943510981277,142.42290890100412 88.3819037284702,135.13033876172267 93.1029079281725,126.53543877106858 96.79119245847687,123.58363367349375 101.36466527637094,122.02090892614797 105.5693096416071,121.5 111.61809627199546,122.88908971752971 105.5693096416071,121.5 101.36466527637094,122.02090892614797 96.79119245847687,123.58363367349375 93.1029079281725,126.53543877106858 88.3819037284702,135.13033876172267 88.52943510981277,142.42290890100412 91.48006273433566,148.5 88.52943510981277,142.42290890100412 88.3819037284702,135.13033876172267 93.1029079281725,126.53543877106858 96.79119245847687,123.58363367349375 101.36466527637094,122.02090892614797 105.5693096416071,121.5 111.61809627199546,122.88908971752971 105.5693096416071,121.5 101.36466527637094,122.02090892614797 96.79119245847687,123.58363367349375 93.1029079281725,126.53543877106858 88.3819037284702,135.13033876172267 88.52943510981277,142.42290890100412 91.48006273433566,148.5 88.52943510981277,142.42290890100412 88.3819037284702,135.13033876172267 93.1029079281725,126.53543877106858 96.79119245847687,123.58363367349375 101.36466527637094,122.02090892614797 105.5693096416071,121.5 111.61809627199546,122.88908971752971 105.5693096416071,121.5 101.36466527637094,122.02090892614797 96.79119245847687,123.58363367349375 93.1029079281725,126.53543877106858 88.3819037284702,135.13033876172267 88.52943510981277,142.42290890100412 91.48006273433566,148.5 88.52943510981277,142.42290890100412 88.3819037284702,135.13033876172267 93.1029079281725,126.53543877106858 96.79119245847687,123.58363367349375 101.36466527637094,122.02090892614797 105.5693096416071,121.5 111.61809627199546,122.88908971752971 105.5693096416071,121.5 101.36466527637094,122.02090892614797 96.79119245847687,123.58363367349375 93.1029079281725,126.53543877106858 88.3819037284702,135.13033876172267 88.52943510981277,142.42290890100412 91.48006273433566,148.5 88.52943510981277,142.42290890100412 88.3819037284702,135.13033876172267 93.1029079281725,126.53543877106858 96.79119245847687,123.58363367349375 101.36466527637094,122.02090892614797 105.5693096416071,121.5 111.61809627199546,122.88908971752971 105.5693096416071,121.5 101.36466527637094,122.02090892614797 96.79119245847687,123.58363367349375 93.1029079281725,126.53543877106858 88.3819037284702,135.13033876172267 88.52943510981277,142.42290890100412 91.48006273433566,148.5 88.52943510981277,142.42290890100412 88.3819037284702,135.13033876172267 93.1029079281725,126.53543877106858 96.79119245847687,123.58363367349375 101.36466527637094,122.02090892614797 105.5693096416071,121.5 111.61809627199546,122.88908971752971 105.5693096416071,121.5 101.36466527637094,122.02090892614797 96.79119245847687,123.58363367349375 93.1029079281725,126.53543877106858 88.3819037284702,135.13033876172267 88.52943510981277,142.42290890100412 91.48006273433566,148.5 88.52943510981277,142.42290890100412 88.3819037284702,135.13033876172267 93.1029079281725,126.53543877106858 96.79119245847687,123.58363367349375 101.36466527637094,122.02090892614797 105.5693096416071,121.5 111.61809627199546,122.88908971752971 105.5693096416071,121.5 101.36466527637094,122.02090892614797 96.79119245847687,123.58363367349375 93.1029079281725,126.53543877106858 88.3819037284702,135.13033876172267 88.52943510981277,142.42290890100412 91.48006273433566,148.5 88.52943510981277,142.42290890100412 88.3819037284702,135.13033876172267 93.1029079281725,126.53543877106858 96.79119245847687,123.58363367349375 101.36466527637094,122.02090892614797 105.5693096416071,121.5 111.61809627199546,122.88908971752971 105.5693096416071,121.5 101.36466527637094,122.02090892614797 96.79119245847687,123.58363367349375 93.1029079281725,126.53543877106858 88.3819037284702,135.13033876172267 88.52943510981277,142.42290890100412 91.48006273433566,148.5 88.52943510981277,142.42290890100412 88.3819037284702,135.13033876172267 93.1029079281725,126.53543877106858 96.79119245847687,123.58363367349375 101.36466527637094,122.02090892614797 105.5693096416071,121.5 111.61809627199546,122.88908971752971 105.5693096416071,121.5 101.36466527637094,122.02090892614797 96.79119245847687,123.58363367349375 93.1029079281725,126.53543877106858 88.3819037284702,135.13033876172267 88.52943510981277,142.42290890100412 91.48006273433566,148.5 88.52943510981277,142.42290890100412 88.3819037284702,135.13033876172267 93.1029079281725,126.53543877106858 96.79119245847687,123.58363367349375 101.36466527637094,122.02090892614797 105.5693096416071,121.5 111.61809627199546,122.88908971752971 105.5693096416071,121.5 101.36466527637094,122.02090892614797 96.79119245847687,123.58363367349375 93.1029079281725,126.53543877106858 88.3819037284702,135.13033876172267 88.52943510981277,142.42290890100412 91.48006273433566,148.5" stroke="#4dd2ff" stroke-dasharray="1,0.5" stroke-linecap="round" stroke-linejoin="round" stroke-width="0.5"><title>2026-05-10 11.3km</title><desc>1778397813000</desc></polyline><polyline fill="none" opacity="0.5" points="135.05588433681987,143.40081890305737 130.44539342657663,139.0860935592209 128.22347009624355,133.46382940706098 128.55675859586336,128.10301713866647 132.8339610064868,121.5 128.55675859586336,128.10301713866647 128.22347009624355,133.46382940706098 130.44539342657663,139.0860935592209 135.05588433681987,143.40081890305737 135.6669132525567,148.5 146.77652990398929,148.17313070909586 146.77652990398929,143.00857241923222 146.77652990398929,148.17313070909586 135.6669132525567,148.5 135.05588433681987,143.40081890305737 130.44539342657663,139.0860935592209 128.22347009624355,133.46382940706098 128.55675859586336,128.10301713866647 132.8339610064868,121.5 128.55675859586336,128.10301713866647 128.22347009624355,133.46382940706098 130.44539342657663,139.0860935592209 135.05588433681987,143.40081890305737 135.6669132525567,148.5 146.77652990398929,148.17313070909586 146.77652990398929,143.00857241923222 146.77652990398929,148.17313070909586 135.6669132525567,148.5 135.05588433681987,143.40081890305737 130.44539342657663,139.0860935592209 128.22347009624355,133.46382940706098 128.55675859586336,128.10301713866647 132.8339610064868,121.5 128.55675859586336,128.10301713866647 128.22347009624355,133.46382940706098 130.44539342657663,139.0860935592209 135.05588433681987,143.40081890305737 135.6669132525567,148.5 146.77652990398929,148.17313070909586 146.77652990398929,143.00857241923222 146.77652990398929,148.17313070909586 135.6669132525567,148.5 135.05588433681987,143.40081890305737 130.44539342657663,139.0860935592209 128.22347009624355,133.46382940706098 128.55675859586336,128.10301713866647 132.8339610064868,121.5 128.55675859586336,128.10301713866647 128.22347009624355,133.46382940706098 130.44539342657663,139.0860935592209 135.05588433681987,143.40081890305737 135.6669132525567,148.5 146.77652990398929,148.17313070909586 146.77652990398929,143.00857241923222 146.77652990398929,148.17313070909586 135.6669132525567,148.5 135.05588433681987,143.40081890305737 130.44539342657663,139.0860935592209 128.22347009624355,133.46382940706098 128.55675859586336,128.10301713866647 132.8339610064868,121.5 128.55675859586336,128.10301713866647 128.22347009624355,133.46382940706098 130.44539342657663,139.0860935592209 135.05588433681987,143.40081890305737 135.6669132525567,148.5 146.77652990398929,148.17313070909586 146.77652990398929,143.00857241923222 146.77652990398929,148.17313070909586 135.6669132525567,148.5 135.05588433681987,143.40081890305737 130.44539342657663,139.0860935592209 128.22347009624355,133.46382940706098 128.55675859586336,128.10301713866647 132.8339610064868,121.5 128.55675859586336,128.10301713866647 128.22347009624355,133.46382940706098 130.44539342657663,139.0860935592209 135.05588433681987,143.40081890305737 135.6669132525567,148.5 146.77652990398929,148.17313070909586 146.77652990398929,143.00857241923222 146.77652990398929,148.17313070909586 135.6669132525567,148.5 135.05588433681987,143.40081890305737 130.44539342657663,139.0860935592209 128.22347009624355,133.46382940706098 128.55675859586336,128.10301713866647 132.8339610064868,121.5 128.55675859586336,128.10301713866647 128.22347009624355,133.46382940706098 130.44539342657663,139.0860935592209 135.05588433681987,143.40081890305737 135.6669132525567,148.5 146.77652990398929,148.17313070909586 146.77652990398929,143.00857241923222 146.77652990398929,148.17313070909586 135.6669132525567,148.5 135.05588433681987,143.40081890305737 130.44539342657663,139.0860935592209 128.22347009624355,133.46382940706098 128.55675859586336,128.10301713866647 132.8339610064868,121.5 128.55675859586336,128.10301713866647 128.22347009624355,133.46382940706098 130.44539342657663,139.0860935592209 135.05588433681987,143.40081890305737 135.6669132525567,148.5 146.77652990398929,148.17313070909586 146.77652990398929,143.00857241923222 146.77652990398929,148.17313070909586 135.6669132525567,148.5 135.05588433681987,143.40081890305737 130.44539342657663,139.0860935592209 128.22347009624355,133.46382940706098 128.55675859586336,128.10301713866647 132.8339610064868,121.5 128.55675859586336,128.10301713866647 128.22347009624355,133.46382940706098 130.44539342657663,139.0860935592209 135.05588433681987,143.40081890305737 135.6669132525567,148.5 146.77652990398929,148.17313070909586 146.77652990398929,143.00857241923222 146.77652990398929,148.17313070909586 135.6669132525567,148.5 135.05588433681987,143.40081890305737 130.44539342657663,139.0860935592209 128.22347009624355,133.46382940706098 128.55675859586336,128.10301713866647 132.8339610064868,121.5 128.55675859586336,128.10301713866647 128.22347009624355,133.46382940706098 130.44539342657663,139.0860935592209 135.05588433681987,143.40081890305737 135.6669132525567,148.5 146.77652990398929,148.17313070909586 146.77652990398929,143.00857241923222 146.77652990398929,148.17313070909586 135.6669132525567,148.5 135.05588433681987,143.40081890305737 130.44539342657663,139.0860935592209 128.22347009624355,133.46382940706098 128.55675859586336,128.10301713866647 132.8339610064868,121.5 128.55675859586336,128.10301713866647 128.22347009624355,133.46382940706098 130.44539342657663,139.0860935592209 135.05588433681987,143.40081890305737 135.6669132525567,148.5 146.77652990398929,148.17313070909586 146.77652990398929,143.00857241923222 146.77652990398929,148.17313070909586 135.6669132525567,148.5 135.05588433681987,143.40081890305737 130.44539342657663,139.0860935592209 128.22347009624355,133.46382940706098 128.55675859586336,128.10301713866647 132.8339610064868,121.5 128.55675859586336,128.10301713866647 128.22347009624355,133.46382940706098 130.44539342657663,139.0860935592209 135.05588433681987,143.40081890305737 135.6669132525567,148.5 146.77652990398929,148.17313070909586 146.77652990398929,143.00857241923222 146.77652990398929,148.17313070909586 135.6669132525567,148.5 135.05588433681987,143.40081890305737 130.44539342657663,139.0860935592209 128.22347009624355,133.46382940706098 128.55675859586336,128.10301713866647 132.8339610064868,121.5 128.55675859586336,128.10301713866647 128.22347009624355,133.46382940706098 130.44539342657663,139.0860935592209 135.05588433681987,143.40081890305737 135.6669132525567,148.5 146.77652990398929,148.17313070909586 146.77652990398929,143.00857241923222 146.77652990398929,148.17313070909586 135.6669132525567,148.5" stroke="#ffc700" stroke-dasharray="1,0.5" stroke-linecap="round" stroke-linejoin="round" stroke-width="0.5"><title>2025-11-09 21.3km</title><desc>1762645227000</desc></polyline><polyline fill="none" opacity="1" points="170.99397798394784,148.3828662521555 169.70010751928203,143.34609109547455 164.42509716306813,137.25504451338202 163.678633433301,132.51100878079887 164.72368265478872,128.00120782788144 168.75458679511212,123.37423009570921 174.87558937841095,121.5 180.6980064699892,122.78853388875723 183.13645465369336,124.95560668571852 185.7739598318003,129.17258831486106 186.321366566699,132.51100878079887 185.8734883288853,135.90797686984297 184.48008936690167,139.30492361891083 180.4491852268111,143.28752366662957 180.2998924809508,147.8557640730287 172.5366696920246,148.5 170.49633549782448,148.207165582804 169.94892876246013,143.7560629202053 165.91802462236956,139.77346632350236 164.47486141161062,137.25504451338202 163.72839768207632,132.33530295424862 164.82321115233935,127.88406963978196 169.1527007841505,123.1399516890524 175.42299611354247,121.55856978881638 180.8970634646248,122.84710353810806 184.8284391076304,127.18123997718794 186.0227810749784,130.05112201476004 186.12230957252905,135.4979990948923 184.48008936690167,139.24635575240245 180.5984779726714,142.81898400682257 180.34965672926046,147.7971971326624 170.74515674100257,148.3828662521555 169.79963601659983,143.46322593424702 165.91802462236956,139.83203413290903 163.9772189250216,135.0880210091127 163.87769042770378,130.40253509493778 166.16684586554766,125.71700857958058 170.44657124904916,122.43711585993879 176.4182810864877,121.67570934758987 180.6980064699892,122.90567318093963 185.27631734521128,127.82550053606974 186.2716023181565,131.57391037989873 185.724195583025,136.66936334152706 183.78338988590986,140.066305307555 180.4491852268111,143.22895623132354 180.25012823217548,147.8557640730287 177.46333030820824,148.3828662521555 170.54609974636696,148.3242993687163 169.84940026514232,143.46322593424702 166.16684586554766,140.12487308541313 164.6241541574709,137.43074874120066 163.87769042770378,130.34396626416128 167.5602448277641,124.31134270731127 172.93478368106298,121.73427911725594 179.75248574558645,122.5542552282568" stroke="#4dd2ff" stroke-dasharray="none" stroke-linecap="round" stroke-linejoin="round" stroke-width="0.5"><title>2025-11-01 10.0km</title><desc>1761964262000</desc></polyline><polyline fill="none" opacity="1" points="15.969375687884167,170.3882980326889 14.409769260790199,167.48700314207235 13.75574075919576,160.73699217825197 16.724023959133774,155.11191937158583 21.80532231857069,152.03290763765108 27.540649179602042,151.85527181613725 32.77287719305605,154.51980307733174 35.791470277821645,159.07908199855592 36.49580866424367,164.23042931058444 34.885892352089286,169.0856777416775 30.55924226436764,173.17115825612564 30.106453301617876,178.38158185908105 20.446955430321395,178.5 19.84323681332171,173.58562558802078 14.711628569290042,168.25673594034743 13.504191335756332,162.75016206502914 14.057600067695603,159.31592661776813 15.768136149039492,156.29615003586514 20.044476352399215,152.6250266257557 26.18228229135275,151.5 32.37039811513387,154.22374468977796 35.99270981666632,159.84882663568715 36.445498779416084,164.46727169805672 34.43310338957235,169.61856823577546 30.55924226436764,173.230367894168 29.90521376254037,178.5 20.49726531514898,178.5 19.99416646757163,173.52641598845366 16.42216465063393,170.56592783203814 14.359459376195446,167.07253118645167 13.806050643790513,160.20409302582266 17.277432691305876,154.46059141261503 22.35873105074279,151.79605986294337 28.798396298196167,152.0921195652336 33.57783534913324,155.5856119451928 36.09332958632149,160.79620316298679 36.24425924057141,165.0593772176071 34.734962697839364,169.26330796408 30.508932379540056,173.46720638254192 30.30769284046255,178.14474549988518 29.65366433886811,178.44079093274195 20.446955430321395,178.5 19.641997274477035,173.46720638254192 16.220925112022087,170.56592783203814 14.359459376195446,167.25016206281725 13.806050643790513,160.38172613445204 17.17681292188354,154.63822638755664 22.76121012866497,151.79605986294337 29.402114914963022,152.2697553099133 33.527525464305654,155.34876570967026 36.14363947091624,160.73699217825197" stroke="#4dd2ff" stroke-dasharray="none" stroke-linecap="round" stroke-linejoin="round" stroke-width="0.5"><title>2025-10-27 10.0km</title><desc>1761565093000</desc></polyline><polyline fill="none" opacity="1" points="67.75947232590988,177.85154408193193 57.941790651064366,178.2641979373293 57.29061788669787,173.4302331408253 53.884483428206295,170.42372118658386 51.430063009494916,165.8254943100037 51.37997279665433,159.69446471094852 53.483761727111414,155.7446302169701 58.84341447823681,152.0305805875687 64.50360850524157,151.61790684208972 68.51082551549189,153.09174021077342 70.56452423287556,154.80138191854348 73.87047826638445,160.7556093915482 73.77029784116894,164.70540752017405 72.61822295072488,168.36041905957973 67.90974296373315,173.25337995617883 67.75947232590988,177.91049465182004 58.29242213931866,178.3820989812957 57.19043746148236,173.48918418964604 53.734212790150195,170.42372118658386 51.179611946223304,164.52855150052346 51.580333647551015,159.45865450112615 53.63403236516751,155.50881829555146 59.39440681715496,151.79476705688285 66.50721701001748,152.0895339542767 69.2120884922333,153.3275531794061 71.01533614657819,155.27300627186196 73.72020762832835,161.10932382539613 73.67011741595343,165.11807134241099 72.46795231290162,168.59622541279532 67.8596527511254,173.4302331408253 67.75947232590988,177.91049465182004 58.14215150126256,178.32314846251393 57.44088852452114,173.78393933776533 52.58213789970614,168.65517698507756 51.12952173361555,164.58750351361232 51.88087492296472,157.98483837378444 53.58394215232693,155.56777128542308 59.54467745497823,151.79476705688285 64.80414978112094,151.73581365827704 70.063622106798,154.2708040321013 73.56993699073792,160.04817983444082 73.72020762832835,165.0001674251398 71.86686976137571,169.4804983275244 68.00992338894866,173.1354778013192 67.7093821130693,177.9694452152471 58.19224171410315,178.5 57.44088852452114,173.72498832078418 53.63403236516751,170.12896421866026 51.53024343471043,165.94339804840274 51.430063009494916,160.34294226160273 53.53385193971917,155.7446302169701 58.04197107627988,152.38430069183232 63.20126297674142,151.5 69.01172764156945,153.3275531794061 72.81858380115591,157.8669329113327" stroke="#4dd2ff" stroke-dasharray="none" stroke-linecap="round" stroke-linejoin="round" stroke-width="0.5"><title>2025-10-19 10.0km</title><desc>1760866141000</desc></polyline><polyline fill="none" opacity="1" points="88.77924733399414,160.4413251291262 91.7281311082188,155.08831263822503 97.72586081828922,151.61764997069258 103.47368512372486,152.02942466718378 108.42181213456206,155.323610999214 111.12079050415196,160.26485303096706 111.27073374669999,164.79428539896617 109.57137699541636,169.2060338560259 105.37296619848348,173.26481078448705 105.12306079408154,178.14706748182653 95.37675001518801,178.20588958403096 94.82695812522434,173.79421423457097 91.17833921848796,170.206025190535 88.77924733399414,165.5589910323033 89.02915273886174,158.67660156678176 91.67815002729185,154.85301417543087 93.62741218321025,153.44122125627473 99.42521756934002,151.5 105.47292836033739,152.9706228011055 108.47179321525618,155.3824355736724 110.77092293743044,158.9118983731023 111.12079050415196,165.6178144980804 109.57137699541636,169.32367999077542 105.52290944126435,173.32363341550808 105.42294727964327,177.97060113667976 96.52631487627514,178.5 95.37675001518801,178.20588958403096 94.67701488244347,173.44127865845803 90.97841489454731,169.79426427558064 88.67928517237306,164.85310894751456 88.52934192959219,160.85309313522885 91.17833921848796,155.55890925851418 93.32752569764853,153.61769557197113 97.22605000901967,151.91177478578174 103.12381755723618,151.91177478578174 107.47217159694992,154.38241694349563 111.22075266577303,160.38250110280933 110.77092293743044,166.44134234864032 109.37145267194137,169.44132610032102 105.32298511755653,172.9706975335721 105.17304187477566,177.97060113667976 95.67663650074974,178.26471168006537 94.62703380128369,173.3824560402427 90.12873651902191,168.79427218291676 88.6293040914461,164.97075602522818 88.77924733399414,160.20602898561629 90.8784527326934,155.97068096662406 93.27754461672157,153.61769557197113 96.77622028090991,151.97059972956777 103.02385539538227,151.97059972956777 108.32184997247532,155.1471372382366 111.47065807040781,161.85309985035565" stroke="#4dd2ff" stroke-dasharray="none" stroke-linecap="round" stroke-linejoin="round" stroke-width="0.5"><title>2025-10-16 10.0km</title><desc>1760611285000</desc></polyline><polyline fill="none" opacity="1" points="128.05060275178403,169.5199711464811 126.23146745259874,165.1785800307989 126.38306206092238,159.70718891144497 129.46548576210625,154.47363334317924 135.9335223811213,151.5 142.60368514456786,152.21367347118212 147.70737028960139,157.50672276184196 148.81906408350915,161.55081592261558 147.70737028960139,168.21161031420343 142.8563428253401,173.26662355609005 142.8563428253401,178.02424056624295 133.05322482436895,178.44053009332856 132.3963148551993,173.80185752740363 127.59581892704591,168.8063201699406 126.23146745259874,164.8217518372694 126.43359359679744,159.52877306559822 129.31389115401544,154.77099579165224 135.1755493399687,151.6189456427819 142.0983697839547,152.21367347118212 146.4440818876028,155.48466501117218 148.86959561961703,161.3724006759585 147.7579018259421,168.21161031420343 142.95740589755587,173.32609402301023 142.7047482172493,178.20265040238155 133.05322482436895,178.44053009332856 132.29525178298354,173.56397582677891 128.0000712154433,169.22261668584542 126.13040438038297,164.7028090543463 126.3325305248145,159.88560469920048 128.10113428765908,156.01991631696 134.01332400995307,151.97578241716838 140.17817141255364,151.6784184545977 143.1090005056467,152.6894552700105 145.93876652652398,155.12783051736187 148.86959561961703,161.49134418019094 148.7685325476341,165.0596373253502 147.55577568127774,168.5089653226314 142.90687436121516,173.5045053854701 142.8563428253401,178.20265040238155 133.103756360244,178.5 132.3963148551993,173.74238711188082 128.5053865762893,170.0552087703254 126.18093591625802,165.11910868121777 126.43359359679744,159.29088518116623 129.01070193736814,155.12783051736187 134.9228916594293,151.6784184545977" stroke="#4dd2ff" stroke-dasharray="none" stroke-linecap="round" stroke-linejoin="round" stroke-width="0.5"><title>2025-10-08 10.1km</title><desc>1759919017000</desc></polyline><polyline fill="none" opacity="1" points="180.042048049625,178.14396470144857 170.562997716479,178.44066079956247 169.90753146982752,173.57482449815143 164.51254005683586,167.5814789275173 163.7058123687748,161.41004467697348 166.42851831554435,155.4165660268627 171.62182780657895,151.97473676723894 176.91597825894132,151.5 182.86559495748952,154.17038896452868 185.99166474840604,159.03639760782244 186.49586955318227,164.02104457491077 184.63031177502126,169.302347236895 180.49583237431943,173.3968052775599 180.14288901071995,178.2033039338421 170.46215675515123,178.3813215927803 169.55458810622804,173.15944622678217 166.47893879609182,170.54848987975856 164.26043765433133,167.16609611199237 163.7058123687748,161.1726804326754 166.2772568743676,155.6539327650098 169.10080378176644,153.0428929894697 171.62182780657895,151.97473676723894 177.72270594676957,151.55934211832937 183.52106120390818,155.00117398781003 185.63872138480656,157.90891164721688 186.4454490726348,164.19906684203306 184.88241417729296,168.82762548461324 180.54625285463408,173.15944622678217 180.14288901071995,178.14396470144857 170.66383867734112,178.5 169.85711098928005,173.45614502415992 167.13440504251048,171.43859003228135 164.86548341996968,168.23422271560412 163.65539188846014,161.52872676041443 165.87389303022064,156.12866593257058 170.76467963820323,152.27144703781232 177.01681922003627,151.5 182.36139015271328,153.75499598047463 185.58830090425909,157.84957021672744 186.39502859232016,164.19906684203306 184.781573216198,169.06498641212238 180.64709381572902,172.98142687091604 180.19330949126743,178.14396470144857 170.562997716479,178.3813215927803 169.957951950375,173.75284366094274 165.42010870575905,169.12432662787614 163.50413044681773,162.2408187215333 164.51254005683586,158.44298423361033" stroke="#4dd2ff" stroke-dasharray="none" stroke-linecap="round" stroke-linejoin="round" stroke-width="0.5"><title>2025-10-01 10.0km</title><desc>1759271073000</desc></polyline><polyline fill="none" opacity="1" points="30.584397811675444,202.99352930352325 30.483778031077236,207.90790903789457 27.012395607773215,208.38158185890643 20.421799992211163,208.3223727788427 19.818081310018897,203.58562558802078 16.044839545385912,200.0330382611137 13.881514267064631,196.1251655361266 14.133063717978075,189.31592661770992 15.994529654970393,185.88166959531372 18.610643945168704,183.4539921315154 23.28946373332292,181.6184239644208 30.33284836052917,182.5658147559152 35.011668148916215,187.06589859188534 36.42034507426433,191.03304703818867 36.319725293898955,195.3554297366063 34.20670990552753,200.0922482389724 30.584397811675444,203.28957752569113 30.131608800031245,208.20395459904103 20.52241977280937,208.3223727788427 19.918701090384275,203.58562558802078 14.233683498343453,197.36858261522138 13.579654925735667,193.81595488579478 14.032443937612697,189.375137756404 17.151657129870728,184.6974380328902 23.138534062774852,181.67763593705604 29.628509897738695,182.38817910751095 33.200512101640925,184.8750729308813 36.11848573293537,190.08567092154408 36.37003518384881,195.11858773400309 34.25701979571022,199.8554082887713 30.534087921492755,203.230367894168 30.534087921492755,207.84869990654988 29.93036923906766,208.26316369208507 20.52241977280937,208.3223727788427 19.868391199968755,203.58562558802078 16.5479384472128,200.56592783192173 14.38461316889152,197.0133208813495 13.730584596283734,190.73699217813555 16.799487898126245,184.9342845507781 23.037914282409474,181.67763593705604 30.73532748222351,182.74345034646103 34.76011869753711,186.82905299786944 36.42034507426433,191.38831265852787 36.01786595256999,196.48042784736026 34.00547034502961,200.26987813453889 30.685017592040822,203.1119486115058 30.433468141127378,208.02632728166645 27.062705497955903,208.5 20.52241977280937,208.5 19.818081310018897,203.4672063823673 16.14545932575129,200.0922482389724 13.982134047430009,196.1251655361266 14.133063717978075,189.43434888881166 18.35909449448809,183.4539921315154 22.685745051130652,181.73684790334664 26.962085717590526,181.5" stroke="#4dd2ff" stroke-dasharray="none" stroke-linecap="round" stroke-linejoin="round" stroke-width="0.5"><title>2025-09-27 10.0km</title><desc>1758965825000</desc></polyline><polyline fill="none" opacity="1" points="67.90974237769842,208.32314846263034 57.89170093741268,208.5 57.49097927985713,203.4302331409417 52.48195855971426,197.888806046627 51.079432758037,191.4630380293238 51.93096628040075,188.51541263941908 54.73601788375527,184.68347576627275 59.19404632458463,181.8537204490858 65.60559284640476,181.73581365833525 69.36235838662833,183.09174021083163 71.31587646738626,184.80138191842707 73.97065744921565,191.40408567804843 73.77029662043788,195.5896867563133 71.01533522410318,201.07218595402082 68.0099227919709,203.25337995635346 67.65929134190083,208.20524740574183 57.89170093741268,208.44104949379107 57.29061845084652,203.07652671413962 52.58213897398673,198.77308011066634 51.17961317230947,194.82331150147365 51.02934255078435,191.63989504508208 52.18141731643118,187.8669329113327 57.1403478293214,182.62011396692833 63.852435594424605,181.5 70.7147939808201,183.681272440881 73.36957496288233,188.51541263941908 73.87047703471035,194.29274338507093 72.21750019700266,199.0678378128796 68.06001299945638,203.25337995635346 67.7594717561733,208.44104949379107 57.89170093741268,208.38209898141213 57.340708658099174,203.54813523212215 53.533852910855785,200.12896421883488 51.17961317230947,194.70540752011584 52.08123690215871,187.8669329113327 56.3389045142103,183.3865064056008 60.446301504503936,181.55895342410076 69.56271921517327,182.85592714010272 71.66650791792199,184.7424288453767 73.62002599867992,190.1660848246538 73.920567241963,194.29274338507093 71.71659812494181,199.89315852959407 67.9598325851839,203.48918418964604 67.65929134190083,208.32314846263034 57.84161073016003,208.2641979372711 57.1403478293214,203.25337995635346 53.834394154371694,200.54162392910803 52.031146694673225,197.65299938688986 51.17961317230947,190.8735142283258 53.38358228933066,186.15730083337985 57.44088907260448,182.03058058751049" stroke="#4dd2ff" stroke-dasharray="none" stroke-linecap="round" stroke-linejoin="round" stroke-width="0.5"><title>2020-04-24 10.0km</title><desc>1587724293000</desc></polyline><polyline fill="none" opacity="1" points="88.30294926301576,192.80937283171806 89.51038675825112,197.90147478319705 94.94385548774153,203.76325434836326 95.54757423559204,208.5 105.35800388641655,208.08553639397724 105.35800388641655,203.52641598839546 109.88589449413121,198.49357658304507 111.69705073721707,192.63174051209353 109.43310543312691,185.76324655441567 109.9865142852068,185.05270777101396 107.77287887688726,185.4079772781115 104.25118618179113,182.92108587932307 98.61647786991671,181.5 92.47867060103454,184.28295638010604 88.95697790617123,189.84882663574535 89.46007686271332,197.90147478319705 94.79292580089532,203.64483518118504 95.19540496589616,208.38158185890643 104.95552472071722,208.20395459915744 105.3076939904131,203.2303678940516 109.48341532889754,199.26330796384718 111.09333198983222,194.11200807831483 110.43930334621109,189.375137756404 107.52132939873263,184.63822638738202 101.38352213031612,181.67763593711425 97.05687110498548,182.09211956535 91.52278258395381,184.69743803300662 88.65511853224598,190.20409302593907 89.10790759325027,196.89490025199484 91.01968362787738,200.2106681757723 94.59168621827848,203.52641598839546 95.09478517482057,208.32237277878448 104.95552472071722,208.20395459915744 105.00583461672068,203.52641598839546 109.38279553758912,199.1448878220981 110.84178251121193,194.52648227871396 110.03682418097742,188.8422372766072 107.068540338194,184.51980307738995 104.55304555571638,182.6842384893098 100.42763411300257,181.79605986282695 97.71089974837378,181.85527181613725 92.73022007965483,183.57241567241726 89.30914717540145,188.25012502312893 88.30294926301576,191.625156277325 89.30914717540145,197.8422645679675 91.87495185341686,201.27644645154942 94.64199611381628,203.34878715121886 95.24571486166678,208.44079093274195 105.00583461672068,208.2631636923179" stroke="#4dd2ff" stroke-dasharray="none" stroke-linecap="round" stroke-linejoin="round" stroke-width="0.5"><title>2020-04-16 10.0km</title><desc>1587033949000</desc></polyline><polyline fill="none" opacity="1" points="126.85583327547647,189.10493899474386 126.15457052644342,192.40627478284296 127.35673523903824,198.41937065758975 132.56611565942876,203.54813523223856 133.41764899739064,208.4410494939657 142.78451571520418,208.08734632335836 142.93478630436584,203.37128208595095 147.0922726013232,199.24469235760625 148.84542947355658,194.52855150063988 148.19425692106597,189.57655961893033 144.4374921945855,184.15289776510326 138.87748039979488,181.79476705705747 131.06340976897627,183.62231924652588 127.35673523903824,188.2206492224359 126.25475091929547,191.99360890430398 126.75565288285725,196.70977172651328 129.3102528967429,200.836380673456 132.6662960522808,203.724988321017 133.26737840822898,208.5 142.8846961078234,208.08734632335836 142.93478630436584,203.31233102444094 147.49299417226575,198.77308011089917 148.84542947355658,193.88007893715985 148.39461770653725,190.1660848245956 146.14055887050927,185.92148909100797 142.33370394795202,182.79697385634063 139.67892354121432,181.6768602532684 135.02053528069519,182.14848731446546 129.6107940748334,184.32975715614157 126.70556268654764,189.8123697777046 126.20466072298586,193.46741417626617 127.25655484641902,198.3014674554579 132.6162058559712,203.54813523223856 133.01692742668092,208.32314846263034 143.03496669698507,207.7925935056992 142.98487650044262,203.25337995623704 147.29263338656165,199.12678933423012 148.69515888462774,194.469599481381 148.14416672452353,189.2228441889747 143.98668042733334,184.15289776510326 139.3282921668142,181.5 134.92035488807596,182.26639401598368 129.6107940748334,184.68347576609813 126.90592347178608,189.340749357827 126.25475091929547,194.70540752040688 128.4086293624714,199.71630419575376 132.51602546288632,203.66603729786584 133.11710781930014,208.5 143.03496669698507,207.96944521542173 143.03496669698507,203.37128208595095 147.0922726013232,199.36259535566205 148.7953392774798,194.17483928898582" stroke="#4dd2ff" stroke-dasharray="none" stroke-linecap="round" stroke-linejoin="round" stroke-width="0.5"><title>2020-04-14 10.0km</title><desc>1586861907000</desc></polyline><polyline fill="none" opacity="1" points="166.32153924158774,199.79619828471914 170.09478304954246,203.3487871508114 170.79912189370953,208.5 180.40831612492912,207.84869990643347 180.6095557946246,203.05273896059953 184.53372935508378,199.14488782180706 186.49581613508053,193.75674422772136 185.9927169608418,189.6119822471519 183.02443183166906,184.46059141249862 177.28910124348477,181.67763593688142 172.1574896646198,181.9736957034911 166.5227789110504,184.57901473541278 163.50418386491947,190.32251510425704 163.75573345203884,194.82253508613212 164.9128615532536,197.72384411795065 170.14509296696633,203.3487871508114 170.34633263689466,208.08553639386082 180.35800620750524,207.84869990643347 180.45862604212016,203.40799676970346 185.03682852932252,198.49357658269582 186.24426654796116,194.05279745248845 185.89209712599404,189.96724879124667 182.1188533178065,183.51320390502224 177.4400309957564,181.61842396430438 171.75501032499596,181.9144837631029 166.87494833325036,184.164532992756 163.60480369976722,191.92121065611718 165.21472105802968,198.07910539017757 170.09478304954246,203.52641598822083 170.3966425540857,208.08553639386082 180.1567665375769,207.90790903783636 180.35800620750524,203.23036789393518 184.28217976749875,199.26330796355614 186.09333679568954,194.88174562848872 185.79147729091346,189.43434888852062 182.52133265743032,184.34216806368204 177.1381714909803,181.5 170.74881197628565,182.44739099656 166.47246899385937,184.46059141249862 163.5544937821105,191.74357804795727 164.76193180098198,197.66463388339616 169.99416321446188,203.46720638207626 170.3966425540857,207.90790903783636 180.50893595977686,207.78949076862773 180.45862604212016,203.05273896059953" stroke="#4dd2ff" stroke-dasharray="none" stroke-linecap="round" stroke-linejoin="round" stroke-width="0.5"><title>2020-04-13 10.0km</title><desc>1586775592000</desc></polyline><polyline fill="none" opacity="1" points="21.799480351619422,211.98215434659505 17.49798194458708,214.15184373501688 14.220649824477732,218.85280838544713 14.06702488171868,226.02471639716532 15.961732513504103,229.58050205826294 20.058397663058713,233.55813366820803 20.51927249226719,238.3794671971118 29.89039402222261,237.95760218106443 30.55610210937448,233.1362649970688 34.65276725892909,229.09836296143476 36.39384994772263,224.93989590904675 36.13780837552622,219.75683549552923 33.7310176002793,215.1161474143155 27.89326976193115,211.56026931619272 22.106730237836018,211.7410772255389 16.67864891467616,214.87507165101124 14.527899710927159,218.43092856474686 13.708566681016237,221.68542175466428 14.579108025413007,227.59167559049092 15.910524199018255,230.06264073739294 19.853564405580983,233.49786673480412 20.468064178247005,238.3794671971118 29.89039402222261,238.01786863146117 30.658518737880513,233.01573103206465 34.0382674864959,230.0023734254646 35.88176680379547,226.80819654546212 36.445058261742815,221.92649456713116 35.11364208813757,216.86394357285462 32.09235154022463,213.4888839861378 26.8691034745425,211.56026931619272 21.38981383666396,212.04242361045908 17.190732058137655,214.4531888142228 15.14239948336035,216.92421230807668 13.554941738024354,221.92649456713116 13.708566681016237,224.81936016870895 15.500857684062794,229.64076941588428 19.90477272006683,233.67866751545807 20.36564754927531,238.3192007857142 30.04401896544732,238.07813507528044 30.70972705236636,233.1362649970688 34.75518388743512,229.09836296143476 36.29143331875093,225.7233775848872 36.39384994772263,220.48005612607813 35.11364208813757,216.80367483128794 30.197643908672035,212.58484669210156 24.411104384576902,211.5 18.317314974265173,213.36834576528054 14.579108025413007,217.88851118239108 13.65735836676322,220.48005612607813 13.810983309987932,225.48230641748523 16.115357456495985,230.30370992043754 19.6999394625891,233.55813366820803 20.468064178247005,238.5 30.351268851663917,237.95760218106443 30.402477166149765,233.3773328482639 35.11364208813757,228.37515353248455 36.39384994772263,223.7345373306307 35.21605871687643,217.52689930045744" stroke="#4dd2ff" stroke-dasharray="none" stroke-linecap="round" stroke-linejoin="round" stroke-width="0.5"><title>2020-04-12 10.0km</title><desc>1586649823000</desc></polyline><polyline fill="none" opacity="1" points="57.45986263593659,233.35724702116568 53.48734057578258,229.90923746227054 51.69970564846881,227.04561955475947 51.103827339364216,221.90275740099605 53.93424930726178,215.82476620055968 57.45986263593659,212.84418780222768 63.31933267484419,211.5 70.56918543507345,214.01304403849645 73.34995087701827,219.79884511831915 73.9458291863557,224.06510314252228 72.20785078476183,228.97418022481725 67.78841999266297,233.64945020817686 67.83807651838288,238.32467968267156 57.906771367648616,238.26623956428375 57.45986263593659,233.35724702116568 52.84180574095808,229.50015012029326 51.45142301986925,226.75341279135318 51.103827339364216,222.13652492605615 51.84867522586137,218.63000141637167 56.814327801112086,212.9610735399765 60.488910706946626,211.55844301753677 67.1428851580713,212.66885914839804 71.4133463727776,215.3572255797335 73.74720308301039,220.67547623312566 73.84651613468304,224.24042809329694 72.05888120736927,229.44170904619386 67.98704609577544,233.53256895235972 67.73876346717589,238.32467968267156 57.906771367648616,238.32467968267156 57.360549584496766,233.35724702116568 53.38802752410993,229.9676784859039 51.6500491227489,226.75341279135318 51.3521099681966,220.55859216680983 53.93424930726178,215.82476620055968 56.96329737850465,213.01951639918843 59.19784103729762,212.14287284499733 64.80902844737284,211.85065801045857 70.46987238316797,214.01304403849645 73.64789003157057,220.09105564816855 73.79685960896313,224.47419460536912 71.76094205281697,229.9676784859039 67.98704609577544,233.29880636470625 67.73876346717589,238.14935930841602 57.95642789360136,238.5 57.310893058544025,233.2403657019604 53.139744895510375,229.61703224980738 51.6500491227489,226.81185415684013 51.054170813644305,220.73391825694125 53.8845927817747,215.82476620055968 56.863984326831996,213.01951639918843 59.396467140410095,211.96754396316828 63.17036309768446,211.61688602878712 69.1788027137518,212.9026306743035" stroke="#4dd2ff" stroke-dasharray="none" stroke-linecap="round" stroke-linejoin="round" stroke-width="0.5"><title>2020-04-08 10.0km</title><desc>1586343893000</desc></polyline><polyline fill="none" opacity="1" points="95.48125713504851,238.26623956422554 95.08400501520373,233.53256895247614 90.56526215048507,229.26638578565326 88.72797109559178,224.88328575814376 89.02591018564999,220.03261355502764 91.21079684561118,215.70788108336274 94.33915729029104,212.96107353986008 96.47438743524253,212.20131579291774 102.97939089988358,212.0844298907905 107.59744679462165,214.36370041576447 111.12305935914628,220.8508022854803 110.6264942092821,227.10406088869786 108.49126406456344,230.8442930795718 105.31324710464105,233.59100958361523 105.31324710464105,238.32467968278797 95.58057016530074,238.44155990047147 94.98469198541716,233.53256895247614 90.11835351539776,228.62353334313957 88.52934503578581,222.7793850976741 89.82041442557238,217.9871363011771 94.23984426027164,212.78574492404005 99.9006869699806,211.5 106.60431649442762,213.54550184804248 108.78920315415598,215.76632364524994 111.32168541918509,221.78587360068923 110.5271811792627,227.10406088869786 108.14366845949553,231.0780567305046 105.51187316467986,233.47412831510883 105.21393407485448,238.32467968278797 95.38194410526194,238.38311979477294 94.88537895516492,233.41568767128047 90.3169795756694,229.44170904625207 88.57900155056268,224.4157529870863 89.3238492757082,219.2144235840533 94.38881380530074,212.72730203950778 99.9006869699806,211.67532903369283 106.75328603968956,213.2532877730555 109.5340508793015,217.11050081829308 111.42099844920449,222.25340865069302 111.47065496398136,224.94172732619336 110.17958557442762,228.50665099860635 105.36290361965075,233.41568767128047 105.36290361965075,238.32467968278797 95.72953971032985,238.5 94.83572244038805,233.76633143879008 90.3169795756694,229.3248268790776 88.62865806580521,225.23393507068977 88.77762761083432,220.38326602004236 91.06182730058208,216.2923064160277 94.88537895516492,212.78574492404005 99.10618273005821,211.79221502452856 102.48282574978657,212.0259869301808 107.64710330939852,214.188372255594" stroke="#4dd2ff" stroke-dasharray="none" stroke-linecap="round" stroke-linejoin="round" stroke-width="0.5"><title>2020-04-07 10.0km</title><desc>1586257895000</desc></polyline><polyline fill="none" opacity="1" points="133.22953970986418,238.44155990047147 132.3357224399224,233.53256895247614 127.76732306042686,228.91573909379076 126.37694064062089,225.23393507068977 126.72453624545597,219.85728723701322 129.00873593520373,215.59099594090367 134.47095258487388,212.0844298907905 139.23797802464105,211.79221502452856 145.1967598241754,214.01304403861286 148.22580723906867,220.9676862883498 147.6299290591851,227.8053563994472 145.39538588398136,231.42870201729238 143.0118731642142,233.41568767128047 142.713934074156,238.03247902728617 133.3785092548933,238.5 132.6336615299806,233.76633143879008 128.61148381535895,230.37676547351293 126.62522321543656,226.11055735487025 126.72453624545597,219.85728723701322 128.61148381535895,216.17542140028672 132.3357224399224,212.72730203950778 136.10961757972836,211.5584430177114 139.78419968951494,211.67532903369283 145.69332497403957,215.0650124863605 148.07683769403957,219.38975011080038 148.22580723906867,226.28588164091343 145.9416075493209,230.49364741303725 142.81324710440822,233.47412831510883 142.713934074156,238.09091917105252 133.3288527398836,238.38311979477294 132.58400501520373,233.53256895247614 128.06526215048507,229.55859118833905 126.42659715539776,225.52614265697775 126.52591018541716,220.73391825705767 128.95907942019403,215.76632364524994 132.8322875900194,212.376644598844 139.03935196460225,211.5 144.99813376413658,214.48058582423255 147.48095951392315,217.63648227899102 148.37477678386495,220.61703420319827 148.62305935914628,224.707961016451 147.82855511899106,227.6300326071796 145.69332497403957,230.96117491775658 142.81324710440822,233.47412831510883 142.76359058939852,238.2077994395513 133.42816577013582,238.38311979477294 132.6336615299806,233.94165323727066 128.21423169528134,229.55859118833905 126.37694064062089,225.17549353436334 126.67487973044626,219.97417145548388 128.71079684514552,215.9416512925527 131.6405312300194,213.13640209886944 134.3716395550873,212.0844298907905 140.62836044444703,211.85065801051678 143.9553469491657,212.9026306743035" stroke="#4dd2ff" stroke-dasharray="none" stroke-linecap="round" stroke-linejoin="round" stroke-width="0.5"><title>2020-04-02 10.0km</title><desc>1585825459000</desc></polyline><polyline fill="none" opacity="1" points="180.2676386923995,233.517269923992 180.1199478879571,238.5 170.47081532981247,238.38412308343686 170.0277429164853,233.63314789469587 166.43393334164284,230.79413038567873 164.563183151884,227.89715821220307 163.77549886144698,221.34994330530753 166.28624253696762,215.96146738063544 172.58771686046384,211.9635308107827 177.55997394397855,212.13735476136208 181.35070459148847,213.41206200537272 183.6152969263494,215.55588097468717 185.73219845700078,220.65465913934167 186.1260406023357,224.94223043258535 184.05836933967657,230.09885849471902 180.4645597646013,233.4593309291522 180.2676386923995,238.44206154474523 170.42158506205305,238.21030766161857 170.0277429164853,233.80696480360348 165.25240690587088,229.05594896426192 163.77549886144698,222.85638923133956 165.05548583343625,217.8735134380404 169.88005211227573,213.06441487639677 174.7046183908824,211.78970680385828 181.64608620060608,213.64382663258584 185.2891260436736,218.80056361178868 186.2245011383202,224.42077089485247 185.09220497100614,228.65037248661974 180.2676386923995,233.63314789469587 180.21840842394158,238.38412308343686 170.56927586649545,238.38412308343686 169.73236130783334,233.517269923992 166.43393334164284,230.6782517999527 164.3170318112243,227.5495204970939 163.77549886144698,221.98728633020073 166.48316360986792,215.96146738063544 172.24310498358682,211.5 176.9199804579839,212.0214721338707 183.12299424479716,215.49794003425632 185.97834979766048,220.71259952092078 186.17527087032795,225.11605016584508 183.71375746279955,230.6782517999527 180.41532949684188,233.4593309291522 180.0707176194992,238.32618461578386 170.6185061344877,238.44206154474523 169.88005211227573,233.4013919281424 166.43393334164284,230.7361910958425 164.66164368833415,228.18685613555135 163.82472912967205,221.92934608651558 165.99086092831567,216.59881682589184 170.12620345293544,212.60088501975406 173.72001302801073,211.78970680385828 178.79073064750992,212.60088501975406" stroke="#4dd2ff" stroke-dasharray="none" stroke-linecap="round" stroke-linejoin="round" stroke-width="0.5"><title>2020-03-23 10.0km</title><desc>1584960411000</desc></polyline><polyline fill="none" opacity="1" points="33.41837767744437,244.9764712897013 35.87989161815494,250.1911358598154 36.076812733430415,254.3628309147898 34.20606213854626,259.7512222104124 30.218409554567188,263.2855139070889 29.676876487443224,268.1523691750481 20.42158406972885,268.5 19.633899608859792,263.5752089123707 16.286240649409592,260.6203124974272 14.16933866031468,256.6224854856264 13.824726708699018,250.71259952086257 16.138549813069403,246.30911262659356 21.455419925041497,241.55794137332123 27.7076653346885,241.78970680374186 32.28608126472682,243.7597089082701 35.436819108901545,248.91644477046793 36.076812733430415,254.76841064321343 34.20606213854626,259.7512222104124 30.169179275631905,263.63314789469587 30.021488439058885,268.2103076616186 20.323123512323946,268.32618461566744 19.683129887795076,263.4593309290358 16.335470928344876,260.272676552122 14.070878102676943,256.6224854856264 13.87395698740147,250.88642062840518 15.94162869779393,246.13529003184522 22.390795222483575,241.5 30.07071871799417,242.36911994067486 33.46760795614682,244.9764712897013 35.486049387604,248.91644477046793 36.076812733430415,254.53665083582746 34.35375297488645,259.51946456206497 30.218409554567188,263.63314789469587 30.07071871799417,268.2682461417862 20.323123512323946,268.44206154491985 19.633899608859792,263.2855139070889 15.94162869779393,259.9250403807964 14.267799217952415,256.97012380324304 13.923187266336754,250.13319542171666 16.187780091771856,246.01940827060025 21.50465020374395,241.90558948140824 26.91998087358661,241.90558948140824 31.941469312645495,243.58588548522675 33.516838234849274,244.86058927717386 35.83066133921966,250.3649571367423 36.17527329106815,254.82635057909647 33.9599107443355,259.9250403807964 30.218409554567188,263.69108687044354" stroke="#4dd2ff" stroke-dasharray="none" stroke-linecap="round" stroke-linejoin="round" stroke-width="0.5"><title>2019-12-13 10.0km</title><desc>1576239112000</desc></polyline><polyline fill="none" opacity="1" points="76.0,256.50628113676794 49.0,253.49371886299923" stroke="#4dd2ff" stroke-dasharray="none" stroke-linecap="round" stroke-linejoin="round" stroke-width="0.5"><title>2019-11-23 10.0km</title><desc>1574497580000</desc></polyline></svg>