<?xml version="1.0" encoding="utf-8" ?>
<svg baseProfile="full" height="300mm" version="1.1" viewBox="0,0,200,300" width="200mm" xmlns="http://www.w3.org/2000/svg" xmlns:ev="http://www.w3.org/2001/xml-events" xmlns:xlink="http://www.w3.org/1999/xlink"><defs /><rect fill="#222222" height="300" width="200" x="0" y="0" /><text fill="#FFFFFF" style="font-size:12px; font-family:Arial; font-weight:bold;" x="10" y="20">Over 10km Runs</text><text fill="#FFFFFF" style="font-size:4px; font-family:Arial" x="10" y="280">Runner</text><text fill="#FFFFFF" style="font-size:9px; font-family:Arial" x="10" y="290">Floyd Li</text><text fill="#FFFFFF" style="font-size:4px; font-family:Arial" x="65" y="280">SPECIAL TRACKS</text><rect fill="yellow" height="2.6" width="2.6" x="65" y="283" /><text fill="#FFFFFF" style="font-size:3px; font-family:Arial" x="70" y="285.5">Over 20.0 km</text><rect fill="red" height="2.6" width="2.6" x="65" y="287" /><text fill="#FFFFFF" style="font-size:3px; font-family:Arial" x="70" y="289.5">Over 40.0 km</text><text fill="#FFFFFF" style="font-size:4px; font-family:Arial" x="120" y="280">STATISTICS</text><text fill="#FFFFFF" style="font-size:3px; font-family:Arial" x="120" y="285">Number: 29</text><text fill="#FFFFFF" style="font-size:3px; font-family:Arial" x="120" y="290">Weekly: 1.7</text><text fill="#FFFFFF" style="font-size:3px; font-family:Arial" x="141" y="285">Total: 427.1 km</text><text fill="#FFFFFF" style="font-size:3px; font-family:Arial" x="141" y="290">Avg: 14.7 km</text><text fill="#FFFFFF" style="font-size:3px; font-family:Arial" x="167" y="285">Min: 10.0 km</text><text fill="#FFFFFF" style="font-size:3px; font-family:Arial" x="167" y="290">Max: 52.6 km</text><polyline fill="none" opacity="1" points="34.873692096211016,31.90701006470772 36.52846982318442,32.50626535604533 37.564978948794305,33.447948570290464 38.274169403128326,34.860464976402 38.45601310930215,35.95194801033358 38.146878808620386,37.77107300161151 36.25570426369086,40.21081434388179 36.455732340575196,49.17767502913193 36.63757604686543,49.58427720681357 39.619812829303555,51.10367794067133 40.9654562555952,51.55307591924793 42.38383716426324,51.531676038648584 42.67478709423449,51.80987430526875 42.85663080052473,63.044477076793555 42.201993457973,63.451050727439 38.25598503253423,64.02881184501166 33.0734394043684,64.19999999999709 28.654637342551723,63.94321771198884 21.162676645210013,62.85188926612318 13.252475423389114,62.78769328760973 12.943341122707352,54.827230346854776 13.12518482899759,52.4090692417667 28.727374825044535,51.80987430526875 32.746120733208954,49.66987755871378 32.49153954430949,40.296418756232015 30.727655593771487,38.24190262396587 30.127571363118477,36.55119103376637 30.14575573382899,35.78073538414901 31.05497426504735,33.40514488516783 32.327880208729766,32.356451703599305 33.94628919439856,31.8642060457787 36.63757604686543,32.484863412668346 37.54679457808379,33.40514488516783 38.310538144316524,34.860464976402 38.47419747989625,35.95194801033358 38.146878808620386,37.685467495190096 36.29207300499547,40.232215450465446 36.51028545247391,49.32747592875967 39.69255031191278,51.167877714455244 42.420205905567855,51.531676038648584 42.71115583542269,51.85267400385055 43.05665887740906,62.552307854391984 42.83844642993063,63.172868846319034 38.47419747989625,63.98601478312048 32.29151146754157,64.17860148876207 28.60008423065301,63.9218191728869 21.035386050818488,62.809091949427966 13.852559654042125,62.894686573636136 13.252475423389114,62.59510522677738 13.052447346504778,52.516068146331236 13.979850248317234,52.25927067792509 28.545531118870713,51.83127415574563 32.746120733208954,49.60567729829927 32.52790828573052,40.168012123787776 30.727655593771487,38.15629732151865 30.200308845727704,35.45971131004626 31.3095554538304,33.1483225798147 32.78248947439715,32.142432003092836 33.83718297071755,31.90701006470772 35.25556387938559,31.992618074757047 36.67394478817005,32.54906923591625 37.310397760011256,33.04131318742293 38.23780066182371,34.71065310899576 38.45601310930215,36.46558499877574 38.11051006743219,37.81387574088876 36.29207300499547,40.039605407917406 36.51028545247391,49.34887604799587 39.65618157049175,51.12507786763308 42.765708947437815,51.788474452492665 43.02029013610445,62.65930126789317 42.765708947437815,63.25846331297362 39.09246608114336,63.94321771198884 33.52804867003579,64.19999999999709 28.272765559493564,63.900420631529414 21.0717547921231,62.85188926612318 13.307028535287827,62.809091949427966 13.070631717098877,52.49466837006912 15.925577905261889,52.17367144761374 28.872849790146574,51.788474452492665 32.76430510368664,49.52007691859035 32.473355173831806,40.14661101029196 30.473074405104853,37.578460560005624 30.218493216321804,36.70100150560029 30.309415069408715,34.903268346213736 31.618689754395746,32.84869613508636 32.40061769122258,32.29224581779272 34.58274216623977,31.79999999998836 36.273888634401374,32.3136477820226 37.09218531253282,32.9129018400854 38.07414132624399,34.175609798170626 38.45601310930215,35.33130153444654 38.36509125621524,37.17183367779944 37.41950398380868,38.883941210020566 36.328441746300086,39.91119860862091 36.21933552250266,41.60188144938729 32.78248947439715,41.66608431012719 32.346064579323865,39.84699517764966 31.236817971337587,38.94814495393075 30.200308845727704,36.85081186394382 30.32759944011923,34.903268346213736 30.927683670655824,33.640565038484056" stroke="#ffc200" stroke-dasharray="none" stroke-linecap="round" stroke-linejoin="round" stroke-width="0.5"><title>2026-05-27 20.2km</title><desc>1779879632000</desc></polyline><polyline fill="none" opacity="1" points="80.19999999995343,50.80388253314595 79.98703316401225,51.647118193235656 79.97735285328235,52.91195900249295 76.50212130264845,57.19635174098221 75.97938452340895,59.11059845396812 59.1259635494207,59.11059845396812 52.75631909171352,59.63473135778622 52.5723931879038,59.50939546627342 52.12709889450343,57.78886039984354 51.420436211512424,56.17084809510561 48.332417089899536,52.17128830290312 47.867762175097596,50.79248741036281 47.81936062144814,49.44785424770089 48.409859575738665,47.73854997649323 50.220077681471594,45.51641287220991 50.89769943233114,44.17171222109755 52.069017030182295,37.5049337421151 72.89136540185427,37.08326002927788 77.17974305339158,36.36527116580692 77.83800418284955,37.93800228074542 78.09937257244019,39.03206221926666 78.21553630114067,43.84123230908881 79.42557514185319,47.749945430317894 80.19031968922354,50.906438582838746 79.97735285328235,51.78385847381287 79.94831192109268,53.00311811260326 76.51180161337834,57.19635174098221 75.92130265908781,59.178963763508364 59.6390200178721,59.09920423137373 52.727278159582056,59.64612552235485 52.56271287717391,59.50939546627342 52.165820137423,57.845832210332446 51.507559008081444,56.307582492423535 50.713773528521415,55.08836117348983 49.27140723034972,53.515886634188064 48.342097400687635,52.19407824839436 47.848401553637814,50.63295556146477 47.79999999998836,49.766921300230024 47.935524350148626,48.878089245386946 48.332417089899536,47.87529534096393 50.336241410230286,45.35687301636062 50.9364206752507,44.04635789403255 52.02061547653284,37.516330305457814 72.60095608007396,37.09465663834271 77.2668658500188,36.35387447763787" stroke="#4dd2ff" stroke-dasharray="none" stroke-linecap="round" stroke-linejoin="round" stroke-width="0.5"><title>2026-05-26 19.0km</title><desc>1779792854000</desc></polyline><polyline fill="none" opacity="1" points="91.77937279024627,55.47907332943578 89.52273002662696,51.51871693292924 88.55559741379693,47.305483487740275 88.50186782411765,44.01909817061096 89.27199194184504,39.616097647260176 90.34658373403363,37.08801411188324 92.19129964383319,34.83377863209171 93.64199856319465,33.590777820922085 95.30761584104039,32.68485698020959 98.49557149107568,31.80000000000291 101.79098632035311,32.031748645051266 104.06553894700482,33.50650629246957 105.40877868712414,35.887162943181465 105.48041814006865,38.22565576141642 104.69238415907603,41.090797897282755 104.56701511668507,42.60762079805136 104.97894197027199,45.55696486517263 106.07144362560939,47.7268109308643 108.05943844106514,50.00196338497335 109.93997407739516,52.993327121890616 111.17575463827234,56.30062654663925 111.56977162871044,58.87059117543686 99.42688437760808,64.17893542980892 96.97323311888613,60.68218522502866 91.83310237980913,55.56333535723388 89.45109057391528,51.22379355634621 88.66305659292266,48.27453524527664 88.41231850814074,44.75643303169636 89.18244262586813,40.016374532773625 90.63314154522959,36.60346102209587 92.51367718155961,34.47562666919839 95.43298488343135,32.62165304343216 98.60303067031782,31.80000000000291 101.55815809872001,31.947476442423067 103.94016990449745,33.38009893150593 105.26549978158437,35.402606867282884 105.53414772963151,38.057116676834994 104.60283484309912,41.9756126908178 104.85357292788103,45.114566100543016 105.98189430963248,47.62147915549576 109.8146050350042,52.52987940753519 110.96083627990447,55.58440085852635 111.53395190241281,58.97591687183012 102.5611104380805,62.64121565692767 99.49852383043617,64.19999999999709 97.08069229801185,60.85070474585518 93.28380129917059,57.248568263690686 91.31371634686366,54.91030368904467 89.89883715391625,52.31922099131043 88.89588481455576,49.454243925152696 88.41231850814074,45.47269851130841 88.66305659292266,42.62868769966008 89.45109057391528,39.11048356392712 90.86596976686269,36.30851507319312 92.03011087502819,34.939117319416255 94.82404953462537,32.89553662131948 98.08364463748876,31.86320420326956 101.46860878262669,31.92640838607622 103.95807976776268,33.4222347275645 104.88939265429508,34.58096555015072 105.35504909756128,35.73968948243419 105.53414772963151,37.53043109810096 104.60283484309912,42.12308143246628 104.88939265429508,45.367365517580765 106.01771403604653,47.66361187242728 108.02361871476751,50.02302948728902 109.74296558217611,52.635208530307864 110.81755737424828,55.142024854023475 111.58768149197567,58.786330577291665 99.40897451434284,64.09467712622427 96.9553232556209,60.724315118888626 92.15547991741914,55.96357949178491 89.6122793428367,51.708310296497075 88.71678618260194,48.400932945354725 88.44813823455479,44.94603297364665 89.236172215431,39.72143374943698 90.43613305001054,36.94054155993217 92.209209506982,34.79164314120135 94.68077062896919,33.00087635645468 97.47470928856637,31.98961254832102 101.1641411081655,31.86320420326956 103.49242332449649,33.00087635645468 105.10431101277936,35.107659100787714 105.53414772963151,37.63576832776016 104.58492497983389,42.20734923479904 104.88939265429508,45.304165694033145 105.69533649843652,47.15801866744005 108.36390611552633,50.402218939882005 110.17280229902826,53.47783946328855 111.1399349119747,56.27956112282118 111.56977162871044,58.74420026464213 99.46270410402212,64.13680628256407 97.33143038291018,61.10348375380272 92.1196601910051,55.90038310413365 89.77346811152529,52.045364709731075 88.64514672977384,48.063872229584376 88.44813823455479,44.440432718532975 89.18244262586813,39.88997139460116 90.07793578587007,37.57256599677203 92.01220101176295,34.939117319416255 94.91359885060228,32.87446866744722 97.72544737334829,31.92640838607622 100.8596734337043,31.821068070072215 103.5103331876453,32.958740469272016 105.05058142310008,35.02338822837919 105.51623786636628,37.1301491062477 104.60283484309912,41.51213877616101" stroke="#ffb000" stroke-dasharray="none" stroke-linecap="round" stroke-linejoin="round" stroke-width="0.5"><title>2026-05-24 23.2km</title><desc>1779623970000</desc></polyline><polyline fill="none" opacity="1" points="123.30070100579906,39.353264614930595 123.34020115818566,39.38034327882633 123.41261810424476,41.17904877377623 123.44882657726703,41.440136208164404 123.8092654678403,42.548265072415234 124.08412069491169,43.64085573661214 124.29314233465266,44.278975293598705 124.43468454739923,44.55355309746119 124.87741542213189,45.18583954652968 124.97122828406282,45.3927296690963 125.0288326729642,45.607351484373794 125.05187442852912,45.86450758070532 125.03870771106449,46.05978907503413 124.74739408716414,47.005230855733316 124.70131057604158,47.37836699022046 124.70624809509172,47.75342866565006 124.91197805547563,49.53389821067867 125.18189576348959,50.69371837563631 125.17366656506783,50.83675768032117 125.0288326729642,51.2156130435651 125.00743675709236,51.42243377695013 125.11441633648064,52.518350679627474 125.2954587016211,53.06145229936919 125.22468759524781,54.52445942353734 125.25760438889847,54.673265899526086 125.33989637305785,54.83753135943152 125.74312709539663,55.21630246872883 125.8336482779705,55.37476556714137 125.85339835417108,55.59120071515645 125.75135629381111,56.01440120618099 125.81225236208411,56.32937958621005 125.93075281926576,56.49362992871647 126.1381286193282,56.62502912340642 129.68985065528977,57.94476488928922 129.9564766839394,58.01239149501271 130.493020420603,58.07035695484956 131.06906430966774,58.01239149501271 133.89003352636792,57.21438135732751 134.2833892106064,57.14288719684555 134.7508076805825,57.14095491829721 138.04742456568056,57.41147189677031 138.569155745201,57.41147189677031 139.12380371837935,57.316791416787964 139.77391039316717,57.11197071517199 140.1639743980486,57.0327469884669 143.62352941176505,56.7873444511697 143.9938433404459,56.70425464484106 144.4513867723217,56.51488574584255 144.7459920755864,56.33131195189162 145.0916184090238,56.03565758934565 145.69399573300325,55.33611615961672 146.25522706492484,54.76989282227623 146.8263334349249,54.10702170114564 147.09954282231047,53.68570899358201 147.48960682718462,52.80053363904335 147.66571167326765,52.54734228362213 147.86485827492288,52.38885427792593 149.17659250228462,51.60799054144991 149.4382810118841,51.36444689540258 149.5304480341365,51.20981429713356 149.60451081987412,51.0010581802635 149.7723864675354,50.3438471728623 149.87936604693095,49.71947446485137 149.95013715330424,49.46817282797383 150.1278878390658,48.97715795437762 150.46199329472438,48.269608998582044 150.45705577567423,48.23287755466299 150.6874733313016,47.79789422162321 150.82736970435508,47.59876500550854 151.3754343187975,46.99943075104238 151.59926851569617,46.699756128629815 151.81816519353742,46.25893534399438 152.07491618408676,45.52421000427421 152.09960377933749,45.50680825044401 152.20000000000437,45.54741231648404 152.09466626028734,45.44106813945655 152.04858274916478,45.47780528995645 151.7243523316065,46.38460903807936 151.66181042365497,46.365274680814764 151.59926851569617,46.25120154949582 151.69966473635577,46.41941082874109 151.6354769887257,46.53541631085318 151.59926851569617,46.54895023498648 151.0034745504454,46.28407015312405 149.9073453215533,45.976649688367615 149.5189271563504,45.91091129634515 147.52252362084255,45.825837726131795 145.31874428527954,45.62281962426823 143.73380067053222,45.62281962426823 143.13306918622402,45.589949811070255 142.4401706796707,45.47780528995645 140.52605912831496,45.00215005795326 139.99774459007313,44.90160343729076 139.33776287717046,44.851329915945826 138.17086254190508,44.909337812707236 137.89765315452678,44.87840029107247 137.21462968607375,44.67150424574356 136.0592502285872,44.38919364863432 135.94074977140554,44.33505138329383 135.81402011581667,44.236434694998024 135.70868637610693,44.08947548836477 135.49801889667287,43.19609233652773 135.2593721426456,42.766788522352726 135.10960073148453,42.608214248113654 134.91703748857253,42.5115219303425 134.75245352026832,42.48638184245101 133.420969216706,42.58114045160437 133.2777811642809,42.571471228679 133.13953063090594,42.52312503595749 132.97823834197334,42.407093642443215 132.87125876257778,42.263987224674565 132.69350807681622,41.73989858124514 132.5964035355064,41.532966381140795 132.41042365133035,41.33570168994447 132.17836025601719,41.21192665961644 130.4749161840955,40.7303563149253 127.88436452300812,40.31453217231319 125.37116732702998,39.33585688084895 125.22633343492635,39.312646542493894 123.41920146296616,39.287501975404666 122.59957330082398,39.30490975637076 122.27698872294422,39.264291574529125 122.12721731179772,39.20819964850307 121.92313319109962,39.08247572936489 121.31252666869841,38.54281998244187 120.17854312709824,38.03022871091525 119.80000000000291,37.92964304515044 119.8082291984174,37.962526882514794 120.16043889058346,38.053440707575646 121.30758914964827,38.573768420810666 121.99225845777983,39.163712823934475 122.26711368485121,39.287501975404666" stroke="red" stroke-dasharray="none" stroke-linecap="round" stroke-linejoin="round" stroke-width="0.5"><title>2026-05-23 52.6km</title><desc>1779516240000</desc></polyline><polyline fill="none" opacity="1" points="180.1718859571265,41.5141236531781 176.7828763963189,41.599897456602775 176.40024628455285,39.77719613818044 175.16125354194082,38.640679763877415 174.21378850343172,36.60351144448214 174.28667042951565,35.273979763282114 175.03371017135214,33.51555318104511 176.1451595434919,32.46477862189931 177.78500287933275,31.82144450650958 179.26086188165937,31.842889010731596 180.42697269830387,32.336111966040335 181.57486303336918,33.27966550018755 182.23080036777537,34.39476842447766 182.50410759041552,35.85297046387859 182.3219027753221,37.2682739370066 181.4473196627805,38.76934232242638 180.46341366134584,39.60564691478794 180.281208846136,40.44194797464297 180.5909570318181,49.44804323249264 184.56302200094797,51.37786749537918 186.40329063346144,51.442194646879216 186.74947978218552,51.785272435459774 187.0774484493304,62.398947890731506 186.78592074511107,63.192270480969455 183.72487985156476,63.81406164103828 179.29730284458492,64.1571179972525 171.80868494417518,63.81406164103828 164.10142126551364,62.74200669808488 157.48738647752907,62.91353587892081 157.2322997363517,62.48471264823456 156.9225515506696,55.21601762980572 157.2322997363517,52.32133029009856 172.61038613051642,51.828157117182855 176.70999447023496,49.55525618496176 176.52778965514153,40.05596330908884 174.50531620753463,37.61137628562574 174.19556802196894,35.9816348340828 174.3231113924412,34.909429194172844 175.2887969124131,33.150999373960076 176.40024628455285,32.271778606809676 177.58457758266013,31.82144450650958 179.40662573371083,31.9072225093405 181.41087869973853,33.022333164160955 182.46766662737355,35.123870786716 182.3219027753221,37.311161763063865 181.61130399641115,38.66212352947332 180.53629558731336,39.58420325144834 180.2994293277152,40.33473008751753 180.51807510585058,49.10496139455063 180.75494136544876,49.53381359913328 184.23505333380308,51.29209792750771 186.7677002636483,51.72094539535465 186.93168459716253,63.04218266707903 184.01640755566768,63.79262059906614 177.16550650796853,64.17855899975984 172.24597650032956,63.85694371811405 164.84846100735012,62.76344785379479 157.61492984800134,62.87065359762346 157.28696118085645,62.5919185429957 156.94077203213237,54.74429368998972 157.141197328805,52.32133029009856 172.0819921666989,51.87104178966547 173.77649694716092,51.399309881497175 176.74643543327693,49.51237101091829 176.49134869209956,40.09885053131438 174.72396198567003,38.1474725149601 174.21378850343172,35.4669768516178 174.74218246724922,33.88010631679208 175.90829328389373,32.59344519411388 177.0926245818846,31.971555987067404 178.29517636157107,31.79999999998836 180.8278232915327,32.572000771193416 182.28546181228012,34.45910109386023 182.37656421982683,37.09672253971803 181.72062688542064,38.44768576929346 180.3905317352619,39.79863978062349 180.2994293277152,40.420504401874496 180.4998546242714,49.25505977179273 184.08928948175162,51.20632832252886 186.71303881914355,51.63517597611644 187.0774484493304,61.434091808929224 186.8770231527742,63.08506491116714 183.70665936998557,63.83550268075487 177.56635710119735,64.19999999999709 172.8472523901146,63.92126681623631 165.23109111911617,62.78488900719094 157.2322997363517,62.82777130705654 157.0136539580999,52.38565713510616 172.9565752792405,51.785272435459774 176.52778965514153,49.72679678819259 176.80109687778167,49.36227282874461 176.81931735936087,47.79695643403102 176.5460101366043,40.52772224259388 176.36380532151088,39.86297069412831 174.90616680087987,38.40479818946915 174.3413318740204,37.2682739370066 174.21378850343172,35.53130917264207 174.4506547630299,34.523433742360794 175.36167883849703,33.06522191003023 177.47525469365064,31.885778012132505 179.26086188165937,31.885778012132505 181.1193509956356,32.722111682698596 182.26724133070093,34.45910109386023 182.50410759041552,36.62495543072873 181.84817025600933,38.3619106002152 180.3905317352619,39.755752493365435 180.33587029064074,41.364019407730666 180.0807835495798,41.55701055955433 176.65533302573022,41.44979327615874 176.454907729174,39.927301586649264 174.760402948712,38.10458487001597 174.3231113924412,36.96805889418465 174.2320089850109,35.53130917264207" stroke="#ffb600" stroke-dasharray="none" stroke-linecap="round" stroke-linejoin="round" stroke-width="0.5"><title>2026-05-17 22.3km</title><desc>1779013233000</desc></polyline><polyline fill="none" opacity="1" points="41.771945556422,79.76962204803567 41.7823218574631,80.12324625017209 41.33095276221866,81.47675295444787 41.13899119294365,82.60465048194237 41.13380304243765,83.57401472138008 41.26869495594292,84.94572820214307 41.180496397137176,85.74435496260776 40.350392313848715,87.78049740011556 40.04429143315065,89.18868481070604 39.260880704561714,91.12107546006155 39.10004803843913,91.26737364386281 38.09354683748097,91.27346939333074 36.47484387506847,91.84037122430527 35.981969575659605,91.80379708391774 35.15705364290625,91.49901166185009 34.8924579663726,91.7306487322312 34.3477021617291,92.80957733719697 33.756253002386075,93.41913243278395 30.68486789430608,90.03601879824782 28.479903923143866,89.67636059709548 28.163426741375588,89.53615423873998 28.018158526800107,89.34717990204445 28.033722978376318,88.46935535812372 27.935148118500365,88.39620269842271 26.648486789432354,88.3169538770926 22.881889511598274,88.4205869288271 22.606917534023523,88.29866567179124 21.999903923133388,87.7987857728076 20.97265012009302,87.48788263372626 20.692489991983166,87.15868921366564 20.235932746203616,86.00040085169167 20.012842273834394,84.67138816529405 18.762497998395702,84.20805530620055 17.621104883903172,84.29950288141845 15.068534827849362,84.87866742703409 12.49002401920734,84.53116941077678 12.344755804631859,84.61042353209268 12.215052041632589,84.85428167092323 11.820752602099674,86.13451966472712 11.872634107276099,86.3722749614426 12.889511609304463,87.82317026051533 15.836381104891188,88.39620269842271 16.739119295438286,89.14601297953413 16.920704563643085,89.84095022692054 17.45508406724548,91.11497969420816 17.574411529232748,91.95618917973479 18.279999999998836,94.94299146658886 18.316317053628154,95.48547538549246 18.835132105683442,98.13077195735241 19.22943154524546,98.8134090819076 19.61335468373727,99.05111114948886 21.268374699779088,99.62402998200923 23.011593274626648,100.73937661973832 24.697742193733575,100.83689222167595 25.382578062446555,101.37322503180985 25.922145716584055,101.4280769647994 26.793755004007835,101.83641746326975 29.84957566051162,102.20209302344665 30.041537229757523,102.05582308260637 30.145300240197685,101.81203900865148 30.492906325060176,100.60529239293828 30.674491593264975,99.04501623714168 30.622610088059446,98.82559895579107 30.321697357896483,98.61837074296636 30.30094475581427,98.52085132164939 30.50328262610128,97.96620641979098 30.64855084064766,97.80164040409727 30.653738991182763,96.91175662830574 31.042850280209677,95.7414772278753 31.743250600469764,94.82717961979506 33.19593274619547,93.87629444855702 34.259503602894256,92.93758445155618 34.93396317053703,91.66359599351927 35.17780624498846,91.48682021085551 35.53578863089206,91.6148303154987 35.203746997605776,91.48072448436506 34.918398718960816,91.67578740646422 34.35289031226421,92.79738616835311 33.73031224979786,93.40084587537058 30.73674939951161,90.06649820182065 28.220496397145325,89.56663391139955 28.023346677335212,89.32889202952356 27.981841473199893,88.40229875702062 27.525284227362135,88.31085780931244 22.830008006392745,88.40839481495641 22.041409127268707,87.81097801796204 20.988214571669232,87.48788263372626 20.656172938353848,87.10382345754624 20.2048038430803,85.9150523506687 20.043971176928608,84.70796691368378 18.783250600477913,84.20195879591847 18.456397117697634,84.17147623474375 17.24236989588826,84.35437135564644 15.011465172137832,84.86647455029743 12.4173899119196,84.53726588558493 12.256557245797012,84.74454563845939 11.799999999988358,86.21986783484681 12.868759007193148,87.82926638080608 15.867510008014506,88.4205869288271 16.72874299439718,89.1277250420535 16.884387509984663,89.74951160274941 17.46027221775148,91.18812884121871 17.538094475574326,91.8586582856442 18.259247397916624,94.83937035166309 18.81437950360123,98.07591683131614 18.91814251401229,98.38676184318683 19.281313050421886,98.84388376170682 19.639295436354587,99.04501623714168 21.252810248202877,99.63012483205239 23.01678142513265,100.72718715767041 23.348823058448033,100.80032389060216 24.70811849477468,100.82470278062101 25.39295436348766,101.37931969364217 25.797630104061682,101.38541435484149 26.902706164924894,101.87298512549751 29.61092073659529,102.21428216812274 29.906645316252252,102.17771472618551 30.06747798237484,102.03753931347092 30.26462770215585,101.52559138121433 30.5344115292246,100.35540730520734 30.68486789430608,99.08768060980219 30.638174539635656,98.82559895579107 30.363202562031802,98.64884552771036 30.321697357896483,98.53304125849536 30.456589271401754,98.04544173831164 30.66411529222387,97.7467849592831 30.64855084064766,96.8995663425303 31.042850280209677,95.7414772278753 31.520160128100542,95.04661239192501 33.356765412318055,93.76657590136165 33.9897197757964,93.21797997660906 34.337325860688,92.84005524780878 34.913210568454815,91.71236162955029 35.14667734186514,91.49901166185009 35.987157726165606,91.80989277561457 36.516349079262,91.846466912084 38.01572457965813,91.30394813076418 39.19862289831508,91.30394813076418 39.44246597276651,91.21251186923473 39.587734187341994,91.035734678273 39.69149719775305,90.49930396166383 40.189559647697024,89.30450819033649 40.44896717375377,87.83536250043107 41.16493194553186,86.14671226834253 41.32576461168355,85.54317523728969 41.413963170547504,84.6652917049214 41.35689351480687,82.50710347559652 41.709687750204466,80.93413478464208 42.06767013610806,80.05008280342736 44.20000000001164,76.11131096963436 43.90946357086068,75.97107100454377 43.904275420325575,75.7088823113736 43.426965572463814,75.38571783187945" stroke="#ff6800" stroke-dasharray="none" stroke-linecap="round" stroke-linejoin="round" stroke-width="0.5"><title>2026-05-16 35.3km</title><desc>1778887035000</desc></polyline><polyline fill="none" opacity="1" points="80.19999999995343,82.90913905570778 79.67029972752789,82.71428244006529 78.98610354226548,83.28586094760249 79.21784741140436,84.33807788991544 78.99713896459434,85.14347227080725 78.96403269754956,86.75424479618232 75.09059945499757,91.4695270261218 74.38433242507745,93.82060396030283 55.74550408718642,93.74266844728845 47.79999999998836,94.47006459824479 47.92138964572223,94.88571755994053 57.213215258845594,94.18430235103733" stroke="#4dd2ff" stroke-dasharray="none" stroke-linecap="round" stroke-linejoin="round" stroke-width="0.5"><title>2026-05-12 15.2km</title><desc>1778590468000</desc></polyline><polyline fill="none" opacity="1" points="108.37428725499194,80.60924015840283 108.15535164054018,82.24111000036646 104.67062644287944,82.30552563957463 104.43344619381242,80.73807247637887 102.73669518134557,78.76263440036564 102.18935614521615,76.89453898055945 102.42653639416676,75.241152487215 103.37525739043485,73.7595346934686 105.63759207364637,72.62147292628651 107.4803001624532,72.68589169133338 108.64795677317306,73.13682246046665 110.03454899834469,74.81169919391687 110.49066486186348,76.2718365953624 110.28997388191056,78.07552089028468 108.33779798599426,80.71660042917938 108.55673360032961,90.0996635172778 112.0961927017197,92.03204699739581 114.35852738493122,92.24675511056557 114.81464324845001,92.65469988487894 115.08831276651472,102.93892507835699 114.96060032479,103.75476979619998 114.23081494309008,104.22709941462381 109.46896532760002,104.89265287661692 105.27269938285463,105.0 100.62031757447403,104.72089735831833 92.51969983766321,103.60448286352039 85.27657992439345,103.5400741432386 84.91168723348528,96.49792787568003 85.09413357893936,93.1485266466334 100.4196265945211,92.59028760783258 101.97042053064797,91.98910534691822 104.70711571199354,90.31437372283835 104.54291400115471,81.23192891971848 104.32397838658653,80.52335189987207 103.33876812132075,79.64299510476121 102.46302566328086,78.26877180569863 102.15286687610205,76.61539677386463 102.62722737411968,74.83317188070214 104.30573375208769,73.07240384195757 105.52812426642049,72.64294585028256 106.84173795336392,72.60000000000582 108.97636019485071,73.45891523903992 110.36295242013875,75.64913225408236 110.41768632386811,77.5601841948228 109.81561338377651,79.08471803842986 108.35604262037668,80.58776809721894 108.21008554415312,82.28405376210867 104.76184961560648,82.36994125787169 104.36046765570063,80.54482396796811 102.9373861614149,79.17060692020459 102.18935614521615,77.23809807986254 102.37180249055382,75.49882401661307 103.22930031409487,73.97426259609347 105.21796547912527,72.72883752304188 107.69923577690497,72.7717833455099 108.88513702224009,73.39449672517367 109.65141167293768,74.18899026609142 110.52715413097758,76.44361675903201 110.01630436372943,78.71968987578293 108.39253188949078,80.50187982941861 108.17359627503902,82.21963811590103 104.76184961560648,82.34846938739065 104.39695692469832,80.65218427362561 102.973875430529,79.21355134708574 102.26233468321152,77.5601841948228 102.33531322143972,75.670604850151 103.08334323775489,74.081626460189 104.79833888472058,72.8791478608473 106.98769502982032,72.62147292628651 109.04933873307891,73.54480655823136 109.88859192200471,74.59697219842928 110.4541755928658,75.97122095065424 110.36295242013875,77.86079742999573 109.70614557655063,79.19207913479477 108.37428725499194,80.69512837965158 108.22833017876837,82.24111000036646 104.85307278833352,82.39141312600987 104.46993546292651,80.71660042917938 103.02860933402553,79.19207913479477 102.22584541421384,77.23809807986254 102.51775956677739,75.06937128154095 103.55770373577252,73.60922502324684 105.74705988087226,72.60000000000582 107.73572504601907,72.7717833455099 109.1223172711907,73.60922502324684 110.4541755928658,75.88533068279503 110.39944168925285,77.64607373709441 109.59667776932474,79.34238457208266 108.37428725499194,80.54482396796811 108.30130871676374,82.19816622916551 104.81658351921942,82.39141312600987 104.32397838658653,80.50187982941861 103.19281104498077,79.47121771337697 102.35355785593856,77.94668684201315 102.18935614521615,76.22889153112192 102.84616298868787,74.18899026609142 102.9373861614149,74.40371770359343 103.6671715429984,73.54480655823136 104.85307278833352,72.85767496246262 107.42556625884026,72.7073646083154 109.17705117492005,73.56627938218298 109.83385801839177,74.40371770359343 110.49066486186348,76.2074189955456 110.4541755928658,77.32398776175978 109.90683655650355,78.89146791839448 108.319553351379,80.65218427362561" stroke="#4dd2ff" stroke-dasharray="none" stroke-linecap="round" stroke-linejoin="round" stroke-width="0.5"><title>2026-05-11 15.3km</title><desc>1778503630000</desc></polyline><polyline fill="none" opacity="1" points="147.7555527780205,93.3531266193022 142.83741335058585,98.57659860374406 141.9977310092654,104.64706750086043 130.42211016151123,104.43530790973455 129.88231437071227,99.35305708140368 123.58469681092538,92.0119581388426 122.62505984934978,83.40017897891812 123.94456067169085,79.7295499931206 126.82347155595198,76.20007954741595 132.16145215416327,73.16471967560938 138.339115093695,72.81176993565168 145.11655113426968,76.05890033213655 148.9550989801064,81.84722308494383 149.55487208114937,87.77667113370262 147.8755073985085,92.85901223710971 142.4775494900532,99.21188288147096 141.8177990789991,104.57648097816855 130.54206478153355,104.57648097816855 129.70238244044594,99.14129576995037 125.98378921486437,95.4707554425695 123.16485564014874,90.8825509622111 122.44512791931629,84.74136518203886 123.10487833013758,81.70604509289842 126.88344886596315,75.98831071308814 134.2006806973368,72.67058998637367 140.97811673767865,73.51766922441311 147.99546201853082,78.88247882941505 149.43491746112704,84.24724427028559 149.37494015065022,88.62373073661001 146.6159838864114,94.83546751807444 142.65748142031953,98.71777294122148 142.17766293953173,104.43530790973455 131.08186057256535,104.92941351537593 129.70238244044594,99.00012152449926 126.28367576515302,95.89428038161714 122.8649690898601,90.459022766212 122.56508253957145,83.89430053270189 124.30442453222349,79.23542528151302 128.98265471914783,74.50592694379156 132.28140677441843,73.09412974282168 137.19954620185308,72.67058998637367 142.71745873056352,74.29415755852824 145.17652844428085,76.12948994344333 149.1950082203839,82.62370149453636 149.6748267011717,86.5060796647449 148.59523511934094,91.8001944423886 142.83741335058585,98.36483704007696 142.4775494900532,104.08237510506297 131.14183788280934,105.0 129.64240513020195,99.070708650921 124.12449260172434,93.07077558961464 122.3251732988283,86.64725661720149 123.34478757041506,81.00015467405319 126.70351693569683,75.91772108606528 134.38061262783594,72.60000000003492 141.0980713579338,73.58825911110034 146.0162107856013,76.90597516583512 148.41530318930745,80.57662005559541 149.61484939116053,85.23548571887659 148.05543932854198,92.85901223710971 142.5375268002972,98.92953438998666 142.17766293953173,104.50589444767684 131.08186057256535,104.92941351537593 129.7623597504571,99.35305708140368 123.94456067169085,92.85901223710971 122.44512791931629,88.62373073661001 123.46474219043739,80.9295655899914 126.5835623156745,76.41184831329156 133.18106642598286,72.81176993565168 139.77857053582557,73.16471967560938 145.65634692506865,76.6236170103075 149.49489477090538,83.32959015504457 148.59523511934094,91.30607888277154 146.31609733612277,95.25899286998902 142.65748142031953,98.85894724813988 142.17766293953173,104.43530790973455 130.90192864229903,104.85882702330127 129.7623597504571,99.21188288147096 125.74387997412123,95.3295804017107 122.92494639987126,90.3884347070125 122.50510522932746,83.75312298408244 124.66428839229047,78.52953218627954 127.78310851729475,75.14123468630714 131.441724433098,73.23530960065546 137.19954620185308,72.67058998637367 142.83741335058585,74.22356774820946 148.17539394879714,79.80013920698548 149.55487208114937,83.61194540490396 149.25498553039506,89.54137739748694 147.0358250567224,94.553117130592 142.65748142031953,98.92953438998666 142.65748142031953,103.65885548695223 141.69784445897676,104.64706750086043 130.42211016151123,104.43530790973455 129.4624731997028,98.85894724813988 124.84422032302245,94.34135425969725 122.92494639987126,90.52961081796093 122.3251732988283,86.29431417922024" stroke="#4dd2ff" stroke-dasharray="none" stroke-linecap="round" stroke-linejoin="round" stroke-width="0.5"><title>2026-05-10 11.2km</title><desc>1778422578000</desc></polyline><polyline fill="none" opacity="1" points="181.36512629513163,72.60000000000582 182.5686766623985,74.37062449259975 182.79434235626832,75.56578735138464 182.51226023887284,77.38065091782482 181.6848193614278,78.81925082881935 180.5376854176866,79.85946291673463 180.74454563693143,89.57523076614598 184.3363912642235,91.5448859311 187.1760179119883,92.09815643890761 187.47690550377592,103.56158436449186 186.83751937106717,104.13695183338132 185.4083033100469,104.40250550355995 178.6007215452846,105.0 172.47013686213177,104.69018825687817 164.98555801587645,103.58371391244873 156.69234376656823,103.4730661486683 156.48548354720697,92.89486333887908 159.87046895513777,92.49651027715299 172.1880547448527,92.25307191268075 173.6924927039072,91.81045596173499 176.90822884137742,89.86293438980647 176.85181241796818,81.96200309655978 180.4060470961267,81.82921172516944 180.78215658594854,89.73014815233182 184.2235584172886,91.52275507968443 187.1760179119883,92.12028722808463 187.51451645267662,102.72065976596787 187.27004528441466,103.89352733264968 183.84744892746676,104.64592939810245 177.73566971882246,105.0 172.8838573009707,104.73444710609328" stroke="#4dd2ff" stroke-dasharray="none" stroke-linecap="round" stroke-linejoin="round" stroke-width="0.5"><title>2026-05-10 11.3km</title><desc>1778397813000</desc></polyline><polyline fill="none" opacity="1" points="32.06271405384177,113.59121532497375 31.246919889526907,113.4591030400079 30.898138326519984,113.44867309965412 25.684149537119083,113.43824315593156 24.826974509400316,113.39999999999782 24.25946552550886,113.41042995612588 24.135322935297154,113.4556263935956 24.108720951684518,116.98075289095505 23.99344568932429,117.31447266388204 24.028915000817506,119.35147873737515 23.96388792975631,128.29400907037052 24.00231301720487,131.26850950435983 23.937285946143675,143.44511354304996 23.9668437056971,144.7580360529355 24.13236715934181,144.86918047794097 27.51377485494595,144.90738628556574 27.569934598141117,144.95948504119224 27.575846150066354,145.04978935158942 27.448747783884755,145.79999999999927 27.59358080579841,145.06715553612958 27.525597958781873,144.011274514236 27.56106727027509,143.48679444432855 27.756148483473225,142.72610951508614 29.157186287426157,139.91940893421997 29.872484069186612,138.7834594099295 30.351319774330477,138.15814901009435 30.268558047522674,138.07824736268594" stroke="#ffbb00" stroke-dasharray="none" stroke-linecap="round" stroke-linejoin="round" stroke-width="0.5"><title>2025-11-09 21.3km</title><desc>1762645227000</desc></polyline><polyline fill="none" opacity="1" points="70.38972952612676,139.96671377372695 70.44944662414491,144.95663655915996 58.74489534297027,145.65943950257497 57.61027047410607,139.75587112107314 52.83290260378271,135.04703402653104 50.38450157060288,129.0028049882967 50.74280416080728,123.52078112470917 53.78837617789395,117.89814443374053 59.76008601533249,114.10283712338423 67.16500621358864,113.68113494070712 72.89784765779041,116.42219422897324 77.37663003592752,123.30993312812643 77.13776164222509,131.1815452009323 74.45049221534282,135.96069165691733 70.68831501784734,139.404466547654 70.38972952612676,145.16747752222 59.22263212990947,145.65943950257497 57.66998757212423,139.61530931451125 51.339975144481286,132.30605341604678 50.444218669086695,126.61321053694701 51.69827773491852,121.20144939346937 56.535362703260034,115.64907611487433 63.8805658032652,113.39999999996508 70.86746631306596,114.94624066649703 73.79360413341783,117.54672802286223 76.95861034700647,122.60710597777506 77.61549842916429,126.61321053694701 77.07804454374127,130.68957224383485 75.40596578922123,134.76590834266972 70.56888082134537,139.54502839990892 70.38972952612676,145.02691688766936 61.0738621794153,145.79999999998836 58.6254611464683,145.44859869935317 57.968573063844815,140.10727550426964 53.13148809573613,135.32815958815627 51.3996922429651,132.30605341604678 50.50393576733768,126.4023635450867 51.81771193165332,121.0608835677267 57.01309948996641,115.36794202681631 64.53745388519019,113.47028374654474 71.10633470653556,115.01652424572967 75.82398547814228,120.21748797263717 77.25719583919272,123.66134641767712 77.37663003592752,130.1975989138591 75.40596578922123,134.69562690285966 70.74803211609833,138.98278080817545 70.44944662414491,144.95663655915996 58.924046638188884,145.65943950257497 57.78942176885903,139.75587112107314 53.13148809573613,135.39844095951412 50.80252125905827,129.7056252109469 50.683087062323466,124.08304211392533 53.43007358768955,118.46041029546177 58.56574404775165,114.52453903196147 65.73179585277103,113.61085121711949 70.86746631306596,115.08680781710427 76.36143936333247,120.99060064327205 77.5557813309133,125.48869245586684 76.89889324875548,131.60323600983247 74.56992641207762,135.67956636904273 70.56888082134537,139.47474747756496 70.33001242764294,145.02691688766936 66.98585491883568,145.65943950257497 58.68517824471928,145.58915924240137 57.849138867342845,139.75587112107314 53.43007358768955,135.7498477025074 51.57884353795089,132.5168984894408 50.683087062323466,124.01275951694697 55.10215234220959,116.77361124876188 61.551598966354504,113.68113494070712 69.73284144396894,114.66510627389653 75.40596578922123,119.58494055701885 77.49606423242949,125.34812755876919 77.01832744549029,131.2518270215951 74.390775116859,136.03097295982298 70.68831501784734,139.26390466513112 70.44944662414491,145.02691688766936 66.74698652513325,145.58915924240137 58.6254611464683,145.44859869935317 57.90885596582666,139.8261520130909 53.31063939095475,135.67956636904273 50.86223835777491,130.68957224383485 51.2802580462303,122.1854093222064 55.8187575226184,116.21134392550448 61.133579277899116,113.75141865678597 67.88161139423028,113.96226975950412 72.0618082806468,115.85992660082411" stroke="#4dd2ff" stroke-dasharray="none" stroke-linecap="round" stroke-linejoin="round" stroke-width="0.5"><title>2025-11-01 10.0km</title><desc>1761964262000</desc></polyline><polyline fill="none" opacity="1" points="93.8389071833808,140.14072720572585 88.5493835946545,134.90585621388163 86.32537935837172,128.75129206234124 86.86635336186737,122.59666991425911 89.6313316016458,118.21058195480146 93.1176085122861,115.31008825323079 99.72951299836859,113.40000000002328 105.13925303239375,114.39041682862444 108.44520527520217,116.1590145722148 112.83310552500188,122.24295423534932 113.67462064139545,128.53906467813067 111.81126574077643,134.62288901925785 106.5217421518173,139.92850352200912 106.22120103915222,145.58777815516805 94.50009763194248,145.72925939282868 93.59847429324873,139.85776227881433 89.21057404321618,136.10846542427316 87.34721914259717,132.64211522298865 86.56581224896945,124.57747417641804 90.11219738214277,117.85686390043702 96.18312786472961,114.17818477755645 103.03546524140984,113.96595265745418 109.28672039159574,117.14942721679108 112.8932137475349,122.59666991425911 113.73472886392847,128.75129206234124 111.81126574077643,134.55214720143704 106.641958597349,139.4333146585268 106.10098459408619,145.6585187779856 94.56020585470833,145.79999999998836 93.8389071833808,139.92850352200912 87.70786847826093,133.56176094693365 86.26527113607153,126.98272841819562 86.92646158440039,122.87964231951628 88.97014115308411,119.27173496875912 94.07934007397853,114.8856246797368 101.41254323092289,113.54148821043782 108.80585461086594,116.79570858774241 113.1336466378998,123.51632978289854 113.67462064139545,129.03426180122187 111.27029173751362,135.1888232861529 106.641958597349,139.50405594770564 105.86055170348845,145.79999999998836 94.62031407747418,145.79999999998836 94.01923185121268,139.85776227881433 89.751548046479,136.32069034926826 87.28711092006415,132.14692083530826 86.62592047126964,123.94078774715308 90.77338783070445,117.07868350623176 96.84431831352413,113.8952086022473 104.53817080636509,114.2489288020879 110.248451953521,118.4228126956732 113.25386308319867,124.64821707457304 113.43418775103055,129.74168561166152 111.63094107294455,134.76437263196567 106.58185037458315,139.78702102805255 106.34141748398542,145.37555624148808 105.56001059059054,145.72925939282868 94.56020585470833,145.79999999998836 93.59847429324873,139.78702102805255 89.51111515657976,136.32069034926826 87.28711092006415,132.35914704715833 86.62592047126964,124.15301662596175 90.65317138563842,117.29091461491771 97.32518409425393,113.8952086022473 105.25946947745979,114.4611608303967 110.18834373075515,118.13983835931867 113.31397130573168,124.57747417641804 113.37407952849753,130.519850917859 110.84953417931683,135.8962404304766 106.70206681964919,139.71627976954915 106.10098459408619,145.58777815516805 94.56020585470833,145.79999999998836 93.89901540614665,140.06998598540667 89.69143982417881,136.179207073641 87.28711092006415,132.35914704715833 86.80624513933435,123.72855879960116 90.47284671780653,117.64463297580369 97.80604987498373,113.6829763900605 105.49990236782469,114.31967281922698 110.42877662112005,118.21058195480146 113.37407952849753,124.506731270405 113.31397130573168,130.5905931723537 111.51072462787852,134.97659799375106" stroke="#4dd2ff" stroke-dasharray="none" stroke-linecap="round" stroke-linejoin="round" stroke-width="0.5"><title>2025-10-27 10.0km</title><desc>1761565093000</desc></polyline><polyline fill="none" opacity="1" points="147.63094737194479,134.48140537529252 142.40152917359956,139.71627976890886 142.40152917359956,145.02185289829504 130.6203111638315,145.51703752478352 129.77879559155554,139.71627976890886 124.91002692445181,135.11808152933372 122.50569671811536,129.9539126046584 122.44558846321888,123.87004477181472 125.3908929657191,117.85686390008777 132.30334230791777,113.61223230400356 140.8988227949012,113.89520860189805 143.72391078690998,115.38083215500228 146.9697565648239,118.91801748872967 149.61451979191042,125.56787405401701 147.99159690272063,133.56176094623515 142.46163742872886,139.5040559474146 142.28131266334094,145.02185289829504 130.5000946535729,145.51703752478352 129.71868733642623,139.71627976890886 125.6313259860035,136.1084654238657 122.68602148373611,130.59059317200445 122.62591322837397,123.23335765313823 125.15045994496904,118.49355626036413 131.58204324636608,114.03669670503587 138.37427607853897,113.54148821049603 143.18293649074621,115.31008825288154 145.64737495174631,117.36165830219397 149.61451979191042,124.50673126982292 149.4943032816518,129.246489024139 148.11181341321208,133.6325028714491 142.46163742872886,139.5040559474146 142.28131266334094,145.0925935821142 130.92085243947804,145.65851877751993 129.5984708261676,139.78702102752868 125.45100122061558,136.1084654238657 122.38548020785674,129.0342618006398 122.86634624912404,122.95038540131645 125.33078471035697,118.21058195462683 132.24323405278847,113.75372046825942 140.77860628440976,114.10744074510876 144.02445206278935,115.59306381526403 146.1883492481429,117.92760752618778 149.43419502628967,124.93118859041715 149.37408677162603,129.74168561090482 147.93148864759132,133.91547049529618 142.40152917359956,139.71627976890886 142.28131266334094,145.0925935821142 130.7405276738573,145.58777815493522 129.89901210181415,140.1407272052602 124.06851135194302,133.98621238209307 122.32537195272744,129.1050042163115 123.22699577989988,121.18180604849476 125.27067645499483,118.2813255424262 132.42355881840922,113.75372046825942 138.73492560954764,113.68297638994409 145.04629240045324,116.7249648385332 149.25387026113458,123.65781580127077 149.43419502628967,129.6002009101212 147.21018958603963,134.97659799299436 142.58185393898748,139.36257336154813 142.2212044079788,145.16333425824996 130.80063592921942,145.79999999998836 129.89901210181415,140.0699859848828 125.33078471035697,135.75475706235738 122.80623799399473,130.73207765806 122.68602148373611,124.01153071387671 125.21056820009835,118.49355626036413 130.6203111638315,114.46116083022207 136.81146144447848,113.39999999996508 143.7840190420393,115.59306381526403 148.3522464337293,121.04031949356431 149.67462804727256,125.709359628323 149.13365375064313,131.01504653855227 147.27029784116894,134.97659799299436 142.521745684091,139.36257336154813 142.34142091870308,145.23407492687693 130.5000946535729,145.37555624119705 129.838903846452,139.78702102752868 125.6313259860035,136.03772376687266 123.22699577989988,132.14692083455157 122.38548020785674,124.22375956975156 125.5712177308742,117.99835114489542 128.4564139782451,115.59306381526403 133.44539915560745,113.61223230400356 141.4999053464271,114.39041682856623 144.80585937970318,116.65422108216444 147.27029784116894,119.83768253738526" stroke="#4dd2ff" stroke-dasharray="none" stroke-linecap="round" stroke-linejoin="round" stroke-width="0.5"><title>2025-10-19 10.0km</title><desc>1760866141000</desc></polyline><polyline fill="none" opacity="1" points="165.552440561587,139.37659860408166 159.5547108517494,132.88254602259258 158.29518761276267,126.03548571886495 161.41400706209242,118.27069111017045 167.83157785166986,114.10589951806469 175.02885350352153,113.75294985453365 181.44642429309897,117.2824378865771 184.98508482216857,123.0707568777143 185.4649031991139,128.92961276887218 183.2457432062365,134.92959132033866 178.5075367356185,139.2354242358124 177.84778646728955,145.3764809782151 166.51207731547765,145.4470675008488 165.79234975017607,139.9412957703462 161.77387084439397,136.34134295181138 159.25482436618768,132.10607888293453 158.5350968008861,124.12959015497472 162.0737573299557,117.70597516588168 169.2710329820402,113.54117996484274 176.16842214833014,114.0353096005856 182.10617456166074,117.9883331990568 185.34494860493578,123.91782363713719 185.52488049608655,129.35314247873612 183.48565239435993,134.6472406272078 178.447559438413,139.51777294132626 178.14767295285128,145.3764809782151 166.45210001827218,145.4470675008488 165.79234975017607,140.15305708145024 161.41400706209242,135.84723022859544 158.5350968008861,130.2707892387989 158.83498328668065,122.01192188006826 162.01378003298305,117.42361701047048 164.35289461980574,115.72946550755296 171.31026108330116,113.39999999996508 178.5675140323583,115.16474736132659 182.16615185840055,118.05892268836033 184.9251075249631,122.29427804768784 185.34494860493578,130.34137739764992 183.48565239435993,134.78841598896543 178.62749132956378,139.58836009859806 178.5075367356185,145.164721364039 167.83157785166986,145.79999999998836 166.45210001827218,145.4470675008488 165.6124178590253,139.72953439014964 161.17409787350334,135.35311713069677 158.4151422069408,129.42373073700583 158.2352103155572,124.62371176225133 161.41400706209242,118.27069111017045 163.99303083727136,115.94123468635371 168.67126001091674,113.89412974292645 175.74858106859028,113.89412974292645 180.96660591638647,116.85890033218311 185.4649031991139,124.05900132335955 184.9251075249631,131.32961081835674 183.2457432062365,134.92959132033866 178.3875821409747,139.16483704023995 178.20765024982393,145.164721364039 166.81196380103938,145.51765401603188 165.552440561587,139.65894724824466 160.15448382287286,134.15312661946518 158.35516490996815,129.56490723026218 158.5350968008861,123.84723478276283 161.05414327932522,118.76481715991395 163.93305354029872,115.94123468635371 168.1314643372316,113.96471967548132 175.62862647441216,113.96471967548132 181.98621996701695,117.77656468586065 185.7647896844428,125.82371982041514 183.66558428574353,134.43547752685845 178.5075367356185,138.95307540812064 178.32760484423488,145.164721364039 166.3921227210667,145.51765401603188 165.67239515599795,139.9412957703462 160.33441571425647,134.3648898114334 158.35516490996815,128.85902445705142 159.25482436618768,121.87074375041993 162.37364381551743,117.3530274523655 167.2318048805464,114.2470793298562 174.90889890957624,113.68235989898676 179.4671734890435,115.72946550755296 183.54562969179824,119.89424672356108 185.4049259016756,125.11783299490344 185.34494860493578,129.91784833010752 183.00583401764743,135.14135426015127" stroke="#4dd2ff" stroke-dasharray="none" stroke-linecap="round" stroke-linejoin="round" stroke-width="0.5"><title>2025-10-16 10.0km</title><desc>1760611285000</desc></polyline><polyline fill="none" opacity="1" points="34.30633570323698,186.17181655595778 22.663869789103046,186.52863611205248 21.875577825820073,180.81950002815574 16.47880977159366,175.6098701871815 14.356485256459564,170.11473653884605 14.72031231597066,163.76316132495413 18.116031541256234,158.26792887138436 25.392572737764567,154.20000000001164 32.244649030966684,154.69957156502642 37.883968458743766,158.05382797808852 41.643514743307605,165.90414857515134 40.552033563843,173.75437563838204 34.54888707678765,180.31994826730806 34.30633570323698,186.17181655595778 22.603231945773587,186.59999999997672 21.754302139393985,180.81950002815574 16.66072330181487,175.82396537577733 14.477760942885652,170.61429603694705 14.65967447287403,164.04862669372233 18.35858291434124,157.76836001180345 26.12022685725242,154.20000000001164 34.124422173481435,155.05640816543018 40.24884434742853,161.40806731424527 41.582876899978146,166.26097910717363 40.24884434742853,174.25393237709068 34.42761139036156,180.31994826730806 34.42761139036156,186.02908867952647 22.663869789103046,186.52863611205248 21.875577825820073,180.96222903288435 16.114982712315395,174.9675842039287 14.477760942885652,170.18610220472328 14.72031231597066,163.8345276787295 18.176669384585693,158.12519494997105 25.21065920777619,154.342734771315 33.5180437406525,155.05640816543018 38.73289826489054,158.9815980134299 41.643514743307605,166.04688081116183 40.30948219075799,174.25393237709068 34.54888707678765,180.3913128276472 34.245697860373184,186.24318048282294 22.663869789103046,186.52863611205248 21.754302139393985,180.67677099216962 16.60008545848541,175.4671400230145 14.356485256459564,170.0433708652272 14.599036629544571,164.26272563904058 16.72136114514433,159.62389958038693 23.815988811664283,154.7709389005904 31.213805694831535,154.4141021455289 34.73080060677603,155.6273463240359 38.12651983159594,158.5533966208459 41.643514743307605,166.18961301626405 41.52223905688152,170.4715647904086 40.06693081744015,174.61075838719262 34.48824923322536,180.60540646256413 34.42761139036156,186.24318048282294 22.724507632199675,186.59999999997672 21.875577825820073,180.89086453424534 17.206463891547173,176.4662505243905 14.417123099323362,170.54293041746132 14.72031231597066,163.54906221741112 17.812842324841768,158.5533966208459 24.90746999112889,154.4141021455289 32.97230315068737,154.84230622829637 38.42970904824324,158.91023113409756 41.52223905688152,165.9755146971438 40.43075787741691,173.6830103591201 37.762692771619186,177.67945409647655 34.48824923322536,180.46267738030292 34.48824923322536,186.02908867952647 22.724507632199675,186.52863611205248 21.693664296064526,180.60540646256413 16.781998988473788,175.96669546305202 14.477760942885652,170.61429603694705 15.084139375947416,162.05036651558476 17.50965310819447,158.91023113409756 25.0893835213501,154.342734771315 32.91166530735791,154.7709389005904 38.73289826489054,159.26706545380875" stroke="#4dd2ff" stroke-dasharray="none" stroke-linecap="round" stroke-linejoin="round" stroke-width="0.5"><title>2025-10-08 10.1km</title><desc>1759919017000</desc></polyline><polyline fill="none" opacity="1" points="75.50579794193618,175.6111206462374 70.62637577787973,180.21938283520285 70.44565643859096,186.10373200656613 58.63865959760733,186.38731376320357 58.0362617992796,180.92834336904343 54.18091589235701,177.3835330196889 51.470125801395625,173.2715289645712 50.56652910425328,165.3310342366458 53.819477213546634,158.73751451796852 60.144654092611745,154.83808987995144 66.40959119214676,154.341797805042 73.57812498835847,157.74493590532802 77.31299133575521,163.913078612939 77.67443001456559,169.44308817503043 75.86723662074655,174.97305101691745 70.56613599834964,180.36117500328692 70.02397798001766,186.17462745739613 58.698899377603084,186.5291045953054 57.915782239986584,180.71565528947394 51.470125801395625,173.5551162805059 50.50628932449035,166.18180613656295 53.75923743378371,159.02110813115723 59.96393475309014,154.90898871712852 66.28911163238809,154.341797805042 73.39740564883687,157.53224029229023 77.13227199669927,163.3458955033566 77.73466979456134,169.30129364167806 75.50579794193618,175.6111206462374 70.56613599834964,180.50296714087017 70.14445753954351,186.24552290025167 58.578419817611575,186.45820918306708 57.49410378141329,180.21938283520285 53.819477213546634,177.0999473623815 51.168926902348176,173.05883839708986 50.50628932449035,165.89821562590078 53.57851809472777,159.30470162129495 56.95194576308131,156.18516647239449 59.96393475309014,154.90898871712852 67.25294810929336,154.41269669577014 74.18052278622054,158.52481922792504 76.71059353812598,161.99883364822017 77.67443001456559,169.51398543012328 75.80699684098363,175.0439476732281 70.62637577787973,180.21938283520285 70.14445753954351,186.17462745739613 58.81937893712893,186.59999999997672 57.85554246022366,180.57386319799116 54.6025943509303,178.16339294367936 51.89180425973609,174.33498076559044 50.44604954496026,166.32360134558985 53.09659985615872,159.87188823265024 58.93985849642195,155.26348278758815 66.40959119214676,154.341797805042 72.7950078509748,157.03595026012044 76.65035375813022,161.92793557915138 77.61419023526832,169.51398543012328 75.68651728122495,175.32753422111273 70.74685533787124,180.0066945248982 70.20469731953926,186.17462745739613 58.698899377603084,186.45820918306708 57.97602201998234,180.92834336904343 52.554441837826744,175.3984308387735 50.26533020543866,167.1743719553342 51.470125801395625,162.63691592519172 54.06043633283116,158.45392078225268 58.63865959760733,155.33438157872297 62.43376572523266,154.20000000001164 67.31318788882345,154.62539332243614 72.97572719026357,157.31954461039277 76.52987419860438,161.78613941773074 77.55395045527257,170.29385473008733 75.80699684098363,175.11484432168072 70.56613599834964,180.50296714087017 70.02397798001766,186.10373200656613 59.0000982764177,186.59999999997672 57.915782239986584,180.64475924766157 53.27731919521466,176.39098268188536 51.10868712258525,172.1371784727089 50.44604954496026,168.0960388679523 52.19300315901637,161.00625998107716" stroke="#4dd2ff" stroke-dasharray="none" stroke-linecap="round" stroke-linejoin="round" stroke-width="0.5"><title>2025-10-01 10.0km</title><desc>1759271073000</desc></polyline><polyline fill="none" opacity="1" points="106.64090550574474,180.20538990717614 106.4597899010405,186.17369459959446 94.86839120020159,186.52894911903422 93.60058196703903,180.48959612398176 88.95194811327383,176.08438593003666 86.77856085682288,171.6791461542016 86.23521404271014,167.06071785028325 87.62376701203175,161.73172171000624 92.75537581183016,156.18951979995472 99.7585125269834,154.19999999995343 106.33904616441578,155.47897770704003 109.23689583968371,157.46849362767534 111.9536299102474,161.0922392642242 113.76478595705703,166.4212405991857 112.73846419714391,173.1712468105834 110.50470507261343,176.79490570403868 106.64090550574474,179.99223516415805 106.52016176912002,185.88949084543856 102.3545028611552,186.45789823064115 94.4457881222479,186.38684733456466 93.72132570366375,180.7027507055318 89.19343558629043,176.43964591331314 86.59744525211863,171.75019864330534 86.8993045934476,163.57911194121698 89.13306371774524,159.4580035143299 92.27240086602978,156.54479055776028 97.88698461186141,154.34210875729332 106.33904616441578,155.47897770704003 111.9536299102474,160.87907831021585 113.64404222089797,165.6396564457682 113.52329848450609,170.8265156839043 110.98768001841381,176.51069788675522 106.64090550574474,180.34749303077115 106.097558691632,186.24474551877938 94.56653185910545,186.38684733456466 93.84206944028847,180.7027507055318 87.02004832983948,173.2422991382191 86.23521404271014,168.9791458629188 86.77856085682288,163.6501653076266 90.52161668753251,158.03692563943332 97.70586900715716,154.41316312440904 105.4938400092069,155.26581492897822 109.78024265356362,158.25008751702262 113.28181101125665,164.50280510575976 113.58367035235278,170.5423052808037 111.04805188672617,176.22648994647898 106.58053363743238,180.27644147298997 106.58053363743238,185.81843988777837 105.8560712186154,186.31579643045552 94.56653185910545,186.38684733456466 93.78169757174328,180.7027507055318 89.79715426824987,177.07911339821294 87.20116393454373,172.8159850575612 86.41632964741439,165.28439061366953 90.09901360957883,158.32114146085223 97.58512527053244,154.41316312440904 106.82202111044899,155.6921404157183 111.65177056891844,160.59486359736184 113.64404222089797,166.06597519019851 113.16106727486476,172.17651341680903 110.74619254563004,176.72385376138845 106.76164924213663,180.1343383337953 106.4597899010405,186.03159273788333 102.41487472923473,186.59999999997672 94.56653185910545,186.59999999997672 93.72132570366375,180.5606476587709 89.31417932244949,176.51069788675522 86.71818898874335,171.75019864330534 86.8993045934476,163.72121866652742 91.97054152493365,156.54479055776028 97.16252219327725,154.48421748389956 102.29413099284284,154.19999999995343 105.4938400092069,155.12370637181448 110.14247386297211,158.53430324589135 113.16106727486476,164.07648534525651 113.64404222089797,170.11598944553407 111.77251430554315,175.30281328980345 106.64090550574474,180.20538990717614 106.03718682331964,186.31579643045552 94.56653185910545,186.52894911903422 93.54021009919234,180.7027507055318 89.13306371774524,176.72385376138845 87.26153580262326,173.1001944753807 86.2955859110225,166.27913445868762 89.67641053209081,158.96062660822645 93.60058196703903,155.83424884971464 98.30958768934943,154.34210875729332 102.23375912453048,154.27105438249419" stroke="#4dd2ff" stroke-dasharray="none" stroke-linecap="round" stroke-linejoin="round" stroke-width="0.5"><title>2025-09-27 10.0km</title><desc>1758965825000</desc></polyline><polyline fill="none" opacity="1" points="142.33476068009622,180.81689383310732 142.39396405103616,186.46064865530934 130.55328988283873,186.46064865530934 130.07966291555203,180.6078649259871 125.99463032791391,177.4724231674336 123.09366515651345,172.5253617602284 122.9160550441593,164.3034008992836 126.46825729450211,158.58977298962418 128.95479886978865,156.0116559752496 131.9149674118962,154.89679136365885 138.90096517116763,154.89679136365885 146.597403380787,157.9626643966767 149.43916518124752,165.27889327530283 149.6167752938345,169.38988060760312 148.07748765172437,174.47632009768859 142.33476068009622,180.88657012052136 142.33476068009622,186.39097297179978 130.49408651166596,186.59999999997672 130.02045954507776,180.6078649259871 124.10012246086262,174.05825809494127 122.44242807733826,166.4634177433909 123.44888538168743,162.97951602272224 126.76427414896898,158.45041557739023 132.0333741537761,155.10582862532465 139.61140562128276,154.96647045837017 144.05165843456052,156.56908755667973 146.36058989726007,158.58977298962418 149.49836855195463,166.39373989403248 149.26155506866053,171.34084845421603 146.00536967231892,177.82080633967416 142.45316742174327,180.39883595093852 142.03874382609501,186.25162158190506 130.49408651166596,186.53032433136832 129.78364606155083,180.18980690772878 124.21852920250967,175.10341259243432 122.56083481898531,170.43504269002005 122.38322470639832,166.67245124664623 123.74490223568864,162.21305511204991 129.60603594896384,156.0116559752496 137.53928764211014,154.68775403365726 145.65014944714494,157.2658763541258 148.78792810207233,162.97951602272224 149.37996181007475,169.80794564436655 147.42625057231635,175.45179704780458 142.5123707926832,180.39883595093852 142.15715056750923,186.53032433136832 130.49408651166596,186.46064865530934 129.84284943249077,180.7472175383009 125.34339324850589,176.70597952441312 122.56083481898531,170.2956878435798 123.62649549427442,162.21305511204991 128.65878201578744,156.91748204967007 133.51345842471346,154.75743315112777 144.2884719176218,156.29037182655884 146.77501349314116,158.52009428711608 149.08394495607354,164.93050331104314 149.43916518124752,169.80794564436655 146.83421686384827,176.42727251863107 142.39396405103616,180.67754123586928 142.03874382609501,186.39097297179978 130.43488314095885,186.3212972805486 129.60603594896384,180.39883595093852 125.6986134739127,177.19371649378445 123.56729212333448,173.77954994211905 122.56083481898531,165.76663890859345 125.16578313615173,160.19238106085686 129.96125617413782,155.31486581935314 135.7631865167059,154.19999999995343 145.94616630137898,157.61427046952303 148.90633484348655,163.53694156609708 149.43916518124752,170.01697806076845 147.48545394302346,175.45179704780458 142.45316742174327,180.53818860842148 142.0979471965693,186.46064865530934 130.55328988283873,186.59999999997672 129.78364606155083,180.7472175383009 125.81702021532692,177.05436311167432 123.33047864004038,172.5253617602284 122.9752584148664,164.23372281581396 126.52746066567488,158.52009428711608 129.72444269107655,155.80261900782352 132.74381460389122,154.61807490856154 144.7028955137357,156.29037182655884" stroke="#4dd2ff" stroke-dasharray="none" stroke-linecap="round" stroke-linejoin="round" stroke-width="0.5"><title>2020-04-24 10.0km</title><desc>1587724293000</desc></polyline><polyline fill="none" opacity="1" points="161.6543060259428,159.33415638300357 158.82471451163292,165.43958608066896 158.88366433465853,170.98992621415528 161.06480779359117,176.12394801946357 166.07554276683368,180.70290572370868 167.01873993850313,186.59999999997672 178.33710599527694,185.76747233432252 178.16025652573444,180.4947719926131 183.28889114549384,175.36078521958552 184.8805363723077,170.92054725938942 184.7626367257908,165.92524276243057 182.99414202943444,161.13803939614445 177.86550740967505,155.93451689486392 174.85906642582268,154.963188012538 170.3199300384149,155.1019493714557 162.12590461154468,159.05663546861615 158.29416610277258,168.00662437040592 159.7089618598111,173.97321416332852 166.07554276683368,180.84166150685633 166.78294064546935,186.3918681849027 178.27815617248416,185.90622702043038 178.27815617248416,180.56414991052588 183.58364026155323,174.66700006724568 185.7058338969946,167.798486514017 183.05309185246006,159.75043752940837 183.7015399078373,158.9178749662242 181.1077476865612,159.33415638300357 176.98126006149687,156.42018078366527 170.3788798614405,154.7550459173508 163.18700142926537,158.01593096833676 159.06051380443387,164.53765126614599 159.65001203655265,173.97321416332852 165.89869329705834,180.70290572370868 166.37029188289307,186.2531136039761 177.8065575864166,186.04498167638667 178.21920634899288,180.21726024593227 183.1120416757185,175.56892061867984 184.99843601882458,169.53296658437466 184.23208831693046,163.98261382593773 180.8129985705018,158.43221297115088 173.6211201385595,154.963188012538 168.5514353418257,155.44885263772449 162.06695478828624,158.5015932788956 158.70681486511603,164.9539290307439 159.2373632742092,172.79377640248276 161.47745655640028,176.67897493898636 165.6628940042574,180.56414991052588 166.25239223637618,186.18373630236601 177.8065575864166,186.04498167638667 177.86550740967505,180.56414991052588 182.99414202943444,175.4301636935561 184.70368690253235,170.0186201626202 183.76048973132856,163.35819613095373 180.28245016164146,158.29345233371714 177.3349590008147,156.14265860652085 172.50107349734753,155.1019493714557 169.31778304371983,155.17133003968047 163.4817505455576,157.18336615036242 159.47316256677732,162.66439797804924 158.29416610277258,166.61903738311958 159.47316256677732,173.9038355316734 162.47960355086252,177.92778374959016 165.72184382751584,180.3560161345522 166.42924170615152,186.3224908983102 177.86550740967505,186.11435899330536 177.86550740967505,180.56414991052588 183.40679079201072,174.73637861636234 184.8805363723077,167.03531379502965 183.1120416757185,161.41555940906983 177.39390882407315,155.656994507357 172.6189731436316,154.19999999995343 163.59965019184165,157.32212702877587 159.5910622132942,163.42757590475958 158.47101557231508,167.7291072133812 159.82686150609516,174.2507286152686 165.95764312054962,180.98041725967778 166.60609117592685,186.11435899330536 178.10130670270883,185.76747233432252 178.04235687945038,180.77228361892048 183.34784096851945,174.8057571578538 184.82158654904924,166.75779621716356" stroke="#4dd2ff" stroke-dasharray="none" stroke-linecap="round" stroke-linejoin="round" stroke-width="0.5"><title>2020-04-16 10.0km</title><desc>1587033949000</desc></polyline><polyline fill="none" opacity="1" points="19.614901131018996,198.11273354612058 15.527541108429432,202.92329257330857 14.565809338819236,211.20020091068 17.270679941633716,217.07179023564095 22.19955526269041,221.8114684179891 22.620312911923975,227.3292593928636 33.92066120868549,226.8340749272611 34.58185180043802,221.88220962294145 38.909644765313715,217.42549875052646 41.49429889698513,211.12945854879217 41.073541247751564,205.11632978293346 37.64737181714736,199.03240198199637 35.48347533494234,197.05157604953274 30.554600014118478,195.21223230398027 25.625724692828953,195.56595265731448 18.53295288980007,198.537196062156 15.226999930571765,204.12592679378577 14.385484631871805,208.0875297394814 15.828082286985591,215.3032447891892 22.079338791314512,221.45776227873284 23.101178796729073,227.3292593928636 34.34141885815188,226.90481558814645 34.521743565099314,221.24553850322263 39.51072712149471,216.29363082925556 41.614515368128195,210.63426180084934 40.8331083052326,204.6918715427746 36.3249906336423,198.1834773182054 29.652976479614154,195.35372046852717 20.276091722771525,197.54678309586598 15.828082286985591,203.06477906700457 14.505701103247702,207.59233068523463 15.106783459428698,213.25172607187415 18.17230347590521,218.20365680824034 22.19955526269041,221.66998598532518 22.920854090014473,227.40000000002328 34.46163532929495,226.90481558814645 34.521743565099314,221.17479722941061 39.99159300653264,215.72769613313721 41.614515368128195,209.8560947246733 41.073541247751564,205.39930178958457 38.36867064470425,200.3057869093027 33.80044473754242,196.55636862764368 30.61470824945718,195.21223230398027 25.024642336880788,195.77818477741675 18.53295288980007,198.3957085874281 15.046675223857164,204.97484373336192 14.445592867676169,209.36089701158926 15.707865815609694,215.16176094661932 22.139447027118877,221.45776227873284 22.620312911923975,227.18777815520298 34.64196003624238,226.5511122068856 34.58185180043802,221.10405594750773 39.751160064013675,216.15214720118092 41.434190661413595,210.56351937778527 40.773000069428235,204.26741302682785 35.78401651280001,198.1834773182054 30.193950600223616,195.0000000000582 24.90442586573772,195.9196728192619 18.53295288980007,198.82017091935268 15.287108166376129,204.40889922948554 14.505701103247702,210.84648902452318 17.090355234919116,216.85956503503257 22.01923055551015,221.59924475749722 22.740529383299872,227.40000000002328 34.64196003624238,226.76333425857592 34.64196003624238,221.24553850322263 39.51072712149471,216.4351144268294 41.55440713278949,210.20980714686448 40.65278359828517,204.40889922948554 37.046289461199194,199.03240198199637 30.554600014118478,195.42446453904267 24.784209394361824,195.6366967050708 17.631329355295748,199.31537662493065 14.505701103247702,208.15827243070817 16.12862346484326,215.37398669897811 22.01923055551015,221.38702102779644 22.68042114772834,227.11703752505127 34.28131062258035,227.04629688692512 34.521743565099314,221.45776227873284 39.390510650351644,216.4351144268294 41.37408242560923,209.7853522170335 39.931484770728275,202.85254931502277 35.00260944990441,197.33455155062256 30.43438354274258,195.42446453904267" stroke="#4dd2ff" stroke-dasharray="none" stroke-linecap="round" stroke-linejoin="round" stroke-width="0.5"><title>2020-04-14 10.0km</title><desc>1586861907000</desc></polyline><polyline fill="none" opacity="1" points="51.15882244007662,205.51965826825472 51.21841027098708,211.34046238998417 53.1848086907994,216.4599215586204 58.368949979543686,221.36895397800254 58.90524045750499,227.0493593274732 70.346103991149,226.76884665264515 70.52486748388037,221.0884388423292 75.11313046352006,216.6703094257973 77.2582923762966,211.76124138257 76.54323840513825,204.25730830064276 72.49126590369269,198.22604670678265 64.9236113789957,195.42078961251536 59.858645751839504,196.19223652518122 54.07862615445629,198.85722787771374 50.98005894734524,206.4313539363793 51.575937256217,212.8131876680418 53.72109916899353,217.09108495467808 58.19018648681231,221.29882520542014 59.024416119325906,227.40000000002328 70.40569182229228,226.62859026977094 70.64404314570129,220.94818122911965 75.29189395625144,216.3196629427839 77.61581936152652,209.9378637726768 77.01994105242193,205.02874468441587 73.50425902893767,198.92735908110626 66.71124630584382,195.63118431618204 60.63328755367547,195.98184200370451 53.95945049240254,199.06762146478286 50.38418063847348,205.8703106001485 50.682119792792946,211.20020266494248 52.05263990373351,214.6365571807837 58.24977431748994,221.29882520542014 58.488125641364604,226.90910300525138 70.346103991149,226.62859026977094 70.46527965296991,221.36895397800254 75.8877722651232,215.54824001161614 77.31788020697422,210.2885137119447 76.90076539083384,205.4495277791284 72.43167807278223,197.80525891738944 66.89000979857519,195.56105275580194 60.15658490662463,195.91171048145043 54.37656530877575,198.57670298882294 50.50335630006157,207.7638299112441 52.41016688919626,215.05733403138584 58.19018648681231,221.5092115002917 58.54771347204223,226.90910300525138 70.10775266750716,226.69871846493334 70.346103991149,221.15856763761258 74.99395480146632,216.4599215586204 77.13911671424285,211.27033253118861 76.78158972878009,204.8183530344977 72.9083807200659,198.78709666675422 66.53248281311244,195.42078961251536 58.96482828841545,196.5428939088015 53.89986266172491,198.92735908110626 50.44376846915111,207.55343915015692 51.87387641100213,214.56642767897574 58.07101082475856,221.4390827428433 58.54771347204223,226.69871846493334 70.52486748388037,226.55846206698334 70.46527965296991,220.94818122911965 75.47065744874999,215.7586281748372 77.31788020697422,210.2885137119447 76.662414067192,204.53783072839724 72.1933267491404,198.22604670678265 63.13597645168193,195.0 56.223788066767156,197.17407672078116 51.81428857985884,203.13521737448173 50.62253196188249,208.18461122829467 51.09923460916616,212.9534470438375 52.41016688919626,215.47811060864478 58.19018648681231,221.29882520542014 58.72647696500644,226.9792311700876 70.2269283295609,226.69871846493334 70.2269283295609,220.87805241072783 74.51725215441547,217.16121418302646 77.13911671424285,210.21838373923674" stroke="#4dd2ff" stroke-dasharray="none" stroke-linecap="round" stroke-linejoin="round" stroke-width="0.5"><title>2020-04-13 10.0km</title><desc>1586775592000</desc></polyline><polyline fill="none" opacity="1" points="85.44517665961757,206.51541388878832 85.80980688938871,212.80946827848675 89.03070725267753,218.0306269635912 92.92009637085721,221.53521717322292 93.71012853528373,227.113914241374 104.40594861004502,226.8278283586842 105.43906759470701,225.96956996672088 105.43906759470701,221.1776067794999 110.30080399219878,215.67038225976285 112.06318343617022,212.02271476056194 112.48858537105843,203.36836419656174 111.51623809128068,200.3643482257612 114.79791016015224,195.78677380044246 113.5217043554876,197.50336792867165 109.45000012242235,199.36300653172657 102.03585211606696,195.42914946191013 95.04710604483262,195.929823481536 89.9422828273382,198.50471244263463 86.05289370915852,204.08360407996224 85.87057859427296,212.5948992301128 88.11913167848252,216.81474438193254 92.98086807574145,221.53521717322292 93.52781342039816,227.2569571362692 104.64903542981483,226.756306868745 105.43906759470701,221.03456256794743 110.30080399219878,216.24256356898695 112.36704196128994,211.3074834762956 112.06318343617022,205.15646245254902 109.20691330265254,199.64910431369208 102.27893893630244,195.42914946191013 95.41173627460375,195.64372408826603 88.96993554802611,199.36300653172657 86.41752393892966,203.58293624292128 85.44517665961757,207.44522115483414 86.47829564404674,214.4544953322038 88.05835997336544,217.3869246991817 92.73778125597164,221.46369510999648 93.46704171574675,227.2569571362692 104.64903542981483,226.8278283586842 105.5606110044755,220.89151832502102 109.5715435326565,217.31540218676673 111.75932491128333,213.52469793579075 112.42781366594136,207.73131543496856 110.84774933662266,201.7233095242991 107.2622187435627,197.71794188086642 101.06350483675487,195.42914946191013 94.56093240482733,196.00134831044124 89.57765259733424,198.8623351153219 87.14678439870477,201.79483372578397 85.262861544732,207.73131543496856 85.44517665961757,211.1644371264847 87.57218633359298,216.88626694859704 92.79855296085589,221.67826127639273 93.34549830574542,227.1854356926051 104.8313505447004,226.89934984088177 105.62138270935975,221.03456256794743 110.42234740196727,216.24256356898695 112.24549855128862,212.23728399479296 112.36704196128994,206.01474789559143 110.84774933662266,201.65178531524725 105.0136656598188,196.64507142239017 98.14646299812011,195.35762457089731 90.91463010665029,197.57489258726127 86.47829564404674,202.93921989452792 85.38440495473333,206.01474789559143 85.5667200696189,211.9511916670017 88.30144679313526,217.67301467206562 92.55546614108607,221.53521717322292 93.46704171574675,227.40000000002328 105.19598077470437,226.756306868745 105.25675247982144,221.32065096026054 110.84774933662266,215.38429141946835 112.36704196128994,209.87701858382206 110.96929274662398,202.51007531379582 108.41688113776036,198.7908105965471 104.95289395470172,196.14439794514328 97.9033761783503,195.0715249296627 90.67154328711331,197.71794188086642 86.47829564404674,203.01074396434706 85.20208983961493,208.37502711173147 87.20755610382184,215.95647297624964 92.85932466574013,221.46369510999648 93.34549830574542,227.2569571362692 105.07443736493587,226.756306868745 105.25675247982144,221.392173038912 111.0908361566253,215.38429141946835 112.61012878082693,209.66244858276332 110.72620592685416,201.93788210541243 105.13520906958729,196.502021896129 98.450321523007,195.0000000000582" stroke="#4dd2ff" stroke-dasharray="none" stroke-linecap="round" stroke-linejoin="round" stroke-width="0.5"><title>2020-04-12 10.0km</title><desc>1586649823000</desc></polyline><polyline fill="none" opacity="1" points="142.10775266774,227.25974375376245 130.66688913386315,227.0493593274732 130.07101082475856,221.0884388423292 124.70810604351573,216.5300508553628 122.50335630006157,211.05994290974922 123.8738764107693,202.85469433903927 129.11760553042404,196.5428939088015 133.22916586278006,195.0 142.88239446934313,196.47276244714158 146.87477913987823,199.20788381790044 149.55623153061606,206.4313539363793 149.43705586902797,212.0417605591938 147.17271829443052,216.95082647533854 142.46527965320274,221.29882520542014 142.0481648365967,227.18961561913602 130.6073013029527,227.11948747711722 129.95183516293764,221.22869642538717 125.1848086907994,217.09108495467808 123.0396467782557,213.65474346565315 122.32459280733019,207.48330888117198 125.7210991687607,200.18971944064833 129.95183516293764,196.61302536266157 136.98319920990616,195.0 145.6830225221347,198.01565284619574 149.01994105242193,204.95861414191313 149.73499502358027,210.07812377100345 147.6494209417142,215.9690162697807 142.346103991149,221.57934024976566 142.40569182205945,227.18961561913602 130.48812564113177,227.11948747711722 129.95183516293764,221.22869642538717 124.41016688896343,216.60018014430534 122.7417076237034,213.30409534962382 122.32459280733019,207.7638299112441 123.21841027098708,203.5560016995878 129.1771933613345,196.7532882479718 133.58669284824282,195.07013162097428 141.57146218954585,196.4026309780893 146.69601564737968,199.62867069570348 149.4966436997056,206.01057147973916 149.61581936152652,210.2885137119447 147.47065744898282,216.5300508553628 142.58445531479083,221.4390827428433 142.28651616047136,227.18961561913602 130.48812564113177,227.18961561913602 129.83265950134955,221.22869642538717 125.06563302897848,217.16121418302646 122.98005894734524,213.30409534962382 122.62253196188249,205.8703106001485 125.7210991687607,200.18971944064833 129.35595685406588,196.82341967901448 132.0374092448037,195.77144741395023 138.77083413675427,195.42078961251536 145.56384685984813,198.01565284619574 149.37746803788468,205.30926677776733 149.55623153061606,210.56903352646623 147.11313046352006,217.16121418302646 142.58445531479083,221.15856763761258 142.28651616047136,226.9792311700876 130.54771347227506,227.40000000002328 129.77307167020626,221.0884388423292 124.76769387442619,216.7404386997223 122.98005894734524,213.3742249882198 122.26500497641973,206.0807019083295 125.6615113383159,200.18971944064833 129.23678119224496,196.82341967901448 132.27576056844555,195.56105275580194 136.80443571717478,195.1402632345562 144.01456325664185,196.6831568091293 146.75560347829014,199.13775264535798 149.55623153061606,207.2729180289316 149.43705586902797,212.18202010192908 147.05354263237678,217.16121418302646 142.7632188075222,221.36895397800254 142.46527965320274,227.25974375376245 130.54771347227506,227.25974375376245 129.77307167020626,221.29882520542014 125.42316001444124,217.9326351924683 122.7417076237034,213.86513224436203 122.56294413097203,205.73004969005706 125.24439652170986,200.40011259459425 130.3689499795437,196.19223652518122 136.08938174624927,195.0 139.06877329177223,195.42078961251536 144.07415108731948,197.24420810642187" stroke="#4dd2ff" stroke-dasharray="none" stroke-linecap="round" stroke-linejoin="round" stroke-width="0.5"><title>2020-04-08 10.0km</title><desc>1586343893000</desc></polyline><polyline fill="none" opacity="1" points="178.19713307148777,227.25974375376245 166.45833292626776,227.18961561931064 165.74327911017463,220.94818122911965 161.3933683966752,217.44173102028435 158.77150440472178,213.16383605031297 158.53315313300118,207.34304832079215 159.84408512874506,202.57417118223384 165.20698874839582,196.9636825186899 170.33154109609313,195.21039484045468 175.03897871798836,195.70131586893694 181.29569960734807,198.57670298905578 184.27509050699882,204.1871776750777 185.5264346851036,210.56903352664085 182.78539505717345,217.58198939316208 178.37589652556926,221.43908274295973 178.137545253383,227.32987188058905 166.57750856224447,227.11948747711722 166.1008060183376,221.43908274295973 160.67831458058208,216.3196629427839 158.4735653148964,211.05994290980743 158.83109222282656,205.23913626605645 161.45295621454716,200.04945730004692 165.20698874839582,196.75328824785538 167.76926492224447,195.84157895151293 175.57526907976717,195.70131586893694 181.1169361534994,198.43644049891736 185.3476712310221,206.22096274257638 184.75179305113852,213.72487306647236 182.1895168775227,218.2131516954978 178.37589652556926,221.50921150034992 178.37589652556926,227.18961561931064 166.69668419845402,227.32987188058905 165.9816303823609,221.43908274295973 160.14202421857044,215.54824001179077 158.23521404294297,208.53526211722055 159.78449731087312,202.78456356137758 165.0878131124191,196.5428939088597 171.88082436379045,195.0 179.92517979326658,197.45460221765097 182.54704378498718,200.11958837427665 185.58602250297554,207.34304832079215 184.6326174151618,213.72487306647236 181.77240215125494,218.49366807664046 178.61424779775552,221.36895397817716 178.25672088982537,227.18961561931064 166.45833292626776,227.25974375376245 165.86245474638417,221.29882520559477 160.3803754907567,216.5300508555374 158.2948018608149,210.49890358449193 159.18861913098954,204.2573083008756 165.26657656626776,196.47276244743261 171.88082436379045,195.21039484045468 180.1039432475809,197.10394532763166 183.4408610551618,201.7326009819517 185.7051981391851,207.9040903808782 185.7647859568242,211.1300727914204 184.2155026893597,215.40798119833926 178.43548434367403,221.29882520559477 178.43548434367403,227.18961561931064 166.8754476525355,227.40000000002328 165.80286692851223,221.71959772659466 160.3803754907567,216.3897922548931 158.3543896789197,211.48072208481608 158.53315313300118,205.6599192240392 161.2741927606985,200.75076769926818 165.86245474638417,196.5428939088597 170.92741927620955,195.35065802949248 174.97939089988358,195.63118431624025 181.17652397137135,198.22604670672445 184.5134417791851,204.11704704142176 185.28808341315016,212.0417605593684 183.67921232734807,216.3897922548931 178.55465997965075,221.22869642550359 178.37589652556926,226.90910300525138 167.23297456046566,227.40000000002328 166.45833292626776,226.97923117032042 165.80286692851223,221.50921150034992 161.7508953048382,218.2131516954978 158.77150440472178,212.95344704389572 158.2948018608149,207.76382991136052 159.5461460389197,203.20534811442485 165.20698874839582,196.5428939088597 168.12679183017462,195.35065802949248 175.39650562568568,195.70131586893694 179.8060041575227,197.38447085494408" stroke="#4dd2ff" stroke-dasharray="none" stroke-linecap="round" stroke-linejoin="round" stroke-width="0.5"><title>2020-04-07 10.0km</title><desc>1586257895000</desc></polyline><polyline fill="none" opacity="1" points="34.46527825249359,268.0597437537508 22.845653743250296,267.7792311703088 22.07101210928522,262.2390827429481 17.60192575957626,258.5222477358184 15.099237403832376,253.4729282623739 14.741710495669395,248.07291802909458 17.840277031762525,240.70919512904948 21.89224865543656,236.7818420038675 25.407929916866124,235.87013162125368 31.307123898528516,236.4311843162286 37.08714224398136,239.0260467067128 41.437052957946435,247.86252710857661 40.72199914208613,254.94565050961683 38.04054733202793,259.01315169548616 34.703629524679855,261.958567637892 34.76321734231897,267.7792311703088 23.024417197098956,268.1298718805774 21.951836473308504,262.2390827429481 16.469757217681035,256.6988869126071 14.801298314007,252.28072208480444 15.218413039809093,245.82874468440423 17.95945266750641,240.70919512904948 24.514112647157162,236.5013158689253 30.234543174738064,236.15065802948084 37.3850813342724,238.8156528463005 41.01993823214434,247.16122354596155 40.30488441628404,255.36642767931335 37.623432605993,259.71444242075086 34.76321734231897,262.0988252055831 34.405690434388816,267.6389748327201 23.203180651180446,268.20000000001164 22.309363381238654,262.519597726583 17.482750123599544,258.4521185682388 15.099237403832376,253.3326688258676 15.218413039809093,245.82874468440423 17.482750123599544,241.41050568036735 21.951836473308504,237.27276244742097 26.480510641122237,235.87013162125368 30.890009172726423,236.01039484044304 37.980959514155984,240.07801498362096 40.84117477806285,245.2677001329721 41.01993823214434,253.54305796907283 38.27889860444702,258.59237689565634 34.524866070598364,262.1689539781655 34.405690434388816,267.70910300523974 23.143592833075672,268.0597437537508 22.24977556336671,262.2390827429481 16.827284125844017,257.4703094260185 14.860886131646112,252.63137118838495 14.980061767622828,246.88070190849248 17.89986484963447,240.919588374265 22.547714653192088,236.8519735186128 29.99619190278463,235.79999999998836 37.146730062086135,239.37670298904413 40.12612096196972,243.16377873480087 41.19870168576017,246.7404410438612 41.49664077628404,251.64955321978778 40.54323568800464,255.15603912860388 37.980959514155984,259.1534099013079 34.524866070598364,262.1689539781655 34.46527825249359,267.84935932746157 23.26276846928522,268.0597437537508 22.309363381238654,262.7299838847248 17.006047579459846,257.4703094260185 14.801298314007,252.2105922412593 15.15882522170432,245.9690057465341 17.60192575957626,241.12998155102832 21.117607021238655,237.76368251867825 24.394937011180446,236.5013158689253 31.90300207864493,236.22078961262014 35.89538588444702,237.48315680917585 39.11312805581838,241.62089869746706 41.258289504097775,246.45991922402754 41.13911386788823,254.31448424246628 37.86178387817927,259.50405528291594 34.703629524679855,262.44946899230126 34.16733916266821,267.84935932746157 23.08400501520373,268.20000000001164 22.07101210928522,262.3092115003383 17.542337941471487,258.2417310202727 15.15882522170432,253.75344704388408 14.503359223948792,249.5456525592017 16.17181812785566,243.58456356136594 21.653897383250296,237.48315680917585 26.36133500491269,236.08052643877454 30.472894446691498,236.22078961262014 36.25291279214434,238.04420810641022" stroke="#4dd2ff" stroke-dasharray="none" stroke-linecap="round" stroke-linejoin="round" stroke-width="0.5"><title>2020-04-02 10.0km</title><desc>1585825459000</desc></polyline><polyline fill="none" opacity="1" points="70.7051625221502,262.42930424475344 69.99624666082673,268.1304738537874 58.65359287848696,267.8523691939772 57.82652437360957,262.15119711501757 52.805037022335455,257.63193936937023 50.91459472524002,253.18217758013634 50.79644208168611,248.03710205934476 51.977968517458066,243.795860148035 55.46347150229849,239.48506096418714 61.489256324013695,236.28670737764332 67.81042275461368,236.7038848362281 71.41407838347368,238.0249449996627 74.01343654189259,240.24988228676375 76.90817630896345,246.92464787559584 77.26263424009085,252.76501083088806 75.31311562098563,257.7709939284832 70.35070459148847,262.22072390886024 70.1734756261576,268.20000000001164 58.594516556477174,268.0609477001126 58.06282966048457,262.3597774737282 53.750258170533925,258.95295646280283 51.505357943009585,255.47658985469025 50.56013679434545,247.6199319663574 53.573029205203056,241.15376085683238 61.13479839335196,236.3562369729625 67.1015068932902,236.5648257136927 71.6503836705815,238.09447440650547 74.3678944723215,240.66705716965953 76.90817630896345,246.78559096727986 77.38078688341193,251.93067651917227 74.8995813683141,258.11863019369775 70.58700987836346,262.15119711501757 70.35070459148847,268.1304738537874 58.53544023516588,267.8523691939772 58.06282966048457,262.568357764394 52.332426447886974,256.8671387571958 50.56013679434545,249.42766707763076 52.09612116077915,243.44821612571832 57.88560069538653,237.67729785171105 63.67508022999391,236.14764816465322 72.00484160124324,238.37259195913794 76.37648941320367,244.56067633419298 77.49893952696584,251.30492507386953 76.14018412586302,256.380446983967 70.35070459148847,262.3597774737282 70.29162826947868,268.0609477001126 58.71266920049675,268.0609477001126 57.70837173028849,262.22072390886024 53.750258170533925,258.81390215997817 51.2099763341248,255.05942459654761 50.56013679434545,248.38474359625252 53.80933449254371,241.15376085683238 60.721264141146094,235.79999999998836 66.33351471018977,236.42576656065648 73.77713125455193,240.5975280411658 77.20355791808106,246.85511942516314 77.43986320518889,252.13926019903738 74.48604711610824,258.81390215997817 70.52793355681933,262.15119711501757 70.11439930414781,267.9914215389872 58.771745522273704,268.1304738537874 57.88560069538653,262.0816703137825 53.750258170533925,258.8834293149994 51.6235105865635,255.82422736269655 50.61921311635524,248.31521530391183 53.21857127477415,241.9185801910935 58.18098230427131,237.1210620237398 62.49355379422195,236.14764816465322 68.57841493794695,237.1210620237398 71.53223102702759,238.0249449996627 73.9543602198828,240.66705716965953 77.20355791808106,247.13323318195762 77.5580158487428,252.41737166623352 74.72235240321606,258.39673907053657 70.58700987836346,262.42930424475344 70.11439930414781,268.0609477001126 58.65359287848696,268.0609477001126 58.06282966048457,262.3597774737282 53.63210552721284,258.39673907053657 50.73736575967632,252.55642735474976 50.44198415102437,248.45427188120084 51.91889219544828,243.72633135860087 57.41299012117088,237.60776839964092 62.90708804689348,236.07811854669126 69.70086505170912,237.5382389400038" stroke="#4dd2ff" stroke-dasharray="none" stroke-linecap="round" stroke-linejoin="round" stroke-width="0.5"><title>2020-03-23 10.0km</title><desc>1584960411000</desc></polyline><polyline fill="none" opacity="1" points="110.39743488607928,241.43187708378537 112.99679360748269,246.71606250148034 113.3512516154442,252.4173716661171 111.40173257398419,257.63193936948664 106.0848624620121,262.4988310082117 106.20301513094455,267.6437906200881 94.74220622261055,267.9914215388708 93.85606120387092,262.2207239087438 89.89794678729959,258.88342931494117 87.06228272733279,253.94698258279823 86.41244304692373,249.84483599546365 87.06228272733279,245.25596298539313 89.48441244498827,241.22328992479015 96.21911458694376,235.80000000004657 101.94951904146001,235.9390592884156 108.03438150300644,237.88588616315974 110.27928221714683,239.97176554769976 113.23309894604608,246.22936303185998 113.46940428437665,251.23539709777106 111.2245035704691,257.7014666525647 106.43932046950795,261.94261668861145 105.78948078909889,267.7828430100926 94.6831298880279,268.20000000001164 93.73790853493847,262.2902506949031 89.72071778355166,258.7443749969825 87.18043539649807,253.94698258279823 86.76690105465241,246.85511942510493 89.54348877980374,241.5709351519472 95.92373291426338,235.8695296481019 103.42642740579322,236.147648164595 108.92052652174607,238.51165068999398 112.70141193480231,244.699733724643 113.46940428437665,251.7220927719609 111.2245035704691,257.7014666525647 106.3802441349253,262.35977747366996 106.20301513094455,267.8523691940354 94.56497721886262,267.9914215388708 93.79698486952111,262.15119711495936 89.77979411836714,258.3272118626046 87.06228272733279,253.94698258279823 86.82597738900222,247.0637047541677 89.30718344147317,241.36234803823754 97.04618327110074,235.80000000004657 106.26209146576002,236.84294392884476 110.33835855172947,239.97176554769976 112.76048826938495,244.699733724643 113.46940428437665,251.44398100307444 111.40173257398419,257.42335747455945 106.43932046950795,262.35977747366996 106.26209146576002,267.9218953701784 94.56497721886262,268.13047385396203 93.73790853493847,261.94261668861145 89.30718344147317,257.9100484570372 87.29858806589618,254.36414856393822 86.88505372381769,246.15983450616477 89.60256511415355,241.22328992479015 95.98280924884602,236.28670737770153 102.48120605247095,236.28670737770153 108.50699217943475,238.3030625823303 110.39743488607928,239.83270713267848 113.17402261146344,246.4379485641839 113.5875569533091,251.79162069497397 110.92912189732306,257.9100484570372 106.43932046950795,262.4293042445788 106.20301513094455,267.9218953701784 94.50590088427998,267.9218953701784 93.73790853493847,262.0816703137243 87.53489340399392,254.71178667416098 86.70782472006977,251.65256484091515 86.9441300581675,245.8121917640674 89.89794678729959,240.87564450927312 96.75080159842037,236.56482571351808 104.90333577012643,237.05153251125012 110.5746638898272,240.04129474353977 112.87864093855023,244.49114762758836 113.52848061895929,251.93067651928868 111.04727456648834,258.3272118626046 106.55747313867323,262.15119711495936 106.55747313867323,267.8523691940354 94.3877482151147,267.9218953701784" stroke="#4dd2ff" stroke-dasharray="none" stroke-linecap="round" stroke-linejoin="round" stroke-width="0.5"><title>2019-12-13 10.0km</title><desc>1576239112000</desc></polyline><polyline fill="none" opacity="1" points="141.67940712487325,235.79999999999563 142.18449273874285,236.90964088604233 142.24061336257728,237.92680282913352 141.9936826179619,238.64013211809652 140.93861489120172,239.7233278752974 140.8824942674837,240.2252933788186 141.0845285130199,245.75998656990123 142.2742857367848,246.20909146917984 142.9814055962488,246.69782139252493 144.74359318235656,246.9091634556171 144.92317917844048,247.17334051959187 145.24867879628437,260.88334489246336 145.51805779029382,263.31347394543263 145.43948891712353,267.80380247398716 144.94562742795097,267.9886948128624 139.2100996793015,267.92266186682536 136.9877229782869,268.1999999999971 135.68572450696956,268.05472772313806 135.37144901388092,265.5850725575365 135.12451826932374,254.4247775460317 130.90424736228306,253.81720555983338 130.70221311674686,253.55304288292245 129.89407613454387,253.43416949172388 129.63592126517324,252.52280297769175 129.87162788503338,252.10013793571852 129.7481625127839,251.8227632060516 128.68187066126848,250.89817621915427 127.70537180779502,251.18876145582908 127.17783794441493,251.01705208145722 126.70642470475286,250.34342066349927 126.48194220970618,249.4188224645186 126.51561458397191,242.7218805885932 126.79621770279482,240.96502825005155 127.08804494637297,240.27813173269533" stroke="#4dd2ff" stroke-dasharray="none" stroke-linecap="round" stroke-linejoin="round" stroke-width="0.5"><title>2019-11-23 10.0km</title><desc>1574497580000</desc></polyline></svg>