<?xml version="1.0" encoding="utf-8" ?>
<svg baseProfile="full" height="300mm" version="1.1" viewBox="0,0,200,300" width="200mm" xmlns="http://www.w3.org/2000/svg" xmlns:ev="http://www.w3.org/2001/xml-events" xmlns:xlink="http://www.w3.org/1999/xlink"><defs /><rect fill="#222222" height="300" width="200" x="0" y="0" /><text fill="#FFFFFF" style="font-size:12px; font-family:Arial; font-weight:bold;" x="10" y="20">Over 10km Runs</text><text fill="#FFFFFF" style="font-size:4px; font-family:Arial" x="10" y="280">Runner</text><text fill="#FFFFFF" style="font-size:9px; font-family:Arial" x="10" y="290">Floyd Li</text><text fill="#FFFFFF" style="font-size:4px; font-family:Arial" x="65" y="280">SPECIAL TRACKS</text><rect fill="yellow" height="2.6" width="2.6" x="65" y="283" /><text fill="#FFFFFF" style="font-size:3px; font-family:Arial" x="70" y="285.5">Over 20.0 km</text><rect fill="red" height="2.6" width="2.6" x="65" y="287" /><text fill="#FFFFFF" style="font-size:3px; font-family:Arial" x="70" y="289.5">Over 40.0 km</text><text fill="#FFFFFF" style="font-size:4px; font-family:Arial" x="120" y="280">STATISTICS</text><text fill="#FFFFFF" style="font-size:3px; font-family:Arial" x="120" y="285">Number: 24</text><text fill="#FFFFFF" style="font-size:3px; font-family:Arial" x="120" y="290">Weekly: 1.6</text><text fill="#FFFFFF" style="font-size:3px; font-family:Arial" x="141" y="285">Total: 289.9 km</text><text fill="#FFFFFF" style="font-size:3px; font-family:Arial" x="141" y="290">Avg: 12.1 km</text><text fill="#FFFFFF" style="font-size:3px; font-family:Arial" x="167" y="285">Min: 10.0 km</text><text fill="#FFFFFF" style="font-size:3px; font-family:Arial" x="167" y="290">Max: 35.3 km</text><polyline fill="none" points="38.63827061650227,37.0498625339751 41.94139311448089,37.083737169898086 42.16044835865614,37.88994811844532 42.72538030424039,38.83841835151543 43.53242594076437,39.705578614986734 44.420176140905824,40.24754770637446 44.835228182550054,40.64724691818628 45.30216172937071,41.67019434543545 45.31369095275295,42.06311012558581 44.812169735785574,43.56700646367244 44.59887910328689,44.8202259386635 44.59311449161032,45.897297315816104 44.74299439549213,47.42142340555438 44.64499599681585,48.308786472738575 43.72265812649857,50.57116695885634 43.38254603682435,52.13581963728939 42.512089671741705,54.28292035879713 42.33338670936064,54.44547389635409 41.21505204163259,54.45224695131765 39.41649319452699,55.082137874625914 38.86885508405976,55.041499940860376 37.95228182544815,54.7028494718943 37.65828662930289,54.96022399454159 37.05300240192446,56.15903355561386 36.39583666931139,56.83631699515172 32.98318654924515,53.07730184567117 30.53322658126126,52.677681622168166 30.1815852682048,52.521896779548115 30.020176140911644,52.31192529433247 30.037469975970453,51.33656468997651 29.927942353882827,51.2552839569762 28.498318654921604,51.16722971105628 24.313210568448994,51.28237754631482 24.007686148921493,51.14690948294083 23.33322658124962,50.59148737295982 22.19183346675709,50.24603944064802 21.88054443555302,49.88026897391319 21.373258606879972,48.59328190505403 21.125380304263672,47.11660114238839 19.736108887096634,46.601786854509555 18.467894315428566,46.7033952714155 15.631705364299705,47.34691143321106 12.766693354671588,46.960802526256884 12.605284227378434,47.048862661053136 12.461168935144087,47.31981614864344 12.02305844676448,48.74230280842676 12.080704563646577,49.00647536033284 13.210568454785971,50.61858124819264 16.484867894323543,51.2552839569762 17.487910328258295,52.08840649154445 17.689671737374738,52.86055898864288 18.283426741400035,54.276147285625484 18.41601281025214,55.21082449176538 19.20000000001164,58.52949369938142 19.240352281805826,59.1322536092739 19.81681345074321,62.071472022453236 20.254923939181026,62.82995771640344 20.68150520414929,63.09407112482586 22.520416333078174,63.730647605407285 24.45732586068334,64.96992164732728 26.33082465970074,65.07827231614647 27.091753402724862,65.6741976607409 27.691273018426728,65.7351442529507 28.65972778221476,66.18885591791695 32.0550840672222,66.59516209589492 32.268374699749984,66.43263993940127 32.38366693354328,66.16176874611847 32.769895916746464,64.82093917310704 32.97165732586291,63.08729899999889 32.914011208951706,62.843502020718006 32.57966373098316,62.61324845091076 32.556605284218676,62.504893538342 32.7814251400996,61.888621425165184 32.942834267392755,61.70577029661581 32.94859887909843,60.7170105457335 33.380944755801465,59.416700100809976 34.159167333855294,58.40081386961174 35.77325860687415,57.34427479045917 36.955004003219074,56.30126368267884 37.70440352283185,54.88572095152995 37.975340272212634,54.68930341523446 38.373098478798056,54.83153686484002 38.004163330682786,54.6825303857986 37.68710968774394,54.89926696590919 37.05876701363013,56.14548781245321 36.36701361089945,56.815998598031 33.040832666127244,53.11116784964179 30.24499599682167,52.55576308250602 30.025940752588212,52.291605435977544 29.979823859088356,51.26205735541589 29.472538030415308,51.16045630240842 24.255564451566897,51.26883075312435 23.379343474749476,50.605034312022326 22.209127301845,50.24603944064802 21.84019215372973,49.81930702266982 21.33867093673325,48.498450237249926 21.15996797438129,47.15724419615799 19.75916733389022,46.595012954196136 19.395996797451517,46.56114344177695 18.047077662107768,46.76436024278155 15.568294635711936,47.33336379238972 12.68598879102501,46.96757638715644 12.507285828643944,47.19788722368321 12.0,48.83713410855853 13.187510007992387,50.62535471517913 16.51945556444116,51.28237754631482 17.476381104876054,52.068086561008386 17.64931945555145,52.75896051733798 18.289191353076603,54.35742411563842 18.375660528428853,55.10245683166431 19.17694155324716,58.41435912724046 19.793755004007835,62.0105218824101 19.909047237801133,62.355905228934716 20.31257005603402,62.8638184717347 20.71032826261944,63.08729899999889 22.503122498019366,63.73741966101079 24.463090472389013,64.95637780058678 24.832025620504282,65.03764083717397 26.342353883112082,65.06472849275087 27.103282626078,65.68096950721883 27.552922337839846,65.68774135299827 28.780784627684625,66.22948665372678 31.789911929547088,66.60870558997703 32.11849479583907,66.56807509893406 32.29719775819103,66.41232464036148 32.51625300239539,65.84349360452325 32.81601281024632,64.5432890756274 32.98318654924515,63.134703858511784 32.93130504403962,62.843502020718006 32.62578062445391,62.647109322853794 32.57966373098316,62.51843791261126 32.72954363489407,61.97666066796228 32.96012810248067,61.64481980237542 32.942834267392755,60.7034657837612 33.380944755801465,59.416700100809976 33.911289031238994,58.644628060868854 35.95196156925522,57.22236529357542 36.65524419533904,56.61281426607093 37.04147317854222,56.1928979007389 37.68134507606737,54.9399049915628 37.94075260206591,54.7028494718943 38.87461969573633,55.04827293163544 39.46261008805595,55.08891086104268 41.12858286628034,54.4861122151342 42.442914331448264,54.4861122151342 42.71385108085815,54.38451636898753 42.8752602081513,54.188097267920966 42.990552441973705,53.592063138356025 43.543955164117506,52.26451228132646 43.8321857486153,50.632128181430744 44.62770216172794,48.755850145775185 44.8064051240799,48.08525344460577 44.90440352281439,47.10982729753232 44.840992794255726,44.71184037605781 45.23298638910637,42.96409738610964 45.63074459566269,41.98181740698419 48.0,37.60540425832369 47.67718174538459,37.449582074888895 47.67141713370802,37.15826130469941 47.141072858299594,36.79918966081459 47.11224979982944,34.922498830193945 46.89319455565419,34.90894851218036 46.772137710184325,34.739569290464715 45.79791833466152,34.746344468105235 45.74027221777942,33.59455378092753 45.555804643721785,33.391294410022965 45.33674939951743,33.41839569745571" stroke="yellow" stroke-linecap="round" stroke-linejoin="round" stroke-width="0.5"><title>2026-05-16 35.3km</title><desc>1778887035000</desc></polyline><polyline fill="none" points="94.66666666665697,51.69197403560611 94.63098777667619,51.75796804080164 94.36594459388289,51.75796804080164 92.96427391568432,51.667976196047675 91.56770022181445,51.368002323779365 91.47595450468361,46.65819943263341 74.67629430361558,47.132197730730695 73.63141252534115,47.126197777633934 73.38675727968803,47.03619840318788 73.07074425407336,47.30019615330093 73.17778092401568,47.786188719037455 73.07584123837296,48.15818014576871 73.06055028550327,48.90215550003995 71.27150880169938,51.08002587729425 70.94530180751462,52.165929235758085 62.336495351366466,52.12993278064823 58.666666666656965,52.46589878489249 58.72273349374882,52.65787844344959 63.01439426114666,52.333912383492134 72.27561470572255,52.31591421347184 82.07711548442603,51.60798155160592 84.07513332387316,51.577984205017856 87.49011279435945,51.20001624536599 89.92647128226236,51.42799722824566 94.39652649959316,52.01594385172575 94.44749634244363,53.34180056737023" stroke="#4DD2FF" stroke-linecap="round" stroke-linejoin="round" stroke-width="0.5"><title>2026-05-12 15.2km</title><desc>1778590468000</desc></polyline><polyline fill="none" points="138.35730871523265,32.0 138.31858712912071,32.97982838284224 135.84040562284645,33.89129254849104 133.962408700143,35.25848139205482 134.46578931855038,37.74218505786848 134.29154218139593,39.29163671196147 133.74943997699302,40.453717963348026 132.21993732859846,42.117077996517764 131.9876078122761,43.84878131833102 128.28969634592067,43.91713773594529 128.03800603665877,42.25379193489789 126.23745228594635,40.15750178336748 125.65662849554792,38.17512122778862 125.90831880469341,36.42058492277283 126.9150800416246,34.848325671991915 129.31581837590784,33.64064029660949 131.27125847071875,33.70900003127463 132.51034922385588,34.18751755193807 133.98176949319895,35.96485881309491 134.46578931855038,37.51432355798897 134.2528205954004,39.42835248647316 132.18121574260294,42.23100628465181 132.41354525869247,52.18810034978378 136.1695391042158,54.238701939131715 138.57027743849903,54.466545326664345 139.05429726385046,54.89944708306575 139.34470915910788,65.81283396718209 139.20918360794894,66.6785899065726 138.43475188722368,67.17981540151231 133.38158490962815,67.88608566358744 128.928602515487,68.0 123.99160029599443,67.70382259706093 115.39540819602553,66.51910881693766 107.7091733678244,66.45075974153588 107.32195750751998,58.97779359517153 107.5155654377304,55.4234848596825 123.77863157272805,54.83109423331916 125.42429897922557,54.19313323209644 128.3284179319162,52.415945957705844 128.15417079476174,42.77786120894598 127.9218412785558,42.025935321551515 126.87635845562909,41.091720626689494 125.94704039068893,39.633425981664914 125.6179069095524,37.8789018393436 126.12128752784338,35.98764514205686 127.90248048549984,34.1191579727747 129.19965361768845,33.663426877275924 130.5936307150405,33.617853713498334 132.85884349804837,34.52931511461793 134.33026376750786,36.85352381247503 134.38834614667576,38.88148885530245 133.74943997699302,40.499289646351826 132.2005765355425,42.09429233142873 132.045690191444,43.89435226582282 128.38650031096768,43.985494131353335 127.96056286455132,42.04872099396016 126.45042100921273,40.59043298268807 125.65662849554792,38.53969836389297 125.85023642564192,36.694020114679006 126.76019369752612,35.076190059640794 128.87052013643552,33.754573175363475 131.50358798692469,33.80014630962978 132.76203953300137,34.46095564648567 133.57519283972215,35.30405420043098 134.5045109045459,37.69661277763953 133.962408700143,40.11193002638174 132.239298121538,42.00314964662539 132.0069686054485,43.82599584078707 128.38650031096768,43.96270866865234 127.99928445054684,42.16264931911428 126.48914259532467,40.63600463599141 125.73407166753896,38.88148885530245 125.8115148396464,36.87631004516152 126.60530735331122,35.19012216091505 128.4252218970796,33.9140791020036 130.74851705913898,33.64064029660949 132.93628667027224,34.6204610374989 133.82688314910047,35.736995388084324 134.42706773267128,37.195317043428076 134.33026376750786,39.20049281294632 133.63327521877363,40.61321881055483 132.21993732859846,42.20822063193191 132.06505098449998,43.84878131833102 128.4833042761311,44.008279591595056 128.0767276227707,42.23100628465181 126.54722497425973,40.61321881055483 125.69535008154344,38.53969836389297 126.00512276974041,36.238294597380445 127.10868797183502,34.68882045378268 129.4319831338944,33.617853713498334 131.5423095729202,33.80014630962978 133.01372984226327,34.68882045378268 134.42706773267128,37.10417223619879 134.36898535350338,38.972632892560796 133.51711046078708,40.77271953687887 132.21993732859846,42.04872099396016 132.142494156491,43.80321036082751 128.44458269001916,44.008279591595056 127.9218412785558,42.00314964662539 126.72147211141419,40.90943434892688 125.83087563258596,39.29163671196147 125.65662849554792,37.468751228341716 126.35361704404932,35.30405420043098 126.45042100921273,35.53191809449345 127.22485272982158,34.6204610374989 128.4833042761311,33.89129254849104 131.21317609155085,33.731786604519584 133.07181222131476,34.64324751200911 133.76880076993257,35.53191809449345 134.46578931855038,37.44596505984373 134.42706773267128,38.63084254931891 133.84624394204002,40.29421699520026 132.16185494954698,42.16264931911428 132.045690191444,43.84878131833102 128.50266506907064,44.008279591595056 127.99928445054684,42.185434976781835 126.16000911395531,40.08914414414903 125.65662849554792,38.58527046155359 126.00512276974041,36.12436306376185 127.05060559278354,34.75717984774383" stroke="#4DD2FF" stroke-linecap="round" stroke-linejoin="round" stroke-width="0.5"><title>2026-05-11 15.3km</title><desc>1778503630000</desc></polyline><polyline fill="none" points="188.0,33.26266808115179 185.65106382966042,34.52476565307006 185.34468085085973,37.52974831609754 180.03404255304486,39.21253149828408 173.80425531882793,43.359368268051185 174.97872340423055,48.04705946921604 174.97872340423055,53.27559139369987 173.65106382942759,56.821349375590216 169.4638297869824,61.26853921957081 168.74893617001362,66.4368502026191 158.89361702138558,66.25656109501142 158.43404255318455,61.92960493720602 153.07234042533673,55.679497583711054 152.25531914876774,48.34755114413565 153.37872340437025,45.22242976987036 155.82978723407723,42.217488771362696 160.3744680848904,39.63322649622569 165.634042553138,39.33273010153789 171.4042553191539,42.09729079302633 174.67234042542987,47.025386556982994 175.182978723431,52.07363439316396 173.75319148926064,56.400667409878224 169.1574468081817,61.80941122886725 168.59574468061328,66.37675384001341 158.99574468075298,66.37675384001341 158.2808510637842,61.74931436491897 155.11489361710846,58.62426847306779 152.71489361696877,54.71793635765789 152.10212765960023,49.48941802489571 152.66382978716865,46.90518962015631 155.88085106387734,42.03719179413747 162.1106382976286,39.21253149828408 167.8808510636445,39.93372272810666 173.85531914886087,44.501245414372534 175.08085106383078,49.06873050000286 175.02978723403066,52.794808905920945 172.68085106369108,58.08339335897472 169.31063829758205,61.38873304496519 168.90212765941396,66.25656109501142 159.455319148954,66.67723558848957 158.2808510637842,61.62912061775569 155.3702127658762,58.98485158971744 152.4595744679682,54.35735046811169 152.20425531920046,48.76823921565665 153.68510638317093,44.80173900985392 157.66808510618284,40.77511131140636 160.47659574472345,39.57312723022187 164.66382978716865,39.21253149828408 169.361702127615,40.594813865143806 171.45531914872117,42.15738978527952 174.87659574463032,47.68646924442146 175.2851063827984,50.99187086627353 174.36595744639635,55.499204980791546 169.4638297869824,61.088248432439286 169.1574468081817,65.95607911876868 159.50638297875412,66.73733191879 158.22978723375127,61.68921749445144 153.53191489353776,56.58095971989678 152.0,51.11206691805273 152.8680851063691,46.30420454527484 155.727659574477,41.97709278849652 162.26382978726178,39.15243218670366 167.98297872347757,39.99382195487851 172.17021276592277,42.818478273111396 174.21276595722884,45.94361318775918 175.2340425529983,49.910105230577756 173.90638297842816,56.400667409878224 169.20851063821465,61.56902373424964 168.90212765941396,66.31665747065563 159.455319148954,66.67723558848957 158.33191489358433,61.92960493720602 153.37872340437025,56.400667409878224 152.10212765960023,52.794808905920945 152.9702127657365,46.24410600186093 155.62553191487677,42.397785690263845 161.24255319149233,39.33273010153789 166.85957446787506,39.63322649622569 171.86382978735492,42.57808255054988 175.13191489339806,48.28745282226009 174.36595744639635,55.078522012685426 172.42553191492334,58.443976827082224 169.31063829758205,61.50892684434075 168.90212765941396,66.25656109501142 159.30212765955366,66.61713925184449 158.33191489358433,61.80941122886725 154.91063829767518,58.50407404883299 152.5106382977683,54.29725279728882 152.1531914891675,48.64804265630664 153.99148936150596,44.20075165631715 156.6468085104134,41.316003298328724 159.7617021277547,39.69332575565204 164.66382978716865,39.21253149828408 169.4638297869824,40.53471470344812 174.0085106382612,45.282528423762415 175.182978723431,48.52784607093781 174.9276595741976,53.57608023704961 173.03829787205905,57.84300425008405 169.31063829758205,61.56902373424964 169.31063829758205,65.59550053236308 168.49361702124588,66.4368502026191 158.89361702138558,66.25656109501142 158.07659574435093,61.50892684434075 154.14468085113913,57.662712350080255 152.5106382977683,54.41744813264813 152.0,50.81157674017595 152.9702127657365,45.94361318775918 156.74893617024645,41.376102375390474 160.78297872352414,39.513027957757004 166.96170212770812,39.69332575565204 170.53617021278478,41.376102375390474 172.98723404249176,43.71996130485786 182.48510638275184,38.431239941273816" stroke="#4DD2FF" stroke-linecap="round" stroke-linejoin="round" stroke-width="0.5"><title>2026-05-10 11.2km</title><desc>1778422578000</desc></polyline><polyline fill="none" points="35.209855624241754,81.591032133525 32.83805364742875,78.60879076072888 32.45288922393229,77.29659176558198 32.675879153306596,74.9584723640437 33.750285177025944,73.26451321170316 35.59502004785463,72.16701159496733 37.723560283426195,72.0 40.095362260355614,73.07364375810721 41.39275821344927,74.98233085066022 41.63601995469071,76.27068528810923 41.3319427780807,78.22706095020112 40.43998306046706,79.77783419034677 39.20340254250914,80.89915573201142 39.42639247199986,91.37250045646215 43.29830851953011,93.49573743068322 46.359352096449584,94.09214862987574 46.68370108481031,106.44942540401826 45.99445948458742,107.06965655180102 44.45380179036874,107.35591649272828 37.11540593043901,108.0 30.506795294117182,107.66603100899374 22.43861421069596,106.47328048042255 13.498745221062563,106.35400507254235 13.275755291688256,94.95097792026354 16.924681409844197,94.52156369360455 30.20271811762359,94.25914347630169 31.82446305907797,93.78201500776049 35.29094287136104,91.68263747041055 35.23012743610889,83.16563929169206 39.0614998601377,83.0224936514569 39.466936095501296,91.53949736442883 43.17667764890939,93.47188094918965 46.359352096449584,94.11600504428498 46.724244708311744,105.54293058610347 46.460711155319586,106.80725127925689 42.77124141366221,107.61832111183321 36.1829025890911,108.0 30.952775153098628,107.71374089588062 22.600788704818115,106.4971355542948 13.539288844680414,106.3301499831723 13.296027103438973,94.83169627464667 30.20271811762359,94.282999872652 31.96636574144941,93.73430210415972 35.25039924774319,91.63492411206244 35.0476811301196,82.02047156568733" stroke="#4DD2FF" stroke-linecap="round" stroke-linejoin="round" stroke-width="0.5"><title>2026-05-10 11.3km</title><desc>1778397813000</desc></polyline><polyline fill="none" points="76.36812741220638,72.0 80.5953311278281,76.2570880305102 80.91209108795738,76.36919540935924 80.95974524124176,76.51427493507435 80.9233038299135,76.79783747028523 81.15596822540101,77.03193943740735 81.18119689478772,77.25944526156673 79.8580933445337,77.45397788149421 79.08441414989647,77.32868582780611 78.75363826233661,77.31879432795722 73.80881906181457,77.30890282491418 72.99589527036005,77.2726339529654 72.45768365668482,77.28252546777367 72.33994986620382,77.32538866154209 72.31472119683167,80.66853224939587 72.2053969628032,80.98502390432986 72.239035188657,82.9168705481643 72.17736510791292,91.39774718176523 72.21380651925574,94.21869050405985 72.15213643854077,105.76668339006574 72.18016829340195,107.01182692563998 72.33714668072935,107.11723357475239 75.54399087878119,107.15346702648276 75.59725140305818,107.20287620965428 75.60285777403624,107.2885186047497 75.48232079805166,108.0 75.61967688695586,107.30498826861367 75.5552036207373,106.30361658152287 75.58884184660565,105.80621253545723 75.77385208877968,105.08479758893736 77.10256201001175,102.42299153545719 77.78093289806566,101.3456848427486 78.23504894708458,100.75265578260223 78.15655975343543,100.6768790181668 77.90427305953926,100.99645801111728 77.11097156647884,102.3109797639936 76.96800910659658,102.31756870308345 76.79140842086053,102.21543998754896 76.69890329976624,102.08366049561664 76.68208418684662,101.90905179382207 76.6792810013576,99.80049061417776" stroke="yellow" stroke-linecap="round" stroke-linejoin="round" stroke-width="0.5"><title>2025-11-09 21.3km</title><desc>1762645227000</desc></polyline><polyline fill="none" points="114.67435406870209,74.88943728193408 121.11053022695705,72.07809305179399 129.47092399932444,73.24948781332932 133.25300689646974,75.59227162622847 135.97345248889178,78.95024848193862 138.56119341845624,85.58806369191734 136.4379188097082,94.95899288996588 130.3335043094121,101.51857085974189 130.39985664072447,107.06292951019714 117.39479966158979,107.84382166957948 116.13410536269657,101.2843012457015 110.82591884024441,96.05226002953714 108.10547324782237,89.3364499870222 108.50358723686077,83.24531236081384 111.88755614473484,76.99793825973757 118.52278929739259,72.78093013714533 126.75047840666957,72.31237215641886 133.12030223337933,75.35799358779332 138.09672709810548,83.01103680906817 137.83131777192466,91.75727244548034 134.84546285308897,97.06743517436553 130.66526596690528,100.89385171968024 130.3335043094121,107.29719724698225 117.92561831371859,107.84382166957948 116.20045769400895,101.12812146061333 109.1671105523128,93.00672601786209 108.17182557936758,86.68134504108457 109.5652245413512,80.66827710391954 114.93976339511573,74.49897346098442 123.10110017284751,72.0 130.8643229615409,73.71804518502904 134.1155872065574,76.60747558099683 137.63226077728905,82.23011775314808 138.36213642405346,86.68134504108457 137.76496544014663,91.2106358265155 135.9071001575794,95.73989815852838 130.5325613040477,101.05003155552549 130.3335043094121,107.14101876411587 119.98254059092142,108.0 117.26209499873221,107.60955411044415 116.53221935150214,101.67475056031253 111.15768049797043,96.36462176468922 109.23346288362518,93.00672601786209 108.23817791091278,86.44707060564542 109.69792920467444,80.51209285308141 115.47058204724453,74.18660225206986 123.83097581961192,72.07809305179399 131.1297322877217,73.79613805084955 136.37156647839583,79.5749866362894 137.96402243501507,83.40149601968005 138.09672709810548,90.66399879322853 135.9071001575794,95.66180766985053 130.73161829845048,100.42531200911617 130.39985664072447,107.06292951019714 117.5938566562254,107.84382166957948 116.33316235709935,101.2843012457015 111.15768049797043,96.44271217728965 108.56993956840597,90.11736134550301 108.43723490531556,83.87004679330857 111.48944215546362,77.62267810612684 117.19574266695417,73.24948781332932 125.15802245028317,72.23427913017804 130.8643229615409,73.87423090793891 136.96873746206984,80.43400071479846 138.29578409250826,85.43188050651224 137.56590844574384,92.22581778874155 134.97816751617938,96.75507374346489 130.5325613040477,100.97194164176472 130.2671519778669,107.14101876411587 126.55142141249962,107.84382166957948 117.32844733004458,107.76573249162175 116.39951468841173,101.2843012457015 111.48944215546362,96.83316411392298 109.43251987826079,93.24099832162028 108.43723490531556,83.79195501888171 113.3473074384965,75.74845694308169 120.51335924305022,72.31237215641886 129.60362866241485,73.40567363769514 135.9071001575794,78.8721561745042 138.22943176096305,85.27569728757953 137.69861310860142,91.83536335738609 134.77911052154377,97.14552551094675 130.66526596690528,100.73767185019096 130.39985664072447,107.14101876411587 126.28601208608598,107.76573249162175 117.26209499873221,107.60955411044415 116.46586702018976,101.36239112570183 111.35673749260604,96.75507374346489 108.636291900184,91.2106358265155 109.1007582207676,81.76156591356266 114.14353541657329,75.12371547281509 120.04889292269945,72.39046517427778 127.54670638521202,72.62474417721387 132.19136959221214,74.73325177869992 135.57533850008622,78.40360215265537 138.29578409250826,85.11951403465355 137.56590844574384,92.30390864989022 134.97816751617938,96.83316411392298 130.59891363536008,100.6595819023205 130.3335043094121,107.06292951019714 126.35236441786401,107.6876433051657" stroke="#4DD2FF" stroke-linecap="round" stroke-linejoin="round" stroke-width="0.5"><title>2025-11-01 10.0km</title><desc>1761964262000</desc></polyline><polyline fill="none" points="183.73153619421646,81.23495365487179 184.86197743052617,86.32195397827309 184.5294947142247,91.09587555151666 181.3376606348902,97.4349685634952 177.21487494953908,100.87840318580857 176.48341297288425,107.60870529402746 163.84906974318437,108.0 162.85162159334868,101.58274006447755 156.99992578150705,95.79150534479413 154.53955367882736,88.98283218848519 155.13802256877534,82.17409487179248 158.196863561403,77.32185211090837 162.05366307357326,74.11309303075541 169.3682828382589,72.0 175.35297173680738,73.09567863924894 179.01028161891736,75.05224350461503 183.8645292809233,81.78278617979959 184.79548088740557,88.74804921145551 182.73408804438077,95.47846430813661 176.88239223277196,101.34796118119266 176.54990951623768,107.60870529402746 163.58308356953785,107.76522320194636 162.58563542040065,101.269701536512 157.73138775792904,97.12192823854275 155.6699949153699,93.28717325272737 154.80553985247388,84.36541963100899 158.72883590776473,76.93054079101421 165.4449867827352,72.86089049925795 173.02559272083454,72.62610228301492 179.94123322539963,76.14791751519078 183.93102582427673,82.17409487179248 184.86197743052617,88.98283218848519 182.73408804438077,95.4002040278283 177.01538531971164,100.80014349031262 176.41691642976366,107.68696425238159 163.6495801131241,107.8434821430128 162.85162159334868,101.34796118119266 156.0689741752576,94.30455921211978 154.4730571359396,87.02630504657282 155.20451911212876,82.48714167287108 157.465401584981,78.49578479939373 163.11760776676238,73.64351733576041 171.2301860509906,72.15652562165633 179.40926087880507,75.75660555943614 184.1970119974576,83.19149647915037 184.79548088740557,89.29587603977416 182.13561915466562,96.10454624606064 177.01538531971164,100.87840318580857 176.15093025634997,107.8434821430128 163.71607665671036,107.8434821430128 163.05111122317612,101.269701536512 158.32985664787702,97.35670849506278 155.60349837201647,92.7393494505086 154.87203639536165,83.66106596874306 159.46029788418673,76.06965514086187 166.17644875939004,72.54783952748403 174.68800630350597,72.93915322091198 181.00517791858874,77.55663880135398 184.33000508416444,84.44368110655341 184.5294947142247,90.07848507427843 182.53459841455333,95.63498484349111 176.94888877635822,101.19144188350765 176.6829026027117,107.37392836890649 175.81844753981568,107.76522320194636 163.6495801131241,107.8434821430128 162.58563542040065,101.19144188350765 158.063870474929,97.35670849506278 155.60349837201647,92.97413113055518 154.87203639536165,83.89585059921956 159.3273047977127,76.30444223823724 166.70842110575177,72.54783952748403 175.4859648232814,73.17394133564085 180.93868137523532,77.24358986393781 184.39650162751786,84.36541963100899 184.4629981708713,90.93935403280193 181.67014335165732,96.88714790600352 177.08188186283223,101.11318222188856 176.41691642976366,107.60870529402746 163.6495801131241,107.8434821430128 162.9181181367021,101.50448044511722 158.26336010475643,97.20018833252834 155.60349837201647,92.97413113055518 155.07152602565475,83.42628126218915 159.12781516788527,76.69575389724923 167.2403934521135,72.31305120937759 175.75195099646226,73.01741593430052 181.20466754841618,77.32185211090837 184.4629981708713,84.28715814684983 184.39650162751786,91.01761479629204 182.4016053280793,95.86976558319293 176.94888877635822,101.34796118119266 177.21487494953908,107.13915136724245 177.8133438390214,101.66099967516493 183.0665707611479,96.18280645040795 185.39394977712072,90.78283248021035 185.5269428640604,84.913249782403 183.53204656438902,79.27840553212445" stroke="#4DD2FF" stroke-linecap="round" stroke-linejoin="round" stroke-width="0.5"><title>2025-10-27 10.0km</title><desc>1761565093000</desc></polyline><polyline fill="none" points="22.28781746630557,115.0639011383173 25.021249250276014,113.30215960583882 28.600743253249675,112.68937891366659 36.99628373305313,114.06813472451176 42.59331071958877,119.96611534641124 44.67592541221529,126.01723914482864 44.155271738767624,131.76192901545437 42.59331071958877,135.74488659802591 36.93120202375576,141.4129029433825 36.93120202375576,147.15746775193838 24.17518703150563,147.69362475315575 23.2640431036707,141.4129029433825 17.99242466292344,136.43424236407736 15.38915629684925,130.84278177225497 15.324074588017538,124.2555249009747 18.51307833637111,117.74480374401901 25.997474887641147,113.14896448265063 35.30415929527953,113.45535469590686 38.362999625038356,115.0639011383173 41.87741191871464,118.89375889237272 44.741007121279836,126.09383531677304 42.98380097444169,134.7491493053967 36.99628373305313,141.18311938049737 36.80103860562667,147.15746775193838 24.045023613376543,147.69362475315575 23.198961394373327,141.4129029433825 18.773405172629282,137.50657221965957 15.584401424741372,131.53214231674792 15.519319715211168,123.56615726306336 18.252751499414444,118.4341770572355 25.216494377935305,113.60854975297116 32.57072751130909,113.0723669087165 37.777264242991805,114.98730377154425 40.44561431766488,117.20862403616775 44.741007121279836,124.9448918668786 44.61084370315075,130.07682482351083 43.11396439280361,134.82574453164125 36.99628373305313,141.18311938049737 36.80103860562667,147.2340616340516 24.500595577294007,147.84681239299243 23.06879797624424,141.48949744785205 18.57816004520282,137.50657221965957 15.258992878720164,129.8470375771867 15.779646552167833,123.25977143069031 18.447996626840904,118.12778900103876 25.932393178576604,113.30215960583882 35.173995876917616,113.68514726898866 38.688408171059564,115.29369318846148 41.03134969994426,117.82140081189573 44.545761993853375,125.40446947084274 44.48068028502166,130.61299477465218 42.91871926537715,135.1321253531496 36.93120202375576,141.4129029433825 36.80103860562667,147.2340616340516 24.305350449634716,147.77021857723594 23.394206521799788,141.8724698452861 17.08128073462285,135.20872053777566 15.193911169655621,129.92363333445974 16.170136806787923,121.3448569693137 18.38291491754353,118.20438602741342 26.127638306003064,113.30215960583882 32.96121776639484,113.22556204837747 39.79479722632095,116.51924952823902 44.350516866659746,124.02573576307623 44.545761993853375,130.45980340149254 42.13773875567131,136.28105225175386 37.12644715118222,141.02993029728532 36.7359568963293,147.31065550784115 24.37043215916492,148.0 23.394206521799788,141.79587538226042 18.447996626840904,137.1235974577139 15.714564842870459,131.68533345742617 15.584401424741372,124.40871761814924 18.317833208478987,118.4341770572355 24.17518703150563,114.06813472451176 30.878603073535487,112.91917173546972 38.4280813341029,115.29369318846148 43.37429122929461,121.19166358857183 44.80608883057721,126.24702763569076 44.220353448065,131.9917156395386 42.20282046473585,136.28105225175386 37.06136544258334,141.02993029728532 36.866120314924046,147.38724937353982 24.045023613376543,147.54043707996607 23.329124812502414,141.48949744785205 18.773405172629282,137.42997728381306 16.170136806787923,133.21724304062082 15.258992878720164,124.63850663189078 18.70832346356474,117.89799787168158 21.832245502388105,115.29369318846148 27.23402736103162,113.14896448265063 35.95497638685629,113.99153725011274 39.53447038959712,116.44265231938334 42.20282046473585,119.88951851066668 43.17904610210098,118.81716194044566 38.10267278854735,113.83834227611078 31.529420165112242,112.0 23.97994190407917,113.14896448265063 19.228977136546746,116.44265231938334 17.536852699005976,118.66396801214432 19.619467391399667,117.36181827983819" stroke="#4DD2FF" stroke-linecap="round" stroke-linejoin="round" stroke-width="0.5"><title>2025-10-19 10.0km</title><desc>1760866141000</desc></polyline><polyline fill="none" points="87.02941077644937,116.00008838629583 90.36148283793591,121.64723437064094 91.16118013276719,128.54924187576398 89.02865401329473,135.45118359389016 83.43077295063995,140.941317529534 83.09756574453786,147.05884631245863 70.30240903003141,147.76471169269644 69.16950452909805,140.86288733786205 62.50536040705629,133.64727335848147 61.105890141334385,126.03942857653601 64.5712450852152,117.41187901131343 71.70187929575332,112.78433279786259 79.69885224243626,112.39216650504386 86.82948645274155,116.31381987396162 90.76133148511872,122.74528541968903 91.29446301492862,129.25512529874686 88.82872968981974,135.92176813370315 83.56405583349988,140.70602692873217 82.83099997974932,147.52942330914084 70.2357675889507,147.60785277868854 69.43607029411942,141.49032863369212 64.97109373193234,137.4903810575488 62.17215320072137,132.7845320921624 61.37245590612292,123.92176683887374 65.30430093826726,116.78441685100552 73.3012738849502,112.15686662757071 80.96503962529823,112.70589955622563 87.56254230672494,117.0981479989714 91.16118013276719,123.68647070793668 91.36110445624217,129.72571386530763 89.09529545437545,135.60804514138727 83.4974143919535,141.0197477125912 83.16420718608424,147.52942330914084 70.16912614740431,147.60785277868854 69.43607029411942,141.72561897942796 64.5712450852152,136.94136692065513 61.37245590612292,130.74532137642382 61.70566311222501,121.56880208902294 65.23765949718654,116.47068556718295 67.83667570492253,114.5882950083469 75.56708288635127,112.0 83.63069727434777,113.96083040145459 87.62918374757282,117.17658076487714 90.69469004380517,121.88253116415581 91.16118013276719,130.8237526640878 89.09529545437545,135.76490665436722 83.69733871566132,141.0981778873247 83.56405583349988,147.29413484892575 71.70187929575332,148.0 70.16912614740431,147.60785277868854 69.2361459704116,141.25503821129678 64.304679319961,136.39235236746026 61.239173023728654,129.80414526333334 61.039248700020835,124.4707908469718 64.5712450852152,117.41187901131343 67.43682705750689,114.8235940960003 72.63485947274603,112.54903304768959 80.49854953680187,112.54903304768959 86.29635492316447,115.8432225913275 91.29446301492862,123.84333480376517 90.69469004380517,131.9217897981871 88.82872968981974,135.92176813370315 83.43077295063995,140.62759671139065 83.23084862693213,147.29413484892575 70.56897479481995,147.68628224002896 69.16950452909805,141.1766080536181 63.17177481926046,135.05902957718354 61.172531582647935,129.96100803365698 61.37245590612292,123.60803864750778 64.17139643756673,117.96090795547934 67.37018561619334,114.8235940960003 72.0350865018554,112.62746630609035 80.3652666544076,112.62746630609035 87.429259423865,116.86284965096274 91.62767022103071,125.80413313384634 89.29521977808326,135.37275280762697 83.56405583349988,140.39230600901647 83.36413150979206,147.29413484892575 70.10248470609076,147.68628224002896 69.30278741149232,141.49032863369212 63.37169914296828,135.29432201269083 61.172531582647935,129.1766938411747 62.17215320072137,121.41193750046659 65.63750814436935,116.39225272485055 71.03546488331631,112.94119925540872 79.56556936004199,112.31373322108993 84.63031889265403,114.5882950083469 89.161936895689,119.21582969283918 91.22782157361507,125.01981443882687 91.16118013276719,130.35316481121117 88.56216392479837,136.15706028905697 83.4974143919535,140.78445713722613 83.63069727434777,146.90198724565562 84.43039456894621,141.33346836059354 88.09567383653484,138.11782527546166 91.16118013276719,133.09825630794512 92.29408463323489,127.6864945354173 91.82759454473853,123.84333480376517" stroke="#4DD2FF" stroke-linecap="round" stroke-linejoin="round" stroke-width="0.5"><title>2025-10-16 10.0km</title><desc>1760611285000</desc></polyline><polyline fill="none" points="114.94834981788881,114.5263738015201 122.86377425654791,112.0 130.1084000139963,113.42108634090982 136.14558814489283,119.18435254093492 138.4933835293632,125.73705189861357 136.95054656267166,134.18442077346845 130.3096396184992,141.36855465109693 130.24255975009874,147.5263273330056 117.36322507052682,147.92105457693106 116.49118678458035,141.60539302398684 110.52107852138579,135.84230410685996 108.17328313738108,129.7633801153861 108.57576234592125,122.73702817887533 112.33223496098071,116.65799488528864 120.38181913597509,112.15789861936355 127.961844233796,112.71054351690691 134.20027196989395,116.42114840616705 138.35922379326075,125.10546898370376 137.15178616694175,133.78968609054573 130.5108792227693,141.05277003458468 130.24255975009874,147.5263273330056 117.29614520212635,148.0 116.3570270484779,141.60539302398684 110.72231812612154,136.07914427516516 108.30744287348352,130.31601166405017 108.50868247798644,123.05282073095441 112.60055443341844,116.10535298060859 121.18677755328827,112.15789861936355 130.04132014559582,113.10528961592354 136.81638682656921,120.13173440442188 138.29214392509311,125.50020836963085 136.81638682656921,134.34231458662543 130.37671948666684,141.05277003458468 130.37671948666684,147.36843637563288 117.36322507052682,147.92105457693106 116.49118678458035,141.76328522950644 110.11859931307845,135.13178314000834 108.30744287348352,129.8423275052337 108.57576234592125,122.81597632972989 112.39931482938118,116.50009724084521 120.180579531705,112.31579720409354 129.37052146461792,113.10528961592354 135.1393901235424,117.44748259335756 138.35922379326075,125.26336476375582 136.88346669473685,134.34231458662543 130.5108792227693,141.13171620143112 130.17547988239676,147.60527279909002 117.36322507052682,147.92105457693106 116.3570270484779,141.4475007839501 110.65523825772107,135.68441061873455 108.17328313738108,129.68443271692377 108.4416026098188,123.28966505517019 110.78939799405634,118.1580207995139 118.63774256478064,112.78949275385821 126.82148647587746,112.39474648371106 130.7121188272722,113.73688292957377 134.468591441866,116.97379007103154 138.35922379326075,125.42126050958177 138.22506405739114,130.15811697859317 136.6151472220663,134.73704897024436 130.44379935436882,141.36855465109693 130.37671948666684,147.60527279909002 117.4303049382288,148.0 116.49118678458035,141.68433913087938 111.3260369389318,136.78966431878507 108.24036300531588,130.23706432554172 108.57576234592125,122.50018367526354 111.99683562060818,116.97379007103154 119.84518019086681,112.39474648371106 128.76680265157484,112.86844198207837 134.8039907827042,117.36853386112489 138.22506405739114,125.18441687809536 137.0176264308393,133.71073912834981 134.066112233093,138.13175584428245 130.44379935436882,141.21066235983744 130.44379935436882,147.36843637563288 117.4303049382288,147.92105457693106 116.28994718031026,141.36855465109693 110.85647786245681,136.23703767824918 108.30744287348352,130.31601166405017 108.97824155492708,120.8422699936782 111.66143627976999,117.36853386112489 120.04641979560256,112.31579720409354 128.69972278317437,112.78949275385821 135.1393901235424,117.76327743718866 138.09090432082303,124.31598957069218 137.48718550777994,132.4475865701679 134.60275117866695,137.42123710917076 130.44379935436882,140.9738238590653 130.17547988239676,147.5263273330056 117.96694388356991,148.0 116.96074586175382,146.97370883252006" stroke="#4DD2FF" stroke-linecap="round" stroke-linejoin="round" stroke-width="0.5"><title>2025-10-08 10.1km</title><desc>1759919017000</desc></polyline><polyline fill="none" points="153.6085985219106,127.88717764167814 160.12526117870584,116.69575389689999 164.44753743032925,113.48699203616707 169.50127581693232,112.0 180.47320784069598,114.42614332417725 185.127966881264,120.8436444538529 186.39140147785656,128.5132661574753 183.79803572688252,135.86976558278548 178.41181455133483,140.95666287303902 178.2123248782009,147.4521873522899 165.17899956507608,147.76522320188815 164.5140339876525,141.73925927723758 160.25825429381803,137.82626877859002 157.2659091965761,133.28717325231992 156.26846083067358,124.52194257336669 159.85927494755015,117.24358986358857 166.84141350793652,112.93915322097018 173.75705551123247,112.39131399057806 181.67014587973244,116.14791751507437 185.7929324582219,122.95671161985956 186.19191180472262,129.0610931640258 184.19701507338323,135.16542313538957 178.34531799401157,141.11318222159753 177.7468489741441,147.53044632758247 165.24549612309784,147.92174107563915 164.3810408723075,141.5044804449426 157.2659091965761,133.60021523863543 156.20196427311748,125.4610795180779 159.79277838976122,117.55663880117936 166.64192383480258,113.01741593435872 173.62406239565462,112.39131399057806 181.4706562065985,115.9131303668837 185.5934427853208,122.33061828906648 186.25840836251155,128.90457120462088 183.79803572688252,135.86976558278548 178.34531799401157,141.2697015363956 177.87984208972193,147.60870529408567 165.11250300728716,147.8434821430128 163.91556496848352,140.95666287303902 159.85927494755015,137.51322862319648 156.93342640786432,133.0523916737293 156.20196427311748,125.14803400525125 159.59328871686012,117.86968760297168 163.31709594884887,114.42614332417725 166.64192383480258,113.01741593435872 174.68800731911324,112.46957676310558 182.3351114569232,117.00880307191983 185.127966881264,120.8436444538529 186.19191180472262,129.1393541309517 184.13051851536147,135.24368344136747 178.41181455133483,140.95666287303902 177.87984208972193,147.53044632758247 165.37848923844285,148.0 164.3145443147514,141.34796118101804 160.72373019787483,138.68712850648444 157.73138510040008,134.4610800013761 156.13546771532856,125.61760222335579 159.0613162550144,118.49578479933552 165.51148235355504,113.40872937365202 173.75705551123247,112.39131399057806 180.8056906296406,115.36529339139815 185.06147032347508,120.76538258837536 186.12541524716653,129.1393541309517 183.99752539978363,135.55672457977198 178.5448076671455,140.72188378608553 177.94633864751086,147.53044632758247 165.24549612309784,147.8434821430128 164.44753743032925,141.73925927723758 158.46284723537974,135.63498484314186 155.93597804219462,126.55673774384195 157.2659091965761,121.5480008625309 160.12526117870584,116.93054079078138 165.17899956507608,113.48699203616707 169.3682827015873,112.2347884196206 174.75450387666933,112.7043650301639 181.0051803025417,115.67834314261563 184.92847720813006,120.6088588318089 186.0589186893776,130.00022420863388 184.13051851536147,135.3219437386142 178.34531799401157,141.2697015363956 177.7468489741441,147.4521873522899 165.5779789115768,148.0 164.3810408723075,141.4262208173168 159.2608059279155,136.7306276416639 156.86692985030822,132.03500395145966 156.13546771532856,127.57413318019826 158.06386788911186,119.7479775645188 162.12015791004524,115.36529339139815 169.3017861440312,112.39131399057806 177.81334553216584,113.33046670281328 184.92847720813006,120.295811216929 186.12541524716653,125.06977260601707 185.5934427853208,131.80022196564823 181.60364932217635,138.45234868244734" stroke="#4DD2FF" stroke-linecap="round" stroke-linejoin="round" stroke-width="0.5"><title>2025-10-01 10.0km</title><desc>1759271073000</desc></polyline><polyline fill="none" points="26.1517821457237,153.31616096559446 31.414302288321778,152.0 39.17651949869469,154.0903721661889 44.04435063060373,160.82597422483377 45.031073157442734,165.31634033378214 44.89951015380211,170.42603297071764 43.45231711445376,174.52924455347238 37.20307444548234,181.0323995674844 37.00572994002141,187.5354954174254 24.375681597739458,187.92258259042865 22.99427005997859,181.34207214025082 17.929094423074275,176.54213218967197 15.560960358940065,171.74216000648448 14.968926842790097,166.70989649376133 16.481901383725926,160.90339456906077 22.073329035192728,154.86458252806915 29.703983241925016,152.69679140119115 36.87416693614796,154.0903721661889 40.03167902189307,156.25815906614298 42.99184660217725,160.2066111684544 44.96529165538959,166.01311875332613 43.8470061251428,173.36796064605005 41.41309055918828,177.31631823268253 37.20307444548234,180.80014505027793 37.07151144160889,187.22582552797394 32.53258781856857,187.84516517265 23.91521108499728,187.7677477466059 23.12583306361921,181.57432648149552 18.19222043012269,176.92922531603836 15.363615853479132,171.81957916833926 15.692523362580687,162.91632057813695 18.126438928302377,158.42593939136714 21.5470770210959,155.25168739451328 27.66475668689236,152.85163384262705 36.87416693614796,154.0903721661889 42.99184660217725,159.97434988373425 44.8337286519818,165.16150059271604 44.70216564857401,170.81312940927455 41.9393425732851,177.0066439160728 37.20307444548234,181.1872358704568 36.611040929332376,187.61291286867345 24.046774088870734,187.7677477466059 23.257396067492664,181.57432648149552 15.824086365988478,173.44537963205948 14.968926842790097,168.80022563919192 15.560960358940065,162.99374069593614 19.639413469471037,156.87752554402687 27.467412181431428,152.92905505083036 35.953225911129266,153.85810889396816 40.623712537810206,157.10978783509927 44.439039641292766,163.92278145684395 44.76794714992866,170.50345227506477 42.005124075338244,176.6969694654108 37.1372929434292,181.10981772327796 37.1372929434292,187.14840803475818 36.34791492205113,187.6903303117724 24.046774088870734,187.7677477466059 23.191614565439522,181.57432648149552 18.850035447627306,177.62599241524003 16.02143087121658,172.98086559132207 15.1662713480182,164.7744010933675 19.17894295672886,157.18720858206507 27.335849177790806,152.92905505083036 37.400418950477615,154.32263536279788 42.66293909284286,159.66466805367963 44.8337286519818,165.62601971504046 44.307476637652144,172.28409396397183 41.67621656646952,177.23889966629213 37.334637448890135,180.95498140336713 37.00572994002141,187.38066048943438 32.59836932038888,188.0 24.046774088870734,188.0 23.12583306361921,181.41949026228394 18.32378343353048,177.0066439160728 15.495178857119754,171.81957916833926 15.692523362580687,163.07116080558626 21.218169512227178,155.25168739451328 26.87537866551429,153.00647625070997 32.46680631698109,152.69679140119115 35.953225911129266,153.70326667063637 41.01840154849924,157.4194707722636 44.307476637652144,163.45826122740982 44.8337286519818,170.03893632261315 42.794502096716315,175.69052657380234 37.20307444548234,181.0323995674844 36.545259427279234,187.6903303117724 24.046774088870734,187.92258259042865 22.92848855862394,181.57432648149552 18.126438928302377,177.23889966629213 16.08721237303689,173.29054165194975 15.034708344610408,165.8582791632507 18.718472444219515,157.88399492629105 22.99427005997859,154.47747745196102 28.125227199168876,152.85163384262705 32.40102481492795,152.77421262615826 37.400418950477615,154.400056411454 43.12340960558504,160.12919074844103 44.89951015380211,166.32279783295235 43.45231711445376,174.2195690291701 37.00572994002141,181.10981772327796 36.80838543479331,187.5354954174254 30.427579761715606,187.7677477466059" stroke="#4DD2FF" stroke-linecap="round" stroke-linejoin="round" stroke-width="0.5"><title>2025-09-27 10.0km</title><desc>1758965825000</desc></polyline><polyline fill="none" points="94.66666666674428,154.3247739620856 90.82146542822011,155.37418773636455 84.07843137229793,160.09652721323073 81.45923632616177,160.88358021213207 84.13415892678313,165.40911510185106 84.07843137229793,171.1807626974187 81.0134158928413,176.886769310222 77.44685242511332,180.23164474085206 77.50257997959852,185.54405597958248 66.35706914355978,185.54405597958248 65.91124870977364,180.03488787414972 62.06604747194797,177.08352720009862 59.33539731707424,172.42690666177077 59.168214654317126,164.6876552843023 62.511867905268446,159.30947319144616 64.8524251806084,156.88271685043583 67.63880288950168,155.83330569090322 74.21465428266674,155.83330569090322 81.45923632616177,158.71918200375512 84.13415892678313,165.6058767210925 84.30134158930741,169.47550890647108 82.8524251806084,174.26332467148313 77.44685242511332,180.29723034903873 77.44685242511332,185.47847093985183 66.30134158930741,185.6752260379144 65.85552115598693,180.03488787414972 60.282765737967566,173.86980699544074 58.72239422099665,166.7208580225706 59.669762642122805,163.4414953927626 62.79050567629747,159.17829742172034 67.75025799800642,156.03007042169338 74.8833849329967,155.89889394154307 79.06295149656944,157.4074217484449 81.23632610938512,159.30947319144616 84.18988648080267,166.65527094411664 83.96697626425885,171.3119358670665 80.90196078410372,177.4114568741643 77.55830753338523,179.83813094347715 77.16821465431713,185.3473008389119 66.30134158930741,185.60964101227 65.63261093897745,179.64137394865975 60.39422084623948,174.85360070614843 58.83384932926856,170.45930975669762 58.66666666674428,166.91761921555735 59.948400412919,162.72003323078388 65.46542827645317,156.88271685043583 72.93292053672485,155.6365408957936 80.56759545905516,158.06330223137047 83.52115583093837,163.4414953927626 84.07843137229793,169.86902943835594 82.23942208453082,175.18153158802306 77.61403508787043,179.83813094347715 77.27966976258904,185.60964101227 66.30134158930741,185.54405597958248 65.68833849346265,180.16605912573868 61.453044375637546,176.36208129191073 58.83384932926856,170.32813640212407 59.83694530464709,162.72003323078388 64.57378740981221,157.73536207864527 69.14344685245305,155.70212916785385 79.28586171288043,157.14506935648387 81.62641898845322,159.2438853100175 83.79979360173456,165.27794065367198 84.13415892678313,169.86902943835594 81.6821465427056,176.09973711211933 77.50257997959852,180.10047350340756 77.16821465431713,185.47847093985183 66.24561403528787,185.41288589284522 65.46542827645317,179.83813094347715 61.78740970115177,176.82118333288236 59.78121775039472,173.60746173595544 58.83384932926856,166.06498691730667 61.285861713346094,160.81799250119366 65.79979360173456,156.22683508880436 71.26109391124919,155.17742279235972 80.84623323008418,158.39124220615486 83.63261093897745,163.96619460720103 84.13415892678313,170.06578960834304 82.29514963855036,175.18153158802306 77.55830753338523,179.96930223761592 77.22394220833667,185.54405597958248 66.35706914355978,185.6752260379144 65.63261093897745,180.16605912573868 61.898864809190854,176.69001135666622 59.55830753361806,172.42690666177077 59.2239422085695,164.62206798547413 62.56759545952082,159.2438853100175 65.57688338519074,156.68595239665592 68.41898864833638,155.57095261651557 79.6759545924142,157.14506935648387 81.6821465427056,158.9159457970527 83.96697626425885,165.3435278813704 83.79979360173456,170.39372308296151 81.73787409695797,175.70622062933398 77.44685242511332,180.10047350340756 77.50257997959852,184.88820526195923 76.83384932926856,185.21613070950843" stroke="#4DD2FF" stroke-linecap="round" stroke-linejoin="round" stroke-width="0.5"><title>2020-04-24 10.0km</title><desc>1587724293000</desc></polyline><polyline fill="none" points="141.33333333325572,154.3404629912693 136.99999999976717,155.58279541530646 129.11111111100763,160.22517289721873 126.61111111100763,159.44054822431644 123.44444444426335,156.82512528263032 117.66666666627862,155.64818126161117 110.72222222201526,157.9366814174573 108.49999999976717,159.96363145293435 105.83333333325572,165.7175170503324 105.88888888875954,170.9482745459536 107.94444444426335,175.78668487659888 112.66666666651145,180.10199110233225 113.55555555550382,185.6595370087307 124.22222222201526,184.87494539405452 124.05555555527098,179.90584148850758 128.88888888899237,175.06746417301474 130.38888888899237,170.88289035705384 130.2777777777519,166.1752101407037 128.61111111100763,161.66364881501067 123.77777777775191,156.75973956397502 120.94444444449618,155.8443387579755 116.66666666651145,155.97511038649827 108.94444444426335,159.70208989549428 105.33333333325572,168.1367480258923 106.66666666651145,173.7597879714449 112.66666666651145,180.23275747621665 113.33333333325572,185.46338920056587 124.16666666674428,185.00571073399624 124.16666666674428,179.97122470027534 129.16666666674428,174.41362642642343 131.16666666651145,167.94059452420333 128.66666666651145,160.35594357695663 129.27777777751908,159.57131907413714 126.83333333325572,159.96363145293435 122.94444444426335,157.21743944636546 116.72222222201526,155.64818126161117 109.94444444403052,158.72130804520566 106.05555555527098,164.86751467606518 106.61111111100763,173.7597879714449 112.49999999976717,180.10199110233225 112.94444444403052,185.3326239597518 123.72222222201526,185.1364760454744 124.11111111100763,179.64430857088882 128.72222222201526,175.2636153587955 130.50000000023283,169.57520509057213 129.7777777777519,164.34443569695577 126.55555555550382,159.11362097639358 119.77777777775191,155.8443387579755 114.99999999976717,156.30203933437588 108.88888888875954,159.17900644027395 105.72222222201526,165.2598236129852 106.22222222201526,172.64826097310288 108.33333333325572,176.30975394073175 112.27777777751908,179.97122470027534 112.83333333302289,185.26724132883828 123.72222222201526,185.1364760454744 123.77777777775191,179.97122470027534 128.61111111100763,175.13284790876787 130.22222222201526,170.0328952561249 129.33333333325572,163.75597130379174 126.05555555573665,158.98285002773628 123.27777777751908,156.95589669886976 118.72222222201526,155.97511038649827 115.72222222201526,156.04049619019497 110.22222222224809,157.9366814174573 106.44444444403052,163.1021213051863 105.33333333325572,166.82905681052944 106.44444444403052,173.6944040870294 109.27777777751908,177.48665767814964 112.33333333302289,179.7750750440755 112.99999999976717,185.3980065837968 123.77777777775191,185.20185869088164 123.77777777775191,179.97122470027534 129.0,174.4790102330153 130.38888888899237,167.22136447270168 128.72222222201526,161.92518952290993 123.33333333325572,156.49819661816582 118.83333333302289,155.12509429338388 110.33333333325572,158.06745259312447 106.55555555527098,163.8213562645833 105.49999999976717,167.87521000934066 106.77777777728625,174.0213234385592 112.55555555550382,180.36352382146288 113.16666666651145,185.20185869088164 124.0,184.87494539405452 123.94444444449618,180.1673742927378 128.94444444426335,174.5443940323894 130.33333333325572,166.95982605958125 128.44444444449618,161.7290340026375 124.22222222201526,157.67513898178004 117.61111111100763,155.77895293285837 109.22222222201526,158.59053701139055 105.61111111100763,165.58674753201194 105.77777777751908,170.9482745459536 107.22222222224809,174.67516161000822" stroke="#4DD2FF" stroke-linecap="round" stroke-linejoin="round" stroke-width="0.5"><title>2020-04-16 10.0km</title><desc>1587033949000</desc></polyline><polyline fill="none" points="188.0,154.34899812319782 183.32612055633217,155.5932509598788 175.3137557960581,160.43926391366404 173.9783616689965,160.43926391366404 171.69706336944364,158.01626229239628 167.24574961327016,156.05165925406618 163.18392581143416,155.9206854912336 156.896445131395,158.540155357623 153.11282843863592,162.99322808336 152.22256568749435,170.65505585889332 154.72642967524007,176.09031070803758 159.2890262750443,180.47776994580636 159.6785162286833,185.5855182048981 170.13910355465487,185.12713230313966 170.75115919602104,180.54325417091604 174.75734157650732,176.417734138784 177.1499227201566,170.58957056276267 176.76043276675045,165.0232944705058 173.58887171535753,159.3914806204848 171.58578052534722,157.55785548785934 167.0231839257758,155.8551985990489 162.46058732573874,156.18263298849342 155.89489953615703,158.9330748587381 152.83462132886052,164.1064911397989 152.05564142181538,167.77369612117764 153.39103554864414,174.45319089572877 159.17774343094788,180.15034871414537 160.12364760413766,185.5855182048981 170.52859350852668,185.19261602457846 170.69551777443849,179.95389589003753 175.3137557960581,175.3699785367935 177.2612055640202,170.13117329136003 176.53786707879044,164.63037892751163 172.3647604326252,158.60564195911866 166.18856259644963,155.98617237631697 157.50850077276118,158.01626229239628 153.39103554864414,163.12420031387592 152.16692426567897,167.3152967148344 152.72333848522976,172.55412635981338 155.56105100456625,177.13806506159017 159.2890262750443,180.3468014744576 159.95672333822586,185.65100187674398 170.63987635239027,185.19261602457846 170.69551777443849,179.88841160113225 175.7588871717453,174.84610005503055 177.2612055640202,169.41083402035292 176.76043276675045,165.28523802378913 174.2565687787719,160.57023669790942 170.0278207110241,157.09944833570626 167.0788253475912,155.8551985990489 161.90417310642079,156.3790935371071 155.89489953615703,158.80210172006628 152.66769706318155,164.89232265105238 152.1112828438636,168.95243585546268 153.27975270454772,174.32222111924784 159.2333848529961,180.15034871414537 159.6785162286833,185.45455083984416 170.80680061830208,184.8651973460219 170.75115919602104,179.8229273048346 175.5363214837853,175.2390089589171 177.09428129834123,170.06568793865154 176.48222565674223,164.23746312916046 171.8639876351226,158.60564195911866 166.68933539418504,155.6587378802942 161.79289026279002,156.51006720075384 155.89489953615703,159.19502105074935 152.89026275114156,164.3684350902913 152.16692426567897,170.32762930740137 154.5595054095611,175.8938565647113 159.12210200889967,180.28131722816033 159.78979907254688,185.65100187674398 170.80680061830208,185.0616485743667 170.80680061830208,179.95389589003753 175.3137557960581,175.50094808655558 177.20556414243765,169.73826106800698 176.37094281311147,164.3684350902913 173.03245749603957,159.3914806204848 167.0231839257758,156.05165925406618 161.6816074186936,156.24811984522967 155.06027820683084,159.65342661412433 152.16692426567897,167.8391817222 153.6692426581867,174.51867577334633 159.12210200889967,180.08486444648588 159.7341576507315,185.3890671467525 170.47295208647847,185.32358344632667 170.69551777443849,180.15034871414537 175.2024729521945,175.50094808655558 177.03863987629302,169.34534858929692 175.70324574946426,162.92774195742095 171.14064914989285,157.81980227591703 166.91190108191222,156.05165925406618 164.0741885623429,156.05165925406618 160.73570324573666,156.7065276428475 156.06182380206883,159.19502105074935 153.11282843863592,163.6480889529339 152.0,167.57723927532788 152.77897990704514,172.75058158836327 154.78207109728828,176.3522494668141" stroke="#4DD2FF" stroke-linecap="round" stroke-linejoin="round" stroke-width="0.5"><title>2020-04-14 10.0km</title><desc>1586861907000</desc></polyline><polyline fill="none" points="48.0,194.43653545627603 42.58895705523901,196.06115416396642 35.631901840213686,200.35012641333742 30.27607361949049,197.10090782807674 25.08588957041502,195.80121546646114 21.055214723804966,196.51604661380406 15.257668711710721,199.31037838064367 12.717791410861537,205.2889049599762 12.773006134899333,210.6825245587388 14.59509202442132,215.42627039336367 19.398773005930707,219.975032542774 19.89570552133955,225.23855713166995 30.496932515176013,224.9786310751806 30.66257668705657,219.71510420611594 34.91411042935215,215.62121805007337 36.901840490754694,211.07242289127316 36.23926380346529,204.11919792584376 32.48466257657856,198.53056617366383 25.472392637981102,195.93118482932914 20.779141104081646,196.64601582183968 15.423312883358449,199.1154254238354 12.55214723921381,206.13369195524137 13.104294478194788,212.0471676144516 15.092024539830163,216.01111317315372 19.23312883428298,219.9100504691014 20.006134969182312,225.56346454372397 30.55214723944664,224.8486680048518 30.773006134899333,219.58513999573188 35.07975460123271,215.29630525398534 37.23312883428298,209.38286161981523 36.68098159506917,204.83401916216826 33.42331288312562,199.18040974991163 27.12883435562253,196.1261388208368 21.496932515176013,196.45106199913425 15.312883435282856,199.31037838064367 12.0,205.61382317577954 12.27607361972332,210.5525583914714 13.546012270031497,213.73672138294205 19.288343558087945,219.9100504691014 19.5092024540063,225.10859411751153 30.496932515176013,224.8486680048518 30.607361963018775,219.975032542774 35.631901840213686,214.58149648294784 36.95705521479249,209.70777761860518 36.57055214722641,205.22392129572108 32.42944785254076,198.14065968990326 27.294478527503088,196.06115416396642 21.055214723804966,196.38607737765415 15.699386502848938,198.8554880497395 12.110429447842762,207.36837850062875 13.877300613559783,214.12661773065338 19.23312883428298,220.10499666893156 19.564417177578434,225.10859411751153 30.27607361949049,224.91364954347955 30.496932515176013,219.78008630080149 34.80368098127656,215.42627039336367 36.79141104291193,210.61754147859756 36.460122699383646,204.63906800030963 32.87116564414464,199.05044109071605 26.963190183741972,195.93118482932914 19.950920245377347,196.9709387185867 15.257668711710721,199.18040974991163 12.055214723804966,207.17342816240853 13.380368098150939,213.67173863359494 19.122699386207387,220.04001460928703 19.564417177578434,224.91364954347955 30.66257668705657,224.7836864591809 30.607361963018775,219.58513999573188 35.245398772880435,214.77644441404846 36.95705521479249,209.70777761860518 36.349693251540884,204.37913301942172 32.20858895685524,198.53056617366383 23.815950919874012,195.54127665626584 17.411042944528162,197.5557994893752 13.325153374113142,203.07945642544655 12.220858895452693,207.7582789870794 12.662576687056571,212.17713345808443 13.877300613559783,214.5165138252196 19.23312883428298,219.9100504691014 19.730061349691823,225.173575628025 30.386503067566082,224.91364954347955 30.386503067566082,219.5201578795677 34.36196318990551,216.0760956691811 36.79141104291193,209.64279443287523 35.797546012094244,203.14444032195024 30.773006134899333,197.3608459623647 23.429447852773592,195.80121546646114 15.478527607396245,198.79050368850585 12.331288343295455,207.30339506146265 12.828220858704299,212.50204794318415 14.319018404698,215.42627039336367" stroke="#4DD2FF" stroke-linecap="round" stroke-linejoin="round" stroke-width="0.5"><title>2020-04-13 10.0km</title><desc>1586775592000</desc></polyline><polyline fill="none" points="94.66666666674428,194.3575664748787 89.53973168227822,195.8005099457223 82.4066047470551,200.26049529685406 76.22084623295814,196.8499212191091 68.36326109408401,196.25962760159746 63.96078431396745,198.29285875044297 60.171310629695654,203.0151757199783 59.00103199202567,206.49130217847414 59.33539731707424,212.26293977181194 62.28895768825896,217.05073375662323 65.85552115598693,220.26443725364516 66.57997936010361,225.380093351705 76.38802889571525,225.11775306460913 77.33539731707424,224.33073152130237 77.33539731707424,219.9365091068321 81.79360165121034,214.88639321894152 83.4097007222008,211.5414880811004 83.79979360173456,203.60546275181696 82.90815273462795,200.85078501398675 85.91744066076353,196.65315674396697 84.74716202262789,198.22727075533476 81.01341589260846,199.93255631637294 74.21465428266674,196.32521580980392 67.80598555225879,196.78433306788793 63.124871001113206,199.1455020388239 59.55830753361806,204.26133655646117 59.39112487109378,212.06618030491518 61.45304437610321,215.93577141553396 65.9112487102393,220.26443725364516 66.41279669757932,225.51126345264493 76.6109391124919,225.05216797516914 77.33539731707424,219.80533779849065 81.79360165121034,215.4110825447715 83.68833849346265,210.885622161848 83.4097007222008,205.2451459314907 80.79050567606464,200.19490751507692 74.43756449967623,196.32521580980392 68.14035087730736,196.52198039164068 62.23323013447225,199.93255631637294 59.89267285866663,203.80222496780334 59.00103199202567,207.3439339225297 59.948400412919,213.77142689266475 61.397316821618006,216.46045983175281 65.68833849346265,220.19885163853178 66.35706914379261,225.51126345264493 76.6109391124919,225.11775306460913 77.44685242534615,219.67416646145284 81.1248710011132,216.39487380470382 83.1310629514046,212.91880419908557 83.74406604724936,207.60628191003343 82.29514963855036,202.09695030475268 79.00722394231707,198.42403471894795 73.32301341602579,196.32521580980392 67.36016511870548,196.8499212191091 62.79050567606464,199.4734414454433 60.56140350876376,202.16253788070753 58.83384932926856,207.60628191003343 59.00103199202567,210.7544488927815 60.95149638829753,216.0013574922923 65.74406604748219,220.3956084625679 66.24561403528787,225.44567840563832 76.77812177501619,225.1833381469478 77.50257997936569,219.80533779849065 81.90505675948225,215.4110825447715 83.57688338495791,211.73824771831278 83.68833849346265,206.03219228063244 82.29514963855036,202.03136272187112 76.94530443754047,197.440214261238 70.64809081540443,196.25962760159746 64.01651186775416,198.29285875044297 59.948400412919,203.21193812793354 58.9453044377733,206.03219228063244 59.112487100297585,211.47590152110206 61.62022703839466,216.7228038694593 65.52115583093837,220.26443725364516 66.35706914379261,225.6424335250631 77.11248710006475,225.05216797516914 77.16821465454996,220.0676803869428 82.29514963855036,214.62404838576913 83.68833849346265,209.57388819224434 82.4066047470551,202.81841324846027 80.0660474714823,199.40785357856657 76.8895768832881,196.98109750048025 70.42518059862778,195.99727469793288 63.79360165144317,198.42403471894795 59.948400412919,203.27752558304928 58.77812177501619,208.19656446605222 60.61713106324896,215.14873793860897 65.79979360173456,220.19885163853178 66.24561403528787,225.51126345264493 77.00103199202567,225.05216797516914 77.16821465454996,220.13326601620065 82.51805985555984,214.62404838576913 83.91124871000648,209.3771278518252 82.18369453051127,202.2937130110804 77.05675954581238,197.30903807928553 70.92672858620062,195.93168645433616 68.02889576880261,196.52198039164068 64.29514963878319,198.22727075533476 61.50877192988992,200.7851972960052 59.50257997959852,204.19574920798186 58.66666666674428,208.06539061438525 59.78121775039472,213.50908157636877 61.898864809423685,216.9195618230151" stroke="#4DD2FF" stroke-linecap="round" stroke-linejoin="round" stroke-width="0.5"><title>2020-04-12 10.0km</title><desc>1586649823000</desc></polyline><polyline fill="none" points="141.33333333325572,194.4934821818024 137.77847439912148,195.15758931729943 128.46812957176007,200.20478003751487 130.668756530853,203.79091661574785 131.62800417956896,209.70135520183248 128.637408568291,216.40863783890381 124.63113897619769,219.86186365323374 124.12330198544078,225.37370302306954 113.28944618604146,225.17448077641893 112.72518286295235,219.52982355473796 107.64681295701303,215.21328591025667 105.55903866235167,210.03340062318603 106.8568443050608,202.26349063764792 111.82236154633574,196.2865697965026 115.71577847446315,194.82553583936533 124.8568443050608,196.22015923750587 128.637408568291,198.81016570318025 131.17659352137707,205.6503865837003 131.06374085694551,210.96312684565783 128.91954022995196,215.6117368119303 124.46185997920111,219.72904763539555 124.06687565310858,225.30729561456246 113.23301985347643,225.24088819907047 112.6123301985208,219.66263961576624 108.09822361567058,215.7445537216845 106.06687565310858,212.4905311507755 105.38975966558792,206.6465288893669 108.60606060596183,199.73990894533927 112.6123301985208,196.35298034810694 119.2706374085974,194.82553583936533 127.50888192281127,197.6811898711021 130.668756530853,204.2557846363634 131.34587251837365,209.1036729904008 129.37095088814385,214.68201763834804 124.34900731430389,219.99467964225914 124.40543364686891,225.30729561456246 113.12016718904488,225.24088819907047 112.6123301985208,219.66263961576624 107.36468129581772,215.2796944117872 105.78474399168044,212.15848706034012 105.38975966558792,206.91216656425968 106.23615465010516,202.92758935655002 111.87878787890077,196.48580143006984 116.05433646822348,194.8919465492363 123.61546499468386,196.15374867152423 128.46812957176007,199.20862726529595 131.12016718904488,205.25192920811241 131.23301985370927,209.3029004590935 129.20167189114727,215.21328591025667 124.57471264363267,219.86186365323374 124.29258098243736,225.30729561456246 113.12016718904488,225.30729561456246 112.49947753408924,219.66263961576624 107.98537095100619,215.81096216588048 106.01044932100922,212.15848706034012 105.67189132701606,205.11911002540728 108.60606060596183,199.73990894533927 112.04806687566452,196.55221196007915 114.58725182851776,195.55605325312354 120.9634273769334,195.22399999113986 127.39602925791405,197.6811898711021 131.00731452461332,204.58783300674986 131.17659352137707,209.568536982988 128.86311389738694,215.81096216588048 124.57471264363267,219.59623158880277 124.29258098243736,225.10807334637502 113.1765935216099,225.5065178181976 112.44305120152421,219.52982355473796 107.70323928957805,215.41251139366068 106.01044932100922,212.22489589301404 105.33333333325572,205.31833878881298 108.5496342740953,199.73990894533927 111.93521421100013,196.55221196007915 114.81295715784654,195.35682131745853 119.10135841160081,194.95835725206416 125.928944618674,196.41939089266816 128.52455590385944,198.74375541787595 131.17659352137707,206.4473005576874 131.06374085694551,211.09594476240454 128.80668756505474,215.81096216588048 124.74399164062925,219.79545564798173 124.46185997920111,225.37370302306954 113.1765935216099,225.37370302306954 112.44305120152421,219.72904763539555 108.32392894476652,216.54145457601408 105.78474399168044,212.68975751893595 105.61546499491669,204.98629081383115 108.15464994776994,199.9391394566046 113.00731452461332,195.9545169302146 118.42424242408015,194.82553583936533 121.2455590388272,195.22399999113986 125.98537095077336,196.9506749896682 128.41170323919505,198.87657598167425 130.95088819228113,204.85347157355864 131.00731452461332,211.09594476240454 128.86311389738694,215.5453283463139 124.51828631130047,219.92827165150084 124.51828631130047,224.57681364798918 122.09195402311161,224.84244355466217" stroke="#4DD2FF" stroke-linecap="round" stroke-linejoin="round" stroke-width="0.5"><title>2020-04-08 10.0km</title><desc>1586343893000</desc></polyline><polyline fill="none" points="188.0,194.47770973452134 183.52073732740246,195.45397883228725 174.72811059933156,200.8559725006926 177.2165898620151,205.60708341631107 177.3271889402531,209.8374930251739 174.83870967756957,216.2155927476706 170.7465437790379,219.92527267121477 170.52534562232904,225.39212765765842 159.63133640564047,225.32704634330003 158.9677419355139,219.53478112613084 154.93087557610124,216.28067504888168 152.4976958525367,212.31064176996006 152.2764976960607,206.90875108365435 153.49308755761012,202.4830695099081 158.4700460829772,197.27634357073111 163.22580645186827,195.64923246146645 167.59447004646063,196.10482401621994 173.40092165931128,198.77328189951368 176.16589861758985,203.979994866997 177.3271889402531,209.9025760172517 174.78341013845056,216.41083963029087 170.69124423968606,219.99035457067657 170.4700460829772,225.4572089650319 159.74193548387848,225.26196502166567 159.29953917046078,219.99035457067657 154.2672811059747,215.2393573820591 152.22119815670885,210.3581567647052 152.55299539188854,204.95624852529727 154.98617511522025,200.1400484207552 158.4700460829772,197.08109047019389 160.84792626742274,196.23499296832597 168.0921658987645,196.10482401621994 173.23502304172143,198.643113497179 177.16129032266326,205.8674171756138 176.60829493100755,212.8313033665181 174.23041474679485,216.99657989788102 170.69124423968606,220.05543646315346 170.69124423968606,225.32704634330003 159.85253456234932,225.4572089650319 159.18894009222277,219.99035457067657 153.76958525343798,214.52345043962123 152.0,208.01516638381872 153.43778801849112,202.67832085496048 158.3594470047392,196.88583730638493 164.66359447012655,195.45397883228725 172.12903225794435,197.73193389171502 174.56221198150888,200.20513246336486 177.3824884793721,206.90875108365435 176.4976958525367,212.8313033665181 173.84331797249615,217.25690872228006 170.91244239662774,219.92527267121477 170.58064516168088,225.32704634330003 159.63133640564047,225.39212765765842 159.07834101398475,219.86019076459343 153.99078341037966,215.43460458214395 152.055299539119,209.8374930251739 152.8847926268354,204.0450784934801 158.5253456220962,196.82075290434295 164.66359447012655,195.64923246146645 172.29493087576702,197.40651226899354 175.39170506922528,201.70206349523505 177.49308755784295,207.42941736109788 177.54838709672913,210.4232397005544 176.11059907870367,214.39328544936143 170.7465437790379,219.86019076459343 170.7465437790379,225.32704634330003 160.01843317993917,225.52229026547866 159.02304147486575,220.2506820980925 153.99078341037966,215.30443978944095 152.11059907847084,210.74865427333862 152.2764976960607,205.34674954460934 154.8202764976304,200.7908885285724 159.07834101398475,196.88583730638493 163.77880184352398,195.7794015124091 167.5391705071088,196.03973952954402 173.29032258084044,198.44786084076623 176.3870967742987,203.91491123329615 177.10599078354426,211.269317223283 175.61290322616696,215.30443978944095 170.8571428572759,219.79510885104537 170.69124423968606,225.0667210148531 160.35023041511886,225.52229026547866 159.63133640564047,225.13180235767504 159.02304147486575,220.05543646315346 155.26267281128094,216.99657989788102 152.4976958525367,212.11539355490822 152.055299539119,207.299250833923 153.2165898620151,203.06882335455157 158.4700460829772,196.88583730638493 161.1797235023696,195.7794015124091 167.92626728117466,196.10482401621994 172.01843317993917,197.6668495812919 175.61290322616696,201.83223123499192 177.2165898620151,207.16908427875023 176.66359447012655,212.63605532079237 173.95391705073416,217.06166211451637 170.80184331792407,219.92527267121477 170.69124423968606,224.80639557377435 166.10138248861767,225.0667210148531" stroke="#4DD2FF" stroke-linecap="round" stroke-linejoin="round" stroke-width="0.5"><title>2020-04-07 10.0km</title><desc>1586257895000</desc></polyline><polyline fill="none" points="48.0,234.20307558221975 44.270015698391944,235.00125598802697 35.00156985875219,240.65500416082796 37.714285714318976,246.77429646265227 37.37519623222761,251.96234434418147 34.88854003115557,256.7512727167923 31.21507064346224,259.81084629223915 30.9324960752856,265.6639010933577 19.912087911972776,265.39785435819067 19.177394034340978,260.1434077186859 14.938775509828702,256.6182474329835 12.565149136353284,251.82931802305393 12.226059654261917,246.7077827437315 15.16483516455628,239.72380216018064 19.007849293295294,235.99898003647104 22.342229198897257,235.13428595487494 27.93720565107651,235.66640553373145 33.419152275891975,238.12745258805808 37.54474097327329,246.50824154372094 36.86656200932339,253.22609295864822 34.32339089456946,257.083835800353 31.158555730013177,259.8773585919407 31.21507064346224,265.39785435819067 20.0816326525528,265.73041275911964 19.06436420697719,260.1434077186859 13.864992150338367,254.88891612068983 12.282574568176642,250.69859312905464 12.678178963717073,244.5793399331742 15.277864991687238,239.72380216018064 21.4945054941345,235.73292044864502 26.9199372055009,235.40034580189968 33.70172684453428,237.92790859978413 37.14913657773286,245.8431037417031 36.47095761378296,253.62517092825146 33.927786498796195,257.7489614270162 31.21507064346224,260.0103831696324 30.875981161370873,265.2648309470969 20.251177393598482,265.79692441783845 19.403453688835725,260.40945673023816 14.825745682697743,256.55173478019424 12.565149136353284,251.69629167288076 12.678178963717073,244.5793399331742 14.825745682697743,240.38894659047946 19.06436420697719,236.46458403760334 23.35949764493853,235.13428595487494 27.54160125576891,235.2673158926773 34.26687598088756,239.12517155712703 36.97959183668718,244.04722807795042 37.14913657773286,251.89583118719747 34.549450549529865,256.68476007843856 30.989010988967493,260.07689544785535 30.875981161370873,265.33134265616536 20.194662480149418,265.6639010933577 19.34693877538666,260.1434077186859 14.204081632429734,255.6205568856094 12.339089481392875,251.03115949040512 12.452119308989495,245.57704841939267 15.221350078238174,239.923345564981 19.629513343563303,236.06549491541227 26.693877551006153,235.06777097494341 33.4756671898067,238.46002575795865 36.301412872737274,242.05180451384513 37.31868131831288,245.44402071472723 37.60125588695519,250.09997322468553 36.697017268277705,253.4256319758133 34.26687598088756,257.2168609832879 30.989010988967493,260.07689544785535 30.9324960752856,265.4643660527072 20.307692307513207,265.6639010933577 19.403453688835725,260.60899341345066 14.373626373242587,255.6205568856094 12.282574568176642,250.63207983510802 12.621664049802348,244.7123678251519 14.938775509828702,240.1228889048216 18.273155415663496,236.9301876857062 21.381475667003542,235.73292044864502 28.502354787895456,235.46686074574245 32.288854002952576,236.66412850143388 35.340659340145066,240.58848977898015 37.37519623222761,245.17796521948185 37.26216640486382,252.6274755182094 34.153846153756604,257.5494238146348 31.158555730013177,260.3429444883368 30.649921507108957,265.4643660527072 20.138147566467524,265.79692441783845 19.177394034340978,260.20991998247337 14.882260596146807,256.35219677881105 12.621664049802348,252.09537063667085 12.0,248.10456932877423 13.582417582161725,242.45088974543614 18.781789638567716,236.66412850143388 23.24646781757474,235.33383085095556 27.14599685999565,235.46686074574245 32.62794348481111,237.1962467545527 35.45368916797452,240.38894659047946 37.65777080040425,246.8408101744717 37.65777080040425,250.4325399104273 36.188383045140654,254.95542895363178 31.045525902416557,260.3429444883368 30.81946624792181,265.53087774006417 23.189952903892845,265.33134265616536" stroke="#4DD2FF" stroke-linecap="round" stroke-linejoin="round" stroke-width="0.5"><title>2020-04-02 10.0km</title><desc>1585825459000</desc></polyline><polyline fill="none" points="94.66666666674428,234.02425305714132 94.18090954516083,235.42177030822495 87.65017491253093,237.32747028331505 80.68765617208555,241.71055672416696 83.00849575200118,246.03008812241023 83.54822588688694,250.54015313042328 81.71314342832193,255.875959898578 77.17941029486246,260.7035527630942 76.53173413290642,265.91222681308864 66.16891554207541,265.65814622543985 65.41329335328192,260.4494699188508 60.82558720652014,256.3206082712859 59.09845077455975,252.25523917161627 58.9905047477223,247.5546210198081 60.069965017493814,243.67975880764425 63.25437281350605,239.74134802818298 68.75962018966675,236.81928422872443 74.53473263350315,237.20042381092208 77.8270864568185,238.40736418694723 80.2018990505021,240.4401002578088 82.84657671139576,246.53826619510073 83.17041479283944,251.87410937366076 81.38930534711108,256.44765060173813 76.85557221411727,260.5129906403017 76.69365317351185,265.9757469429169 66.11494252854027,265.8487066765083 65.62918540695682,260.6400320624234 61.68915542215109,257.52750929794274 59.63818090944551,254.35144863289315 58.77461269358173,247.17348816699814 61.52723638154566,241.26589727401733 68.43578210868873,236.8828075096826 73.88705647177994,237.0733773112297 78.04297851072624,238.47088729572715 80.5257371312473,240.82123748678714 82.84657671139576,246.4112217183574 83.27836081967689,251.11184903467074 81.01149425259791,256.765256306855 77.07146426779218,260.4494699188508 76.85557221411727,265.91222681308864 66.06096951523796,265.65814622543985 65.62918540695682,260.83059414388845 60.393803098239005,255.62187496293336 58.77461269358173,248.82506207353435 60.17791104433127,243.36214601557003 65.46726636658423,238.08974853926338 70.75662168907002,236.6922376464354 78.36681659170426,238.72497966245282 82.36081959027797,244.37850634456845 83.38630684651434,250.54015313042328 82.1449275361374,255.17722606047755 76.85557221411727,260.6400320624234 76.8015992003493,265.8487066765083 66.22288855584338,265.8487066765083 65.30534732644446,260.5129906403017 61.68915542215109,257.4004672015435 59.36831584200263,253.97032019717153 58.77461269358173,247.87223154120147 61.74312843568623,241.26589727401733 68.0579710144084,236.37462106981548 73.18540729628876,236.94633078365587 79.98600699636154,240.7577146323747 83.11644177907147,246.47474396013422 83.3323338329792,251.3024142125505 80.63368315831758,257.4004672015435 77.01749125448987,260.4494699188508 76.63968015974388,265.78518653311767 66.2768615691457,265.91222681308864 65.46726636658423,260.3859491906478 61.68915542215109,257.46398825303186 59.74612693651579,254.66905547335045 58.82858570711687,247.80870945064817 61.20339830080047,241.96464768715668 65.73713143425994,237.58156314544613 69.67716141906567,236.6922376464354 75.23638180899434,237.58156314544613 77.93503248365596,238.40736418694723 80.14792603673413,240.82123748678714 83.11644177907147,246.72883285896387 83.44027986004949,251.55650101957144 80.84957521222532,257.01934074726887 77.07146426779218,260.7035527630942 76.63968015974388,265.8487066765083 66.16891554207541,265.8487066765083 65.62918540695682,260.6400320624234 61.581209395313635,257.01934074726887 58.936531733954325,251.6835443818709 58.66666666674428,247.9357536250027 60.01599200395867,243.61623626295477 65.03548225876875,238.02622538915602 70.05497251381166,236.62871434475528 76.26186906546354,237.96270223218016 80.2018990505021,241.01180600811495 83.17041479283944,247.0464438276249 83.27836081967689,252.06467430357588 80.57971014478244,257.33694614307024 77.12543728132732,260.3859491906478 76.85557221411727,265.5946260613855 75.72213893057778,265.78518653311767" stroke="#4DD2FF" stroke-linecap="round" stroke-linejoin="round" stroke-width="0.5"><title>2020-03-23 10.0km</title><desc>1584960411000</desc></polyline><polyline fill="none" points="132.5125365270069,232.0 133.04552251903806,236.77467508608242 133.845001506852,239.2491138552141 133.785780841019,249.7739787857863 132.5421468600398,249.49517885659589 131.94994020229205,251.20282463086187 128.98890691401903,252.17861814668868 124.84346031025052,254.5832395348698 126.14631495717913,257.2317872206622 126.32397695456166,260.0894063237647 125.3468359693652,262.70306010977947 122.68190600990783,265.1424511545629 122.7411266756244,267.7212158640323 116.99672209622804,267.8954559772392 116.55256710294634,265.0030578788719 114.56867479986977,263.33033385904855 113.14737882139161,260.85608030154253 112.82166515977588,258.79999596840935 113.14737882139161,256.4999538558477 114.36140246957075,254.4786911525589 117.7369804183254,251.7604212880251 120.60918270808179,251.8301208022167 123.65904699498788,252.805912415497 124.78423964465037,253.85140014538774 126.26475628872868,256.987842950708 126.38319762027822,259.49697518060566 125.25800497073215,262.7379086834553 122.85956800729036,264.8636645426741 122.5338543454418,267.7909119205724 116.96711176331155,268.0 116.49334643722977,265.03790620341897 114.47984380123671,263.26063683617394 113.2065994872246,260.85608030154253 112.99932715704199,257.3014855495712 114.39101280260365,254.6529384374444 117.58892875397578,251.79527104704175 121.34944103006274,251.93467004518607 124.10320198826957,253.11955909107928 125.9982632928295,256.2211597551941 126.38319762027822,259.7409175481589 125.25800497073215,262.7379086834553 122.82995767425746,265.07275452432805 122.7411266756244,267.82575994331273 116.90789109759498,267.8954559772392 116.52295677026268,264.96820955045405 114.50945413426962,263.0515456770372 113.14737882139161,260.85608030154253 113.02893748995848,257.4060330146458 114.2725714710541,254.54839007783448 118.15152507869061,251.7604212880251 122.77073700854089,252.28316727641504 124.81384997745045,253.85140014538774 126.02787362562958,256.2211597551941 126.38319762027822,259.6015219320834 125.3468359693652,262.59851436593453 122.85956800729036,265.07275452432805 122.77073700854089,267.86060796215315 116.90789109759498,267.96515199623536 116.49334643722977,264.8636645426741 114.2725714710541,262.8424543819274 113.26582015305758,261.06517288752366 113.05854782287497,256.9529937542393 114.42062313540373,254.4786911525589 117.61853908677585,252.0043695216591 120.87567570398096,252.0043695216591 123.89592965797056,253.01501023327 124.84346031025052,253.78170106897596 126.23514595581219,257.0923905177042 126.44241828599479,259.77576644258806 125.1099533062661,262.8424543819274 122.85956800729036,265.1076028412499 122.7411266756244,267.86060796215315 116.87828076479491,267.86060796215315 116.49334643722977,264.93336121834 113.38426148460712,261.23941660526907 112.96971682424191,259.7060686497716 113.08815815567505,256.7787477149395 114.56867479986977,254.30444377326057 118.00347341434099,252.1437684292323 122.0896993521601,252.38771637217724 124.932291309,253.88624967777287 126.08709429146256,256.11661190516315 126.41280795319472,259.84546422047424 125.16917397198267,263.0515456770372 122.91878867289051,264.96820955045405 122.91878867289051,267.82575994331273 116.81906009896193,267.86060796215315 116.61178776877932,264.96820955045405 113.82841647777241,262.1803310510004 112.94010649132542,259.9151619831391 113.05854782287497,256.67420004607993 114.42062313540373,254.30444377326057 117.35204609087668,252.35286667742184 120.04658638325054,252.03921925424947" stroke="#4DD2FF" stroke-linecap="round" stroke-linejoin="round" stroke-width="0.5"><title>2019-12-13 10.0km</title><desc>1576239112000</desc></polyline><polyline fill="none" points="178.0795003150124,233.32013434770488 177.6626219204045,232.0 178.13905437139329,237.15193720014213 178.01002058252925,237.64258504909958 177.57329083583318,237.60753884818405 177.44425704702735,238.21500471814215 176.71968269441277,238.3435066752645 175.02239208767423,239.34815306175005 175.4690475105308,240.32942654395447 175.5186758908676,241.22891939286637 175.30031101743225,241.85972808435326 174.3672974675428,242.81761570902745 174.31766908726422,243.26151196751744 174.49633125640685,248.15593117001845 175.54845291905804,248.55308193647943 176.17377051099902,248.98527375616686 177.73210165277123,249.17216697972617 177.8909124698257,249.40578305385134 178.1787570756278,261.52976289379876 178.4169733011513,263.6787655378066 178.34749356872635,267.64963608418475 177.91076382197207,267.81313938645326 172.83874335390283,267.7547453783409 170.87345949350856,268.0 169.72208107024198,267.87153336293704 169.44416214048397,265.6875771346895 169.22579726710683,255.81834675026766 165.49374306754908,255.28106096160627 165.31508089840645,255.04745761019876 164.60043222189415,254.94233593706304 164.37214167241473,254.13639970667282 164.5805808697478,253.76263013602875 164.47139843308832,253.51734315149952 163.5284592071548,252.6997158419399 162.66492538969032,252.95668509267125 162.1984186147456,252.80483970031491 161.78154022007948,252.20913648178976 161.5830266988487,251.39149925720267 161.61280372703914,245.46928464043594 161.86094562860671,243.915671544848 162.11901320621837,243.30823778318882 162.0594591498375,242.65407452169165 163.26046595344087,234.67529969892348 164.80887141922722,234.65193492335675 168.13397290022112,234.92062953672576 168.30270939326147,235.06081776483188 174.44670287607005,236.19399925168545 176.63035160984145,236.8014730841751" stroke="#4DD2FF" stroke-linecap="round" stroke-linejoin="round" stroke-width="0.5"><title>2019-11-23 10.0km</title><desc>1574497580000</desc></polyline></svg>