<?xml version="1.0" encoding="utf-8" ?>
<svg baseProfile="full" height="300mm" version="1.1" viewBox="0,0,200,300" width="200mm" xmlns="http://www.w3.org/2000/svg" xmlns:ev="http://www.w3.org/2001/xml-events" xmlns:xlink="http://www.w3.org/1999/xlink"><defs /><rect fill="#222222" height="300" width="200" x="0" y="0" /><text fill="#FFFFFF" style="font-size:12px; font-family:Arial; font-weight:bold;" x="10" y="20">Over 10km Runs</text><text fill="#FFFFFF" style="font-size:4px; font-family:Arial" x="10" y="280">Runner</text><text fill="#FFFFFF" style="font-size:9px; font-family:Arial" x="10" y="290">Floyd Li</text><text fill="#FFFFFF" style="font-size:4px; font-family:Arial" x="65" y="280">SPECIAL TRACKS</text><rect fill="yellow" height="2.6" width="2.6" x="65" y="283" /><text fill="#FFFFFF" style="font-size:3px; font-family:Arial" x="70" y="285.5">Over 20.0 km</text><rect fill="red" height="2.6" width="2.6" x="65" y="287" /><text fill="#FFFFFF" style="font-size:3px; font-family:Arial" x="70" y="289.5">Over 40.0 km</text><text fill="#FFFFFF" style="font-size:4px; font-family:Arial" x="120" y="280">STATISTICS</text><text fill="#FFFFFF" style="font-size:3px; font-family:Arial" x="120" y="285">Number: 14</text><text fill="#FFFFFF" style="font-size:3px; font-family:Arial" x="120" y="290">Weekly: 1.4</text><text fill="#FFFFFF" style="font-size:3px; font-family:Arial" x="141" y="285">Total: 140.2 km</text><text fill="#FFFFFF" style="font-size:3px; font-family:Arial" x="141" y="290">Avg: 10.0 km</text><text fill="#FFFFFF" style="font-size:3px; font-family:Arial" x="167" y="285">Min: 10.0 km</text><text fill="#FFFFFF" style="font-size:3px; font-family:Arial" x="167" y="290">Max: 10.1 km</text><polyline fill="none" points="23.938019781839103,35.431648561847396 33.43652910832316,32.399999999965075 42.130080016795546,34.10530360910343 49.37470577424392,41.021223049086984 52.192060235422105,48.88446227833629 50.34065587539226,59.02130492817378 42.371567542199045,67.64226558129303 42.29107170039788,75.03159279958345 26.835870084818453,75.50526549230563 25.78942414186895,67.92647162877256 18.62529422575608,61.01076492824359 15.807939765043557,53.716056138509884 16.290914815384895,45.28443381469697 20.798681953456253,37.9895938623813 30.45818296354264,32.589478343201336 39.55421308102086,33.25265222025337 47.04032636387274,37.7053780874121 52.03106855228543,48.12656278046779 50.58214340079576,58.547623308666516 42.613055067602545,67.26332404150162 42.29107170039788,75.03159279958345 26.755374243017286,75.59999999997672 25.628432458266616,67.92647162877256 18.86678175162524,61.29497313022148 15.96893144864589,54.37921399687184 16.210418973583728,45.6633848772035 21.12066532066092,37.326423576741945 31.424133064225316,32.589478343201336 42.04958417499438,33.72634753910825 50.179664191789925,42.15808128530625 51.950572710484266,48.600250043557025 50.179664191789925,59.21077750396216 42.45206338446587,67.26332404150162 42.45206338446587,74.8421236507711 26.835870084818453,75.50526549230563 25.78942414186895,68.11594227538444 18.142319175880402,60.158139767998364 15.96893144864589,53.810793006268796 16.290914815384895,45.37917159567587 20.87917779525742,37.80011668900261 30.21669543813914,32.778956644877326 41.24462575791404,33.72634753910825 48.16726814862341,38.93697911204072 52.03106855228543,48.316037716460414 50.26016003405675,59.21077750396216 42.613055067602545,67.35805944172898 42.210575859062374,75.12632735888474 26.835870084818453,75.50526549230563 25.628432458266616,67.73700094077503 18.786285909824073,60.82129274250474 15.807939765043557,53.6213192603318 16.129923132248223,45.947598066180944 18.947277593426406,39.789624959463254 28.365291078109294,33.34739130461821 38.18578377133235,32.873695780464914 42.854542593006045,34.48425951547688 47.36230973061174,38.36854808527278 52.03106855228543,48.50551261147484 51.87007686914876,54.18974037433509 49.93817666685209,59.68445876426995 42.53255922580138,67.64226558129303 42.45206338446587,75.12632735888474 26.916365926153958,75.59999999997672 25.78942414186895,68.02120695705526 19.591244326904416,62.147597182542086 15.888435606379062,54.28447719063843 16.290914815384895,45.00022041029297 20.39620274491608,38.36854808527278 29.814216229133308,32.873695780464914 40.5201631821692,33.44213037844747 47.764788939617574,38.84224063338479 51.87007686914876,48.221300253761 50.421151717193425,58.452886954008136 46.87933467980474,63.7581070131273 42.53255922580138,67.45279483182821 42.53255922580138,74.8421236507711 26.916365926153958,75.50526549230563 25.54793661646545,67.64226558129303 19.027773435227573,61.4844452139223 15.96893144864589,54.37921399687184 16.773889866191894,43.01072399242548 19.99372353591025,38.84224063338479 30.05570375500247,32.778956644877326 40.43966733990237,33.34739130461821 48.16726814862341,39.3159329246846 51.70908518554643,47.17918748484226 50.98462260933593,56.93710388423642 47.523301414679736,62.905484531016555 42.53255922580138,67.16858863085508 42.210575859062374,75.03159279958345 27.56033266056329,75.59999999997672 26.352895034477115,74.36845059902407" stroke="#4DD2FF" stroke-linecap="round" stroke-linejoin="round" stroke-width="0.5"><title>2025-10-08 10.1km</title><desc>1759919017000</desc></polyline><polyline fill="none" points="80.330318226479,51.464613169955555 88.15031341463327,38.0349046762567 93.33704491658136,34.1843904433772 99.40153098059818,32.399999999965075 112.56784940883517,35.31137198902434 118.15356025798246,43.012373344565276 119.669681773521,52.215919388923794 116.55764287244529,61.04371869924944 110.09417746169493,67.14799544762354 109.85478985402733,74.9426248226664 94.21479947818443,75.31826784223085 93.41684078518301,68.08711113262689 88.3099051527679,63.391522534308024 84.71909103589132,57.9446079027839 83.52215299708769,47.4263310880051 87.83112993696705,38.69230783631792 96.20969620998949,33.526983865129296 104.50846661347896,32.869576788682025 114.00417505577207,37.37750101805432 118.95151895005256,45.548053943843115 119.43029416585341,52.873311796807684 117.03641808824614,60.19850776239764 110.01438159309328,67.33581866585882 109.29621876915917,75.03653559304075 94.2945953477174,75.50608929072041 93.25724904704839,67.80537653388456 84.71909103589132,58.32025828625774 83.44235712755471,48.55329542164691 87.75133406789973,39.067966561357025 95.97030860185623,33.62089912116062 104.34887487487867,32.869576788682025 113.76478744810447,37.095756440248806 118.71213134238496,44.79674194683321 119.51009003538638,52.68548544548685 116.55764287244529,61.04371869924944 110.01438159309328,67.52364184363978 109.45581050775945,75.13044635282131 94.13500360865146,75.4121785715688 92.69867796218023,67.14799544762354 87.83112993696705,63.01587434776593 84.32011168962345,57.662870008382015 83.44235712755471,48.17764080624329 87.5119464606978,39.44362512353109 91.98051513871178,35.31137198902434 95.97030860185623,33.62089912116062 105.62560878321528,32.96349211566849 114.80213374830782,38.410563686222304 118.15356025798246,43.012373344565276 119.43029416585341,52.967224957130384 116.95662221871316,60.29242012958275 110.09417746169493,67.14799544762354 109.45581050775945,75.03653559304075 94.45418708631769,75.59999999997672 93.17745317798108,67.61755341716344 88.86847623763606,64.42455420771148 85.27766212075949,59.35329600155819 83.3625612584874,48.74112266802695 86.87357950629666,40.194941759167705 94.61377882445231,34.0904752483475 104.50846661347896,32.869576788682025 112.96682875556871,36.43835206964286 118.07376438844949,42.918459106003866 119.3504982967861,52.967224957130384 116.79703048011288,60.668069495703094 110.25376920076087,66.86626054329099 109.53560637729242,75.03653559304075 94.2945953477174,75.4121785715688 93.33704491658136,68.08711113262689 86.15541668282822,60.761981811665464 83.12317365081981,49.868085292575415 84.71909103589132,43.85760103497887 88.15031341463327,38.31664894887945 94.21479947818443,34.1843904433772 99.2419392419979,32.681746103509795 105.7054046522826,33.24523803615011 113.20621636323631,36.814011771115474 117.9141726498492,42.7306305981474 119.27070242725313,54.00026905036066 116.95662221871316,60.386332486290485 110.01438159309328,67.52364184363978 109.29621876915917,74.9426248226664 94.69357469398528,75.59999999997672 93.25724904704839,67.71146498073358 87.1129671134986,62.076753169938456 84.24031582055613,56.44200474169338 83.3625612584874,51.08895981620299 85.67664146702737,41.697573077399284 90.54418949224055,36.43835206964286 99.16214337293059,32.869576788682025 109.37601463869214,33.9965600433643 117.9141726498492,42.35497346025659 119.3504982967861,48.083727127173916 118.71213134238496,56.16026635869639 113.92437918670475,64.14281841891352" stroke="#4DD2FF" stroke-linecap="round" stroke-linejoin="round" stroke-width="0.5"><title>2025-10-01 10.0km</title><desc>1759271073000</desc></polyline><polyline fill="none" points="161.3821385744959,33.97939315869007 167.69716274552047,32.399999999965075 177.0118233980611,34.90844659943832 182.85322075616568,42.99116906977724 184.03728778846562,48.37960840051528 183.87941218400374,54.51123956486117 182.14278053678572,59.435093464155216 174.6436893339269,67.23887948092306 174.4068759274669,75.04259450087557 159.2508179168217,75.50709910847945 157.59312407160178,67.61048656830098 151.51491330750287,61.850558627571445 148.67315243044868,56.09059200779302 147.96271221106872,50.05187579250196 149.77828166028485,43.084073482837994 156.4879948417656,35.8374990336597 165.64477988984436,33.23614968144102 174.24900032300502,34.90844659943832 178.03801482589915,37.50979087932501 181.5902159223333,42.24793340207543 183.95834998600185,49.21574250399135 182.6164073497057,58.04155277524842 179.6957086706534,62.7795818792074 174.6436893339269,66.96017406031024 174.485813729465,74.67099063354544 169.03910538181663,75.4141982072033 158.69825330143794,75.32129729585722 157.75099967606366,67.88919177779462 151.83066451596096,62.315070379234385 148.4363390239887,56.18349500198383 148.8310280344449,45.499584693752695 151.7517267134972,40.11112726962892 155.85649242484942,36.302024873381015 163.19770802371204,33.42196061112918 174.24900032300502,34.90844659943832 181.5902159223333,41.969219860446174 183.80047438200563,48.193800711247604 183.64259877800941,54.97575529105961 180.3272110875696,62.407972699264064 174.6436893339269,67.42468304448994 173.93324911454692,75.13549544243142 158.85612890636548,75.32129729585722 157.90887528052554,67.88919177779462 148.98890363890678,58.13445555843646 147.96271221106872,52.560270767018665 148.67315243044868,45.592488835100085 153.56729616317898,38.2530306528206 162.96089461725205,33.51486606098479 173.14387109316885,34.629730672750156 178.74845504481345,38.5317454020842 183.32684756908566,46.7073377482011 183.72153657954186,54.60414273006609 180.40614889003336,62.03636335849296 174.56475153192878,67.33178126794519 174.56475153192878,74.57808964169817 173.61749790608883,75.22839637409197 158.85612890636548,75.32129729585722 157.82993747806177,67.88919177779462 152.62004253687337,63.15119089826476 149.22571704536676,57.57703870959813 148.1995256175287,47.72928131202934 153.01473154779524,38.62465029844316 162.80301901279017,33.51486606098479 174.88050274038687,35.187162435322534 181.19552691094577,41.5976016644272 183.80047438200563,48.751223658036906 183.16897196462378,56.740912756707985 180.01145987957716,62.68667959951563 174.80156493838876,67.14597768400563 174.4068759274669,74.85679258732125 169.11804318381473,75.59999999997672 158.85612890636548,75.59999999997672 157.75099967606366,67.70338831469417 151.98854011995718,62.407972699264064 148.5942146279849,56.18349500198383 148.8310280344449,45.68539296666859 155.46180341439322,36.302024873381015 162.25045439833775,33.607771500828676 168.96016757981852,33.23614968144102 173.14387109316885,34.44392000470543 179.22208185773343,38.90336492669303 183.16897196462378,46.149913472821936 183.80047438200563,54.04672358708922 181.3534025158733,60.82863188855117 174.6436893339269,67.23887948092306 173.85431131254882,75.22839637409197 158.85612890636548,75.50709910847945 157.51418627006933,67.88919177779462 151.7517267134972,62.68667959951563 149.30465484736487,57.9486499823397 148.04165001306683,49.029934995865915 152.46216693287715,39.46079391147941 157.59312407160178,35.37297294236487 163.75027263863012,33.42196061112918 168.88122977735475,33.32905515137827 174.88050274038687,35.280067693733145 181.74809152632952,42.15502889815252 183.87941218400374,49.58735739951953 182.14278053678572,59.06348283495754 174.4068759274669,67.33178126794519 174.1700625210069,75.04259450087557 166.5130957136862,75.32129729585722" stroke="#4DD2FF" stroke-linecap="round" stroke-linejoin="round" stroke-width="0.5"><title>2025-09-27 10.0km</title><desc>1758965825000</desc></polyline><polyline fill="none" points="55.60000000009313,83.18972875451436 50.985758513910696,84.44902528362582 42.894117646850646,90.11583265586523 39.75108359148726,91.06029625452356 42.96099071204662,96.49093812220963 42.894117646850646,103.41691523691406 39.21609907131642,110.26412317226641 34.93622291018255,114.27797368902247 35.00309597537853,120.65286717546405 21.62848297227174,120.65286717546405 21.093498451868072,114.0418654489331 16.479256966151297,110.50023264007177 13.202476780395955,104.91228799411329 13.001857585273683,95.6251863411162 17.014241486089304,89.17136782972375 19.822910216636956,86.25926022051135 23.166563467355445,84.99996682908386 31.057585139060393,84.99996682908386 39.75108359148726,88.4630184044945 42.96099071204662,96.72705206525279 43.161609907168895,101.37061068770709 41.42291021673009,107.11598960577976 34.93622291018255,114.35667641885811 34.93622291018255,120.5741651278222 21.561609907075763,120.81027124548564 21.026625387137756,114.0418654489331 14.339318885467947,106.64376839454053 12.466873065335676,98.06502962700324 13.603715170407668,94.12979447131511 17.3486068113707,89.01395690609934 23.30030959751457,85.23608450603206 31.86006191931665,85.07867272984004 36.87554179574363,86.88890609808732 39.48359133116901,89.17136782972375 43.02786377700977,97.9863251328934 42.76037151692435,103.57432304049144 39.082352940924466,110.8937482489855 35.069969040108845,113.80575713212602 34.601857585133985,120.41676100669429 21.561609907075763,120.7315692146658 20.759133126819506,113.56964873836841 14.47306501539424,107.82432084734319 12.60061919502914,102.55117170803715 12.399999999906868,98.3011430586921 13.938080495456234,93.26403987692902 20.558513931697235,86.25926022051135 29.51950464397669,84.7638490749523 38.68111455091275,87.67596267763292 42.225386996986344,94.12979447131511 42.894117646850646,101.84283532603877 40.68730650120415,108.21783790562768 35.13684210530482,113.80575713212602 34.73560371506028,120.7315692146658 21.561609907075763,120.65286717546405 20.826006192015484,114.19927095092135 15.743653250858188,109.63449755025795 12.60061919502914,102.39376368257217 13.80433436552994,93.26403987692902 19.48854489182122,87.28243449435104 24.9721362227574,84.84255500143627 37.14303405536339,86.57408322772244 39.95170278614387,89.09266237198608 42.55975232180208,96.33352878439473 42.96099071204662,101.84283532603877 40.018575851107016,109.31968453450827 35.00309597537853,114.12056820408907 34.601857585133985,120.5741651278222 21.494736842112616,120.49546307139099 20.558513931697235,113.80575713212602 16.14489164110273,110.18541999947047 13.737461300333962,106.32895408314653 12.60061919502914,97.27798430074472 15.543034055968747,90.98159100144403 20.959752321941778,85.47220210649539 27.513312693452463,84.21290735079674 39.01547987596132,88.06949064740911 42.35913312691264,94.75943352858303 42.96099071204662,102.07894752995344 40.754179566167295,108.21783790562768 35.069969040108845,113.96316268510418 34.6687306498643,120.65286717546405 21.62848297227174,120.81027124548564 20.759133126819506,114.19927095092135 16.278637771029025,110.02801362797618 13.469969040248543,104.91228799411329 13.06873065023683,95.54648158256896 17.081114551285282,89.09266237198608 20.69226006208919,86.0231428759289 24.102786377770826,84.68514313985361 37.61114551080391,86.57408322772244 40.018575851107016,88.69913495640503 42.76037151692435,96.41223345760955 42.55975232180208,102.47246769955382 40.085448916302994,108.8474647552357 34.93622291018255,114.12056820408907 35.00309597537853,119.86584631435107 34.20061919512227,120.25935685139848" stroke="#4DD2FF" stroke-linecap="round" stroke-linejoin="round" stroke-width="0.5"><title>2020-04-24 10.0km</title><desc>1587724293000</desc></polyline><polyline fill="none" points="121.5999999998603,83.20855558948824 116.39999999967404,84.69935449835612 106.93333333311602,90.27020747668575 103.93333333311602,89.32865786919137 100.13333333306946,86.19015033915639 93.19999999948777,84.77781751391012 84.86666666646488,87.52401770092547 82.1999999997206,89.95635774353286 78.99999999976717,96.86102046043379 79.06666666618548,103.13792945514433 81.53333333297633,108.9440218519303 87.19999999948777,114.12238932284527 88.26666666660458,120.79144441045355 101.06666666641831,119.84993447287707 100.86666666623205,113.8870097862673 106.66666666674428,108.08095700765261 108.46666666655801,103.05946842842968 108.33333333325572,97.41025216889102 106.33333333325572,91.99637857801281 100.53333333320916,86.11168747674674 97.13333333306946,85.01320650958223 91.99999999976717,85.17013246379793 82.73333333292976,89.6425078745815 78.39999999990687,99.76409763103584 79.99999999953434,106.51174556580372 87.19999999948777,114.27930897142505 87.99999999976717,120.55606704065576 101.0,120.00685288076056 101.0,113.96546964033041 106.99999999976717,107.2963517116732 109.39999999967404,99.52871342905564 106.39999999967404,90.4271322923596 107.13333333306946,89.48558288894128 104.1999999997206,89.95635774353286 99.53333333297633,86.66092733567348 92.06666666641831,84.77781751391012 83.9333333328832,88.465569654305 79.26666666637175,95.84101761132479 79.93333333311602,106.51174556580372 86.99999999953434,114.12238932284527 87.5333333327435,120.39914875169052 100.46666666632518,120.16377125459258 100.93333333311602,113.57317028503167 106.46666666632518,108.31633843062446 108.60000000009313,101.49024610867491 107.73333333316259,95.21332283632364 103.86666666646488,88.93634517164901 95.73333333316259,85.01320650958223 89.99999999976717,85.56244720128598 82.66666666627862,89.01480772835203 78.86666666623205,96.31178833555896 79.46666666632518,105.17791316774674 82.0,109.57170472893631 86.73333333292976,113.96546964033041 87.39999999967404,120.32068959460594 100.46666666632518,120.16377125459258 100.53333333320916,113.96546964033041 106.33333333325572,108.15941749053309 108.26666666637175,102.0394743073266 107.19999999995343,94.50716556457337 103.26666666660458,88.7794200333301 99.93333333311602,86.34707603865536 94.46666666655801,85.17013246379793 90.86666666646488,85.24859542824561 84.26666666660458,87.52401770092547 79.73333333269693,93.72254556621192 78.39999999990687,98.19486817263532 79.73333333269693,106.43328490445856 83.13333333283663,110.98398921376793 86.7999999995809,113.73009005287895 87.59999999962747,120.47760790056782 100.53333333320916,120.24223042902304 100.53333333320916,113.96546964033041 106.79999999981374,107.37481227959506 108.46666666655801,98.66563736723037 106.46666666632518,92.3102274275152 100.0,85.7978359417757 94.59999999962747,84.15011315210722 84.39999999967404,87.68094311171444 79.86666666623205,94.58562751748832 78.59999999962747,99.45025201124372 80.13333333283663,106.8255881263176 87.06666666641831,114.43622858577874 87.7999999995809,120.24223042902304 100.80000000004657,119.84993447287707 100.73333333316259,114.200849151297 106.73333333292976,107.45327283884399 108.39999999990687,98.35179127153242 106.13333333306946,92.0748408032232 101.06666666641831,87.2101667781244 93.13333333306946,84.93474351946497 83.06666666641831,88.30864441365702 78.73333333316259,96.70409703842597 78.9333333328832,103.13792945514433 80.66666666651145,107.6101939320215" stroke="#4DD2FF" stroke-linecap="round" stroke-linejoin="round" stroke-width="0.5"><title>2020-04-16 10.0km</title><desc>1587033949000</desc></polyline><polyline fill="none" points="187.5999999998603,83.21879774791887 181.99134466750547,84.71190115186619 172.3765069548972,90.52711669640848 170.77403400256298,90.52711669640848 168.03647604305297,87.61951475089882 162.69489953573793,85.26199110492598 157.82071097334847,85.10482258949196 150.27573415753432,88.24818642914761 145.73539412603714,93.59187370003201 144.66707882494666,102.78606703074183 147.67171560996212,109.30837284971494 153.14683152968064,114.57332393503748 153.61421947414055,120.70262184593594 166.16692426544614,120.15255876380252 166.90139103517868,114.65190500515746 171.70880989148282,109.70128096657572 174.5799072640948,102.7074846753967 174.11251931986772,96.02795336465351 170.3066460583359,89.2697767445934 167.90293663041666,87.0694265854545 162.42782071069814,85.02623831888195 156.9527047907468,85.41915958625032 149.07387944310904,88.71968983049737 145.40154559444636,94.9277893677936 144.46676970575936,99.32843534549465 146.06924265809357,107.34382907487452 153.01329211704433,114.180418457021 154.1483771246858,120.70262184593594 166.6343122101389,120.23113922955235 166.83462132909335,113.94467506807996 172.3765069548972,108.44397424423369 174.7134466767311,102.1574079496786 173.84544049436226,95.55645471304888 168.83771251910366,88.3267703509191 161.426275115693,85.18340685160365 151.01020092703402,87.61951475089882 146.06924265809357,93.74904037668603 144.6003091186285,98.77835605782457 145.26800618204288,105.06495163182262 148.6732612052001,110.56567807396641 153.14683152968064,114.41616176936077 153.94806800573133,120.78120225208113 166.76785162254237,120.23113922955235 166.83462132909335,113.8660939214169 172.9106646059081,107.81532006605994 174.7134466767311,101.29300082445843 174.11251931986772,96.34228562860517 171.1078825343866,90.68428403750295 166.03338485304266,86.51933800283587 162.49459041678347,85.02623831888195 156.28500772756524,85.65491224458674 149.07387944310904,88.56252206407953 145.20123647572473,95.87078718125122 144.53353941231035,100.74292302661343 145.93570324545726,107.1866653431789 153.08006182359532,114.180418457021 153.61421947414055,120.54546100780135 166.96816074172966,119.8382368152379 166.90139103517868,113.78751276578987 172.64358578016981,108.28681075072382 174.51313755777664,102.07882552640513 173.7786707880441,95.08495575498091 168.2367851617746,88.3267703509191 162.0272024727892,84.79048545635305 156.15146831516176,85.8120806409861 149.07387944310904,89.03402526094578 145.46831530099735,95.24212210840778 144.6003091186285,102.39315516891656 147.4714064912405,109.07262787770014 152.94652241049334,114.33758067380404 153.74775888677686,120.78120225208113 166.96816074172966,120.07397828926332 166.96816074172966,113.94467506807996 172.3765069548972,108.6011377038667 174.64667697064579,101.68591328163166 173.6451313754078,95.24212210840778 169.63894899515435,89.2697767445934 162.42782071069814,85.26199110492598 156.01792890229262,85.49774381425232 148.07233384810388,89.58411193703068 144.6003091186285,99.40701806661673 146.40309118968435,107.42241092800396 152.94652241049334,114.1018373357947 153.68098918069154,120.4668805761612 166.5675425035879,120.38830013561528 166.83462132909335,114.180418457021 172.24296754249372,108.6011377038667 174.44636785122566,101.21441830723779 172.8438948993571,93.51329034892842 167.3687789796386,87.38376273110043 162.29428129806183,85.26199110492598 158.88902627467178,85.26199110492598 154.88284389465116,86.04783317144029 149.27418856229633,89.03402526094578 145.73539412603714,94.37770674360218 144.39999999990687,99.09268713038182 145.33477588836104,105.30069790605921 147.7384853165131,109.62269936018856" stroke="#4DD2FF" stroke-linecap="round" stroke-linejoin="round" stroke-width="0.5"><title>2020-04-14 10.0km</title><desc>1586861907000</desc></polyline><polyline fill="none" points="55.60000000009313,131.32384254748467 49.10674846591428,133.27338499668986 40.758282208116725,138.42015169595834 34.331288343062624,134.52108939364552 28.103067484218627,132.9614585597301 23.266257668379694,133.8192559365416 16.309202453820035,137.17245405673748 13.261349692940712,144.34668595192488 13.327607361599803,150.81902947044 15.514110429212451,156.5115244720364 21.27852760720998,161.97003905131714 21.87484662537463,168.28626855794573 34.59631901816465,167.97435729019344 34.79509202437475,161.65812504728092 39.89693251531571,156.74546166008804 42.28220858890563,151.2869074695045 41.48711656406522,142.94303751090774 36.98159509175457,136.23667940835003 28.566871165530756,133.1174217950902 22.93496932485141,133.97521898616105 16.50797546003014,136.93851050850935 13.062576686963439,145.3604303462198 13.72515337378718,152.45660113729537 16.11042944760993,157.21333580772625 21.079754600999877,161.89206056291005 22.007361962925643,168.67615745245712 34.66257668705657,167.81840160576394 34.927607361692935,161.50216799485497 40.095705521292984,156.35556630470091 42.67975460086018,149.25943394377828 42.01717791380361,143.80082299449714 38.10797545965761,137.0164916998474 30.55460122646764,133.35136658494594 23.796319018118083,133.74127439892618 16.375460122246295,137.17245405673748 12.399999999906868,144.73658781085396 12.731288343435153,150.6630700697424 14.2552147237584,154.4840656594606 21.146012269658968,161.89206056291005 21.411042944760993,168.1303129409789 34.59631901816465,167.81840160576394 34.72883435548283,161.97003905131714 40.758282208116725,155.49779577949084 42.34846625756472,149.649333142268 41.884662576485425,144.26870555483038 36.91533742309548,135.76879162783735 30.753374232677743,133.27338499668986 23.266257668379694,133.66329285310348 16.839263803325593,136.6265856596292 12.53251533722505,146.84205420070793 14.652760736178607,154.95194127678405 21.079754600999877,162.1259960026946 21.477300612954423,168.1303129409789 34.331288343062624,167.89637945214054 34.59631901816465,161.73610356095014 39.76441717729904,156.5115244720364 42.14969325135462,150.74104977428215 41.75214723893441,143.5668816003017 37.44539877283387,136.86052930884762 30.355828220490366,133.1174217950902 21.94110429426655,134.36512646224583 16.309202453820035,137.0164916998474 12.466257668333128,146.6081137948786 14.056441717781126,154.406086360279 20.947239263448864,162.0480175311095 21.477300612954423,167.89637945214054 34.79509202437475,167.74042375094723 34.72883435548283,161.50216799485497 40.29447852727026,155.73173329676501 42.34846625756472,149.649333142268 41.61963190184906,143.25495962327113 36.650306748226285,136.23667940835003 26.57914110389538,132.6495319874375 18.89325153338723,135.06695938721532 13.990184048656374,141.69534771045437 12.665030674543232,147.30993478442542 13.195092024281621,152.61256014963146 14.652760736178607,155.4198165902053 21.079754600999877,161.89206056291005 21.676073619397357,168.20829075359507 34.46380368084647,167.89637945214054 34.46380368084647,161.42418945545796 39.23435582779348,157.29131480294745 42.14969325135462,149.57135331939207 40.95705521432683,141.77332838630537 34.927607361692935,134.83301515475614 26.115337423048913,132.9614585597301 16.57423312868923,136.5486044261488 12.797546011861414,146.76407407369697 13.393865030258894,153.00245753175113 15.182822085451335,156.5115244720364" stroke="#4DD2FF" stroke-linecap="round" stroke-linejoin="round" stroke-width="0.5"><title>2020-04-13 10.0km</title><desc>1586775592000</desc></polyline><polyline fill="none" points="121.5999999998603,131.22907976992428 115.44767801836133,132.96061193489004 106.88792569632642,138.31259435630636 99.4650154793635,134.21990546298912 90.03591331257485,133.5115531219053 84.75294117652811,135.9514305005432 80.20557275530882,141.6182108640205 78.80123839015141,145.78956261422718 79.20247678016312,152.7155277261627 82.74674922577105,158.46088050794788 87.02662538690493,162.3173247044324 87.8959752318915,168.4561120221042 99.6656346747186,168.14130367757753 100.80247678025626,167.19687782559777 100.80247678025626,161.92381092824508 106.15232198126614,155.8636718627531 108.09164086636156,151.8497856973554 108.55975232180208,142.3265553022502 107.48978328122757,139.02094201685395 111.10092879249714,133.9837880927953 109.6965944271069,135.872724906425 105.21609907085076,137.9190675796708 97.0575851390604,133.590258971788 89.36718266247772,134.14119968150044 83.74984520114958,136.97460244665854 79.46996904001571,143.11360386776505 79.26934984512627,152.47941636596806 81.74365325085819,157.12292569869896 87.09349845186807,162.3173247044324 87.69535603676923,168.61351614323212 99.93312693480402,168.0626015702146 100.80247678025626,161.76640535827028 106.15232198126614,156.49329905374907 108.42600619187579,151.06274659425253 108.09164086636156,144.29417511785869 104.94860681099817,138.23388901812723 97.32507739937864,133.590258971788 89.76842105248943,133.82637646998046 82.67987616104074,137.9190675796708 79.87120743002743,142.56266996142222 78.80123839015141,146.81272070709383 79.9380804952234,154.52571227122098 81.67678018566221,157.75255179812666 86.82600619201548,162.23862196633127 87.62848297227174,168.61351614323212 99.93312693480402,168.14130367757753 100.93622291018255,161.60899975377833 105.34984520124272,157.67384856566787 107.75727554154582,153.50256503897253 108.4928792566061,147.12753829208668 106.7541795661673,140.51634036574978 102.80866873031482,136.10884166281903 95.98761609895155,133.590258971788 88.83219814207405,134.21990546298912 83.34860681090504,137.36812973453198 80.67368421028368,140.5950454568374 78.60061919502914,147.12753829208668 78.80123839015141,150.90533867134945 81.1417956657242,157.2016289908206 86.8928792567458,162.4747301551397 87.49473684211262,168.5348140868009 100.13374612969346,168.2200057763839 101.00309597491287,161.76640535827028 106.2860681109596,156.49329905374907 108.29226006171666,152.08589726203354 108.42600619187579,145.23863073677057 106.7541795661673,140.43763526628027 100.33436532481574,134.92825711349724 92.77770897815935,133.5115531219053 84.81981424125843,135.9514305005432 79.9380804952234,141.85432575352024 78.73436532518826,145.23863073677057 78.93498452031054,151.77108182536904 81.94427244574763,158.0673646433861 86.62538699689321,162.3173247044324 87.62848297227174,168.77092023007572 100.534984519938,168.0626015702146 100.60185758513398,162.08121646434302 106.7541795661673,155.54885806300445 108.42600619187579,149.48866583075142 106.88792569632642,141.38209589815233 104.07925696554594,137.2894242943148 100.26749225961976,134.37731700058794 92.51021671807393,133.19672963756602 84.55232198140584,136.10884166281903 79.9380804952234,141.933030699729 78.53374612983316,147.83587735932088 80.74055727571249,156.17848552641226 86.95975232170895,162.23862196633127 87.49473684211262,168.61351614323212 100.40123839001171,168.0626015702146 100.60185758513398,162.159919219499 107.02167182648554,155.54885806300445 108.69349845172837,149.2525534221786 106.620433436241,140.75245561334305 100.46811145474203,134.77084569516592 93.11207430320792,133.11802374524996 89.6346749223303,133.82637646998046 85.154179566307,135.872724906425 81.8105263155885,138.9422367552179 79.4030959752854,143.03489904961316 78.39999999990687,147.6784687373438 79.73746130033396,154.21089789172402 82.27863777102903,158.30347418767633" stroke="#4DD2FF" stroke-linecap="round" stroke-linejoin="round" stroke-width="0.5"><title>2020-04-12 10.0km</title><desc>1586649823000</desc></polyline><polyline fill="none" points="187.60000000009313,131.3921786181745 183.33416927885264,132.18910718080588 172.16175548592582,138.2457360450062 174.80250783683732,142.54909993894398 175.95360501552932,149.6416262422572 172.36489028204232,157.69036540674279 167.55736677139066,161.83423638396198 166.9479623825755,168.44844362768345 153.94733542320319,168.20937693171436 153.2702194354497,161.43578826572048 147.1761755484622,156.25594309240114 144.6708463949617,150.04008074785816 146.22821316611953,140.71618876524735 152.18683385569602,133.5438837558031 156.85893416916952,131.79064300726168 167.82821316597983,133.46419108501868 172.36489028204232,136.5721988438163 175.4119122256525,144.7804639004753 175.27648902824149,151.15575221483596 172.70344827580266,156.73408417432802 167.35423197504133,161.67485716252122 166.88025078363717,168.3687547375448 153.87962382426485,168.28906583890785 153.1347962380387,161.59516753896605 147.71786833857186,156.89346446609125 145.28025078377686,152.98863738100044 144.46771159861237,145.9758346672752 148.3272727271542,137.68789073440712 153.1347962380387,133.62357641773997 161.12476489017718,131.79064300726168 171.01065830723383,135.2174278453458 174.80250783683732,143.10694156371756 175.61504702200182,148.9244075884926 173.2451410656795,155.6184211660293 167.21880877716467,161.99361557071097 167.286520376103,168.3687547375448 153.74420062685385,168.28906583890785 153.1347962380387,161.59516753896605 146.8376175549347,156.3356332941912 144.94169279001653,152.59018447250128 144.46771159861237,146.29459987720475 145.48338557989337,141.51310722791823 152.25454545463435,133.78296171611873 157.26520376186818,131.87033585913014 166.33855799376033,133.38449840585236 172.16175548592582,137.05035271839006 175.34420062671416,144.30231504974654 175.479623824358,149.16348055098206 173.04200626933016,156.25594309240114 167.48965517245233,161.83423638396198 167.151097178692,168.3687547375448 153.74420062685385,168.3687547375448 152.9993730406277,161.59516753896605 147.58244514092803,156.97315459913807 145.21253918507136,152.59018447250128 144.80626959260553,144.14293203054694 148.3272727271542,137.68789073440712 152.45768025098369,133.86265435215319 155.50470219436102,132.66726390377153 163.15611285250634,132.26879998942604 170.87523510935716,135.2174278453458 175.20877742930315,143.50539960811147 175.4119122256525,149.4822443795856 172.63573667686433,156.97315459913807 167.48965517245233,161.51547790662153 167.151097178692,168.1296880156733 153.81191222579218,168.6078213818837 152.93166144168936,161.43578826572048 147.24388714740053,156.49501367245102 145.21253918507136,152.66987507167505 144.39999999990687,144.38200654659886 148.25956112868153,137.68789073440712 152.32225705333985,133.86265435215319 155.77554858918302,132.4281855809968 160.92163009406067,131.95002870250028 169.11473354231566,133.70326907129493 172.22946708463132,136.4925065014977 175.4119122256525,145.73676066927146 175.27648902824149,151.31513371493202 172.568025077926,156.97315459913807 167.69278996856883,161.75454677763628 167.35423197504133,168.44844362768345 153.81191222579218,168.44844362768345 152.93166144168936,161.67485716252122 147.9887147336267,157.84974549128674 144.94169279001653,153.22770902275806 144.73855799390003,143.98354897665558 147.78557993727736,137.9269673479721 153.60877742944285,133.14542031631572 160.10909090889618,131.79064300726168 163.4946708464995,132.26879998942604 169.18244514078833,134.3408099876251 172.0940438869875,136.65189117804402 175.14106583083048,143.8241658883635 175.20877742930315,151.31513371493202 172.63573667686433,156.65439401561162 167.421943573514,161.91392598184757 167.421943573514,167.49217637768015 164.51034482754767,167.8109322655946" stroke="#4DD2FF" stroke-linecap="round" stroke-linejoin="round" stroke-width="0.5"><title>2020-04-08 10.0km</title><desc>1586343893000</desc></polyline><polyline fill="none" points="55.5999999998603,179.37325168139068 50.224884792696685,180.54477459873306 39.67373271891847,187.02716700086603 42.65990783437155,192.72850009956164 42.7926267280709,197.80499163025524 39.80645161285065,205.45871129719308 34.895852534798905,209.91032720549265 34.63041474646889,216.47055318916682 21.557603686582297,216.39245561196003 20.761290322290733,209.441737351357 15.917050691321492,205.53681005869294 12.997235022718087,200.77277012402192 12.73179723508656,194.29050130042015 14.191705069039017,188.9796834118897 20.164055299479514,182.73161228490062 25.870967742055655,180.77907895378303 31.113364055519924,181.32578881946392 38.08110599080101,184.5279382794397 41.39907834096812,190.7759938404197 42.7926267280709,197.8830912206904 39.74009216600098,205.69300755631411 34.82949308748357,209.98842548480025 34.56405529938638,216.54865075804992 21.690322580281645,216.31435802596388 21.15944700455293,209.98842548480025 15.120737327029929,204.28722885850584 12.665437788004056,198.42978811764624 13.063594470033422,191.94749823038 15.983410138171166,186.16805810492951 20.164055299479514,182.49730856425595 23.017511520767584,181.4819915620028 31.710599078331143,181.32578881946392 37.88202764978632,184.37173619662644 42.59354838705622,193.04090061073657 41.92995391716249,201.39756403985666 39.07649769610725,206.39589587744558 34.82949308748357,210.06652375584235 34.82949308748357,216.39245561196003 21.823041474679485,216.54865075804992 21.026728110620752,209.98842548480025 14.523502303985879,203.42814052756876 12.399999999906868,195.61819966055918 14.125345622189343,189.21398502599914 20.031336405314505,182.26300476765027 27.59631336387247,180.54477459873306 36.554838709533215,183.27832067006966 39.47465437767096,186.2461589560262 42.858986175153404,194.29050130042015 41.797235022997484,201.39756403985666 38.61198156676255,206.7082904666895 35.09493087581359,209.91032720549265 34.69677419378422,216.39245561196003 21.557603686582297,216.47055318916682 20.894009216455743,209.83222891757032 14.788940092083067,204.52152549859602 12.466359446756542,197.80499163025524 13.461751152062789,190.85409419221105 20.23041474632919,182.18490348523483 27.59631336387247,180.77907895378303 36.75391705078073,182.8878147227806 40.470046082977206,188.04247619427042 42.991705069318414,194.91530083329417 43.05806451593526,198.50788764067693 41.33271889411844,203.271942539257 34.895852534798905,209.83222891757032 34.895852534798905,216.39245561196003 22.022119815694168,216.62674831860932 20.82764976960607,210.30081851768773 14.788940092083067,204.36532774730586 12.532718894071877,198.89838512800634 12.73179723508656,192.41609945357777 15.784331797156483,186.94906623434508 20.894009216455743,182.26300476765027 26.53456221194938,180.9352818148909 31.04700460820459,181.2476874354761 37.94838709686883,184.1374330089311 41.664516129065305,190.69789347995538 42.52718894020654,199.52318066795124 40.73548387107439,204.36532774730586 35.02857142849825,209.75413062126609 34.82949308748357,216.08006521780044 22.420276497956365,216.62674831860932 21.557603686582297,216.15816282923333 20.82764976960607,210.06652375584235 16.31520737335086,206.39589587744558 12.997235022718087,200.53847226593643 12.466359446756542,194.75910100073088 13.859907834092155,189.68258802546188 20.164055299479514,182.26300476765027 23.41566820256412,180.9352818148909 31.51152073731646,181.32578881946392 36.422119815601036,183.2002194976085 40.73548387107439,188.19867748202523 42.65990783437155,194.60290113446536 41.99631336401217,201.16326638491591 38.74470046069473,206.47399453743128 34.96221198141575,209.91032720549265 34.82949308748357,215.76767468848266 29.321658986154944,216.08006521780044" stroke="#4DD2FF" stroke-linecap="round" stroke-linejoin="round" stroke-width="0.5"><title>2020-04-07 10.0km</title><desc>1586257895000</desc></polyline><polyline fill="none" points="121.5999999998603,179.04369069862878 117.12401883793063,180.00150718563236 106.0018838304095,186.78600499295862 109.25714285694994,194.12915575521765 108.85023547848687,200.3548132129945 105.86624803720042,206.10152726015076 101.45808477187529,209.77301555068698 101.11899529024959,216.79668131197104 87.8945054942742,216.4774252298521 87.01287284120917,210.17208926239982 81.92653061170131,205.94189691956853 79.07817896339111,200.19518162764143 78.67127158516087,194.04933929245453 82.19780219742097,185.66856259218184 86.80941915186122,181.19877604371868 90.81067503872328,180.161143145815 97.52464678115211,180.79968664044281 104.10298273107037,183.7529431056464 109.05368916783482,193.80988985247677 108.23987441090867,201.87131155037787 105.18806907325052,206.50060296041192 101.39026687596925,209.85283031029394 101.45808477187529,216.4774252298521 88.09795918315649,216.8764953109203 86.87723704823293,210.17208926239982 80.63799058040604,203.8666993447696 78.7390894817654,198.83831175486557 79.21381475636736,191.4952079197974 82.33343799016438,185.66856259218184 89.79340659291483,180.87950453837402 96.30392464646138,180.4804149622796 104.44207221339457,183.51349031971768 108.57896389300004,193.01172449003207 107.76514913653955,202.35020511387847 104.71334379864857,207.2987537123845 101.45808477187529,210.01245980360545 101.05117739364505,216.31779713649303 88.30141287227161,216.95630930137122 87.284144426696,210.4913480762625 81.79089481919073,205.8620817362098 79.07817896339111,200.035550007422 79.21381475636736,191.4952079197974 81.79089481919073,186.466735908587 86.87723704823293,181.757500845124 92.03139717387967,180.161143145815 97.049921506783,180.32077907124767 105.12025117687881,184.95020586851751 108.37551020388491,190.85667369351722 108.57896389300004,200.27499742462533 105.45934065943584,206.0217120941379 101.1868131866213,210.09227453742642 101.05117739364505,216.39761118742172 88.2335949758999,216.79668131197104 87.2163265303243,210.17208926239982 81.04489795886911,204.74466826271964 78.80690737767145,199.23739138845121 78.9425431706477,192.69245810323628 82.26562009379268,185.90801467798883 87.55541601218283,181.2785938984598 96.03265306097455,180.08132516994374 104.17080062767491,184.15203090955038 107.5616954471916,188.4621654166258 108.78241758211516,192.5328248576261 109.12150706443936,198.11996786959935 108.03642072179355,202.1107583710109 105.12025117687881,206.66023317992222 101.1868131866213,210.09227453742642 101.11899529024959,216.55723926326027 88.36923076887615,216.79668131197104 87.284144426696,210.7307920961175 81.2483516477514,204.74466826271964 78.7390894817654,198.75849580211798 79.14599685976282,191.65484139014734 81.92653061170131,186.14746668579755 85.9277864987962,182.31622522283578 89.65777080040425,180.87950453837402 98.20282574533485,180.56023289484438 102.74662480340339,181.99695420166245 106.40879120817408,186.7061877347296 108.85023547848687,192.21355826337822 108.71459968574345,201.152970621828 104.98461538436823,207.05930857756175 101.39026687596925,210.41153338603908 100.77990580839105,216.55723926326027 88.16577707976103,216.95630930137122 87.01287284120917,210.25190397893311 81.8587127153296,205.62263613461982 79.14599685976282,200.5144447639468 78.39999999990687,195.72548319451744 80.2989010985475,188.94106769451173 86.53814756614156,181.99695420166245 91.89576138113625,180.4005970211001 96.57519623194821,180.56023289484438 103.15353218163364,182.63549610547489 106.54442700138316,186.466735908587 109.1893249603454,194.20897220936604 109.1893249603454,198.51904789247783 107.42605965421535,203.94651474431157 101.25463108276017,210.41153338603908 100.98335949750617,216.63705328805372 91.82794348476455,216.39761118742172" stroke="#4DD2FF" stroke-linecap="round" stroke-linejoin="round" stroke-width="0.5"><title>2020-04-02 10.0km</title><desc>1585825459000</desc></polyline><polyline fill="none" points="187.5999999998603,178.82910366851138 187.01709145400673,180.5061243698583 179.18020989489742,182.79296433995478 170.82518740626983,188.05266806896543 173.61019490240142,193.23610574688064 174.25787106435746,198.64818375650793 172.05577211384661,205.05115187825868 166.61529235355556,210.84426331572467 165.83808095939457,217.09467217570636 153.4026986504905,216.78977547050454 152.49595202389173,210.53936390258605 146.9907046474982,205.5847299254965 144.91814092942514,200.70628700591624 144.7886056972202,195.06554522371152 146.08395802089944,190.41571056918474 149.90524737606756,185.68961763381958 156.5115442276001,182.1831410744344 163.44167916011065,182.64050857303664 167.39250374794938,184.08883702429011 170.24227886041626,186.5281203093473 173.41589205362834,193.8459194340976 173.8044977511745,200.24893124838127 171.6671664165333,205.73718072206248 166.2266866567079,210.61558876832714 166.03238380816765,217.17089633148862 153.3379310341552,217.01844801177504 152.75502248830162,210.76803847489646 148.02698650653474,207.03301115747308 145.56581709138118,203.22173835942522 144.5295352321118,194.60818580037449 147.83268365776166,187.51907672878588 156.12293853028677,182.25936901156092 162.66446776594967,182.488052773464 167.65157421282493,184.16506475483766 170.63088455749676,186.98548498412129 173.41589205362834,193.69346606195904 173.93403298337944,199.33421884156996 171.21379310288467,206.11830756819109 166.48575712111779,210.53936390258605 166.2266866567079,217.09467217570636 153.27316341828555,216.78977547050454 152.75502248830162,210.99671297264285 146.47256371797994,204.74624995549675 144.5295352321118,196.59007448825287 146.2134932531044,190.03457521862583 152.5607196399942,183.7076982470462 158.9079460266512,182.0306851756759 168.04017990990542,184.46997559495503 172.83298350824043,191.2542076134705 174.06356821558438,198.64818375650793 172.57391304313205,204.21267127251485 166.2266866567079,210.76803847489646 166.1619190403726,217.01844801177504 153.4674662668258,217.01844801177504 152.3664167916868,210.61558876832714 148.02698650653474,206.88056064181728 145.24197901040316,202.7643842365942 144.5295352321118,195.4466778494534 148.09175412287004,187.51907672878588 155.66956521733664,181.6495452837553 161.82248875545338,182.33559694036376 169.98320839554071,186.90925755881472 173.7397301348392,193.76969275210286 173.9988005994819,199.5628970550606 170.76041978993453,206.88056064181728 166.42098950524814,210.53936390258605 165.96761619183235,216.94222383969463 153.53223388292827,217.09467217570636 152.5607196399942,210.46313902869588 148.02698650653474,206.9567859036033 145.69535232381895,203.60286656796234 144.59430284844711,195.37045134074287 147.444077960914,188.3575772245531 152.88455772097223,183.097875774547 157.6125937027391,182.0306851756759 164.28365817060694,183.097875774547 167.52203898038715,184.08883702429011 170.17751124408096,186.98548498412129 173.7397301348392,194.07459943072172 174.12833583191969,199.8678012234741 171.01949025457725,206.4232088966528 166.48575712111779,210.84426331572467 165.96761619183235,217.01844801177504 153.4026986504905,217.01844801177504 152.75502248830162,210.76803847489646 147.8974512743298,206.4232088966528 144.72383808065206,200.02025325823342 144.39999999990687,195.52290434995666 146.01919040456414,190.33948351553408 152.04257871047594,183.63147046696395 158.06596701638773,181.9544572136947 165.51424287841655,183.5552426786162 170.24227886041626,187.21416720969137 173.8044977511745,194.45573259313824 173.93403298337944,200.47760916425614 170.69565217359923,206.80433537164936 166.5505247374531,210.46313902869588 166.2266866567079,216.71355127362767 164.8665667164605,216.94222383969463" stroke="#4DD2FF" stroke-linecap="round" stroke-linejoin="round" stroke-width="0.5"><title>2020-03-23 10.0km</title><desc>1584960411000</desc></polyline><polyline fill="none" points="45.0150438323617,224.40000000002328 45.654627022799104,230.1296101032931 46.61400180822238,233.0989366262511 46.54293700912967,245.7287745429494 45.05057623190805,245.39421462791506 44.3399282428436,247.44338955704006 40.78668829682283,248.61434177603223 35.81215237244032,251.49988744183793 37.37557794852182,254.67814466479467 37.58877234556712,258.1072875885002 36.416203163098544,261.24367213176447 33.218287211842835,264.17094138546963 33.289352010702714,267.265459036862 26.39606651547365,267.47454717269284 25.863080523675308,264.00366945462883 23.482409759890288,261.99640063088736 21.7768545858562,259.0272963618336 21.385998191777617,256.55999516209704 21.7768545858562,253.79994462704053 23.233682963531464,251.37442938308232 27.28437650203705,248.11250554563594 30.73101924965158,248.19614496265422 34.39085639407858,249.3670948985964 35.741087573580444,250.62168017448857 37.51770754647441,254.38541154086124 37.659837144427,257.39637021673843 36.30960596492514,261.2854904201522 33.431481608655304,263.8363974512322 33.04062521457672,267.3490943046927 26.360534115927294,267.6000000000058 25.79201572481543,264.0454874441202 23.375812561484054,261.91276420344366 21.84791938471608,259.0272963618336 21.599192588590086,254.76178265950875 23.26921536307782,251.5835261249449 27.106714504770935,248.15432525644428 31.61932923621498,248.32160405421746 34.923842385876924,249.74347090930678 37.19791595148854,253.46539170623873 37.659837144427,257.6891010578256 36.30960596492514,261.2854904201522 33.39594920910895,264.08730542918784 33.289352010702714,267.3909119319869 26.289469317067415,267.47454717269284 25.827548124361783,263.96185146053904 23.41134496103041,261.66185481243883 21.7768545858562,259.0272963618336 21.63472498790361,254.8872396175866 23.12708576535806,251.45806809340138 27.781830094289035,248.11250554563594 33.32488441024907,248.7398007317097 35.77661997289397,250.62168017448857 37.233448350802064,253.46539170623873 37.659837144427,257.5218263184943 36.416203163098544,261.11821723915637 33.431481608655304,264.08730542918784 33.32488441024907,267.4327295545954 26.289469317067415,267.5581823954999 25.79201572481543,263.8363974512322 23.12708576535806,261.41094525833614 21.91898418380879,259.27820746504585 21.670257387449965,254.34359250508714 23.304747762624174,251.37442938308232 27.14224690408446,248.40524342597928 31.050810844870284,248.40524342597928 34.6751155895181,249.61801227994147 35.81215237244032,250.53804128276533 37.48217514692806,254.51086862123339 37.73090194328688,257.7309197311115 36.131943967659026,261.41094525833614 33.431481608655304,264.1291234095115 33.289352010702714,267.4327295545954 26.25393691775389,267.4327295545954 25.79201572481543,263.92003346199635 22.061113781528547,259.48729992631706 21.56366018904373,257.6472823797376 21.70578978676349,254.13449725790997 23.482409759890288,251.1653325279185 27.60416809725575,248.57252211507875 32.50763922254555,248.86525964661269 35.91874957084656,250.66349961335072 37.30451314966194,253.33993428619578 37.695369543740526,257.81455706458655 36.203008766518906,261.66185481243883 33.50254640751518,263.96185146053904 33.50254640751518,267.3909119319869 26.18287211866118,267.4327295545954 25.934145322535187,263.96185146053904 22.59409977332689,260.6163972612121 21.528127789497375,257.8981943797844 21.670257387449965,254.00904005530174 23.304747762624174,251.1653325279185 26.822455309098586,248.8234400129004 30.05590365990065,248.44706310509355" stroke="#4DD2FF" stroke-linecap="round" stroke-linejoin="round" stroke-width="0.5"><title>2019-12-13 10.0km</title><desc>1576239112000</desc></polyline><polyline fill="none" points="109.69540037796833,225.9841612172604 109.19514630443882,224.40000000000873 109.76686524564866,230.5823246401851 109.61202469898853,231.17110205894278 109.08794900297653,231.1290466178325 108.93310845637461,231.85800566177932 108.0636192332604,232.01220801033196 106.0268705051858,233.21778367410298 106.56285701255547,234.395311852757 106.62241106899455,235.4747032714513 106.36037322087213,236.23167370122974 105.24075696105137,237.3811388508475 105.1812029046705,237.91381436103256 105.39559750765329,243.78711740403378 106.65814350277651,244.26369832378987 107.40852461312898,244.78232850741188 109.2785219833022,245.00660037568014 109.46909496374428,245.28693966462743 109.81450849073008,259.83571547256724 110.100367961335,262.4145186453825 110.01699228247162,267.17956330103334 109.49291658628499,267.37576726375846 103.40649202466011,267.3056944540149 101.04815139219863,267.6000000000058 99.66649728425546,267.4458400355361 99.33299456851091,264.82509256164485 99.07095672050491,252.98201610032993 94.59249168104725,252.33727315394208 94.37809707806446,252.05694913225307 93.5205186662497,251.93080312448728 93.24657000688603,250.96367964801902 93.49669704370899,250.51515616325196 93.36567811964778,250.22081178180815 92.23415104852756,249.23965901034535 91.19791046762839,249.54802211122296 90.6381023376598,249.3658076403808 90.13784826407209,248.65096377815644 89.8996320386068,247.66979910865484 89.93536447238876,240.56314156853477 90.23313475429313,238.69880585382634 90.54281584743876,237.96988533984404 90.47135097975843,237.18488942604745 91.91255914408248,227.61035963872564 93.77064570301445,227.58232190804847 97.76076748024207,227.90475544407673 97.9632512718672,228.07298131780408 105.33604345127242,229.43279910204 107.9564219317981,230.16176770102174" stroke="#4DD2FF" stroke-linecap="round" stroke-linejoin="round" stroke-width="0.5"><title>2019-11-23 10.0km</title><desc>1574497580000</desc></polyline></svg>