<?xml version="1.0" encoding="utf-8" ?>
<svg baseProfile="full" height="300mm" version="1.1" viewBox="0,0,200,300" width="200mm" xmlns="http://www.w3.org/2000/svg" xmlns:ev="http://www.w3.org/2001/xml-events" xmlns:xlink="http://www.w3.org/1999/xlink"><defs /><rect fill="#222222" height="300" width="200" x="0" y="0" /><text fill="#FFFFFF" style="font-size:12px; font-family:Arial; font-weight:bold;" x="10" y="20">Over 10km Runs</text><text fill="#FFFFFF" style="font-size:4px; font-family:Arial" x="10" y="280">Runner</text><text fill="#FFFFFF" style="font-size:9px; font-family:Arial" x="10" y="290">Floyd Li</text><text fill="#FFFFFF" style="font-size:4px; font-family:Arial" x="65" y="280">SPECIAL TRACKS</text><rect fill="yellow" height="2.6" width="2.6" x="65" y="283" /><text fill="#FFFFFF" style="font-size:3px; font-family:Arial" x="70" y="285.5">Over 20.0 km</text><rect fill="red" height="2.6" width="2.6" x="65" y="287" /><text fill="#FFFFFF" style="font-size:3px; font-family:Arial" x="70" y="289.5">Over 40.0 km</text><text fill="#FFFFFF" style="font-size:4px; font-family:Arial" x="120" y="280">STATISTICS</text><text fill="#FFFFFF" style="font-size:3px; font-family:Arial" x="120" y="285">Number: 36</text><text fill="#FFFFFF" style="font-size:3px; font-family:Arial" x="120" y="290">Weekly: 1.9</text><text fill="#FFFFFF" style="font-size:3px; font-family:Arial" x="141" y="285">Total: 585.3 km</text><text fill="#FFFFFF" style="font-size:3px; font-family:Arial" x="141" y="290">Avg: 16.3 km</text><text fill="#FFFFFF" style="font-size:3px; font-family:Arial" x="167" y="285">Min: 10.0 km</text><text fill="#FFFFFF" style="font-size:3px; font-family:Arial" x="167" y="290">Max: 62.1 km</text><polyline fill="none" opacity="1" points="38.5,46.615303294034675 38.356725922029,47.11283133357938 38.299416290799854,48.2175008605991 35.827938445232576,51.20255990838632 35.505571769725066,52.02891194829135 35.39811621120316,52.745638754058746 23.226983284694143,52.69504649018927 18.119262403837638,53.116647683978954 17.675112762051867,51.556711857178016 17.202308304578764,50.53641258969583 16.428628283378202,49.42334358471999 15.461528256855672,48.377718802628806 14.75232157073333,47.171859872898494 14.53024674981134,45.81419213756453 14.816794905840652,44.65045807809656 14.587556381011382,44.65889099621563 14.48010082251858,44.54926298938517 14.523083045933163,43.88305870278418 12.889758556673769,42.35667040906992 13.047360042459331,41.79164615253103 13.81387635981082,40.43388451651845 13.871185990981758,39.978480896141264 12.839612629351905,39.29537046625046 11.5,38.93272915829584 12.753648182580946,39.270069964761205 13.763730432488956,39.86884629302949 14.071769700211007,40.189316237010644 14.494428230304038,40.07968193106353 15.160652693011798,40.11341558011918 15.031706022826256,39.362838430046395 14.702175643440569,39.17730138883053 14.558901565411361,38.89056145460199 14.623374900547788,37.945998900766426 14.816794905840652,37.63395339353883 14.623374900547788,37.93756525487697 14.551737861533184,38.941162696282845 15.017378615040798,39.37970541181858 15.196471212548204,40.07968193106353 16.450119395070942,40.31581716724031 16.96590607590042,39.818245654852944 16.772486070578452,41.23505108110112 16.2853542053781,42.390403070698085 19.537675776082324,45.57807359115395 20.168081719311886,43.014454672069405 21.708278057863936,41.26035094348481 22.12377288407879,40.551951686553366 22.546431414200924,39.38813890136953 23.51353144069435,38.1399725040319 24.20841071906034,37.75202481379529 27.102547094778856,36.97612362804648 27.876227115979418,36.883352316021046 29.44507827013149,37.0014248757725 30.95661979308352,37.57491761618439 32.48248872382101,38.3761136289686 35.21902361372486,39.37127192139451 36.4368532767694,40.33268394238257 36.95263995756977,40.50135149275593 37.04576810830622,41.40371667483123" stroke="#4dd2ff" stroke-dasharray="none" stroke-linecap="round" stroke-linejoin="round" stroke-width="0.5"><title>2026-06-09 11.9km</title><desc>1781004096000</desc></polyline><polyline fill="none" opacity="1" points="74.75273698265664,47.18395539640187 71.23444592795568,47.06522385661083 58.35086782378494,47.09066634456394 57.37036048065056,47.192436213787005 56.20961281709606,47.633437454729574 55.106542056106264,48.3458188375007 54.1909212283208,49.236286468527396 53.15273698262172,48.99882942192198 51.57383177569136,48.37974159912119 50.434712950635,47.69280281706597 49.0,46.44612077319471 51.278237650200026,44.63118768433924 52.828304405877134,42.99431948853453 54.15487316422514,41.35741713025345 54.6307076101657,41.06056589265063 55.4021361815976,40.797639572483604 71.6958611482114,40.763713531472604 71.78958611484268,40.95030657538882 71.81121495328262,41.8154139784092 71.73190921227797,47.0737046868453 62.40267022696207,47.05674302546686 57.37036048065056,47.17547457807814 57.37757009349298,44.096876951014565 68.93457943928661,44.0544711813709 68.75433911883738,44.20713184484339 68.86248331109527,45.16549477783701 68.72550066758413,44.18168842155865 68.92016021363088,44.06295233715355 75.02670226970804,44.06295233715355 75.85580774370464,44.0799146459176 76.0,44.215612984102336 75.97837116158917,46.938011293139425" stroke="#4dd2ff" stroke-dasharray="none" stroke-linecap="round" stroke-linejoin="round" stroke-width="0.5"><title>2026-06-07 13.9km</title><desc>1780824448000</desc></polyline><polyline fill="none" opacity="1" points="91.38561832346022,38.365771739085176 91.44985305779119,39.785179803897336 91.47252414050308,39.93466054466262 91.74583663759404,40.77823424572489 91.93728133600962,41.54628526800843 92.11235247469449,42.09380989184865 92.22570788823214,42.32021234988679 92.59222372533986,42.852909309667666 92.66275598264474,43.03934836984081 92.6967626067053,43.23466276916588 92.70054112049547,43.382626376261214 92.67535102859256,43.56905825438753 92.50027988991496,44.069156682167886 92.44864020151726,44.3221581310263 92.43730466016859,44.758611679226306 92.57585016560188,46.03386439365113 92.80256099267717,47.02942616882228 92.78114941455715,47.17586974358619 92.68542706534936,47.42437648611758 92.66905350562593,47.607795250982235 92.74336427672097,48.390255911291206 92.86805523160729,48.75262810287677 92.89072631431918,48.87390972607136 92.83404860754672,49.950607043303535 92.88190978215425,50.11920311907397 92.93858748891944,50.21828932322296 93.2181975089843,50.47117774633534 93.30384382142802,50.61462700956781 93.31643886738311,50.77138428948638 93.23583057330688,51.11446946794695 93.25346363763674,51.24903933777114 93.30258431683615,51.37473528118153 93.05320240705623,51.58324013982565 92.7912254513285,51.86567785767147 92.54814106451522,52.08156875212353 92.18666324578953,52.605016187581896 91.98136399682699,52.94805569518303 91.92090777627163,53.017549727309415 91.73702010542911,53.150622427511735 91.67530438028189,53.24672968938012 91.6916779400126,53.28517240640758 91.82266641787282,53.33248637241104 92.09723841955565,53.34431483853041 92.11990950226755,53.36353607430192 92.12494752064231,53.481820011888885 92.14384008956404,53.501041055828864 92.33780379717064,53.58236056041187 92.47760880720307,53.57348936505332 92.64008489993284,53.4522491226935 93.06201893922116,53.22602972039658 93.04942389327334,53.19793685559944 92.83278910295485,53.15949389515572 92.81263702944125,53.09591491746687 92.84160563511978,52.99832800881359 93.0380883519174,53.01607113452792 93.08091150814289,52.83272440012388 93.11239912301244,52.81941688086954 93.21441899519414,52.829767174733206 93.2421280962808,52.85342496008161 93.21189998600312,53.08408623808373 93.22953305033298,53.12548657149455 93.718220833136,52.96727748382182 93.95248868778435,52.953970094543365 94.43235993842973,52.88003992002723 94.74723608713975,53.01311394849927 94.91349069366697,53.055993083840804 95.06589074963995,53.067821787346475 95.57095209218096,53.21420115272667 96.11631758175645,53.49512689131734 96.36318048234534,53.546875744706085 96.56973923589976,53.626716451518405 97.01938237626746,53.656286966265725 97.10125017492828,53.59566734273449 97.1264402668312,53.49956251493677 97.19949153333437,53.438942201851205 97.64157764612901,53.242293984356365 97.66928674721566,53.254122527907384 97.51562718664354,52.94805569518303 97.41990483742848,52.88151852740884 97.30906843308185,52.86673244648409 97.31284694687201,52.6552897530828 97.34559406633343,52.61388800659279 99.59884778653941,51.98841076750978 99.84948920091847,51.95735796595818 100.0988711106911,51.960315378647465 102.64684890609351,52.17029005646418 102.95668703642878,52.17324742343044 103.39751364463154,52.11114258373436 103.9441386387989,51.94109218482208 104.25397676913417,51.88046501318604 106.83470168399799,51.7030180991851 107.16343238326226,51.63647491703068 107.47956803657144,51.51521762506309 107.7503615244641,51.356990041072095 108.016116993982,51.135172610429436 108.52243784111488,50.551036283460235 108.94437188038864,50.128076539559515 109.3008116807323,49.712498542357025 109.5728646732241,49.31317690541073 109.8877408219414,48.603243171481154 110.01117227223585,48.43462852894572 110.20135746605956,48.29559384886488 111.17369501329085,47.714295347492225 111.35758268414065,47.54123227213768 111.44070998740062,47.402188566555196 111.4936091803902,47.24243448965535 111.6019265755458,46.8208523263429 111.68379437420663,46.3460022118461 111.74551009935385,46.11226934572824 111.94325232075062,45.57082226316106 112.21530531324242,44.983490813011485 112.43445911274466,44.64765022568645 112.81608900498395,44.23190668619009 113.02390726313752,43.953750966804364 113.17126930073573,43.665232441362605 113.38412557727133,43.06006366492511 113.43198675187887,43.0704213007657 113.44836031160958,43.11925005034482 113.49118346783507,43.10297381974851 113.5,43.14292453317739 113.44584130241856,43.11925005034482 113.43198675187887,43.04822635727123 113.36397350375046,43.040828034812876 113.11837010775344,43.711099893658684 113.05413537341519,43.83094638562034 113.01257172178157,43.850180910520066 112.57300461818522,43.65783445086254 111.74551009935385,43.42553552451682 111.42937444604468,43.36930971682068 109.90663339086313,43.302726226172126 108.09924429724197,43.14144487919566 106.65081401314819,43.13404660688957 105.93667490786174,43.02159237778869 104.6066380557022,42.68570387527325 104.11039324531885,42.58952283690451 103.69223771982797,42.55696910228289 102.75138778746623,42.59840111478479 102.5259364649828,42.57472569435777 102.00828007650125,42.41787500427745 101.11781032793806,42.20183244474538 100.9918598684526,42.1352433001548 100.91880860194942,42.06717406342614 100.84323832625523,41.95027176172425 100.70217381163093,41.30655140586623 100.50569109483331,40.926224293251835 100.44271586509421,40.843350062950776 100.30039184587076,40.76935479220265 100.10013061529025,40.72495743853506 100.03715538555116,40.6361623009434 99.9704016420219,40.61544335296003 99.85074870551034,40.67464026433299 99.79155198955414,40.62580283085663 99.71094369547791,40.64948160814947 99.60766431869706,40.758995422504995 99.38221299622091,40.78859360091792 99.07489387507667,40.79599313556082 98.87589214908803,40.7397565723586 98.69074497364636,40.58880465965285 98.53582590848237,40.130019061628445 98.37586882492906,39.87694045133958 98.18820264029637,39.765939590433845 97.76500909642346,39.64309759249136 97.5105891682615,39.545415219948154 97.4715445258189,39.536534969832246 97.44005691094935,39.55577550449925 97.39471474553284,39.52617467077289 97.24735270793462,39.503974003622716 96.88335588001792,39.37224930743105 96.44504828100617,39.3293275044407 96.31783831692883,39.292325842524406 96.27249615151231,39.29972618287866 96.22589448150393,39.26716465550362 96.04074730606226,39.26864472660509 94.83540140877449,39.06883368600211 92.94110649811046,38.33468816987261 92.78744693753833,38.318406272217544 91.44103652563354,38.29768382911152 90.85662639362272,38.31100540326952 90.61983952978335,38.293243301520306 90.4535849232634,38.23403612983657 90.33645099594287,38.16446737703882 89.84902271773171,37.73520557663505 88.86786863834277,37.301489512988155 87.76202360405296,37.08092557892542 87.36150114288466,36.867759753329665 86.82495218548138,36.487309745364655 86.50251900919102,36.343713033733366 86.5,36.367399192670746 86.82999020385614,36.51543676044457 87.3866912347803,36.909208922977996 87.70030787890573,37.0750043506614 87.8262583383912,37.122374105252675 88.80993142697844,37.30741064361064 88.96107197835227,37.35477959666787 89.84776321313984,37.757409102183374 90.27725427998666,38.14522489385399 90.37801464757649,38.21479374409955 90.55182628166222,38.29176312533946 90.76594206278969,38.330247654245795 90.81254373279808,38.367251907291575 90.79113215468533,38.36281140218671 90.7722395857636,38.34356919682068 90.89441153146618,38.365771739085176 90.97250081634411,38.33320799815374 91.15009096422,38.33320799815374 91.16646452395071,38.278441532524084 91.19543312963651,38.01052675682149" stroke="red" stroke-dasharray="none" stroke-linecap="round" stroke-linejoin="round" stroke-width="0.5"><title>2026-06-06 62.1km</title><desc>1780699923000</desc></polyline><polyline fill="none" opacity="1" points="148.71859325299738,31.5 148.66083987720776,32.41763448457641 146.87048522679834,33.01239470942528 145.3977741433191,33.99799240331049 145.9175545257167,35.83322678184777 145.81648611807032,36.64887961448403 145.28226739173988,37.99129900174739 144.14163821929833,39.18077493669989 144.0838848434505,40.455203431265545 144.38709006650606,46.81019901188847 147.14481376192998,48.23748882669315 148.97848344419617,48.39041196546168 149.2239352914621,48.69625779580383 149.44051045074593,56.716002375789685 149.26725032331888,57.61649894938455 146.32182815647684,58.228154052631 141.10958598874277,58.5 132.18668942450313,57.41261338524055 125.83381808438571,57.31067050382262 125.55948954919586,51.02406485872052 125.57392789312871,49.341930368886096 125.77606470847968,49.07006855666987 138.0486570702633,48.66227495518979 141.23953108431306,46.89515710234991 141.31172280409373,40.71008788795734 140.9363258612575,39.09581266900932 140.21440866350895,38.4840829832101 139.47805312176934,37.37956500929431 139.24703961855266,35.76525552109524 139.73794331302634,34.33785224132589 140.4887371986988,33.505194330384256 141.18177770852344,33.08036716298375 142.56785872817272,32.79148403197178 143.40528267761692,32.910435973870335 144.71917197748553,33.57316657042247 145.77317108615534,35.37442019993614 145.58547261479544,37.43054293309979 144.09832318744157,39.299722034236765 144.28602165880147,46.55532446446887 144.4737201302778,46.86117387171544 147.11593707406428,48.20350588677684 148.96404510032153,48.407403416145826 149.2239352914621,48.66227495518979 149.3538803870324,57.48057526937919 148.8052233167109,57.85436510613363 147.02930701035075,58.16019249219971 141.97588662605267,58.48300964209193 137.918711974693,58.245144438173156 132.11449770472245,57.41261338524055 125.83381808438571,57.34465147164883 125.64611961290939,49.104051308953785 137.7598901911988,48.69625779580383 139.13153286691522,48.22049735765904 141.29728446016088,46.77621576281672 141.08070930081885,39.350699334128876 139.66575159324566,37.702424913673894 139.24703961855266,36.44496680390148 139.60799821739784,34.5587607412308 140.05558688001474,33.896034308330854 141.16733936453238,33.08036716298375 142.27909184905002,32.82547031030117 143.57854280504398,32.96141534992785 144.61810356978094,33.52218739312957" stroke="#4dd2ff" stroke-dasharray="none" stroke-linecap="round" stroke-linejoin="round" stroke-width="0.5"><title>2026-06-05 14.5km</title><desc>1780659860000</desc></polyline><polyline fill="none" opacity="1" points="186.7603919240646,38.7530287316622 186.71229216156644,40.68772618377261 188.44388361051097,47.49185715004569 188.45991686463822,48.54876181558939 188.13925178154022,49.247066787982476 185.35748218532535,52.625273923891655 185.06888361048186,53.182004978538316 184.82036817108747,54.23884057880787 171.5207838480128,54.191660691576544 165.55641330167418,54.616278756278916 164.61045130644925,51.97417715800111 163.72060570074245,50.6059144655228 162.13331353917602,48.756366581576 161.66834916864173,47.7277744823441 161.5,46.784101317607565 161.58016627078177,45.897039216259145 161.90884798101615,45.00053110085719 163.4239904988499,43.04705512682267 164.00920427552774,42.00895826995111 164.93111638957635,36.46908663587965 165.08343230406172,36.28032840951346 182.08669833731255,35.9500005283262 185.96674584323773,35.38372124371381 186.68022565322462,37.48837398450269 186.77642517819186,41.065223111865635 188.5,47.98256448319444 188.3957838480128,48.756366581576 188.16330166277476,49.19988419600122 185.2692992874654,52.66301851465687 184.81235154398018,54.25771252652339 171.52880047506187,54.18222471107583 165.52434679336147,54.60684282179136 165.11549881237443,53.153696705703624 164.5222684085893,51.823197502417315 163.96912114016595,50.93618673913443 162.19744655583054,48.869605336207314 161.7164489311399,47.90707122733875 161.50801662710728,46.784101317607565 161.58016627078177,45.887602336806594" stroke="#4dd2ff" stroke-dasharray="none" stroke-linecap="round" stroke-linejoin="round" stroke-width="0.5"><title>2026-06-04 19.5km</title><desc>1780570902000</desc></polyline><polyline fill="none" opacity="1" points="17.454109498648904,75.44742923093872 17.433969221514417,75.34476819160773 18.877355749777053,75.32107716202154 24.51663334868499,84.9468995502757 24.41593196298345,84.9390035791148 24.36893798300298,88.41314849326591 23.650601431698306,88.5 14.419641076412518,88.4605220551748 14.164530899288366,88.44473087129882 14.050402662163833,88.2789232343639 14.083969790721312,80.28812829616072 29.66583087053732,80.26443886968627 32.00881644434412,80.6276758983804 34.07655156395049,80.32761065656086 35.61392605223227,80.38288592529716 35.86232280358672,80.22495647512551 35.94959733783617,80.01964767953177 35.91603020930779,79.57744216015999 35.62063947794377,77.80859331569081 33.465629824087955,67.2024985262542 33.35150158693432,67.08403009503672 33.009116875589825,67.1472132822746 32.93526919273427,67.06033638574445 32.83456780706183,66.11258170937799 31.478455813019536,61.5" stroke="#4dd2ff" stroke-dasharray="none" stroke-linecap="round" stroke-linejoin="round" stroke-width="0.5"><title>2026-06-02 16.9km</title><desc>1780401150000</desc></polyline><polyline fill="none" opacity="1" points="59.048751486319816,84.20259631139925 53.013079667056445,84.66550798041135 52.21848989298451,82.19976648276497 51.35969084419776,80.79208968239254 49.64209274671157,78.77973370905238 49.21670630198787,77.91998060879996 49.0,76.78622729261406 49.152497027331265,75.6052185737135 49.4895957193221,74.83046816221031 51.02259215217782,72.89356200392649 51.56837098690448,71.7880889510052 52.42717003566213,66.49674168697675 52.57164090368315,66.27941162672505 69.58709869201994,65.94869092979934 73.42360285372706,65.33449201958138 74.09780023779604,66.99754367529385 74.25832342446665,70.87157501899492 76.0,77.93887637247099 75.951843043993,78.58132990008744 75.70303210458951,79.17653997228626 72.86979785969015,82.53042552174156 72.31599286562414,84.27817389462871 59.040725326980464,84.20259631139925 53.04518430438475,84.64661367467488 52.03388822829584,81.85965873423265" stroke="#4dd2ff" stroke-dasharray="none" stroke-linecap="round" stroke-linejoin="round" stroke-width="0.5"><title>2026-05-28 19.4km</title><desc>1779966212000</desc></polyline><polyline fill="none" opacity="1" points="112.38052566698752,87.53706423066615 111.83499454823323,87.87587560620159 108.5466541936621,88.35734320417396 104.22786617017118,88.5 100.54553111869609,88.28601475998585 94.30223053751979,87.37657438842871 87.71039618604118,87.3230777396675 87.45278426888399,80.68935862237413 87.60432069073431,78.67422436813649 100.6061456874595,78.17489525438577 103.95510061091045,76.39156463225663 103.7429496201803,68.5803489635291 102.2730463280459,66.86825218664308 101.77297613589326,65.45932586146228 101.78812977811322,64.81727948678599 102.54581188742304,62.83762073764228 103.60656684054993,61.963709752992145 104.95524099521572,61.55350503814407 107.19798003893811,62.07071951056423 107.95566214830615,62.83762073764228 108.59211512014735,64.05038748033985 108.72849789983593,64.95995667527313 108.45573234045878,66.40455624597962 106.910060837341,68.5268462087115 107.09190454363124,76.10622994063306 109.74379192647757,77.63989809536724 112.01683825452346,77.94306336552836 112.2592965294607,78.21056166986818 112.5472157310578,87.12692321199575 112.36537202482577,87.6440573719301 108.72849789983593,88.32167898592888 103.57625955616822,88.48216790729202 100.50007019215263,88.26818264406756 94.19615504227113,87.34090995785664 88.21046637825202,87.41223881136102 87.71039618604118,87.16258768897387 87.5437061220291,78.76339012193785 88.31654187355889,78.54939223159454 100.45460926560918,78.19272846312379 103.95510061091045,76.33806441523484 103.77325690462021,68.47334343648981 102.2730463280459,66.79691443459888 101.83359070465667,64.5497594250337 102.75796287809499,62.62360214983346 103.98540789523395,61.78536000257009 104.8643191421288,61.589175053915824 106.0463032326661,61.66051506229269 107.22828732331982,62.12422436325869 107.75866479991237,62.534427656180924 108.53150055150036,63.92554425749404 108.71334425767418,65.38798749897978 108.42542505607707,66.51156311741215 106.910060837341,68.36633783992147 107.09190454363124,76.12406337332504 109.71348464197945,77.60423155635362 112.30475745612057,78.15706204374146 112.5169084467343,87.2160843899037 112.30475745612057,87.71538609413255 109.24372173420852,88.28601475998585 104.60670722491341,88.5 100.22730463277549,88.25035052627209 94.22646232665284,87.37657438842871 87.75585711270105,87.34090995785664 87.55885976419086,78.74555697504547 89.93798158760183,78.47805953967327 100.72737482498633,78.15706204374146 103.97025425301399,76.26673076549196 103.72779597807676,68.45550917524088 102.06089533743216,66.31538379999984 101.84874434681842,65.58416792133357 101.92451255774358,64.08605695517326 103.01557479525218,62.37391344590287 103.66718140925514,61.91020484815817 105.48561847175006,61.5 106.89490719523747,61.928039818347315" stroke="#ffcd00" stroke-dasharray="none" stroke-linecap="round" stroke-linejoin="round" stroke-width="0.5"><title>2026-05-27 20.2km</title><desc>1779879632000</desc></polyline><polyline fill="none" opacity="1" points="124.0,74.7730364538802 125.53792263174546,72.88515624064894 126.11361559550278,71.74272729372751 127.10874200426042,66.07877471753454 144.798964361893,65.72052973914106 148.44227840387612,65.1105417388244 149.0015229973069,66.44670049649721 149.2235759975738,67.37619044832536 149.3222662199405,71.46195862039167 150.35028936949675,74.7827177880099 151.0,77.46440693957265 150.81906792573864,78.20984413500264 150.79439537014696,79.24570107759064 147.87480962538393,82.80818279000232 147.37313432837254,84.49256761063589 133.54005482789944,84.42480561601405 127.6679865976621,84.8894582611756 127.52817544928985,84.77329532644217 127.19098385624238,83.35996752218489" stroke="#4dd2ff" stroke-dasharray="none" stroke-linecap="round" stroke-linejoin="round" stroke-width="0.5"><title>2026-05-26 19.0km</title><desc>1779792854000</desc></polyline><polyline fill="none" opacity="1" points="179.56701511668507,66.85471313451126 178.91032013250515,69.24233158105926 178.8058459305321,70.50635066504765 179.14911830856,72.96413738765114 180.0595363546745,74.77234244238934 181.71619870088762,76.66830282082083 183.28331173112383,79.16110593490885 184.31312886526575,81.91718878886604 184.6414763572393,84.05882597953314 174.52240364794852,88.48244619151228 172.47769426566083,85.56848768751661 168.19425198313547,81.30277946437127 166.2092421449488,77.68649463028123 165.55254716076888,75.22877937107114 165.34359875676455,72.29702752640878 165.9853688548319,68.3469787773065 167.19428462098585,65.50288418507262 168.76139765128028,63.72968889099138 171.1941540694679,62.1847108695365 173.8358588918927,61.5 176.29846508218907,61.62289703535498 178.28347492043395,62.816749109580996 179.38791648461483,64.5021723894024 179.61178977461532,66.71426389737462 178.8356957025244,69.97967724234331 179.04464410658693,72.59547175045009 179.98491192469373,74.68456596291799 183.17883752915077,78.7748995062866 184.13403023325372,81.32033404878166 184.6116265853052,84.14659739319177 177.1342586983228,87.2010130474373 174.58210319199134,88.5 172.56724358169595,85.70892062154599 169.40316774928942,82.70714021974709 167.76143028907245,80.75858640753722 166.582364294969,78.59935082608717 165.74657067883527,76.21186993762967 165.34359875676455,72.89391542608791 165.55254716076888,70.52390641637612 166.2092421449488,67.59206963660836 167.38830813905224,65.25709589432518 168.35842572915135,64.11593109951355 170.68670794548234,62.412947184435325 173.4030371978879,61.552670169388875 176.2238406521501,61.605340321722906 178.2983998064883,62.85186227297527 179.07449387852103,63.81747129179712 179.4625409145956,64.78307456869516 179.61178977461532,66.27535924842232 178.8356957025244,70.10256786039099 179.07449387852103,72.80613793132943 180.01476169668604,74.7196765603585 181.68634892895352,76.68585790607904 183.11913798504975,78.86267377526383 184.0146311452263,80.95168737835775 184.65640124329366,83.98860881441215 174.50747876195237,88.4122309385275 172.46276937966468,85.60359593240719 168.46289993118262,81.63631624315167 166.34356611897238,78.09025858041423 165.59732181881554,75.33411078779318 165.37344852875685,72.45502747803403 166.03014351287857,68.10119479119021 167.03011087496998,65.78378463328409 168.50767458917107,63.99303595100355 170.56730885745492,62.500730297047994 172.89559107384412,61.658010456943884 175.97011759015732,61.552670169388875 177.91035277041374,62.500730297047994 179.25359251059126,64.25638258398976 179.61178977461532,66.36314027314074 178.82077081652824,70.17279102899192 179.07449387852103,72.75347141169186 179.7461137486389,74.29834888954065 181.9699217629386,77.00184911656834 183.477335249132,79.56486621939985 184.28327909327345,81.8996342690225 184.6414763572393,83.95350022053753 174.55225341994083,88.44733856880339 172.77619198570028,85.9195697948453 168.43305015919032,81.58365258677804" stroke="#ffbf00" stroke-dasharray="none" stroke-linecap="round" stroke-linejoin="round" stroke-width="0.5"><title>2026-05-24 23.2km</title><desc>1779623970000</desc></polyline><polyline fill="none" opacity="1" points="11.545247785485117,103.34430967209482 11.5,103.71067897340254 11.50484797701938,104.07893889592015 11.706847019398992,105.8271195809939 11.971869762994174,106.96590637810186 11.96378980128793,107.10635166140128 11.821582475458854,107.47833647311018 11.800574575056089,107.68140650729583 11.905614077091741,108.75744892939292 12.083373234389,109.29070138761017 12.013885563799704,110.72717684080453 12.046205410573748,110.87328470760986 12.127005027534324,111.03457120927123 12.522923150587303,111.40647329497915 12.611802729232295,111.56206266111985 12.631194637302542,111.77457275228335 12.531003112278995,112.19009849176655 12.590794828822254,112.49936473095659 12.707146277229185,112.66063638936976 12.91076131194859,112.78965265636361 16.398072779506037,114.08545498095555 16.659863538421632,114.1518551764857 17.186677040939685,114.2087694312504 17.752274359590956,114.1518551764857 20.522085228629294,113.36831697270645 20.908307397650788,113.29811936062106 21.367249221926613,113.29622212399408 24.604081876939745,113.56183327026156 25.11635144840693,113.56183327026156 25.66094086664816,113.46886982316391 26.29925784054649,113.26776355012043 26.68224802489567,113.1899765476901 30.079063921468332,112.94902439157704 30.442662197747268,112.8674414209745 30.891908067984332,112.68150673172022 31.18117069666914,112.5012620531379 31.52052908785845,112.2109693898874 32.11198228392459,111.52411416157156 32.66303567153227,110.96815929868717 33.22378501316416,110.31730936200074 33.49203974143893,109.90363717097898 33.87502992577356,109.03451449374734 34.04794110605144,108.78591476992187 34.24347617907188,108.6303009481926 35.53142207325436,107.8635981952084 35.788364855150576,107.624471219302 35.87886042613536,107.47264288709084 35.95158008139697,107.26767256764833 36.116411299968604,106.6223800983862 36.221450802004256,106.00933040512973 36.290938472579,105.76258612975471 36.4654656451894,105.28047582323416 36.793512090007425,104.58575828553876 36.78866411299532,104.54969296727722 37.01490304045001,104.12259806791735 37.15226238926698,103.92708006514295 37.690387838149036,103.33861475244885 37.9101627962591,103.04437473684447 38.12508977734251,102.61154824822006 38.37718458222662,101.8901471710069 38.40142446731625,101.87306099841953 38.5,101.91292870870166 38.396576490296866,101.80851308599631 38.35132870480447,101.84458400734911 38.032978214025206,102.73494284670596 37.971570505142154,102.71595911849545 37.9101627962591,102.60395470627918 38.00873832893558,102.76911350601767 37.94571462772001,102.88301522579604 37.9101627962591,102.89630371187559 37.32517356954486,102.63622723695516 36.24892267177347,102.33438185005434 35.86754847976408,102.2698356254241 33.90734977255488,102.18630486654547 31.743536030640826,101.9869685030626 30.18733540818357,101.9869685030626 29.59749820444995,101.95469478475388 28.91716542973154,101.84458400734911 27.03776633947564,101.37755479493535 26.51903279866383,101.27883158976692 25.87101987071219,101.22946977999345 24.725281302366056,101.28642570208831 24.457026574091287,101.25604923318679 23.78638975341164,101.05290525283999 22.65196313142951,100.77571436550716 22.53561168302258,100.72255397151093 22.41118027291668,100.625725699334 22.3077567632281,100.48143160160726 22.100909743829106,99.60424997568771 21.866590854682727,99.18273159697492 21.719535551826993,99.02703307118463 21.53046444816573,98.93209427102738 21.368865214266407,98.90741009926205 20.061527412013675,99.0004502586562 19.92093607852439,98.99095638733161 19.785192722047213,98.94348695403096 19.626825472827477,98.82955979275357 19.521785970791825,98.68904861346891 19.34725879818143,98.17446433076111 19.251915250177262,97.97128485130997 19.069308115875174,97.77759756024716 18.84145319606614,97.65606719320567 17.16890112520923,97.18323013882036 14.625329183625581,96.77494697748807 12.157708881968574,95.81401998703586 12.015501556139498,95.7912305687496" stroke="red" stroke-dasharray="none" stroke-linecap="round" stroke-linejoin="round" stroke-width="0.5"><title>2026-05-23 52.6km</title><desc>1779516240000</desc></polyline><polyline fill="none" opacity="1" points="71.25342299201293,94.87747538657277 71.10158564610174,96.05689494749822 70.37276638572803,97.3077852686838 69.5528447178076,98.00470576231601 69.4010073718382,98.70162331219763 69.65913085988723,106.20670269374386 72.96918500086758,107.81488957947295 74.5027421945706,107.86849553906359 74.79123315186007,108.15439369621163 75.06454037450021,116.99912324227626 74.82160062104231,117.66022540080303 72.27073320967611,118.17838470086281 68.58108570391778,118.46426499770314 62.34057078685146,118.17838470086281 55.9178510546335,117.28500558173982 50.40615539794089,117.42794656577462 50.19358311360702,117.07059387353365 49.935459625557996,111.01334802483325 50.19358311360702,108.6011085750797 63.008655108860694,108.19013093099056 66.42499539192067,106.2960468208039 66.27315804595128,98.37996942423342 64.58776350633707,96.3428135713475 64.32964001834625,94.98469569506415 64.43592616042588,94.09119099513919 65.24066409375519,92.6258328116237 66.16687190387165,91.89314883900806 67.15381465229439,91.51787042208889 68.6721881114645,91.58935209111951 70.34239891654579,92.5186109701317 71.22305552283069,94.26989232226333 71.10158564610174,96.09263480255322 70.5094199970481,97.2184362745611 69.61357965617208,97.98683604286634 69.41619110642932,98.61227507292642 69.59839592158096,105.9208011621231 69.7957844712073,106.27817799928016 72.69587777816923,107.74341493958491 74.80641688639298,108.1007878294622 74.94307049771305,117.53515222256829 72.51367296313401,118.16051716588845 66.80458875669865,118.48213249980472 62.704980417038314,118.21411976509262 56.54038417281117,117.30287321150536 50.512441540078726,117.39221133136016 50.239134317380376,117.15993211916066 49.950643360149115,110.6202447416581 50.11766444070963,108.6011085750797 62.568326805660035,108.22586815805698 63.98041412269231,107.83275823458098 66.45536286110291,106.26030917576281 66.24279057676904,98.41570877608319 64.7699683214305,96.78956042912614 64.34482375287917,94.55581404300756 64.78515205607982,93.23342193065037 65.75691106996965,92.16120432842581 66.74385381833417,91.6429633225489 67.74598030140623,91.5 69.85651940962998,92.14333397599694 71.07121817697771,93.71591757821443 71.1471368498751,95.91393544976017 70.6005224045366,97.03973814107303 69.49210977938492,98.16553315051715 69.41619110642932,98.68375366822875 69.58321218693163,106.04588314316061 72.57440790149849,107.67194026877405 74.76086568267783,108.02931331342552 75.06454037450021,116.19507650744345 74.8975192939979,117.57088742597261 72.25554947502678,118.19625223395997 67.13863091770327,118.5 63.20604365848703,118.2677223468636 56.85924259928288,117.32074083932093 50.19358311360702,117.35647608920408 50.01137829851359,108.65471427925513 63.29714606603375,108.15439369621163 66.27315804595128,106.43899732349382 66.50091406487627,106.13522735728475 66.51609779946739,104.83079702834948 66.2883417806006,98.77310186882096 66.13650443468941,98.21914224509965 64.9218056673999,97.00399849121459 64.451109895017,96.05689494749822 64.34482375287917,94.60942431053263 64.54221230256371,93.76952811863157 65.30139903217787,92.55435159169429 67.06271224474767,91.57148167677224" stroke="#ffc300" stroke-dasharray="none" stroke-linecap="round" stroke-linejoin="round" stroke-width="0.5"><title>2026-05-17 22.3km</title><desc>1779013233000</desc></polyline><polyline fill="none" opacity="1" points="109.99645257656812,103.65029595719898 109.19492158328649,103.3541506745205 108.93782673639362,103.57922123472235 108.40851381630637,104.62756408044515 107.83383121734369,105.21983934368836 104.84951456313138,101.93263112740897 102.7070575056132,101.58316861399726 102.39955190441106,101.44693686332175 102.25840179240913,101.2633196221177 102.27352501868154,100.41037988525204 102.17774458552594,100.33930097689154 100.92755787904025,100.26229872253316 97.26773711727583,100.36299395655078 97.00056011951528,100.24452895621289 96.41075429425109,99.75881978749749 95.41262135922443,99.45673021450057 95.14040328605915,99.13686885834613 94.69678864825983,98.01141596742309 94.48002240480855,96.72007849129659 93.26512322630151,96.26988031712608 92.15608663181774,96.35873551180339 89.6758775205526,96.92148174459362 87.17046303211828,96.58383469586988 87.02931292008725,96.66084209996916 86.90328603435773,96.8977872824762 86.52016430173535,98.14173274415589 86.57057505601551,98.37274808956136 87.5586258402036,99.78251301716955 90.42195668412023,100.33930097689154 91.29910380882211,101.06785543381557 91.4755414488609,101.74309241258379 91.99477221808047,102.9810053487272 92.11071695297142,103.79836800075645 92.7963032113912,106.70049961038967 92.83159073936986,107.22760504876715 93.33569828231703,109.79791203956847 93.71882001496851,110.46119758270652 94.09185959672322,110.69216120793135 95.69996265872032,111.24883878278706 97.39376400300534,112.33256727304979 99.03211351754726,112.42731847638788 99.6975354742608,112.94844717928936 100.22180731891422,113.00174415488073 101.06870799107128,113.39850890671005 104.03790141898207,113.75381819742688 104.22442120985943,113.6116947563387 104.32524271847797,113.37482153909878 104.66299477225402,112.20228410209165 104.8394324122637,110.68623907580695 104.78902165798354,110.47304189475472 104.49663928308291,110.27168824322871 104.47647498134756,110.1769333287848 104.6730769230926,109.6380116502769 104.81422703512362,109.47811079640451 104.81926811055746,108.61345368602633 105.197348767746,107.47634968184138 105.87789395073196,106.58797082908131 107.28939507098403,105.66404160727325 108.32281553401845,104.75194241458303 108.97815533983521,103.5140693251451 109.21508588502184,103.34230483007195 109.56292008963646,103.46668606972526 109.24029126216192,103.33638190687998 108.9630321135337,103.5259151326245 108.4135548917402,104.61571851014378 107.8086258402036,105.20207117854443 104.89992531744065,101.96224649262513 102.45500373418326,101.47655248999945 102.26344286781386,101.24555017914463 102.22311426440137,100.34522422277223 101.77949962660205,100.2563754677285 97.21732636296656,100.35114746801264 96.45108289769269,99.77066640359772 95.42774458555505,99.45673021450057 95.1051157580514,99.08355845148617 94.6665421956859,97.92848694873828 94.51026885738247,96.75562029545836 93.28528752803686,96.26395663236326 92.96769977596705,96.23433819905767 91.78808812546777,96.41204855971591 89.6204256908386,96.90963451481366 87.09988797610276,96.58975834616649 86.94361463779933,96.79116207667175 86.5,98.22466144131613 87.53846153846825,99.78843632299686 90.45220313669415,100.36299395655078 91.28902165795444,101.05008592771992 91.44025392085314,101.65424591520423 91.99981329351431,103.05208084398328 92.07542942496366,103.70360193877059 92.77613890965586,106.59981597479054 93.31553398058168,109.74461196144694 93.41635548920021,110.04664505504115 93.76923076924868,110.49080835805944 94.11706497389241,110.68623907580695 95.68483943244792,111.25476085437549 97.39880507843918,112.32072336114288 97.72143390591373,112.39178679422912 99.04219566841493,112.41547458489367 99.70761762509937,112.95436906800387 100.10082150858943,112.96029095610356 101.17457057506545,113.43403993898028 103.80601194922929,113.76566180094233 104.09335324872518,113.73013098271258 104.24962658702862,113.59392930042304 104.44118745333981,113.09649420630376 104.70332337566651,111.95948282426252 104.84951456313138,110.72769398731543 104.80414488425595,110.47304189475472 104.5369678864663,110.30129912055418 104.49663928308291,110.18877770200925 104.62770724421716,109.71500078460667 104.82935026139603,109.42481040854182 104.81422703512362,108.60160897376045 105.197348767746,107.47634968184138 105.66112770728068,106.80118306177246 107.44566840928746,105.5574333910663 108.06067961166264,105.02438921162684 108.3984316654387,104.6571779950209 108.95799103812897,103.56145253976501 109.18483943241881,103.3541506745205 110.00149365200195,103.65621884658322 110.5156833458168,103.69175616955908 111.9725541449152,103.16461685705508 113.12191934281145,103.16461685705508 113.35884988799808,103.07577265533837 113.5,102.90400679189042" stroke="#ff8300" stroke-dasharray="none" stroke-linecap="round" stroke-linejoin="round" stroke-width="0.5"><title>2026-05-16 35.3km</title><desc>1778887035000</desc></polyline><polyline fill="none" opacity="0.5" points="146.07497823488666,96.0629340752348 144.44816498825094,98.26383369098767 144.6306113335886,106.08305293106241 147.5801605847082,107.69337249782984 149.46543948742328,107.87229592546646 149.8455360403168,108.21224990405608 150.0735939720762,116.78243756529992 149.96716693724738,117.46230816350726 149.35901245253626,117.85591617885802 145.39080443960847,118.41054406383773 141.89391615230124,118.5 138.0169313120423,118.26741446525557 131.2664165313472,117.33706905294093 125.23048327025026,117.28339511936065 124.9264060278656,111.4149398964073 125.07844464911614,108.62377220552298 137.84968882874819,108.15857300652715 139.1420171087957,107.65758778910094 141.42259642662248,106.26197810236772 141.28576166753192,98.69327409977268 141.10331532207783,98.10279324989824 140.28230676765088,97.36916258730344 139.55252138600918,96.22397650475614 139.29405573004624,94.8461639782181 139.68935614504153,93.3609765672445 141.08811145997606,91.89366986829555 142.10677022195887,91.53578820856637 143.20144829445053,91.5 144.9803001623368,92.21576269919751 146.13579368335195,94.04094354507106 146.18140526977368,95.63348682901415 145.67967781983316,96.90393169868912 144.4633688502945,98.15647341434669 144.34173795336392,99.57004480175965 141.4682080129278,99.64161771489307 141.13372304633958,98.12068663997343 139.94782180112088,96.97550576683716 139.32446345424978,95.36508173320908 139.4765020754421,93.91568668051332 140.19108359504025,92.64521883007546 141.84830456593772,91.60736460253247 143.91602981410688,91.64315278791764 144.90428085176973,92.16208060430654 145.5428430607426,92.82415855507134 146.2726284423843,94.70301396586001 145.84692030306906,96.5997415631573 144.49377657455625,98.084899857844 144.31133022916038,99.5163650965842 141.4682080129278,99.62372448948736 141.16413077054312,98.21015356136195 139.97822952538263,97.01129278923327 139.38527890265686,95.63348682901415 139.44609435118036,94.0588373751234 140.06945269805146,92.73468871682417 141.49861573718954,91.73262321738002 143.32307919143932,91.51789410524361 145.0411156108603,92.28733879853098 145.74049326835666,93.16414349869592 146.21181299397722,94.30935079221672 146.13579368335195,95.88399785832735 145.58845464710612,96.99339927898836 144.47857271245448,98.24594031638117 144.3569418155239,99.53425833363144 141.54422732361127,99.65951093834883 141.22494621906662,98.26383369098767 140.02384111168794,96.99339927898836 139.35487117845332,95.36508173320908 139.5981329723145,93.55780940127443 140.46475311310496,92.3410208527057 142.28921656729653,91.5 143.94643753831042,91.64315278791764 145.10193105932558,92.3410208527057 146.21181299397722,94.23777556899586 146.1662014076137,95.70506144758838 145.49723147443729,97.11865381007374 144.47857271245448,98.12068663997343 144.41775726393098,99.4984718576452 141.5138195992913,99.65951093834883 141.10331532207783,98.084899857844 140.1606758707785,97.22601476115233 139.46129821328213,95.95557236834429 139.32446345424978,94.52407627593493 139.8718024904956,92.82415855507134 139.94782180112088,93.003098086323 140.5559762857738,92.28733879853098 141.54422732361127,91.71472913537582 143.68797188228928,91.58947050693678 141.54422732361127,91.71472913537582 140.5559762857738,92.28733879853098 139.94782180112088,93.003098086323 139.8718024904956,92.82415855507134 139.32446345424978,94.52407627593493 139.46129821328213,95.95557236834429 140.1606758707785,97.22601476115233 141.10331532207783,98.084899857844 141.5138195992913,99.65951093834883 144.41775726393098,99.4984718576452 144.47857271245448,98.12068663997343 145.49723147443729,97.11865381007374 146.1662014076137,95.70506144758838 146.21181299397722,94.23777556899586 145.10193105932558,92.3410208527057 143.94643753831042,91.64315278791764 142.28921656729653,91.5 140.46475311310496,92.3410208527057 139.5981329723145,93.55780940127443 139.35487117845332,95.36508173320908" stroke="#4dd2ff" stroke-dasharray="1,0.5" stroke-linecap="round" stroke-linejoin="round" stroke-width="0.5"><title>2026-05-12 15.2km</title><desc>1778590468000</desc></polyline><polyline fill="none" opacity="1" points="183.57497823488666,96.0629340752348 181.94816498825094,98.26383369098767 182.1306113335886,106.08305293106241 185.0801605847082,107.69337249782984 186.96543948742328,107.87229592546646 187.3455360403168,108.21224990405608 187.5735939720762,116.78243756529992 187.46716693724738,117.46230816350726 186.85901245253626,117.85591617885802 182.89080443960847,118.41054406383773 179.39391615230124,118.5 175.5169313120423,118.26741446525557 168.7664165313472,117.33706905294093 162.73048327025026,117.28339511936065 162.4264060278656,111.4149398964073 162.57844464911614,108.62377220552298 175.34968882874819,108.15857300652715 176.6420171087957,107.65758778910094 178.92259642662248,106.26197810236772 178.78576166753192,98.69327409977268 178.60331532207783,98.10279324989824 177.78230676765088,97.36916258730344 177.05252138600918,96.22397650475614 176.79405573004624,94.8461639782181 177.18935614504153,93.3609765672445 178.58811145997606,91.89366986829555 179.60677022195887,91.53578820856637 180.70144829445053,91.5 182.4803001623368,92.21576269919751 183.63579368335195,94.04094354507106 183.68140526977368,95.63348682901415 183.17967781983316,96.90393169868912 181.9633688502945,98.15647341434669 181.84173795336392,99.57004480175965 178.9682080129278,99.64161771489307 178.63372304633958,98.12068663997343 177.44782180112088,96.97550576683716 176.82446345424978,95.36508173320908 176.9765020754421,93.91568668051332 177.69108359504025,92.64521883007546 179.34830456593772,91.60736460253247 181.41602981410688,91.64315278791764 182.40428085176973,92.16208060430654 183.0428430607426,92.82415855507134 183.7726284423843,94.70301396586001 183.34692030306906,96.5997415631573 181.99377657455625,98.084899857844 181.81133022916038,99.5163650965842 178.9682080129278,99.62372448948736 178.66413077054312,98.21015356136195 177.47822952538263,97.01129278923327 176.88527890265686,95.63348682901415 176.94609435118036,94.0588373751234 177.56945269805146,92.73468871682417 178.99861573718954,91.73262321738002 180.82307919143932,91.51789410524361 182.5411156108603,92.28733879853098 183.24049326835666,93.16414349869592 183.71181299397722,94.30935079221672 183.63579368335195,95.88399785832735 183.08845464710612,96.99339927898836 181.97857271245448,98.24594031638117 181.8569418155239,99.53425833363144 179.04422732361127,99.65951093834883 178.72494621906662,98.26383369098767 177.52384111168794,96.99339927898836 176.85487117845332,95.36508173320908 177.0981329723145,93.55780940127443 177.96475311310496,92.3410208527057 179.78921656729653,91.5 181.44643753831042,91.64315278791764 182.60193105932558,92.3410208527057 183.71181299397722,94.23777556899586 183.6662014076137,95.70506144758838 182.99723147443729,97.11865381007374 181.97857271245448,98.12068663997343 181.91775726393098,99.4984718576452 179.0138195992913,99.65951093834883 178.60331532207783,98.084899857844 177.6606758707785,97.22601476115233" stroke="#4dd2ff" stroke-dasharray="none" stroke-linecap="round" stroke-linejoin="round" stroke-width="0.5"><title>2026-05-11 15.3km</title><desc>1778503630000</desc></polyline><polyline fill="none" opacity="1" points="36.29572673421353,134.14722594473278 34.89625616557896,138.38251019758172 30.397957908455282,143.67656906787306 29.84816589928232,148.14706748182653 20.451720651471987,148.14706748182653 19.751985366921872,143.61774647497805 16.653157679131255,140.5589628687594 14.304046366829425,136.7354591351468 13.7042732660193,131.61780431837542 14.25406527519226,129.08837091072928 17.402874055085704,124.32359226088738 23.50056724785827,121.55882498860592 29.148430614732206,122.26472435361939 34.99621834885329,126.73539902450284 36.1957645509392,131.20603689190466 36.14578345906921,134.8531089471653 33.84665323863737,140.02955626504263 30.547901183599606,143.26481078437064 30.1480524498038,148.02942325809272 20.90155047713779,148.44117792946054 19.751985366921872,143.50010127038695 16.903063137549907,140.91190031799488 14.054140908177942,136.38251897180453 13.804235449526459,130.9119171105558 15.253687110263854,127.02952106791781 19.152212266111746,123.08827245316934 21.901172311976552,121.91177478566533 25.999621834838763,121.55882498860592 30.5978822754696,122.9117979654111 32.64710703701712,124.44124161952641 35.99584018369205,129.8530845787609 36.39568891772069,133.08839972061105 35.496029266156256,137.50016203528503 30.69784445874393,142.97069753333926 30.397957908455282,147.73531258752337 20.951531569007784,148.5 19.702004275051877,143.5589238757384 15.1037438348867,138.5589796580025 13.60431108251214,133.20604718098184 14.45398964220658,128.50012889504433 17.25293077994138,124.26476757170167 23.650510523235425,121.5 29.248392798472196,122.32354925922118 33.34684232133441,125.08831263816683 35.34608599101193,128.14718337962404 36.345707825850695,132.02957143238746 35.046199440490454,138.38251019758172 30.447939000325277,143.44127865834162 30.1480524498038,148.08824537304463 20.90155047713779,148.44117792946054 19.801966458791867,143.79421423445456 14.953800559742376,138.38251019758172 13.7042732660193,134.8531089471653 14.553951825480908,128.44130465830676 17.15296859643422,124.6765402610763 22.650888688396662,121.6764749463182 28.148808779893443,121.97059972962597 33.04695577104576,124.85301417519804 36.245745642343536,130.4413251291844 35.496029266156256,137.0883990689763 33.59674778021872,140.38249405828537 30.547901183599606,143.38245604006806 30.1480524498038,148.02942325809272 20.751607201993465,148.38235585269285 19.801966458791867,143.67656906787306 16.453233311884105,140.44131700141588 14.104122000047937,136.32369558914797 13.754254357656464,130.79426915338263 15.553573660319671,126.44127682188991 18.152590431040153,123.61769557185471 21.201437027659267,122.02942466718378 25.999621834838763,121.55882498860592" stroke="#4dd2ff" stroke-dasharray="none" stroke-linecap="round" stroke-linejoin="round" stroke-width="0.5"><title>2026-05-10 11.2km</title><desc>1778422578000</desc></polyline><polyline fill="none" opacity="1" points="76.0,145.2982935871696 63.35764705890324,143.42932547689998 49.34941176464781,143.24242810957367 49.0,125.37457259607618 54.71764705888927,124.70170641280129" stroke="#4dd2ff" stroke-dasharray="none" stroke-linecap="round" stroke-linejoin="round" stroke-width="0.5"><title>2026-05-10 11.3km</title><desc>1778397813000</desc></polyline><polyline fill="none" opacity="0.5" points="109.27652990398929,143.00857241923222 109.27652990398929,148.17313070909586 98.1669132525567,148.5 97.55588433681987,143.40081890305737 92.94539342657663,139.0860935592209 90.72347009624355,133.46382940706098 91.05675859586336,128.10301713866647 95.33396100648679,121.5 91.05675859586336,128.10301713866647 90.72347009624355,133.46382940706098 92.94539342657663,139.0860935592209 97.55588433681987,143.40081890305737 98.1669132525567,148.5 109.27652990398929,148.17313070909586 109.27652990398929,143.00857241923222 109.27652990398929,148.17313070909586 98.1669132525567,148.5 97.55588433681987,143.40081890305737 92.94539342657663,139.0860935592209 90.72347009624355,133.46382940706098 91.05675859586336,128.10301713866647 95.33396100648679,121.5 91.05675859586336,128.10301713866647 90.72347009624355,133.46382940706098 92.94539342657663,139.0860935592209 97.55588433681987,143.40081890305737 98.1669132525567,148.5 109.27652990398929,148.17313070909586 109.27652990398929,143.00857241923222 109.27652990398929,148.17313070909586 98.1669132525567,148.5 97.55588433681987,143.40081890305737 92.94539342657663,139.0860935592209 90.72347009624355,133.46382940706098 91.05675859586336,128.10301713866647 95.33396100648679,121.5 91.05675859586336,128.10301713866647 90.72347009624355,133.46382940706098 92.94539342657663,139.0860935592209 97.55588433681987,143.40081890305737 98.1669132525567,148.5 109.27652990398929,148.17313070909586 109.27652990398929,143.00857241923222 109.27652990398929,148.17313070909586 98.1669132525567,148.5 97.55588433681987,143.40081890305737 92.94539342657663,139.0860935592209 90.72347009624355,133.46382940706098 91.05675859586336,128.10301713866647 95.33396100648679,121.5 91.05675859586336,128.10301713866647 90.72347009624355,133.46382940706098 92.94539342657663,139.0860935592209 97.55588433681987,143.40081890305737 98.1669132525567,148.5 109.27652990398929,148.17313070909586 109.27652990398929,143.00857241923222 109.27652990398929,148.17313070909586 98.1669132525567,148.5 97.55588433681987,143.40081890305737 92.94539342657663,139.0860935592209 90.72347009624355,133.46382940706098 91.05675859586336,128.10301713866647 95.33396100648679,121.5 91.05675859586336,128.10301713866647 90.72347009624355,133.46382940706098 92.94539342657663,139.0860935592209 97.55588433681987,143.40081890305737 98.1669132525567,148.5 109.27652990398929,148.17313070909586 109.27652990398929,143.00857241923222 109.27652990398929,148.17313070909586 98.1669132525567,148.5 97.55588433681987,143.40081890305737 92.94539342657663,139.0860935592209 90.72347009624355,133.46382940706098 91.05675859586336,128.10301713866647 95.33396100648679,121.5 91.05675859586336,128.10301713866647 90.72347009624355,133.46382940706098 92.94539342657663,139.0860935592209 97.55588433681987,143.40081890305737 98.1669132525567,148.5 109.27652990398929,148.17313070909586 109.27652990398929,143.00857241923222 109.27652990398929,148.17313070909586 98.1669132525567,148.5 97.55588433681987,143.40081890305737 92.94539342657663,139.0860935592209 90.72347009624355,133.46382940706098 91.05675859586336,128.10301713866647 95.33396100648679,121.5 91.05675859586336,128.10301713866647 90.72347009624355,133.46382940706098 92.94539342657663,139.0860935592209 97.55588433681987,143.40081890305737 98.1669132525567,148.5 109.27652990398929,148.17313070909586 109.27652990398929,143.00857241923222 109.27652990398929,148.17313070909586 98.1669132525567,148.5 97.55588433681987,143.40081890305737 92.94539342657663,139.0860935592209 90.72347009624355,133.46382940706098 91.05675859586336,128.10301713866647 95.33396100648679,121.5 91.05675859586336,128.10301713866647 90.72347009624355,133.46382940706098 92.94539342657663,139.0860935592209 97.55588433681987,143.40081890305737 98.1669132525567,148.5 109.27652990398929,148.17313070909586 109.27652990398929,143.00857241923222 109.27652990398929,148.17313070909586 98.1669132525567,148.5 97.55588433681987,143.40081890305737 92.94539342657663,139.0860935592209 90.72347009624355,133.46382940706098 91.05675859586336,128.10301713866647 95.33396100648679,121.5 91.05675859586336,128.10301713866647 90.72347009624355,133.46382940706098 92.94539342657663,139.0860935592209 97.55588433681987,143.40081890305737 98.1669132525567,148.5 109.27652990398929,148.17313070909586 109.27652990398929,143.00857241923222 109.27652990398929,148.17313070909586 98.1669132525567,148.5 97.55588433681987,143.40081890305737 92.94539342657663,139.0860935592209 90.72347009624355,133.46382940706098 91.05675859586336,128.10301713866647 95.33396100648679,121.5 91.05675859586336,128.10301713866647 90.72347009624355,133.46382940706098 92.94539342657663,139.0860935592209 97.55588433681987,143.40081890305737 98.1669132525567,148.5 109.27652990398929,148.17313070909586 109.27652990398929,143.00857241923222 109.27652990398929,148.17313070909586 98.1669132525567,148.5 97.55588433681987,143.40081890305737 92.94539342657663,139.0860935592209 90.72347009624355,133.46382940706098 91.05675859586336,128.10301713866647 95.33396100648679,121.5 91.05675859586336,128.10301713866647 90.72347009624355,133.46382940706098 92.94539342657663,139.0860935592209 97.55588433681987,143.40081890305737 98.1669132525567,148.5 109.27652990398929,148.17313070909586 109.27652990398929,143.00857241923222 109.27652990398929,148.17313070909586 98.1669132525567,148.5 97.55588433681987,143.40081890305737 92.94539342657663,139.0860935592209 90.72347009624355,133.46382940706098 91.05675859586336,128.10301713866647 95.33396100648679,121.5 91.05675859586336,128.10301713866647 90.72347009624355,133.46382940706098 92.94539342657663,139.0860935592209 97.55588433681987,143.40081890305737 98.1669132525567,148.5 109.27652990398929,148.17313070909586 109.27652990398929,143.00857241923222 109.27652990398929,148.17313070909586 98.1669132525567,148.5 97.55588433681987,143.40081890305737 92.94539342657663,139.0860935592209 90.72347009624355,133.46382940706098 91.05675859586336,128.10301713866647 95.33396100648679,121.5 91.05675859586336,128.10301713866647 90.72347009624355,133.46382940706098 92.94539342657663,139.0860935592209 97.55588433681987,143.40081890305737 98.1669132525567,148.5 109.27652990398929,148.17313070909586 109.27652990398929,143.00857241923222 109.27652990398929,148.17313070909586 98.1669132525567,148.5 97.55588433681987,143.40081890305737 92.94539342657663,139.0860935592209 91.33449901198037,134.9674633218674" stroke="#ffc700" stroke-dasharray="1,0.5" stroke-linecap="round" stroke-linejoin="round" stroke-width="0.5"><title>2025-11-09 21.3km</title><desc>1762645227000</desc></polyline><polyline fill="none" opacity="1" points="146.18386138859205,140.30057638074504 143.0487137241289,143.17038878973108 142.7998924809508,147.97289793519303 133.49397798394784,148.3828662521555 132.20010751928203,143.34609109547455 126.92509716306813,137.25504451338202 126.178633433301,132.51100878079887 127.22368265478872,128.00120782788144 131.25458679511212,123.37423009570921 137.37558937841095,121.5 143.1980064699892,122.78853388875723 145.63645465369336,124.95560668571852 148.2739598318003,129.17258831486106 148.821366566699,132.51100878079887 148.3734883288853,135.90797686984297 146.98008936690167,139.30492361891083 142.9491852268111,143.28752366662957 142.7998924809508,147.8557640730287 135.0366696920246,148.5 132.99633549782448,148.207165582804 132.44892876246013,143.7560629202053 128.41802462236956,139.77346632350236 126.97486141161062,137.25504451338202 126.22839768207632,132.33530295424862 127.32321115233935,127.88406963978196 131.6527007841505,123.1399516890524 137.92299611354247,121.55856978881638 143.3970634646248,122.84710353810806 147.3284391076304,127.18123997718794 148.5227810749784,130.05112201476004 148.62230957252905,135.4979990948923 146.98008936690167,139.24635575240245 143.0984779726714,142.81898400682257 142.84965672926046,147.7971971326624 133.24515674100257,148.3828662521555 132.29963601659983,143.46322593424702 128.41802462236956,139.83203413290903 126.47721892502159,135.0880210091127 126.37769042770378,130.40253509493778 128.66684586554766,125.71700857958058 132.94657124904916,122.43711585993879 138.9182810864877,121.67570934758987 143.1980064699892,122.90567318093963 147.77631734521128,127.82550053606974 148.7716023181565,131.57391037989873 148.224195583025,136.66936334152706 146.28338988590986,140.066305307555 142.9491852268111,143.22895623132354 142.75012823217548,147.8557640730287 139.96333030820824,148.3828662521555 133.04609974636696,148.3242993687163 132.34940026514232,143.46322593424702 128.66684586554766,140.12487308541313 127.12415415747091,137.43074874120066 126.37769042770378,130.34396626416128 130.0602448277641,124.31134270731127 135.43478368106298,121.73427911725594 142.25248574558645,122.5542552282568 146.98008936690167,126.65411713084904 148.72183806961402,131.4567729656701 148.3237240803428,136.3765225179959" stroke="#4dd2ff" stroke-dasharray="none" stroke-linecap="round" stroke-linejoin="round" stroke-width="0.5"><title>2025-11-01 10.0km</title><desc>1761964262000</desc></polyline><polyline fill="none" opacity="1" points="180.2070730710402,148.32237277872628 170.3966455454938,148.44079093274195 169.64199727447703,143.52641598845366 165.96937568788417,140.3882980326889 164.4097692607902,137.48700314207235 163.75574075919576,130.73699217825197 166.72402395913377,125.11191937158583 171.8053223185707,122.03290763765108 177.54064917960204,121.85527181613725 182.77287719305605,124.51980307733174 185.79147027782165,129.07908199855592 186.49580866424367,134.23042931058444 184.8858923520893,139.0856777416775 180.55924226436764,143.17115825612564 180.10645330161788,148.38158185908105 170.4469554303214,148.5 169.8432368133217,143.58562558802078 164.71162856929004,138.25673594034743 163.50419133575633,132.75016206502914 164.0576000676956,129.31592661776813 165.7681361490395,126.29615003586514 170.04447635239922,122.62502662575571 176.18228229135275,121.5 182.37039811513387,124.22374468977796 185.99270981666632,129.84882663568715 186.44549877941608,134.46727169805672 184.43310338957235,139.61856823577546 180.55924226436764,143.230367894168 179.90521376254037,148.5 170.49726531514898,148.5 169.99416646757163,143.52641598845366 166.42216465063393,140.56592783203814 164.35945937619545,137.07253118645167 163.8060506437905,130.20409302582266 167.27743269130588,124.46059141261503 172.3587310507428,121.79605986294337 178.79839629819617,122.09211956523359 183.57783534913324,125.5856119451928 186.0933295863215,130.79620316298679 186.2442592405714,135.0593772176071 184.73496269783936,139.26330796408 180.50893237954006,143.46720638254192 180.30769284046255,148.14474549988518 179.6536643388681,148.44079093274195 170.4469554303214,148.5 169.64199727447703,143.46720638254192 166.2209251120221,140.56592783203814 164.35945937619545,137.25016206281725 163.8060506437905,130.38172613445204 167.17681292188354,124.63822638755664 172.76121012866497,121.79605986294337 179.40211491496302,122.26975530991331 183.52752546430565,125.34876570967026 186.14363947091624,130.73699217825197 186.19394935574383,135.71069254807662 184.08093419647776,140.2106681758887 180.6095521489624,143.40799677016912" stroke="#4dd2ff" stroke-dasharray="none" stroke-linecap="round" stroke-linejoin="round" stroke-width="0.5"><title>2025-10-27 10.0km</title><desc>1761565093000</desc></polyline><polyline fill="none" opacity="1" points="36.34543316019699,161.63989504502388 34.99299741908908,168.30146745522507 30.38469785754569,173.25337995617883 30.23442721972242,177.85154408193193 20.416745544876903,178.2641979373293 19.76557278051041,173.4302331408253 16.359438322018832,170.42372118658386 13.905017903307453,165.8254943100037 13.854927690466866,159.69446471094852 15.958716620923951,155.7446302169701 21.318369372049347,152.0305805875687 26.97856339905411,151.61790684208972 30.985780409304425,153.09174021077342 33.03947912668809,154.80138191854348 36.34543316019699,160.7556093915482 36.24525273498148,164.70540752017405 35.09317784453742,168.36041905957973 30.38469785754569,173.25337995617883 30.23442721972242,177.91049465182004 20.767377033131197,178.3820989812957 19.665392355294898,173.48918418964604 16.209167683962733,170.42372118658386 13.65456684003584,164.52855150052346 14.055288541363552,159.45865450112615 16.10898725898005,155.50881829555146 21.869361710967496,151.79476705688285 28.98217190383002,152.0895339542767 31.687043386045843,153.3275531794061 33.49029104039073,155.27300627186196 36.19516252214089,161.10932382539613 36.145072309765965,165.11807134241099 34.94290720671415,168.59622541279532 30.334607644937932,173.4302331408253 30.23442721972242,177.91049465182004 20.617106395075098,178.32314846251393 19.91584341833368,173.78393933776533 15.057092793518677,168.65517698507756 13.604476627428085,164.58750351361232 14.355829816777259,157.98483837378444 16.058897046139464,155.56777128542308 22.019632348790765,151.79476705688285 27.27910467493348,151.73581365827704 32.53857700061053,154.2708040321013 36.04489188455045,160.04817983444082 36.19516252214089,165.0001674251398 34.34182465518825,169.4804983275244 30.4848782827612,173.1354778013192 30.184337006881833,177.9694452152471 20.667196607915685,178.5 19.91584341833368,173.72498832078418 16.10898725898005,170.12896421866026 14.005198328522965,165.94339804840274 13.905017903307453,160.34294226160273 16.008806833531708,155.7446302169701 20.516925970092416,152.38430069183232 25.676217870553955,151.5 31.486682535381988,153.3275531794061 35.29353869496845,157.8669329113327 36.395523372804746,161.75779969029827 35.94471145910211,166.17920544883236 34.391914867796004,169.4804983275244" stroke="#4dd2ff" stroke-dasharray="none" stroke-linecap="round" stroke-linejoin="round" stroke-width="0.5"><title>2025-10-19 10.0km</title><desc>1760866141000</desc></polyline><polyline fill="none" opacity="1" points="57.32695812522434,173.6177464752691 53.97822570358403,170.61778579314705 51.87902030511759,167.0883990691509 51.279247333994135,160.4413251291262 54.228131108218804,155.08831263822503 60.22586081828922,151.61764997069258 65.97368512372486,152.02942466718378 70.92181213456206,155.323610999214 73.62079050415196,160.26485303096706 73.77073374669999,164.79428539896617 72.07137699541636,169.2060338560259 67.87296619848348,173.26481078448705 67.62306079408154,178.14706748182653 57.87675001518801,178.20588958403096 57.32695812522434,173.79421423457097 53.67833921848796,170.206025190535 51.279247333994135,165.5589910323033 51.52915273886174,158.67660156678176 54.17815002729185,154.85301417543087 56.127412183210254,153.44122125627473 61.92521756934002,151.5 67.97292836033739,152.9706228011055 70.97179321525618,155.3824355736724 73.27092293743044,158.9118983731023 73.62079050415196,165.6178144980804 72.07137699541636,169.32367999077542 68.02290944126435,173.32363341550808 67.92294727964327,177.97060113667976 59.02631487627514,178.5 57.87675001518801,178.20588958403096 57.17701488244347,173.44127865845803 53.47841489454731,169.79426427558064 51.179285172373056,164.85310894751456 51.02934192959219,160.85309313522885 53.67833921848796,155.55890925851418 55.827525697648525,153.61769557197113 59.72605000901967,151.91177478578174 65.62381755723618,151.91177478578174 69.97217159694992,154.38241694349563 73.72075266577303,160.38250110280933 73.27092293743044,166.44134234864032 71.87145267194137,169.44132610032102 67.82298511755653,172.9706975335721 67.67304187477566,177.97060113667976 58.17663650074974,178.26471168006537 57.12703380128369,173.3824560402427 52.62873651902191,168.79427218291676 51.1293040914461,164.97075602522818 51.279247333994135,160.20602898561629 53.378452732693404,155.97068096662406 55.77754461672157,153.61769557197113 59.27622028090991,151.97059972956777 65.52385539538227,151.97059972956777 70.82184997247532,155.1471372382366 73.97065807040781,161.85309985035565 72.22132023819722,169.02956460573478 67.92294727964327,172.794229506806 67.7730040368624,177.97060113667976" stroke="#4dd2ff" stroke-dasharray="none" stroke-linecap="round" stroke-linejoin="round" stroke-width="0.5"><title>2025-10-16 10.0km</title><desc>1760611285000</desc></polyline><polyline fill="none" opacity="1" points="105.25527975289151,178.14318046328845 95.50269328826107,178.5 94.79525178298354,173.6829166901298 90.55060275178403,169.5199711464811 88.73146745259874,165.1785800307989 88.88306206092238,159.70718891144497 91.96548576210625,154.47363334317924 98.43352238112129,151.5 105.10368514456786,152.21367347118212 110.20737028960139,157.50672276184196 111.31906408350915,161.55081592261558 110.20737028960139,168.21161031420343 105.3563428253401,173.26662355609005 105.3563428253401,178.02424056624295 95.55322482436895,178.44053009332856 94.89631485519931,173.80185752740363 90.09581892704591,168.8063201699406 88.73146745259874,164.8217518372694 88.93359359679744,159.52877306559822 91.81389115401544,154.77099579165224 97.67554933996871,151.6189456427819 104.5983697839547,152.21367347118212 108.9440818876028,155.48466501117218 111.36959561961703,161.3724006759585 110.2579018259421,168.21161031420343 105.45740589755587,173.32609402301023 105.20474821724929,178.20265040238155 95.55322482436895,178.44053009332856 94.79525178298354,173.56397582677891 90.50007121544331,169.22261668584542 88.63040438038297,164.7028090543463 88.8325305248145,159.88560469920048 90.60113428765908,156.01991631696 96.51332400995307,151.97578241716838 102.67817141255364,151.6784184545977 105.60900050564669,152.6894552700105 108.43876652652398,155.12783051736187 111.36959561961703,161.49134418019094 111.2685325476341,165.0596373253502 110.05577568127774,168.5089653226314 105.40687436121516,173.5045053854701 105.3563428253401,178.20265040238155 95.603756360244,178.5 94.89631485519931,173.74238711188082 91.00538657628931,170.0552087703254 88.68093591625802,165.11910868121777 88.93359359679744,159.29088518116623 91.51070193736814,155.12783051736187 97.4228916594293,151.6784184545977 104.14358595921658,152.03525519021787 108.69142420706339,155.42519261169946 111.2685325476341,161.3129289142671" stroke="#4dd2ff" stroke-dasharray="none" stroke-linecap="round" stroke-linejoin="round" stroke-width="0.5"><title>2025-10-08 10.1km</title><desc>1759919017000</desc></polyline><polyline fill="none" opacity="1" points="148.89535834547132,164.20257347921142 147.38936385069974,168.8108758474118 142.9717799986247,173.30097916937666 142.5199816499371,178.14552288118284 133.08241614792496,178.44092049606843 132.42981853312813,173.59637940791436 127.0584381679073,167.62926356709795 126.25524110370316,161.4848384471261 128.96603119466454,155.5175901092589 134.1366122942418,152.09082393092103 139.40759302699007,151.618164837535 145.33117137406953,154.27686691028066 148.44355999701656,159.1215795861208 148.94555816217326,164.08441136806505 147.0881649516523,169.34260053851176 142.9717799986247,173.41913928405847 142.62038128287531,178.2046024168958 132.98201651475392,178.38184098590864 132.07841981761158,173.1828190293163 129.01623101113364,170.58328946866095 126.80743908509612,167.21569866425125 126.25524110370316,161.24851302162278 128.81543174549006,155.7539180177264 131.62662146915682,153.15430539369117 134.1366122942418,152.09082393092103 140.21079009096138,151.67724724649452 145.9837689884007,155.10401602328056 148.09216128173284,157.99902804015437 148.89535834547132,164.26165452512214 147.3391640339978,168.86995639436645 143.02197981486097,173.1828190293163 142.62038128287531,178.14552288118284 133.18281578086317,178.5 132.37961871665902,173.4782193316496 129.66882862569764,171.469494119694 127.40983688319102,168.27915063797263 126.20504128723405,161.60300112131517 128.41383321327157,156.22657352720853 133.28321541380137,152.38623565633316 139.50799265992828,151.618164837535 144.82917320914567,153.8632918834337 148.0419614650309,157.93994631594978 148.84515852923505,164.26165452512214 147.23876440082677,169.10627851757454 143.12237944826484,173.0055787707679 142.67058109957725,178.14552288118284 133.08241614792496,178.38184098590864 132.48001834983006,173.77361947420286 127.96203486481681,169.16535903234035 126.05444183782674,162.31197662942577 127.0584381679073,158.5307632709737 129.21703027747571,155.04493398522027 133.03221633122303,152.44531798228854 136.194804770872,151.5" stroke="#4dd2ff" stroke-dasharray="none" stroke-linecap="round" stroke-linejoin="round" stroke-width="0.5"><title>2025-10-01 10.0km</title><desc>1759271073000</desc></polyline><polyline fill="none" opacity="1" points="186.4706549642142,161.68436716601718 185.61538683110848,167.30937234219164 183.75392089388333,170.329088086728 180.53408792149276,172.99352930352325 180.43346814089455,177.90790903789457 176.96208571759053,178.38158185890643 170.37149010202847,178.3223727788427 169.7677714198362,173.58562558802078 165.99452965520322,170.0330382611137 163.83120437688194,166.1251655361266 164.0827538277954,159.31592661770992 165.9442197647877,155.88166959531372 168.56033405498601,153.4539921315154 173.23915384314023,151.6184239644208 180.28253847034648,152.5658147559152 184.96135825873353,157.06589859188534 186.37003518408164,161.03304703818867 186.26941540371627,165.3554297366063 184.15640001534484,170.0922482389724 180.53408792149276,173.28957752569113 180.08129890984856,178.20395459904103 170.47210988262668,178.3223727788427 169.8683912002016,173.58562558802078 164.18337360816076,167.36858261522138 163.52934503555298,163.81595488579478 163.98213404743,159.375137756404 167.10134723968804,154.6974380328902 173.08822417259216,151.67763593705604 179.578200007556,152.38817910751095 183.15020221145824,154.8750729308813 186.06817584275268,160.08567092154408 186.31972529366612,165.11858773400309 184.20670990552753,169.8554082887713 180.48377803131007,173.230367894168 180.48377803131007,177.84869990654988 179.88005934888497,178.26316369208507 170.47210988262668,178.3223727788427 169.81808130978607,173.58562558802078 166.4976285570301,170.56592783192173 164.33430327870883,167.0133208813495 163.68027470610105,160.73699217813555 166.74917800794356,154.9342845507781 172.98760439222679,151.67763593705604 180.68501759204082,152.74345034646103 184.70980880735442,156.82905299786944 186.37003518408164,161.38831265852787 185.9675560623873,166.48042784736026 183.95516045484692,170.26987813453889 180.63470770185813,173.1119486115058 180.3831582509447,178.02632728166645 177.01239560777321,178.5 170.47210988262668,178.5 169.7677714198362,173.4672063823673 166.0951494355686,170.0922482389724 163.93182415724732,166.1251655361266 164.0827538277954,159.43434888881166 168.3087846043054,153.4539921315154 172.63543516094796,151.73684790334664 176.91177582740784,151.5 179.578200007556,152.2697553099133 183.45206155255437,155.11191937164403 185.9675560623873,159.73040445445804" stroke="#4dd2ff" stroke-dasharray="none" stroke-linecap="round" stroke-linejoin="round" stroke-width="0.5"><title>2025-09-27 10.0km</title><desc>1758965825000</desc></polyline><polyline fill="none" opacity="1" points="36.34731274470687,194.15823383966926 35.06457304302603,198.3969334147405 30.278967233374715,203.7388084338163 30.278967233374715,208.32581080985256 20.411738759605214,208.5 20.017049620859325,203.50655410496984 15.08343538409099,198.04854841245105 13.70202339766547,191.71951478620758 14.54073781799525,188.81626335228793 17.303561790613458,185.04201298113912 21.694478461286053,182.25485718779964 28.009504684479907,182.13872538198484 31.709715362172574,183.47423963056644 33.63382491422817,185.15814415802015 36.24864045996219,191.66144991165493 36.05129589047283,195.78404037852306 33.33780805999413,201.1840052831103 30.377639517886564,203.33236329245847 30.032286521513015,208.20968465163605 20.411738759605214,208.44193694280693 19.819705051137134,203.15817242313642 15.18210766860284,198.91951049369527 13.80069568241015,195.02920224168338 13.65268725529313,191.8937093722052 14.78741852985695,188.17754592670826 19.671696624020115,183.0097133127274 26.28273970168084,181.90646169468528 33.04179120576009,184.0548969617812 35.65660675149411,188.81626335228793 36.14996817498468,194.50662137032486 34.52187547693029,199.20983087318018 30.426975660491735,203.33236329245847 30.130958806257695,208.44193694280693 20.411738759605214,208.38387387944385 19.869041193742305,203.62268128193682 16.1194943736773,200.25498293701094 13.80069568241015,194.91307320300257 14.68874624511227,188.17754592670826 18.882318346295506,183.76456837472506 22.92788202036172,181.9645276259398 31.907059931429103,183.24197652214207 33.97917791083455,185.10007857257733 35.90328746335581,190.44208609254565 36.19930431758985,194.50662137032486 34.02851405320689,200.02272709883982 30.328303375979885,203.56461769656744 30.032286521513015,208.32581080985256 20.362402617465705,208.2677477338002 19.671696624020115,203.33236329245847 16.41551122814417,200.66143041150644 14.63941010273993,197.81629161845194 13.80069568241015,191.13886575720971 15.97148594679311,186.49365088401828 19.967713478254154,182.42905484943185 24.80265543051064,181.5 33.28847191785462,184.3452253912692 35.75527903623879,189.28078463842394" stroke="#4dd2ff" stroke-dasharray="none" stroke-linecap="round" stroke-linejoin="round" stroke-width="0.5"><title>2020-04-24 10.0km</title><desc>1587724293000</desc></polyline><polyline fill="none" opacity="1" points="64.94002993870527,181.67763593711425 61.06616797414608,181.79605986282695 54.073092479491606,185.17113096575486 50.80294926301576,192.80937283171806 52.010386758251116,197.90147478319705 57.44385548774153,203.76325434836326 58.04757423559204,208.5 67.85800388641655,208.08553639397724 67.85800388641655,203.52641598839546 72.38589449413121,198.49357658304507 74.19705073721707,192.63174051209353 71.93310543312691,185.76324655441567 72.4865142852068,185.05270777101396 70.27287887688726,185.4079772781115 66.75118618179113,182.92108587932307 61.11647786991671,181.5 54.97867060103454,184.28295638010604 51.45697790617123,189.84882663574535 51.96007686271332,197.90147478319705 57.29292580089532,203.64483518118504 57.69540496589616,208.38158185890643 67.45552472071722,208.20395459915744 67.8076939904131,203.2303678940516 71.98341532889754,199.26330796384718 73.59333198983222,194.11200807831483 72.93930334621109,189.375137756404 70.02132939873263,184.63822638738202 63.88352213031612,181.67763593711425 59.556871104985476,182.09211956535 54.02278258395381,184.69743803300662 51.15511853224598,190.20409302593907 51.607907593250275,196.89490025199484 53.519683627877384,200.2106681757723 57.09168621827848,203.52641598839546 57.59478517482057,208.32237277878448 67.45552472071722,208.20395459915744 67.50583461672068,203.52641598839546 71.88279553758912,199.1448878220981 73.34178251121193,194.52648227871396 72.53682418097742,188.8422372766072 69.568540338194,184.51980307738995 67.05304555571638,182.6842384893098 62.92763411300257,181.79605986282695 60.21089974837378,181.85527181613725 55.23022007965483,183.57241567241726 51.80914717540145,188.25012502312893 50.80294926301576,191.625156277325 51.80914717540145,197.8422645679675 54.37495185341686,201.27644645154942 57.141996113816276,203.34878715121886 57.745714861666784,208.44079093274195 67.50583461672068,208.2631636923179 67.50583461672068,203.52641598839546 72.23496480705217,198.55278672784334 73.49271219829097,191.98042151308618" stroke="#4dd2ff" stroke-dasharray="none" stroke-linecap="round" stroke-linejoin="round" stroke-width="0.5"><title>2020-04-16 10.0km</title><desc>1587033949000</desc></polyline><polyline fill="none" opacity="1" points="102.12883334513754,181.6768602532684 98.02143724402413,181.97162721439963 92.1107940748334,184.4476633850718 89.35583327547647,189.10493899474386 88.65457052644342,192.40627478284296 89.85673523903824,198.41937065758975 95.06611565942876,203.54813523223856 95.91764899739064,208.4410494939657 105.28451571520418,208.08734632335836 105.43478630436584,203.37128208595095 109.5922726013232,199.24469235760625 111.34542947355658,194.52855150063988 110.69425692106597,189.57655961893033 106.9374921945855,184.15289776510326 101.37748039979488,181.79476705705747 93.56340976897627,183.62231924652588 89.85673523903824,188.2206492224359 88.75475091929547,191.99360890430398 89.25565288285725,196.70977172651328 91.8102528967429,200.836380673456 95.16629605228081,203.724988321017 95.76737840822898,208.5 105.3846961078234,208.08734632335836 105.43478630436584,203.31233102444094 109.99299417226575,198.77308011089917 111.34542947355658,193.88007893715985 110.89461770653725,190.1660848245956 108.64055887050927,185.92148909100797 104.83370394795202,182.79697385634063 102.17892354121432,181.6768602532684 97.52053528069519,182.14848731446546 92.1107940748334,184.32975715614157 89.20556268654764,189.8123697777046 88.70466072298586,193.46741417626617 89.75655484641902,198.3014674554579 95.1162058559712,203.54813523223856 95.51692742668092,208.32314846263034 105.53496669698507,207.7925935056992 105.48487650044262,203.25337995623704 109.79263338656165,199.12678933423012 111.19515888462774,194.469599481381 110.64416672452353,189.2228441889747 106.48668042733334,184.15289776510326 101.82829216681421,181.5 97.42035488807596,182.26639401598368 92.1107940748334,184.68347576609813 89.40592347178608,189.340749357827 88.75475091929547,194.70540752040688 90.9086293624714,199.71630419575376 95.01602546288632,203.66603729786584 95.61710781930014,208.5 105.53496669698507,207.96944521542173 105.53496669698507,203.37128208595095 109.5922726013232,199.36259535566205 111.2953392774798,194.17483928898582 110.5439863319043,189.340749357827 107.53857455099933,184.86033498489996 102.12883334513754,181.85372044914402" stroke="#4dd2ff" stroke-dasharray="none" stroke-linecap="round" stroke-linejoin="round" stroke-width="0.5"><title>2020-04-14 10.0km</title><desc>1586861907000</desc></polyline><polyline fill="none" opacity="1" points="129.123398746131,184.40137974126264 126.50728303915821,190.79620316269575 127.01038221339695,196.18437593703857 128.82153924158774,199.79619828471914 132.59478304954246,203.3487871508114 133.29912189370953,208.5 142.90831612492912,207.84869990643347 143.1095557946246,203.05273896059953 147.03372935508378,199.14488782180706 148.99581613508053,193.75674422772136 148.4927169608418,189.6119822471519 145.52443183166906,184.46059141249862 139.78910124348477,181.67763593688142 134.6574896646198,181.9736957034911 129.0227789110504,184.57901473541278 126.00418386491947,190.32251510425704 126.25573345203884,194.82253508613212 127.4128615532536,197.72384411795065 132.64509296696633,203.3487871508114 132.84633263689466,208.08553639386082 142.85800620750524,207.84869990643347 142.95862604212016,203.40799676970346 147.53682852932252,198.49357658269582 148.74426654796116,194.05279745248845 148.39209712599404,189.96724879124667 144.6188533178065,183.51320390502224 139.9400309957564,181.61842396430438 134.25501032499596,181.9144837631029 129.37494833325036,184.164532992756 126.10480369976722,191.92121065611718 127.71472105802968,198.07910539017757 132.59478304954246,203.52641598822083 132.8966425540857,208.08553639386082 142.6567665375769,207.90790903783636 142.85800620750524,203.23036789393518 146.78217976749875,199.26330796355614 148.59333679568954,194.88174562848872 148.29147729091346,189.43434888852062 145.02133265743032,184.34216806368204 139.6381714909803,181.5 133.24881197628565,182.44739099656 128.97246899385937,184.46059141249862 126.05449378211051,191.74357804795727 127.26193180098198,197.66463388339616 132.49416321446188,203.46720638207626 132.8966425540857,207.90790903783636 143.00893595977686,207.78949076862773 142.95862604212016,203.05273896059953 147.1846591073554,198.67120699759107 148.74426654796116,194.05279745248845 148.19085745629855,189.19750432064757" stroke="#4dd2ff" stroke-dasharray="none" stroke-linecap="round" stroke-linejoin="round" stroke-width="0.5"><title>2020-04-13 10.0km</title><desc>1586775592000</desc></polyline><polyline fill="none" opacity="1" points="186.80056829494424,183.53101942886133 183.3999744206667,185.08414688607445 177.20784826157615,181.79867979697883 171.37100802944042,182.21683124091942 167.10757690365426,184.3673193724244 163.85924842651002,189.02668155636638 163.70698302914388,196.13511981564807 165.58492293022573,199.6594375835266 169.64533352619037,203.60186805966077 170.10212971805595,208.38053388497792 179.3903189569246,207.96240227820817 180.05013567907736,203.18373283016263 184.110546275042,199.18156530789565 185.83622077852488,195.05989974178374 185.58244511601515,189.92270823247964 183.196953891078,185.32308918377385 177.41086879139766,181.79867979697883 171.6755388241727,181.9778875974589 166.2954947843682,185.08414688607445 164.1637792212423,188.6085352760274 163.35169710218906,191.83422694244655 164.21453435369767,197.68821177701466 165.53416779753752,200.13730944518466 169.44231299636886,203.54213447490474 170.0513745858334,208.38053388497792 179.3903189569246,208.0221353842644 180.15164594375528,203.06426556332735 183.50148468581028,200.07757548522204 185.3286694539711,196.91166634310503 185.88697591074742,192.0731663154438 184.56734246690758,187.0554177443846 181.5727896525059,183.7102266663569 176.39576614229009,181.79867979697883 170.9649669697974,182.27656713553006 166.80304610868916,184.6659976163064 164.77284081070684,187.1151531150099 163.19943170482293,192.0731663154438 163.35169710218906,194.94043071527267 165.12812673812732,199.71917158877477 169.49306812882423,203.7213352097897 169.94986432092264,208.32080081757158 179.54258435429074,208.08186848380137 180.20240107621066,203.18373283016263 184.21205653995275,199.18156530789565 185.73471051361412,195.83644778322196 185.83622077852488,190.6395285251201 184.56734246690758,186.9956823674147 179.69484975165688,182.81418989639496 173.9595197844319,181.73894385044696 167.9196590227075,183.59075518127065 164.21453435369767,188.07091816392494 163.30094196973369,190.6395285251201 163.45320736709982,195.5975100407377 165.73718832735904,200.37624522083206 169.29004759900272,203.60186805966077 170.0513745858334,208.5 179.847115149023,207.96240227820817 179.89787028171122,203.4226672858349 184.56734246690758,198.464756117668 185.83622077852488,193.8652083122288 184.66885273205116,187.71250646479893 182.53713716892526,184.60626198071986 179.6440946192015,182.3960389054264 173.75649925484322,181.5" stroke="#4dd2ff" stroke-dasharray="none" stroke-linecap="round" stroke-linejoin="round" stroke-width="0.5"><title>2020-04-12 10.0km</title><desc>1586649823000</desc></polyline><polyline fill="none" opacity="1" points="30.38773304433562,233.41568767122226 30.04013736383058,238.32467968267156 20.506084419088438,238.26623956428375 19.959862635936588,233.35724702116568 15.987340575782582,229.90923746227054 14.199705648468807,227.04561955475947 13.603827339364216,221.90275740099605 16.43424930726178,215.82476620055968 19.959862635936588,212.84418780222768 25.81933267484419,211.5 33.06918543507345,214.01304403849645 35.84995087701827,219.79884511831915 36.445829186355695,224.06510314252228 34.70785078476183,228.97418022481725 30.288419992662966,233.64945020817686 30.338076518382877,238.32467968267156 20.406771367648616,238.26623956428375 19.959862635936588,233.35724702116568 15.34180574095808,229.50015012029326 13.951423019869253,226.75341279135318 13.603827339364216,222.13652492605615 14.34867522586137,218.63000141637167 19.314327801112086,212.9610735399765 22.988910706946626,211.55844301753677 29.642885158071294,212.66885914839804 33.913346372777596,215.3572255797335 36.24720308301039,220.67547623312566 36.34651613468304,224.24042809329694 34.55888120736927,229.44170904619386 30.48704609577544,233.53256895235972 30.238763467175886,238.32467968267156 20.406771367648616,238.32467968267156 19.860549584496766,233.35724702116568 15.88802752410993,229.9676784859039 14.150049122748896,226.75341279135318 13.8521099681966,220.55859216680983 16.43424930726178,215.82476620055968 19.46329737850465,213.01951639918843 21.69784103729762,212.14287284499733 27.30902844737284,211.85065801045857 32.96987238316797,214.01304403849645 36.14789003157057,220.09105564816855 36.29685960896313,224.47419460536912 34.26094205281697,229.9676784859039 30.48704609577544,233.29880636470625 30.238763467175886,238.14935930841602 20.456427893601358,238.5 19.810893058544025,233.2403657019604 15.639744895510375,229.61703224980738 14.150049122748896,226.81185415684013 13.554170813644305,220.73391825694125 16.3845927817747,215.82476620055968 19.363984326831996,213.01951639918843 21.896467140410095,211.96754396316828 25.670363097684458,211.61688602878712 31.678802713751793,212.9026306743035 33.96300289849751,214.94812720449409 36.29685960896313,221.72743169078603 36.19754655752331,225.8183500849409" stroke="#4dd2ff" stroke-dasharray="none" stroke-linecap="round" stroke-linejoin="round" stroke-width="0.5"><title>2020-04-08 10.0km</title><desc>1586343893000</desc></polyline><polyline fill="none" opacity="1" points="71.48782921442762,230.31832449429203 67.81324710464105,233.53256895247614 67.61462104436941,238.44155990047147 57.98125713504851,238.26623956422554 57.58400501520373,233.53256895247614 53.06526215048507,229.26638578565326 51.22797109559178,224.88328575814376 51.52591018564999,220.03261355502764 53.710796845611185,215.70788108336274 56.83915729029104,212.96107353986008 58.974387435242534,212.20131579291774 65.47939089988358,212.0844298907905 70.09744679462165,214.36370041576447 73.62305935914628,220.8508022854803 73.1264942092821,227.10406088869786 70.99126406456344,230.8442930795718 67.81324710464105,233.59100958361523 67.81324710464105,238.32467968278797 58.08057016530074,238.44155990047147 57.48469198541716,233.53256895247614 52.61835351539776,228.62353334313957 51.02934503578581,222.7793850976741 52.32041442557238,217.9871363011771 56.73984426027164,212.78574492404005 62.4006869699806,211.5 69.10431649442762,213.54550184804248 71.28920315415598,215.76632364524994 73.82168541918509,221.78587360068923 73.0271811792627,227.10406088869786 70.64366845949553,231.0780567305046 68.01187316467986,233.47412831510883 67.71393407485448,238.32467968278797 57.88194410526194,238.38311979477294 57.385378955164924,233.41568767128047 52.81697957566939,229.44170904625207 51.07900155056268,224.4157529870863 51.8238492757082,219.2144235840533 56.88881380530074,212.72730203950778 62.4006869699806,211.67532903369283 69.25328603968956,213.2532877730555 72.0340508793015,217.11050081829308 73.92099844920449,222.25340865069302 73.97065496398136,224.94172732619336 72.67958557442762,228.50665099860635 67.86290361965075,233.41568767128047 67.86290361965075,238.32467968278797 58.229539710329846,238.5 57.335722440388054,233.76633143879008 52.81697957566939,229.3248268790776 51.12865806580521,225.23393507068977 51.277627610834315,220.38326602004236 53.56182730058208,216.2923064160277 57.385378955164924,212.78574492404005 61.60618273005821,211.79221502452856 64.98282574978657,212.0259869301808 70.14710330939852,214.188372255594 72.9278681492433,219.0975392012042 73.57340284436941,225.7014671327779 72.23267693934031,229.3248268790776" stroke="#4dd2ff" stroke-dasharray="none" stroke-linecap="round" stroke-linejoin="round" stroke-width="0.5"><title>2020-04-07 10.0km</title><desc>1586257895000</desc></polyline><polyline fill="none" opacity="1" points="108.24298148904927,230.8442930795718 105.46221664943732,233.29880636493908 105.5118731642142,238.14935930859065 95.72953970986418,238.44155990047147 94.83572243992239,233.53256895247614 90.26732306042686,228.91573909379076 88.87694064062089,225.23393507068977 89.22453624545597,219.85728723701322 91.50873593520373,215.59099594090367 96.97095258487388,212.0844298907905 101.73797802464105,211.79221502452856 107.69675982417539,214.01304403861286 110.72580723906867,220.9676862883498 110.12992905918509,227.8053563994472 107.89538588398136,231.42870201729238 105.5118731642142,233.41568767128047 105.21393407415599,238.03247902728617 95.87850925489329,238.5 95.1336615299806,233.76633143879008 91.11148381535895,230.37676547351293 89.12522321543656,226.11055735487025 89.22453624545597,219.85728723701322 91.11148381535895,216.17542140028672 94.83572243992239,212.72730203950778 98.60961757972836,211.5584430177114 102.28419968951494,211.67532903369283 108.19332497403957,215.0650124863605 110.57683769403957,219.38975011080038 110.72580723906867,226.28588164091343 108.4416075493209,230.49364741303725 105.31324710440822,233.47412831510883 105.21393407415599,238.09091917105252 95.82885273988359,238.38311979477294 95.08400501520373,233.53256895247614 90.56526215048507,229.55859118833905 88.92659715539776,225.52614265697775 89.02591018541716,220.73391825705767 91.45907942019403,215.76632364524994 95.3322875900194,212.376644598844 101.53935196460225,211.5 107.49813376413658,214.48058582423255 109.98095951392315,217.63648227899102 110.87477678386495,220.61703420319827 111.12305935914628,224.707961016451 110.32855511899106,227.6300326071796 108.19332497403957,230.96117491775658 105.31324710440822,233.47412831510883 105.26359058939852,238.2077994395513 95.92816577013582,238.38311979477294 95.1336615299806,233.94165323727066 90.71423169528134,229.55859118833905 88.87694064062089,225.17549353436334 89.17487973044626,219.97417145548388 91.21079684514552,215.9416512925527 94.1405312300194,213.13640209886944 96.87163955508731,212.0844298907905 103.12836044444703,211.85065801051678 106.45534694916569,212.9026306743035 109.13679875875823,216.35074891458498 110.92443329887465,220.38326602004236 110.82512026885524,226.9287368687219" stroke="#4dd2ff" stroke-dasharray="none" stroke-linecap="round" stroke-linejoin="round" stroke-width="0.5"><title>2020-04-02 10.0km</title><desc>1585825459000</desc></polyline><polyline fill="none" opacity="1" points="148.23219845700078,220.77053989632986 148.5275800661184,225.63750902574975 146.90298121678643,229.80916160705965 142.7676386923995,233.517269923992 142.6199478879571,238.5 132.97081532981247,238.38412308343686 132.5277429164853,233.63314789469587 128.93393334164284,230.79413038567873 127.063183151884,227.89715821220307 126.27549886144698,221.34994330530753 128.78624253696762,215.96146738063544 135.08771686046384,211.9635308107827 140.05997394397855,212.13735476136208 143.85070459148847,213.41206200537272 146.1152969263494,215.55588097468717 148.23219845700078,220.65465913934167 148.6260406023357,224.94223043258535 146.55836933967657,230.09885849471902 142.9645597646013,233.4593309291522 142.7676386923995,238.44206154474523 132.92158506205305,238.21030766161857 132.5277429164853,233.80696480360348 127.75240690587088,229.05594896426192 126.27549886144698,222.85638923133956 127.55548583343625,217.8735134380404 132.38005211227573,213.06441487639677 137.2046183908824,211.78970680385828 144.14608620060608,213.64382663258584 147.7891260436736,218.80056361178868 148.7245011383202,224.42077089485247 147.59220497100614,228.65037248661974 142.7676386923995,233.63314789469587 142.71840842394158,238.38412308343686 133.06927586649545,238.38412308343686 132.23236130783334,233.517269923992 128.93393334164284,230.6782517999527 126.8170318112243,227.5495204970939 126.27549886144698,221.98728633020073 128.98316360986792,215.96146738063544 134.74310498358682,211.5 139.4199804579839,212.0214721338707 145.62299424479716,215.49794003425632 148.47834979766048,220.71259952092078 148.67527087032795,225.11605016584508 146.21375746279955,230.6782517999527 142.91532949684188,233.4593309291522 142.5707176194992,238.32618461578386 133.1185061344877,238.44206154474523 132.38005211227573,233.4013919281424 128.93393334164284,230.7361910958425 127.16164368833415,228.18685613555135 126.32472912967205,221.92934608651558 128.49086092831567,216.59881682589184 132.62620345293544,212.60088501975406 136.22001302801073,211.78970680385828 141.29073064750992,212.60088501975406 143.75224405527115,213.35412083298434 145.77068504923955,215.55588097468717 148.47834979766048,220.94436098495498" stroke="#4dd2ff" stroke-dasharray="none" stroke-linecap="round" stroke-linejoin="round" stroke-width="0.5"><title>2020-03-23 10.0km</title><desc>1584960411000</desc></polyline><polyline fill="none" opacity="1" points="171.70157131901942,211.5 176.4769083643332,211.61588274029782 181.54762708232738,213.23823846923187 183.41837767744437,214.9764712897013 185.87989161815494,220.1911358598154 186.07681273343042,224.3628309147898 184.20606213854626,229.75122221041238 180.2184095545672,233.2855139070889 179.67687648744322,238.15236917504808 170.42158406972885,238.5 169.6338996088598,233.57520891237073 166.2862406494096,230.62031249742722 164.16933866031468,226.62248548562638 163.82472670869902,220.71259952086257 166.1385498130694,216.30911262659356 171.4554199250415,211.55794137332123 177.7076653346885,211.78970680374186 182.28608126472682,213.7597089082701 185.43681910890155,218.91644477046793 186.07681273343042,224.76841064321343 184.20606213854626,229.75122221041238 180.1691792756319,233.63314789469587 180.02148843905888,238.21030766161857 170.32312351232395,238.32618461566744 169.68312988779508,233.4593309290358 166.33547092834488,230.272676552122 164.07087810267694,226.62248548562638 163.87395698740147,220.88642062840518 165.94162869779393,216.13529003184522 172.39079522248358,211.5 180.07071871799417,212.36911994067486 183.46760795614682,214.9764712897013 185.486049387604,218.91644477046793 186.07681273343042,224.53665083582746 184.35375297488645,229.51946456206497 180.2184095545672,233.63314789469587 180.07071871799417,238.26824614178622 170.32312351232395,238.44206154491985 169.6338996088598,233.2855139070889 165.94162869779393,229.92504038079642 164.26779921795242,226.97012380324304 163.92318726633675,220.13319542171666 166.18778009177186,216.01940827060025 171.50465020374395,211.90558948140824 176.9199808735866,211.90558948140824 181.9414693126455,213.58588548522675 183.51683823484927,214.86058927717386 185.83066133921966,220.3649571367423 186.17527329106815,224.82635057909647 183.9599107443355,229.92504038079642 180.2184095545672,233.69108687044354 180.02148843905888,238.26824614178622 170.27389323338866,238.26824614178622 169.6338996088598,233.4013919280842" stroke="#4dd2ff" stroke-dasharray="none" stroke-linecap="round" stroke-linejoin="round" stroke-width="0.5"><title>2019-12-13 10.0km</title><desc>1576239112000</desc></polyline><polyline fill="none" opacity="1" points="38.5,267.62245219995384 37.58262548246421,267.9658997533261 26.92857142840512,267.8432399725134 22.80038610030897,268.3584106057242 20.381853281753138,268.0885594676947 19.79806949791964,263.50104097204166 19.33938223926816,242.770187330927 11.5,241.64158939429035" stroke="#4dd2ff" stroke-dasharray="none" stroke-linecap="round" stroke-linejoin="round" stroke-width="0.5"><title>2019-11-23 10.0km</title><desc>1574497580000</desc></polyline></svg>