<?xml version="1.0" encoding="utf-8" ?>
<svg baseProfile="full" height="300mm" version="1.1" viewBox="0,0,200,300" width="200mm" xmlns="http://www.w3.org/2000/svg" xmlns:ev="http://www.w3.org/2001/xml-events" xmlns:xlink="http://www.w3.org/1999/xlink"><defs /><rect fill="#222222" height="300" width="200" x="0" y="0" /><text fill="#FFFFFF" style="font-size:12px; font-family:Arial; font-weight:bold;" x="10" y="20">Over 10km Runs</text><text fill="#FFFFFF" style="font-size:4px; font-family:Arial" x="10" y="280">Runner</text><text fill="#FFFFFF" style="font-size:9px; font-family:Arial" x="10" y="290">Floyd Li</text><text fill="#FFFFFF" style="font-size:4px; font-family:Arial" x="65" y="280">SPECIAL TRACKS</text><rect fill="yellow" height="2.6" width="2.6" x="65" y="283" /><text fill="#FFFFFF" style="font-size:3px; font-family:Arial" x="70" y="285.5">Over 20.0 km</text><rect fill="red" height="2.6" width="2.6" x="65" y="287" /><text fill="#FFFFFF" style="font-size:3px; font-family:Arial" x="70" y="289.5">Over 40.0 km</text><text fill="#FFFFFF" style="font-size:4px; font-family:Arial" x="120" y="280">STATISTICS</text><text fill="#FFFFFF" style="font-size:3px; font-family:Arial" x="120" y="285">Number: 25</text><text fill="#FFFFFF" style="font-size:3px; font-family:Arial" x="120" y="290">Weekly: 1.7</text><text fill="#FFFFFF" style="font-size:3px; font-family:Arial" x="141" y="285">Total: 312.2 km</text><text fill="#FFFFFF" style="font-size:3px; font-family:Arial" x="141" y="290">Avg: 12.5 km</text><text fill="#FFFFFF" style="font-size:3px; font-family:Arial" x="167" y="285">Min: 10.0 km</text><text fill="#FFFFFF" style="font-size:3px; font-family:Arial" x="167" y="290">Max: 35.3 km</text><polyline fill="none" points="41.712824191432446,31.80000000000291 41.4844235322671,32.4617014573887 39.657218258827925,32.97865412493411 37.65432017063722,34.32272450898017 38.1813986148336,37.48642205972283 37.67188945208909,38.954525335357175 36.17850052675931,40.484649128309684 35.87982274167007,42.32491690540337 32.61193638731493,42.407625152976834 32.242981476243585,40.650067182214116 31.048270335944835,39.55416990471713 30.134667699225247,37.58980998388142 30.20494482520735,36.30779576682835 30.92528536566533,34.612215353088686 31.99701153562637,33.59899547815439 33.57824686833192,32.97865412493411 35.00135866791243,32.999332202540245 36.12579268228728,33.47492736874847 37.23265741521027,34.384758298270754 37.8651515484089,35.460007442496135 38.12869077047799,36.8660933389765 37.95299795572646,38.23081386399281 37.109672444930766,39.67823406323441 36.16093124530744,40.484649128309684 35.985238430439495,41.291060787116294 36.283916215528734,49.975278187921504 40.11401957721682,51.836130528958165 41.88851700612577,51.89815862796968 42.22233335423516,52.22897481590917 42.53858042077627,62.463317495639785 42.2574719171389,63.22828673537879 39.30583262932487,63.82785507853259 35.03649723081617,64.15865060008946 27.815522544493433,63.82785507853259 20.38371648051543,62.794115380733274 14.006067304988392,62.959514108413714 13.76009736431297,62.546017020591535 13.46141957922373,55.53710517223226 13.76009736431297,52.745873962077894 28.58857092942344,52.27032679904369 32.541659261332825,50.07865934931033 32.36596644652309,40.918871214045794 30.415776202862617,38.561653734213905 30.117098417831585,36.99015924440755 30.24008338811109,35.95627423556289 31.17125530622434,34.26069069956429 32.242981476243585,33.41289328386483 33.38498477212852,32.97865412493411 35.1419129196438,33.06136642183992 37.07453388196882,34.13662302029843 38.09355220751604,36.1630516853038 37.95299795572646,38.272168879106175 37.267795978230424,39.574847270094324 36.231208371173125,40.46397186152171 36.00280771200778,41.18767486742581 36.213639089721255,49.64445809533936 36.44203974882839,50.057983121529105 39.797772510617506,51.75342636555433 42.23990263562882,52.16694682430534 42.39802616892848,63.083563060179586 39.58694113296224,63.80718033942685 32.980891298211645,64.17932530114194 28.237185299920384,63.86920455010841 21.104057020915207,62.8147902295168 14.129052275326103,62.91816443990683 13.812805208726786,62.64939137651527 13.4789888606756,55.08224064669048 13.672250956937205,52.745873962077894 28.079061766620725,52.31167877327243 29.713004943798296,51.856806564173894 32.57679782429477,50.03730689144868 32.33082788361935,40.960225646878826 30.626607580517884,39.0785898835602 30.134667699225247,36.493895138948574 30.64417686202796,34.96373935925658 31.768610876519233,33.72306350689905 32.91061417228775,33.12340062097064 34.07018674968276,32.957976045116084 36.512316874810494,33.70238550766953 37.91785939282272,35.52204086218262 38.00570580014028,38.06539371389954 37.37321166694164,39.36807351575408 36.090654119325336,40.670744428847684 36.00280771200778,41.27038360766892 36.19606980821118,49.789191956369905 39.657218258827925,51.67072216638189 42.187194791273214,52.08424280422332 42.53858042077627,61.53294537153852 42.34531832457287,63.124912692801445 39.28826334781479,63.84852981545555 33.36741549067665,64.19999999999709 28.816971588530578,63.93122874062101 21.47301193192834,62.835465076044784 13.76009736431297,62.87681476245052 13.549265986541286,52.80790176555456 28.92238727741642,52.22897481590917 32.36596644652309,50.24406909114623 32.62950566870859,49.89257321850164 32.647074950218666,48.38320123392623 32.383535728033166,41.37376948261226 32.20784291328164,40.73277615540428 30.80230039532762,39.32671873809886 30.257652669562958,38.23081386399281 30.134667699225247,36.5559282227332 30.363068358390592,35.58407426174381 31.241532432148233,34.17797892232193 33.27956908324268,33.040688350985874 35.00135866791243,33.040688350985874 36.79342537833145,33.847131454997 37.90029011131264,35.52204086218262 38.12869077047799,37.610487562036724 37.49619663733756,39.2853639513487 36.090654119325336,40.6293899332959 36.03794627491152,42.18017738588969 35.7919763342361,42.36627103369392 32.48895141691901,42.26288569615281 32.29568932071561,40.79480786174827 30.66174614347983,39.03723504309892 30.24008338811109,37.9413285072369 30.152236980735324,36.5559282227332 30.53876117314212,35.27390706242295 31.557779498689342,33.8678094384959 32.945752735307906,33.12340062097064 35.44059070473304,33.144078682904365 37.51376591878943,34.50882581631595 39.90318819944514,33.06136642183992 41.08033005829202,32.73051701919758" stroke="yellow" stroke-linecap="round" stroke-linejoin="round" stroke-width="0.5"><title>2026-05-17 22.3km</title><desc>1779013233000</desc></polyline><polyline fill="none" points="71.77444355483749,36.34487628057832 74.74725380304153,36.37536345290937 74.94440352279344,37.100953306602605 75.45284227380762,37.954576516363886 76.17918334668502,38.73502075348733 76.97815852682106,39.22279293573956 77.35170536427177,39.582522226366564 77.771945556422,40.503174910892994 77.7823218574631,40.85679911302941 77.33095276221866,42.2103058173052 77.13899119294365,43.338203344799695 77.13380304243765,44.307567584237404 77.26869495594292,45.679281065000396 77.18049639713718,46.47790782546508 76.35039231384872,48.51405026297289 76.04429143315065,49.92223767356336 75.26088070456171,51.85462832291887 75.10004803843913,52.000926506720134 74.09354683748097,52.007022256188066 72.47484387506847,52.573924087162595 71.9819695756596,52.537349946775066 71.15705364290625,52.23256452470741 70.8924579663726,52.464201595088525 70.3477021617291,53.54313020005429 69.75625300238607,54.15268529564128 66.68486789430608,50.76957166110515 64.47990392314387,50.409913459952804 64.16342674137559,50.269707101597305 64.01815852680011,50.08073276490177 64.03372297837632,49.202908220981044 63.935148118500365,49.129755561280035 62.648486789432354,49.050506739949924 58.881889511598274,49.15413979168443 58.60691753402352,49.032218534648564 57.99990392313339,48.53233863566493 56.97265012009302,48.22143549658358 56.692489991983166,47.89224207652296 56.235932746203616,46.73395371454899 56.012842273834394,45.40494102815137 54.7624979983957,44.94160816905787 53.62110488390317,45.03305574427577 51.06853482784936,45.61222028989141 48.49002401920734,45.264722273634106 48.34475580463186,45.343976394950005 48.21505204163259,45.58783453378055 47.820752602099674,46.868072527584445 47.8726341072761,47.10582782429992 48.88951160930446,48.55672312337265 51.83638110489119,49.129755561280035 52.739119295438286,49.87956584239146 52.920704563643085,50.57450308977786 53.45508406724548,51.84853255706548 53.57441152923275,52.689742042592115 54.279999999998836,55.67654432944619 54.316317053628154,56.21902824834979 54.83513210568344,58.86432482020973 55.22943154524546,59.54696194476492 55.61335468373727,59.784664012346184 57.26837469977909,60.357582844866556 59.01159327462665,61.472929482595646 60.697742193733575,61.570445084533276 61.382578062446555,62.106777894667175 61.922145716584055,62.161629827656725 62.793755004007835,62.56997032612708 65.84957566051162,62.93564588630397 66.04153722975752,62.78937594546369 66.14530024019768,62.545591871508805 66.49290632506018,61.338845255795604 66.67449159326497,59.778569099999004 66.62261008805945,59.55915181864839 66.32169735789648,59.351923605823686 66.30094475581427,59.25440418450671 66.50328262610128,58.6997592826483 66.64855084064766,58.53519326695459 66.65373899118276,57.64530949116306 67.04285028020968,56.475030090732616 67.74325060046976,55.560732482652384 69.19593274619547,54.60984731141434 70.25950360289426,53.6711373144135 70.93396317053703,52.39714885637659 71.17780624498846,52.220373073712835 71.53578863089206,52.348383178356016 71.20374699760578,52.21427734722238 70.91839871896082,52.40934026932155 70.35289031226421,53.53093903121044 69.73031224979786,54.1343987382279 66.73674939951161,50.80005106467797 64.22049639714533,50.30018677425687 64.02334667733521,50.06244489238088 63.98184147319989,49.13585161987794 63.525284227362135,49.04441067216976 58.830008006392745,49.14194767781373 58.04140912726871,48.544530880819366 56.98821457166923,48.22143549658358 56.65617293835385,47.837376320403564 56.2048038430803,46.648605213526025 56.04397117692861,45.4415197765411 54.78325060047791,44.935511658775795 54.456397117697634,44.90502909760107 53.24236989588826,45.08792421850376 51.01146517213783,45.60002741315475 48.4173899119196,45.27081874844225 48.25655724579701,45.47809850131671 47.79999999998836,46.95342069770413 48.86875900719315,48.5628192436634 51.867510008014506,49.15413979168443 52.72874299439718,49.86127790491082 52.88438750998466,50.48306446560673 53.46027221775148,51.921681704076036 53.538094475574326,52.59221114850152 54.259247397916624,55.572923214520415 54.81437950360123,58.80946969417346 54.91814251401229,59.120314706044155 55.281313050421886,59.57743662456414 55.63929543635459,59.778569099999004 57.25281024820288,60.36367769490971 59.01678142513265,61.46074002052774 59.34882305844803,61.53387675345948 60.70811849477468,61.55825564347833 61.39295436348766,62.1128725564995 61.79763010406168,62.11896721769881 62.90270616492489,62.60653798835483 65.61092073659529,62.94783503098006 65.90664531625225,62.911267589042836 66.06747798237484,62.77109217632824 66.26462770215585,62.25914424407165 66.5344115292246,61.08896016806466 66.68486789430608,59.821233472659515 66.63817453963566,59.55915181864839 66.3632025620318,59.38239839056769 66.32169735789648,59.26659412135268 66.45658927140175,58.77899460116896 66.66411529222387,58.48033782214043 66.64855084064766,57.63311920538763 67.04285028020968,56.475030090732616 67.52016012810054,55.78016525478233 69.35676541231805,54.50012876421897 69.9897197757964,53.95153283946638 70.337325860688,53.5736081106661 70.91321056845482,52.44591449240761 71.14667734186514,52.23256452470741 71.9871577261656,52.543445638471894 72.516349079262,52.58001977494132 74.01572457965813,52.03750099362151 75.19862289831508,52.03750099362151 75.44246597276651,51.946064732092054 75.587734187342,51.769287541130325 75.69149719775305,51.23285682452115 76.18955964769702,50.038061053193815 76.44896717375377,48.5689153632884 77.16493194553186,46.88026513119985 77.32576461168355,46.27672810014701 77.4139631705475,45.398844567778724 77.35689351480687,43.240656338453846 77.70968775020447,41.667687647499406 78.06767013610806,40.78363566628468 80.20000000001164,36.84486383249168 79.90946357086068,36.7046238674011 79.90427542032558,36.44243517423092 79.42696557246381,36.11927069473677 79.4010248198465,34.43024894717746 79.20387510009459,34.41805366096378 79.09492393914843,34.26561236142152 78.21812650118954,34.27171002129762 78.16624499598402,33.23509840283441 78.00022417935543,33.05216496902358 77.80307445957442,33.07655612771123" stroke="yellow" stroke-linecap="round" stroke-linejoin="round" stroke-width="0.5"><title>2026-05-16 35.3km</title><desc>1778887035000</desc></polyline><polyline fill="none" points="116.19999999998254,49.522776632038585 116.1678889990144,49.58217123671784 115.92935013448005,49.58217123671784 114.66784652412753,49.50117857644 113.41093019963591,49.23120209139597 113.3283590542269,44.9923794893657 98.20866487326566,45.418977957651805 97.2682712727983,45.41357799986508 97.04808155173669,45.33257856286582 96.76366982868058,45.57017653796356 96.86000283161411,46.00756984713007 96.76825711451238,46.342362131188565 96.75449525695876,47.011939950032684 95.14435792155564,48.97202328955973 94.85077162677771,49.949336312176456 87.10284581623273,49.916939502578316 83.79999999998836,50.21930890639851 83.85046014437103,50.3920905990999 87.7129548350349,50.10052114513746 96.04805323516484,50.084322792121384 104.86940393599798,49.44718339644169 106.66761999146547,49.42018578451098 109.74110151492641,49.08001462082393 111.93382415405358,49.285197505414544 115.95687384961639,49.814349466549174 116.00274670819636,51.00762051063066" stroke="#4DD2FF" stroke-linecap="round" stroke-linejoin="round" stroke-width="0.5"><title>2026-05-12 15.2km</title><desc>1778590468000</desc></polyline><polyline fill="none" points="149.52157784369774,31.79999999998836 149.48672841623193,32.68184554454638 147.25636506057344,33.50216329362593 145.56616783014033,34.732633252846426 146.01921038673026,36.96796655206708 145.86238796327962,38.36247304074641 145.37449597928207,39.40834616700886 143.99794359575026,40.905370196851436 143.78884703107178,42.46390318649355 140.46072671131697,42.52542396233184 140.2342054329929,41.02841274139064 138.613707057375,39.14175160502782 138.09096564596985,37.35760910499084 138.3174869242357,35.77852643048391 139.2235720374738,34.36349310478545 141.38423653825885,33.276576266944176 143.1441326236236,33.33810002813698 144.25931430142373,33.76876579673262 145.58359254390234,35.368372931785416 146.01921038673026,36.762891202190076 145.827538535872,38.48551723781566 143.96309416834265,41.00790565618081 144.1721907327883,49.96929031479522 147.55258519382915,51.81483174521418 149.7132496946142,52.01989079399209 150.14886753750034,52.409502374750446 150.4102382431738,62.23155057046097 150.28826524718897,63.010730915906606 149.59127669857116,63.4618338613509 145.04342641867697,64.09747709722433 141.03574226394994,64.19999999999709 136.59244026633678,63.933440337350476 128.85586737643462,62.867197935222066 121.93825603107689,62.805683767364826 121.58976175676798,56.08001423564565 121.76400889398064,52.88113637370407 136.40076841547852,52.347984809966874 137.88186908134958,51.773819908863516 140.49557613878278,50.17435136192944 140.33875371533213,41.50007508804265 140.12965715071186,40.82334178939345 139.18872261000797,39.98254856400308 138.35233635170152,38.670083383491146 138.05611621856224,37.09101165540051 138.50915877509397,35.38888062784099 140.11223243700806,33.70724217548559 141.27968825597782,33.297084189543966 142.5342676435248,33.256068342132494 144.57295914832503,34.07638360314013 145.89723739074543,36.16817143121443 145.94951153197326,37.99333996976202 145.37449597928207,39.449360681697726 143.98051888193004,40.88486309828295 143.8411211722414,42.50491703923035 140.5478502798942,42.586944718219456 140.16450657817768,40.84384889455396 138.80537890829146,39.5313896844018 138.09096564596985,37.68572852748912 138.2652127831243,36.02461810319801 139.08417432778515,34.56857105366362 140.98346812278032,33.37911585782422 143.35322918824386,33.42013167866389 144.4858355797478,34.01486008183565 145.21767355577322,34.7736487803777 146.05405981413787,36.92695149985957 145.56616783014033,39.10073702373484 144.01536830939585,40.8028346819483 143.806271744892,42.44339625669818 140.5478502798942,42.56643780178274 140.19935600552708,40.946384387192666 138.84022833575727,39.57240417237335 138.16066450072685,37.99333996976202 138.23036335565848,36.188679040642455 138.9447766180383,34.671109944814816 140.5826997073018,33.52267119179305 142.67366535327164,33.276576266944176 144.64265800319845,34.15841493374319 145.4441948341555,35.16329584927007 145.98436095938087,36.47578533907654 145.89723739074543,38.28044353163568 145.26994769694284,39.55189692949352 143.99794359575026,40.987398568729986 143.8585458860034,42.46390318649355 140.63497384852963,42.60745163241518 140.2690548604587,41.00790565618081 138.89250247686869,39.55189692949352 138.12581507337745,37.68572852748912 138.40461049275473,35.61446513762348 139.39781917462824,34.21993840839423 141.48878482053988,33.256068342132494 143.38807861559326,33.42013167866389 144.71235685807187,34.21993840839423 145.98436095938087,36.39375501257018 145.93208681821125,38.07536960329162 145.16539941472,39.69544758317352 143.99794359575026,40.84384889455396 143.92824474081863,42.42288932473457 140.6001244210056,42.60745163241518 140.12965715071186,40.8028346819483 139.04932490031933,39.81849091402546 138.2477880693623,38.36247304074641 138.09096564596985,36.72187610549736 138.71825533971423,34.7736487803777 138.80537890829146,34.978726285044104 139.50236745690927,34.15841493374319 140.63497384852963,33.50216329362593 143.09185848245397,33.35860794405744 144.7646309992415,34.1789227607951 145.39192069292767,34.978726285044104 146.01921038673026,36.70136855384044 145.98436095938087,37.76775829437247 145.4616195478011,39.264795295661315 143.94566945458064,40.946384387192666 143.8411211722414,42.46390318649355 140.65239856217522,42.60745163241518 140.19935600552708,40.966891479096375 138.544008202618,39.080229729719576 138.09096564596985,37.726743415390956 138.40461049275473,35.51192675737548 139.34554503351683,34.281461862963624" stroke="#4DD2FF" stroke-linecap="round" stroke-linejoin="round" stroke-width="0.5"><title>2026-05-11 15.3km</title><desc>1778503630000</desc></polyline><polyline fill="none" points="188.20000000018626,32.93640127306571 186.08595744683407,34.07228908778052 185.81021276605316,36.77677348451107 181.03063829778694,38.291278348478954 175.42382978717797,42.02343144125189 176.48085106397048,46.24235352233518 176.48085106397048,50.948032254353166 175.2859574467875,54.13921443806612 171.51744680851698,58.14168529762537 170.8740425533615,62.793165182403754 162.00425531924702,62.63090498553356 161.59063829807565,58.73664444347378 156.7651063830126,53.11154782536323 156.02978723403066,46.51279602973955 157.04085106402636,43.7001867928775 159.24680851073936,40.995739894220605 163.33702127658762,38.66990384660312 168.07063829805702,38.39945709137828 173.26382978726178,40.8875617137528 176.20510638318956,45.32284790131962 176.66468085115775,49.866270953876665 175.37787234061398,53.76060066893115 171.24170212773606,58.62847010602127 170.73617021273822,62.73907845601207 162.09617021284066,62.73907845601207 161.45276595745236,58.5743829284329 158.60340425558388,55.76184162579011 156.44340425543487,52.246142721909564 155.89191489387304,47.54047622240614 156.39744680863805,45.214670658140676 159.29276595753618,40.833472614729544 164.89957446814515,38.291278348478954 170.09276595758274,38.940350455319276 175.46978723420762,43.05112087298767 176.57276595756412,47.16185745000257 176.5268085107673,50.51532801534631 174.4127659574151,55.275054023077246 171.37957446812652,58.24985974052106 171.01191489375196,62.63090498553356 162.50978723424487,63.00951202964643 161.45276595745236,58.46620855599758 158.83319148956798,56.086366430768976 156.21361702145077,51.921615421335446 155.98382978746668,46.89141529411427 157.3165957450401,43.32156510889763 160.90127659589052,39.69760018031229 163.4289361704141,38.61581450724043 167.1974468084518,38.291278348478954 171.42553191492334,39.53533247867017 173.3097872340586,40.94165080678067 176.38893617037684,45.91782232001424 176.7565957447514,48.89268377964618 175.92936170194298,52.949284482747316 171.51744680851698,57.97942358921864 171.24170212773606,62.36047120692092 162.5557446810417,63.063598726905184 161.40680851065554,58.52029574505286 157.17872340441681,53.92286374795367 155.80000000004657,49.00086022625328 156.58127659582533,44.673784090759 159.15489361714572,40.77938350965269 165.03744680876844,38.23718896805076 170.18468085117638,38.994439759408124 173.9531914894469,41.536630445800256 175.79148936178535,44.349251868989086 176.71063829795457,47.9190947075258 175.5157446807716,53.76060066893115 171.28765957453288,58.4121213608305 171.01191489375196,62.68499172362499 162.50978723424487,63.00951202964643 161.49872340424918,58.73664444347378 157.04085106402636,53.76060066893115 155.89191489387304,50.51532801534631 156.67319148941897,44.6196954017214 159.06297872355208,41.158007121266564 164.11829787259921,38.39945709137828 169.17361702141352,38.66990384660312 173.677446808666,41.320274295518175 176.6187234041281,46.458707540034084 175.92936170194298,52.570669811422704 174.182978723431,55.59957914438564 171.37957446812652,58.35803415995906 171.01191489375196,62.63090498553356 162.3719148938544,62.955425326683326 161.49872340424918,58.62847010602127 158.41957446816377,55.653666643978795 156.2595744682476,51.8675275175483 155.93787234043702,46.78323839069344 157.5923404255882,42.78067649071454 159.9821276597213,40.18440296850167 162.78553191502579,38.723993180086836 167.1974468084518,38.291278348478954 171.51744680851698,39.481243233109126 175.60765957459807,43.7542755814211 176.66468085115775,46.67506146384403 176.43489361694083,51.21847221336793 174.73446808499284,55.058703825081466 171.37957446812652,58.4121213608305 171.37957446812652,62.035950479184976 170.6442553193774,62.793165182403754 162.00425531924702,62.63090498553356 161.26893617026508,58.35803415995906 157.73021276621148,54.89644111506641 156.2595744682476,51.97570331938914 155.80000000004657,48.730419066152535 156.67319148941897,44.349251868989086 160.07404255354777,40.23849213786889 163.704680851195,38.561725161998766 169.26553191500716,38.723993180086836 172.48255319171585,40.23849213786889 174.68851063842885,42.34796517438372 183.23659574473277,37.58811594717554" stroke="#4DD2FF" stroke-linecap="round" stroke-linejoin="round" stroke-width="0.5"><title>2026-05-10 11.2km</title><desc>1778422578000</desc></polyline><polyline fill="none" points="32.68887006177101,91.43192892016668 30.554248282685876,88.74791168465163 30.207600301480852,87.56693258901942 30.408291237894446,85.46262512763496 31.375256659230217,83.93806189052702 33.03551804297604,82.95031043546624 34.951204254990444,82.80000000000291 37.085826034191996,83.76627938229649 38.25348239205778,85.48409776558401 38.47241795912851,86.64361675929104 38.19874850020278,88.40435485517082 37.39598475431558,89.800050771315 36.283062288188376,90.80924015880737 36.483753224718384,100.23525041079847 39.968477667542174,102.14616368760471 42.72341688675806,102.68293376687507 43.015330976224504,113.80448286360479 42.39501353609376,114.36269089662528 41.00842161127366,114.62032484344672 34.403865337371826,115.19999999999709 28.45611576468218,114.89942790809437 21.19475278945174,113.82595243238029 13.148870698874816,113.71860456527793 12.948179762461223,103.4558801282401 16.232213268755004,103.06940732423391 28.182446305756457,102.83322912866424 29.642016753088683,102.4038135069859 32.76184858416673,100.51437372335931 32.70711469242815,92.8490753625083 36.15534987405408,92.72024428630539 36.52024248579983,100.38554762797139 39.8590098839486,102.12469285426778 42.72341688675806,102.70440453985066 43.05182023742236,112.98863752748002 42.81464003981091,114.12652615133265 39.49411727220286,114.85648900063825 33.56461233017035,115.19999999999709 28.8574976377422,114.94236680628092 21.34070983424317,113.84742199885659 13.185359960072674,113.69713498484634 12.966424393001944,103.34852664718346 28.182446305756457,102.85469988537079 29.769729167222977,102.36087189373211 32.72535932296887,100.47143170084746 32.542913017096,91.81842440910987" stroke="#4DD2FF" stroke-linecap="round" stroke-linejoin="round" stroke-width="0.5"><title>2026-05-10 11.3km</title><desc>1778397813000</desc></polyline><polyline fill="none" points="63.731314670993015,82.80000000000109 67.53579801505839,86.63137922745773 67.82088197916164,86.73227586842404 67.86377071711468,86.86284744156728 67.83097344692214,87.11805372325762 68.04037140286528,87.32874549366716 68.06307720531186,87.53350073540969 66.87228401008178,87.7085800933437 66.17597273491265,87.59581724502459 65.87827443610877,87.58691489516241 61.42793715564767,87.57801254242258 60.69630574333132,87.54537055766923 60.21191529103089,87.55427292099557 60.10595487958926,87.59284979538643 60.08324907714268,90.60167902445573 59.98485726652143,90.88652151389579 60.01513166978839,92.62518349334823 59.959628597134724,100.25797246358889 59.99242586734181,102.79682145365405 59.936922794688144,113.19001505105916 59.9621514640603,114.31064423307726 60.10343201264914,114.40551021727697 62.98959179090161,114.43812032383357 63.03752626274945,114.48258858868758 63.042571996629704,114.55966674427509 62.93408871824795,115.20000000000073 63.05770919825591,114.57448944175303 62.99968325867667,113.67325492337113 63.02995766194363,113.22559128191278 63.19646687990462,112.57631783004399 64.39230580901494,110.1806923819131 65.00283960826346,109.2111163584741 65.41154405237467,108.67739020434237 65.3409037780948,108.6091911163494 65.11384575358534,108.89681221000683 64.39987440983532,110.07988178759479 64.27120819594711,110.0858118327742 64.11226757877739,109.99389598879497 64.0290129697969,109.8752944460557 64.01387576817069,109.71814661444114 64.01135290121601,107.8204415527598" stroke="yellow" stroke-linecap="round" stroke-linejoin="round" stroke-width="0.5"><title>2025-11-09 21.3km</title><desc>1762645227000</desc></polyline><polyline fill="none" points="92.20691866218112,85.40049355372321 97.99947720440105,82.87028374656802 105.52383159962483,83.92453903198475 108.9277062069159,86.03304446360562 111.37610724032857,89.05522363370983 113.70507407700643,95.02925732271979 111.79412692878395,103.46309360093437 106.30015387875028,109.36671377375023 106.35987097676843,114.35663655918324 94.65531969559379,115.05943950259825 93.5206948267296,109.15587112109642 88.74332695640624,104.44703402655432 86.2949259232264,98.40280498831999 86.6532285134308,92.92078112473246 89.69880053051747,87.29814443376381 95.67051036795601,83.50283712340752 103.07543056621216,83.08113494073041 108.80827201041393,85.82219422899652 113.28705438855104,92.70993312814971 113.04818599484861,100.58154520095559 110.36091656796634,105.36069165694062 106.59873937047087,108.8044665476773 106.30015387875028,114.56747752224328 95.133056482533,115.05943950259825 93.58041192474775,109.01530931453453 87.25039949710481,101.70605341607006 86.35464302171022,96.01321053697029 87.60870208754204,90.60144939349266 92.44578705588356,85.04907611489762 99.79099015588872,82.79999999998836 106.77789066568948,84.34624066652032 109.70402848604135,86.94672802288551 112.86903469962999,92.00710597779835 113.52592278178781,96.01321053697029 112.9884688963648,100.08957224385813 111.31639014184475,104.165908342693 106.4793051739689,108.9450283999322 106.30015387875028,114.42691688769264 96.98428653203882,115.20000000001164 94.53588549909182,114.84859869937645 93.87899741646834,109.50727550429292 89.04191244835965,104.72815958817955 87.31011659558862,101.70605341607006 86.4143601199612,95.80236354510998 87.72813628427684,90.46088356774999 92.92352384258993,84.76794202683959 100.44787823781371,82.87028374656802 107.01675905915909,84.41652424575295 111.7344098307658,89.61748797266046 113.16762019181624,93.0613464177004 113.28705438855104,99.5975989138824 111.31639014184475,104.09562690288294 106.65845646872185,108.38278080819873 106.35987097676843,114.35663655918324 94.8344709908124,115.05943950259825 93.69984612148255,109.15587112109642 89.04191244835965,104.7984409595374 86.71294561168179,99.10562521097017 86.59351141494699,93.48304211394861 89.34049794031307,87.86041029548505 94.47616840037517,83.92453903198475 101.64222020539455,83.01085121714277 106.77789066568948,84.48680781712756 112.27186371595599,90.39060064329533 113.46620568353683,94.88869245589012 112.809317601379,101.00323600985575 110.48035076470114,105.07956636906601 106.4793051739689,108.87474747758824 106.24043678026646,114.42691688769264 102.8962792714592,115.05943950259825 94.5956025973428,114.98915924242465 93.75956321996637,109.15587112109642 89.34049794031307,105.14984770253068 87.48926789057441,101.91689848946407 86.59351141494699,93.41275951697025 91.01257669483311,86.17361124878516 97.46202331897803,83.08113494073041 105.64326579659246,84.06510627391981 111.31639014184475,88.98494055704214 113.40648858505301,94.74812755879248 112.92875179811381,100.65182702161837 110.30119946948253,105.43097295984626 106.59873937047087,108.6639046651544 106.35987097676843,114.42691688769264 102.65741087775677,114.98915924242465 94.53588549909182,114.84859869937645 93.81928031845018,109.22615201311419 89.22106374357827,105.07956636906601 86.77266271039844,100.08957224385813 87.19068239885382,91.58540932222968 91.72918187524192,85.61134392552776 97.04400363052264,83.15141865680926 103.7920357468538,83.36226975952741 107.97223263327032,85.2599266008474 111.01780465012416,88.56324193737237 113.46620568353683,94.60756263119401 112.809317601379,101.07351778488373 110.48035076470114,105.14984770253068 106.53902227198705,108.5936237120768 106.30015387875028,114.35663655918324 102.71712797624059,114.91887897462584" stroke="#4DD2FF" stroke-linecap="round" stroke-linejoin="round" stroke-width="0.5"><title>2025-11-01 10.0km</title><desc>1761964262000</desc></polyline><polyline fill="none" points="148.35838257474825,91.11145828937879 149.37577968765981,95.68975858046906 149.07654524268582,99.98628799634753 146.20389457140118,105.69147170713404 142.4933874544222,108.79056286724517 141.8350716754794,114.84783476463053 130.4641627687961,115.20000000001164 129.56645943387412,109.4244660580298 124.29993320349604,104.21235481032636 122.08559831115417,98.08454896969488 122.62422031187452,91.95668538461905 125.37717720516957,87.58966689987574 128.84829676616937,84.70178372767987 135.431454554433,82.79999999998836 140.8176745630335,83.78611077531241 144.1092534570489,85.54701915418264 148.47807635297067,91.60450756183127 149.31593279866502,97.87324429035652 147.4606792400591,103.93061787734041 142.1941530094482,109.21316506306175 141.89491856470704,114.84783476463053 130.22477521258406,114.988700881775 129.32707187836058,109.14273138291901 124.95824898220599,105.4097354147234 123.10299542383291,101.95845592743717 122.32498586713336,93.92887766793137 125.85595231712796,87.23748671193607 131.9004881044384,83.5748014493729 138.72303344868124,83.36349205474835 144.94710990274325,86.5331257636426 148.53792324173264,91.95668538461905 149.37577968765981,98.08454896969488 147.4606792400591,103.86018362501636 142.31384678767063,108.720129141293 141.77522478695028,114.91826782719 130.2846221018117,115.05913392873481 129.56645943387412,109.21316506306175 123.4620767578017,102.87410329090199 122.0257514223922,96.32367454195628 122.68406720086932,92.23842750559561 124.71886142645963,88.64620631950675 129.80584699008614,84.27916560217272 137.10716744605452,82.94087305950234 144.4683347910177,86.18094500352163 148.77731079771183,92.8723468312528 149.31593279866502,98.36628843582002 146.92205723933876,104.49409162148368 142.31384678767063,108.79056286724517 141.53583723073825,115.05913392873481 130.34446899103932,115.05913392873481 129.7460001008585,109.14273138291901 125.49687098315917,105.6210376455565 123.04314853483811,101.46541450545192 122.38483275589533,93.2949593719095 126.5142680958379,86.46268962684553 132.5588038833812,83.29305557475891 140.21920567331836,83.64523789886152 145.90466012689285,87.80097492120694 148.89700457570143,93.99931299587479 149.07654524268582,99.07063656690298 147.2811385730747,104.0714863591711 142.25399989867583,109.07229769520927 142.0146123424638,114.63653553207405 141.2366027859971,114.988700881775 130.2846221018117,115.05913392873481 129.32707187836058,109.07229769520927 125.25748342741281,105.6210376455565 123.04314853483811,101.67671801749384 122.38483275589533,93.5062655393267 126.39457431808114,86.67399801441934 133.03757899510674,83.29305557475891 140.93736834079027,83.85654720210005 145.84481323766522,87.51923087757314 148.95685146469623,93.92887766793137 149.01669835392386,99.84541862958577 146.50312901637517,105.19843311543809 142.3736936764326,109.00186399975792 141.77522478695028,114.84783476463053 130.2846221018117,115.05913392873481 129.62630632310174,109.35403240064625 125.43702409416437,105.48016949929297 123.04314853483811,101.67671801749384 122.56437342311256,93.08365313598188 126.21503365109675,87.02617850754177 133.5163541068323,83.0817460884573 141.17675589676946,83.71567434089957 146.0842007936444,87.58966689987574 149.01669835392386,93.85844233218813 148.95685146469623,99.91585331672104 147.16144479508512,104.28278902487364 142.25399989867583,109.21316506306175 142.4933874544222,114.42523623054149 143.03200945514254,109.49489970767172 147.7599136850331,104.56452580535552 149.85455479938537,99.70454923220677 149.9742485776078,94.4219248041627 148.17884190799668,89.35056497895857" stroke="#4DD2FF" stroke-linecap="round" stroke-linejoin="round" stroke-width="0.5"><title>2025-10-27 10.0km</title><desc>1761565093000</desc></polyline><polyline fill="none" points="165.05903571937233,85.55751102446811 167.519124325132,83.9719436452724 170.740668927785,83.42044102225918 178.29665535967797,84.66132125206059 183.33397964737378,89.9695038117934 185.20833287062123,95.41551523032831 184.73974456475116,100.58573611394968 183.33397964737378,104.17039793822914 178.23808182124048,109.27161264902679 178.23808182124048,114.44172097672708 166.75766832823865,114.92426227784017 165.93763879314065,109.27161264902679 161.19318219646811,104.79081812768709 158.85024066688493,99.75850359501783 158.79166712914594,93.8299724108656 161.6617705023382,87.97032336960547 168.39772739866748,83.8340680343681 176.77374336565845,84.10981922631618 179.5266996624414,85.55751102446811 182.6896707266569,89.00438300310634 185.2669064088259,95.48445178510156 183.6854208766017,103.27423437486868 178.29665535967797,109.06480744248256 178.12093474483117,114.44172097672708 166.64052125182934,114.92426227784017 165.87906525470316,109.27161264902679 161.8960646551568,105.75591499765869 159.02596128196456,100.37892808509059 158.96738774352707,93.2095415367512 161.42747634928674,88.59075935150031 167.6948449399788,84.24769477767404 174.3136547601316,83.76513021782739 178.99953781836666,85.48857339442475 181.40105288568884,87.48776163253933 185.2669064088259,94.45040268020239 185.1497593326494,99.06914234114811 183.80256795324385,103.3431700784713 178.29665535967797,109.06480744248256 178.12093474483117,114.5106554706581 167.05053601926193,115.06213115371065 165.76191817829385,109.34054770309012 161.72034404031,105.75591499765869 158.73309359070845,98.86233381944476 159.20168189657852,92.93379428761546 161.60319696413353,88.31501010089414 168.33915386046283,83.9719436452724 176.6565962890163,84.3166325421189 179.8195673536975,85.76432386960369 181.92821472976357,88.03926073072944 185.09118579421192,94.86402252380503 185.0326122562401,99.55169529718114 183.6268473386299,103.6189128178521 178.23808182124048,109.27161264902679 178.12093474483117,114.5106554706581 166.87481540464796,114.9931967195007 166.05478586931713,109.68522286077496 160.37315266113728,103.68784848396899 158.6745200525038,98.93127000099048 159.55312312580645,91.21037127240561 161.54462342569605,88.3839474246488 168.5148744750768,83.9719436452724 174.66509598935954,83.90300584351644 180.8153175036423,86.86732457543258 184.91546517959796,93.62316218676278 185.09118579421192,99.41382306138985 182.9239648799412,104.65294702653773 178.41380243585445,108.9269372675335 178.0623612063937,114.57958995708032 166.93338894285262,115.20000000001164 166.05478586931713,109.61628784402274 161.60319696413353,105.41123771195998 159.14310835837387,100.51680011168355 159.02596128196456,93.9678458563285 161.4860498874914,88.59075935150031 166.75766832823865,84.66132125206059 172.7907427661121,83.62725456192857 179.58527320064604,85.76432386960369 184.03686210606247,91.07249722973211 185.32547994726337,95.62232487212168 184.79831810318865,100.79254407557892 182.98253841814585,104.65294702653773 178.35522889811546,108.9269372675335 178.17950828326866,114.64852443616837 166.64052125182934,114.78639337193454 165.99621233087964,109.34054770309012 161.8960646551568,105.68697955546668 159.55312312580645,101.89551873656455 158.73309359070845,94.1746559686726 161.83749111695215,88.10819808451924 164.64902095193975,85.76432386960369 169.51062462478876,83.8340680343681 177.35947874793783,84.59238352510147 180.581023350358,86.79838708747411 182.98253841814585,89.90056665957673 183.86114149168134,88.93544574640691 179.29240550962277,84.45450804854045 173.37647814839147,82.80000000004657 166.5819477136247,83.8340680343681 162.3060794225894,86.79838708747411 160.7831674288027,88.79757121094735 162.65752065205015,87.62563645187765" stroke="#4DD2FF" stroke-linecap="round" stroke-linejoin="round" stroke-width="0.5"><title>2025-10-19 10.0km</title><desc>1760866141000</desc></polyline><polyline fill="none" points="37.326469698920846,137.40007954766043 40.32533455407247,142.4825109335943 41.04506211937405,148.69431768817594 39.125788611825556,154.90606523456518 34.08769565541297,159.84718577656895 33.787809170084074,165.35296168125933 22.272168127121404,165.98824052343844 21.252554076025262,159.77659860410495 15.254824366187677,153.28254602261586 13.995301127200946,146.43548571888823 17.114120576530695,138.67069111019373 23.531691366108134,134.50589951808797 30.728967017959803,134.15294985455694 37.14653780753724,137.68243788660038 40.685198336606845,143.47075687773759 41.16501671355218,149.32961276889546 38.94585672067478,155.32959132036194 34.20765025005676,159.63542423583567 33.547899981727824,165.7764809782384 22.212190829915926,165.84706750087207 21.492463264614344,160.34129577036947 17.47398435883224,156.74134295183467 14.954937880625948,152.5060788829578 14.235210315324366,144.529590154998 17.77387084439397,138.10597516590497 24.971146496478468,133.94117996486602 31.86853566276841,134.4353096006089 37.80628807609901,138.38833319908008 41.04506211937405,144.31782363716047 41.224994010524824,149.7531424787594 39.1857659087982,155.04724062723108 34.14767295285128,159.91777294134954 33.84778646728955,165.7764809782384 22.152213532710448,165.84706750087207 21.492463264614344,160.55305708147353 17.114120576530695,156.24723022861872 14.235210315324366,150.67078923882218 14.535096801118925,142.41192188009154 17.71389354742132,137.82361701049376 20.05300813424401,136.12946550757624 27.01037459773943,133.79999999998836 34.267627546796575,135.56474736134987 37.866265372838825,138.4589226883836 40.62522103940137,142.69427804771112 41.04506211937405,150.7413773976732 39.1857659087982,155.1884159889887 34.32760484400205,159.98836009862134 34.20765025005676,165.56472136406228 23.531691366108134,166.20000000001164 22.152213532710448,165.84706750087207 21.31253137346357,160.12953439017292 16.874211387941614,155.75311713072006 14.115255721379071,149.8237307370291 13.935323829995468,145.02371176227462 17.114120576530695,138.67069111019373 19.693144351709634,136.341234686377 24.37137352535501,134.29412974294974 31.448694583028555,134.29412974294974 36.66671943082474,137.2589003322064 41.16501671355218,144.45900132338284 40.62522103940137,151.72961081838002 38.94585672067478,155.32959132036194 34.08769565541297,159.56483704026323 33.9077637642622,165.56472136406228 22.512077315477654,165.91765401605517 21.252554076025262,160.05894724826794 15.854597337311134,154.55312661948847 14.055278424406424,149.96490723028546 14.235210315324366,144.2472347827861 16.75425679376349,139.16481715993723 19.633167054736987,136.341234686377 23.831577851669863,134.3647196755046 31.32873998885043,134.3647196755046 37.68633348145522,138.17656468588393 41.464903198881075,146.22371982043842 39.365697800181806,154.83547752688173 34.20765025005676,159.35307540814392 34.027718358673155,165.56472136406228 22.09223623550497,165.91765401605517 21.37250867043622,160.34129577036947 16.034529228694737,154.76488981145667 14.055278424406424,149.2590244570747 14.954937880625948,142.27074375044322 18.073757329955697,137.75302745238878 22.931918394984677,134.6470793298795 30.60901242401451,134.08235989901004 35.16728700348176,136.12946550757624 39.24574320623651,140.29424672358437 41.10503941611387,145.51783299492672 41.04506211937405,150.3178483301308 38.7059475320857,155.54135426017456 34.14767295285128,159.70601142355008 34.267627546796575,165.21178852109006 34.98735511209816,160.2001215245691 38.28610645281151,157.30604274797952 41.04506211937405,152.788430677203 42.0646761697717,147.9178450818872 41.64483509026468,144.45900132338284" stroke="#4DD2FF" stroke-linecap="round" stroke-linejoin="round" stroke-width="0.5"><title>2025-10-16 10.0km</title><desc>1760611285000</desc></polyline><polyline fill="none" points="56.45351483603008,136.07373642141465 63.577396830776706,133.80000000004657 70.09756001248024,135.07897770684212 75.5310293303337,140.2659172868589 77.64404517645016,146.16334670881042 76.25549190607853,153.765978696174 70.27867565630004,160.23169918602798 70.21830377494916,165.7736945997458 58.62690256326459,166.12894911924377 57.84206810593605,160.44485372165218 52.468970669200644,155.25807369622635 50.35595482354984,149.7870421038824 50.718186111189425,143.46332536108093 54.099011464742944,137.99219539680053 61.34363722219132,133.94210875744466 68.1656598104164,134.43948916526278 73.7802447725553,137.77903356560273 77.52330141398124,145.59492208540905 76.43660755013116,153.41071748151444 70.45979130035266,159.94749303115532 70.21830377494916,165.7736945997458 58.56653068191372,166.20000000001164 57.72132434346713,160.44485372165218 52.65008631325327,155.4712298476952 50.476698586018756,150.28441049769754 50.65781423007138,143.74753865791718 54.34049898991361,137.49481768260011 62.068099797936156,133.94210875744466 70.03718813089654,134.79476065433118 76.13474814360961,141.1185609640088 77.46292953239754,145.95018753269687 76.13474814360961,153.90808312798617 70.33904753788374,159.94749303115532 70.33904753788374,165.63159273815108 58.62690256326459,166.12894911924377 57.84206810593605,160.58695670659654 52.106739381793886,154.61860482604243 50.476698586018756,149.85809475474525 50.718186111189425,143.5343786968151 54.15938334632665,137.8500875167665 61.162521578371525,134.08421748370165 69.43346931808628,134.79476065433118 74.6254511110019,138.7027343340451 77.52330141398124,145.73702828737441 76.19512002519332,153.90808312798617 70.45979130035266,160.0185445813113 70.15793189383112,165.84474551922176 58.62690256326459,166.12894911924377 57.72132434346713,160.30275070562493 52.589714431902394,155.11596955690766 50.35595482354984,149.71598944527796 50.597442348720506,143.96069854969392 52.71045819460414,139.34221871959744 59.773968307999894,134.5105434784782 67.13933782815002,134.15527183539234 70.64090694440529,135.36319463665131 74.02173229772598,138.27641106396914 77.52330141398124,145.87913445866434 77.4025576512795,150.14230528078042 75.95363249978982,154.26334407326067 70.39941941876896,160.23169918602798 70.33904753788374,165.84474551922176 58.68727444438264,166.20000000001164 57.84206810593605,160.51590521779144 53.19343324494548,156.11069788696477 50.41632670466788,150.21335789299337 50.718186111189425,143.25016530777793 53.79715205845423,138.27641106396914 60.86066217161715,134.15527183539234 68.89012238616124,134.5815977838938 74.32359170424752,138.63168047508225 77.4025576512795,145.66597519034985 76.31586378766224,153.33966521557886 73.65950100962073,157.31858025986003 70.39941941876896,160.08959612390026 70.39941941876896,165.63159273815108 58.68727444438264,166.12894911924377 57.660952462116256,160.23169918602798 52.77083007595502,155.61333391047083 50.476698586018756,150.28441049769754 51.080417399294674,141.75804299436277 53.495292651699856,138.63168047508225 61.041777815902606,134.08421748370165 68.82975050481036,134.5105434784782 74.6254511110019,138.986949693528 77.28181388857774,144.88439061364625 76.73846695688553,152.20282791322097 74.14247606066056,156.67911339830607 70.39941941876896,159.87644147319952 70.15793189383112,165.7736945997458 59.170249494956806,166.20000000001164 58.264671275392175,165.27633794932626" stroke="#4DD2FF" stroke-linecap="round" stroke-linejoin="round" stroke-width="0.5"><title>2025-10-08 10.1km</title><desc>1759919017000</desc></polyline><polyline fill="none" points="85.24773866985925,148.09845987753943 91.11273506097496,138.02617850725073 95.0027836873196,135.1382928325911 99.55114823533222,133.80000000004657 109.42588705662638,135.9835289918119 113.61517019337043,141.75928000849672 114.75226133014075,148.66193954175105 112.41823215433396,155.2827890245244 107.57063309638761,159.86099658574676 107.3910923905205,165.70696861710167 95.66109960875474,165.9887008817168 95.06263058912009,160.56533334951382 91.23242886457592,157.04364190076012 88.53931827703491,152.95845592714613 87.64161474769935,145.06974831607658 90.8733474528417,138.5192308772821 97.15727215725929,134.64523789891973 103.38134996010922,134.15218259155517 110.50313129182905,137.5331257635844 114.21363921253942,143.6610404578969 114.57272062427364,149.15498384763487 112.77731356606819,154.64888082188554 107.51078619481996,160.00186399946688 106.97216407698579,165.77740169485332 95.72094651078805,166.12956696812762 94.94293678528629,160.35403240047162 88.53931827703491,153.24019371479517 87.58176784589887,145.9149715662934 90.81350055104122,138.80097492109053 96.97773145139217,134.71567434095778 103.26165615627542,134.15218259155517 110.32359058596194,137.32181733025936 114.03409850690514,143.0975564601831 114.63256752653979,149.0141140841879 112.41823215433396,155.2827890245244 107.51078619481996,160.1427313828026 107.09185788081959,165.84783476468874 95.60125270672143,166.0591339287348 94.52400847175159,159.86099658574676 90.8733474528417,156.76190576091176 88.24008376710117,152.74715250637382 87.58176784589887,145.63323060475523 90.63395984540693,139.08271884266287 93.98538635415025,135.9835289918119 96.97773145139217,134.71567434095778 104.21920658741146,134.22261908679502 111.1016003114637,138.3079227647395 113.61517019337043,141.75928000849672 114.57272062427364,149.22541871789144 112.71746666403487,154.71931509725982 107.57063309638761,159.86099658574676 107.09185788081959,165.77740169485332 95.84064031462185,166.20000000001164 94.88308988348581,160.21316506294534 91.65135717834346,157.81841565587092 88.95824659033678,154.01497200125596 87.52192094386555,146.0558420010493 90.15518462960608,139.64620631939033 95.96033411845565,135.06785643630428 103.38134996010922,134.15218259155517 109.72512156679295,136.8287640523049 113.55532329110429,141.6888443295611 114.51287372270599,149.22541871789144 112.59777285996825,155.00105212186463 107.69032690068707,159.649695407541 107.15170478308573,165.77740169485332 95.72094651078805,166.0591339287348 95.0027836873196,160.56533334951382 89.61656251200475,155.07148635882186 87.34238023799844,146.90106396947522 88.53931827703491,142.3932007763069 91.11273506097496,138.23748671170324 95.66109960875474,135.1382928325911 99.43145443149842,134.011309577676 104.27905348897912,134.4339285271708 109.90466227242723,137.1105088283657 113.43562948750332,141.54797294863965 114.45302682067268,150.0002017877996 112.71746666403487,154.78974936477607 107.51078619481996,160.1427313828026 106.97216407698579,165.70696861710167 96.02018102048896,166.20000000001164 94.94293678528629,160.2835987355793 90.33472533524036,156.0575648774975 88.18023686530069,151.8315035562846 87.52192094386555,147.816719862225 89.25748110027052,140.77317980810767 92.90814211918041,136.8287640523049 99.37160752969794,134.15218259155517 107.0320109790191,134.99742003256688 113.43562948750332,141.2662300952361 114.51287372270599,145.56279534543864 114.03409850690514,151.62019976909505 110.44328439002857,157.60711381427245" stroke="#4DD2FF" stroke-linecap="round" stroke-linejoin="round" stroke-width="0.5"><title>2025-10-01 10.0km</title><desc>1759271073000</desc></polyline><polyline fill="none" points="132.5366039313376,134.98454486904666 137.27287205960602,133.79999999998836 144.25886754877865,135.6813349496224 148.6399155673571,141.74337680236204 149.52796584158204,145.78470630041556 149.40955913835205,150.38342967367498 148.10708540305495,154.07632009813096 142.4827670007944,159.92915961070685 142.30515694618225,165.78194587567123 130.9381134379655,166.13032433140324 129.69484305405058,160.20786492625484 125.13618498085998,155.88791897072224 123.00486432295293,151.5679440058302 122.47203415841796,147.03890684439102 123.83371124533005,141.81305511214305 128.86599613167346,136.37812427530298 135.73358491784893,134.4271122610662 142.1867502424866,135.6813349496224 145.0285111197736,137.63234315952286 147.6926619419828,141.18595005158568 149.46876248996705,146.4118068779935 148.46230551274493,153.03116458147997 146.27178150322288,156.5846864094492 142.4827670007944,159.72013054526178 142.3643602973316,165.50324297515908 138.27932903682813,166.06064865540247 130.5236899764277,165.99097297195112 129.81324975728057,160.41689383337507 125.37299838708714,156.23630278446944 122.82725426810794,151.63762125151698 123.12327102641575,143.62468852032907 125.31379503547214,139.58334545220714 128.3923693189863,136.72651865507942 133.8982810182497,134.5664704584051 142.1867502424866,135.6813349496224 147.6926619419828,140.97691489534918 149.35035578673705,145.64535053342115 149.2319490837399,150.73181646835292 146.74540831614286,156.30597952444805 142.4827670007944,160.068512283382 141.94993683649227,165.85162158182357 130.64209668012336,165.99097297195112 129.9316564607434,160.41689383337507 123.24167772941291,153.1008416688419 122.47203415841796,148.92020307527855 123.00486432295293,143.69436662638327 126.67547212261707,138.1897729896591 133.7206709634047,134.63614954578225 141.35790332010947,135.47229800460627 145.56134128384292,138.3988090515486 148.99513567704707,144.53050331119448 149.29115243512206,150.45310704759322 146.80461166775785,156.02727251889883 142.4235636491794,159.99883595097344 142.4235636491794,165.43356723128818 141.71312342979945,165.92129728058353 130.64209668012336,165.99097297195112 129.87245310889557,160.41689383337507 125.96503190300427,156.86339317372767 123.4192877842579,152.68277903221315 122.64964421326295,145.29696098406566 126.26104866107926,138.46848772384692 133.60226425994188,134.63614954578225 142.66037705540657,135.89037182653556 147.396645183675,140.69820124830585 149.35035578673705,146.06341774354223 148.87672897381708,152.05568456754554 146.5085949099157,156.51500969968038 142.6011737040244,159.85948326304788 142.30515694618225,165.64259444054915 138.33853238844313,166.20000000001164 130.64209668012336,166.20000000001164 129.81324975728057,160.27754123607883 125.49140509031713,156.30597952444805 122.94566097157076,151.63762125151698 123.12327102641575,143.7640447249869 128.09635256091133,136.72651865507942 133.18784079910256,134.7058286256506 138.22012568521313,134.4271122610662 141.35790332010947,135.33294000360183 145.9165613935329,138.67752369504888 148.87672897381708,144.11243510467466 149.35035578673705,150.03504269034602 147.51505188713782,155.12147391639883 142.4827670007944,159.92915961070685 141.89073348464444,165.92129728058353 130.64209668012336,166.13032433140324 129.6356397026684,160.41689383337507 125.31379503547214,156.51500969968038 123.47849113564007,152.96148748678388 122.53123751026578,146.272451246914 125.84662520000711,139.09559543366777 129.69484305405058,136.0297297068173 134.31270447932184,134.5664704584051 138.16092233359814,134.49679136357736 142.66037705540657,135.9600507703144 147.81106864497997,141.1162716736435 149.40955913835205,146.69051804969786 148.10708540305495,153.79761212621816 142.30515694618225,159.99883595097344 142.12754689133726,165.78194587567123 136.3848217856139,165.99097297195112" stroke="#4DD2FF" stroke-linecap="round" stroke-linejoin="round" stroke-width="0.5"><title>2025-09-27 10.0km</title><desc>1758965825000</desc></polyline><polyline fill="none" points="188.20000000018626,135.89229656587122 184.73931888537481,136.8367689626757 178.67058823513798,141.08687449188437 176.31331269349903,141.79522219084902 178.72074303403497,145.86820359167177 178.67058823513798,151.062686427671 175.91207430348732,156.1980923791998 172.70216718269512,159.20848026673775 172.7523219815921,163.9896503816126 162.7213622292038,163.9896503816126 162.32012383895926,159.03139908669982 158.85944272461347,156.37517448002473 156.40185758518055,152.1842159955413 156.25139318895526,145.21888975583715 159.26068111462519,140.37852587224916 161.36718266247772,138.19444516539807 163.8749226005748,137.2499751217547 169.7931888543535,137.2499751217547 176.31331269349903,139.84726380335633 178.72074303403497,146.04528904892504 178.8712074304931,149.52795801579487 177.56718266243115,153.83699220430572 172.70216718269512,159.26750731409993 172.70216718269512,163.93062384583754 162.67120743030682,164.10770343412878 162.2699690402951,159.03139908669982 157.2544891643338,153.48282629589085 155.85015479894355,147.04877222026698 156.70278637786396,144.09734585345723 159.51145510864444,140.26046767953085 163.97523219813593,137.42706337949494 170.39504643972032,137.30900454736548 174.15665634674951,138.66667957353638 176.11269349837676,140.37852587224916 178.77089783269912,146.98974384967005 178.57027863780968,151.18074228032492 175.81176470569335,156.67031118675368 172.80247678002343,158.8543178490945 172.4513931889087,163.81257075502072 162.67120743030682,164.0486769109848 162.06934984517284,158.6772365537472 157.3547987616621,154.36824063549284 155.95046439627185,150.41337878099876 155.80000000004657,147.22585729398998 156.95356037165038,143.4480299076531 161.91888544894755,138.19444516539807 168.63962848298252,137.07288680621423 175.51083591324277,139.25697200821014 178.16904024779797,144.09734585345723 178.67058823513798,149.88212649448542 177.01547987596132,154.66337842919165 172.8526315789204,158.8543178490945 172.55170278646983,164.0486769109848 162.67120743030682,163.9896503816126 162.11950464406982,159.14945321314735 158.30773993814364,155.7258731626789 155.95046439627185,150.29532276192913 156.85325077432208,143.4480299076531 161.11640866892412,138.96182587073417 165.22910216706805,137.13191625103354 174.35727554163896,138.43056242080638 176.46377708972432,140.3194967789459 178.4198142415844,145.7501465883106 178.72074303403497,149.88212649448542 176.51393188838847,155.48976340086665 172.7523219815921,159.0904261530377 172.4513931889087,163.93062384583754 162.62105263164267,163.87159730354324 161.91888544894755,158.8543178490945 158.60866873105988,156.1390649995883 156.80309597519226,153.2467155623599 155.95046439627185,146.45848822552944 158.15727554215118,141.73619325103937 162.21981424139813,137.60415157990064 167.13498452026397,136.659680513083 175.7616099070292,139.55211798555683 178.26934984512627,144.56957514642272 178.72074303403497,150.05921064747963 177.06563467462547,154.66337842919165 172.80247678002343,158.97237201378448 172.50154798757285,163.9896503816126 162.7213622292038,164.10770343412878 162.06934984517284,159.14945321314735 158.70897832838818,156.02101022098213 156.60247678030282,152.1842159955413 156.30154798761941,145.15986118692672 159.31083591352217,140.3194967789459 162.01919504674152,138.01735715696122 164.57708978350274,137.01385735487565 174.70835913321935,138.43056242080638 176.51393188838847,140.02435121731833 178.57027863780968,145.8091750931926 178.4198142415844,150.35435077460716 176.56408668728545,155.13559856638312 172.70216718269512,159.0904261530377 172.7523219815921,163.3993847357342 172.15046439645812,163.6945176385343" stroke="#4DD2FF" stroke-linecap="round" stroke-linejoin="round" stroke-width="0.5"><title>2020-04-24 10.0km</title><desc>1587724293000</desc></polyline><polyline fill="none" points="44.200000000186265,186.90641669213073 40.300000000046566,188.02451587381074 33.199999999953434,192.20265560754342 30.949999999953434,191.4964934019372 28.100000000093132,189.1426127543673 22.899999999674037,188.0833631354617 16.649999999906868,190.1430132756941 14.649999999906868,191.9672683076933 12.25,197.145765345369 12.300000000046566,201.85344709135825 14.149999999906868,206.20801638893317 18.399999999906868,210.09179199213395 19.200000000186265,215.09358330786927 28.800000000046566,214.38745085464325 28.649999999906868,209.91525733971503 33.00000000023283,205.560717755754 34.35000000009313,201.7946013213368 34.25000000023283,197.55768912669737 32.75,193.4972839335096 28.4000000001397,189.08376560756005 25.850000000093132,188.25990488217212 22.0,188.37759934784845 15.049999999813735,191.73188090592157 11.800000000046566,199.32307322329143 13.0,204.3838091743528 18.399999999906868,210.20948172861245 19.0,214.91705028055003 28.75000000023283,214.50513966061408 28.75000000023283,209.9741022302769 33.25,204.97226378379855 35.050000000046566,199.1465350718354 32.800000000046566,192.32034921925515 33.35000000009313,191.61418716673506 31.149999999906868,191.9672683076933 27.649999999906868,189.49569550179876 22.050000000046566,188.0833631354617 15.949999999720603,190.8491772407433 12.449999999953434,196.3807632084936 12.949999999953434,204.3838091743528 18.25,210.09179199213395 18.649999999906868,214.79936156381154 28.3499999998603,214.62282844097354 28.700000000186265,209.6798777137883 32.85000000009313,205.73725382296834 34.450000000186265,200.61768458154984 33.800000000046566,195.90999212727183 30.9000000001397,191.20225887873676 24.800000000046566,188.25990488217212 20.5,188.67183540097903 15.0,191.26110579632223 12.149999999906868,196.73384125169832 12.600000000093132,203.38343487586826 14.50000000023283,206.67877854668768 18.049999999813735,209.9741022302769 18.549999999813735,214.74051719595445 28.3499999998603,214.62282844097354 28.4000000001397,209.9741022302769 32.75,205.61956311791437 34.199999999953434,201.02960573055316 33.4000000001397,195.38037417345913 30.450000000186265,191.08456502499757 27.949999999953434,189.26030702900607 23.850000000093132,188.37759934784845 21.1500000001397,188.43644657119876 16.200000000186265,190.1430132756941 12.799999999813735,194.7919091747026 11.800000000046566,198.1461511295056 12.799999999813735,204.32496367837302 15.349999999860302,207.7379919103114 18.0999999998603,209.79756753967376 18.699999999953434,214.85820592544042 28.4000000001397,214.68167282181093 28.4000000001397,209.9741022302769 33.10000000009313,205.0311092097545 34.35000000009313,198.49922802543733 32.85000000009313,193.7326705706655 28.00000000023283,188.84837695636088 23.949999999953434,187.61258486408042 16.300000000046566,190.26070733380038 12.899999999906868,195.4392206381308 11.949999999953434,199.08768900844734 13.099999999860302,204.6191910947673 18.300000000046566,210.32717143936316 18.8499999998603,214.68167282181093 28.600000000325963,214.38745085464325 28.550000000046566,210.1506368634873 33.050000000046566,205.0899546291912 34.300000000046566,198.26384345366387 32.60000000009313,193.55613060243195 28.800000000046566,189.90762508363696 22.850000000093132,188.20105763961328 15.300000000046566,190.73148331028642 12.050000000046566,197.02807277883403 12.199999999953434,201.85344709135825 13.5,205.20764544903068" stroke="#4DD2FF" stroke-linecap="round" stroke-linejoin="round" stroke-width="0.5"><title>2020-04-16 10.0km</title><desc>1587033949000</desc></polyline><polyline fill="none" points="80.19999999995343,186.9140983109246 75.99350850074552,188.0339258639142 68.78238021628931,192.39533752232092 67.58052550209686,192.39533752232092 65.52735703252256,190.214636063145 61.52117465203628,188.44649332866538 57.86553323012777,188.32861694210442 52.206800618208945,190.6861398218898 48.80154559481889,194.693905275024 48.0003091187682,201.58955027302727 50.2537867075298,206.4812796372571 54.360123647376895,210.4299929512781 54.71066460572183,215.0269663844374 64.12519319937564,214.61441907280823 64.67604327644221,210.48892875388265 68.28160741878673,206.77596072491724 70.43493044818752,201.53061350650387 70.08438949007541,196.52096502349013 67.22998454398476,191.4523325584596 65.42720247292891,189.80206993909087 61.320865533314645,188.26967873919057 57.21452859323472,188.56436968967319 51.30540958256461,191.03976737288758 48.5511591960676,195.69584202585975 47.85007727961056,198.99632650910644 49.05193199380301,205.0078718061559 54.25996908801608,210.13531384279486 55.11128284363076,215.0269663844374 64.47573415772058,214.6733544221497 64.62596599711105,209.95850630104542 68.78238021628931,205.83298068318982 70.53508500754833,201.11805596225895 69.88408037112094,196.167341034743 66.12828438938595,190.74507776321843 60.56970633682795,188.38755513873184 52.757650695508346,190.214636063145 49.05193199380301,194.81178028252907 47.95023183920421,198.58376704336843 48.451004636706784,203.29871372383786 51.004945904016495,207.42425855546026 54.360123647376895,210.31212132703513 54.96105100447312,215.0859016890754 64.5758887170814,214.6733544221497 64.62596599711105,209.89957044104813 69.18299845443107,205.36149004957406 70.53508500754833,200.46975061832927 70.08438949007541,196.75671422143932 67.83091190108098,192.51321302814176 64.02503864001483,189.38950350217056 61.37094281264581,188.26967873919057 56.71375579596497,188.7411841833964 51.30540958256461,190.92189154808875 48.40092735690996,196.40309038595296 47.90015455940738,200.05719226994552 48.95177743420936,204.88999900739873 54.3100463678129,210.13531384279486 54.71066460572183,214.90909575589467 64.72612055647187,214.37867761141388 64.67604327644221,209.84063457435695 68.98268933524378,205.71510806307197 70.38485316862352,201.05911914480384 69.83400309109129,195.81371681625023 65.6775888716802,190.74507776321843 61.02040185476653,188.0928640922648 56.613601236604154,188.85906048072502 51.30540958256461,191.27551894570934 48.601236475864425,195.9315915813204 47.95023183920421,201.29486637667287 50.10355486860499,206.3044709083042 54.20989180798642,210.2531855053967 54.81081916531548,215.0859016890754 64.72612055647187,214.5554837169475 64.72612055647187,209.95850630104542 68.78238021628931,205.95085327792913 70.48500772821717,200.76443496119464 69.73384853173047,195.9315915813204 66.72921174648218,191.4523325584596 61.320865533314645,188.44649332866538 56.513446677010506,188.62330786068924 50.55425038607791,191.68808395275846 47.95023183920421,199.05526354996255 49.3023183925543,205.06680819601752 54.20989180798642,210.07637800183147 54.760741885518655,214.85016043210635 64.42565687792376,214.79122510174057 64.62596599711105,210.13531384279486 68.6822256569285,205.95085327792913 70.33477588859387,200.4108137304429 69.13292117463425,194.63496776169632 65.02658423501998,190.03782204835443 61.220710973721,188.44649332866538 58.66676970617846,188.44649332866538 55.66213292116299,189.03587487858022 51.45564142195508,191.27551894570934 48.80154559481889,195.28328005771618 47.800000000046566,198.8195153477718 48.50108191627078,203.4755234295153 50.30386398755945,206.71702452015597" stroke="#4DD2FF" stroke-linecap="round" stroke-linejoin="round" stroke-width="0.5"><title>2020-04-14 10.0km</title><desc>1586861907000</desc></polyline><polyline fill="none" points="116.19999999995343,186.9928819106426 111.33006134955212,188.4550387475174 105.06871165614575,192.31511377199786 100.24846625747159,189.39081704523414 95.57730061328039,188.22109391982667 91.94969325140119,188.8644419524353 86.73190184030682,191.37934054253856 84.44601226970553,196.76001446397277 84.49570552119985,201.61427210283 86.13558282190934,205.8836433540564 90.45889570540749,209.9775292885024 90.90613496908918,214.71470141847385 100.4472392636817,214.4807679677033 100.59631901839748,209.74359378550434 104.42269938648678,206.05909624509513 106.21165644167922,201.9651806021575 105.61533742304891,195.70727813325357 102.2361963186413,190.67750955629162 95.92515337420627,188.3380663463613 91.70122699369676,188.9814142396208 86.8809815950226,191.20388288144022 84.29693251522258,197.52032275969395 84.79386503039859,202.84245085297152 86.58282208582386,206.41000185580924 90.3098159506917,209.91904542216798 91.00552147207782,215.0071180893574 100.49693251540884,214.3638012043666 100.69570552115329,209.62662599614123 104.57177914096974,205.76667472854024 106.50981595064513,200.4445754578337 106.01288343546912,196.3506172458874 103.0809815947432,191.26236877491465 97.41595091996714,188.513524938724 92.34723926358856,188.8059557992383 86.7815950915683,191.37934054253856 83.80000000004657,197.05244085821323 84.04846625751816,201.4973025523359 85.1914110428188,204.36304924462456 90.35950920218602,209.91904542216798 90.55828220839612,214.59773470577784 100.4472392636817,214.3638012043666 100.54662576667033,209.9775292885024 105.06871165614575,205.12334683461813 106.26134969317354,200.73699985671556 105.91349693248048,196.70152916613733 102.18650306737982,190.32659372093622 97.56503067468293,188.4550387475174 91.94969325140119,188.74746963987127 87.1294478524942,190.96993924473645 83.8993865030352,198.63154065056005 85.48957055225037,204.71395595761715 90.3098159506917,210.09449700202094 90.60797545989044,214.59773470577784 100.24846625747159,214.42228458914906 100.4472392636817,209.80207767069805 104.32331288303249,205.8836433540564 106.11226993845776,201.55578733072616 105.81411042925902,196.17516120022628 102.5840490795672,191.14539698167937 97.26687116525136,188.3380663463613 90.95582822081633,189.27384484669892 86.73190184030682,191.26236877491465 83.84969325130805,198.4560853461735 85.04233128833584,204.3045647701947 90.21042944770306,210.03601314831758 90.60797545989044,214.42228458914906 100.59631901839748,214.30531781323953 100.54662576667033,209.62662599614123 104.7208588954527,205.29879997263197 106.26134969317354,200.73699985671556 105.71472392627038,195.941219717497 101.98773006116971,190.67750955629162 94.43435582797974,187.9871489906218 88.66993864998221,189.80021954042604 84.9926380366087,194.77151078288443 83.99877300602384,198.98245108837727 84.39631901821122,202.9594201122527 85.48957055225037,205.06486244266853 90.3098159506917,209.91904542216798 90.75705521460623,214.65621806518175 100.34785276069306,214.42228458914906 100.34785276069306,209.56814209162258 103.92576687084511,206.4684861022397 106.11226993845776,200.6785149895586 105.21779141086154,194.82999628974358 100.69570552115329,189.62476136611076 94.08650306728669,188.22109391982667 86.93067484651692,190.91145331965527 84.09815950877964,198.57305555528728 84.54539877269417,203.25184314884245 85.88711656420492,205.8836433540564" stroke="#4DD2FF" stroke-linecap="round" stroke-linejoin="round" stroke-width="0.5"><title>2020-04-13 10.0km</title><desc>1586775592000</desc></polyline><polyline fill="none" points="152.19999999995343,186.9218098274432 147.585758513771,188.22045895119663 141.1659442721866,192.23444576724432 135.59876160952263,189.1649290972273 128.52693498437293,188.63366484147264 124.56470588245429,190.46357287542196 121.15417956653982,194.71365814801538 120.10092879249714,197.84217196068494 120.40185758518055,203.03664579463657 123.06006191950291,207.3456603809609 126.26996904029511,210.23799352830974 126.92198142409325,214.8420840165927 135.74922600598074,214.60597775818314 136.60185758513398,213.89765836921288 136.60185758513398,209.9428581961547 140.6142414859496,205.39775389706483 142.068730650004,202.387339273002 142.41981424135156,195.24491647665855 141.61733746086247,192.76570651261136 144.32569659454748,188.98784106964013 143.27244582027197,190.40454367978964 139.91207430302165,191.9393006847822 133.7931888543535,188.692694228841 128.02538699680008,189.10589976113988 123.81238390086219,191.2309518349939 120.60247678006999,195.83520290080924 120.4520123838447,202.85956227447605 122.30773993837647,206.34219427400967 126.32012383895926,210.23799352830974 126.77151702763513,214.96013710740954 135.94984520110302,214.5469511777046 136.60185758513398,209.82480401865905 140.6142414859496,205.8699742903118 142.31950464402325,201.79705994570395 142.068730650004,196.7206313383649 139.71145510836504,192.17541676363908 133.99380804947577,188.692694228841 128.3263157894835,188.8697823524708 123.00990712083876,191.9393006847822 120.90340557252057,195.4220024710521 120.10092879249714,198.60954053030582 120.95356037165038,204.39428420341574 122.25758513947949,206.8144138485659 126.11950464406982,210.17896647471935 126.7213622292038,214.96013710740954 135.94984520110302,214.60597775818314 136.70216718269512,209.7067498153192 140.01238390081562,206.7553864242509 141.81795665621758,203.6269237792585 142.36965944245458,198.8456537190359 141.06563467462547,193.88725527434144 138.10650154785253,190.58163124712883 132.99071207433008,188.692694228841 127.62414860655554,189.1649290972273 123.51145510841161,191.5260973009281 121.50526315788738,193.9462840926717 119.95046439627185,198.8456537190359 120.10092879249714,201.67900400352664 121.85634674946778,206.40122174308635 126.16965944273397,210.35604761634022 126.62105263164267,214.90111056511523 136.1003095973283,214.66500433225883 136.75232198135927,209.82480401865905 140.7145510832779,205.8699742903118 142.21919504646212,202.5644229465397 142.31950464402325,197.42897305259248 141.06563467462547,193.82822644972475 136.25077399378642,189.69619283510838 130.5832817335613,188.63366484147264 124.61486068088561,190.46357287542196 120.95356037165038,194.8907443151693 120.05077399383299,197.42897305259248 120.20123839029111,202.32831136899767 122.45820433436893,207.05052348255413 125.9690402476117,210.23799352830974 126.7213622292038,215.0781901725568 136.4012383900117,214.5469511777046 136.4513931889087,210.0609123482718 141.06563467462547,205.16164354723878 142.31950464402325,200.616499373049 141.1659442721866,194.53657192364335 139.05944272410125,191.46706822072156 136.20061919488944,189.2829877504264 130.38266253867187,188.39754722820362 124.414241486229,190.58163124712883 120.95356037165038,194.94977302476764 119.90030959737487,199.3769080194761 121.55541795678437,205.63386414479464 126.21981424139813,210.17896647471935 126.62105263164267,214.96013710740954 136.3009287926834,214.5469511777046 136.4513931889087,210.1199394146097 141.26625386974774,205.16164354723878 142.5201238389127,200.4394150666194 140.96532507729717,194.06434171000728 136.35108359111473,189.57813427137444 130.83405572758056,188.33851780893747 128.22600619192235,188.8697823524708 124.86563467490487,190.40454367978964 122.3578947368078,192.70667756639887 120.55232198163867,195.77617428719532 119.80000000004657,199.2588515529642 120.80309597519226,204.15817341877846 122.70897832838818,207.2276056407718" stroke="#4DD2FF" stroke-linecap="round" stroke-linejoin="round" stroke-width="0.5"><title>2020-04-12 10.0km</title><desc>1586649823000</desc></polyline><polyline fill="none" points="188.20000000018626,187.04413396364544 185.0006269593723,187.6418303856044 176.62131661456078,192.1843020337983 178.6018808777444,195.411824954208 179.4652037618216,200.73121968167834 176.77366771153174,206.76777405507164 173.16802507871762,209.87567728798604 172.71097178710625,214.83633272076258 162.9605015674606,214.65703269880032 162.45266457670368,209.5768411993049 157.88213166152127,205.69195731927175 156.0031347963959,201.03006056090817 157.17115987464786,194.03714157396462 161.64012539200485,188.65791281685233 165.14420062699355,187.34298225544626 173.3711598746013,188.59814331377856 176.77366771153174,190.92914913286222 179.05893416935578,197.08534792537102 178.95736677129753,201.86681416112697 177.02758620702662,206.05056313076057 173.01567398151383,209.75614287192002 172.6601880879607,214.7765660531586 162.90971786831506,214.71679937921 162.35109717864543,209.69637565425364 158.28840125421993,206.17009834956843 156.46018808800727,203.24147803575033 155.8507836991921,197.98187600047095 158.74545454559848,191.76591805083444 162.35109717864543,188.71768231329042 168.3435736678075,187.34298225544626 175.7579937307164,189.91307088400936 178.6018808777444,195.83020617277361 179.21128526655957,200.1933056913549 177.43385579949245,205.21381587453652 172.91410658298992,209.99521167803323 172.96489028213546,214.7765660531586 162.8081504702568,214.71679937921 162.35109717864543,209.69637565425364 157.62821316625923,205.7517249706434 156.20626959274523,202.94263835437596 155.8507836991921,198.22094990790356 156.61253918521106,194.63483042095322 161.6909090911504,188.8372212871327 165.44890282140113,187.4027518943185 172.25391849549487,188.53837380441837 176.62131661456078,191.287764538778 179.00815047021024,196.72673628729535 179.10971786850132,200.37261041323654 177.28150470228866,205.69195731927175 173.11724137933925,209.87567728798604 172.86332288431004,214.7765660531586 162.8081504702568,214.7765660531586 162.24952978082,209.69637565425364 158.18683385592885,206.2298659493681 156.40940438886173,202.94263835437596 156.10470219445415,196.60719902289566 158.74545454559848,191.76591805083444 161.84326018835418,188.89699076412944 164.12852664594539,188.00044792779954 169.86708463937975,187.70159999205498 175.6564263321925,189.91307088400936 178.906583072152,196.12904970609816 179.05893416935578,200.6116832846892 176.97680250788108,206.2298659493681 173.11724137933925,209.6366084299516 172.86332288431004,214.59726601175498 162.85893416940235,214.95586603641277 162.19874608144164,209.5768411993049 157.9329153606668,205.87126025435282 156.40940438886173,203.00240630377084 155.80000000004657,196.78650490997825 158.69467084668577,191.76591805083444 161.7416927900631,188.89699076412944 164.3316614420619,187.8211391857476 168.1912225706037,187.4625215269043 174.33605015673675,188.7774518034421 176.67210031370632,190.86937987612328 179.05893416935578,197.8025705019827 178.95736677129753,201.98635028622812 176.9260188085027,206.2298659493681 173.26959247654304,209.81591008324176 173.01567398151383,214.83633272076258 162.85893416940235,214.83633272076258 162.19874608144164,209.75614287192002 158.49153605033644,206.88730911846505 156.20626959274523,203.4207817671122 156.05391849554144,196.48766173247714 158.33918495313264,191.94522551097907 162.70658307219855,188.35906523722224 167.58181818178855,187.34298225544626 170.12100313510746,187.70159999205498 174.3868338558823,189.25560749071883 176.57053291541524,190.98891838354757 178.85579937323928,196.36812441627262 178.906583072152,201.98635028622812 176.97680250788108,205.99079551169416 173.0664576801937,209.93544448638568 173.0664576801937,214.11913228326011 170.88275862089358,214.35819919919595" stroke="#4DD2FF" stroke-linecap="round" stroke-linejoin="round" stroke-width="0.5"><title>2020-04-08 10.0km</title><desc>1586343893000</desc></polyline><polyline fill="none" points="44.200000000186265,238.02993876102846 40.16866359463893,238.90858094900614 32.25529953930527,243.77037525060587 34.49493087595329,248.04637507465668 34.5944700462278,251.85374372266233 32.35483870981261,257.59403347282205 28.671889401273802,260.93274540407583 28.472811060026288,265.852914891846 18.668202765053138,265.7943417088827 18.07096774200909,260.58130301348865 14.43778801849112,257.65260754397605 12.247926267329603,254.07957759295823 12.04884792654775,249.21787597524235 13.143778801895678,245.23476255888818 17.62304147472605,240.54870921361726 21.90322580654174,239.08430921530817 25.835023041814566,239.49434161453974 31.06082949321717,241.89595370955067 33.54930875590071,246.58199538028566 34.5944700462278,251.91231841547415 32.30506912455894,257.76975566719193 28.6221198157873,260.9913191135274 28.423041474539787,265.9114880684647 18.76774193532765,265.73576851945836 18.369585253531113,260.9913191135274 13.84055299544707,256.7154216438066 11.99907834106125,252.32234108820558 12.297695852583274,247.4606236726977 14.48755760374479,243.12604357860982 17.62304147472605,240.37298142316286 19.763133640633896,239.61149367148755 26.282949308864772,239.49434161453974 30.911520737456158,241.77880214742618 34.445161290466785,248.28067545802332 33.94746543793008,254.54817302984884 31.807373272255063,258.29692190804053 28.6221198157873,261.049892816809 28.6221198157873,265.7943417088827 18.867281106300652,265.9114880684647 18.27004608302377,260.9913191135274 13.392626728164032,256.07110539561836 11.800000000046566,250.21364974539028 13.094009216642007,245.41048876941204 17.52350230421871,240.19725357566494 23.197235023137182,238.90858094900614 29.91612903214991,240.9587405024795 32.10599078331143,243.1846192170051 34.64423963148147,249.21787597524235 33.847926267422736,254.54817302984884 31.458986175246537,258.531217849988 28.821198157034814,260.93274540407583 28.52258064551279,265.7943417088827 18.668202765053138,265.852914891846 18.17050691251643,260.874171688105 13.591705069178715,256.8911441239179 11.849769585300237,251.85374372266233 12.5963133641053,246.64057064411463 17.672811059979722,240.1386776138679 23.197235023137182,239.08430921530817 30.065437788143754,240.6658610420418 32.85253456234932,244.53185714565916 34.74377880198881,249.68647562491242 34.79354838700965,252.38091573043494 33.49953917087987,255.95395690441364 28.671889401273802,260.874171688105 28.671889401273802,265.7943417088827 19.016589862061664,265.97006123891333 18.12073732726276,261.2256138882367 13.591705069178715,256.7739958104212 11.899539170786738,252.67378884594655 12.04884792654775,247.81207459012512 14.338248847983778,243.71179967571516 18.17050691251643,240.19725357566494 22.40092165907845,239.20146136113908 25.785253456328064,239.43576557654887 30.96129032270983,241.60307475668378 33.748387096915394,246.52342010993743 34.395391705213115,253.14238550089067 33.051612903364,256.7739958104212 28.771428571548313,260.8155979659059 28.6221198157873,265.5600489132921 19.31520737358369,265.97006123891333 18.668202765053138,265.6186221218668 18.12073732726276,261.049892816809 14.736405530013144,258.29692190804053 12.247926267329603,253.90385419939412 11.849769585300237,249.56932575051906 12.894930875860155,245.7619410190382 17.62304147472605,240.19725357566494 20.06175115215592,239.20146136113908 26.13364055310376,239.49434161453974 29.8165898618754,240.9001646231627 33.051612903364,244.64900811144616 34.49493087595329,249.45217585080536 33.99723502318375,254.37244978867238 31.55852534575388,258.3554959030589 28.721658986294642,260.93274540407583 28.6221198157873,265.325756016362 24.491244239732623,265.5600489132921" stroke="#4DD2FF" stroke-linecap="round" stroke-linejoin="round" stroke-width="0.5"><title>2020-04-07 10.0km</title><desc>1586257895000</desc></polyline><polyline fill="none" points="80.19999999995343,237.78276802401524 76.84301412873901,238.50113038922427 68.50141287292354,243.58950374473352 70.9428571430035,249.0968668164569 70.6376766092144,253.76610990980407 68.39968602801673,258.07614544511307 65.09356357925572,260.82976166304434 64.83924646768719,266.09751098405104 54.92087912093848,265.85806892241817 54.25965463090688,261.1290669468581 50.44489795900881,257.95642268972006 48.308634222717956,253.64638622076018 48.00345368892886,249.03700446937 50.648351648356766,242.75142194418004 54.10706436401233,239.39908203284722 57.10800627921708,238.620857359434 62.14348508603871,239.09976498037577 67.07723704841919,241.3147073292639 70.79026687610894,248.85741738934303 70.17990580853075,254.9034836628125 67.89105180511251,258.3754522203235 65.04270015703514,260.8896227327641 65.09356357925572,265.85806892241817 55.0734693876002,266.1573714832193 54.157927786232904,261.1290669468581 49.478492935420945,256.40002450864995 48.05431711138226,252.6287338162074 48.41036106739193,247.1214059398626 50.75007849279791,242.75142194418004 56.345054944977164,239.15962840378052 61.227943485137075,238.8603112217388 67.33155416022055,241.13511773984646 70.43422292009927,248.2587933675386 69.82386185252108,255.26265383540886 67.53500784910284,258.97406528436113 65.09356357925572,261.0093448527041 64.78838304546662,265.738347852428 55.22605965449475,266.21723197604297 54.463108320022,261.368511057226 50.34317111456767,257.89656130218646 48.308634222717956,253.52666250563925 48.41036106739193,247.1214059398626 50.34317111456767,243.3500519314548 54.157927786232904,239.8181256338721 58.023547880584374,238.620857359434 61.78744113026187,238.7405843034503 67.84018838289194,242.2126544014318 70.28163265320472,246.64250527013792 70.43422292009927,253.70624806848355 68.0945054946933,258.016284070618 64.8901098901406,261.0692059030989 64.78838304546662,265.7982083905954 55.175196232274175,266.09751098405104 54.41224489780143,261.1290669468581 49.783673469442874,257.0585011970834 48.10518053337,252.92804354138207 48.20690737804398,248.01934357749997 50.69921507057734,242.93101100850618 54.666562009369954,239.4589454238885 61.02448979602195,238.56099387747236 67.1281004708726,241.6140231821919 69.6712715853937,244.846624062513 70.58681318676099,247.8996186432778 70.84113029856235,252.08997590222862 70.0273155416362,255.08306877827272 67.84018838289194,258.49517488497077 64.8901098901406,261.0692059030989 64.83924646768719,265.91792944748886 55.27692307694815,266.09751098405104 54.463108320022,261.54809407214634 49.93626373610459,257.0585011970834 48.05431711138226,252.56887185160303 48.35949764493853,247.24113104265416 50.44489795900881,243.11060001439182 53.44583987421356,240.2371689171414 56.24332810053602,239.15962840378052 62.65211930917576,238.92017467116239 66.05996860284358,239.9977156512905 68.80659340624698,243.5296408010763 70.6376766092144,247.66016869753366 70.53594976454042,254.3647279664292 67.73846153845079,258.7944814332295 65.04270015703514,261.30865003954386 64.5849293563515,265.91792944748886 55.1243328100536,266.21723197604297 54.25965463090688,261.1889279842726 50.39403453678824,257.716977100994 48.35949764493853,253.88583357300377 47.800000000046566,250.29411239590263 49.22417582408525,245.20580077089835 53.90361067466438,239.9977156512905 57.9218210359104,238.8004477658542 61.4313971742522,238.92017467116239 66.36514913639985,240.47662207914982 68.90832025115378,243.3500519314548 70.89199372055009,249.15672915702453 70.89199372055009,252.38928591937292 69.56954474071972,256.4598860582919 64.94097331236117,261.30865003954386 64.73751962324604,265.9777899660985 57.870957613689825,265.7982083905954" stroke="#4DD2FF" stroke-linecap="round" stroke-linejoin="round" stroke-width="0.5"><title>2020-04-02 10.0km</title><desc>1585825459000</desc></polyline><polyline fill="none" points="116.19999999995343,237.6218277513981 115.76281859050505,238.87959327740828 109.88515742123127,240.59472325496608 103.61889055464417,244.53950105176773 105.70764617668465,248.42707931017503 106.1934032982681,252.48613781738095 104.54182908521034,257.28836390870856 100.46146926516667,261.63319748680806 99.87856071954593,266.3210041318089 90.55202398775145,266.0923316028784 89.87196401786059,261.4045229269541 85.74302848568186,257.6885474441224 84.18860569712706,254.02971525443718 84.09145427285694,249.7991589177982 85.062968515791,246.3117829269031 87.92893553199247,242.76721322536469 92.88365817070007,240.13735580584034 98.08125937008299,240.4803814298357 101.04437781102024,241.5666277682758 103.18170914542861,243.39609023201047 105.56191904027946,248.8844395756023 105.85337331332266,253.6866984362714 104.25037481239997,257.80288554157596 100.17001499258913,261.461691576289 100.02428785618395,266.3781722486019 90.50344827561639,266.26383600884583 90.06626686616801,261.5760288561578 86.52023987984285,258.77475836809026 84.67436281847768,255.9163037695689 83.89715142408386,249.45613935025176 86.37451274343766,244.13930754660396 92.5922038978897,240.19452675868524 97.49835082446225,240.36603958008345 101.23868065956049,241.6237985661137 103.47316341800615,243.73911373812007 105.56191904027946,248.7700995465275 105.95052473759279,253.00066413119202 103.9103448272217,258.08873067615787 100.36431784089655,261.4045229269541 100.17001499258913,266.3210041318089 90.45487256371416,266.0923316028784 90.06626686616801,261.74753472948214 85.35442278836854,257.05968746665167 83.89715142408386,250.9425558662042 85.16011993982829,246.02593141398393 89.92053972999565,241.28077368531376 94.68095951993018,240.02301388175692 101.53013493260369,241.85248169623083 105.12473763106391,246.94065571011743 106.04767616163008,252.48613781738095 104.93043478229083,256.6595034544007 100.17001499258913,261.5760288561578 100.12143928022124,266.26383600884583 90.60059970011935,266.26383600884583 89.77481259359047,261.461691576289 86.52023987984285,258.6604204814066 84.43148425780237,255.5732881774311 83.89715142408386,250.0850083871046 86.56881559221074,244.13930754660396 92.25217391294427,239.73715896281647 96.86686656670645,240.25169770530192 102.98740629665554,243.68194316909648 105.8047976011876,248.8272695640917 105.99910044972785,253.17217279132456 103.5703148425091,258.6604204814066 100.31574212899432,261.4045229269541 99.97571214381605,266.206667879771 90.64917541225441,266.3210041318089 89.92053972999565,261.34735427156556 86.52023987984285,258.71758942771703 84.7715142427478,256.2021499259863 83.94572713645175,250.0278385055717 86.0830584706273,244.76818291842937 90.16341829067096,240.8234068308957 93.70944527722895,240.02301388175692 98.71274362807162,240.8234068308957 101.14152923529036,241.5666277682758 103.13313343306072,243.73911373812007 105.8047976011876,249.05594957305584 106.09625187399797,253.40085091762012 103.76461769104935,258.3174066725187 100.36431784089655,261.63319748680806 99.97571214381605,266.26383600884583 90.55202398775145,266.26383600884583 90.06626686616801,261.5760288561578 86.42308845580555,258.3174066725187 84.04287856048904,253.51518994371872 83.80000000004657,250.1421782624675 85.0143928034231,246.254612636636 89.53193403291516,241.22360285022296 94.04947526240721,239.96584291028557 99.63568215887062,241.16643200896215 103.18170914542861,243.91062540729763 105.85337331332266,249.34179944486823 105.95052473759279,253.85820687317755 103.52173913014121,258.60325152875157 100.41289355326444,261.34735427156556 100.17001499258913,266.0351634552353 99.14992503728718,266.206667879771" stroke="#4DD2FF" stroke-linecap="round" stroke-linejoin="round" stroke-width="0.5"><title>2020-03-23 10.0km</title><desc>1584960411000</desc></polyline><polyline fill="none" points="144.2612828743877,235.79999999998836 144.74097026721574,240.09720757746254 145.4605013562832,242.3242024696956 145.40720275696367,251.79658090719022 144.28793217404746,251.5456609709363 143.7549461821327,253.08254216777277 141.09001622267533,253.96075633200235 137.35911427938845,256.12491558137117 138.53168346150778,258.50860849858145 138.69157925923355,261.08046569136786 137.81215237244032,263.4327540988161 135.41371540899854,265.6282060391095 135.46701400820166,267.94909427763196 130.29704988677986,268.1059103795269 129.8973103928147,265.5027520909789 128.11180732003413,263.99730047315825 126.83264093939215,261.7704722713679 126.53949864383321,259.91999637158005 126.83264093939215,257.84995847026585 127.92526222276501,256.03082203731174 130.9632823765278,253.58437915920513 133.5482644373551,253.6471087219834 136.29314229555894,254.5253211739182 137.30581568030175,255.46626013086643 138.63828066003043,258.28905865564593 138.74487785832025,260.5472776625247 137.73220447381027,263.4641178151069 135.5736112066079,265.37729808842414 135.28046891104896,268.01182072851225 130.2704005871201,268.20000000001164 129.84401179361157,265.5341155830829 128.03185942117125,263.9345731525682 126.88593953859527,261.7704722713679 126.69939444144256,258.571336994617 127.95191152242478,256.1876445936796 130.83003587869462,253.61574394232593 134.21449692721944,253.74120304067037 136.6928817895241,254.80760318198008 138.3984369636746,257.5990437796572 138.74487785832025,260.7668257933401 137.73220447381027,263.4641178151069 135.54696190694813,265.56547907189815 135.46701400820166,268.0431839489611 130.21710198791698,268.1059103795269 129.87066109327134,265.47138859538245 128.05850872094743,263.7463911093073 126.83264093939215,261.7704722713679 126.72604374098592,258.6654297131754 127.84531432401855,256.09355107005103 131.3363725708332,253.58437915920513 135.49366330786142,254.05485054876772 137.3324649798451,255.46626013086643 138.42508626321796,257.5990437796572 138.74487785832025,260.641369738878 137.81215237244032,263.33866292933817 135.5736112066079,265.56547907189815 135.49366330786142,268.07454716594657 130.21710198791698,268.16863679661765 129.84401179361157,265.37729808842414 127.84531432401855,263.5582089437521 126.9392381379148,261.9586555987771 126.7526930407621,258.25769437881536 127.97856082196813,256.03082203731174 130.85668517823797,253.80393256948446 133.78810813371092,253.80393256948446 136.506336692255,254.71350920994882 137.35911427938845,255.40353096206672 138.61163136037067,258.3831514659105 138.79817645752337,260.7981897983118 137.59895797574427,263.5582089437521 135.5736112066079,265.59684255713364 135.46701400820166,268.07454716594657 130.19045268837363,268.07454716594657 129.84401179361157,265.44002509649727 127.04583533620462,262.1154749447305 126.67274514189921,260.73546178478864 126.77934234018903,258.10087294343975 128.11180732003413,255.8739993959316 131.20312607300002,253.92939158630907 134.88072941708378,254.14894473494496 137.43906217813492,255.4976247099985 138.47838486242108,257.50495071464684 138.77152715798002,260.8609177984181 137.6522565749474,263.7463911093073 135.626909805811,265.47138859538245 135.626909805811,268.0431839489611 130.1371540891705,268.07454716594657 129.9506089920178,265.47138859538245 127.44557483005337,262.96229794589453 126.64609584223945,260.9236457848165 126.7526930407621,258.006780041469 127.97856082196813,255.8739993959316 130.61684148188215,254.11758000968257 133.0419277451001,253.83529732882744" stroke="#4DD2FF" stroke-linecap="round" stroke-linejoin="round" stroke-width="0.5"><title>2019-12-13 10.0km</title><desc>1576239112000</desc></polyline><polyline fill="none" points="179.27155028353445,236.98812091293075 178.89635972835822,235.79999999999563 179.3251489342656,240.43674348013155 179.2090185242705,240.8783265441889 178.8159617522615,240.84678496335982 178.69983134232461,241.3935042463272 178.04771442495985,241.50915600773442 176.52015287894756,242.41333775556996 176.92214275948936,243.29648388955684 176.96680830180412,244.10602745357755 176.7702799157123,244.67375527591503 175.93056772078853,245.53585413812107 175.88590217853198,245.93536077075987 176.04669813078362,250.34033805301442 176.9936076271115,250.6977737428315 177.55639345990494,251.086746380548 178.95889148750575,251.2549502817492 179.1018212228082,251.4652047484633 179.36088136810577,262.3767866044145 179.57527597103035,264.3108889840223 179.51274421188282,267.88467247576045 179.1196874397574,268.0318254478043 174.55486901849508,267.9792708405075 172.78611354419263,268.1999999999971 171.74987296323525,268.0843800266448 171.4997459264123,266.1188194212227 171.3032175404369,257.23651207523653 167.9443687608,256.752954865442 167.78357280854834,256.5427118491789 167.14038899971638,256.44810234335455 166.93492750520818,255.72275973600335 167.1225227828254,255.38636712242442 167.0242585897795,255.1656088363452 166.17561328643933,254.42974425774446 165.3984328507213,254.66101658339903 164.9785767532885,254.52435573028197 164.60338619811228,253.98822283360641 164.42472402896965,253.25234933148022 164.45152335433522,247.92235617638653 164.6748510657344,246.52410439035884 164.90711188560817,245.97741400486848 164.85351323487703,245.38866706952103 165.93441935809096,238.20776972902968 167.3279842772754,238.18674143102544 170.32057561021065,238.4285665830539 170.4724384539295,238.55473598834214 176.00203258846886,239.57459932651545 177.96731644886313,240.1213257757554" stroke="#4DD2FF" stroke-linecap="round" stroke-linejoin="round" stroke-width="0.5"><title>2019-11-23 10.0km</title><desc>1574497580000</desc></polyline></svg>