<?xml version="1.0" encoding="utf-8" ?>
<svg baseProfile="full" height="300mm" version="1.1" viewBox="0,0,200,300" width="200mm" xmlns="http://www.w3.org/2000/svg" xmlns:ev="http://www.w3.org/2001/xml-events" xmlns:xlink="http://www.w3.org/1999/xlink"><defs /><rect fill="#222222" height="300" width="200" x="0" y="0" /><text fill="#FFFFFF" style="font-size:12px; font-family:Arial; font-weight:bold;" x="10" y="20">Over 10km Runs</text><text fill="#FFFFFF" style="font-size:4px; font-family:Arial" x="10" y="280">Runner</text><text fill="#FFFFFF" style="font-size:9px; font-family:Arial" x="10" y="290">Floyd Li</text><text fill="#FFFFFF" style="font-size:4px; font-family:Arial" x="65" y="280">SPECIAL TRACKS</text><rect fill="yellow" height="2.6" width="2.6" x="65" y="283" /><text fill="#FFFFFF" style="font-size:3px; font-family:Arial" x="70" y="285.5">Over 20.0 km</text><rect fill="red" height="2.6" width="2.6" x="65" y="287" /><text fill="#FFFFFF" style="font-size:3px; font-family:Arial" x="70" y="289.5">Over 40.0 km</text><text fill="#FFFFFF" style="font-size:4px; font-family:Arial" x="120" y="280">STATISTICS</text><text fill="#FFFFFF" style="font-size:3px; font-family:Arial" x="120" y="285">Number: 34</text><text fill="#FFFFFF" style="font-size:3px; font-family:Arial" x="120" y="290">Weekly: 1.9</text><text fill="#FFFFFF" style="font-size:3px; font-family:Arial" x="141" y="285">Total: 559.4 km</text><text fill="#FFFFFF" style="font-size:3px; font-family:Arial" x="141" y="290">Avg: 16.5 km</text><text fill="#FFFFFF" style="font-size:3px; font-family:Arial" x="167" y="285">Min: 10.0 km</text><text fill="#FFFFFF" style="font-size:3px; font-family:Arial" x="167" y="290">Max: 62.1 km</text><polyline fill="none" opacity="1" points="16.758061829015787,39.560881987526045 16.83147295397066,39.52366628360596 17.07041896854207,39.52366628360596 17.29784951252077,39.560881987526045 17.371260637475643,41.183062633026566 17.397170446289238,41.35389776532975 17.709527585815522,42.31798199511468 17.928321526866057,43.195754592011326 18.128402828217077,43.82149701925664 18.257951872255944,44.08024268558529 18.676827114664775,44.68903921104902 18.75743540872645,44.90211242267651 18.796300121946842,45.12532887904763 18.8006184234182,45.29443014429944 18.771829746961885,45.50749514787185 18.571748445610865,46.07903620819252 18.512731658876874,46.3681807211733 18.499776754477352,46.866984776259415 18.658114474972535,48.324416449887394 18.91721256305027,49.462201335797545 18.892742188065313,49.62956542124266 18.783345217540045,49.91357312699256 18.76463257785508,50.123194572552165 18.849559173388116,51.01743532719047 18.99206312183378,51.43157497471748 19.0179729306401,51.570182544081945 18.953198408620665,52.80069376377651 19.0078968938833,52.99337499322792 19.072671415902732,53.10661636939858 19.392225724543096,53.395631710098314 19.490107224490202,53.559573725221526 19.50450156271836,53.738724902270405 19.41237779806397,54.130822249082485 19.43252987157757,54.284616386024936 19.488667790661566,54.42826889278058 19.203659893770237,54.66656015980152 18.90425765865075,54.98934612305311 18.6264469308735,55.2360785738565 18.213329423757386,55.8343042143797 17.978701710650057,56.22634936592385 17.90960888716654,56.305771116925825 17.699451549058722,56.457854202871204 17.62891929174657,56.56769107357832 17.64763193143881,56.61162560732373 17.797333048998553,56.66569871132742 18.111129622346198,56.679216958321376 18.137039431159792,56.70118408491726 18.14279716643796,56.83636572787327 18.16438867378747,56.85833263523364 18.386061482480727,56.95126921190058 18.54583863679727,56.94113070291951 18.731525599920133,56.80257042593621 19.213735930534313,56.54403396616908 19.199341592306155,56.511927834972084 18.951758974799304,56.46799302303589 18.928728033635707,56.39533133424811 18.96183501156338,56.2838034386441 19.186386687899358,56.304081296604636 19.235327437869273,56.09454217157145 19.27131328343239,56.079333578137266 19.387907423079014,56.09116248540977 19.419574967170774,56.118199954379634 19.385028555429017,56.38181284352504 19.405180628949893,56.42912751028052 19.963680952147115,56.24831712436844 20.231415643182117,56.2331086794793 20.779839929629816,56.14861705146086 21.13969838529738,56.300701655428384 21.329703649898875,56.349706381533 21.5038751424363,56.36322489982558 22.08108810534759,56.53051560311724 22.70436295057152,56.85157359007826 22.98649197982013,56.910715136807084 23.222559126734268,57.00196165887883 23.73643700144021,57.035756532875894 23.830000199915958,56.96647696312539 23.858788876372273,56.85664287421423 23.942276038091222,56.78736251640203 24.447517309854447,56.562621696408314 24.479184853953484,56.57614003189519 24.303573927587422,56.22634936592385 24.19417695705488,56.15030688846764 24.067506780658732,56.133408510268055 24.07182508213009,55.89175971780969 24.10925036151457,55.84444343610721 26.684397470329714,55.12961230572546 26.970844801042404,55.0941233896674 27.255852697926457,55.09750328988321 30.167827321245568,55.33747435024543 30.52192804162769,55.340854198206216 31.02572987957683,55.26987723855473 31.650444158622122,55.07553392551199 32.00454487901152,55.006245729356124 34.95394478170783,54.80344925621284 35.32963700943219,54.72739990517948 35.690934898935666,54.58882014292976 36.00041317081195,54.40798861836902 36.3041337074028,54.154482983349226 36.88278610412817,53.48689860966988 37.364996434720524,53.003516045211654 37.772356206551194,52.52856976269504 38.08327391225612,52.07220217761278 38.44313236793096,51.260849338836124 38.58419688255526,51.06814689022394 38.80155138977716,50.90925011298896 39.912794300900714,50.24490896856423 40.122951639008534,50.04712259672942 40.21795427131292,49.88821550463581 40.27841049186827,49.705639416749364 40.4022018006217,49.22383123010695 40.49576499909017,48.68114538496775 40.56629725640232,48.41402210940487 40.792288366566936,47.79522544361316 41.10320607227186,47.123989500584685 41.353667557414155,46.74017168649971 41.789816005693865,46.26503621278971 42.02732258643664,45.94714396206382 42.1957363436959,45.617408504414925 42.43900065973139,44.92578704562948 42.4936991450013,44.93762434373275 42.51241178469354,44.993428628965376 42.561352534663456,44.97482722257064 42.57142857142753,45.02048518077481 42.50953291705082,44.993428628965376 42.4936991450013,44.912258694024786 42.41596971856052,44.90380346835809 42.13528012314782,45.66982844989616 42.06186899818567,45.806795869281814 42.01436768202984,45.828778183452414 41.512005277916614,45.608953658129394 40.56629725640232,45.34346917087714 40.20499936690612,45.27921110493935 38.46472387526592,45.20311568705438 36.39913633969991,45.01879414765335 34.74378744359274,45.010338979303924 33.92762846612459,44.881819860330324 32.407586349363555,44.49794728602683 31.840449423223617,44.388026099320086 31.362557394080795,44.35082183118175 30.28730032853491,44.3981727026121 30.029641674263985,44.37111507926602 29.43803437313909,44.191857147747214 28.420354660491284,43.94495136542446 28.27641127822426,43.8688494858925 28.192924116512586,43.79105607248766 28.106558087150916,43.657453441971484 27.94534149899846,42.9217730352766 27.720789822662482,42.48711347800236 27.64881813152897,42.392400071944394 27.48616210956243,42.30783404823251 27.257292131755094,42.257094215469806 27.18532044062158,42.155614058221545 27.10903044801671,42.13193526052601 26.972284234863764,42.19958887352368 26.904630845194333,42.143774663836666 26.812507080539945,42.170836123600566 26.694473507079238,42.295994768578566 26.436814852822863,42.32982125819308 26.085593000083463,42.338277869213016 25.85816245609749,42.27400751126788 25.646565684161033,42.10149103960339 25.46951532397361,41.57716464186251 25.286707228486193,41.28793194438822 25.072231588907016,41.16107381763959 24.58858182447875,41.020682962847786 24.297816192294704,40.90904596565633 24.25319374378887,40.89889710837997 24.21720789822575,40.9208862908572 24.16538828060584,40.88705676659811 23.99697452334658,40.8616845755696 23.580978148587747,40.71114206563652 23.080055178288603,40.662088576504175 22.934672362200217,40.619800962886075 22.882852744580305,40.628258494719375 22.82959369313903,40.591045320576086 22.61799692120985,40.592736830406466 21.24045875287993,40.36438135543176 19.07555028355273,39.525357908426486 18.899939357186668,39.50675002539265 17.361184600718843,39.48306723327096 16.693287306996353,39.49829188945114 16.42267374831863,39.477992344595805 16.23266848372441,39.410327005528416 16.098801138214185,39.330819859473195 15.541740248831047,38.840234944726944 14.420421300957969,38.344559443416074 13.156598404624674,38.09248637591554 12.698858449002728,37.8488682895204 12.085659640542872,37.41406828041727 11.717164581932593,37.24995775283878 11.714285714282596,37.277027648767216 12.091417375828314,37.44621344050938 12.727647125459043,37.89623876911901 13.086066147312522,38.085719257899655 13.230009529586823,38.13985612028955 14.354207345109899,38.35132644984151 14.52693940383324,38.40546239619289 15.540300815016963,38.865610402495804 16.03114774855203,39.30882845012002 16.14630245436274,39.388335707542865 16.344944321899675,39.476300714674835 16.58964807175653,39.520283033424676 16.6429071231978,39.56257360833479 16.618436748212844,39.5574987453565 16.596845240870607,39.53550765350974 16.736470321666275,39.560881987526045 16.825715218670666,39.52366628360596 17.02867538767896,39.52366628360596 17.0473880273712,39.46107603717155 17.080495005291596,39.154887722082094 17.0473880273712,39.022937325197745 16.93367275538185,38.85038513275504 16.749425226073072,38.85546022431208" stroke="red" stroke-dasharray="none" stroke-linecap="round" stroke-linejoin="round" stroke-width="0.5"><title>2026-06-06 62.1km</title><desc>1780699923000</desc></polyline><polyline fill="none" opacity="1" points="73.88787757657701,31.714285714289872 73.83674276125384,31.86475160336704 74.1307679496822,38.19921763938328 73.5043664611294,38.66563958581537 73.45323164574802,39.478112784112454 71.86805236863438,40.00471324456157 70.5641145760892,40.87736104067881 71.02432791463798,42.502276810773765 70.93484198773513,43.224455496048904 70.46184494532645,44.41303307389899 69.45193234138424,45.466194581473246 69.40079752594465,46.59457305066462 69.66925530682784,52.22128354529559 72.11094274173956,53.48500536507345 73.73447313037468,53.620403449749574 73.95179609581828,53.89119922317332 74.14355165354209,60.99187780272041 73.99014720739797,61.78917710162932 71.38227162242401,62.330736280520796 66.76735453336732,62.57142857143481 58.867025555402506,61.60865690630453 53.242195862403605,61.518396720683086 52.99930548929842,55.95223864707805 53.01208919310011,54.46287745598238 53.19106104696402,54.22217111836653 64.05720931763062,53.86111082996649 66.88240786798997,52.29650540393777 66.94632638723124,46.82024764464586 66.613950087165,45.39096902431629 65.9747648947523,44.84934381007042 65.32279599853791,43.87140404652746 65.11825673701242,42.44209508423228 65.55290266784141,41.17827280261554 66.21765526791569,40.441037827928085 66.8312730526086,40.06489602722286 68.0585086219944,39.809119020879734 68.79996344516985,39.914439021697035 69.9632804953144,40.50122042154544 70.89649087615544,42.096049650310306 70.73030272620963,43.91653987947211 69.41358122986276,45.57151029311353 69.57976937980857,51.995617724984186 69.745957529929,52.266416665384895 72.08537533407798,53.4549168839294 73.721689426573,53.6354476732522 73.95179609581828,53.86111082996649 74.06684943044093,61.66883033080376 73.58106868417235,61.99978369977907 72.00867311097682,62.270563142650644 67.53437676420435,62.55638531547447 63.94215598300798,62.34577956095745 58.80310703616124,61.60865690630453 53.242195862403605,61.548483455742826 53.07600771234138,54.252259433371364 63.801535240665544,53.89119922317332 65.01598710624967,53.46996112533088 66.93354268337134,52.19119479043002 66.74178712564753,45.61664557363838 65.48898414854193,44.15726407416514 65.11825673701242,43.04391117673367 65.43784933316056,41.37386509831413 65.83414415246807,40.787087384975166 66.8184893487487,40.06489602722286 67.80283454502933,39.83921045783791 68.95336789131397,39.95957614047802 69.87379456835333,40.45608347875532 70.32122420304222,40.93754344522313 71.1905160647002,42.71291264849424 73.60663609195035,42.87841201122501" stroke="#4dd2ff" stroke-dasharray="none" stroke-linecap="round" stroke-linejoin="round" stroke-width="0.5"><title>2026-06-05 14.5km</title><desc>1780659860000</desc></polyline><polyline fill="none" opacity="1" points="108.63047166611068,36.79460766281409 112.46929080423433,36.12585850328469 113.30302002036478,38.32624202254374 113.44044791319175,40.03042718287179 113.38547675602604,42.24150998528785 115.36443841195432,50.01765966102539 115.38276213099016,51.225550707364164 115.01628775027348,52.02361353296146 111.83712249743985,55.88442168827896 111.50729555479484,56.52068575072917 111.22327790979762,57.72849786532606 96.02375296910759,57.67457799420663 89.20732948760269,58.159855782432714 88.12623006443027,55.14031109869393 87.10926365794148,53.576582307287026 85.2952154733357,51.462813297061075 84.76382762129651,50.287279469368514 84.57142857142026,49.208795852529875 84.66304716659943,48.19501059383765 85.03868340683402,47.17042989052425 86.77027485577855,44.937885920197004 87.4390906005865,43.75148951234587 88.49270444520516,37.42020764483459 88.66677977604559,37.204483957561024 108.09908381401328,36.82696637906338 112.53342382080154,36.17979005379311 113.34882931795437,38.585107471837546 113.45877163216937,42.672935045957274 115.42857142852154,50.5784680417637 115.30946725484682,51.462813297061075 115.04377332882723,51.96969057068782 111.73634204274276,55.927558363444405 111.21411605022149,57.750065805572376 96.03291482862551,57.66379401648737 89.17068204953102,58.149071857311355 88.70342721411726,56.488333438916015 88.0254496097914,54.967762920881796 87.39328130299691,53.95403633427486 85.36851034947904,51.592229016641795 84.81879877840402,50.4921900350746 84.58059043093817,49.208795852529875 84.66304716659943,48.18422558875318 85.03868340683402,47.15964477439411 86.81608415336814,44.88395911769476 87.604004071909,43.2445703695339" stroke="#4dd2ff" stroke-dasharray="none" stroke-linecap="round" stroke-linejoin="round" stroke-width="0.5"><title>2026-06-04 19.5km</title><desc>1780570902000</desc></polyline><polyline fill="none" opacity="1" points="127.65891932582599,47.75348131602368 127.76633413723903,47.64517969486769 128.2036658693978,47.65420483535854 127.80469656985952,47.65420483535854 127.7816791102814,47.53687793325662 129.43126371403923,47.50980247087864 135.8761523985013,58.51074234316911 135.7610651005525,58.50171837613016 135.70735769483144,62.47216970658337 134.88640163623495,62.57142857142753 124.33673265873222,62.52631092019146 124.04517817060696,62.50826385290566 123.91474589961581,62.318769410696405 123.9531083322654,53.18643233846524 141.76094956632005,53.159358708209766 144.4386473649356,53.57448674100306 146.8017732159351,53.2315550360654 148.55877263110597,53.29472677176091 148.84265463266638,53.11423597156681 148.94239695751457,52.879597348030074 148.9040345248941,52.37421961160726 148.5664451176417,50.352678075076255 146.10357694179402,38.231426887141424 145.97314467077376,38.09603439432249 145.5818478578003,38.16824375116266 145.4974505059945,38.06895586942119 145.38236320807482,36.98580766785744 143.83252092916518,31.714285714282596 145.81202245366876,38.7459163567255 148.57411760417745,52.86154819584044 148.505065225414,52.99691674220958" stroke="#4dd2ff" stroke-dasharray="none" stroke-linecap="round" stroke-linejoin="round" stroke-width="0.5"><title>2026-06-02 16.9km</title><desc>1780401150000</desc></polyline><polyline fill="none" opacity="1" points="184.68999490397982,55.770651755534345 184.3689485306386,56.52643938107212 184.11211143195396,57.7464844510032 168.9128588415333,57.66011007016641 162.0149481908884,58.18915197761089 161.10684559197398,55.3711616945875 160.12536096479744,53.76238820844446 158.16239171056077,51.462552810349735 157.67623577365885,50.479977838629566 157.42857142857974,49.184259762987494 157.60285374551313,47.83453551281127 157.98810939351097,46.94910647109646 159.7401053167996,44.73549943305261 160.36385255644564,43.47210165829165 161.34533718356397,37.4248476422581 161.51044674706645,37.17647043053876 180.9566842194181,36.79850391976652 185.3412604042678,36.09656230809924 186.1117717003217,37.997192771763366 186.2952267708024,42.42465716457082 188.28571428568102,50.50157299710554 188.23067776451353,51.23580560010305 187.94632240524516,51.91604568261391 184.70834041107446,55.74905773912906 184.0754204178229,57.7464844510032 168.903686087986,57.66011007016641 162.05163920501946,58.16755848534376 160.89587226090953,54.98246712483524 160.15287922538118,53.84876596832328 158.8503482248634,52.43432072322321 157.96059113298543,51.18181809303496" stroke="#4dd2ff" stroke-dasharray="none" stroke-linecap="round" stroke-linejoin="round" stroke-width="0.5"><title>2026-05-28 19.4km</title><desc>1779966212000</desc></polyline><polyline fill="none" opacity="1" points="39.49091071949806,84.81245325643977 40.841749680170324,84.79207241776749 41.11884485161863,85.05702314789232 41.29202933370834,95.75664483505534 40.66856519802241,96.14385783567559 36.91046193562215,96.69410651906219 31.97470419452293,96.85714285714494 27.766321278526448,96.61258829713915 20.631120614358224,95.5732278725045 13.097595641214866,95.51208884535299 12.803182021598332,87.93069556844421 12.976366503746249,85.62768499217054 27.835595071373973,85.05702314789232 31.662972126796376,83.01893100830785 31.42051385162631,74.09182738690288 29.740624374942854,72.13514535618015 29.16911558387801,70.52494384169404 29.18643403216265,69.79117655633308 30.052356442785822,67.52870941445872 31.264647817763034,66.52995400343207 32.805989708867855,66.06114861504466 35.36912004451733,66.65225086922874 36.23504245525692,67.52870941445872 36.962417280185036,68.91472854897438 37.11828331416473,69.9542362003267 36.80655124626355,71.60520713828737 35.04006952844793,74.03068138140952 35.24789090704871,82.69283421788714 38.278619344579056,84.4455978233018 40.87638657662319,84.79207241776749 41.153481747955084,85.09778476557403 41.48253226408269,95.28791224228917 41.27471088554012,95.87892271079181 37.11828331416473,96.65334741250263 31.230010921368375,96.8367633226444 27.714365933905356,96.59220873609593 20.509891476947814,95.5324685232772 13.66910443227971,95.61398721300066 13.097595641214866,95.3286716445582 12.907092710898723,85.72958871080482 13.790333569806535,85.48501969326753 27.66241058934247,85.07740395786823 31.662972126796376,82.95778790314216 31.455150748195592,73.96953535600915 29.740624374942854,72.05361649669067 29.238389376783744,69.48543934291229 30.294814717839472,67.28411674268136 31.697609023132827,66.32612571724167 32.70207901962567,66.10191434735316 34.05291798023973,66.18344578548567 35.4037569409702,66.7133992723102 36.00990262848791,67.18220303564158 36.89314348739572,68.77205058000982 37.100964865938295,70.44341428455664 36.771914349868894,71.72750070563052 35.04006952844793,73.8472432456474 35.24789090704871,82.71321528381668 38.243982448009774,84.40483606442285 41.20543709269259,85.03664233571908 41.447895367688034,95.38981073132891 41.20543709269259,95.96044125045591 37.7071105533978,96.61258829713915 32.40766539989272,96.85714285714494 27.402633866062388,96.57182917289902 20.544528373284265,95.5732278725045 13.149550985952374,95.5324685232772 12.924411159066949,85.70920797149302 15.643407528696116,85.40349661678192 27.97414265712723,85.03664233571908 31.680290574906394,82.87626373200328 31.403195403516293,73.94915334314283 29.49816609994741,71.50329577145749 29.255707825010177,70.66762048153032 29.342300066025928,68.95549366307387 30.589228337456007,66.99875822391186 31.33392161061056,66.46880554077507 33.41213539632736,66.0 35.02275108033791,66.48918836384837 35.802081249887124,67.05990651437605 36.737277453474235,68.26248552207835 37.100964865938295,69.36314431852952" stroke="#ffcd00" stroke-dasharray="none" stroke-linecap="round" stroke-linejoin="round" stroke-width="0.5"><title>2026-05-27 20.2km</title><desc>1779879632000</desc></polyline><polyline fill="none" opacity="1" points="48.631920710846316,85.39935907729523 48.18899521534331,84.08503731056408 48.14285714284051,82.80328543217183 48.70574162679259,81.1739161579244 50.431305536592845,79.05569649284007 51.077238550933544,77.77388028206042 52.19377990427893,71.4188712910618 72.04237867397023,71.01691699712683 76.13021189335268,70.33250462356227 76.75768967880867,71.83168753587961 77.00683526997454,72.87458415647416 77.11756664392306,77.45885514379188 78.27101845527068,81.18477870745846 79.0,84.1936595976149 78.79699248127872,85.03004726424842 78.76930963777704,86.19228866634512 75.49350649357075,90.18942723840155 74.93062200956047,92.07932312567573 59.40977443609154,92.00329351926484 52.82125768967671,92.52463823357539 52.66438824334182,92.39430230919243 52.28605604922632,90.80853498815122 51.65857826382853,89.34222096278972 50.90191387559753,88.18001608853228 49.5269993164693,86.68107775319368" stroke="#4dd2ff" stroke-dasharray="none" stroke-linecap="round" stroke-linejoin="round" stroke-width="0.5"><title>2026-05-26 19.0km</title><desc>1779792854000</desc></polyline><polyline fill="none" opacity="1" points="101.70570125739323,66.22071299528761 103.87194185424596,67.62524408806348 105.15121779724723,69.89253613635083 105.21944584761513,72.11967215372715 104.46893729432486,74.84837894978409 104.34953820629744,76.29297218863212 104.74184949550545,79.10187130016857 105.78232726245187,81.16839136273484 107.67565565812401,83.335203223789 109.46664197841892,86.18412106846517 110.64357584598474,89.33393004442041 111.01883012254257,91.78151540517865 99.45417559763882,96.83708136172208 97.11736487504095,93.50684307144547 92.22200226644054,88.63174795928353 89.95341959415236,84.4988510060357 89.20291104086209,81.69003356693429 88.96411286486546,78.33946003018355 89.69756440550555,73.82511860263185 91.07918242400046,70.57472478294221 92.87016874423716,68.54821587541664 95.65046179364435,66.7825267080334 98.66955301928101,66.0 101.48396009393036,66.14045375467686 103.75254276616033,67.5048561252479 105.01476169668604,69.43105415931495 105.27061688527465,71.95915873984632 104.38365223148139,75.69105970553937 104.62245040747803,78.68053914337361 105.6970421996084,81.06807538618159 109.3472428903915,85.74274229290313 110.43889169511385,88.65181034145644 110.98471609741682,91.88182559222332 102.43915279809153,95.37258633993042 99.52240364794852,96.85714285714494 97.2197069504764,93.66733785318502 93.60362028487725,90.23673167970264 91.72734890173888,88.00981303719163 90.37984490848612,85.54211522980768 89.42465220432496,82.81356564299494 88.96411286486546,79.02161762981268 89.20291104086209,76.31303590442985 89.95341959415236,72.96236529898306 91.30092358746333,70.2938238792267 92.40962940471945,68.98963554231159 95.07052336621564,67.04336821078323 98.17489965469576,66.06019447930157 101.39867503102869,66.12038893911813 103.76959977881052,67.54498545483511 104.65656443260377,68.64853861919255 105.1000467595295,69.75208522137837 105.27061688527465,71.4575534267642 104.38365223148139,75.83150612616737 104.65656443260377,78.92130049293337 105.73115622473415,81.1082017832523 107.64154163305648,83.35526617837604 109.2790148400818,85.84305574315658 110.30243559449445,88.23049986097612 111.03588713519275,91.70126721647102 99.43711858504685,96.75683535831922 97.10030786244897,93.54696677988977 92.52902849274687,89.01293284932035 90.10693270736374,84.96029552047548 89.25408207857981,81.81041232890857 88.998226889933,78.5200314034737 89.74873544328148,73.54422261851141 90.89155528560514,70.89575386659999 92.5801995304646,68.84918394399574 94.93406726559624,67.14369176805485 97.59496122720884,66.18058337936236 101.10870581725612,66.06019447930157 103.32611745188478,67.14369176805485 104.86124858347466,69.1501515245618 105.27061688527465,71.55787459787098 104.36659521883121,75.91176117600116 104.65656443260377,78.86111018479278 105.42412999842782,80.62668444518931 107.96562487189658,83.71639899036381 109.68838314182358,86.6455613936123 110.609461820859,89.31386773602571 111.01883012254257,91.66114310917328 99.48828962282278,96.79695836434257 97.45850512647303,93.90807976553333 92.49491446762113,88.95274581346894 90.2604458204587,85.28129972355964 89.18585402832832,81.48940212340676 88.998226889933,78.03850735099695" stroke="#ffbf00" stroke-dasharray="none" stroke-linecap="round" stroke-linejoin="round" stroke-width="0.5"><title>2026-05-24 23.2km</title><desc>1779623970000</desc></polyline><polyline fill="none" opacity="1" points="123.83775055591832,78.27307292787009 123.8615116251749,78.53825688036886 123.84793387131504,78.7396346398491 123.54752606724651,79.71459106452312 123.50000392875518,80.09937570068178 123.5050955864499,80.48614598899985 123.71724799045478,82.32219793561308 123.99559194450558,83.51822517322216 123.98710584833316,83.66572985508537 123.83775055591832,84.05641226193256 123.81568670590786,84.26968949051115 123.92600595598924,85.39981854444704 124.11270007152052,85.95987462006087 124.03971964453376,87.46855365685406 124.07366402916523,87.62200554861556 124.158524990773,87.79139902027782 124.57434370261763,88.18199454295063 124.66769076038327,88.34540451596695 124.68805739116942,88.56859630036706 124.58282979877549,89.00500819380613 124.64562691035826,89.32981951641887 124.76782669506792,89.49919739874713 124.9816763182971,89.63469859160432 128.6442754209711,90.99563364872483 128.91922493655875,91.06537141055742 129.47251840618992,91.12514642646056 130.0665451373934,91.06537141055742 132.97557890105236,90.24244912536233 133.38121429750026,90.16872307209087 133.8632245593908,90.1667304719922 137.26275468109816,90.44569240442434 137.80077317765245,90.44569240442434 138.3727360588382,90.34805620499537 139.04313765547704,90.13684144484432 139.44537861346907,90.05514452503849 143.01293343914585,89.802081052223 143.39480776635173,89.71639736216639 143.86663471284555,89.52111677643188 144.17043695537723,89.33181220637016 144.52685299410223,89.02692815519913 145.1480352330109,88.30554855767878 145.7267869911302,87.72164895453898 146.3157220646317,87.03808443320122 146.59746045715292,86.60361925573488 146.9997014151304,85.69081064447164 147.1813038729597,85.42971520350511 147.38666740003828,85.26627954565629 148.73935112794425,84.46103893516738 149.0092089858299,84.20989238415677 149.10425326281984,84.05043249120172 149.18062812826975,83.83515946065927 149.3537444899266,83.15743174953786 149.464063740008,82.51356747836508 149.5370441669802,82.25442074886087 149.72034384404105,81.74807745475664 150.06487934813777,81.01844035355498 150.05978769044304,80.9805622335407 150.29739838292153,80.53199966328975 150.44166201764165,80.32665406448723 151.0068360219011,79.70860989313042 151.2376578374533,79.39958007828682 151.46338799531804,78.94499782384992 151.7281541955017,78.18733595089907 151.75361248398985,78.16939095201815 151.85714285714494,78.21126258902586 151.74852082628786,78.10159857719918 151.70099868779653,78.1394825819425 151.36664649908926,79.07459477837801 151.30215216827492,79.05465684436786 151.2376578374533,78.93702259704332 151.34118821060838,79.11048300554103 151.27499666056246,79.23010992746276 151.2376578374533,79.24406635138621 150.6232644754782,78.97091728726264 149.4929164669593,78.65389982166198 149.09237272819882,78.58610921947184 147.03364579976915,78.49837983671932 144.76106924811756,78.28902394957913 143.12664712769765,78.28902394957913 142.5071621080133,78.25512801202967 141.7926328113317,78.1394825819425 139.8187668445098,77.64897842416212 139.27395947104378,77.54529295585053 138.59337455899367,77.49345000409267 137.39004612350982,77.55326878171036 137.1083077309886,77.52136545768008 136.40396174971102,77.30801056608107 135.2125138488409,77.01688684379224 135.09031406413123,76.96105437423466 134.9596281832637,76.85935908659485 134.85100615242845,76.7078121319355 134.63376209072158,75.7865394937271 134.3876653020925,75.34383374461322 134.2332183519684,75.18030912510403 134.03464370182337,75.08059828266778 133.86492177862237,75.0546733757019 132.49187141993025,75.15239014332838 132.34421334674698,75.1424190682119 132.20164693125844,75.092563612101 132.03531944652786,74.97290996987795 131.9250001964465,74.8253360798044 131.7417005193929,74.28488652443048 131.6415645846937,74.07149434938583 131.44977881148225,73.86807148192929 131.2104708997649,73.74043246332803 129.4538489946426,73.24382853585848 126.78242592345487,72.81502326445116 124.19077215618017,71.80579585080886 124.04141686376533,71.78186093597833 122.17787014701753,71.75593140998535 121.33265496948297,71.7738826241548 121.0,71.73199643068074" stroke="red" stroke-dasharray="none" stroke-linecap="round" stroke-linejoin="round" stroke-width="0.5"><title>2026-05-23 52.6km</title><desc>1779516240000</desc></polyline><polyline fill="none" opacity="1" points="180.88283114123624,66.51058282481972 181.9760600317968,67.40920523827663 182.60076225508237,68.47120802332938 182.86105484800646,69.8599718703772 182.68752645270433,71.20787994001876 181.85459015512606,72.63746887851448 180.91753682034323,73.43394944266765 180.7440084249247,74.23042664253444 181.03900669701397,82.80766022144235 184.8219257153105,84.64558809084701 186.5745625080308,84.70685204466281 186.90426645928528,85.03359279569122 187.21661757084075,95.14185513404664 186.93897213827586,95.89740045806684 184.0236950967228,96.48958251527802 179.80695509014186,96.81630285453866 172.67493804206606,96.48958251527802 165.33468691958115,95.46857780771097 159.03560616908362,95.63193893231801 158.7926664155675,95.22353585547535 158.49766814347822,88.30096917125047 158.7926664155675,85.54412408581993 173.43846298154676,85.0744353497139 177.34285187645582,82.90976779520861 177.1693234810955,73.86282219913846 175.24315829295665,71.53464408156287 174.94816002098378,69.98250936580007 175.06962989765452,68.96136113732064 175.98933039285475,67.28666607044579 177.04785360442474,66.44931295888091 178.1757881740341,66.02042333954887 179.91107212734642,66.10211667558178 181.81988447601907,67.16412682301598 182.82634916889947,69.1655912254646 182.68752645270433,71.24872548865096 182.010765710962,72.53535574236594 180.9869481784408,73.41352690615167 180.7613612645073,74.12831436908164 180.9695953389164,82.48091561386536 181.1951822527917,82.88934628490824 184.5095746036386,84.56390278811159 186.92161929869326,84.97232894795889 187.0777948545292,95.7544596829539 184.3013405292877,96.46916247531772 177.77667286479846,96.83672285692592 173.0914061908843,96.53042258869391 166.04615334037226,95.48899795601028 159.15707604581257,95.59109866441577 158.8447249341407,95.32563670762465 158.51502098300261,87.85170827619731 158.70590221794555,85.54412408581993 172.93523063504836,85.11527789493266 174.54904471163172,84.6660094109684 177.37755755556282,82.86892477232323 177.1346178020467,73.90366717267898 175.45139236730756,72.04521191901586 174.96551286044996,69.49235890631098 175.46874520689016,67.98105363505601 176.57932693709154,66.75566208965029 177.70726150664268,66.16338665435615 178.85254891583463,66.0 181.2645936110057,66.73523882971494 182.65282077365555,68.53247723224922 182.7395849712775,71.04449765688332 182.11488274799194,72.3311293040897 180.84812546212925,73.61775217202376 180.7613612645073,74.21000419226766 180.9522424993338,82.62386644934304 184.37075188738527,84.48221745004412 186.8695607801783,84.8906437867845 187.21661757084075,94.22294457994576 187.02573633601423,95.79529991540767 184.0063422571402,96.51000255311374 178.1584353345097,96.85714285714494 173.66404989542207,96.59168268213398 166.41056297061732,95.5094181020977 158.7926664155675,95.55025838768051 158.5844323411584,85.60538774772431 173.76816693262663,85.03359279569122 177.1693234810955,83.07313979828905 177.429616074136,82.7259741226153 177.44696891366038,81.23519660384045 177.1866763206781,74.3121164215263 177.01314792531775,73.6790197086957 175.6249207627261,72.29028398997616 175.08698273717891,71.20787994001876 174.96551286044996,69.55362778347626 175.19109977438347,68.5937464213057 176.05874175101053,67.20497324765893 178.07167113682954,66.08169334490958 179.77224941115128,66.08169334490958 181.54223904345417,66.8782016025798 182.63546793407295,68.53247723224922" stroke="#ffc300" stroke-dasharray="none" stroke-linecap="round" stroke-linejoin="round" stroke-width="0.5"><title>2026-05-17 22.3km</title><desc>1779013233000</desc></polyline><polyline fill="none" opacity="1" points="41.11853883168078,113.64036801589464 40.034459564310964,113.64693360728415 38.29099187662359,114.25753051565698 37.760128317866474,114.21813735122123 36.87163036165293,113.88985999125362 36.58664045116166,114.13935094596673 35.999896517780144,115.30144010241929 35.36286024728906,115.95797785994728 32.05474207067164,112.31410406548457 29.6798261499207,111.9267244986986 29.33895586480503,111.77571145857655 29.182490815932397,111.57217155193939 29.199254928302253,110.62668694891909 29.09308221656829,110.54789590360815 27.707248926366447,110.46253882297606 23.65033373000915,110.57415959669015 23.354167744575534,110.44284101816083 22.700367361685494,109.9044318894521 21.593935944518307,109.56956527736475 21.292181921657175,109.21499862479322 20.80043462512549,107.96743290144514 20.56014901434537,106.53598393944776 19.213431986310752,106.03693878585909 17.98406374498154,106.13543486340495 15.23474931443343,106.75923965935363 12.457494696514914,106.38495754770702 12.301029647613177,106.4703203368299 12.1613287111104,106.73297432296386 11.73663786414545,108.11188918667904 11.792518238711637,108.36796994209726 12.88777358099469,109.93069585967532 16.061778858565958,110.54789590360815 17.03409737671609,111.35549929187619 17.229678687814157,112.10400019906228 17.80524654625333,113.47622800182216 17.933771407871973,114.38227536856357 18.693744502495974,117.59929133610422 18.732860764692305,118.183588273645 19.29166451076162,121.03277629924924 19.716355357784778,121.76802902735653 20.12987012983649,122.02405245089903 21.9124540797784,122.64113013309179 23.79003466651193,123.84244431404659 25.606146841164446,123.94747612344872 26.343767785991076,124.52514784337473 26.924923681886867,124.58422759734822 27.86371397523908,125.02404174559342 31.15506803948665,125.41790247122844 31.36182542552706,125.26035848603715 31.473586174775846,124.99778427347701 31.84798468463123,123.69802528085347 32.043565995729296,122.01748776116074 31.987685621134005,121.78115845982757 31.663579448417295,121.55795772353667 31.64122729859082,121.45292180036995 31.859160759544466,120.85552654811545 32.0156258084171,120.67827628198938 32.02121384590282,119.71980295799949 32.440316655440256,118.45932196324793 33.19470171260764,117.4745530626642 34.7593522015668,116.45037654029147 35.90489988098852,115.43931361773866 36.63134475087281,114.06712998509465 36.89398251147941,113.87672886011569 37.27955709627713,114.01460559619954 36.921922698791604,113.87016329347534 36.61458063844475,114.08026107524711 36.005484555265866,115.28830927517629 35.33492006000597,115.93828183003643 32.11062244526693,112.3469327292405 29.400424276915146,111.80854041215935 29.188078853389015,111.55247410555603 29.143374553736066,110.55446182794913 28.651627257175278,110.45597288873978 23.594453355384758,110.5610277515807 22.745071661367547,109.91756387596615 21.610700056917267,109.56956527736475 21.25306565943174,109.15590398224231 20.766906400356675,107.87550599627139 20.593677239085082,106.57538206706158 19.23578413616633,106.03037237501485 18.883737776166527,105.99754031027987 17.576137010357343,106.19453243356838 15.173280902352417,106.74610699257755 12.379262172064045,106.39152392034157 12.206033010792453,106.61478016923502 11.714285714289872,108.20381573544364 12.865421431139112,109.93726185046762 16.095307083334774,110.57415959669015 17.02292130177375,111.33580177552358 17.190562425588723,112.00551376247677 17.810834583709948,113.55501526369699 17.89465514564654,114.27722708833608 18.671392352640396,117.48768341925097 19.269312360935146,120.97369310611612 19.38107311015483,121.30849711072733 19.772235732380068,121.80085260324631 20.15781031717779,122.01748776116074 21.895689967408543,122.64769475572757 23.795622703968547,123.82931532513612 24.153257101454074,123.90808921609278 25.617322916106787,123.93434715717012 26.354943860904314,124.53171226329505 26.790810782811604,124.53827668253507 27.981062761915382,125.0634279325568 30.898018316336675,125.43103111828896 31.216536451567663,125.39164516859455 31.389765612839255,125.24066545931055 31.602111036336282,124.68925812985253 31.892688984284177,123.428879806841 32.05474207067164,122.06344057454044 32.00444973350386,121.78115845982757 31.708283748070244,121.59078141245845 31.663579448417295,121.46605130065291 31.80886842237669,120.94086908517784 32.03238992081606,120.61919274550746 32.0156258084171,119.70667308189513 32.440316655440256,118.45932196324793 32.954416101798415,117.71089904875771 34.93258136283839,116.33220121954582 35.614321933011524,115.7413211812418 35.98872044289601,115.33426715813766 36.608992601017235,114.11965432875877 36.86045428671059,113.88985999125362 37.76571635532309,114.22470288038312 38.335696176305646,114.26409604059882 39.95063900240348,113.67976155355427 41.22471154341474,113.67976155355427 41.48734930405044,113.58127766171674 41.64381435292307,113.39087501989343 41.75557510217186,112.81309784716359 42.292026698356494,111.52621083384292 42.571428571420256,109.94382784054324" stroke="#ff8300" stroke-dasharray="none" stroke-linecap="round" stroke-linejoin="round" stroke-width="0.5"><title>2026-05-16 35.3km</title><desc>1778887035000</desc></polyline><polyline fill="none" opacity="0.5" points="71.8075778791681,100.79697377186676 73.12814190320205,102.39209447040048 73.56253796373494,103.78270151939068 73.37140369706322,105.50049608598056 71.51218855805928,108.01580993256357 71.72069866699167,116.95206049265107 75.0916120968177,118.79242571181385 77.24621655710507,118.996909629117 77.68061261757975,119.38542846178461 77.9412502538762,129.17992864605912 77.81961935694562,129.9569236154348 77.12458566005807,130.40676134727255 72.58949078817386,131.04062178725144 68.59304703120142,131.14285714285506 64.16220721381251,130.87704510315962 56.44733317877399,129.8137932033569 49.549123737437185,129.75245156500023 49.201606889022514,123.04564559589198 49.37536531331716,119.85573966345692 63.97107294719899,119.3240834360331 65.4480195529759,118.75152890183381 68.05439591617323,117.15654640270805 67.89801333437208,108.50659897117293 67.68950322526507,107.83176371417358 66.75120773451636,106.99332867120393 65.91716729832115,105.6845445768704 65.62177797727054,104.10990168940043 66.07354988006409,102.41254464829399 67.672127382888,100.73562270661932 68.8363088251208,100.32661509550235 70.08736947941361,100.28571428571013 72.1203430427122,101.10372879909119 73.44090706674615,103.18964976580173 73.49303459411021,105.00969923316734 72.91963179409504,106.46163622708991 71.52956440037815,107.89311247353908 71.39055766107049,109.50862263058661 68.10652344336268,109.5904202456004 67.72425491013564,107.85221330283093 66.36893920128932,106.54343516210793 65.6565296620829,104.70295055225142 65.83028808626113,103.04649906345003 66.64695268007927,101.59453580580885 68.54091950395377,100.40841668861685 70.90403407328995,100.44931747191004 72.03346383065218,101.04237783349527 72.76324921229389,101.79903834866127 73.5972896484891,103.94630167527066 73.11076606070856,106.11399035788781 71.56431608524872,107.81131412326067 71.35580597625813,109.4472743961087 68.10652344336268,109.56997084514296 67.759006594948,107.954461212983 66.4036908861599,106.58433461627283 65.72603303164942,105.00969923316734 65.79553640139056,103.21009985728597 66.50794594065519,101.6967871049419 68.14127512823325,100.55156939128938 70.22637621883769,100.30616469170491 72.18984641245333,101.18553005547437 72.98913516383618,102.18759256994235 73.52778627892258,103.4964009053947 73.44090706674615,105.2959975523845 72.81537673959974,106.5638848902745 71.54694024287164,107.99536036157224 71.40793350350577,109.46772380986658 68.19340265559731,109.61086964383139 67.82850996468915,108.01580993256357 66.45581841340754,106.5638848902745 65.69128134683706,104.70295055225142 65.9692948255688,102.6374964586139 66.95971784362337,101.24688097453327 69.04481893411139,100.28571428571013 70.93878575810231,100.44931747191004 72.25934978213627,101.24688097453327 73.52778627892258,103.41460065028514 73.47565875161672,105.09149879723554 72.71112168510444,106.70703292579856 71.54694024287164,107.85221330283093 71.4774368731305,109.42682498016802 68.15865097066853,109.61086964383139 67.68950322526507,107.81131412326067 66.6122009952087,106.82973115559435 65.81291224382585,105.37779699239763 65.6565296620829,103.74180145822174 66.2820599891711,101.79903834866127 66.36893920128932,102.00354067009175 67.06397289811866,101.18553005547437 68.19340265559731,100.5311190118664 70.64339643693529,100.38796629363787 68.19340265559731,100.5311190118664 67.06397289811866,101.18553005547437 66.36893920128932,102.00354067009175 66.2820599891711,101.79903834866127 65.6565296620829,103.74180145822174 65.81291224382585,105.37779699239763 66.6122009952087,106.82973115559435 67.68950322526507,107.81131412326067 68.15865097066853,109.61086964383139 71.4774368731305,109.42682498016802 71.54694024287164,107.85221330283093 72.71112168510444,106.70703292579856 73.47565875161672,105.09149879723554 73.52778627892258,103.41460065028514 72.25934978213627,101.24688097453327 70.93878575810231,100.44931747191004 69.04481893411139,100.28571428571013 66.95971784362337,101.24688097453327 65.9692948255688,102.6374964586139 65.69128134683706,104.70295055225142 66.45581841340754,106.5638848902745 67.82850996468915,108.01580993256357 68.19340265559731,109.61086964383139" stroke="#4dd2ff" stroke-dasharray="1,0.5" stroke-linecap="round" stroke-linejoin="round" stroke-width="0.5"><title>2026-05-12 15.2km</title><desc>1778590468000</desc></polyline><polyline fill="none" opacity="1" points="108.23614930774784,100.79697377186676 109.5567133317818,102.39209447040048 109.99110939231468,103.78270151939068 109.79997512564296,105.50049608598056 107.94075998663902,108.01580993256357 108.14927009557141,116.95206049265107 111.52018352539744,118.79242571181385 113.67478798568482,118.996909629117 114.1091840461595,119.38542846178461 114.36982168245595,129.17992864605912 114.24819078552537,129.9569236154348 113.55315708863782,130.40676134727255 109.0180622167536,131.04062178725144 105.02161845978117,131.14285714285506 100.59077864239225,130.87704510315962 92.87590460735373,129.8137932033569 85.97769516601693,129.75245156500023 85.63017831760226,123.04564559589198 85.8039367418969,119.85573966345692 100.39964437577873,119.3240834360331 101.87659098155564,118.75152890183381 104.48296734475298,117.15654640270805 104.32658476295182,108.50659897117293 104.11807465384481,107.83176371417358 103.1797791630961,106.99332867120393 102.34573872690089,105.6845445768704 102.05034940585028,104.10990168940043 102.50212130864384,102.41254464829399 104.10069881146774,100.73562270661932 105.26488025370054,100.32661509550235 106.51594090799335,100.28571428571013 108.54891447129194,101.10372879909119 109.8694784953259,103.18964976580173 109.92160602268996,105.00969923316734 109.34820322267478,106.46163622708991 107.9581358289579,107.89311247353908 107.81912908965023,109.50862263058661 104.53509487194242,109.5904202456004 104.15282633871539,107.85221330283093 102.79751062986907,106.54343516210793 102.08510109066265,104.70295055225142 102.25885951484088,103.04649906345003 103.07552410865901,101.59453580580885 104.96949093253352,100.40841668861685 107.3326055018697,100.44931747191004 108.46203525923193,101.04237783349527 109.19182064087363,101.79903834866127 110.02586107706884,103.94630167527066 109.5393374892883,106.11399035788781 107.99288751382846,107.81131412326067 107.78437740483787,109.4472743961087 104.53509487194242,109.56997084514296 104.18757802352775,107.954461212983 102.83226231473964,106.58433461627283 102.15460446022917,105.00969923316734 102.22410782997031,103.21009985728597 102.93651736923493,101.6967871049419 104.56984655681299,100.55156939128938 106.65494764741743,100.30616469170491 108.61841784103308,101.18553005547437 109.41770659241593,102.18759256994235 109.95635770750232,103.4964009053947 109.8694784953259,105.2959975523845 109.24394816817949,106.5638848902745 107.97551167145139,107.99536036157224 107.83650493208552,109.46772380986658 104.62197408417705,109.61086964383139 104.25708139326889,108.01580993256357 102.88438984198729,106.5638848902745 102.1198527754168,104.70295055225142 102.39786625414854,102.6374964586139 103.38828927220311,101.24688097453327 105.47339036269113,100.28571428571013 107.36735718668206,100.44931747191004 108.68792121071601,101.24688097453327 109.95635770750232,103.41460065028514 109.90423018019646,105.09149879723554 109.13969311368419,106.70703292579856 107.97551167145139,107.85221330283093 107.90600830171024,109.42682498016802 104.58722239924828,109.61086964383139 104.11807465384481,107.81131412326067 103.04077242378844,106.82973115559435 102.2414836724056,105.37779699239763 102.08510109066265,103.74180145822174 102.71063141775085,101.79903834866127" stroke="#4dd2ff" stroke-dasharray="none" stroke-linecap="round" stroke-linejoin="round" stroke-width="0.5"><title>2026-05-11 15.3km</title><desc>1778503630000</desc></polyline><polyline fill="none" opacity="1" points="138.65630008932203,100.48739993863273 145.11100108013488,103.5799050781643 148.76676093344577,109.0925934141851 149.3379734104965,114.73968679399695 147.7385784748476,119.58001165435417 142.59766618092544,125.63036464899778 141.96933245612308,130.73950569349108 131.230537887197,130.73950569349108 130.43084041937254,125.56313882849645 126.88932306179777,122.06738613569178 124.20462441933341,117.6976675830083 123.51916944677942,111.84891922096722 124.14750317158177,108.95813818369061 127.74614177714102,103.51267686951905 134.7149339974858,100.3529428440961 141.16963498829864,101.15968497557333 147.85282097011805,106.26902745652478 149.22373091522604,111.37832787644584 149.1666096674744,115.54641022533178 146.5390322727617,121.46235001715831 142.76902992418036,125.15978375350824 142.31205994240008,130.60505515208934 131.7446291167289,131.07563191937516 130.43084041937254,125.42868716613157 127.1749293000903,122.47074322053231 123.91901818080805,117.29430739633972 123.63341194228269,111.04219098348403 125.28992812591605,106.60516693472164 129.74538544681855,102.10088280355558 132.88705407083035,100.75631404074375 137.5709963827394,100.3529428440961 142.826151171932,101.89919767476385 145.16812232788652,103.64713327941718 148.9952459242195,109.83209666144103 149.45221590576693,113.52959968068171 148.42403344693594,118.57161375461146 142.94039366720244,124.8236543238163 142.59766618092544,130.26892867143033 131.80175036448054,131.1428571428405 130.3737191716209,125.49591300083557 125.11856438266113,119.7816910376423 123.40492695127614,113.6640539210639 124.3759881623555,108.28586159425322 127.57477803411894,103.44544865336502 134.8862977407407,100.28571428568102 141.28387748380192,101.22691343910992 145.96781979571097,104.38664301508106 148.25266970414668,107.88249529100722 149.39509465824813,112.3195102083846 147.90994221763685,119.58001165435417 142.6547874289099,125.36146132380236 142.31205994240008,130.67228042631177 131.7446291167289,131.07563191937516 130.48796166712418,125.76481626793975 124.94720063963905,119.58001165435417 123.51916944677942,115.54641022533178 124.49023065762594,108.21863389521604 127.46053553884849,103.91604601260042 133.74387278663926,100.48739993863273 140.0272100341972,100.82354254811071 145.6250923096668,104.11773048591567 149.28085216274485,110.5043715761858 148.42403344693594,118.10102750739316 146.25342603446916,121.8657074951916 142.76902992418036,125.29423547437182 142.31205994240008,130.60505515208934 131.573265373474,131.00840668880846 130.48796166712418,125.63036464899778 126.66083807079121,121.9329337158706 123.97613942855969,117.2270806732704 123.57629069453105,110.90773617528612 125.63265561172739,105.93288779642899 128.6029604927171,102.70593779638875 132.0873566030059,100.89077104820171 137.5709963827394,100.3529428440961 142.94039366720244,101.83196928398684 148.02418471314013,107.14298972091638 149.3379734104965,110.77328133798437" stroke="#4dd2ff" stroke-dasharray="none" stroke-linecap="round" stroke-linejoin="round" stroke-width="0.5"><title>2026-05-10 11.2km</title><desc>1778422578000</desc></polyline><polyline fill="none" opacity="1" points="188.28571428568102,122.53136047712178 186.83271375473123,122.80133339045278 179.91184280405287,123.40877116299816 173.67923526279628,123.09380365071411 166.07010090281256,121.96891578118084 157.6388741369592,121.85642665940395 157.42857142852154,111.10218542275834 160.86988847586326,110.69720312092977 173.39245884225238,110.44971354780137 174.92193308554124,109.99973175060586 178.1911842804402,108.01980026556703" stroke="#4dd2ff" stroke-dasharray="none" stroke-linecap="round" stroke-linejoin="round" stroke-width="0.5"><title>2026-05-10 11.3km</title><desc>1778397813000</desc></polyline><polyline fill="none" opacity="1" points="23.829077321017394,134.57142857143117 23.90022370859515,140.0788971238435 23.779822129610693,162.62462044998756 23.83455012005288,165.05557636860613 24.141026866593165,165.26136703466182 30.401908974250546,165.33210741231233 30.50589215612854,165.42857142857247" stroke="#ffc700" stroke-dasharray="none" stroke-linecap="round" stroke-linejoin="round" stroke-width="0.5"><title>2025-11-09 21.3km</title><desc>1762645227000</desc></polyline><polyline fill="none" opacity="1" points="72.01713248435408,137.4497087895288 76.28263951116242,144.0094601220917 76.05514580290765,151.50623352470575 73.49584158672951,156.0578015780775 69.91281568445265,159.33758718828904 69.62844854942523,164.82616906880867 58.99311769590713,165.29470428824425 57.51440859329887,159.53838982339948 51.485825329087675,152.57719372957945 50.63272392377257,147.15543860662729 51.82706589112058,142.00138037477154 56.43381347996183,136.7134058237425 63.42924500396475,134.57142857147846 70.08343596570194,136.0440387300332 72.87023388990201,138.5206933551235 75.88452552189119,143.34010093129473 76.51013321895152,147.15543860662729 75.99827237566933,151.03768785129068 74.40581641928293,154.9199127073516 69.79906883067451,159.47145561903017 69.62844854942523,164.69230179779697 60.75619393354282,165.42857142857974 58.424383425852284,165.09390352328774 57.79877572832629,160.0069290517131 53.19202813971788,155.45539008401101 51.54269875586033,152.57719372957945 50.68959735077806,146.95463194773765 51.94081274536438,141.86750815977575 56.888800896005705,136.4456590731861 64.05485270102508,134.63836547295796 70.31092967372388,136.11097547214013 74.80393040855415,141.0642742596683 76.16889265715145,144.34413944545668 76.28263951116242,150.5691418228089 74.40581641928293,154.85297800274566 69.96968911145814,158.93598172214115 69.68532197619788,164.62536815163912 58.70875056087971,165.29470428824425 57.62815544754267,159.67225821060129 53.19202813971788,155.52232472336618 50.97396448580548,150.10059543902753 50.86021763156168,144.7457543942728 53.4763952747453,139.39086694811704 58.3675099988468,135.64241812570253 65.19232124160044,134.77223925443832 70.08343596570194,136.17791220679646 75.31579125160351,141.8005720412475 76.45325979217887,146.08446900564013 75.8276520948857,151.90784381894628 73.60958844097331,155.79006320866756 69.79906883067451,159.40452140721027 69.57157512241974,164.69230179779697 66.38666320918128,165.29470428824425 58.48125685285777,165.22777070710436 57.68502887431532,159.67225821060129 53.4763952747453,155.85699781193398 51.71331903710961,152.7779985613888 50.86021763156168,144.6788185876212 55.068851231597364,137.78439166554017 61.211181349586695,134.83917613408994 69.00284085213207,135.77629168948624 74.40581641928293,140.46184814959997 76.39638636517338,145.95059767505154 75.94139894889668,151.57316859206185 73.43896815972403,156.12473615229828 69.91281568445265,159.20371872879332 69.68532197619788,164.69230179779697" stroke="#4dd2ff" stroke-dasharray="none" stroke-linecap="round" stroke-linejoin="round" stroke-width="0.5"><title>2025-11-01 10.0km</title><desc>1761964262000</desc></polyline><polyline fill="none" opacity="1" points="113.08057003375143,148.91748280340107 111.29816268826835,154.73701465397608 106.23842570837587,159.81214352924144 105.95094065275043,165.22556889004773 94.73902348056436,165.36090392316692 93.87656831392087,159.74447541544214 89.67928650067188,156.15805489453487 87.89687915542163,152.84228930529207 87.14941801084206,145.12799106084276 90.54174166778103,138.69933642470278 96.34893979271874,135.1804658716428 102.90359906270169,134.97745350422338 108.88328822073527,138.02263208845397 112.33310888893902,143.23323656979483 113.13806704478338,149.12049064069288 111.29816268826835,154.66934599052183 106.35341973090544,159.33846657845424 105.83594663068652,165.29323641041992 94.79652049206197,165.42857142857974 94.10655635828152,159.81214352924144 88.24186122231185,153.72198393184226 86.86193295521662,147.42875664576422 87.49440007749945,143.50391613459215 89.44929845631123,140.05274289811496 94.336544402875,135.85717328666942 101.35117976157926,134.57142857147846 108.42331213178113,137.6842796455021 112.5630969335325,144.11294472654117 113.08057003375143,149.3911676549469 110.78068958828226,155.27836369804572 106.35341973090544,159.40613473625854 105.60595858586021,165.42857142857974 94.85401750332676,165.42857142857974 94.27904739161022,159.74447541544214 90.1967596008908,156.36106037953869 87.83938214438967,152.3686070702388 87.20691502164118,144.51896345813293 91.17420879029669,137.95496161445044 96.9814069152344,134.90978270058986 104.34102434082888,135.24813664599787 109.8032403991092,139.24069936596788 112.67809095582925,145.1956607577158 112.85058198939078,150.06785967730684 111.12567165493965,154.87235195899848 106.29592271964066,159.67680729436688 106.06593467481434,165.02256628562463 105.31847353023477,165.36090392316692 94.79652049206197,165.42857142857974 93.87656831392087,159.67680729436688 89.96677155653015,156.36106037953869 87.83938214438967,152.5716137861018 87.20691502164118,144.7219727251213 91.05921476799995,138.15797301440034 97.44138300442137,134.90978270058986 105.0309884743765,135.45114892564015 109.74574338784441,138.97001795395045 112.7355879668612,145.12799106084276 112.79308497812599,150.81222005496966 110.37821051036008,155.95504934387282 106.41091674170457,159.60913916595746 105.83594663068652,165.22556889004773 94.79652049206197,165.42857142857974 94.16405336954631,159.94747973489575" stroke="#4dd2ff" stroke-dasharray="none" stroke-linecap="round" stroke-linejoin="round" stroke-width="0.5"><title>2025-10-27 10.0km</title><desc>1761565093000</desc></polyline><polyline fill="none" opacity="1" points="141.09411694738083,135.04305581131484 143.78467693994753,136.45793538575526 146.87595863314345,139.826683322608 149.3947807541117,146.15988005150575 147.84913990739733,153.77310566307278 142.58251183689572,159.43243423564127 142.41077396506444,164.68747895077104 131.19056633673608,165.1590833569644 130.4463688917458,159.63455216091825 126.55364379612729,156.19853849895298 123.74859188916162,150.94342206860892 123.6913459317293,143.93653109826846 126.09567613806576,139.42243453371339 132.22099356772378,135.1778063857928 138.68978674151003,134.70617924811086 143.26946332445368,136.39056024083402 145.61654757289216,138.3444364783354 149.3947807541117,145.1492678760551 149.28028883971274,149.66332288016565 147.96363182202913,153.84047892520903 142.58251183689572,159.43243423564127 142.41077396506444,164.75485103065148 131.5912880373653,165.29382740717847 130.33187697734684,159.70192478818353 126.381905924296,156.19853849895298 123.46236210269853,149.46120171493385 123.9203297609929,143.66703371558106 126.26741400989704,139.15293519495754 132.85069909784943,134.9083052079077 140.97962503274903,135.24518166203052 144.0709067264106,136.6600607764558 146.13176118861884,138.8834357392625 149.22304288228042,145.5535129432683 149.16579692508094,150.1349386770744 147.79189395019785,154.10997190029593 142.5252658794634,159.63455216091825 142.41077396506444,164.75485103065148 131.41955016553402,165.2264553856803 130.6181067635771,160.0387878145557 125.0652489066124,154.17734512581956 123.40511614549905,149.52857544412836 124.26380550465547,141.98267242719885 126.21016805246472,139.22031004045857 133.0224369696807,134.9083052079077 139.0332624851726,134.84092989517376 145.04408800043166,137.73806175100617 149.05130501044914,144.34077695361339 149.22304288228042,150.00019134301692 147.1049424628727,155.1205695171957 142.6970037512947,159.2976889157435 142.35352800763212,164.82222310313955 131.47679612296633,165.42857142857974 130.6181067635771,159.9714152237284 126.26741400989704,155.8616733927629 123.86308380356058,151.07816919818288 123.74859188916162,144.67764829896623 126.15292209526524,139.42243453371339 131.30505825113505,135.58205793355592 137.2013918517623,134.57142857142026 143.84192289714701,136.6600607764558 148.1926156510599,141.84792332723737 149.45202671154402,146.2946282174671 148.93681309581734,151.3476633700775 147.1621884200722,155.1205695171957 142.63975779432803,159.2976889157435 142.46801992249675,164.88959516852628 131.19056633673608,165.02433927735547" stroke="#4dd2ff" stroke-dasharray="none" stroke-linecap="round" stroke-linejoin="round" stroke-width="0.5"><title>2025-10-19 10.0km</title><desc>1760866141000</desc></polyline><polyline fill="none" opacity="1" points="179.05479689105414,159.17659451032523 178.42646330222487,165.02521997923031 167.63054982433096,165.09244523890084 166.9450950003229,159.84885311458493 163.11797223286703,156.4203266207478 160.71888034883887,152.386741793307 160.03342552483082,144.79008586186683 163.40357840945944,138.6723573008785 170.25812664953992,134.70588568079984 176.82706871279515,135.17648533394095 182.48207101109438,138.94126971339574 185.5666177191306,144.58840346400393 185.73798142489977,149.7648975988268 183.79585942346603,154.80689583549974 178.99767565564252,159.4454980394221 178.71206947905011,165.02521997923031 167.57342858891934,165.09244523890084 166.9450950003229,160.0505305537954 162.77524482109584,155.94974307488883 160.03342552483082,150.63884689408587 160.31903170165606,142.77325893344823 163.34645717428066,138.40344477188773 165.5741853523068,136.78996715001995 172.20024865097366,134.57142857142026 179.11191812623292,136.25214034412056 182.53919224627316,139.00849779846612 185.16676907148212,143.04216956929304 185.5666177191306,150.7060737120919 183.79585942346603,154.94134856091114 179.16903936164454,159.51272390340455 179.05479689105414,164.82354415621376 168.88721700152382,165.42857142857974 167.57342858891934,165.09244523890084 166.7737312943209,159.647175609658 162.5467598796822,155.47915917210048 159.91918305424042,149.83212451147847 159.7478193482384,145.2606778688496 162.77524482109584,139.2101820097305 165.2314579403028,136.9916520823026 169.68691429612227,135.0420283265994 176.42722006561235,135.0420283265994 181.39676753943786,137.86561936401995 185.680860189721,144.7228584032273 185.16676907148212,151.6472483984544 183.56737448228523,155.07580125750974 178.9405544202309,159.10936860978836 178.76919071399607,164.82354415621376 167.91615600092337,165.15967049147002 166.71661005890928,159.57994976028567 161.57569887908176,154.33631106617395 159.86206181906164,149.9665783145465 160.03342552483082,144.52117598359473 162.43251740885898,139.6807782475371 165.174336705124,136.9916520823026 169.17282317834906,135.10925683379173 176.31297759478912,135.10925683379173 182.36782854003832,138.73958541511092 185.96646636608057,146.40354268613737 183.96722312946804,154.60521669226 179.05479689105414,158.90769086492946 178.88343318505213,164.82354415621376 167.51630735350773,165.15967049147002 166.83085252949968,159.84885311458493 161.74706258508377,154.53799029660877" stroke="#4dd2ff" stroke-dasharray="none" stroke-linecap="round" stroke-linejoin="round" stroke-width="0.5"><title>2025-10-16 10.0km</title><desc>1760611285000</desc></polyline><polyline fill="none" opacity="1" points="40.136680708266795,180.00395102397306 39.09717482281849,187.4803577508428 33.379892454249784,193.73328406410292 33.14889114629477,199.30649195803562 22.003078043693677,199.71428571426077 21.19457346620038,194.2090476458543 16.343546001939103,189.4513955959701 14.26453423150815,184.4898057495011 14.437785212416202,178.23678732733242 17.960555156692863,172.2555809636251 25.352597007062286,168.85714285710128 32.97564016538672,169.67276968131773 38.808423188049346,175.7219688707264 40.078930380987,180.3437896258547 38.808423188049346,187.95612607337534 33.264391800388694,193.73328406410292 33.264391800388694,199.17056064715143 22.060828370740637,199.64632010669447 21.310074120061472,194.34498003131012 15.82379305944778,188.6357944799238 14.26453423150815,184.08200209971983 14.495535539230332,178.0328835035907 17.787304176017642,172.59542376187164 24.48634210275486,168.99308073462453 32.39813689584844,169.67276968131773 37.36466501443647,173.41104572702898 40.136680708266795,180.1398864868097 38.86617351532914,187.95612607337534 33.379892454249784,193.8012503120117 33.09114081948064,199.3744576026802 22.060828370740637,199.64632010669447 21.19457346620038,194.07311523065437 16.285795674892142,189.11156192666385 14.14903357764706,183.94606749067316 14.380034885369241,178.4406910847756 16.401296328753233,174.02276150509715 23.158084582770243,169.40089419099968 30.203624471556395,169.0610496623558 33.553143435157835,170.21652030857513 36.787161744432524,173.00323487701826 40.136680708266795,180.27582192019327 40.021180054405704,184.35387122893007 38.635172207141295,188.29596036870498 33.322142127202824,194.00514901196584 33.264391800388694,199.3744576026802 22.118578697321936,199.71428571426077 21.310074120061472,194.27701384213287 16.863298944430426,190.0630957374815 14.20678390422836,184.42183849279536 14.495535539230332,177.7610116356518 17.44080221420154,173.00323487701826 24.19759046798572,169.0610496623558 31.878383953357115,169.46886307455134 37.075913379434496,173.34307727054693 40.021180054405704,180.07191875914577 38.9816741689574,187.41239081817912 36.44065978284925,191.21852771088015 33.322142127202824,193.8692165526445" stroke="#4dd2ff" stroke-dasharray="none" stroke-linecap="round" stroke-linejoin="round" stroke-width="0.5"><title>2025-10-08 10.1km</title><desc>1759919017000</desc></polyline><polyline fill="none" opacity="1" points="65.86627732589841,168.99218838568777 72.69345236988738,172.23327229073038 76.2504679390695,178.1076939170016 76.59469525213353,183.37436969042756 74.87355868658051,188.64100096846232 69.82489142729901,193.77254762209486 69.30855045723729,199.30916900699958 58.52276131208055,199.64676628122106 57.77693546679802,194.11014789470937 51.63821504916996,187.29058693378465 50.72027554735541,180.2683867966989 53.818321365630254,173.4486744105816 59.72755690780468,169.53237020672532 65.75153488805518,168.99218838568777 72.52133871335536,172.03070504026255 76.07835428253748,177.56751952692866 76.65206647128798,183.23932727775536 74.52933137351647,189.24868632969446 69.82489142729901,193.90758775314316 69.42329289508052,199.37668847641908 58.40801887400448,199.5792468409636 57.37533693481237,193.63750746200094 53.87569258431904,190.66661653557094 51.351358954794705,186.8179413304897 50.72027554735541,179.99830059608212 53.646207709331065,173.71876344876364 56.85899596498348,170.74777759274002 59.72755690780468,169.53237020672532 66.66947438986972,169.05971113877604 73.26716455840506,172.97601831227075 75.67675575055182,176.28460347442888 76.59469525213353,183.4418908857624 74.81618746765889,188.70852159353672 69.88226264575496,193.63750746200094 69.42329289508052,199.30916900699958 58.63750374969095,199.71428571426077 57.719564247876406,193.97510780760786 54.621518429601565,191.67942185106222 52.03981358092278,188.0333150147926 50.6629043284338,180.403429852915 53.18723795819096,174.2589411739027 58.75224618730135,169.86998360714642 65.86627732589841,168.99218838568777 71.94762652483769,171.5580478667398 75.6193845316302,176.2170815038844 76.53732403367758,183.4418908857624 74.70144502981566,188.97860402002698 69.99700508383103,193.43494716653368 69.48066411400214,199.30916900699958 58.52276131208055,199.5792468409636 57.83430668571964,194.31270797044272 52.670896988362074,189.04612460831413 50.49079067190178,181.21368757646997 51.63821504916996,176.89230088109616 54.10517746000551,172.90849598305067 58.46539009315893,169.9375062654144 62.07977688126266,168.85714285710128 66.72684560832568,169.26227935461793 72.1197401813697,171.82813772413647 75.5046420940198,176.08203754067654" stroke="#4dd2ff" stroke-dasharray="none" stroke-linecap="round" stroke-linejoin="round" stroke-width="0.5"><title>2025-10-01 10.0km</title><desc>1759271073000</desc></polyline><polyline fill="none" opacity="1" points="106.03718682331964,170.07521686382825 108.79704365693033,171.96999393112492 111.38440943835303,175.42118025163654 113.1093199593015,180.49641961825546 112.13187066395767,186.92499696242157 110.00448102154769,190.37610067048809 106.32467191037722,193.4211763467756 106.20967787527479,199.0376103289891 102.24238367727958,199.5789506958099 94.710274402285,199.51128317572875 94.02031019399874,194.09785781480605 89.70803389162757,190.03775801265147 87.23566214484163,185.57161775551504 87.5231472318992,177.78963042015675 89.65053687407635,173.86476525175385 92.6403817771934,171.09027672169032 97.98760439222679,168.99248453072505 106.03718682331964,170.07521686382825 111.38440943835303,175.21816981921438 112.99432592466474,179.75205375783844 112.87933189002797,184.6919196989038 110.46445716032758,190.10542655875906 106.32467191037722,193.75951717217686 105.80719875404611,199.37594811309827 94.82526843738742,199.51128317572875 94.13530422886834,194.09785781480605 87.63814126653597,186.99266584590077 86.8906800406985,182.93251986941323 87.4081531970296,177.85730029299157 90.97296827379614,172.51135775184957 97.8151133400388,169.0601553565939 105.23222858016379,169.87220469425665 109.3145168130286,172.7143690637895 112.64934382028878,178.66933819599217 112.93682890711352,184.42124312452506 110.5219541778788,189.83475232997444 106.267174892826,193.69184902188135 106.267174892826,198.96994275023462 105.57721068430692,199.4436156480224 94.82526843738742,199.51128317572875 94.07780721131712,194.09785781480605 90.28300406504422,190.64677466498688 87.81063231849112,186.5866524357698 87.06317109288648,179.41370534634916 90.5704891521018,172.78203948651208 97.70011930540204,169.0601553565939 106.49716296233237,170.27822896733414 111.09692435129546,174.94748914032243 112.99432592466474,180.1580716096796 112.53434978565201,185.97763182548806 110.23446909105405,190.30843215365894 106.43966594501399,193.5565126988222 106.15218085818924,199.1729454646702 102.29988069459796,199.71428571426077 94.82526843738742,199.71428571426077 94.02031019399874,193.96252157975687 89.82302792626433,190.10542655875906 87.35065617971122,185.57161775551504 87.5231472318992,177.92497015860863 92.35289669060148,171.09027672169032 97.29764018394053,169.12782617512858 102.1848866599612,168.85714285710128 105.23222858016379,169.73686321126297 109.65949891717173,172.9850507103838 112.53434978565201,178.26331937644864 112.99432592466474,184.01522804331034 111.21191838639788,188.95506027597003 106.32467191037722,193.62418086396065" stroke="#4dd2ff" stroke-dasharray="none" stroke-linecap="round" stroke-linejoin="round" stroke-width="0.5"><title>2025-09-27 10.0km</title><desc>1758965825000</desc></polyline><polyline fill="none" opacity="1" points="139.19139540102333,169.52075367968064 146.52133655291982,172.4406327587203 149.22777636279352,179.40846978599438 149.39692885102704,183.32369581679814 147.93094062060118,188.16792390256887 142.46167683810927,194.2729239243199 142.46167683810927,199.51521235407563 131.1848442966584,199.71428571426077 130.73377099516802,194.00749040569644 125.09535472444259,187.76976961421315 123.51659816876054,180.53658832702786 124.47512893471867,177.21858668833738 127.6326420463156,172.90515769273043 132.65083252708428,169.7198367860401 139.86800535349175,169.58711472223513 144.09681755653583,171.11341672064736 146.2957999019418,173.037879037729 149.28416052553803,180.47022847045446 149.05862387479283,185.1817604326061 145.95749492570758,191.35314889496658 142.57444516336545,193.80841519136447 142.17975602461956,199.38249674468534 131.1848442966584,199.64792793459492 130.50823434419,193.60933991213096 125.20812304969877,188.7651548499707 123.62936649401672,184.31908827618463 123.46021400601603,180.73566785396542 124.75704974820837,176.4886239162297 130.33908185595647,170.58252950024325 137.89455965883099,169.321670508245 145.61918994947337,171.77702509914525 148.6075505730696,177.21858668833738 149.171392200049,183.72185299464036 147.31071483064443,189.09694956929889 142.63082932610996,193.80841519136447 142.29252434987575,199.64792793459492 131.1848442966584,199.58157014794415 130.5646185069345,194.14020717935637 126.27942214114591,190.29140907083638 123.62936649401672,184.18636937486008 124.64428142295219,176.4886239162297 129.43693525297567,171.44522099971073 134.06043659476563,169.38803157251095 144.32235420728102,170.8479731681291 146.6904890409205,172.97151836869307 148.8894713865593,179.07666982000228 149.22777636279352,183.72185299464036 146.74687320366502,190.0259738272871 142.51806100085378,194.07384879601886 142.17975602461956,199.51521235407563 131.12846013414674,199.44885455287294 130.33908185595647,193.80841519136447 126.61772711784579,190.75592047028476 124.58789725997485,187.50433327822248 123.62936649401672,179.87298943678616 126.11026965337805,174.56417243886972 130.67738683219068,169.91891982790548 136.20303477765992,168.85714285710128 145.9011107631959,172.10882901860168 148.7203188983258,177.74946815823205 149.22777636279352,183.92093148641288 147.36709899338894,189.09694956929889 142.57444516336545,193.94113200798165" stroke="#4dd2ff" stroke-dasharray="none" stroke-linecap="round" stroke-linejoin="round" stroke-width="0.5"><title>2020-04-24 10.0km</title><desc>1587724293000</desc></polyline><polyline fill="none" opacity="1" points="185.09062065416947,180.09623867092887 183.39545052079484,175.50752026197733 178.4794571334496,170.51974396203877 175.59766790643334,169.5886878981255 171.2467312302906,169.7216959935613 163.39244294492528,173.51241460465826 159.71957432245836,182.0913229341386 161.0757104291115,187.81052855937742 167.17832290986553,194.39419930713484 167.8563909633085,199.71428571426077 178.87499683140777,199.24877999391174 178.87499683140777,194.1281937767053 183.96050723199733,188.4755490119569 185.99471139186062,181.89181479957188 183.45195619179867,174.17745054420084 184.073518574005,173.37940733024152 181.58726904494688,173.77842906682054 177.63187206652947,170.98527146456763 171.30323690152727,169.38917570054764 164.40954502485693,172.51485934463562 160.45414804690517,178.76617889368208 161.01920475810766,187.81052855937742 167.00880589638837,194.26119655632647 167.46085126535036,199.58128411584767 178.42295146221295,199.3817816642695 178.8184911601711,193.79568670148728 183.5084618628025,189.34007452317746 185.3166433388833,183.55438060680171 184.58206961420365,178.23415417596698 181.30474068946205,172.91388164297678 174.41104881302454,169.5886878981255 169.55156109691598,170.05421610653866 163.33593727392145,172.98038533434737 160.11511402018368,179.16519712947775 160.6236650601495,186.67999213724397 162.7708805629518,190.40410425094888 166.78278321190737,194.1281937767053 167.34783992310986,199.5147833059309 178.42295146221295,199.3817816642695 178.4794571334496,194.1281937767053 183.39545052079484,189.20707067771582 185.0341149829328,184.01989822625183 184.13002424524166,177.63562581758015 180.79618964949623,172.7808742391062 177.97090609325096,170.71925579203526 173.33744106185623,169.7216959935613 170.2861348213628,169.78820003051078 164.69207338080741,171.71681396942586 160.84968774439767,176.97059362393338 159.71957432245836,180.76126747886883 160.84968774439767,187.74402647453826 163.73147697164677,191.60113549034577 166.83928888314404,193.92868955340236 167.51735693658702,199.6477849187795 178.4794571334496,199.4482824888546 178.4794571334496,194.1281937767053 183.79099021852016,188.54205101763364 185.2036319966428,181.16028441808885 183.5084618628025,175.77353386004688 178.02741176448762,170.25372808787506 173.4504524038639,168.8571428571595" stroke="#4dd2ff" stroke-dasharray="none" stroke-linecap="round" stroke-linejoin="round" stroke-width="0.5"><title>2020-04-16 10.0km</title><desc>1587033949000</desc></polyline><polyline fill="none" opacity="1" points="39.5938488075044,212.77745693607721 36.33083030208945,206.98323998280102 34.26997650950216,205.0967390948208 29.575809537200257,203.34498314664233 24.881642564665526,203.68185967364116 18.12662179977633,206.51161529723322 14.97809517197311,211.8342159940512 14.176652030320838,215.6071711804252 15.55055455910042,222.47928075160598 21.504132182337344,228.34072597970953 22.477313139941543,233.93262799317017 33.18230367451906,233.52839579817373 33.35404149070382,228.13860809826292 38.105454401578754,223.4225055516581 40.109062255360186,218.03263028647052 39.36486505274661,212.37321099312976 35.07141965115443,206.17474030307494 28.717120456974953,203.47973377950257 19.786754021886736,205.568364853214 15.55055455910042,210.8235991114052 14.291143907932565,215.13555303349858 14.863603294827044,220.52545340178767 17.783146167639643,225.24157791258767 21.61862405971624,228.5428437954979 22.305575323756784,234.0 33.29679555189796,233.52839579817373 33.35404149070382,228.07123545656214 38.56342191109434,222.88352012675023 40.109062255360186,217.2915187854087 39.5938488075044,213.0469540852937 37.01778156636283,208.1959875326138 32.667090226430446,204.62511297868332 29.63305547577329,203.34498314664233 24.309183178003877,203.88398550229613 18.12662179977633,206.37686532136286 14.80635735602118,212.64270831743488 14.233897969126701,216.81990191579098 15.436062681488693,222.3445342349005 21.561378121143207,228.34072597970953 22.01934563042596,233.7978839573334 33.468533367849886,233.1915354350931 33.41128742904402,228.00386280717794 38.334438156336546,223.2877592392033 39.93732443964109,217.96525655023288 39.307619113940746,211.96896478743292 34.55620620283298,206.17474030307494 29.23233390506357,203.14285714289872 24.194691300857812,204.01873601833358 18.12662179977633,206.781115161255 15.035341110778973,212.10371355188545 14.291143907932565,218.23475145193515 16.75271927146241,223.9614905095077 21.44688624329865,228.47547119756928 22.133837508037686,234.0 33.468533367849886,233.39365167479264 33.468533367849886,228.13860809826292 38.105454401578754,223.5572518350673 40.051816317019984,217.62838775885757 39.19312723656185,212.10371355188545 35.758370915427804,206.98323998280102 29.575809537200257,203.54710908478592 24.080199423246086,203.74923495721305 17.267932719551027,207.25273964274675 14.291143907932565,215.67454517207807" stroke="#4dd2ff" stroke-dasharray="none" stroke-linecap="round" stroke-linejoin="round" stroke-width="0.5"><title>2020-04-14 10.0km</title><desc>1586861907000</desc></polyline><polyline fill="none" opacity="1" points="71.65834847954102,206.21528257790487 64.45105845620856,203.5436091547599 59.62728166859597,204.2783205001615 54.12250109948218,206.81640750257066 51.17148471181281,214.02986089180922 51.73898786306381,220.10779777914286 53.781999208498746,224.18198567116633 58.03827284439467,228.1893573384732 58.832777256378904,234.0 69.67208744981326,233.26532406645129 69.89908871008083,227.8554106944357 74.3256132917013,223.44729804078816 76.53887558239512,217.36939406918827 75.97137243091129,212.69404255662812 72.62310383701697,206.88319912488805 66.15356791042723,203.74398506304715 60.36503576533869,204.0779447654495 54.00900046876632,207.01678234740393 50.603981560561806,213.49553390493384 50.88773313607089,218.57162158569554 52.192990384530276,221.84434017218882 58.095023159636185,228.1893573384732 58.32202442036942,233.5324790526647 69.61533713457175,233.26532406645129 69.72883776458912,228.2561466456973 74.8931164429523,222.71260953485034 76.2551240066532,217.70334639237262 75.85787180066109,213.09478836104972 71.60159816453233,205.81453230232 66.32381885591894,203.677193100797 59.91103324433789,204.01115283952095 54.406252674991265,206.54924094176386 50.717482190579176,215.2988856297452 52.53349227551371,222.24508002988296 58.03827284439467,228.38972523837583 58.37877473514527,233.5324790526647 69.38833587383851,233.3321128237294 69.61533713457175,228.05577870248817 74.04186171572655,223.58087767485995 76.08487306116149,218.63841193448752 75.74437117041089,212.49366955668665 72.05560068576597,206.74961587315192 65.98331696493551,203.5436091547599 58.77602694137022,204.61227991315536 53.95225015399046,206.88319912488805 50.66073187533766,215.09851347637596 52.02273943903856,221.77755017048912 57.92477221414447,228.32293594558723 58.37877473514527,233.3321128237294 69.78558808006346,233.1985353018972 69.72883776458912,227.8554106944357 74.49586423696019,222.91297921416117 76.2551240066532,217.70334639237262 75.63087054016069,212.2265054556774 71.37459690403193,206.21528257790487 62.748549001524225,203.14285714289872 56.16551244468428,205.21340640075505" stroke="#4dd2ff" stroke-dasharray="none" stroke-linecap="round" stroke-linejoin="round" stroke-width="0.5"><title>2020-04-13 10.0km</title><desc>1586775592000</desc></polyline><polyline fill="none" opacity="1" points="111.92020539310761,211.06209100602427 110.99211154226214,208.19479368516477 114.12442828831263,203.8255536367069 112.90630510938354,205.46402220439631 109.0199121099431,207.2390250126482 101.94319649948739,203.48420548223658 95.2725219486747,203.96209284674842 90.400029233424,206.41979356849333 86.68765383097343,211.74477892153664 86.51363623421639,219.8687083607074 88.65985326375812,223.89650009549223 93.30032251635566,228.40213492530165 93.82237530709244,233.8634672971093 104.43744872300886,233.38560260366648 105.19152497686446,227.9242660916061 109.83199422922917,223.35036035184748 111.80419366201386,218.63988541916478 111.51416433323175,212.76880940853152 108.78788864752278,207.5121019242797 102.17521996237338,203.48420548223658 95.62055714265443,203.6890143970959 89.47193538304418,207.2390250126482 87.03568902495317,211.26689745829208 86.10759517457336,214.95340221992228 87.09369489061646,221.64367060229415 88.601847397862,224.4426393659087 93.0682990537025,228.3338679713197 93.76436944166198,233.8634672971093 104.43744872300886,233.45386901055463 105.3075367079582,227.78773207234917 109.13592384150252,224.3743719831109 111.22413500514813,220.7561901063891 111.86219952721149,215.22647578903707 110.35404702019878,209.49190599360736 106.9317009462975,205.66883047582814 101.01510264910758,203.48420548223658 94.80847502336837,204.0303624405642 90.05199403921142,206.76114013290498 87.73175941291265,209.56017498858273 85.93357757758349,215.22647578903707 86.10759517457336,218.50334938889137 88.13780047278851,223.96476753003662 93.1263049193658,228.53866881120484 93.6483577103354,233.79520093440078 104.61146631999873,233.5221354100504 105.3655425736215,227.9242660916061 109.94800596055575,223.35036035184748 111.68818193045445,219.52736889512744 111.80419366201386,213.58803260012064 110.35404702019878,209.42363699135603 104.7854839169886,204.64478845300619 98.23082109726965,203.41593582910718 91.3281230838038,205.5322916356963 87.09369489061646,210.65247790160356 86.04958930891007,213.58803260012064 86.22360690589994,219.2542971894145 88.83387086051516,224.71570882381639 92.89428145671263,228.40213492530165 93.76436944166198,234.0 104.95950151397847,233.38560260366648 105.01750737987459,228.19733404094586 110.35404702019878,222.53114984877175 111.80419366201386,217.274523785396 110.47005875152536,210.24286453117384 108.03381239366718,206.69287083507515 104.72747805109248,204.16690160625149 97.9987976346165,203.1428571428405 91.09609962138347,205.66883047582814 87.09369489061646,210.7207467709086 85.87557171168737,215.84089088672772" stroke="#4dd2ff" stroke-dasharray="none" stroke-linecap="round" stroke-linejoin="round" stroke-width="0.5"><title>2020-04-12 10.0km</title><desc>1586649823000</desc></polyline><polyline fill="none" opacity="1" points="149.3392681244295,214.02986089180922 149.22576749441214,219.3731052944786 147.06925551849417,224.04840616701404 142.58598062209785,228.1893573384732 142.1887284158729,233.7996339229867 131.29266790742986,233.73284521629103 130.66841444093734,228.12256802420598 126.1283892292995,224.18198567116633 124.0853778840974,220.9092794911121 123.40437410213053,215.0317227439955 126.63914206554182,208.08544708631234 130.66841444093734,204.67907177394954 137.36495162849315,203.14285714289872 145.65049764001742,206.0149074725923 148.8285152881872,212.62725156376837 149.50951906992123,217.50297502003377 147.5232580397278,223.11334882833762 142.472479991382,228.45651452359743 142.52923030685633,233.7996339229867 131.1791672774125,233.73284521629103 130.66841444093734,228.12256802420598 125.39063513232395,223.71445728029357 123.80162630835548,220.5753289043787 123.40437410213053,215.2988856297452 124.25562882935628,211.29143019014737 129.93066034419462,204.81265547429211 134.13018366508186,203.20964916283265 141.7347258948721,204.4786961696227 146.61525299749337,207.5511149482918 149.282517809188,213.6291156950174 149.39601843967102,217.70334639237262 147.3530070942361,223.64766748133115 142.69948125234805,228.32293594558723 142.41572967660613,233.7996339229867 131.1791672774125,233.7996339229867 130.55491381068714,228.12256802420598 126.0148885990493,224.24877541244496 124.02862756885588,220.5753289043787 123.68812567787245,213.49553390493384 126.63914206554182,208.08544708631234 130.10091128968634,204.87944731337484 132.65467547113076,203.87756896566134 139.06746108271182,203.5436091547599 145.53699700930156,206.0149074725923 149.1690171789378,212.9612064550165 149.3392681244295,217.97050812043017 147.01250520325266,224.24877541244496 142.69948125234805,228.05577870248817 142.41572967660613,233.59926778101362 131.235917592654,234.0 130.49816349544562,227.98898937366903 125.73113702330738,223.8480368569144 124.02862756885588,220.64211903640535 123.34762378712185,213.69590657937806 126.58239175076596,208.08544708631234 129.9874106592033,204.87944731337484 132.88167673163116,203.677193100797 137.19470068300143,203.27644117578166 144.06148881581612,204.7458636277588 146.67200331250206,207.08357394795166 149.3392681244295,214.8313505037804 149.22576749441214,219.50668581138598 146.95575488801114,224.24877541244496 142.86973219760694,228.2561466456973 142.58598062209785,233.86642262263922" stroke="#4dd2ff" stroke-dasharray="none" stroke-linecap="round" stroke-linejoin="round" stroke-width="0.5"><title>2020-04-08 10.0km</title><desc>1586343893000</desc></polyline><polyline fill="none" opacity="1" points="181.71019010269083,206.5492409419967 184.54770524497144,211.89255016675452 185.73946160520427,217.9705081206048 183.12894767383114,224.64951370778726 178.92942526261322,228.32293594570365 178.7024240512401,233.93321131484117 167.69286529766396,233.73284521629103 167.2388628749177,228.32293594570365 162.07458531530574,223.44729804072995 159.97482410958037,218.43804086645832 160.3153259267565,212.89441549149342 162.81233925232664,207.95186409528833 166.3876083320938,204.8126554741757 168.82787135476246,203.94436090620002 176.26216102857143,203.81077701802133 181.53993919398636,206.41565761802485 185.5692106964998,213.82948832627153 185.00170766795054,220.9760695871082 182.5614446455147,225.25062066235114 178.92942526261322,228.38972523843404 178.92942526261322,233.7996339231613 167.80636590369977,233.93321131484117 167.12536226934753,228.32293594570365 161.56383258942515,222.71260953502497 159.74782289820723,216.03358296875376 161.22333077248186,210.5567272013286 166.27410772629082,204.61227991321357 172.74364225170575,203.14285714289872 180.40493313665502,205.48057354061166 182.90194646222517,208.01865559455473 185.79621190787293,214.89814125793055 184.88820706214756,220.9760695871082 182.1641925254371,225.51777912059333 179.1564264742192,228.25614664587192 178.81592465704307,233.7996339231613 167.5793646920938,233.86642262263922 167.01186166354455,228.18935733864782 161.7908338010311,223.64766748144757 159.80457320110872,217.9037176995189 160.6558277439326,211.9593412389513 166.4443586349953,204.54548804514343 172.74364225170575,203.3432331813965 180.57518404559232,205.14661459776107 183.75320100528188,209.55485807801597 185.9097125136759,215.43246702937176 185.96646281634457,218.50483122991864 184.4909549425356,222.5790297127096 178.98617556574754,228.18935733864782 178.98617556574754,233.7996339231613 167.97661681217141,234.0 166.95511136064306,228.59009307291126 161.7908338010311,223.51408786181128 159.86132350401022,218.83878293790622 160.0315744127147,213.2951611657627 162.642088343855,208.61977876117453 167.01186166354455,204.61227991321357 171.8356374062132,203.47681717091473 175.69465800002217,203.74398506310536 181.59668949688785,206.21528257784666 184.7747064565774,211.82575908710714 185.51246039383113,219.37310529465321 183.98020221665502,223.51408786181128 179.0996761713177,228.12256802426418 178.92942526261322,233.5324790526065 168.31711862934753,234.0" stroke="#4dd2ff" stroke-dasharray="none" stroke-linecap="round" stroke-linejoin="round" stroke-width="0.5"><title>2020-04-07 10.0km</title><desc>1586257895000</desc></polyline><polyline fill="none" opacity="1" points="35.655402570497245,240.5009968635859 39.7981746790465,248.91669248440303 39.11717104469426,255.66252429486485 36.56340741622262,259.53633494809037 33.38539045676589,262.34149298851844 33.44214075943455,267.8849820669857 22.262331097386777,268.2189256005804 21.240825646091253,262.6086502314429 16.019797783577815,257.3322732500965 14.430789303733036,253.12449722364545 14.828041423810646,246.97975684236735 17.43855535471812,242.10399536101613 23.681088668759912,238.09649130376056 29.129117742646486,237.76253145665396 35.93915408523753,240.30062175844796 39.40092255920172,248.24878432956757 38.71991892508231,256.0632644565194 36.16615529637784,260.2042308769305 33.44214075943455,262.47507162438706 33.10163894225843,267.75140460260445 22.43258200585842,268.28571428573923 21.58132746326737,262.8758073586505 16.984552931971848,259.00201768404804 14.714540818007663,254.126351262792 14.828041423810646,246.97975684236735 16.984552931971848,242.7719101717812 21.240825646091253,238.83120233088266 25.553848662879318,237.4953634488047 29.75337107409723,237.62894746713573 36.506657113553956,241.5028714130167 39.23067165049724,246.44542869809084 39.40092255920172,254.32672187534627 36.790408628061414,259.1355970434961 33.215139548294246,262.54186093161115 33.10163894225843,267.81819333834574 22.37583170295693,268.15213690837845 21.52457716036588,262.6086502314429 16.360299600753933,258.0669613581267 14.487539606401697,253.45844875084003 14.60104021220468,247.9816208652337 17.381805052049458,242.30436988029396 21.808328674640507,238.43045097013237 28.90211653127335,237.42857142863795 35.71215287363157,240.83495522773592 38.549668016145006,244.44169403315755 39.57117346744053,247.84803908941103 39.85492498218082,252.52338401885936 38.946920136222616,255.8628944082302 36.506657113553956,259.6699141917634 33.215139548294246,262.54186093161115 33.158389245159924,267.95177078811685 22.489332308759913,268.15213690837845 21.58132746326737,263.0761751283426 16.530550509225577,258.0669613581267 14.430789303733036,253.0577068964485 14.771291120676324,247.11333880625898 17.098053537542,242.504744334321 20.446321406168863,239.2987452559173 23.56758806318976,238.09649130376056 30.718126222491264,237.82932344061555 34.52039651363157,239.03157791355625 37.58491286751814,242.97228447382804 39.62792377057485,247.58087545150192 39.51442316477187,255.0614135642536 36.393156507983804,260.00386217422783 33.38539045676589,262.8090180879226 32.87463773111813,267.95177078811685" stroke="#4dd2ff" stroke-dasharray="none" stroke-linecap="round" stroke-linejoin="round" stroke-width="0.5"><title>2020-04-02 10.0km</title><desc>1585825459000</desc></polyline><polyline fill="none" opacity="1" points="67.14413946028799,238.28941412974382 70.57619243999943,239.54756666638423 73.05177163844928,241.66655455884757 75.80866665486246,248.0234741672757 76.14624563674442,253.5857246008818 74.2895612376742,258.3533275509835 69.56345549528487,262.5911656274693 69.3946660044603,268.28571428573923 58.367085938341916,268.15328352397773 57.86071746586822,262.723597594013 53.753506523091346,259.479006155103 51.61550630629063,256.1681808140711 50.715295688482,248.68564949184656 53.58471703226678,242.527391292213 60.78640197310597,237.95832092664205 66.46898149722256,238.15697687020293 70.8012450945098,239.61378514906392 73.38935061986558,242.063863971096 75.80866665486246,247.89103901648195 76.25877196388319,252.79112049448304 73.89571909233928,258.6844097083085 69.7885081495624,262.52494963339996 69.56345549528487,268.21949890838005 58.31082277488895,267.9546373276389 57.86071746586822,262.92224548989907 52.403190596727654,257.49251310213003 50.715295688482,250.407301978732 52.17813794221729,244.71258678642334 57.691927975276485,239.2164741444867 63.20571800810285,237.7596649187617 71.13882407615893,239.8786590087111 75.3022981826216,245.7720726992702 76.37129829102196,252.19516673701582 75.07724552811123,257.028997127607 69.56345549528487,262.723597594013 69.50719233159907,268.15328352397773 58.47961226571351,268.15328352397773 57.52313848445192,262.5911656274693 53.753506523091346,259.3465734857018 51.334190488327295,255.77088056819048 50.715295688482,249.41404152027098 53.809769686777145,242.527391292213 60.3925598282367,237.42857142863795 65.7375603702385,238.0245395816164 72.82671898393892,241.9976457535522 76.08998247305863,247.9572565954295 76.31503512733616,252.98977161815856 73.50187694723718,259.3465734857018 69.73224498610944,262.52494963339996 69.3384028407745,268.0870681324159 58.53587542939931,268.21949890838005 57.691927975276485,262.45873363222927 53.753506523091346,259.41278982389485 51.72803263342939,256.49926415499067 50.77155885240063,249.3478240989498 53.24713805085048,243.25579065823695 57.97324379323982,238.68672573694494 62.08045473601669,237.7596649187617 67.87556058703922,238.68672573694494 70.6887187671382,239.54756666638423 72.99550847476348,242.063863971096 76.08998247305863,248.2221268400317 76.42756145470776,253.25463968218537 73.72692960174754,258.94927530532004 69.7885081495624,262.7898135664873" stroke="#4dd2ff" stroke-dasharray="none" stroke-linecap="round" stroke-linejoin="round" stroke-width="0.5"><title>2020-03-23 10.0km</title><desc>1584960411000</desc></polyline><polyline fill="none" opacity="1" points="87.0594695683103,250.80460570997093 87.67836450203322,246.4342504622764 89.98515470931306,242.5936094521894 96.3991567492485,237.42857142857974 101.85668480116874,237.56100884615444 107.65179190738127,239.41512967919698 109.78979258751497,241.40168147400254 112.60295137693174,247.36129812558647 112.82800408010371,252.12894961691927 110.69000340020284,258.28711109771393 106.13268616120331,262.32630160817644 105.5137912274804,267.8884219143656 94.93631417886354,268.28571428573923 94.0361033664085,262.6573816141463 90.21020741271786,259.28035714 87.7908908536192,254.71141198358964 87.39704862306826,247.9572565953713 90.04141788533889,242.92470014473656 96.11784087051637,237.49479014100507 103.26326419576071,237.75966491864529 108.49573954427615,240.0110958952573 112.09658279479481,245.9045083091478 112.82800408010371,252.59246930660447 110.69000340020284,258.28711109771393 106.07642298541032,262.723597594013 105.90763345803134,267.9546373276389 94.82378782727756,268.08706813229946 94.09236654220149,262.52494963328354 90.26647058851086,258.8830589167774 87.67836450203322,254.71141198358964 87.45331179886125,248.15590928966412 89.81636518216692,242.72604575072182 97.1868412103504,237.42857142857974 105.96389663382433,238.42185136082117 109.84605576330796,241.40168147400254 112.1528459705878,245.9045083091478 112.82800408010371,252.32760095532285 110.85879292734899,258.02224521385506 106.13268616120331,262.723597594013 105.96389663382433,268.02085273351986 94.82378782727756,268.21949890855467 94.0361033664085,262.32630160817644 89.81636518216692,258.48576043522917 87.90341720543802,255.10871291800868 87.50957497488707,247.29508048202842 90.09768106089905,242.5936094521894 96.17410404630937,237.89210226450814 102.36305338307284,237.89210226450814 108.1018973137252,239.81244055461138 109.90231893886812,241.26924488827353 112.54668820113875,247.55995101347798 112.9405304316897,252.65868637617677 110.40868752123788,258.48576043522917 106.13268616120331,262.78981356631266 105.90763345803134,268.02085273351986 94.7675246517174,268.02085273351986 94.0361033664085,262.45873363217106 88.12846990837716,255.43979683250654 87.3407854475081,252.52625222946517 87.56583815044723,246.96399215626298" stroke="#4dd2ff" stroke-dasharray="none" stroke-linecap="round" stroke-linejoin="round" stroke-width="0.5"><title>2019-12-13 10.0km</title><desc>1576239112000</desc></polyline><polyline fill="none" opacity="1" points="147.20928644022206,237.4285714285652 147.6869651802699,257.5483419465745 148.08228551683715,261.1146164381789 147.96698375203414,267.70428461681877 147.24222980166087,267.97561869722267 138.82520096894586,267.87871371566143 135.56380819238257,268.2857142857101 133.65309323230758,268.07252362629515 133.19188617292093,264.44824358675396 132.8295091977925,248.07023462062352 126.63615725829732,247.178607703303 126.33966700587189,246.79094244117732 125.15370599622838,246.61649279939593 124.77485734026413,245.27903989847982" stroke="#4dd2ff" stroke-dasharray="none" stroke-linecap="round" stroke-linejoin="round" stroke-width="0.5"><title>2019-11-23 10.0km</title><desc>1574497580000</desc></polyline></svg>