<?xml version="1.0" encoding="utf-8" ?>
<svg baseProfile="full" height="300mm" version="1.1" viewBox="0,0,200,300" width="200mm" xmlns="http://www.w3.org/2000/svg" xmlns:ev="http://www.w3.org/2001/xml-events" xmlns:xlink="http://www.w3.org/1999/xlink"><defs /><rect fill="#222222" height="300" width="200" x="0" y="0" /><text fill="#FFFFFF" style="font-size:12px; font-family:Arial; font-weight:bold;" x="10" y="20">Over 10km Runs</text><text fill="#FFFFFF" style="font-size:4px; font-family:Arial" x="10" y="280">Runner</text><text fill="#FFFFFF" style="font-size:9px; font-family:Arial" x="10" y="290">Floyd Li</text><text fill="#FFFFFF" style="font-size:4px; font-family:Arial" x="65" y="280">SPECIAL TRACKS</text><rect fill="yellow" height="2.6" width="2.6" x="65" y="283" /><text fill="#FFFFFF" style="font-size:3px; font-family:Arial" x="70" y="285.5">Over 20.0 km</text><rect fill="red" height="2.6" width="2.6" x="65" y="287" /><text fill="#FFFFFF" style="font-size:3px; font-family:Arial" x="70" y="289.5">Over 40.0 km</text><text fill="#FFFFFF" style="font-size:4px; font-family:Arial" x="120" y="280">STATISTICS</text><text fill="#FFFFFF" style="font-size:3px; font-family:Arial" x="120" y="285">Number: 16</text><text fill="#FFFFFF" style="font-size:3px; font-family:Arial" x="120" y="290">Weekly: 1.5</text><text fill="#FFFFFF" style="font-size:3px; font-family:Arial" x="141" y="285">Total: 160.2 km</text><text fill="#FFFFFF" style="font-size:3px; font-family:Arial" x="141" y="290">Avg: 10.0 km</text><text fill="#FFFFFF" style="font-size:3px; font-family:Arial" x="167" y="285">Min: 10.0 km</text><text fill="#FFFFFF" style="font-size:3px; font-family:Arial" x="167" y="290">Max: 10.1 km</text><polyline fill="none" points="23.823794649448246,35.69688878051238 26.898905406240374,33.7149295565323 30.925836159847677,33.025551277794875 40.37081919936463,34.57665156503208 46.667474559508264,41.211879764683545 49.01041608862579,48.019394037895836 48.42468070611358,54.48217014234979 46.667474559508264,58.96299742272822 40.297602276317775,65.33951581123983 40.297602276317775,71.80215122085065 25.94708541035652,72.40532784728566 24.922048491425812,65.33951581123983 18.991477745585144,59.73852265952155 16.062800833955407,53.44812949374318 15.989583911374211,46.03746551356744 19.577213128097355,38.71290421200683 27.99715924821794,33.542585042945575 38.46717920713127,33.88727403280791 41.90837457822636,35.69688878051238 45.86208840832114,40.00547875382472 49.083633011206985,48.10556473134784 47.10677609592676,57.84279296855675 40.37081919936463,65.081009303045 40.151168431155384,71.80215122085065 25.80065156472847,72.40532784728566 24.848831568378955,65.33951581123983 19.8700808188878,60.94489374704426 16.282451602630317,54.22366010630503 16.20923467958346,45.2619269209099 19.28434543684125,39.488449189346284 27.118556174915284,34.05961847206345 35.39206844987348,33.45641277224058 41.24942227313295,35.61071674292907 44.25131610687822,38.10970204061596 49.083633011206985,46.81300335022388 48.93719916557893,52.586427926435135 47.253209941554815,57.92896259803092 40.37081919936463,65.081009303045 40.151168431155384,71.88831933826441 26.313170024193823,72.57766394212376 24.702397722750902,65.42568462877534 19.65043005067855,60.94489374704426 15.916366988327354,52.32791727426229 16.502102370839566,44.91724285943201 19.5039962050505,39.143762626103126 27.923942325636744,33.7149295565323 38.320745361503214,34.14579067757586 42.27445919206366,35.955404836975504 44.91026841243729,38.79907591332449 48.863982242532074,47.330028154712636 48.79076532041654,53.18961912143277 47.033559173345566,58.27364102227148 40.297602276317775,65.33951581123983 40.151168431155384,71.88831933826441 26.093519255518913,72.49149589933222 25.068482336588204,65.85652857588138 17.966440826188773,58.35981060494669 15.843150065746158,52.41408750117989 16.941403907258064,42.762964090448804 19.43077928200364,39.22993428079644 28.143593093845993,33.7149295565323 35.831369986757636,33.62875730439555 43.51914687966928,37.33415571920341 48.64433147478849,45.77895273338072 48.863982242532074,53.0172788266791 46.15495610004291,59.566183783172164 40.517253044992685,64.90867158438778 40.07795150810853,71.97448744630674 26.16673617856577,72.75 25.068482336588204,65.77035980497021 19.5039962050505,60.514047139906324 16.42888544779271,54.39600013953168 16.282451602630317,46.209807320381515 19.357562359422445,39.488449189346284 25.94708541035652,34.57665156503208 33.48842845764011,33.284068202308845 41.98159150080755,35.955404836975504 47.54607763281092,42.59062153712148 49.15684993425384,48.27790609013755 48.497897629160434,54.740680094459094 46.228173022624105,59.566183783172164 40.44403612241149,64.90867158438778 40.22438535420224,72.06065554515226 25.80065156472847,72.23299171490362 24.995265413541347,65.42568462877534 19.8700808188878,60.85872444428969 16.941403907258064,56.11939842061838 15.916366988327354,46.46831996081164 19.796863896306604,38.88524760561995 23.31127618998289,35.955404836975504 29.38828078098595,33.542585042945575 39.19934843480587,34.49047940631863 43.22627918794751,37.24798385926988 46.228173022624105,41.12570832442725 47.32642686460167,39.91930718295043 41.61550688697025,34.3181350606028 34.220597685314715,32.25 25.727434642147273,33.542585042945575 20.382599278353155,37.24798385926988 18.47895928611979,39.74696401361143 20.821900815237314,38.28204556478886" stroke="#4DD2FF" stroke-linecap="round" stroke-linejoin="round" stroke-width="0.5"><title>2025-10-19 10.0km</title><desc>1760866141000</desc></polyline><polyline fill="none" points="89.15808712365106,36.75009943457553 92.906668192707,43.103138666949235 93.80632764939219,50.86789711023448 91.40723576489836,58.632581543177366 85.10961956949905,64.8089822207694 84.73476146254689,71.69120210158871 70.34021015884355,72.4853006543126 69.0656925952062,64.72074825508753 61.568530458025634,56.60318252828438 59.99412640882656,48.04435714863939 63.89265072066337,38.33836388774216 71.91461420757696,33.13237439759541 80.91120877256617,32.69118731823983 88.93317225947976,37.103047358221374 93.35649792058393,44.33844609721564 93.95627089170739,51.662015961133875 91.18232090072706,59.16198915045243 85.25956281227991,64.5442802948528 84.43487497698516,72.22060122276889 70.26523853745311,72.30883437610464 69.36557908076793,65.42661971296184 64.3424804485403,60.92667868977878 61.19367235060781,55.632598603726365 60.29401289438829,45.661987693747506 64.71733855549246,37.63246895739576 73.71393312048167,32.426474956038874 82.33566957851872,33.04413700080477 89.75786009524018,37.9854164988501 93.80632764939219,45.397279546479695 94.03124251309782,52.191428098478355 91.48220738628879,58.809050784038845 85.18459119088948,64.89721617673058 84.80973308440298,72.22060122276889 70.19026691606268,72.30883437610464 69.36557908076793,65.69132135185646 63.89265072066337,60.3090377858025 60.29401289438829,53.338486548513174 60.66887100134045,43.01490235014353 64.64236693410203,37.27952126314631 67.56626016786322,35.1618318844703 76.2629682472907,32.25 85.33453443367034,34.45593420165824 89.83283171616495,38.07365336047951 93.2815262991935,43.36784755968256 93.80632764939219,53.42672174714971 91.48220738628879,58.98551998625044 85.40950605506077,64.98545012326213 85.25956281227991,71.95590170507785 71.91461420757696,72.75 70.19026691606268,72.30883437610464 69.14066421659663,65.16191798774526 63.59276423510164,59.691396413429175 60.144069651607424,52.27966342133004 59.91915478743613,46.27963970287237 63.89265072066337,38.33836388774216 67.11643043952063,35.4265433580149 72.96421690657735,32.86766217870172 81.8108682287857,32.86766217870172 88.3333992883563,36.573625415272545 93.95627089170739,45.5737516542431 93.2815262991935,54.66201352298958 91.18232090072706,59.16198915045243 85.10961956949905,64.45604630035814 84.88470470532775,71.95590170507785 70.64009664393961,72.39706752006896 69.0656925952062,65.07368406036403 62.318246671464294,58.19140827434603 60.06909803021699,52.45613403787138 60.29401289438829,45.30904347845353 63.442820991855115,38.95602144993609 67.0414588181302,35.4265433580149 72.28947231452912,32.95589959440986 81.66092498600483,32.95589959440986 89.60791685199365,37.72070585732581 94.33112899865955,47.77964977559168 91.70712225046009,58.54434690857306 85.25956281227991,64.1913442601799 85.03464794857427,71.95590170507785 70.11529529420659,72.39706752006896 69.21563583798707,65.42661971296184 62.54316153563559,58.456112264306284 60.06909803021699,51.57378057134338 61.19367235060781,42.83842968806857 65.09219666244462,37.19128431548597 71.16489799367264,33.30884916236391 80.7612655297853,32.602949873777106 86.45910875406116,35.1618318844703 91.55717900767922,40.3678084044368 93.88129927031696,46.8972912436584 93.80632764939219,52.8973104126635 90.88243441516533,59.4266928252182 85.18459119088948,64.63251427945215 85.33453443367034,71.51473565137712 86.23419388988987,65.25015190569684 90.35763306589797,61.63255343493074 93.80632764939219,55.9855383465183 95.08084521209821,49.897306352388114 94.55604386283085,45.5737516542431" stroke="#4DD2FF" stroke-linecap="round" stroke-linejoin="round" stroke-width="0.5"><title>2025-10-16 10.0km</title><desc>1760611285000</desc></polyline><polyline fill="none" points="113.0668935449794,35.09217052673921 121.9717460386455,32.25 130.12195001542568,33.848722133552656 136.9137866627425,40.332396608544514 139.5550564704463,47.70418338594027 137.81936488253996,57.20747337018838 130.34834457049146,65.28962398250587 130.27287971880287,72.21711824962404 115.78362820390612,72.66118639905471 114.80258513242006,65.55606715200702 108.08621333632618,59.07259212026838 105.44494352955371,52.23380262986757 105.89773263921961,44.32915670127841 110.12376433098689,37.49024424602976 119.17954652756453,32.42763594677672 127.70707476278767,33.049361456534825 134.72530596563593,37.223791957017966 139.4041267670691,46.99365260673221 138.04575943760574,56.76339685189305 130.57473912555724,64.93436628888594 130.27287971880287,72.21711824962404 115.70816335221753,72.75 114.65165542950854,65.55606715200702 108.31260789185762,59.33903730963357 105.59587323246524,52.85551312210737 105.82226778753102,44.68442332238192 110.4256237372756,36.86852210323559 120.08512474736199,32.42763594677672 130.0464851637371,33.49345081788488 137.66843517962843,41.398201204952784 139.3286619153805,47.43773441587109 137.66843517962843,57.38510390999727 130.42380942218006,64.93436628888594 130.42380942218006,72.0394909226452 115.78362820390612,72.66118639905471 114.80258513242006,65.73369588318747 107.63342422712594,58.27325603249483 105.59587323246524,52.32261844340246 105.89773263921961,44.417973370989785 110.19922918267548,37.31260939594358 118.9531519729644,32.60527185461251 129.2918366473168,33.49345081788488 135.78181388881058,38.378417917585466 139.4041267670691,47.17128535924712 137.74390003131703,57.38510390999727 130.57473912555724,65.02318072662456 130.19741486711428,72.3059318989981 115.78362820390612,72.66118639905471 114.65165542950854,65.37843838200206 108.23714303970337,58.89496194612002 105.44494352955371,52.14498680655379 105.74680293584242,44.950873187044635 108.38807274308056,39.17777339951135 117.21746038505808,33.13817934808321 126.4241722850129,32.69408979418222 130.80113368015736,34.20399329578504 135.02716537192464,37.84551382996142 139.4041267670691,47.34891807328677 139.25319706415758,52.67788160091732 137.44204062456265,57.829180091561284 130.499274273403,65.28962398250587 130.42380942218006,72.3059318989981 115.85909305559471,72.75 114.80258513242006,65.64488152222475 108.99179155612364,60.138372358633205 105.52040838077664,52.76669736619806 105.89773263921961,44.06270663469331 109.74644007300958,37.84551382996142 118.57582771452144,32.69408979418222 128.61265298258513,33.226997229852714 135.4044896303676,38.2896005937946 139.25319706415758,47.082468987908214 137.8948297346942,56.674581519386265 134.57437626225874,61.64822532481048 130.499274273403,65.11199515487533 130.499274273403,72.0394909226452 115.85909305559471,72.66118639905471 114.57619057735428,65.28962398250587 108.46353759523481,59.516667388088536 105.59587323246524,52.85551312210737 106.35052174888551,42.197553742909804 109.36911581456661,38.2896005937946 118.80222226958722,32.60527185461251 128.53718813089654,33.13817934808321 135.78181388881058,38.7336871168809 139.1022673607804,46.10548826708691 138.4230836960487,55.25353489146801 135.1780950757675,60.84889174782438 130.499274273403,64.84555184148485 130.19741486711428,72.21711824962404 116.4628118686378,72.75 115.33083909424022,71.59542243659962" stroke="#4DD2FF" stroke-linecap="round" stroke-linejoin="round" stroke-width="0.5"><title>2025-10-08 10.1km</title><desc>1759919017000</desc></polyline><polyline fill="none" points="149.05967333726585,50.12307484692428 156.3909188262187,37.53272313403431 161.25347960926592,33.92286604072433 166.9389352942817,32.25 179.2823588210158,34.97941123973578 184.51896274182945,42.199100010620896 185.94032666273415,50.82742442720337 183.02279019309208,59.10348628065549 176.96329137077555,64.826245732198 176.73886548820883,72.13371077133343 162.07637451123446,72.4858761021751 161.32828823663294,65.70666668686317 156.54053608095273,61.30455237592105 153.17414784664288,56.19806990888901 152.0520184347406,46.337185395066626 156.09168431628495,38.14903859660262 163.94659019680694,33.306547373649664 171.72668745042756,32.69022823945852 180.62891411501914,36.91640720446594 185.2670490159653,44.57630057237111 185.7159007806331,51.44372980954358 183.47164195775986,58.31110102729872 176.88848274340853,65.00232999928994 176.21520509617403,72.2217521185521 162.15118313906714,72.66195871011587 161.1786709818989,65.44254050060408 153.17414784664288,56.550242143450305 151.97720980737358,47.393714457866736 156.01687568891793,38.50121865136316 163.72216431470588,33.39459292613901 171.57707019569352,32.69022823945852 180.40448823291808,36.65227166278055 185.04262313386425,43.87194557522889 185.79070940846577,51.26764260517666 183.02279019309208,59.10348628065549 176.88848274340853,65.17841422848869 176.36482235137373,72.30979345581727 162.00156588340178,72.5739174108603 160.6550105898641,64.826245732198 156.09168431628495,60.95238220109604 152.80010470934212,55.93394063296728 151.97720980737358,47.04153825592948 155.79244980681688,38.85339855332859 159.9817329426296,34.97941123973578 163.72216431470588,33.39459292613901 172.77400823449716,32.778273858479224 181.37700038962066,37.88490345590981 184.51896274182945,42.199100010620896 185.7159007806331,51.53177339734975 183.39683333039284,58.39914387156023 176.96329137077555,64.826245732198 176.36482235137373,72.2217521185521 162.30080039333552,72.75 161.10386235453188,65.26645632868167 157.06419647298753,62.27301956980955 153.69780823821202,57.51871500152629 151.90240118000656,47.56980250129709 155.19398078741506,39.55775789928157 162.45041764806956,33.834820545394905 171.72668745042756,32.69022823945852 179.65640195878223,36.035955065337475 184.44415411446244,42.11105541198049 185.64109215373173,51.53177339734975 183.24721607519314,58.75131515227258 177.11290862597525,64.5621192593826 176.43963097874075,72.2217521185521 162.15118313906714,72.5739174108603 161.25347960926592,65.70666668686317 154.52070314018056,58.83935794851277 151.6779752979055,48.626329961873125 153.17414784664288,42.99150097038364 156.3909188262187,37.79685838962905 162.07637451123446,33.92286604072433 166.78931803954765,32.51413697213866 172.84881686139852,33.04241065896349 179.88082784088328,36.38813603547169 184.2945368597284,41.93496618582867 185.56628352589905,52.500252234749496 183.39683333039284,58.48718670598464 176.88848274340853,65.17841422848869 176.21520509617403,72.13371077133343 162.52522627590224,72.75 161.1786709818989,65.35449841950322 155.41840666951612,60.07195609691553 152.7252960819751,54.78937944537029 151.90240118000656,49.7708998277667 154.07185137551278,40.96647476009093 158.63517764909193,36.035955065337475 166.71450941218063,32.69022823945852 176.2900137240067,33.74677504069405 184.2945368597284,41.58278761903057 185.64109215373173,46.953494181798305 185.04262313386425,54.52524971135426 180.55410548765212,62.00889226782601" stroke="#4DD2FF" stroke-linecap="round" stroke-linejoin="round" stroke-width="0.5"><title>2025-10-01 10.0km</title><desc>1759271073000</desc></polyline><polyline fill="none" points="28.170754914171994,98.73068108630832 34.09109007474035,97.25 42.82358443643898,99.60166868701344 48.29989445954561,107.1792210029671 49.409957302268595,112.23088287556311 49.26194892311469,117.97928709205007 47.63385675381869,122.59540012269281 40.603458751458675,129.9114495133981 40.381446182727814,137.2274323446327 26.17264179792255,137.6629054142395 24.618553817737848,130.259831157804 18.920231226366013,124.85989871341735 16.25608040392399,119.45993000734597 15.590042698197067,113.79863355553243 17.292139057070017,107.26631889020791 23.58249516505748,100.47265534411417 32.1669811476022,98.03389032639097 40.233437803573906,99.60166868701344 43.78563890000805,102.04042894940358 47.11582742771134,106.48243756452575 49.33595311269164,113.01475859753555 48.07788189128041,121.28895572683541 45.339726879261434,125.7308580118115 40.603458751458675,129.65016318159178 40.455450371839106,136.8790537189925 35.34916129615158,137.5758108192822 25.654612470883876,137.48871621489525 24.766562196891755,130.5211172917043 19.216247984208167,125.29537848057225 16.03406783565879,119.54702656442532 16.404088783077896,109.53086065041134 19.142243794631213,104.47918181528803 22.990461648907512,100.90814831882017 29.872851273044944,98.20808807300637 40.233437803573906,99.60166868701344 47.11582742771134,106.22114361921558 49.187944734003395,112.05668816680554 49.03993635484949,118.4147705854266 45.9317603954114,125.38247440557461 40.603458751458675,130.0856403542566 39.93742104573175,137.31452697730856 25.802620850503445,137.48871621489525 24.914570576045662,130.5211172917043 16.552097162231803,121.37605208606692 15.590042698197067,116.1502538441564 16.25608040392399,109.61795828293543 20.844340153504163,102.73721623705933 29.650838704314083,98.2951869321987 39.19737915042788,99.3403725057724 44.45167660526931,102.9985113144503 48.74391959654167,110.6631291389931 49.11394054396078,118.06638380949153 46.005764584988356,125.03409064857988 40.52945456188172,129.9985449386877 40.52945456188172,136.79195903911022 39.64140428742394,137.4016216007294 25.802620850503445,137.48871621489525 24.84056638646871,130.5211172917043 19.95628987904638,126.07924146717414 16.774109730497003,120.85347379028099 15.812055266927928,111.62120123009663 20.32631082693115,103.08560965483775 29.502830325160176,98.2951869321987 40.825471319723874,99.8629647831549 46.74580647982657,105.87275156041142 49.187944734003395,112.5792721794569 48.595911217387766,120.06960570946103 45.63574363756925,125.64376212458592 40.75146713014692,129.8243540787953 40.381446182727814,137.05324305064278 35.42316548572853,137.75 25.802620850503445,137.75 24.766562196891755,130.346926545084 19.364256362896413,125.38247440557461 16.182076214812696,119.54702656442532 16.404088783077896,109.70505590626271 22.620440701488405,100.90814831882017 28.984800999052823,98.38228578201961 35.275157107040286,98.03389032639097 39.19737915042788,99.16617500444409 44.89570174226537,103.34690461878199 48.595911217387766,110.14054388081422 49.187944734003395,117.54380336293252 46.89381485944614,123.90184239554219 40.603458751458675,129.9114495133981 39.8634168561548,137.4016216007294 25.802620850503445,137.6629054142395 24.544549628626555,130.5211172917043 19.142243794631213,125.64376212458592 16.848113920073956,121.2018593584653 15.664046888239682,112.84056405862793 19.808281500358135,103.86949429207016 24.618553817737848,100.03716213349253 30.390880599617958,98.20808807300637 35.20115291699767,98.1209892044426 40.825471319723874,99.95006346289301 47.263835806399584,106.39533959201071 49.26194892311469,113.36314756207867 47.63385675381869,122.2470151577727 40.381446182727814,129.9985449386877 40.159433614462614,137.2274323446327 32.98102723248303,137.48871621489525" stroke="#4DD2FF" stroke-linecap="round" stroke-linejoin="round" stroke-width="0.5"><title>2025-09-27 10.0km</title><desc>1758965825000</desc></polyline><polyline fill="none" points="97.75,99.86537070729537 93.4241486066021,101.04596120334463 85.83823529374786,106.35859311482636 82.89164086687379,107.24402773857582 85.90092879254371,112.33525448956061 85.83823529374786,118.82835803454509 82.39009287930094,125.2476154739852 78.37770897825249,129.0106003334513 78.4404024768155,134.98706297698664 65.90170278656296,134.98706297698664 65.40015479852445,128.78924885834567 61.07430340582505,125.4689681000309 58.002321981592104,120.23026999441208 57.81424148613587,111.52361219475279 61.57585139316507,105.47315734031145 64.20897832815535,102.74305645673303 67.34365325071849,101.56246890220791 74.74148606788367,101.56246890220791 82.89164086687379,104.80907975422451 85.90092879254371,112.5566113111563 86.08900928776711,116.90994751971448 84.45897832815535,122.29624025541125 78.37770897825249,129.08438414265402 78.37770897825249,134.91327980731148 65.83900928776711,135.13462929264642 65.3374613004271,128.78924885834567 59.06811145506799,121.85353286983445 57.31269349856302,113.81096527533373 58.37848297227174,110.12168231682153 61.88931888551451,105.32558459939901 67.4690402476117,101.78382922435412 75.49380804947577,101.63625568419229 80.19582043332048,103.33334946690593 82.64086687285453,105.47315734031145 85.9636222908739,113.7371798120439 85.71284829708748,118.97592785040615 82.2647058821749,125.83788898342755 78.50309597491287,128.5678973113536 78.06424148613587,134.7657134437468 65.83900928776711,135.06084613874555 65.08668730640784,128.346545692184 59.193498451961204,122.96030079439515 57.438080495456234,118.01672347623389 57.25,114.03232161747292 58.691950464388356,109.31003738456639 64.8986068109516,102.74305645673303 73.29953560372815,101.34110850770958 81.88854489126243,104.07121501024812 85.21130030951463,110.12168231682153 85.83823529374786,117.35265811812133 83.76934984489344,123.32922303647501 78.56578947370872,128.5678973113536 78.18962848279625,135.06084613874555 65.83900928776711,134.98706297698664 65.14938080497086,128.93681651644874 60.384674922563136,124.65734145336319 57.438080495456234,117.86915345239686 58.566563467727974,109.31003738456639 63.89551083603874,103.70228233840317 69.03637770889327,101.41489531379193 80.44659442687407,103.03820302599343 83.07972136209719,105.39937097369693 85.52476780163124,112.18768323533004 85.90092879254371,117.35265811812133 83.14241486042738,124.36220425111242 78.4404024768155,128.86303269129712 78.06424148613587,134.91327980731148 65.77631578943692,134.83949662942905 64.8986068109516,128.5678973113536 60.7608359134756,125.17383124947082 58.50386996893212,121.55839445296442 57.438080495456234,113.07311028195545 60.19659442733973,107.17024156381376 65.27476780163124,102.0051894748467 71.41873065009713,100.82460064132465 82.2020123838447,104.44014748191694 85.33668730640784,110.7119689330575 85.90092879254371,117.57401330932043 83.83204334322363,123.32922303647501 78.50309597491287,128.71546501724515 78.12693498423323,134.98706297698664 65.90170278656296,135.13462929264642 65.08668730640784,128.93681651644874 60.886222910368815,125.02626277622767 58.2530959751457,120.23026999441208 57.87693498446606,111.44982648361474 61.63854489196092,105.39937097369693 65.02399380831048,102.52169644617243 68.2213622292038,101.26732169359457 80.88544891634956,103.03820302599343 83.14241486042738,105.03043902164791 85.71284829708748,112.26146886649076 85.52476780163124,117.9429384683026 83.2051083589904,123.9194982079789 78.37770897825249,128.86303269129712 78.4404024768155,134.24923091969686 77.68808049545623,134.61814704816788" stroke="#4DD2FF" stroke-linecap="round" stroke-linejoin="round" stroke-width="0.5"><title>2020-04-24 10.0km</title><desc>1587724293000</desc></polyline><polyline fill="none" points="142.75,99.88302086520707 137.87499999976717,101.28064484224888 128.99999999976717,106.50331950944383 126.1875,105.62061675242148 122.62499999976717,102.67826594301732 116.12499999953434,101.35420391935622 108.31249999976717,103.92876659467584 105.81249999976717,106.20908538461663 102.81249999976717,112.6822066816967 102.87499999976717,118.56680886424147 105.18749999976717,124.01002048619557 110.49999999976717,128.8647399902111 111.5,135.11697913485114 123.49999999976717,134.23431356833316 123.31249999976717,128.6440716746729 128.75,123.20089719467796 130.4375,118.49325165170012 130.3125,113.19711140834261 128.4375,108.12160491693066 123.0,102.60470700950827 119.8125,101.57488110277336 115.0,101.72199918481056 106.31249999976717,105.91485113243107 102.25,115.40384152915794 103.74999999976717,121.72976146795554 110.49999999976717,129.01185216079466 111.24999999976717,134.89631285064388 123.43750000023283,134.38142457575304 123.43750000023283,128.71762778784614 129.0625,122.4653297297773 131.31249999976717,115.18316883977968 128.5,106.65043652412714 129.18749999976717,105.76773395843338 126.43749999976717,106.20908538461663 122.06249999976717,103.11961937724845 115.06249999976717,101.35420391935622 107.43749999953434,104.81147155090002 103.06249999976717,111.72595401061699 103.68749999976717,121.72976146795554 110.31249999976717,128.8647399902111 110.81249999953434,134.74920195474988 122.93749999976717,134.52853555121692 123.375,128.34984714229358 128.56249999976717,123.42156727873953 130.56250000023283,117.0221057269373 129.75,111.13749015913345 126.125,105.25282359845005 118.5,101.57488110277336 113.12499999976717,102.0897942512529 106.24999999976717,105.32638224540278 102.68749999976717,112.167301564652 103.24999999976717,120.47929359483533 105.625,124.59847318340326 110.06249999976717,128.71762778784614 110.68749999976717,134.67564649495762 122.93749999976717,134.52853555121692 123.0,128.71762778784614 128.4375,123.27445389743662 130.24999999976717,117.53700716316234 129.25,110.47546771680936 125.56250000023283,105.10570628126152 122.43749999976717,102.8253837862867 117.3125,101.72199918481056 113.9375,101.795558214013 107.75,103.92876659467584 103.49999999953434,109.7398864683928 102.25,113.9326889119111 103.49999999953434,121.65620459796628 106.68749999976717,125.92248988791835 110.12499999976717,128.49695942463586 110.87499999976717,134.82275740680052 123.0,134.60209102724912 123.0,128.71762778784614 128.875,122.53888651216403 130.4375,114.37403503182577 128.56249999976717,108.41583821334643 122.5,102.31047119543655 117.43749999976717,100.76573108014418 107.87499999976717,104.07588416727958 103.62499999953434,110.5490257976926 102.43749999976717,115.10961126053007 103.87499999953434,122.02398886845913 110.37499999976717,129.1589642991894 111.06249999976717,134.60209102724912 123.25000000023283,134.23431356833316 123.1875,128.93829607934458 128.81249999976717,122.6124432864599 130.375,114.07980431709439 128.25,108.19516325305449 123.49999999976717,103.63453135453165 116.0625,101.50132204953115 106.62499999976717,104.66435413784347 102.5625,112.53509097360075 102.74999999976717,118.56680886424147 104.375,122.75955681136111" stroke="#4DD2FF" stroke-linecap="round" stroke-linejoin="round" stroke-width="0.5"><title>2020-04-16 10.0km</title><desc>1587033949000</desc></polyline><polyline fill="none" points="187.75,99.8926228886121 182.49188562575728,101.29240732983453 173.47797527024522,106.74417190282838 171.97565687750466,106.74417190282838 169.40919629042037,104.01829507894581 164.40146831492893,101.80811666080263 159.8319165376015,101.66077117761597 152.75850077276118,104.60767477727495 148.50193199329078,109.61738159373635 147.50038639828563,118.23693784128409 150.31723338435404,124.35159954655683 155.45015455922112,129.28749118902488 155.88833075691946,135.0337079805322 167.65649149892852,134.51802384096663 168.34505409537815,129.3611609422951 172.852009273367,124.71995090611745 175.54366306005977,118.16326688311528 175.10548686236143,111.90120627928991 171.53748067980632,105.56541569798719 169.28400309104472,103.50258742383448 164.15108191641048,101.58709842391545 159.01816074131057,101.95546211203327 151.63176197814755,105.04970921605127 148.1889489949681,110.86980253231013 147.31259659933858,114.99540813633939 148.81491499207914,122.50983975763666 155.32496135961264,128.91914230340626 156.38910355442204,135.0337079805322 168.09466769709252,134.5916930276435 168.28245749603957,128.69813287624856 173.47797527024522,123.54122585389996 175.66885625943542,117.64756995276548 174.85510046361014,111.45917629339965 170.16035548667423,104.68134720396483 163.21213292097673,101.73444392334204 153.4470633692108,104.01829507894581 148.81491499207914,109.76472535310313 147.43778979871422,114.47970880416688 148.06375579559244,120.37339215475367 151.2561823797878,125.53032319428166 155.45015455922112,129.1401516587357 156.20131375524215,135.1073771113297 168.21986089623533,134.5916930276435 168.28245749603957,128.6244630512665 173.97874806798063,122.95186256186571 175.66885625943542,116.83718827285338 175.10548686236143,112.19589277677005 172.2886398760602,106.89151628513355 167.5312982997857,102.98687937762588 164.21367851574905,101.58709842391545 158.39219474466518,102.1764802292455 151.63176197814755,104.90236443502363 148.00115919602104,111.753862982383 147.3751931991428,116.32149033737369 148.6897217927035,122.36249875917565 155.3875579596497,128.91914230340626 155.88833075691946,134.88636969478102 168.4076506954152,134.2233470142237 168.34505409537815,128.55079321790254 173.7283616689965,123.39388507878175 175.48106646048836,117.5738989309175 174.7925038638059,111.01714602025459 169.59698608936742,104.68134720396483 163.77550231828354,101.36608011531644 158.26700154552236,102.32382560084807 151.63176197814755,105.34439868206391 148.25154559477232,111.16448947659228 147.43778979871422,117.86858297081199 150.12944358563982,124.1305886352784 155.2623647598084,129.06648188165855 156.01352395652793,135.1073771113297 168.4076506954152,134.4443546461407 168.4076506954152,128.69813287624856 173.47797527024522,123.6885665973532 175.60625966009684,117.20554370147875 174.66731066443026,111.16448947659228 170.9115146829281,105.56541569798719 164.15108191641048,101.80811666080263 158.1418083459139,102.02913482586155 150.69281298248097,105.86010494088987 147.43778979871422,115.06907943740953 149.12789799040183,122.58351024496369 155.2623647598084,128.84547250223113 155.95092735695653,134.81270054011839 168.03207109705545,134.73903137707384 168.28245749603957,128.91914230340626 173.3527820711024,123.6885665973532 175.41846986068413,116.76351716299541 173.9161514681764,109.54370970209129 168.78323029354215,103.79727756039938 164.02588871703483,101.80811666080263 160.83346213237382,101.80811666080263 157.07766615133733,102.54484359821072 151.8195517770946,105.34439868206391 148.50193199329078,110.35410007205792 147.25,114.77439418470021 148.12635239539668,120.59440428687958 150.37982998415828,124.64628065010766" stroke="#4DD2FF" stroke-linecap="round" stroke-linejoin="round" stroke-width="0.5"><title>2020-04-14 10.0km</title><desc>1586861907000</desc></polyline><polyline fill="none" points="52.75,164.99110238830326 46.66257668705657,166.81879843445495 38.83588957018219,171.64389221498277 32.810582821723074,167.98852130654268 26.971625766484067,166.52636739978334 22.437116564251482,167.33055244054412 15.914877300616354,170.47417567821685 13.057515337131917,177.2000180799514 13.11963190161623,183.2678401285666 15.169478527503088,188.6045541925705 20.573619631817564,193.721911610628 21.13266871124506,199.64337677310687 33.059049079660326,199.35095995961456 33.245398772880435,193.42949223186588 38.02837423305027,188.82387030636892 40.26457055215724,183.70647575269686 39.51917177881114,175.88409766653785 35.29524539853446,169.59688694536453 27.406441717641428,166.67258293298073 22.126533742062747,167.476767799526 16.101226993836462,170.25485360180028 12.871165643911809,178.1504034496029 13.492331287823617,184.8030635662726 15.728527607163414,189.26250231981976 20.387269938364625,193.64880677772453 21.256901840213686,200.00889761169674 33.12116564414464,199.20475150545826 33.36963190161623,193.2832824952202 38.21472392627038,188.45834341068985 40.637269938364625,181.80571932229213 40.016104294219986,176.68827155738836 36.35122699360363,170.32796096865786 29.269938650075346,166.8919061734341 22.934049079427496,167.25744474906242 15.976993864635006,170.47417567821685 12.25,177.56555107276654 12.560582821955904,183.12162819044897 13.989263803698123,186.7038115558098 20.449386502848938,193.64880677772453 20.69785276055336,199.4971683822223 33.059049079660326,199.20475150545826 33.18328220839612,193.721911610628 38.83588957018219,187.65418354328722 40.32668711640872,182.171249820909 39.89187116548419,177.12691145768622 35.23312883405015,169.15824215114117 29.456288343295455,166.81879843445495 22.437116564251482,167.1843370498391 16.411809815792367,169.962424055906 12.374233128735796,179.53942581324372 14.36196319013834,187.14244494703598 20.387269938364625,193.86812125256984 20.759969324804842,199.4971683822223 32.810582821723074,199.27785573643632 33.059049079660326,193.50259708840167 37.904141103848815,188.6045541925705 40.14033742318861,183.1947341634077 39.767638036748394,176.46895150031196 35.73006134969182,170.18174622708466 29.083588956622407,166.67258293298073 21.194785275962204,167.8423060583882 15.914877300616354,170.32796096865786 12.312116564018652,179.32010668271687 13.802914110245183,186.63070596277248 20.263036809396,193.79501643544063 20.759969324804842,199.27785573643632 33.245398772880435,199.13164726656396 33.18328220839612,193.2832824952202 38.40107361925766,187.87349996576086 40.32668711640872,182.171249820909 39.6434049080126,176.17652464687126 34.98466257657856,169.59688694536453 25.54294478497468,166.23393623827724 18.337423312710598,168.5002744255471 13.74079754576087,174.71438847860554 12.498466257471591,179.9780638604425 12.995398772880435,184.94927514030132 14.36196319013834,187.58107805333566 20.387269938364625,193.64880677772453 20.946319018257782,199.5702725815354 32.93481595092453,199.27785573643632 32.93481595092453,193.21017761452822 37.4072085886728,189.33560762781417 40.14033742318861,182.09814373694826 39.02223926363513,174.78749536216492 33.36963190161623,168.2809517076239 25.10812883428298,166.52636739978334 16.163343558087945,169.88931664958363 12.622699386207387,179.46631944412366 13.181748465867713,185.31480393605307 14.858895705081522,188.6045541925705" stroke="#4DD2FF" stroke-linecap="round" stroke-linejoin="round" stroke-width="0.5"><title>2020-04-13 10.0km</title><desc>1586775592000</desc></polyline><polyline fill="none" points="97.75,164.9022622842458 91.98219814244658,166.5255736889667 83.95743034034967,171.5430572089972 76.99845201196149,167.70616137154866 68.15866873064078,167.04208105179714 63.205882353009656,169.3294660942629 58.94272445817478,174.64207268500468 57.62616099091247,178.55271495081251 58.002321981592104,185.0458072432666 61.32507739937864,190.4320754762157 65.3374613004271,194.04749191040173 66.15247678011656,199.80260502069723 77.18653250765055,199.50747219769983 78.2523219815921,198.62207296147244 78.2523219815921,193.67857274517883 83.26780185755342,187.9971923713456 85.08591331238858,184.2341740912525 85.52476780186407,175.30614559579408 84.52167182625271,172.2071331407642 87.90712074306794,167.4848013370065 86.59055727533996,169.25567959976615 82.39009287883528,171.174125855905 74.74148606788367,167.11586778599303 67.53173374617472,167.6323747013812 62.26547987619415,170.28868979372783 58.2530959751457,176.04400362604065 58.065015479922295,184.8244528430514 60.384674922795966,189.17774284252664 65.40015479875728,194.04749191040173 65.96439628466032,199.95017138426192 77.43730650143698,199.4336889720871 78.2523219815921,193.53100502333837 83.26780185755342,188.5874678628752 85.39938080497086,183.49632493208628 85.08591331238858,177.1507891729707 82.13931888551451,171.46927095449064 74.99226006190293,167.11586778599303 67.90789473685436,167.3372279405594 61.26238390128128,171.174125855905 58.629256965825334,175.52750308881514 57.62616099091247,179.51192566286772 58.691950464388356,186.74285525426967 60.321981424232945,189.76801731070736 65.14938080497086,193.97370809339918 65.90170278656296,199.95017138426192 77.43730650143698,199.50747219769983 78.37770897825249,193.38343726913445 82.51547987619415,189.69423303031363 84.77244582027197,185.78365472401492 85.46207430306822,179.80706714879489 83.83204334345646,173.6090690928977 80.13312693499029,169.47703905886738 73.7383900929708,167.11586778599303 67.03018575836904,167.70616137154866 61.88931888551451,170.6576216261019 59.38157894741744,173.68285511579597 57.438080495456234,179.80706714879489 57.62616099091247,183.3487550043501 59.820433436660096,189.25152717885794 65.21207430353388,194.19505952042527 65.77631578966975,199.8763882063795 77.62538699689321,199.5812554153381 78.4404024768155,193.53100502333837 83.3931888542138,188.5874678628752 85.27399380807765,184.45552868314553 85.39938080497086,178.03621631569695 83.83204334345646,173.5352830621414 77.81346749211662,168.37024104385637 70.72910216706805,167.04208105179714 63.26857585133985,169.3294660942629 58.691950464388356,174.86343039391795 57.563467492349446,178.03621631569695 57.75154798780568,184.16038921126164 60.57275541801937,190.0631543531781 64.96130030974746,194.04749191040173 65.90170278656296,200.09773771569598 78.00154798757285,199.4336889720871 78.06424148613587,193.8261404352961 83.83204334345646,187.70205443404848 85.39938080497086,182.0206242162967 83.95743034034967,174.42071490449598 81.32430340535939,170.58383527590195 77.7507739935536,167.85373468801845 70.47832817328162,166.74693403521087 63.01780185778625,169.47703905886738 58.691950464388356,174.93721628095955 57.37538699689321,180.47113502433058 59.44427244598046,188.2923301809933 65.27476780186407,193.97370809339918 65.77631578966975,199.95017138426192 77.87616099091247,199.4336889720871 78.06424148613587,193.89992426824756 84.08281733747572,187.70205443404848 85.65015479852445,181.79926883330336 83.70665634656325,173.83042713749455 77.93885448900983,168.2226678392035 71.0425696594175,166.67314726114273 67.78250773996115,167.3372279405594 63.58204334368929,169.25567959976615 60.44736842112616,172.1333469580277 58.19040247704834,175.97021785902325 57.25,180.32356444123434 58.50386996916495,186.44771677342942 60.886222910368815,190.28450705093564" stroke="#4DD2FF" stroke-linecap="round" stroke-linejoin="round" stroke-width="0.5"><title>2020-04-12 10.0km</title><desc>1586649823000</desc></polyline><polyline fill="none" points="142.75,165.0551674545277 138.75078369909897,165.80228798196185 128.27664576820098,171.48037754220422 130.7523510970641,175.51478119270178 131.8315047021024,182.16402460203972 128.4670846394729,189.7097175687668 123.96003134828061,193.5945966099389 123.38871473376639,199.79541590093868 111.20062695932575,199.57129087345675 110.5658307208214,193.22105149907293 104.85266457684338,188.36494664906058 102.50391849526204,182.537575701077 103.96394984330982,173.79642696736846 109.55015673977323,167.0723910210654 113.93025078368373,165.42872781929327 124.21394984307699,166.997679142165 128.4670846394729,169.91143641603412 131.3236677115783,177.60668490664102 131.1967084640637,183.58351770136505 128.78448275872506,188.8132039133925 123.76959247677587,193.44517858984182 123.32523510977626,199.72070756641915 111.13714733533561,199.64599922398338 110.43887147330679,193.3704695677734 105.3605015676003,188.96262293693144 103.07523510977626,185.30184754461516 102.3134796237573,178.72734500048682 105.93181818188168,170.9573975634994 110.43887147330679,167.14710289158393 117.92946708481759,165.42872781929327 127.19749216316268,168.64133860496804 130.7523510970641,176.0377577159088 131.51410658308305,181.49163211416453 129.29231974924915,187.76726984314155 123.6426332287956,193.74401459749788 123.70611285278574,199.72070756641915 111.010188087821,199.64599922398338 110.43887147330679,193.3704695677734 104.53526645782404,188.43965621327516 102.75783699075691,184.92829794291174 102.3134796237573,179.02618738485035 103.265673981281,174.54353802610422 109.61363636376336,167.29652660887223 114.31112852669321,165.50343986786902 122.81739811925218,166.92296725546475 128.27664576820098,170.3597056734725 131.26018808758818,177.15842035913374 131.3871473353356,181.71576301648747 129.1018808777444,188.36494664906058 123.89655172429048,193.5945966099389 123.57915360527113,199.72070756641915 111.010188087821,199.72070756641915 110.31191222579218,193.3704695677734 105.23354231985286,189.03733243665192 103.01175548601896,184.92829794291174 102.63087774300948,177.00899877859047 105.93181818188168,170.9573975634994 109.8040752352681,167.37123845511815 112.66065830737352,166.25055990973487 119.83385579916649,165.87699999002507 127.07053291518241,168.64133860496804 131.13322884007357,176.41131213260815 131.3236677115783,182.01460410584696 128.72100313473493,189.03733243665192 123.89655172429048,193.2957605374395 123.57915360527113,199.49658251466462 111.07366771181114,199.9448325454723 110.24843260180205,193.22105149907293 104.91614420083351,188.58907531789737 103.01175548601896,185.00300787965534 102.25,177.2331311374437 105.86833855835721,170.9573975634994 109.67711598752066,167.37123845511815 112.91457680240273,166.02642398216994 117.73902821331285,165.57815190852853 125.42006269586273,167.2218147543026 128.34012539195828,169.83672484516865 131.3236677115783,178.50321312743472 131.1967084640637,183.7329378577415 128.6575235107448,189.03733243665192 124.08699059579521,193.519887603994 123.76959247677587,199.79541590093868 111.07366771181114,199.79541590093868 110.24843260180205,193.44517858984182 105.61442006286234,189.85913639800856 102.75783699075691,185.52597720880294 102.56739811925218,176.85957716556732 105.4239811913576,171.18153188866563 110.8832288403064,166.6988315464696 116.9772727272939,165.42872781929327 120.15125391865149,165.87699999002507 125.48354231962003,167.819509363384 128.21316614421085,169.9861479793908 131.06974921631627,176.71015552029712 131.13322884007357,183.7329378577415 128.72100313473493,188.73849438957404 123.83307210030034,193.66930560796754 123.83307210030034,198.89891535404604 121.10344827594236,199.19774899899494" stroke="#4DD2FF" stroke-linecap="round" stroke-linejoin="round" stroke-width="0.5"><title>2020-04-08 10.0km</title><desc>1586343893000</desc></polyline><polyline fill="none" points="187.75,165.03742345131468 182.71082949312404,166.13572618633043 172.8191244241316,172.21296906331554 175.6186635948252,177.55796884337906 175.74308755784295,182.31717965338612 172.94354838714935,189.49254184111487 168.3398617513012,193.665931755153 168.09101382503286,199.81614361488027 155.8352534561418,199.7429271361907 155.08870967733674,193.22662876691902 150.54723502299748,189.56575942999916 147.8099078340456,185.09947199124144 147.56105990801007,179.0223449690966 148.9297235023696,174.04345319868298 154.52880184329115,168.18588651710888 159.87903225817718,166.3553865191643 164.79377880203538,166.86792701826198 171.32603686652146,169.869942136982 174.43663594475947,175.72749422537163 175.74308755784295,182.3903980194009 172.88133640564047,189.71219458407722 168.2776497695595,193.7391488919966 168.02880184329115,199.8893600856536 155.95967741915956,199.66971064935206 155.46198156685568,193.7391488919966 149.80069124419242,188.3942770548747 147.49884792626835,182.90292636031518 147.8721198157873,176.82577959098853 150.60944700450636,171.4075544733787 154.52880184329115,167.96622677898267 157.20391705073416,167.014367089374 165.35368663608097,166.86792701826198 171.139400921762,169.72350268432638 175.55645161308348,177.85084432252916 174.93433179729618,185.6852162873256 172.259216590086,190.37115238513798 168.2776497695595,193.81236602109857 168.2776497695595,199.7429271361907 156.08410138264298,199.8893600856536 155.33755760383792,193.7391488919966 149.240783409914,187.5888817445957 147.25,180.2670621817815 148.86751152086072,174.26311096182326 154.40437788004056,167.7465669696685 161.49654377880506,166.13572618633043 169.8951612901874,168.69842562818667 172.63248847913928,171.48077402130002 175.80529953935184,179.0223449690966 174.8099078340456,185.6852162873256 171.82373271905817,190.6640223125578 168.5264976960607,193.665931755153 168.15322580677457,199.7429271361907 155.8352534561418,199.81614361488027 155.21313364058733,193.59271461021854 149.4896313364152,188.61393015494104 147.31221198150888,182.31717965338612 148.24539170507342,175.80071330518695 154.59101382480003,167.67334701743675 161.49654377880506,166.3553865191643 170.0817972351797,168.3323263025959 173.56566820270382,173.1648214321467 175.9297235023696,179.60809453122783 175.99193548364565,182.97614466311643 174.37442396348342,187.4424461305607 168.3398617513012,193.59271461021854 168.3398617513012,199.7429271361907 156.27073732740246,199.96257654868532 155.15092165907845,194.03201736032497 149.4896313364152,188.4674947630847 147.3744239632506,183.34223605750594 147.56105990801007,177.2650932377437 150.42281105997972,172.13974959467305 155.21313364058733,167.7465669696685 160.50115207396448,166.50182670145296 164.73156682029366,166.7947069707443 171.20161290327087,169.50384344585473 174.68548387102783,175.65427513746545 175.4942396315746,183.9279818761861 173.814516129205,188.4674947630847 168.46428571431898,193.51949745742604 168.2776497695595,199.4500611416879 156.6440092169214,199.96257654868532 155.8352534561418,199.5232776523917 155.15092165907845,193.81236602109857 150.92050691251643,190.37115238513798 147.8099078340456,184.8798177493154 147.31221198150888,179.46165718819248 148.61866359459236,174.7024262738414 154.52880184329115,167.7465669696685 157.57718894002028,166.50182670145296 165.1670506913215,166.86792701826198 169.77073732716963,168.6252057789825 173.814516129205,173.31126013939502 175.6186635948252,179.31521981360856 174.99654377880506,185.46556223585503 171.94815668207593,190.44436987885274 168.40207373257726,193.665931755153 168.2776497695595,199.15719502046704 163.11405529966578,199.4500611416879" stroke="#4DD2FF" stroke-linecap="round" stroke-linejoin="round" stroke-width="0.5"><title>2020-04-07 10.0km</title><desc>1586257895000</desc></polyline><polyline fill="none" points="52.75,229.72846002993174 48.55376766086556,230.62641298648668 38.1267660909798,236.9868796808878 41.17857142863795,243.87108352046926 40.79709576140158,249.70763738715323 37.99960753507912,255.09518180636223 33.866954473778605,258.53720207873266 33.54905808460899,265.1218887299765 21.15109890094027,264.8225861529354 20.3245682886336,258.91133368352894 15.556122448528185,254.94552836206276 12.885792778339237,249.55798277590657 12.504317111102864,243.79625558666885 15.810439560329542,235.9392774301814 20.13383045513183,231.7488525409717 23.88500784896314,230.77607169921976 30.179356357548386,231.3747062254115 36.34654631046578,234.14338416152168 40.98783359490335,243.57177173666423 40.224882260430604,251.12935457850108 37.36381475627422,255.46931527537527 33.80337519641034,258.61202841589693 33.866954473778605,264.8225861529354 21.34183673420921,265.1967143539805 20.197409732732922,258.91133368352894 14.348116169217974,253.00003063573968 12.567896389169618,248.28591727017192 13.012951334239915,241.4017574248137 15.937598115764558,235.9392774301814 22.931318680988625,231.449535504682 29.03492935630493,231.07538902712986 36.66444270010106,233.91889717470622 40.54277864983305,242.82349170942325 39.77982731559314,251.57831729424652 36.91875981120393,256.2175816053641 33.866954473778605,258.76168106583646 33.48547880654223,264.6729348154622 21.53257456794381,265.27153997001005 20.578885399969295,259.2106388214743 15.428963893093169,254.8707016276894 12.885792778339237,249.4083281319472 13.012951334239915,241.4017574248137 15.428963893093169,236.6875649142894 20.197409732732922,232.27265704231104 25.02943485067226,230.77607169921976 29.73430141271092,230.92573037924012 37.3002354784403,235.26581800176064 40.35204081633128,240.80313158762874 40.54277864983305,249.63281008560443 37.61813186830841,255.02035508822883 33.61263736267574,258.83650737878634 33.48547880654223,264.74776048818603 21.468995290109888,265.1218887299765 20.5153061223682,258.91133368352894 14.729591836454347,253.82312649628147 12.631475666770712,248.66005442669848 12.758634222438559,242.5241794717731 15.874018837930635,236.16376376058906 20.83320251153782,231.82368177978788 28.780612244736403,230.70124234678224 36.41012558853254,234.51752897771075 39.58908948185854,238.55828007805394 40.733516483334824,242.37452330405358 41.051412872970104,247.61246987769846 40.034144426696,251.3538359727827 37.3002354784403,255.6189686061698 33.61263736267574,258.83650737878634 33.54905808460899,264.89741180930287 21.596153846010566,265.1218887299765 20.578885399969295,259.4351175901247 14.920329669956118,253.82312649628147 12.567896389169618,248.21108981448924 12.94937205617316,241.55141380330315 15.556122448528185,236.38825001794612 19.30729984282516,232.79646114638308 22.804160125553608,231.449535504682 30.815149136353284,231.15021833893843 35.07496075332165,232.4971445640549 38.50824175775051,236.91205100133084 40.79709576140158,242.07521087187342 40.6699372055009,250.45590995799284 37.17307692300528,255.9931017914787 33.80337519641034,259.1358125493862 33.23116169543937,264.89741180930287 21.405416012275964,265.27153997001005 20.3245682886336,258.9861599802389 15.492543170694262,254.6462213761988 12.94937205617316,249.85729196621105 12.25,245.36764049483463 14.030219780048355,239.00725096359383 19.879513343330473,232.4971445640549 24.902276294771582,231.00055970728863 29.289246467640623,231.15021833893843 35.45643642032519,233.09577759884996 38.63540031388402,236.6875649142894 41.1149921505712,243.945911446237 41.1149921505712,247.98660739918705 39.46193092595786,253.0748575727921 33.676216640276834,259.1358125493862 33.42189952917397,264.97223745752126 24.838697016937658,264.74776048818603" stroke="#4DD2FF" stroke-linecap="round" stroke-linejoin="round" stroke-width="0.5"><title>2020-04-02 10.0km</title><desc>1585825459000</desc></polyline><polyline fill="none" points="97.75,229.5272846892476 97.20352323842235,231.0994915967458 89.85644677653909,233.24340406869305 82.02361319353804,238.17437631468056 84.63455772097223,243.0338491377188 85.24175412277691,248.1076722717262 83.17728635668755,254.11045488587115 78.07683658157475,259.5414968584664 77.34820089954883,265.4012551647029 65.69002998503856,265.11541450361256 64.83995502255857,259.25565365870716 59.67878560721874,254.61068430513842 57.735757121350616,250.03714406804647 57.61431784112938,244.7489486472332 58.82871064473875,240.38972865859978 62.41116941533983,235.95901653170586 68.60457271360792,232.67169475730043 75.10157421277836,233.10047678725095 78.80547226383351,234.4582847103011 81.47713643172756,236.74511279002763 84.45239880052395,243.60554946947377 84.81671664188616,249.60837304533925 82.81296851555817,254.75360692694085 77.7125187406782,259.32711447030306 77.53035982022993,265.4727153107524 65.6293103445787,265.3297950110864 65.08283358300105,259.4700360702118 60.650299849919975,255.96844796015648 58.3429535231553,252.39537971193204 57.37143928022124,244.32017418782925 60.4681409294717,237.6741344332695 68.24025487224571,232.7431584483711 74.37293853075244,232.95754947513342 79.04835082450882,234.52974820765667 81.8414542726241,237.17389217257733 84.45239880052395,243.46262443310115 84.9381559221074,248.75083016400458 82.38793103420176,255.11091334518278 77.95539730112068,259.25565365870716 77.7125187406782,265.4012551647029 65.56859070481732,265.11541450361256 65.08283358300105,259.684418411809 59.193028485635296,253.82460933330003 57.37143928022124,246.17819483269705 58.95014992495999,240.0324142674799 64.90067466255277,234.1009671066422 70.85119940014556,232.52876735222526 79.4126686656382,234.81560212024488 83.9059220389463,241.17581963760313 85.05959520232864,248.1076722717262 83.66304347803816,253.3243793179863 77.7125187406782,259.4700360702118 77.65179910045117,265.3297950110864 65.7507496252656,265.3297950110864 64.71851574233733,259.32711447030306 60.650299849919975,255.82552560174372 58.03935532248579,251.96661022177432 57.37143928022124,245.10626048385166 60.71101949037984,237.6741344332695 67.81521739135496,232.17144870350603 73.58358320826665,232.81462213164195 81.23425787081942,237.1024289613706 84.7559970014263,243.53408695512917 84.9988755621016,248.9652159890975 81.96289355307817,255.82552560174372 77.89467766135931,259.25565365870716 77.46964017977007,265.25833484972827 65.81146926549263,265.4012551647029 64.90067466255277,259.18419283942785 60.650299849919975,255.8969867846463 58.46439280360937,252.75268740748288 57.432158920681104,245.03479813196464 60.103823088575155,238.46022864803672 65.20427286368795,233.52925853861962 69.63680659653619,232.52876735222526 75.89092953503132,233.52925853861962 78.92691154405475,234.4582847103011 81.41641679150052,237.17389217257733 84.7559970014263,243.8199369663489 85.12031484255567,249.2510636469815 82.20577211375348,255.39675834064838 77.95539730112068,259.5414968584664 77.46964017977007,265.3297950110864 65.69002998503856,265.3297950110864 65.08283358300105,259.4700360702118 60.528860569698736,255.39675834064838 57.55359820090234,249.3939874296193 57.25,245.17772282805527 58.767991004511714,240.31826579582412 64.41491754120216,234.0295035627787 70.06184407812543,232.4573036378133 77.04460269864649,233.95804001117358 81.47713643172756,237.38828175910749 84.81671664188616,244.17724930605618 84.9381559221074,249.82275859150104 81.90217391285114,255.7540644109249 78.01611694158055,259.18419283942785 77.7125187406782,265.0439543190878 76.4374062968418,265.25833484972827" stroke="#4DD2FF" stroke-linecap="round" stroke-linejoin="round" stroke-width="0.5"><title>2020-03-23 10.0km</title><desc>1584960411000</desc></polyline><polyline fill="none" points="132.8266035929555,227.25 133.42621283396147,232.6215094718209 134.3256266952958,235.40525308711221 134.2590034462046,247.24572613398777 132.8599152175011,246.93207621367765 132.19368272763677,248.8531777097087 128.86252027831506,249.9509454150102 124.19889284914825,252.6561444767285 125.66460432682652,255.6357606232341 125.86447407398373,258.8505821142171 124.7651904654922,261.7909426235128 121.76714426127728,264.5352575488796 121.83376751013566,267.4363678470254 115.37131235841662,267.6323879743868 114.87163799093105,264.3784401137091 112.63975914998446,262.4966255914478 111.04080117412377,259.7130903392099 110.67437330482062,257.39999546445324 111.04080117412377,254.81244808784686 112.40657777839806,252.53852754662512 116.20410297065973,249.48047394902096 119.43533054669388,249.5588859024865 122.86642786941957,250.65665146740503 124.13226960028987,251.83282516355393 125.79785082489252,255.36132331955014 125.9310973228421,258.1840970781632 124.66525559220463,261.83014726889087 121.96701400820166,264.2216226105229 121.60058613866568,267.5147759106476 115.3380007337546,267.75 114.80501474195626,264.41764447884634 112.53982427646406,262.41821644071024 111.10742442321498,259.7130903392099 110.874243051745,255.71417124327854 112.43988940294366,252.7345557421213 116.03754484828096,249.51967992790742 120.26812115893699,249.67650380081614 123.36610223690514,251.00950397746055 125.49804620444775,254.49880472457153 125.9310973228421,258.45853224169696 124.66525559220463,261.83014726889087 121.93370238365605,264.45684883985086 121.83376751013566,267.55397993620136 115.27137748489622,267.6323879743868 114.83832636661828,264.33923574423534 112.57313590100966,262.1829888866341 111.04080117412377,259.7130903392099 110.90755467617419,255.83178714147652 112.30664290499408,252.61693883757107 116.67046571348328,249.48047394902096 121.86707913468126,250.06856318598147 124.16558122471906,251.83282516355393 125.53135782887693,254.49880472457153 125.9310973228421,258.3017121735902 124.7651904654922,261.67332866168 121.96701400820166,264.45684883985086 121.86707913468126,267.59318395741866 115.27137748489622,267.71079599577934 114.80501474195626,264.2216226105229 112.30664290499408,261.9477611796756 111.17404767230619,259.94831949847867 110.9408663008362,255.32211797349737 112.47320102737285,252.53852754662512 116.07085647271015,249.7549157118483 119.73513516702224,249.7549157118483 123.13292086531874,250.89188651242875 124.19889284914825,251.7544137025834 125.76453920034692,255.4789393323881 125.9977205718169,258.4977372479043 124.49869746959303,261.9477611796756 121.96701400820166,264.4960531964025 121.83376751013566,267.59318395741866 115.23806586046703,267.59318395741866 114.80501474195626,264.30003137062886 111.30729417025577,260.1443436809059 110.84093142731581,258.4193272309785 110.97417792514898,255.12609117929242 112.63975914998446,252.34249924489995 116.50390759110451,249.9117394828936 121.10091177118011,250.1861809186812 124.29882772266865,251.87203088749084 125.59798107796814,254.38118839330855 125.96440894738771,258.57614724803716 124.56532071856782,262.1829888866341 122.03363725717645,264.33923574423534 122.03363725717645,267.55397993620136 115.17144261137582,267.59318395741866 114.93826123990584,264.33923574423534 111.80696853750851,261.2028724323609 110.8076198027702,258.65455723102787 110.9408663008362,255.00847505184356 112.47320102737285,252.34249924489995 115.77105185238179,250.14697501208866 118.80240968125872,249.79412166101974" stroke="#4DD2FF" stroke-linecap="round" stroke-linejoin="round" stroke-width="0.5"><title>2019-12-13 10.0km</title><desc>1576239112000</desc></polyline><polyline fill="none" points="176.58943785435986,228.7351511411689 176.12044966040412,227.25 176.6564361677738,233.0459293501699 176.51127315533813,233.5979081802434 176.01995219028322,233.55848120420706 175.87478917784756,234.24188030791265 175.05964303121436,234.38644500967348 173.15019109862624,235.51667219446972 173.65267844928894,236.62060486195696 173.7085103772115,237.63253431698104 173.46284989459673,238.34219409489742 172.41320965095656,239.4198176726568 172.35737772315042,239.91920096345711 172.55837266345043,245.42542256627348 173.74200953391846,245.87221717854118 174.44549182482297,246.358432975685 176.19861435936764,246.56868785219558 176.37727652851027,246.83150593558094 176.70110171008855,260.4709832555309 176.96909496374428,262.8886112300388 176.89093026483897,267.3558405947115 176.39960929966765,267.53978180976264 170.69358627311885,267.47408855063986 168.48264193022624,267.75 167.1873412040295,267.605475033306 166.8746824080008,265.14852427653386 166.62902192550246,254.04564009405294 162.430460951,253.44119358181342 162.22946601069998,253.17838981148088 161.42548624961637,253.060127929195 161.16865938145202,252.1534496700042 161.403153478459,251.73295890303416 161.2803232371807,251.45701104543696 160.21951660804916,250.53718032218603 159.2480410633725,250.8262707292597 158.72322094155243,250.65544466285064 158.2542327475967,249.9852785420153 158.0309050361975,249.06543666435755 158.06440419290448,242.40294522049226 158.343563832168,240.655130487954 158.6338898569811,239.97176750608924 158.56689154356718,239.23583383690857 159.91802419757005,230.25971216129255 161.65998034662334,230.23342678878544 165.40071951271966,230.53570822881738 165.59054806741187,230.69341998543678 172.50254073558608,231.96824915814796 174.95914556103526,232.6516572196997" stroke="#4DD2FF" stroke-linecap="round" stroke-linejoin="round" stroke-width="0.5"><title>2019-11-23 10.0km</title><desc>1574497580000</desc></polyline></svg>