<?xml version="1.0" encoding="utf-8" ?>
<svg baseProfile="full" height="300mm" version="1.1" viewBox="0,0,200,300" width="200mm" xmlns="http://www.w3.org/2000/svg" xmlns:ev="http://www.w3.org/2001/xml-events" xmlns:xlink="http://www.w3.org/1999/xlink"><defs /><rect fill="#222222" height="300" width="200" x="0" y="0" /><text fill="#FFFFFF" style="font-size:12px; font-family:Arial; font-weight:bold;" x="10" y="20">Over 10km Runs</text><text fill="#FFFFFF" style="font-size:4px; font-family:Arial" x="10" y="280">Runner</text><text fill="#FFFFFF" style="font-size:9px; font-family:Arial" x="10" y="290">Floyd Li</text><text fill="#FFFFFF" style="font-size:4px; font-family:Arial" x="65" y="280">SPECIAL TRACKS</text><rect fill="yellow" height="2.6" width="2.6" x="65" y="283" /><text fill="#FFFFFF" style="font-size:3px; font-family:Arial" x="70" y="285.5">Over 20.0 km</text><rect fill="red" height="2.6" width="2.6" x="65" y="287" /><text fill="#FFFFFF" style="font-size:3px; font-family:Arial" x="70" y="289.5">Over 40.0 km</text><text fill="#FFFFFF" style="font-size:4px; font-family:Arial" x="120" y="280">STATISTICS</text><text fill="#FFFFFF" style="font-size:3px; font-family:Arial" x="120" y="285">Number: 27</text><text fill="#FFFFFF" style="font-size:3px; font-family:Arial" x="120" y="290">Weekly: 1.7</text><text fill="#FFFFFF" style="font-size:3px; font-family:Arial" x="141" y="285">Total: 387.9 km</text><text fill="#FFFFFF" style="font-size:3px; font-family:Arial" x="141" y="290">Avg: 14.4 km</text><text fill="#FFFFFF" style="font-size:3px; font-family:Arial" x="167" y="285">Min: 10.0 km</text><text fill="#FFFFFF" style="font-size:3px; font-family:Arial" x="167" y="290">Max: 52.6 km</text><polyline fill="none" opacity="1" points="39.4444025864359,58.87059117543686 27.534343556850217,64.17893542980892 25.080692298011854,60.829639813673566 19.77937279024627,55.47907332943578 17.52273002662696,51.51871693292924 16.55559741379693,47.305483487740275 16.501867824117653,44.01909817061096 17.271991941845044,39.616097647260176 18.34658373403363,37.08801411188324 20.19129964383319,34.83377863209171 21.641998563194647,33.590777820922085 23.307615841040388,32.68485698020959 26.49557149107568,31.80000000000291 29.790986320353113,32.031748645051266 32.065538947004825,33.50650629246957 33.40877868712414,35.887162943181465 33.48041814006865,38.22565576141642 32.69238415907603,41.090797897282755 32.56701511668507,42.60762079805136 32.97894197027199,45.55696486517263 34.07144362560939,47.7268109308643 36.05943844106514,50.00196338497335 37.93997407739516,52.993327121890616 39.17575463827234,56.30062654663925 39.56977162871044,58.87059117543686 27.426884377608076,64.17893542980892 24.973233118886128,60.68218522502866 19.833102379809134,55.56333535723388 17.45109057391528,51.22379355634621 16.663056592922658,48.27453524527664 16.412318508140743,44.75643303169636 17.182442625868134,40.016374532773625 18.63314154522959,36.60346102209587 20.513677181559615,34.47562666919839 23.432984883431345,32.62165304343216 26.60303067031782,31.80000000000291 29.558158098720014,31.947476442423067 31.940169904497452,33.38009893150593 33.26549978158437,35.402606867282884 33.53414772963151,38.057116676834994 32.60283484309912,41.9756126908178 32.85357292788103,45.114566100543016 33.98189430963248,47.62147915549576 37.814605035004206,52.52987940753519 38.96083627990447,55.58440085852635 39.53395190241281,58.97591687183012 30.561110438080505,62.64121565692767 27.49852383043617,64.19999999999709 25.080692298011854,60.85070474585518 21.28380129917059,57.248568263690686 19.313716346863657,54.91030368904467 17.898837153916247,52.31922099131043 16.895884814555757,49.454243925152696 16.412318508140743,45.47269851130841 16.663056592922658,42.62868769966008 17.45109057391528,39.11048356392712 18.86596976686269,36.30851507319312 20.030110875028186,34.939117319416255 22.824049534625374,32.89553662131948 26.08364463748876,31.86320420326956 29.46860878262669,31.92640838607622 31.958079767762683,33.4222347275645 32.88939265429508,34.58096555015072 33.35504909756128,35.73968948243419 33.53414772963151,37.53043109810096 32.60283484309912,42.12308143246628 32.88939265429508,45.367365517580765 34.01771403604653,47.66361187242728 36.02361871476751,50.02302948728902 37.74296558217611,52.635208530307864 38.81755737424828,55.142024854023475 39.58768149197567,58.786330577291665 27.408974514342844,64.09467712622427 24.955323255620897,60.724315118888626 20.155479917419143,55.96357949178491 17.6122793428367,51.708310296497075 16.716786182601936,48.400932945354725 16.44813823455479,44.94603297364665 17.236172215430997,39.72143374943698 18.43613305001054,36.94054155993217 20.209209506982006,34.79164314120135 22.680770628969185,33.00087635645468 25.474709288566373,31.98961254832102 29.164141108165495,31.86320420326956 31.492423324496485,33.00087635645468 33.10431101277936,35.107659100787714 33.53414772963151,37.63576832776016 32.584924979833886,42.20734923479904 32.88939265429508,45.304165694033145 33.69533649843652,47.15801866744005 36.36390611552633,50.402218939882005 38.17280229902826,53.47783946328855 39.139934911974706,56.27956112282118 39.56977162871044,58.74420026464213 27.462704104022123,64.13680628256407 25.331430382910185,61.10348375380272 20.119660191005096,55.90038310413365 17.77346811152529,52.045364709731075 16.645146729773842,48.063872229584376 16.44813823455479,44.440432718532975 17.182442625868134,39.88997139460116 18.077935785870068,37.57256599677203 20.012201011762954,34.939117319416255 22.913598850602284,32.87446866744722 25.72544737334829,31.92640838607622 28.8596734337043,31.821068070072215 31.5103331876453,32.958740469272016 33.050581423100084,35.02338822837919 33.51623786636628,37.1301491062477 32.60283484309912,41.51213877616101 32.817753201466985,45.24096585009829 34.250542257679626,48.04280591549468 37.707145855762064,52.5509452366241" stroke="#ffb000" stroke-dasharray="none" stroke-linecap="round" stroke-linejoin="round" stroke-width="0.5"><title>2026-05-24 23.2km</title><desc>1779623970000</desc></polyline><polyline fill="none" opacity="1" points="50.713136238955485,39.3842116560445 50.788844864378916,39.33392268713578 51.08674184699339,39.33392268713578 51.300701005799056,39.353264614930595 51.340201158185664,39.38034327882633 51.41261810424476,41.17904877377623 51.44882657726703,41.440136208164404 51.809265467840305,42.548265072415234 52.08412069491169,43.64085573661214 52.29314233465266,44.278975293598705 52.43468454739923,44.55355309746119 52.87741542213189,45.18583954652968 52.97122828406282,45.3927296690963 53.0288326729642,45.607351484373794 53.05187442852912,45.86450758070532 53.03870771106449,46.05978907503413 52.74739408716414,47.005230855733316 52.70131057604158,47.37836699022046 52.70624809509172,47.75342866565006 52.91197805547563,49.53389821067867 53.18189576348959,50.69371837563631 53.17366656506783,50.83675768032117 53.0288326729642,51.2156130435651 53.007436757092364,51.42243377695013 53.114416336480645,52.518350679627474 53.2954587016211,53.06145229936919 53.224687595247815,54.52445942353734 53.25760438889847,54.673265899526086 53.339896373057854,54.83753135943152 53.74312709539663,55.21630246872883 53.8336482779705,55.37476556714137 53.85339835417108,55.59120071515645 53.751356293811114,56.01440120618099 53.81225236208411,56.32937958621005 53.93075281926576,56.49362992871647 54.1381286193282,56.62502912340642 57.689850655289774,57.94476488928922 57.9564766839394,58.01239149501271 58.49302042060299,58.07035695484956 59.06906430966774,58.01239149501271 61.890033526367915,57.21438135732751 62.2833892106064,57.14288719684555 62.75080768058251,57.14095491829721 66.04742456568056,57.41147189677031 66.56915574520099,57.41147189677031 67.12380371837935,57.316791416787964 67.77391039316717,57.11197071517199 68.1639743980486,57.0327469884669 71.62352941176505,56.7873444511697 71.99384334044589,56.70425464484106 72.45138677232171,56.51488574584255 72.7459920755864,56.33131195189162 73.0916184090238,56.03565758934565 73.69399573300325,55.33611615961672 74.25522706492484,54.76989282227623 74.82633343492489,54.10702170114564 75.09954282231047,53.68570899358201 75.48960682718462,52.80053363904335 75.66571167326765,52.54734228362213 75.86485827492288,52.38885427792593 77.17659250228462,51.60799054144991 77.4382810118841,51.36444689540258 77.5304480341365,51.20981429713356 77.60451081987412,51.0010581802635 77.7723864675354,50.3438471728623 77.87936604693095,49.71947446485137 77.95013715330424,49.46817282797383 78.1278878390658,48.97715795437762 78.46199329472438,48.269608998582044 78.45705577567423,48.23287755466299 78.68747333130159,47.79789422162321 78.82736970435508,47.59876500550854 79.37543431879749,46.99943075104238 79.59926851569617,46.699756128629815 79.81816519353742,46.25893534399438 80.07491618408676,45.52421000427421 80.09960377933749,45.50680825044401 80.20000000000437,45.54741231648404 80.09466626028734,45.44106813945655 80.04858274916478,45.47780528995645 79.7243523316065,46.38460903807936 79.66181042365497,46.365274680814764 79.59926851569617,46.25120154949582 79.69966473635577,46.41941082874109 79.63547698872571,46.53541631085318 79.59926851569617,46.54895023498648 79.00347455044539,46.28407015312405 77.9073453215533,45.976649688367615 77.5189271563504,45.91091129634515 75.52252362084255,45.825837726131795 73.31874428527954,45.62281962426823 71.73380067053222,45.62281962426823 71.13306918622402,45.589949811070255 70.4401706796707,45.47780528995645 68.52605912831496,45.00215005795326 67.99774459007313,44.90160343729076 67.33776287717046,44.851329915945826 66.17086254190508,44.909337812707236 65.89765315452678,44.87840029107247 65.21462968607375,44.67150424574356 64.05925022858719,44.38919364863432 63.940749771405535,44.33505138329383 63.814020115816675,44.236434694998024 63.708686376106925,44.08947548836477 63.498018896672875,43.19609233652773 63.25937214264559,42.766788522352726 63.109600731484534,42.608214248113654 62.91703748857253,42.5115219303425 62.75245352026832,42.48638184245101 61.420969216706,42.58114045160437 61.277781164280896,42.571471228679 61.13953063090594,42.52312503595749 60.97823834197334,42.407093642443215 60.87125876257778,42.263987224674565 60.693508076816215,41.73989858124514 60.5964035355064,41.532966381140795 60.41042365133035,41.33570168994447 60.178360256017186,41.21192665961644 58.47491618409549,40.7303563149253 55.88436452300812,40.31453217231319 53.37116732702998,39.33585688084895 53.226333434926346,39.312646542493894 51.41920146296616,39.287501975404666 50.59957330082398,39.30490975637076 50.276988722944225,39.264291574529125 50.12721731179772,39.20819964850307 49.92313319109962,39.08247572936489 49.31252666869841,38.54281998244187 48.17854312709824,38.03022871091525 47.80000000000291,37.92964304515044 47.80822919841739,37.962526882514794 48.160438890583464,38.053440707575646 49.307589149648265,38.573768420810666 49.992258457779826,39.163712823934475 50.26711368485121,39.287501975404666 50.52386467540782,39.32812010473572 50.54526059128693,39.36873814215687 50.6308442547961,39.382277467540916" stroke="red" stroke-dasharray="none" stroke-linecap="round" stroke-linejoin="round" stroke-width="0.5"><title>2026-05-23 52.6km</title><desc>1779516240000</desc></polyline><polyline fill="none" opacity="1" points="110.55876903480384,36.4962914785865 110.03037507110275,38.018809552289895 108.48163414280862,39.60564691478794 108.1718859571265,41.5141236531781 104.7828763963189,41.599897456602775 104.40024628455285,39.77719613818044 103.16125354194082,38.640679763877415 102.21378850343172,36.60351144448214 102.28667042951565,35.273979763282114 103.03371017135214,33.51555318104511 104.1451595434919,32.46477862189931 105.78500287933275,31.82144450650958 107.26086188165937,31.842889010731596 108.42697269830387,32.336111966040335 109.57486303336918,33.27966550018755 110.23080036777537,34.39476842447766 110.50410759041552,35.85297046387859 110.32190277532209,37.2682739370066 109.4473196627805,38.76934232242638 108.46341366134584,39.60564691478794 108.281208846136,40.44194797464297 108.5909570318181,49.44804323249264 112.56302200094797,51.37786749537918 114.40329063346144,51.442194646879216 114.74947978218552,51.785272435459774 115.0774484493304,62.398947890731506 114.78592074511107,63.192270480969455 111.72487985156476,63.81406164103828 107.29730284458492,64.1571179972525 99.80868494417518,63.81406164103828 92.10142126551364,62.74200669808488 85.48738647752907,62.91353587892081 85.2322997363517,62.48471264823456 84.9225515506696,55.21601762980572 85.2322997363517,52.32133029009856 100.61038613051642,51.828157117182855 104.70999447023496,49.55525618496176 104.52778965514153,40.05596330908884 102.50531620753463,37.61137628562574 102.19556802196894,35.9816348340828 102.3231113924412,34.909429194172844 103.28879691241309,33.150999373960076 104.40024628455285,32.271778606809676 105.58457758266013,31.82144450650958 107.40662573371083,31.9072225093405 109.41087869973853,33.022333164160955 110.46766662737355,35.123870786716 110.32190277532209,37.311161763063865 109.61130399641115,38.66212352947332 108.53629558731336,39.58420325144834 108.29942932771519,40.33473008751753 108.51807510585058,49.10496139455063 108.75494136544876,49.53381359913328 112.23505333380308,51.29209792750771 114.7677002636483,51.72094539535465 114.93168459716253,63.04218266707903 112.01640755566768,63.79262059906614 105.16550650796853,64.17855899975984 100.24597650032956,63.85694371811405 92.84846100735012,62.76344785379479 85.61492984800134,62.87065359762346 85.28696118085645,62.5919185429957 84.94077203213237,54.74429368998972 85.14119732880499,52.32133029009856 100.08199216669891,51.87104178966547 101.77649694716092,51.399309881497175 104.74643543327693,49.51237101091829 104.49134869209956,40.09885053131438 102.72396198567003,38.1474725149601 102.21378850343172,35.4669768516178 102.74218246724922,33.88010631679208 103.90829328389373,32.59344519411388 105.09262458188459,31.971555987067404 106.29517636157107,31.79999999998836 108.8278232915327,32.572000771193416 110.28546181228012,34.45910109386023 110.37656421982683,37.09672253971803 109.72062688542064,38.44768576929346 108.3905317352619,39.79863978062349 108.29942932771519,40.420504401874496 108.49985462427139,49.25505977179273 112.08928948175162,51.20632832252886 114.71303881914355,51.63517597611644 115.0774484493304,61.434091808929224 114.8770231527742,63.08506491116714 111.70665936998557,63.83550268075487 105.56635710119735,64.19999999999709 100.84725239011459,63.92126681623631 93.23109111911617,62.78488900719094 85.2322997363517,62.82777130705654 85.0136539580999,52.38565713510616 100.9565752792405,51.785272435459774 104.52778965514153,49.72679678819259 104.80109687778167,49.36227282874461 104.81931735936087,47.79695643403102 104.54601013660431,40.52772224259388 104.36380532151088,39.86297069412831 102.90616680087987,38.40479818946915 102.3413318740204,37.2682739370066 102.21378850343172,35.53130917264207 102.45065476302989,34.523433742360794 103.36167883849703,33.06522191003023 105.47525469365064,31.885778012132505 107.26086188165937,31.885778012132505 109.11935099563561,32.722111682698596 110.26724133070093,34.45910109386023 110.50410759041552,36.62495543072873 109.84817025600933,38.3619106002152 108.3905317352619,39.755752493365435 108.33587029064074,41.364019407730666 108.08078354957979,41.55701055955433 104.65533302573022,41.44979327615874 104.45490772917401,39.927301586649264 102.760402948712,38.10458487001597 102.3231113924412,36.96805889418465 102.2320089850109,35.53130917264207 102.63285957812332,34.20177029083425 103.68964750564191,32.74355608932092 105.12906554504298,31.971555987067404" stroke="#ffb600" stroke-dasharray="none" stroke-linecap="round" stroke-linejoin="round" stroke-width="0.5"><title>2026-05-17 22.3km</title><desc>1779013233000</desc></polyline><polyline fill="none" opacity="1" points="148.17918334668502,38.128297057286545 148.97815852682106,38.616069239538774 149.35170536427177,38.975798530165775 149.771945556422,39.896451214692206 149.7823218574631,40.25007541682862 149.33095276221866,41.60358212110441 149.13899119294365,42.731479648598906 149.13380304243765,43.700843888036616 149.26869495594292,45.07255736879961 149.18049639713718,45.87118412926429 148.35039231384872,47.9073265667721 148.04429143315065,49.31551397736257 147.2608807045617,51.24790462671808 147.10004803843913,51.394202810519346 146.09354683748097,51.40029855998728 144.47484387506847,51.96720039096181 143.9819695756596,51.93062625057428 143.15705364290625,51.625840828506625 142.8924579663726,51.85747789888774 142.3477021617291,52.936406503853505 141.75625300238607,53.54596159944049 138.68486789430608,50.16284796490436 136.47990392314387,49.803189763752016 136.1634267413756,49.66298340539652 136.0181585268001,49.47400906870098 136.03372297837632,48.596184524780256 135.93514811850036,48.52303186507925 134.64848678943235,48.443783043749136 130.88188951159827,48.54741609548364 130.60691753402352,48.425494838447776 129.9999039231334,47.92561493946414 128.97265012009302,47.61471180038279 128.69248999198317,47.28551838032217 128.23593274620362,46.1272300183482 128.0128422738344,44.79821733195058 126.7624979983957,44.334884472857084 125.62110488390317,44.42633204807498 123.06853482784936,45.00549659369062 120.49002401920734,44.65799857743332 120.34475580463186,44.73725269874922 120.21505204163259,44.98111083757976 119.82075260209967,46.26134883138366 119.8726341072761,46.499104128099134 120.88951160930446,47.94999942717186 123.83638110489119,48.52303186507925 124.73911929543829,49.27284214619067 124.92070456364308,49.967779393577075 125.45508406724548,51.241808860864694 125.57441152923275,52.08301834639133 126.27999999999884,55.0698206332454 126.31631705362815,55.612304552149 126.83513210568344,58.25760112400894 127.22943154524546,58.94023824856413 127.61335468373727,59.177940316145396 129.2683746997791,59.75085914866577 131.01159327462665,60.86620578639486 132.69774219373357,60.96372138833249 133.38257806244656,61.50005419846639 133.92214571658405,61.55490613145594 134.79375500400783,61.96324662992629 137.84957566051162,62.328922190103185 138.04153722975752,62.1826522492629 138.14530024019768,61.938868175308016 138.49290632506018,60.732121559594816 138.67449159326497,59.171845403798216 138.62261008805945,58.9524281224476 138.32169735789648,58.7451999096229 138.30094475581427,58.64768048830592 138.50328262610128,58.09303558644751 138.64855084064766,57.928469570753805 138.65373899118276,57.03858579496227 139.04285028020968,55.86830639453183 139.74325060046976,54.954008786451595 141.19593274619547,54.00312361521355 142.25950360289426,53.06441361821271 142.93396317053703,51.7904251601758 143.17780624498846,51.61364937751205 143.53578863089206,51.74165948215523 143.20374699760578,51.60755365102159 142.91839871896082,51.80261657312076 142.3528903122642,52.92421533500965 141.73031224979786,53.52767504202711 138.7367493995116,50.193327368477185 136.22049639714533,49.693463078056084 136.0233466773352,49.45572119618009 135.9818414731999,48.52912792367715 135.52528422736214,48.43768697596897 130.83000800639275,48.535223981612944 130.0414091272687,47.93780718461858 128.98821457166923,47.61471180038279 128.65617293835385,47.230652624202776 128.2048038430803,46.04188151732524 128.0439711769286,44.83479608034031 126.78325060047791,44.32878796257501 126.45639711769763,44.298305401400285 125.24236989588826,44.48120052230297 123.01146517213783,44.99330371695396 120.4173899119196,44.664095052241464 120.25655724579701,44.87137480511592 119.79999999998836,46.346697001503344 120.86875900719315,47.95609554746261 123.8675100080145,48.54741609548364 124.72874299439718,49.25455420871003 124.88438750998466,49.87634076940594 125.46027221775148,51.31495800787525 125.53809447557433,51.98548745230073 126.25924739791662,54.96619951831963 126.81437950360123,58.20274599797267 126.91814251401229,58.51359100984337 127.28131305042189,58.970712928363355 127.63929543635459,59.171845403798216 129.25281024820288,59.75695399870892 131.01678142513265,60.85401632432695 131.34882305844803,60.92715305725869 132.70811849477468,60.951531947277545 133.39295436348766,61.50614886029871 133.79763010406168,61.51224352149802 134.9027061649249,61.99981429215404 137.6109207365953,62.34111133477927 137.90664531625225,62.30454389284205 138.06747798237484,62.16436848012745 138.26462770215585,61.65242054787086 138.5344115292246,60.48223647186387 138.68486789430608,59.214509776458726 138.63817453963566,58.9524281224476 138.3632025620318,58.7756746943669 138.32169735789648,58.659870425151894 138.45658927140175,58.17227090496817 138.66411529222387,57.87361412593964 138.64855084064766,57.02639550918684 139.04285028020968,55.86830639453183 139.52016012810054,55.173441558581544 141.35676541231805,53.89340506801818 141.9897197757964,53.34480914326559 142.337325860688,52.96688441446531 142.91321056845482,51.83919079620682 143.14667734186514,51.625840828506625 143.9871577261656,51.936721942271106 144.516349079262,51.97329607874053 146.01572457965813,51.43077729742072 147.19862289831508,51.43077729742072 147.4424659727665,51.339341035891266 147.587734187342,51.16256384492954 147.69149719775305,50.62613312832036 148.18955964769702,49.431337356993026 148.44896717375377,47.96219166708761 149.16493194553186,46.27354143499906 149.32576461168355,45.67000440394622 149.4139631705475,44.792120871577936 149.35689351480687,42.63393264225306 149.70968775020447,41.06096395129862 150.06767013610806,40.17691197008389 152.20000000001164,36.238140136290895 151.90946357086068,36.09790017120031 151.90427542032558,35.835711478030134 151.4269655724638,35.51254699853598 151.4010248198465,33.82352525097667 151.2038751000946,33.81132996476299 151.09492393914843,33.65888866522073" stroke="#ff6800" stroke-dasharray="none" stroke-linecap="round" stroke-linejoin="round" stroke-width="0.5"><title>2026-05-16 35.3km</title><desc>1778887035000</desc></polyline><polyline fill="none" opacity="1" points="188.19999999998254,49.68392319971099 188.1096514329838,45.045843565607356 171.5658249418775,45.512623578233615 170.5368551510037,45.50671499545206 170.2959256390168,45.41808617693823 169.98472501934157,45.678063635979925 170.09013168083038,46.15665526148587 169.989744384191,46.52298181489823 169.9746862896718,47.255627536742395 168.2128892331384,49.40033220398982 167.89164988379343,50.46969887769228 159.41394268008298,50.43425059477886 155.79999999998836,50.76510033903833 155.85521301312838,50.95415643439628 160.08151820293278,50.63512389321477 169.2017041053332,50.61739980841958 178.8539426800853,49.920247902660776 180.821533694776,49.89070737081056" stroke="#4dd2ff" stroke-dasharray="none" stroke-linecap="round" stroke-linejoin="round" stroke-width="0.5"><title>2026-05-12 15.2km</title><desc>1778590468000</desc></polyline><polyline fill="none" opacity="1" points="38.49066486186348,76.48656177667726 38.326463151024655,77.94668684201315 37.81561338377651,79.04177358357992 36.37428725499194,80.60924015840283 36.155351640540175,82.24111000036646 32.67062644287944,82.30552563957463 32.433446193812415,80.73807247637887 30.736695181345567,78.76263440036564 30.189356145216152,76.89453898055945 30.42653639416676,75.241152487215 31.375257390434854,73.7595346934686 33.637592073646374,72.62147292628651 35.480300162453204,72.68589169133338 36.647956773173064,73.13682246046665 38.03454899834469,74.81169919391687 38.49066486186348,76.2718365953624 38.289973881910555,78.07552089028468 36.33779798599426,80.71660042917938 36.55673360032961,90.0996635172778 40.0961927017197,92.03204699739581 42.35852738493122,92.24675511056557 42.81464324845001,92.65469988487894 43.08831276651472,102.93892507835699 42.96060032478999,103.75476979619998 42.23081494309008,104.22709941462381 37.46896532760002,104.89265287661692 33.272699382854626,105.0 28.62031757447403,104.72089735831833 20.51969983766321,103.60448286352039 13.276579924393445,103.5400741432386 12.911687233485281,96.49792787568003 13.094133578939363,93.1485266466334 28.419626594521105,92.59028760783258 29.97042053064797,91.98910534691822 32.70711571199354,90.31437372283835 32.54291400115471,81.23192891971848 32.32397838658653,80.52335189987207 31.338768121320754,79.64299510476121 30.46302566328086,78.26877180569863 30.152866876102053,76.61539677386463 30.627227374119684,74.83317188070214 32.30573375208769,73.07240384195757 33.52812426642049,72.64294585028256 34.84173795336392,72.60000000000582 36.97636019485071,73.45891523903992 38.362952420138754,75.64913225408236 38.41768632386811,77.5601841948228 37.81561338377651,79.08471803842986 36.356042620376684,80.58776809721894 36.21008554415312,82.28405376210867 32.76184961560648,82.36994125787169 32.36046765570063,80.54482396796811 30.937386161414906,79.17060692020459 30.189356145216152,77.23809807986254 30.37180249055382,75.49882401661307 31.22930031409487,73.97426259609347 33.21796547912527,72.72883752304188 35.69923577690497,72.7717833455099 36.88513702224009,73.39449672517367 37.651411672937684,74.18899026609142 38.52715413097758,76.44361675903201 38.01630436372943,78.71968987578293 36.39253188949078,80.50187982941861 36.17359627503902,82.21963811590103 32.76184961560648,82.34846938739065 32.396956924698316,80.65218427362561 30.973875430529006,79.21355134708574 30.26233468321152,77.5601841948228 30.33531322143972,75.670604850151 31.08334323775489,74.081626460189 32.79833888472058,72.8791478608473 34.987695029820316,72.62147292628651 37.04933873307891,73.54480655823136 37.88859192200471,74.59697219842928 38.454175592865795,75.97122095065424 38.362952420138754,77.86079742999573 37.706145576550625,79.19207913479477 36.37428725499194,80.69512837965158 36.228330178768374,82.24111000036646 32.85307278833352,82.39141312600987 32.469935462926514,80.71660042917938 31.028609334025532,79.19207913479477 30.225845414213836,77.23809807986254 30.517759566777386,75.06937128154095 31.55770373577252,73.60922502324684 33.74705988087226,72.60000000000582 35.73572504601907,72.7717833455099 37.122317271190695,73.60922502324684 38.454175592865795,75.88533068279503 38.39944168925285,77.64607373709441 37.59667776932474,79.34238457208266 36.37428725499194,80.54482396796811 36.30130871676374,82.19816622916551 32.81658351921942,82.39141312600987 32.32397838658653,80.50187982941861 31.192811044980772,79.47121771337697 30.35355785593856,77.94668684201315 30.189356145216152,76.22889153112192 30.846162988687865,74.18899026609142 30.937386161414906,74.40371770359343 31.667171542998403,73.54480655823136 32.85307278833352,72.85767496246262 35.42556625884026,72.7073646083154 37.17705117492005,73.56627938218298 37.833858018391766,74.40371770359343 38.49066486186348,76.2074189955456 38.454175592865795,77.32398776175978 37.90683655650355,78.89146791839448 36.319553351379,80.65218427362561 36.21008554415312,82.24111000036646 32.87131742283236,82.39141312600987 32.396956924698316,80.67365632782457" stroke="#4dd2ff" stroke-dasharray="none" stroke-linecap="round" stroke-linejoin="round" stroke-width="0.5"><title>2026-05-11 15.3km</title><desc>1778503630000</desc></polyline><polyline fill="none" opacity="1" points="75.93548470828682,77.54128056869376 77.31496284063905,83.04723478254164 77.31496284063905,89.18843652692158 75.7555527780205,93.3531266193022 70.83741335058585,98.57659860374406 69.99773100926541,104.64706750086043 58.42211016151123,104.43530790973455 57.882314370712265,99.35305708140368 51.58469681092538,92.0119581388426 50.62505984934978,83.40017897891812 51.94456067169085,79.7295499931206 54.82347155595198,76.20007954741595 60.16145215416327,73.16471967560938 66.339115093695,72.81176993565168 73.11655113426968,76.05890033213655 76.95509898010641,81.84722308494383 77.55487208114937,87.77667113370262 75.87550739850849,92.85901223710971 70.4775494900532,99.21188288147096 69.81779907899909,104.57648097816855 58.542064781533554,104.57648097816855 57.702382440445945,99.14129576995037 53.98378921486437,95.4707554425695 51.164855640148744,90.8825509622111 50.44512791931629,84.74136518203886 51.10487833013758,81.70604509289842 54.883448865963146,75.98831071308814 62.20068069733679,72.67058998637367 68.97811673767865,73.51766922441311 75.99546201853082,78.88247882941505 77.43491746112704,84.24724427028559 77.37494015065022,88.62373073661001 74.61598388641141,94.83546751807444 70.65748142031953,98.71777294122148 70.17766293953173,104.43530790973455 59.08186057256535,104.92941351537593 57.702382440445945,99.00012152449926 54.28367576515302,95.89428038161714 50.8649690898601,90.459022766212 50.56508253957145,83.89430053270189 52.30442453222349,79.23542528151302 56.98265471914783,74.50592694379156 60.28140677441843,73.09412974282168 65.19954620185308,72.67058998637367 70.71745873056352,74.29415755852824 73.17652844428085,76.12948994344333 77.1950082203839,82.62370149453636 77.6748267011717,86.5060796647449 76.59523511934094,91.8001944423886 70.83741335058585,98.36483704007696 70.4775494900532,104.08237510506297 59.14183788280934,105.0 57.64240513020195,99.070708650921 52.12449260172434,93.07077558961464 50.325173298828304,86.64725661720149 51.344787570415065,81.00015467405319 54.703516935696825,75.91772108606528 62.380612627835944,72.60000000003492 69.0980713579338,73.58825911110034 74.01621078560129,76.90597516583512 76.41530318930745,80.57662005559541 77.61484939116053,85.23548571887659 76.05543932854198,92.85901223710971 70.5375268002972,98.92953438998666 70.17766293953173,104.50589444767684 59.08186057256535,104.92941351537593 57.76235975045711,99.35305708140368 51.94456067169085,92.85901223710971 50.44512791931629,88.62373073661001 51.46474219043739,80.9295655899914 54.5835623156745,76.41184831329156 61.18106642598286,72.81176993565168 67.77857053582557,73.16471967560938 73.65634692506865,76.6236170103075 77.49489477090538,83.32959015504457 76.59523511934094,91.30607888277154 74.31609733612277,95.25899286998902 70.65748142031953,98.85894724813988 70.17766293953173,104.43530790973455 58.901928642299026,104.85882702330127 57.76235975045711,99.21188288147096 53.74387997412123,95.3295804017107 50.92494639987126,90.3884347070125 50.505105229327455,83.75312298408244 52.66428839229047,78.52953218627954 55.78310851729475,75.14123468630714 59.44172443309799,73.23530960065546 65.19954620185308,72.67058998637367 70.83741335058585,74.22356774820946 76.17539394879714,79.80013920698548 77.55487208114937,83.61194540490396 77.25498553039506,89.54137739748694 75.03582505672239,94.553117130592 70.65748142031953,98.92953438998666 70.65748142031953,103.65885548695223 69.69784445897676,104.64706750086043 58.42211016151123,104.43530790973455 57.4624731997028,98.85894724813988 52.844220323022455,94.34135425969725 50.92494639987126,90.52961081796093 50.325173298828304,86.29431417922024 51.46474219043739,80.57662005559541 55.90306313778274,75.21182439714903 60.64127063495107,73.02353980240878" stroke="#4dd2ff" stroke-dasharray="none" stroke-linecap="round" stroke-linejoin="round" stroke-width="0.5"><title>2026-05-10 11.2km</title><desc>1778422578000</desc></polyline><polyline fill="none" opacity="1" points="103.37525665923022,73.73806189052993 105.03551804297604,72.75031043546915 106.95120425499044,72.60000000000582 109.085826034192,73.5662793822994 110.25348239205778,75.28409776558692 110.4724179591285,76.44361675929395 110.19874850020278,78.20435485517373 109.39598475431558,79.60005077131791 108.28306228818838,80.60924015881028 108.48375322471838,90.03525041080138 111.96847766754217,91.94616368760762 114.72341688675806,92.48293376687798 115.0153309762245,103.6044828636077 114.39501353609376,104.16269089662819 113.00842161127366,104.42032484344963 106.40386533737183,105.0 100.45611576468218,104.69942790809728 93.19475278945174,103.6259524323832 85.14887069887482,103.51860456528084 84.94817976246122,93.255880128243 88.232213268755,92.86940732423682 100.18244630575646,92.63322912866715 101.64201675308868,92.20381350698881 104.76184858416673,90.31437372336222 104.70711469242815,82.64907536251121 108.15534987405408,82.5202442863083 108.52024248579983,90.1855476279743 111.8590098839486,91.92469285427069 114.72341688675806,92.50440453985357 115.05182023742236,102.78863752748293 114.81464003981091,103.92652615133557 111.49411727220286,104.65648900064116 105.56461233017035,105.0 100.8574976377422,104.74236680628383 93.34070983424317,103.6474219988595 85.18535996007267,103.49713498484925 84.96642439300194,93.14852664718637" stroke="#4dd2ff" stroke-dasharray="none" stroke-linecap="round" stroke-linejoin="round" stroke-width="0.5"><title>2026-05-10 11.3km</title><desc>1778397813000</desc></polyline><polyline fill="none" opacity="1" points="140.4200476155529,72.59999999999854 140.66164389615005,72.84308903998317 140.6878410831996,73.0793287139386 139.31394416220428,73.28132935667236 138.51056375924964,73.1512273954504 138.1670895290008,73.14095616521809 133.0324408666056,73.13068493166793 132.18830928379612,73.0930237134744 131.62943595999968,73.10329495924088 131.50718242042058,73.14780365240222 131.48098523337103,76.61928907086985 131.3674640894751,76.94793070300148 131.4023936722224,78.95394010060772 131.3383561038645,87.7603939054352 131.3761964851583,90.68963201690713 131.31215891681495,102.68094733520411 131.34126690242556,103.97389139041843 131.50427162185952,104.08334455501972 134.83422517614963,104.12096899322569 134.88953034882434,104.17227497348358 134.89535194594646,104.2612051429387 134.7701876078063,105.0 134.91281673729827,104.27830707004614 134.84586837040843,103.23849315872212 134.88079795314115,102.72199398732482 135.07291065818572,101.9728842342738 136.45262917630316,99.2088926022625 137.1570424281672,98.09022857343007 137.62859179511725,97.47443338518497 137.54708943540754,97.39574758366507 137.28511756488297,97.72759507538285 136.46136157198634,99.09258074753234 136.3129108453577,99.09942263313133" stroke="#ffbb00" stroke-dasharray="none" stroke-linecap="round" stroke-linejoin="round" stroke-width="0.5"><title>2025-11-09 21.3km</title><desc>1762645227000</desc></polyline><polyline fill="none" opacity="1" points="183.37610724032857,78.85522363369819 185.70507407700643,84.82925732270814 183.79412692878395,93.26309360092273 178.30015387875028,99.16671377373859 178.35987097676843,104.1566365591716 166.6553196955938,104.85943950258661 165.5206948267296,98.95587112108478 160.74332695640624,94.24703402654268 158.2949259232264,88.20280498830834 158.6532285134308,82.72078112472082 161.69880053051747,77.09814443375217 167.670510367956,73.30283712339588 175.07543056621216,72.88113494071877 180.80827201041393,75.62219422898488 185.28705438855104,82.50993312813807 185.0481859948486,90.38154520094395 182.36091656796634,95.16069165692898 178.59873937047087,98.60446654766565 178.30015387875028,104.36747752223164 167.133056482533,104.85943950258661 165.58041192474775,98.81530931452289 159.2503994971048,91.50605341605842 158.35464302171022,85.81321053695865 159.60870208754204,80.40144939348102 164.44578705588356,74.84907611488597 171.79099015588872,72.59999999997672 178.77789066568948,74.14624066650867 181.70402848604135,76.74672802287387 184.86903469963,81.8071059777867 185.5259227817878,85.81321053695865 184.9884688963648,89.88957224384649 183.31639014184475,93.96590834268136 178.4793051739689,98.74502839992056 178.30015387875028,104.226916887681 168.98428653203882,105.0 166.53588549909182,104.64859869936481 165.87899741646834,99.30727550428128 161.04191244835965,94.52815958816791 159.31011659558862,91.50605341605842 158.4143601199612,85.60236354509834 159.72813628427684,80.26088356773835 164.92352384258993,74.56794202682795 172.4478782378137,72.67028374655638 179.01675905915909,74.21652424574131 183.7344098307658,79.41748797264881 185.16762019181624,82.86134641768876 185.28705438855104,89.39759891387075 183.31639014184475,93.8956269028713 178.65845646872185,98.18278080818709 178.35987097676843,104.1566365591716 166.8344709908124,104.85943950258661 165.69984612148255,98.95587112108478 161.04191244835965,94.59844095952576 158.7129456116818,88.90562521095853 158.593511414947,83.28304211393697 161.34049794031307,77.66041029547341 166.47616840037517,73.72453903197311 173.64222020539455,72.81085121713113 178.77789066568948,74.28680781711591 184.271863715956,80.19060064328369 185.46620568353683,84.68869245587848 184.809317601379,90.80323600984411 182.48035076470114,94.87956636905437 178.4793051739689,98.6747474775766 178.24043678026646,104.226916887681 174.8962792714592,104.85943950258661 166.5956025973428,104.789159242413 165.75956321996637,98.95587112108478 161.34049794031307,94.94984770251904 159.4892678905744,91.71689848945243 158.593511414947,83.21275951695861 163.01257669483311,75.97361124877352 169.46202331897803,72.88113494071877 177.64326579659246,73.86510627390817 183.31639014184475,78.7849405570305 185.406488585053,84.54812755878083 184.9287517981138,90.45182702160673 182.30119946948253,95.23097295983462 178.59873937047087,98.46390466514276 178.35987097676843,104.226916887681 174.65741087775677,104.789159242413 166.53588549909182,104.64859869936481 165.81928031845018,99.02615201310255 161.22106374357827,94.87956636905437 158.77266271039844,89.88957224384649 159.19068239885382,81.38540932221804 163.72918187524192,75.41134392551612 169.04400363052264,72.95141865679761 175.7920357468538,73.16226975951577 179.97223263327032,75.05992660083575 183.01780465012416,78.36324193736073 185.46620568353683,84.40756263118237 184.809317601379,90.87351778487209" stroke="#4dd2ff" stroke-dasharray="none" stroke-linecap="round" stroke-linejoin="round" stroke-width="0.5"><title>2025-11-01 10.0km</title><desc>1761964262000</desc></polyline><polyline fill="none" opacity="1" points="34.79262189939618,139.3905628672219 34.1343061204534,145.44783476460725 22.763397213770077,145.79999999998836 21.865693878848106,140.0244660580065 16.59916764847003,134.81235481030308 14.384832756128162,128.6845489696716 14.923454756848514,122.55668538459577 17.676411650143564,118.18966689985245 21.14753121114336,115.30178372765658 27.730688999406993,113.39999999996508 33.1169090080075,114.38611077528913 36.4084879020229,116.14701915415935 40.777310797944665,122.20450756180799 41.61516724363901,128.47324429033324 39.7599136850331,134.53061787731713 34.49338745442219,139.81316506303847 34.19415300968103,145.44783476460725 22.524009657558054,145.58870088175172 21.626306323334575,139.74273138289573 17.257483427179977,136.00973541470012 15.402229868806899,132.5584559274139 14.624220312107354,124.52887766790809 18.15518676210195,117.83748671191279 24.1997225494124,114.17480144934962 31.022267893655226,113.96349205472507 37.24634434771724,117.13312576361932 40.83715768670663,122.55668538459577 41.675014132633805,128.6845489696716 39.7599136850331,134.46018362499308 34.61308123264462,139.32012914126972 34.074459231924266,145.5182678271667 22.583856546785682,145.65913392871153 21.865693878848106,139.81316506303847 15.761311202775687,133.4741032908787 14.324985867366195,126.923674541933 14.983301645843312,122.83842750557233 17.018095871433616,119.24620631948346 22.10508143506013,114.87916560214944 29.40640189102851,113.54087305947905 36.76756923599169,116.78094500349835 41.076545242685825,123.47234683122952 41.61516724363901,128.96628843579674 39.221291684312746,135.0940916214604 34.61308123264462,139.3905628672219 33.83507167571224,145.65913392871153 22.64370343601331,145.65913392871153 22.0452345458325,139.74273138289573 17.79610542813316,136.22103764553322 15.3423829798121,132.06541450542863 14.684067200869322,123.89495937188622 18.813502540811896,117.06268962682225 24.85803832835518,113.89305557473563 32.51844011829235,114.24523789883824 38.20389457186684,118.40097492118366 41.19623902067542,124.5993129958515 41.375779687659815,129.6706365668797 39.580373018048704,134.67148635914782 34.55323434364982,139.672297695186 34.3138467874378,145.23653553205077 33.53583723097108,145.58870088175172 22.583856546785682,145.65913392871153 21.626306323334575,139.672297695186 17.5567178723868,136.22103764553322 15.3423829798121,132.27671801747056 14.684067200869322,124.10626553930342 18.69380876305513,117.27399801439606 25.336813440080732,113.89305557473563 33.23660278576426,114.45654720207676 38.14404768263921,118.11923087754985 41.25608590967022,124.52887766790809 41.31593279889785,130.44541862956248 38.80236346134916,135.7984331154148 34.672928121406585,139.60186399973463 34.074459231924266,145.44783476460725 22.583856546785682,145.65913392871153 21.925540768075734,139.95403240062296 17.736258539138362,136.0801694992697 15.3423829798121,132.27671801747056 14.863607868086547,123.6836531359586 18.514268096070737,117.62617850751849 25.815588551806286,113.68174608843401 33.475990341743454,114.31567434087628 38.383435238618404,118.18966689985245 41.31593279889785,124.45844233216485 41.25608590967022,130.51585331669776 39.46067924005911,134.88278902485035 34.55323434364982,139.81316506303847 34.79262189939618,145.0252362305182 35.33124390011653,140.09489970764844" stroke="#4dd2ff" stroke-dasharray="none" stroke-linecap="round" stroke-linejoin="round" stroke-width="0.5"><title>2025-10-27 10.0km</title><desc>1761565093000</desc></polyline><polyline fill="none" opacity="1" points="75.33397964737378,120.56950381177012 77.20833287062123,126.01551523030503 76.73974456475116,131.1857361139264 75.33397964737378,134.77039793820586 70.23808182124048,139.8716126490035 70.23808182124048,145.0417209767038 58.75766832823865,145.5242622778169 57.93763879314065,139.8716126490035 53.193182196468115,135.3908181276638 50.85024066688493,130.35850359499454 50.791667129145935,124.42997241084231 53.661770502338186,118.57032336958218 60.397727398667485,114.43406803434482 68.77374336565845,114.7098192262929 71.52669966244139,116.15751102444483 74.68967072665691,119.60438300308306 77.26690640882589,126.08445178507827 75.68542087660171,133.8742343748454 70.29665535967797,139.66480744245928 70.12093474483117,145.0417209767038 58.64052125182934,145.5242622778169 57.879065254703164,139.8716126490035 53.896064655156806,136.3559149976354 51.025961281964555,130.9789280850673 50.96738774352707,123.80954153672792 53.427476349286735,119.19075935147703 59.69484493997879,114.84769477765076 66.31365476013161,114.36513021780411 70.99953781836666,116.08857339440146 73.40105288568884,118.08776163251605 77.26690640882589,125.0504026801791 77.14975933264941,129.66914234112483 75.80256795324385,133.94317007844802 70.29665535967797,139.66480744245928 70.12093474483117,145.1106554706348 59.050536019261926,145.66213115368737 57.761918178293854,139.94054770306684 53.72034404031001,136.3559149976354 50.73309359070845,129.46233381942147 51.20168189657852,123.53379428759217 53.60319696413353,118.91501010087086 60.33915386046283,114.57194364524912 68.6565962890163,114.91663254209561 71.8195673536975,116.3643238695804 73.92821472976357,118.63926073070616 77.09118579421192,125.46402252378175 77.0326122562401,130.15169529715786 75.62684733862989,134.21891281782882 70.23808182124048,139.8716126490035 70.12093474483117,145.1106554706348 58.87481540464796,145.59319671947742 58.05478586931713,140.28522286075167 52.37315266113728,134.2878484839457 50.674520052503794,129.5312700009672 51.55312312580645,121.81037127238233 53.544623425696045,118.98394742462551 60.514874475076795,114.57194364524912 66.66509598935954,114.50300584349316 72.81531750364229,117.4673245754093 76.91546517959796,124.2231621867395 77.09118579421192,130.01382306136657 74.9239648799412,135.25294702651445 70.41380243585445,139.52693726751022 70.06236120639369,145.17958995705703 58.933388942852616,145.79999999998836 58.05478586931713,140.21628784399945 53.60319696413353,136.0112377119367 51.143108358373865,131.11680011166027 51.025961281964555,124.56784585630521 53.48604988749139,119.19075935147703 58.75766832823865,115.2613212520373 64.79074276611209,114.22725456190528 71.58527320064604,116.3643238695804 76.03686210606247,121.67249722970882 77.32547994726337,126.2223248720984 76.79831810318865,131.39254407555563 74.98253841814585,135.25294702651445 70.35522889811546,139.52693726751022 70.17950828326866,145.2485244361451 58.64052125182934,145.38639337191125 57.996212330879644,139.94054770306684 53.896064655156806,136.2869795554434 51.55312312580645,132.49551873654127 50.73309359070845,124.77465596864931 53.83749111695215,118.70819808449596 56.64902095193975,116.3643238695804 61.51062462478876,114.43406803434482 69.35947874793783,115.19238352507818 72.58102335035801,117.39838708745083 74.98253841814585,120.50056665955344 75.86114149168134,119.53544574638363 71.29240550962277,115.05450804851716 65.37647814839147,113.40000000002328" stroke="#4dd2ff" stroke-dasharray="none" stroke-linecap="round" stroke-linejoin="round" stroke-width="0.5"><title>2025-10-19 10.0km</title><desc>1760866141000</desc></polyline><polyline fill="none" opacity="1" points="106.3875821409747,139.44718577654567 106.0876956556458,144.95296168123605 94.57205461268313,145.58824052341515 93.55244056158699,139.37659860408166 87.5547108517494,132.88254602259258 86.29518761276267,126.03548571886495 89.41400706209242,118.27069111017045 95.83157785166986,114.10589951806469 103.02885350352153,113.75294985453365 109.44642429309897,117.2824378865771 112.98508482216857,123.0707568777143 113.4649031991139,128.92961276887218 111.24574320623651,134.92959132033866 106.50753673561849,139.2354242358124 105.84778646728955,145.3764809782151 94.51207731547765,145.4470675008488 93.79234975017607,139.9412957703462 89.77387084439397,136.34134295181138 87.25482436618768,132.10607888293453 86.5350968008861,124.12959015497472 90.0737573299557,117.70597516588168 97.2710329820402,113.54117996484274 104.16842214833014,114.0353096005856 110.10617456166074,117.9883331990568 113.34494860493578,123.91782363713719 113.52488049608655,129.35314247873612 111.48565239435993,134.6472406272078 106.44755943841301,139.51777294132626 106.14767295285128,145.3764809782151 94.45210001827218,145.4470675008488 93.79234975017607,140.15305708145024 89.41400706209242,135.84723022859544 86.5350968008861,130.2707892387989 86.83498328668065,122.01192188006826 90.01378003298305,117.42361701047048 92.35289461980574,115.72946550755296 99.31026108330116,113.39999999996508 106.5675140323583,115.16474736132659 110.16615185840055,118.05892268836033 112.9251075249631,122.29427804768784 113.34494860493578,130.34137739764992 111.48565239435993,134.78841598896543 106.62749132956378,139.58836009859806 106.50753673561849,145.164721364039 95.83157785166986,145.79999999998836 94.45210001827218,145.4470675008488 93.6124178590253,139.72953439014964 89.17409787350334,135.35311713069677 86.4151422069408,129.42373073700583 86.2352103155572,124.62371176225133 89.41400706209242,118.27069111017045 91.99303083727136,115.94123468635371 96.67126001091674,113.89412974292645 103.74858106859028,113.89412974292645 108.96660591638647,116.85890033218311 113.4649031991139,124.05900132335955 112.9251075249631,131.32961081835674 111.24574320623651,134.92959132033866 106.3875821409747,139.16483704023995 106.20765024982393,145.164721364039 94.81196380103938,145.51765401603188 93.55244056158699,139.65894724824466 88.15448382287286,134.15312661946518 86.35516490996815,129.56490723026218 86.5350968008861,123.84723478276283 89.05414327932522,118.76481715991395 91.93305354029872,115.94123468635371 96.13146433723159,113.96471967548132 103.62862647441216,113.96471967548132 109.98621996701695,117.77656468586065 113.7647896844428,125.82371982041514 111.66558428574353,134.43547752685845 106.50753673561849,138.95307540812064 106.32760484423488,145.164721364039 94.3921227210667,145.51765401603188 93.67239515599795,139.9412957703462 88.33441571425647,134.3648898114334 86.35516490996815,128.85902445705142 87.25482436618768,121.87074375041993 90.37364381551743,117.3530274523655 95.2318048805464,114.2470793298562 102.90889890957624,113.68235989898676 107.46717348904349,115.72946550755296 111.54562969179824,119.89424672356108 113.4049259016756,125.11783299490344 113.34494860493578,129.91784833010752 111.00583401764743,135.14135426015127 106.44755943841301,139.3060114235268 106.5675140323583,144.81178852106677 107.28724159765989,139.80012152454583" stroke="#4dd2ff" stroke-dasharray="none" stroke-linecap="round" stroke-linejoin="round" stroke-width="0.5"><title>2025-10-16 10.0km</title><desc>1760611285000</desc></polyline><polyline fill="none" opacity="1" points="149.70415258663706,125.67507733363891 148.30948219052516,133.31120191910304 142.3063357034698,139.80540646257577 142.24569785990752,145.37181655596942 130.6032319457736,145.72863611206412 129.8149399824906,140.01950002816739 124.4181719282642,134.80987018719316 122.2958474131301,129.3147365388577 122.6596744726412,122.96316132496577 126.05539369792677,117.467928871396 133.3319348944351,113.40000000002328 140.18401118763722,113.89957156503806 145.8233306154143,117.25382797810016 149.58287689997815,125.10414857516298 148.49139572051354,132.95437563839369 142.4882492334582,139.5199482673197 142.24569785990752,145.37181655596942 130.54259410244413,145.79999999998836 129.69366429606453,140.01950002816739 124.60008545848541,135.02396537578898 122.41712309955619,129.8142960369587 122.59903662954457,123.24862669373397 126.29794507101178,116.9683600118151 134.05958901392296,113.40000000002328 142.06378433015198,114.25640816544183 148.18820650409907,120.60806731425691 149.5222390566487,125.46097910718527 148.18820650409907,133.45393237710232 142.3669735470321,139.5199482673197 142.3669735470321,145.2290886795381 130.6032319457736,145.72863611206412 129.8149399824906,140.162229032896 124.05434486898594,134.16758420394035 122.41712309955619,129.38610220473493 122.6596744726412,123.03452767874114 126.11603154125623,117.32519494998269 133.15002136444673,113.54273477132665 141.45740589732304,114.25640816544183 146.67226042156108,118.18159801344154 149.58287689997815,125.24688081117347 148.24884434742853,133.45393237710232 142.4882492334582,139.59131282765884 142.18506001704372,145.44318048283458 130.6032319457736,145.72863611206412 129.69366429606453,139.87677099218126 124.53944761515595,134.66714002302615 122.2958474131301,129.24337086523883 122.53839878621511,123.46272563905222 124.66072330181487,118.82389958039857 131.75535096833482,113.97093890060205 139.15316785150208,113.61410214554053 142.67016276344657,114.82734632404754 146.06588198826648,117.75339662085753 149.58287689997815,125.38961301627569 149.46160121355206,129.67156479042023 148.0062929741107,133.81075838720426 142.4276113898959,139.80540646257577 142.3669735470321,145.44318048283458 130.66386978887022,145.79999999998836 129.8149399824906,140.09086453425698 125.14582604821771,135.66625052440213 122.3564852559939,129.74293041747296 122.6596744726412,122.74906221742276 125.75220448151231,117.75339662085753 132.84683214779943,113.61410214554053 140.9116653073579,114.04230622830801 146.36907120491378,118.1102311341092 149.46160121355206,125.17551469715545 148.37012003408745,132.88301035913173 145.70205492828973,136.8794540964882 142.4276113898959,139.66267738031456 142.4276113898959,145.2290886795381 130.66386978887022,145.72863611206412 129.63302645273507,139.80540646257577 124.72136114514433,135.16669546306366 122.41712309955619,129.8142960369587 123.02350153261796,121.2503665155964 125.44901526486501,118.1102311341092 133.02874567802064,113.54273477132665 140.85102746402845,113.97093890060205 146.67226042156108,118.4670654538204 149.34032552689314,124.39048693160294 148.79458493716083,131.74116483924445 146.18715767515823,136.2371701306547" stroke="#4dd2ff" stroke-dasharray="none" stroke-linecap="round" stroke-linejoin="round" stroke-width="0.5"><title>2025-10-08 10.1km</title><desc>1759919017000</desc></polyline><polyline fill="none" opacity="1" points="180.4335691719316,115.38516647240613 184.65035375836305,121.19883364823181 185.79490957432427,128.14680717384908 183.44555816217326,134.81112064624904 178.5661359981168,139.4193828352145 178.38541665882803,145.30373200657777 166.5784198178444,145.5873137632152 165.97602201951668,140.12834336905507 162.12067611259408,136.58353301970055 159.4098860216327,132.47152896458283 158.50628932449035,124.53103423665743 161.7592374337837,117.93751451798016 168.08441431284882,114.03808987996308 174.34935141238384,113.54179780505365 181.51788520859554,116.94493590533966 185.2527515559923,123.11307861295063 185.61419023480266,128.64308817504207 183.80699684098363,134.1730510169291 178.5058962185867,139.56117500329856 177.96373820025474,145.37462745740777 166.63865959784016,145.72910459531704 165.85554246022366,139.91565528948558 159.4098860216327,132.75511628051754 158.44604954472743,125.3818061365746 161.6989976540208,118.22110813116888 167.90369497332722,114.10898871714016 174.22887185262516,113.54179780505365 181.33716586907394,116.73224029230187 185.07203221693635,122.54589550336823 185.67443001479842,128.5012936416897 183.44555816217326,134.81112064624904 178.5058962185867,139.7029671408818 178.08421775978059,145.4455229002633 166.51818003784865,145.65820918307872 165.43386400165036,139.4193828352145 161.7592374337837,136.29994736239314 159.10868712258525,132.2588383971015 158.44604954472743,125.09821562591242 161.51827831496485,118.5047016213066 164.8917059833184,115.38516647240613 167.90369497332722,114.10898871714016 175.19270832953043,113.61269669578178 182.1202830064576,117.72481922793668 184.65035375836305,121.19883364823181 185.61419023480266,128.71398543013493 183.7467570612207,134.24394767323975 178.5661359981168,139.4193828352145 178.08421775978059,145.37462745740777 166.759139157366,145.79999999998836 165.79530268046074,139.7738631980028 162.54235457116738,137.363392943691 159.83156447997317,133.53498076560209 158.38580976519734,125.52360134560149 161.0363600763958,119.07188823266188 166.87961871665902,114.46348278759979 174.34935141238384,113.54179780505365 180.73476807121187,116.23595026013209 184.5901139783673,121.12793557916302 185.5539504555054,128.71398543013493 183.62627750146203,134.52753422112437 178.68661555810831,139.20669452490984 178.14445753977634,145.37462745740777 166.63865959784016,145.65820918307872 165.91578224021941,140.12834336905507 160.49420205806382,134.59843083878513 158.20509042567573,126.37437195534585 159.4098860216327,121.83691592520336 162.00019655306824,117.65392078226432 166.5784198178444,114.53438157873461 170.37352594546974,113.40000000002328 175.25294810906053,113.82539332244778 180.91548741050065,116.51954461040441 184.46963441884145,120.98613941774238 185.49371067550965,129.49385473009897 183.7467570612207,134.31484432169236 178.5058962185867,139.7029671408818 177.96373820025474,145.30373200657777 166.93985849665478,145.79999999998836 165.85554246022366,139.8447592476732 161.21707941545174,135.590982681897 159.04844734282233,131.33717847272055 158.38580976519734,127.29603886796394 160.13276337925345,120.2062599810888 163.80738994688727,116.23595026013209 170.3132861657068,113.54179780505365 178.02397798001766,114.39258398895618" stroke="#4dd2ff" stroke-dasharray="none" stroke-linecap="round" stroke-linejoin="round" stroke-width="0.5"><title>2025-10-01 10.0km</title><desc>1759271073000</desc></polyline><polyline fill="none" opacity="1" points="41.79497189144604,165.7817627248005 41.67422815482132,170.47125266090734 40.34604705357924,174.2370309161488 34.61071957158856,180.20538990717614 34.429603966884315,186.17369459959446 22.838205266045406,186.52894911903422 21.570396032882854,180.48959612398176 16.92176217911765,176.08438593003666 14.748374922666699,171.6791461542016 14.205028108553961,167.06071785028325 15.59358107787557,161.73172171000624 20.725189877673984,156.18951979995472 27.728326592827216,154.19999999995343 34.3088602302596,155.47897770704003 37.20670990552753,157.46849362767534 39.92344397609122,161.0922392642242 41.73460002290085,166.4212405991857 40.70827826298773,173.1712468105834 38.474519138457254,176.79490570403868 34.61071957158856,179.99223516415805 34.48997583496384,185.88949084543856 30.324316926999018,186.45789823064115 22.415602188091725,186.38684733456466 21.691139769507572,180.7027507055318 17.163249652134255,176.43964591331314 14.567259317962453,171.75019864330534 14.869118659291416,163.57911194121698 17.102877783589065,159.4580035143299 20.242214931873605,156.54479055776028 25.85679867770523,154.34210875729332 34.3088602302596,155.47897770704003 39.92344397609122,160.87907831021585 41.61385628674179,165.6396564457682 41.493112550349906,170.8265156839043 38.95749408425763,176.51069788675522 34.61071957158856,180.34749303077115 34.06737275747582,186.24474551877938 22.536345924949273,186.38684733456466 21.81188350613229,180.7027507055318 14.989862395683303,173.2422991382191 14.205028108553961,168.9791458629188 14.748374922666699,163.6501653076266 18.491430753376335,158.03692563943332 25.675683073000982,154.41316312440904 33.46365407505073,155.26581492897822 37.75005671940744,158.25008751702262 41.25162507710047,164.50280510575976 41.553484418196604,170.5423052808037 39.01786595256999,176.22648994647898 34.5503477032762,180.27644147298997 34.5503477032762,185.81843988777837 33.82588528445922,186.31579643045552 22.536345924949273,186.38684733456466 21.7515116375871,180.7027507055318 17.76696833409369,177.07911339821294 15.17097800038755,172.8159850575612 14.386143713258207,165.28439061366953 18.068827675422654,158.32114146085223 25.554939336376265,154.41316312440904 34.79183517629281,155.6921404157183 39.62158463476226,160.59486359736184 41.61385628674179,166.06597519019851 41.130881340708584,172.17651341680903 38.71600661147386,176.72385376138845 34.73146330798045,180.1343383337953 34.429603966884315,186.03159273788333 30.384688795078546,186.59999999997672 22.536345924949273,186.59999999997672 21.691139769507572,180.5606476587709 17.28399338829331,176.51069788675522 14.68800305458717,171.75019864330534 14.869118659291416,163.72121866652742 19.94035559077747,156.54479055776028 25.132336259121075,154.48421748389956 30.26394505868666,154.19999999995343 33.46365407505073,155.12370637181448 38.11228792881593,158.53430324589135 41.130881340708584,164.07648534525651 41.61385628674179,170.11598944553407 39.742328371386975,175.30281328980345 34.61071957158856,180.20538990717614 34.007000889163464,186.31579643045552 22.536345924949273,186.52894911903422 21.510024165036157,180.7027507055318 17.102877783589065,176.72385376138845 15.231349868467078,173.1001944753807 14.26539997686632,166.27913445868762 17.646224597934633,158.96062660822645 21.570396032882854,155.83424884971464 26.27940175519325,154.34210875729332 30.2035731903743,154.27105438249419 34.79183517629281,155.76319463644177 40.04418771248311,161.02118562045507 41.67422815482132,166.70545278774807" stroke="#4dd2ff" stroke-dasharray="none" stroke-linecap="round" stroke-linejoin="round" stroke-width="0.5"><title>2025-09-27 10.0km</title><desc>1758965825000</desc></polyline><polyline fill="none" opacity="1" points="77.43916518124752,165.0698593193083 77.37996181007475,171.20149380428484 74.1237764141988,177.2633931734017 70.33476068009622,180.81689383310732 70.39396405103616,186.46064865530934 58.553289882838726,186.46064865530934 58.079662915552035,180.6078649259871 53.99463032791391,177.4724231674336 51.09366515651345,172.5253617602284 50.91605504415929,164.3034008992836 54.46825729450211,158.58977298962418 56.95479886978865,156.0116559752496 59.914967411896214,154.89679136365885 66.90096517116763,154.89679136365885 74.597403380787,157.9626643966767 77.43916518124752,165.27889327530283 77.61677529383451,169.38988060760312 76.07748765172437,174.47632009768859 70.33476068009622,180.88657012052136 70.33476068009622,186.39097297179978 58.494086511665955,186.59999999997672 58.020459545077756,180.6078649259871 52.10012246086262,174.05825809494127 50.44242807733826,166.4634177433909 51.44888538168743,162.97951602272224 54.76427414896898,158.45041557739023 60.033374153776094,155.10582862532465 67.61140562128276,154.96647045837017 72.05165843456052,156.56908755667973 74.36058989726007,158.58977298962418 77.49836855195463,166.39373989403248 77.26155506866053,171.34084845421603 74.00536967231892,177.82080633967416 70.45316742174327,180.39883595093852 70.03874382609501,186.25162158190506 58.494086511665955,186.53032433136832 57.783646061550826,180.18980690772878 52.21852920250967,175.10341259243432 50.56083481898531,170.43504269002005 50.38322470639832,166.67245124664623 51.74490223568864,162.21305511204991 57.606035948963836,156.0116559752496 65.53928764211014,154.68775403365726 73.65014944714494,157.2658763541258 76.78792810207233,162.97951602272224 77.37996181007475,169.80794564436655 75.42625057231635,175.45179704780458 70.51237079268321,180.39883595093852 70.15715056750923,186.53032433136832 58.494086511665955,186.46064865530934 57.842849432490766,180.7472175383009 53.34339324850589,176.70597952441312 50.56083481898531,170.2956878435798 51.62649549427442,162.21305511204991 56.65878201578744,156.91748204967007 61.51345842471346,154.75743315112777 72.28847191762179,156.29037182655884 74.77501349314116,158.52009428711608 77.08394495607354,164.93050331104314 77.43916518124752,169.80794564436655 74.83421686384827,176.42727251863107 70.39396405103616,180.67754123586928 70.03874382609501,186.39097297179978 58.434883140958846,186.3212972805486 57.606035948963836,180.39883595093852 53.6986134739127,177.19371649378445 51.56729212333448,173.77954994211905 50.56083481898531,165.76663890859345 53.16578313615173,160.19238106085686 57.961256174137816,155.31486581935314 63.7631865167059,154.19999999995343 73.94616630137898,157.61427046952303 76.90633484348655,163.53694156609708 77.43916518124752,170.01697806076845 75.48545394302346,175.45179704780458 70.45316742174327,180.53818860842148 70.0979471965693,186.46064865530934 58.553289882838726,186.59999999997672 57.783646061550826,180.7472175383009 53.81702021532692,177.05436311167432 51.33047864004038,172.5253617602284 50.9752584148664,164.23372281581396 54.52746066567488,158.52009428711608 57.72444269107655,155.80261900782352 60.743814603891224,154.61807490856154 72.70289551373571,156.29037182655884 74.83421686384827,158.1717006623512 77.26155506866053,165.00018131895922 77.08394495607354,170.36536527058342" stroke="#4dd2ff" stroke-dasharray="none" stroke-linecap="round" stroke-linejoin="round" stroke-width="0.5"><title>2020-04-24 10.0km</title><desc>1587724293000</desc></polyline><polyline fill="none" opacity="1" points="105.51180847035721,156.0038974728668 99.38102685590275,154.7550459173508 92.01229895441793,157.18336615036242 89.65430602594279,159.33415638300357 86.82471451163292,165.43958608066896 86.88366433465853,170.98992621415528 89.06480779359117,176.12394801946357 94.07554276683368,180.70290572370868 95.01873993850313,186.59999999997672 106.33710599527694,185.76747233432252 106.16025652573444,180.4947719926131 111.28889114549384,175.36078521958552 112.88053637230769,170.92054725938942 112.7626367257908,165.92524276243057 110.99414202943444,161.13803939614445 105.86550740967505,155.93451689486392 102.85906642582268,154.963188012538 98.3199300384149,155.1019493714557 90.12590461154468,159.05663546861615 86.29416610277258,168.00662437040592 87.7089618598111,173.97321416332852 94.07554276683368,180.84166150685633 94.78294064546935,186.3918681849027 106.27815617248416,185.90622702043038 106.27815617248416,180.56414991052588 111.58364026155323,174.66700006724568 113.70583389699459,167.798486514017 111.05309185246006,159.75043752940837 111.70153990783729,158.9178749662242 109.1077476865612,159.33415638300357 104.98126006149687,156.42018078366527 98.37887986144051,154.7550459173508 91.18700142926537,158.01593096833676 87.06051380443387,164.53765126614599 87.65001203655265,173.97321416332852 93.89869329705834,180.70290572370868 94.37029188289307,186.2531136039761 105.8065575864166,186.04498167638667 106.21920634899288,180.21726024593227 111.1120416757185,175.56892061867984 112.99843601882458,169.53296658437466 112.23208831693046,163.98261382593773 108.8129985705018,158.43221297115088 101.62112013855949,154.963188012538 96.55143534182571,155.44885263772449 90.06695478828624,158.5015932788956 86.70681486511603,164.9539290307439 87.2373632742092,172.79377640248276 89.47745655640028,176.67897493898636 93.6628940042574,180.56414991052588 94.25239223637618,186.18373630236601 105.8065575864166,186.04498167638667 105.86550740967505,180.56414991052588 110.99414202943444,175.4301636935561 112.70368690253235,170.0186201626202 111.76048973132856,163.35819613095373 108.28245016164146,158.29345233371714 105.3349590008147,156.14265860652085 100.50107349734753,155.1019493714557 97.31778304371983,155.17133003968047 91.48175054555759,157.18336615036242 87.47316256677732,162.66439797804924 86.29416610277258,166.61903738311958 87.47316256677732,173.9038355316734 90.47960355086252,177.92778374959016 93.72184382751584,180.3560161345522 94.42924170615152,186.3224908983102 105.86550740967505,186.11435899330536 105.86550740967505,180.56414991052588 111.40679079201072,174.73637861636234 112.88053637230769,167.03531379502965 111.1120416757185,161.41555940906983 105.39390882407315,155.656994507357 100.61897314363159,154.19999999995343 91.59965019184165,157.32212702877587 87.59106221329421,163.42757590475958 86.47101557231508,167.7291072133812 87.82686150609516,174.2507286152686 93.95764312054962,180.98041725967778 94.60609117592685,186.11435899330536 106.10130670270883,185.76747233432252 106.04235687945038,180.77228361892048 111.34784096851945,174.8057571578538 112.82158654904924,166.75779621716356 110.81729255965911,161.20741941069718 106.33710599527694,156.90584430418676 99.32207703310996,154.89380732161226" stroke="#4dd2ff" stroke-dasharray="none" stroke-linecap="round" stroke-linejoin="round" stroke-width="0.5"><title>2020-04-16 10.0km</title><desc>1587033949000</desc></polyline><polyline fill="none" opacity="1" points="143.60369180631824,156.7467830958194 138.79503295617178,154.6244645389961 134.4071317561902,154.48297639004886 127.614901131019,157.312733546074 123.52754110842943,162.123292573262 122.56580933881924,170.40020091063343 125.27067994163372,176.27179023559438 130.1995552626904,181.01146841794252 130.62031291192397,186.52925939281704 141.9206612086855,186.03407492721453 142.58185180043802,181.08220962289488 146.90964476531371,176.6254987504799 149.49429889698513,170.3294585487456 149.07354124775156,164.3163297828869 145.64737181714736,158.2324019819498 143.48347533494234,156.25157604948618 138.55460001411848,154.4122323039337 133.62572469282895,154.76595265726792 126.53295288980007,157.73719606210943 123.22699993057176,163.3259267937392 122.3854846318718,167.28752973943483 123.82808228698559,174.50324478914263 130.0793387913145,180.65776227868628 131.10117879672907,186.52925939281704 142.34141885815188,186.10481558809988 142.5217435650993,180.44553850317607 147.5107271214947,175.493630829209 149.6145153681282,169.83426180080278 148.8331083052326,163.89187154272804 144.3249906336423,157.38347731815884 137.65297647961415,154.5537204684806 128.27609172277153,156.7467830958194 123.82808228698559,162.264779066958 122.5057011032477,166.79233068518806 123.1067834594287,172.45172607182758 126.17230347590521,177.40365680819377 130.1995552626904,180.86998598527862 130.92085409001447,186.59999999997672 142.46163532929495,186.10481558809988 142.5217435650993,180.37479722936405 147.99159300653264,174.92769613309065 149.6145153681282,169.05609472462675 149.07354124775156,164.599301789538 146.36867064470425,159.50578690925613 141.80044473754242,155.7563686275971 138.61470824945718,154.4122323039337 133.0246423368808,154.9781847773702 126.53295288980007,157.59570858738152 123.04667522385716,164.17484373331536 122.44559286767617,168.5608970115427 123.7078658156097,174.36176094657276 130.13944702711888,180.65776227868628 130.62031291192397,186.3877781551564 142.64196003624238,185.75111220683903 142.58185180043802,180.30405594746117 147.75116006401367,175.35214720113436 149.4341906614136,169.7635193777387 148.77300006942824,163.4674130267813 143.7840165128,157.38347731815884 138.19395060022362,154.20000000001164 132.90442586573772,155.11967281921534 126.53295288980007,158.0201709193061 123.28710816637613,163.60889922943898 122.5057011032477,170.0464890244766 125.09035523491912,176.059565034986 130.01923055551015,180.79924475745065 130.74052938329987,186.59999999997672 142.64196003624238,185.96333425852936 142.64196003624238,180.44553850317607 147.5107271214947,175.63511442678282 149.5544071327895,169.4098071468179 148.65278359828517,163.60889922943898 145.0462894611992,158.2324019819498 138.55460001411848,154.6244645389961 132.78420939436182,154.83669670502422 125.63132935529575,158.51537662488408 122.5057011032477,167.3582724306616 124.12862346484326,174.57398669893155 130.01923055551015,180.58702102774987 130.68042114772834,186.3170375250047 142.28131062258035,186.24629688687855 142.5217435650993,180.65776227868628 147.39051065035164,175.63511442678282 149.37408242560923,168.98535221698694 147.93148477072828,162.0525493149762 143.0026094499044,156.534551550576 138.43438354274258,154.6244645389961 135.3688635258004,154.6244645389961 131.76236938871443,155.33190482424106 126.7132775967475,158.0201709193061" stroke="#4dd2ff" stroke-dasharray="none" stroke-linecap="round" stroke-linejoin="round" stroke-width="0.5"><title>2020-04-14 10.0km</title><desc>1586861907000</desc></polyline><polyline fill="none" opacity="1" points="172.50649656238966,154.4805264386814 168.15658490662463,155.25197351846145 161.8998626617249,158.2676214647363 159.15882244007662,164.71965826820815 159.21841027098708,170.5404623899376 161.1848086907994,175.65992155857384 166.3689499795437,180.56895397795597 166.905240457505,186.24935932742665 178.346103991149,185.9688466525986 178.52486748388037,180.28843884228263 183.11313046352006,175.87030942575075 185.2582923762966,170.96124138252344 184.54323840513825,163.4573083005962 180.4912659036927,157.4260467067361 172.9236113789957,154.6207896124688 167.8586457518395,155.39223652513465 162.0786261544563,158.05722787766717 158.98005894734524,165.63135393633274 159.575937256217,172.01318766799523 161.72109916899353,176.29108495463151 166.1901864868123,180.49882520537358 167.0244161193259,186.59999999997672 178.40569182229228,185.82859026972437 178.6440431457013,180.1481812290731 183.29189395625144,175.51966294273734 185.61581936152652,169.13786377263023 185.01994105242193,164.2287446843693 181.50425902893767,158.1273590810597 174.71124630584382,154.83118431613548 168.63328755367547,155.18184200365795 161.95945049240254,158.2676214647363 158.38418063847348,165.07031060010195 158.68211979279295,170.40020266489591 160.0526399037335,173.83655718073715 166.24977431748994,180.49882520537358 166.4881256413646,186.10910300520482 178.346103991149,185.82859026972437 178.4652796529699,180.56895397795597 183.8877722651232,174.74824001156958 185.31788020697422,169.48851371189812 184.90076539083384,164.64952777908184 180.43167807278223,157.00525891734287 174.8900097985752,154.76105275575537 168.15658490662463,155.11171048140386 162.37656530877575,157.77670298877638 158.50335630006157,166.96382991119754 160.41016688919626,174.25733403133927 166.1901864868123,180.70921150024515 166.54771347204223,186.10910300520482 178.10775266750716,185.89871846488677 178.346103991149,180.358567637566 182.99395480146632,175.65992155857384 185.13911671424285,170.47033253114205 184.7815897287801,164.01835303445114 180.9083807200659,157.98709666670766 174.53248281311244,154.6207896124688 166.96482828841545,155.74289390875492 161.8998626617249,158.1273590810597 158.4437684691511,166.75343915011035 159.87387641100213,173.76642767892918 166.07101082475856,180.63908274279675 166.54771347204223,185.89871846488677 178.52486748388037,185.75846206693677 178.4652796529699,180.1481812290731 183.47065744875,174.95862817479065 185.31788020697422,169.48851371189812 184.662414067192,163.73783072835067 180.1933267491404,157.4260467067361 171.13597645168193,154.19999999995343 164.22378806676716,156.3740767207346 159.81428857985884,162.33521737443516 158.6225319618825,167.3846112282481 159.09923460916616,172.15344704379095 160.41016688919626,174.67811060859822 166.1901864868123,180.49882520537358 166.72647696500644,186.17923117004102 178.2269283295609,185.89871846488677 178.2269283295609,180.07805241068127 182.51725215441547,176.3612141829799 185.13911671424285,169.41838373919018 184.06653575785458,162.40534811420366 178.6440431457013,156.1636825183523 170.71886163554154,154.4805264386814" stroke="#4dd2ff" stroke-dasharray="none" stroke-linecap="round" stroke-linejoin="round" stroke-width="0.5"><title>2020-04-13 10.0km</title><desc>1586775592000</desc></polyline><polyline fill="none" opacity="1" points="23.65482309437357,195.35762457089731 18.853858401998878,197.57489258726127 14.721382463816553,202.72464763885364 13.445176659617573,206.51541388878832 13.80980688938871,212.80946827848675 17.03070725267753,218.0306269635912 20.92009637085721,221.53521717322292 21.71012853528373,227.113914241374 32.405948610045016,226.8278283586842 33.43906759470701,225.96956996672088 33.43906759470701,221.1776067794999 38.30080399219878,215.67038225976285 40.06318343617022,212.02271476056194 40.488585371058434,203.36836419656174 39.516238091280684,200.3643482257612 42.79791016015224,195.78677380044246 41.5217043554876,197.50336792867165 37.45000012242235,199.36300653172657 30.035852116066962,195.42914946191013 23.047106044832617,195.929823481536 17.942282827338204,198.50471244263463 14.052893709158525,204.08360407996224 13.870578594272956,212.5948992301128 16.119131678482518,216.81474438193254 20.980868075741455,221.53521717322292 21.52781342039816,227.2569571362692 32.64903542981483,226.756306868745 33.43906759470701,221.03456256794743 38.30080399219878,216.24256356898695 40.36704196128994,211.3074834762956 40.06318343617022,205.15646245254902 37.20691330265254,199.64910431369208 30.27893893630244,195.42914946191013 23.411736274603754,195.64372408826603 16.969935548026115,199.36300653172657 14.417523938929662,203.58293624292128 13.445176659617573,207.44522115483414 14.478295644046739,214.4544953322038 16.05835997336544,217.3869246991817 20.73778125597164,221.46369510999648 21.467041715746745,227.2569571362692 32.64903542981483,226.8278283586842 33.560611004475504,220.89151832502102 37.571543532656506,217.31540218676673 39.75932491128333,213.52469793579075 40.42781366594136,207.73131543496856 38.847749336622655,201.7233095242991 35.2622187435627,197.71794188086642 29.063504836754873,195.42914946191013 22.560932404827327,196.00134831044124 17.577652597334236,198.8623351153219 15.146784398704767,201.79483372578397 13.262861544732004,207.73131543496856 13.445176659617573,211.1644371264847 15.572186333592981,216.88626694859704 20.798552960855886,221.67826127639273 21.345498305745423,227.1854356926051 32.8313505447004,226.89934984088177 33.62138270935975,221.03456256794743 38.42234740196727,216.24256356898695 40.24549855128862,212.23728399479296 40.36704196128994,206.01474789559143 38.847749336622655,201.65178531524725 33.0136656598188,196.64507142239017 26.146462998120114,195.35762457089731 18.914630106650293,197.57489258726127 14.478295644046739,202.93921989452792 13.384404954733327,206.01474789559143 13.566720069618896,211.9511916670017 16.301446793135256,217.67301467206562 20.55546614108607,221.53521717322292 21.467041715746745,227.40000000002328 33.19598077470437,226.756306868745 33.256752479821444,221.32065096026054 38.847749336622655,215.38429141946835 40.36704196128994,209.87701858382206 38.96929274662398,202.51007531379582 36.416881137760356,198.7908105965471 32.95289395470172,196.14439794514328 25.9033761783503,195.0715249296627 18.67154328711331,197.71794188086642 14.478295644046739,203.01074396434706 13.202089839614928,208.37502711173147 15.207556103821844,215.95647297624964 20.859324665740132,221.46369510999648 21.345498305745423,227.2569571362692 33.074437364935875,226.756306868745 33.256752479821444,221.392173038912 39.0908361566253,215.38429141946835 40.610128780826926,209.66244858276332 38.72620592685416,201.93788210541243 33.13520906958729,196.502021896129 26.450321523007005,195.0000000000582 23.29019286460243,195.64372408826603 19.218488631537184,197.50336792867165 16.179903383133933,200.29282386932755" stroke="#4dd2ff" stroke-dasharray="none" stroke-linecap="round" stroke-linejoin="round" stroke-width="0.5"><title>2020-04-12 10.0km</title><desc>1586649823000</desc></polyline><polyline fill="none" opacity="1" points="77.88396460074,210.7092933881795 74.7258095627185,217.79237689549336 70.49507356877439,221.4390827428433 69.95878309058025,227.25974375376245 58.51791955670342,227.0493593274732 57.92204124759883,221.0884388423292 52.559136466355994,216.5300508553628 50.354386722901836,211.05994290974922 51.724906833609566,202.85469433903927 56.96863595326431,196.5428939088015 61.08019628562033,195.0 70.7334248921834,196.47276244714158 74.7258095627185,199.20788381790044 77.40726195345633,206.4313539363793 77.28808629186824,212.0417605591938 75.02374871727079,216.95082647533854 70.31631007604301,221.29882520542014 69.89919525943696,227.18961561913602 58.45833172579296,227.11948747711722 57.80286558577791,221.22869642538717 53.03583911363967,217.09108495467808 50.89067720109597,213.65474346565315 50.17562323017046,207.48330888117198 53.57212959160097,200.18971944064833 57.80286558577791,196.61302536266157 64.83422963274643,195.0 73.53405294497497,198.01565284619574 76.8709714752622,204.95861414191313 77.58602544642054,210.07812377100345 75.50045136455446,215.9690162697807 70.19713441398926,221.57934024976566 70.25672224489972,227.18961561913602 58.33915606397204,227.11948747711722 57.80286558577791,221.22869642538717 52.2611973118037,216.60018014430534 50.59273804654367,213.30409534962382 50.17562323017046,207.7638299112441 51.069440693827346,203.5560016995878 57.02822378417477,196.7532882479718 61.43772327108309,195.07013162097428 69.42249261238612,196.4026309780893 74.54704607021995,199.62867069570348 77.34767412254587,206.01057147973916 77.46684978436679,210.2885137119447 75.32168787182309,216.5300508553628 70.4354857376311,221.4390827428433 70.13754658331163,227.18961561913602 58.33915606397204,227.18961561913602 57.68368992418982,221.22869642538717 52.91666345181875,217.16121418302646 50.83108937018551,213.30409534962382 50.473562384722754,205.8703106001485 53.57212959160097,200.18971944064833 57.20698727690615,196.82341967901448 59.88843966764398,195.77144741395023 66.62186455959454,195.42078961251536 73.4148772826884,198.01565284619574 77.22849846072495,205.30926677776733 77.40726195345633,210.56903352646623 74.96416088636033,217.16121418302646 70.4354857376311,221.15856763761258 70.13754658331163,226.9792311700876 58.39874389511533,227.40000000002328 57.62410209304653,221.0884388423292 52.61872429726645,216.7404386997223 50.83108937018551,213.3742249882198 50.11603539926,206.0807019083295 53.51254176115617,200.18971944064833 57.08781161508523,196.82341967901448 60.126790991285816,195.56105275580194 64.65546614001505,195.1402632345562 71.86559367948212,196.6831568091293 74.60663390113041,199.13775264535798 77.40726195345633,207.2729180289316 77.28808629186824,212.18202010192908 74.90457305521704,217.16121418302646 70.61424923036247,221.36895397800254 70.31631007604301,227.25974375376245 58.39874389511533,227.25974375376245 57.62410209304653,221.29882520542014 53.274190437281504,217.9326351924683 50.59273804654367,213.86513224436203 50.413974553812295,205.73004969005706 53.09542694455013,200.40011259459425 58.21998040238395,196.19223652518122 63.94041216908954,195.0 66.9198037146125,195.42078961251536 71.92518151015975,197.24420810642187 74.48745823907666,199.27801498339977 77.16891063004732,205.58978874969762 77.22849846072495,212.18202010192908" stroke="#4dd2ff" stroke-dasharray="none" stroke-linecap="round" stroke-linejoin="round" stroke-width="0.5"><title>2020-04-08 10.0km</title><desc>1586343893000</desc></polyline><polyline fill="none" opacity="1" points="113.5264346851036,210.49890358449193 110.84498287527822,217.371601822495 106.43548434367403,221.36895397817716 106.19713307148777,227.25974375376245 94.45833292626776,227.18961561931064 93.74327911017463,220.94818122911965 89.39336839667521,217.44173102028435 86.77150440472178,213.16383605031297 86.53315313300118,207.34304832079215 87.84408512874506,202.57417118223384 93.20698874839582,196.9636825186899 98.33154109609313,195.21039484045468 103.03897871798836,195.70131586893694 109.29569960734807,198.57670298905578 112.27509050699882,204.1871776750777 113.5264346851036,210.56903352664085 110.78539505717345,217.58198939316208 106.37589652556926,221.43908274295973 106.137545253383,227.32987188058905 94.57750856224447,227.11948747711722 94.10080601833761,221.43908274295973 88.67831458058208,216.3196629427839 86.4735653148964,211.05994290980743 86.83109222282656,205.23913626605645 89.45295621454716,200.04945730004692 93.20698874839582,196.75328824785538 95.76926492224447,195.84157895151293 103.57526907976717,195.70131586893694 109.11693615349941,198.43644049891736 113.3476712310221,206.22096274257638 112.75179305113852,213.72487306647236 110.18951687752269,218.2131516954978 106.37589652556926,221.50921150034992 106.37589652556926,227.18961561931064 94.69668419845402,227.32987188058905 93.98163038236089,221.43908274295973 88.14202421857044,215.54824001179077 86.23521404294297,208.53526211722055 87.78449731087312,202.78456356137758 93.0878131124191,196.5428939088597 99.88082436379045,195.0 107.92517979326658,197.45460221765097 110.54704378498718,200.11958837427665 113.58602250297554,207.34304832079215 112.6326174151618,213.72487306647236 109.77240215125494,218.49366807664046 106.61424779775552,221.36895397817716 106.25672088982537,227.18961561931064 94.45833292626776,227.25974375376245 93.86245474638417,221.29882520559477 88.3803754907567,216.5300508555374 86.29480186081491,210.49890358449193 87.18861913098954,204.2573083008756 93.26657656626776,196.47276244743261 99.88082436379045,195.21039484045468 108.1039432475809,197.10394532763166 111.4408610551618,201.7326009819517 113.70519813918509,207.9040903808782 113.7647859568242,211.1300727914204 112.21550268935971,215.40798119833926 106.43548434367403,221.29882520559477 106.43548434367403,227.18961561931064 94.87544765253551,227.40000000002328 93.80286692851223,221.71959772659466 88.3803754907567,216.3897922548931 86.35438967891969,211.48072208481608 86.53315313300118,205.6599192240392 89.2741927606985,200.75076769926818 93.86245474638417,196.5428939088597 98.92741927620955,195.35065802949248 102.97939089988358,195.63118431624025 109.17652397137135,198.22604670672445 112.51344177918509,204.11704704142176 113.28808341315016,212.0417605593684 111.67921232734807,216.3897922548931 106.55465997965075,221.22869642550359 106.37589652556926,226.90910300525138 95.23297456046566,227.40000000002328 94.45833292626776,226.97923117032042 93.80286692851223,221.50921150034992 89.7508953048382,218.2131516954978 86.77150440472178,212.95344704389572 86.29480186081491,207.76382991136052 87.54614603891969,203.20534811442485 93.20698874839582,196.5428939088597 96.12679183017462,195.35065802949248 103.39650562568568,195.70131586893694 107.8060041575227,197.38447085494408 111.67921232734807,201.87286275811493 113.40725904935971,207.62356941157486 112.81138086901046,213.51448424247792" stroke="#4dd2ff" stroke-dasharray="none" stroke-linecap="round" stroke-linejoin="round" stroke-width="0.5"><title>2020-04-07 10.0km</title><desc>1586257895000</desc></polyline><polyline fill="none" opacity="1" points="149.22849559527822,212.81318766821641 146.60663160309196,217.86250604793895 142.7334234334994,221.08843884267844 142.43548434367403,227.25974375376245 130.81585983443074,226.97923117032042 130.04121820046566,221.43908274295973 125.5721318507567,217.72224773583002 123.06944349501282,212.67292826238554 122.71191658684984,207.27291802910622 125.81048312294297,199.90919512906112 129.862454746617,195.98184200387914 133.37813600804657,195.07013162126532 139.27732998970896,195.63118431624025 145.0573483351618,198.22604670672445 149.40725904912688,207.06252710858826 148.69220523326658,214.14565050962847 146.01075342320837,218.2131516954978 142.6738356158603,221.15856763790362 142.7334234334994,226.97923117032042 130.9946232882794,227.32987188058905 129.92204256448895,221.43908274295973 124.43996330886148,215.89888691261876 122.77150440518744,211.48072208481608 123.18861913098954,205.02874468441587 125.92965875868686,199.90919512906112 132.4843187383376,195.70131586893694 138.2047492659185,195.35065802949248 145.35528742545284,198.01565284631215 148.99014432332478,206.3612235459732 148.27509050746448,214.566427679325 145.59363869717345,218.9144424207625 142.7334234334994,221.29882520559477 142.37589652556926,226.83897483273176 131.1733867423609,227.40000000002328 130.2795694724191,221.71959772659466 125.45295621477999,217.65211856825044 123.06944349501282,212.53266882587923 123.18861913098954,205.02874468441587 125.45295621477999,200.610505680379 129.92204256448895,196.47276244743261 134.45071673230268,195.07013162126532 138.86021526390687,195.21039484045468 145.95116560533643,199.2780149836326 148.8113808692433,204.46770013298374 148.99014432332478,212.74305796908448 146.24910469562747,217.79237689566799 142.4950721617788,221.36895397817716 142.37589652556926,226.90910300525138 131.11379892425612,227.25974375376245 130.21998165454715,221.43908274295973 124.79749021702446,216.67030942603014 122.83109222282656,211.8313711883966 122.95026785880327,206.08070190850412 125.87007094081491,200.11958837427665 130.51792074437253,196.05197351862444 137.96639799396507,195.0 145.11693615326658,198.57670298905578 148.09632705315016,202.3637787348125 149.1689077769406,205.94044104387285 149.46684686746448,210.84955321979942 148.5134417791851,214.35603912861552 145.95116560533643,218.35340990131954 142.4950721617788,221.36895397817716 142.43548434367403,227.0493593274732 131.23297456046566,227.25974375376245 130.2795694724191,221.92998388473643 124.97625367064029,216.67030942603014 122.77150440518744,211.41059224127093 123.12903131288476,205.16900574654574 125.5721318507567,200.32998155103996 129.0878131124191,196.9636825186899 132.3651431023609,195.70131586893694 139.87320816982538,195.42078961263178 143.86559197562747,196.6831568091875 147.08333414699882,200.8208986974787 149.22849559527822,205.6599192240392 149.10931995906867,213.51448424247792 145.8319899693597,218.70405528292758 142.6738356158603,221.6494689923129 142.13754525384866,227.0493593274732 131.05421110638417,227.40000000002328 130.04121820046566,221.50921150034992 125.51254403265193,217.44173102028435 123.12903131288476,212.95344704389572 122.47356531512924,208.74565255921334 124.1420242190361,202.78456356137758 129.62410347443074,196.6831568091875 134.33154109609313,195.28052643878618 138.44310053787194,195.42078961263178 144.2231188833248,197.24420810642187 147.2025097834412,200.610505680379 149.5264346851036,207.41317860491108 149.5264346851036,211.20020266534993" stroke="#4dd2ff" stroke-dasharray="none" stroke-linecap="round" stroke-linejoin="round" stroke-width="0.5"><title>2020-04-02 10.0km</title><desc>1585825459000</desc></polyline><polyline fill="none" opacity="1" points="185.02632895298302,205.5684200609685 185.61709217075258,210.50492507388117 183.60849723010324,216.34524817607598 178.64608620060608,221.62930424476508 177.9371703392826,227.33047385379905 166.59451655694284,227.05236919398885 165.76744805206545,221.3511971150292 160.74596070079133,216.83193936938187 158.8555184036959,212.38217758014798 158.73736576014198,207.2371020593564 159.91889219591394,202.99586014804663 163.40439518075436,198.68506096419878 169.43018000246957,195.48670737765497 175.75134643306956,195.90388483623974 179.35500206192955,197.22494499967434 181.95436022034846,199.4498822867754 184.84909998741932,206.12464787560748 185.20355791854672,211.9650108308997 183.2540392994415,216.97099392849486 178.29162826994434,221.42072390887188 178.11439930461347,227.40000000002328 166.53544023493305,227.26094770012423 166.00375333894044,221.5597774737398 161.6911818489898,218.15295646281447 159.44628162146546,214.6765898547019 158.50106047280133,206.81993196636904 161.51395288365893,200.35376085684402 169.07572207180783,195.55623697297415 175.04243057174608,195.76482571370434 179.59130734903738,197.2944744065171 182.30881815077737,199.86705716967117 184.84909998741932,205.9855909672915 185.3217105618678,211.1306765191839 182.84050504676998,217.3186301937094 178.52793355681933,221.3511971150292 178.29162826994434,227.33047385379905 166.47636391362175,227.05236919398885 166.00375333894044,221.76835776440566 160.27335012634285,216.06713875720743 158.50106047280133,208.6276670776424 160.03704483923502,202.64821612572996 165.8265243738424,196.8772978517227 171.61600390844978,195.34764816466486 179.94576527969912,197.57259195914958 184.31741309165955,203.76067633420462 185.43986320542172,210.50492507388117 184.0811078043189,215.58044698397862 178.29162826994434,221.5597774737398 178.23255194793455,227.26094770012423 166.65359287895262,227.26094770012423 165.64929540874436,221.42072390887188 161.6911818489898,218.0139021599898 159.15090001258068,214.25942459655926 158.50106047280133,207.58474359626416 161.7502581709996,200.35376085684402 168.66218781960197,195.0 174.27443838864565,195.62576656066813 181.7180549330078,199.79752804117743 185.14448159653693,206.05511942517478 185.38078688364476,211.33926019904902 182.4269707945641,218.0139021599898 178.4688572352752,221.3511971150292 178.05532298260368,227.19142153899884 166.71266920072958,227.33047385379905 165.8265243738424,221.28167031379417 161.6911818489898,218.08342931501102 159.56443426501937,215.0242273627082 158.56013679481111,207.51521530392347 161.15949495323002,201.11858019110514 166.12190598272718,196.32106202375144 170.43447747267783,195.34764816466486 176.51933861640282,196.32106202375144 179.47315470548347,197.22494499967434 181.89528389833868,199.86705716967117 185.14448159653693,206.33323318196926 185.49893952719867,211.61737166624516 182.66327608167194,217.5967390705482 178.52793355681933,221.62930424476508 178.05532298260368,227.26094770012423 166.59451655694284,227.26094770012423 166.00375333894044,221.5597774737398 161.57302920566872,217.5967390705482 158.6782894381322,211.7564273547614 158.38290782948025,207.65427188121248 159.85981587390415,202.92633135861252 165.35391379962675,196.80776839965256 170.84801172534935,195.2781185467029 177.641788730165,196.73823894001544 181.95436022034846,200.07564450911013 185.20355791854672,206.68087520846166 185.3217105618678,212.1735942394007" stroke="#4dd2ff" stroke-dasharray="none" stroke-linecap="round" stroke-linejoin="round" stroke-width="0.5"><title>2020-03-23 10.0km</title><desc>1584960411000</desc></polyline><polyline fill="none" opacity="1" points="44.199999999953434,236.79864198650466 43.22702702693641,239.60423892515246 38.36216216208413,241.20743048982695 31.55135135119781,245.15813180437544 33.69189189188182,249.5095947313239 33.98378378385678,254.20455403038068 32.37837837822735,258.4986876096227 28.0,262.5065141450614 28.097297297324985,266.74332630092977 18.65945945936255,267.02959616767475 17.929729729657993,262.27749630453764 14.67027027043514,259.52927447785623 12.335135135101154,255.46417016233318 11.800000000046566,252.08610194851644 12.335135135101154,248.30722039885586 14.32972972956486,244.98636279598577 19.875675675459206,240.5203489860869 24.59459459455684,240.63486263202503 29.605405405396596,242.23805107088992 31.454054054105654,243.95574757363647 33.886486486531794,249.10880359110888 34.081081081181765,253.23121223627822 32.232432432472706,258.5559424882522 28.291891891974956,262.0484783647116 27.756756756687537,266.85783426614944 18.61081081070006,267.20135801349534 17.832432432333007,262.33475077396724 14.524324324447662,259.4147649250226 12.43243243242614,255.46417016233318 12.091891892021522,249.62410642992472 14.378378378460184,245.27264444547473 19.632432432379574,240.57760581222828 25.810810810886323,240.80663305451162 30.335135135101154,242.7533606076613 33.44864864856936,247.84917231468717 34.081081081181765,253.63200025097467 32.232432432472706,258.5559424882522 28.243243243312463,262.39200523734326 28.097297297324985,266.91508823959157 18.513513513375074,267.02959616767475 17.88108108122833,262.2202418288216 14.572972973110154,259.07123611780116 12.335135135101154,255.46417016233318 12.140540540451184,249.79587393131806 14.183783783810213,245.10087547439616 20.556756756501272,240.5203489860869 28.145945945987478,241.37920072622364 31.502702702768147,243.95574757363647 33.49729729723185,247.84917231468717 34.081081081181765,253.40297856531106 32.37837837822735,258.32692293607397 28.291891891974956,262.39200523734326 28.145945945987478,266.97234220668906 18.513513513375074,267.1441040711361 17.832432432333007,262.0484783647116 14.183783783810213,258.7277070872369 12.529729729751125,255.80770131380996 12.189189189346507,249.05154768918874 14.427027026889846,244.98636279598577 19.681081081042066,240.9211466384586 25.03243243228644,240.9211466384586 29.994594594463706,242.5815908180084 31.55135135119781,243.8412346469122 33.8378378378693,249.28057125996565 34.17837837827392,253.6892556566163 31.989189189160243,258.7277070872369 28.291891891974956,262.4492596942 28.097297297324985,266.97234220668906 18.46486486494541,266.97234220668906 17.832432432333007,262.16298734705197 12.724324324401096,256.0939771026606 12.04324324335903,253.57474483881379 12.23783783777617,248.76526808610652 14.67027027043514,244.7000809913734 20.31351351342164,241.15017373196315 27.027027026982978,241.550970906741 31.697297297185287,244.01300402742345 33.59459459455684,247.6774041808094 34.12972972961143,253.80376644991338 32.0864864862524,259.07123611780116 28.38918918929994,262.2202418288216 28.38918918929994,266.91508823959157 18.367567567387596,266.97234220668906 18.027027026982978,262.2202418288216 13.454054054105654,257.63986368419137 11.994594594463706,253.91827721818117" stroke="#4dd2ff" stroke-dasharray="none" stroke-linecap="round" stroke-linejoin="round" stroke-width="0.5"><title>2019-12-13 10.0km</title><desc>1576239112000</desc></polyline><polyline fill="none" opacity="1" points="71.3579868132365,238.67157791445788 71.23262137605343,239.26177390159137 70.52864622877678,239.38662262672733 68.87960855505662,240.36270753142162 69.3135658375686,241.3160840092023 69.36178331350675,242.19000482703268 69.14962641970487,242.80288001355802 68.24313787394203,243.73353547941952 68.1949203981203,244.16481203900184 68.3685033111833,248.92008589961915 69.39071379892994,249.30594591289992 69.99825399456313,249.72585078371048 71.51228273590095,249.90743074732745 71.66657865856541,250.13440525947226 71.94624001847114,261.9137077740743 72.17768390249694,264.0016155883859 72.11017943639308,267.85959671583987 71.68586564896395,268.018451719312 66.7580396180274,267.9617178171029 64.84862757480005,268.1999999999971 63.72998213529354,268.07518559078744 63.45996427058708,265.953317901236 63.24780737690162,256.364663695349 59.62185319373384,255.84265261276596 59.44827028067084,255.61569046164368 58.75393862859346,255.51355733332457 58.53213823965052,254.73053337661986 58.734651638253126,254.36738984607655 58.628573191410396,254.12907622036437 57.712441150448285,253.33469355472334 56.87345707084751,253.58435732695943 56.42021279793698,253.43682880615233 56.01518600084819,252.85806106548262 55.82231609750306,252.063668766692 55.85124658298446,246.30981908628019 56.092333962151315,244.80037425998307 56.34306483657565,244.21020946833596 56.28520386555465,243.57464366793283 57.45206678088289,235.8227005292938 58.95645202707965,235.79999999999563" stroke="#4dd2ff" stroke-dasharray="none" stroke-linecap="round" stroke-linejoin="round" stroke-width="0.5"><title>2019-11-23 10.0km</title><desc>1574497580000</desc></polyline></svg>