<?xml version="1.0" encoding="utf-8" ?>
<svg baseProfile="full" height="300mm" version="1.1" viewBox="0,0,200,300" width="200mm" xmlns="http://www.w3.org/2000/svg" xmlns:ev="http://www.w3.org/2001/xml-events" xmlns:xlink="http://www.w3.org/1999/xlink"><defs /><rect fill="#222222" height="300" width="200" x="0" y="0" /><text fill="#FFFFFF" style="font-size:12px; font-family:Arial; font-weight:bold;" x="10" y="20">Over 10km Runs</text><text fill="#FFFFFF" style="font-size:4px; font-family:Arial" x="10" y="280">Runner</text><text fill="#FFFFFF" style="font-size:9px; font-family:Arial" x="10" y="290">Floyd Li</text><text fill="#FFFFFF" style="font-size:4px; font-family:Arial" x="65" y="280">SPECIAL TRACKS</text><rect fill="yellow" height="2.6" width="2.6" x="65" y="283" /><text fill="#FFFFFF" style="font-size:3px; font-family:Arial" x="70" y="285.5">Over 20.0 km</text><rect fill="red" height="2.6" width="2.6" x="65" y="287" /><text fill="#FFFFFF" style="font-size:3px; font-family:Arial" x="70" y="289.5">Over 40.0 km</text><text fill="#FFFFFF" style="font-size:4px; font-family:Arial" x="120" y="280">STATISTICS</text><text fill="#FFFFFF" style="font-size:3px; font-family:Arial" x="120" y="285">Number: 46</text><text fill="#FFFFFF" style="font-size:3px; font-family:Arial" x="120" y="290">Weekly: 2.1</text><text fill="#FFFFFF" style="font-size:3px; font-family:Arial" x="141" y="285">Total: 858.6 km</text><text fill="#FFFFFF" style="font-size:3px; font-family:Arial" x="141" y="290">Avg: 18.7 km</text><text fill="#FFFFFF" style="font-size:3px; font-family:Arial" x="167" y="285">Min: 10.0 km</text><text fill="#FFFFFF" style="font-size:3px; font-family:Arial" x="167" y="290">Max: 100.8 km</text><polyline fill="none" opacity="1" points="32.126920329988934,46.13372818764765 34.947361141385045,47.70409985248989 37.252237503416836,48.11453543454991 37.41903776646359,57.51858375320444 36.812491355405655,57.87546306454169 34.477287672809325,58.23234160315769 29.76138932676986,58.5 25.682364712411072,58.28587331730523 18.873881248175167,57.3401438077417 12.762926156749018,57.304455795514514 12.47481661150232,51.18384738324676 12.611289553926326,48.66772960177332 25.136472942424007,48.25729539737222 26.45571138651576,47.88255023116653 28.927388011594303,46.34787065947603 29.01836997322971,42.76094754973019 28.715096767700743,38.33518357445428 27.502003945584875,37.12164687982295 27.062257797573693,36.33641249121865 26.834802893397864,34.74808603747806 27.122912438586354,33.5880626605358 28.078223036020063,32.3209508695727 29.109351934865117,31.732008269100334 30.39826305845054,31.5 32.29372059291927,32.14248363714432 33.0519036067999,32.82065809167398 33.55230439599836,33.837914539530175 33.779759300057776,34.94439687790873 33.567468056222424,36.318566211586585 31.929792746319436,38.37087569490541 32.08142934914213,45.90174019585538 32.399866214895155,46.38356104443665 34.93219748116098,47.6862548039644 37.297728484263644,48.132380436654785 37.52518338843947,57.072483527401346 37.28256482392317,57.66133557044668 32.96092164510628,58.37509280226368 28.138877677207347,58.46431223890977 19.73820988391526,57.37583181230002 12.97521740058437,57.411519809116726 12.732598836126272,57.16170366916049 12.47481661150232,50.84479829041811 12.47481661150232,48.881868780837976 12.687107855337672,48.63203971153416 25.36392784654163,48.22160541826452 26.577020668715704,47.81117010289745 28.98804265266517,46.312180266861105 28.74542408826528,38.602874289179454 27.36553100310266,36.96103105931252 26.789311912551057,34.94439687790873 27.016766816726886,33.784374883034616 27.668804208631627,32.71357810021436 28.426987222454045,32.05324994849798 29.367134159605484,31.67846792830096" stroke="#4dd2ff" stroke-dasharray="none" stroke-linecap="round" stroke-linejoin="round" stroke-width="0.5"><title>2026-07-02 12.5km</title><desc>1782990338000</desc></polyline><polyline fill="none" opacity="1" points="65.94813470193185,47.02077212079894 63.50968651822768,50.65198280016193 60.87218134012073,52.93611895991489 60.523831599392,57.91433100722497 50.819803113816306,58.32429936871631 49.47616840037517,53.40465851809131 46.092199492501095,50.007737523526885 43.952336800750345,45.43943081604084 43.60398706025444,42.2181657050387 45.24620726541616,36.88839401473524 48.480883427429944,33.549938834039494 50.869567362358794,32.26140676002251 57.687269426649436,31.734279117255937 62.713458539918065,34.13563421642175 66.34624869097024,40.34396626416128 66.19695594510995,45.90797686984297 63.95756475604139,50.30057638074504 60.77265284280293,53.580360747582745 60.47406735108234,57.855764073028695 50.91933161113411,58.5 49.52593264915049,53.40465851809131 46.24149223836139,50.24200862203725 43.90257255220786,45.556567367573734 43.85280830343254,41.10536057042191 46.19172798958607,35.65843924100045 50.570981870405376,32.26140676002251 56.44316321052611,31.558569788816385 62.41487304819748,33.959925668197684 65.59978496120311,38.05977691250155 66.39601293974556,44.795179329114035 64.60449998849072,49.304923618910834 60.77265284280293,53.40465851809131 60.2750103562139,58.26573247887427 50.9690958596766,58.38286625215551 49.924046638188884,53.81463029846782 45.24620726541616,48.77781259123003 43.80304405465722,45.02945268584881 44.25092229270376,39.28972622397123 46.341020735679194,35.599869896424934 52.11367357848212,31.909988388593774 58.881611394230276,31.9685581328813 62.713458539918065,34.252773216809146 65.64954920997843,38.294053187652025 66.34624869097024,40.63681035517948 66.24672019388527,46.08368153544143 64.60449998849072,49.304923618910834 60.67312434548512,53.46322593424702 60.42430310230702,57.97289793519303 51.068624356994405,58.38286625215551 50.17286788136698,57.21152737893863 49.77475389209576,53.8731976703275 46.14196374104358,50.12487308541313 43.952336800750345,45.26372594118584 44.05186529783532,40.28539742704015 46.092199492501095,35.83414723724127 51.765323837986216,31.909988388593774 57.43844818347134,31.675709347589873 62.91251553455368,34.487051141273696 66.09742744779214,39.816846501023974 66.09742744779214,46.20081794745056 63.75850776140578,50.593415079347324 60.92194558866322,53.1118213419104 60.47406735108234,57.97289793519303 50.7202746164985,58.38286625215551 49.77475389209576,53.931765035609715 44.74856477882713,47.957861082220916 43.703515557572246,44.32663231075276 44.698800530517474,38.235484128352255 46.788898973492905,35.13131491030799 51.7155595892109,31.9685581328813 58.78208289691247,32.02712787105702 63.26086527504958,34.60419006535085 66.09742744779214,39.58257088577375 65.79884195583872,47.37218067172216 64.4054429938551,49.83203413290903 60.822417091345415,53.05325388762867 60.3745388535317,57.91433100722497 51.566266843350604,58.5 50.47145337308757,58.14859868044732 49.82451814087108,53.8731976703275 46.6893704761751,50.65198280016193 44.201158043928444,46.31795433408115 43.753279806347564,41.691047768923454 45.04715027078055,37.474085780908354 47.485598454484716,34.31134270731127 50.77003886504099,32.20283704722533 56.542691707843915,31.5 61.81770206429064,33.60850840091007 65.40072796680033,37.884069639781956" stroke="#4dd2ff" stroke-dasharray="none" stroke-linecap="round" stroke-linejoin="round" stroke-width="0.5"><title>2026-07-01 10.0km</title><desc>1782903922000</desc></polyline><polyline fill="none" opacity="1" points="72.09253739780979,34.4001195969322 74.02380435861414,32.402014239371056 75.52805751899723,31.69410498092475 76.59559201990487,31.5 81.95267424278427,31.522835898635094 82.07883741107071,31.774030457570916 82.01090339734219,36.500943867155 82.4767366341548,37.14031686777162 87.52326336578699,37.23165555170999 89.07604082167381,37.63126136473875 91.79340136953397,38.738732426587376 94.58840079017682,39.19541814081458 98.2956569661037,57.8721714294079 97.89775774301961,58.0091525267635 95.51036240457324,58.077643008800806 93.23942537535913,58.5 89.91065870423336,58.020567610168655 72.96597471681889,57.95207709114038 71.95666937046917,57.92924690824293 71.7043430338963,57.73519015440252 71.84021106123691,45.63447640855884 71.73345761117525,40.69105002471042 72.05371796147665,34.53713114994753 73.6647245719214,32.721713638457004 75.28543604147853,31.785448377850116 76.87703293381492,31.511417949950555 81.87503536994336,31.522835898635094 82.07883741107071,31.774030457570916 82.00119853828801,36.61511790128861 82.31175402947702,37.04897810478724 83.51515655778348,37.254490210347285 87.30005160649307,37.185986219607 88.7751901896554,37.505671129358234 91.73517221491784,38.715898089016264" stroke="#4dd2ff" stroke-dasharray="none" stroke-linecap="round" stroke-linejoin="round" stroke-width="0.5"><title>2026-06-30 19.1km</title><desc>1782820136000</desc></polyline><polyline fill="none" opacity="1" points="128.3385650224227,48.15509896437288 128.29820627800655,49.20026051781315 125.46502242152928,52.64920524279296 124.98071748879738,54.33087288691604 111.1457399103383,54.26436686946545 105.55201793723973,54.69190467274166 105.14843049328192,53.27627152536297 104.63183856502292,52.06963999355503 103.80044843052747,50.767979485332035 102.15381165922736,48.89621480565256 101.7421524664096,48.069585194898536 101.50807174891816,46.938895288571075 101.5807174888032,45.865201457520016 101.90358744398691,45.000535803577804 103.56636771303602,42.85308750292461 104.09910313901491,41.76033918782923 104.99506726456457,36.26788479921379 122.07488789237686,35.91627997514297 123.26143497755402,35.82125140213611 126.05426008967333,35.30809532725834 126.76457399100764,37.113631165870174 126.92600896858494,38.86211462846404 126.87757847530884,40.829116828303086 128.5,47.36646881659544 128.33049327356275,48.0220775091293 128.26591928250855,49.23826615768485 125.44080717489123,52.66820731724874 124.98071748879738,54.33087288691604 111.65426008970826,54.25486600572913 105.51973094171262,54.68240385529498 104.69641255607712,52.19315422037471 103.80852017938741,50.79648320708657 102.10538116595126,48.79169884850853 101.6291479821084,47.746532424098405 101.5,46.9483969451685" stroke="#4dd2ff" stroke-dasharray="none" stroke-linecap="round" stroke-linejoin="round" stroke-width="0.5"><title>2026-06-29 19.4km</title><desc>1782731853000</desc></polyline><polyline fill="none" opacity="1" points="131.5,42.011918472526304 131.5719271138587,42.1462812753507 131.76397250785521,42.42598514338624 131.8035324204793,42.52062588799072 131.82511055463328,42.60935055011032 131.8323032660228,42.74623806233649 131.82079492780395,42.82989036737217 131.72800895092587,43.10027556160185 131.69204539399652,43.256587755694454 131.6798177846431,43.39430889473715 131.68772976717082,43.564133477636005 131.76756886354997,44.288170230988726 131.89056422824433,44.81953864932302 131.8833715168621,44.89049768986297 131.8272683680516,45.03072438579511 131.8143214875563,45.116886536232414 131.85819702700974,45.605965550581914 131.92508924289723,45.7985478996593 131.94163247908364,45.889769470918964 131.91214236240558,46.50886568441638 131.92868559859198,46.57051925481119 131.97328040918364,46.648218956376695 132.12504661942512,46.784191586657016 132.17683414140265,46.87033452089645 132.1861846662032,46.93958599947837 132.13943204219686,47.151559296152755 132.1631679897655,47.27570036686893 132.22214822313254,47.3559265470908 132.33579306302636,47.42348480098508 133.86784058820194,47.989262398802566 134.0253609675492,48.02726092840203 134.15770685705138,48.04161588070565 134.41160956897147,48.028105338085425 135.70773616068982,47.66584526191809 135.84871330385067,47.640511765326664 136.03356598646496,47.63544505621667 137.5131067185248,47.757045174075756 137.6878896051967,47.757889612765666 137.8964782353869,47.73340085393693 138.2740955831432,47.62277826916761 138.4963503649633,47.58308887098201 139.9456817092032,47.48513120131838 140.11471042676567,47.44628558069962 140.28877404230298,47.37450512476016 140.45636421759264,47.271477913659055 140.57792104001055,47.16760485093573 140.9037508657857,46.79517064055108 141.12240929191466,46.576431215615685 141.33315573551954,46.329814218751835 141.47485214982225,46.116129538394034 141.63596888486063,45.74786879154726 141.71293089669052,45.631305602922566 141.86110075123725,45.52487683412846 142.38904576695495,45.208960731350544 142.49405935318282,45.10843930834653 142.53649635036345,45.0324138488063 142.57461772070747,44.91077158376174 142.63215941179442,44.68775587406344 142.6803505780772,44.40982213433335 142.71199850817356,44.29492871947696 142.84434439767574,43.942634760146575 142.97093611806486,43.67143368447887 143.0478981298911,43.5396316500387 143.124860141721,43.43739906189967 143.35862326175993,43.18054437417959 143.45788267888565,43.03690486691585 143.52477489477315,42.896642577612965 143.6441739037764,42.55780586843139 143.66647130907222,42.5569608708297 143.68373381639685,42.589070715724574 143.703873408278,42.579775774124755 143.71610101763508,42.59752065308339 143.703873408278,42.60681557367661 143.71610101763508,42.589915709869274 143.70243486600157,42.57893077888912 143.68661090095338,42.589070715724574 143.6851723586733,42.5611858579241 143.66287495337747,42.52738589752835 143.7031541371398,42.474150664877016 143.75925728594666,42.42683015508146 143.87434066812057,42.378664343315904 144.88563588896432,42.267121329043675 145.129468804942,42.20881412274139 145.67251851456967,42.03135474349301 145.69337737758906,42.047410757128546 145.81421492886875,42.01107341617535 146.04725877776946,41.995017328224094 146.4932068836897,42.05417117409979 146.72481219031033,42.10740925432174 146.99741595183514,42.103184023048925 147.30310618572912,42.06515683926273 147.45774948052713,42.111634483323996 147.56492088016967,42.175857684161656 147.7289146997682,42.23923532787876 148.01086898609356,42.378664343315904 148.11516330118684,42.40316979324189 149.05525067930648,42.45809552387345 149.3760456071177,42.44288536001295 149.5537055783425,42.48175572021 150.2341360754399,42.81299098363388 150.67936491022192,43.04197454130781 151.04187756406827,43.26926158103288 151.40726730246388,43.435709255877555 151.56191059725825,43.51428485141196 151.60362832329338,43.54808056473985 151.69929138472799,43.58187613266591 152.0071394320439,43.65960538710078 151.86975864457418,43.98741160732516 151.8683201022941,44.011912038325136 151.91579199743865,44.07020586007911 152.07043529223665,44.1580681944356 152.2862166338091,44.24339509790798 152.54155788800563,44.37434052375738 152.59046832542663,44.412356528956934 152.62787042463242,44.466423419534294 152.71634077468116,44.52302429701194 152.73648036656232,44.54836784134113 152.98678672278766,44.66494709244989 153.10762427406735,44.70718552470089 153.3255634290581,44.84910499408306 153.42698065959485,44.89218718302118 153.46078640310952,44.9217532544526 153.48164526612527,44.971592951641924 153.63125366295208,45.07042667050837 153.7923703979941,45.07718448622745 153.8729287655151,45.12871264001751 153.91824284724498,45.14391760445142 154.2268101656955,45.17094857969914 154.2994565506924,45.27484802536719 154.33110448078878,45.29427622456478 154.6576535777058,45.42858289680407 155.19351057594758,45.67100485401488 155.32297938089323,45.74786879154726 156.07965261867503,46.26815876085402 156.42202568064022,46.472548971493325 156.6068783632545,46.54940507280526 156.81546699344108,46.590788816200984 158.03894720016615,46.60852463955098 158.0447013692792,47.067108468238985 158.10943577175203,47.11102301193023 158.20437956204114,47.14649227205109 158.46187862965598,47.18027237106162 158.4280728861413,48.560909777968845 158.41368746336957,48.701915374606415 158.36621556822138,48.7188021029765 158.35974212797373,48.79732491385312 158.31658585965852,48.84207412221849 158.24178166125057,48.90539803883303 158.06771804570963,49.005026636093135 157.95766956151056,49.04724176294167 157.35995524534883,49.221165697142624 157.3362192977729,49.211034311263575 157.26069582822674,49.233829911155226 157.2362406095126,49.25493688921779 157.2722041664456,49.267601048884444 157.99219457615982,49.05821765882956 158.13029463476778,48.99405066601685 158.23386967872284,48.92819452406957 158.36621556822138,48.80323520124193 158.377004635302,48.72302377940605 158.4230379881701,48.70867007030256 158.44821247801883,48.67827389399963 158.5,47.182805872637346 158.45972081623404,47.14902578450892 158.28925355639512,47.13720271938564 158.1950290372406,47.11693456639432 158.07634929937194,47.05781882180372 158.06484096115673,46.60430182809387 158.01521125259387,46.579809476935225 156.83488731418765,46.569674688621944 156.5982471095922,46.52406797955791 156.40979807128315,46.44636705114226 156.2522776919359,46.34248308857559 156.0868453300609,46.21072584455578 156.0559166711064,46.20227979206629 155.39059086791895,45.743645517790355 154.74396611433622,45.45054477583017 154.59507698864763,45.371143846153245 154.45553838776686,45.2647115545451 154.1894080664897,44.997779784511295 154.04411529649587,44.88373971360852 153.6370078320615,44.62270843315764 152.2114124353975,43.7297300327773 151.96614097713973,43.62496527089161 151.64822313388868,43.54385610852478 151.48422931429377,43.44838279219266 151.0641749693641,43.26165728828528 150.65059406467844,43.006486751839475 150.03417869891564,42.6930043133475 149.5234961905262,42.451335454683885 149.35087111726534,42.42260509569587 149.0387074431237,42.43866030926483 148.66324790878207,42.40908489038566 148.31368213543465,42.401479764665055 148.15256540039263,42.38204440992149 147.91952155149556,42.310217681491395 147.4498374979994,42.072762290754326 147.37647184186426,42.04910086191876 147.30526399914743,42.04487559926383 147.10171026692842,42.07529743961459 146.73344344397628,42.09135336338477 146.49032979913682,42.03558001342162 146.11846662048993,41.98403156491622 146.00626032287255,41.974735907034756 145.85737119718397,41.98149638658697 145.632239330811,42.027129471288845 145.17118653098078,42.17754776130096 144.9539666471319,42.23754526401808 144.76120198198987,42.26881138653653 143.91390058074467,42.354158816913696 143.80385209654196,42.38288942634699 143.72545154243562,42.4302102009533 143.6578400554099,42.50288083526493 143.6499280728858,42.51640087907663 143.68661090095338,42.57470580134486 143.68661090095338,42.59245069175813 143.7002770525869,42.577240788144536 143.71682028876967,42.58738072716187 143.6873301720916,42.59245069175813 143.68876871436805,42.5679458325435 143.65640151312982,42.55189088331872 143.63770046352874,42.54851088982468 143.6254728541753,42.56287585212294 143.49456550694958,42.92875103360484 143.45572486546735,42.9997271547104 143.43630454472805,43.006486751839475 143.2672758271583,42.926216160273725 143.1464382758786,42.883968150952114 142.71559486386832,42.763982565138576 142.54440833288754,42.73271841423821 141.63021471575485,42.691314347152 140.6728648303033,42.60343560382398 139.786003516434,42.59414067923035 139.4565773349641,42.545975893748164 138.58338217273194,42.327963169626855 138.3388299856124,42.284866914581016 138.03170120943832,42.26627630015946 137.609489051094,42.29078210084799 137.47642389045723,42.28317686054379 137.15634823378787,42.1885332538327 136.68091001118955,42.07445239008666 136.58596622089317,42.03727012075706 136.5197932761439,41.97811614753891 136.48311044807633,41.91473639591459 136.4068677073883,41.56149054024354 136.30616974798977,41.374720158944 136.25222441259393,41.304574478651375 136.1659118759635,41.250485815190586 136.07744152592204,41.23273789127643 135.4746923117891,41.27499478700247 135.37327508125236,41.251330953422894 135.3027865096701,41.203157928901874 135.25099898768894,41.137236468844094 135.1639671799203,40.87861616313694 135.12081091160508,40.80170455885309 135.053199424583,40.732398951115556" stroke="red" stroke-dasharray="none" stroke-linecap="round" stroke-linejoin="round" stroke-width="0.5"><title>2026-06-27 100.8km</title><desc>1782515791000</desc></polyline><polyline fill="none" opacity="1" points="161.5,50.22205541159201 172.5920191887999,32.85323342807533 175.42978630610742,37.95054810559668 178.09092891408363,36.27455125746201 179.5627998256241,35.872862805161276 180.97579590062378,35.789754692304996 182.15329262975138,36.01137620686495 183.26013955520466,36.648535925662145 184.16681203665212,37.72892994560243 184.41408634977415,38.42148542267387 184.54361098998925,39.640373969552456 183.89598778891377,42.65984338002454 184.143262102094,44.820520930719795 184.9439598779427,46.4133047699288 186.46293065854115,48.144569095704355 187.21652856527362,49.34951526125951 188.05255124298856,51.35773369271192 188.5,53.50441514636623 188.12320104666287,53.87834952863341 180.51657217618776,57.13291752303485 179.1271260358044,55.110940322163515 175.75948539032834,51.759373602471896 174.29938944615424,49.432614579141955 173.7930658525438,48.144569095704355 173.333842128166,45.83159470635292 173.29851722629974,43.79558868640743 173.7930658525438,41.0947144493839 174.73506323591573,38.947825081428164 175.62996075011324,37.86744134052424 176.80745747929905,36.911709667372634 178.76210204977542,36.03907886921661 180.29284779768204,35.76205197600939 182.3770170082571,36.06678152560198 183.33078935893718,36.69008971028961 184.2492368076928,37.93669698185113 184.54361098998925,39.65422490914352 183.9666375927045,42.06426559793181 183.90776275622193,43.31082057977619 184.1197121674777,44.77896978294302 184.62603576102993,45.94239682680927 186.22743131272728,47.826018215724616 187.28717836900614,49.432614579141955 188.20562581776176,51.87017059743812 188.5,53.518264587415615 188.18207588314544,53.83680131781148 180.6107719145366,57.14676657192467 178.85630178806605,54.79240675865731 175.72416048846208,51.73167433877825 174.34648931532865,49.54341358588135 173.6635412123287,47.645967368094716 173.333842128166,45.59613988218189 173.333842128166,43.74018670989608 173.67531617969507,41.56564020933001 174.19341474049725,39.88969065285346 174.62908853031695,39.12788815247768" stroke="#4dd2ff" stroke-dasharray="none" stroke-linecap="round" stroke-linejoin="round" stroke-width="0.5"><title>2026-06-25 16.5km</title><desc>1782388992000</desc></polyline><polyline fill="none" opacity="1" points="11.545299298937607,72.39373768266705 11.504853496313444,72.69400891771875 11.5,73.00377705878964 11.689286356282537,74.77866280281887 11.974024806753732,76.02705701094601 11.9594643178134,76.16766209692469 11.830037749423354,76.49826964911517 11.802534603630193,76.76427123661779 11.902840194146847,77.79593952806135 12.05006291569589,78.21770922726864 12.08727305411594,78.40389265032536 12.01770627359656,79.77930944957552 12.05006291569589,79.92748332943484 12.13580801725766,80.09655200932684 12.25390976091876,80.22952624007121 12.493348912459624,80.42518650467355 12.608214991916611,80.60184876765925 12.637335969804553,80.80890229232864 12.533794715083786,81.2192030342394 12.532176882974454,81.32177673269325 12.598507999282447,81.56871097471048 12.739259392408712,81.74156289322127 12.986787704474409,81.87642420618249 16.371292468094907,83.13001538848766 16.808107136435865,83.24017521660426 17.198004673744435,83.27246331212336 17.762628078373382,83.20788706217172 20.40778357002273,82.4595450928482 20.962699982024787,82.35697799111404 21.360686679850915,82.35317919814588 24.90212115765462,82.6342876745075 25.46998022650223,82.57540721478654 26.31125292109209,82.32848702399315 26.80145604889549,82.23731562089051 29.980496135183785,82.0321782460669 30.25552759302809,81.98469240360282 30.611450656128,81.8783236539548 30.878392953447474,81.75865804613204 31.24240517706494,81.53072131568115 31.494786985436804,81.31797771743004 32.164569476903125,80.55055990533765 32.81008448678767,79.88949014525315 33.31646593564801,79.28348782412104 33.530019773505046,78.93583448557911 33.903738989756675,78.08471986763288 34.05419737552438,77.85673578099522 34.28231170232175,77.67624629414968 34.736922523821704,77.40645857302843 34.748247348557925,77.44635701653897 34.75310084487137,77.39315907184937 35.59599137156329,76.89157058021374 35.80954520942032,76.68637118617153 35.9276469530887,76.47926938255114 35.98103541255114,76.31776629219348 36.1395829588364,75.70404109065748 36.235035053032334,75.14349945354297 36.33534064354899,74.765361324291 36.54565881718736,74.19718882244342 36.830397267658554,73.57388827547038 37.01321229552559,73.2242222439454 37.15072802445502,73.02088066296346 37.73476541434502,72.37093206387908 37.94508358799794,72.08205834423279 38.150548265330144,71.67534654738483 38.414254898445506,70.92461559749427 38.47896818264417,70.94552246094281 38.5,70.99493858525784 38.49676433579589,70.94172121488373 38.39484091317718,70.90560933651614 38.365719935289235,70.93982059154769 38.07451015639526,71.75897029840053 37.98714722272416,71.92241557779562 37.94346575588861,71.94142074468982 37.32221822757856,71.6734460029893 36.28680568039272,71.39026260267747 35.94867877045181,71.32374235352108 33.83255437713524,71.22871299157487 31.64524537120451,71.03105028098071 30.21993528672465,71.03675212092821 29.674725867342204,71.01014351877348 28.935376595363778,70.89610619836458 27.155761279886065,70.4456515842503 26.61216969261295,70.33541199629872 25.916501887477352,70.27839124975799 24.829318712931126,70.33161061892315 24.48148481035605,70.30310026252846 23.80199532626284,70.09782433777218 22.730990472773556,69.84122607633435 22.7423152975025,69.86403496166895 22.74716879382322,69.84122607633435 22.74069746540772,69.86593570077821 22.735843969079724,69.84312681790652 22.528761459645466,69.75949399530691 22.38315657019848,69.62263943124344 22.289322308111878,69.45156973464327 22.116214272879006,68.65892517707107 21.873539457126753,68.2198189908122 21.7295523997891,68.06964597074511 21.577476181919337,67.98790568877484 21.415692971422686,67.95368871418214 20.071274492183875,68.04683476733771 19.794625202230236,67.98790568877484 19.647402480681194,67.88715551818859 19.545479058062483,67.76169223778197 19.35457486967789,67.2085025956676 19.265594103904732,67.02410219588091 19.153963688659132,66.88532536689127 18.922613697650377,66.72753668787664" stroke="red" stroke-dasharray="none" stroke-linecap="round" stroke-linejoin="round" stroke-width="0.5"><title>2026-06-20 50.3km</title><desc>1781914442000</desc></polyline><polyline fill="none" opacity="1" points="65.34398752520792,77.76148355577607 67.03497812210117,77.85112347042013 67.33966111252084,78.06625906759291 67.59864165441832,86.47425637193373 67.5377050563693,87.33475226811424 67.1720854677842,87.76499853942369 62.9979284988367,88.39243901440932 58.91517642699182,88.5 54.710551159107126,88.19524369272403 49.16532073315466,87.37060616679082 42.99549017683603,87.46024087941623 42.675573036889546,87.17340962824528 42.40135834552348,81.04227281511703 42.614636438840535,78.58616894004808 55.670302578946576,78.10211497332784 58.945644726161845,76.29138203048205 58.76283493184019,68.45659641394741 57.08707848447375,66.25131528280326 56.828097942634486,64.92454662642558 57.11754678352736,63.52604923311446 58.442917791893706,61.93031341578171 59.5702448564698,61.5 61.032723210635595,61.5 61.87060143426061,61.75101629513665" stroke="#4dd2ff" stroke-dasharray="none" stroke-linecap="round" stroke-linejoin="round" stroke-width="0.5"><title>2026-06-15 12.8km</title><desc>1781522628000</desc></polyline><polyline fill="none" opacity="1" points="97.44371606811183,87.60603093265672 94.48092652810737,88.24968914894271 90.16588945448166,88.5 85.75968962558545,88.26756850800302 78.78573886217782,87.31995980905776 72.8601597820525,87.39147763645451 72.55628393182997,78.68395448414958 85.50139515288174,78.12966128571134 86.534573043813,77.80781276818016 89.02635501592886,76.25220275683387 88.84402950573713,68.50969585271378 87.32465025444981,66.6500096325617 86.94480544165708,65.14794008503668 87.2638750844635,63.44915448578831 88.43379710795125,62.09011342008307 89.8012384340982,61.5 91.71565629076213,61.71458694228204 92.90077210677555,62.519285491653136 93.81239965755958,64.43266406856128 93.70604310993804,65.898976567114" stroke="#4dd2ff" stroke-dasharray="none" stroke-linecap="round" stroke-linejoin="round" stroke-width="0.5"><title>2026-06-14 10.1km</title><desc>1781439872000</desc></polyline><polyline fill="none" opacity="1" points="118.97520651924424,76.31044947639748 118.77833914884832,68.70043314655777 117.06710739003029,66.38349646590359 116.83995273179607,64.6368610940699 117.33969297993463,63.15755337008159 118.32402983226348,62.15945871725853 119.49009041127283,61.606939431032515 120.56528912694193,61.57129296170024 121.35275860887486,61.71387879247777 122.63996833900455,62.426806092931656 123.4728687524912,63.620952400931856 123.71516705467366,64.42298610098078 123.66973612306174,65.88445968004817 123.33657595753903,66.72212770860642 121.8827861448517,68.43309596368636 122.07965351530584,76.06094632393797 125.16895686736098,77.75399600484525 127.22849243547535,78.07478240280761 127.42535980598768,87.44859773671487 126.91047591395909,87.8406468234898 125.53240432054736,88.07231175406196 119.8838251522393,88.48217967862729 115.49216842622263,88.25051532492216 109.31356172193773,87.35949554129911 102.7866512084147,87.35949554129911 102.57464019401232,78.64506778874784 115.3710192751605,78.18171106319642 116.0676268938114,78.00349659060885 118.89948829985224,76.346092753025 118.76319550490007,68.59349832549924 117.05196374619845,66.4369646031555 116.83995273179607,64.45863195248239 117.38512391154654,63.086261095668306 118.41489169566194,62.03469645995938 120.56528912694193,61.5 122.48853190016234,62.26639771966438 122.9882721483009,62.76544547852245 123.66973612306174,64.20911082983366 123.50315604032949,66.31220558912901 121.97364800813375,68.36180597492785 122.10994080308592,76.13223297754303 124.92665856529493,77.64706706654397 126.97105048946105,77.89656781447411 127.2890670109773,78.25299679821183 127.53136531315977,87.0565477161581 127.30421065492555,87.62680198278395 124.68436026317067,88.17923391969816 120.32299082487589,88.5 115.44673749455251,88.23269497652655 109.61643459962215,87.37731598423852 102.80179485230474,87.35949554129911 102.46863468684023,80.83708384582133 102.6352147696307,78.66288917518978 115.1438646169263,78.25299679821183 116.41593070304953,77.89656781447411 118.89948829985224,76.38173602192546 118.91463194380049,69.93017859378597 118.58147177833598,68.18358086784428 117.65770950150909,67.27462981913413 116.8853836634662,65.88445968004817 116.85509637568612,64.35169437482546 117.15796925337054,63.44272215888486 118.73290821717819,61.89211090716708 121.00445479957853,61.5891161973268 122.88226664112881,62.6763299183076" stroke="#ffde00" stroke-dasharray="none" stroke-linecap="round" stroke-linejoin="round" stroke-width="0.5"><title>2026-06-10 21.8km</title><desc>1781089369000</desc></polyline><polyline fill="none" opacity="1" points="136.5934985158965,84.64290481881471 140.30098122218624,88.5 145.38799237646163,87.18046922626672 153.40650148456916,87.58647889317945 151.85453198011965,78.55272217741003 147.88838769029826,76.3196452818811 146.16397712938488,72.86851596587803 146.93996188184246,61.5" stroke="#4dd2ff" stroke-dasharray="none" stroke-linecap="round" stroke-linejoin="round" stroke-width="0.5"><title>2026-06-09 11.9km</title><desc>1781004096000</desc></polyline><polyline fill="none" opacity="0.5" points="178.07403071038425,61.98214429104701 178.8937722314149,87.53571710037068 179.71351375617087,85.60715067572892 177.66415994800627,61.5 170.28648624382913,88.5 178.07403071038425,61.98214429104701 178.8937722314149,87.53571710037068 179.71351375617087,85.60715067572892 177.66415994800627,61.5 170.28648624382913,88.5 178.07403071038425,61.98214429104701 178.8937722314149,87.53571710037068 179.71351375617087,85.60715067572892 177.66415994800627,61.5 170.28648624382913,88.5 178.07403071038425,61.98214429104701 178.8937722314149,87.53571710037068 179.71351375617087,85.60715067572892 177.66415994800627,61.5 170.28648624382913,88.5 178.07403071038425,61.98214429104701 178.8937722314149,87.53571710037068 179.71351375617087,85.60715067572892 177.66415994800627,61.5 170.28648624382913,88.5 178.07403071038425,61.98214429104701 178.8937722314149,87.53571710037068 179.71351375617087,85.60715067572892 177.66415994800627,61.5 170.28648624382913,88.5 178.07403071038425,61.98214429104701 178.8937722314149,87.53571710037068 179.71351375617087,85.60715067572892 177.66415994800627,61.5 170.28648624382913,88.5 178.07403071038425,61.98214429104701 178.8937722314149,87.53571710037068 179.71351375617087,85.60715067572892 177.66415994800627,61.5 170.28648624382913,88.5 178.07403071038425,61.98214429104701 178.8937722314149,87.53571710037068 179.71351375617087,85.60715067572892 177.66415994800627,61.5 170.28648624382913,88.5 178.07403071038425,61.98214429104701 178.8937722314149,87.53571710037068 179.71351375617087,85.60715067572892 177.66415994800627,61.5 170.28648624382913,88.5 178.07403071038425,61.98214429104701 178.8937722314149,87.53571710037068 179.71351375617087,85.60715067572892 177.66415994800627,61.5 170.28648624382913,88.5 178.07403071038425,61.98214429104701 178.8937722314149,87.53571710037068 179.71351375617087,85.60715067572892 177.66415994800627,61.5 170.28648624382913,88.5 178.07403071038425,61.98214429104701 178.8937722314149,87.53571710037068 179.71351375617087,85.60715067572892 177.66415994800627,61.5 170.28648624382913,88.5 178.07403071038425,61.98214429104701 178.8937722314149,87.53571710037068 179.71351375617087,85.60715067572892 177.66415994800627,61.5 170.28648624382913,88.5 178.07403071038425,61.98214429104701 178.8937722314149,87.53571710037068 179.71351375617087,85.60715067572892 177.66415994800627,61.5 170.28648624382913,88.5 178.07403071038425,61.98214429104701 178.8937722314149,87.53571710037068 179.71351375617087,85.60715067572892 177.66415994800627,61.5 170.28648624382913,88.5 178.07403071038425,61.98214429104701 178.8937722314149,87.53571710037068 179.71351375617087,85.60715067572892 177.66415994800627,61.5 170.28648624382913,88.5 178.07403071038425,61.98214429104701 178.8937722314149,87.53571710037068 179.71351375617087,85.60715067572892 177.66415994800627,61.5 170.28648624382913,88.5 178.07403071038425,61.98214429104701 178.8937722314149,87.53571710037068 179.71351375617087,85.60715067572892 177.66415994800627,61.5 170.28648624382913,88.5 178.07403071038425,61.98214429104701 178.8937722314149,87.53571710037068 179.71351375617087,85.60715067572892 177.66415994800627,61.5 170.28648624382913,88.5 178.07403071038425,61.98214429104701 178.8937722314149,87.53571710037068 179.71351375617087,85.60715067572892 177.66415994800627,61.5 170.28648624382913,88.5 178.07403071038425,61.98214429104701 178.8937722314149,87.53571710037068 179.71351375617087,85.60715067572892 177.66415994800627,61.5 170.28648624382913,88.5 178.07403071038425,61.98214429104701 178.8937722314149,87.53571710037068 179.71351375617087,85.60715067572892 177.66415994800627,61.5 170.28648624382913,88.5 178.07403071038425,61.98214429104701 178.8937722314149,87.53571710037068 179.71351375617087,85.60715067572892 177.66415994800627,61.5 170.28648624382913,88.5 178.07403071038425,61.98214429104701 178.8937722314149,87.53571710037068 179.71351375617087,85.60715067572892 177.66415994800627,61.5 170.28648624382913,88.5 178.07403071038425,61.98214429104701 178.8937722314149,87.53571710037068 179.71351375617087,85.60715067572892 177.66415994800627,61.5 170.28648624382913,88.5 178.07403071038425,61.98214429104701 178.8937722314149,87.53571710037068 179.71351375617087,85.60715067572892 177.66415994800627,61.5 170.28648624382913,88.5 178.07403071038425,61.98214429104701 178.8937722314149,87.53571710037068 179.71351375617087,85.60715067572892 177.66415994800627,61.5 170.28648624382913,88.5 178.07403071038425,61.98214429104701 178.8937722314149,87.53571710037068 179.71351375617087,85.60715067572892 177.66415994800627,61.5 170.28648624382913,88.5 178.07403071038425,61.98214429104701 178.8937722314149,87.53571710037068 179.71351375617087,85.60715067572892 177.66415994800627,61.5 170.28648624382913,88.5 178.07403071038425,61.98214429104701 178.8937722314149,87.53571710037068 179.71351375617087,85.60715067572892 177.66415994800627,61.5 170.28648624382913,88.5 178.07403071038425,61.98214429104701 178.8937722314149,87.53571710037068 179.71351375617087,85.60715067572892 177.66415994800627,61.5 170.28648624382913,88.5 178.07403071038425,61.98214429104701 178.8937722314149,87.53571710037068 179.71351375617087,85.60715067572892 177.66415994800627,61.5 170.28648624382913,88.5 178.07403071038425,61.98214429104701 178.8937722314149,87.53571710037068 179.71351375617087,85.60715067572892 177.66415994800627,61.5 170.28648624382913,88.5 178.07403071038425,61.98214429104701 178.8937722314149,87.53571710037068 179.71351375617087,85.60715067572892 177.66415994800627,61.5 170.28648624382913,88.5 178.07403071038425,61.98214429104701 178.8937722314149,87.53571710037068 179.71351375617087,85.60715067572892 177.66415994800627,61.5 170.28648624382913,88.5 178.07403071038425,61.98214429104701 178.8937722314149,87.53571710037068 179.71351375617087,85.60715067572892 177.66415994800627,61.5 170.28648624382913,88.5 178.07403071038425,61.98214429104701 178.8937722314149,87.53571710037068 179.71351375617087,85.60715067572892 177.66415994800627,61.5 170.28648624382913,88.5 178.07403071038425,61.98214429104701 178.8937722314149,87.53571710037068 179.71351375617087,85.60715067572892 177.66415994800627,61.5 170.28648624382913,88.5 178.07403071038425,61.98214429104701 178.8937722314149,87.53571710037068 179.71351375617087,85.60715067572892 177.66415994800627,61.5 170.28648624382913,88.5 178.07403071038425,61.98214429104701 178.8937722314149,87.53571710037068 179.71351375617087,85.60715067572892 177.66415994800627,61.5 170.28648624382913,88.5 178.07403071038425,61.98214429104701 178.8937722314149,87.53571710037068 179.71351375617087,85.60715067572892" stroke="#4dd2ff" stroke-dasharray="1,0.5" stroke-linecap="round" stroke-linejoin="round" stroke-width="0.5"><title>2026-06-07 13.9km</title><desc>1780824448000</desc></polyline><polyline fill="none" opacity="1" points="15.027052934281528,110.16294362556437 15.346256257325877,110.45164152343659 15.44403024816711,110.61540347124355 15.458408776226861,110.79435787584498 15.366386196612439,111.18602455870041 15.386516135906277,111.33964977434789 15.442592395353131,111.4831444989668 15.157897539676924,111.7211740364437 14.85882415593369,112.0436054645752 14.581318564276444,112.29006691437735 14.168654808818246,112.88763548791667 13.934284801362082,113.27925003283235 13.865267866654904,113.35858455017751 13.655341356912686,113.51050059417685 13.584886569398805,113.62021682448267 13.603578655878664,113.66410310230367 13.753115347746643,113.71811681458439 14.066567259556905,113.73162021367898 14.092448610077554,113.75356321246727 14.098200021297089,113.88859637734367 14.11976781339763,113.91053915713564 14.341197145593469,114.00337365600444 14.500798807115643,113.99324628275372 14.686281819143915,113.85483819480669 15.167962509323843,113.59658570108877 15.153583981256816,113.56451483397541 14.906273298540327,113.52062827827012 14.88326765364036,113.44804639815902 14.916338268187246,113.33664100031001 15.140643305996491,113.35689658588672 15.189530301417108,113.1475876102013 15.2254766215774,113.13239572127532 15.341942698905768,113.14421163615134 15.373575460645952,113.171219408252 15.339066993292363,113.4345427556018 15.359196932578925,113.48180545383093 15.917083821484994,113.3011936627745 16.184524443502596,113.28600192222984 16.73234636276902,113.20160309641687 17.091809564386494,113.35352065677307 17.28160613484215,113.40247155805628 17.455586324424075,113.41597522815209 18.032165299824555,113.58308218606362 18.65475556502497,113.90378753584355 18.93657471509505,113.9628641238769 19.17238257535064,114.05401042443737 19.685696027263475,114.08776817950456 19.7791564596846,114.01856470364692 19.807913515818655,113.90885125208206 19.89130897859286,113.83964698902855 20.39599531366548,113.6151530153129 20.427628075405664,113.628656502804 20.252210033017036,113.27925003283235 20.14293321972218,113.20329107737598 20.01640217275417,113.18641125967497 20.020715731174278,112.94502788453156 20.058099904141272,112.89776357312985 22.630418574932264,112.18371758451394 22.916551283415174,112.14826764805275 23.20124613909138,112.1516438359231 26.110022366592602,112.39135132172396 26.463734156983264,112.39472745739567 26.966982639256457,112.32382845598113 27.591010757263575,112.12969860181784 27.944722547661513,112.06048650902994 30.890882948122453,111.85791277937733 31.266162530613656,111.7819469578917 31.627063585045107,111.64351940608049 31.93620193843526,111.46288649959388 32.2395888805986,111.20965930496732 32.817605708805786,110.54280817911604 33.299286398963886,110.05995654262642 33.70619874320255,109.58553192200543 34.01677494940668,109.12966559272536 34.376238151024154,108.31920391127642 34.51714772605919,108.12671311928352 34.734263499834924,107.96799086787814 35.8442858664348,107.30437940904812 36.05421237617702,107.10681027780993 36.14911066140485,106.9480777228755 36.209500479279086,106.7657021692221 36.33315582064097,106.2844231813142 36.42661625305482,105.7423334004825 36.4970710405687,105.47550352238159 36.72281393119192,104.85738651796237 37.03339013738878,104.18688783349808 37.283576525711396,103.8034915894641 37.71924592607684,103.32887798544925 37.95649163914641,103.01133489478707 38.12472041750152,102.68196160530442 38.3677175417979,101.99109979571404 38.422355948452605,102.00292409220583 38.441048034932464,102.05866708425583 38.489935030345805,102.04008610889741 38.5,102.08569391823585 38.43817232931906,102.05866708425583 38.422355948452605,101.97758630310727 38.34471189689066,101.96914036432008 38.06433059963456,102.73432397482611 37.99100010650727,102.87114095470588 37.94355096388608,102.89309912438694 37.441740334434144,102.67351604548185 36.4970710405687,102.40832315571333 36.13616998614452,102.3441356682506 34.39780594311742,102.2681238305122 32.33448716582643,102.0840047424781 30.680956438380235,102.07555886094451 29.86569389711076,101.9471809022034 28.34732133347279,101.5637299580967 27.78080732771923,101.45392950440146 27.303440195966687,101.41676609993465 26.229364149534376,101.4640649630719 25.97198849717097,101.43703705873122 25.381030993718014,101.25797601691465 24.36446905953926,101.01134142597402 24.220683778890816,100.93532313368542 24.13728831611661,100.85761516543789 24.051017147721723,100.72415927867769 23.889977633392846,99.98928691375386 23.665672595590877,99.55510476905692 23.593779955263017,99.46049539239539 23.431302588134713,99.37602225260252 23.20268399190536,99.32533815043189 23.1307913515775,99.22396945490709 23.054585152836808,99.2003166650511 22.917989136221877,99.26789597004063 22.8504100543214,99.21214306443744 22.758387474699703,99.23917480098135 22.640483544571907,99.36419597673739 22.383107892215776,99.39798531269571 22.032271807431243,99.40643263531456 21.805091064008593,99.34223286934593 21.593726701459673,99.16990588283625 21.416870806264342,98.64615538412272 21.234263499834924,98.35724036821193 21.0200234316726,98.23052157732764 20.53690488870052,98.09028492220477 20.2464586217975,97.97877054260061 20.201885184789717,97.96863283242146 20.165938864629425,97.99059786286489 20.114176163595403,97.95680549559529 19.945947385240288,97.93146117236029 19.530407924168685,97.78108401226655 19.030035147516173,97.73208440151302 18.884812014061026,97.68984323490895 18.833049313027004,97.6982914773298 18.77984875918628,97.66111917664057 18.56848439663736,97.66280882858428 17.192459260833857,97.43470417007939 15.02992863990221,96.59660227268523 14.854510597513581,96.57801482780178 13.317445947388478,96.55435804790704 12.650282245187555,96.56956598193665 12.379965917563823,96.54928873328481 12.190169347108167,96.48169771510493 12.056449036106642,96.4022778965018 11.5,95.91223182049544" stroke="red" stroke-dasharray="none" stroke-linecap="round" stroke-linejoin="round" stroke-width="0.5"><title>2026-06-06 62.1km</title><desc>1780699923000</desc></polyline><polyline fill="none" opacity="1" points="48.488938053138554,117.61936885246541 45.50221238937229,115.08851246407721 42.455752212321386,110.51888565777335 41.5,103.84014245477738 43.53097345144488,97.93467016308568 46.63716814178042,94.48978651227662 49.50442477897741,92.73218576877844 55.238938053138554,91.5370145443012 58.70353982318193,92.02914413856342 64.13938053115271,94.7710021896637 68.5,102.22317324049072 67.72345132776536,110.72979221848072 61.570796460378915,118.4629854556988" stroke="#4dd2ff" stroke-dasharray="none" stroke-linecap="round" stroke-linejoin="round" stroke-width="0.5"><title>2026-06-05 14.5km</title><desc>1780659860000</desc></polyline><polyline fill="none" opacity="0.5" points="79.75915974238887,99.76300308457576 75.30938971228898,108.25870056054555 75.11162215517834,118.5 75.30938971228898,108.25870056054555 79.75915974238887,99.76300308457576 88.65869980212301,93.24571017175913 94.888377844356,91.5 88.65869980212301,93.24571017175913 79.75915974238887,99.76300308457576 75.30938971228898,108.25870056054555 75.11162215517834,118.5 75.30938971228898,108.25870056054555 79.75915974238887,99.76300308457576 88.65869980212301,93.24571017175913 94.888377844356,91.5 88.65869980212301,93.24571017175913 79.75915974238887,99.76300308457576 75.30938971228898,108.25870056054555 75.11162215517834,118.5 75.30938971228898,108.25870056054555 79.75915974238887,99.76300308457576 88.65869980212301,93.24571017175913 94.888377844356,91.5 88.65869980212301,93.24571017175913 79.75915974238887,99.76300308457576 75.30938971228898,108.25870056054555 75.11162215517834,118.5 75.30938971228898,108.25870056054555 79.75915974238887,99.76300308457576 88.65869980212301,93.24571017175913 94.888377844356,91.5 88.65869980212301,93.24571017175913 79.75915974238887,99.76300308457576 75.30938971228898,108.25870056054555 75.11162215517834,118.5 75.30938971228898,108.25870056054555 79.75915974238887,99.76300308457576 88.65869980212301,93.24571017175913 94.888377844356,91.5 88.65869980212301,93.24571017175913 79.75915974238887,99.76300308457576 75.30938971228898,108.25870056054555 75.11162215517834,118.5 75.30938971228898,108.25870056054555 79.75915974238887,99.76300308457576 88.65869980212301,93.24571017175913 94.888377844356,91.5 88.65869980212301,93.24571017175913 79.75915974238887,99.76300308457576 75.30938971228898,108.25870056054555 75.11162215517834,118.5 75.30938971228898,108.25870056054555 79.75915974238887,99.76300308457576 88.65869980212301,93.24571017175913 94.888377844356,91.5 88.65869980212301,93.24571017175913 79.75915974238887,99.76300308457576 75.30938971228898,108.25870056054555 75.11162215517834,118.5 75.30938971228898,108.25870056054555 79.75915974238887,99.76300308457576 88.65869980212301,93.24571017175913 94.888377844356,91.5 88.65869980212301,93.24571017175913 79.75915974238887,99.76300308457576 75.30938971228898,108.25870056054555 75.11162215517834,118.5 75.30938971228898,108.25870056054555 79.75915974238887,99.76300308457576 88.65869980212301,93.24571017175913 94.888377844356,91.5 88.65869980212301,93.24571017175913 79.75915974238887,99.76300308457576 75.30938971228898,108.25870056054555 75.11162215517834,118.5 75.30938971228898,108.25870056054555 79.75915974238887,99.76300308457576 88.65869980212301,93.24571017175913 94.888377844356,91.5 88.65869980212301,93.24571017175913 79.75915974238887,99.76300308457576 75.30938971228898,108.25870056054555 75.11162215517834,118.5 75.30938971228898,108.25870056054555 79.75915974238887,99.76300308457576 88.65869980212301,93.24571017175913 94.888377844356,91.5 88.65869980212301,93.24571017175913 79.75915974238887,99.76300308457576 75.30938971228898,108.25870056054555 75.11162215517834,118.5 75.30938971228898,108.25870056054555 79.75915974238887,99.76300308457576 88.65869980212301,93.24571017175913 94.888377844356,91.5 88.65869980212301,93.24571017175913 79.75915974238887,99.76300308457576 75.30938971228898,108.25870056054555 75.11162215517834,118.5 75.30938971228898,108.25870056054555 79.75915974238887,99.76300308457576 88.65869980212301,93.24571017175913 94.888377844356,91.5 88.65869980212301,93.24571017175913 79.75915974238887,99.76300308457576 75.30938971228898,108.25870056054555 75.11162215517834,118.5 75.30938971228898,108.25870056054555 79.75915974238887,99.76300308457576 88.65869980212301,93.24571017175913 94.888377844356,91.5 88.65869980212301,93.24571017175913 79.75915974238887,99.76300308457576 75.30938971228898,108.25870056054555 75.11162215517834,118.5 75.30938971228898,108.25870056054555 79.75915974238887,99.76300308457576 88.65869980212301,93.24571017175913 94.888377844356,91.5 88.65869980212301,93.24571017175913 79.75915974238887,99.76300308457576 75.30938971228898,108.25870056054555 75.11162215517834,118.5 75.30938971228898,108.25870056054555 79.75915974238887,99.76300308457576 88.65869980212301,93.24571017175913 94.888377844356,91.5 88.65869980212301,93.24571017175913 79.75915974238887,99.76300308457576 75.30938971228898,108.25870056054555 75.11162215517834,118.5 75.30938971228898,108.25870056054555 79.75915974238887,99.76300308457576 88.65869980212301,93.24571017175913 94.888377844356,91.5 88.65869980212301,93.24571017175913 79.75915974238887,99.76300308457576 75.30938971228898,108.25870056054555 75.11162215517834,118.5 75.30938971228898,108.25870056054555 79.75915974238887,99.76300308457576 88.65869980212301,93.24571017175913 94.888377844356,91.5 88.65869980212301,93.24571017175913 79.75915974238887,99.76300308457576 75.30938971228898,108.25870056054555 75.11162215517834,118.5 75.30938971228898,108.25870056054555 79.75915974238887,99.76300308457576 88.65869980212301,93.24571017175913 94.888377844356,91.5 88.65869980212301,93.24571017175913 79.75915974238887,99.76300308457576 75.30938971228898,108.25870056054555 75.11162215517834,118.5 75.30938971228898,108.25870056054555 79.75915974238887,99.76300308457576 88.65869980212301,93.24571017175913 94.888377844356,91.5 88.65869980212301,93.24571017175913 79.75915974238887,99.76300308457576 75.30938971228898,108.25870056054555 75.11162215517834,118.5 75.30938971228898,108.25870056054555 79.75915974238887,99.76300308457576 88.65869980212301,93.24571017175913 94.888377844356,91.5 88.65869980212301,93.24571017175913 79.75915974238887,99.76300308457576 75.30938971228898,108.25870056054555 75.11162215517834,118.5 75.30938971228898,108.25870056054555 79.75915974238887,99.76300308457576 88.65869980212301,93.24571017175913 94.888377844356,91.5 88.65869980212301,93.24571017175913 79.75915974238887,99.76300308457576 75.30938971228898,108.25870056054555 75.11162215517834,118.5 75.30938971228898,108.25870056054555 79.75915974238887,99.76300308457576 88.65869980212301,93.24571017175913 94.888377844356,91.5 88.65869980212301,93.24571017175913 79.75915974238887,99.76300308457576 75.30938971228898,108.25870056054555 75.11162215517834,118.5 75.30938971228898,108.25870056054555 79.75915974238887,99.76300308457576 88.65869980212301,93.24571017175913 94.888377844356,91.5 88.65869980212301,93.24571017175913 79.75915974238887,99.76300308457576 75.30938971228898,108.25870056054555 75.11162215517834,118.5 75.30938971228898,108.25870056054555 79.75915974238887,99.76300308457576 88.65869980212301,93.24571017175913 94.888377844356,91.5 88.65869980212301,93.24571017175913 79.75915974238887,99.76300308457576 75.30938971228898,108.25870056054555 75.11162215517834,118.5 75.30938971228898,108.25870056054555 79.75915974238887,99.76300308457576 88.65869980212301,93.24571017175913 94.888377844356,91.5 88.65869980212301,93.24571017175913" stroke="#4dd2ff" stroke-dasharray="1,0.5" stroke-linecap="round" stroke-linejoin="round" stroke-width="0.5"><title>2026-06-04 19.5km</title><desc>1780570902000</desc></polyline><polyline fill="none" opacity="0.5" points="121.80207513598725,93.62696315604262 124.86426394223236,97.11280150373932 126.16945917136036,100.12596585322171 126.01885972172022,106.09316377597861 123.91046742885374,110.16972680547042 120.59727953979746,113.1828190293163 124.11126669473015,109.93340514291776 120.54707972356118,113.24189910257701 120.24588082451373,118.08644333877601 110.65771587286144,118.5 109.9047186251264,113.77361947420286 105.23613569070585,109.10627851757454 103.83054082840681,105.20695039018756 103.93094046134502,100.00780285883229 106.18993220408447,95.69483605015557 110.70791568909772,92.38623565633316 113.87050412874669,91.5 116.88249311875552,91.67724724649452 121.80207513598725,93.62696315604262 124.86426394223236,97.11280150373932 126.16945917136036,100.12596585322171 126.01885972172022,106.09316377597861 123.91046742885374,110.16972680547042 120.59727953979746,113.1828190293163 124.11126669473015,109.93340514291776 120.54707972356118,113.24189910257701 120.24588082451373,118.08644333877601 110.65771587286144,118.5 109.9047186251264,113.77361947420286 105.23613569070585,109.10627851757454 103.83054082840681,105.20695039018756 103.93094046134502,100.00780285883229 106.18993220408447,95.69483605015557 110.70791568909772,92.38623565633316 113.87050412874669,91.5 116.88249311875552,91.67724724649452 121.80207513598725,93.62696315604262 124.86426394223236,97.11280150373932 126.16945917136036,100.12596585322171 126.01885972172022,106.09316377597861 123.91046742885374,110.16972680547042 120.59727953979746,113.1828190293163 124.11126669473015,109.93340514291776 120.54707972356118,113.24189910257701 120.24588082451373,118.08644333877601 110.65771587286144,118.5 109.9047186251264,113.77361947420286 105.23613569070585,109.10627851757454 103.83054082840681,105.20695039018756 103.93094046134502,100.00780285883229 106.18993220408447,95.69483605015557 110.70791568909772,92.38623565633316 113.87050412874669,91.5 116.88249311875552,91.67724724649452 121.80207513598725,93.62696315604262 124.86426394223236,97.11280150373932 126.16945917136036,100.12596585322171 126.01885972172022,106.09316377597861 123.91046742885374,110.16972680547042 120.59727953979746,113.1828190293163 124.11126669473015,109.93340514291776 120.54707972356118,113.24189910257701 120.24588082451373,118.08644333877601 110.65771587286144,118.5 109.9047186251264,113.77361947420286 105.23613569070585,109.10627851757454 103.83054082840681,105.20695039018756 103.93094046134502,100.00780285883229 106.18993220408447,95.69483605015557 110.70791568909772,92.38623565633316 113.87050412874669,91.5 116.88249311875552,91.67724724649452 121.80207513598725,93.62696315604262 124.86426394223236,97.11280150373932 126.16945917136036,100.12596585322171 126.01885972172022,106.09316377597861 123.91046742885374,110.16972680547042 120.59727953979746,113.1828190293163 124.11126669473015,109.93340514291776 120.54707972356118,113.24189910257701 120.24588082451373,118.08644333877601 110.65771587286144,118.5 109.9047186251264,113.77361947420286 105.23613569070585,109.10627851757454 103.83054082840681,105.20695039018756 103.93094046134502,100.00780285883229 106.18993220408447,95.69483605015557 110.70791568909772,92.38623565633316 113.87050412874669,91.5 116.88249311875552,91.67724724649452 121.80207513598725,93.62696315604262 124.86426394223236,97.11280150373932 126.16945917136036,100.12596585322171 126.01885972172022,106.09316377597861 123.91046742885374,110.16972680547042 120.59727953979746,113.1828190293163 124.11126669473015,109.93340514291776 120.54707972356118,113.24189910257701 120.24588082451373,118.08644333877601 110.65771587286144,118.5 109.9047186251264,113.77361947420286 105.23613569070585,109.10627851757454 103.83054082840681,105.20695039018756 103.93094046134502,100.00780285883229 106.18993220408447,95.69483605015557 110.70791568909772,92.38623565633316 113.87050412874669,91.5 116.88249311875552,91.67724724649452 121.80207513598725,93.62696315604262 124.86426394223236,97.11280150373932 126.16945917136036,100.12596585322171 126.01885972172022,106.09316377597861 123.91046742885374,110.16972680547042 120.59727953979746,113.1828190293163 124.11126669473015,109.93340514291776 120.54707972356118,113.24189910257701 120.24588082451373,118.08644333877601 110.65771587286144,118.5 109.9047186251264,113.77361947420286 105.23613569070585,109.10627851757454 103.83054082840681,105.20695039018756 103.93094046134502,100.00780285883229 106.18993220408447,95.69483605015557 110.70791568909772,92.38623565633316 113.87050412874669,91.5 116.88249311875552,91.67724724649452 121.80207513598725,93.62696315604262 124.86426394223236,97.11280150373932 126.16945917136036,100.12596585322171 126.01885972172022,106.09316377597861 123.91046742885374,110.16972680547042 120.59727953979746,113.1828190293163 124.11126669473015,109.93340514291776 120.54707972356118,113.24189910257701 120.24588082451373,118.08644333877601 110.65771587286144,118.5 109.9047186251264,113.77361947420286 105.23613569070585,109.10627851757454 103.83054082840681,105.20695039018756 103.93094046134502,100.00780285883229 106.18993220408447,95.69483605015557 110.70791568909772,92.38623565633316 113.87050412874669,91.5 116.88249311875552,91.67724724649452 121.80207513598725,93.62696315604262 124.86426394223236,97.11280150373932 126.16945917136036,100.12596585322171 126.01885972172022,106.09316377597861 123.91046742885374,110.16972680547042 120.59727953979746,113.1828190293163 124.11126669473015,109.93340514291776 120.54707972356118,113.24189910257701 120.24588082451373,118.08644333877601 110.65771587286144,118.5 109.9047186251264,113.77361947420286" stroke="#4dd2ff" stroke-dasharray="1,0.5" stroke-linecap="round" stroke-linejoin="round" stroke-width="0.5"><title>2026-06-02 16.9km</title><desc>1780401150000</desc></polyline><polyline fill="none" opacity="0.5" points="154.73046859481838,107.60391071205959 157.01104717166163,107.90808058834227 157.2543088864768,108.1764653082937 157.54318217292894,117.12237321412249 157.36073588678846,117.64122101406974 153.71181016374612,118.32108807926124 148.54249872278888,118.4821088166791 145.4561157153803,118.26741446528467 139.1313111288473,117.33706905305735 133.12578754295828,117.408634270716 132.62406025605742,117.1581558733451 132.45681782707106,108.73112568142824 133.23221454321174,108.5164186610782 145.41050414391793,108.15857300722564 148.92259515234036,106.29776311405294 148.74014886614168,98.4069806184707 147.2349670053809,96.72499639309535 146.79405514721293,94.47039493142802 147.72149043512763,92.53785490211158 148.9530028666486,91.69683505149442 149.83482658310095,91.5 151.02072744298493,91.57157640949299 152.20662830304354,92.03682231523271 152.73876330436906,92.4483849087701 153.51416002045153,93.84411128693318 153.696606306592,95.311400662089 153.40773302013986,96.43869950031512 151.88734730222495,98.29962043486012 152.06979358842364,106.08305293168814 154.70006088039372,107.56812598396209 157.29992045811377,108.12278839915234 157.5127744586207,117.21182984759798 157.29992045811377,117.71278610000445 154.2287413078593,118.28530567191774 149.57636101101525,118.5 145.18244628619868,118.24952325675986 139.16171884321375,117.37285166572838 132.6696718276362,117.33706905305735 139.16171884321375,117.37285166572838 145.18244628619868,118.24952325675986 149.57636101101525,118.5 154.2287413078593,118.28530567191774 157.29992045811377,117.71278610000445 157.5127744586207,117.21182984759798 157.29992045811377,108.12278839915234 154.70006088039372,107.56812598396209 152.06979358842364,106.08305293168814 151.88734730222495,98.29962043486012 153.40773302013986,96.43869950031512 153.696606306592,95.311400662089 153.51416002045153,93.84411128693318 152.73876330436906,92.4483849087701 152.20662830304354,92.03682231523271 151.02072744298493,91.57157640949299 149.83482658310095,91.5 148.9530028666486,91.69683505149442 147.72149043512763,92.53785490211158 146.79405514721293,94.47039493142802 147.2349670053809,96.72499639309535 148.74014886614168,98.4069806184707 148.92259515234036,106.29776311405294 145.41050414391793,108.15857300722564 133.23221454321174,108.5164186610782 132.45681782707106,108.73112568142824" stroke="#4dd2ff" stroke-dasharray="1,0.5" stroke-linecap="round" stroke-linejoin="round" stroke-width="0.5"><title>2026-05-28 19.4km</title><desc>1779966212000</desc></polyline><polyline fill="none" opacity="1" points="184.73692063306225,107.61458882549778 187.01901140640257,107.91896038946288 187.2624344221549,108.18752306883107 187.55149925348815,117.13936278967594 187.36893199163023,117.65855462505715 183.71758675423916,118.33887249363761 178.54484766797395,118.5 175.456418154703,118.28516328998376 169.12741974333767,117.35420098822215 163.11791404010728,117.42581365905062 162.61585406993981,117.17516917551984 162.44850074657006,108.74255122384056 163.2244116095244,108.52770183645771 175.41077633929672,108.1696189038048 178.92519613023615,106.30757515263394 178.74262886837823,98.41156047015102 177.23644895793404,96.72846096173453 176.79524474177742,94.47236452841025 177.72329498961335,92.53854307856818 178.95562400721246,91.6969655680441 179.8380324395839,91.5 181.02471964166034,91.57162387006974 182.21140684385318,92.03717826910724 182.74389469099697,92.44901375983318 183.5198055539513,93.84566561039537" stroke="#ffe200" stroke-dasharray="none" stroke-linecap="round" stroke-linejoin="round" stroke-width="0.5"><title>2026-05-27 20.2km</title><desc>1779879632000</desc></polyline><polyline fill="none" opacity="0.5" points="29.052549605548847,132.5643853978545 29.994655233458616,134.65756287002296 33.194823556696065,138.7558912151726 34.15188324212795,141.3063009618636 34.63041308481479,144.1380884071841 27.138430234685075,147.19847409968497 24.581286387634464,148.5 22.562488613591995,145.70346528981463 19.392228405515198,142.69581772851234 17.747282071155496,140.74345535122848 16.565911521960516,138.57999941456364 15.728484297171235,136.18785205177846 15.324724742386024,132.86341239951435 15.534081548568793,130.4887710653129 16.192060082394164,127.55120383504254 17.373430631589144,125.21166624678881 18.345444374601357,124.06827097707719 20.678277357888874,122.3619584779808 23.399915838439483,121.5 26.226232721935958,121.55277309930534 28.30484672629973,122.8017314523313 29.0824577207095,123.76922781179019 29.471263217914384,124.73671841810574 29.62080379377585,126.23191985757148 28.84319279936608,130.06660897789698 29.0824577207095,132.77546333838836 30.02456334856106,134.69274209321884 31.69941779813962,136.6627664580883 33.135007326258346,138.8438370442018 34.03225078136893,140.93693374945724 34.67527525755577,143.9797910302732 24.506516099674627,148.41205938864732 22.457810210471507,145.59793473726313 18.450122777663637,141.62290076234785 16.326646600675303,138.06991211762943 15.57894372130977,135.30837726914615 15.354632857546676,132.42366661869164 16.01261139131384,128.06132410521968 17.014533249486703,125.73938443041698 18.494984950404614,123.94513562263455 20.55864489718806,122.44991316793312 22.891477880533785,121.60554618145397 25.972013743012212,121.5 27.916041229094844,122.44991316793312 29.261906411731616,124.2089969823719 29.62080379377585,126.31987245555501 28.828238741727546,130.13696940189402 29.62080379377585,126.31987245555501 29.261906411731616,124.2089969823719 27.916041229094844,122.44991316793312 25.972013743012212,121.5 22.891477880533785,121.60554618145397 20.55864489718806,122.44991316793312 18.494984950404614,123.94513562263455 17.014533249486703,125.73938443041698 16.01261139131384,128.06132410521968 15.354632857546676,132.42366661869164 15.57894372130977,135.30837726914615 16.326646600675303,138.06991211762943 18.450122777663637,141.62290076234785 22.457810210471507,145.59793473726313 24.506516099674627,148.41205938864732 34.67527525755577,143.9797910302732 34.03225078136893,140.93693374945724 33.135007326258346,138.8438370442018 31.69941779813962,136.6627664580883 30.02456334856106,134.69274209321884" stroke="#4dd2ff" stroke-dasharray="1,0.5" stroke-linecap="round" stroke-linejoin="round" stroke-width="0.5"><title>2026-05-26 19.0km</title><desc>1779792854000</desc></polyline><polyline fill="none" opacity="1" points="59.05254960554885,132.5643853978545 59.994655233458616,134.65756287002296 63.194823556696065,138.7558912151726 64.15188324212795,141.3063009618636 64.63041308481479,144.1380884071841 57.138430234685075,147.19847409968497 54.581286387634464,148.5 52.562488613591995,145.70346528981463 49.3922284055152,142.69581772851234 47.747282071155496,140.74345535122848 46.565911521960516,138.57999941456364 45.728484297171235,136.18785205177846 45.324724742386024,132.86341239951435 45.53408154856879,130.4887710653129 46.192060082394164,127.55120383504254 47.373430631589144,125.21166624678881 48.34544437460136,124.06827097707719 50.678277357888874,122.3619584779808 53.39991583843948,121.5 56.22623272193596,121.55277309930534 58.30484672629973,122.8017314523313 59.0824577207095,123.76922781179019 59.471263217914384,124.73671841810574 59.62080379377585,126.23191985757148 58.84319279936608,130.06660897789698 59.0824577207095,132.77546333838836 60.02456334856106,134.69274209321884 61.69941779813962,136.6627664580883 63.135007326258346,138.8438370442018 64.03225078136893,140.93693374945724 64.67527525755577,143.9797910302732" stroke="#ffda00" stroke-dasharray="none" stroke-linecap="round" stroke-linejoin="round" stroke-width="0.5"><title>2026-05-24 23.2km</title><desc>1779623970000</desc></polyline><polyline fill="none" opacity="1" points="71.5,144.05919829096274 72.20439096087648,144.05628638304552 77.17233143486374,144.4639504499064 77.958570641189,144.4639504499064 78.79441484475683,144.32126872345907 79.77411354031938,144.01260772676687 80.36193275767437,143.89321904069038 85.57541796803707,143.52340197066042 86.13347418703779,143.39818717433445 86.82298364871531,143.1128117574608 87.26694837406103,142.83616945636277 87.78780084512255,142.39062381815165 88.69557229468774,141.33642786420205 89.54133749770699,140.48313980163766 90.4019841998961,139.48420532229284 90.81370567702106,138.84929488984926 91.4015248943615,137.51535205582513 91.6669116296107,137.13379738140793 91.96702186294715,136.89495889771933 93.94378100312315,135.7182117365137 94.33814073121175,135.35119598110214 94.47703472348803,135.1181675248663 94.58864596730564,134.80357593040935 94.84163145323691,133.81317113742261 95.00284769428254,132.8722530522773 95.1094984383526,132.49354614864205 95.37736542346829,131.75359584537546 95.880856145508,130.68733269823133 95.87341539592308,130.63197909383052 96.22065037662105,129.97646728246582 96.43147161490924,129.6763832488141 97.25739481902565,128.77319764854656 97.59470880028675,128.3215935533135 97.92458203196293,127.65728481071528 98.3115010104666,126.55006735728057 98.3487047584058,126.52384323716433 98.5,126.58503281123922 98.34126400882087,126.42477410977335 98.27181701267546,126.48013631388494 97.78320778982015,127.84667273570813 97.68895829505345,127.8175362180773 97.59470880028675,127.64563012591316 97.74600404188095,127.89911838845546 97.64927429726231,128.07393649740698 97.59470880028675,128.09433186994102 96.69685835017299,127.69516250167362 95.04501194194017,127.23188556576315 94.45967297446623,127.13281902882409 91.45112989160407,127.00461473713221 88.13007532611664,126.69867022481594 85.74159470880113,126.69867022481594 84.83630350910244,126.64913602625711 83.79211831711291,126.48013631388494 80.90758772735717,125.76333270548821 80.11142752159503,125.61181081388895 79.11684732684807,125.5360495500936" stroke="red" stroke-dasharray="none" stroke-linecap="round" stroke-linejoin="round" stroke-width="0.5"><title>2026-05-23 52.6km</title><desc>1779516240000</desc></polyline><polyline fill="none" opacity="1" points="117.79565721692052,122.62657833528647 118.72247835953021,121.8934091811825 119.71007465897128,121.51788225583732 121.22945358121069,121.58941125984711 122.90077039564494,122.519285491755 123.7820101705147,124.27172653799062 123.66045985679375,126.09567603375763 123.06790207716404,127.22222300864814 122.17146851302823,127.99113160936395 121.97394925309345,128.61698480357882 122.15627472382039,135.93035058034002 122.35379398363875,136.28796407154005 125.25580772513058,137.75417128806293 127.3677444269997,138.1117808293493 127.5044885299867,147.55239263481053 125.07348225446185,148.17817169321643 119.36061750684166,148.5 115.25829441682436,148.23180978793243 109.08961599256145,147.31995980915963 103.05768167140195,147.40935708850157 102.78419346536975,147.17692406159767 102.4955114700715,140.632906119572 102.6626431515906,138.61243288610422 115.12155031383736,138.2369439858303 116.53457271150546,137.8435737459513 119.01116035477025,136.27008341533656 118.79844730562763,128.42028834101802 117.32464975106996,126.79306316272414 116.89922365284292,124.55783759537735 117.339843540336,123.23456979829643 118.31224605056923,122.16164217627374 119.29984234995209,121.64305799250724 120.3026324386592,121.5 122.41456914058654,122.14375999012555 123.63007227837807,123.71738495325553 123.70604122447548,125.91685834669624 123.15906481235288,127.0434065417212" stroke="#ffdd00" stroke-dasharray="none" stroke-linecap="round" stroke-linejoin="round" stroke-width="0.5"><title>2026-05-17 22.3km</title><desc>1779013233000</desc></polyline><polyline fill="none" opacity="1" points="131.52360655739903,126.97788803233561 131.5826229508093,127.24834009572078 132.73934426231426,128.89876653337706 136.09147540983395,129.5506039786851 137.11836065573152,130.403530245625 137.32491803276935,131.19403718732792 137.9327868852415,132.64327471431898 138.06852459016955,133.6001696573294 138.87114754098002,136.99772526414017 138.91245901637012,137.61481307353097 139.502622950793,140.62389815390634 139.95114754099632,141.40041342582845 140.3878688524419,141.6708049398585 142.27049180329777,142.32251315645408 144.25344262295403,143.59124535183219 146.17147540982114,143.7021715693336 146.95049180326168,144.31226235244685 147.5642622950836,144.37465767512913 148.55573770491173,144.8391542895115 152.03180327865994,145.25511856516096 152.25016393439728,145.08873317707912 152.36819672130514,144.8114232423177 152.76360655738972,143.4387214909293 152.97016393442755,141.66387183829647 152.91114754095906,141.41427968491917 152.5688524590223,141.17855287451675 152.54524590165238,141.06762231238827 152.77540983606013,140.43670110799576 152.94065573767875,140.2495035181928 152.9465573770285,139.2372404617563 153.38918032785296,137.9060209980671 154.18590163931367,136.86598665152997 155.83836065573269,135.784333118856 157.04819672132726,134.716529124089 157.81540983606828,133.26733824605617 158.092786885245,133.06625176832313 158.5,133.21186617697822 158.1222950819647,133.0593177406481 157.797704918019,133.2812062558587 157.1544262295065,134.5570503848212 156.44622950820485,135.2434995415315 153.04098360656644,131.4506031441997 150.17868852461106,130.88199613260076 149.95442622949486,130.6115593288996 149.907213114755,129.5575383841351 149.3878688524419,129.45352222413203 144.0468852458871,129.5644727888357 143.1498360655387,128.88489757986827 141.95180327870185,128.51736922385317 141.57409836063744,128.08049316642428 141.0606557377032,126.72823896561749 140.8777049180353,125.35515179731738 139.44360655738274,124.7795560422237 139.0718032786972,124.74488143483904 137.69081967210514,124.95292879914632 135.15311475409544,125.53545784296875 132.2022950819519,125.16097549121332 132.019344262284,125.39676092959417 131.5,127.07497351911297 132.71573770491523,128.90570100900368 136.1268852459034,129.5783415959595 137.106557377032,130.38272730034805 137.28360655737924,131.09002367039648 137.93868852456217,132.72648353455588 138.02721311475034,133.48922604465042 138.84754098358098,136.8798538865958 139.47901639342308,140.56149919905874 139.59704918033094,140.91509247759677 140.0101639344066,141.4350790679673 140.4173770491907,141.66387183829647 142.2527868852485,142.32944618715555 144.25934426230378,143.57737956119672 144.63704918031,143.66057426012412 146.18327868852066,143.68830580259964 146.9622950819612,144.31919516905327 147.42262295080582,144.3261279849321 148.67967213114025,144.8807508378959" stroke="#ffb800" stroke-dasharray="none" stroke-linecap="round" stroke-linejoin="round" stroke-width="0.5"><title>2026-05-16 35.3km</title><desc>1778887035000</desc></polyline><polyline fill="none" opacity="0.5" points="169.3401349009946,122.80266219680198 172.71089900447987,121.61842396418797 176.33321266784333,121.5 182.21947237080894,123.86847441276768 186.04302568221465,129.9080377164064 186.19395541842096,135.1777982438798 184.53372832247987,139.3817280799267 180.50893536303192,143.52641598810442 180.10645606718026,148.20395459898282 170.59788270061836,148.44079093256732 169.49106463696808,143.40799676964525 165.56689150165766,139.61856823548442 163.50418511009775,134.289639916562 164.00728423008695,129.493560014409 166.37185009359382,125.28955413453514 171.85563050047494,121.85527181596262 178.69777853158303,121.9736957034911 181.96792281093076,123.69083918770775 184.08093911455944,125.88166959478986 186.49581488990225,132.0988432065933 185.087137354305,138.37515627412358 180.60955518716946,143.2895775255747 180.00583624327555,148.02632728155004 170.59788270061836,148.3815818587318 169.59168446087278,143.70404476759722 165.6675113257952,139.7369882746134 163.70542475767434,135.1777982438798 163.9066644059494,129.96724879107205 165.96937079750933,125.58561194490176 170.6985025247559,122.26975530968048 176.735691963695,121.5592119852663 182.4207120188512,124.10532128962222 184.73496797052212,127.0066872027237 186.29457524232566,130.79620316252112 186.04302568221465,136.00674471416278 184.23186885053292,139.67777825822122 180.55924527533352,143.82246392196976 180.15676597948186,148.08553639391903 170.8494322609622,148.5 169.79292410891503,143.88167348958086 165.81844106153585,139.67777825822122 163.60480493400246,134.289639916562 164.40976352570578,128.30933627695777 167.27742850943469,124.28295637993142 173.31461794814095,121.5 178.79839835548773,121.9736957034911 182.62195166689344,124.28295637993142 186.29457524232566,130.55935918481555 186.1436455063522,135.41464022081345 183.93000937858596,140.09224823868135 180.55924527533352,143.40799676964525 180.35800562705845,147.9671181628364 170.74881243659183,148.5 169.39044481283054,143.2895775255747 166.27123026945628,140.44750797189772 163.95697431778535,136.24358633183874 163.50418511009775,131.50673448044108" stroke="#4dd2ff" stroke-dasharray="1,0.5" stroke-linecap="round" stroke-linejoin="round" stroke-width="0.5"><title>2026-05-12 15.2km</title><desc>1778590468000</desc></polyline><polyline fill="none" opacity="1" points="19.327695944113657,152.8055251199985 22.705868137301877,151.6186842302559 26.33614273299463,151.5 32.235338950995356,153.87367972254287 36.067295468878,159.92651646386366 36.21855691052042,165.20785859663738 34.55468105408363,169.42102761077695 30.521042614243925,173.57482449815143 30.117678770329803,178.262643159891 20.588207956403494,178.5 19.478957385523245,173.45614502415992 15.546159907011315,169.65838828129927 13.478920206660405,164.31774832122028 13.983125011669472,159.51112784439465 16.352887594839558,155.2978826192557 21.84871996892616,151.85605261387536 28.70590531663038,151.97473676723894 31.983236548723653,153.69565410003997 34.100896729389206,155.89129940012936 36.521079793339595,162.12213679228444 35.10930633940734,168.41224361385684 30.62188357533887,173.33746552444063 30.016837809467688,178.08462546236115 20.588207956403494,178.44066079956247 19.57979834638536,173.75284366094274 15.64700086787343,169.77706857782323 13.680602128384635,165.20785859663738 13.882284050574526,159.98585766955512 15.949523750692606,155.5945910901064 20.68904891749844,152.27144703781232" stroke="#4dd2ff" stroke-dasharray="none" stroke-linecap="round" stroke-linejoin="round" stroke-width="0.5"><title>2026-05-11 15.3km</title><desc>1778503630000</desc></polyline><polyline fill="none" opacity="1" points="49.152212266111746,153.08827245316934 51.90117231197655,151.91177478566533 55.99962183483876,151.55882498860592 60.5978822754696,152.9117979654111 62.64710703701712,154.4412416195264 65.99584018369205,159.8530845787609 66.39568891772069,163.08839972061105 65.49602926615626,167.50016203528503 60.69784445874393,172.97069753333926 60.39795790845528,177.73531258752337 50.951531569007784,178.5 49.70200427505188,173.5589238757384 45.1037438348867,168.5589796580025 43.60431108251214,163.20604718098184 44.45398964220658,158.50012889504433 47.25293077994138,154.26476757170167 53.650510523235425,151.5 59.248392798472196,152.32354925922118 63.34684232133441,155.08831263816683 65.34608599101193,158.14718337962404 66.3457078258507,162.02957143238746 65.04619944049045,168.38251019758172" stroke="#4dd2ff" stroke-dasharray="none" stroke-linecap="round" stroke-linejoin="round" stroke-width="0.5"><title>2026-05-10 11.2km</title><desc>1778422578000</desc></polyline><polyline fill="none" opacity="0.5" points="86.36466527637094,152.02090892614797 81.79119245847687,153.58363367349375 78.1029079281725,156.53543877106858 73.3819037284702,165.13033876172267 73.52943510981277,172.42290890100412 76.48006273433566,178.5 73.52943510981277,172.42290890100412 73.3819037284702,165.13033876172267 78.1029079281725,156.53543877106858 81.79119245847687,153.58363367349375 86.36466527637094,152.02090892614797 90.5693096416071,151.5 96.61809627199546,152.8890897175297 90.5693096416071,151.5 86.36466527637094,152.02090892614797 81.79119245847687,153.58363367349375 78.1029079281725,156.53543877106858 73.3819037284702,165.13033876172267 73.52943510981277,172.42290890100412 76.48006273433566,178.5 73.52943510981277,172.42290890100412 73.3819037284702,165.13033876172267 78.1029079281725,156.53543877106858 81.79119245847687,153.58363367349375 86.36466527637094,152.02090892614797 90.5693096416071,151.5 96.61809627199546,152.8890897175297 90.5693096416071,151.5 86.36466527637094,152.02090892614797 81.79119245847687,153.58363367349375 78.1029079281725,156.53543877106858 73.3819037284702,165.13033876172267 73.52943510981277,172.42290890100412 76.48006273433566,178.5 73.52943510981277,172.42290890100412 73.3819037284702,165.13033876172267 78.1029079281725,156.53543877106858 81.79119245847687,153.58363367349375 86.36466527637094,152.02090892614797 90.5693096416071,151.5 96.61809627199546,152.8890897175297 90.5693096416071,151.5 86.36466527637094,152.02090892614797 81.79119245847687,153.58363367349375 78.1029079281725,156.53543877106858 73.3819037284702,165.13033876172267 73.52943510981277,172.42290890100412 76.48006273433566,178.5 73.52943510981277,172.42290890100412 73.3819037284702,165.13033876172267 78.1029079281725,156.53543877106858 81.79119245847687,153.58363367349375 86.36466527637094,152.02090892614797 90.5693096416071,151.5 96.61809627199546,152.8890897175297 90.5693096416071,151.5 86.36466527637094,152.02090892614797 81.79119245847687,153.58363367349375 78.1029079281725,156.53543877106858 73.3819037284702,165.13033876172267 73.52943510981277,172.42290890100412 76.48006273433566,178.5 73.52943510981277,172.42290890100412 73.3819037284702,165.13033876172267 78.1029079281725,156.53543877106858 81.79119245847687,153.58363367349375 86.36466527637094,152.02090892614797 90.5693096416071,151.5 96.61809627199546,152.8890897175297 90.5693096416071,151.5 86.36466527637094,152.02090892614797 81.79119245847687,153.58363367349375 78.1029079281725,156.53543877106858 73.3819037284702,165.13033876172267 73.52943510981277,172.42290890100412 76.48006273433566,178.5 73.52943510981277,172.42290890100412 73.3819037284702,165.13033876172267 78.1029079281725,156.53543877106858 81.79119245847687,153.58363367349375 86.36466527637094,152.02090892614797 90.5693096416071,151.5 96.61809627199546,152.8890897175297 90.5693096416071,151.5 86.36466527637094,152.02090892614797 81.79119245847687,153.58363367349375 78.1029079281725,156.53543877106858 73.3819037284702,165.13033876172267 73.52943510981277,172.42290890100412 76.48006273433566,178.5 73.52943510981277,172.42290890100412 73.3819037284702,165.13033876172267 78.1029079281725,156.53543877106858 81.79119245847687,153.58363367349375 86.36466527637094,152.02090892614797 90.5693096416071,151.5" stroke="#4dd2ff" stroke-dasharray="1,0.5" stroke-linecap="round" stroke-linejoin="round" stroke-width="0.5"><title>2026-05-10 11.3km</title><desc>1778397813000</desc></polyline><polyline fill="none" opacity="0.5" points="112.55588433681987,173.40081890305737 113.1669132525567,178.5 124.27652990398929,178.17313070909586 124.27652990398929,173.00857241923222 124.27652990398929,178.17313070909586 113.1669132525567,178.5 112.55588433681987,173.40081890305737 107.94539342657663,169.0860935592209 105.72347009624355,163.46382940706098 106.05675859586336,158.10301713866647 110.33396100648679,151.5 106.05675859586336,158.10301713866647 105.72347009624355,163.46382940706098 107.94539342657663,169.0860935592209 112.55588433681987,173.40081890305737 113.1669132525567,178.5 124.27652990398929,178.17313070909586 124.27652990398929,173.00857241923222 124.27652990398929,178.17313070909586 113.1669132525567,178.5 112.55588433681987,173.40081890305737 107.94539342657663,169.0860935592209 105.72347009624355,163.46382940706098 106.05675859586336,158.10301713866647 110.33396100648679,151.5 106.05675859586336,158.10301713866647 105.72347009624355,163.46382940706098 107.94539342657663,169.0860935592209 112.55588433681987,173.40081890305737 113.1669132525567,178.5 124.27652990398929,178.17313070909586 124.27652990398929,173.00857241923222 124.27652990398929,178.17313070909586 113.1669132525567,178.5 112.55588433681987,173.40081890305737 107.94539342657663,169.0860935592209 105.72347009624355,163.46382940706098 106.05675859586336,158.10301713866647 110.33396100648679,151.5 106.05675859586336,158.10301713866647 105.72347009624355,163.46382940706098 107.94539342657663,169.0860935592209 112.55588433681987,173.40081890305737 113.1669132525567,178.5 124.27652990398929,178.17313070909586 124.27652990398929,173.00857241923222 124.27652990398929,178.17313070909586 113.1669132525567,178.5 112.55588433681987,173.40081890305737 107.94539342657663,169.0860935592209 105.72347009624355,163.46382940706098 106.05675859586336,158.10301713866647 110.33396100648679,151.5 106.05675859586336,158.10301713866647 105.72347009624355,163.46382940706098 107.94539342657663,169.0860935592209 112.55588433681987,173.40081890305737 113.1669132525567,178.5 124.27652990398929,178.17313070909586 124.27652990398929,173.00857241923222 124.27652990398929,178.17313070909586 113.1669132525567,178.5 112.55588433681987,173.40081890305737 107.94539342657663,169.0860935592209 105.72347009624355,163.46382940706098 106.05675859586336,158.10301713866647 110.33396100648679,151.5 106.05675859586336,158.10301713866647 105.72347009624355,163.46382940706098 107.94539342657663,169.0860935592209 112.55588433681987,173.40081890305737 113.1669132525567,178.5 124.27652990398929,178.17313070909586 124.27652990398929,173.00857241923222 124.27652990398929,178.17313070909586 113.1669132525567,178.5 112.55588433681987,173.40081890305737 107.94539342657663,169.0860935592209 105.72347009624355,163.46382940706098 106.05675859586336,158.10301713866647 110.33396100648679,151.5 106.05675859586336,158.10301713866647 105.72347009624355,163.46382940706098 107.94539342657663,169.0860935592209 112.55588433681987,173.40081890305737 113.1669132525567,178.5 124.27652990398929,178.17313070909586 124.27652990398929,173.00857241923222 124.27652990398929,178.17313070909586 113.1669132525567,178.5 112.55588433681987,173.40081890305737 107.94539342657663,169.0860935592209 105.72347009624355,163.46382940706098 106.05675859586336,158.10301713866647 110.33396100648679,151.5 106.05675859586336,158.10301713866647 105.72347009624355,163.46382940706098 107.94539342657663,169.0860935592209 112.55588433681987,173.40081890305737 113.1669132525567,178.5 124.27652990398929,178.17313070909586 124.27652990398929,173.00857241923222 124.27652990398929,178.17313070909586 113.1669132525567,178.5 112.55588433681987,173.40081890305737 107.94539342657663,169.0860935592209 105.72347009624355,163.46382940706098 106.05675859586336,158.10301713866647 110.33396100648679,151.5 106.05675859586336,158.10301713866647 105.72347009624355,163.46382940706098 107.94539342657663,169.0860935592209 112.55588433681987,173.40081890305737 113.1669132525567,178.5 124.27652990398929,178.17313070909586 124.27652990398929,173.00857241923222 124.27652990398929,178.17313070909586 113.1669132525567,178.5 112.55588433681987,173.40081890305737 107.94539342657663,169.0860935592209 105.72347009624355,163.46382940706098 106.05675859586336,158.10301713866647 110.33396100648679,151.5 106.05675859586336,158.10301713866647 105.72347009624355,163.46382940706098 107.94539342657663,169.0860935592209 112.55588433681987,173.40081890305737 113.1669132525567,178.5 124.27652990398929,178.17313070909586 124.27652990398929,173.00857241923222 124.27652990398929,178.17313070909586 113.1669132525567,178.5 112.55588433681987,173.40081890305737 107.94539342657663,169.0860935592209 105.72347009624355,163.46382940706098 106.05675859586336,158.10301713866647 110.33396100648679,151.5 106.05675859586336,158.10301713866647" stroke="#ffdf00" stroke-dasharray="1,0.5" stroke-linecap="round" stroke-linejoin="round" stroke-width="0.5"><title>2025-11-09 21.3km</title><desc>1762645227000</desc></polyline><polyline fill="none" opacity="1" points="136.4596187470015,153.09174021077342 142.77098553813994,151.5 148.2809089270886,152.79697385645704 152.23803572473116,157.1594995993073 153.44020082778297,160.04817983444082 153.5403812529985,165.53073485183995 151.88740423624404,169.30364385951543 147.98036765120924,172.8996734144166 147.72991658817045,177.91049465182004 138.0625055511482,178.5 137.11079151113518,173.54813523194753" stroke="#4dd2ff" stroke-dasharray="none" stroke-linecap="round" stroke-linejoin="round" stroke-width="0.5"><title>2025-11-01 10.0km</title><desc>1761964262000</desc></polyline><polyline fill="none" opacity="1" points="188.5,155.53894666809356 185.78643216076307,162.48509288043715 180.56281407061033,167.35534027032554 179.68090452253819,174.46105333196465 166.99497487442568,174.46105333196465 166.31658291444182,167.75453944934998 161.5,163.7625379320816" stroke="#4dd2ff" stroke-dasharray="none" stroke-linecap="round" stroke-linejoin="round" stroke-width="0.5"><title>2025-10-27 10.0km</title><desc>1761565093000</desc></polyline><polyline fill="none" opacity="1" points="18.703882214147598,181.5 25.943143150303513,181.80000723031117 28.696101534646004,183.0600358225638 30.531407123897225,185.0400749623077 33.284365508239716,190.98014991579112 33.2333847975824,195.06016449740855 32.00984773784876,198.60015280137304 27.31962234247476,203.5200989775476 27.2176609209273,208.08001007605344 17.42936444352381,208.5 16.715634491993114,203.8800933236489" stroke="#4dd2ff" stroke-dasharray="none" stroke-linecap="round" stroke-linejoin="round" stroke-width="0.5"><title>2025-10-19 10.0km</title><desc>1760866141000</desc></polyline><polyline fill="none" opacity="1" points="68.5,191.9592508218484 63.26794258411974,197.12861075869296 63.13875598134473,203.13414287753403 51.6411483255215,203.81831416254863 50.15550239244476,203.43821908644168 49.251196172321215,197.28065018047346 44.47129186615348,192.56741279031849 41.5,186.18168583739316" stroke="#4dd2ff" stroke-dasharray="none" stroke-linecap="round" stroke-linejoin="round" stroke-width="0.5"><title>2025-10-16 10.0km</title><desc>1760611285000</desc></polyline><polyline fill="none" opacity="1" points="85.69944411981851,181.5 84.30055588018149,208.5" stroke="#4dd2ff" stroke-dasharray="none" stroke-linecap="round" stroke-linejoin="round" stroke-width="0.5"><title>2025-10-08 10.1km</title><desc>1759919017000</desc></polyline><polyline fill="none" opacity="1" points="105.68357620341703,181.5 118.06957315839827,188.85217439511325 122.5931546553038,195.0634581471095 124.31642379658297,208.5" stroke="#4dd2ff" stroke-dasharray="none" stroke-linecap="round" stroke-linejoin="round" stroke-width="0.5"><title>2025-10-01 10.0km</title><desc>1759271073000</desc></polyline><polyline fill="none" opacity="1" points="133.68228710163385,189.30013517703628 136.84308980312198,184.56006612384226 142.90979176200926,181.5 149.4863006081432,182.22001707943855 153.10592950810678,184.74006948713213 156.06280945451,190.02014211774804 156.31771289813332,195.12016448780196 154.17652397160418,199.92014264996396 150.4039530053269,203.34010171686532 150.4039530053269,208.02001148939598 149.79218474053778,208.44000145880273 140.25879594800062,208.5" stroke="#4dd2ff" stroke-dasharray="none" stroke-linecap="round" stroke-linejoin="round" stroke-width="0.5"><title>2025-09-27 10.0km</title><desc>1758965825000</desc></polyline><polyline fill="none" opacity="1" points="164.61739533231594,182.89027025533142 172.948347580852,181.5 181.46581368520856,184.2073657528963 184.76089181378484,190.2074349661707 185.38260466768406,197.3781794870156 183.33095224830322,203.30496189091355 178.1707355575636,208.5" stroke="#4dd2ff" stroke-dasharray="none" stroke-linecap="round" stroke-linejoin="round" stroke-width="0.5"><title>2020-04-24 10.0km</title><desc>1587724293000</desc></polyline><polyline fill="none" opacity="1" points="38.5,230.4934137131786 34.3351063830778,223.7323074520682 25.57446808507666,219.5065862868214 19.39893617015332,220.09818862762768 11.5,223.8168216421618" stroke="#4dd2ff" stroke-dasharray="none" stroke-linecap="round" stroke-linejoin="round" stroke-width="0.5"><title>2020-04-16 10.0km</title><desc>1587033949000</desc></polyline><polyline fill="none" opacity="1" points="68.5,232.4410317739821 67.95022624451667,227.91174340900034 65.2013574661687,222.73537600314012 60.5588235296309,218.92496864392888 57.3212669682689,217.5589682260761 51.64027149323374,218.13412663940107 45.04298642533831,220.79422781761969 41.5,227.48038100032136" stroke="#4dd2ff" stroke-dasharray="none" stroke-linecap="round" stroke-linejoin="round" stroke-width="0.5"><title>2020-04-14 10.0km</title><desc>1586861907000</desc></polyline><polyline fill="none" opacity="0.5" points="89.99065077817068,238.5 90.7745226281695,233.39531481766608 94.22355876793154,230.3201811137842 96.1048512076959,227.06052120542154 96.6796905642841,222.07874066499062 95.32097935769707,216.91240356781054 92.23775008134544,213.46815272117965 86.90742150181904,211.5 81.31580230523832,211.9920388198807 77.03063619229943,214.45222652348457 74.94031125912443,216.97390785737662 73.32030943594873,222.07874066499062 73.4770838059485,225.03091218712507 75.30611812276766,229.95116395008517 73.4770838059485,225.03091218712507 73.32030943594873,222.07874066499062 74.94031125912443,216.97390785737662 77.03063619229943,214.45222652348457 81.31580230523832,211.9920388198807 86.90742150181904,211.5 92.23775008134544,213.46815272117965 95.32097935769707,216.91240356781054 96.6796905642841,222.07874066499062 96.1048512076959,227.06052120542154 94.22355876793154,230.3201811137842 90.7745226281695,233.39531481766608 89.99065077817068,238.5 90.7745226281695,233.39531481766608 94.22355876793154,230.3201811137842 96.1048512076959,227.06052120542154 96.6796905642841,222.07874066499062 95.32097935769707,216.91240356781054 92.23775008134544,213.46815272117965 86.90742150181904,211.5 81.31580230523832,211.9920388198807 77.03063619229943,214.45222652348457 74.94031125912443,216.97390785737662 73.32030943594873,222.07874066499062 73.4770838059485,225.03091218712507 75.30611812276766,229.95116395008517 73.4770838059485,225.03091218712507 73.32030943594873,222.07874066499062 74.94031125912443,216.97390785737662 77.03063619229943,214.45222652348457 81.31580230523832,211.9920388198807 86.90742150181904,211.5 92.23775008134544,213.46815272117965 95.32097935769707,216.91240356781054 96.6796905642841,222.07874066499062 96.1048512076959,227.06052120542154 94.22355876793154,230.3201811137842 90.7745226281695,233.39531481766608 89.99065077817068,238.5 90.7745226281695,233.39531481766608 94.22355876793154,230.3201811137842 96.1048512076959,227.06052120542154 96.6796905642841,222.07874066499062 95.32097935769707,216.91240356781054 92.23775008134544,213.46815272117965 86.90742150181904,211.5 81.31580230523832,211.9920388198807 77.03063619229943,214.45222652348457 74.94031125912443,216.97390785737662 73.32030943594873,222.07874066499062 73.4770838059485,225.03091218712507 75.30611812276766,229.95116395008517 73.4770838059485,225.03091218712507 73.32030943594873,222.07874066499062 74.94031125912443,216.97390785737662 77.03063619229943,214.45222652348457 81.31580230523832,211.9920388198807 86.90742150181904,211.5 92.23775008134544,213.46815272117965 95.32097935769707,216.91240356781054 96.6796905642841,222.07874066499062 96.1048512076959,227.06052120542154 94.22355876793154,230.3201811137842 90.7745226281695,233.39531481766608 89.99065077817068,238.5 90.7745226281695,233.39531481766608 94.22355876793154,230.3201811137842 96.1048512076959,227.06052120542154 96.6796905642841,222.07874066499062 95.32097935769707,216.91240356781054 92.23775008134544,213.46815272117965 86.90742150181904,211.5 81.31580230523832,211.9920388198807 77.03063619229943,214.45222652348457 74.94031125912443,216.97390785737662 73.32030943594873,222.07874066499062 73.4770838059485,225.03091218712507 75.30611812276766,229.95116395008517 73.4770838059485,225.03091218712507 73.32030943594873,222.07874066499062 74.94031125912443,216.97390785737662 77.03063619229943,214.45222652348457 81.31580230523832,211.9920388198807 86.90742150181904,211.5 92.23775008134544,213.46815272117965 95.32097935769707,216.91240356781054 96.6796905642841,222.07874066499062 96.1048512076959,227.06052120542154 94.22355876793154,230.3201811137842 90.7745226281695,233.39531481766608 89.99065077817068,238.5 90.7745226281695,233.39531481766608 94.22355876793154,230.3201811137842 96.1048512076959,227.06052120542154 96.6796905642841,222.07874066499062 95.32097935769707,216.91240356781054 92.23775008134544,213.46815272117965 86.90742150181904,211.5 81.31580230523832,211.9920388198807 77.03063619229943,214.45222652348457 74.94031125912443,216.97390785737662 73.32030943594873,222.07874066499062 73.4770838059485,225.03091218712507 74.94031125912443,228.96711700822925" stroke="#4dd2ff" stroke-dasharray="1,0.5" stroke-linecap="round" stroke-linejoin="round" stroke-width="0.5"><title>2020-04-13 10.0km</title><desc>1586775592000</desc></polyline><polyline fill="none" opacity="1" points="119.99065077817068,238.5 120.7745226281695,233.39531481766608 124.22355876793154,230.3201811137842 126.1048512076959,227.06052120542154 126.6796905642841,222.07874066499062 125.32097935769707,216.91240356781054 122.23775008134544,213.46815272117965 116.90742150181904,211.5 111.31580230523832,211.9920388198807 107.03063619229943,214.45222652348457 104.94031125912443,216.97390785737662 103.32030943594873,222.07874066499062 103.4770838059485,225.03091218712507 105.30611812276766,229.95116395008517" stroke="#4dd2ff" stroke-dasharray="none" stroke-linecap="round" stroke-linejoin="round" stroke-width="0.5"><title>2020-04-12 10.0km</title><desc>1586649823000</desc></polyline><polyline fill="none" opacity="1" points="154.16488226037472,211.5 156.90850943350233,217.7520106494194 157.0252595259808,221.9428843872738 154.92375786113553,228.05738820199622 150.13700406928547,232.86650709575042 149.8451288382057,238.5 138.28686968190596,238.5 137.64474417315796,232.6604027482099 132.97474047378637,228.67570553091355" stroke="#4dd2ff" stroke-dasharray="none" stroke-linecap="round" stroke-linejoin="round" stroke-width="0.5"><title>2020-04-08 10.0km</title><desc>1586343893000</desc></polyline><polyline fill="none" opacity="1" points="178.8055652717594,211.5 181.1806698385626,213.91416824480984 183.93363195029087,220.45778483257163 183.06995756248944,226.23897758167004 180.47893439861946,230.55895254696952 177.61801298870705,233.16362796002068 177.29413509299047,238.43647204706213 166.606164541794,238.5 166.0663680494763,233.1000994289643" stroke="#4dd2ff" stroke-dasharray="none" stroke-linecap="round" stroke-linejoin="round" stroke-width="0.5"><title>2020-04-07 10.0km</title><desc>1586257895000</desc></polyline><polyline fill="none" opacity="1" points="27.48489037854597,241.5 33.45866724802181,244.92676989053143 35.86825791816227,249.29882435599575 36.01885733497329,256.2704062804696 33.70966627635062,260.5242091076216 30.54707852192223,263.5372993731871 30.446678910404444,268.2046024168958 20.958915647119284,268.5 20.205918562831357,263.59637940803077 15.637736250879243,259.57892245729454 13.98114266502671,255.50235501222778" stroke="#4dd2ff" stroke-dasharray="none" stroke-linecap="round" stroke-linejoin="round" stroke-width="0.5"><title>2020-04-02 10.0km</title><desc>1585825459000</desc></polyline><polyline fill="none" opacity="1" points="46.70314326370135,242.79414827516302 51.60128760198131,241.5 58.64861772139557,243.38239647180308 62.347216507419944,248.61777734936913 63.29685673629865,254.32369678170653 62.147292248671874,258.6178027992137 57.24914791062474,263.6765690682223 57.1991668457631,268.5 47.40287816943601,268.5" stroke="#4dd2ff" stroke-dasharray="none" stroke-linecap="round" stroke-linejoin="round" stroke-width="0.5"><title>2020-03-23 10.0km</title><desc>1584960411000</desc></polyline><polyline fill="none" opacity="1" points="87.35053615830839,268.5 83.02554962644354,261.52875686006155 82.64946384122595,250.57385010109283 86.59836458740756,241.5" stroke="#4dd2ff" stroke-dasharray="none" stroke-linecap="round" stroke-linejoin="round" stroke-width="0.5"><title>2019-12-13 10.0km</title><desc>1576239112000</desc></polyline><polyline fill="none" opacity="0.5" points="108.89967598672956,268.5 117.4505575094372,260.2773408591747 121.10032401327044,250.95007318432909 120.57892879843712,241.5 121.10032401327044,250.95007318432909 117.4505575094372,260.2773408591747 108.89967598672956,268.5 117.4505575094372,260.2773408591747 121.10032401327044,250.95007318432909 120.57892879843712,241.5 121.10032401327044,250.95007318432909 117.4505575094372,260.2773408591747 108.89967598672956,268.5 117.4505575094372,260.2773408591747 121.10032401327044,250.95007318432909 120.57892879843712,241.5 121.10032401327044,250.95007318432909 117.4505575094372,260.2773408591747 108.89967598672956,268.5 117.4505575094372,260.2773408591747 121.10032401327044,250.95007318432909 120.57892879843712,241.5 121.10032401327044,250.95007318432909 117.4505575094372,260.2773408591747 108.89967598672956,268.5 117.4505575094372,260.2773408591747 121.10032401327044,250.95007318432909 120.57892879843712,241.5 121.10032401327044,250.95007318432909 117.4505575094372,260.2773408591747 108.89967598672956,268.5 117.4505575094372,260.2773408591747 121.10032401327044,250.95007318432909 120.57892879843712,241.5 121.10032401327044,250.95007318432909 117.4505575094372,260.2773408591747 108.89967598672956,268.5 117.4505575094372,260.2773408591747 121.10032401327044,250.95007318432909 120.57892879843712,241.5 121.10032401327044,250.95007318432909 117.4505575094372,260.2773408591747 108.89967598672956,268.5 117.4505575094372,260.2773408591747 121.10032401327044,250.95007318432909 120.57892879843712,241.5 121.10032401327044,250.95007318432909 117.4505575094372,260.2773408591747 108.89967598672956,268.5 117.4505575094372,260.2773408591747 121.10032401327044,250.95007318432909 120.57892879843712,241.5 121.10032401327044,250.95007318432909 117.4505575094372,260.2773408591747 108.89967598672956,268.5 117.4505575094372,260.2773408591747 121.10032401327044,250.95007318432909 120.57892879843712,241.5 121.10032401327044,250.95007318432909 117.4505575094372,260.2773408591747 108.89967598672956,268.5 117.4505575094372,260.2773408591747 121.10032401327044,250.95007318432909 120.57892879843712,241.5 121.10032401327044,250.95007318432909" stroke="#4dd2ff" stroke-dasharray="1,0.5" stroke-linecap="round" stroke-linejoin="round" stroke-width="0.5"><title>2019-11-23 10.0km</title><desc>1574497580000</desc></polyline></svg>