<?xml version="1.0" encoding="utf-8" ?>
<svg baseProfile="full" height="300mm" version="1.1" viewBox="0,0,200,300" width="200mm" xmlns="http://www.w3.org/2000/svg" xmlns:ev="http://www.w3.org/2001/xml-events" xmlns:xlink="http://www.w3.org/1999/xlink"><defs /><rect fill="#222222" height="300" width="200" x="0" y="0" /><text fill="#FFFFFF" style="font-size:12px; font-family:Arial; font-weight:bold;" x="10" y="20">Over 10km Runs</text><text fill="#FFFFFF" style="font-size:4px; font-family:Arial" x="10" y="280">Runner</text><text fill="#FFFFFF" style="font-size:9px; font-family:Arial" x="10" y="290">Floyd Li</text><text fill="#FFFFFF" style="font-size:4px; font-family:Arial" x="65" y="280">SPECIAL TRACKS</text><rect fill="yellow" height="2.6" width="2.6" x="65" y="283" /><text fill="#FFFFFF" style="font-size:3px; font-family:Arial" x="70" y="285.5">Over 20.0 km</text><rect fill="red" height="2.6" width="2.6" x="65" y="287" /><text fill="#FFFFFF" style="font-size:3px; font-family:Arial" x="70" y="289.5">Over 40.0 km</text><text fill="#FFFFFF" style="font-size:4px; font-family:Arial" x="120" y="280">STATISTICS</text><text fill="#FFFFFF" style="font-size:3px; font-family:Arial" x="120" y="285">Number: 26</text><text fill="#FFFFFF" style="font-size:3px; font-family:Arial" x="120" y="290">Weekly: 1.6</text><text fill="#FFFFFF" style="font-size:3px; font-family:Arial" x="141" y="285">Total: 364.8 km</text><text fill="#FFFFFF" style="font-size:3px; font-family:Arial" x="141" y="290">Avg: 14.0 km</text><text fill="#FFFFFF" style="font-size:3px; font-family:Arial" x="167" y="285">Min: 10.0 km</text><text fill="#FFFFFF" style="font-size:3px; font-family:Arial" x="167" y="290">Max: 52.6 km</text><polyline fill="none" opacity="1" points="14.68844864370476,39.4345004840834 14.713136238955485,39.3842116560445 14.788844864378916,39.33392268713578 15.086741846993391,39.33392268713578 15.300701005799056,39.353264614930595 15.340201158185664,39.38034327882633 15.412618104244757,41.17904877377623 15.448826577267027,41.440136208164404 15.809265467840305,42.548265072415234 16.08412069491169,43.64085573661214 16.293142334652657,44.278975293598705 16.43468454739923,44.55355309746119 16.87741542213189,45.18583954652968 16.971228284062818,45.3927296690963 17.0288326729642,45.607351484373794 17.051874428529118,45.86450758070532 17.03870771106449,46.05978907503413 16.74739408716414,47.005230855733316 16.70131057604158,47.37836699022046 16.706248095091723,47.75342866565006 16.91197805547563,49.53389821067867 17.181895763489592,50.69371837563631 17.173666565067833,50.83675768032117 17.0288326729642,51.2156130435651 17.007436757092364,51.42243377695013 17.114416336480645,52.518350679627474 17.2954587016211,53.06145229936919 17.224687595247815,54.52445942353734 17.25760438889847,54.673265899526086 17.339896373057854,54.83753135943152 17.74312709539663,55.21630246872883 17.833648277970497,55.37476556714137 17.853398354171077,55.59120071515645 17.751356293811114,56.01440120618099 17.81225236208411,56.32937958621005 17.930752819265763,56.49362992871647 18.1381286193282,56.62502912340642 21.689850655289774,57.94476488928922 21.9564766839394,58.01239149501271 22.49302042060299,58.07035695484956 23.069064309667738,58.01239149501271 25.890033526367915,57.21438135732751 26.2833892106064,57.14288719684555 26.75080768058251,57.14095491829721 30.047424565680558,57.41147189677031 30.569155745200987,57.41147189677031 31.12380371837935,57.316791416787964 31.77391039316717,57.11197071517199 32.163974398048595,57.0327469884669 35.62352941176505,56.7873444511697 35.99384334044589,56.70425464484106 36.45138677232171,56.51488574584255 36.7459920755864,56.33131195189162 37.091618409023795,56.03565758934565 37.69399573300325,55.33611615961672 38.25522706492484,54.76989282227623 38.82633343492489,54.10702170114564 39.09954282231047,53.68570899358201 39.489606827184616,52.80053363904335 39.66571167326765,52.54734228362213 39.86485827492288,52.38885427792593 41.17659250228462,51.60799054144991 41.4382810118841,51.36444689540258 41.5304480341365,51.20981429713356 41.60451081987412,51.0010581802635 41.7723864675354,50.3438471728623 41.879366046930954,49.71947446485137 41.95013715330424,49.46817282797383 42.12788783906581,48.97715795437762 42.46199329472438,48.269608998582044 42.457055775674235,48.23287755466299 42.68747333130159,47.79789422162321 42.82736970435508,47.59876500550854 43.37543431879749,46.99943075104238 43.59926851569617,46.699756128629815 43.818165193537425,46.25893534399438 44.07491618408676,45.52421000427421 44.099603779337485,45.50680825044401 44.200000000004366,45.54741231648404 44.09466626028734,45.44106813945655 44.04858274916478,45.47780528995645 43.7243523316065,46.38460903807936 43.66181042365497,46.365274680814764 43.59926851569617,46.25120154949582 43.69966473635577,46.41941082874109 43.63547698872571,46.53541631085318 43.59926851569617,46.54895023498648 43.00347455044539,46.28407015312405 41.907345321553294,45.976649688367615 41.5189271563504,45.91091129634515 39.52252362084255,45.825837726131795 37.318744285279536,45.62281962426823 35.73380067053222,45.62281962426823 35.13306918622402,45.589949811070255 34.4401706796707,45.47780528995645 32.526059128314955,45.00215005795326 31.997744590073125,44.90160343729076 31.337762877170462,44.851329915945826 30.17086254190508,44.909337812707236 29.89765315452678,44.87840029107247 29.21462968607375,44.67150424574356 28.05925022858719,44.38919364863432 27.940749771405535,44.33505138329383 27.814020115816675,44.236434694998024 27.708686376106925,44.08947548836477 27.498018896672875,43.19609233652773 27.25937214264559,42.766788522352726 27.109600731484534,42.608214248113654 26.917037488572532,42.5115219303425 26.75245352026832,42.48638184245101 25.420969216706,42.58114045160437 25.277781164280896,42.571471228679 25.139530630905938,42.52312503595749 24.978238341973338,42.407093642443215 24.87125876257778,42.263987224674565 24.693508076816215,41.73989858124514 24.596403535506397,41.532966381140795 24.410423651330348,41.33570168994447 24.178360256017186,41.21192665961644 22.47491618409549,40.7303563149253 19.884364523008117,40.31453217231319 17.37116732702998,39.33585688084895 17.226333434926346,39.312646542493894 15.419201462966157,39.287501975404666 14.599573300823977,39.30490975637076 14.276988722944225,39.264291574529125 14.127217311797722,39.20819964850307 13.923133191099623,39.08247572936489 13.31252666869841,38.54281998244187 12.178543127098237,38.03022871091525 11.80000000000291,37.92964304515044 11.808229198417393,37.962526882514794 12.160438890583464,38.053440707575646 13.307589149648265,38.573768420810666 13.992258457779826,39.163712823934475 14.26711368485121,39.287501975404666 14.523864675407822,39.32812010473572 14.545260591286933,39.36873814215687 14.630844254796102,39.382277467540916 14.634135934167716,39.42289538242585" stroke="red" stroke-dasharray="none" stroke-linecap="round" stroke-linejoin="round" stroke-width="0.5"><title>2026-05-23 52.6km</title><desc>1779516240000</desc></polyline><polyline fill="none" opacity="1" points="74.01215458963998,33.215332447507535 74.55876903480384,36.4962914785865 74.03037507110275,38.018809552289895 72.48163414280862,39.60564691478794 72.1718859571265,41.5141236531781 68.7828763963189,41.599897456602775 68.40024628455285,39.77719613818044 67.16125354194082,38.640679763877415 66.21378850343172,36.60351144448214 66.28667042951565,35.273979763282114 67.03371017135214,33.51555318104511 68.1451595434919,32.46477862189931 69.78500287933275,31.82144450650958 71.26086188165937,31.842889010731596 72.42697269830387,32.336111966040335 73.57486303336918,33.27966550018755 74.23080036777537,34.39476842447766 74.50410759041552,35.85297046387859 74.32190277532209,37.2682739370066 73.4473196627805,38.76934232242638 72.46341366134584,39.60564691478794 72.281208846136,40.44194797464297 72.5909570318181,49.44804323249264 76.56302200094797,51.37786749537918 78.40329063346144,51.442194646879216 78.74947978218552,51.785272435459774 79.0774484493304,62.398947890731506 78.78592074511107,63.192270480969455 75.72487985156476,63.81406164103828 71.29730284458492,64.1571179972525 63.808684944175184,63.81406164103828 56.101421265513636,62.74200669808488 49.48738647752907,62.91353587892081 49.232299736351706,62.48471264823456 48.922551550669596,55.21601762980572 49.232299736351706,52.32133029009856 64.61038613051642,51.828157117182855 68.70999447023496,49.55525618496176 68.52778965514153,40.05596330908884 66.50531620753463,37.61137628562574 66.19556802196894,35.9816348340828 66.3231113924412,34.909429194172844 67.28879691241309,33.150999373960076 68.40024628455285,32.271778606809676 69.58457758266013,31.82144450650958 71.40662573371083,31.9072225093405 73.41087869973853,33.022333164160955 74.46766662737355,35.123870786716 74.32190277532209,37.311161763063865 73.61130399641115,38.66212352947332 72.53629558731336,39.58420325144834 72.29942932771519,40.33473008751753 72.51807510585058,49.10496139455063 72.75494136544876,49.53381359913328 76.23505333380308,51.29209792750771 78.7677002636483,51.72094539535465 78.93168459716253,63.04218266707903 76.01640755566768,63.79262059906614 69.16550650796853,64.17855899975984 64.24597650032956,63.85694371811405 56.848461007350124,62.76344785379479 49.61492984800134,62.87065359762346 49.28696118085645,62.5919185429957 48.94077203213237,54.74429368998972 49.14119732880499,52.32133029009856 64.08199216669891,51.87104178966547 65.77649694716092,51.399309881497175 68.74643543327693,49.51237101091829 68.49134869209956,40.09885053131438 66.72396198567003,38.1474725149601 66.21378850343172,35.4669768516178 66.74218246724922,33.88010631679208 67.90829328389373,32.59344519411388 69.09262458188459,31.971555987067404 70.29517636157107,31.79999999998836 72.8278232915327,32.572000771193416 74.28546181228012,34.45910109386023 74.37656421982683,37.09672253971803 73.72062688542064,38.44768576929346 72.3905317352619,39.79863978062349 72.29942932771519,40.420504401874496 72.49985462427139,49.25505977179273 76.08928948175162,51.20632832252886 78.71303881914355,51.63517597611644 79.0774484493304,61.434091808929224 78.8770231527742,63.08506491116714 75.70665936998557,63.83550268075487 69.56635710119735,64.19999999999709 64.84725239011459,63.92126681623631 57.23109111911617,62.78488900719094 49.232299736351706,62.82777130705654 49.013653958099894,52.38565713510616 64.9565752792405,51.785272435459774 68.52778965514153,49.72679678819259 68.80109687778167,49.36227282874461 68.81931735936087,47.79695643403102 68.54601013660431,40.52772224259388 68.36380532151088,39.86297069412831 66.90616680087987,38.40479818946915 66.3413318740204,37.2682739370066 66.21378850343172,35.53130917264207 66.45065476302989,34.523433742360794 67.36167883849703,33.06522191003023 69.47525469365064,31.885778012132505 71.26086188165937,31.885778012132505 73.11935099563561,32.722111682698596 74.26724133070093,34.45910109386023 74.50410759041552,36.62495543072873 73.84817025600933,38.3619106002152 72.3905317352619,39.755752493365435 72.33587029064074,41.364019407730666 72.08078354957979,41.55701055955433 68.65533302573022,41.44979327615874 68.45490772917401,39.927301586649264 66.760402948712,38.10458487001597 66.3231113924412,36.96805889418465 66.2320089850109,35.53130917264207 66.63285957812332,34.20177029083425 67.68964750564191,32.74355608932092 69.12906554504298,31.971555987067404 71.71637391939294,31.99300047502038" stroke="#ffb600" stroke-dasharray="none" stroke-linecap="round" stroke-linejoin="round" stroke-width="0.5"><title>2026-05-17 22.3km</title><desc>1779013233000</desc></polyline><polyline fill="none" opacity="1" points="111.45284227380762,37.3478528201631 112.17918334668502,38.128297057286545 112.97815852682106,38.616069239538774 113.35170536427177,38.975798530165775 113.771945556422,39.896451214692206 113.7823218574631,40.25007541682862 113.33095276221866,41.60358212110441 113.13899119294365,42.731479648598906 113.13380304243765,43.700843888036616 113.26869495594292,45.07255736879961 113.18049639713718,45.87118412926429 112.35039231384872,47.9073265667721 112.04429143315065,49.31551397736257 111.26088070456171,51.24790462671808 111.10004803843913,51.394202810519346 110.09354683748097,51.40029855998728 108.47484387506847,51.96720039096181 107.9819695756596,51.93062625057428 107.15705364290625,51.625840828506625 106.8924579663726,51.85747789888774 106.3477021617291,52.936406503853505 105.75625300238607,53.54596159944049 102.68486789430608,50.16284796490436 100.47990392314387,49.803189763752016 100.16342674137559,49.66298340539652 100.01815852680011,49.47400906870098 100.03372297837632,48.596184524780256 99.93514811850036,48.52303186507925 98.64848678943235,48.443783043749136 94.88188951159827,48.54741609548364 94.60691753402352,48.425494838447776 93.99990392313339,47.92561493946414 92.97265012009302,47.61471180038279 92.69248999198317,47.28551838032217 92.23593274620362,46.1272300183482 92.0128422738344,44.79821733195058 90.7624979983957,44.334884472857084 89.62110488390317,44.42633204807498 87.06853482784936,45.00549659369062 84.49002401920734,44.65799857743332 84.34475580463186,44.73725269874922 84.21505204163259,44.98111083757976 83.82075260209967,46.26134883138366 83.8726341072761,46.499104128099134 84.88951160930446,47.94999942717186 87.83638110489119,48.52303186507925 88.73911929543829,49.27284214619067 88.92070456364308,49.967779393577075 89.45508406724548,51.241808860864694 89.57441152923275,52.08301834639133 90.27999999999884,55.0698206332454 90.31631705362815,55.612304552149 90.83513210568344,58.25760112400894 91.22943154524546,58.94023824856413 91.61335468373727,59.177940316145396 93.26837469977909,59.75085914866577 95.01159327462665,60.86620578639486 96.69774219373357,60.96372138833249 97.38257806244656,61.50005419846639 97.92214571658405,61.55490613145594 98.79375500400783,61.96324662992629 101.84957566051162,62.328922190103185 102.04153722975752,62.1826522492629 102.14530024019768,61.938868175308016 102.49290632506018,60.732121559594816 102.67449159326497,59.171845403798216 102.62261008805945,58.9524281224476 102.32169735789648,58.7451999096229 102.30094475581427,58.64768048830592 102.50328262610128,58.09303558644751 102.64855084064766,57.928469570753805 102.65373899118276,57.03858579496227 103.04285028020968,55.86830639453183 103.74325060046976,54.954008786451595 105.19593274619547,54.00312361521355 106.25950360289426,53.06441361821271 106.93396317053703,51.7904251601758 107.17780624498846,51.61364937751205 107.53578863089206,51.74165948215523 107.20374699760578,51.60755365102159 106.91839871896082,51.80261657312076 106.35289031226421,52.92421533500965 105.73031224979786,53.52767504202711 102.73674939951161,50.193327368477185 100.22049639714533,49.693463078056084 100.02334667733521,49.45572119618009 99.98184147319989,48.52912792367715 99.52528422736214,48.43768697596897 94.83000800639275,48.535223981612944 94.04140912726871,47.93780718461858 92.98821457166923,47.61471180038279 92.65617293835385,47.230652624202776 92.2048038430803,46.04188151732524 92.04397117692861,44.83479608034031 90.78325060047791,44.32878796257501 90.45639711769763,44.298305401400285 89.24236989588826,44.48120052230297 87.01146517213783,44.99330371695396 84.4173899119196,44.664095052241464 84.25655724579701,44.87137480511592 83.79999999998836,46.346697001503344 84.86875900719315,47.95609554746261 87.8675100080145,48.54741609548364 88.72874299439718,49.25455420871003 88.88438750998466,49.87634076940594 89.46027221775148,51.31495800787525 89.53809447557433,51.98548745230073 90.25924739791662,54.96619951831963 90.81437950360123,58.20274599797267 90.91814251401229,58.51359100984337 91.28131305042189,58.970712928363355 91.63929543635459,59.171845403798216 93.25281024820288,59.75695399870892 95.01678142513265,60.85401632432695 95.34882305844803,60.92715305725869 96.70811849477468,60.951531947277545 97.39295436348766,61.50614886029871 97.79763010406168,61.51224352149802 98.9027061649249,61.99981429215404 101.61092073659529,62.34111133477927 101.90664531625225,62.30454389284205 102.06747798237484,62.16436848012745 102.26462770215585,61.65242054787086 102.5344115292246,60.48223647186387 102.68486789430608,59.214509776458726 102.63817453963566,58.9524281224476 102.3632025620318,58.7756746943669 102.32169735789648,58.659870425151894 102.45658927140175,58.17227090496817 102.66411529222387,57.87361412593964 102.64855084064766,57.02639550918684 103.04285028020968,55.86830639453183 103.52016012810054,55.173441558581544 105.35676541231805,53.89340506801818 105.9897197757964,53.34480914326559 106.337325860688,52.96688441446531 106.91321056845482,51.83919079620682 107.14667734186514,51.625840828506625 107.9871577261656,51.936721942271106 108.516349079262,51.97329607874053 110.01572457965813,51.43077729742072 111.19862289831508,51.43077729742072 111.44246597276651,51.339341035891266 111.587734187342,51.16256384492954 111.69149719775305,50.62613312832036 112.18955964769702,49.431337356993026 112.44896717375377,47.96219166708761 113.16493194553186,46.27354143499906 113.32576461168355,45.67000440394622 113.4139631705475,44.792120871577936 113.35689351480687,42.63393264225306 113.70968775020447,41.06096395129862 114.06767013610806,40.17691197008389 116.20000000001164,36.238140136290895 115.90946357086068,36.09790017120031 115.90427542032558,35.835711478030134 115.42696557246381,35.51254699853598 115.4010248198465,33.82352525097667 115.20387510009459,33.81132996476299 115.09492393914843,33.65888866522073 114.21812650118954,33.664986325096834" stroke="#ff6800" stroke-dasharray="none" stroke-linecap="round" stroke-linejoin="round" stroke-width="0.5"><title>2026-05-16 35.3km</title><desc>1778887035000</desc></polyline><polyline fill="none" opacity="1" points="152.19999999998254,49.89873208024801 150.88069549709326,49.61535506823202 150.7940258582239,45.16613467320349 134.92385198391275,45.613907742234005 133.93678109670873,45.60823975265885 133.7056620597141,45.52321983535876 133.40713330361177,45.77261120080948 133.50824788227328,46.231714922407264 133.4119482835231,46.58312492423647 133.39750334373093,47.2859378436151 131.70744538563304,49.34331169219149 131.39928666962078,50.36913453046509 123.2667855550535,50.33512967592469 119.79999999998836,50.652507458537 119.85296477927477,50.83386532680015 123.90717788675101,50.52782355932504 132.6559964333137,50.510821186409885 141.91520285329898,49.84205680066589 143.80267498883768,49.813719137851876 147.02871154702734,49.45666327084109" stroke="#4dd2ff" stroke-dasharray="none" stroke-linecap="round" stroke-linejoin="round" stroke-width="0.5"><title>2026-05-12 15.2km</title><desc>1778590468000</desc></polyline><polyline fill="none" opacity="1" points="182.01630436372943,33.346044750738656 182.49066486186348,35.68656177667435 182.32646315102465,37.14668684201024 181.8156133837765,38.241773583577015 180.37428725499194,39.809240158399916 180.15535164054018,41.44111000036355 176.67062644287944,41.505525639571715 176.43344619381242,39.938072476375964 174.73669518134557,37.96263440036273 174.18935614521615,36.094538980556536 174.42653639416676,34.44115248721209 175.37525739043485,32.959534693465685 177.63759207364637,31.821472926283604 179.4803001624532,31.88589169133047 180.64795677317306,32.336822460463736 182.0345489983447,34.011699193913955 182.49066486186348,35.47183659535949 182.28997388191056,37.27552089028177 180.33779798599426,39.91660042917647 180.5567336003296,49.299663517274894 184.0961927017197,51.2320469973929 186.35852738493122,51.44675511056266 186.81464324845,51.85469988487603 187.08831276651472,62.13892507835408 186.96060032479,62.95476979619707 186.23081494309008,63.4270994146209 181.46896532760002,64.09265287661401 177.27269938285463,64.19999999999709 172.62031757447403,63.920897358315415 164.5196998376632,62.80448286351748 157.27657992439345,62.74007414323569 156.91168723348528,55.697927875677124 157.09413357893936,52.34852664663049 172.4196265945211,51.79028760782967 173.97042053064797,51.18910534691531 176.70711571199354,49.514373722835444 176.5429140011547,40.431928919715574 176.32397838658653,39.72335189986916 175.33876812132075,38.8429951047583 174.46302566328086,37.468771805695724 174.15286687610205,35.81539677386172 174.62722737411968,34.03317188069923 176.3057337520877,32.272403841954656 177.5281242664205,31.842945850279648 178.84173795336392,31.80000000000291 180.9763601948507,32.658915239037015 182.36295242013875,34.84913225407945 182.4176863238681,36.760184194819885 181.8156133837765,38.284718038426945 180.35604262037668,39.78776809721603 180.21008554415312,41.48405376210576 176.76184961560648,41.56994125786878 176.36046765570063,39.7448239679652 174.9373861614149,38.37060692020168 174.18935614521615,36.43809807985963 174.37180249055382,34.69882401661016 175.22930031409487,33.17426259609056 177.21796547912527,31.928837523038965 179.69923577690497,31.971783345506992 180.8851370222401,32.59449672517076 181.65141167293768,33.38899026608851 182.52715413097758,35.6436167590291 182.01630436372943,37.91968987578002 180.39253188949078,39.7018798294157 180.17359627503902,41.419638115898124 176.76184961560648,41.54846938738774 176.39695692469832,39.8521842736227 174.973875430529,38.41355134708283 174.26233468321152,36.760184194819885 174.33531322143972,34.870604850148084 175.0833432377549,33.28162646018609 176.79833888472058,32.07914786084439 178.98769502982032,31.821472926283604 181.0493387330789,32.74480655822845 181.8885919220047,33.796972198426374 182.4541755928658,35.17122095065133 182.36295242013875,37.06079742999282 181.70614557655063,38.39207913479186 180.37428725499194,39.89512837964867 180.22833017876837,41.44111000036355 176.85307278833352,41.591413126006955 176.46993546292651,39.91660042917647 175.02860933402553,38.39207913479186 174.22584541421384,36.43809807985963 174.51775956677739,34.26937128153804 175.55770373577252,32.809225023243926 177.74705988087226,31.80000000000291 179.73572504601907,31.971783345506992 181.1223172711907,32.809225023243926 182.4541755928658,35.08533068279212 182.39944168925285,36.8460737370915 181.59667776932474,38.542384572079754 180.37428725499194,39.7448239679652 180.30130871676374,41.3981662291626 176.81658351921942,41.591413126006955 176.32397838658653,39.7018798294157 175.19281104498077,38.67121771337406 174.35355785593856,37.14668684201024 174.18935614521615,35.42889153111901 174.84616298868787,33.38899026608851 174.9373861614149,33.60371770359052 175.6671715429984,32.74480655822845 176.85307278833352,32.057674962459714 179.42556625884026,31.90736460831249 181.17705117492005,32.76627938218007 181.83385801839177,33.60371770359052 182.49066486186348,35.407418995542685 182.4541755928658,36.52398776175687 181.90683655650355,38.09146791839157 180.319553351379,39.8521842736227 180.21008554415312,41.44111000036355 176.87131742283236,41.591413126006955 176.39695692469832,39.873656327821664 174.66371664323378,37.898217609967105" stroke="#4dd2ff" stroke-dasharray="none" stroke-linecap="round" stroke-linejoin="round" stroke-width="0.5"><title>2026-05-11 15.3km</title><desc>1778503630000</desc></polyline><polyline fill="none" opacity="1" points="44.199999999953434,72.9290046870592 37.0,77.72166029800428 38.35737704928033,83.139401768276 38.35737704928033,89.1822132547386 36.82295081950724,93.28017944697058 31.98360655736178,98.41996443056269 31.157377049326897,104.39317630446749 19.76721311500296,104.18480938498396 19.236065573990345,99.18398300581612 13.039344262331724,91.96049827762181 12.095081967068836,83.48669132695068 13.393442623317242,79.8748707222403 16.226229508407414,76.40194710920332 21.478688524570316,73.41521775838919 27.557377049233764,73.06792274489999 34.226229508407414,76.2630297736032 38.003278688760474,81.95861586148385 38.593442623037845,87.79306622955482 36.940983606735244,92.79398143739672 31.629508196609095,99.0450706052361 30.980327868834138,104.32372067222605 19.885245901765302,104.32372067222605 19.059016393497586,98.9756143935956 15.400000000139698,95.36388102686033 12.626229508314282,90.84918571310118 11.918032787041739,84.80638993502362 12.567213114816695,81.81969972955994 16.28524590167217,76.19357109453995 23.485245901625603,72.9290046870592 30.154098360799253,73.76251258380944 37.059016393497586,79.04137077042833 38.4754098362755,84.32018550054636 38.41639344277792,88.62655480572721 35.701639344217256,94.73877126374282 31.806557377101853,98.55887696647551 31.334426229586825,104.18480938498396 20.416393442777917,104.67099875857821 19.059016393497586,98.83670194813749 15.695081967394799,95.78062053048052 12.331147541059181,90.43244300468359 12.036065574036911,83.97289639321389 13.747540983837098,79.38866254879395 18.350819672225043,74.73493709403556 21.59672131156549,73.34575877070893 26.43606557371095,72.9290046870592 31.86557377059944,74.52656053728424 34.28524590167217,76.33248844498303 38.23934426228516,82.72265404945938 38.71147540980019,86.54283133364515 37.64918032777496,91.75212731852662 31.98360655736178,98.2115955700283 31.629508196609095,103.83753103541676 20.475409836275503,104.74045435339212 19.0,98.90615817450453 13.57049180334434,93.00235205801437 11.800000000046566,86.68174644268584 12.80327868857421,81.12511861842358 16.10819672141224,76.12411240773508 23.662295082351193,72.8595456466428 30.272131147794425,73.83197152626235 35.111475409939885,77.09653333661845 37.47213114751503,80.70836959045846 38.65245901653543,85.29259400058072 37.11803278699517,92.79398143739672 31.68852459033951,98.76724571391242 31.334426229586825,104.25426503224298 20.416393442777917,104.67099875857821 19.118032786995173,99.18398300581612 13.393442623317242,92.79398143739672 11.918032787041739,88.62655480572721 12.921311475336552,81.05566046584863 15.9901639346499,76.61032305652043 22.48196721333079,73.06792274489999 28.97377049177885,73.41521775838919 34.75737704942003,76.8186989359674 38.53442622954026,83.41723343037302 37.64918032777496,91.26592815044569 35.406557377194986,95.15551117365249 31.806557377101853,98.69778947235318 31.334426229586825,104.18480938498396 20.23934426251799,104.60154315643013 19.118032786995173,99.0450706052361 15.163934426382184,95.22496779880021 12.390163934556767,90.36298586049816 11.977049180306494,83.8339806975564 14.101639344124123,78.69407880416838 17.17049180320464,75.36006635759259 20.770491803530604,73.48467673856067 26.43606557371095,72.9290046870592 31.98360655736178,74.45710167009383 37.236065573990345,79.94432900258107 38.593442623037845,83.69506497186376 38.298360655782744,89.52949954092037 36.1147540982347,94.46094450680539 31.806557377101853,98.76724571391242 31.806557377101853,103.42079676751746 30.862295082071796,104.39317630446749 19.76721311500296,104.18480938498396 18.82295081950724,98.69778947235318 14.278688524849713,94.25257436005631 12.390163934556767,90.50190014153486 11.800000000046566,86.33445861417567 12.921311475336552,80.70836959045846 17.288524590432644,75.42952512699412 21.950819672318175,73.27629977546167 29.091803278774023,73.48467673856067" stroke="#4dd2ff" stroke-dasharray="none" stroke-linecap="round" stroke-linejoin="round" stroke-width="0.5"><title>2026-05-10 11.2km</title><desc>1778422578000</desc></polyline><polyline fill="none" opacity="1" points="66.40829123789445,75.26262512763788 67.37525665923022,73.73806189052993 69.03551804297604,72.75031043546915 70.95120425499044,72.60000000000582 73.085826034192,73.5662793822994 74.25348239205778,75.28409776558692 74.4724179591285,76.44361675929395 74.19874850020278,78.20435485517373 73.39598475431558,79.60005077131791 72.28306228818838,80.60924015881028 72.48375322471838,90.03525041080138 75.96847766754217,91.94616368760762 78.72341688675806,92.48293376687798 79.0153309762245,103.6044828636077 78.39501353609376,104.16269089662819 77.00842161127366,104.42032484344963 70.40386533737183,105.0 64.45611576468218,104.69942790809728 57.19475278945174,103.6259524323832 49.148870698874816,103.51860456528084 48.94817976246122,93.255880128243 52.232213268755004,92.86940732423682 64.18244630575646,92.63322912866715 65.64201675308868,92.20381350698881 68.76184858416673,90.31437372336222 68.70711469242815,82.64907536251121 72.15534987405408,82.5202442863083 72.52024248579983,90.1855476279743 75.8590098839486,91.92469285427069 78.72341688675806,92.50440453985357 79.05182023742236,102.78863752748293 78.81464003981091,103.92652615133557 75.49411727220286,104.65648900064116 69.56461233017035,105.0 64.8574976377422,104.74236680628383 57.34070983424317,103.6474219988595 49.185359960072674,103.49713498484925 48.966424393001944,93.14852664718637 64.18244630575646,92.6546998853737" stroke="#4dd2ff" stroke-dasharray="none" stroke-linecap="round" stroke-linejoin="round" stroke-width="0.5"><title>2026-05-10 11.3km</title><desc>1778397813000</desc></polyline><polyline fill="none" opacity="1" points="104.41773996087431,72.60000000000036 104.38024037258583,72.89179655611952 104.61966082100116,73.13269632003176 104.64562207442941,73.36680840376357 103.28409856052895,73.5669898152646 102.48795345495455,73.43805956096367 102.1475725764758,73.42788083411506 97.05916690164304,73.41770210397772 96.22263762404327,73.38038006522038 95.66879755057744,73.39055880746491 95.54764503451588,73.43466665237611 95.52168378108763,76.87488764214504 95.40918501616397,77.20056950586877 95.44380002075923,79.18851264934892 95.38033917899884,87.91565494516726 95.41783876730187,90.81851214327435 95.35437792557059,102.7018328778322 95.38322376270662,103.9831325928426 95.5447604508081,104.0916000149573 98.84472422178078,104.12888560497231 98.89953131238872,104.17972952015771 98.90530047981883,104.26785877858674 98.78126338003494,105.0 98.92260798210918,104.28480668460179 98.85626255665557,103.2543574065603 98.89087756125082,102.74250986106927 99.08126008647378,102.00014664030641 100.44855276781891,99.26104770086931 101.14662202706677,98.1524584347244 101.6139245890372,97.54220913892095 101.53315624498646,97.4642319869672 101.273543710573,97.7930908380913 100.45720651897136,99.14578335844271 100.31009274945245,99.15256362556465 100.12836397535284,99.04746932087801" stroke="#ffbb00" stroke-dasharray="none" stroke-linecap="round" stroke-linejoin="round" stroke-width="0.5"><title>2025-11-09 21.3km</title><desc>1762645227000</desc></polyline><polyline fill="none" opacity="1" points="144.9277062069159,75.83304446359398 147.37610724032857,78.85522363369819 149.70507407700643,84.82925732270814 147.79412692878395,93.26309360092273 142.30015387875028,99.16671377373859 142.35987097676843,104.1566365591716 130.6553196955938,104.85943950258661 129.5206948267296,98.95587112108478 124.74332695640624,94.24703402654268 122.2949259232264,88.20280498830834 122.6532285134308,82.72078112472082 125.69880053051747,77.09814443375217 131.670510367956,73.30283712339588 139.07543056621216,72.88113494071877 144.80827201041393,75.62219422898488 149.28705438855104,82.50993312813807 149.0481859948486,90.38154520094395 146.36091656796634,95.16069165692898 142.59873937047087,98.60446654766565 142.30015387875028,104.36747752223164 131.133056482533,104.85943950258661 129.58041192474775,98.81530931452289 123.25039949710481,91.50605341605842 122.35464302171022,85.81321053695865 123.60870208754204,80.40144939348102 128.44578705588356,74.84907611488597 135.79099015588872,72.59999999997672 142.77789066568948,74.14624066650867 145.70402848604135,76.74672802287387 148.86903469963,81.8071059777867 149.5259227817878,85.81321053695865 148.9884688963648,89.88957224384649 147.31639014184475,93.96590834268136 142.4793051739689,98.74502839992056 142.30015387875028,104.226916887681 132.98428653203882,105.0 130.53588549909182,104.64859869936481 129.87899741646834,99.30727550428128 125.04191244835965,94.52815958816791 123.31011659558862,91.50605341605842 122.4143601199612,85.60236354509834 123.72813628427684,80.26088356773835 128.92352384258993,74.56794202682795 136.4478782378137,72.67028374655638 143.01675905915909,74.21652424574131 147.7344098307658,79.41748797264881 149.16762019181624,82.86134641768876 149.28705438855104,89.39759891387075 147.31639014184475,93.8956269028713 142.65845646872185,98.18278080818709 142.35987097676843,104.1566365591716 130.8344709908124,104.85943950258661 129.69984612148255,98.95587112108478 125.04191244835965,94.59844095952576 122.71294561168179,88.90562521095853 122.59351141494699,83.28304211393697 125.34049794031307,77.66041029547341 130.47616840037517,73.72453903197311 137.64222020539455,72.81085121713113 142.77789066568948,74.28680781711591 148.271863715956,80.19060064328369 149.46620568353683,84.68869245587848 148.809317601379,90.80323600984411 146.48035076470114,94.87956636905437 142.4793051739689,98.6747474775766 142.24043678026646,104.226916887681 138.8962792714592,104.85943950258661 130.5956025973428,104.789159242413 129.75956321996637,98.95587112108478 125.34049794031307,94.94984770251904 123.48926789057441,91.71689848945243 122.59351141494699,83.21275951695861 127.01257669483311,75.97361124877352 133.46202331897803,72.88113494071877 141.64326579659246,73.86510627390817 147.31639014184475,78.7849405570305 149.406488585053,84.54812755878083 148.9287517981138,90.45182702160673 146.30119946948253,95.23097295983462 142.59873937047087,98.46390466514276 142.35987097676843,104.226916887681 138.65741087775677,104.789159242413 130.53588549909182,104.64859869936481 129.81928031845018,99.02615201310255 125.22106374357827,94.87956636905437 122.77266271039844,89.88957224384649 123.19068239885382,81.38540932221804 127.72918187524192,75.41134392551612 133.04400363052264,72.95141865679761 139.7920357468538,73.16226975951577 143.97223263327032,75.05992660083575 147.01780465012416,78.36324193736073 149.46620568353683,84.40756263118237 148.809317601379,90.87351778487209 146.48035076470114,94.94984770251904" stroke="#4dd2ff" stroke-dasharray="none" stroke-linecap="round" stroke-linejoin="round" stroke-width="0.5"><title>2025-11-01 10.0km</title><desc>1761964262000</desc></polyline><polyline fill="none" opacity="1" points="182.50312901637517,95.4914717071224 178.79262189939618,98.59056286723353 178.1343061204534,104.64783476461889 166.76339721377008,105.0 165.8656938788481,99.22446605801815 160.59916764847003,94.01235481031472 158.38483275612816,87.88454896968324 158.9234547568485,81.75668538460741 161.67641165014356,77.3896668998641 165.14753121114336,74.50178372766823 171.730688999407,72.59999999997672 177.1169090080075,73.58611077530077 180.4084879020229,75.347019154171 184.77731079794466,81.40450756181963 185.615167243639,87.67324429034488 183.7599136850331,93.73061787732877 178.4933874544222,99.01316506305011 178.19415300968103,104.64783476461889 166.52400965755805,104.78870088176336 165.62630632333457,98.94273138290737 161.25748342717998,95.20973541471176 159.4022298688069,91.75845592742553 158.62422031210735,83.72887766791973 162.15518676210195,77.03748671192443 168.1997225494124,73.37480144936126 175.02226789365523,73.16349205473671 181.24634434771724,76.33312576363096 184.83715768670663,81.75668538460741 185.6750141326338,87.88454896968324 183.7599136850331,93.66018362500472 178.61308123264462,98.52012914128136 178.07445923192427,104.71826782717835 166.58385654678568,104.85913392872317 165.8656938788481,99.01316506305011 159.7613112027757,92.67410329089034 158.3249858673662,86.12367454194464 158.9833016458433,82.03842750558397 161.01809587143362,78.4462063194951 166.10508143506013,74.07916560216108 173.4064018910285,72.7408730594907 180.7675692359917,75.98094500350999 185.07654524268582,82.67234683124116 185.615167243639,88.16628843580838 183.22129168431275,94.29409162147203 178.61308123264462,98.59056286723353 177.83507167571224,104.85913392872317 166.6437034360133,104.85913392872317 166.0452345458325,98.94273138290737 161.79610542813316,95.42103764554486 159.3423829798121,91.26541450544028 158.68406720086932,83.09495937189786 162.8135025408119,76.26268962683389 168.85803832835518,73.09305557474727 176.51844011829235,73.44523789884988 182.20389457186684,77.6009749211953 185.19623902067542,83.79931299586315 185.37577968765981,88.87063656689133 183.5803730180487,93.87148635915946 178.55323434364982,98.87229769519763 178.3138467874378,104.43653553206241 177.53583723097108,104.78870088176336 166.58385654678568,104.85913392872317 165.62630632333457,98.87229769519763 161.5567178723868,95.42103764554486 159.3423829798121,91.4767180174822 158.68406720086932,83.30626553931506 162.69380876305513,76.4739980144077 169.33681344008073,73.09305557474727 177.23660278576426,73.6565472020884 182.1440476826392,77.3192308775615 185.25608590967022,83.72887766791973 185.31593279889785,89.64541862957412 182.80236346134916,94.99843311542645 178.67292812140658,98.80186399974627 178.07445923192427,104.64783476461889 166.58385654678568,104.85913392872317 165.92554076807573,99.1540324006346 161.73625853913836,95.28016949928133 159.3423829798121,91.4767180174822 158.86360786808655,82.88365313597023 162.51426809607074,76.82617850753013 169.8155885518063,72.88174608844565 177.47599034174345,73.51567434088793 182.3834352386184,77.3896668998641 185.31593279889785,83.65844233217649 185.25608590967022,89.7158533167094 183.4606792400591,94.082789024862 178.55323434364982,99.01316506305011 178.79262189939618,104.22523623052984 179.33124390011653,99.29489970766008 184.0591481300071,94.36452580534387" stroke="#4dd2ff" stroke-dasharray="none" stroke-linecap="round" stroke-linejoin="round" stroke-width="0.5"><title>2025-10-27 10.0km</title><desc>1761565093000</desc></polyline><polyline fill="none" opacity="1" points="34.29665535967797,115.2613212520373 39.33397964737378,120.56950381177012 41.208332870621234,126.01551523030503 40.73974456475116,131.1857361139264 39.33397964737378,134.77039793820586 34.238081821240485,139.8716126490035 34.238081821240485,145.0417209767038 22.75766832823865,145.5242622778169 21.93763879314065,139.8716126490035 17.193182196468115,135.3908181276638 14.850240666884929,130.35850359499454 14.791667129145935,124.42997241084231 17.661770502338186,118.57032336958218 24.397727398667485,114.43406803434482 32.77374336565845,114.7098192262929 35.52669966244139,116.15751102444483 38.689670726656914,119.60438300308306 41.26690640882589,126.08445178507827 39.68542087660171,133.8742343748454 34.29665535967797,139.66480744245928 34.120934744831175,145.0417209767038 22.64052125182934,145.5242622778169 21.879065254703164,139.8716126490035 17.896064655156806,136.3559149976354 15.025961281964555,130.9789280850673 14.96738774352707,123.80954153672792 17.427476349286735,119.19075935147703 23.694844939978793,114.84769477765076 30.313654760131612,114.36513021780411 34.99953781836666,116.08857339440146 37.40105288568884,118.08776163251605 41.26690640882589,125.0504026801791 41.14975933264941,129.66914234112483 39.80256795324385,133.94317007844802 34.29665535967797,139.66480744245928 34.120934744831175,145.1106554706348 23.050536019261926,145.66213115368737 21.761918178293854,139.94054770306684 17.72034404031001,136.3559149976354 14.73309359070845,129.46233381942147 15.20168189657852,123.53379428759217 17.60319696413353,118.91501010087086 24.33915386046283,114.57194364524912 32.656596289016306,114.91663254209561 35.819567353697494,116.3643238695804 37.92821472976357,118.63926073070616 41.091185794211924,125.46402252378175 41.0326122562401,130.15169529715786 39.62684733862989,134.21891281782882 34.238081821240485,139.8716126490035 34.120934744831175,145.1106554706348 22.87481540464796,145.59319671947742 22.05478586931713,140.28522286075167 16.373152661137283,134.2878484839457 14.674520052503794,129.5312700009672 15.55312312580645,121.81037127238233 17.544623425696045,118.98394742462551 24.514874475076795,114.57194364524912 30.665095989359543,114.50300584349316 36.81531750364229,117.4673245754093 40.91546517959796,124.2231621867395 41.091185794211924,130.01382306136657 38.923964879941195,135.25294702651445 34.41380243585445,139.52693726751022 34.06236120639369,145.17958995705703 22.933388942852616,145.79999999998836 22.05478586931713,140.21628784399945 17.60319696413353,136.0112377119367 15.143108358373865,131.11680011166027 15.025961281964555,124.56784585630521 17.48604988749139,119.19075935147703 22.75766832823865,115.2613212520373 28.79074276611209,114.22725456190528 35.58527320064604,116.3643238695804 40.03686210606247,121.67249722970882 41.325479947263375,126.2223248720984 40.79831810318865,131.39254407555563 38.98253841814585,135.25294702651445 34.355228898115456,139.52693726751022 34.17950828326866,145.2485244361451 22.64052125182934,145.38639337191125 21.996212330879644,139.94054770306684 17.896064655156806,136.2869795554434 15.55312312580645,132.49551873654127 14.73309359070845,124.77465596864931 17.83749111695215,118.70819808449596 20.649020951939747,116.3643238695804 25.51062462478876,114.43406803434482 33.35947874793783,115.19238352507818 36.58102335035801,117.39838708745083 38.98253841814585,120.50056665955344 39.86114149168134,119.53544574638363 35.29240550962277,115.05450804851716 29.37647814839147,113.40000000002328 22.581947713624686,114.43406803434482" stroke="#4dd2ff" stroke-dasharray="none" stroke-linecap="round" stroke-linejoin="round" stroke-width="0.5"><title>2025-10-19 10.0km</title><desc>1760866141000</desc></polyline><polyline fill="none" opacity="1" points="75.42567509738728,134.5060652345419 70.3875821409747,139.44718577654567 70.0876956556458,144.95296168123605 58.57205461268313,145.58824052341515 57.55244056158699,139.37659860408166 51.554710851749405,132.88254602259258 50.295187612762675,126.03548571886495 53.41400706209242,118.27069111017045 59.83157785166986,114.10589951806469 67.02885350352153,113.75294985453365 73.44642429309897,117.2824378865771 76.98508482216857,123.0707568777143 77.4649031991139,128.92961276887218 75.24574320623651,134.92959132033866 70.50753673561849,139.2354242358124 69.84778646728955,145.3764809782151 58.512077315477654,145.4470675008488 57.79234975017607,139.9412957703462 53.77387084439397,136.34134295181138 51.25482436618768,132.10607888293453 50.535096800886095,124.12959015497472 54.0737573299557,117.70597516588168 61.2710329820402,113.54117996484274 68.16842214833014,114.0353096005856 74.10617456166074,117.9883331990568 77.34494860493578,123.91782363713719 77.52488049608655,129.35314247873612 75.48565239435993,134.6472406272078 70.44755943841301,139.51777294132626 70.14767295285128,145.3764809782151 58.452100018272176,145.4470675008488 57.79234975017607,140.15305708145024 53.41400706209242,135.84723022859544 50.535096800886095,130.2707892387989 50.834983286680654,122.01192188006826 54.01378003298305,117.42361701047048 56.35289461980574,115.72946550755296 63.31026108330116,113.39999999996508 70.5675140323583,115.16474736132659 74.16615185840055,118.05892268836033 76.9251075249631,122.29427804768784 77.34494860493578,130.34137739764992 75.48565239435993,134.78841598896543 70.62749132956378,139.58836009859806 70.50753673561849,145.164721364039 59.83157785166986,145.79999999998836 58.452100018272176,145.4470675008488 57.6124178590253,139.72953439014964 53.17409787350334,135.35311713069677 50.4151422069408,129.42373073700583 50.2352103155572,124.62371176225133 53.41400706209242,118.27069111017045 55.99303083727136,115.94123468635371 60.67126001091674,113.89412974292645 67.74858106859028,113.89412974292645 72.96660591638647,116.85890033218311 77.4649031991139,124.05900132335955 76.9251075249631,131.32961081835674 75.24574320623651,134.92959132033866 70.3875821409747,139.16483704023995 70.20765024982393,145.164721364039 58.81196380103938,145.51765401603188 57.55244056158699,139.65894724824466 52.15448382287286,134.15312661946518 50.35516490996815,129.56490723026218 50.535096800886095,123.84723478276283 53.05414327932522,118.76481715991395 55.933053540298715,115.94123468635371 60.13146433723159,113.96471967548132 67.62862647441216,113.96471967548132 73.98621996701695,117.77656468586065 77.7647896844428,125.82371982041514 75.66558428574353,134.43547752685845 70.50753673561849,138.95307540812064 70.32760484423488,145.164721364039 58.3921227210667,145.51765401603188 57.67239515599795,139.9412957703462 52.334415714256465,134.3648898114334 50.35516490996815,128.85902445705142 51.25482436618768,121.87074375041993 54.373643815517426,117.3530274523655 59.231804880546406,114.2470793298562 66.90889890957624,113.68235989898676 71.46717348904349,115.72946550755296 75.54562969179824,119.89424672356108 77.4049259016756,125.11783299490344 77.34494860493578,129.91784833010752 75.00583401764743,135.14135426015127 70.44755943841301,139.3060114235268 70.5675140323583,144.81178852106677 71.28724159765989,139.80012152454583 74.58599293837324,136.90604274795623" stroke="#4dd2ff" stroke-dasharray="none" stroke-linecap="round" stroke-linejoin="round" stroke-width="0.5"><title>2025-10-16 10.0km</title><desc>1760611285000</desc></polyline><polyline fill="none" opacity="1" points="111.58182807080448,119.75166740478016 113.70415258663706,125.67507733363891 112.30948219052516,133.31120191910304 106.30633570346981,139.80540646257577 106.24569785990752,145.37181655596942 94.60323194577359,145.72863611206412 93.81493998249061,140.01950002816739 88.4181719282642,134.80987018719316 86.2958474131301,129.3147365388577 86.6596744726412,122.96316132496577 90.05539369792677,117.467928871396 97.33193489443511,113.40000000002328 104.18401118763722,113.89957156503806 109.8233306154143,117.25382797810016 113.58287689997815,125.10414857516298 112.49139572051354,132.95437563839369 106.48824923345819,139.5199482673197 106.24569785990752,145.37181655596942 94.54259410244413,145.79999999998836 93.69366429606453,140.01950002816739 88.60008545848541,135.02396537578898 86.41712309955619,129.8142960369587 86.59903662954457,123.24862669373397 90.29794507101178,116.9683600118151 98.05958901392296,113.40000000002328 106.06378433015198,114.25640816544183 112.18820650409907,120.60806731425691 113.52223905664869,125.46097910718527 112.18820650409907,133.45393237710232 106.3669735470321,139.5199482673197 106.3669735470321,145.2290886795381 94.60323194577359,145.72863611206412 93.81493998249061,140.162229032896 88.05434486898594,134.16758420394035 86.41712309955619,129.38610220473493 86.6596744726412,123.03452767874114 90.11603154125623,117.32519494998269 97.15002136444673,113.54273477132665 105.45740589732304,114.25640816544183 110.67226042156108,118.18159801344154 113.58287689997815,125.24688081117347 112.24884434742853,133.45393237710232 106.48824923345819,139.59131282765884 106.18506001704372,145.44318048283458 94.60323194577359,145.72863611206412 93.69366429606453,139.87677099218126 88.53944761515595,134.66714002302615 86.2958474131301,129.24337086523883 86.53839878621511,123.46272563905222 88.66072330181487,118.82389958039857 95.75535096833482,113.97093890060205 103.15316785150208,113.61410214554053 106.67016276344657,114.82734632404754 110.06588198826648,117.75339662085753 113.58287689997815,125.38961301627569 113.46160121355206,129.67156479042023 112.00629297411069,133.81075838720426 106.4276113898959,139.80540646257577 106.3669735470321,145.44318048283458 94.66386978887022,145.79999999998836 93.81493998249061,140.09086453425698 89.14582604821771,135.66625052440213 86.3564852559939,129.74293041747296 86.6596744726412,122.74906221742276 89.75220448151231,117.75339662085753 96.84683214779943,113.61410214554053 104.91166530735791,114.04230622830801 110.36907120491378,118.1102311341092 113.46160121355206,125.17551469715545 112.37012003408745,132.88301035913173 109.70205492828973,136.8794540964882 106.4276113898959,139.66267738031456 106.4276113898959,145.2290886795381 94.66386978887022,145.72863611206412 93.63302645273507,139.80540646257577 88.72136114514433,135.16669546306366 86.41712309955619,129.8142960369587 87.02350153261796,121.2503665155964 89.44901526486501,118.1102311341092 97.02874567802064,113.54273477132665 104.85102746402845,113.97093890060205 110.67226042156108,118.4670654538204 113.34032552689314,124.39048693160294 112.79458493716083,131.74116483924445 110.18715767515823,136.2371701306547 106.4276113898959,139.44858369918074" stroke="#4dd2ff" stroke-dasharray="none" stroke-linecap="round" stroke-linejoin="round" stroke-width="0.5"><title>2025-10-08 10.1km</title><desc>1759919017000</desc></polyline><polyline fill="none" opacity="1" points="134.50382745126262,113.40000000002328 144.37856627255678,115.58352899178863 148.56784940930083,121.35928000847343 149.70494054607116,128.26193954172777 147.37091137026437,134.8827890245011 142.523312312318,139.46099658572348 142.3437716064509,145.30696861707838 130.61377882468514,145.5887008816935 130.0153098050505,140.16533334949054 126.18510808050632,136.64364190073684 123.49199749296531,132.55845592712285 122.59429396362975,124.6697483160533 125.8260266687721,118.11923087725881 132.1099513731897,114.24523789889645 138.33402917603962,113.75218259153189 145.45581050775945,117.13312576356111 149.16631842846982,123.2610404578736 149.52539984020405,128.75498384761158 147.7299927819986,134.24888082186226 142.46346541075036,139.6018639994436 141.9248432929162,145.37740169483004 130.67362572671846,145.72956696810434 129.8956160012167,139.95403240044834 123.49199749296531,132.84019371477189 122.53444706182927,125.5149715662701 125.76617976697162,118.40097492106725 131.93041066732258,114.31567434093449 138.21433537220582,113.75218259153189 145.27626980189234,116.92181733023608 148.98677772283554,122.69755646015983 149.5852467424702,128.6141140841646 147.37091137026437,134.8827890245011 142.46346541075036,139.7427313827793 142.04453709675,145.44783476466546 130.55393192265183,145.65913392871153 129.476687687682,139.46099658572348 125.8260266687721,136.36190576088848 123.19276298303157,132.34715250635054 122.53444706182927,125.23323060473194 125.58663906133734,118.68271884263959 128.93806557008065,115.58352899178863 131.93041066732258,114.31567434093449 139.17188580334187,113.82261908677174 146.0542795273941,117.9079227647162 148.56784940930083,121.35928000847343 149.52539984020405,128.82541871786816 147.67014587996528,134.31931509723654 142.523312312318,139.46099658572348 142.04453709675,145.37740169483004 130.79331953055225,145.79999999998836 129.8357690994162,139.81316506292205 126.60403639427386,137.41841565584764 123.91092580626719,133.61497200123267 122.47460015979595,125.65584200102603 125.10786384553649,119.24620631936705 130.91301333438605,114.667856436281 138.33402917603962,113.75218259153189 144.67780078272335,116.42876405228162 148.5080025070347,121.28884432953782 149.4655529386364,128.82541871786816 147.55045207589865,134.60105212184135 142.64300611661747,139.24969540751772 142.10438399901614,145.37740169483004 130.67362572671846,145.65913392871153 129.95546290325,140.16533334949054 124.56924172793515,134.67148635879857 122.29505945392884,126.50106396945193 123.49199749296531,121.99320077628363 126.06541427690536,117.83748671167996 130.61377882468514,114.73829283256782 134.38413364742883,113.61130957765272 139.23173270490952,114.03392852714751 144.85734148835763,116.71050882834243 148.38830870343372,121.14797294861637 149.40570603660308,129.6002017877763 147.67014587996528,134.3897493647528 142.46346541075036,139.7427313827793 141.9248432929162,145.30696861707838 130.97286023641936,145.79999999998836 129.8956160012167,139.883598735556 125.28740455117077,135.65756487747421 123.13291608123109,131.4315035562613 122.47460015979595,127.41671986220172 124.21016031620093,120.37317980808439 127.86082133511081,116.42876405228162 134.32428674562834,113.75218259153189 141.9846901949495,114.5974200325436 148.38830870343372,120.86623009521281" stroke="#4dd2ff" stroke-dasharray="none" stroke-linecap="round" stroke-linejoin="round" stroke-width="0.5"><title>2025-10-01 10.0km</title><desc>1759271073000</desc></polyline><polyline fill="none" opacity="1" points="184.88939386769198,120.86066813580692 185.79497189144604,124.98176272481214 185.67422815482132,129.67125266091898 184.34604705357924,133.43703091616044 178.61071957158856,139.40538990718778 178.42960396688432,145.3736945996061 166.8382052660454,145.72894911904586 165.57039603288285,139.6895961239934 160.92176217911765,135.2843859300483 158.7483749226667,130.87914615421323 158.20502810855396,126.2607178502949 159.59358107787557,120.93172171001788 164.72518987767398,115.38951979996637 171.72832659282722,113.39999999996508 178.3088602302596,114.67897770705167 181.20670990552753,116.66849362768698 183.92344397609122,120.29223926423583 185.73460002290085,125.62124059919734 184.70827826298773,132.37124681059504 182.47451913845725,135.99490570405032 178.61071957158856,139.1922351641697 178.48997583496384,145.0894908454502 174.32431692699902,145.6578982306528 166.41560218809173,145.5868473345763 165.69113976950757,139.90275070554344 161.16324965213425,135.63964591332478 158.56725931796245,130.95019864331698 158.86911865929142,122.77911194122862 161.10287778358907,118.65800351434154 164.2422149318736,115.74479055777192 169.85679867770523,113.54210875730496 178.3088602302596,114.67897770705167 183.92344397609122,120.07907831022749 185.6138562867418,124.83965644577984 185.4931125503499,130.02651568391593 182.95749408425763,135.71069788676687 178.61071957158856,139.5474930307828 178.06737275747582,145.44474551879102 166.53634592494927,145.5868473345763 165.8118835061323,139.90275070554344 158.9898623956833,132.44229913823074 158.20502810855396,128.17914586293045 158.7483749226667,122.85016530763824 162.49143075337633,117.23692563944496 169.67568307300098,113.61316312442068 177.46365407505073,114.46581492898986 181.75005671940744,117.45008751703426 185.25162507710047,123.7028051057714 185.5534844181966,129.74230528081534 183.01786595257,135.42648994649062 178.5503477032762,139.47644147300161 178.5503477032762,145.01843988779 177.82588528445922,145.51579643046716 166.53634592494927,145.5868473345763 165.7515116375871,139.90275070554344 161.7669683340937,136.27911339822458 159.17097800038755,132.01598505757283 158.3861437132582,124.48439061368117 162.06882767542265,117.52114146086387 169.55493933637626,113.61316312442068 178.7918351762928,114.89214041572995 183.62158463476226,119.79486359737348 185.6138562867418,125.26597519021016 185.13088134070858,131.37651341682067 182.71600661147386,135.9238537614001 178.73146330798045,139.33433833380695 178.42960396688432,145.23159273789497 174.38468879507855,145.79999999998836 166.53634592494927,145.79999999998836 165.69113976950757,139.76064765878255 161.2839933882933,135.71069788676687 158.68800305458717,130.95019864331698 158.86911865929142,122.92121866653906 163.94035559077747,115.74479055777192 169.13233625912108,113.6842174839112 174.26394505868666,113.39999999996508 177.46365407505073,114.32370637182612 182.11228792881593,117.73430324590299 185.13088134070858,123.27648534526816 185.6138562867418,129.3159894455457 183.74232837138698,134.5028132898151 178.61071957158856,139.40538990718778 178.00700088916346,145.51579643046716 166.53634592494927,145.72894911904586 165.51002416503616,139.90275070554344 161.10287778358907,135.9238537614001 159.23134986846708,132.30019447539235 158.26539997686632,125.47913445869926 161.64622459793463,118.16062660823809 165.57039603288285,115.03424884972628 170.27940175519325,113.54210875730496 174.2035731903743,113.47105438250583 178.7918351762928,114.96319463645341 184.0441877124831,120.22118562046671 185.67422815482132,125.90545278775971 184.34604705357924,133.1528219904867" stroke="#4dd2ff" stroke-dasharray="none" stroke-linecap="round" stroke-linejoin="round" stroke-width="0.5"><title>2025-09-27 10.0km</title><desc>1758965825000</desc></polyline><polyline fill="none" opacity="1" points="38.597403380787,160.2620595821645 41.43916518124752,165.0698593193083 41.37996181007475,171.20149380428484 38.1237764141988,177.2633931734017 34.334760680096224,180.81689383310732 34.393964051036164,186.46064865530934 22.553289882838726,186.46064865530934 22.079662915552035,180.6078649259871 17.99463032791391,177.4724231674336 15.093665156513453,172.5253617602284 14.916055044159293,164.3034008992836 18.46825729450211,158.58977298962418 20.954798869788647,156.0116559752496 23.914967411896214,154.89679136365885 30.900965171167627,154.89679136365885 38.597403380787,157.9626643966767 41.43916518124752,165.27889327530283 41.61677529383451,169.38988060760312 40.07748765172437,174.47632009768859 34.334760680096224,180.88657012052136 34.334760680096224,186.39097297179978 22.494086511665955,186.59999999997672 22.020459545077756,180.6078649259871 16.10012246086262,174.05825809494127 14.442428077338263,166.4634177433909 15.448885381687433,162.97951602272224 18.76427414896898,158.45041557739023 24.033374153776094,155.10582862532465 31.611405621282756,154.96647045837017 36.05165843456052,156.56908755667973 38.36058989726007,158.58977298962418 41.49836855195463,166.39373989403248 41.26155506866053,171.34084845421603 38.00536967231892,177.82080633967416 34.453167421743274,180.39883595093852 34.038743826095015,186.25162158190506 22.494086511665955,186.53032433136832 21.783646061550826,180.18980690772878 16.21852920250967,175.10341259243432 14.560834818985313,170.43504269002005 14.383224706398323,166.67245124664623 15.744902235688642,162.21305511204991 21.606035948963836,156.0116559752496 29.53928764211014,154.68775403365726 37.65014944714494,157.2658763541258 40.78792810207233,162.97951602272224 41.37996181007475,169.80794564436655 39.42625057231635,175.45179704780458 34.512370792683214,180.39883595093852 34.157150567509234,186.53032433136832 22.494086511665955,186.46064865530934 21.842849432490766,180.7472175383009 17.34339324850589,176.70597952441312 14.560834818985313,170.2956878435798 15.626495494274423,162.21305511204991 20.658782015787438,156.91748204967007 25.513458424713463,154.75743315112777 36.28847191762179,156.29037182655884 38.77501349314116,158.52009428711608 41.08394495607354,164.93050331104314 41.43916518124752,169.80794564436655 38.83421686384827,176.42727251863107 34.393964051036164,180.67754123586928 34.038743826095015,186.39097297179978 22.434883140958846,186.3212972805486 21.606035948963836,180.39883595093852 17.6986134739127,177.19371649378445 15.567292123334482,173.77954994211905 14.560834818985313,165.76663890859345 17.16578313615173,160.19238106085686 21.961256174137816,155.31486581935314 27.7631865167059,154.19999999995343 37.94616630137898,157.61427046952303 40.90633484348655,163.53694156609708 41.43916518124752,170.01697806076845 39.48545394302346,175.45179704780458 34.453167421743274,180.53818860842148 34.097947196569294,186.46064865530934 22.553289882838726,186.59999999997672 21.783646061550826,180.7472175383009 17.81702021532692,177.05436311167432 15.330478640040383,172.5253617602284 14.975258414866403,164.23372281581396 18.52746066567488,158.52009428711608 21.724442691076547,155.80261900782352 24.743814603891224,154.61807490856154 36.70289551373571,156.29037182655884 38.83421686384827,158.1717006623512 41.26155506866053,165.00018131895922 41.08394495607354,170.36536527058342 38.89342023502104,176.0092117835884" stroke="#4dd2ff" stroke-dasharray="none" stroke-linecap="round" stroke-linejoin="round" stroke-width="0.5"><title>2020-04-24 10.0km</title><desc>1587724293000</desc></polyline><polyline fill="none" opacity="1" points="72.87194839352742,158.77911443362245 69.51180847035721,156.0038974728668 63.381026855902746,154.7550459173508 56.01229895441793,157.18336615036242 53.65430602594279,159.33415638300357 50.82471451163292,165.43958608066896 50.88366433465853,170.98992621415528 53.06480779359117,176.12394801946357 58.07554276683368,180.70290572370868 59.01873993850313,186.59999999997672 70.33710599527694,185.76747233432252 70.16025652573444,180.4947719926131 75.28889114549384,175.36078521958552 76.88053637230769,170.92054725938942 76.7626367257908,165.92524276243057 74.99414202943444,161.13803939614445 69.86550740967505,155.93451689486392 66.85906642582268,154.963188012538 62.319930038414896,155.1019493714557 54.125904611544684,159.05663546861615 50.29416610277258,168.00662437040592 51.7089618598111,173.97321416332852 58.07554276683368,180.84166150685633 58.78294064546935,186.3918681849027 70.27815617248416,185.90622702043038 70.27815617248416,180.56414991052588 75.58364026155323,174.66700006724568 77.70583389699459,167.798486514017 75.05309185246006,159.75043752940837 75.70153990783729,158.9178749662242 73.1077476865612,159.33415638300357 68.98126006149687,156.42018078366527 62.37887986144051,154.7550459173508 55.187001429265365,158.01593096833676 51.06051380443387,164.53765126614599 51.65001203655265,173.97321416332852 57.898693297058344,180.70290572370868 58.37029188289307,186.2531136039761 69.8065575864166,186.04498167638667 70.21920634899288,180.21726024593227 75.1120416757185,175.56892061867984 76.99843601882458,169.53296658437466 76.23208831693046,163.98261382593773 72.8129985705018,158.43221297115088 65.62112013855949,154.963188012538 60.55143534182571,155.44885263772449 54.06695478828624,158.5015932788956 50.70681486511603,164.9539290307439 51.2373632742092,172.79377640248276 53.477456556400284,176.67897493898636 57.662894004257396,180.56414991052588 58.25239223637618,186.18373630236601 69.8065575864166,186.04498167638667 69.86550740967505,180.56414991052588 74.99414202943444,175.4301636935561 76.70368690253235,170.0186201626202 75.76048973132856,163.35819613095373 72.28245016164146,158.29345233371714 69.3349590008147,156.14265860652085 64.50107349734753,155.1019493714557 61.31778304371983,155.17133003968047 55.48175054555759,157.18336615036242 51.47316256677732,162.66439797804924 50.29416610277258,166.61903738311958 51.47316256677732,173.9038355316734 54.47960355086252,177.92778374959016 57.72184382751584,180.3560161345522 58.429241706151515,186.3224908983102 69.86550740967505,186.11435899330536 69.86550740967505,180.56414991052588 75.40679079201072,174.73637861636234 76.88053637230769,167.03531379502965 75.1120416757185,161.41555940906983 69.39390882407315,155.656994507357 64.61897314363159,154.19999999995343 55.59965019184165,157.32212702877587 51.59106221329421,163.42757590475958 50.47101557231508,167.7291072133812 51.826861506095156,174.2507286152686 57.95764312054962,180.98041725967778 58.60609117592685,186.11435899330536 70.10130670270883,185.76747233432252 70.04235687945038,180.77228361892048 75.34784096851945,174.8057571578538 76.82158654904924,166.75779621716356 74.81729255965911,161.20741941069718 70.33710599527694,156.90584430418676 63.32207703310996,154.89380732161226 54.420653727604076,157.87717024044832" stroke="#4dd2ff" stroke-dasharray="none" stroke-linecap="round" stroke-linejoin="round" stroke-width="0.5"><title>2020-04-16 10.0km</title><desc>1587033949000</desc></polyline><polyline fill="none" opacity="1" points="110.06812946638092,159.3642998174182 107.60369180631824,156.7467830958194 102.79503295617178,154.6244645389961 98.40713175619021,154.48297639004886 91.614901131019,157.312733546074 87.52754110842943,162.123292573262 86.56580933881924,170.40020091063343 89.27067994163372,176.27179023559438 94.19955526269041,181.01146841794252 94.62031291192397,186.52925939281704 105.92066120868549,186.03407492721453 106.58185180043802,181.08220962289488 110.90964476531371,176.6254987504799 113.49429889698513,170.3294585487456 113.07354124775156,164.3163297828869 109.64737181714736,158.2324019819498 107.48347533494234,156.25157604948618 102.55460001411848,154.4122323039337 97.62572469282895,154.76595265726792 90.53295288980007,157.73719606210943 87.22699993057176,163.3259267937392 86.3854846318718,167.28752973943483 87.82808228698559,174.50324478914263 94.07933879131451,180.65776227868628 95.10117879672907,186.52925939281704 106.34141885815188,186.10481558809988 106.52174356509931,180.44553850317607 111.51072712149471,175.493630829209 113.6145153681282,169.83426180080278 112.8331083052326,163.89187154272804 108.3249906336423,157.38347731815884 101.65297647961415,154.5537204684806 92.27609172277153,156.7467830958194 87.82808228698559,162.264779066958 86.5057011032477,166.79233068518806 87.1067834594287,172.45172607182758 90.17230347590521,177.40365680819377 94.19955526269041,180.86998598527862 94.92085409001447,186.59999999997672 106.46163532929495,186.10481558809988 106.52174356509931,180.37479722936405 111.99159300653264,174.92769613309065 113.6145153681282,169.05609472462675 113.07354124775156,164.599301789538 110.36867064470425,159.50578690925613 105.80044473754242,155.7563686275971 102.61470824945718,154.4122323039337 97.02464233688079,154.9781847773702 90.53295288980007,157.59570858738152 87.04667522385716,164.17484373331536 86.44559286767617,168.5608970115427 87.7078658156097,174.36176094657276 94.13944702711888,180.65776227868628 94.62031291192397,186.3877781551564 106.64196003624238,185.75111220683903 106.58185180043802,180.30405594746117 111.75116006401367,175.35214720113436 113.4341906614136,169.7635193777387 112.77300006942824,163.4674130267813 107.78401651280001,157.38347731815884 102.19395060022362,154.20000000001164 96.90442586573772,155.11967281921534 90.53295288980007,158.0201709193061 87.28710816637613,163.60889922943898 86.5057011032477,170.0464890244766 89.09035523491912,176.059565034986 94.01923055551015,180.79924475745065 94.74052938329987,186.59999999997672 106.64196003624238,185.96333425852936 106.64196003624238,180.44553850317607 111.51072712149471,175.63511442678282 113.55440713278949,169.4098071468179 112.65278359828517,163.60889922943898 109.0462894611992,158.2324019819498 102.55460001411848,154.6244645389961 96.78420939436182,154.83669670502422 89.63132935529575,158.51537662488408 86.5057011032477,167.3582724306616 88.12862346484326,174.57398669893155 94.01923055551015,180.58702102774987 94.68042114772834,186.3170375250047 106.28131062258035,186.24629688687855 106.52174356509931,180.65776227868628 111.39051065035164,175.63511442678282 113.37408242560923,168.98535221698694 111.93148477072828,162.0525493149762 107.00260944990441,156.534551550576 102.43438354274258,154.6244645389961 99.3688635258004,154.6244645389961 95.76236938871443,155.33190482424106 90.7132775967475,158.0201709193061 87.52754110842943,162.8307247357443" stroke="#4dd2ff" stroke-dasharray="none" stroke-linecap="round" stroke-linejoin="round" stroke-width="0.5"><title>2020-04-14 10.0km</title><desc>1586861907000</desc></polyline><polyline fill="none" opacity="1" points="142.10775266750716,155.88315680908272 136.50649656238966,154.4805264386814 132.15658490662463,155.25197351846145 125.89986266172491,158.2676214647363 123.15882244007662,164.71965826820815 123.21841027098708,170.5404623899376 125.1848086907994,175.65992155857384 130.3689499795437,180.56895397795597 130.905240457505,186.24935932742665 142.346103991149,185.9688466525986 142.52486748388037,180.28843884228263 147.11313046352006,175.87030942575075 149.2582923762966,170.96124138252344 148.54323840513825,163.4573083005962 144.4912659036927,157.4260467067361 136.9236113789957,154.6207896124688 131.8586457518395,155.39223652513465 126.07862615445629,158.05722787766717 122.98005894734524,165.63135393633274 123.575937256217,172.01318766799523 125.72109916899353,176.29108495463151 130.1901864868123,180.49882520537358 131.0244161193259,186.59999999997672 142.40569182229228,185.82859026972437 142.6440431457013,180.1481812290731 147.29189395625144,175.51966294273734 149.61581936152652,169.13786377263023 149.01994105242193,164.2287446843693 145.50425902893767,158.1273590810597 138.71124630584382,154.83118431613548 132.63328755367547,155.18184200365795 125.95945049240254,158.2676214647363 122.38418063847348,165.07031060010195 122.68211979279295,170.40020266489591 124.0526399037335,173.83655718073715 130.24977431748994,180.49882520537358 130.4881256413646,186.10910300520482 142.346103991149,185.82859026972437 142.4652796529699,180.56895397795597 147.8877722651232,174.74824001156958 149.31788020697422,169.48851371189812 148.90076539083384,164.64952777908184 144.43167807278223,157.00525891734287 138.8900097985752,154.76105275575537 132.15658490662463,155.11171048140386 126.37656530877575,157.77670298877638 122.50335630006157,166.96382991119754 124.41016688919626,174.25733403133927 130.1901864868123,180.70921150024515 130.54771347204223,186.10910300520482 142.10775266750716,185.89871846488677 142.346103991149,180.358567637566 146.99395480146632,175.65992155857384 149.13911671424285,170.47033253114205 148.7815897287801,164.01835303445114 144.9083807200659,157.98709666670766 138.53248281311244,154.6207896124688 130.96482828841545,155.74289390875492 125.89986266172491,158.1273590810597 122.44376846915111,166.75343915011035 123.87387641100213,173.76642767892918 130.07101082475856,180.63908274279675 130.54771347204223,185.89871846488677 142.52486748388037,185.75846206693677 142.4652796529699,180.1481812290731 147.47065744875,174.95862817479065 149.31788020697422,169.48851371189812 148.662414067192,163.73783072835067 144.1933267491404,157.4260467067361 135.13597645168193,154.19999999995343 128.22378806676716,156.3740767207346 123.81428857985884,162.33521737443516 122.62253196188249,167.3846112282481 123.09923460916616,172.15344704379095 124.41016688919626,174.67811060859822 130.1901864868123,180.49882520537358 130.72647696500644,186.17923117004102 142.2269283295609,185.89871846488677 142.2269283295609,180.07805241068127 146.51725215441547,176.3612141829799 149.13911671424285,169.41838373919018 148.06653575785458,162.40534811420366 142.6440431457013,156.1636825183523 134.71886163554154,154.4805264386814 126.13821398536675,157.70657174749067" stroke="#4dd2ff" stroke-dasharray="none" stroke-linecap="round" stroke-linejoin="round" stroke-width="0.5"><title>2020-04-13 10.0km</title><desc>1586775592000</desc></polyline><polyline fill="none" opacity="1" points="176.22363349492662,155.20134831039468 167.65482309437357,154.55762457085075 162.85385840199888,156.7748925872147 158.72138246381655,161.92464763880707 157.44517665961757,165.71541388874175 157.8098068893887,172.00946827844018 161.03070725267753,177.23062696354464 164.9200963708572,180.73521717317635 165.71012853528373,186.31391424132744 176.40594861004502,186.02782835863763 177.439067594707,185.16956996667432 177.439067594707,180.37760677945334 182.30080399219878,174.87038225971628 184.06318343617022,171.22271476051537 184.48858537105843,162.56836419651518 183.51623809128068,159.56434822571464 186.79791016015224,154.9867738003959 185.5217043554876,156.70336792862508 181.45000012242235,158.56300653168 174.03585211606696,154.62914946186356 167.04710604483262,155.12982348148944 161.9422828273382,157.70471244258806 158.05289370915852,163.28360407991568 157.87057859427296,171.79489923006622 160.11913167848252,176.01474438188598 164.98086807574145,180.73521717317635 165.52781342039816,186.45695713622263 176.64903542981483,185.95630686869845 177.439067594707,180.23456256790087 182.30080399219878,175.4425635689404 184.36704196128994,170.50748347624904 184.06318343617022,164.35646245250246 181.20691330265254,158.8491043136455 174.27893893630244,154.62914946186356 167.41173627460375,154.84372408821946 160.96993554802611,158.56300653168 158.41752393892966,162.7829362428747 157.44517665961757,166.64522115478758 158.47829564404674,173.65449533215724 160.05835997336544,176.58692469913512 164.73778125597164,180.6636951099499 165.46704171574675,186.45695713622263 176.64903542981483,186.02782835863763 177.5606110044755,180.09151832497446 181.5715435326565,176.51540218672017 183.75932491128333,172.7246979357442 184.42781366594136,166.931315434922 182.84774933662266,160.92330952425255 179.2622187435627,156.91794188081985 173.06350483675487,154.62914946186356 166.56093240482733,155.20134831039468 161.57765259733424,158.06233511527535 159.14678439870477,160.9948337257374 157.262861544732,166.931315434922 157.44517665961757,170.36443712643813 159.57218633359298,176.08626694855047 164.7985529608559,180.87826127634617 165.34549830574542,186.38543569255853 176.8313505447004,186.0993498408352 177.62138270935975,180.23456256790087 182.42234740196727,175.4425635689404 184.24549855128862,171.4372839947464 184.36704196128994,165.21474789554486 182.84774933662266,160.8517853152007 177.0136656598188,155.8450714223436 170.1464629981201,154.55762457085075 162.9146301066503,156.7748925872147 158.47829564404674,162.13921989448136 157.38440495473333,165.21474789554486 157.5667200696189,171.15119166695513 160.30144679313526,176.87301467201905 164.55546614108607,180.73521717317635 165.46704171574675,186.59999999997672 177.19598077470437,185.95630686869845 177.25675247982144,180.52065096021397 182.84774933662266,174.5842914194218 184.36704196128994,169.0770185837755 182.96929274662398,161.71007531374926 180.41688113776036,157.99081059650052 176.95289395470172,155.34439794509672 169.9033761783503,154.27152492961613 162.6715432871133,156.91794188081985 158.47829564404674,162.2107439643005 157.20208983961493,167.5750271116849 159.20755610382184,175.15647297620308 164.85932466574013,180.6636951099499 165.34549830574542,186.45695713622263 177.07443736493587,185.95630686869845 177.25675247982144,180.59217303886544 183.0908361566253,174.5842914194218 184.61012878082693,168.86244858271675 182.72620592685416,161.13788210536586 177.1352090695873,155.70202189608244 170.450321523007,154.20000000001164 167.29019286460243,154.84372408821946 163.21848863153718,156.70336792862508 160.17990338313393,159.49282386928098 157.9921220045071,163.21208012645366" stroke="#4dd2ff" stroke-dasharray="none" stroke-linecap="round" stroke-linejoin="round" stroke-width="0.5"><title>2020-04-12 10.0km</title><desc>1586649823000</desc></polyline><polyline fill="none" opacity="1" points="40.870971475262195,204.4677001327509 41.88396460074,210.7092933881795 38.725809562718496,217.79237689549336 34.49507356877439,221.4390827428433 33.958783090580255,227.25974375376245 22.51791955670342,227.0493593274732 21.922041247598827,221.0884388423292 16.559136466355994,216.5300508553628 14.354386722901836,211.05994290974922 15.724906833609566,202.85469433903927 20.96863595326431,196.5428939088015 25.08019628562033,195.0 34.73342489218339,196.47276244714158 38.725809562718496,199.20788381790044 41.40726195345633,206.4313539363793 41.28808629186824,212.0417605591938 39.02374871727079,216.95082647533854 34.31631007604301,221.29882520542014 33.899195259436965,227.18961561913602 22.45833172579296,227.11948747711722 21.80286558577791,221.22869642538717 17.035839113639668,217.09108495467808 14.890677201095968,213.65474346565315 14.175623230170459,207.48330888117198 17.57212959160097,200.18971944064833 21.80286558577791,196.61302536266157 28.83422963274643,195.0 37.534052944974974,198.01565284619574 40.870971475262195,204.95861414191313 41.586025446420535,210.07812377100345 39.500451364554465,215.9690162697807 34.19713441398926,221.57934024976566 34.25672224489972,227.18961561913602 22.33915606397204,227.11948747711722 21.80286558577791,221.22869642538717 16.2611973118037,216.60018014430534 14.592738046543673,213.30409534962382 14.175623230170459,207.7638299112441 15.069440693827346,203.5560016995878 21.02822378417477,196.7532882479718 25.437723271083087,195.07013162097428 33.42249261238612,196.4026309780893 38.54704607021995,199.62867069570348 41.34767412254587,206.01057147973916 41.46684978436679,210.2885137119447 39.32168787182309,216.5300508553628 34.4354857376311,221.4390827428433 34.13754658331163,227.18961561913602 22.33915606397204,227.18961561913602 21.68368992418982,221.22869642538717 16.91666345181875,217.16121418302646 14.83108937018551,213.30409534962382 14.473562384722754,205.8703106001485 17.57212959160097,200.18971944064833 21.206987276906148,196.82341967901448 23.88843966764398,195.77144741395023 30.621864559594542,195.42078961251536 37.414877282688394,198.01565284619574 41.22849846072495,205.30926677776733 41.40726195345633,210.56903352646623 38.96416088636033,217.16121418302646 34.4354857376311,221.15856763761258 34.13754658331163,226.9792311700876 22.39874389511533,227.40000000002328 21.62410209304653,221.0884388423292 16.618724297266454,216.7404386997223 14.83108937018551,213.3742249882198 14.11603539926,206.0807019083295 17.51254176115617,200.18971944064833 21.08781161508523,196.82341967901448 24.126790991285816,195.56105275580194 28.65546614001505,195.1402632345562 35.86559367948212,196.6831568091293 38.60663390113041,199.13775264535798 41.40726195345633,207.2729180289316 41.28808629186824,212.18202010192908 38.90457305521704,217.16121418302646 34.614249230362475,221.36895397800254 34.31631007604301,227.25974375376245 22.39874389511533,227.25974375376245 21.62410209304653,221.29882520542014 17.274190437281504,217.9326351924683 14.592738046543673,213.86513224436203 14.413974553812295,205.73004969005706 17.095426944550127,200.40011259459425 22.219980402383953,196.19223652518122 27.94041216908954,195.0 30.9198037146125,195.42078961251536 35.925181510159746,197.24420810642187 38.48745823907666,199.27801498339977 41.16891063004732,205.58978874969762 41.22849846072495,212.18202010192908 38.96416088636033,216.8806972243474" stroke="#4dd2ff" stroke-dasharray="none" stroke-linecap="round" stroke-linejoin="round" stroke-width="0.5"><title>2020-04-08 10.0km</title><desc>1586343893000</desc></polyline><polyline fill="none" opacity="1" points="77.40725904935971,205.94044104387285 77.5264346851036,210.49890358449193 74.84498287527822,217.371601822495 70.43548434367403,221.36895397817716 70.19713307148777,227.25974375376245 58.45833292626776,227.18961561931064 57.743279110174626,220.94818122911965 53.393368396675214,217.44173102028435 50.77150440472178,213.16383605031297 50.53315313300118,207.34304832079215 51.844085128745064,202.57417118223384 57.206988748395815,196.9636825186899 62.33154109609313,195.21039484045468 67.03897871798836,195.70131586893694 73.29569960734807,198.57670298905578 76.27509050699882,204.1871776750777 77.5264346851036,210.56903352664085 74.78539505717345,217.58198939316208 70.37589652556926,221.43908274295973 70.137545253383,227.32987188058905 58.577508562244475,227.11948747711722 58.10080601833761,221.43908274295973 52.67831458058208,216.3196629427839 50.473565314896405,211.05994290980743 50.831092222826555,205.23913626605645 53.45295621454716,200.04945730004692 57.206988748395815,196.75328824785538 59.769264922244474,195.84157895151293 67.57526907976717,195.70131586893694 73.11693615349941,198.43644049891736 77.3476712310221,206.22096274257638 76.75179305113852,213.72487306647236 74.18951687752269,218.2131516954978 70.37589652556926,221.50921150034992 70.37589652556926,227.18961561931064 58.69668419845402,227.32987188058905 57.98163038236089,221.43908274295973 52.14202421857044,215.54824001179077 50.23521404294297,208.53526211722055 51.78449731087312,202.78456356137758 57.0878131124191,196.5428939088597 63.88082436379045,195.0 71.92517979326658,197.45460221765097 74.54704378498718,200.11958837427665 77.58602250297554,207.34304832079215 76.6326174151618,213.72487306647236 73.77240215125494,218.49366807664046 70.61424779775552,221.36895397817716 70.25672088982537,227.18961561931064 58.45833292626776,227.25974375376245 57.862454746384174,221.29882520559477 52.380375490756705,216.5300508555374 50.294801860814914,210.49890358449193 51.18861913098954,204.2573083008756 57.26657656626776,196.47276244743261 63.88082436379045,195.21039484045468 72.1039432475809,197.10394532763166 75.4408610551618,201.7326009819517 77.70519813918509,207.9040903808782 77.7647859568242,211.1300727914204 76.21550268935971,215.40798119833926 70.43548434367403,221.29882520559477 70.43548434367403,227.18961561931064 58.87544765253551,227.40000000002328 57.80286692851223,221.71959772659466 52.380375490756705,216.3897922548931 50.35438967891969,211.48072208481608 50.53315313300118,205.6599192240392 53.2741927606985,200.75076769926818 57.862454746384174,196.5428939088597 62.92741927620955,195.35065802949248 66.97939089988358,195.63118431624025 73.17652397137135,198.22604670672445 76.51344177918509,204.11704704142176 77.28808341315016,212.0417605593684 75.67921232734807,216.3897922548931 70.55465997965075,221.22869642550359 70.37589652556926,226.90910300525138 59.232974560465664,227.40000000002328 58.45833292626776,226.97923117032042 57.80286692851223,221.50921150034992 53.750895304838195,218.2131516954978 50.77150440472178,212.95344704389572 50.294801860814914,207.76382991136052 51.54614603891969,203.20534811442485 57.206988748395815,196.5428939088597 60.126791830174625,195.35065802949248 67.39650562568568,195.70131586893694 71.8060041575227,197.38447085494408 75.67921232734807,201.87286275811493 77.40725904935971,207.62356941157486 76.81138086901046,213.51448424247792 73.89157778723165,218.28328080213396" stroke="#4dd2ff" stroke-dasharray="none" stroke-linecap="round" stroke-linejoin="round" stroke-width="0.5"><title>2020-04-07 10.0km</title><desc>1586257895000</desc></polyline><polyline fill="none" opacity="1" points="113.55622859415598,207.34304832079215 113.19870168622583,212.81318766821641 110.57683769403957,217.86250604793895 106.70362952444702,221.08843884267844 106.40569043462165,227.25974375376245 94.78606592537835,226.97923117032042 94.01142429141328,221.43908274295973 89.54233794170432,217.72224773583002 87.03964958596043,212.67292826238554 86.68212267779745,207.27291802910622 89.78068921389058,199.90919512906112 93.83266083756462,195.98184200387914 97.34834209899418,195.07013162126532 103.24753608065657,195.63118431624025 109.02755442610942,198.22604670672445 113.37746514007449,207.06252710858826 112.66241132421419,214.14565050962847 109.98095951415598,218.2131516954978 106.64404170680791,221.15856763790362 106.70362952444702,226.97923117032042 94.96482937922701,227.32987188058905 93.89224865543656,221.43908274295973 88.41016939980909,215.89888691261876 86.74171049613506,211.48072208481608 87.15882522193715,205.02874468441587 89.89986484963447,199.90919512906112 96.45452482928522,195.70131586893694 102.17495535686612,195.35065802949248 109.32549351640046,198.01565284631215 112.9603504142724,206.3612235459732 112.2452965984121,214.566427679325 109.56384478812106,218.9144424207625 106.70362952444702,221.29882520559477 106.34610261651687,226.83897483273176 95.1435928333085,227.40000000002328 94.24977556336671,221.71959772659466 89.4231623057276,217.65211856825044 87.03964958596043,212.53266882587923 87.15882522193715,205.02874468441587 89.4231623057276,200.610505680379 93.89224865543656,196.47276244743261 98.4209228232503,195.07013162126532 102.83042135485448,195.21039484045468 109.92137169628404,199.2780149836326 112.78158696019091,204.46770013298374 112.9603504142724,212.74305796908448 110.21931078657508,217.79237689566799 106.46527825272642,221.36895397817716 106.34610261651687,226.90910300525138 95.08400501520373,227.25974375376245 94.19018774549477,221.43908274295973 88.76769630797207,216.67030942603014 86.80129831377417,211.8313711883966 86.92047394975089,206.08070190850412 89.84027703176253,200.11958837427665 94.48812683532014,196.05197351862444 101.93660408491269,195.0 109.08714224421419,198.57670298905578 112.06653314409778,202.3637787348125 113.13911386788823,205.94044104387285 113.4370529584121,210.84955321979942 112.4836478701327,214.35603912861552 109.92137169628404,218.35340990131954 106.46527825272642,221.36895397817716 106.40569043462165,227.0493593274732 95.20318065141328,227.25974375376245 94.24977556336671,221.92998388473643 88.9464597615879,216.67030942603014 86.74171049613506,211.41059224127093 87.09923740383238,205.16900574654574 89.54233794170432,200.32998155103996 93.05801920336671,196.9636825186899 96.3353491933085,195.70131586893694 103.84341426077299,195.42078961263178 107.83579806657508,196.6831568091875 111.05354023794644,200.8208986974787 113.19870168622583,205.6599192240392 113.07952605001628,213.51448424247792 109.80219606030732,218.70405528292758 106.64404170680791,221.6494689923129 106.10775134479627,227.0493593274732 95.02441719733179,227.40000000002328 94.01142429141328,221.50921150034992 89.48275012359954,217.44173102028435 87.09923740383238,212.95344704389572 86.44377140607685,208.74565255921334 88.11223030998372,202.78456356137758 93.59430956537835,196.6831568091875 98.30174718704075,195.28052643878618 102.41330662881956,195.42078961263178 108.1933249742724,197.24420810642187 111.17271587438881,200.610505680379 113.49664077605121,207.41317860491108 113.49664077605121,211.20020266534993 111.94735750812106,215.96901627007173" stroke="#4dd2ff" stroke-dasharray="none" stroke-linecap="round" stroke-linejoin="round" stroke-width="0.5"><title>2020-04-02 10.0km</title><desc>1585825459000</desc></polyline><polyline fill="none" opacity="1" points="146.48604711634107,200.8404641750385 149.02632895298302,205.5684200609685 149.61709217075258,210.50492507388117 147.60849723010324,216.34524817607598 142.64608620060608,221.62930424476508 141.9371703392826,227.33047385379905 130.59451655694284,227.05236919398885 129.76744805206545,221.3511971150292 124.74596070079133,216.83193936938187 122.8555184036959,212.38217758014798 122.73736576014198,207.2371020593564 123.91889219591394,202.99586014804663 127.40439518075436,198.68506096419878 133.43018000246957,195.48670737765497 139.75134643306956,195.90388483623974 143.35500206192955,197.22494499967434 145.95436022034846,199.4498822867754 148.84909998741932,206.12464787560748 149.20355791854672,211.9650108308997 147.2540392994415,216.97099392849486 142.29162826994434,221.42072390887188 142.11439930461347,227.40000000002328 130.53544023493305,227.26094770012423 130.00375333894044,221.5597774737398 125.6911818489898,218.15295646281447 123.44628162146546,214.6765898547019 122.50106047280133,206.81993196636904 125.51395288365893,200.35376085684402 133.07572207180783,195.55623697297415 139.04243057174608,195.76482571370434 143.59130734903738,197.2944744065171 146.30881815077737,199.86705716967117 148.84909998741932,205.9855909672915 149.3217105618678,211.1306765191839 146.84050504676998,217.3186301937094 142.52793355681933,221.3511971150292 142.29162826994434,227.33047385379905 130.47636391362175,227.05236919398885 130.00375333894044,221.76835776440566 124.27335012634285,216.06713875720743 122.50106047280133,208.6276670776424 124.03704483923502,202.64821612572996 129.8265243738424,196.8772978517227 135.61600390844978,195.34764816466486 143.94576527969912,197.57259195914958 148.31741309165955,203.76067633420462 149.43986320542172,210.50492507388117 148.0811078043189,215.58044698397862 142.29162826994434,221.5597774737398 142.23255194793455,227.26094770012423 130.65359287895262,227.26094770012423 129.64929540874436,221.42072390887188 125.6911818489898,218.0139021599898 123.15090001258068,214.25942459655926 122.50106047280133,207.58474359626416 125.75025817099959,200.35376085684402 132.66218781960197,195.0 138.27443838864565,195.62576656066813 145.7180549330078,199.79752804117743 149.14448159653693,206.05511942517478 149.38078688364476,211.33926019904902 146.4269707945641,218.0139021599898 142.4688572352752,221.3511971150292 142.05532298260368,227.19142153899884 130.71266920072958,227.33047385379905 129.8265243738424,221.28167031379417 125.6911818489898,218.08342931501102 123.56443426501937,215.0242273627082 122.56013679481111,207.51521530392347 125.15949495323002,201.11858019110514 130.12190598272718,196.32106202375144 134.43447747267783,195.34764816466486 140.51933861640282,196.32106202375144 143.47315470548347,197.22494499967434 145.89528389833868,199.86705716967117 149.14448159653693,206.33323318196926 149.49893952719867,211.61737166624516 146.66327608167194,217.5967390705482 142.52793355681933,221.62930424476508 142.05532298260368,227.26094770012423 130.59451655694284,227.26094770012423 130.00375333894044,221.5597774737398 125.57302920566872,217.5967390705482 122.6782894381322,211.7564273547614 122.38290782948025,207.65427188121248 123.85981587390415,202.92633135861252 129.35391379962675,196.80776839965256 134.84801172534935,195.2781185467029 141.641788730165,196.73823894001544 145.95436022034846,200.07564450911013 149.20355791854672,206.68087520846166 149.3217105618678,212.1735942394007 146.36789447255433,217.944374997227" stroke="#4dd2ff" stroke-dasharray="none" stroke-linecap="round" stroke-linejoin="round" stroke-width="0.5"><title>2020-03-23 10.0km</title><desc>1584960411000</desc></polyline><polyline fill="none" opacity="1" points="188.20000000018626,197.3313022100192 186.2779661018867,196.9004174618749 185.3627118645236,199.53958068380598 180.78644067817368,201.0476676640974 174.37966101709753,204.76400534139248 176.39322033897042,208.85733063705266 176.6677966103889,213.2737754014379 175.1576271187514,217.31317224295344 171.03898305119947,221.08324635683675 171.1305084747728,225.06872219836805 162.2525423730258,225.33800995437196 161.56610169494525,220.86781432043063 158.50000000023283,218.28262260209885 156.3033898305148,214.4586685425602 155.80000000004657,211.28099420579383 156.3033898305148,207.726283595548 158.17966101691127,204.60242601993377 163.39661016943865,200.40134523264715 167.83559322054498,200.50906569621293 172.5491525423713,202.01714973614435 174.2881355935242,203.63294898875756 176.57627118658274,208.48031524245744 176.75932203419507,212.35817422225955 175.020338983275,217.36703064574976 171.31355932238512,220.652382190543 170.81016949168406,225.17643731817952 162.20677966088988,225.4995825381484 161.47457627137192,220.92167233824148 158.3627118645236,218.17490598882432 156.39491525432095,214.4586685425602 156.07457627123222,208.96504926882335 158.22542372904718,204.87172485972405 163.1677966103889,200.45520546741318 168.97966101719067,200.6706463478331 173.23559322045185,202.5018900631112 176.16440677992068,207.29540785535937 176.75932203419507,212.7351866767567 175.020338983275,217.36703064574976 171.2677966102492,220.9755303504062 171.1305084747728,225.23029486951418 162.11525423731655,225.33800995437196 161.520338983275,220.8139562966535 158.4084745766595,217.8517560091277 156.3033898305148,214.4586685425602 156.1203389831353,209.12662717269268 158.04237288143486,204.71014557336457 164.0372881356161,200.40134523264715 171.17627118667588,201.20924814071623 174.33389830519445,203.63294898875756 176.21016949159093,207.29540785535937 176.75932203419507,212.51975102329743 175.1576271187514,217.15159699923242 171.31355932238512,220.9755303504062 171.17627118667588,225.28415241482435 162.11525423731655,225.4457250161504 161.47457627137192,220.652382190543 158.04237288143486,217.52860581935965 156.4864406781271,214.78182072742493 156.16610169503838,208.42645587708103 158.27118644071743,204.60242601993377 163.21355932205915,200.778366753133 168.24745762720704,200.778366753133 172.91525423736311,202.34031000675168 174.37966101709753,203.52522920173942 176.53050847467966,208.6418933038367 176.8508474577684,212.78904557527858 174.79152542399243,217.52860581935965 171.31355932238512,221.02938835643 171.1305084747728,225.28415241482435 162.0694915256463,225.28415241482435 161.47457627137192,220.760098267172 156.6694915255066,215.05111405419302 156.02881355956197,212.68132777209394 156.21186440670863,208.1571589623345 158.50000000023283,204.3331270342169 163.80847457633354,200.9938074935926 170.12372881360352,201.37082856480265 174.51694915257394,203.686808873259 176.3016949153971,207.13382935652044 176.80508474586532,212.896763355413 174.88305084756576,217.8517560091277 171.40508474595845,220.8139562966535 171.40508474595845,225.23029486951418 161.97796610184014,225.28415241482435 161.6576271187514,220.8139562966535 157.3559322033543,216.50529549954808 155.98305084742606,213.0044811120315 156.16610169503838,207.99558074353263" stroke="#4dd2ff" stroke-dasharray="none" stroke-linecap="round" stroke-linejoin="round" stroke-width="0.5"><title>2019-12-13 10.0km</title><desc>1576239112000</desc></polyline><polyline fill="none" opacity="1" points="35.782300600607414,238.7056277733427 35.357986813236494,238.67157791445788 35.23262137605343,239.26177390159137 34.52864622877678,239.38662262672733 32.87960855505662,240.36270753142162 33.3135658375686,241.3160840092023 33.36178331350675,242.19000482703268 33.14962641970487,242.80288001355802 32.24313787394203,243.73353547941952 32.1949203981203,244.16481203900184 32.368503311183304,248.92008589961915 33.39071379892994,249.30594591289992 33.99825399456313,249.72585078371048 35.51228273590095,249.90743074732745 35.66657865856541,250.13440525947226 35.946240018471144,261.9137077740743 36.17768390249694,264.0016155883859 36.11017943639308,267.85959671583987 35.685865648963954,268.018451719312 30.758039618027397,267.9617178171029 28.848627574800048,268.1999999999971 27.72998213529354,268.07518559078744 27.45996427058708,265.953317901236 27.24780737690162,256.364663695349 23.62185319373384,255.84265261276596 23.44827028067084,255.61569046164368 22.75393862859346,255.51355733332457 22.53213823965052,254.73053337661986 22.734651638253126,254.36738984607655 22.628573191410396,254.12907622036437 21.712441150448285,253.33469355472334 20.873457070847508,253.58435732695943 20.420212797936983,253.43682880615233 20.01518600084819,252.85806106548262 19.822316097503062,252.063668766692 19.85124658298446,246.30981908628019 20.092333962151315,244.80037425998307 20.34306483657565,244.21020946833596 20.28520386555465,243.57464366793283 21.452066780882888,235.8227005292938 22.95645202707965,235.79999999999563 26.18702290841611,236.06105578997813" stroke="#4dd2ff" stroke-dasharray="none" stroke-linecap="round" stroke-linejoin="round" stroke-width="0.5"><title>2019-11-23 10.0km</title><desc>1574497580000</desc></polyline></svg>