<?xml version="1.0" encoding="utf-8" ?>
<svg baseProfile="full" height="300mm" version="1.1" viewBox="0,0,200,300" width="200mm" xmlns="http://www.w3.org/2000/svg" xmlns:ev="http://www.w3.org/2001/xml-events" xmlns:xlink="http://www.w3.org/1999/xlink"><defs /><rect fill="#222222" height="300" width="200" x="0" y="0" /><text fill="#FFFFFF" style="font-size:12px; font-family:Arial; font-weight:bold;" x="10" y="20">Over 10km Runs</text><text fill="#FFFFFF" style="font-size:4px; font-family:Arial" x="10" y="280">Runner</text><text fill="#FFFFFF" style="font-size:9px; font-family:Arial" x="10" y="290">Floyd Li</text><text fill="#FFFFFF" style="font-size:4px; font-family:Arial" x="65" y="280">SPECIAL TRACKS</text><rect fill="yellow" height="2.6" width="2.6" x="65" y="283" /><text fill="#FFFFFF" style="font-size:3px; font-family:Arial" x="70" y="285.5">Over 20.0 km</text><rect fill="red" height="2.6" width="2.6" x="65" y="287" /><text fill="#FFFFFF" style="font-size:3px; font-family:Arial" x="70" y="289.5">Over 40.0 km</text><text fill="#FFFFFF" style="font-size:4px; font-family:Arial" x="120" y="280">STATISTICS</text><text fill="#FFFFFF" style="font-size:3px; font-family:Arial" x="120" y="285">Number: 35</text><text fill="#FFFFFF" style="font-size:3px; font-family:Arial" x="120" y="290">Weekly: 1.9</text><text fill="#FFFFFF" style="font-size:3px; font-family:Arial" x="141" y="285">Total: 573.4 km</text><text fill="#FFFFFF" style="font-size:3px; font-family:Arial" x="141" y="290">Avg: 16.4 km</text><text fill="#FFFFFF" style="font-size:3px; font-family:Arial" x="167" y="285">Min: 10.0 km</text><text fill="#FFFFFF" style="font-size:3px; font-family:Arial" x="167" y="290">Max: 62.1 km</text><polyline fill="none" opacity="1" points="42.21985010217759,49.513830103831424 40.91982739037485,49.619626908781356 36.929820576886414,49.48497640790447 22.318873495358275,49.513830103831424 21.20690438337624,49.62924479389039 19.890529184631305,50.129373387222586 18.639563933684258,50.93726748320478 17.60118101295666,51.947124786012864 16.42380195320584,51.677830626111245 14.633204633195419,50.975738447632466 13.341358164907433,50.196698175452184 11.714285714289872,48.78286692273832 14.297978650924051,46.72459622313909 16.05587099705008,44.86826451194793 17.560299795586616,43.011894057934114 18.09993186464999,42.67524241592764 18.97478991598473,42.37706418319431 37.45310015894938,42.33858949970454 37.55939132408821,42.550200052945 37.58392005448695,43.53129694879317 37.49398137629032,49.49459430757997 26.913922325649764,49.4753585071885 21.20690438337624,49.61000902261003 21.21508062686189,46.11864764375059 34.32159890982439,46.07055630985997 34.11719282306149,46.243684990215115 34.23983647511341,47.330540674687654 34.084487849177094,46.2148302335554 34.30524642288219,46.08017457873939 41.23052464227658,46.08017457873939 42.1707926413801,46.09941111331864 42.33431751074386,46.25330324035167 42.30978878037422,49.3407077879674 42.57142857144936,49.552301683805126" stroke="#4dd2ff" stroke-dasharray="none" stroke-linecap="round" stroke-linejoin="round" stroke-width="0.5"><title>2026-06-07 13.9km</title><desc>1780824448000</desc></polyline><polyline fill="none" opacity="1" points="53.49899039711454,39.52366628360596 53.72642094109324,39.560881987526045 53.79983206604811,41.183062633026566 53.825741874861706,41.35389776532975 54.13809901438799,42.31798199511468 54.356892955438525,43.195754592011326 54.556974256789545,43.82149701925664 54.68652330082841,44.08024268558529 55.10539854323724,44.68903921104902 55.18600683729892,44.90211242267651 55.22487155051931,45.12532887904763 55.22918985199067,45.29443014429944 55.20040117553435,45.50749514787185 55.00031987418333,46.07903620819252 54.94130308744934,46.3681807211733 54.92834818304982,46.866984776259415 55.086685903545,48.324416449887394 55.34578399162274,49.462201335797545 55.32131361663778,49.62956542124266 55.21191664611251,49.91357312699256 55.19320400642755,50.123194572552165 55.278130601960584,51.01743532719047 55.42063455040625,51.43157497471748 55.44654435921257,51.570182544081945 55.38176983719313,52.80069376377651 55.43646832245577,52.99337499322792 55.5012428444752,53.10661636939858 55.820797153115564,53.395631710098314 55.91867865306267,53.559573725221526 55.93307299129083,53.738724902270405 55.84094922663644,54.130822249082485 55.86110130015004,54.284616386024936 55.917239219234034,54.42826889278058 55.632231322342705,54.66656015980152 55.33282908722322,54.98934612305311 55.05501835944597,55.2360785738565 54.641900852329854,55.8343042143797 54.407273139222525,56.22634936592385 54.33818031573901,56.305771116925825 54.12802297763119,56.457854202871204 54.05749072031904,56.56769107357832 54.07620336001128,56.61162560732373 54.22590447757102,56.66569871132742 54.539701050918666,56.679216958321376 54.56561085973226,56.70118408491726 54.571368595010426,56.83636572787327 54.59296010235994,56.85833263523364 54.814632911053195,56.95126921190058 54.97441006536974,56.94113070291951 55.1600970284926,56.80257042593621 55.64230735910678,56.54403396616908 55.62791302087862,56.511927834972084 55.38033040337177,56.46799302303589 55.357299462208175,56.39533133424811 55.39040644013585,56.2838034386441 55.614958116471826,56.304081296604636 55.66389886644174,56.09454217157145 55.69988471200486,56.079333578137266 55.81647885165148,56.09116248540977 55.84814639574324,56.118199954379634 55.813599984001485,56.38181284352504 55.83375205752236,56.42912751028052 56.39225238071958,56.24831712436844 56.659987071754585,56.2331086794793 57.208411358202284,56.14861705146086 57.56826981386985,56.300701655428384 57.75827507847134,56.349706381533 57.93244657100877,56.36322489982558 58.50965953392006,56.53051560311724 59.13293437914399,56.85157359007826 59.4150634083926,56.910715136807084 59.651130555306736,57.00196165887883 60.165008430012676,57.035756532875894 60.258571628488426,56.96647696312539 60.28736030494474,56.85664287421423 60.37084746666369,56.78736251640203 60.876088738426915,56.562621696408314 60.90775628252595,56.57614003189519 60.73214535615989,56.22634936592385 60.62274838562735,56.15030688846764 60.4960782092312,56.133408510268055 60.50039651070256,55.89175971780969 60.53782179008704,55.84444343610721 63.11296889890218,55.12961230572546 63.39941622961487,55.0941233896674 63.684424126498925,55.09750328988321 66.59639874981804,55.33747435024543 66.95049947020016,55.340854198206216 67.4543013081493,55.26987723855473 68.07901558719459,55.07553392551199 68.43311630758399,55.006245729356124 71.3825162102803,54.80344925621284 71.75820843800466,54.72739990517948 72.11950632750813,54.58882014292976 72.42898459938442,54.40798861836902 72.73270513597527,54.154482983349226 73.31135753270064,53.48689860966988 73.79356786329299,53.003516045211654 74.20092763512366,52.52856976269504 74.51184534082859,52.07220217761278 74.87170379650343,51.260849338836124 75.01276831112773,51.06814689022394 75.23012281834963,50.90925011298896 76.34136572947318,50.24490896856423 76.551523067581,50.04712259672942 76.64652569988539,49.88821550463581 76.70698192044074,49.705639416749364 76.83077322919416,49.22383123010695 76.92433642766264,48.68114538496775 76.99486868497479,48.41402210940487 77.2208597951394,47.79522544361316 77.53177750084433,47.123989500584685 77.78223898598662,46.74017168649971 78.21838743426633,46.26503621278971 78.45589401500911,45.94714396206382 78.62430777226837,45.617408504414925 78.86757208830386,44.92578704562948 78.92227057357377,44.93762434373275 78.94098321326601,44.993428628965376 78.98992396323592,44.97482722257064 79.0,45.02048518077481 78.93810434562329,44.993428628965376 78.92227057357377,44.912258694024786 78.84454114713299,44.90380346835809 78.56385155172029,45.66982844989616 78.49044042675814,45.806795869281814 78.44293911060231,45.828778183452414 77.94057670648908,45.608953658129394 76.99486868497479,45.34346917087714 76.63357079547859,45.27921110493935 74.89329530383839,45.20311568705438 72.82770776827238,45.01879414765335 71.1723588721652,45.010338979303924 70.35619989469706,44.881819860330324 68.83615777793602,44.49794728602683 68.26902085179609,44.388026099320086 67.79112882265326,44.35082183118175 66.71587175710738,44.3981727026121 66.45821310283645,44.37111507926602 65.86660580171156,44.191857147747214 64.84892608906375,43.94495136542446 64.70498270679673,43.8688494858925 64.62149554508505,43.79105607248766 64.53512951572338,43.657453441971484 64.37391292757093,42.9217730352766 64.14936125123495,42.48711347800236 64.07738956010144,42.392400071944394 63.9147335381349,42.30783404823251 63.68586356032756,42.257094215469806 63.61389186919405,42.155614058221545 63.53760187658918,42.13193526052601 63.40085566343623,42.19958887352368 63.3332022737668,42.143774663836666 63.24107850911241,42.170836123600566 63.123044935651706,42.295994768578566 62.86538628139533,42.32982125819308 62.51416442865593,42.338277869213016 62.28673388466996,42.27400751126788 62.0751371127335,42.10149103960339 61.89808675254608,41.57716464186251 61.71527865705866,41.28793194438822 61.500803017479484,41.16107381763959 61.01715325305122,41.020682962847786 60.72638762086717,40.90904596565633 60.68176517236134,40.89889710837997 60.64577932679822,40.9208862908572 60.59395970917831,40.88705676659811 60.42554595191905,40.8616845755696 60.009549577160215,40.71114206563652 59.50862660686107,40.662088576504175 59.363243790772685,40.619800962886075 59.31142417315277,40.628258494719375 59.2581651217115,40.591045320576086 59.04656834978232,40.592736830406466 57.6690301814524,40.36438135543176 55.5041217121252,39.525357908426486 55.328510785759136,39.50675002539265 53.78975602929131,39.48306723327096 53.12185873556882,39.49829188945114 52.8512451768911,39.477992344595805 52.66123991229688,39.410327005528416 52.52737256678665,39.330819859473195 51.970311677403515,38.840234944726944 50.84899272953044,38.344559443416074 49.58516983319714,38.09248637591554 49.127429877575196,37.8488682895204 48.51423106911534,37.41406828041727 48.14573601050506,37.24995775283878 48.142857142855064,37.277027648767216 48.51998880440078,37.44621344050938 49.15621855403151,37.89623876911901 49.51463757588499,38.085719257899655 49.65858095815929,38.13985612028955 50.78277877368237,38.35132644984151 50.95551083240571,38.40546239619289 51.96887224358943,38.865610402495804 52.4597191771245,39.30882845012002 52.57487388293521,39.388335707542865 52.77351575047214,39.476300714674835 53.018219500328996,39.520283033424676 53.07147855177027,39.56257360833479 53.04700817678531,39.5574987453565 53.025416669443075,39.53550765350974 53.16504175023874,39.560881987526045 53.254286647243134,39.52366628360596 53.45724681625143,39.52366628360596 53.475959455943666,39.46107603717155 53.509066433864064,39.154887722082094 53.475959455943666,39.022937325197745" stroke="red" stroke-dasharray="none" stroke-linecap="round" stroke-linejoin="round" stroke-width="0.5"><title>2026-06-06 62.1km</title><desc>1780699923000</desc></polyline><polyline fill="none" opacity="1" points="113.3689571528812,31.714285714304424 112.57588342344388,32.30481271541794 112.51114271086408,33.3334679169493 110.50418062013341,34.000185667013284 108.85329244862078,35.10502665922104 109.43595886213006,37.162298286668374 109.32266261504265,38.07663350729854 108.72381102346117,39.58146654107259 107.4451819495298,40.91485214083514 107.38044123689178,42.34346835123142 107.72032997809583,49.46732798105222 110.81169900501845,51.06729955661285 112.86721663014032,51.238724219438154 113.14236465876456,51.581573043818935 113.3851423310116,60.57159261663037 113.19092019327218,61.58103646377276 109.88914385036333,62.2666931321437 104.04629453778034,62.57142857143481 94.04385444027139,61.35248364714789 86.92237605381524,61.238207127476926 86.6148576689302,54.19101164235326 86.6310428470606,52.30536281190871 86.85763534111902,52.00060958834365 100.61503676971188,51.54347876299289 104.19196114112856,49.562564791718614 104.27288703189697,42.629190200794255 103.85207239992451,40.81961064753705 103.0428134923568,40.133870373188984 102.21736940665869,38.89572143902478 101.95840655628126,37.0861034704285 102.50870261341333,35.486004702266655 103.35033187730005,34.55260703076783 104.12722042854875,34.07638182037044 105.68099753104616,33.75254794061766 106.61973786383169,33.8858913750737 108.09258907561889,34.62880294478964 109.27410708059324,36.647982636030065 109.06369976466522,38.952866966312286 107.39662641508039,41.04819014483655 107.60703373100841,49.18161723965022 107.81744104705285,49.52447007368028 110.77932864875766,51.029205164464656 112.85103145206813,51.257771393909934 113.14236465876456,51.54347876299289 113.28803126211278,61.42866795233567 112.67299449228449,61.84768104122486 110.68221757980064,62.19050918982248 105.01740522682667,62.552382621972356 100.46937016636366,62.28573911260173 93.96292854956118,61.35248364714789 86.92237605381524,61.27629930895637 86.7119687377708,52.038703770173015 100.29133320669644,51.581573043818935 101.82892513112165,51.048252361564664 104.25670185376657,49.429233242350165 104.01392418146133,41.105334972729906 102.42777672264492,39.25764279831492 101.95840655628126,37.84805014781887 102.36303601006512,35.73363998766581 102.86477653268958,34.99073308536026 104.11103525036015,34.07638182037044 105.35729396803072,33.790646075081895 106.81396000162931,33.943038530342164 107.97929282847326,34.57165601235465 108.54577406379394,35.18122233386384" stroke="#4dd2ff" stroke-dasharray="none" stroke-linecap="round" stroke-linejoin="round" stroke-width="0.5"><title>2026-06-05 14.5km</title><desc>1780659860000</desc></polyline><polyline fill="none" opacity="1" points="149.73159144894453,38.299276247293164 149.8690193417715,40.00346140762122 149.81404818460578,42.214544210037275 151.79300984053407,49.99069388577482 151.8113335595699,51.19858493211359 151.44485917885322,51.99664775771089 148.2656939260196,55.85745591302839 147.93586698337458,56.4937199754786 147.65184933837736,57.70153209007549 132.45232439768733,57.647612218956056 125.63590091618244,58.13289000718214 124.55480149301002,55.113345323443355 123.53783508652123,53.54961653203645 121.72378690191545,51.4358475218105 121.19239904987626,50.26031369411794 121.0,49.1818300772793 121.09161859517917,48.16804481858708 121.46725483541377,47.14346411527367 123.1988462843583,44.91092014494643 123.86766202916624,43.724523737095296 124.92127587378491,37.39324186958402 125.09535120462533,37.17751818231045 144.52765524259303,36.800000603812805 148.9619952493813,36.15282427854254 149.7774007465341,38.55814169658697 149.88734306074912,42.6459692707067 151.85714285710128,50.551502266513126 151.73803868342657,51.4358475218105 151.47234475740697,51.94272479543724 148.1649134713225,55.90059258819383 147.64268747880124,57.7231000303218 132.46148625720525,57.6368282412368 125.59925347811077,58.12210608206078 125.131998642697,56.46136766366544 124.45402103837114,54.94079714563122 123.82185273157666,53.92707055902429 121.79708177805878,51.56526324139122 121.24737020698376,50.465224259824026 121.00916185951792,49.1818300772793 121.09161859517917,48.157259813502606 121.46725483541377,47.132678999143536" stroke="#4dd2ff" stroke-dasharray="none" stroke-linecap="round" stroke-linejoin="round" stroke-width="0.5"><title>2026-06-04 19.5km</title><desc>1780570902000</desc></polyline><polyline fill="none" opacity="1" points="164.63223729797755,47.65420483535854 164.23326799843926,47.65420483535854 164.21025053886115,47.53687793325662 165.85983514261898,47.50980247087864 172.30472382708103,58.51074234316911 172.18963652913226,58.50171837613016 172.1359291234112,62.47216970658337 171.3149730648147,62.57142857142753 160.76530408731196,62.52631092019146 160.4737495991867,62.50826385290566 160.34331732819555,62.318769410696405 160.38167976084515,53.18643233846524 178.1895209948998,53.159358708209766 180.86721879351535,53.57448674100306 183.23034464451484,53.2315550360654 184.9873440596857,53.29472677176091 185.27122606124613,53.11423597156681 185.37096838609432,52.879597348030074 185.33260595347383,52.37421961160726 184.99501654622145,50.352678075076255 182.53214837037376,38.231426887141424 182.4017160993535,38.09603439432249 182.01041928638006,38.16824375116266 181.92602193457424,38.06895586942119 181.81093463665457,36.98580766785744 180.26109235774493,31.714285714282596 182.2405938822485,38.7459163567255" stroke="#4dd2ff" stroke-dasharray="none" stroke-linecap="round" stroke-linejoin="round" stroke-width="0.5"><title>2026-06-02 16.9km</title><desc>1780401150000</desc></polyline><polyline fill="none" opacity="1" points="38.39782571763499,92.0321987367206 23.19857312721433,91.94582435588381 16.300662476569414,92.4748662633283 15.392559877655003,89.6568759803049 14.411075250478461,88.04810249416187 12.448105996241793,85.74826709606714 11.96195005933987,84.76569212434697 11.714285714260768,83.4699740487049 11.888568031194154,82.12024979852868 12.273823679191992,81.23482075681386 14.025819602480624,79.02121371877001 14.64956684212666,77.75781594400905 15.631051469244994,71.7105619279755 15.796161032747477,71.46218471625616 35.24239850509912,71.08421820548392 39.62697468994884,70.38227659381664 40.39748598600272,72.28290705748077 40.580941056483425,76.71037145028822 42.57142857136205,84.78728728282294 42.516392050194554,85.52151988582045 42.23203669092618,86.20175996833132 38.994054696755484,90.03477202484646 38.36113470350392,92.0321987367206 23.189400373667013,91.94582435588381 16.33735349070048,92.45327277106117 15.181586546590552,89.26818141055264 14.438593511062209,88.13448025404068" stroke="#4dd2ff" stroke-dasharray="none" stroke-linecap="round" stroke-linejoin="round" stroke-width="0.5"><title>2026-05-28 19.4km</title><desc>1779966212000</desc></polyline><polyline fill="none" opacity="1" points="77.54741628019838,85.05702314789232 77.72060076228809,95.75664483505534 77.09713662660215,96.14385783567559 73.3390333642019,96.69410651906219 68.40327562310267,96.85714285714494 64.19489270710619,96.61258829713915 57.05969204293797,95.5732278725045 49.52616706979461,95.51208884535299 49.231753450178076,87.93069556844421 49.40493793232599,85.62768499217054 64.26416649995372,85.05702314789232 68.09154355537612,83.01893100830785 67.84908528020605,74.09182738690288 66.1691958035226,72.13514535618015 65.59768701245775,70.52494384169404 65.6150054607424,69.79117655633308 66.48092787136557,67.52870941445872 67.69321924634278,66.52995400343207 69.2345611374476,66.06114861504466 71.79769147309707,66.65225086922874 72.66361388383666,67.52870941445872 73.39098870876478,68.91472854897438 73.54685474274447,69.9542362003267 73.2351226748433,71.60520713828737 71.46864095702767,74.03068138140952 71.67646233562846,82.69283421788714 74.7071907731588,84.4455978233018 77.30495800520293,84.79207241776749 77.58205317653483,85.09778476557403 77.91110369266244,95.28791224228917 77.70328231411986,95.87892271079181 73.54685474274447,96.65334741250263 67.65858234994812,96.8367633226444 64.1429373624851,96.59220873609593 56.93846290552756,95.5324685232772 50.097675860859454,95.61398721300066 49.52616706979461,95.3286716445582 49.33566413947847,85.72958871080482 50.21890499838628,85.48501969326753 64.09098201792222,85.07740395786823 68.09154355537612,82.95778790314216 67.88372217677534,73.96953535600915 66.1691958035226,72.05361649669067 65.66696080536349,69.48543934291229 66.72338614641922,67.28411674268136 68.12618045171257,66.32612571724167 69.13065044820542,66.10191434735316 70.48148940881947,66.18344578548567 71.83232836954994,66.7133992723102 72.43847405706765,67.18220303564158 73.32171491597546,68.77205058000982 73.52953629451804,70.44341428455664 73.20048577844864,71.72750070563052 71.46864095702767,73.8472432456474 71.67646233562846,82.71321528381668 74.67255387658952,84.40483606442285 77.63400852127234,85.03664233571908 77.87646679626778,95.38981073132891 77.63400852127234,95.96044125045591 74.13568198197754,96.61258829713915 68.83623682847247,96.85714285714494 63.83120529464213,96.57182917289902 56.97309980186401,95.5732278725045 49.57812241453212,95.5324685232772 49.35298258764669,85.70920797149302 52.07197895727586,85.40349661678192 64.40271408570698,85.03664233571908 68.10886200348614,82.87626373200328 67.83176683209604,73.94915334314283 65.92673752852716,71.50329577145749 65.68427925358992,70.66762048153032 65.77087149460567,68.95549366307387 67.01779976603575,66.99875822391186 67.7624930391903,66.46880554077507 69.8407068249071,66.0 71.45132250891766,66.48918836384837 72.23065267846687,67.05990651437605" stroke="#ffcd00" stroke-dasharray="none" stroke-linecap="round" stroke-linejoin="round" stroke-width="0.5"><title>2026-05-27 20.2km</title><desc>1779879632000</desc></polyline><polyline fill="none" opacity="1" points="84.57142857142026,82.80328543217183 85.13431305537233,81.1739161579244 86.85987696517259,79.05569649284007 87.50580997951329,77.77388028206042 88.62235133285867,71.4188712910618 108.47095010254998,71.01691699712683 112.55878332193242,70.33250462356227 113.18626110738842,71.83168753587961 113.43540669855429,72.87458415647416 113.5461380725028,77.45885514379188 114.69958988385042,81.18477870745846 115.42857142857974,84.1936595976149 115.22556390985847,85.03004726424842 115.19788106635679,86.19228866634512 111.92207792215049,90.18942723840155 111.35919343814021,92.07932312567573 95.83834586467128,92.00329351926484 89.24982911825646,92.52463823357539 89.09295967192156,92.39430230919243 88.71462747780606,90.80853498815122 88.08714969240827,89.34222096278972" stroke="#4dd2ff" stroke-dasharray="none" stroke-linecap="round" stroke-linejoin="round" stroke-width="0.5"><title>2026-05-26 19.0km</title><desc>1779792854000</desc></polyline><polyline fill="none" opacity="1" points="141.57978922576876,69.89253613635083 141.64801727613667,72.11967215372715 140.8975087228464,74.84837894978409 140.77810963481897,76.29297218863212 141.17042092402698,79.10187130016857 142.2108986909734,81.16839136273484 144.10422708664555,83.335203223789 145.89521340694046,86.18412106846517 147.07214727450628,89.33393004442041 147.4474015510641,91.78151540517865 135.88274702616036,96.83708136172208 133.54593630356248,93.50684307144547 128.65057369496208,88.63174795928353 126.3819910226739,84.4988510060357 125.63148246938363,81.69003356693429 125.39268429338699,78.33946003018355 126.12613583402708,73.82511860263185 127.507753852522,70.57472478294221 129.2987401727587,68.54821587541664 132.0790332221659,66.7825267080334 135.09812444780255,66.0 137.9125315224519,66.14045375467686 140.18111419468187,67.5048561252479 141.44333312520757,69.43105415931495 141.69918831379618,71.95915873984632 140.81222366000293,75.69105970553937 141.05102183599956,78.68053914337361 142.12561362812994,81.06807538618159 145.77581431891304,85.74274229290313 146.8674631236354,88.65181034145644 147.41328752593836,91.88182559222332 138.86772422661306,95.37258633993042 135.95097507647006,96.85714285714494 133.64827837899793,93.66733785318502 130.0321917133988,90.23673167970264 128.15592033026041,88.00981303719163 126.80841633700766,85.54211522980768 125.8532236328465,82.81356564299494 125.39268429338699,79.02161762981268 125.63148246938363,76.31303590442985 126.3819910226739,72.96236529898306 127.72949501598487,70.2938238792267 128.838200833241,68.98963554231159 131.49909479473718,67.04336821078323 134.6034710832173,66.06019447930157 137.82724645955022,66.12038893911813 140.19817120733205,67.54498545483511 141.0851358611253,68.64853861919255 141.52861818805104,69.75208522137837 141.69918831379618,71.4575534267642 140.81222366000293,75.83150612616737 141.0851358611253,78.92130049293337 142.1597276532557,81.1082017832523 144.070113061578,83.35526617837604 145.70758626860334,85.84305574315658 146.731007023016,88.23049986097612 147.4644585637143,91.70126721647102 135.86569001356838,96.75683535831922 133.5288792909705,93.54696677988977 128.9575999212684,89.01293284932035 126.53550413588528,84.96029552047548 125.68265350710135,81.81041232890857 125.42679831845453,78.5200314034737 126.17730687180301,73.54422261851141 127.32012671412667,70.89575386659999 129.00877095898613,68.84918394399574 131.36263869411778,67.14369176805485 134.02353265573038,66.18058337936236 137.53727724577766,66.06019447930157 139.75468888040632,67.14369176805485 141.2898200119962,69.1501515245618 141.69918831379618,71.55787459787098 140.79516664735274,75.91176117600116 141.0851358611253,78.86111018479278 141.85270142694935,80.62668444518931 144.39419630041812,83.71639899036381 146.11695457034511,86.6455613936123 147.03803324938053,89.31386773602571 147.4474015510641,91.66114310917328 135.9168610513443,96.79695836434257 133.88707655499456,93.90807976553333 128.92348589614267,88.95274581346894 126.68901724898024,85.28129972355964" stroke="#ffbf00" stroke-dasharray="none" stroke-linecap="round" stroke-linejoin="round" stroke-width="0.5"><title>2026-05-24 23.2km</title><desc>1779623970000</desc></polyline><polyline fill="none" opacity="1" points="159.16491434453928,78.62047737669855 158.85258436879667,79.63412653075648 158.80317623704468,80.03418197022438 158.80846996545006,80.43630186568589 159.0290419822195,82.34522051619024 159.3184324682079,83.5887140374889 159.30960958752985,83.74207268225291 159.15432688772853,84.14825995501997 159.13138739798887,84.37000143685145 159.24608484670898,85.54498149801657 159.4401882214661,86.12726430871771 159.3643114476945,87.6958177237102 159.39960297037032,87.85535960305424 159.4878317770781,88.03147572979469 159.92015292993892,88.43757267024739 160.01720461731747,88.60746783347713 160.0383795309317,88.83951734638322 159.92897581060242,89.29324895469836 159.99426512756327,89.63095094225719 160.12131460922683,89.80705086097441 160.3436512021217,89.9479296387708 164.15160649953032,91.36287561426616 164.43746783325332,91.43538103245555 165.012719652972,91.4975283169606 165.63032129991188,91.43538103245555 168.65480479376856,90.5797997396603 169.07653848981863,90.503147748208 169.5776781119057,90.50107606853817 173.11212410852022,90.79110905838934 173.67149474303005,90.79110905838934 174.26615690023027,90.68959800779157 174.9631644731926,90.47000084679712 175.38136901698454,90.38506165202489 179.09050805087463,90.12195494422667 179.48753768105234,90.03287075775006 179.97808984632866,89.82984014476642 180.29394897433667,89.63302271534667 180.66450996250205,89.31603884536526 181.31034482757968,88.56603012674532 181.91206528931798,87.95895751939861 182.5243732078452,87.24826462968304 182.81729284611356,86.79655699592513 183.23549738989095,85.8475220922046 183.42430703624268,85.57606465455137 183.63782074847404,85.40614278714384 185.0441879273567,84.56894489503793 185.32475553267432,84.30783118520048 185.42357179618557,84.1420428673755 185.50297772222257,83.91822637693622 185.68296448789624,83.21360194073168 185.79766193661635,82.54418487009752 185.87353871038067,82.2747534816881 186.0641129328651,81.7483151314791 186.42232188808703,80.9897211967309 186.41702815968893,80.95033982199493 186.66406881846342,80.48397531752198 186.81405778985936,80.27048024507712 187.40166164251423,79.62790798686183 187.64164399675792,79.30661382184371 187.87633262259624,78.83399073223882 188.15160649951576,78.04625981715253 188.1780751415281,78.02760264184144 188.2857142857174,78.07113602277786 188.17278141312272,77.95711981650857 188.12337328137073,77.99650730951726 187.77575178295228,78.9687309524179 187.70869788985874,78.94800174911143 187.64164399675792,78.82569899560076 187.74928314093995,79.00604346217006 187.6804646717137,79.13041797280493 187.64164399675792,79.14492828008042 187.00286743621837,78.86093885165974 185.82765973090136,78.53134003298874 185.4112197632494,78.46085905063592 183.27078891257406,78.36964798482404 180.90802146901115,78.15198346923717 179.20873465186742,78.15198346923717 178.5646643629152,78.11674231634606 177.82177781045175,77.99650730951726 175.7695757664842,77.48653669748637 175.20314682744356,77.37873630294234 174.49555179765593,77.32483587943352 173.24446731858188,77.38702866240601 172.95154768031352,77.35385920314002 172.2192485846681,77.13203697610516 170.98051613851567,76.8293595360119 170.85346665685938,76.77131126420863 170.71759429453232,76.66558003388855 170.60466142195946,76.50801869216957 170.37879567678465,75.55018385284347 170.12293213734665,75.0899086069694 169.96235570913996,74.91989424731219 169.75590030144667,74.8162262181304 169.5794426880384,74.7892724391204 168.1519005955488,74.89086725539346 167.99838247188018,74.88050046196622 167.85015807661694,74.82866641109649 167.67722961547406,74.70426411972221 167.56253216676123,74.55083352011025 167.3719579442768,73.98893534625313 167.2678479523529,73.76707435611752 167.06845084920496,73.55557832173508 166.8196456142905,73.4228737413523 164.99330931549775,72.90656128036244 162.2158664804083,72.46073817522847 159.52135872362123,71.41145793233773 159.3660760238272,71.38657312153373 157.42857142857247,71.35961454018252" stroke="red" stroke-dasharray="none" stroke-linecap="round" stroke-linejoin="round" stroke-width="0.5"><title>2026-05-23 52.6km</title><desc>1779516240000</desc></polyline><polyline fill="none" opacity="1" points="36.8864765407634,102.75692230903951 37.146769133687485,104.14568615608732 36.97324073838536,105.49359422572888 36.140304440807085,106.92318316422461 35.203251106024254,107.71966372837778 35.02972271060571,108.51614092824457 35.324720982695,117.09337450715248 39.10764000099152,118.93130237655714 40.86027679371182,118.99256633037294 41.189980744966306,119.31930708140135 41.50233185652178,129.42756941975676 41.22468642395688,130.18311474377697 38.30940938240383,130.77529680098814 34.09266937582288,131.1020171402488 26.960652327747084,130.77529680098814 19.62040120526217,129.7542920934211 13.321320454764646,129.91765321802814 13.078380701248534,129.50925014118548 12.783382429159246,122.5866834569606 13.078380701248534,119.82983837153006 27.724177267227788,119.36014963542402 31.62856616213685,117.19548208091874 31.455037766776513,108.14853648484859 29.528872578637674,105.820358367273 29.233874306664802,104.2682236515102 29.355344183335546,103.24707542303076 30.275044678535778,101.57238035615592 31.33356789010577,100.73502724459104 32.46150245971512,100.306137625259 34.19678641302744,100.38783096129191 36.105598761700094,101.4498411087261 37.11206345458049,103.45130551117472 36.97324073838536,105.53443977436109 36.29647999664303,106.82107002807606 35.27266246412182,107.6992411918618 35.04707555018831,108.41402865479176 35.25530962459743,116.76662989957549 35.480896538472734,117.17506057061837 38.795288889319636,118.84961707382172 41.20733358437428,119.25804323366901 41.363509140210226,130.04017396866402 38.587054814968724,130.75487676102784 32.06238715047948,131.12243714263604 27.377120476565324,130.81613687440404 20.33186762605328,129.7747122417204 13.442790331493597,129.8768129501259 13.13043921982171,129.61135099333478 12.800735268683638,122.13742256190744 12.991616503626574,119.82983837153006 27.22094492072938,119.40099218064279 28.834758997312747,118.95172369667853 31.66327184124384,117.15463905803335 31.42033208772773,108.18938145838911 29.737106652988587,106.33092620472598 29.251227146130987,103.77807319202111 29.754459492571186,102.26676792076614 30.86504122277256,101.04137637536041 31.992975792323705,100.44910094006627 33.138263201515656,100.28571428571013 35.55030789668672,101.02095311542507 36.93853505933657,102.81819151795935 37.02529925695853,105.33021194259345 36.400597033672966,106.61684358979983 35.13383974781027,107.90346645773388 35.04707555018831,108.49571847797779 35.23795678501483,116.90958073505317 38.65646617306629,118.76793173575425 41.155275065859314,119.17635807249462 41.50233185652178,128.5086588656559 41.31145062169526,130.0810142011178 38.29205654282123,130.79571683882386 32.44414962019073,131.14285714285506 27.94976418110309,130.8773969678441 20.696277256298345,129.79513238780783 13.078380701248534,129.83597267339064 12.870146626839414,119.89110203343444 28.05388121830765,119.31930708140135 31.455037766776513,117.35885408399918 31.715330359817017,117.01168840832543 31.73268319934141,115.52091088955058 31.472390606359113,108.59783070723643 31.298862210998777,107.96473399440583 29.91063504840713,106.57599827568629 29.37269702285994,105.49359422572888 29.251227146130987,103.83934206918639 29.4768140600645,102.87946070701582 30.344456036691554,101.49068753336906 32.35738542251056,100.36740763061971 34.0579636968323,100.36740763061971" stroke="#ffc300" stroke-dasharray="none" stroke-linecap="round" stroke-linejoin="round" stroke-width="0.5"><title>2026-05-17 22.3km</title><desc>1779013233000</desc></polyline><polyline fill="none" opacity="1" points="75.44132653059205,114.21796833950793 74.89604591837269,114.17750534582592 73.98341836736654,113.84031271529602 73.69068877553218,114.09657928001616 73.08801020408282,115.29022814942073 72.43367346937885,115.96459598741785 69.03571428571013,112.22176282279543 66.5963010204141,111.82386290318755 66.24617346937885,111.66874869047388 66.08545918366872,111.4596811003612 66.10267857142026,110.4885192741167 65.99362244899385,110.40758844223456 64.57015306124231,110.31991325636409 60.40306122449692,110.43456539781619 60.098852040828206,110.2996805037219 59.42729591837269,109.74664940090588 58.290816326538334,109.40268856907278 57.98086734695244,109.03849268821068 57.47576530612423,107.75704590169335 57.22895408165641,106.28672202369125 55.845663265296025,105.77412393252234 54.582908163254615,105.87529494074624 51.75892857144936,106.51604086396401 48.90625,106.13159409675427 48.74553571428987,106.219275146148 48.60204081633128,106.48906222044752 48.16581632656744,107.90542529288723 48.22321428571013,108.16846062238983 49.34821428573923,109.77362664115572 52.60841836736654,110.40758844223456 53.60714285715949,111.23712451180836 53.80803571428987,112.00595301059366 54.39923469387577,113.41544741662801 54.53125,114.3461009804596 55.311862244911026,117.65048382509485 55.35204081633128,118.25064894583556 55.92602040816564,121.17721447362419 56.36224489798769,121.93243500275639 56.78698979591718,122.19541144338291 58.61798469390487,122.82924755964996 60.54655612245551,124.06318671650297 62.41198979591718,124.17107095227766 63.16964285715949,124.76443092947738 63.766581632662565,124.82511515593797 64.73086734695244,125.27687366163082 68.11160714284051,125.6814307536988 68.32397959183436,125.51960823021727 68.43877551020705,125.24990309595887 68.82334183674539,123.91484558902812 69.02423469387577,122.1886684715173 68.96683673470397,121.9459210009154 68.63392857144936,121.71665863748422 68.61096938778064,121.60877017622624 68.83482142857974,120.99515102016812 68.99553571426077,120.81308703774266 69.00127551020705,119.8285837462463 69.43176020408282,118.53387093876154 70.20663265304756,117.52235794229637 71.81377551020705,116.47036710216344 72.99043367349077,115.43184599755841 73.73660714286962,114.0223969612016 74.00637755103526,113.82682497233691 74.40242346940795,113.96844612871064 74.03507653062115,113.82008109975868 73.71938775508897,114.03588466206565 73.09375,115.27674071861111 72.40497448979295,115.9443650578869 69.09311224491103,112.2554830388035 66.30931122452603,111.70246920417776 66.0911989795859,111.4394487158861 66.04528061227757,110.41433268223045 65.54017857142026,110.31316900620368 60.345663265296025,110.42107692149511 59.47321428571013,109.76013802246962 58.308035714318976,109.40268856907278 57.94068877550308,108.9777931688368 57.441326530621154,107.66262246970291 57.26339285715949,106.32719011533118 55.86862244899385,105.76737919281004 55.50701530612423,105.73365548345828 54.163903061213205,105.93599746724067 51.69579081633128,106.50255154366096 48.825892857130384,106.13833879722006 48.64795918366872,106.36765818084677 48.142857142869616,107.99984835878786 49.32525510204141,109.78037094940373 52.642857142869616,110.43456539781619 53.595663265296025,111.216892055465 53.767857142869616,111.90479190515543 54.40497448979295,113.4963743623266 54.491071428579744,114.23819982654823 55.288903061213205,117.5358448896659 55.90306122449692,121.11652671460615 56.017857142869616,121.46042323868824 56.41964285715949,121.9661499927206 56.81568877553218,122.1886684715173 58.600765306153335,122.83599046259042 60.55229591837269,124.04970117394987 60.91964285715949,124.13061438560544 62.42346938775154,124.15758543296761 63.18112244896474,124.77117362419449 63.62882653059205,124.7779163182131 64.8514030612132,125.31732948834178 67.84757653062115,125.69491594511419 68.17474489795859,125.65446036211506 68.35267857142026,125.49938038542678 68.57079081633128,124.93299808013035 68.86926020408282,123.63839073272175 69.03571428571013,122.23586925936615 68.98405612245551,121.9459210009154 68.67984693875769,121.75037374355452 68.63392857144936,121.622256244038 68.78316326529603,121.08281126750444 69.01275510204141,120.75239892604804 68.99553571426077,119.81509729240497 69.43176020408282,118.53387093876154 69.95982142857974,117.76512255077614 71.99170918366872,116.34898240700568 72.69196428571013,115.74205540337789 73.07653061224846,115.32394671372458 73.7136479592009,114.07634774723556 73.97193877550308,113.84031271529602 74.90178571426077,114.18424917991433 75.48724489795859,114.22471216925624 77.14604591837269,113.62450847925356 78.45471938775154,113.62450847925356 78.72448979591718,113.52334998767401 78.88520408162731,113.32777644077214 79.0,112.73430814690437" stroke="#ff8300" stroke-dasharray="none" stroke-linecap="round" stroke-linejoin="round" stroke-width="0.5"><title>2026-05-16 35.3km</title><desc>1778887035000</desc></polyline><polyline fill="none" opacity="0.5" points="109.99110939231468,103.78270151939068 109.79997512564296,105.50049608598056 107.94075998663902,108.01580993256357 108.14927009557141,116.95206049265107 111.52018352539744,118.79242571181385 113.67478798568482,118.996909629117 114.1091840461595,119.38542846178461 114.36982168245595,129.17992864605912 114.24819078552537,129.9569236154348 113.55315708863782,130.40676134727255 109.0180622167536,131.04062178725144 105.02161845978117,131.14285714285506 100.59077864239225,130.87704510315962 92.87590460735373,129.8137932033569 85.97769516601693,129.75245156500023 85.63017831760226,123.04564559589198 85.8039367418969,119.85573966345692 100.39964437577873,119.3240834360331 101.87659098155564,118.75152890183381 104.48296734475298,117.15654640270805 104.32658476295182,108.50659897117293 104.11807465384481,107.83176371417358 103.1797791630961,106.99332867120393 102.34573872690089,105.6845445768704 102.05034940585028,104.10990168940043 102.50212130864384,102.41254464829399 104.10069881146774,100.73562270661932 105.26488025370054,100.32661509550235 106.51594090799335,100.28571428571013 108.54891447129194,101.10372879909119 109.8694784953259,103.18964976580173 109.92160602268996,105.00969923316734 109.34820322267478,106.46163622708991 107.9581358289579,107.89311247353908 107.81912908965023,109.50862263058661 104.53509487194242,109.5904202456004 104.15282633871539,107.85221330283093 102.79751062986907,106.54343516210793 102.08510109066265,104.70295055225142 102.25885951484088,103.04649906345003 103.07552410865901,101.59453580580885 104.96949093253352,100.40841668861685 107.3326055018697,100.44931747191004 108.46203525923193,101.04237783349527 109.19182064087363,101.79903834866127 110.02586107706884,103.94630167527066 109.5393374892883,106.11399035788781 107.99288751382846,107.81131412326067 107.78437740483787,109.4472743961087 104.53509487194242,109.56997084514296 104.18757802352775,107.954461212983 102.83226231473964,106.58433461627283 102.15460446022917,105.00969923316734 102.22410782997031,103.21009985728597 102.93651736923493,101.6967871049419 104.56984655681299,100.55156939128938 106.65494764741743,100.30616469170491 108.61841784103308,101.18553005547437 109.41770659241593,102.18759256994235 109.95635770750232,103.4964009053947 109.8694784953259,105.2959975523845 109.24394816817949,106.5638848902745 107.97551167145139,107.99536036157224 107.83650493208552,109.46772380986658 104.62197408417705,109.61086964383139 104.25708139326889,108.01580993256357 102.88438984198729,106.5638848902745 102.1198527754168,104.70295055225142 102.39786625414854,102.6374964586139 103.38828927220311,101.24688097453327 105.47339036269113,100.28571428571013 107.36735718668206,100.44931747191004 108.68792121071601,101.24688097453327 109.95635770750232,103.41460065028514 109.90423018019646,105.09149879723554 109.13969311368419,106.70703292579856 107.97551167145139,107.85221330283093 107.90600830171024,109.42682498016802 104.58722239924828,109.61086964383139 104.11807465384481,107.81131412326067 103.04077242378844,106.82973115559435 102.2414836724056,105.37779699239763 102.08510109066265,103.74180145822174 102.71063141775085,101.79903834866127 102.79751062986907,102.00354067009175 103.49254432669841,101.18553005547437 104.62197408417705,100.5311190118664 107.07196786551503,100.38796629363787 104.62197408417705,100.5311190118664 103.49254432669841,101.18553005547437 102.79751062986907,102.00354067009175 102.71063141775085,101.79903834866127 102.08510109066265,103.74180145822174 102.2414836724056,105.37779699239763 103.04077242378844,106.82973115559435 104.11807465384481,107.81131412326067 104.58722239924828,109.61086964383139 107.90600830171024,109.42682498016802 107.97551167145139,107.85221330283093 109.13969311368419,106.70703292579856 109.90423018019646,105.09149879723554 109.95635770750232,103.41460065028514 108.68792121071601,101.24688097453327 107.36735718668206,100.44931747191004 105.47339036269113,100.28571428571013 103.38828927220311,101.24688097453327 102.39786625414854,102.6374964586139 102.1198527754168,104.70295055225142 102.88438984198729,106.5638848902745" stroke="#4dd2ff" stroke-dasharray="1,0.5" stroke-linecap="round" stroke-linejoin="round" stroke-width="0.5"><title>2026-05-12 15.2km</title><desc>1778590468000</desc></polyline><polyline fill="none" opacity="1" points="146.41968082083622,103.78270151939068 146.2285465541645,105.50049608598056 144.36933141516056,108.01580993256357 144.57784152409295,116.95206049265107 147.94875495391898,118.79242571181385 150.10335941420635,118.996909629117 150.53775547468103,119.38542846178461 150.79839311097749,129.17992864605912 150.6767622140469,129.9569236154348 149.98172851715935,130.40676134727255 145.44663364527514,131.04062178725144 141.4501898883027,131.14285714285506 137.0193500709138,130.87704510315962 129.30447603587527,129.8137932033569 122.40626659453847,129.75245156500023 122.0587497461238,123.04564559589198 122.23250817041844,119.85573966345692 136.82821580430027,119.3240834360331 138.30516241007717,118.75152890183381 140.91153877327451,117.15654640270805 140.75515619147336,108.50659897117293 140.54664608236635,107.83176371417358 139.60835059161764,106.99332867120393 138.77431015542243,105.6845445768704 138.47892083437182,104.10990168940043 138.93069273716537,102.41254464829399 140.52927023998927,100.73562270661932 141.69345168222208,100.32661509550235 142.9445123365149,100.28571428571013 144.97748589981347,101.10372879909119 146.29804992384743,103.18964976580173 146.3501774512115,105.00969923316734 145.77677465119632,106.46163622708991 144.38670725747943,107.89311247353908 144.24770051817177,109.50862263058661 140.96366630046396,109.5904202456004 140.58139776723692,107.85221330283093 139.2260820583906,106.54343516210793 138.51367251918418,104.70295055225142 138.68743094336241,103.04649906345003 139.50409553718055,101.59453580580885 141.39806236105505,100.40841668861685 143.76117693039123,100.44931747191004 144.89060668775346,101.04237783349527 145.62039206939517,101.79903834866127 146.45443250559038,103.94630167527066 145.96790891780984,106.11399035788781 144.42145894235,107.81131412326067 144.2129488333594,109.4472743961087 140.96366630046396,109.56997084514296 140.61614945204929,107.954461212983 139.26083374326117,106.58433461627283 138.5831758887507,105.00969923316734 138.65267925849184,103.21009985728597 139.36508879775647,101.6967871049419 140.99841798533453,100.55156939128938 143.08351907593897,100.30616469170491 145.04698926955462,101.18553005547437 145.84627802093746,102.18759256994235 146.38492913602386,103.4964009053947 146.29804992384743,105.2959975523845 145.67251959670102,106.5638848902745 144.40408309997292,107.99536036157224 144.26507636060705,109.46772380986658 141.0505455126986,109.61086964383139 140.68565282179043,108.01580993256357 139.31296127050882,106.5638848902745 138.54842420393834,104.70295055225142 138.82643768267008,102.6374964586139 139.81686070072465,101.24688097453327 141.90196179121267,100.28571428571013 143.7959286152036,100.44931747191004 145.11649263923755,101.24688097453327 146.38492913602386,103.41460065028514 146.332801608718,105.09149879723554 145.56826454220572,106.70703292579856 144.40408309997292,107.85221330283093 144.33457973023178,109.42682498016802 141.0157938277698,109.61086964383139 140.54664608236635,107.81131412326067 139.46934385230998,106.82973115559435 138.67005510092713,105.37779699239763" stroke="#4dd2ff" stroke-dasharray="none" stroke-linecap="round" stroke-linejoin="round" stroke-width="0.5"><title>2026-05-11 15.3km</title><desc>1778503630000</desc></polyline><polyline fill="none" opacity="1" points="185.19533236208372,109.0925934141851 185.76654483913444,114.73968679399695 184.16714990348555,119.58001165435417 179.0262376095634,125.63036464899778 178.39790388476104,130.73950569349108 167.65910931583494,130.73950569349108 166.8594118480105,125.56313882849645 163.31789449043572,122.06738613569178 160.63319584797136,117.6976675830083 159.94774087541737,111.84891922096722 160.57607460021973,108.95813818369061 164.17471320577897,103.51267686951905 171.14350542612374,100.3529428440961 177.5982064169366,101.15968497557333 184.281392398756,106.26902745652478 185.652302343864,111.37832787644584 185.59518109611236,115.54641022533178 182.96760370139964,121.46235001715831 179.1976013528183,125.15978375350824 178.74063137103803,130.60505515208934 168.17320054536685,131.07563191937516 166.8594118480105,125.42868716613157 163.60350072872825,122.47074322053231 160.347589609446,117.29430739633972 160.06198337092064,111.04219098348403 161.718499554554,106.60516693472164 166.1739568754565,102.10088280355558 169.3156254994683,100.75631404074375 173.99956781137735,100.3529428440961 179.25472260056995,101.89919767476385 181.59669375652447,103.64713327941718 185.42381735285744,109.83209666144103 185.88078733440489,113.52959968068171 184.8526048755739,118.57161375461146 179.3689650958404,124.8236543238163 179.0262376095634,130.26892867143033 168.2303217931185,131.1428571428405 166.80229060025886,125.49591300083557 161.54713581129909,119.7816910376423 159.8334983799141,113.6640539210639 160.80455959099345,108.28586159425322 164.0033494627569,103.44544865336502 171.31486916937865,100.28571428568102 177.71244891243987,101.22691343910992 182.39639122434892,104.38664301508106 184.68124113278463,107.88249529100722 185.82366608688608,112.3195102083846 184.3385136462748,119.58001165435417 179.08335885754786,125.36146132380236 178.74063137103803,130.67228042631177 168.17320054536685,131.07563191937516 166.91653309576213,125.76481626793975 161.375772068277,119.58001165435417 159.94774087541737,115.54641022533178 160.9188020862639,108.21863389521604 163.88910696748644,103.91604601260042 170.1724442152772,100.48739993863273 176.45578146283515,100.82354254811071 182.05366373830475,104.11773048591567 185.7094235913828,110.5043715761858 184.8526048755739,118.10102750739316 182.6819974631071,121.8657074951916 179.1976013528183,125.29423547437182 178.74063137103803,130.60505515208934 168.00183680211194,131.00840668880846 166.91653309576213,125.63036464899778 163.08940949942917,121.9329337158706 160.40471085719764,117.2270806732704 160.004862123169,110.90773617528612 162.06122704036534,105.93288779642899 165.03153192135505,102.70593779638875 168.51592803164385,100.89077104820171 173.99956781137735,100.3529428440961 179.3689650958404,101.83196928398684" stroke="#4dd2ff" stroke-dasharray="none" stroke-linecap="round" stroke-linejoin="round" stroke-width="0.5"><title>2026-05-10 11.2km</title><desc>1778422578000</desc></polyline><polyline fill="none" opacity="1" points="42.571428571478464,158.8928227002034 34.017492711311206,158.4605458593578 23.574344023363665,156.91669465065934 12.002915451885201,156.7623090702691 11.714285714318976,142.0026616587711 16.437317784293555,141.44684411186608 33.6239067055285,141.1071772997966" stroke="#4dd2ff" stroke-dasharray="none" stroke-linecap="round" stroke-linejoin="round" stroke-width="0.5"><title>2026-05-10 11.3km</title><desc>1778397813000</desc></polyline><polyline fill="none" opacity="1" points="61.45788716501556,134.57142857142026 62.09835425741039,163.0202580859186 65.6849699774757,165.42857142857974" stroke="#ffc700" stroke-dasharray="none" stroke-linecap="round" stroke-linejoin="round" stroke-width="0.5"><title>2025-11-09 21.3km</title><desc>1762645227000</desc></polyline><polyline fill="none" opacity="1" points="112.4837172315456,151.50623352470575 109.92441301536746,156.0578015780775 106.3413871130906,159.33758718828904 106.05701997806318,164.82616906880867 95.42168912454508,165.29470428824425 93.94298002193682,159.53838982339948 87.91439675772563,152.57719372957945 87.06129535241053,147.15543860662729 88.25563731975853,142.00138037477154 92.86238490859978,136.7134058237425 99.8578164326027,134.57142857147846 106.51200739433989,136.0440387300332 109.29880531853996,138.5206933551235 112.31309695052914,143.34010093129473 112.93870464758947,147.15543860662729 112.42684380430728,151.03768785129068 110.83438784792088,154.9199127073516 106.22764025931247,159.47145561903017 106.05701997806318,164.69230179779697 97.18476536218077,165.42857142857974 94.85295485449024,165.09390352328774 94.22734715696424,160.0069290517131 89.62059956835583,155.45539008401101 87.97127018449828,152.57719372957945 87.11816877941601,146.95463194773765 88.36938417400233,141.86750815977575 93.31737232464366,136.4456590731861 100.48342412966304,134.63836547295796 106.73950110236183,136.11097547214013 111.2325018371921,141.0642742596683 112.5974640857894,144.34413944545668 112.71121093980037,150.5691418228089 110.83438784792088,154.85297800274566 106.39826054009609,158.93598172214115 106.11389340483584,164.62536815163912 95.13732198951766,165.29470428824425 94.05672687618062,159.67225821060129 89.62059956835583,155.52232472336618 87.40253591444343,150.10059543902753 87.28878906019963,144.7457543942728 89.90496670338325,139.39086694811704 94.79608142748475,135.64241812570253 101.62089267023839,134.77223925443832 106.51200739433989,136.17791220679646 111.74436268024147,141.8005720412475 112.88183122081682,146.08446900564013 112.25622352352366,151.90784381894628 110.03815986961126,155.79006320866756 106.22764025931247,159.40452140721027 106.0001465510577,164.69230179779697 102.81523463781923,165.29470428824425 94.90982828149572,165.22777070710436 94.11360030295327,159.67225821060129 89.90496670338325,155.85699781193398 88.14189046574757,152.7779985613888 87.28878906019963,144.6788185876212 91.49742266023532,137.78439166554017 97.63975277822465,134.83917613408994 105.43141228077002,135.77629168948624 110.83438784792088,140.46184814959997 112.82495779381134,145.95059767505154 112.36997037753463,151.57316859206185 109.86753958836198,156.12473615229828" stroke="#4dd2ff" stroke-dasharray="none" stroke-linecap="round" stroke-linejoin="round" stroke-width="0.5"><title>2025-11-01 10.0km</title><desc>1761964262000</desc></polyline><polyline fill="none" opacity="1" points="142.666997136781,159.81214352924144 142.37951208115555,165.22556889004773 131.16759490896948,165.36090392316692 130.305139742326,159.74447541544214 126.107857929077,156.15805489453487 124.32545058382675,152.84228930529207 123.57798943924718,145.12799106084276 126.97031309618615,138.69933642470278 132.77751122112386,135.1804658716428 139.3321704911068,134.97745350422338 145.3118596491404,138.02263208845397 148.76168031734414,143.23323656979483 149.5666384731885,149.12049064069288 147.72673411667347,154.66934599052183 142.78199115931056,159.33846657845424 142.26451805909164,165.29323641041992 131.2250919204671,165.42857142857974 130.53512778668664,159.81214352924144 124.67043265071698,153.72198393184226 123.29050438362174,147.42875664576422 123.92297150590457,143.50391613459215 125.87786988471635,140.05274289811496 130.76511583128013,135.85717328666942 137.77975118998438,134.57142857147846 144.85188356018625,137.6842796455021 148.99166836193763,144.11294472654117 149.50914146215655,149.3911676549469 147.20926101668738,155.27836369804572 142.78199115931056,159.40613473625854 142.03453001426533,165.42857142857974 131.28258893173188,165.42857142857974 130.70761882001534,159.74447541544214 126.62533102929592,156.36106037953869 124.2679535727948,152.3686070702388 123.6354864500463,144.51896345813293 127.60278021870181,137.95496161445044 133.40997834363952,134.90978270058986 140.769595769234,135.24813664599787 146.23181182751432,139.24069936596788 149.10666238423437,145.1956607577158 149.2791534177959,150.06785967730684 147.55424308334477,154.87235195899848 142.72449414804578,159.67680729436688 142.49450610321946,165.02256628562463 141.7470449586399,165.36090392316692 131.2250919204671,165.42857142857974 130.305139742326,159.67680729436688 126.39534298493527,156.36106037953869 124.2679535727948,152.5716137861018 123.6354864500463,144.7219727251213 127.48778619640507,138.15797301440034 133.8699544328265,134.90978270058986 141.45955990278162,135.45114892564015 146.17431481624953,138.97001795395045 149.16415939526632,145.12799106084276 149.2216564065311,150.81222005496966 146.8067819387652,155.95504934387282 142.8394881701097,159.60913916595746 142.26451805909164,165.22556889004773" stroke="#4dd2ff" stroke-dasharray="none" stroke-linecap="round" stroke-linejoin="round" stroke-width="0.5"><title>2025-10-27 10.0km</title><desc>1761565093000</desc></polyline><polyline fill="none" opacity="1" points="183.3045300617814,139.826683322608 185.82335218274966,146.15988005150575 184.27771133603528,153.77310566307278 179.01108326553367,159.43243423564127 178.8393453937024,164.68747895077104 167.61913776537403,165.1590833569644 166.87494032038376,159.63455216091825 162.98221522476524,156.19853849895298 160.17716331779957,150.94342206860892 160.11991736036725,143.93653109826846 162.5242475667037,139.42243453371339 168.64956499636173,135.1778063857928 175.11835817014799,134.70617924811086 179.69803475309163,136.39056024083402 182.0451190015301,138.3444364783354 185.82335218274966,145.1492678760551 185.7088602683507,149.66332288016565 184.39220325066708,153.84047892520903 179.01108326553367,159.43243423564127 178.8393453937024,164.75485103065148 168.01985946600325,165.29382740717847 166.7604484059848,159.70192478818353 162.81047735293396,156.19853849895298 159.8909335313365,149.46120171493385 160.34890118963085,143.66703371558106 162.695985438535,139.15293519495754 169.27927052648738,134.9083052079077 177.40819646138698,135.24518166203052 180.49947815504856,136.6600607764558 182.5603326172568,138.8834357392625 185.65161431091838,145.5535129432683 185.5943683537189,150.1349386770744 184.2204653788358,154.10997190029593 178.95383730810136,159.63455216091825 178.8393453937024,164.75485103065148 167.84812159417197,165.2264553856803 167.04667819221504,160.0387878145557 161.49382033525035,154.17734512581956 159.833687574137,149.52857544412836 160.69237693329342,141.98267242719885 162.63873948110268,139.22031004045857 169.45100839831866,134.9083052079077 175.46183391381055,134.84092989517376 181.4726594290696,137.73806175100617 185.4798764390871,144.34077695361339 185.65161431091838,150.00019134301692 183.53351389151067,155.1205695171957 179.12557517993264,159.2976889157435 178.78209943627007,164.82222310313955 167.9053675516043,165.42857142857974 167.04667819221504,159.9714152237284 162.695985438535,155.8616733927629 160.29165523219854,151.07816919818288 160.17716331779957,144.67764829896623 162.5814935239032,139.42243453371339 167.733629679773,135.58205793355592 173.62996328040026,134.57142857142026 180.27049432578497,136.6600607764558 184.62118707969785,141.84792332723737 185.88059814018197,146.2946282174671 185.3653845244553,151.3476633700775 183.59075984871015,155.1205695171957 179.06832922296599,159.2976889157435" stroke="#4dd2ff" stroke-dasharray="none" stroke-linecap="round" stroke-linejoin="round" stroke-width="0.5"><title>2025-10-19 10.0km</title><desc>1760866141000</desc></polyline><polyline fill="none" opacity="1" points="21.91626411001198,199.37815952458186 21.230809286003932,194.13456740026595 17.403686518548056,190.70604090642883 15.00459463451989,186.67245607898803 14.319139810511842,179.07580014754785 17.689292695140466,172.95807158655953 24.543840935220942,168.99159996648086 31.112782998476177,169.46219961962197 36.7677852967754,173.22698399907677 39.852332004811615,178.87411774968496 40.023695710580796,184.05061188450782 38.08157370914705,189.09261012118077 33.28338994132355,193.73121232510312 32.99778376473114,199.31093426491134 21.859142874600366,199.37815952458186 21.230809286003932,194.33624483947642 17.060959106776863,190.23545736056985 14.319139810511842,184.9245611797669 14.604745987337083,177.05897321912926 17.632171459961683,172.68915905756876 19.859899637987837,171.07568143570097 26.485962936654687,168.85714285710128 33.397632411913946,170.5378546298016 36.824906531954184,173.29421208414715 39.452483357163146,177.32788385497406 39.852332004811615,184.99178799777292 38.08157370914705,189.22706284659216 33.45475364732556,193.79843818908557 33.34051117673516,199.10925844189478 23.172931287204847,199.71428571426077 21.859142874600366,199.37815952458186 21.05944558000192,193.93288989533903 16.832474165363237,189.7648734577815 14.204897339921445,184.1178387971595 14.033533633919433,179.54639215453062 17.060959106776863,173.4958962954115 19.517172225983813,171.27736636798363 23.972628581803292,169.32774261228042 30.71293435129337,169.32774261228042 35.682481825118884,172.15133364970097 39.96657447540201,179.00857268890832 39.452483357163146,185.93296268413542 37.853088767966256,189.36151554319076 33.226268705911934,193.3950828954694 33.05490499967709,199.10925844189478 22.20187028660439,199.44538477715105 21.002324344590306,193.8656640459667 15.86141316476278,188.62202535185497 14.147776104742661,184.25229260022752 14.319139810511842,178.80689026927575 16.71823169454001,173.96649253321812 19.46005099080503,171.27736636798363 23.458537464030087,169.39497111947276 30.59869188047014,169.39497111947276 36.65354282571934,173.02529970079195 40.25218065176159,180.6892569718184 38.25293741514906,188.89093097794103 33.34051117673516,193.1934051506105 33.16914747073315,199.10925844189478 21.80202163918875,199.44538477715105" stroke="#4dd2ff" stroke-dasharray="none" stroke-linecap="round" stroke-linejoin="round" stroke-width="0.5"><title>2025-10-16 10.0km</title><desc>1760611285000</desc></polyline><polyline fill="none" opacity="1" points="69.8084638826549,193.73328406410292 69.5774625746999,199.30649195803562 58.4316494720988,199.71428571426077 57.6231448946055,194.2090476458543 52.772117430344224,189.4513955959701 50.69310565991327,184.4898057495011 50.86635664082132,178.23678732733242 54.38912658509798,172.2555809636251 61.78116843546741,168.85714285710128 69.40421159379184,169.67276968131773 75.23699461645447,175.7219688707264 76.50750180939212,180.3437896258547 75.23699461645447,187.95612607337534 69.69296322879381,193.73328406410292 69.69296322879381,199.17056064715143 58.48939979914576,199.64632010669447 57.73864554846659,194.34498003131012 52.2523644878529,188.6357944799238 50.69310565991327,184.08200209971983 50.92410696763545,178.0328835035907 54.21587560442276,172.59542376187164 60.91491353115998,168.99308073462453 68.82670832425356,169.67276968131773 73.79323644284159,173.41104572702898 76.56525213667192,180.1398864868097 75.29474494373426,187.95612607337534 69.8084638826549,193.8012503120117 69.51971224788576,199.3744576026802 58.48939979914576,199.64632010669447 57.6231448946055,194.07311523065437 52.71436710329726,189.11156192666385 50.57760500605218,183.94606749067316 50.80860631377436,178.4406910847756 52.829867757158354,174.02276150509715 59.586656011175364,169.40089419099968 66.63219589996152,169.0610496623558 69.98171486356296,170.21652030857513 73.21573317283764,173.00323487701826 76.56525213667192,180.27582192019327 76.44975148281083,184.35387122893007 75.06374363554642,188.29596036870498 69.75071355560794,194.00514901196584 69.69296322879381,199.3744576026802 58.54715012572706,199.71428571426077 57.73864554846659,194.27701384213287 53.29187037283555,190.0630957374815 50.63535533263348,184.42183849279536 50.92410696763545,177.7610116356518 53.86937364260666,173.00323487701826 60.62616189639084,169.0610496623558 68.30695538176224,169.46886307455134 73.50448480783962,173.34307727054693 76.44975148281083,180.07191875914577 75.41024559736252,187.41239081817912" stroke="#4dd2ff" stroke-dasharray="none" stroke-linecap="round" stroke-linejoin="round" stroke-width="0.5"><title>2025-10-08 10.1km</title><desc>1759919017000</desc></polyline><polyline fill="none" opacity="1" points="112.67903936747462,178.1076939170016 113.02326668053865,183.37436969042756 111.30213011498563,188.64100096846232 106.25346285570413,193.77254762209486 105.73712188564241,199.30916900699958 94.95133274048567,199.64676628122106 94.20550689520314,194.11014789470937 88.06678647757508,187.29058693378465 87.14884697576053,180.2683867966989 90.24689279403538,173.4486744105816 96.1561283362098,169.53237020672532 102.1801063164603,168.99218838568777 108.94991014176048,172.03070504026255 112.5069257109426,177.56751952692866 113.0806378996931,183.23932727775536 110.95790280192159,189.24868632969446 106.25346285570413,193.90758775314316 105.85186432348564,199.37668847641908 94.8365903024096,199.5792468409636 93.80390836321749,193.63750746200094 90.30426401272416,190.66661653557094 87.77993038319983,186.8179413304897 87.14884697576053,179.99830059608212 90.07477913773619,173.71876344876364 93.2875673933886,170.74777759274002 96.1561283362098,169.53237020672532 103.09804581827484,169.05971113877604 109.69573598681018,172.97601831227075 112.10532717895694,176.28460347442888 113.02326668053865,183.4418908857624 111.24475889606401,188.70852159353672 106.31083407416008,193.63750746200094 105.85186432348564,199.30916900699958 95.06607517809607,199.71428571426077 94.14813567628153,193.97510780760786 91.05008985800669,191.67942185106222 88.4683850093279,188.0333150147926 87.09147575683892,180.403429852915 89.61580938659608,174.2589411739027 95.18081761570647,169.86998360714642 102.29484875430353,168.99218838568777 108.37619795324281,171.5580478667398 112.04795596003532,176.2170815038844 112.9658954620827,183.4418908857624 111.13001645822078,188.97860402002698 106.42557651223615,193.43494716653368 105.90923554240726,199.30916900699958 94.95133274048567,199.5792468409636 94.26287811412476,194.31270797044272 89.0994684167672,189.04612460831413 86.9193621003069,181.21368757646997 88.06678647757508,176.89230088109616 90.53374888841063,172.90849598305067 94.89396152156405,169.9375062654144 98.50834830966778,168.85714285710128 103.1554170367308,169.26227935461793" stroke="#4dd2ff" stroke-dasharray="none" stroke-linecap="round" stroke-linejoin="round" stroke-width="0.5"><title>2025-10-01 10.0km</title><desc>1759271073000</desc></polyline><polyline fill="none" opacity="1" points="147.81298086699098,175.42118025163654 149.53789138793945,180.49641961825546 148.56044209259562,186.92499696242157 146.43305245018564,190.37610067048809 142.75324333901517,193.4211763467756 142.63824930391274,199.0376103289891 138.67095510591753,199.5789506958099 131.13884583092295,199.51128317572875 130.4488816226367,194.09785781480605 126.13660532026552,190.03775801265147 123.66423357347958,185.57161775551504 123.95171866053715,177.78963042015675 126.0791083027143,173.86476525175385 129.06895320583135,171.09027672169032 134.41617582086474,168.99248453072505 142.4657582519576,170.07521686382825 147.81298086699098,175.21816981921438 149.4228973533027,179.75205375783844 149.30790331866592,184.6919196989038 146.89302858896554,190.10542655875906 142.75324333901517,193.75951717217686 142.23577018268406,199.37594811309827 131.25383986602537,199.51128317572875 130.5638756575063,194.09785781480605 124.06671269517392,186.99266584590077 123.31925146933645,182.93251986941323 123.83672462566756,177.85730029299157 127.40153970243409,172.51135775184957 134.24368476867676,169.0601553565939 141.66080000880174,169.87220469425665 145.74308824166656,172.7143690637895 149.07791524892673,178.66933819599217 149.36540033575147,184.42124312452506 146.95052560651675,189.83475232997444 142.69574632146396,193.69184902188135 142.69574632146396,198.96994275023462 142.00578211294487,199.4436156480224 131.25383986602537,199.51128317572875 130.50637863995507,194.09785781480605 126.71157549368218,190.64677466498688 124.23920374712907,186.5866524357698 123.49174252152443,179.41370534634916 126.99906058073975,172.78203948651208 134.12869073404,169.0601553565939 142.92573439097032,170.27822896733414 147.5254957799334,174.94748914032243 149.4228973533027,180.1580716096796 148.96292121428996,185.97763182548806 146.663040519692,190.30843215365894 142.86823737365194,193.5565126988222 142.5807522868272,199.1729454646702 138.7284521232359,199.71428571426077 131.25383986602537,199.71428571426077 130.4488816226367,193.96252157975687 126.25159935490228,190.10542655875906 123.77922760834917,185.57161775551504 123.95171866053715,177.92497015860863 128.78146811923943,171.09027672169032 133.72621161257848,169.12782617512858 138.61345808859915,168.85714285710128 141.66080000880174,169.73686321126297 146.08807034580968,172.9850507103838 148.96292121428996,178.26331937644864 149.4228973533027,184.01522804331034" stroke="#4dd2ff" stroke-dasharray="none" stroke-linecap="round" stroke-linejoin="round" stroke-width="0.5"><title>2025-09-27 10.0km</title><desc>1758965825000</desc></polyline><polyline fill="none" opacity="1" points="185.65634779143147,179.40846978599438 185.825500279665,183.32369581679814 184.35951204923913,188.16792390256887 178.89024826674722,194.2729239243199 178.89024826674722,199.51521235407563 167.61341572529636,199.71428571426077 167.16234242380597,194.00749040569644 161.52392615308054,187.76976961421315 159.9451695973985,180.53658832702786 160.90370036335662,177.21858668833738 164.06121347495355,172.90515769273043 169.07940395572223,169.7198367860401 176.2965767821297,169.58711472223513 180.52538898517378,171.11341672064736 182.72437133057974,173.037879037729 185.71273195417598,180.47022847045446 185.48719530343078,185.1817604326061 182.38606635434553,191.35314889496658 179.0030165920034,193.80841519136447 178.60832745325752,199.38249674468534 167.61341572529636,199.64792793459492 166.93680577282794,193.60933991213096 161.63669447833672,188.7651548499707 160.05793792265467,184.31908827618463 159.88878543465398,180.73566785396542 161.18562117684633,176.4886239162297 166.76765328459442,170.58252950024325 174.32313108746894,169.321670508245 182.04776137811132,171.77702509914525 185.03612200170755,177.21858668833738 185.59996362868696,183.72185299464036 183.73928625928238,189.09694956929889 179.0594007547479,193.80841519136447 178.7210957785137,199.64792793459492 167.61341572529636,199.58157014794415 166.99318993557245,194.14020717935637 162.70799356978387,190.29140907083638 160.05793792265467,184.18636937486008 161.07285285159014,176.4886239162297 165.86550668161362,171.44522099971073 170.48900802340358,169.38803157251095 180.75092563591897,170.8479731681291 183.11906046955846,172.97151836869307 185.31804281519726,179.07666982000228 185.65634779143147,183.72185299464036 183.17544463230297,190.0259738272871 178.94663242949173,194.07384879601886 178.60832745325752,199.51521235407563 167.5570315627847,199.44885455287294 166.76765328459442,193.80841519136447 163.04629854648374,190.75592047028476 161.0164686886128,187.50433327822248 160.05793792265467,179.87298943678616 162.538841082016,174.56417243886972 167.10595826082863,169.91891982790548 172.63160620629787,168.85714285710128 182.32968219183385,172.10882901860168 185.14889032696374,177.74946815823205 185.65634779143147,183.92093148641288" stroke="#4dd2ff" stroke-dasharray="none" stroke-linecap="round" stroke-linejoin="round" stroke-width="0.5"><title>2020-04-24 10.0km</title><desc>1587724293000</desc></polyline><polyline fill="none" opacity="1" points="32.86381099023856,204.2932604337111 29.931462787091732,203.34586964239134 25.504191970452666,203.48121127177728 17.512105690781027,207.33843538939254 13.774799157632515,216.06785466475412 15.1547277236823,221.88739975221688 21.36440627160482,228.5865763981128 22.054370554862544,234.0 33.266290155705065,233.52632730739424 33.266290155705065,228.31590398674598 38.441022278741,222.5640875234967 40.51091512804851,215.86484629951883 37.92354906653054,208.01513891934883 38.55601632595062,207.20309459540294 36.02614728780463,207.60911688924534 32.00135563616641,204.7669552905718 25.561688993824646,203.1428571428405 18.54705211543478,206.32337872014614 14.522260464029387,212.68437329801964 15.097230700077489,221.88739975221688 21.19191520079039,228.45124020706862 21.65189138939604,233.86466498154914 32.80631396663375,233.66166239901213 33.208793131867424,227.97756330744596 37.98104608990252,223.4437805300695 39.82095084525645,217.55658066092292 39.073489538393915,212.1430145787308 35.73866217001341,206.72940158558777 28.724025291623548,203.34586964239134 23.77928126254119,203.81956521753455 17.454608667409047,206.79707203770522 14.177278322633356,213.0903920296114 14.694751534843817,220.7370288593811 16.879638431593776,224.52647791517666 20.96192710637115,228.31590398674598 21.536897342419252,233.79699746146798 32.80631396663375,233.66166239901213 32.86381099023856,228.31590398674598 37.86605204292573,223.3084432252217 39.533465726999566,218.03026546136243 38.61351334955543,211.5339854589547 35.22118895780295,206.59406065981602 32.34633777779527,204.4962725591613 27.631581843364984,203.48121127177728 24.526742569403723,203.54888207558542 18.834537233691663,205.5113321969984 14.924739629030228,210.85728574066889 13.774799157632515,214.71446431690129 14.924739629030228,221.81973093480337 17.85708783240989,225.74451023031725 21.01942412997596,228.1128996014013 21.709388413233683,233.93233249452896 32.86381099023856,233.72932993405266 32.86381099023856,228.31590398674598 38.26853120792657,222.6317562603508 39.70595679804683,215.1204817292164 37.98104608990252,209.639224400511" stroke="#4dd2ff" stroke-dasharray="none" stroke-linecap="round" stroke-linejoin="round" stroke-width="0.5"><title>2020-04-16 10.0km</title><desc>1587033949000</desc></polyline><polyline fill="none" opacity="1" points="70.69854793814011,205.0967390948208 66.00438096583821,203.34498314664233 61.31021399330348,203.68185967364116 54.55519322841428,206.51161529723322 51.40666660061106,211.8342159940512 50.60522345895879,215.6071711804252 51.97912598773837,222.47928075160598 57.932703610975295,228.34072597970953 58.905884568579495,233.93262799317017 69.61087510315701,233.52839579817373 69.78261291934177,228.13860809826292 74.5340258302167,223.4225055516581 76.53763368399814,218.03263028647052 75.79343648138456,212.37321099312976 71.49999107979238,206.17474030307494 65.1456918856129,203.47973377950257 56.21532545052469,205.568364853214 51.97912598773837,210.8235991114052 50.719715336570516,215.13555303349858 51.292174723464996,220.52545340178767 54.211717596277595,225.24157791258767 58.04719548835419,228.5428437954979 58.734146752394736,234.0 69.72536698053591,233.52839579817373 69.78261291934177,228.07123545656214 74.99199333973229,222.88352012675023 76.53763368399814,217.2915187854087 76.02242023614235,213.0469540852937 73.44635299500078,208.1959875326138 69.0956616550684,204.62511297868332 66.06162690441124,203.34498314664233 60.73775460664183,203.88398550229613 54.55519322841428,206.37686532136286 51.23492878465913,212.64270831743488 50.66246939776465,216.81990191579098 51.864634110126644,222.3445342349005 57.98994954978116,228.34072597970953 58.44791705906391,233.7978839573334 69.89710479648784,233.1915354350931 69.83985885768197,228.00386280717794 74.7630095849745,223.2877592392033 76.36589586827904,217.96525655023288 75.7361905425787,211.96896478743292 70.98477763147093,206.17474030307494 65.66090533370152,203.14285714289872 60.623262729495764,204.01873601833358 54.55519322841428,206.781115161255 51.463912539416924,212.10371355188545 50.719715336570516,218.23475145193515 53.18129070010036,223.9614905095077 57.8754576719366,228.47547119756928 58.56240893667564,234.0 69.89710479648784,233.39365167479264 69.89710479648784,228.13860809826292 74.5340258302167,223.5572518350673 76.48038774565794,217.62838775885757 75.6216986651998,212.10371355188545 72.18694234406576,206.98323998280102 66.00438096583821,203.54710908478592 60.50877085188404,203.74923495721305" stroke="#4dd2ff" stroke-dasharray="none" stroke-linecap="round" stroke-linejoin="round" stroke-width="0.5"><title>2020-04-14 10.0km</title><desc>1586861907000</desc></polyline><polyline fill="none" opacity="1" points="96.00395512883551,203.88723598467186 90.42674142424949,206.45871970430017 87.43689490202814,213.76708932878682 88.01186538673937,219.9250010708929 90.08175913314335,224.05279803968733 94.39403777080588,228.11289960093563 95.1989964498207,234.0 106.18093271437101,233.25565703591565 106.4109209079761,227.774558812147 110.89569069165736,223.30844322493067 113.13807558314875,217.15056483168155 112.56310509797186,212.4136939967284 109.17077923612669,206.52639018575428 102.61611570673995,203.3458696422167 96.75141675956547,203.684223661141 90.31174732698128,206.66173112619435 86.86192441708408,213.22573154774727 87.1494096594397,218.36861152702477 88.47184177511372,221.68439327768283 94.45153481932357,228.11289960093563 94.68152301339433,233.52632730727782 106.12343566562049,233.25565703591565 106.23842976265587,228.18056773685385 111.4706611763686,222.56408752314746 112.8505903405603,217.48891137429746 112.44811100116931,212.81971290428191 108.13583236327395,205.44366160576465 102.78860685229301,203.27819881634787 96.29144037142396,203.6165528721176 90.7142266666051,206.18803770601517 86.97691851388663,215.05281217844458 88.81682406621985,222.09040616021957 94.39403777080588,228.31590398657136 94.73902006167918,233.52632730727782 105.89344747154973,233.32332461467013 106.12343566562049,227.97756330732955 110.60820544860326,223.44378052977845 112.67809919500723,218.43628071824787 112.33311690413393,212.21068444399862 108.59580875141546,206.3910492156283 102.44362456118688,203.1428571428405 95.14149940153584,204.22558971040417 90.25425027869642,206.52639018575428 86.91942146536894,214.84980348340468 88.29935062956065,221.61672443820862 94.2790436737705,228.24823586526327 94.73902006167918,233.32332461467013 106.29592681117356,233.1879894498852 106.23842976265587,227.774558812147 111.06818183674477,222.76709371153265 112.8505903405603,217.48891137429746 112.21812280709855,211.94000493793283 107.90584416920319,205.84968504321296" stroke="#4dd2ff" stroke-dasharray="none" stroke-linecap="round" stroke-linejoin="round" stroke-width="0.5"><title>2020-04-13 10.0km</title><desc>1586775592000</desc></polyline><polyline fill="none" opacity="1" points="150.5239967838861,203.8255536367069 149.30587360495701,205.46402220439631 145.41948060551658,207.2390250126482 138.34276499506086,203.48420548223658 131.67209044424817,203.96209284674842 126.79959772899747,206.41979356849333 123.08722232654691,211.74477892153664 122.91320472978987,219.8687083607074 125.0594217593316,223.89650009549223 129.69989101192914,228.40213492530165 130.22194380266592,233.8634672971093 140.83701721858233,233.38560260366648 141.59109347243793,227.9242660916061 146.23156272480264,223.35036035184748 148.20376215758733,218.63988541916478 147.91373282880522,212.76880940853152 145.18745714309625,207.5121019242797 138.57478845794685,203.48420548223658 132.0201256382279,203.6890143970959 125.87150387861766,207.2390250126482 123.43525752052665,211.26689745829208 122.50716367014684,214.95340221992228 123.49326338618994,221.64367060229415 125.00141589343548,224.4426393659087 129.46786754927598,228.3338679713197 130.16393793723546,233.8634672971093 140.83701721858233,233.45386901055463 141.70710520353168,227.78773207234917 145.535492337076,224.3743719831109 147.6237035007216,220.7561901063891 148.26176802278496,215.22647578903707 146.75361551577225,209.49190599360736 143.33126944187097,205.66883047582814 137.41467114468105,203.48420548223658 131.20804351894185,204.0303624405642 126.4515625347849,206.76114013290498 124.13132790848613,209.56017498858273 122.33314607315697,215.22647578903707 122.50716367014684,218.50334938889137 124.53736896836199,223.96476753003662 129.52587341493927,228.53866881120484 130.04792620590888,233.79520093440078 141.0110348155722,233.5221354100504 141.76511106919497,227.9242660916061 146.34757445612922,223.35036035184748 148.08775042602792,219.52736889512744 148.20376215758733,213.58803260012064 146.75361551577225,209.42363699135603 141.18505241256207,204.64478845300619 134.63038959284313,203.41593582910718 127.72769157937728,205.5322916356963 123.49326338618994,210.65247790160356 122.44915780448355,213.58803260012064 122.62317540147342,219.2542971894145 125.23343935608864,224.71570882381639 129.2938499522861,228.40213492530165 130.16393793723546,234.0 141.35907000955194,233.38560260366648 141.41707587544806,228.19733404094586 146.75361551577225,222.53114984877175 148.20376215758733,217.274523785396 146.86962724709883,210.24286453117384 144.43338088924065,206.69287083507515 141.12704654666595,204.16690160625149 134.39836613018997,203.1428571428405 127.49566811695695,205.66883047582814" stroke="#4dd2ff" stroke-dasharray="none" stroke-linecap="round" stroke-linejoin="round" stroke-width="0.5"><title>2020-04-12 10.0km</title><desc>1586649823000</desc></polyline><polyline fill="none" opacity="1" points="183.49782694713213,224.04840616701404 179.0145520507358,228.1893573384732 178.61729984451085,233.7996339229867 167.7212393360678,233.73284521629103 167.0969858695753,228.12256802420598 162.55696065793745,224.18198567116633 160.51394931273535,220.9092794911121 159.83294553076848,215.0317227439955 163.06771349417977,208.08544708631234 167.0969858695753,204.67907177394954 173.7935230571311,203.14285714289872 182.07906906865537,206.0149074725923 185.25708671682514,212.62725156376837 185.93809049855918,217.50297502003377 183.95182946836576,223.11334882833762 178.90105142001994,228.45651452359743 178.9578017354943,233.7996339229867 167.60773870605044,233.73284521629103 167.0969858695753,228.12256802420598 161.8192065609619,223.71445728029357 160.23019773699343,220.5753289043787 159.83294553076848,215.2988856297452 160.68420025799423,211.29143019014737 166.35923177283257,204.81265547429211 170.5587550937198,203.20964916283265 178.16329732351005,204.4786961696227 183.04382442613132,207.5511149482918 185.71108923782595,213.6291156950174 185.82458986830898,217.70334639237262 183.78157852287404,223.64766748133115 179.128052680986,228.32293594558723 178.84430110524409,233.7996339229867 167.60773870605044,233.7996339229867 166.9834852393251,228.12256802420598 162.44346002768725,224.24877541244496 160.45719899749383,220.5753289043787 160.1166971065104,213.49553390493384 163.06771349417977,208.08544708631234 166.5294827183243,204.87944731337484 169.0832468997687,203.87756896566134 175.49603251134977,203.5436091547599 181.9655684379395,206.0149074725923 185.59758860757574,212.9612064550165 185.76783955306746,217.97050812043017 183.4410766318906,224.24877541244496 179.128052680986,228.05577870248817 178.84430110524409,233.59926778101362 167.66448902129196,234.0 166.92673492408358,227.98898937366903 162.15970845194533,223.8480368569144 160.45719899749383,220.64211903640535 159.7761952157598,213.69590657937806 163.01096317940392,208.08544708631234 166.41598208784126,204.87944731337484 169.3102481602691,203.677193100797 173.62327211163938,203.27644117578166 180.49006024445407,204.7458636277588 183.10057474114,207.08357394795166 185.76783955306746,214.8313505037804 185.6543389230501,219.50668581138598 183.3843263166491,224.24877541244496" stroke="#4dd2ff" stroke-dasharray="none" stroke-linecap="round" stroke-linejoin="round" stroke-width="0.5"><title>2020-04-08 10.0km</title><desc>1586343893000</desc></polyline><polyline fill="none" opacity="1" points="40.02517589088529,252.25622240634402 37.41466195951216,258.9352279935265 33.215139548294246,262.6086502314429 32.98813833692111,268.2189256005804 21.97857958334498,268.01855950203026 21.52457716059871,262.6086502314429 16.360299600986764,257.7330123264692 14.260538395261392,252.72375515219755 14.60104021243751,247.18012977723265 17.09805353800766,242.23757838102756 20.67332261777483,239.09836975991493 23.11358564044349,238.23007519193925 30.54787531425245,238.09649130376056 35.82565347966738,240.70137190376408 39.85492498218082,248.11520261201076 39.287421953631565,255.26178387284745 36.847158931195736,259.53633494809037 33.215139548294246,262.67543952417327 33.215139548294246,268.08534820890054 22.092080189380795,268.2189256005804 21.411076555028558,262.6086502314429 15.84954687510617,256.9983238207642 14.033537183888257,250.319297254493 15.509045058162883,244.84244148706784 20.559822011971846,238.8979941989528 27.029356537386775,237.42857142863795 34.69064742233604,239.7662878263509 37.18766074790619,242.30436988029396 40.081926193553954,249.18385554366978 39.17392134782858,255.26178387284745 36.449906811118126,259.80349340633256 33.44214075990021,262.54186093161115 33.101638942724094,268.08534820890054 21.86507897777483,268.15213690837845 21.297575949225575,262.47507162438706 16.076548086712137,257.9333817671868 14.090287486789748,252.18943198525812 14.941542029613629,246.24505552469054 20.73007292067632,238.83120233088266 27.029356537386775,237.62894746713573 34.86089833127335,239.4323288835003 38.038915290962905,243.8405723637552 40.19542679935694,249.718181315111 40.2521771020256,252.79054551565787 38.77666922821663,256.86474399844883 33.27188985142857,262.47507162438706 33.27188985142857,268.08534820890054 22.26233109785244,268.28571428573923 21.240825646324083,262.8758073586505 16.076548086712137,257.7998021475505 14.14703778969124,253.12449722364545 14.317288698395714,247.58087545150192 16.927802629536018,242.90549304691376 21.297575949225575,238.8979941989528 26.121351691894233,237.76253145665396 29.980372285703197,238.0296993488446 35.88240378256887,240.5009968635859 39.06042074225843,246.11147337284638 39.79817467951216,253.65881958039245 38.26591650233604,257.7998021475505 33.38539045699872,262.4082823100034" stroke="#4dd2ff" stroke-dasharray="none" stroke-linecap="round" stroke-linejoin="round" stroke-width="0.5"><title>2020-04-07 10.0km</title><desc>1586257895000</desc></polyline><polyline fill="none" opacity="1" points="75.54574247309938,255.66252429486485 72.99197884462774,259.53633494809037 69.81396188517101,262.34149298851844 69.87071218783967,267.8849820669857 58.6909025257919,268.2189256005804 57.66939707449637,262.6086502314429 52.448369211982936,257.3322732500965 50.85936073213816,253.12449722364545 51.25661285221577,246.97975684236735 53.86712678312324,242.10399536101613 60.10966009716503,238.09649130376056 65.5576891710516,237.76253145665396 72.36772551364265,240.30062175844796 75.82949398760684,248.24878432956757 75.14849035348743,256.0632644565194 72.59472672478296,260.2042308769305 69.87071218783967,262.47507162438706 69.53021037066355,267.75140460260445 58.86115343426354,268.28571428573923 58.00989889167249,262.8758073586505 53.41312436037697,259.00201768404804 51.143112246412784,254.126351262792 51.25661285221577,246.97975684236735 53.41312436037697,242.7719101717812 57.66939707449637,238.83120233088266 61.98242009128444,237.4953634488047 66.18194250250235,237.62894746713573 72.93522854195908,241.5028714130167 75.65924307890236,246.44542869809084 75.82949398760684,254.32672187534627 73.21898005646653,259.1355970434961 69.64371097669937,262.54186093161115 69.53021037066355,267.81819333834574 58.80440313136205,268.15213690837845 57.953148588771,262.6086502314429 52.788871029159054,258.0669613581267 50.91611103480682,253.45844875084003 51.0296116406098,247.9816208652337 53.81037648045458,242.30436988029396 58.23690010304563,238.43045097013237 65.33068795967847,237.42857142863795 72.14072430203669,240.83495522773592 74.97823944455013,244.44169403315755 75.99974489584565,247.84803908941103 76.28349641058594,252.52338401885936 75.37549156462774,255.8628944082302 72.93522854195908,259.6699141917634 69.64371097669937,262.54186093161115 69.58696067356504,267.95177078811685 58.917903737165034,268.15213690837845 58.00989889167249,263.0761751283426 52.9591219376307,258.0669613581267 50.85936073213816,253.0577068964485 51.199862549081445,247.11333880625898 53.52662496594712,242.504744334321 56.874892834573984,239.2987452559173 59.99615949159488,238.09649130376056 67.14669765089639,237.82932344061555 70.94896794203669,239.03157791355625 74.01348429592326,242.97228447382804 76.05649519897997,247.58087545150192 75.94299459317699,255.0614135642536 72.82172793638892,260.00386217422783" stroke="#4dd2ff" stroke-dasharray="none" stroke-linecap="round" stroke-linejoin="round" stroke-width="0.5"><title>2020-04-02 10.0km</title><desc>1585825459000</desc></polyline><polyline fill="none" opacity="1" points="109.4803430668544,241.66655455884757 112.23723808326758,248.0234741672757 112.57481706514955,253.5857246008818 110.71813266607933,258.3533275509835 105.99202692368999,262.5911656274693 105.82323743286543,268.28571428573923 94.79565736674704,268.15328352397773 94.28928889427334,262.723597594013 90.18207795149647,259.479006155103 88.04407773469575,256.1681808140711 87.14386711688712,248.68564949184656 90.0132884606719,242.527391292213 97.21497340151109,237.95832092664205 102.89755292562768,238.15697687020293 107.22981652291492,239.61378514906392 109.8179220482707,242.063863971096 112.23723808326758,247.89103901648195 112.68734339228831,252.79112049448304 110.3242905207444,258.6844097083085 106.21707957796752,262.52494963339996 105.99202692368999,268.21949890838005 94.73939420329407,267.9546373276389 94.28928889427334,262.92224548989907 88.83176202513278,257.49251310213003 87.14386711688712,250.407301978732 88.60670937062241,244.71258678642334 94.1204994036816,239.2164741444867 99.63428943650797,237.7596649187617 107.56739550456405,239.8786590087111 111.73086961102672,245.7720726992702 112.79986971942708,252.19516673701582 111.50581695651636,257.028997127607 105.99202692368999,262.723597594013 105.93576376000419,268.15328352397773 94.90818369411863,268.15328352397773 93.95170991285704,262.5911656274693 90.18207795149647,259.3465734857018 87.76276191673242,255.77088056819048 87.14386711688712,249.41404152027098 90.23834111518227,242.527391292213 96.82113125664182,237.42857142863795 102.16613179864362,238.0245395816164 109.25529041234404,241.9976457535522 112.51855390146375,247.9572565954295 112.74360655574128,252.98977161815856 109.9304483756423,259.3465734857018 106.16081641451456,262.52494963339996 105.76697426917963,268.0870681324159 94.96444685780443,268.21949890838005 94.1204994036816,262.45873363222927 90.18207795149647,259.41278982389485 88.15660406183451,256.49926415499067 87.20013028080575,249.3478240989498 89.6757094792556,243.25579065823695 94.40181522164494,238.68672573694494 98.50902616442181,237.7596649187617 104.30413201544434,238.68672573694494 107.11729019554332,239.54756666638423 109.4240799031686,242.063863971096 112.51855390146375,248.2221268400317 112.85613288311288,253.25463968218537" stroke="#4dd2ff" stroke-dasharray="none" stroke-linecap="round" stroke-linejoin="round" stroke-width="0.5"><title>2020-03-23 10.0km</title><desc>1584960411000</desc></polyline><polyline fill="none" opacity="1" points="126.24493661057204,242.5936094521894 132.65893865050748,237.42857142857974 138.11646670242772,237.56100884615444 143.91157380864024,239.41512967919698 146.04957448877394,241.40168147400254 148.86273327819072,247.36129812558647 149.08778598136269,252.12894961691927 146.94978530146182,258.28711109771393 142.39246806246229,262.32630160817644 141.77357312873937,267.8884219143656 131.19609608012252,268.28571428573923 130.29588526766747,262.6573816141463 126.46998931397684,259.28035714 124.05067275487818,254.71141198358964 123.65683052432723,247.9572565953713 126.30119978659786,242.92470014473656 132.37762277177535,237.49479014100507 139.5230460970197,237.75966491864529 144.75552144553512,240.0110958952573 148.3563646960538,245.9045083091478 149.08778598136269,252.59246930660447 146.94978530146182,258.28711109771393 142.3362048866693,262.723597594013 142.16741535929032,267.9546373276389 131.08356972853653,268.08706813229946 130.35214844346046,262.52494963328354 126.52625248976983,258.8830589167774 123.9381464032922,254.71141198358964 123.71309370012023,248.15590928966412 126.0761470834259,242.72604575072182 133.44662311160937,237.42857142857974 142.2236785350833,238.42185136082117 146.10583766456693,241.40168147400254 148.41262787184678,245.9045083091478 149.08778598136269,252.32760095532285 147.11857482860796,258.02224521385506 142.39246806246229,262.723597594013 142.2236785350833,268.02085273351986 131.08356972853653,268.21949890855467 130.29588526766747,262.32630160817644 126.0761470834259,258.48576043522917 124.163199106697,255.10871291800868 123.76935687614605,247.29508048202842 126.35746296215802,242.5936094521894 132.43388594756834,237.89210226450814 138.6228352843318,237.89210226450814 144.36167921498418,239.81244055461138 146.1621008401271,241.26924488827353 148.80647010239772,247.55995101347798 149.20031233294867,252.65868637617677 146.66846942249686,258.48576043522917 142.39246806246229,262.78981356631266 142.16741535929032,268.02085273351986 131.02730655297637,268.02085273351986 130.29588526766747,262.45873363217106 124.38825180963613,255.43979683250654" stroke="#4dd2ff" stroke-dasharray="none" stroke-linecap="round" stroke-linejoin="round" stroke-width="0.5"><title>2019-12-13 10.0km</title><desc>1576239112000</desc></polyline><polyline fill="none" opacity="1" points="188.28571428568102,257.9326139631157 188.12207792222034,267.284676699579 187.09350649348926,267.66975425943383 175.14805194805376,267.532226626412 170.5194805195788,268.1098421848437 167.80779220780823,267.80728181797895 167.153246753267,262.66370047436794 166.6389610390179,239.420016088814 157.84935064939782,238.15461840227363 157.42857142852154,237.60444352947525" stroke="#4dd2ff" stroke-dasharray="none" stroke-linecap="round" stroke-linejoin="round" stroke-width="0.5"><title>2019-11-23 10.0km</title><desc>1574497580000</desc></polyline></svg>