<?xml version="1.0" encoding="utf-8" ?>
<svg baseProfile="full" height="300mm" version="1.1" viewBox="0,0,200,300" width="200mm" xmlns="http://www.w3.org/2000/svg" xmlns:ev="http://www.w3.org/2001/xml-events" xmlns:xlink="http://www.w3.org/1999/xlink"><defs /><rect fill="#222222" height="300" width="200" x="0" y="0" /><text fill="#FFFFFF" style="font-size:12px; font-family:Arial; font-weight:bold;" x="10" y="20">Over 10km Runs</text><text fill="#FFFFFF" style="font-size:4px; font-family:Arial" x="10" y="280">Runner</text><text fill="#FFFFFF" style="font-size:9px; font-family:Arial" x="10" y="290">Floyd Li</text><text fill="#FFFFFF" style="font-size:4px; font-family:Arial" x="65" y="280">SPECIAL TRACKS</text><rect fill="yellow" height="2.6" width="2.6" x="65" y="283" /><text fill="#FFFFFF" style="font-size:3px; font-family:Arial" x="70" y="285.5">Over 20.0 km</text><rect fill="red" height="2.6" width="2.6" x="65" y="287" /><text fill="#FFFFFF" style="font-size:3px; font-family:Arial" x="70" y="289.5">Over 40.0 km</text><text fill="#FFFFFF" style="font-size:4px; font-family:Arial" x="120" y="280">STATISTICS</text><text fill="#FFFFFF" style="font-size:3px; font-family:Arial" x="120" y="285">Number: 39</text><text fill="#FFFFFF" style="font-size:3px; font-family:Arial" x="120" y="290">Weekly: 1.9</text><text fill="#FFFFFF" style="font-size:3px; font-family:Arial" x="141" y="285">Total: 630.0 km</text><text fill="#FFFFFF" style="font-size:3px; font-family:Arial" x="141" y="290">Avg: 16.2 km</text><text fill="#FFFFFF" style="font-size:3px; font-family:Arial" x="167" y="285">Min: 10.0 km</text><text fill="#FFFFFF" style="font-size:3px; font-family:Arial" x="167" y="290">Max: 62.1 km</text><polyline fill="none" opacity="1" points="37.05782934644958,47.869051447560196 37.347278187342454,48.0841870214208 37.62149287876673,57.17340962824528 37.25587329029804,57.74707163372659 32.94460897566751,58.374512176727876 27.825934736290947,58.48207317390188 19.416684200288728,57.388533113189624 12.881234055559617,57.44231394075905 12.667955962184351,57.02999381633708 12.378507121291477,48.783375705912476 13.323024391604122,48.496529423311586 25.297065915714484,48.19175470349728 26.104475840344094,47.99454723295639 29.01419839897426,46.23759758082451 28.983730099978857,39.85505215309968 31.817281910974998,39.74747905411641 32.28954054618953,46.2196694270242 35.35160460002953,47.76148355577607 37.042595196922775,47.851123470420134 37.347278187342454,48.06625906759291 37.606258729239926,56.474256371933734 37.545322131190915,57.334752268114244 37.17970254260581,57.76499853942369 33.00554557365831,58.39243901440932 28.92279350181343,58.5 24.718168233928736,58.195243692724034 19.17293780797627,57.37060616679082 13.003107251657639,57.46024087941623 12.683190111711156,57.17340962824528 12.408975420345087,51.04227281511703 12.622253513662145,48.58616894004808 25.677919653768186,48.10211497332784 28.953261800983455,46.291382030482055 28.7704520066618,38.45659641394741 27.09469555929536,36.25131528280326 26.835715017456096,34.92454662642558 27.12516385834897,33.52604923311446 28.450534866715316,31.93031341578171 29.57786193129141,31.5 31.040340285457205,31.5 31.878218509082217,31.75101629513665 33.11218462034594,32.79093689122237 33.78248719929252,34.4942409946234 33.43210176035063,36.50232437287923 32.030560004350264,38.11594514967874 31.969623406184837,39.424759337780415 28.968495950452052,39.62197701697005 28.67904710955918,38.187661263524205 27.2775053535006,36.64575796776626 26.91188576503191,35.73136667108338 26.91188576503191,34.1177226491709 28.008744530612603,32.28890707435494 29.24271064181812,31.589648720560945 31.08604273403762,31.5 32.365711293765344,32.03789159488224 33.218823667033575,32.95230329471815 33.76725304982392,34.29701720624871 33.75201890023891,35.534144356657634" stroke="#4dd2ff" stroke-dasharray="none" stroke-linecap="round" stroke-linejoin="round" stroke-width="0.5"><title>2026-06-15 12.8km</title><desc>1781522628000</desc></polyline><polyline fill="none" opacity="1" points="65.08540463709505,37.228724006257835 64.35754878621083,35.72963790028007 64.53951274888823,33.74868176894961 64.93376800150145,32.96343130533933 65.88907880586339,32.05324994852708 67.89068239583867,31.5 69.08861181710381,31.767701819975628 70.68079649098217,33.05266450102499 71.1205427343375,34.0699195163761 71.2115247156471,35.47978888996295 70.62014183681458,37.05026208974596 69.40704875194933,38.3530296352983 69.61934004176874,46.15157340388396 72.40945413697045,47.668409753154265 74.48687604471343,47.90039525800967 74.74465832527494,48.114535434157006 75.01760426937835,56.001838059019065 74.82047664310085,57.60780365341634 71.86356224876363,58.25018550977984 67.55708179756766,58.5 63.15961936482927,58.268029414481134 56.19949779048329,57.322299802472116 50.28566900175065,57.39367581161787 49.98239573056344,48.70341948384885 62.90183708432596,48.15022543647501 63.9329662064556,47.82901513738034 66.41980703047011,46.27648986605345 66.2378430676763,38.54933618073119 64.72147671162384,36.693337676959345 64.34238512261072,35.194246699888026 64.66082205745624,33.498829754666076 65.82842415163759,32.14248363712977 67.19315387203824,31.55354039881786 69.10377548070392,31.767701819975628 70.28654123842716,32.57080467004562 71.1963610521052,34.48038905982685 71.0902154071373,35.94379389335518 70.65046916389838,36.94318484708492 69.42221241554944,38.263799310079776 69.37672142486554,39.530865399574395 66.40464336692821,39.655786880714004 66.1316974228248,38.2281071665202 64.85794968367554,36.94318484708492 64.32722145906882,35.53332799549389 64.41820344043663,34.12345908001589 65.37351424479857,32.51726460181817 67.31446318054805,31.571387194577255 69.1189391441876,31.83908889850136 70.40785054687876,32.76711810463166 71.22668837924721,34.748086037361645 70.80210579949198,36.63979894835211 69.42221241554944,38.192415015160805 69.34639409760712,39.56655726098688 66.72308030165732,39.673632798861945" stroke="#4dd2ff" stroke-dasharray="none" stroke-linecap="round" stroke-linejoin="round" stroke-width="0.5"><title>2026-06-14 10.1km</title><desc>1781439872000</desc></polyline><polyline fill="none" opacity="1" points="107.07965351530584,45.9896596394683 107.36738274910022,46.346092753025005 110.18410051130923,47.75399600484525 111.92561955784913,47.878746344998945 112.27392336714547,48.1104252973164 112.53136531315977,56.32590654987143 112.36478523042751,57.57334072922822 111.89533227006905,57.840646823489806 109.10890179558191,58.25051532492216 104.49009041127283,58.48217967862729 100.23472648020834,58.21487462615187 94.51042909245007,57.35949554129911 87.7866512084147,57.323854649599525 87.48377833078848,50.7479780712747 87.65035841352073,48.627246400370495 100.43159385066247,48.217353934567655 101.68851629295386,47.7361745199305 103.97520651924424,46.31044947639748 103.77833914884832,38.70043314655777 102.06710739003029,36.38349646590359 101.83995273179607,34.6368610940699 102.33969297993463,33.15755337008159 103.32402983226348,32.15945871725853 104.49009041127283,31.606939431032515 105.56528912694193,31.571292961700237 106.35275860887486,31.71387879247777 107.63996833900455,32.426806092931656 108.4728687524912,33.620952400931856 108.71516705467366,34.42298610098078 108.66973612306174,35.88445968004817 108.33657595753903,36.72212770860642 106.8827861448517,38.433095963686355 107.07965351530584,46.06094632393797 110.16895686736098,47.75399600484525 112.22849243547535,48.074782402807614 112.42535980598768,57.44859773671487 111.91047591395909,57.840646823489806 110.53240432054736,58.07231175406196 104.8838251522393,58.48217967862729 100.49216842622263,58.25051532492216 94.31356172193773,57.35949554129911 87.7866512084147,57.35949554129911 87.57464019401232,48.64506778874784 100.3710192751605,48.18171106319642 101.0676268938114,48.00349659060885 103.89948829985224,46.346092753025005 103.76319550490007,38.59349832549924 102.05196374619845,36.4369646031555 101.83995273179607,34.45863195248239 102.38512391154654,33.086261095668306 103.41489169566194,32.03469645995938 105.56528912694193,31.5 107.48853190016234,32.26639771966438 107.9882721483009,32.76544547852245 108.66973612306174,34.20911082983366 108.50315604032949,36.31220558912901 106.97364800813375,38.36180597492785 107.10994080308592,46.132232977543026 109.92665856529493,47.64706706654397 111.97105048946105,47.89656781447411 112.2890670109773,48.252996798211825 112.53136531315977,57.05654771615809 112.30421065492555,57.626801982783945 109.68436026317067,58.17923391969816 105.32299082487589,58.5 100.44673749455251,58.232694976526545 94.61643459962215,57.37731598423852 87.80179485230474,57.35949554129911 87.46863468684023,50.837083845821326 87.6352147696307,48.662889175189775 100.1438646169263,48.252996798211825 101.41593070304953,47.89656781447411 103.89948829985224,46.38173602192546 103.91463194380049,39.93017859378597 103.58147177833598,38.183580867844285 102.65770950150909,37.274629819134134 101.8853836634662,35.88445968004817 101.85509637568612,34.351694374825456 102.15796925337054,33.44272215888486 103.73290821717819,31.89211090716708 106.00445479957853,31.589116197326803 107.88226664112881,32.6763299183076 108.56373061583145,33.95958932887879 108.74545434245374,34.92202731911675 108.42743782087928,36.5260781266843 106.98879165202379,38.21922590468603 106.8070679254597,39.68066576792626 103.92977558763232,39.71631048050767 103.64204635383794,38.272693445454934 102.49112941877684,37.18551670099259 101.8853836634662,35.84881413742551 101.87024001957616,34.369517309227376 102.90000780363334,32.480275515888934 104.24779210920678,31.660409120406257 106.27704038948286,31.660409120406257 107.86712299718056,32.65850680049334 108.71516705467366,34.56556946056662 108.70002341078361,36.04486452626588 107.91255392885068,37.32809766684659" stroke="#ffc500" stroke-dasharray="none" stroke-linecap="round" stroke-linejoin="round" stroke-width="0.5"><title>2026-06-10 21.8km</title><desc>1781089369000</desc></polyline><polyline fill="none" opacity="1" points="134.68595041322988,57.615756895189406 133.86776859499514,55.85014259806485 132.5289256197866,53.92399150544952 130.85537190083414,52.114551742502954 129.62809917359846,50.02782892057439 129.2438016528613,47.67840298189549 129.7396694215131,45.664576687064255 129.34297520661494,45.679169739581994 129.15702479344327,45.489459933465696 129.2314049587003,44.336602285999106 126.40495867771097,41.695207667537034 126.67768595041707,40.71744071487046 128.0041322314064,38.36785228231747 128.10330578510184,37.57978238094074 126.31818181817653,36.397668877616525 124.0,35.77012292275322 126.16942148766248,36.353886696655536 127.91735537193017,37.390061160040204 128.45041322318139,37.94463013103814 129.18181818182347,37.75490942438773 130.33471074374393,37.81328505491547 130.11157024791464,36.51442129063071 129.54132231406402,36.193351911220816 129.29338842979632,35.697152272972744 129.40495867771097,34.0625993503927 129.7396694215131,33.52260875501088 129.40495867771097,34.04800503846491 129.28099173557712,35.784717047950835 130.08677685953444,36.54360937800084 130.39669421489816,37.75490942438773 132.56611570244422,38.163538306442206 133.45867768593598,37.302497429423966 133.12396694207564,39.75426035482087 132.28099173557712,41.75358158933523 137.90909090905916,47.26980298124545 138.9999999999418,42.83349457627628 141.66528925619787,39.7980414298072 142.38429752062075,38.57216594800411 143.11570247932104,36.558203419379424 144.7892561982735,34.39826808808721 145.9917355371872,33.72692977564293 151.0,32.38424310479604" stroke="#4dd2ff" stroke-dasharray="none" stroke-linecap="round" stroke-linejoin="round" stroke-width="0.5"><title>2026-06-09 11.9km</title><desc>1781004096000</desc></polyline><polyline fill="none" opacity="1" points="164.5464601769927,49.507273247996636 163.19816687740968,48.694193052418996 161.5,47.21858488102589 164.19658659925335,45.07037868072075 166.03128950693645,43.13293513037206 167.60145385586657,41.19545114435459 168.16466498104273,40.84408961312147 169.07774968395825,40.53288257487293 188.36346396966837,40.49272675199609 188.47439949432737,40.71358356282144 188.5,41.73754918365739 188.40613147913245,47.961410973504826 177.36378002527636,47.94133467077336 171.4073957016517,48.08186869875499 171.41592920356197,44.43795336583571 185.09513274338678,44.3877606960159" stroke="#4dd2ff" stroke-dasharray="none" stroke-linecap="round" stroke-linejoin="round" stroke-width="0.5"><title>2026-06-07 13.9km</title><desc>1780824448000</desc></polyline><polyline fill="none" opacity="1" points="17.66275598264474,73.03934836984081 17.696762606705306,73.23466276916588 17.700541120495473,73.38262637626121 17.67535102859256,73.56905825438753 17.500279889914964,74.06915668216789 17.448640201517264,74.3221581310263 17.437304660168593,74.7586116792263 17.575850165601878,76.03386439365113 17.802560992677172,77.02942616882228 17.78114941455715,77.17586974358619 17.68542706534936,77.42437648611758 17.669053505625925,77.60779525098224 17.743364276720968,78.3902559112912 17.868055231607286,78.75262810287677 17.89072631431918,78.87390972607136 17.83404860754672,79.95060704330353 17.881909782154253,80.11920311907397 17.93858748891944,80.21828932322296 18.218197508984304,80.47117774633534 18.303843821428018,80.61462700956781 18.316438867383113,80.77138428948638 18.235830573306885,81.11446946794695 18.25346363763674,81.24903933777114 18.302584316836146,81.37473528118153 18.053202407056233,81.58324013982565 17.7912254513285,81.86567785767147 17.54814106451522,82.08156875212353 17.186663245789532,82.6050161875819 16.981363996826985,82.94805569518303 16.920907776271633,83.01754972730942 16.73702010542911,83.15062242751173 16.675304380281887,83.24672968938012 16.691677940012596,83.28517240640758 16.822666417872824,83.33248637241104 17.09723841955565,83.34431483853041 17.119909502267546,83.36353607430192 17.12494752064231,83.48182001188889 17.143840089564037,83.50104105582886 17.337803797170636,83.58236056041187 17.47760880720307,83.57348936505332 17.640084899932845,83.4522491226935 18.06201893922116,83.22602972039658 18.049423893273342,83.19793685559944 17.832789102954848,83.15949389515572 17.812637029441248,83.09591491746687 17.841605635119777,82.99832800881359 18.038088351917395,83.01607113452792 18.08091150814289,82.83272440012388 18.112399123012437,82.81941688086954 18.214418995194137,82.8297671747332 18.242128096280794,82.85342496008161 18.211899986003118,83.08408623808373 18.229533050332975,83.12548657149455 18.718220833136,82.96727748382182 18.952488687784353,82.95397009454337 19.432359938429727,82.88003992002723 19.747236087139754,83.01311394849927 19.913490693666972,83.0559930838408 20.065890749639948,83.06782178734647 20.57095209218096,83.21420115272667 21.116317581756448,83.49512689131734 21.363180482345342,83.54687574470609 21.56973923589976,83.6267164515184 22.01938237626746,83.65628696626572 22.101250174928282,83.59566734273449 22.126440266831196,83.49956251493677 22.199491533334367,83.4389422018512 22.641577646129008,83.24229398435637 22.669286747215665,83.25412252790738 22.515627186643542,82.94805569518303 22.419904837428476,82.88151852740884 22.309068433081848,82.8667324464841 22.312846946872014,82.6552897530828 22.345594066333433,82.61388800659279 24.59884778653941,81.98841076750978 24.84948920091847,81.95735796595818 25.098871110691107,81.96031537864746 27.64684890609351,82.17029005646418 27.956687036428775,82.17324742343044 28.397513644631545,82.11114258373436 28.944138638798904,81.94109218482208 29.25397676913417,81.88046501318604 31.83470168399799,81.7030180991851 32.16343238326226,81.63647491703068 32.479568036571436,81.51521762506309 32.7503615244641,81.3569900410721 33.016116993981996,81.13517261042944 33.52243784111488,80.55103628346023 33.944371880388644,80.12807653955952 34.300811680732295,79.71249854235703 34.5728646732241,79.31317690541073 34.88774082194141,78.60324317148115 35.011172272235854,78.43462852894572 35.20135746605956,78.29559384886488 36.17369501329085,77.71429534749223 36.35758268414065,77.54123227213768 36.44070998740062,77.4021885665552 36.493609180390195,77.24243448965535 36.601926575545804,76.8208523263429 36.68379437420663,76.3460022118461 36.74551009935385,76.11226934572824 36.94325232075062,75.57082226316106 37.215305313242425,74.98349081301149 37.43445911274466,74.64765022568645 37.81608900498395,74.23190668619009 38.02390726313752,73.95375096680436 38.17126930073573,73.6652324413626 38.384125577271334,73.06006366492511 38.43198675187887,73.0704213007657 38.44836031160958,73.11925005034482 38.49118346783507,73.10297381974851 38.5,73.14292453317739 38.44584130241856,73.11925005034482 38.43198675187887,73.04822635727123 38.36397350375046,73.04082803481288 38.118370107753435,73.71109989365868 38.05413537341519,73.83094638562034 38.01257172178157,73.85018091052007 37.57300461818522,73.65783445086254 36.74551009935385,73.42553552451682 36.429374446044676,73.36930971682068 34.906633390863135,73.30272622617213 33.09924429724197,73.14144487919566 31.650814013148192,73.13404660688957 30.936674907861743,73.02159237778869 29.606638055702206,72.68570387527325 29.110393245318846,72.58952283690451 28.692237719827972,72.55696910228289 27.75138778746623,72.59840111478479 27.525936464982806,72.57472569435777 27.00828007650125,72.41787500427745 26.11781032793806,72.20183244474538 25.991859868452593,72.1352433001548 25.918808601949422,72.06717406342614 25.843238326255232,71.95027176172425 25.702173811630928,71.30655140586623 25.50569109483331,70.92622429325183 25.442715865094215,70.84335006295078 25.300391845870763,70.76935479220265 25.100130615290254,70.72495743853506 25.03715538555116,70.6361623009434 24.970401642021898,70.61544335296003 24.85074870551034,70.674640264333 24.791551989554137,70.62580283085663 24.71094369547791,70.64948160814947 24.60766431869706,70.758995422505 24.382212996220915,70.78859360091792 24.07489387507667,70.79599313556082 23.87589214908803,70.7397565723586 23.69074497364636,70.58880465965285 23.535825908482366,70.13001906162845 23.375868824929057,69.87694045133958 23.188202640296367,69.76593959043385 22.765009096423455,69.64309759249136 22.510589168261504,69.54541521994815 22.4715445258189,69.53653496983225 22.44005691094935,69.55577550449925 22.394714745532838,69.52617467077289 22.247352707934624,69.50397400362272 21.883355880017916,69.37224930743105 21.445048281006166,69.3293275044407 21.317838316928828,69.2923258425244 21.272496151512314,69.29972618287866 21.22589448150393,69.26716465550362 21.040747306062258,69.26864472660509 19.835401408774487,69.06883368600211 17.941106498110457,68.3346881698726 17.787446937538334,68.31840627221754 16.441036525633535,68.29768382911152 15.856626393622719,68.31100540326952 15.619839529783349,68.2932433015203 15.453584923263406,68.23403612983657 15.336450995942869,68.16446737703882 14.849022717731714,67.73520557663505 13.86786863834277,67.30148951298816 12.762023604052956,67.08092557892542 12.361501142884663,66.86775975332966 11.82495218548138,66.48730974536466 11.502519009191019,66.34371303373337 11.5,66.36739919267075 11.829990203856141,66.51543676044457 12.3866912347803,66.909208922978 12.700307878905733,67.0750043506614 12.826258338391199,67.12237410525267 13.809931426978437,67.30741064361064 13.961071978352265,67.35477959666787 14.847763213139842,67.75740910218337 15.277254279986664,68.14522489385399 15.378014647576492,68.21479374409955 15.551826281662215,68.29176312533946 15.76594206278969,68.3302476542458" stroke="red" stroke-dasharray="none" stroke-linecap="round" stroke-linejoin="round" stroke-width="0.5"><title>2026-06-06 62.1km</title><desc>1780699923000</desc></polyline><polyline fill="none" opacity="1" points="69.41463058366207,69.54871133122651 69.73306751844939,76.222954250974 72.6293272585608,77.72194489857065 74.55511253071018,77.88255023074453 74.8128948113299,78.20376042542921 75.0403497646912,86.62638209403667 74.8583858020138,87.57211569909123 71.76499843562488,88.21449769452738 66.29091589013115,88.5 56.91977180953836,87.3579878109158 50.2477598428959,87.25092376250541 49.95965023525059,80.64850639121141 49.97481389879249,78.88186878045963 50.187105188611895,78.59634981317504 63.07621921529062,78.16807043470908 66.42738886224106,76.31218026641 66.50320718000876,69.81640007448732 66.10895192739554,68.1210306892608 65.35076874936931,67.47857036457572 64.57742190774297,66.31856621135375 64.33480329083977,64.62316083535552 64.8503678519046,63.12405102279445 65.63887835707283,62.24956399976509 66.36673420795705,61.8033953631093 67.82244590978371,61.5 68.70193839631975,61.62492757011205 70.0818317803787,62.32095086952904 71.18877922027605,64.21269164745172 70.99165159399854,66.37210504434188 69.42979424726218,68.33518357417779 69.62692187348148,75.95527591479186 69.82404949981719,76.27648986605345 72.59899993147701,77.68625480355695 74.53994886722649,77.90039525800967 74.8128948113299,78.16807043470908 74.9493677833234,87.42936380454921 74.37314856797457,87.82193121702585 72.5080179501092,88.14312204088492 67.20073570380919,88.48215612041531 62.939746243238915,88.23234160314314 56.84395349177066,87.3579878109158 50.2477598428959,87.28661178637412 50.05063221656019,78.63203971114126 62.772945944045205,78.20376042542921 64.21349398238817,77.70409985203878 66.48804351646686,76.18726383126341 66.26058856298914,68.38872175190772" stroke="#4dd2ff" stroke-dasharray="none" stroke-linecap="round" stroke-linejoin="round" stroke-width="0.5"><title>2026-06-05 14.5km</title><desc>1780659860000</desc></polyline><polyline fill="none" opacity="1" points="96.5207838480128,84.19166069157654 90.55641330167418,84.61627875627892 89.61045130644925,81.97417715800111 88.72060570074245,80.6059144655228 87.13331353917602,78.756366581576 86.66834916864173,77.7277744823441 86.5,76.78410131760756 86.58016627078177,75.89703921625915 86.90884798101615,75.00053110085719 88.42399049884989,73.04705512682267 89.00920427552774,72.00895826995111 89.93111638957635,66.46908663587965 90.08343230406172,66.28032840951346 107.08669833731255,65.9500005283262 110.96674584323773,65.38372124371381 111.68022565322462,67.48837398450269 111.77642517819186,71.06522311186563 113.5,77.98256448319444 113.3957838480128,78.756366581576 113.16330166277476,79.19988419600122 110.2692992874654,82.66301851465687 109.81235154398018,84.25771252652339 96.52880047506187,84.18222471107583" stroke="#4dd2ff" stroke-dasharray="none" stroke-linecap="round" stroke-linejoin="round" stroke-width="0.5"><title>2026-06-04 19.5km</title><desc>1780570902000</desc></polyline><polyline fill="none" opacity="1" points="124.14071122012683,80.19373542147514 124.0,79.98930752978049 124.04138565296307,70.13728025084856 143.25260576338042,70.10807303458569 146.1413243408897,70.55591597675811 148.69068056411925,70.1859589235828 150.58614347031107,70.25410902124713 150.8923973022902,70.05939431973093 151.0,69.80626457852486" stroke="#4dd2ff" stroke-dasharray="none" stroke-linecap="round" stroke-linejoin="round" stroke-width="0.5"><title>2026-06-02 16.9km</title><desc>1780401150000</desc></polyline><polyline fill="none" opacity="1" points="161.5,80.17570702264493 163.17109526900458,78.06431612295273 163.76604018147918,76.85925735755882 164.70220349970623,71.09124303604767 164.859688917757,70.85433495999314 183.40797148412094,70.4938215366492 187.59008425148204,69.82429297736235 188.32501620220137,71.63715939661051 188.5,75.86017995403381" stroke="#4dd2ff" stroke-dasharray="none" stroke-linecap="round" stroke-linejoin="round" stroke-width="0.5"><title>2026-05-28 19.4km</title><desc>1779966212000</desc></polyline><polyline fill="none" opacity="1" points="12.534156600187998,108.65471427970624 25.561798058159184,108.15439369661908 28.91740267619025,106.3675220880541 28.704830437840428,98.54079644694866 27.232008501479868,96.82530012576899 26.73094536847202,95.41357623241493 26.74612909980351,94.770255008596 27.50531566492282,92.786665443331 28.568176856148057,91.91101921851805 29.919528942147736,91.5 32.16672117495909,92.01824145496357 32.92590774013661,92.786665443331 33.56362445477862,94.00184025916678 33.7002780365292,94.91321549733402 33.42697087302804,96.36068346911634 31.878230280184653,98.48718745692167 32.06043505581329,106.0816208350443 34.71758803393459,107.6183342456934 36.99514772929251,107.92210148170125 37.23808743013069,108.19013093144167 37.52657832490513,117.12419682677137 37.3443735492765,117.64235780978925 33.7002780365292,118.32132491121592 28.537809393543284,118.48213249984838 25.455511939013377,118.2677223468636 19.139079717046116,117.33860846533207 13.141505852341652,117.41007894961513 12.640442719333805,117.15993211924797 12.473421675036661,108.74405708127597 13.247791971429251,108.52963427611394 25.40996074519353,108.17226231502718 28.91740267619025,106.31391564085789 28.735197900503408,98.43357844943239 27.232008501479868,96.7538207252801 26.791680293739773,94.50220375825302 27.717887903214432,92.57222189960885 28.947770138736814,91.73231533631042 29.82842655433342,91.53574084225693 31.01275759591954,91.60722250356048 32.197088637563866,92.07185254704382 32.72851923323469,92.48287034081295 33.50288952968549,93.87674914726813 33.685094305255916,95.34209622026538 33.396603410481475,96.46790281368885 31.878230280184653,98.3263603822561 32.06043505581329,106.09948967785749 34.6872205712134,107.58259688709222 37.28363862406695,108.13652507629013 37.49621086230036,117.2135350433673 37.28363862406695,117.71382816250843 34.216524900868535,118.28558987028373 29.57030312216375,118.5 25.182204775628634,118.24985482156626 19.169447179650888,117.37434371130075 12.685993913328275,117.33860846533207 12.488605406309944,108.72618852484447 14.87245122087188,108.45815994577424 25.68326790863648,108.13652507629013 28.932586407405324,106.24244035080483" stroke="#ffcd00" stroke-dasharray="none" stroke-linecap="round" stroke-linejoin="round" stroke-width="0.5"><title>2026-05-27 20.2km</title><desc>1779879632000</desc></polyline><polyline fill="none" opacity="1" points="58.72663872712292,91.5 63.35085597331636,106.43732103268849 66.27336127310991,118.5" stroke="#4dd2ff" stroke-dasharray="none" stroke-linecap="round" stroke-linejoin="round" stroke-width="0.5"><title>2026-05-26 19.0km</title><desc>1779792854000</desc></polyline><polyline fill="none" opacity="1" points="109.6414763572393,114.05882597953314 99.52240364794852,118.48244619151228 97.47769426566083,115.56848768751661 93.19425198313547,111.30277946437127 91.2092421449488,107.68649463028123 90.55254716076888,105.22877937107114 90.34359875676455,102.29702752640878 90.9853688548319,98.3469787773065 92.19428462098585,95.50288418507262 93.76139765128028,93.72968889099138 96.19415406946791,92.1847108695365 98.83585889189271,91.5 101.29846508218907,91.62289703535498 103.28347492043395,92.816749109581 104.38791648461483,94.5021723894024 104.61178977461532,96.71426389737462 103.83569570252439,99.97967724234331 104.04464410658693,102.59547175045009 104.98491192469373,104.68456596291799 108.17883752915077,108.7748995062866 109.13403023325372,111.32033404878166 109.6116265853052,114.14659739319177 102.13425869832281,117.2010130474373 99.58210319199134,118.5 97.56724358169595,115.70892062154599 94.40316774928942,112.70714021974709 92.76143028907245,110.75858640753722 91.58236429496901,108.59935082608717 90.74657067883527,106.21186993762967 90.34359875676455,102.89391542608791 90.55254716076888,100.52390641637612 91.2092421449488,97.59206963660836 92.38830813905224,95.25709589432518 93.35842572915135,94.11593109951355 95.68670794548234,92.41294718443532 98.4030371978879,91.55267016938888 101.2238406521501,91.6053403217229 103.2983998064883,92.85186227297527 104.07449387852103,93.81747129179712 104.46254091459559,94.78307456869516 104.61178977461532,96.27535924842232 103.83569570252439,100.10256786039099 104.07449387852103,102.80613793132943 105.01476169668604,104.7196765603585 106.68634892895352,106.68585790607904 108.11913798504975,108.86267377526383 109.0146311452263,110.95168737835775 109.65640124329366,113.98860881441215 99.50747876195237,118.4122309385275 97.46276937966468,115.60359593240719 93.46289993118262,111.63631624315167 91.34356611897238,108.09025858041423 90.59732181881554,105.33411078779318 90.37344852875685,102.45502747803403 91.03014351287857,98.10119479119021 92.03011087496998,95.78378463328409 93.50767458917107,93.99303595100355 95.56730885745492,92.500730297048 97.89559107384412,91.65801045694388 100.97011759015732,91.55267016938888 102.91035277041374,92.500730297048 104.25359251059126,94.25638258398976 104.61178977461532,96.36314027314074 103.82077081652824,100.17279102899192 104.07449387852103,102.75347141169186" stroke="#ffbf00" stroke-dasharray="none" stroke-linecap="round" stroke-linejoin="round" stroke-width="0.5"><title>2026-05-24 23.2km</title><desc>1779623970000</desc></polyline><polyline fill="none" opacity="1" points="124.0,107.34374945413765 124.1804703165908,107.88513500872614 124.10992282919324,109.3435193966452 124.14273561401933,109.49185568142275 124.22476757611003,109.65560210359945 124.6267241903115,110.03317639101624 124.71695934861054,110.19113878570897 124.73664701951202,110.40689005284003 124.63492738651985,110.8287533362618 124.69563103845576,111.14273646346555 124.81375706386461,111.30646781600626 125.02047760831192,111.43745182213934 128.5609770918163,112.7530175533957 128.82676064896077,112.82043047597654 129.36160904174176,112.87821277947114 129.9358327763257,112.82043047597654 132.7478884365264,112.02494185054456 133.1400012152808,111.95367359371085 133.60594275991753,111.95174742067866 136.89214316095604,112.22140963322272 137.41222580056638,112.22140963322272 137.96512122501008,112.12702831985553 138.61317372546182,111.92285480037935 139.0020052257314,111.84388140081683 142.450628911698,111.59925427410235 142.81977274108067,111.5164270107598 143.27587045025575,111.32765647007363 143.5695448745173,111.14466272335449 143.91407911526767,110.84994255457786 144.51455307770811,110.15261150063634 145.0740110591214,109.58817728728718 145.64331287597452,108.92740067295017 145.91565899009584,108.5074192080665 146.30449049035815,107.62504078604616 146.48003888921812,107.37264945192146 146.67855623746436,107.21466222864728 147.98614571306098,106.43626582608886 148.2470073524819,106.19349171699105 148.33888315001968,106.03934771902277 148.41271191589476,105.83125121921876 148.5800571185464,105.17611683406722 148.68669866924756,104.55371698750423 148.75724615664512,104.30320940088495 148.93443519473658,103.81374601136486 149.26748496080108,103.10843273313367 149.26256304307753,103.07181735138147 149.4922525369111,102.63820845677765 149.63170687244565,102.43970843913485 150.17803973991977,101.84226793086964 150.40116667678376,101.54354020523897 150.61937169593148,101.10411230392492 150.87531141762156,100.37170851234077 150.89992100625386,100.35436174369715 151.0,100.39483751105399 150.89499908852304,100.28882935500042 150.84906118976505,100.32545042530182 150.52585525915492,101.22938890059959 150.46351096797298,101.21011563506363 150.40116667678376,101.09640294628116 150.50124567052262,101.26408072631602 150.43726074010192,101.37971966014629 150.40116667678376,101.39321082046808 149.8072552713129,101.12916769335061 148.71458953636466,100.8227186003005 148.32739867532655,100.75718792513908 146.33730327519152,100.67238316610928 144.14048733061645,100.4700065506222 142.56055174089852,100.4700065506222 141.96171841768955,100.4372405978047 141.27100929695007,100.32545042530182 139.36294585889846,99.85129814475295 138.8363006623331,99.75106922624036 138.1784043264197,99.70095455663613 137.01519110408844,99.75877916296668 136.74284498996713,99.7279393961544 136.06197970468202,99.52169709053123 134.91025095703662,99.24027852423387 134.79212493163504,99.18630733489772 134.66579571002512,99.08800225064806 134.5607947985627,98.94150739831639 134.3507929756306,98.05094711358106 134.11290028559597,97.6229997919836 133.96360211459978,97.46492657275121 133.77164732332312,97.3685397784975 133.60758339915628,97.34347912699013 132.2803062526582,97.43793832266238 132.1375706386316,97.42829965205965 131.9997569423358,97.38010622120419 131.83897429665376,97.26444145784444 131.7323327459453,97.12178722053068" stroke="red" stroke-dasharray="none" stroke-linecap="round" stroke-linejoin="round" stroke-width="0.5"><title>2026-05-23 52.6km</title><desc>1779516240000</desc></polyline><polyline fill="none" opacity="1" points="187.29123315186007,108.15439369621163 187.5645403745002,116.99912324227626 187.3216006210423,117.66022540080303 184.7707332096761,118.17838470086281 181.08108570391778,118.46426499770314 174.84057078685146,118.17838470086281 168.4178510546335,117.28500558173982 162.9061553979409,117.42794656577462 162.69358311360702,117.07059387353365 162.435459625558,111.01334802483325 162.69358311360702,108.6011085750797 175.5086551088607,108.19013093099056 178.92499539192067,106.2960468208039 178.77315804595128,98.37996942423342 177.08776350633707,96.3428135713475 176.82964001834625,94.98469569506415 176.93592616042588,94.09119099513919 177.74066409375519,92.6258328116237 178.66687190387165,91.89314883900806 179.6538146522944,91.51787042208889 181.1721881114645,91.58935209111951 182.8423989165458,92.5186109701317 183.7230555228307,94.26989232226333 183.60158564610174,96.09263480255322 183.0094199970481,97.2184362745611 182.11357965617208,97.98683604286634 181.91619110642932,98.61227507292642 182.09839592158096,105.9208011621231 182.2957844712073,106.27817799928016 185.19587777816923,107.74341493958491 187.30641688639298,108.1007878294622 187.44307049771305,117.53515222256829 185.013672963134,118.16051716588845 179.30458875669865,118.48213249980472 175.2049804170383,118.21411976509262 169.04038417281117,117.30287321150536 163.01244154007873,117.39221133136016 162.73913431738038,117.15993211916066 162.45064336014912,110.6202447416581 162.61766444070963,108.6011085750797 175.06832680566004,108.22586815805698 176.4804141226923,107.83275823458098 178.9553628611029,106.26030917576281 178.74279057676904,98.41570877608319 177.2699683214305,96.78956042912614 176.84482375287917,94.55581404300756 177.28515205607982,93.23342193065037 178.25691106996965,92.16120432842581 179.24385381833417,91.6429633225489 180.24598030140623,91.5 182.35651940962998,92.14333397599694 183.5712181769777,93.71591757821443 183.6471368498751,95.91393544976017 183.1005224045366,97.03973814107303 181.99210977938492,98.16553315051715 181.91619110642932,98.68375366822875 182.08321218693163,106.04588314316061 185.0744079014985,107.67194026877405 187.26086568267783,108.02931331342552 187.5645403745002,116.19507650744345 187.3975192939979,117.57088742597261 184.75554947502678,118.19625223395997 179.63863091770327,118.5 175.70604365848703,118.2677223468636 169.35924259928288,117.32074083932093 162.69358311360702,117.35647608920408 162.5113782985136,108.65471427925513 175.79714606603375,108.15439369621163 178.77315804595128,106.43899732349382 179.00091406487627,106.13522735728475 179.0160977994674,104.83079702834948" stroke="#ffc300" stroke-dasharray="none" stroke-linecap="round" stroke-linejoin="round" stroke-width="0.5"><title>2026-05-17 22.3km</title><desc>1779013233000</desc></polyline><polyline fill="none" opacity="1" points="29.948524590145098,130.62542948548798 29.966229508194374,129.62688407988026 29.854098360665375,129.54367126389116 28.390491803293116,129.45352392523637 24.105901639326476,129.57140888116555 23.793114754080307,129.4327206753078 23.102622950798832,128.8640959086115 21.93409836065257,128.51043650905922 21.615409836056642,128.1359714984428 21.09606557377265,126.81839211400802 20.842295081994962,125.30660992337653 19.419999999983702,124.77955824668607 18.12163934423006,124.88358194563625 15.218032786884578,125.54239480308024 12.284918032761198,125.1471078975228 12.119672131142579,125.23726126502879 11.972131147544133,125.51465545027168 11.523606557399035,126.97095531754167 11.58262295080931,127.24140738092683 12.739344262314262,128.8918338185831 16.091475409833947,129.54367126389116 17.11836065573152,130.39659753083106 17.324918032769347,131.18710447253397 17.932786885241512,132.63634199952503 18.068524590169545,133.59323694253544 18.87114754098002,136.99079254934622 18.91245901637012,137.60788035873702 19.50262295079301,140.6169654391124 19.951147540996317,141.3934807110345 20.387868852441898,141.66387222506455 22.270491803297773,142.31558044166013 24.253442622954026,143.58431263703824 26.17147540982114,143.69523885453964 26.950491803261684,144.3053296376529 27.56426229508361,144.36772496033518 28.555737704911735,144.83222157471755 32.031803278659936,145.248185850367 32.25016393439728,145.08180046228517 32.36819672130514,144.80449052752374 32.76360655738972,143.43178877613536 32.970163934427546,141.65693912350253 32.911147540959064,141.40734697012522 32.56885245902231,141.1716201597228 32.54524590165238,141.06068959759432 32.775409836060135,140.4297683932018 32.94065573767875,140.24257080339885 32.94655737702851,139.23030774696235 33.389180327852955,137.89908828327316 34.18590163931367,136.85905393673602 35.838360655732686,135.77740040406206 37.04819672132726,134.70959640929505 37.815409836068284,133.26040553126222 38.092786885245005,133.05931905352918 38.5,133.20493346218427 38.122295081964694,133.05238502585416 37.79770491801901,133.27427354106476 37.1544262295065,134.55011767002725 36.44622950820485,135.23656682673754 33.04098360656644,131.44367042940576 30.17868852461106,130.8750634178068 29.954426229494857,130.60462661410565 29.907213114754995,129.55060566934117 29.387868852441898,129.44658950933808 24.046885245887097,129.55754007404175 23.149836065538693,128.87796486507432 21.951803278701846,128.51043650905922 21.574098360637436,128.07356045163033 21.0606557377032,126.72130625082355 20.877704918035306,125.34821908252343 19.443606557382736,124.77262332742976 19.07180327869719,124.7379487200451 17.690819672105135,124.94599608435237 15.15311475409544,125.5285251281748 12.202295081951888,125.15404277641937 12.019344262283994,125.38982821480022 11.5,127.06804080431903 12.715737704915227,128.89876829420973 16.126885245903395,129.57140888116555 17.106557377032004,130.3757945855541 17.283606557379244,131.08309095560253 17.938688524562167,132.71955081976193 18.02721311475034,133.48229332985647 18.847540983580984,136.87292117180186 19.47901639342308,140.5545664842648 19.59704918033094,140.90815976280282 20.01016393440659,141.42814635317336 20.41737704919069,141.65693912350253 22.252786885248497,142.3225134723616 24.259344262303784,143.57044684640277 24.637049180309987,143.65364154533017 26.18327868852066,143.6813730878057 26.9622950819612,144.31226245425933 27.422622950805817,144.31919527013815 28.67967213114025,144.87381812310196 31.760327868832974,145.26205127996218 32.09672131147818,145.22045498216903 32.27967213114607,145.061002258597 32.50393442620407,144.4786498292815 32.81081967212958,143.1475387992905 32.98196721309796,141.70547081881523 32.92885245900834,141.40734697012522 32.61606557373307,141.20628592124558 32.56885245902231,141.0745559283023 32.72229508194141,140.51990037209907 32.95836065572803,140.18017148593935 32.94065573767875,139.21644101934362 33.389180327852955,137.89908828327316 33.93213114753598,137.1086637112312 36.02131147540058,135.65259305848303 36.74131147537264,135.0285527032829 37.13672131145722,134.59865471942612" stroke="#ff8300" stroke-dasharray="none" stroke-linecap="round" stroke-linejoin="round" stroke-width="0.5"><title>2026-05-16 35.3km</title><desc>1778887035000</desc></polyline><polyline fill="none" opacity="0.5" points="74.71630321233533,147.85591617885802 70.74809519940754,148.41054406383773 67.25120691210032,148.5 63.37422207184136,148.26741446525557 56.623707291146275,147.33706905294093 50.58777403004933,147.28339511936065 50.28369678766467,141.4149398964073 50.43573540891521,138.62377220552298 63.206979588547256,138.15857300652715 64.49930786859477,137.65758778910094 66.77988718642155,136.26197810236772 66.64305242733099,128.69327409977268 66.4606060818769,128.10279324989824 65.63959752744995,127.36916258730344 64.90981214580825,126.22397650475614 64.65134648984531,124.8461639782181 65.0466469048406,123.3609765672445 66.44540221977513,121.89366986829555 67.46406098175794,121.53578820856637 68.5587390542496,121.5 70.33759092213586,122.21576269919751 71.49308444315102,124.04094354507106 71.53869602957275,125.63348682901415 71.03696857963223,126.90393169868912 69.82065961009357,128.1564734143467 69.69902871316299,129.57004480175965 66.82549877272686,129.64161771489307 66.49101380613865,128.12068663997343 65.30511256091995,126.97550576683716 64.68175421404885,125.36508173320908 64.83379283524118,123.91568668051332 65.54837435483932,122.64521883007546 67.2055953257368,121.60736460253247 69.27332057390595,121.64315278791764 70.2615716115688,122.16208060430654 70.90013382054167,122.82415855507134 71.62991920218337,124.70301396586001 71.20421106286813,126.5997415631573 69.85106733435532,128.084899857844 69.66862098895945,129.5163650965842 66.82549877272686,129.62372448948736 66.5214215303422,128.21015356136195 65.3355202851817,127.01129278923327 64.74256966245594,125.63348682901415 64.80338511097943,124.0588373751234 65.42674345785053,122.73468871682417 66.85590649698861,121.73262321738002 68.68036995123839,121.51789410524361 70.39840637065936,122.28733879853098 71.09778402815573,123.16414349869592 71.56910375377629,124.30935079221672 71.49308444315102,125.88399785832735 70.94574540690519,126.99339927898836 69.83586347225355,128.24594031638117 69.71423257532297,129.53425833363144 66.90151808341034,129.65951093834883 66.5822369788657,128.26383369098767 65.38113187148701,126.99339927898836 64.7121619382524,125.36508173320908 64.95542373211356,123.55780940127443 65.82204387290403,122.3410208527057 67.6465073270956,121.5 69.30372829810949,121.64315278791764 70.45922181912465,122.3410208527057 71.56910375377629,124.23777556899586 71.52349216741277,125.70506144758838 70.85452223423636,127.11865381007374 69.83586347225355,128.12068663997343 69.77504802373005,129.4984718576452 66.87111035909038,129.65951093834883 66.4606060818769,128.084899857844 65.51796663057758,127.22601476115233 64.8185889730812,125.95557236834429 64.68175421404885,124.52407627593493 65.22909325029468,122.82415855507134 65.30511256091995,123.003098086323 65.91326704557287,122.28733879853098 66.90151808341034,121.71472913537582 69.04526264208835,121.58947050693678 66.90151808341034,121.71472913537582 65.91326704557287,122.28733879853098 65.30511256091995,123.003098086323 65.22909325029468,122.82415855507134 64.68175421404885,124.52407627593493 64.8185889730812,125.95557236834429 65.51796663057758,127.22601476115233 66.4606060818769,128.084899857844 66.87111035909038,129.65951093834883 69.77504802373005,129.4984718576452 69.83586347225355,128.12068663997343 70.85452223423636,127.11865381007374" stroke="#4dd2ff" stroke-dasharray="1,0.5" stroke-linecap="round" stroke-linejoin="round" stroke-width="0.5"><title>2026-05-12 15.2km</title><desc>1778590468000</desc></polyline><polyline fill="none" opacity="1" points="112.21630321233533,147.85591617885802 108.24809519940754,148.41054406383773 104.75120691210032,148.5 100.87422207184136,148.26741446525557 94.12370729114627,147.33706905294093 88.08777403004933,147.28339511936065 87.78369678766467,141.4149398964073 87.9357354089152,138.62377220552298 100.70697958854726,138.15857300652715 101.99930786859477,137.65758778910094 104.27988718642155,136.26197810236772 104.14305242733099,128.69327409977268 103.9606060818769,128.10279324989824 103.13959752744995,127.36916258730344 102.40981214580825,126.22397650475614 102.15134648984531,124.8461639782181 102.5466469048406,123.3609765672445 103.94540221977513,121.89366986829555 104.96406098175794,121.53578820856637 106.0587390542496,121.5 107.83759092213586,122.21576269919751 108.99308444315102,124.04094354507106 109.03869602957275,125.63348682901415 108.53696857963223,126.90393169868912 107.32065961009357,128.1564734143467 107.19902871316299,129.57004480175965 104.32549877272686,129.64161771489307 103.99101380613865,128.12068663997343 102.80511256091995,126.97550576683716 102.18175421404885,125.36508173320908 102.33379283524118,123.91568668051332 103.04837435483932,122.64521883007546 104.7055953257368,121.60736460253247 106.77332057390595,121.64315278791764 107.7615716115688,122.16208060430654 108.40013382054167,122.82415855507134 109.12991920218337,124.70301396586001 108.70421106286813,126.5997415631573 107.35106733435532,128.084899857844 107.16862098895945,129.5163650965842 104.32549877272686,129.62372448948736 104.0214215303422,128.21015356136195 102.8355202851817,127.01129278923327 102.24256966245594,125.63348682901415 102.30338511097943,124.0588373751234 102.92674345785053,122.73468871682417 104.35590649698861,121.73262321738002 106.18036995123839,121.51789410524361 107.89840637065936,122.28733879853098 108.59778402815573,123.16414349869592 109.06910375377629,124.30935079221672 108.99308444315102,125.88399785832735 108.44574540690519,126.99339927898836 107.33586347225355,128.24594031638117 107.21423257532297,129.53425833363144 104.40151808341034,129.65951093834883 104.0822369788657,128.26383369098767 102.88113187148701,126.99339927898836 102.2121619382524,125.36508173320908 102.45542373211356,123.55780940127443 103.32204387290403,122.3410208527057 105.1465073270956,121.5 106.80372829810949,121.64315278791764 107.95922181912465,122.3410208527057" stroke="#4dd2ff" stroke-dasharray="none" stroke-linecap="round" stroke-linejoin="round" stroke-width="0.5"><title>2026-05-11 15.3km</title><desc>1778503630000</desc></polyline><polyline fill="none" opacity="1" points="126.2042732660193,131.61780431837542 126.75406527519226,129.08837091072928 129.9028740550857,124.32359226088738 136.00056724785827,121.55882498860592 141.6484306147322,122.26472435361939 147.4962183488533,126.73539902450284 148.6957645509392,131.20603689190466 148.6457834590692,134.8531089471653 146.34665323863737,140.02955626504263 143.0479011835996,143.26481078437064 142.6480524498038,148.02942325809272 133.4015504771378,148.44117792946054 132.25198536692187,143.50010127038695 129.4030631375499,140.91190031799488 126.55414090817794,136.38251897180453 126.30423544952646,130.9119171105558 127.75368711026385,127.02952106791781 131.65221226611175,123.08827245316934 134.40117231197655,121.91177478566533 138.49962183483876,121.55882498860592 143.0978822754696,122.9117979654111 145.14710703701712,124.44124161952641 148.49584018369205,129.8530845787609 148.8956889177207,133.08839972061105 147.99602926615626,137.50016203528503 143.19784445874393,142.97069753333926 142.89795790845528,147.73531258752337 133.45153156900778,148.5 132.20200427505188,143.5589238757384 127.6037438348867,138.5589796580025 126.10431108251214,133.20604718098184 126.95398964220658,128.50012889504433 129.75293077994138,124.26476757170167 136.15051052323543,121.5 141.7483927984722,122.32354925922118 145.8468423213344,125.08831263816683 147.84608599101193,128.14718337962404 148.8457078258507,132.02957143238746 147.54619944049045,138.38251019758172 142.94793900032528,143.44127865834162 142.6480524498038,148.08824537304463 133.4015504771378,148.44117792946054 132.30196645879187,143.79421423445456 127.45380055974238,138.38251019758172 126.2042732660193,134.8531089471653 127.05395182548091,128.44130465830676 129.65296859643422,124.6765402610763 135.15088868839666,121.6764749463182 140.64880877989344,121.97059972962597 145.54695577104576,124.85301417519804 148.74574564234354,130.4413251291844 147.99602926615626,137.0883990689763 146.09674778021872,140.38249405828537 143.0479011835996,143.38245604006806 142.6480524498038,148.02942325809272 133.25160720199347,148.38235585269285" stroke="#4dd2ff" stroke-dasharray="none" stroke-linecap="round" stroke-linejoin="round" stroke-width="0.5"><title>2026-05-10 11.2km</title><desc>1778422578000</desc></polyline><polyline fill="none" opacity="0.5" points="180.5693096416071,121.5 186.61809627199546,122.88908971752971 180.5693096416071,121.5 176.36466527637094,122.02090892614797 171.79119245847687,123.58363367349375 168.1029079281725,126.53543877106858 163.3819037284702,135.13033876172267 163.52943510981277,142.42290890100412 166.48006273433566,148.5 163.52943510981277,142.42290890100412 163.3819037284702,135.13033876172267 168.1029079281725,126.53543877106858 171.79119245847687,123.58363367349375 176.36466527637094,122.02090892614797 180.5693096416071,121.5 186.61809627199546,122.88908971752971 180.5693096416071,121.5 176.36466527637094,122.02090892614797 171.79119245847687,123.58363367349375 168.1029079281725,126.53543877106858 163.3819037284702,135.13033876172267 163.52943510981277,142.42290890100412 166.48006273433566,148.5 163.52943510981277,142.42290890100412 163.3819037284702,135.13033876172267 168.1029079281725,126.53543877106858 171.79119245847687,123.58363367349375 176.36466527637094,122.02090892614797 180.5693096416071,121.5 186.61809627199546,122.88908971752971 180.5693096416071,121.5 176.36466527637094,122.02090892614797 171.79119245847687,123.58363367349375 168.1029079281725,126.53543877106858 163.3819037284702,135.13033876172267 163.52943510981277,142.42290890100412 166.48006273433566,148.5 163.52943510981277,142.42290890100412 163.3819037284702,135.13033876172267 168.1029079281725,126.53543877106858 171.79119245847687,123.58363367349375 176.36466527637094,122.02090892614797 180.5693096416071,121.5 186.61809627199546,122.88908971752971 180.5693096416071,121.5 176.36466527637094,122.02090892614797 171.79119245847687,123.58363367349375 168.1029079281725,126.53543877106858 163.3819037284702,135.13033876172267 163.52943510981277,142.42290890100412 166.48006273433566,148.5 163.52943510981277,142.42290890100412 163.3819037284702,135.13033876172267 168.1029079281725,126.53543877106858 171.79119245847687,123.58363367349375 176.36466527637094,122.02090892614797 180.5693096416071,121.5 186.61809627199546,122.88908971752971 180.5693096416071,121.5 176.36466527637094,122.02090892614797 171.79119245847687,123.58363367349375 168.1029079281725,126.53543877106858 163.3819037284702,135.13033876172267 163.52943510981277,142.42290890100412 166.48006273433566,148.5 163.52943510981277,142.42290890100412 163.3819037284702,135.13033876172267 168.1029079281725,126.53543877106858 171.79119245847687,123.58363367349375 176.36466527637094,122.02090892614797 180.5693096416071,121.5 186.61809627199546,122.88908971752971 180.5693096416071,121.5 176.36466527637094,122.02090892614797 171.79119245847687,123.58363367349375 168.1029079281725,126.53543877106858 163.3819037284702,135.13033876172267 163.52943510981277,142.42290890100412 166.48006273433566,148.5 163.52943510981277,142.42290890100412 163.3819037284702,135.13033876172267 168.1029079281725,126.53543877106858 171.79119245847687,123.58363367349375 176.36466527637094,122.02090892614797 180.5693096416071,121.5 186.61809627199546,122.88908971752971 180.5693096416071,121.5 176.36466527637094,122.02090892614797 171.79119245847687,123.58363367349375 168.1029079281725,126.53543877106858 163.3819037284702,135.13033876172267 163.52943510981277,142.42290890100412 166.48006273433566,148.5 163.52943510981277,142.42290890100412 163.3819037284702,135.13033876172267 168.1029079281725,126.53543877106858 171.79119245847687,123.58363367349375 176.36466527637094,122.02090892614797 180.5693096416071,121.5 186.61809627199546,122.88908971752971 180.5693096416071,121.5 176.36466527637094,122.02090892614797 171.79119245847687,123.58363367349375 168.1029079281725,126.53543877106858 163.3819037284702,135.13033876172267 163.52943510981277,142.42290890100412 166.48006273433566,148.5 163.52943510981277,142.42290890100412 163.3819037284702,135.13033876172267 168.1029079281725,126.53543877106858 171.79119245847687,123.58363367349375 176.36466527637094,122.02090892614797 180.5693096416071,121.5 186.61809627199546,122.88908971752971 180.5693096416071,121.5 176.36466527637094,122.02090892614797 171.79119245847687,123.58363367349375 168.1029079281725,126.53543877106858 163.3819037284702,135.13033876172267 163.52943510981277,142.42290890100412 166.48006273433566,148.5 163.52943510981277,142.42290890100412 163.3819037284702,135.13033876172267 168.1029079281725,126.53543877106858 171.79119245847687,123.58363367349375 176.36466527637094,122.02090892614797 180.5693096416071,121.5 186.61809627199546,122.88908971752971 180.5693096416071,121.5 176.36466527637094,122.02090892614797" stroke="#4dd2ff" stroke-dasharray="1,0.5" stroke-linecap="round" stroke-linejoin="round" stroke-width="0.5"><title>2026-05-10 11.3km</title><desc>1778397813000</desc></polyline><polyline fill="none" opacity="0.5" points="16.056758595863357,158.10301713866647 15.723470096243545,163.46382940706098 17.94539342657663,169.0860935592209 22.555884336819872,173.40081890305737 23.166913252556697,178.5 34.276529903989285,178.17313070909586 34.276529903989285,173.00857241923222 34.276529903989285,178.17313070909586 23.166913252556697,178.5 22.555884336819872,173.40081890305737 17.94539342657663,169.0860935592209 15.723470096243545,163.46382940706098 16.056758595863357,158.10301713866647 20.33396100648679,151.5 16.056758595863357,158.10301713866647 15.723470096243545,163.46382940706098 17.94539342657663,169.0860935592209 22.555884336819872,173.40081890305737 23.166913252556697,178.5 34.276529903989285,178.17313070909586 34.276529903989285,173.00857241923222 34.276529903989285,178.17313070909586 23.166913252556697,178.5 22.555884336819872,173.40081890305737 17.94539342657663,169.0860935592209 15.723470096243545,163.46382940706098 16.056758595863357,158.10301713866647 20.33396100648679,151.5 16.056758595863357,158.10301713866647 15.723470096243545,163.46382940706098 17.94539342657663,169.0860935592209 22.555884336819872,173.40081890305737 23.166913252556697,178.5 34.276529903989285,178.17313070909586 34.276529903989285,173.00857241923222 34.276529903989285,178.17313070909586 23.166913252556697,178.5 22.555884336819872,173.40081890305737 17.94539342657663,169.0860935592209 15.723470096243545,163.46382940706098 16.056758595863357,158.10301713866647 20.33396100648679,151.5 16.056758595863357,158.10301713866647 15.723470096243545,163.46382940706098 17.94539342657663,169.0860935592209 22.555884336819872,173.40081890305737 23.166913252556697,178.5 34.276529903989285,178.17313070909586 34.276529903989285,173.00857241923222 34.276529903989285,178.17313070909586 23.166913252556697,178.5 22.555884336819872,173.40081890305737 17.94539342657663,169.0860935592209 15.723470096243545,163.46382940706098 16.056758595863357,158.10301713866647 20.33396100648679,151.5 16.056758595863357,158.10301713866647 15.723470096243545,163.46382940706098 17.94539342657663,169.0860935592209 22.555884336819872,173.40081890305737 23.166913252556697,178.5 34.276529903989285,178.17313070909586 34.276529903989285,173.00857241923222 34.276529903989285,178.17313070909586 23.166913252556697,178.5 22.555884336819872,173.40081890305737 17.94539342657663,169.0860935592209 15.723470096243545,163.46382940706098 16.056758595863357,158.10301713866647 20.33396100648679,151.5 16.056758595863357,158.10301713866647 15.723470096243545,163.46382940706098 17.94539342657663,169.0860935592209 22.555884336819872,173.40081890305737 23.166913252556697,178.5 34.276529903989285,178.17313070909586 34.276529903989285,173.00857241923222 34.276529903989285,178.17313070909586 23.166913252556697,178.5 22.555884336819872,173.40081890305737 17.94539342657663,169.0860935592209 15.723470096243545,163.46382940706098 16.056758595863357,158.10301713866647 20.33396100648679,151.5 16.056758595863357,158.10301713866647 15.723470096243545,163.46382940706098 17.94539342657663,169.0860935592209 22.555884336819872,173.40081890305737 23.166913252556697,178.5 34.276529903989285,178.17313070909586 34.276529903989285,173.00857241923222 34.276529903989285,178.17313070909586 23.166913252556697,178.5 22.555884336819872,173.40081890305737 17.94539342657663,169.0860935592209 15.723470096243545,163.46382940706098 16.056758595863357,158.10301713866647 20.33396100648679,151.5 16.056758595863357,158.10301713866647 15.723470096243545,163.46382940706098 17.94539342657663,169.0860935592209 22.555884336819872,173.40081890305737 23.166913252556697,178.5 34.276529903989285,178.17313070909586 34.276529903989285,173.00857241923222 34.276529903989285,178.17313070909586 23.166913252556697,178.5 22.555884336819872,173.40081890305737 17.94539342657663,169.0860935592209 15.723470096243545,163.46382940706098 16.056758595863357,158.10301713866647 20.33396100648679,151.5 16.056758595863357,158.10301713866647 15.723470096243545,163.46382940706098 17.94539342657663,169.0860935592209 22.555884336819872,173.40081890305737 23.166913252556697,178.5 34.276529903989285,178.17313070909586 34.276529903989285,173.00857241923222 34.276529903989285,178.17313070909586 23.166913252556697,178.5 22.555884336819872,173.40081890305737 17.94539342657663,169.0860935592209 15.723470096243545,163.46382940706098 16.056758595863357,158.10301713866647 20.33396100648679,151.5 16.056758595863357,158.10301713866647 15.723470096243545,163.46382940706098 17.94539342657663,169.0860935592209 22.555884336819872,173.40081890305737 23.166913252556697,178.5 34.276529903989285,178.17313070909586 34.276529903989285,173.00857241923222 34.276529903989285,178.17313070909586 23.166913252556697,178.5 22.555884336819872,173.40081890305737 17.94539342657663,169.0860935592209 15.723470096243545,163.46382940706098 16.056758595863357,158.10301713866647 20.33396100648679,151.5 16.056758595863357,158.10301713866647 15.723470096243545,163.46382940706098 17.94539342657663,169.0860935592209 22.555884336819872,173.40081890305737 23.166913252556697,178.5 34.276529903989285,178.17313070909586 34.276529903989285,173.00857241923222 34.276529903989285,178.17313070909586 23.166913252556697,178.5 22.555884336819872,173.40081890305737 17.94539342657663,169.0860935592209 15.723470096243545,163.46382940706098 16.056758595863357,158.10301713866647 20.33396100648679,151.5 16.056758595863357,158.10301713866647 15.723470096243545,163.46382940706098 17.94539342657663,169.0860935592209 22.555884336819872,173.40081890305737 23.166913252556697,178.5 34.276529903989285,178.17313070909586 34.276529903989285,173.00857241923222 34.276529903989285,178.17313070909586 23.166913252556697,178.5 22.555884336819872,173.40081890305737 17.94539342657663,169.0860935592209 15.723470096243545,163.46382940706098 16.056758595863357,158.10301713866647 20.33396100648679,151.5 16.056758595863357,158.10301713866647 15.723470096243545,163.46382940706098 17.94539342657663,169.0860935592209 22.555884336819872,173.40081890305737" stroke="#ffc700" stroke-dasharray="1,0.5" stroke-linecap="round" stroke-linejoin="round" stroke-width="0.5"><title>2025-11-09 21.3km</title><desc>1762645227000</desc></polyline><polyline fill="none" opacity="1" points="56.229704670608044,153.3742300957092 62.350707253906876,151.5 68.17312434548512,152.78853388875723 70.61157252918929,154.95560668571852 73.24907770729624,159.17258831486106 73.79648444219492,162.51100878079887 73.34860620438121,165.90797686984297 71.95520724239759,169.30492361891083 67.92430310230702,173.28752366662957 67.77501035644673,177.8557640730287 60.011787567520514,178.5 57.9714533733204,178.207165582804 57.42404663795605,173.7560629202053 53.39314249786548,169.77346632350236 51.949979287106544,167.25504451338202 51.203515557572246,162.33530295424862 52.29832902783528,157.88406963978196 56.62781865964644,153.1399516890524 62.89811398903839,151.55856978881638 68.37218134012073,152.84710353810806 72.30355698312633,157.18123997718794 73.49789895047434,160.05112201476004 73.59742744802497,165.4979990948923 71.95520724239759,169.24635575240245 68.07359584816732,172.81898400682257 67.82477460475639,177.7971971326624 58.2202746164985,178.3828662521555 57.27475389209576,173.46322593424702 53.39314249786548,169.83203413290903 51.452336800517514,165.0880210091127 51.35280830319971,160.40253509493778 53.64196374104358,155.71700857958058 57.92168912454508,152.43711585993879 63.89339896198362,151.67570934758987 68.17312434548512,152.90567318093963 72.75143522070721,157.82550053606974 73.74672019365244,161.57391037989873 73.19931345852092,166.66936334152706 71.25850776140578,170.066305307555 67.92430310230702,173.22895623132354 67.72524610767141,177.8557640730287 64.93844818370417,178.3828662521555 58.02121762186289,178.3242993687163 57.32451814063825,173.46322593424702 53.64196374104358,170.12487308541313" stroke="#4dd2ff" stroke-dasharray="none" stroke-linecap="round" stroke-linejoin="round" stroke-width="0.5"><title>2025-11-01 10.0km</title><desc>1761964262000</desc></polyline><polyline fill="none" opacity="1" points="102.54064917960204,151.85527181613725 107.77287719305605,154.51980307733174 110.79147027782165,159.07908199855592 111.49580866424367,164.23042931058444 109.88589235208929,169.0856777416775 105.55924226436764,173.17115825612564 105.10645330161788,178.38158185908105 95.4469554303214,178.5 94.84323681332171,173.58562558802078 89.71162856929004,168.25673594034743 88.50419133575633,162.75016206502914 89.0576000676956,159.31592661776813 90.76813614903949,156.29615003586514 95.04447635239922,152.6250266257557 101.18228229135275,151.5 107.37039811513387,154.22374468977796 110.99270981666632,159.84882663568715 111.44549877941608,164.46727169805672 109.43310338957235,169.61856823577546 105.55924226436764,173.230367894168 104.90521376254037,178.5 95.49726531514898,178.5 94.99416646757163,173.52641598845366 91.42216465063393,170.56592783203814 89.35945937619545,167.07253118645167 88.80605064379051,160.20409302582266 92.27743269130588,154.46059141261503 97.35873105074279,151.79605986294337 103.79839629819617,152.0921195652336 108.57783534913324,155.5856119451928 111.09332958632149,160.79620316298679 111.24425924057141,165.0593772176071 109.73496269783936,169.26330796408 105.50893237954006,173.46720638254192 105.30769284046255,178.14474549988518 104.65366433886811,178.44079093274195 95.4469554303214,178.5 94.64199727447703,173.46720638254192 91.22092511202209,170.56592783203814 89.35945937619545,167.25016206281725 88.80605064379051,160.38172613445204" stroke="#4dd2ff" stroke-dasharray="none" stroke-linecap="round" stroke-linejoin="round" stroke-width="0.5"><title>2025-10-27 10.0km</title><desc>1761565093000</desc></polyline><polyline fill="none" opacity="1" points="126.33119953772984,159.61198224703548 128.44421584159136,155.64482348778984 133.82737642456777,151.91448376292828 139.51239647972398,151.5 143.53718943917193,152.9802977104555 145.599895830499,154.6974380327738 148.92035002214834,160.6777811864158 148.81973019824363,164.64490342070349 147.66260222229175,168.315946110175 142.93347049504519,173.23036789393518 142.7825407590717,177.90790903789457 133.2739673925098,178.3815818587318 132.16714932885952,173.46720638213446 128.69576540146954,170.38829803239787 126.12995988992043,164.46727169759106 126.53243918600492,159.37513775622938 128.59514557756484,155.40797727793688 134.3807854563929,151.677635936765 141.52479295921512,151.9736957034911 144.24152820697054,153.21714497217909 146.05268503865227,155.1711309652892 148.76942028617486,161.03304703778122 148.71911037433892,165.05937721696682 147.51167248631828,168.5527867274359 142.88316058297642,173.40799676964525 142.7825407590717,177.90790903789457 133.12303765653633,178.32237277860986 132.4186988887377,173.76325434807222 127.53863742551766,168.6119968656567 126.07964997785166,164.52648227853933 126.83429865771905,157.89485736272763 128.54483566526324,155.46718883991707 134.53171519259922,151.677635936765 139.81425595167093,151.61842396418797 145.09679671074264,154.16453299263958 148.6184905502014,159.96724879107205 148.76942028617486,164.94095616438426 146.9079535426572,169.44093812839128 143.0340903189499,173.1119486115058 142.73223084700294,177.9671181628364 133.17334756883793,178.5 132.4186988887377,173.70404476759722 128.59514557756484,170.09224823868135 126.48212927370332,165.888323866704 126.38150944979861,160.26330406800844" stroke="#4dd2ff" stroke-dasharray="none" stroke-linecap="round" stroke-linejoin="round" stroke-width="0.5"><title>2025-10-19 10.0km</title><desc>1760866141000</desc></polyline><polyline fill="none" opacity="1" points="186.22075266600586,160.26485303096706 186.3706959085539,164.79428539896617 184.67133915727027,169.2060338560259 180.4729283603374,173.26481078448705 180.22302295593545,178.14706748182653 170.47671217704192,178.20588958403096 169.92692028707825,173.79421423457097 166.27830138034187,170.206025190535 163.87920949584804,165.5589910323033 164.12911490071565,158.67660156678176 166.77811218914576,154.85301417543087 168.72737434506416,153.44122125627473 174.52517973119393,151.5 180.5728905221913,152.9706228011055 183.5717553771101,155.3824355736724 185.87088509928435,158.9118983731023 186.22075266600586,165.6178144980804 184.67133915727027,169.32367999077542 180.62287160311826,173.32363341550808 180.52290944149718,177.97060113667976 171.62627703812905,178.5 170.47671217704192,178.20588958403096 169.77697704429738,173.44127865845803 166.07837705640122,169.79426427558064 163.77924733422697,164.85310894751456 163.6293040914461,160.85309313522885 166.27830138034187,155.55890925851418 168.42748785950243,153.61769557197113 172.32601217087358,151.91177478578174 178.2237797190901,151.91177478578174 182.57213375880383,154.38241694349563 186.32071482762694,160.38250110280933 185.87088509928435,166.44134234864032 184.47141483379528,169.44132610032102 180.42294727941044,172.9706975335721 180.27300403662957,177.97060113667976 170.77659866260365,178.26471168006537 169.7269959631376,173.3824560402427 165.22869868087582,168.79427218291676 163.7292662533,164.97075602522818 163.87920949584804,160.20602898561629 165.9784148945473,155.97068096662406" stroke="#4dd2ff" stroke-dasharray="none" stroke-linecap="round" stroke-linejoin="round" stroke-width="0.5"><title>2025-10-16 10.0km</title><desc>1760611285000</desc></polyline><polyline fill="none" opacity="1" points="30.126268377527595,182.09735943214037 35.25253675528802,187.41382987075485 36.36914966907352,191.47581768903183 35.25253675528802,198.16608534677653 30.38004404003732,203.24346645380137 30.38004404003732,208.0221353842644 20.5335483441595,208.44026694569038 19.873731622239575,203.78106877527898 15.051994039444253,198.76342672674218 13.681605463149026,194.7612271272228 13.88462599273771,189.44482751970645 16.7776685426943,184.6659976163064 22.665263907052577,181.5 29.618717053206638,182.09735943214037 33.98365844413638,185.382824741886 36.41990480176173,191.29661297489656 35.30329188797623,198.16608534677653 30.481554304715246,203.30320007086266 30.227778642671183,208.2013346638414 20.5335483441595,208.44026694569038 19.772221357328817,203.54213447490474 15.458035098854452,199.18156530789565 13.580095198238268,194.6417580358684 13.783115728059784,189.8032380931545 15.55954536376521,185.92044447449734 21.497895860811695,181.85841573693324 27.690022019902244,181.55973597231787 30.633819702081382,182.57524651195854 33.47610711934976,185.02441129559884 36.41990480176173,191.41608279076172 36.318394536850974,195.00016523181694 35.10027135792188,198.464756117668 30.430799172259867,203.48240088351304 30.38004404003732,208.2013346638414 20.584303476382047,208.5 19.873731622239575,203.7213352097897" stroke="#4dd2ff" stroke-dasharray="none" stroke-linecap="round" stroke-linejoin="round" stroke-width="0.5"><title>2025-10-08 10.1km</title><desc>1759919017000</desc></polyline><polyline fill="none" opacity="1" points="53.85288759460673,185.4165660268627 59.046197085641325,181.97473676723894 64.3403475380037,181.5 70.2899642365519,184.17038896452868 73.41603402746841,189.03639760782244 73.92023883224465,194.02104457491077 72.05468105408363,199.302347236895 67.92020165338181,203.3968052775599 67.56725828978233,208.2033039338421 57.8865260342136,208.3813215927803 56.978957385290414,203.15944622678217 53.9033080751542,200.54848987975856 51.6848069333937,197.16609611199237 51.13018164783716,191.1726804326754 53.70162615342997,185.6539327650098 56.52517306082882,183.0428929894697 59.046197085641325,181.97473676723894 65.14707522583194,181.55934211832937 70.94543048297055,185.00117398781003 73.06309066386893,187.90891164721688 73.86981835169718,194.19906684203306 72.30678345635533,198.82762548461324 67.97062213369645,203.15944622678217 67.56725828978233,208.14396470144857 58.088207956403494,208.5 57.28148026834242,203.45614502415992 54.558774321572855,201.43859003228135 52.28985269903205,198.23422271560412 51.07976116752252,191.52872676041443 53.29826230928302,186.12866593257058 58.18904891726561,182.27144703781232 64.44118849909864,181.5 69.78575943177566,183.75499598047463 73.01267018332146,187.84957021672744 73.81939787138253,194.19906684203306 72.20594249526039,199.06498641212238 68.0714630947914,202.98142687091604 67.6176787703298,208.14396470144857" stroke="#4dd2ff" stroke-dasharray="none" stroke-linecap="round" stroke-linejoin="round" stroke-width="0.5"><title>2025-10-01 10.0km</title><desc>1759271073000</desc></polyline><polyline fill="none" opacity="1" points="91.00538852531463,199.995737949037 88.83253294415772,196.07064950052882 89.08519056998193,189.23141319409478 90.95485699991696,185.78202691249317 93.58249630732462,183.34365457016975 98.28192814532667,181.5 105.35634166491218,182.45156442228472 110.05577350314707,186.97147290571593 111.47065620706417,190.95609820849495 111.36959315696731,195.29752271069447 109.24726910074241,200.0552087702672 105.60899929096922,203.26662355585722 105.15421556448564,208.2026504020905 95.50269426289015,208.32159026071895 94.89631596091203,203.56397582683712 89.18625362007879,197.31954432319617 88.52934379316866,193.7512658648193 88.98412751965225,189.29088518122444 92.1170820784755,184.59257834212622 98.13033357006498,181.5594728247961 104.64890031307004,182.27314621867845 108.23663859791122,184.7709957920015 111.16746705607511,190.00454852572875 111.4201246816665,195.0596373254666 109.29780062590726,199.81732544646366 105.55846776557155,203.2071530825342 105.55846776557155,207.84583067224594 104.95208946382627,208.26212033454794 95.50269426289015,208.32159026071895 94.84578443574719,203.56397582683712 91.5107037764974,200.53097510896623 89.33784819557332,196.96271752100438 88.68093836866319,190.65873910981463 91.7633614023216,184.83046826248756 98.02927051950246,181.5594728247961 105.76059386623092,182.62998256779974 109.80311587709002,186.73358391330112 111.47065620706417,191.3129289142671 111.06640400574543,196.42747688264353 109.04514300031587,200.23362119565718 105.71006234106608,203.08821211615577 105.4574047154747,208.02424056612654 102.07179253082722,208.5 95.50269426289015,208.5 94.79525291058235,203.44503493781667 91.10645157541148,200.0552087702672" stroke="#4dd2ff" stroke-dasharray="none" stroke-linecap="round" stroke-linejoin="round" stroke-width="0.5"><title>2025-09-27 10.0km</title><desc>1758965825000</desc></polyline><polyline fill="none" opacity="1" points="126.90783986565657,188.5307632710319 129.7190292852465,184.69044162362115 134.18681246973574,181.85449443524703 140.61238828580827,181.7363296491676 144.37737411586568,183.0952231445699 146.33516674721614,184.80860576976556 148.99575673346408,191.4257571004564 148.79495748924091,195.62051681609591 146.03396788076498,201.11501243221574 143.02197921695188,203.3009791696095 142.67058053961955,208.26368194638053 132.88161738216877,208.5 132.27921964926645,203.12373894953635 127.56043740920722,198.81087584747002 126.15484269964509,194.85246463294607 126.00424326630309,191.66208244895097 127.1588389207609,187.88086458528414 132.12862021592446,182.6225649213884 138.85539489868097,181.5 145.73276901431382,183.6860453475383 148.3933590007946,188.5307632710319 148.89535711123608,194.32073556474643 147.23876334610395,199.10627851769095 143.07217902806588,203.3009791696095 142.77098016161472,208.5 132.88161738216877,208.44092049618484 132.32941946038045,203.59637940808898 128.51423381944187,200.16972680570325 126.15484269964509,194.7343026623712 127.05843929876573,187.88086458528414 131.3254232390318,183.39063432597322 135.44180774618872,181.5590824218816 144.578173359856,182.8588940843474 146.68656542454846,184.74952369974926 148.64435805613175,190.18504734081216 148.9455569225829,194.32073556474643 146.73676523566246,199.9334051430924 142.9717794060707,203.5372993730707 142.67058053961955,208.38184098608326 132.83141757105477,208.322761469346 132.12862021592446,203.3009791696095" stroke="#4dd2ff" stroke-dasharray="none" stroke-linecap="round" stroke-linejoin="round" stroke-width="0.5"><title>2020-04-24 10.0km</title><desc>1587724293000</desc></polyline><polyline fill="none" opacity="1" points="180.38160684495233,203.6234462618013 184.92944361479022,198.56843630527146 186.74857832258567,192.68077780556632 184.47465993766673,185.78202691243496 185.03050665394403,185.0683580795303 182.807119788602,185.42519261187408 179.26991341193207,182.92734601488337 173.61038320930675,181.5 167.4455378097482,184.2952157970867 163.9083314333111,189.88560469949152 164.41364662977867,197.97372619184898 169.76998771447688,203.74238711217185 170.17423987179063,208.5 179.97735468717292,208.32159026066074 180.3310753251426,203.32609402301023 184.52519145724364,199.34155848942464 186.1422000869643,194.16756621323293 185.48529033106752,189.40982913650805 182.55446219048463,184.65205083182082 176.38961679115891,181.67841845494695 172.04390609962866,182.09472795715556 166.48543893615715,184.711523315229 163.60514231515117,190.24243610119447 164.05992599227466,196.9627175210626 165.9801237396896,200.29309199133422 169.56786163593642,203.6234462618013 170.07317683263682,208.44053009338677 179.97735468717292,208.32159026066074 180.02788620698266,203.6234462618013 184.42412841808982,199.22261668590363 185.88954248838127,194.58386624610284 185.08103817375377,188.87458113551838 182.09967851359397,184.53310584608698 179.57310252985917,182.68945527006872 175.42951791733503,181.79736405907897 172.7008158552926,181.85683685156982 167.69819540833123,183.58154503139667 164.26205207058229,188.2798605223652 163.25142167764716,191.66975938848918" stroke="#4dd2ff" stroke-dasharray="none" stroke-linecap="round" stroke-linejoin="round" stroke-width="0.5"><title>2020-04-16 10.0km</title><desc>1587033949000</desc></polyline><polyline fill="none" opacity="1" points="30.25947061693296,238.08734632335836 30.409741206094623,233.37128208595095 34.56722750305198,229.24469235760625 36.32038437528536,224.52855150063988 35.66921182279475,219.57655961893033 31.91244709631428,214.15289776510326 26.352435301523656,211.79476705705747 18.53836467070505,213.62231924652588 14.831690140767023,218.2206492224359 13.729705821024254,221.99360890430398 14.230607784586027,226.70977172651328 16.785207798471674,230.836380673456 20.141250954009593,233.724988321017 20.742333309957758,238.5 30.35965100955218,238.08734632335836 30.409741206094623,233.31233102444094 34.96794907399453,228.77308011089917 36.32038437528536,223.88007893715985 35.869572608266026,220.1660848245956 33.615513772238046,215.92148909100797 29.808658849680796,212.79697385634063 27.153878442943096,211.6768602532684 22.495490182423964,212.14848731446546 17.085748976562172,214.32975715614157 14.180517588276416,219.8123697777046 13.679615624714643,223.46741417626617 14.7315097481478,228.3014674554579 20.09116075769998,233.54813523223856 20.4918823284097,238.32314846263034 30.509921598713845,237.7925935056992 30.459831402171403,233.25337995623704 34.767588288290426,229.12678933423012 36.170113786356524,224.469599481381 35.61912162625231,219.2228441889747 31.46163532906212,214.15289776510326 26.803247068542987,211.5 22.39530978980474,212.26639401598368 17.085748976562172,214.68347576609813 14.38087837351486,219.340749357827 13.729705821024254,224.70540752040688 15.88358426420018,229.71630419575376 19.990980364615098,233.66603729786584" stroke="#4dd2ff" stroke-dasharray="none" stroke-linecap="round" stroke-linejoin="round" stroke-width="0.5"><title>2020-04-14 10.0km</title><desc>1586861907000</desc></polyline><polyline fill="none" opacity="1" points="72.18235843651928,229.41996836662292 74.17503378726542,223.94782460830174 73.66409138962626,219.73844655335415 70.64953124313615,214.50674648629501 64.82478790939786,211.68040524836397 59.61317545315251,211.98108053207397 53.89062059880234,214.62701600696892 50.82496621296741,220.46005648653954 51.08043741178699,225.0302309495164 52.255604926496744,227.97677085374016 57.569405862363055,233.6894057103782 57.77378282160498,238.5 67.94153653550893,238.25947127543623 68.04372501489706,233.74953839631053 72.6933008339256,228.75850330555113 73.91956258844584,224.24849324818933 73.56190291023813,220.0992516372935 69.72983492724597,213.54458938236348 64.9780706288293,211.62027017201763 59.204421534901485,211.92094548844034 54.248280277475715,214.20607257040683 50.92715469235554,222.08367540704785 52.5621703651268,228.33757058356423 57.518311622552574,233.8698037485592 57.8248770609498,238.5 67.737159576267,238.3196034662542 67.94153653550893,233.56914031913038 71.92688723723404,229.54023465653881 73.76627986924723,225.09036457323236 73.45971443061717,219.5580439234036 70.13858884572983,214.38647693925304 64.67150519019924,211.5 58.182536739623174,212.4621606473811 53.83952635922469,214.50674648629501 50.87606045254506,221.90327353932662" stroke="#4dd2ff" stroke-dasharray="none" stroke-linecap="round" stroke-linejoin="round" stroke-width="0.5"><title>2020-04-13 10.0km</title><desc>1586775592000</desc></polyline><polyline fill="none" opacity="1" points="95.05839766305871,233.55813366820803 95.51927249226719,238.3794671971118 104.89039402222261,237.95760218106443 105.55610210937448,233.1362649970688 109.65276725892909,229.09836296143476 111.39384994772263,224.93989590904675 111.13780837552622,219.75683549552923 108.7310176002793,215.1161474143155 102.89326976193115,211.56026931619272 97.10673023783602,211.7410772255389 91.67864891467616,214.87507165101124 89.52789971092716,218.43092856474686 88.70856668101624,221.68542175466428 89.579108025413,227.59167559049092 90.91052419901825,230.06264073739294 94.85356440558098,233.49786673480412 95.468064178247,238.3794671971118 104.89039402222261,238.01786863146117 105.65851873788051,233.01573103206465 109.0382674864959,230.0023734254646 110.88176680379547,226.80819654546212 111.44505826174282,221.92649456713116 110.11364208813757,216.86394357285462 107.09235154022463,213.4888839861378 101.8691034745425,211.56026931619272 96.38981383666396,212.04242361045908 92.19073205813766,214.4531888142228 90.14239948336035,216.92421230807668 88.55494173802435,221.92649456713116 88.70856668101624,224.81936016870895 90.5008576840628,229.64076941588428 94.90477272006683,233.67866751545807 95.36564754927531,238.3192007857142 105.04401896544732,238.07813507528044 105.70972705236636,233.1362649970688 109.75518388743512,229.09836296143476 111.29143331875093,225.7233775848872 111.39384994772263,220.48005612607813 110.11364208813757,216.80367483128794 105.19764390867203,212.58484669210156 99.4111043845769,211.5 93.31731497426517,213.36834576528054 89.579108025413,217.88851118239108 88.65735836676322,220.48005612607813 88.81098330998793,225.48230641748523 91.11535745649599,230.30370992043754 94.6999394625891,233.55813366820803 95.468064178247,238.5" stroke="#4dd2ff" stroke-dasharray="none" stroke-linecap="round" stroke-linejoin="round" stroke-width="0.5"><title>2020-04-12 10.0km</title><desc>1586649823000</desc></polyline><polyline fill="none" opacity="1" points="132.4598626359366,212.84418780222768 138.3193326748442,211.5 145.56918543507345,214.01304403849645 148.34995087701827,219.79884511831915 148.9458291863557,224.06510314252228 147.20785078476183,228.97418022481725 142.78841999266297,233.64945020817686 142.83807651838288,238.32467968267156 132.90677136764862,238.26623956428375 132.4598626359366,233.35724702116568 127.84180574095808,229.50015012029326 126.45142301986925,226.75341279135318 126.10382733936422,222.13652492605615 126.84867522586137,218.63000141637167 131.81432780111209,212.9610735399765 135.48891070694663,211.55844301753677 142.1428851580713,212.66885914839804 146.4133463727776,215.3572255797335 148.7472030830104,220.67547623312566 148.84651613468304,224.24042809329694 147.05888120736927,229.44170904619386 142.98704609577544,233.53256895235972 142.7387634671759,238.32467968267156 132.90677136764862,238.32467968267156 132.36054958449677,233.35724702116568 128.38802752410993,229.9676784859039 126.6500491227489,226.75341279135318 126.3521099681966,220.55859216680983 128.93424930726178,215.82476620055968 131.96329737850465,213.01951639918843 134.19784103729762,212.14287284499733 139.80902844737284,211.85065801045857 145.46987238316797,214.01304403849645 148.64789003157057,220.09105564816855 148.79685960896313,224.47419460536912 146.76094205281697,229.9676784859039 142.98704609577544,233.29880636470625 142.7387634671759,238.14935930841602 132.95642789360136,238.5 132.31089305854402,233.2403657019604 128.13974489551038,229.61703224980738 126.6500491227489,226.81185415684013 126.0541708136443,220.73391825694125" stroke="#4dd2ff" stroke-dasharray="none" stroke-linecap="round" stroke-linejoin="round" stroke-width="0.5"><title>2020-04-08 10.0km</title><desc>1586343893000</desc></polyline><polyline fill="none" opacity="1" points="166.21079684561118,215.70788108336274 169.33915729029104,212.96107353986008 171.47438743524253,212.20131579291774 177.97939089988358,212.0844298907905 182.59744679462165,214.36370041576447 186.12305935914628,220.8508022854803 185.6264942092821,227.10406088869786 183.49126406456344,230.8442930795718 180.31324710464105,233.59100958361523 180.31324710464105,238.32467968278797 170.58057016530074,238.44155990047147 169.98469198541716,233.53256895247614 165.11835351539776,228.62353334313957 163.5293450357858,222.7793850976741 164.82041442557238,217.9871363011771 169.23984426027164,212.78574492404005 174.9006869699806,211.5 181.60431649442762,213.54550184804248 183.78920315415598,215.76632364524994 186.3216854191851,221.78587360068923 185.5271811792627,227.10406088869786 183.14366845949553,231.0780567305046 180.51187316467986,233.47412831510883 180.21393407485448,238.32467968278797 170.38194410526194,238.38311979477294 169.88537895516492,233.41568767128047 165.3169795756694,229.44170904625207 163.57900155056268,224.4157529870863 164.3238492757082,219.2144235840533 169.38881380530074,212.72730203950778 174.9006869699806,211.67532903369283 181.75328603968956,213.2532877730555 184.5340508793015,217.11050081829308 186.4209984492045,222.25340865069302 186.47065496398136,224.94172732619336 185.17958557442762,228.50665099860635 180.36290361965075,233.41568767128047 180.36290361965075,238.32467968278797 170.72953971032985,238.5 169.83572244038805,233.76633143879008 165.3169795756694,229.3248268790776 163.6286580658052,225.23393507068977 163.77762761083432,220.38326602004236" stroke="#4dd2ff" stroke-dasharray="none" stroke-linecap="round" stroke-linejoin="round" stroke-width="0.5"><title>2020-04-07 10.0km</title><desc>1586257895000</desc></polyline><polyline fill="none" opacity="1" points="16.50873593520373,245.59099594090367 21.970952584873885,242.0844298907905 26.737978024641052,241.79221502452856 32.69675982417539,244.01304403861286 35.72580723906867,250.9676862883498 35.12992905918509,257.8053563994472 32.89538588398136,261.4287020172924 30.511873164214194,263.41568767128047 30.213934074155986,268.0324790272862 20.878509254893288,268.5 20.1336615299806,263.7663314387901 16.11148381535895,260.37676547351293 14.125223215436563,256.11055735487025 14.224536245455965,249.85728723701322 16.11148381535895,246.17542140028672 19.835722439922392,242.72730203950778 23.609617579728365,241.5584430177114 27.284199689514935,241.67532903369283 33.19332497403957,245.0650124863605 35.57683769403957,249.38975011080038 35.72580723906867,256.28588164091343 33.441607549320906,260.49364741303725 30.31324710440822,263.4741283151088 30.213934074155986,268.0909191710525 20.828852739883587,268.38311979477294 20.08400501520373,263.53256895247614 15.565262150485069,259.55859118833905 13.926597155397758,255.52614265697775 14.02591018541716,250.73391825705767 16.45907942019403,245.76632364524994 20.332287590019405,242.376644598844 26.539351964602247,241.5 32.49813376413658,244.48058582423255 34.98095951392315,247.63648227899102 35.874776783864945,250.61703420319827 36.12305935914628,254.707961016451 35.32855511899106,257.6300326071796 33.19332497403957,260.9611749177566 30.31324710440822,263.4741283151088 30.263590589398518,268.2077994395513 20.92816577013582,268.38311979477294 20.1336615299806,263.94165323727066 15.714231695281342,259.55859118833905 13.876940640620887,255.17549353436334 14.174879730446264,249.97417145548388" stroke="#4dd2ff" stroke-dasharray="none" stroke-linecap="round" stroke-linejoin="round" stroke-width="0.5"><title>2020-04-02 10.0km</title><desc>1585825459000</desc></polyline><polyline fill="none" opacity="1" points="52.04073895094916,257.9324200282572 51.25136075844057,251.37112544459524 53.76750374655239,245.97106169210747 60.082529285689816,241.96452762611443 65.06547912536189,242.13872538221767 68.86436167615466,243.41617386293365 71.1338239791803,245.564603079285 73.25527787115425,250.67434608162148 73.64996696752496,254.9711377255735 71.57784921233542,260.13885503058555 67.9763112096116,263.50655410508625 67.77896666177548,268.5 57.91173925693147,268.26774773397483 57.517050160327926,263.85493556043366 52.731444869190454,259.0937027405598 51.25136075844057,252.8808109575184 52.534100321121514,247.88721957273083 57.36904174950905,243.06777912459802 62.20398317766376,241.79032981354976 69.16037849825807,243.64843689615373 72.81125263823196,248.81626335246256 73.74863924155943,254.44855679775355 72.61390808993019,258.68725407740567 67.77896666177548,263.6807448611362 67.72963052452542,268.44193694298156 58.059747667983174,268.44193694298156 57.221033338457346,263.56461769680027 53.91551215783693,260.71949431148823 51.794058265862986,257.5840347239864 51.25136075844057,252.0098390650237 53.964848294854164,245.97106169210747 59.737176326802,241.5 64.424109343905,242.02259355102433 70.64046260900795,245.50653753784718 73.50195855647326,250.7324110629852 73.6993031045422,255.1453312552767 71.23249625321478,260.71949431148823 67.92697507282719,263.50655410508625 67.58162211347371,268.3838738796767 58.10908380500041,268.5 57.36904174950905,263.4484905072022 53.91551215783693,260.77755820483435 52.13941122498363,258.22274094214663" stroke="#4dd2ff" stroke-dasharray="none" stroke-linecap="round" stroke-linejoin="round" stroke-width="0.5"><title>2020-03-23 10.0km</title><desc>1584960411000</desc></polyline><polyline fill="none" opacity="1" points="104.7261067663785,268.1523691750481 95.47081434866413,268.5 94.68312988779508,263.5752089123707 91.33547092834488,260.6203124974272 89.21856893924996,256.6224854856264 88.8739569876343,250.71259952086257 91.18778009200469,246.30911262659356 96.50465020397678,241.55794137332123 102.75689561362378,241.78970680374186 107.3353115436621,243.7597089082701 110.48604938783683,248.91644477046793 111.1260430123657,254.76841064321343 109.25529241748154,259.7512222104124 105.21840955456719,263.63314789469587 105.07071871799417,268.2103076616186 95.37235379125923,268.32618461566744 94.73236016673036,263.4593309290358 91.38470120728016,260.272676552122 89.12010838161223,256.6224854856264 88.92318726633675,250.88642062840518 90.99085897672921,246.13529003184522 97.44002550141886,241.5 105.11994899692945,242.36911994067486 108.5168382350821,244.9764712897013 110.53527966653928,248.91644477046793 111.1260430123657,254.53665083582746 109.40298325382173,259.51946456206497 105.26763983350247,263.63314789469587 105.11994899692945,268.2682461417862 95.37235379125923,268.44206154491985 94.68312988779508,263.2855139070889 90.99085897672921,259.9250403807964 89.3170294968877,256.97012380324304 88.97241754527204,250.13319542171666 91.23701037070714,246.01940827060025 96.55388048267923,241.90558948140824 101.9692111525219,241.90558948140824 106.99069959158078,243.58588548522675" stroke="#4dd2ff" stroke-dasharray="none" stroke-linecap="round" stroke-linejoin="round" stroke-width="0.5"><title>2019-12-13 10.0km</title><desc>1576239112000</desc></polyline><polyline fill="none" opacity="0.5" points="139.9505575094372,260.2773408591747 143.60032401327044,250.95007318432909 143.07892879843712,241.5 143.60032401327044,250.95007318432909 139.9505575094372,260.2773408591747 131.39967598672956,268.5 139.9505575094372,260.2773408591747 143.60032401327044,250.95007318432909 143.07892879843712,241.5 143.60032401327044,250.95007318432909 139.9505575094372,260.2773408591747 131.39967598672956,268.5 139.9505575094372,260.2773408591747 143.60032401327044,250.95007318432909 143.07892879843712,241.5 143.60032401327044,250.95007318432909 139.9505575094372,260.2773408591747 131.39967598672956,268.5 139.9505575094372,260.2773408591747 143.60032401327044,250.95007318432909 143.07892879843712,241.5 143.60032401327044,250.95007318432909 139.9505575094372,260.2773408591747 131.39967598672956,268.5 139.9505575094372,260.2773408591747 143.60032401327044,250.95007318432909 143.07892879843712,241.5 143.60032401327044,250.95007318432909 139.9505575094372,260.2773408591747 131.39967598672956,268.5 139.9505575094372,260.2773408591747 143.60032401327044,250.95007318432909 143.07892879843712,241.5 143.60032401327044,250.95007318432909 139.9505575094372,260.2773408591747 131.39967598672956,268.5 139.9505575094372,260.2773408591747 143.60032401327044,250.95007318432909 143.07892879843712,241.5 143.60032401327044,250.95007318432909 139.9505575094372,260.2773408591747 131.39967598672956,268.5 139.9505575094372,260.2773408591747 143.60032401327044,250.95007318432909 143.07892879843712,241.5 143.60032401327044,250.95007318432909 139.9505575094372,260.2773408591747 131.39967598672956,268.5 139.9505575094372,260.2773408591747 143.60032401327044,250.95007318432909 143.07892879843712,241.5 143.60032401327044,250.95007318432909 139.9505575094372,260.2773408591747 131.39967598672956,268.5 139.9505575094372,260.2773408591747 143.60032401327044,250.95007318432909 143.07892879843712,241.5 143.60032401327044,250.95007318432909 139.9505575094372,260.2773408591747 131.39967598672956,268.5 139.9505575094372,260.2773408591747 143.60032401327044,250.95007318432909 143.07892879843712,241.5 143.60032401327044,250.95007318432909 139.9505575094372,260.2773408591747 131.39967598672956,268.5 139.9505575094372,260.2773408591747 143.60032401327044,250.95007318432909 143.07892879843712,241.5 143.60032401327044,250.95007318432909 139.9505575094372,260.2773408591747 131.39967598672956,268.5 139.9505575094372,260.2773408591747 143.60032401327044,250.95007318432909 143.07892879843712,241.5 143.60032401327044,250.95007318432909 139.9505575094372,260.2773408591747 131.39967598672956,268.5 139.9505575094372,260.2773408591747 143.60032401327044,250.95007318432909 143.07892879843712,241.5 143.60032401327044,250.95007318432909 139.9505575094372,260.2773408591747 131.39967598672956,268.5 139.9505575094372,260.2773408591747 143.60032401327044,250.95007318432909 143.07892879843712,241.5 143.60032401327044,250.95007318432909 139.9505575094372,260.2773408591747 131.39967598672956,268.5 139.9505575094372,260.2773408591747 143.60032401327044,250.95007318432909 143.07892879843712,241.5 143.60032401327044,250.95007318432909 139.9505575094372,260.2773408591747 131.39967598672956,268.5 139.9505575094372,260.2773408591747 143.60032401327044,250.95007318432909 143.07892879843712,241.5" stroke="#4dd2ff" stroke-dasharray="1,0.5" stroke-linecap="round" stroke-linejoin="round" stroke-width="0.5"><title>2019-11-23 10.0km</title><desc>1574497580000</desc></polyline></svg>