<?xml version="1.0" encoding="utf-8" ?>
<svg baseProfile="full" height="200mm" version="1.1" viewBox="0,0,200,200" width="200mm" xmlns="http://www.w3.org/2000/svg" xmlns:ev="http://www.w3.org/2001/xml-events" xmlns:xlink="http://www.w3.org/1999/xlink"><defs /><rect fill="#1a1a1a" height="200" width="200" x="0" y="0" /><rect fill="#1a1a1a" height="200" width="180" x="10" y="0" /><text alignment-baseline="middle" fill="#e1ed5e" style="dominant-baseline: central; font-size:9.0px; font-family:Arial;" text-anchor="middle" x="100.0" y="100.0">2021</text><line stroke="#e1ed5e" stroke-width="0.3" x1="100.0" x2="100.0" y1="15.0" y2="10.0" /><path d="M 100.0 14.0 a86.0,86.0 0 0,1 42.46469731375804,11.215312516191453" fill="none" id="id25" stroke="none" /><text fill="#e1ed5e" style="font-size:6.75px; font-family:Arial;" text-anchor="middle"><textPath startOffset="22.20632615414155" xlink:href="#id25">January</textPath></text><path d="M 102.16513564639614 79.11191278185805 l 5.792856516461088 -55.88642557311751 a77.18585008665357,77.18585008665357 0 0,0 1.320367969953939,0.1483587259194721 l -6.753991189924752 55.778430893727446" fill="red" stroke="none" /><path d="M 103.59715602781102 79.31037775812273 l 9.6157935208899 -55.30678512829703 a77.13647625442842,77.13647625442842 0 0,0 1.3061955855716656,0.23869889427115323 l -10.566384227564466 55.13307075267514" fill="red" stroke="none" /><path d="M 103.95276090670814 79.375362276772 l 10.567545911813477 -55.13913216578615 a77.14264798345656,77.14264798345656 0 0,0 1.3019974146661966,0.26116843282629926 l -11.5151097359468 54.94905977688264" fill="red" stroke="none" /><path d="M 104.307194497241 79.44645832069477 l 11.516329554455325 -54.95488064022472 a77.14859528597458,77.14859528597458 0 0,0 1.297408940313179,0.2835633427115138 l -12.460581218922032 54.748503799417335" fill="red" stroke="none" /><path d="M 106.0581310904928 79.89281104454417 l 12.382086582228633 -41.09666015025656 a63.921457846111096,63.921457846111096 0 0,0 1.0507915355301323,0.3264860450803106 l -13.087663490469483 40.87743397029373" fill="red" stroke="none" /><path d="M 109.41281617654863 81.2277094730956 l 25.482610620111426 -50.820812918510946 a77.85172354216277,77.85172354216277 0 0,0 1.1927607415633548,0.6109783789072951 l -26.353631849263536 50.374642014291155" fill="red" stroke="none" /><line stroke="#e1ed5e" stroke-width="0.3" x1="143.23703022742887" x2="145.7803849466894" y1="26.81831364943548" y2="22.513508569990506" /><path d="M 143.74570117128098 25.957352633546492 a86.0,86.0 0 0,1 28.547481713284135,27.462654790039103" fill="none" id="id26" stroke="none" /><text fill="#e1ed5e" style="font-size:6.75px; font-family:Arial;" text-anchor="middle"><textPath startOffset="19.985693538727396" xlink:href="#id26">February</textPath></text><path d="M 110.68208982089419 81.91981866633111 l 30.337762206123866 -51.34877642308855 a80.64123284962889,80.64123284962889 0 0,0 1.1890278436772126,0.7163759716921723 l -31.217152116018713 50.81895384193776" fill="red" stroke="none" /><path d="M 115.9244219780498 86.31012108654704 l 42.60001494563519 -36.62230548279233 a77.17788294554452,77.17788294554452 0 0,0 0.85737052212996,1.0148562696183108 l -43.22409608125226 35.88359026354491" fill="red" stroke="none" /><line stroke="#e1ed5e" stroke-width="0.3" x1="172.23445277983987" x2="176.4835382374775" y1="55.19839476539836" y2="52.563006222186495" /><path d="M 173.08426987136738 54.67131705675599 a86.0,86.0 0 0,1 12.851231095245387,41.99856678651699" fill="none" id="id27" stroke="none" /><text fill="#e1ed5e" style="font-size:6.75px; font-family:Arial;" text-anchor="middle"><textPath startOffset="22.20632615414155" xlink:href="#id27">March</textPath></text><path d="M 118.89224826269711 90.83032412892265 l 49.239518945506454 -23.899242826994655 a75.73302507342842,75.73302507342842 0 0,0 0.5591326187243766,1.1776758916291987 l -49.643609758072586 23.048124519724915" fill="red" stroke="none" /><path d="M 119.04729006885535 91.15688171328212 l 50.91828960736312 -23.63992233685394 a77.13838387976438,77.13838387976438 0 0,0 0.5487759916585097,1.2091551546052688 l -51.31766791598498 22.759945173406607" fill="red" stroke="none" /><path d="M 119.196687751892 91.48605970444005 l 51.35869882682223 -22.778142829671882 a77.18326918178724,77.18326918178724 0 0,0 0.5281882298159971,1.2191312576762536 l -51.743177766480905 21.890712427409028" fill="red" stroke="none" /><path d="M 119.47837535516314 92.15188598940014 l 52.06975435500824 -20.97964338559233 a77.13737396046886,77.13737396046886 0 0,0 0.4856218277505403,1.2358545823202742 l -52.42316973264048 20.08023979837627" fill="red" stroke="none" /><path d="M 119.61058180528143 92.48833698450437 l 52.42013085410142 -20.079075782348745 a77.1341197760722,77.1341197760722 0 0,0 0.4642570861743605,1.243978176845895 l -52.75799252877741 19.173774468473514" fill="red" stroke="none" /><path d="M 120.18372546131832 94.20196356495316 l 53.977411659608016 -15.505710284838974 a77.16037767775559,77.16037767775559 0 0,0 0.35572120701441085,1.279718446146995 l -54.236319637188785 14.574280535273028" fill="red" stroke="none" /><path d="M 120.28053869075195 94.5502522615342 l 54.216596511595185 -14.568980574520593 a77.1399548653352,77.1399548653352 0 0,0 0.3335519457681775,1.2853117114467207 l -54.45934478923366 13.633572437525022" fill="red" stroke="none" /><path d="M 120.6074358757038 95.95851677861258 l 55.10514632401016 -10.80709534285911 a77.15487922825778,77.15487922825778 0 0,0 0.2443762351757048,1.305467620025159 l -55.283008283095725 9.856949645371389" fill="red" stroke="none" /><path d="M 120.67395015179393 96.31383870115 l 55.27781614555539 -9.856023888255843 a77.14960520527009,77.14960520527009 0 0,0 0.22185338299028443,1.3093912248086033 l -55.4392813900659 8.903046875131402" fill="red" stroke="none" /><path d="M 120.73433829027371 96.67025291283417 l 62.03327893037236 -9.96198320554295 a83.82808929325242,83.82808929325242 0 0,0 0.21653237182871754,1.4266777866611529 l -62.19556719564038 8.892706306489714" fill="red" stroke="none" /><path d="M 120.78858239683441 97.02765380044208 l 55.57465451038507 -7.946049902413788 a77.13984265208012,77.13984265208012 0 0,0 0.17662820317909467,1.3160852722980088 l -55.703198712622005 6.988246288051115" fill="red" stroke="none" /><path d="M 120.94382443527127 98.46500227214037 l 44.801156732094746 -3.28352990170384 a65.92132247773992,65.92132247773992 0 0,0 0.07320220382801115,1.1324056931570152 l -44.851039526927174 2.51186514429379" fill="red" stroke="none" /><path d="M 120.96714384426684 98.82574320788733 l 56.06253898466251 -3.139760840808174 a77.15039069805549,77.15039069805549 0 0,0 0.06284594324855937,1.3265785333697175 l -56.10827853614457 2.1742712008154568" fill="red" stroke="none" /><line stroke="#e1ed5e" stroke-width="0.3" x1="184.98032266829074" x2="189.97916517819016" y1="98.17113171792111" y2="98.06355123074" /><path d="M 185.9800911702706 98.14961562048488 a86.0,86.0 0 0,1 -9.607161424134198,41.387399972396054" fill="none" id="id28" stroke="none" /><text fill="#e1ed5e" style="font-size:6.75px; font-family:Arial;" text-anchor="middle"><textPath startOffset="21.466115282336823" xlink:href="#id28">April</textPath></text><path d="M 120.95626037817324 101.35467743843564 l 56.02649573584637 3.6217258403132018 a77.14343347624194,77.14343347624194 0 0,0 -0.09706642804243085,1.3243942910028363 l -55.9558527491396 -4.585593267812809" fill="red" stroke="none" /><path d="M 120.89721153311464 102.0752229133903 l 55.84439774631699 5.545695587375134 a77.11908319989455,77.11908319989455 0 0,0 -0.14255168191280007,1.3198515311864234 l -55.74066376290314 -6.5061434404463485" fill="red" stroke="none" /><path d="M 120.64145759157962 103.86396538481128 l 28.154290635419663 5.2703257009115525 a49.643331059382184,49.643331059382184 0 0,0 -0.16446142233869113,0.8385852493303507 l -28.059399280105307 -5.754174677309848" fill="red" stroke="none" /><path d="M 120.49622156327973 104.57218783832717 l 32.891662122294434 7.337296636534631 a54.70010918527833,54.70010918527833 0 0,0 -0.21291218896864855,0.9172201376472455 l -32.76048936739523 -7.9023854315304405" fill="red" stroke="none" /><line stroke="#e1ed5e" stroke-width="0.3" x1="174.80103733775053" x2="179.2010983576182" y1="140.37084112569926" y2="142.7455964860345" /><path d="M 175.68104954172406 140.8457921977663 a86.0,86.0 0 0,1 -30.038265399797805,32.042727171017184" fill="none" id="id29" stroke="none" /><text fill="#e1ed5e" style="font-size:6.75px; font-family:Arial;" text-anchor="middle"><textPath startOffset="22.206326154141568" xlink:href="#id29">May</textPath></text><line stroke="#e1ed5e" stroke-width="0.3" x1="143.8653032363475" x2="146.44561519142675" y1="172.8068346515853" y2="177.08958963109032" /><path d="M 144.38136562736335 173.6633856474863 a86.0,86.0 0 0,1 -40.68145358897372,12.25698825130547" fill="none" id="id30" stroke="none" /><text fill="#e1ed5e" style="font-size:6.75px; font-family:Arial;" text-anchor="middle"><textPath startOffset="21.466115282336833" xlink:href="#id30">June</textPath></text><line stroke="#e1ed5e" stroke-width="0.3" x1="102.19456741930631" x2="102.32365962044197" y1="184.97166512339345" y2="189.96999836594603" /><path d="M 102.22038585953345 185.97133177190398 a86.0,86.0 0 0,1 -42.740103519485714,-10.115201625700543" fill="none" id="id31" stroke="none" /><text fill="#e1ed5e" style="font-size:6.75px; font-family:Arial;" text-anchor="middle"><textPath startOffset="22.20632615414155" xlink:href="#id31">July</textPath></text><path d="M 91.07499286063937 119.00905698771935 l -15.547158924773832 33.11334381961367 a57.58152114863625,57.58152114863625 0 0,0 -0.8935756333150812,-0.42897060649305463 l 16.114847226089157 -32.84081893662105" fill="red" stroke="none" /><path d="M 90.42595943632237 118.69057910512821 l -18.809188354918458 36.71956688637831 a62.256661994082975,62.256661994082975 0 0,0 -0.9495892959541781,-0.49678023928146914 l 19.438468553399133 -36.390357228152126" fill="red" stroke="none" /><line stroke="#e1ed5e" stroke-width="0.3" x1="58.666819895761336" x2="56.23545636021788" y1="174.27360380694188" y2="178.64263932499728" /><path d="M 58.180547188652646 175.14741091055294 a86.0,86.0 0 0,1 -31.652253787137756,-30.449443065178592" fill="none" id="id32" stroke="none" /><text fill="#e1ed5e" style="font-size:6.75px; font-family:Arial;" text-anchor="middle"><textPath startOffset="22.20632615414155" xlink:href="#id32">August</textPath></text><path d="M 89.4739219176387 118.17145234162733 l -22.949932873975843 39.61908777418515 a66.78615003446549,66.78615003446549 0 0,0 -0.9898093171925993,-0.5847967913972079 l 23.628510062196824 -39.21817241049419" fill="red" stroke="none" /><path d="M 88.8546689885994 117.79835938074946 l -27.500806644787033 43.916976483133844 a72.81693921425786,72.81693921425786 0 0,0 -1.0566022141822555,-0.674373524494632 l 28.252690661016214 -43.437088529815405" fill="red" stroke="none" /><path d="M 88.54995079064634 117.60387380957326 l -28.859933964660843 44.37069451644608 a73.93065577070024,73.93065577070024 0 0,0 -1.0608179582123063,-0.7030522980678752 l 29.619426621613112 -43.86734419728689" fill="red" stroke="none" /><path d="M 88.24862548938628 117.40417183066458 l -28.218256197305383 41.79216475281667 a71.4267291973546,71.4267291973546 0 0,0 -1.0130456926351075,-0.6967820648382261 l 28.933458774563384 -41.30024189861334" fill="red" stroke="none" /><path d="M 85.44109423537348 115.13401014063109 l -34.80361384147308 36.17842256299363 a71.20129276794476,71.20129276794476 0 0,0 -0.8759455894049308,-0.8572971213407057 l 35.4212093832538 -35.57397533873036" fill="red" stroke="none" /><path d="M 84.9287848128048 114.62390073753433 l -45.21364556158558 43.871702212602976 a84.0,84.0 0 0,0 -0.99797379448417,-1.0463715336699995 l 45.9621259074487 -43.08692356235048" fill="red" stroke="none" /><path d="M 84.67929136418377 114.36230785411682 l -17.89075613821844 16.77158371116911 a45.52274812042798,45.52274812042798 0 0,0 -0.5309981271430719,-0.5762935936100118 l 18.176800673357242 -16.461138862757757" fill="red" stroke="none" /><path d="M 82.85270091963577 112.12312394758628 l -39.468801636850486 27.90440477323681 a69.33675732191489,69.33675732191489 0 0,0 -0.6806198216504195,-0.980483616112441 l 39.94328236566304 -27.220879894937358" fill="red" stroke="none" /><line stroke="#e1ed5e" stroke-width="0.3" x1="26.63291911575756" x2="22.317208475507996" y1="142.92168965132927" y2="145.44649492493687" /><path d="M 25.769776987707644 143.4266507060508 a86.0,86.0 0 0,1 -11.730757126820373,-40.83630448921669" fill="none" id="id33" stroke="none" /><text fill="#e1ed5e" style="font-size:6.75px; font-family:Arial;" text-anchor="middle"><textPath startOffset="21.46611528233685" xlink:href="#id33">September</textPath></text><line stroke="#e1ed5e" stroke-width="0.3" x1="15.007084014347285" x2="10.007500721073583" y1="101.09737516637583" y2="101.16192664675087" /><path d="M 14.007167355692545 101.11028546245083 a86.0,86.0 0 0,1 10.666146001902534,-42.60595125391555" fill="none" id="id34" stroke="none" /><text fill="#e1ed5e" style="font-size:6.75px; font-family:Arial;" text-anchor="middle"><textPath startOffset="22.20632615414155" xlink:href="#id34">October</textPath></text><line stroke="#e1ed5e" stroke-width="0.3" x1="26.266209847984243" x2="21.928928074336255" y1="57.711370442889674" y2="55.22380399835377" /><path d="M 25.398753493254645 57.213857153982495 a86.0,86.0 0 0,1 29.58750427330803,-30.492523968695096" fill="none" id="id35" stroke="none" /><text fill="#e1ed5e" style="font-size:6.75px; font-family:Arial;" text-anchor="middle"><textPath startOffset="21.46611528233685" xlink:href="#id35">November</textPath></text><line stroke="#e1ed5e" stroke-width="0.3" x1="56.762969772571076" x2="54.21961505331055" y1="26.818313649435495" y2="22.513508569990535" /><path d="M 56.25429882871897 25.957352633546506 a86.0,86.0 0 0,1 42.265352541879196,-11.944610805530505" fill="none" id="id36" stroke="none" /><text fill="#e1ed5e" style="font-size:6.75px; font-family:Arial;" text-anchor="middle"><textPath startOffset="22.20632615414155" xlink:href="#id36">December</textPath></text></svg>