<?xml version="1.0" encoding="utf-8" ?>
<svg baseProfile="full" height="200mm" version="1.1" viewBox="0,0,200,200" width="200mm" xmlns="http://www.w3.org/2000/svg" xmlns:ev="http://www.w3.org/2001/xml-events" xmlns:xlink="http://www.w3.org/1999/xlink"><defs /><rect fill="#1a1a1a" height="200" width="200" x="0" y="0" /><rect fill="#1a1a1a" height="200" width="180" x="10" y="0" /><text alignment-baseline="middle" fill="#e1ed5e" style="dominant-baseline: central; font-size:9.0px; font-family:Arial;" text-anchor="middle" x="100.0" y="100.0">2026</text><line stroke="#e1ed5e" stroke-width="0.3" x1="100.0" x2="100.0" y1="15.0" y2="10.0" /><path d="M 100.0 14.0 a86.0,86.0 0 0,1 42.46469731375804,11.215312516191453" fill="none" id="id85" stroke="none" /><text fill="#e1ed5e" style="font-size:6.75px; font-family:Arial;" text-anchor="middle"><textPath startOffset="22.20632615414155" xlink:href="#id85">January</textPath></text><path d="M 103.95276090670814 79.375362276772 l 0.9563177149340215 -4.989855669070912 a26.080669559226987,26.080669559226987 0 0,0 0.4401840645418222,0.08829678231041037 l -1.042068188942969 4.9726549306832935" fill="#ff2d04" stroke="none" /><path d="M 104.307194497241 79.44645832069477 l 1.0421660548819207 -4.973121938072096 a26.081146710820512,26.081146710820512 0 0,0 0.43860698682597843,0.09586249905983939 l -1.127615765861427 4.954445940916386" fill="#ff2d04" stroke="none" /><path d="M 105.01212808612495 79.60689891045804 l 1.2128355308662724 -4.934725761381426 a26.081583253767782,26.081583253767782 0 0,0 0.4350546087055408,0.11090510665398541 l -1.2975990282568381 4.913117658558572" fill="#ff2d04" stroke="none" /><path d="M 105.36241919743992 79.69619591428918 l 1.2970753658994172 -4.9111349083257645 a26.07953251713177,26.07953251713177 0 0,0 0.4330470493706056,0.11836811704004699 l -1.3814203044937337 4.888080250459423" fill="#ff2d04" stroke="none" /><line stroke="#e1ed5e" stroke-width="0.3" x1="143.23703022742887" x2="145.7803849466894" y1="26.81831364943548" y2="22.513508569990506" /><path d="M 143.74570117128098 25.957352633546492 a86.0,86.0 0 0,1 28.547481713284135,27.462654790039103" fill="none" id="id86" stroke="none" /><text fill="#e1ed5e" style="font-size:6.75px; font-family:Arial;" text-anchor="middle"><textPath startOffset="19.985693538727396" xlink:href="#id86">February</textPath></text><path d="M 111.2981086023043 82.29822771554956 l 2.189392411939845 -3.4303198244667596 a25.069463506604947,25.069463506604947 0 0,0 0.3617559089713784,0.23529610609025173 l -2.2481153466955033 3.3921247942169797" fill="#ff1e03" stroke="none" /><path d="M 115.68641384162765 86.03803664274999 l 4.331498491583332 -3.855324985815563 a26.798742098838545,26.798742098838545 0 0,0 0.30372946025725844,0.3472152780201492 l -4.397219815418439 3.780194151592466" fill="#ff3705" stroke="none" /><path d="M 116.60985879189232 87.15038557335679 l 2.333237398086915 -1.8050244319882869 a23.949933890090765,23.949933890090765 0 0,0 0.24944889389546393,0.3282455042957573 l -2.363962232206492 1.764594151811496" fill="#ff0d01" stroke="none" /><line stroke="#e1ed5e" stroke-width="0.3" x1="172.23445277983987" x2="176.4835382374775" y1="55.19839476539836" y2="52.563006222186495" /><path d="M 173.08426987136738 54.67131705675599 a86.0,86.0 0 0,1 12.851231095245387,41.99856678651699" fill="none" id="id87" stroke="none" /><text fill="#e1ed5e" style="font-size:6.75px; font-family:Arial;" text-anchor="middle"><textPath startOffset="22.20632615414155" xlink:href="#id87">March</textPath></text><path d="M 118.56541770881063 90.18545643968196 l 4.490389383407382 -2.3738287442531663 a26.079238104446404,26.079238104446404 0 0,0 0.20638682682524956,0.3986736578187959 l -4.530585643392748 2.2961823641740255" fill="#ff2d04" stroke="none" /><path d="M 118.73160827565052 90.50648371742162 l 4.537621796995039 -2.2997484134852804 a26.087126333981942,26.087126333981942 0 0,0 0.19955407792255547,0.40228884413698063 l -4.576535887871003 2.22129998084935" fill="#ff2d04" stroke="none" /><path d="M 120.37134235888165 94.90015583598534 l 3.07164812562114 -0.768968803890618 a24.166438887613154,24.166438887613154 0 0,0 0.0975486358176669,0.4044020725384617 l -3.084429561699626 0.7159814996927502" fill="#ff1101" stroke="none" /><path d="M 120.45610955862082 95.25157060432595 l 2.973363673468703 -0.6902000319595513 a24.05241996108338,24.05241996108338 0 0,0 0.09014573605340451,0.4041056589248774 l -2.984803796524145 0.63891620348471" fill="#ff0f01" stroke="none" /><path d="M 120.6074358757038 95.95851677861258 l 2.0024985221990144 -0.3927254330492508 a23.040645387413736,23.040645387413736 0 0,0 0.07297770707587925,0.3898498293123421 l -2.0089619531847527 0.3581975262743459" fill="#ff0000" stroke="none" /><path d="M 120.67395015179393 96.31383870115 l 5.001686207255926 -0.8917996798293898 a26.080568037611343,26.080568037611343 0 0,0 0.07499795020411995,0.4426421474952572 l -5.016296018980269 0.8055717440182947" fill="#ff2d04" stroke="none" /><path d="M 120.73433829027371 96.67025291283417 l 4.530004730349798 -0.7274777639180957 a25.58804607147605,25.58804607147605 0 0,0 0.0660952713229167,0.43548525609989697 l -4.541855895112015 0.6493933954261166" fill="#ff2503" stroke="none" /><path d="M 120.78858239683441 97.02765380044208 l 5.027700851692267 -0.7188593831832035 a26.078832017983828,26.078832017983828 0 0,0 0.059713075396346,0.44493177011525525 l -5.03932992614645 0.632209271003284" fill="#ff2d04" stroke="none" /><path d="M 120.83666639777658 97.38593545837742 l 4.547203731460199 -0.5704695660536356 a25.582848164755077,25.582848164755077 0 0,0 0.05105562551179374,0.43741342023999336 l -4.556349709975581 0.4921124074887896" fill="#ff2503" stroke="none" /><path d="M 120.94382443527127 98.46500227214037 l 4.580369676787511 -0.3357007249729138 a25.59265515282629,25.59265515282629 0 0,0 0.02841931394246234,0.4396342080038064 l -4.5854695817343885 0.2568074527160722" fill="#ff2603" stroke="none" /><line stroke="#e1ed5e" stroke-width="0.3" x1="184.98032266829074" x2="189.97916517819016" y1="98.17113171792111" y2="98.06355123074" /><path d="M 185.9800911702706 98.14961562048488 a86.0,86.0 0 0,1 -9.607161424134198,41.387399972396054" fill="none" id="id88" stroke="none" /><text fill="#e1ed5e" style="font-size:6.75px; font-family:Arial;" text-anchor="middle"><textPath startOffset="21.466115282336823" xlink:href="#id88">April</textPath></text><path d="M 120.99513854157772 99.54816195383933 l 5.0798080384353295 -0.10932295275939587 a26.080984276235483,26.080984276235483 0 0,0 0.00579617942762684,0.44892048428353865 l -5.080937224980672 0.021866210415394473" fill="#ff2d04" stroke="none" /><path d="M 120.99980553446 99.90962569577887 l 5.080023538900925 -0.021862278295947075 a26.080070581694685,26.080070581694685 0 0,0 -0.001932039833042626,0.448938015383883 l -5.079647201778379 -0.06558521529162066" fill="#ff2d04" stroke="none" /><path d="M 120.99824983174949 100.27111621757518 l 5.080195372813739 0.06559229293184694 a26.080618798419163,26.080618798419163 0 0,0 -0.009659686578586688,0.4488476782973554 l -5.0783136235501445 -0.1530297870193172" fill="#ff2d04" stroke="none" /><path d="M 120.9904718944345 100.63252640178507 l 5.336061528999021 0.16079675652915673 a26.338483702154917,26.338483702154917 0 0,0 -0.017556314083976874,0.45305045677948236 l -5.332503082063841 -0.2526244603226453" fill="#ff3004" stroke="none" /><path d="M 120.95626037817324 101.35467743843564 l 5.071282801755926 0.32782339365380103 a26.081867514291584,26.081867514291584 0 0,0 -0.032817747437542885,0.44777208996353923 l -5.064888495654045 -0.4150686201141105" fill="#ff2d04" stroke="none" /><path d="M 120.92983693683757 101.71520430193887 l 5.062500590495977 0.4148729308112219 a26.079471604162386,26.079471604162386 0 0,0 -0.04051682333173083,0.4470997692532155 l -5.05460917088717 -0.5019540886130079" fill="#ff2d04" stroke="none" /><path d="M 120.89721153311464 102.0752229133903 l 5.055376958598955 0.5020303347020898 a26.08024316844128,26.08024316844128 0 0,0 -0.04820833409960976,0.44634930099413517 l -5.045986322998293 -0.5889759575810164" fill="#ff2d04" stroke="none" /><path d="M 120.8583938346157 102.4346265915055 l 5.046561094126789 0.5890430458278181 a26.08082184165045,26.08082184165045 0 0,0 -0.055885600975052824,0.4454632261044545 l -5.035673983904887 -0.6758240262196674" fill="#ff2d04" stroke="none" /><path d="M 120.81339534386255 102.79330883721812 l 5.033289301729668 0.6755039845501586 a26.078415779359688,26.078415779359688 0 0,0 -0.06353937577783697,0.44439424620101936 l -5.02091587493523 -0.7620437027315873" fill="#ff2d04" stroke="none" /><path d="M 120.70491114924044 103.5080841355445 l 2.9048584206722494 0.4921773229602585 a23.94625880760445,23.94625880760445 0 0,0 -0.07235596733376377,0.40581069046266405 l -2.895956010999297 -0.5421067641561409" fill="#ff0d01" stroke="none" /><path d="M 120.64145759157962 103.86396538481128 l 4.992727552101239 0.9346106664958835 a26.079451299839256,26.079451299839256 0 0,0 -0.08639757975655812,0.44053939781990553 l -4.975900039369017 -1.0204137913837341" fill="#ff2d04" stroke="none" /><path d="M 120.5718875245553 104.21870165774334 l 4.975392834349138 1.0203097782417399 a26.078933539599475,26.078933539599475 0 0,0 -0.09396607501500745,0.4389782195529803 l -4.957092720609688 -1.1058018172108892" fill="#ff2d04" stroke="none" /><path d="M 120.49622156327973 104.57218783832717 l 4.96138315168347 1.1067589037019854 a26.083329425556858,26.083329425556858 0 0,0 -0.10152555170914172,0.4373694195924296 l -4.941597034043775 -1.1919969806429798" fill="#ff2d04" stroke="none" /><path d="M 120.41448212921028 104.9243191809786 l 4.940037716087057 1.1916208467163436 a26.08172538402968,26.08172538402968 0 0,0 -0.10903239963719594,0.43553023774578437 l -4.918794002154801 -1.2764789238595238" fill="#ff2d04" stroke="none" /><path d="M 120.32669344350535 105.2749913415812 l 5.900388971886952 1.531213171742382 a27.09583495485914,27.09583495485914 0 0,0 -0.12104344763052617,0.45044769790096356 l -5.873157447914648 -1.632551802818894" fill="#ff3b05" stroke="none" /><path d="M 120.23288151984713 105.62410040840565 l 4.894713578880747 1.36057538868146 a26.080293929249102,26.080293929249102 0 0,0 -0.1239526364911344,0.4314953886838492 l -4.870568305503514 -1.444628252869891" fill="#ff2d04" stroke="none" /><path d="M 120.02730092923936 106.31721596034902 l 4.845289599175764 1.5283507696106091 a26.080618798419163,26.080618798419163 0 0,0 -0.13873367705117895,0.4269783539122048 l -4.818263671108339 -1.611528023500609" fill="#ff2d04" stroke="none" /><path d="M 119.9155931802556 106.66101706037122 l 4.822143722860986 1.6128257549156662 a26.084710119529618,26.084710119529618 0 0,0 -0.14608576582117036,0.42459361670752294 l -4.793667126096585 -1.6955920747124893" fill="#ff2d04" stroke="none" /><path d="M 119.54520255179757 107.68017299344265 l 4.731204692294473 1.859099203905016 a26.083359882041552,26.083359882041552 0 0,0 -0.1677997014974963,0.4164650979634252 l -4.698502376539585 -1.9402636697112547" fill="#ff2d04" stroke="none" /><path d="M 119.12269723197855 108.67885076344098 l 2.776441562164996 1.2600901263629853 a24.049008834797743,24.049008834797743 0 0,0 -0.17432712307139844,0.37548511422687103 l -2.7543398222537663 -1.307695307868687" fill="#ff0f01" stroke="none" /><path d="M 118.81262510543309 109.33194174019688 l 4.553818943047101 2.258907134637347 a26.083298969072164,26.083298969072164 0 0,0 -0.20297940066134335,0.4004976141655607 l -4.514260872599489 -2.336958960505602" fill="#ff2d04" stroke="none" /><line stroke="#e1ed5e" stroke-width="0.3" x1="174.80103733775053" x2="179.2010983576182" y1="140.37084112569926" y2="142.7455964860345" /><path d="M 175.68104954172406 140.8457921977663 a86.0,86.0 0 0,1 -30.038265399797805,32.042727171017184" fill="none" id="id89" stroke="none" /><text fill="#e1ed5e" style="font-size:6.75px; font-family:Arial;" text-anchor="middle"><textPath startOffset="22.206326154141568" xlink:href="#id89">May</textPath></text><path d="M 118.12598468904814 110.60418214915192 l 7.109681502243669 4.159352386400316 a29.236976589598868,29.236976589598868 0 0,0 -0.2578689143408064,0.4322031330274317 l -7.037031712204635 -4.281117613313852" fill="#ff5a08" stroke="none" /><path d="M 117.94076556474637 110.91462005526583 l 4.2442038970021505 2.5820454988767887 a25.96791965289276,25.96791965289276 0 0,0 -0.2356098537208243,0.3798781040085938 l -4.199129403613363 -2.6547199342506556" fill="#ff2b04" stroke="none" /><path d="M 117.55443506779139 111.5257021239791 l 2.7400966583693256 1.799063185645929 a24.277919773751826,24.277919773751826 0 0,0 -0.23237078483865556,0.3473627948516825 l -2.7087227681199493 -1.8459628947034181" fill="#ff1202" stroke="none" /><path d="M 117.35343817320211 111.8261652097733 l 4.198071883498576 2.860936902603277 a26.080233016279717,26.080233016279717 0 0,0 -0.2560074083321907,0.3687977656372783 l -4.148203568004249 -2.932775930427575" fill="#ff2d04" stroke="none" /><path d="M 117.14729908036423 112.12312394758627 l 4.148717524829998 2.9331392974087573 a26.08086245029671,26.08086245029671 0 0,0 -0.2623240562750007,0.3643451706556439 l -4.097613676179394 -3.0041180735155324" fill="#ff2d04" stroke="none" /><path d="M 116.93607887273984 112.41649034213515 l 4.096778549678615 3.0035058101805947 a26.079826929817138,26.079826929817138 0 0,0 -0.26854613048166115,0.35976142696162616 l -4.0444711525018615 -3.073580116651536" fill="#ff2d04" stroke="none" /><path d="M 116.71984013943494 112.70617746262583 l 18.184621077730636 13.819332037708133 a43.839754414377396,43.839754414377396 0 0,0 -0.46176451482354147,0.5968928818924367 l -17.944049745689025 -14.130302913713821" fill="#e6ff1a" stroke="none" /><path d="M 116.498646956653 112.99209946851258 l 12.206984796747111 9.6125676915589 a36.537436579204986,36.537436579204986 0 0,0 -0.39335523571381037,0.49077113768541114 l -12.039711648978448 -9.821266662822561" fill="#ffbc11" stroke="none" /><path d="M 116.27256486870786 113.27417163493432 l 11.949244047189671 9.747468679331071 a36.420686721214395,36.420686721214395 0 0,0 -0.4004610595501196,0.4823811437948459 l -11.779686987746008 -9.951711080239686" fill="#ffbb11" stroke="none" /><path d="M 116.0416608686014 113.55231037782055 l 5.391871688990474 4.555159172427591 a28.05845276223396,28.05845276223396 0 0,0 -0.3148659315845193,0.3662602125820386 l -5.312663247835175 -4.647296484171158" fill="#ff4906" stroke="none" /><path d="M 115.80600337817218 113.82643327865902 l 3.824326521910364 3.34536152029562 a26.081035037043304,26.081035037043304 0 0,0 -0.29849266491261817,0.3353596733283414 l -3.766175007349408 -3.410695363364828" fill="#ff2d04" stroke="none" /><path d="M 115.56566222782051 114.09645910891815 l 10.857439293257938 9.83263331716288 a35.64802600887106,35.64802600887106 0 0,0 -0.41581485803499485,0.451284903965131 l -10.68657802722722 -10.018069475929346" fill="#ffb110" stroke="none" /><path d="M 115.32070863581623 114.36230785411682 l 26.139175742787714 24.504015969152906 a56.828805549848326,56.828805549848326 0 0,0 -0.6751626036974239,0.7079052907122307 l -25.713506587711326 -24.950328376447644" fill="#55ff2b" stroke="none" /><path d="M 115.07121518719521 114.62390073753431 l 16.23372844625319 15.751910542674345 a43.6198281384078,43.6198281384078 0 0,0 -0.5275078232959526,0.5343626399778616 l -15.960179997901701 -16.02901367663287" fill="#e9ff1a" stroke="none" /><path d="M 114.29624159901734 115.38237550388516 l 3.598621509038733 3.8720209759323407 a26.286078244159487,26.286078244159487 0 0,0 -0.33408410124359206,0.30517790542843504 l -3.5314378583282773 -3.9333916479473587" fill="#ff3004" stroke="none" /><path d="M 113.75828350139079 115.86535959552629 l 3.329198317127248 3.8390638236743277 a26.08153249295996,26.08153249295996 0 0,0 -0.341710952980514,0.29121348739080055 l -3.262621887569687 -3.8958017012880752" fill="#ff2d04" stroke="none" /><path d="M 113.48314897796784 116.09983520530334 l 34.286591406708496 40.94061945778295 a74.40135458841445,74.40135458841445 0 0,0 -0.9889352639221419,0.8138263958379365 l -33.57678601424166 -41.524740972478064" fill="#41ffce" stroke="none" /><path d="M 113.20401910651253 116.32954008644616 l 18.02503961643584 22.291743491282404 a49.667470782320734,49.667470782320734 0 0,0 -0.6694288314578937,0.5318347502897727 l -17.638653292260596 -22.598712155577303" fill="#a2ff22" stroke="none" /><path d="M 112.63410532772338 116.77436683061366 l 11.615198577804401 15.421559081589693 a40.306406255665266,40.306406255665266 0 0,0 -0.5577927355386441,0.4126417308105319 l -11.348020871847192 -15.619210761139994" fill="#ffed16" stroke="none" /><path d="M 112.34349029814194 116.9893568818739 l 12.041449904658295 16.57363394503101 a41.48613819025634,41.48613819025634 0 0,0 -0.5813446067846273,0.41477394128419026 l -11.754377970024782 -16.778452148159417" fill="#fffb17" stroke="none" /><path d="M 112.04921762599082 117.19931262002967 l 11.310860279862498 16.145365449720163 a40.713152608742945,40.713152608742945 0 0,0 -0.577434867133904,0.3971649669469304 l -11.031268528105711 -16.337671206032187" fill="#fff216" stroke="none" /><path d="M 111.7513745106137 117.40417183066458 l 3.2180765781935103 4.7660771665928285 a26.75078328760832,26.75078328760832 0 0,0 -0.3838422777657386,0.2543897314234604 l -3.135559601687808 -4.820764919107607" fill="#ff3605" stroke="none" /><path d="M 111.45004920935366 117.60387380957326 l 5.719060244554005 8.792767001580332 a31.48906104591436,31.48906104591436 0 0,0 -0.45691856843548684,0.2916270487293622 l -5.566859874071588 -8.889908479133503" fill="#ff790b" stroke="none" /><line stroke="#e1ed5e" stroke-width="0.3" x1="143.8653032363475" x2="146.44561519142675" y1="172.8068346515853" y2="177.08958963109032" /><path d="M 144.38136562736335 173.6633856474863 a86.0,86.0 0 0,1 -40.68145358897372,12.25698825130547" fill="none" id="id90" stroke="none" /><text fill="#e1ed5e" style="font-size:6.75px; font-family:Arial;" text-anchor="middle"><textPath startOffset="21.466115282336833" xlink:href="#id90">June</textPath></text><path d="M 110.8373102113329 117.98757091392108 l 3.198227888900425 5.3083606382621875 a27.1973667226647,27.1973667226647 0 0,0 -0.4030806832150842,0.23814717251495485 l -3.1063793346569586 -5.362626383070892" fill="#ff3d05" stroke="none" /><path d="M 110.5260780823613 118.17145234162733 l 8.579502310327756 14.811026113158873 a38.11649363677016,38.11649363677016 0 0,0 -0.5705698464456651,0.3239844497701268 l -8.323283696960893 -14.956513728723628" fill="#ffd113" stroke="none" /><path d="M 109.89434966115114 118.52300852407294 l 9.335197708750474 17.47623165290214 a40.81324276960636,40.81324276960636 0 0,0 -0.6225168074523639,0.325671371697775 l -9.032989998771615 -17.63433244354463" fill="#fff316" stroke="none" /><path d="M 109.57404056367764 118.69057910512821 l 6.70137249339088 13.0825153567701 a35.699000012085904,35.699000012085904 0 0,0 -0.549332969216126,0.2754469547303395 l -6.475185616491994 -13.195930152409742" fill="#ffb110" stroke="none" /><path d="M 109.2508944713604 118.85261126421891 l 27.752683414081186 56.55783379265672 a84.0,84.0 0 0,0 -1.303549327999069,0.6257828940017598 l -26.775021418081884 -57.02717096315804" fill="#4dd2ff" stroke="none" /><path d="M 108.92500713936063 119.00905698771935 l 7.515701471342837 16.007426699008427 a38.68398931605854,38.68398931605854 0 0,0 -0.6051870734150688,0.2778117028533407 l -7.239046402160349 -16.13442547219584" fill="#ffd814" stroke="none" /><path d="M 108.59647513512805 119.15986991738527 l 2.081256905583638 4.638716561011531 a26.084222815774524,26.084222815774524 0 0,0 -0.4112355662820693,0.18027358715878172 l -2.001100664643815 -4.673854701464768" fill="#ff2d04" stroke="none" /><path d="M 108.2653958097858 119.30500536409082 l 8.588659384752255 20.060033337627672 a42.82132002272151,42.82132002272151 0 0,0 -0.6801015414081166,0.28428249946646095 l -8.242086383846678 -20.204900880114106" fill="#f2ff19" stroke="none" /><path d="M 107.93186726928326 119.44442032107085 l 8.350412485951919 20.470454776765216 a43.10811858691579,43.10811858691579 0 0,0 -0.6894813564206144,0.27435886099327095 l -7.9968100534894395 -20.611160482164557" fill="#efff19" stroke="none" /><path d="M 107.59598834532513 119.57807347666477 l 1.8390882851987262 4.740108059783094 a26.08437509819799,26.08437509819799 0 0,0 -0.41999542826475583,0.15880633338950642 l -1.7572226361736956 -4.771062643279231" fill="#ff2d04" stroke="none" /><line stroke="#e1ed5e" stroke-width="0.3" x1="102.19456741930631" x2="102.32365962044197" y1="184.97166512339345" y2="189.96999836594603" /><path d="M 102.22038585953345 185.97133177190398 a86.0,86.0 0 0,1 -42.740103519485714,-10.115201625700543" fill="none" id="id91" stroke="none" /><text fill="#e1ed5e" style="font-size:6.75px; font-family:Arial;" text-anchor="middle"><textPath startOffset="22.20632615414155" xlink:href="#id91">July</textPath></text><line stroke="#e1ed5e" stroke-width="0.3" x1="58.666819895761336" x2="56.23545636021788" y1="174.27360380694188" y2="178.64263932499728" /><path d="M 58.180547188652646 175.14741091055294 a86.0,86.0 0 0,1 -31.652253787137756,-30.449443065178592" fill="none" id="id92" stroke="none" /><text fill="#e1ed5e" style="font-size:6.75px; font-family:Arial;" text-anchor="middle"><textPath startOffset="22.20632615414155" xlink:href="#id92">August</textPath></text><line stroke="#e1ed5e" stroke-width="0.3" x1="26.63291911575756" x2="22.317208475507996" y1="142.92168965132927" y2="145.44649492493687" /><path d="M 25.769776987707644 143.4266507060508 a86.0,86.0 0 0,1 -11.730757126820373,-40.83630448921669" fill="none" id="id93" stroke="none" /><text fill="#e1ed5e" style="font-size:6.75px; font-family:Arial;" text-anchor="middle"><textPath startOffset="21.46611528233685" xlink:href="#id93">September</textPath></text><line stroke="#e1ed5e" stroke-width="0.3" x1="15.007084014347285" x2="10.007500721073583" y1="101.09737516637583" y2="101.16192664675087" /><path d="M 14.007167355692545 101.11028546245083 a86.0,86.0 0 0,1 10.666146001902534,-42.60595125391555" fill="none" id="id94" stroke="none" /><text fill="#e1ed5e" style="font-size:6.75px; font-family:Arial;" text-anchor="middle"><textPath startOffset="22.20632615414155" xlink:href="#id94">October</textPath></text><line stroke="#e1ed5e" stroke-width="0.3" x1="26.266209847984243" x2="21.928928074336255" y1="57.711370442889674" y2="55.22380399835377" /><path d="M 25.398753493254645 57.213857153982495 a86.0,86.0 0 0,1 29.58750427330803,-30.492523968695096" fill="none" id="id95" stroke="none" /><text fill="#e1ed5e" style="font-size:6.75px; font-family:Arial;" text-anchor="middle"><textPath startOffset="21.46611528233685" xlink:href="#id95">November</textPath></text><line stroke="#e1ed5e" stroke-width="0.3" x1="56.762969772571076" x2="54.21961505331055" y1="26.818313649435495" y2="22.513508569990535" /><path d="M 56.25429882871897 25.957352633546506 a86.0,86.0 0 0,1 42.265352541879196,-11.944610805530505" fill="none" id="id96" stroke="none" /><text fill="#e1ed5e" style="font-size:6.75px; font-family:Arial;" text-anchor="middle"><textPath startOffset="22.20632615414155" xlink:href="#id96">December</textPath></text></svg>