<?xml version="1.0" encoding="utf-8" ?>
<svg baseProfile="full" height="200mm" version="1.1" viewBox="0,0,200,200" width="200mm" xmlns="http://www.w3.org/2000/svg" xmlns:ev="http://www.w3.org/2001/xml-events" xmlns:xlink="http://www.w3.org/1999/xlink"><defs /><rect fill="#1a1a1a" height="200" width="200" x="0" y="0" /><rect fill="#1a1a1a" height="200" width="180" x="10" y="0" /><text alignment-baseline="middle" fill="#e1ed5e" style="dominant-baseline: central; font-size:9.0px; font-family:Arial;" text-anchor="middle" x="100.0" y="100.0">2026</text><line stroke="#e1ed5e" stroke-width="0.3" x1="100.0" x2="100.0" y1="15.0" y2="10.0" /><path d="M 100.0 14.0 a86.0,86.0 0 0,1 42.46469731375804,11.215312516191453" fill="none" id="id85" stroke="none" /><text fill="#e1ed5e" style="font-size:6.75px; font-family:Arial;" text-anchor="middle"><textPath startOffset="22.20632615414155" xlink:href="#id85">January</textPath></text><path d="M 103.95276090670814 79.375362276772 l 1.6815524580360561 -8.7739711756257 a29.93365484333471,29.93365484333471 0 0,0 0.5052139411378521,0.10134116378625764 l -1.8323328086410335 8.743726055762234" fill="#ff5007" stroke="none" /><path d="M 104.307194497241 79.44645832069477 l 1.8325048923613627 -8.744547223675683 a29.93449384842938,29.93449384842938 0 0,0 0.5034087762549665,0.11002566030623552 l -1.9827563927698573 8.711708065273578" fill="#ff5007" stroke="none" /><path d="M 105.01212808612495 79.60689891045804 l 2.1326035649798163 -8.677032856551534 a29.935261448835142,29.935261448835142 0 0,0 0.4993360000198471,0.12729186458488448 l -2.2816484536846886 8.63903799579778" fill="#ff5007" stroke="none" /><path d="M 105.36241919743992 79.69619591428918 l 2.280727665843419 -8.635551603696513 a29.93165551204529,29.93165551204529 0 0,0 0.49701102171804484,0.1358518869356558 l -2.4290365767851747 8.595013175934563" fill="#ff5007" stroke="none" /><line stroke="#e1ed5e" stroke-width="0.3" x1="143.23703022742887" x2="145.7803849466894" y1="26.81831364943548" y2="22.513508569990506" /><path d="M 143.74570117128098 25.957352633546492 a86.0,86.0 0 0,1 28.547481713284135,27.462654790039103" fill="none" id="id86" stroke="none" /><text fill="#e1ed5e" style="font-size:6.75px; font-family:Arial;" text-anchor="middle"><textPath startOffset="19.985693538727396" xlink:href="#id86">February</textPath></text><path d="M 111.2981086023043 82.29822771554956 l 3.8497437979144182 -6.031743052129763 a28.155588833666744,28.155588833666744 0 0,0 0.4062891345267116,0.2642617547636998 l -3.95299995822541 5.964582373206535" fill="#ff3605" stroke="none" /><path d="M 115.68641384162765 86.03803664274999 l 7.616341119440557 -6.7790558568427794 a31.196286106120965,31.196286106120965 0 0,0 0.35356999616238655,0.4041916263675062 l -7.731902979180791 6.646948674272325" fill="#ff6209" stroke="none" /><path d="M 116.60985879189232 87.15038557335679 l 4.102675314558398 -3.173885857206408 a26.18705081633694,26.18705081633694 0 0,0 0.27274943181460276,0.35890628093898946 l -4.156700686597113 3.102794800386385" fill="#ff1802" stroke="none" /><line stroke="#e1ed5e" stroke-width="0.3" x1="172.23445277983987" x2="176.4835382374775" y1="55.19839476539836" y2="52.563006222186495" /><path d="M 173.08426987136738 54.67131705675599 a86.0,86.0 0 0,1 12.851231095245387,41.99856678651699" fill="none" id="id87" stroke="none" /><text fill="#e1ed5e" style="font-size:6.75px; font-family:Arial;" text-anchor="middle"><textPath startOffset="22.20632615414155" xlink:href="#id87">March</textPath></text><path d="M 118.56541770881063 90.18545643968196 l 7.89572878060577 -4.174049583647999 a29.93113782805071,29.93113782805071 0 0,0 0.23687013151459196,0.45755769983759687 l -7.966408345280478 4.037519161550057" fill="#ff4f07" stroke="none" /><path d="M 118.73160827565052 90.50648371742162 l 7.978780448400903 -4.0437895661354535 a29.945008188871068,29.945008188871068 0 0,0 0.22906503464620648,0.4617811321088725 l -8.047205496000517 3.9058488455276312" fill="#ff5007" stroke="none" /><path d="M 120.37134235888165 94.90015583598534 l 5.401068468355654 -1.3521253053693838 a26.567744915249435,26.567744915249435 0 0,0 0.10724158761193084,0.4445856154630653 l -5.423542856228404 1.2589544582469123" fill="#ff1e03" stroke="none" /><path d="M 120.45610955862082 95.25157060432595 l 5.228248850437084 -1.2136213124089426 a26.367258399968264,26.367258399968264 0 0,0 0.09882148740215123,0.4429973510774235 l -5.248364724841273 1.1234457917815552" fill="#ff1b02" stroke="none" /><path d="M 120.6074358757038 95.95851677861258 l 3.5211167372860404 -0.69055336627619 a24.588192724655585,24.588192724655585 0 0,0 0.0778793256878729,0.4160344719355071 l -3.5324817868837726 0.6298408168781201" fill="#ff0000" stroke="none" /><path d="M 120.67395015179393 96.31383870115 l 8.79477354104698 -1.5681064151324853 a29.933476331612443,29.933476331612443 0 0,0 0.08607747209021613,0.5080341128427702 l -8.820462874657421 1.4164865139738771" fill="#ff5007" stroke="none" /><path d="M 120.73433829027371 96.67025291283417 l 7.9653868900255755 -1.2791690491349375 a29.067444562192918,29.067444562192918 0 0,0 0.07508274096565884,0.49470145176293784 l -7.986225524430534 1.1418684849799174" fill="#ff4306" stroke="none" /><path d="M 120.78858239683441 97.02765380044208 l 8.840516695872765 -1.2640148183989224 a29.93042378116163,29.93042378116163 0 0,0 0.06853212025203513,0.5106438978581803 l -8.860964815182637 1.1116525784760778" fill="#ff4f07" stroke="none" /><path d="M 120.83666639777658 97.38593545837742 l 7.995628955127289 -1.0030918449507507 a29.058304762012703,29.058304762012703 0 0,0 0.05799158547095637,0.4968364894507339 l -8.011710893601835 0.8653116171751641" fill="#ff4306" stroke="none" /><path d="M 120.94382443527127 98.46500227214037 l 8.05394668365758 -0.5902833027427873 a29.075548994383965,29.075548994383965 0 0,0 0.03228688660815214,0.4994638453138472 l -8.062914161270147 0.4515603931759048" fill="#ff4306" stroke="none" /><line stroke="#e1ed5e" stroke-width="0.3" x1="184.98032266829074" x2="189.97916517819016" y1="98.17113171792111" y2="98.06355123074" /><path d="M 185.9800911702706 98.14961562048488 a86.0,86.0 0 0,1 -9.607161424134198,41.387399972396054" fill="none" id="id88" stroke="none" /><text fill="#e1ed5e" style="font-size:6.75px; font-family:Arial;" text-anchor="middle"><textPath startOffset="21.466115282336823" xlink:href="#id88">April</textPath></text><path d="M 120.99513854157772 99.54816195383933 l 8.932139978157334 -0.19222929478515907 a29.934208229673747,29.934208229673747 0 0,0 0.006652511273557521,0.5152443294616745 l -8.934125496548608 0.03844870726302186" fill="#ff5007" stroke="none" /><path d="M 120.99980553446 99.90962569577887 l 8.932518905925775 -0.03844179317472383 a29.932601624173323,29.932601624173323 0 0,0 -0.002217439498997759,0.5152548466592214 l -8.931857169137274 -0.11532253168818227" fill="#ff5007" stroke="none" /><path d="M 120.99824983174949 100.27111621757518 l 8.93282105209953 0.11533497673979398 a29.933565587473577,29.933565587473577 0 0,0 -0.01108673317874226,0.515156926334643 l -8.92951225623578 -0.2690817188645519" fill="#ff5007" stroke="none" /><path d="M 120.9904718944345 100.63252640178507 l 9.382726305492524 0.282738860698072 a30.386985362038775,30.386985362038775 0 0,0 -0.020254904007154857,0.5226890717819401 l -9.376469268634166 -0.44420517949401833" fill="#ff5608" stroke="none" /><path d="M 120.95626037817324 101.35467743843564 l 8.917149528362545 0.5764321049289597 a29.935761281657495,29.935761281657495 0 0,0 -0.03766694438401278,0.5139355295932095 l -8.905906025314195 -0.7298407710189396" fill="#ff5007" stroke="none" /><path d="M 120.92983693683757 101.71520430193887 l 8.901707224303397 0.7294966784405579 a29.931548405011927,29.931548405011927 0 0,0 -0.046501373845989326,0.5131387854935068 l -8.887831254180332 -0.8826168524826352" fill="#ff4f07" stroke="none" /><path d="M 120.89721153311464 102.0752229133903 l 8.88918130269856 0.8827509206866525 a29.93290509410118,29.93290509410118 0 0,0 -0.05532983262573561,0.5122855327377823 l -8.872669168571774 -1.0356327753092263" fill="#ff5007" stroke="none" /><path d="M 120.8583938346157 102.4346265915055 l 8.87367982411944 1.0357507407139794 a29.933922610918117,29.933922610918117 0 0,0 -0.06414196856252204,0.511274599289116 l -8.85453634631007 -1.1883430942904905" fill="#ff5007" stroke="none" /><path d="M 120.81339534386255 102.79330883721812 l 8.850343212468928 1.1877803452713809 a29.929691883100325,29.929691883100325 0 0,0 -0.07292290895140724,0.51002265536184 l -8.828586252500921 -1.3399484726136301" fill="#ff4f07" stroke="none" /><path d="M 120.70491114924044 103.5080841355445 l 5.1077918365918435 0.8654257620549555 a26.180588691990774,26.180588691990774 0 0,0 -0.07910721400767717,0.4436752671545454 l -5.092138180244978 -0.9532197799427192" fill="#ff1802" stroke="none" /><path d="M 120.64145759157962 103.86396538481128 l 8.779020984798354 1.6433836151004466 a29.931512702667476,29.931512702667476 0 0,0 -0.09915892118401605,0.5056092028267963 l -8.749432130638674 -1.794256544995188" fill="#ff4f07" stroke="none" /><path d="M 120.5718875245553 104.21870165774334 l 8.748540280749673 1.7940736522683685 a29.930602292883897,29.930602292883897 0 0,0 -0.10784418066892609,0.5038121089088182 l -8.716362061356303 -1.9443995805933556" fill="#ff4f07" stroke="none" /><path d="M 120.49622156327973 104.57218783832717 l 8.723906191100523 1.9460824848379645 a29.93833185045818,29.93833185045818 0 0,0 -0.1165305858304646,0.5020107138688601 l -8.689115039339507 -2.0959618560553896" fill="#ff5007" stroke="none" /><path d="M 120.41448212921028 104.9243191809786 l 8.686373194341733 2.0953004765587977 a29.93551136524632,29.93551136524632 0 0,0 -0.1251428189838211,0.4998833547235589 l -8.649019061062852 -2.2445116706797523" fill="#ff5007" stroke="none" /><path d="M 120.32669344350535 105.2749913415812 l 10.37501807621526 2.6924266198480193 a31.718682810171202,31.718682810171202 0 0,0 -0.14169479287272208,0.5272990360361737 l -10.32713520700076 -2.870616589059741" fill="#ff6909" stroke="none" /><path d="M 120.23288151984713 105.62410040840565 l 8.606676966678632 2.392383674852785 a29.932994349962314,29.932994349962314 0 0,0 -0.14226348743681064,0.4952378629837138 l -8.564220842355724 -2.540179013341081" fill="#ff5007" stroke="none" /><path d="M 120.02730092923936 106.31721596034902 l 8.519771732925253 2.687393481524421 a29.933565587473577,29.933565587473577 0 0,0 -0.15922910623020028,0.4900567988838205 l -8.472250375678806 -2.8336491803860366" fill="#ff5007" stroke="none" /><path d="M 119.9155931802556 106.66101706037122 l 8.479072910135798 2.8359310616236013 a29.94075960988105,29.94075960988105 0 0,0 -0.16768132660221846,0.48736042499517584 l -8.42900075259035 -2.9814641897080776" fill="#ff5007" stroke="none" /><path d="M 119.54520255179757 107.68017299344265 l 8.319169200319982 3.268968865932843 a29.938385403974863,29.938385403974863 0 0,0 -0.1925998857824592,0.47801712151039316 l -8.26166670028013 -3.4116853552860493" fill="#ff5007" stroke="none" /><path d="M 119.12269723197855 108.67885076344098 l 4.8819885489354595 2.215694236594615 a26.3612604061,26.3612604061 0 0,0 -0.1910882364715979,0.41158706135225215 l -4.84312569562403 -2.2994013652256977" fill="#ff1b02" stroke="none" /><path d="M 118.81262510543309 109.33194174019688 l 8.007260889923302 3.9719758249868677 a29.938278296941498,29.938278296941498 0 0,0 -0.23297872683785958,0.45968913074863904 l -7.937703493299173 -4.1092191674382015" fill="#ff5007" stroke="none" /><line stroke="#e1ed5e" stroke-width="0.3" x1="174.80103733775053" x2="179.2010983576182" y1="140.37084112569926" y2="142.7455964860345" /><path d="M 175.68104954172406 140.8457921977663 a86.0,86.0 0 0,1 -30.038265399797805,32.042727171017184" fill="none" id="id89" stroke="none" /><text fill="#e1ed5e" style="font-size:6.75px; font-family:Arial;" text-anchor="middle"><textPath startOffset="22.206326154141568" xlink:href="#id89">May</textPath></text><path d="M 118.12598468904814 110.60418214915192 l 12.50139176474018 7.313645998570813 a35.48358428870162,35.48358428870162 0 0,0 -0.3129637337638789,0.5245452194285936 l -12.373647155278073 -7.527753311885511" fill="#ff9e0e" stroke="none" /><path d="M 117.94076556474637 110.91462005526583 l 7.462845646336862 4.540169953556443 a29.735399724581914,29.735399724581914 0 0,0 -0.26979262386382724,0.43499161351007615 l -7.383588382805072 -4.667957898431793" fill="#ff4d07" stroke="none" /><path d="M 117.55443506779139 111.5257021239791 l 4.81808106153844 3.1634038298598366 a26.76376863747386,26.76376863747386 0 0,0 -0.25616354207800873,0.3829297386808211 l -4.762914414049711 -3.2458704827464646" fill="#ff2103" stroke="none" /><path d="M 117.35343817320211 111.8261652097733 l 7.381728879921585 5.030561920721619 a29.93288724292895,29.93288724292895 0 0,0 -0.2938256296321638,0.4232777340361164 l -7.294042343127286 -5.156880916944755" fill="#ff5007" stroke="none" /><path d="M 117.14729908036423 112.12312394758627 l 7.294946065133234 5.157519847533235 a29.933994015607023,29.933994015607023 0 0,0 -0.30107925861923707,0.41817275708600227 l -7.205087014138394 -5.282326210070369" fill="#ff5007" stroke="none" /><path d="M 116.93607887273984 112.41649034213515 l 7.203618559671615 5.281249629662257 a29.93217319603987,29.93217319603987 0 0,0 -0.30821405795117995,0.41290309824710736 l -7.111643235025343 -5.40446560741868" fill="#ff5007" stroke="none" /><path d="M 116.71984013943494 112.70617746262583 l 31.97514151855057 24.299384392380283 a61.160549759434204,61.160549759434204 0 0,0 -0.6442046029515215,0.8327212889692214 l -31.552130098380978 -24.846183675462754" fill="#2fff30" stroke="none" /><path d="M 116.498646956653 112.99209946851258 l 21.464294731374988 16.90237101891817 a48.320433641809146,48.320433641809146 0 0,0 -0.5202087870550043,0.6490404476087382 l -21.170168032265128 -17.269339300105162" fill="#bcff1f" stroke="none" /><path d="M 116.27256486870786 113.27417163493432 l 21.01109326476377 17.139575751233963 a48.11514516119891,48.11514516119891 0 0,0 -0.5290466420677928,0.6372707613773483 l -20.712950622802435 -17.498707769725083" fill="#beff1e" stroke="none" /><path d="M 116.0416608686014 113.55231037782055 l 9.480860754171522 8.00961749795628 a33.41131310956086,33.41131310956086 0 0,0 -0.37493458092114534,0.43613362240072817 l -9.341583663679597 -8.171628219518537" fill="#ff810b" stroke="none" /><path d="M 115.80600337817218 113.82643327865902 l 6.724549344664741 5.8823556226399605 a29.934297485534884,29.934297485534884 0 0,0 -0.3425925472686814,0.38490635865502143 l -6.622297947747722 -5.997236151035848" fill="#ff5007" stroke="none" /><path d="M 115.56566222782051 114.09645910891815 l 19.091305584373462 17.289325989933367 a46.75652814534821,46.75652814534821 0 0,0 -0.5453895008977223,0.5919125874898521 l -18.790869675480018 -17.615389832224555" fill="#cfff1d" stroke="none" /><path d="M 115.32070863581623 114.36230785411682 l 45.96212590744871 43.08692356235047 a84.0,84.0 0 0,0 -0.997973794484142,1.0463715336699715 l -45.21364556158561 -43.87170221260295" fill="#4dd2ff" stroke="none" /><path d="M 115.07121518719521 114.62390073753431 l 28.544766603816647 27.6975564481994 a60.77383981548121,60.77383981548121 0 0,0 -0.7349564939292672,0.744507048087091 l -28.063769484831845 -28.184803990267156" fill="#33ff2f" stroke="none" /><path d="M 114.29624159901734 115.38237550388516 l 6.327678290977801 6.80841344667071 a30.294837611003125,30.294837611003125 0 0,0 -0.3850336098669014,0.3517190735546383 l -6.2095451316440355 -6.916325286811931" fill="#ff5507" stroke="none" /><line stroke="#e1ed5e" stroke-width="0.3" x1="143.8653032363475" x2="146.44561519142675" y1="172.8068346515853" y2="177.08958963109032" /><path d="M 144.38136562736335 173.6633856474863 a86.0,86.0 0 0,1 -40.68145358897372,12.25698825130547" fill="none" id="id90" stroke="none" /><text fill="#e1ed5e" style="font-size:6.75px; font-family:Arial;" text-anchor="middle"><textPath startOffset="21.466115282336833" xlink:href="#id90">June</textPath></text><line stroke="#e1ed5e" stroke-width="0.3" x1="102.19456741930631" x2="102.32365962044197" y1="184.97166512339345" y2="189.96999836594603" /><path d="M 102.22038585953345 185.97133177190398 a86.0,86.0 0 0,1 -42.740103519485714,-10.115201625700543" fill="none" id="id91" stroke="none" /><text fill="#e1ed5e" style="font-size:6.75px; font-family:Arial;" text-anchor="middle"><textPath startOffset="22.20632615414155" xlink:href="#id91">July</textPath></text><line stroke="#e1ed5e" stroke-width="0.3" x1="58.666819895761336" x2="56.23545636021788" y1="174.27360380694188" y2="178.64263932499728" /><path d="M 58.180547188652646 175.14741091055294 a86.0,86.0 0 0,1 -31.652253787137756,-30.449443065178592" fill="none" id="id92" stroke="none" /><text fill="#e1ed5e" style="font-size:6.75px; font-family:Arial;" text-anchor="middle"><textPath startOffset="22.20632615414155" xlink:href="#id92">August</textPath></text><line stroke="#e1ed5e" stroke-width="0.3" x1="26.63291911575756" x2="22.317208475507996" y1="142.92168965132927" y2="145.44649492493687" /><path d="M 25.769776987707644 143.4266507060508 a86.0,86.0 0 0,1 -11.730757126820373,-40.83630448921669" fill="none" id="id93" stroke="none" /><text fill="#e1ed5e" style="font-size:6.75px; font-family:Arial;" text-anchor="middle"><textPath startOffset="21.46611528233685" xlink:href="#id93">September</textPath></text><line stroke="#e1ed5e" stroke-width="0.3" x1="15.007084014347285" x2="10.007500721073583" y1="101.09737516637583" y2="101.16192664675087" /><path d="M 14.007167355692545 101.11028546245083 a86.0,86.0 0 0,1 10.666146001902534,-42.60595125391555" fill="none" id="id94" stroke="none" /><text fill="#e1ed5e" style="font-size:6.75px; font-family:Arial;" text-anchor="middle"><textPath startOffset="22.20632615414155" xlink:href="#id94">October</textPath></text><line stroke="#e1ed5e" stroke-width="0.3" x1="26.266209847984243" x2="21.928928074336255" y1="57.711370442889674" y2="55.22380399835377" /><path d="M 25.398753493254645 57.213857153982495 a86.0,86.0 0 0,1 29.58750427330803,-30.492523968695096" fill="none" id="id95" stroke="none" /><text fill="#e1ed5e" style="font-size:6.75px; font-family:Arial;" text-anchor="middle"><textPath startOffset="21.46611528233685" xlink:href="#id95">November</textPath></text><line stroke="#e1ed5e" stroke-width="0.3" x1="56.762969772571076" x2="54.21961505331055" y1="26.818313649435495" y2="22.513508569990535" /><path d="M 56.25429882871897 25.957352633546506 a86.0,86.0 0 0,1 42.265352541879196,-11.944610805530505" fill="none" id="id96" stroke="none" /><text fill="#e1ed5e" style="font-size:6.75px; font-family:Arial;" text-anchor="middle"><textPath startOffset="22.20632615414155" xlink:href="#id96">December</textPath></text></svg>