<?xml version="1.0" encoding="utf-8" ?>
<svg baseProfile="full" height="200mm" version="1.1" viewBox="0,0,200,200" width="200mm" xmlns="http://www.w3.org/2000/svg" xmlns:ev="http://www.w3.org/2001/xml-events" xmlns:xlink="http://www.w3.org/1999/xlink"><defs /><rect fill="#1a1a1a" height="200" width="200" x="0" y="0" /><rect fill="#1a1a1a" height="200" width="180" x="10" y="0" /><text alignment-baseline="middle" fill="#e1ed5e" style="dominant-baseline: central; font-size:9.0px; font-family:Arial;" text-anchor="middle" x="100.0" y="100.0">2026</text><line stroke="#e1ed5e" stroke-width="0.3" x1="100.0" x2="100.0" y1="15.0" y2="10.0" /><path d="M 100.0 14.0 a86.0,86.0 0 0,1 42.46469731375804,11.215312516191453" fill="none" id="id85" stroke="none" /><text fill="#e1ed5e" style="font-size:6.75px; font-family:Arial;" text-anchor="middle"><textPath startOffset="22.20632615414155" xlink:href="#id85">January</textPath></text><path d="M 103.95276090670814 79.375362276772 l 2.637857436983553 -13.76376039111788 a35.014256739547584,35.014256739547584 0 0,0 0.590963273144655,0.1185416730989895 l -2.874387119595333 13.716314761941684" fill="red" stroke="none" /><path d="M 104.307194497241 79.44645832069477 l 2.874657067951261 -13.717602931024453 a35.0155728898812,35.0155728898812 0 0,0 0.5888573492378106,0.12870140873995234 l -3.1103571413426 13.666088024188632" fill="red" stroke="none" /><path d="M 105.01212808612495 79.60689891045804 l 3.3454229436231016 -13.611692898559763 a35.01677702742047,35.01677702742047 0 0,0 0.5840983685525619,0.14889967963673645 l -3.579230200860689 13.55209022275416" fill="red" stroke="none" /><path d="M 105.36241919743992 79.69619591428918 l 3.5777857576359953 -13.546621106825828 a35.01112038130577,35.01112038130577 0 0,0 0.5813548370287658,0.15890623776615748 l -3.810438483888472 13.483028328233377" fill="red" stroke="none" /><line stroke="#e1ed5e" stroke-width="0.3" x1="143.23703022742887" x2="145.7803849466894" y1="26.81831364943548" y2="22.513508569990506" /><path d="M 143.74570117128098 25.957352633546492 a86.0,86.0 0 0,1 28.547481713284135,27.462654790039103" fill="none" id="id86" stroke="none" /><text fill="#e1ed5e" style="font-size:6.75px; font-family:Arial;" text-anchor="middle"><textPath startOffset="19.985693538727396" xlink:href="#id86">February</textPath></text><path d="M 111.2981086023043 82.29822771554956 l 6.039107052104886 -9.462017192503904 a32.22499814423247,32.22499814423247 0 0,0 0.4650112872258485,0.3024562763421635 l -6.201085365115015 9.356661992002213" fill="red" stroke="none" /><path d="M 115.68641384162765 86.03803664274999 l 11.947781925272013 -10.634329498459339 a36.99495097884514,36.99495097884514 0 0,0 0.4192904447382758,0.4793214600180139 l -12.129064233588137 10.427092482238377" fill="red" stroke="none" /><path d="M 116.60985879189232 87.15038557335679 l 6.4358816392064355 -4.978886250356467 a29.13694541998797,29.13694541998797 0 0,0 0.3034738567489615,0.39933602267599666 l -6.52063143617951 4.867365451799437" fill="red" stroke="none" /><line stroke="#e1ed5e" stroke-width="0.3" x1="172.23445277983987" x2="176.4835382374775" y1="55.19839476539836" y2="52.563006222186495" /><path d="M 173.08426987136738 54.67131705675599 a86.0,86.0 0 0,1 12.851231095245387,41.99856678651699" fill="none" id="id87" stroke="none" /><text fill="#e1ed5e" style="font-size:6.75px; font-family:Arial;" text-anchor="middle"><textPath startOffset="22.20632615414155" xlink:href="#id87">March</textPath></text><path d="M 118.56541770881063 90.18545643968196 l 12.386058362194383 -6.547846713877473 a35.01030828854674,35.01030828854674 0 0,0 0.2770658561767933,0.5352030458427736 l -12.496933651531293 6.333670945774355" fill="red" stroke="none" /><path d="M 118.73160827565052 90.50648371742162 l 12.516341814548374 -6.343507352179304 a35.03206677384928,35.03206677384928 0 0,0 0.26797860727459477,0.5402285199893151 l -12.623680434776377 6.127119243691038" fill="red" stroke="none" /><path d="M 120.37134235888165 94.90015583598534 l 8.472675686579047 -2.1210838683367483 a29.734141633066532,29.734141633066532 0 0,0 0.12002285347063026,0.497572213990023 l -8.507931340310497 1.9749264226873193" fill="red" stroke="none" /><path d="M 120.45610955862082 95.25157060432595 l 8.201572925434393 -1.9038121524669227 a29.41963770972951,29.41963770972951 0 0,0 0.11026145810105868,0.494280496567794 l -8.233128770537489 1.7623534863491648" fill="red" stroke="none" /><path d="M 120.6074358757038 95.95851677861258 l 5.523588590739098 -1.0832735691119406 a26.628810935293497,26.628810935293497 0 0,0 0.08434267059534618,0.450561918876877 l -5.541416985244304 0.9880335727725009" fill="red" stroke="none" /><path d="M 120.67395015179393 96.31383870115 l 13.796393137168195 -2.4598942182094863 a35.01397670756171,35.01397670756171 0 0,0 0.10068708924494867,0.5942609002930105 l -13.836692087933367 2.222047529600638" fill="red" stroke="none" /><path d="M 120.73433829027371 96.67025291283417 l 12.495331290969883 -2.0066371246964825 a33.65542953128424,33.65542953128424 0 0,0 0.08693374789719599,0.572784780347939 l -12.52802093230638 1.7912532319564614" fill="red" stroke="none" /><path d="M 120.78858239683441 97.02765380044208 l 13.868150589974162 -1.9828646280028912 a35.00918816060323,35.00918816060323 0 0,0 0.0801610398332779,0.5972928560548119 l -13.900227628865276 1.743853429883415" fill="red" stroke="none" /><path d="M 120.83666639777658 97.38593545837742 l 12.54277212813025 -1.57355381364151 a33.6410918936074,33.6410918936074 0 0,0 0.0671374421826149,0.575192604475656 l -12.567999923316455 1.3574174708410012" fill="red" stroke="none" /><path d="M 120.94382443527127 98.46500227214037 l 12.634255360292556 -0.9259795569421885 a33.668142983443,33.668142983443 0 0,0 0.03738672363584407,0.5783560668909444 l -12.648322674932816 0.7083644257982088" fill="red" stroke="none" /><line stroke="#e1ed5e" stroke-width="0.3" x1="184.98032266829074" x2="189.97916517819016" y1="98.17113171792111" y2="98.06355123074" /><path d="M 185.9800911702706 98.14961562048488 a86.0,86.0 0 0,1 -9.607161424134198,41.387399972396054" fill="none" id="id88" stroke="none" /><text fill="#e1ed5e" style="font-size:6.75px; font-family:Arial;" text-anchor="middle"><textPath startOffset="21.466115282336823" xlink:href="#id88">April</textPath></text><path d="M 120.99513854157772 99.54816195383933 l 14.011880365052056 -0.30155079161036963 a35.0151248387038,35.0151248387038 0 0,0 0.007781682780692001,0.6026999070799005 l -14.014995054950463 0.060314626470006356" fill="red" stroke="none" /><path d="M 120.99980553446 99.90962569577887 l 14.01247479041611 -0.06030378031462784 a35.012604550830915,35.012604550830915 0 0,0 -0.002593771609585085,0.6027011756441862 l -14.011436721517022 -0.18090687353324308" fill="red" stroke="none" /><path d="M 120.99824983174949 100.27111621757518 l 14.01294876821425 0.18092639613082306 a35.01411672355465,35.01411672355465 0 0,0 -0.012968457381697152,0.6025932559526813 l -14.007758248147544 -0.4221094678736192" fill="red" stroke="none" /><path d="M 120.9904718944345 100.63252640178507 l 14.718716770234687 0.44353347577853186 a35.72539796767897,35.72539796767897 0 0,0 -0.023813303551879317,0.6145155526383441 l -14.708901333831605 -0.6968262754308822" fill="red" stroke="none" /><path d="M 120.95626037817324 101.35467743843564 l 13.988364792114709 0.9042511327174642 a35.017561116980914,35.017561116980914 0 0,0 -0.04406116532821501,0.6011795941446564 l -13.970727068122157 -1.1449038633588906" fill="red" stroke="none" /><path d="M 120.92983693683757 101.71520430193887 l 13.964140393754787 1.1443640840837594 a35.01095236211425,35.01095236211425 0 0,0 -0.054392688358955256,0.6002187835714532 l -13.942373109118757 -1.3845642562037832" fill="red" stroke="none" /><path d="M 120.89721153311464 102.0752229133903 l 13.944490935123572 1.3847745694814566 a35.01308060520691,35.01308060520691 0 0,0 -0.06472034316439475,0.5992299976978874 l -13.918588290458125 -1.6246008890641357" fill="red" stroke="none" /><path d="M 120.8583938346157 102.4346265915055 l 13.920173709479638 1.6247859418222268 a35.0146767875264,35.0146767875264 0 0,0 -0.07502893379276705,0.5980544239548092 l -13.890143266440022 -1.864158120064431" fill="red" stroke="none" /><path d="M 120.81339534386255 102.79330883721812 l 13.883565482182226 1.8632753336380425 a35.00804002946114,35.00804002946114 0 0,0 -0.08529617095981842,0.5965612210301787 l -13.849435260205805 -2.101982026648631" fill="red" stroke="none" /><path d="M 120.70491114924044 103.5080841355445 l 8.012611571127549 1.3575965303277342 a29.12680826209927,29.12680826209927 0 0,0 -0.08800950512069099,0.49360404340332886 l -7.988055623667668 -1.4953193244642813" fill="red" stroke="none" /><path d="M 120.64145759157962 103.86396538481128 l 13.77168204507388 2.5779818346985377 a35.01089635571707,35.01089635571707 0 0,0 -0.11598620981187208,0.5914111850113116 l -13.725265902286345 -2.8146567467777945" fill="red" stroke="none" /><path d="M 120.5718875245553 104.21870165774334 l 13.72386685413229 2.814369842294201 a35.00946819258911,35.00946819258911 0 0,0 -0.12614405069229948,0.5893030093175924 l -13.673388764715547 -3.0501866710279626" fill="red" stroke="none" /><path d="M 120.49622156327973 104.57218783832717 l 13.68522326839472 3.052826649017442 a35.021593577577526,35.021593577577526 0 0,0 -0.13631643996387488,0.5872476556316786 l -13.630646262500292 -3.2879429619976857" fill="red" stroke="none" /><path d="M 120.41448212921028 104.9243191809786 l 13.626345120312392 3.28690545358371 a35.017169072200694,35.017169072200694 0 0,0 -0.14638624999791153,0.5847403017493 l -13.56774755601942 -3.5209735947304064" fill="red" stroke="none" /><path d="M 120.32669344350535 105.2749913415812 l 16.275328468281653 4.2236193992981566 a37.81443658231185,37.81443658231185 0 0,0 -0.16892595418278789,0.6286363175115858 l -16.20021443775709 -4.503146649985291" fill="red" stroke="none" /><path d="M 120.23288151984713 105.62410040840565 l 13.501325359057855 3.752940943750887 a35.01322062119984,35.01322062119984 0 0,0 -0.1664084392536764,0.5792896077783191 l -13.43472428291808 -3.9847880270337876" fill="red" stroke="none" /><path d="M 120.02730092923936 106.31721596034902 l 13.364996803814993 4.215723896963501 a35.01411672355465,35.01411672355465 0 0,0 -0.18625467437346055,0.5732329450411412 l -13.290449878425287 -4.445155741982438" fill="red" stroke="none" /><path d="M 119.9155931802556 106.66101706037122 l 13.301152412961418 4.448735337352215 a35.02540201258544,35.02540201258544 0 0,0 -0.19615754412283168,0.5701256425320314 l -13.222604037895355 -4.677033682973546" fill="red" stroke="none" /><path d="M 119.54520255179757 107.68017299344265 l 13.050310883681059 5.128043310846114 a35.02167758717329,35.02167758717329 0 0,0 -0.2253017660165516,0.5591805063897322 l -12.960106503407115 -5.35192318507866" fill="red" stroke="none" /><path d="M 119.12269723197855 108.67885076344098 l 7.658393135185684 3.4757675814104028 a29.41022863500409,29.41022863500409 0 0,0 -0.21318968203769814,0.4591916088647309 l -7.597428836308154 -3.607079257553964" fill="red" stroke="none" /><path d="M 118.81262510543309 109.33194174019688 l 12.561019186413526 6.23085287609614 a35.02150956798177,35.02150956798177 0 0,0 -0.272536270461547,0.5377399171433102 l -12.451904246165709 -6.446147004942144" fill="red" stroke="none" /><line stroke="#e1ed5e" stroke-width="0.3" x1="174.80103733775053" x2="179.2010983576182" y1="140.37084112569926" y2="142.7455964860345" /><path d="M 175.68104954172406 140.8457921977663 a86.0,86.0 0 0,1 -30.038265399797805,32.042727171017184" fill="none" id="id89" stroke="none" /><text fill="#e1ed5e" style="font-size:6.75px; font-family:Arial;" text-anchor="middle"><textPath startOffset="22.206326154141568" xlink:href="#id89">May</textPath></text><path d="M 118.12598468904814 110.60418214915192 l 19.610978582125053 11.472942991815577 a43.72045118042372,43.72045118042372 0 0,0 -0.3856125562722138,0.646308824705026 l -19.410585150154613 -11.808813910406707" fill="red" stroke="none" /><path d="M 117.94076556474637 110.91462005526583 l 11.706993020153467 7.122181065433842 a34.70325321603401,34.70325321603401 0 0,0 -0.3148665169624269,0.5076650810250246 l -11.582661863523077 -7.32264247782414" fill="red" stroke="none" /><path d="M 117.55443506779139 111.5257021239791 l 7.558141228024819 4.962443056057844 a30.04164475675666,30.04164475675666 0 0,0 -0.28753701449820873,0.42982882314038323 l -7.471601108115888 -5.091808793404034" fill="red" stroke="none" /><path d="M 117.35343817320211 111.8261652097733 l 11.579744854608577 7.891460722123516 a35.013052602008315,35.013052602008315 0 0,0 -0.34369328099344765,0.49511580512723236 l -11.442190666452994 -8.089617789437767" fill="red" stroke="none" /><path d="M 117.14729908036423 112.12312394758627 l 11.443608338439947 8.090620082168204 a35.014788800320744,35.014788800320744 0 0,0 -0.3521824266822936,0.4891505879162004 l -11.302646119382052 -8.286404275535537" fill="red" stroke="none" /><path d="M 116.93607887273984 112.41649034213515 l 11.300342549536493 8.284715439946453 a35.011932474064814,35.011932474064814 0 0,0 -0.3605207585118451,0.4829764714869591 l -11.156060524329558 -8.478004790942727" fill="red" stroke="none" /><path d="M 116.71984013943494 112.70617746262583 l 50.159520418304794 38.11853238787748 a84.0,84.0 0 0,0 -0.8847727311277263,1.1436880235469893 l -49.495940869959 -38.97629840553772" fill="red" stroke="none" /><path d="M 116.498646956653 112.99209946851258 l 33.67111695872549 26.514810692841642 a63.857663297541094,63.857663297541094 0 0,0 -0.6874797071241053,0.8577366394746699 l -33.20971933954654 -27.09047516589456" fill="red" stroke="none" /><line stroke="#e1ed5e" stroke-width="0.3" x1="143.8653032363475" x2="146.44561519142675" y1="172.8068346515853" y2="177.08958963109032" /><path d="M 144.38136562736335 173.6633856474863 a86.0,86.0 0 0,1 -40.68145358897372,12.25698825130547" fill="none" id="id90" stroke="none" /><text fill="#e1ed5e" style="font-size:6.75px; font-family:Arial;" text-anchor="middle"><textPath startOffset="21.466115282336833" xlink:href="#id90">June</textPath></text><line stroke="#e1ed5e" stroke-width="0.3" x1="102.19456741930631" x2="102.32365962044197" y1="184.97166512339345" y2="189.96999836594603" /><path d="M 102.22038585953345 185.97133177190398 a86.0,86.0 0 0,1 -42.740103519485714,-10.115201625700543" fill="none" id="id91" stroke="none" /><text fill="#e1ed5e" style="font-size:6.75px; font-family:Arial;" text-anchor="middle"><textPath startOffset="22.20632615414155" xlink:href="#id91">July</textPath></text><line stroke="#e1ed5e" stroke-width="0.3" x1="58.666819895761336" x2="56.23545636021788" y1="174.27360380694188" y2="178.64263932499728" /><path d="M 58.180547188652646 175.14741091055294 a86.0,86.0 0 0,1 -31.652253787137756,-30.449443065178592" fill="none" id="id92" stroke="none" /><text fill="#e1ed5e" style="font-size:6.75px; font-family:Arial;" text-anchor="middle"><textPath startOffset="22.20632615414155" xlink:href="#id92">August</textPath></text><line stroke="#e1ed5e" stroke-width="0.3" x1="26.63291911575756" x2="22.317208475507996" y1="142.92168965132927" y2="145.44649492493687" /><path d="M 25.769776987707644 143.4266507060508 a86.0,86.0 0 0,1 -11.730757126820373,-40.83630448921669" fill="none" id="id93" stroke="none" /><text fill="#e1ed5e" style="font-size:6.75px; font-family:Arial;" text-anchor="middle"><textPath startOffset="21.46611528233685" xlink:href="#id93">September</textPath></text><line stroke="#e1ed5e" stroke-width="0.3" x1="15.007084014347285" x2="10.007500721073583" y1="101.09737516637583" y2="101.16192664675087" /><path d="M 14.007167355692545 101.11028546245083 a86.0,86.0 0 0,1 10.666146001902534,-42.60595125391555" fill="none" id="id94" stroke="none" /><text fill="#e1ed5e" style="font-size:6.75px; font-family:Arial;" text-anchor="middle"><textPath startOffset="22.20632615414155" xlink:href="#id94">October</textPath></text><line stroke="#e1ed5e" stroke-width="0.3" x1="26.266209847984243" x2="21.928928074336255" y1="57.711370442889674" y2="55.22380399835377" /><path d="M 25.398753493254645 57.213857153982495 a86.0,86.0 0 0,1 29.58750427330803,-30.492523968695096" fill="none" id="id95" stroke="none" /><text fill="#e1ed5e" style="font-size:6.75px; font-family:Arial;" text-anchor="middle"><textPath startOffset="21.46611528233685" xlink:href="#id95">November</textPath></text><line stroke="#e1ed5e" stroke-width="0.3" x1="56.762969772571076" x2="54.21961505331055" y1="26.818313649435495" y2="22.513508569990535" /><path d="M 56.25429882871897 25.957352633546506 a86.0,86.0 0 0,1 42.265352541879196,-11.944610805530505" fill="none" id="id96" stroke="none" /><text fill="#e1ed5e" style="font-size:6.75px; font-family:Arial;" text-anchor="middle"><textPath startOffset="22.20632615414155" xlink:href="#id96">December</textPath></text></svg>