<?xml version="1.0" encoding="utf-8" ?>
<svg baseProfile="full" height="200mm" version="1.1" viewBox="0,0,200,200" width="200mm" xmlns="http://www.w3.org/2000/svg" xmlns:ev="http://www.w3.org/2001/xml-events" xmlns:xlink="http://www.w3.org/1999/xlink"><defs /><rect fill="#1a1a1a" height="200" width="200" x="0" y="0" /><rect fill="#1a1a1a" height="200" width="180" x="10" y="0" /><text alignment-baseline="middle" fill="#e1ed5e" style="dominant-baseline: central; font-size:9.0px; font-family:Arial;" text-anchor="middle" x="100.0" y="100.0">2025</text><line stroke="#e1ed5e" stroke-width="0.3" x1="100.0" x2="100.0" y1="15.0" y2="10.0" /><path d="M 100.0 14.0 a86.0,86.0 0 0,1 42.46469731375804,11.215312516191453" fill="none" id="id73" stroke="none" /><text fill="#e1ed5e" style="font-size:6.75px; font-family:Arial;" text-anchor="middle"><textPath startOffset="22.20632615414155" xlink:href="#id73">January</textPath></text><line stroke="#e1ed5e" stroke-width="0.3" x1="143.23703022742887" x2="145.7803849466894" y1="26.81831364943548" y2="22.513508569990506" /><path d="M 143.74570117128098 25.957352633546492 a86.0,86.0 0 0,1 28.547481713284135,27.462654790039103" fill="none" id="id74" stroke="none" /><text fill="#e1ed5e" style="font-size:6.75px; font-family:Arial;" text-anchor="middle"><textPath startOffset="19.985693538727396" xlink:href="#id74">February</textPath></text><line stroke="#e1ed5e" stroke-width="0.3" x1="172.23445277983987" x2="176.4835382374775" y1="55.19839476539836" y2="52.563006222186495" /><path d="M 173.08426987136738 54.67131705675599 a86.0,86.0 0 0,1 12.851231095245387,41.99856678651699" fill="none" id="id75" stroke="none" /><text fill="#e1ed5e" style="font-size:6.75px; font-family:Arial;" text-anchor="middle"><textPath startOffset="22.20632615414155" xlink:href="#id75">March</textPath></text><line stroke="#e1ed5e" stroke-width="0.3" x1="184.98032266829074" x2="189.97916517819016" y1="98.17113171792111" y2="98.06355123074" /><path d="M 185.9800911702706 98.14961562048488 a86.0,86.0 0 0,1 -9.607161424134198,41.387399972396054" fill="none" id="id76" stroke="none" /><text fill="#e1ed5e" style="font-size:6.75px; font-family:Arial;" text-anchor="middle"><textPath startOffset="21.466115282336823" xlink:href="#id76">April</textPath></text><line stroke="#e1ed5e" stroke-width="0.3" x1="174.80103733775053" x2="179.2010983576182" y1="140.37084112569926" y2="142.7455964860345" /><path d="M 175.68104954172406 140.8457921977663 a86.0,86.0 0 0,1 -30.038265399797805,32.042727171017184" fill="none" id="id77" stroke="none" /><text fill="#e1ed5e" style="font-size:6.75px; font-family:Arial;" text-anchor="middle"><textPath startOffset="22.206326154141568" xlink:href="#id77">May</textPath></text><line stroke="#e1ed5e" stroke-width="0.3" x1="143.8653032363475" x2="146.44561519142675" y1="172.8068346515853" y2="177.08958963109032" /><path d="M 144.38136562736335 173.6633856474863 a86.0,86.0 0 0,1 -40.68145358897372,12.25698825130547" fill="none" id="id78" stroke="none" /><text fill="#e1ed5e" style="font-size:6.75px; font-family:Arial;" text-anchor="middle"><textPath startOffset="21.466115282336833" xlink:href="#id78">June</textPath></text><line stroke="#e1ed5e" stroke-width="0.3" x1="102.19456741930631" x2="102.32365962044197" y1="184.97166512339345" y2="189.96999836594603" /><path d="M 102.22038585953345 185.97133177190398 a86.0,86.0 0 0,1 -42.740103519485714,-10.115201625700543" fill="none" id="id79" stroke="none" /><text fill="#e1ed5e" style="font-size:6.75px; font-family:Arial;" text-anchor="middle"><textPath startOffset="22.20632615414155" xlink:href="#id79">July</textPath></text><line stroke="#e1ed5e" stroke-width="0.3" x1="58.666819895761336" x2="56.23545636021788" y1="174.27360380694188" y2="178.64263932499728" /><path d="M 58.180547188652646 175.14741091055294 a86.0,86.0 0 0,1 -31.652253787137756,-30.449443065178592" fill="none" id="id80" stroke="none" /><text fill="#e1ed5e" style="font-size:6.75px; font-family:Arial;" text-anchor="middle"><textPath startOffset="22.20632615414155" xlink:href="#id80">August</textPath></text><line stroke="#e1ed5e" stroke-width="0.3" x1="26.63291911575756" x2="22.317208475507996" y1="142.92168965132927" y2="145.44649492493687" /><path d="M 25.769776987707644 143.4266507060508 a86.0,86.0 0 0,1 -11.730757126820373,-40.83630448921669" fill="none" id="id81" stroke="none" /><text fill="#e1ed5e" style="font-size:6.75px; font-family:Arial;" text-anchor="middle"><textPath startOffset="21.46611528233685" xlink:href="#id81">September</textPath></text><path d="M 79.58551787078972 104.9243191809786 l -14.392592507234232 3.471737313677529 a35.80539357985717,35.80539357985717 0 0,0 -0.13936726704053612,-0.6003905388303735 l 14.450220340205323 -3.223478117498581" fill="#ff0100" stroke="none" /><path d="M 79.4281124754447 104.21870165774334 l -20.838778427144632 4.273433295365136 a42.27244505141719,42.27244505141719 0 0,0 -0.14004270645283576,-0.7140747431078291 l 20.909251066573134 -3.9140948251893515" fill="#ff760a" stroke="none" /><path d="M 79.35854240842038 103.8639653848113 l -14.528555421179169 2.719664296461767 a35.78091663300093,35.78091663300093 0 0,0 -0.10811554555851458,-0.6063693957744335 l 14.573217409076872 -2.46917614995412" fill="#ff0000" stroke="none" /><path d="M 79.29508885075956 103.50808413554451 l -14.570451866200372 2.4687075772072347 a35.77811167527916,35.77811167527916 0 0,0 -0.09765421873775343,-0.6080929132982317 l 14.610787839299416 -2.2175354342157894" fill="#ff0000" stroke="none" /><path d="M 79.23777060512086 103.15116336523772 l -14.609590985062745 2.217353783047584 a35.77690111457819,35.77690111457819 0 0,0 -0.08716948081965188,-0.6096631458267265 l 14.645594516898996 -1.9655451652404567" fill="#ff0000" stroke="none" /><path d="M 79.10278846688536 102.07522291339032 l -17.636919734977553 1.7514556857335926 a38.72367159358154,38.72367159358154 0 0,0 -0.06016073425593082,-0.6638686894010742 l 17.664455065510563 -1.447605607783952" fill="#ff3705" stroke="none" /><path d="M 79.07016306316243 101.71520430193888 l -29.455472053477823 2.4138817963194015 a50.55421559134695,50.55421559134695 0 0,0 -0.06361030237849999,-0.8679120373340418 l 29.492658914520657 -1.9064966224885989" fill="#fffe18" stroke="none" /><path d="M 79.04373962182676 101.35467743843564 l -14.75057232698908 0.953522583456614 a35.78135952106226,35.78135952106226 0 0,0 -0.03444151648218246,-0.6149764132915071 l 14.764800194358795 -0.6994744538296693" fill="#ff0000" stroke="none" /><path d="M 79.0235259727143 100.99374915477108 l -18.18189422125083 0.86135744219941 a39.20228595852693,39.20228595852693 0 0,0 -0.026130875751271133,-0.6743217932039827 l 18.1940272298533 -0.5482584019814306" fill="#ff3f05" stroke="none" /><path d="M 79.0095281055655 100.63252640178507 l -15.764944007837657 0.4750604635174824 a36.77210011426043,36.77210011426043 0 0,0 -0.01361957569663561,-0.6328481655275565 l 15.7707856462193 -0.20362248219979698" fill="#ff1302" stroke="none" /><line stroke="#e1ed5e" stroke-width="0.3" x1="15.007084014347285" x2="10.007500721073583" y1="101.09737516637583" y2="101.16192664675087" /><path d="M 14.007167355692545 101.11028546245083 a86.0,86.0 0 0,1 10.666146001902534,-42.60595125391555" fill="none" id="id82" stroke="none" /><text fill="#e1ed5e" style="font-size:6.75px; font-family:Arial;" text-anchor="middle"><textPath startOffset="22.20632615414155" xlink:href="#id82">October</textPath></text><path d="M 79.00175016825051 100.2711162175752 l -29.535662244795247 0.38134592623429575 a50.53812399178524,50.53812399178524 0 0,0 -0.0037439188798787187,-0.8699548958284666 l 29.537850460964627 0.1271184477978462" fill="#fffe18" stroke="none" /><path d="M 79.00486145842228 99.54816195383935 l -20.21723323675353 -0.43509668423375775 a41.22191456993929,41.22191456993929 0 0,0 0.02137318099813312,-0.7092718244959827 l 20.206748361299752 0.7830386561547349" fill="#ff6309" stroke="none" /><path d="M 79.01574976396665 99.18683210126434 l -18.97408266043318 -0.7352712035870963 a39.988323689777765,39.988323689777765 0 0,0 0.03257409195823805,-0.6875875975782269 l 18.958614960241444 1.0617699077883322" fill="#ff4d07" stroke="none" /><path d="M 79.12142395522702 97.74499172005258 l -29.692586864278933 -3.206972979786617 a50.86527063975532,50.86527063975532 0 0,0 0.10151169223281233,-0.8696901869049863 l 29.632984819042534 3.7176069050164653" fill="#fbff18" stroke="none" /><path d="M 79.16333360222342 97.38593545837743 l -14.699204973871023 -1.844089154123926 a35.814428496308324,35.814428496308324 0 0,0 0.08200481016950625,-0.6110310866506692 l 14.665284164643683 2.0968385828392546" fill="#ff0100" stroke="none" /><path d="M 79.21141760316559 97.0276538004421 l -14.626819302162678 -2.0913388866296017 a35.77557245039419,35.77557245039419 0 0,0 0.09241018877472126,-0.6088676832596144 l 14.588653219948656 2.342805682281308" fill="#ff0000" stroke="none" /><path d="M 79.26566170972629 96.67025291283419 l -14.594133862129649 -2.3436858238166915 a35.78112331409621,35.78112331409621 0 0,0 0.10289311569779136,-0.6072809932937024 l 14.551628884911635 2.5945526054262222" fill="#ff0000" stroke="none" /><path d="M 79.3925641242962 95.95851677861259 l -16.93149431278071 -3.320565964191437 a38.254033093345804,38.254033093345804 0 0,0 0.13228737225380335,-0.6450802080135509 l 16.871827644611912 3.611521828368391" fill="#ff2e04" stroke="none" /><path d="M 79.62865764111835 94.90015583598534 l -28.686147917299966 -7.181406186535399 a50.5713996481266,50.5713996481266 0 0,0 0.2186699328810735,-0.8426244524703062 l 28.558281652548583 7.674127064554569" fill="#ffff18" stroke="none" /><path d="M 79.71946130924805 94.55025226153421 l -14.278057282396153 -3.8367723644296516 a35.78457784097459,35.78457784097459 0 0,0 0.164972406890676,-0.5934935225684015 l 14.209898104939116 4.081977190416996" fill="#ff0000" stroke="none" /><path d="M 79.91906864156998 93.8553929516997 l -28.250408465665494 -8.644402785761146 a50.54337959677971,50.54337959677971 0 0,0 0.2617293029986593,-0.8297534144874458 l 28.09742367889863 9.129406366675006" fill="#fffe18" stroke="none" /><path d="M 80.14247586403 93.16781622104843 l -16.467205830626945 -5.665710175664374 a38.414624304384546,38.414624304384546 0 0,0 0.22051260055915095,-0.623418816326869 l 16.367240149257984 5.9483266184178545" fill="#ff3104" stroke="none" /><path d="M 80.2630227832202 92.82701384747504 l -13.901174812269046 -5.0520874264100355 a35.79074874796248,35.79074874796248 0 0,0 0.21541840075397978,-0.5772142147300456 l 13.812151823013439 5.290624778169423" fill="#ff0000" stroke="none" /><path d="M 80.38941819471856 92.48833698450439 l -13.798999808569496 -5.2855870132801 a35.776664907612144,35.776664907612144 0 0,0 0.22523361259560368,-0.5731949766512823 l 13.705972646092201 5.522330994827145" fill="#ff0000" stroke="none" /><path d="M 80.52162464483688 92.15188598940014 l -13.704877187057415 -5.521889618827239 a35.775483872781926,35.775483872781926 0 0,0 0.23505909121887697,-0.5692142341063761 l 13.607796408952337 5.756978423386927" fill="#ff0000" stroke="none" /><path d="M 80.95270993114464 91.15688171328213 l -26.790683053647854 -12.438156733527036 a50.53723821566258,50.53723821566258 0 0,0 0.3731135567240945,-0.7858723062812264 l 26.572611303082006 12.897471455448795" fill="#fffe18" stroke="none" /><path d="M 81.10775173730289 90.83032412892265 l -15.956051102698128 -7.7445423519540455 a38.7362200886526,38.7362200886526 0 0,0 0.2963136139654717,-0.5973501644525739 l 15.820377475779244 8.01805210490558" fill="#ff3705" stroke="none" /><path d="M 81.26839172434947 90.50648371742162 l -13.181878959822935 -6.6808135584775545 a35.77820025289142,35.77820025289142 0 0,0 0.2831428276447132,-0.5469418204576337 l 13.064926699018109 6.906728101195523" fill="#ff0000" stroke="none" /><path d="M 81.6062741919709 89.86733742301443 l -12.94099964263434 -7.128886455971091 a35.77465714840078,35.77465714840078 0 0,0 0.30177176901058667,-0.5368183044709772 l 12.816370232331323 7.350588270376853" fill="#ff0000" stroke="none" /><line stroke="#e1ed5e" stroke-width="0.3" x1="26.266209847984243" x2="21.928928074336255" y1="57.711370442889674" y2="55.22380399835377" /><path d="M 25.398753493254645 57.213857153982495 a86.0,86.0 0 0,1 29.58750427330803,-30.492523968695096" fill="none" id="id83" stroke="none" /><text fill="#e1ed5e" style="font-size:6.75px; font-family:Arial;" text-anchor="middle"><textPath startOffset="21.46611528233685" xlink:href="#id83">November</textPath></text><path d="M 81.78341655067845 89.55222093294921 l -25.637376309825687 -14.703835342618898 a50.55465847940828,50.55465847940828 0 0,0 0.4394411340891778,-0.751147345094918 l 25.380475501266183 15.142962100067708" fill="#fffe18" stroke="none" /><path d="M 81.96595687620814 89.24020034530311 l -12.690072938234422 -7.571382716655248 a35.77713732154423,35.77713732154423 0 0,0 0.3200932802506063,-0.5261491898708947 l 12.5578638596976 7.788699679733217" fill="#ff0000" stroke="none" /><path d="M 82.15384107792192 88.93136811851018 l -12.564889504788452 -7.793057159658179 a35.78540456535575,35.78540456535575 0 0,0 0.32917869615240336,-0.5206816448782333 l 12.428883212390085 8.008186452250628" fill="#ff0000" stroke="none" /><path d="M 83.39014120810768 87.1503855733568 l -49.82957637567698 -38.54884327992962 a84.0,84.0 0 0,0 0.8945836776241158,-1.1360304241878092 l 49.15863861745889 39.40086609807048" fill="#4dd2ff" stroke="none" /><path d="M 84.07557802195018 86.31012108654704 l -11.205678622169518 -9.633277973418524 a35.777255425027256,35.777255425027256 0 0,0 0.4054894233338202,-0.46354450680494175 l 11.038197335257854 9.82473803642641" fill="#ff0000" stroke="none" /><path d="M 84.5562425177563 85.77008943001954 l -10.866272645541498 -10.012206430517978 a35.77566102800646,35.77566102800646 0 0,0 0.4211863087729157,-0.44929218783282665 l 10.692319014798127 10.197768035228854" fill="#ff0000" stroke="none" /><path d="M 85.05521093208273 85.24692304244772 l -12.61783298720197 -12.455971124902259 a38.730226336889245,38.730226336889245 0 0,0 0.4724427351870517,-0.4704139159403517 l 12.401554451847606 12.671320891492721" fill="#ff3705" stroke="none" /><path d="M 85.31137513191541 84.99185889309783 l -10.34018412912094 -10.56511034047764 a35.78313107330758,35.78313107330758 0 0,0 0.4439097733623545,-0.42704085026532795 l 10.156791112146157 10.74153427750528" fill="#ff0000" stroke="none" /><path d="M 85.57189188830299 84.74124197986013 l -10.151029936083312 -10.73544142106327 a35.77474572601304,35.77474572601304 0 0,0 0.45108907749961513,-0.4192381360722578 l 9.96473297478884 10.908584143210174" fill="#ff0000" stroke="none" /><path d="M 85.83668400450813 84.49514656593479 l -9.966803982441476 -10.910851314974552 a35.7778164165716,35.7778164165716 0 0,0 0.458278071612678,-0.41144657755584824 l 9.777514923232827 11.08079690129968" fill="#ff0000" stroke="none" /><path d="M 86.10567301691215 84.25364557470407 l -9.773334360852562 -11.076059095933733 a35.771497880229944,35.771497880229944 0 0,0 0.4652103763230759,-0.4034258540881972 l 9.581230185882713 11.24264994344161" fill="#ff0000" stroke="none" /><line stroke="#e1ed5e" stroke-width="0.3" x1="56.762969772571076" x2="54.21961505331055" y1="26.818313649435495" y2="22.513508569990535" /><path d="M 56.25429882871897 25.957352633546506 a86.0,86.0 0 0,1 42.265352541879196,-11.944610805530505" fill="none" id="id84" stroke="none" /><text fill="#e1ed5e" style="font-size:6.75px; font-family:Arial;" text-anchor="middle"><textPath startOffset="22.20632615414155" xlink:href="#id84">December</textPath></text></svg>