<?xml version="1.0" encoding="utf-8" ?>
<svg baseProfile="full" height="200mm" version="1.1" viewBox="0,0,200,200" width="200mm" xmlns="http://www.w3.org/2000/svg" xmlns:ev="http://www.w3.org/2001/xml-events" xmlns:xlink="http://www.w3.org/1999/xlink"><defs /><rect fill="#1a1a1a" height="200" width="200" x="0" y="0" /><rect fill="#1a1a1a" height="200" width="180" x="10" y="0" /><text alignment-baseline="middle" fill="#e1ed5e" style="dominant-baseline: central; font-size:9.0px; font-family:Arial;" text-anchor="middle" x="100.0" y="100.0">2026</text><line stroke="#e1ed5e" stroke-width="0.3" x1="100.0" x2="100.0" y1="15.0" y2="10.0" /><path d="M 100.0 14.0 a86.0,86.0 0 0,1 42.46469731375804,11.215312516191453" fill="none" id="id85" stroke="none" /><text fill="#e1ed5e" style="font-size:6.75px; font-family:Arial;" text-anchor="middle"><textPath startOffset="22.20632615414155" xlink:href="#id85">January</textPath></text><path d="M 103.95276090670814 79.375362276772 l 9.883472319541422 -51.56978649838323 a73.50834128574212,73.50834128574212 0 0,0 1.2406583493343584,0.24886439336869917 l -10.769697078342906 51.39201814893732" fill="red" stroke="none" /><path d="M 104.307194497241 79.44645832069477 l 10.770708515529055 -51.39684463549947 a73.51327261190413,73.51327261190413 0 0,0 1.2362736711513869,0.27020154078273934 l -11.653824910833968 51.20382959662086" fill="red" stroke="none" /><path d="M 105.01212808612495 79.60689891045804 l 12.534564831626216 -51.000023010664606 a73.5177842507332,73.5177842507332 0 0,0 1.2263155403144712,0.31261513628066995 l -13.410589260625711 50.77670487821507" fill="red" stroke="none" /><path d="M 105.36241919743992 79.69619591428918 l 13.405177249184819 -50.756213302312545 a73.49659004041987,73.49659004041987 0 0,0 1.2204007658073335,0.3335816302011521 l -14.276875904215863 50.517945131285096" fill="red" stroke="none" /><line stroke="#e1ed5e" stroke-width="0.3" x1="143.23703022742887" x2="145.7803849466894" y1="26.81831364943548" y2="22.513508569990506" /><path d="M 143.74570117128098 25.957352633546492 a86.0,86.0 0 0,1 28.547481713284135,27.462654790039103" fill="none" id="id86" stroke="none" /><text fill="#e1ed5e" style="font-size:6.75px; font-family:Arial;" text-anchor="middle"><textPath startOffset="19.985693538727396" xlink:href="#id86">February</textPath></text><path d="M 111.2981086023043 82.29822771554956 l 22.627207425007708 -35.45209976020417 a63.05760208644559,63.05760208644559 0 0,0 0.9099301289127137,0.5918438671980389 l -23.234104579704702 35.057356968846605" fill="red" stroke="none" /><path d="M 115.68641384162765 86.03803664274999 l 44.76571412948558 -39.844496431579145 a80.92956747223317,80.92956747223317 0 0,0 0.9172331207389053,1.0485560167818369 l -45.444939113802334 39.06802485859436" fill="red" stroke="none" /><path d="M 116.60985879189232 87.15038557335679 l 24.11383463758368 -18.654792995111496 a51.48734692653973,51.48734692653973 0 0,0 0.5362629308029658,0.7056591569025242 l -24.431373508610758 18.236949062327938" fill="red" stroke="none" /><line stroke="#e1ed5e" stroke-width="0.3" x1="172.23445277983987" x2="176.4835382374775" y1="55.19839476539836" y2="52.563006222186495" /><path d="M 173.08426987136738 54.67131705675599 a86.0,86.0 0 0,1 12.851231095245387,41.99856678651699" fill="none" id="id87" stroke="none" /><text fill="#e1ed5e" style="font-size:6.75px; font-family:Arial;" text-anchor="middle"><textPath startOffset="22.20632615414155" xlink:href="#id87">March</textPath></text><path d="M 118.56541770881063 90.18545643968196 l 46.40783965602005 -24.533343175365765 a73.4935473072561,73.4935473072561 0 0,0 0.5816159183841283,1.1234968296894756 l -46.823265007564295 23.730873623415942" fill="red" stroke="none" /><path d="M 118.73160827565052 90.50648371742162 l 46.89598313071346 -23.767728477307614 a73.5750715716791,73.5750715716791 0 0,0 0.5628142163917429,1.1345991168567513 l -47.29815736005861 22.95696977195191" fill="red" stroke="none" /><path d="M 120.37134235888165 94.90015583598534 l 31.745254480664244 -7.947235285051838 a53.724909942093134,53.724909942093134 0 0,0 0.2168623891443284,0.8990346086390442 l -31.877349670069393 7.399615444753388" fill="red" stroke="none" /><path d="M 120.45610955862082 95.25157060432595 l 30.729491991775365 -7.1331658969524225 a52.54653283303938,52.54653283303938 0 0,0 0.1969384322639011,0.8828363760931369 l -30.847724811041306 6.603151351309322" fill="red" stroke="none" /><path d="M 120.6074358757038 95.95851677861258 l 20.695673001772263 -4.058788084867782 a42.08991801108174,42.08991801108174 0 0,0 0.1333133536762132,0.7121652660543176 l -20.762472079358336 3.7019447413509012" fill="red" stroke="none" /><path d="M 120.67395015179393 96.31383870115 l 51.69205422891976 -9.216683234585673 a73.50729206740978,73.50729206740978 0 0,0 0.2113794539352454,1.2475735026306343 l -51.84304554437523 8.325523943639201" fill="red" stroke="none" /><path d="M 120.73433829027371 96.67025291283417 l 46.81726131455474 -7.518428478826669 a68.41711424988382,68.41711424988382 0 0,0 0.17672501123553772,1.1643970171657525 l -46.93974221922958 6.711432349268834" fill="red" stroke="none" /><path d="M 120.78858239683441 97.02765380044208 l 51.96091364057151 -7.429358156168835 a73.48935043392672,73.48935043392672 0 0,0 0.16826961883352087,1.253804110193245 l -52.08109925846287 6.533835703910926" fill="red" stroke="none" /><path d="M 120.83666639777658 97.38593545837742 l 46.995011709370075 -5.895760454067206 a68.36339427126791,68.36339427126791 0 0,0 0.13643265339930047,1.1688716563078874 l -47.08953471577297 5.085945059434466" fill="red" stroke="none" /><path d="M 120.94382443527127 98.46500227214037 l 47.33777928281872 -3.4694419763506015 a68.46474876217218,68.46474876217218 0 0,0 0.07602654657928715,1.1760970254355638 l -47.390486420402425 2.6540858866620027" fill="red" stroke="none" /><line stroke="#e1ed5e" stroke-width="0.3" x1="184.98032266829074" x2="189.97916517819016" y1="98.17113171792111" y2="98.06355123074" /><path d="M 185.9800911702706 98.14961562048488 a86.0,86.0 0 0,1 -9.607161424134198,41.387399972396054" fill="none" id="id88" stroke="none" /><text fill="#e1ed5e" style="font-size:6.75px; font-family:Arial;" text-anchor="middle"><textPath startOffset="21.466115282336823" xlink:href="#id88">April</textPath></text><path d="M 120.99513854157772 99.54816195383933 l 52.49943753256041 -1.1298445700784376 a73.51159386257237,73.51159386257237 0 0,0 0.016337051682000496,1.265322656833568 l -52.51110759136012 0.22598565518440675" fill="red" stroke="none" /><path d="M 120.99980553446 99.90962569577887 l 52.501664713813405 -0.2259450170229376 a73.5021508975813,73.5021508975813 0 0,0 -0.00544511882755837,1.2652538514818175 l -52.49777529769634 -0.6778183126625646" fill="red" stroke="none" /><path d="M 120.99824983174949 100.27111621757518 l 52.50344060449736 0.6778914595468812 a73.50781667657596,73.50781667657596 0 0,0 -0.02722567572725578,1.2650701698070375 l -52.48399286608509 -1.5815514451440333" fill="red" stroke="none" /><path d="M 120.9904718944345 100.63252640178507 l 55.147798261658565 1.6618224962376724 a76.17283124072566,76.17283124072566 0 0,0 -0.05077415105025698,1.3102552287386875 l -55.111021977757105 -2.610854971990366" fill="red" stroke="none" /><path d="M 120.95626037817324 101.35467743843564 l 52.411329846775025 3.3880303441822277 a73.52072206206375,73.52072206206375 0 0,0 -0.09250811839821316,1.2621997775013596 l -52.34524516971248 -4.289703258180357" fill="red" stroke="none" /><path d="M 120.92983693683757 101.71520430193887 l 52.32056634784931 4.287680823817671 a73.49596050942048,73.49596050942048 0 0,0 -0.11418263731542719,1.2599958880900313 l -52.2390091142568 -5.1876581004562725" fill="red" stroke="none" /><path d="M 120.89721153311464 102.0752229133903 l 52.246944143042946 5.188446098105112 a73.50393456874629,73.50393456874629 0 0,0 -0.13586921764647636,1.2579802114260497 l -52.14989262389542 -6.0870226314159535" fill="red" stroke="none" /><path d="M 120.8583938346157 102.4346265915055 l 52.15583284067678 6.087715983447269 a73.50991511324064,73.50991511324064 0 0,0 -0.15751596359467324,1.255557211188577 l -52.043315367835255 -6.984590948923241" fill="red" stroke="none" /><path d="M 120.81339534386255 102.79330883721812 l 52.01866985525964 6.981283342118206 a73.48504863876411,73.48504863876411 0 0,0 -0.1790443928425511,1.2522360665295997 l -51.890791411400485 -7.875664880628215" fill="red" stroke="none" /><path d="M 120.70491114924044 103.5080841355445 l 30.021495309100057 5.086615955994629 a51.44936522290893,51.44936522290893 0 0,0 -0.1554592982278091,0.8718983033100829 l -29.929489568533057 -5.6026330100379305" fill="red" stroke="none" /><path d="M 120.64145759157962 103.86396538481128 l 51.59946719549044 9.659131591531297 a73.495750665754,73.495750665754 0 0,0 -0.24348115713430402,1.2415051746434846 l -51.42555610538047 -10.545900493242726" fill="red" stroke="none" /><path d="M 120.5718875245553 104.21870165774334 l 51.42031417929665 10.544825525171218 a73.49039965225907,73.49039965225907 0 0,0 -0.26479627305776365,1.2370400325074455 l -51.23118386751445 -11.428379377094833" fill="red" stroke="none" /><path d="M 120.49622156327973 104.57218783832717 l 51.2755251529413 11.438270794658724 a73.53583080604949,73.53583080604949 0 0,0 -0.28622748542443355,1.233060515939189 l -51.07103710158631 -12.319199967946478" fill="red" stroke="none" /><path d="M 120.41448212921028 104.9243191809786 l 51.05492166670324 12.315312651844005 a73.51925315639849,73.51925315639849 0 0,0 -0.3073408861242344,1.227674064297337 l -50.83536946628394 -13.192314555538736" fill="red" stroke="none" /><path d="M 120.32669344350535 105.2749913415812 l 60.980080330516046 15.82497402474362 a84.0,84.0 0 0,0 -0.3752476946328911,1.396436267297807 l -60.69864455954138 -16.872301225216972" fill="red" stroke="none" /><path d="M 120.23288151984713 105.62410040840565 l 50.586500086207266 14.061445252648364 a73.50445917791245,73.50445917791245 0 0,0 -0.34934696417432337,1.2161226123068714 l -50.33696048514685 -14.930125340459817" fill="red" stroke="none" /><path d="M 120.02730092923936 106.31721596034902 l 50.07570693900569 15.795391312016477 a73.50781667657596,73.50781667657596 0 0,0 -0.39101870160241337,1.203431820649399 l -49.796395986387026 -16.65502203264367" fill="red" stroke="none" /><line stroke="#e1ed5e" stroke-width="0.3" x1="174.80103733775053" x2="179.2010983576182" y1="140.37084112569926" y2="142.7455964860345" /><path d="M 175.68104954172406 140.8457921977663 a86.0,86.0 0 0,1 -30.038265399797805,32.042727171017184" fill="none" id="id89" stroke="none" /><text fill="#e1ed5e" style="font-size:6.75px; font-family:Arial;" text-anchor="middle"><textPath startOffset="22.206326154141568" xlink:href="#id89">May</textPath></text><line stroke="#e1ed5e" stroke-width="0.3" x1="143.8653032363475" x2="146.44561519142675" y1="172.8068346515853" y2="177.08958963109032" /><path d="M 144.38136562736335 173.6633856474863 a86.0,86.0 0 0,1 -40.68145358897372,12.25698825130547" fill="none" id="id90" stroke="none" /><text fill="#e1ed5e" style="font-size:6.75px; font-family:Arial;" text-anchor="middle"><textPath startOffset="21.466115282336833" xlink:href="#id90">June</textPath></text><line stroke="#e1ed5e" stroke-width="0.3" x1="102.19456741930631" x2="102.32365962044197" y1="184.97166512339345" y2="189.96999836594603" /><path d="M 102.22038585953345 185.97133177190398 a86.0,86.0 0 0,1 -42.740103519485714,-10.115201625700543" fill="none" id="id91" stroke="none" /><text fill="#e1ed5e" style="font-size:6.75px; font-family:Arial;" text-anchor="middle"><textPath startOffset="22.20632615414155" xlink:href="#id91">July</textPath></text><line stroke="#e1ed5e" stroke-width="0.3" x1="58.666819895761336" x2="56.23545636021788" y1="174.27360380694188" y2="178.64263932499728" /><path d="M 58.180547188652646 175.14741091055294 a86.0,86.0 0 0,1 -31.652253787137756,-30.449443065178592" fill="none" id="id92" stroke="none" /><text fill="#e1ed5e" style="font-size:6.75px; font-family:Arial;" text-anchor="middle"><textPath startOffset="22.20632615414155" xlink:href="#id92">August</textPath></text><line stroke="#e1ed5e" stroke-width="0.3" x1="26.63291911575756" x2="22.317208475507996" y1="142.92168965132927" y2="145.44649492493687" /><path d="M 25.769776987707644 143.4266507060508 a86.0,86.0 0 0,1 -11.730757126820373,-40.83630448921669" fill="none" id="id93" stroke="none" /><text fill="#e1ed5e" style="font-size:6.75px; font-family:Arial;" text-anchor="middle"><textPath startOffset="21.46611528233685" xlink:href="#id93">September</textPath></text><line stroke="#e1ed5e" stroke-width="0.3" x1="15.007084014347285" x2="10.007500721073583" y1="101.09737516637583" y2="101.16192664675087" /><path d="M 14.007167355692545 101.11028546245083 a86.0,86.0 0 0,1 10.666146001902534,-42.60595125391555" fill="none" id="id94" stroke="none" /><text fill="#e1ed5e" style="font-size:6.75px; font-family:Arial;" text-anchor="middle"><textPath startOffset="22.20632615414155" xlink:href="#id94">October</textPath></text><line stroke="#e1ed5e" stroke-width="0.3" x1="26.266209847984243" x2="21.928928074336255" y1="57.711370442889674" y2="55.22380399835377" /><path d="M 25.398753493254645 57.213857153982495 a86.0,86.0 0 0,1 29.58750427330803,-30.492523968695096" fill="none" id="id95" stroke="none" /><text fill="#e1ed5e" style="font-size:6.75px; font-family:Arial;" text-anchor="middle"><textPath startOffset="21.46611528233685" xlink:href="#id95">November</textPath></text><line stroke="#e1ed5e" stroke-width="0.3" x1="56.762969772571076" x2="54.21961505331055" y1="26.818313649435495" y2="22.513508569990535" /><path d="M 56.25429882871897 25.957352633546506 a86.0,86.0 0 0,1 42.265352541879196,-11.944610805530505" fill="none" id="id96" stroke="none" /><text fill="#e1ed5e" style="font-size:6.75px; font-family:Arial;" text-anchor="middle"><textPath startOffset="22.20632615414155" xlink:href="#id96">December</textPath></text></svg>