<?xml version="1.0" encoding="utf-8" ?>
<svg baseProfile="full" height="200mm" version="1.1" viewBox="0,0,200,200" width="200mm" xmlns="http://www.w3.org/2000/svg" xmlns:ev="http://www.w3.org/2001/xml-events" xmlns:xlink="http://www.w3.org/1999/xlink"><defs /><rect fill="#1a1a1a" height="200" width="200" x="0" y="0" /><rect fill="#1a1a1a" height="200" width="180" x="10" y="0" /><text alignment-baseline="middle" fill="#e1ed5e" style="dominant-baseline: central; font-size:9.0px; font-family:Arial;" text-anchor="middle" x="100.0" y="100.0">2019</text><line stroke="#e1ed5e" stroke-width="0.3" x1="100.0" x2="100.0" y1="15.0" y2="10.0" /><path d="M 100.0 14.0 a86.0,86.0 0 0,1 42.46469731375804,11.215312516191453" fill="none" id="id1" stroke="none" /><text fill="#e1ed5e" style="font-size:6.75px; font-family:Arial;" text-anchor="middle"><textPath startOffset="22.20632615414155" xlink:href="#id1">January</textPath></text><line stroke="#e1ed5e" stroke-width="0.3" x1="143.23703022742887" x2="145.7803849466894" y1="26.81831364943548" y2="22.513508569990506" /><path d="M 143.74570117128098 25.957352633546492 a86.0,86.0 0 0,1 28.547481713284135,27.462654790039103" fill="none" id="id2" stroke="none" /><text fill="#e1ed5e" style="font-size:6.75px; font-family:Arial;" text-anchor="middle"><textPath startOffset="19.985693538727396" xlink:href="#id2">February</textPath></text><line stroke="#e1ed5e" stroke-width="0.3" x1="172.23445277983987" x2="176.4835382374775" y1="55.19839476539836" y2="52.563006222186495" /><path d="M 173.08426987136738 54.67131705675599 a86.0,86.0 0 0,1 12.851231095245387,41.99856678651699" fill="none" id="id3" stroke="none" /><text fill="#e1ed5e" style="font-size:6.75px; font-family:Arial;" text-anchor="middle"><textPath startOffset="22.20632615414155" xlink:href="#id3">March</textPath></text><line stroke="#e1ed5e" stroke-width="0.3" x1="184.98032266829074" x2="189.97916517819016" y1="98.17113171792111" y2="98.06355123074" /><path d="M 185.9800911702706 98.14961562048488 a86.0,86.0 0 0,1 -9.607161424134198,41.387399972396054" fill="none" id="id4" stroke="none" /><text fill="#e1ed5e" style="font-size:6.75px; font-family:Arial;" text-anchor="middle"><textPath startOffset="21.466115282336823" xlink:href="#id4">April</textPath></text><line stroke="#e1ed5e" stroke-width="0.3" x1="174.80103733775053" x2="179.2010983576182" y1="140.37084112569926" y2="142.7455964860345" /><path d="M 175.68104954172406 140.8457921977663 a86.0,86.0 0 0,1 -30.038265399797805,32.042727171017184" fill="none" id="id5" stroke="none" /><text fill="#e1ed5e" style="font-size:6.75px; font-family:Arial;" text-anchor="middle"><textPath startOffset="22.206326154141568" xlink:href="#id5">May</textPath></text><line stroke="#e1ed5e" stroke-width="0.3" x1="143.8653032363475" x2="146.44561519142675" y1="172.8068346515853" y2="177.08958963109032" /><path d="M 144.38136562736335 173.6633856474863 a86.0,86.0 0 0,1 -40.68145358897372,12.25698825130547" fill="none" id="id6" stroke="none" /><text fill="#e1ed5e" style="font-size:6.75px; font-family:Arial;" text-anchor="middle"><textPath startOffset="21.466115282336833" xlink:href="#id6">June</textPath></text><line stroke="#e1ed5e" stroke-width="0.3" x1="102.19456741930631" x2="102.32365962044197" y1="184.97166512339345" y2="189.96999836594603" /><path d="M 102.22038585953345 185.97133177190398 a86.0,86.0 0 0,1 -42.740103519485714,-10.115201625700543" fill="none" id="id7" stroke="none" /><text fill="#e1ed5e" style="font-size:6.75px; font-family:Arial;" text-anchor="middle"><textPath startOffset="22.20632615414155" xlink:href="#id7">July</textPath></text><line stroke="#e1ed5e" stroke-width="0.3" x1="58.666819895761336" x2="56.23545636021788" y1="174.27360380694188" y2="178.64263932499728" /><path d="M 58.180547188652646 175.14741091055294 a86.0,86.0 0 0,1 -31.652253787137756,-30.449443065178592" fill="none" id="id8" stroke="none" /><text fill="#e1ed5e" style="font-size:6.75px; font-family:Arial;" text-anchor="middle"><textPath startOffset="22.20632615414155" xlink:href="#id8">August</textPath></text><line stroke="#e1ed5e" stroke-width="0.3" x1="26.63291911575756" x2="22.317208475507996" y1="142.92168965132927" y2="145.44649492493687" /><path d="M 25.769776987707644 143.4266507060508 a86.0,86.0 0 0,1 -11.730757126820373,-40.83630448921669" fill="none" id="id9" stroke="none" /><text fill="#e1ed5e" style="font-size:6.75px; font-family:Arial;" text-anchor="middle"><textPath startOffset="21.46611528233685" xlink:href="#id9">September</textPath></text><line stroke="#e1ed5e" stroke-width="0.3" x1="15.007084014347285" x2="10.007500721073583" y1="101.09737516637583" y2="101.16192664675087" /><path d="M 14.007167355692545 101.11028546245083 a86.0,86.0 0 0,1 10.666146001902534,-42.60595125391555" fill="none" id="id10" stroke="none" /><text fill="#e1ed5e" style="font-size:6.75px; font-family:Arial;" text-anchor="middle"><textPath startOffset="22.20632615414155" xlink:href="#id10">October</textPath></text><line stroke="#e1ed5e" stroke-width="0.3" x1="26.266209847984243" x2="21.928928074336255" y1="57.711370442889674" y2="55.22380399835377" /><path d="M 25.398753493254645 57.213857153982495 a86.0,86.0 0 0,1 29.58750427330803,-30.492523968695096" fill="none" id="id11" stroke="none" /><text fill="#e1ed5e" style="font-size:6.75px; font-family:Arial;" text-anchor="middle"><textPath startOffset="21.46611528233685" xlink:href="#id11">November</textPath></text><path d="M 84.80347519578584 85.50635884689758 l -13.702089020563681 -13.068327388696297 a39.93484682445574,39.93484682445574 0 0,0 0.4787156223455976,-0.49335852911834593 l 13.475109134514966 13.302250113364767" fill="red" stroke="none" /><path d="M 85.05521093208273 85.24692304244772 l -18.57253654713903 -18.334287605645 a47.09760938862644,47.09760938862644 0 0,0 0.5745105439557109,-0.5720434131011155 l 18.25419020301601 18.651266869396224" fill="red" stroke="none" /><path d="M 85.31137513191541 84.99185889309783 l -13.255625515793183 -13.543970248265952 a39.951272725093176,39.951272725093176 0 0,0 0.49561790399507455,-0.47678403096570593 l 13.020524368185681 13.770137365993971" fill="red" stroke="none" /><path d="M 86.10567301691215 84.25364557470407 l -23.724306441779852 -26.88660905859691 a56.85711174667171,56.85711174667171 0 0,0 0.7394299909071155,-0.6412264016505215 l 23.257982652225962 27.291000453667113" fill="red" stroke="none" /><path d="M 86.65592168130627 83.78471172551755 l -30.029345002723094 -36.49067955715585 a68.25813428221223,68.25813428221223 0 0,0 0.9136728365265627,-0.7387932254510859 l 29.39676876763203 37.00217887987107" fill="red" stroke="none" /><path d="M 86.93701828274178 83.55741782278169 l -39.18894515177469 -49.32774653165494 a84.0,84.0 0 0,0 1.1398697793622974,-0.889686443107113 l 38.334042817252964 49.99501136398527" fill="red" stroke="none" /><path d="M 87.22198572758235 83.33499621200491 l -19.170984856109236 -25.00267478463296 a52.50651371921829,52.50651371921829 0 0,0 0.7219741804362927,-0.5437759846101544 l 18.737764521914553 25.328967358748965" fill="red" stroke="none" /><line stroke="#e1ed5e" stroke-width="0.3" x1="56.762969772571076" x2="54.21961505331055" y1="26.818313649435495" y2="22.513508569990535" /><path d="M 56.25429882871897 25.957352633546506 a86.0,86.0 0 0,1 42.265352541879196,-11.944610805530505" fill="none" id="id12" stroke="none" /><text fill="#e1ed5e" style="font-size:6.75px; font-family:Arial;" text-anchor="middle"><textPath startOffset="22.20632615414155" xlink:href="#id12">December</textPath></text><path d="M 89.3179101791058 81.91981866633112 l -21.159435523022545 -35.81381898006709 a62.59749201081674,62.59749201081674 0 0,0 0.9324142876409282,-0.5401145385795109 l 20.539824502916296 36.172737676036654" fill="red" stroke="none" /><path d="M 89.94658935756843 81.56283822128135 l -15.093538374241538 -27.680358309912076 a52.52803731315701,52.52803731315701 0 0,0 0.797563090164101,-0.42603058140669164 l 14.614830237549132 27.93606761782052" fill="red" stroke="none" /><path d="M 90.26544431104013 81.39251694778311 l -14.619002019115083 -27.944041926794274 a52.53703694454073,52.53703694454073 0 0,0 0.8049162214317924,-0.41230935173301786 l 14.135825310094527 28.191543803839796" fill="red" stroke="none" /><path d="M 90.91171255644093 81.06846463323043 l -13.640561263312314 -28.41423861015732 a52.51878594383247,52.51878594383247 0 0,0 0.8183471941387543,-0.38422498048602033 l 13.149435857873952 28.644828573283345" fill="red" stroke="none" /><path d="M 91.23893434514133 80.91482961587045 l -15.769954936956067 -34.353386765791406 a58.80008810827928,58.80008810827928 0 0,0 0.923491452087604,-0.414343695422007 l 15.176281366401689 34.619750791729935" fill="red" stroke="none" /><path d="M 91.56875222667455 80.76684994638697 l -12.654515060562465 -28.86716101328707 a52.51903768177327,52.51903768177327 0 0,0 0.8310918688988616,-0.3558301653477582 l 12.155739433873295 29.080710706597614" fill="red" stroke="none" /><path d="M 91.90106846888425 80.62456947434976 l -12.156370493599551 -29.08222041856846 a52.5206739783885,52.5206739783885 0 0,0 0.8371198457455447,-0.34148220390716355 l 11.653966778265627 29.2871635086592" fill="red" stroke="none" /><path d="M 92.23578459929587 80.48803036053334 l -11.647195666947692 -29.270147273065195 a52.50236004319503,52.50236004319503 0 0,0 0.8425799624669069,-0.32690793517204436 l 11.141632539481108 29.466297912127793" fill="red" stroke="none" /><path d="M 92.57280143429618 80.3572730644239 l -11.145861640169741 -29.477482623196845 a52.514317595383204,52.514317595383204 0 0,0 0.848275460873644,-0.3124270111308631 l 10.636803853523528 29.664972902134032" fill="red" stroke="none" /><path d="M 93.25333710446033 80.11325718540243 l -20.230546441279753 -59.63239609058916 a83.97060959541118,83.97060959541118 0 0,0 1.3727882238514775,-0.45258669389459194 l 19.201075395185864 59.97179650874299" fill="red" stroke="none" /><path d="M 93.59665428221793 80.00007090966166 l -9.613932359682735 -30.027734554298448 a52.52923306837583,52.52923306837583 0 0,0 0.8635171245471727,-0.2682989739827803 l 9.095629862424834 30.188773663163754" fill="red" stroke="none" /><path d="M 93.94186890950719 79.89281104454417 l -9.093741691110937 -30.182506744072423 a52.52268788191493,52.52268788191493 0 0,0 0.8678993564992381,-0.25336362152950426 l 8.572852116888278 30.334568694520627" fill="red" stroke="none" /><path d="M 95.33964822691252 79.52364482259891 l -6.990758107148128 -30.715545291643824 a52.501038419005816,52.501038419005816 0 0,0 0.8829106527222587,-0.19297007151892803 l 6.461004730272348 30.831328861258623" fill="red" stroke="none" /><path d="M 96.40284397218896 79.31037775812273 l -5.397130083553804 -31.042462922285477 a52.50815001583352,52.50815001583352 0 0,0 0.8918154071583726,-0.1471571835504041 l 4.8619854702565455 31.130766368775507" fill="red" stroke="none" /><path d="M 98.19473922651362 79.07773832637324 l -2.7075259750806797 -31.37916015832978 a52.495751922248935,52.495751922248935 0 0,0 0.9009516195037914,-0.0699311855354498 l 2.166984166214554 31.42111660605369" fill="red" stroke="none" /></svg>