<?xml version="1.0" encoding="utf-8" ?>
<svg baseProfile="full" height="200mm" version="1.1" viewBox="0,0,200,200" width="200mm" xmlns="http://www.w3.org/2000/svg" xmlns:ev="http://www.w3.org/2001/xml-events" xmlns:xlink="http://www.w3.org/1999/xlink"><defs /><rect fill="#1a1a1a" height="200" width="200" x="0" y="0" /><rect fill="#1a1a1a" height="200" width="180" x="10" y="0" /><text alignment-baseline="middle" fill="#e1ed5e" style="dominant-baseline: central; font-size:9.0px; font-family:Arial;" text-anchor="middle" x="100.0" y="100.0">2026</text><line stroke="#e1ed5e" stroke-width="0.3" x1="100.0" x2="100.0" y1="15.0" y2="10.0" /><path d="M 100.0 14.0 a86.0,86.0 0 0,1 42.46469731375804,11.215312516191453" fill="none" id="id85" stroke="none" /><text fill="#e1ed5e" style="font-size:6.75px; font-family:Arial;" text-anchor="middle"><textPath startOffset="22.20632615414155" xlink:href="#id85">January</textPath></text><path d="M 103.95276090670814 79.375362276772 l 10.389842316475962 -54.21191385877156 a76.19855457883025,76.19855457883025 0 0,0 1.2860632044185725,0.25797218015189305 l -11.32147193036166 54.02503772254246" fill="red" stroke="none" /><path d="M 104.307194497241 79.44645832069477 l 11.322535187538623 -54.030111489403126 a76.20373855664471,76.20373855664471 0 0,0 1.2815192722848292,0.28009047672401144 l -12.25089718397698 53.82720751458324" fill="red" stroke="none" /><path d="M 105.01212808612495 79.60689891045804 l 13.176760949565145 -53.61295909837047 a76.20848134485796,76.20848134485796 0 0,0 1.2711977915198491,0.3240566214579307 l -14.097667629770019 53.37819948074367" fill="red" stroke="none" /><path d="M 105.36241919743992 79.69619591428918 l 14.091978339238521 -53.356658039076194 a76.18620126999576,76.18620126999576 0 0,0 1.2650613902321297,0.34578906592131037 l -15.008337618694362 53.10618243232859" fill="red" stroke="none" /><line stroke="#e1ed5e" stroke-width="0.3" x1="143.23703022742887" x2="145.7803849466894" y1="26.81831364943548" y2="22.513508569990506" /><path d="M 143.74570117128098 25.957352633546492 a86.0,86.0 0 0,1 28.547481713284135,27.462654790039103" fill="none" id="id86" stroke="none" /><text fill="#e1ed5e" style="font-size:6.75px; font-family:Arial;" text-anchor="middle"><textPath startOffset="19.985693538727396" xlink:href="#id86">February</textPath></text><path d="M 111.2981086023043 82.29822771554956 l 23.786490173418336 -37.26845327104503 a65.2123820211736,65.2123820211736 0 0,0 0.9410239085508557,0.6120681264044366 l -24.424481107753472 36.85348622048107" fill="red" stroke="none" /><path d="M 115.68641384162765 86.03803664274999 l 47.05924152488298 -41.88589007175005 a84.0,84.0 0 0,0 0.9520325456886072,1.0883377751882088 l -47.773265934149435 41.069636740358895" fill="red" stroke="none" /><path d="M 116.60985879189232 87.15038557335679 l 25.349283271093864 -19.61055299183574 a53.04933620223291,53.04933620223291 0 0,0 0.5525317229794424,0.727066980400384 l -25.683090934297418 19.17130123555432" fill="red" stroke="none" /><line stroke="#e1ed5e" stroke-width="0.3" x1="172.23445277983987" x2="176.4835382374775" y1="55.19839476539836" y2="52.563006222186495" /><path d="M 173.08426987136738 54.67131705675599 a86.0,86.0 0 0,1 12.851231095245387,41.99856678651699" fill="none" id="id87" stroke="none" /><text fill="#e1ed5e" style="font-size:6.75px; font-family:Arial;" text-anchor="middle"><textPath startOffset="22.20632615414155" xlink:href="#id87">March</textPath></text><path d="M 118.56541770881063 90.18545643968196 l 48.78549973990521 -25.79028491677597 a76.18300264538686,76.18300264538686 0 0,0 0.6028998282476761,1.1646105690134045 l -49.222209001313004 24.94670162550222" fill="red" stroke="none" /><path d="M 118.73160827565052 90.50648371742162 l 49.29865276607936 -24.985444701634897 a76.26870372542601,76.26870372542601 0 0,0 0.5834192180244184,1.1761375428139826 l -49.72143199705718 24.133147570321963" fill="red" stroke="none" /><path d="M 120.37134235888165 94.90015583598534 l 33.3716914144003 -8.354404079259226 a55.40153856119667,55.40153856119667 0 0,0 0.2236301564321368,0.9270913732950194 l -33.51055437109326 7.778727474304799" fill="red" stroke="none" /><path d="M 120.45610955862082 95.25157060432595 l 32.30388733205566 -7.498626645623893 a54.16278845833997,54.16278845833997 0 0,0 0.20299597463298147,0.9099911507690285 l -32.42817769369068 6.9414573253049" fill="red" stroke="none" /><path d="M 120.6074358757038 95.95851677861258 l 21.75599548112453 -4.266736105932083 a43.170439246266085,43.170439246266085 0 0,0 0.13673573880756135,0.7304477842747094 l -21.826216943841953 3.8916102441948115" fill="red" stroke="none" /><path d="M 120.67395015179393 96.31383870115 l 54.34044585639311 -9.688890947659969 a76.19745160482718,76.19745160482718 0 0,0 0.21911534568182894,1.293231173622694 l -54.499173063595165 8.752073985721438" fill="red" stroke="none" /><path d="M 120.73433829027371 96.67025291283417 l 49.215897714988806 -7.903627777482939 a70.84648352629542,70.84648352629542 0 0,0 0.18300020008815493,1.2057426712475101 l -49.34465380851626 7.055285993843346" fill="red" stroke="none" /><path d="M 120.78858239683441 97.02765380044208 l 54.623080015932274 -7.809994024326895 a76.17859074937454,76.17859074937454 0 0,0 0.17442721092217314,1.2996853234696824 l -54.74942322591228 6.868590358792548" fill="red" stroke="none" /><path d="M 120.83666639777658 97.38593545837742 l 49.402754976699484 -6.197823950228372 a70.79001125733785,70.79001125733785 0 0,0 0.1412754467936665,1.2103617526667296 l -49.50212077649674 5.34651845923679" fill="red" stroke="none" /><path d="M 120.94382443527127 98.46500227214037 l 49.76308391011401 -3.647195428389482 a70.89655854603515,70.89655854603515 0 0,0 0.07872694500544736,1.217870993863628 l -49.81849144612388 2.790065370272819" fill="red" stroke="none" /><line stroke="#e1ed5e" stroke-width="0.3" x1="184.98032266829074" x2="189.97916517819016" y1="98.17113171792111" y2="98.06355123074" /><path d="M 185.9800911702706 98.14961562048488 a86.0,86.0 0 0,1 -9.607161424134198,41.387399972396054" fill="none" id="id88" stroke="none" /><text fill="#e1ed5e" style="font-size:6.75px; font-family:Arial;" text-anchor="middle"><textPath startOffset="21.466115282336823" xlink:href="#id88">April</textPath></text><path d="M 120.99513854157772 99.54816195383933 l 55.18919465059938 -1.1877310469147153 a76.20197379823979,76.20197379823979 0 0,0 0.01693495568249577,1.3116309805852537 l -55.20146261339959 0.23756380826899873" fill="red" stroke="none" /><path d="M 120.99980553446 99.90962569577887 l 55.191535939296365 -0.23752108805124064 a76.19204703221209,76.19204703221209 0 0,0 -0.005644389242206011,1.311557278019226 l -55.187447252764656 -0.71254566817167" fill="red" stroke="none" /><path d="M 120.99824983174949 100.27111621757518 l 55.19340281599527 0.7126225626647611 a76.19800309182872,76.19800309182872 0 0,0 -0.028222061503611996,1.3113683016115818 l -55.17295869180665 -1.6625806800664578" fill="red" stroke="none" /><path d="M 120.9904718944345 100.63252640178507 l 57.973241540483706 1.746964339622191 a78.99955705964639,78.99955705964639 0 0,0 -0.05265834783498681,1.3588779755123606 l -57.934581059797516 -2.7446195621485576" fill="red" stroke="none" /><path d="M 120.95626037817324 101.35467743843564 l 55.09657285407045 3.5616127512079068 a76.21156967206656,76.21156967206656 0 0,0 -0.09589390192040917,1.3083961036441916 l -55.027102393485706 -4.509481991348869" fill="red" stroke="none" /><path d="M 120.92983693683757 101.71520430193887 l 55.00115917642344 4.507355939548006 a76.18553948559394,76.18553948559394 0 0,0 -0.11836114207458667,1.3061053399181703 l -54.915423438071784 -5.453442668014747" fill="red" stroke="none" /><path d="M 120.89721153311464 102.0752229133903 l 54.92376501026415 5.4542710379491695 a76.19392208801733,76.19392208801733 0 0,0 -0.14084155690785716,1.3040178975455743 l -54.82174115185524 -6.398885257379535" fill="red" stroke="none" /><path d="M 120.8583938346157 102.4346265915055 l 54.82798570980903 6.399614132621179 a76.20020903983487,76.20020903983487 0 0,0 -0.16328068580320237,1.3015077191513298 l -54.70970351475898 -7.342439606059903" fill="red" stroke="none" /><path d="M 120.81339534386255 102.79330883721812 l 54.6837953135529 7.3389625372688805 a76.17406855596192,76.17406855596192 0 0,0 -0.18559611931391712,1.2980588262107475 l -54.54936514322238 -8.279166835460037" fill="red" stroke="none" /><path d="M 120.70491114924044 103.5080841355445 l 31.559617134724252 5.347223728523271 a53.00940854332149,53.00940854332149 0 0,0 -0.16017312197948347,0.8983359302519267 l -31.46289757040558 -5.889678409508416" fill="red" stroke="none" /><line stroke="#e1ed5e" stroke-width="0.3" x1="174.80103733775053" x2="179.2010983576182" y1="140.37084112569926" y2="142.7455964860345" /><path d="M 175.68104954172406 140.8457921977663 a86.0,86.0 0 0,1 -30.038265399797805,32.042727171017184" fill="none" id="id89" stroke="none" /><text fill="#e1ed5e" style="font-size:6.75px; font-family:Arial;" text-anchor="middle"><textPath startOffset="22.206326154141568" xlink:href="#id89">May</textPath></text><line stroke="#e1ed5e" stroke-width="0.3" x1="143.8653032363475" x2="146.44561519142675" y1="172.8068346515853" y2="177.08958963109032" /><path d="M 144.38136562736335 173.6633856474863 a86.0,86.0 0 0,1 -40.68145358897372,12.25698825130547" fill="none" id="id90" stroke="none" /><text fill="#e1ed5e" style="font-size:6.75px; font-family:Arial;" text-anchor="middle"><textPath startOffset="21.466115282336833" xlink:href="#id90">June</textPath></text><line stroke="#e1ed5e" stroke-width="0.3" x1="102.19456741930631" x2="102.32365962044197" y1="184.97166512339345" y2="189.96999836594603" /><path d="M 102.22038585953345 185.97133177190398 a86.0,86.0 0 0,1 -42.740103519485714,-10.115201625700543" fill="none" id="id91" stroke="none" /><text fill="#e1ed5e" style="font-size:6.75px; font-family:Arial;" text-anchor="middle"><textPath startOffset="22.20632615414155" xlink:href="#id91">July</textPath></text><line stroke="#e1ed5e" stroke-width="0.3" x1="58.666819895761336" x2="56.23545636021788" y1="174.27360380694188" y2="178.64263932499728" /><path d="M 58.180547188652646 175.14741091055294 a86.0,86.0 0 0,1 -31.652253787137756,-30.449443065178592" fill="none" id="id92" stroke="none" /><text fill="#e1ed5e" style="font-size:6.75px; font-family:Arial;" text-anchor="middle"><textPath startOffset="22.20632615414155" xlink:href="#id92">August</textPath></text><line stroke="#e1ed5e" stroke-width="0.3" x1="26.63291911575756" x2="22.317208475507996" y1="142.92168965132927" y2="145.44649492493687" /><path d="M 25.769776987707644 143.4266507060508 a86.0,86.0 0 0,1 -11.730757126820373,-40.83630448921669" fill="none" id="id93" stroke="none" /><text fill="#e1ed5e" style="font-size:6.75px; font-family:Arial;" text-anchor="middle"><textPath startOffset="21.46611528233685" xlink:href="#id93">September</textPath></text><line stroke="#e1ed5e" stroke-width="0.3" x1="15.007084014347285" x2="10.007500721073583" y1="101.09737516637583" y2="101.16192664675087" /><path d="M 14.007167355692545 101.11028546245083 a86.0,86.0 0 0,1 10.666146001902534,-42.60595125391555" fill="none" id="id94" stroke="none" /><text fill="#e1ed5e" style="font-size:6.75px; font-family:Arial;" text-anchor="middle"><textPath startOffset="22.20632615414155" xlink:href="#id94">October</textPath></text><line stroke="#e1ed5e" stroke-width="0.3" x1="26.266209847984243" x2="21.928928074336255" y1="57.711370442889674" y2="55.22380399835377" /><path d="M 25.398753493254645 57.213857153982495 a86.0,86.0 0 0,1 29.58750427330803,-30.492523968695096" fill="none" id="id95" stroke="none" /><text fill="#e1ed5e" style="font-size:6.75px; font-family:Arial;" text-anchor="middle"><textPath startOffset="21.46611528233685" xlink:href="#id95">November</textPath></text><line stroke="#e1ed5e" stroke-width="0.3" x1="56.762969772571076" x2="54.21961505331055" y1="26.818313649435495" y2="22.513508569990535" /><path d="M 56.25429882871897 25.957352633546506 a86.0,86.0 0 0,1 42.265352541879196,-11.944610805530505" fill="none" id="id96" stroke="none" /><text fill="#e1ed5e" style="font-size:6.75px; font-family:Arial;" text-anchor="middle"><textPath startOffset="22.20632615414155" xlink:href="#id96">December</textPath></text></svg>