<?xml version="1.0" encoding="utf-8" ?>
<svg baseProfile="full" height="200mm" version="1.1" viewBox="0,0,200,200" width="200mm" xmlns="http://www.w3.org/2000/svg" xmlns:ev="http://www.w3.org/2001/xml-events" xmlns:xlink="http://www.w3.org/1999/xlink"><defs /><rect fill="#1a1a1a" height="200" width="200" x="0" y="0" /><rect fill="#1a1a1a" height="200" width="180" x="10" y="0" /><text alignment-baseline="middle" fill="#e1ed5e" style="dominant-baseline: central; font-size:9.0px; font-family:Arial;" text-anchor="middle" x="100.0" y="100.0">2025</text><line stroke="#e1ed5e" stroke-width="0.3" x1="100.0" x2="100.0" y1="15.0" y2="10.0" /><path d="M 100.0 14.0 a86.0,86.0 0 0,1 42.46469731375804,11.215312516191453" fill="none" id="id73" stroke="none" /><text fill="#e1ed5e" style="font-size:6.75px; font-family:Arial;" text-anchor="middle"><textPath startOffset="22.20632615414155" xlink:href="#id73">January</textPath></text><line stroke="#e1ed5e" stroke-width="0.3" x1="143.23703022742887" x2="145.7803849466894" y1="26.81831364943548" y2="22.513508569990506" /><path d="M 143.74570117128098 25.957352633546492 a86.0,86.0 0 0,1 28.547481713284135,27.462654790039103" fill="none" id="id74" stroke="none" /><text fill="#e1ed5e" style="font-size:6.75px; font-family:Arial;" text-anchor="middle"><textPath startOffset="19.985693538727396" xlink:href="#id74">February</textPath></text><line stroke="#e1ed5e" stroke-width="0.3" x1="172.23445277983987" x2="176.4835382374775" y1="55.19839476539836" y2="52.563006222186495" /><path d="M 173.08426987136738 54.67131705675599 a86.0,86.0 0 0,1 12.851231095245387,41.99856678651699" fill="none" id="id75" stroke="none" /><text fill="#e1ed5e" style="font-size:6.75px; font-family:Arial;" text-anchor="middle"><textPath startOffset="22.20632615414155" xlink:href="#id75">March</textPath></text><line stroke="#e1ed5e" stroke-width="0.3" x1="184.98032266829074" x2="189.97916517819016" y1="98.17113171792111" y2="98.06355123074" /><path d="M 185.9800911702706 98.14961562048488 a86.0,86.0 0 0,1 -9.607161424134198,41.387399972396054" fill="none" id="id76" stroke="none" /><text fill="#e1ed5e" style="font-size:6.75px; font-family:Arial;" text-anchor="middle"><textPath startOffset="21.466115282336823" xlink:href="#id76">April</textPath></text><line stroke="#e1ed5e" stroke-width="0.3" x1="174.80103733775053" x2="179.2010983576182" y1="140.37084112569926" y2="142.7455964860345" /><path d="M 175.68104954172406 140.8457921977663 a86.0,86.0 0 0,1 -30.038265399797805,32.042727171017184" fill="none" id="id77" stroke="none" /><text fill="#e1ed5e" style="font-size:6.75px; font-family:Arial;" text-anchor="middle"><textPath startOffset="22.206326154141568" xlink:href="#id77">May</textPath></text><line stroke="#e1ed5e" stroke-width="0.3" x1="143.8653032363475" x2="146.44561519142675" y1="172.8068346515853" y2="177.08958963109032" /><path d="M 144.38136562736335 173.6633856474863 a86.0,86.0 0 0,1 -40.68145358897372,12.25698825130547" fill="none" id="id78" stroke="none" /><text fill="#e1ed5e" style="font-size:6.75px; font-family:Arial;" text-anchor="middle"><textPath startOffset="21.466115282336833" xlink:href="#id78">June</textPath></text><line stroke="#e1ed5e" stroke-width="0.3" x1="102.19456741930631" x2="102.32365962044197" y1="184.97166512339345" y2="189.96999836594603" /><path d="M 102.22038585953345 185.97133177190398 a86.0,86.0 0 0,1 -42.740103519485714,-10.115201625700543" fill="none" id="id79" stroke="none" /><text fill="#e1ed5e" style="font-size:6.75px; font-family:Arial;" text-anchor="middle"><textPath startOffset="22.20632615414155" xlink:href="#id79">July</textPath></text><line stroke="#e1ed5e" stroke-width="0.3" x1="58.666819895761336" x2="56.23545636021788" y1="174.27360380694188" y2="178.64263932499728" /><path d="M 58.180547188652646 175.14741091055294 a86.0,86.0 0 0,1 -31.652253787137756,-30.449443065178592" fill="none" id="id80" stroke="none" /><text fill="#e1ed5e" style="font-size:6.75px; font-family:Arial;" text-anchor="middle"><textPath startOffset="22.20632615414155" xlink:href="#id80">August</textPath></text><line stroke="#e1ed5e" stroke-width="0.3" x1="26.63291911575756" x2="22.317208475507996" y1="142.92168965132927" y2="145.44649492493687" /><path d="M 25.769776987707644 143.4266507060508 a86.0,86.0 0 0,1 -11.730757126820373,-40.83630448921669" fill="none" id="id81" stroke="none" /><text fill="#e1ed5e" style="font-size:6.75px; font-family:Arial;" text-anchor="middle"><textPath startOffset="21.46611528233685" xlink:href="#id81">September</textPath></text><path d="M 79.58551787078972 104.9243191809786 l -30.360793943342124 7.323538212660117 a52.23158690848694,52.23158690848694 0 0,0 -0.20330382640232125,-0.8758275631857209 l 30.482358335675 -6.799841992125822" fill="red" stroke="none" /><path d="M 79.4281124754447 104.21870165774334 l -43.95885296825383 9.014694722023428 a65.87366126377293,65.87366126377293 0 0,0 -0.21823023948852036,-1.1127512895761356 l 44.10751314071801 -8.256679705379339" fill="red" stroke="none" /><path d="M 79.35854240842038 103.8639653848113 l -30.647604121018148 5.737060036851387 a52.179953435261666,52.179953435261666 0 0,0 -0.15766684209727735,-0.8842793816773171 l 30.741817405454615 -5.208661904440856" fill="red" stroke="none" /><path d="M 79.29508885075956 103.50808413554451 l -30.735983565764318 5.207673462601172 a52.1740364509958,52.1740364509958 0 0,0 -0.14240591606005462,-0.8867617752430366 l 30.821071236185663 -4.677832457664922" fill="red" stroke="none" /><path d="M 79.23777060512086 103.15116336523772 l -30.818546503769216 4.677449269321011 a52.17148280515474,52.17148280515474 0 0,0 -0.1271144489331871,-0.8890381597772046 l 30.894495003719 -4.146265637563405" fill="red" stroke="none" /><path d="M 79.10278846688536 102.07522291339032 l -37.20461658313267 3.6946495323010518 a58.38761733869173,58.38761733869173 0 0,0 -0.09071045657592637,-1.0009823295349267 l 37.26270163598567 -3.053685814217559" fill="red" stroke="none" /><path d="M 79.07016306316243 101.71520430193888 l -62.13554070053812 5.092019925166437 a83.34383758693815,83.34383758693815 0 0,0 -0.10486814300798206,-1.4308424932162953 l 62.21398540221044 -4.0217042954533815" fill="red" stroke="none" /><path d="M 79.04373962182676 101.35467743843564 l -31.11594292279032 2.0114307177180444 a52.180887695935226,52.180887695935226 0 0,0 -0.05022695972679775,-0.8968361064851039 l 31.14595623340465 -1.475522894897503" fill="red" stroke="none" /><path d="M 79.0235259727143 100.99374915477108 l -38.35422587512124 1.8170107853075 a59.397241706582825,59.397241706582825 0 0,0 -0.03959212849589799,-1.0216969128108047 l 38.37982013646834 -1.1565366254826985" fill="red" stroke="none" /><path d="M 79.0095281055655 100.63252640178507 l -33.25573320509878 1.002127506648525 a54.27082882268326,54.27082882268326 0 0,0 -0.020100719267405764,-0.9340014400965877 l 33.26805598705119 -0.4295362507618083" fill="red" stroke="none" /><line stroke="#e1ed5e" stroke-width="0.3" x1="15.007084014347285" x2="10.007500721073583" y1="101.09737516637583" y2="101.16192664675087" /><path d="M 14.007167355692545 101.11028546245083 a86.0,86.0 0 0,1 10.666146001902534,-42.60595125391555" fill="none" id="id82" stroke="none" /><text fill="#e1ed5e" style="font-size:6.75px; font-family:Arial;" text-anchor="middle"><textPath startOffset="22.20632615414155" xlink:href="#id82">October</textPath></text><path d="M 79.00175016825051 100.2711162175752 l -62.304699792177914 0.8044391642237421 a83.30989278246554,83.30989278246554 0 0,0 -0.006171686952995,-1.4340826958442536 l 62.309315776420405 0.26815300982418694" fill="red" stroke="none" /><path d="M 79.00486145842228 99.54816195383935 l -42.647719797322004 -0.9178249692550355 a63.65759494609464,63.65759494609464 0 0,0 0.033005873523422054,-1.0953042570072284 l 42.62560222934294 1.6517993736872583" fill="red" stroke="none" /><path d="M 79.01574976396665 99.18683210126434 l -40.02532647455974 -1.551035193510859 a61.0553675500126,61.0553675500126 0 0,0 0.049735096988487604,-1.0498292906361661 l 39.99269776933775 2.239775590770034" fill="red" stroke="none" /><path d="M 79.12142395522702 97.74499172005258 l -62.635728134318974 -6.7650248398422725 a84.0,84.0 0 0,0 0.16763858798564435,-1.436225046700553 l 62.50999919332974 7.842193624867687" fill="red" stroke="none" /><path d="M 79.16333360222342 97.38593545837743 l -31.00758484743675 -3.890057388435546 a52.25064582622751,52.25064582622751 0 0,0 0.11963905253033871,-0.8914499054672894 l 30.936029795848576 4.423225635967495" fill="red" stroke="none" /><path d="M 79.21141760316559 97.0276538004421 l -30.85488918388044 -4.4116241719999465 a52.168680023134065,52.168680023134065 0 0,0 0.13475444944313475,-0.887863454552431 l 30.774378840998004 4.94208673894447" fill="red" stroke="none" /><path d="M 79.26566170972629 96.67025291283419 l -30.785940110995107 -4.943943374278467 a52.18038942357599,52.18038942357599 0 0,0 0.150051265830457,-0.8856110648465212 l 30.696276983644424 5.473140227440816" fill="red" stroke="none" /><path d="M 79.3925641242962 95.95851677861259 l -35.71654027756448 -7.004646241698161 a57.396927320451404,57.396927320451404 0 0,0 0.19848596544414596,-0.967888058361511 l 35.59067501620534 7.618409956223075" fill="red" stroke="none" /><path d="M 79.62865764111835 94.90015583598534 l -60.51267174469188 -15.148986768245699 a83.38008690107216,83.38008690107216 0 0,0 0.36053417807570903,-1.389285259272929 l 60.242941234745864 16.188368453067493" fill="red" stroke="none" /><path d="M 79.71946130924805 94.55025226153421 l -30.119184910166528 -8.093570015645719 a52.18767665682974,52.18767665682974 0 0,0 0.2405932149422017,-0.8655418038286146 l 29.975404924657965 8.610823122893276" fill="red" stroke="none" /><path d="M 79.91906864156998 93.8553929516997 l -59.59349087457348 -18.235139472602278 a83.32097934245843,83.32097934245843 0 0,0 0.43146188526452967,-1.3678520838809858 l 59.270773505540745 19.25824172290968" fill="red" stroke="none" /><path d="M 80.14247586403 93.16781622104843 l -34.73713598123271 -11.951666046237438 a57.73569024068334,57.73569024068334 0 0,0 0.3314218850396915,-0.93697429875823 l 34.52626101538321 12.547837971422279" fill="red" stroke="none" /><path d="M 80.2630227832202 92.82701384747504 l -29.324161288769922 -10.657245055738755 a52.20069402221464,52.20069402221464 0 0,0 0.3141870572113547,-0.8418651093492793 l 29.136369643056938 11.160433302117376" fill="red" stroke="none" /><path d="M 80.38941819471856 92.48833698450439 l -29.10862581578803 -11.149806270075521 a52.17098453279551,52.17098453279551 0 0,0 0.32844479353609973,-0.8358561743631803 l 28.91238747237024 11.649211449334464" fill="red" stroke="none" /><line stroke="#e1ed5e" stroke-width="0.3" x1="26.266209847984243" x2="21.928928074336255" y1="57.711370442889674" y2="55.22380399835377" /><path d="M 25.398753493254645 57.213857153982495 a86.0,86.0 0 0,1 29.58750427330803,-30.492523968695096" fill="none" id="id83" stroke="none" /><text fill="#e1ed5e" style="font-size:6.75px; font-family:Arial;" text-anchor="middle"><textPath startOffset="21.46611528233685" xlink:href="#id83">November</textPath></text><line stroke="#e1ed5e" stroke-width="0.3" x1="56.762969772571076" x2="54.21961505331055" y1="26.818313649435495" y2="22.513508569990535" /><path d="M 56.25429882871897 25.957352633546506 a86.0,86.0 0 0,1 42.265352541879196,-11.944610805530505" fill="none" id="id84" stroke="none" /><text fill="#e1ed5e" style="font-size:6.75px; font-family:Arial;" text-anchor="middle"><textPath startOffset="22.20632615414155" xlink:href="#id84">December</textPath></text></svg>