<?xml version="1.0" encoding="utf-8" ?>
<svg baseProfile="full" height="200mm" version="1.1" viewBox="0,0,200,200" width="200mm" xmlns="http://www.w3.org/2000/svg" xmlns:ev="http://www.w3.org/2001/xml-events" xmlns:xlink="http://www.w3.org/1999/xlink"><defs /><rect fill="#1a1a1a" height="200" width="200" x="0" y="0" /><rect fill="#1a1a1a" height="200" width="180" x="10" y="0" /><text alignment-baseline="middle" fill="#e1ed5e" style="dominant-baseline: central; font-size:9.0px; font-family:Arial;" text-anchor="middle" x="100.0" y="100.0">2026</text><line stroke="#e1ed5e" stroke-width="0.3" x1="100.0" x2="100.0" y1="15.0" y2="10.0" /><path d="M 100.0 14.0 a86.0,86.0 0 0,1 42.46469731375804,11.215312516191453" fill="none" id="id85" stroke="none" /><text fill="#e1ed5e" style="font-size:6.75px; font-family:Arial;" text-anchor="middle"><textPath startOffset="22.20632615414155" xlink:href="#id85">January</textPath></text><path d="M 103.95276090670814 79.375362276772 l 0.5890141470409741 -3.073346373153975 a24.129280363724718,24.129280363724718 0 0,0 0.4072489274423495,0.08169030364593939 l -0.6418294839504489 3.0627521134308275" fill="#ff1b02" stroke="none" /><path d="M 104.307194497241 79.44645832069477 l 0.6418897614310977 -3.063039752104129 a24.129574250405348,24.129574250405348 0 0,0 0.4057873671242062,0.08868940137260693 l -0.6945198527088319 3.0515368526356514" fill="#ff1b02" stroke="none" /><path d="M 105.01212808612495 79.60689891045804 l 0.7470083159167145 -3.03939082151347 a24.129843125453583,24.129843125453583 0 0,0 0.4024985506795783,0.10260584257229745 l -0.7992157552813177 3.026081982772305" fill="#ff1b02" stroke="none" /><path d="M 105.36241919743992 79.69619591428918 l 0.7988932217425404 -3.024860769446511 a24.12858003801768,24.12858003801768 0 0,0 0.4006517518710191,0.10951325849395736 l -0.8508428628372703 3.01066097012626" fill="#ff1b02" stroke="none" /><line stroke="#e1ed5e" stroke-width="0.3" x1="143.23703022742887" x2="145.7803849466894" y1="26.81831364943548" y2="22.513508569990506" /><path d="M 143.74570117128098 25.957352633546492 a86.0,86.0 0 0,1 28.547481713284135,27.462654790039103" fill="none" id="id86" stroke="none" /><text fill="#e1ed5e" style="font-size:6.75px; font-family:Arial;" text-anchor="middle"><textPath startOffset="19.985693538727396" xlink:href="#id86">February</textPath></text><path d="M 111.2981086023043 82.29822771554956 l 1.3484881477341448 -2.112798784267456 a23.506459452570798,23.506459452570798 0 0,0 0.3392015391044643,0.22062611653819697 l -1.3846567126228893 2.089273743569731" fill="#ff1202" stroke="none" /><path d="M 115.68641384162765 86.03803664274999 l 2.6678517500904415 -2.3745674921880733 a24.571554806441725,24.571554806441725 0 0,0 0.27848714135599817,0.3183589439399753 l -2.7083307550242877 2.3282929920451503" fill="#ff2203" stroke="none" /><path d="M 116.60985879189232 87.15038557335679 l 1.4370849921702866 -1.1117486475392229 a22.816920012005582,22.816920012005582 0 0,0 0.2376480655527395,0.3127169974742818 l -1.4560089979471396 1.0868468741839075" fill="#ff0801" stroke="none" /><line stroke="#e1ed5e" stroke-width="0.3" x1="172.23445277983987" x2="176.4835382374775" y1="55.19839476539836" y2="52.563006222186495" /><path d="M 173.08426987136738 54.67131705675599 a86.0,86.0 0 0,1 12.851231095245387,41.99856678651699" fill="none" id="id87" stroke="none" /><text fill="#e1ed5e" style="font-size:6.75px; font-family:Arial;" text-anchor="middle"><textPath startOffset="22.20632615414155" xlink:href="#id87">March</textPath></text><path d="M 118.56541770881063 90.18545643968196 l 2.76571565207492 -1.462085969111313 a24.128398703682823,24.128398703682823 0 0,0 0.1909482027382744,0.36885115009811054 l -2.7904732879733105 1.4142620967528576" fill="#ff1b02" stroke="none" /><path d="M 118.73160827565052 90.50648371742162 l 2.7948069879014676 -1.416458493892192 a24.13325721327538,24.13325721327538 0 0,0 0.18460791076822036,0.37215828318132316 l -2.8187749116230965 1.368140622211919" fill="#ff1b02" stroke="none" /><path d="M 120.37134235888165 94.90015583598534 l 1.8918861090506578 -0.4736224134005498 a22.9502695301148,22.9502695301148 0 0,0 0.09263952768225099,0.3840506500133087 l -1.8997584369937282 0.440986531727835" fill="#ff0a01" stroke="none" /><path d="M 120.45610955862082 95.25157060432595 l 1.8313508582151663 -0.4251072386966672 a22.88004311926023,22.88004311926023 0 0,0 0.08575180091053278,0.38440850924348324 l -1.8383970461277366 0.3935205599032201" fill="#ff0901" stroke="none" /><path d="M 120.6074358757038 95.95851677861258 l 1.233376670310075 -0.2418870134438123 a22.25687204525279,22.25687204525279 0 0,0 0.07049522533908947,0.3765883126089983 l -1.237357619559024 0.22062062337225122" fill="#ff0000" stroke="none" /><path d="M 120.67395015179393 96.31383870115 l 3.0806330251204326 -0.5492762703683286 a24.129217834643732,24.129217834643732 0 0,0 0.06938659752415095,0.4095236263376177 l -3.0896314841648067 0.4961668557148731" fill="#ff1b02" stroke="none" /><path d="M 120.73433829027371 96.67025291283417 l 2.790115492655755 -0.44806729804754786 a23.825864251151724,23.825864251151724 0 0,0 0.06154346282572617,0.4054945253041612 l -2.797414848920781 0.3999736603513045" fill="#ff1702" stroke="none" /><path d="M 120.78858239683441 97.02765380044208 l 3.0966559360881574 -0.4427590745375537 a24.128148587358883,24.128148587358883 0 0,0 0.05524656759082061,0.41165109898995556 l -3.1038185027368144 0.38938963348293376" fill="#ff1b02" stroke="none" /><path d="M 120.83666639777658 97.38593545837742 l 2.800708682357046 -0.3513629828399648 a23.82266276220528,23.82266276220528 0 0,0 0.04754282794659861,0.4073179159307222 l -2.8063418633072335 0.3031013285843899" fill="#ff1702" stroke="none" /><path d="M 120.94382443527127 98.46500227214037 l 2.8211362146433427 -0.20676441844915464 a23.828703071428457,23.828703071428457 0 0,0 0.026460536797951455,0.4093327925535083 l -2.8242773424457095 0.15817256164261106" fill="#ff1702" stroke="none" /><line stroke="#e1ed5e" stroke-width="0.3" x1="184.98032266829074" x2="189.97916517819016" y1="98.17113171792111" y2="98.06355123074" /><path d="M 185.9800911702706 98.14961562048488 a86.0,86.0 0 0,1 -9.607161424134198,41.387399972396054" fill="none" id="id88" stroke="none" /><text fill="#e1ed5e" style="font-size:6.75px; font-family:Arial;" text-anchor="middle"><textPath startOffset="21.466115282336823" xlink:href="#id88">April</textPath></text><path d="M 120.99513854157772 99.54816195383933 l 3.1287497367935897 -0.06733407189473513 a24.12947420387577,24.12947420387577 0 0,0 0.005362480207750211,0.41533000175078444 l -3.129445224119056 0.013467812083487981" fill="#ff1b02" stroke="none" /><path d="M 120.99980553446 99.90962569577887 l 3.1288824676015126 -0.013465390216836149 a24.128911442146904,24.128911442146904 0 0,0 -0.0017874958538995093,0.4153510851237508 l -3.1286506744581097 -0.04039517311059937" fill="#ff1b02" stroke="none" /><path d="M 120.99824983174949 100.27111621757518 l 3.128988303354639 0.040399532362922985 a24.129249099184225,24.129249099184225 0 0,0 -0.008936942235775963,0.4152645886563036 l -3.127829298433855 -0.09425393680934147" fill="#ff1b02" stroke="none" /><path d="M 120.9904718944345 100.63252640178507 l 3.2865811026812963 0.09903776006126873 a24.288072964886844,24.288072964886844 0 0,0 -0.016189581841084256,0.4177811705286245 l -3.284389387989009 -0.15559617760389943" fill="#ff1e03" stroke="none" /><path d="M 120.95626037817324 101.35467743843564 l 3.1234988824670182 0.2019126212739801 a24.130018206880344,24.130018206880344 0 0,0 -0.03036181526276031,0.41426284668582847 l -3.1195605085399203 -0.25564860445657883" fill="#ff1b02" stroke="none" /><path d="M 120.92983693683757 101.71520430193887 l 3.118089752641614 0.25552807571803726 a24.12854252056909,24.12854252056909 0 0,0 -0.037485878141872424,0.41365354164771706 l -3.1132292782226663 -0.3091630059143249" fill="#ff1b02" stroke="none" /><path d="M 120.89721153311464 102.0752229133903 l 3.1137021731791252 0.3092099673210042 a24.12901774158458,24.12901774158458 0 0,0 -0.04460156836993334,0.4129551297920296 l -3.10791830330814 -0.3627614189978252" fill="#ff1b02" stroke="none" /><path d="M 120.8583938346157 102.4346265915055 l 3.1082723157045513 0.36280273991643763 a24.129374157346195,24.129374157346195 0 0,0 -0.051704067614223075,0.41213229097126813 l -3.10156673884348 -0.41625278517510067" fill="#ff1b02" stroke="none" /><path d="M 120.81339534386255 102.79330883721812 l 3.100097968041196 0.41605566546473693 a24.127892218126842,24.127892218126842 0 0,0 -0.05878697630045807,0.41115597532501597 l -3.0924769407241364 -0.46935711277016223" fill="#ff1b02" stroke="none" /><path d="M 120.70491114924044 103.5080841355445 l 1.7891571788410325 0.3031413112496275 a22.814656459273916,22.814656459273916 0 0,0 -0.0689367199595304,0.3866337353485167 l -1.7836740165423133 -0.3338937973313626" fill="#ff0801" stroke="none" /><path d="M 120.64145759157962 103.86396538481128 l 3.0751152201669445 0.5756443658261099 a24.128530014752894,24.128530014752894 0 0,0 -0.079934450015479,0.40758403851250785 l -3.0647508371758017 -0.6284921314065627" fill="#ff1b02" stroke="none" /><path d="M 120.5718875245553 104.21870165774334 l 3.0644384400221187 0.6284280677474287 a24.128211116439868,24.128211116439868 0 0,0 -0.08693734704690481,0.40614234247003145 l -3.053167054250771 -0.6810842296336292" fill="#ff1b02" stroke="none" /><path d="M 120.49622156327973 104.57218783832717 l 3.055809611802407 0.6816737172844319 a24.13091862564653,24.13091862564653 0 0,0 -0.09392607771601091,0.404631084526735 l -3.0436229681558435 -0.7341734591597319" fill="#ff1b02" stroke="none" /><path d="M 120.41448212921028 104.9243191809786 l 3.0426625547682247 0.7339417911685291 a24.129930666166963,24.129930666166963 0 0,0 -0.10087309044448116,0.4029378534236096 l -3.0295781500286827 -0.7862074839895347" fill="#ff1b02" stroke="none" /><path d="M 120.32669344350535 105.2749913415812 l 3.6341610358287038 0.943103119609123 a24.75453990903706,24.75453990903706 0 0,0 -0.11058433372100064,0.4115254441577417 l -3.617388625765926 -1.005519496942413" fill="#ff2403" stroke="none" /><path d="M 120.23288151984713 105.62410040840565 l 3.014746562415428 0.8380040853937779 a24.129049006125072,24.129049006125072 0 0,0 -0.11467889313082986,0.39921227144579774 l -2.999875032398499 -0.8897738323441576" fill="#ff1b02" stroke="none" /><path d="M 120.02730092923936 106.31721596034902 l 2.984305399614936 0.9413401120606846 a24.129249099184225,24.129249099184225 0 0,0 -0.1283535286446724,0.39503154204806334 l -2.9676596199540164 -0.9925705540865432" fill="#ff1b02" stroke="none" /><path d="M 119.9155931802556 106.66101706037122 l 2.9700494171290246 0.9933698513813553 a24.13176902114793,24.13176902114793 0 0,0 -0.1351484429736711,0.39280463686535033 l -2.952510143212123 -1.044347191336006" fill="#ff1b02" stroke="none" /><path d="M 119.54520255179757 107.68017299344265 l 2.914038350215386 1.145054321124038 a24.130937384370828,24.130937384370828 0 0,0 -0.15523935981652642,0.385291359977382 l -2.8938963761414676 -1.1950450489442335" fill="#ff1b02" stroke="none" /><path d="M 119.12269723197855 108.67885076344098 l 1.710062809680936 0.776113314000101 a22.877942142139123,22.877942142139123 0 0,0 -0.16583826230968082,0.3572008633506372 l -1.6964499305314238 -0.8054342446295688" fill="#ff0901" stroke="none" /><path d="M 118.81262510543309 109.33194174019688 l 2.804783116145636 1.3913035786908787 a24.130899866922235,24.130899866922235 0 0,0 -0.18778589311937022,0.37051938237681376 l -2.7804185532399965 -1.4393771727703868" fill="#ff1b02" stroke="none" /><line stroke="#e1ed5e" stroke-width="0.3" x1="174.80103733775053" x2="179.2010983576182" y1="140.37084112569926" y2="142.7455964860345" /><path d="M 175.68104954172406 140.8457921977663 a86.0,86.0 0 0,1 -30.038265399797805,32.042727171017184" fill="none" id="id89" stroke="none" /><text fill="#e1ed5e" style="font-size:6.75px; font-family:Arial;" text-anchor="middle"><textPath startOffset="22.206326154141568" xlink:href="#id89">May</textPath></text><path d="M 118.12598468904814 110.60418214915192 l 4.378987150798483 2.5618237117854172 a26.073309491557186,26.073309491557186 0 0,0 -0.22996550246072964,0.3854354097151705 l -4.334240772639527 -2.636821215386692" fill="#ff3705" stroke="none" /><path d="M 117.94076556474637 110.91462005526583 l 2.6140853601495544 1.590330601840651 a24.05983556638246,24.05983556638246 0 0,0 -0.2182975923414402,0.3519652263209983 l -2.5863231281401515 -1.6350921595269226" fill="#ff1a02" stroke="none" /><path d="M 117.55443506779139 111.5257021239791 l 1.6876772968182263 1.1080770032992269 a23.01893271394474,23.01893271394474 0 0,0 -0.22032066629821215,0.3293495026152732 l -1.6683535251092931 -1.1369634201203072" fill="#ff0b01" stroke="none" /><path d="M 117.35343817320211 111.8261652097733 l 2.585671781523159 1.7621050861127006 a24.12901148867648,24.12901148867648 0 0,0 -0.23685393044524586,0.341205752207251 l -2.5549569439157773 -1.8063521005069711" fill="#ff1b02" stroke="none" /><path d="M 117.14729908036423 112.12312394758627 l 2.5552734996342443 1.8065759050952803 a24.129399168978587,24.129399168978587 0 0,0 -0.24269603344398163,0.33708356365874853 l -2.52379767381466 -1.85029307420516" fill="#ff1b02" stroke="none" /><path d="M 116.93607887273984 112.41649034213515 l 2.523283303625921 1.8499159696505136 a24.12876137235254,24.12876137235254 0 0,0 -0.2484558473987574,0.33284720966493697 l -2.491066189532072 -1.8930760588247657" fill="#ff1b02" stroke="none" /><path d="M 116.71984013943494 112.70617746262583 l 11.200251659148453 8.511587671915338 a35.0674362243075,35.0674362243075 0 0,0 -0.3693656109741418,0.47745484316950404 l -11.052079230956243 -8.703120509198094" fill="#ffb110" stroke="none" /><path d="M 116.498646956653 112.99209946851258 l 7.518512546318563 5.9205620384307345 a30.569800716841325,30.569800716841325 0 0,0 -0.32910877972050046,0.4106138054895519 l -7.415485854543209 -6.049103677498536" fill="#ff760a" stroke="none" /><path d="M 116.27256486870786 113.27417163493432 l 7.359765149519837 6.003650105300945 a30.497892273708246,30.497892273708246 0 0,0 -0.3353373962292872,0.40393549608042206 l -7.255331753397006 -6.129446858495138" fill="#ff750a" stroke="none" /><path d="M 116.0416608686014 113.55231037782055 l 3.320955634565665 2.805608588740215 a25.34743440203142,25.34743440203142 0 0,0 -0.2844434657143825,0.3308720117665587 l -3.272169659280504 -2.862357699668302" fill="#ff2d04" stroke="none" /><path d="M 115.80600337817218 113.82643327865902 l 2.35547495265694 2.0604713597264763 a24.129505468416262,24.129505468416262 0 0,0 -0.27615776674742265,0.3102661784691145 l -2.319658336261179 -2.1007117079364575" fill="#ff1b02" stroke="none" /><path d="M 115.56566222782051 114.09645910891815 l 6.687301975587369 6.056104614641516 a30.021995944145452,30.021995944145452 0 0,0 -0.3501902736026807,0.38006237857668973 l -6.582065293988967 -6.17031824801954" fill="#ff6e0a" stroke="none" /><path d="M 115.32070863581623 114.36230785411682 l 16.099612151966102 15.092486356529314 a43.067638203164336,43.067638203164336 0 0,0 -0.511671122822406,0.5364851266451014 l -15.837434477764731 -15.367378599756922" fill="#e9ff1a" stroke="none" /><path d="M 115.07121518719521 114.62390073753431 l 9.998660031853868 9.701899282707709 a34.931979476169076,34.931979476169076 0 0,0 -0.4224430320638456,0.42793256115794365 l -9.830176374734487 -9.872572337846318" fill="#ffb010" stroke="none" /><path d="M 114.29624159901734 115.38237550388516 l 2.2164589712907197 2.384850867915688 a24.255795453282243,24.255795453282243 0 0,0 -0.3082801302152678,0.2816065897003087 l -2.175079291608588 -2.4226502242025796" fill="#ff1d02" stroke="none" /><path d="M 113.75828350139079 115.86535959552629 l 2.0505161375456087 2.3645519352252133 a24.12981186091309,24.12981186091309 0 0,0 -0.3161402041256112,0.26942154047110317 l -2.00951045684295 -2.399497865919263" fill="#ff1b02" stroke="none" /><path d="M 113.48314897796784 116.09983520530334 l 21.117759377445093 25.216100959626008 a53.890903130344746,53.890903130344746 0 0,0 -0.7163124220658872,0.5894763570588168 l -20.680576826834514 -25.575872435542003" fill="#6fff27" stroke="none" /><path d="M 113.20401910651253 116.32954008644616 l 11.101962422380952 13.729905943946434 a38.656836830462424,38.656836830462424 0 0,0 -0.5210251438147777,0.4139338854765989 l -10.863979785848823 -13.91897374342816" fill="#ffdf14" stroke="none" /><path d="M 112.63410532772338 116.77436683061366 l 7.154020234257614 9.49842957694372 a32.89118034260378,32.89118034260378 0 0,0 -0.4551748261063874,0.33672745466028037 l -6.989460437732663 -9.620166980343768" fill="#ff950d" stroke="none" /><path d="M 112.34349029814194 116.9893568818739 l 7.416556479054933 10.20801424992455 a33.617799528193274,33.617799528193274 0 0,0 -0.4710856999524734,0.3361071388149941 l -7.239743451253576 -10.334165650583765" fill="#ff9e0e" stroke="none" /><path d="M 112.04921762599082 117.19931262002967 l 6.966572527104643 9.94423559296697 a33.141703105571324,33.141703105571324 0 0,0 -0.47004895723175366,0.3233039589192262 l -6.794366685250006 -10.06268034125129" fill="#ff980e" stroke="none" /><path d="M 111.7513745106137 117.40417183066458 l 1.9820741592640692 2.9355169659340854 a24.542016068584278,24.542016068584278 0 0,0 -0.3521490659711809,0.23338519882404485 l -1.9312503945529242 -2.969200185849449" fill="#ff2103" stroke="none" /><path d="M 111.45004920935366 117.60387380957326 l 3.522477247066714 5.415631306090757 a27.46041085377803,27.46041085377803 0 0,0 -0.39846128144829296,0.2543168423633285 l -3.4287341635714905 -5.475462577277894" fill="#ff4b06" stroke="none" /><line stroke="#e1ed5e" stroke-width="0.3" x1="143.8653032363475" x2="146.44561519142675" y1="172.8068346515853" y2="177.08958963109032" /><path d="M 144.38136562736335 173.6633856474863 a86.0,86.0 0 0,1 -40.68145358897372,12.25698825130547" fill="none" id="id90" stroke="none" /><text fill="#e1ed5e" style="font-size:6.75px; font-family:Arial;" text-anchor="middle"><textPath startOffset="21.466115282336833" xlink:href="#id90">June</textPath></text><path d="M 110.8373102113329 117.98757091392108 l 1.9698489765541016 3.2695196007611362 a24.817075242930443,24.817075242930443 0 0,0 -0.36780338870028917,0.21730472510302348 l -1.9132777168254302 -3.302942898157909" fill="#ff2503" stroke="none" /><path d="M 110.5260780823613 118.17145234162733 l 5.28427755382783 9.122390787716142 a31.54237178957833,31.54237178957833 0 0,0 -0.472161117442092,0.2681054051318358 l -5.126467669464539 -9.211999358642606" fill="#ff830c" stroke="none" /><path d="M 109.89434966115114 118.52300852407294 l 5.749724626044258 10.763941229756277 a33.20335052651471,33.20335052651471 0 0,0 -0.5064445352497302,0.26494784479572925 l -5.563589188268032 -10.861318493496723" fill="#ff990e" stroke="none" /><path d="M 109.57404056367764 118.69057910512821 l 4.127501918617918 8.057768358447724 a30.053391795708166,30.053391795708166 0 0,0 -0.4624588628410514,0.2318864743170124 l -3.988189148094106 -8.127622673674038" fill="#ff6e0a" stroke="none" /><path d="M 109.2508944713604 118.85261126421891 l 17.093402008527068 34.83503830331664 a59.80289017352515,59.80289017352515 0 0,0 -0.9280478249773909,0.4455193533625949 l -16.491241515549444 -35.124111933178796" fill="#33ff2f" stroke="none" /><path d="M 108.92500713936063 119.00905698771935 l 4.629062520151072 9.85927651051394 a31.891903099377966,31.891903099377966 0 0,0 -0.4989290878109472,0.22903387328757166 l -4.458665436572705 -9.937497454135586" fill="#ff870c" stroke="none" /><path d="M 108.59647513512805 119.15986991738527 l 1.2818854465119478 2.85707316290544 a24.1314688815592,24.1314688815592 0 0,0 -0.3804490684201918,0.1667776912279078 l -1.2325157034340022 -2.8787154074278023" fill="#ff1b02" stroke="none" /><path d="M 108.2653958097858 119.30500536409082 l 5.289917568958062 12.35535349963841 a34.44016324258743,34.44016324258743 0 0,0 -0.5469893990937796,0.2286416131833537 l -5.076456710366821 -12.444580155841736" fill="#ffa90f" stroke="none" /><path d="M 107.93186726928326 119.44442032107085 l 5.1431768031115155 12.608139817538635 a34.61680789637085,34.61680789637085 0 0,0 -0.5536693422427842,0.22031645771137504 l -4.925386384826865 -12.694803119656079" fill="#ffab0f" stroke="none" /><path d="M 107.59598834532513 119.57807347666477 l 1.1327292182536959 2.919522102450868 a24.131562675180678,24.131562675180678 0 0,0 -0.38855237905087786,0.14691726265158864 l -1.0823066184425432 -2.9385876152090877" fill="#ff1b02" stroke="none" /><path d="M 106.57524785965236 119.94407469862006 l 1.9870658206735097 6.027177986972876 a27.346282775163687,27.346282775163687 0 0,0 -0.44832102145695907,0.14353823355928536 l -1.8830234541256103 -6.060489067191868" fill="#ff4906" stroke="none" /><path d="M 106.2309692047433 120.05430185196036 l 2.3799147183607094 7.659727816917544 a29.020936622111556,29.020936622111556 0 0,0 -0.47832725857601754,0.1441160792306207 l -2.247712485344446 -7.69955926525389" fill="#ff6008" stroke="none" /><path d="M 104.48393922423573 120.51570834832081 l 6.718008891898332 30.737417305450617 a52.46300154278101,52.46300154278101 0 0,0 -0.8838979954704588,0.18522941893006928 l -6.187919434998496 -30.848502705107226" fill="#7eff26" stroke="none" /><path d="M 102.70371172650421 120.8252237178851 l 1.3277609694948598 10.227021972256635 a31.312852544913746,31.312852544913746 0 0,0 -0.5351106706859686,0.0647944500685846 l -1.1515228757575109 -10.24836195105057" fill="#ff800b" stroke="none" /><path d="M 101.98527174616119 120.90594882070398 l 5.955815238483573 62.71784646211194 a84.0,84.0 0 0,0 -1.4406227290338331,0.12430299088534635 l -4.8753481917081976 -62.81107370527595" fill="#4dd2ff" stroke="none" /><path d="M 101.26447882468166 120.96189622390904 l 0.7298902994747144 12.099755578175577 a33.12175007582891,33.12175007582891 0 0,0 -0.5693974748762369,0.02943134556138198 l -0.5215047561849979 -12.110526730499162" fill="#ff980e" stroke="none" /><path d="M 100.90346689309514 120.98055641714683 l 0.5138157960599581 11.93197158594933 a32.94302945655678,32.94302945655678 0 0,0 -0.5667450522303049,0.01951984552300315 l -0.3083503921550009 -11.939048229898427" fill="#ff950d" stroke="none" /><line stroke="#e1ed5e" stroke-width="0.3" x1="102.19456741930631" x2="102.32365962044197" y1="184.97166512339345" y2="189.96999836594603" /><path d="M 102.22038585953345 185.97133177190398 a86.0,86.0 0 0,1 -42.740103519485714,-10.115201625700543" fill="none" id="id91" stroke="none" /><text fill="#e1ed5e" style="font-size:6.75px; font-family:Arial;" text-anchor="middle"><textPath startOffset="22.20632615414155" xlink:href="#id91">July</textPath></text><path d="M 100.54218724476979 120.99299961872073 l 0.2529826537702759 9.79525948899311 a30.798525842177394,30.798525842177394 0 0,0 -0.5300870824402513,0.009125929848635105 l -0.08433588143735664 -9.798162896120905" fill="#ff790b" stroke="none" /><path d="M 100.18074693466247 120.99922214144158 l 0.06722678982121624 7.81042453609536 a28.81071385183903,28.81071385183903 0 0,0 -0.495947448967338,0.0 l 0.06722678982121086 -7.81042453609536" fill="#ff5d08" stroke="none" /><path d="M 99.09653310690486 120.98055641714683 l -0.4844004526664738 11.24888039986013 a32.259305220523196,32.259305220523196 0 0,0 -0.554571147109519,-0.028664993768193908 l 0.6779596681894817 -11.238875599329734" fill="#ff8c0c" stroke="none" /><path d="M 98.73552117531835 120.96189622390904 l -0.7640569025807622 12.666152400845148 a33.68917647413797,33.68917647413797 0 0,0 -0.5785510283459304,-0.03990026622832527 l 0.9819706917056226 -12.651123790100538" fill="#ff9f0e" stroke="none" /><path d="M 98.01472825383883 120.90594882070398 l -1.1980748897575264 12.616354600861756 a33.67311275323285,33.67311275323285 0 0,0 -0.5765597008041436,-0.0597627703987317 l 1.4150671871672633 -12.593862462007264" fill="#ff9f0e" stroke="none" /><line stroke="#e1ed5e" stroke-width="0.3" x1="58.666819895761336" x2="56.23545636021788" y1="174.27360380694188" y2="178.64263932499728" /><path d="M 58.180547188652646 175.14741091055294 a86.0,86.0 0 0,1 -31.652253787137756,-30.449443065178592" fill="none" id="id92" stroke="none" /><text fill="#e1ed5e" style="font-size:6.75px; font-family:Arial;" text-anchor="middle"><textPath startOffset="22.20632615414155" xlink:href="#id92">August</textPath></text><line stroke="#e1ed5e" stroke-width="0.3" x1="26.63291911575756" x2="22.317208475507996" y1="142.92168965132927" y2="145.44649492493687" /><path d="M 25.769776987707644 143.4266507060508 a86.0,86.0 0 0,1 -11.730757126820373,-40.83630448921669" fill="none" id="id93" stroke="none" /><text fill="#e1ed5e" style="font-size:6.75px; font-family:Arial;" text-anchor="middle"><textPath startOffset="21.46611528233685" xlink:href="#id93">September</textPath></text><line stroke="#e1ed5e" stroke-width="0.3" x1="15.007084014347285" x2="10.007500721073583" y1="101.09737516637583" y2="101.16192664675087" /><path d="M 14.007167355692545 101.11028546245083 a86.0,86.0 0 0,1 10.666146001902534,-42.60595125391555" fill="none" id="id94" stroke="none" /><text fill="#e1ed5e" style="font-size:6.75px; font-family:Arial;" text-anchor="middle"><textPath startOffset="22.20632615414155" xlink:href="#id94">October</textPath></text><line stroke="#e1ed5e" stroke-width="0.3" x1="26.266209847984243" x2="21.928928074336255" y1="57.711370442889674" y2="55.22380399835377" /><path d="M 25.398753493254645 57.213857153982495 a86.0,86.0 0 0,1 29.58750427330803,-30.492523968695096" fill="none" id="id95" stroke="none" /><text fill="#e1ed5e" style="font-size:6.75px; font-family:Arial;" text-anchor="middle"><textPath startOffset="21.46611528233685" xlink:href="#id95">November</textPath></text><line stroke="#e1ed5e" stroke-width="0.3" x1="56.762969772571076" x2="54.21961505331055" y1="26.818313649435495" y2="22.513508569990535" /><path d="M 56.25429882871897 25.957352633546506 a86.0,86.0 0 0,1 42.265352541879196,-11.944610805530505" fill="none" id="id96" stroke="none" /><text fill="#e1ed5e" style="font-size:6.75px; font-family:Arial;" text-anchor="middle"><textPath startOffset="22.20632615414155" xlink:href="#id96">December</textPath></text></svg>