<?xml version="1.0" encoding="utf-8" ?>
<svg baseProfile="full" height="200mm" version="1.1" viewBox="0,0,200,200" width="200mm" xmlns="http://www.w3.org/2000/svg" xmlns:ev="http://www.w3.org/2001/xml-events" xmlns:xlink="http://www.w3.org/1999/xlink"><defs /><rect fill="#1a1a1a" height="200" width="200" x="0" y="0" /><rect fill="#1a1a1a" height="200" width="180" x="10" y="0" /><text alignment-baseline="middle" fill="#e1ed5e" style="dominant-baseline: central; font-size:9.0px; font-family:Arial;" text-anchor="middle" x="100.0" y="100.0">2026</text><line stroke="#e1ed5e" stroke-width="0.3" x1="100.0" x2="100.0" y1="15.0" y2="10.0" /><path d="M 100.0 14.0 a86.0,86.0 0 0,1 42.46469731375804,11.215312516191453" fill="none" id="id85" stroke="none" /><text fill="#e1ed5e" style="font-size:6.75px; font-family:Arial;" text-anchor="middle"><textPath startOffset="22.20632615414155" xlink:href="#id85">January</textPath></text><path d="M 103.95276090670814 79.375362276772 l 1.1282113816250328 -5.886759045240938 a26.99389631027717,26.99389631027717 0 0,0 0.4555973138916026,0.09138853512965475 l -1.2293751049837607 5.866466554034075" fill="#ff3505" stroke="none" /><path d="M 104.307194497241 79.44645832069477 l 1.229490561870603 -5.867017503831534 a26.994459227653024,26.994459227653024 0 0,0 0.4539661754184096,0.09921942278934215 l -1.3302994614425405 5.844984582946322" fill="#ff3505" stroke="none" /><path d="M 105.01212808612495 79.60689891045804 l 1.4308370833190847 -5.821719792749932 a26.99497423716711,26.99497423716711 0 0,0 0.4502904535931612,0.11478906275607738 l -1.530836425597271 5.796227733824987" fill="#ff3505" stroke="none" /><path d="M 105.36241919743992 79.69619591428918 l 1.5302186373637738 -5.793888593448686 a26.99255489014746,26.99255489014746 0 0,0 0.4482076602590126,0.12251208469124276 l -1.6297241868464973 5.766689967931149" fill="#ff3505" stroke="none" /><line stroke="#e1ed5e" stroke-width="0.3" x1="143.23703022742887" x2="145.7803849466894" y1="26.81831364943548" y2="22.513508569990506" /><path d="M 143.74570117128098 25.957352633546492 a86.0,86.0 0 0,1 28.547481713284135,27.462654790039103" fill="none" id="id86" stroke="none" /><text fill="#e1ed5e" style="font-size:6.75px; font-family:Arial;" text-anchor="middle"><textPath startOffset="19.985693538727396" xlink:href="#id86">February</textPath></text><path d="M 111.2981086023043 82.29822771554956 l 2.5829255271763256 -4.0469038773838815 a25.800930667248153,25.800930667248153 0 0,0 0.37231108369665644,0.24216148534285895 l -2.6522036366572626 4.0018434678814945" fill="#ff2303" stroke="none" /><path d="M 115.68641384162765 86.03803664274999 l 5.1100652234944 -4.5483017421261245 a27.8410390530821,27.8410390530821 0 0,0 0.31554256290859145,0.3607196964518977 l -5.18759964998084 4.459666489471279" fill="#ff4106" stroke="none" /><path d="M 116.60985879189232 87.15038557335679 l 2.752625981352285 -2.129469188407688 a24.480170802933863,24.480170802933863 0 0,0 0.25497154009641987,0.3355126593389042 l -2.788873461672818 2.08177175318775" fill="#ff1001" stroke="none" /><line stroke="#e1ed5e" stroke-width="0.3" x1="172.23445277983987" x2="176.4835382374775" y1="55.19839476539836" y2="52.563006222186495" /><path d="M 173.08426987136738 54.67131705675599 a86.0,86.0 0 0,1 12.851231095245387,41.99856678651699" fill="none" id="id87" stroke="none" /><text fill="#e1ed5e" style="font-size:6.75px; font-family:Arial;" text-anchor="middle"><textPath startOffset="22.20632615414155" xlink:href="#id87">March</textPath></text><path d="M 118.56541770881063 90.18545643968196 l 5.297516014997115 -2.8005134334250585 a26.992207558149595,26.992207558149595 0 0,0 0.21361191782612726,0.4126302339322147 l -5.344937365983359 2.7089104772324992" fill="#ff3505" stroke="none" /><path d="M 118.73160827565052 90.50648371742162 l 5.35323823550925 -2.71311750734139 a27.00151366029942,27.00151366029942 0 0,0 0.20654870498232727,0.4163895854715519 l -5.399146953444985 2.620568333370888" fill="#ff3505" stroke="none" /><path d="M 120.37134235888165 94.90015583598534 l 3.623762606878049 -0.9071873741498534 a24.735591567988195,24.735591567988195 0 0,0 0.0998460395766879,0.4139262943158152 l -3.6388414467155563 0.8446758481746321" fill="#ff1402" stroke="none" /><path d="M 120.45610955862082 95.25157060432595 l 3.5078119810310633 -0.8142602813840493 a24.601078269088955,24.601078269088955 0 0,0 0.09220204502759516,0.4133236888545034 l -3.5213084130606958 0.753758422979582" fill="#ff1202" stroke="none" /><path d="M 120.6074358757038 95.95851677861258 l 2.3624383289690583 -0.46331600523614036 a23.407441915995086,23.407441915995086 0 0,0 0.07413947876973474,0.3960560601559413 l -2.3700635316486527 0.4225818676176363" fill="#ff0000" stroke="none" /><path d="M 120.67395015179393 96.31383870115 l 5.90071606770601 -1.0520965294284996 a26.99377654062273,26.99377654062273 0 0,0 0.07762399599177526,0.4581412183859276 l -5.917951925218008 0.9503695227267343" fill="#ff3505" stroke="none" /><path d="M 120.73433829027371 96.67025291283417 l 5.344252036519566 -0.8582385124886553 a26.41272603908255,26.41272603908255 0 0,0 0.0682254631344082,0.4495205585958508 l -5.358233393093274 0.7661188415007224" fill="#ff2c04" stroke="none" /><path d="M 120.78858239683441 97.02765380044208 l 5.931406723628907 -0.8480710178533035 a26.99172847953184,26.99172847953184 0 0,0 0.061803347506687555,0.460506725247004 l -5.945126070193431 0.7458459505416352" fill="#ff3505" stroke="none" /><path d="M 120.83666639777658 97.38593545837742 l 5.364542478181703 -0.6730088204387281 a26.40659383277533,26.40659383277533 0 0,0 0.05269957266234381,0.45149775548430043 l -5.3753324038476356 0.580567326629575" fill="#ff2c04" stroke="none" /><path d="M 120.94382443527127 98.46500227214037 l 5.403669848109388 -0.39604137079103086 a26.41816358139403,26.41816358139403 0 0,0 0.029335998165084882,0.45381490719373657 l -5.409686437278888 0.3029673993442591" fill="#ff2c04" stroke="none" /><line stroke="#e1ed5e" stroke-width="0.3" x1="184.98032266829074" x2="189.97916517819016" y1="98.17113171792111" y2="98.06355123074" /><path d="M 185.9800911702706 98.14961562048488 a86.0,86.0 0 0,1 -9.607161424134198,41.387399972396054" fill="none" id="id88" stroke="none" /><text fill="#e1ed5e" style="font-size:6.75px; font-family:Arial;" text-anchor="middle"><textPath startOffset="21.466115282336823" xlink:href="#id88">April</textPath></text><path d="M 120.99513854157772 99.54816195383933 l 5.9928799351254005 -0.12897324565875645 a26.994267596205926,26.994267596205926 0 0,0 0.005999145463522609,0.4646404274400853 l -5.9942120877066385 0.025796560158208397" fill="#ff3505" stroke="none" /><path d="M 120.99980553446 99.90962569577887 l 5.993134170798585 -0.025791921258556984 a26.993189669315985,26.993189669315985 0 0,0 -0.0019996846825482925,0.4646562961194258 l -5.992690188826534 -0.07737385306455356" fill="#ff3505" stroke="none" /><path d="M 120.99824983174949 100.27111621757518 l 5.993336891058971 0.07738220287773137 a26.99383642544995,26.99383642544995 0 0,0 -0.009997922267062483,0.4645641616692083 l -5.991116906106901 -0.1805361803370545" fill="#ff3505" stroke="none" /><path d="M 120.9904718944345 100.63252640178507 l 6.295193800193819 0.18969922653487606 a27.298051347722296,27.298051347722296 0 0,0 -0.018195928389830966,0.4695560599512984 l -6.290995738952785 -0.29803253350018066" fill="#ff3905" stroke="none" /><path d="M 120.95626037817324 101.35467743843564 l 5.98282232675681 0.38674812576140427 a26.995309592199533,26.995309592199533 0 0,0 -0.03396709425464413,0.4634540141225881 l -5.975278673837828 -0.4896752763807626" fill="#ff3505" stroke="none" /><path d="M 120.92983693683757 101.71520430193887 l 5.9724615538206 0.48944441283475365 a26.9924830283548,26.9924830283548 0 0,0 -0.04193526934686988,0.46275220283307483 l -5.963151688196654 -0.592178004216399" fill="#ff3505" stroke="none" /><path d="M 120.89721153311464 102.0752229133903 l 5.964057482182877 0.5922679551857923 a26.99339327772853,26.99339327772853 0 0,0 -0.049896257224685665,0.46197737280123713 l -5.95297892345714 -0.6948416498718208" fill="#ff3505" stroke="none" /><path d="M 120.8583938346157 102.4346265915055 l 5.953657007025886 0.6949207969193272 a26.994075964758824,26.994075964758824 0 0,0 -0.057842508461432345,0.4610617041893501 l -5.940812989317606 -0.7973002553960722" fill="#ff3505" stroke="none" /><path d="M 120.81339534386255 102.79330883721812 l 5.93799967159942 0.7969226877232211 a26.991237423948647,26.991237423948647 0 0,0 -0.0657634417634551,0.4599493585243741 l -5.923402178819363 -0.8990175182280045" fill="#ff3505" stroke="none" /><path d="M 120.70491114924044 103.5080841355445 l 3.426993227285201 0.5806439103554759 a24.47583514144321,24.47583514144321 0 0,0 -0.07395613411638466,0.4147852755706955 l -3.4164906508296276 -0.6395479366593897" fill="#ff1001" stroke="none" /><path d="M 120.64145759157962 103.86396538481128 l 5.890147135904652 1.102602592070107 a26.992459074423913,26.992459074423913 0 0,0 -0.08942224699806262,0.4559621109205794 l -5.870294955930926 -1.2038284300586313" fill="#ff3505" stroke="none" /><path d="M 120.5718875245553 104.21870165774334 l 5.869696583164938 1.2037057210375555 a26.99184824918628,26.99184824918628 0 0,0 -0.0972554354466018,0.45434501640491537 l -5.848107108993893 -1.30456455685864" fill="#ff3505" stroke="none" /><path d="M 120.49622156327973 104.57218783832717 l 5.853168725122017 1.3056936752003714 a26.99703427522344,26.99703427522344 0 0,0 -0.10508201443858248,0.452690567949583 l -5.829826144752881 -1.4062529004985191" fill="#ff3505" stroke="none" /><path d="M 120.41448212921028 104.9243191809786 l 5.827986546637249 1.4058091582458987 a26.995141914683323,26.995141914683323 0 0,0 -0.11285085852896967,0.45078308290456753 l -5.8029243738132195 -1.505920080547862" fill="#ff3505" stroke="none" /><path d="M 120.32669344350535 105.2749913415812 l 6.960956479361003 1.8064416261211975 a28.191532969829264,28.191532969829264 0 0,0 -0.12593818756066158,0.4686628460689457 l -6.9288302154585635 -1.9259954053656916" fill="#ff4606" stroke="none" /><path d="M 120.23288151984713 105.62410040840565 l 5.774515606321117 1.6051324942519025 a26.993453162555745,26.993453162555745 0 0,0 -0.12829263721396522,0.4466035005546283 l -5.746030332221052 -1.7042934703111128" fill="#ff3505" stroke="none" /><path d="M 120.02730092923936 106.31721596034902 l 5.716207895862975 1.803064720503511 a26.99383642544995,26.99383642544995 0 0,0 -0.14359146207250723,0.44192907889948346 l -5.684324182774221 -1.9011926993807897" fill="#ff3505" stroke="none" /><path d="M 119.9155931802556 106.66101706037122 l 5.688901655804646 1.9027236919890982 a26.998663142523796,26.998663142523796 0 0,0 -0.1512043018017069,0.43947047820054497 l -5.655306523059708 -2.0003668732789435" fill="#ff3505" stroke="none" /><path d="M 119.54520255179757 107.68017299344265 l 5.581616756950541 2.19326364937241 a26.997070206119773,26.997070206119773 0 0,0 -0.17367779083602,0.43105403364304307 l -5.543036351857128 -2.289017050858267" fill="#ff3505" stroke="none" /><path d="M 119.12269723197855 108.67885076344098 l 3.275494035021035 1.4865854728353833 a24.59705400869984,24.59705400869984 0 0,0 -0.17829980814693785,0.3840419244529273 l -3.249419610034266 -1.542747464567141" fill="#ff1202" stroke="none" /><path d="M 118.81262510543309 109.33194174019688 l 5.372346743320422 2.6649351983484633 a26.99699834432711,26.99699834432711 0 0,0 -0.21008978005751563,0.41452706727607674 l -5.325678293476638 -2.7570164773272343" fill="#ff3505" stroke="none" /><line stroke="#e1ed5e" stroke-width="0.3" x1="174.80103733775053" x2="179.2010983576182" y1="140.37084112569926" y2="142.7455964860345" /><path d="M 175.68104954172406 140.8457921977663 a86.0,86.0 0 0,1 -30.038265399797805,32.042727171017184" fill="none" id="id89" stroke="none" /><text fill="#e1ed5e" style="font-size:6.75px; font-family:Arial;" text-anchor="middle"><textPath startOffset="22.206326154141568" xlink:href="#id89">May</textPath></text><path d="M 118.12598468904814 110.60418214915192 l 8.38761372428793 4.906976655608471 a30.71753486675246,30.71753486675246 0 0,0 -0.27092737660614585,0.4540898669054868 l -8.301905471983556 -5.050628616400062" fill="#ff6a09" stroke="none" /><path d="M 117.94076556474637 110.91462005526583 l 5.007079831063786 3.0461561824225543 a26.8608801320584,26.8608801320584 0 0,0 -0.2437117845141621,0.39294099615837985 l -4.953903406881661 -3.1318935099462077" fill="#ff3304" stroke="none" /><path d="M 117.55443506779139 111.5257021239791 l 3.2326163036081335 2.122436435728227 a24.867110625526486,24.867110625526486 0 0,0 -0.23801009586375646,0.35579279968244076 l -3.195603102333656 -2.1777661496164744" fill="#ff1602" stroke="none" /><path d="M 117.35343817320211 111.8261652097733 l 4.95265580243894 3.3751770203804843 a26.993381300763083,26.993381300763083 0 0,0 -0.2649710063793266,0.38171049716091016 l -4.893823888897478 -3.459928779728414" fill="#ff3505" stroke="none" /><path d="M 117.14729908036423 112.12312394758627 l 4.8944302270750715 3.4603574602364446 a26.994123872620598,26.994123872620598 0 0,0 -0.27150973566731523,0.3771032759293454 l -4.834140699032154 -3.5440943416169213" fill="#ff3505" stroke="none" /><path d="M 116.93607887273984 112.41649034213515 l 4.833155462422439 3.5433720267917974 a26.992902222145332,26.992902222145332 0 0,0 -0.2779481421304734,0.37235695801999497 l -4.771446053596873 -3.626041864321107" fill="#ff3505" stroke="none" /><path d="M 116.71984013943494 112.70617746262583 l 21.453222239901333 16.303292773859614 a47.94509416841552,47.94509416841552 0 0,0 -0.5050060941852978,0.6527884522410646 l -21.169409328497967 -16.67015922021393" fill="#b8ff1f" stroke="none" /><path d="M 116.498646956653 112.99209946851258 l 14.401133606485578 11.340382078989348 a39.330218625245884,39.330218625245884 0 0,0 -0.4234218069587934,0.5282838082601979 l -14.203793887471932 -11.586593720827796" fill="#ffdd14" stroke="none" /><path d="M 116.27256486870786 113.27417163493432 l 14.097065154528334 11.499530892631808 a39.19248352264226,39.19248352264226 0 0,0 -0.43093815330878515,0.5190927665512849 l -13.897031001326004 -11.740484916296865" fill="#ffdb14" stroke="none" /><path d="M 116.0416608686014 113.55231037782055 l 6.361035577177961 5.373927872706027 a29.327176856244286,29.327176856244286 0 0,0 -0.3291032809198317,0.38282146634459924 l -6.26758978668735 -5.4826264382121535" fill="#ff5608" stroke="none" /><path d="M 115.80600337817218 113.82643327865902 l 4.511731448337153 3.9466747127112862 a26.994327481033146,26.994327481033146 0 0,0 -0.30894512951242764,0.3471031281120438 l -4.443127469176387 -4.023752010564197" fill="#ff3505" stroke="none" /><path d="M 115.56566222782051 114.09645910891815 l 12.809013568050002 11.600003478482055 a38.28094063664605,38.28094063664605 0 0,0 -0.4465263768689992,0.48461619206080686 l -12.60744078318528 -11.818770925344197" fill="#ffcf13" stroke="none" /><path d="M 115.32070863581623 114.36230785411682 l 30.83757115316502 28.908499006344567 a63.2688669049259,63.2688669049259 0 0,0 -0.7516746568788221,0.7881278725817692 l -30.33538994490723 -29.435033995508842" fill="#33ff4f" stroke="none" /><path d="M 115.07121518719521 114.62390073753431 l 19.151665720776183 18.58324328731131 a47.68563716600663,47.68563716600663 0 0,0 -0.5766768861194078,0.5841706410259107 l -18.82894820960124 -18.910154422317884" fill="#bbff1f" stroke="none" /><path d="M 114.29624159901734 115.38237550388516 l 4.245457007913168 4.5679987589052695 a27.236226252101435,27.236226252101435 0 0,0 -0.3461600503575381,0.3162089986260348 l -4.166197408088766 -4.640400524117887" fill="#ff3805" stroke="none" /><path d="M 113.75828350139079 115.86535959552629 l 3.9276062488594654 4.529117711631139 a26.99491435233989,26.99491435233989 0 0,0 -0.3536777569130697,0.3014118573163914 l -3.849063015369348 -4.596053959170478" fill="#ff3505" stroke="none" /><path d="M 113.48314897796784 116.09983520530334 l 40.449446933903516 48.299505615910014 a84.0,84.0 0 0,0 -1.1165194858212355,0.9188195245712865 l -39.612057319537584 -48.98862025933848" fill="#4dd2ff" stroke="none" /><path d="M 113.20401910651253 116.32954008644616 l 21.264956752273548 26.298580827675764 a54.82031548087421,54.82031548087421 0 0,0 -0.7388799782729737,0.5870109416756373 l -20.809119281283223 -26.660725683356524" fill="#6bff28" stroke="none" /><path d="M 112.63410532772338 116.77436683061366 l 13.702976563827347 18.19351268574248 a43.7766430923232,43.7766430923232 0 0,0 -0.6058166870119742,0.44816870201997144 l -13.387774906396809 -18.42669133650222" fill="#eaff1a" stroke="none" /><path d="M 112.34349029814194 116.9893568818739 l 14.205844586535171 19.5526676539303 a45.168426361719185,45.168426361719185 0 0,0 -0.6329444534439994,0.4515890618147513 l -13.867172805242289 -19.79430097758927" fill="#d9ff1c" stroke="none" /><path d="M 112.04921762599082 117.19931262002967 l 13.343934870632177 19.047419886106127 a44.25650021282877,44.25650021282877 0 0,0 -0.627690185670331,0.431731033288745 l -13.014087800338963 -19.274291708759964" fill="#e4ff1a" stroke="none" /><line stroke="#e1ed5e" stroke-width="0.3" x1="143.8653032363475" x2="146.44561519142675" y1="172.8068346515853" y2="177.08958963109032" /><path d="M 144.38136562736335 173.6633856474863 a86.0,86.0 0 0,1 -40.68145358897372,12.25698825130547" fill="none" id="id90" stroke="none" /><text fill="#e1ed5e" style="font-size:6.75px; font-family:Arial;" text-anchor="middle"><textPath startOffset="21.466115282336833" xlink:href="#id90">June</textPath></text><line stroke="#e1ed5e" stroke-width="0.3" x1="102.19456741930631" x2="102.32365962044197" y1="184.97166512339345" y2="189.96999836594603" /><path d="M 102.22038585953345 185.97133177190398 a86.0,86.0 0 0,1 -42.740103519485714,-10.115201625700543" fill="none" id="id91" stroke="none" /><text fill="#e1ed5e" style="font-size:6.75px; font-family:Arial;" text-anchor="middle"><textPath startOffset="22.20632615414155" xlink:href="#id91">July</textPath></text><line stroke="#e1ed5e" stroke-width="0.3" x1="58.666819895761336" x2="56.23545636021788" y1="174.27360380694188" y2="178.64263932499728" /><path d="M 58.180547188652646 175.14741091055294 a86.0,86.0 0 0,1 -31.652253787137756,-30.449443065178592" fill="none" id="id92" stroke="none" /><text fill="#e1ed5e" style="font-size:6.75px; font-family:Arial;" text-anchor="middle"><textPath startOffset="22.20632615414155" xlink:href="#id92">August</textPath></text><line stroke="#e1ed5e" stroke-width="0.3" x1="26.63291911575756" x2="22.317208475507996" y1="142.92168965132927" y2="145.44649492493687" /><path d="M 25.769776987707644 143.4266507060508 a86.0,86.0 0 0,1 -11.730757126820373,-40.83630448921669" fill="none" id="id93" stroke="none" /><text fill="#e1ed5e" style="font-size:6.75px; font-family:Arial;" text-anchor="middle"><textPath startOffset="21.46611528233685" xlink:href="#id93">September</textPath></text><line stroke="#e1ed5e" stroke-width="0.3" x1="15.007084014347285" x2="10.007500721073583" y1="101.09737516637583" y2="101.16192664675087" /><path d="M 14.007167355692545 101.11028546245083 a86.0,86.0 0 0,1 10.666146001902534,-42.60595125391555" fill="none" id="id94" stroke="none" /><text fill="#e1ed5e" style="font-size:6.75px; font-family:Arial;" text-anchor="middle"><textPath startOffset="22.20632615414155" xlink:href="#id94">October</textPath></text><line stroke="#e1ed5e" stroke-width="0.3" x1="26.266209847984243" x2="21.928928074336255" y1="57.711370442889674" y2="55.22380399835377" /><path d="M 25.398753493254645 57.213857153982495 a86.0,86.0 0 0,1 29.58750427330803,-30.492523968695096" fill="none" id="id95" stroke="none" /><text fill="#e1ed5e" style="font-size:6.75px; font-family:Arial;" text-anchor="middle"><textPath startOffset="21.46611528233685" xlink:href="#id95">November</textPath></text><line stroke="#e1ed5e" stroke-width="0.3" x1="56.762969772571076" x2="54.21961505331055" y1="26.818313649435495" y2="22.513508569990535" /><path d="M 56.25429882871897 25.957352633546506 a86.0,86.0 0 0,1 42.265352541879196,-11.944610805530505" fill="none" id="id96" stroke="none" /><text fill="#e1ed5e" style="font-size:6.75px; font-family:Arial;" text-anchor="middle"><textPath startOffset="22.20632615414155" xlink:href="#id96">December</textPath></text></svg>