<?xml version="1.0" encoding="utf-8" ?>
<svg baseProfile="full" height="200mm" version="1.1" viewBox="0,0,200,200" width="200mm" xmlns="http://www.w3.org/2000/svg" xmlns:ev="http://www.w3.org/2001/xml-events" xmlns:xlink="http://www.w3.org/1999/xlink"><defs /><rect fill="#1a1a1a" height="200" width="200" x="0" y="0" /><rect fill="#1a1a1a" height="200" width="180" x="10" y="0" /><text alignment-baseline="middle" fill="#e1ed5e" style="dominant-baseline: central; font-size:9.0px; font-family:Arial;" text-anchor="middle" x="100.0" y="100.0">2020</text><line stroke="#e1ed5e" stroke-width="0.3" x1="100.0" x2="100.0" y1="15.0" y2="10.0" /><path d="M 100.0 14.0 a86.0,86.0 0 0,1 42.35913384403234,11.155469271406648" fill="none" id="id13" stroke="none" /><text fill="#e1ed5e" style="font-size:6.75px; font-family:Arial;" text-anchor="middle"><textPath startOffset="22.145653131862478" xlink:href="#id13">January</textPath></text><path d="M 100.36049292484886 79.00309439819443 l 0.5405994934323372 -31.48721028780754 a52.491850684278816,52.491850684278816 0 0,0 0.9008268622095585,0.023202104517652592 l -1.081039669712637 31.47329046593984" fill="red" stroke="none" /><line stroke="#e1ed5e" stroke-width="0.3" x1="143.13028292997686" x2="145.6673583964461" y1="26.7553504044142" y2="22.446841604673864" /><path d="M 143.63769802327073 25.89364864446614 a86.0,86.0 0 0,1 29.32050498858742,28.57503671076993" fill="none" id="id14" stroke="none" /><text fill="#e1ed5e" style="font-size:6.75px; font-family:Arial;" text-anchor="middle"><textPath startOffset="20.669276256404974" xlink:href="#id14">February</textPath></text><path d="M 115.16444852881244 85.47280134310134 l 23.455183799026052 -22.469535501744122 a53.481158734106664,53.481158734106664 0 0,0 0.6294074469599776,0.6684088972300174 l -23.837447079722292 22.063585144569608" fill="red" stroke="none" /><path d="M 115.41159269507618 85.73525988315684 l 23.193059445962344 -21.467149570910184 a52.60310929582361,52.60310929582361 0 0,0 0.6076969170491815,0.6679653646680522 l -23.558154063853404 21.06584663068446" fill="red" stroke="none" /><path d="M 115.8921839302757 86.27271002978787 l 23.828251279004284 -20.582275930423048 a52.486753428885635,52.486753428885635 0 0,0 0.5831164247057495,0.6869096820779832 l -24.178062267217147 20.170199465895514" fill="red" stroke="none" /><path d="M 116.1254893667686 86.54754324733833 l 24.187630025037954 -20.17818122975873 a52.499213386513404,52.499213386513404 0 0,0 0.5713743908075076,0.6969838526087502 l -24.53045123508409 19.759995095451487" fill="red" stroke="none" /><path d="M 116.35404254752997 86.82634096563983 l 24.535792986842896 -19.764298032545614 a52.50607265611656,52.50607265611656 0 0,0 0.5593986213498371,0.7067818839643337 l -24.871458038834295 19.3401962046666" fill="red" stroke="none" /><path d="M 116.57777611688842 87.10902102172516 l 26.86833815465545 -20.892982260750536 a55.035632841787304,55.035632841787304 0 0,0 0.5735447344037871,0.7507884683678738 l -27.223034866413546 20.428672879141782" fill="red" stroke="none" /><path d="M 116.7966241395341 87.39550010848427 l 25.192897716849203 -18.90522011453431 a52.497451372303416,52.497451372303416 0 0,0 0.5347189916920008,0.7254490079860234 l -25.513718728125028 18.46996479727941" fill="red" stroke="none" /><path d="M 117.01052211995028 87.68569379921539 l 25.508519368035135 -18.466200861537544 a52.491032606252745,52.491032606252745 0 0,0 0.522123055905606,0.7344314653929064 l -25.8217575224707 18.025592169435136" fill="red" stroke="none" /><path d="M 117.42321728460499 88.27688183743584 l 26.125506297274185 -17.578406581107096 a52.488767159411346,52.488767159411346 0 0,0 0.49658263170264316,0.7518893963203306 l -26.423413367897552 17.127337306447707" fill="red" stroke="none" /><path d="M 117.62189284568427 88.57770195909679 l 26.46666161784171 -17.155370299550977 a52.540306075053415,52.540306075053415 0 0,0 0.4840771286706483,0.761049649344207 l -26.75725643813825 16.698506975528097" fill="red" stroke="none" /><path d="M 117.81537515405839 88.88188828441811 l 32.049940461563885 -20.001533251363597 a58.7790949599801,58.7790949599801 0 0,0 0.5268623186564884,0.8605900022849587 l -32.38857074467578 19.448406132954084" fill="red" stroke="none" /><line stroke="#e1ed5e" stroke-width="0.3" x1="172.87174338648825" x2="177.1583165268699" y1="56.24261187166439" y2="53.66864786411523" /><path d="M 173.72905801456457 55.72781907015455 a86.0,86.0 0 0,1 12.242430191666344,42.057860355516425" fill="none" id="id15" stroke="none" /><text fill="#e1ed5e" style="font-size:6.75px; font-family:Arial;" text-anchor="middle"><textPath startOffset="22.145653131862474" xlink:href="#id15">March</textPath></text><path d="M 118.00360718960297 89.18935116829356 l 37.78146868353839 -22.686686394697723 a65.06954861870672,65.06954861870672 0 0,0 0.5668062434452723,0.9625609170508033 l -38.16534863711343 22.034774309353363" fill="red" stroke="none" /><path d="M 118.18653347947321 89.5 l 32.73138950893651 -18.89747654393499 a58.79495308786997,58.79495308786997 0 0,0 0.4971439035018633,0.8784056420790074 l -33.05096677745974 18.332814131756862" fill="red" stroke="none" /><path d="M 118.36410011445183 89.81374322990088 l 33.05102180774096 -18.33284465612621 a58.7950160169489,58.7950160169489 0 0,0 0.48199216317896415,0.886811292340564 l -33.36085932053527 17.762778530311042" fill="red" stroke="none" /><path d="M 118.53625476483649 90.13048839642627 l 33.34663950261067 -17.755207278200626 a58.77890617274332,58.77890617274332 0 0,0 0.4665699701654826,0.8947094373488382 l -33.6465175417511 17.18015159774729" fill="red" stroke="none" /><path d="M 118.8641267826498 90.77261029715802 l 33.972827734175624 -16.61781244489294 a58.81936957049405,58.81936957049405 0 0,0 0.4358816161376408,0.9108249343208069 l -34.253088608273174 16.032175008507032" fill="red" stroke="none" /><path d="M 119.0197475246899 91.09779779509293 l 34.21569988223882 -16.014675196855507 a58.77808809471725,58.77808809471725 0 0,0 0.4198869685869495,0.9175288038954388 l -34.48557131568083 15.424957410745384" fill="red" stroke="none" /><path d="M 119.16976305983485 91.42560881287824 l 34.51440847936547 -15.43785590726761 a58.80967849233913,58.80967849233913 0 0,0 0.4042916658937654,0.9250984509670027 l -34.774334027276204 14.843095386524757" fill="red" stroke="none" /><path d="M 119.31412917781788 91.75594674310238 l 34.77080352051778 -14.841588423126494 a58.80583981852452,58.80583981852452 0 0,0 0.38832619872174934,0.931841511743266 l -35.02045556377601 14.24251440194195" fill="red" stroke="none" /><path d="M 119.4528033332814 92.08871423366111 l 35.0124694619428 -14.239266523850594 a58.79721853471138,58.79721853471138 0 0,0 0.3722181019195656,0.9382327676977851 l -35.25174623882849 13.636132738939244" fill="red" stroke="none" /><path d="M 119.71291397450082 92.76114493625339 l 35.46255808101125 -13.022342534959343 a58.7779622365594,58.7779622365594 0 0,0 0.33968016677106544,0.9501458816416409 l -35.680878417826264 12.411661696936786" fill="red" stroke="none" /><path d="M 119.83427380445688 93.10060997987247 l 35.70845664629858 -12.421254836376653 a58.80716132918201,58.80716132918201 0 0,0 0.32348021187935144,0.9563117677544519 l -35.91642227975029 11.80644139414804" fill="red" stroke="none" /><path d="M 119.94978838288452 93.4421083053983 l 35.907694109086925 -11.803572271087493 a58.79797368365851,58.79797368365851 0 0,0 0.30696821697758353,0.9615735675793923 l -36.105027041841765 11.185429669816713" fill="red" stroke="none" /><path d="M 120.16314734710363 94.1308016681162 l 36.267611539881216 -10.55697314942537 a58.77286498116622,58.77286498116622 0 0,0 0.2736618744264488,0.9711294494277506 l -36.44349190638225 9.932835776094606" fill="red" stroke="none" /><path d="M 120.35273937422433 94.82641323984039 l 36.619000420650615 -9.308406709442156 a58.78356292458399,58.78356292458399 0 0,0 0.2402077587973234,0.980129626991744 l -36.773395705964234 8.678421257842317" fill="red" stroke="none" /><path d="M 120.43855184770803 95.1765574152323 l 36.7741919121619 -8.678609160337011 a58.784381002610054,58.784381002610054 0 0,0 0.22335024352686375,0.9841223838649835 l -36.91775301724644 8.046052442533002" fill="red" stroke="none" /><path d="M 120.51834098615036 95.52812308129327 l 36.91904421754583 -8.046333853628576 a58.785702513267545,58.785702513267545 0 0,0 0.20642820352981534,0.9878336817410652 l -37.05173013190001 7.411383720602106" fill="red" stroke="none" /><path d="M 120.592083275326 95.88100663000786 l 37.04339972654034 -7.409717406223565 a58.77720708761226,58.77720708761226 0 0,0 0.18941293013896227,0.9910884887728184 l -37.16513894896146 6.772726352417432" fill="red" stroke="none" /><path d="M 120.7213421655516 96.59031103205396 l 62.14067913516847 -10.225225104390265 a83.97633866632304,83.97633866632304 0 0,0 0.22185152213806225,1.4244459176700923 l -62.3070521494448 9.15699100478873" fill="red" stroke="none" /><path d="M 120.82617615685814 97.30363454192243 l 38.88798134119819 -5.034827749127743 a60.212556448882104,60.212556448882104 0 0,0 0.12391719384251998,1.0262121276981349 l -38.96868062130038 4.366521944506195" fill="red" stroke="none" /><path d="M 120.86939407059847 97.66154086499901 l 39.3180787636113 -4.405672735126918 a60.564141212853116,60.564141212853116 0 0,0 0.10690322934109486,1.0341917690831937 l -39.38791438543406 3.7300764437607925" fill="red" stroke="none" /><path d="M 120.9064616781168 98.02013634271609 l 43.88052103793499 -4.155530964698157 a65.07684839186237,65.07684839186237 0 0,0 0.0957756966686104,1.113058773594379 l -43.94539035730134 3.4016511437281154" fill="red" stroke="none" /><path d="M 120.96210409425399 98.7389718711861 l 43.99818818569111 -2.6468217441117017 a65.07772939896736,65.07772939896736 0 0,0 0.05751139140095746,1.1157056288868872 l -44.03714116654864 1.891144321848084" fill="red" stroke="none" /><path d="M 120.98066250479742 99.09900007780936 l 43.43603027589731 -1.8653300337825398 a64.4760644753363,64.4760644753363 0 0,0 0.037995784718747025,1.106205815048741 l -43.46165074761291 1.119417954169679" fill="red" stroke="none" /><line stroke="#e1ed5e" stroke-width="0.3" x1="184.99686870605535" x2="189.99668451229388" y1="99.2704041080226" y2="99.22748670261217" /><path d="M 185.99683186730306 99.26182062694052 a86.0,86.0 0 0,1 -10.086455211305974,41.156179273409016" fill="none" id="id16" stroke="none" /><text fill="#e1ed5e" style="font-size:6.75px; font-family:Arial;" text-anchor="middle"><textPath startOffset="21.40746469413373" xlink:href="#id16">April</textPath></text><path d="M 120.99922638620191 99.81974689727618 l 44.07428075435225 -0.3783246920711925 a65.07590445567845,65.07590445567845 0 0,0 0.0,1.1171555895900334 l -44.07428075435225 -0.3783246920711872" fill="red" stroke="none" /><path d="M 120.99922638620191 100.18025310272382 l 62.99767915860572 0.5407593081714768 a84.0,84.0 0 0,0 -0.02475427360532656,1.4418123361237158 l -62.97911345340173 -1.6221185602642638" fill="red" stroke="none" /><path d="M 120.99303781780057 100.54070618675476 l 44.06273875048093 1.134899848917608 a65.0773518244938,65.0773518244938 0 0,0 -0.03835012372592851,1.116522008624879 l -44.03676393975816 -1.8911281221065976" fill="red" stroke="none" /><path d="M 120.9064616781168 101.97986365728391 l 62.71506226854011 5.9391816014351395 a83.99565789355397,83.99565789355397 0 0,0 -0.1482627657163098,1.4343077651665928 l -62.60386711034213 -7.0148938888846635" fill="red" stroke="none" /><path d="M 120.86939407059847 102.33845913500097 l 62.6006151498266 7.014529499925958 a83.9923855814497,83.9923855814497 0 0,0 -0.17285598451924586,1.431495518566094 l -62.47097707904769 -8.08811869541546" fill="red" stroke="none" /><path d="M 120.82617615685814 102.69636545807757 l 43.72330583786208 5.660857311789802 a65.08823855514834,65.08823855514834 0 0,0 -0.1529743562123406,1.1068462374621655 l -43.61968696509453 -6.410591857452052" fill="red" stroke="none" /><path d="M 120.65975698304385 103.76489593502545 l 61.932281639433164 11.28612478755304 a83.95223682909361,83.95223682909361 0 0,0 -0.2705409113062394,1.4155843676617976 l -61.72941443584477 -12.347611720248153" fill="red" stroke="none" /><path d="M 120.592083275326 104.11899336999214 l 61.73114222362307 12.347957326193333 a83.9539988433036,83.9539988433036 0 0,0 -0.29480762191208876,1.410761192409792 l -61.510076890886616 -13.405834969888534" fill="red" stroke="none" /><path d="M 120.51834098615036 104.47187691870673 l 61.5311050100481 13.410417950587876 a83.97552058829697,83.97552058829697 0 0,0 -0.31906354466604087,1.4058528489734485 l -61.291830603824394 -14.464705133500342" fill="red" stroke="none" /><path d="M 120.35273937422433 105.17358676015961 l 61.03254155034033 15.514233396199321 a83.97350685777127,83.97350685777127 0 0,0 -0.36712625063140586,1.3940381717525319 l -60.757225818904196 -16.559652072324656" fill="red" stroke="none" /><path d="M 120.26092885502905 105.52220625578681 l 42.52743521281702 11.59104157835756 a65.0787362642302,65.0787362642302 0 0,0 -0.3030236650379601,1.075324086004467 l -42.32219305570448 -12.319373588265034" fill="red" stroke="none" /><path d="M 120.16314734710363 105.8691983318838 l 42.319957465858714 12.318722840642769 a65.07640788830987,65.07640788830987 0 0,0 -0.321426881291444,1.0699255493916864 l -42.10225426456364 -13.043385993625177" fill="red" stroke="none" /><path d="M 119.94978838288452 106.5578916946017 l 17.96377086502373 5.905048289160534 a39.909433068931314,39.909433068931314 0 0,0 -0.21952958744016746,0.6490002174155053 l -17.859755856011198 -6.212550181050199" fill="red" stroke="none" /><path d="M 119.83427380445688 106.89939002012753 l 41.625472549540916 14.479500117965577 a65.07193992370598,65.07193992370598 0 0,0 -0.37605331257389046,1.051888044027567 l -41.370779066923085 -15.191923118374065" fill="red" stroke="none" /><path d="M 119.71291397450082 107.23885506374661 l 19.001507860206896 6.977616884576431 a41.242145102469514,41.242145102469514 0 0,0 -0.24974930431936498,0.6624897017094328 l -18.878927872073092 -7.302774866480022" fill="red" stroke="none" /><path d="M 119.58574465831526 107.57618678355244 l 21.2181786110297 8.207647305137804 a43.750309401304726,43.750309401304726 0 0,0 -0.2769630524976892,0.6981278179509074 l -21.074156883565887 -8.570676140302275" fill="red" stroke="none" /><path d="M 119.4528033332814 107.91128576633889 l 58.354912436997516 23.732434870655474 a83.99622425526431,83.99622425526431 0 0,0 -0.5546716886058451,1.3310101315158085 l -57.938914903855185 -24.73067751161256" fill="red" stroke="none" /><path d="M 119.31412917781788 108.2440532568976 l 17.40742401962906 7.430194204563883 a39.926864423794385,39.926864423794385 0 0,0 -0.27448030571895793,0.6280646549569856 l -17.277309831893138 -7.7279209292967135" fill="red" stroke="none" /><path d="M 119.0197475246899 108.90220220490707 l 47.1257534058554 22.057232112725053 a73.03227962086729,73.03227962086729 0 0,0 -0.5412065498799317,1.1309135370662649 l -46.74016759801555 -22.86295815185642" fill="red" stroke="none" /><path d="M 118.8641267826498 109.22738970284198 l 22.649173638181626 11.078845790999294 a46.21360526686424,46.21360526686424 0 0,0 -0.3547006146529487,0.7096388338279549 l -22.455653110316945 -11.466016480990994" fill="red" stroke="none" /><line stroke="#e1ed5e" stroke-width="0.3" x1="174.33088141563837" x2="178.70328620479359" y1="141.23008692659167" y2="143.65538615756765" /><path d="M 175.20536237346943 141.71514677278685 a86.0,86.0 0 0,1 -30.301960400862466,31.631185727798858" fill="none" id="id17" stroke="none" /><text fill="#e1ed5e" style="font-size:6.75px; font-family:Arial;" text-anchor="middle"><textPath startOffset="22.145653131862474" xlink:href="#id17">May</textPath></text><path d="M 117.423217284605 111.72311816256416 l 26.142213756560796 17.589648105345333 a52.50890446466832,52.50890446466832 0 0,0 -0.5096120780230119,0.7435392517770401 l -25.836411941722464 -18.03582209219242" fill="red" stroke="none" /><path d="M 117.21940702142032 112.02048342749411 l 15.51681118469196 10.831939303201404 a39.92359211169013,39.92359211169013 0 0,0 -0.3971159811704968,0.5585933597131125 l -15.328580104991502 -11.09670988962402" fill="red" stroke="none" /><path d="M 117.01052211995028 112.31430620078461 l 25.51703204582936 18.47236338378157 a52.50154176243373,52.50154176243373 0 0,0 -0.534760654843804,0.7255055320530864 l -25.196169371401727 -18.907675225103535" fill="red" stroke="none" /><path d="M 116.79662413953412 112.60449989151573 l 31.917506817263146 23.951492149469786 a60.904902175248495,60.904902175248495 0 0,0 -0.6347103528801266,0.8308562263961379 l -31.501644487028713 -24.4958692891068" fill="red" stroke="none" /><path d="M 115.89218393027572 113.72728997021213 l 23.846919448279532 20.598401050417785 a52.51142162782544,52.51142162782544 0 0,0 -0.5951017792013475,0.677116583404269 l -23.489806605119597 -21.004729911633348" fill="red" stroke="none" /><path d="M 115.6541949942343 113.99807769240083 l 26.012564314965378 23.260595411873446 a55.895684563496935,55.895684563496935 0 0,0 -0.6457343613391143,0.7097751791221769 l -25.609432252784384 -23.703708166553294" fill="red" stroke="none" /><path d="M 115.16444852881244 114.52719865689866 l 22.750739864059806 21.79469414721294 a52.505632152564054,52.505632152564054 0 0,0 -0.6291004792145559,0.6455125124014591 l -22.373252583694445 -22.182029351682136" fill="red" stroke="none" /><path d="M 114.39649973595853 115.28858382429668 l 21.60788600172628 22.946826135668587 a52.51916190453359,52.51916190453359 0 0,0 -0.6616669845467253,0.6124290827819359 l -21.210789245865588 -23.314372964582905" fill="red" stroke="none" /><path d="M 114.13192950727249 115.5334660781643 l 22.050466624270722 24.237325493276593 a53.76691968151893,53.76691968151893 0 0,0 -0.6880500818286944,0.6152586258985666 l -21.63115151561865 -24.612279649058546" fill="red" stroke="none" /><path d="M 113.31354834802062 116.24036423190432 l 19.97245694105056 24.36314999200875 a52.503366705722655,52.503366705722655 0 0,0 -0.7019180836374913,0.5654155220042755 l -19.551288087057813 -24.70241380780643" fill="red" stroke="none" /><path d="M 113.03279911837588 116.46651593811092 l 19.55445149208611 24.706410666719393 a52.50846396111582,52.50846396111582 0 0,0 -0.711589841229188,0.5533365645524958 l -19.12745170622169 -25.038448282892684" fill="red" stroke="none" /><path d="M 112.45986205192187 116.90419585922612 l 22.429499088776932 30.42992322395227 a58.80294508089383,58.80294508089383 0 0,0 -0.817694124264651,0.5919474871948699 l -21.903823954138314 -30.810471482520214" fill="red" stroke="none" /><path d="M 111.5731344415666 117.5232005979908 l 17.365475935397743 26.293543882340398 a52.510477691641526,52.510477691641526 0 0,0 -0.7564368551794921,0.4903132305165394 l -16.91155344796124 -26.58777095456083" fill="red" stroke="none" /><path d="M 110.96478420261333 117.91015095944535 l 16.443939857663047 26.859939947435688 a52.493801485725584,52.493801485725584 0 0,0 -0.7725768820483022,0.46391021973320057 l -15.980430219057308 -27.138264167704815" fill="red" stroke="none" /><line stroke="#e1ed5e" stroke-width="0.3" x1="143.1302829299769" x2="145.66735839644613" y1="173.24464959558577" y2="177.55315839532614" /><path d="M 143.63769802327073 174.10635135553383 a86.0,86.0 0 0,1 -40.68552437913181,11.842963189579606" fill="none" id="id18" stroke="none" /><text fill="#e1ed5e" style="font-size:6.75px; font-family:Arial;" text-anchor="middle"><textPath startOffset="21.407464694133747" xlink:href="#id18">June</textPath></text><path d="M 107.74402155503746 119.51999308798841 l 6.971937670102831 17.573837335430145 a39.90628661498491,39.90628661498491 0 0,0 -0.6389333552781489,0.24715314767335006 l -6.669232052331153 -17.69093037124154" fill="red" stroke="none" /><path d="M 107.407793817531 119.65005319985036 l 6.67418228748007 17.704061458097357 a39.92031979958587,39.92031979958587 0 0,0 -0.6433080614103049,0.23623163089499263 l -6.369285074415639 -17.81602393800107" fill="red" stroke="none" /><path d="M 105.69591212413111 120.21278271476187 l 8.539217019899604 30.30266872380107 a52.48285182599211,52.48285182599211 0 0,0 -0.8692624760508835,0.23692135328620303 l -8.017773142914026 -30.44479057123141" fill="red" stroke="none" /><path d="M 105.3480935250658 120.30758222061773 l 8.026010619493572 30.476069611537184 a52.515197372561126,52.515197372561126 0 0,0 -0.8737396184379228,0.22210119427471686 l -7.501665707830252 -30.60935603764717" fill="red" stroke="none" /><path d="M 104.64783097203109 120.47920084513623 l 5.58060334514318 24.58916802912127 a46.214486273969236,46.214486273969236 0 0,0 -0.7751656648729066,0.16894374877866128 l -5.157675263651138 -24.68134323603365" fill="red" stroke="none" /><path d="M 102.51750503828377 120.84855314841334 l 3.023021806217375 25.034957164852898 a46.21681464988957,46.21681464988957 0 0,0 -0.7884678776869362,0.08834947028143356 l -2.5928180269296393 -25.083162395641303" fill="red" stroke="none" /><path d="M 101.08105385017728 120.97215588758144 l 1.6209215348543329 31.445444743504822 a52.487193932438146,52.487193932438146 0 0,0 -0.9002159596577458,0.03865914669857759 l -1.0808798145957574 -31.46863645862923" fill="red" stroke="none" /><line stroke="#e1ed5e" stroke-width="0.3" x1="101.45913802915013" x2="101.54496967792366" y1="184.9874750549273" y2="189.98673829345242" /><path d="M 101.47630435890484 185.9873277026323 a86.0,86.0 0 0,1 -42.54439059252881,-10.42667462771756" fill="none" id="id19" stroke="none" /><text fill="#e1ed5e" style="font-size:6.75px; font-family:Arial;" text-anchor="middle"><textPath startOffset="22.145653131862474" xlink:href="#id19">July</textPath></text><path d="M 100.36049292484886 120.99690560180557 l 0.540625419704018 31.48872036315595 a52.49336098217309,52.49336098217309 0 0,0 -0.9011183445528664,0.007735017211574114 l -3.856824372121041e-15 -31.493360982173087" fill="red" stroke="none" /><path d="M 98.19965949673042 120.92268563240118 l -2.7000386975309283 31.37854242637033 a52.4944937055938,52.4944937055938 0 0,0 -0.8971569862295324,-0.08496169936653891 l 3.238295247145476 -31.327568971498607" fill="red" stroke="none" /><path d="M 97.84075906011543 120.88869738790638 l -3.239019935377639 31.334579672760615 a52.50154176243373,52.50154176243373 0 0,0 -0.8956865487660145,-0.10036354601259101 l 3.7764423857444527 -31.274360366241055" fill="red" stroke="none" /><path d="M 97.48249496171623 120.84855314841334 l -3.7760350090417947 31.270986702749763 a52.498143592171616,52.498143592171616 0 0,0 -0.8937738401791929,-0.11571691758685615 l 4.3122866711117815 -31.20155818896251" fill="red" stroke="none" /><path d="M 97.12497278360702 120.80226474461374 l -4.316852818337924 31.234596555667174 a52.531496004003486,52.531496004003486 0 0,0 -0.8922221804522984,-0.13112593516828144 l 4.852400104397907 -31.15588954720001" fill="red" stroke="none" /><path d="M 92.93061703081489 119.77432235084164 l -2.788973255267694 7.801254567468527 a29.284802028114314,29.284802028114314 0 0,0 -0.4719187951416831,-0.17329511833245206 l 2.922481202063496 -7.7522286001273555" fill="red" stroke="none" /><line stroke="#e1ed5e" stroke-width="0.3" x1="58.13341422392154" x2="55.67067388415222" y1="173.97424548756322" y2="178.32567169271397" /><path d="M 57.64086615596768 174.84453072859336 a86.0,86.0 0 0,1 -31.369924170532247,-30.572349798747897" fill="none" id="id20" stroke="none" /><text fill="#e1ed5e" style="font-size:6.75px; font-family:Arial;" text-anchor="middle"><textPath startOffset="22.145653131862474" xlink:href="#id20">August</textPath></text><line stroke="#e1ed5e" stroke-width="0.3" x1="26.387840678322732" x2="22.057713659400548" y1="142.50000000000003" y2="145.00000000000006" /><path d="M 25.521815274538298 143.00000000000003 a86.0,86.0 0 0,1 -11.493303480769221,-40.785679425670985" fill="none" id="id21" stroke="none" /><text fill="#e1ed5e" style="font-size:6.75px; font-family:Arial;" text-anchor="middle"><textPath startOffset="21.40746469413373" xlink:href="#id21">September</textPath></text><path d="M 79.94057633289273 106.21446072829308 l -30.084717376967696 9.320322346425792 a52.49537471269878,52.49537471269878 0 0,0 -0.2592863546661676,-0.8630799463671104 l 30.240280051637495 -8.802504796467957" fill="red" stroke="none" /><path d="M 79.407916724674 104.11899336999214 l -30.884885310904682 6.1778420438409976 a52.496696223356274,52.496696223356274 0 0,0 -0.1691736226843719,-0.8851878798531305 l 30.98638522587121 -5.646751598954553" fill="red" stroke="none" /><line stroke="#e1ed5e" stroke-width="0.3" x1="15.003131293944662" x2="10.003315487706104" y1="100.72959589197737" y2="100.7725132973878" /><path d="M 14.003168132696942 100.73817937305945 a86.0,86.0 0 0,1 10.791469493833604,-42.45332614584628" fill="none" id="id22" stroke="none" /><text fill="#e1ed5e" style="font-size:6.75px; font-family:Arial;" text-anchor="middle"><textPath startOffset="22.145653131862435" xlink:href="#id22">October</textPath></text><path d="M 79.34024301695615 96.23510406497455 l -18.61340040495476 -3.39198159877341 a39.9199422251123,39.9199422251123 0 0,0 0.12864430963120665,-0.6731213879014545 l 18.55242980304139 3.711005551708179" fill="red" stroke="none" /><path d="M 79.407916724674 95.88100663000787 l -18.574088856976523 -3.7153379690923876 a39.94203033181604,39.94203033181604 0 0,0 0.14025794052336624,-0.6711850193503368 l 18.50757320562879 4.033639439728134" fill="red" stroke="none" /><path d="M 79.94057633289273 93.78553927170692 l -30.072755382206537 -9.316616489871329 a52.48285182599211,52.48285182599211 0 0,0 0.2739986846077496,-0.8582969770110466 l 29.90839198182153 9.831482500573767" fill="red" stroke="none" /><path d="M 80.9802524753101 91.09779779509293 l -18.372284220192636 -8.599156686063575 a41.28512566337737,41.28512566337737 0 0,0 0.3059438995692075,-0.6393050817334355 l 18.221961062663524 8.913274269862097" fill="red" stroke="none" /><path d="M 81.1358732173502 90.77261029715801 l -16.98562246567233 -8.308519108356542 a39.90880377814203,39.90880377814203 0 0,0 0.3063097360274482,-0.6128246608124653 l 16.840492816433137 8.598875625332777" fill="red" stroke="none" /><line stroke="#e1ed5e" stroke-width="0.3" x1="26.387840678322718" x2="22.05771365940052" y1="57.49999999999999" y2="54.99999999999999" /><path d="M 25.521815274538284 56.99999999999999 a86.0,86.0 0 0,1 29.574782752854787,-30.34633250058573" fill="none" id="id23" stroke="none" /><text fill="#e1ed5e" style="font-size:6.75px; font-family:Arial;" text-anchor="middle"><textPath startOffset="21.40746469413373" xlink:href="#id23">November</textPath></text><path d="M 85.08716467003674 85.21462403516908 l -17.458227235963317 -17.309012515181085 a45.58437740666269,45.58437740666269 0 0,0 0.5557128062833426,-0.5509631527186388 l 17.15852250955 17.6061556781284" fill="red" stroke="none" /><path d="M 85.34317274990677 84.96080404539775 l -15.600337802659993 -16.007320900278764 a43.35184247353233,43.35184247353233 0 0,0 0.5374132087758932,-0.5148296972287049 l 15.3232521080188 16.27276272781304" fill="red" stroke="none" /><path d="M 87.54013794807813 83.09580414077388 l -11.707735315232378 -15.883791490784594 a40.7323566340734,40.7323566340734 0 0,0 0.5664105537794915,-0.410037560599988 l 11.43334375107892 16.08242982275766" fill="red" stroke="none" /><path d="M 88.12776184653039 82.6780497279521 l -12.893998668671914 -18.812729399411015 a43.80732314681354,43.80732314681354 0 0,0 0.6239491886546004,-0.4198208600943693 l 12.569153191920323 19.031299933562494" fill="red" stroke="none" /><line stroke="#e1ed5e" stroke-width="0.3" x1="56.869717070023135" x2="54.33264160355391" y1="26.7553504044142" y2="22.446841604673864" /><path d="M 56.362301976729285 25.89364864446614 a86.0,86.0 0 0,1 42.16139366436587,-11.88097634709845" fill="none" id="id24" stroke="none" /><text fill="#e1ed5e" style="font-size:6.75px; font-family:Arial;" text-anchor="middle"><textPath startOffset="22.145653131862474" xlink:href="#id24">December</textPath></text><path d="M 91.26138138417902 80.90454125486306 l -10.695366972768516 -23.371307041921305 a46.70231249381946,46.70231249381946 0 0,0 0.7318621474935508,-0.32735262966316564 l 10.292591422419347 23.55146342249432" fill="red" stroke="none" /><path d="M 91.5904679813234 80.7573450057729 l -10.379708498040815 -23.750804340225162 a46.91985831967372,46.91985831967372 0 0,0 0.7408085379417446,-0.3162071136487122 l 9.970464884928639 23.925486103533277" fill="red" stroke="none" /><path d="M 92.25597844496254 80.48000691201159 l -11.009835906713727 -27.751978642045334 a50.85613513570206,50.85613513570206 0 0,0 0.8142496788095442,-0.3149692678388731 l 10.531813965410654 27.936887798022248" fill="red" stroke="none" /><path d="M 92.592206182469 80.34994680014964 l -10.50950460969469 -27.877709581474747 a50.79289141137937,50.79289141137937 0 0,0 0.8185174034507,-0.3005709281944903 l 10.029398054589862 28.054011358677958" fill="red" stroke="none" /><path d="M 93.61358852112211 79.99465700312896 l -8.846194864377393 -27.710579417617332 a50.088337443700944,50.088337443700944 0 0,0 0.8213518182202756,-0.25445689283744544 l 8.369202413285501 27.85835289826142" fill="red" stroke="none" /><path d="M 93.95794788825049 79.88797359093562 l -8.512654279676253 -28.335857506285233 a50.586924536047874,50.586924536047874 0 0,0 0.8338170205980627,-0.24271198251663623 l 8.024977246696567 28.47781318310439" fill="red" stroke="none" /><path d="M 94.6519064749342 79.69241777938228 l -7.5370506769994945 -28.619409067317374 a50.59523117446638,50.59523117446638 0 0,0 0.8417955219236614,-0.2139811298572145 l 7.044649861850455 28.744575429009853" fill="red" stroke="none" /><path d="M 95.00130118170881 79.60360301121753 l -7.173740735683745 -29.271310246618388 a51.13755397666829,51.13755397666829 0 0,0 0.8544058774668053,-0.20163746065557578 l 6.670202704477033 29.390143850920193" fill="red" stroke="none" /><path d="M 96.41257539226777 79.30868818359171 l -5.378884753414652 -31.023977874696673 a52.48681635796457,52.48681635796457 0 0,0 0.8890829224595228,-0.1462982565549846 l 4.845524327902056 31.111742129747327" fill="red" stroke="none" /></svg>