<?xml version="1.0" encoding="utf-8" ?>
<svg baseProfile="full" height="200mm" version="1.1" viewBox="0,0,200,200" width="200mm" xmlns="http://www.w3.org/2000/svg" xmlns:ev="http://www.w3.org/2001/xml-events" xmlns:xlink="http://www.w3.org/1999/xlink"><defs /><rect fill="#1a1a1a" height="200" width="200" x="0" y="0" /><rect fill="#1a1a1a" height="200" width="180" x="10" y="0" /><text alignment-baseline="middle" fill="#e1ed5e" style="dominant-baseline: central; font-size:9.0px; font-family:Arial;" text-anchor="middle" x="100.0" y="100.0">2026</text><line stroke="#e1ed5e" stroke-width="0.3" x1="100.0" x2="100.0" y1="15.0" y2="10.0" /><path d="M 100.0 14.0 a86.0,86.0 0 0,1 42.46469731375804,11.215312516191453" fill="none" id="id85" stroke="none" /><text fill="#e1ed5e" style="font-size:6.75px; font-family:Arial;" text-anchor="middle"><textPath startOffset="22.20632615414155" xlink:href="#id85">January</textPath></text><path d="M 103.95276090670814 79.375362276772 l 7.314336199148691 -38.1645988345314 a59.85918319052643,59.85918319052643 0 0,0 1.010290724980161,0.2026548151093381 l -7.970193333595978 38.03304006334485" fill="red" stroke="none" /><path d="M 104.307194497241 79.44645832069477 l 7.97094185510589 -38.03661194013418 a59.862832654630786,59.862832654630786 0 0,0 1.0067140430839352,0.22002869746110676 l -8.624498622343353 37.893769744577206" fill="red" stroke="none" /><path d="M 105.01212808612495 79.60689891045804 l 9.276296662182956 -37.742941185434354 a59.86617152604541,59.86617152604541 0 0,0 0.9985994168586361,0.2545652261007853 l -9.924604967726617 37.5776729631647" fill="red" stroke="none" /><path d="M 105.36241919743992 79.69619591428918 l 9.920599768955123 -37.56250802208371 a59.85048659521391,59.85048659521391 0 0,0 0.9938090955590042,0.2716455671723515 l -10.565706753737839 37.386175914085065" fill="red" stroke="none" /><line stroke="#e1ed5e" stroke-width="0.3" x1="143.23703022742887" x2="145.7803849466894" y1="26.81831364943548" y2="22.513508569990506" /><path d="M 143.74570117128098 25.957352633546492 a86.0,86.0 0 0,1 28.547481713284135,27.462654790039103" fill="none" id="id86" stroke="none" /><text fill="#e1ed5e" style="font-size:6.75px; font-family:Arial;" text-anchor="middle"><textPath startOffset="19.985693538727396" xlink:href="#id86">February</textPath></text><path d="M 111.2981086023043 82.29822771554956 l 16.74543085704306 -26.23658651820087 a52.1250369753202,52.1250369753202 0 0,0 0.7521716659874119,0.4892333745742854 l -17.194569548814755 25.944454219467055" fill="red" stroke="none" /><path d="M 115.68641384162765 86.03803664274999 l 33.129195160555746 -29.487211899215634 a65.3513160748972,65.3513160748972 0 0,0 0.7406735691295854,0.8467179278877982 l -33.631860593263184 28.912578415124887" fill="red" stroke="none" /><path d="M 116.60985879189232 87.15038557335679 l 17.84562023219663 -13.805616414990915 a43.562384760252016,43.562384760252016 0 0,0 0.453721030870549,0.5970436920442181 l -18.080617203291293 13.496387947065664" fill="red" stroke="none" /><line stroke="#e1ed5e" stroke-width="0.3" x1="172.23445277983987" x2="176.4835382374775" y1="55.19839476539836" y2="52.563006222186495" /><path d="M 173.08426987136738 54.67131705675599 a86.0,86.0 0 0,1 12.851231095245387,41.99856678651699" fill="none" id="id87" stroke="none" /><text fill="#e1ed5e" style="font-size:6.75px; font-family:Arial;" text-anchor="middle"><textPath startOffset="22.20632615414155" xlink:href="#id87">March</textPath></text><path d="M 118.56541770881063 90.18545643968196 l 34.344462203751604 -18.156080603263252 a59.84823479821335,59.84823479821335 0 0,0 0.47362914597531075,0.9149007568949586 l -34.651900782887026 17.562207124107946" fill="red" stroke="none" /><path d="M 118.73160827565052 90.50648371742162 l 34.70571636341255 -17.589481829112298 a59.908567428193926,59.908567428193926 0 0,0 0.45827197598309277,0.9238483394468919 l -35.00334835234905 16.98947390116646" fill="red" stroke="none" /><path d="M 120.37134235888165 94.90015583598534 l 23.493308474190496 -5.881409776772007 a45.21830968556188,45.21830968556188 0 0,0 0.18252521376114986,0.7566848487097599 l -23.591066488212466 5.476139696402842" fill="red" stroke="none" /><path d="M 120.45610955862082 95.25157060432595 l 22.74158599225188 -5.278951753773199 a44.34624306096491,44.34624306096491 0 0,0 0.16620467829856572,0.7450629833500881 l -22.829085057552486 4.886710600873147" fill="red" stroke="none" /><path d="M 120.6074358757038 95.95851677861258 l 15.315984636625222 -3.003735899085236 a36.60774854810242,36.60774854810242 0 0,0 0.11594942352223486,0.6194064568513727 l -15.365419784057316 2.7396513647713" fill="red" stroke="none" /><path d="M 120.67395015179393 96.31383870115 l 38.25508396551951 -6.820874044998058 a59.8584067088021,59.8584067088021 0 0,0 0.17213036921475963,1.0159231828470314 l -38.36682619625449 6.161365073835188" fill="red" stroke="none" /><path d="M 120.73433829027371 96.67025291283417 l 34.64745770582984 -5.564068153928304 a56.09138327137912,56.09138327137912 0 0,0 0.14488699863379814,0.9546242937308006 l -34.738100597902935 4.966844747805421" fill="red" stroke="none" /><path d="M 120.78858239683441 97.02765380044208 l 38.45405534557164 -5.498151008190168 a59.84512887131602,59.84512887131602 0 0,0 0.13702824919201304,1.0210196186366156 l -38.54299959382149 4.8354130474888875" fill="red" stroke="none" /><path d="M 120.83666639777658 97.38593545837742 l 34.77900318956031 -4.3632007776689905 a56.05162740709334,56.05162740709334 0 0,0 0.11186209134312584,0.9583660855999602 l -34.84895563390702 3.763890953744178" fill="red" stroke="none" /><path d="M 120.94382443527127 98.46500227214037 l 35.032670846969815 -2.56758598780035 a56.12663554166379,56.12663554166379 0 0,0 0.06232571284486508,0.9641511916966021 l -35.0716771508191 1.9641757318507127" fill="red" stroke="none" /><line stroke="#e1ed5e" stroke-width="0.3" x1="184.98032266829074" x2="189.97916517819016" y1="98.17113171792111" y2="98.06355123074" /><path d="M 185.9800911702706 98.14961562048488 a86.0,86.0 0 0,1 -9.607161424134198,41.387399972396054" fill="none" id="id88" stroke="none" /><text fill="#e1ed5e" style="font-size:6.75px; font-family:Arial;" text-anchor="middle"><textPath startOffset="21.466115282336823" xlink:href="#id88">April</textPath></text><path d="M 120.99513854157772 99.54816195383933 l 38.852593902662846 -0.8361497630743349 a59.861590283871855,59.861590283871855 0 0,0 0.013303505513193231,1.0303711629742747 l -38.861230415293754 0.16724234203959748" fill="red" stroke="none" /><path d="M 120.99980553446 99.90962569577887 l 38.8542421444886 -0.16721226747006454 a59.85460194835287,59.85460194835287 0 0,0 -0.00443409364222718,1.03032720429623 l -38.851363753556875 -0.5016244150298501" fill="red" stroke="none" /><path d="M 120.99824983174949 100.27111621757518 l 38.85555640541789 0.5016785479182231 a59.858794949664265,59.858794949664265 0 0,0 -0.02217037880330862,1.0301703861590432 l -38.84116396392958 -1.1704387498673812" fill="red" stroke="none" /><path d="M 120.9904718944345 100.63252640178507 l 40.8125326896564 1.2298439301294897 a61.831058529466866,61.831058529466866 0 0,0 -0.04121442585547413,1.0635611991453398 l -40.785316130949724 -1.9321823762888357" fill="red" stroke="none" /><path d="M 120.95626037817324 101.35467743843564 l 38.78738916340445 2.5073367121461287 a59.86834567487354,59.86834567487354 0 0,0 -0.07532989141919877,1.027816518537586 l -38.73848271332091 -3.174626367180485" fill="red" stroke="none" /><path d="M 120.92983693683757 101.71520430193887 l 38.72021897014745 3.173129649792998 a59.850020706179315,59.850020706179315 0 0,0 -0.09298243277926194,1.0260533976179989 l -38.65986194109111 -3.839164435959568" fill="red" stroke="none" /><path d="M 120.89721153311464 102.0752229133903 l 38.66573431735881 3.8397475994006554 a59.85592196728424,59.85592196728424 0 0,0 -0.110641387252505,1.0244018339056604 l -38.59391062860525 -4.504745755191107" fill="red" stroke="none" /><path d="M 120.8583938346157 102.4346265915055 l 38.59830672961408 4.505258875448587 a59.860347913112925,59.860347913112925 0 0,0 -0.12826787200231743,1.0224211437434856 l -38.51503734836492 -5.168997773479467" fill="red" stroke="none" /><path d="M 120.81339534386255 102.79330883721812 l 38.496798255974085 5.166549954797487 a59.841945296246266,59.841945296246266 0 0,0 -0.14580332952833666,1.0197481471315415 l -38.40216087542915 -5.828443573909438" fill="red" stroke="none" /><path d="M 120.70491114924044 103.5080841355445 l 22.217627853093603 3.764387455665491 a43.53427612183121,43.53427612183121 0 0,0 -0.13154308095801415,0.7377634558172531 l -22.1495383297964 -4.146269662215962" fill="red" stroke="none" /><path d="M 120.64145759157962 103.86396538481128 l 38.186564252174946 7.148311197532259 a59.84986540983444,59.84986540983444 0 0,0 -0.19827424514093636,1.010996104331895 l -38.05786007405835 -7.804571028932098" fill="red" stroke="none" /><path d="M 120.5718875245553 104.21870165774334 l 38.053980748203166 7.8037754909243855 a59.84590535304036,59.84590535304036 0 0,0 -0.21563323604494267,1.0073666908013181 l -37.91401347343378 -8.457656001141872" fill="red" stroke="none" /><path d="M 120.49622156327973 104.57218783832717 l 37.94682856701918 8.464976217277393 a59.87952701170392,59.87952701170392 0 0,0 -0.2330723166801359,1.0040694401887702 l -37.79549568440849 -9.116914314814728" fill="red" stroke="none" /><path d="M 120.41448212921028 104.9243191809786 l 37.78356933859404 9.114037478014199 a59.86725860045948,59.86725860045948 0 0,0 -0.25026990234724056,0.999703853465617 l -37.62108812195174 -9.76306917087721" fill="red" stroke="none" /><path d="M 120.32669344350535 105.2749913415812 l 45.12875582264834 11.71138812529609 a67.6236121929816,67.6236121929816 0 0,0 -0.3020905306924406,1.124191245142401 l -44.92047721561411 -12.48647030361404" fill="red" stroke="none" /><path d="M 120.23288151984713 105.62410040840565 l 37.436910511421544 10.406275719560623 a59.8563102081464,59.8563102081464 0 0,0 -0.2844809756001306,0.9903155964618687 l -37.252236898935315 -11.049148791527074" fill="red" stroke="none" /><path d="M 120.02730092923936 106.31721596034902 l 37.05889429545394 11.689495221711855 a59.858794949664265,59.858794949664265 0 0,0 -0.3184138686050971,0.9799771214141986 l -36.852188175832595 -12.325671243103848" fill="red" stroke="none" /><path d="M 119.9155931802556 106.66101706037122 l 36.88186450886059 12.335596860623726 a59.89008716315483,59.89008716315483 0 0,0 -0.33541063742838667,0.974860314606067 l -36.66406304048897 -12.968629878319094" fill="red" stroke="none" /><path d="M 119.54520255179757 107.68017299344265 l 36.18632302426724 14.219203924157293 a59.87975995622122,59.87975995622122 0 0,0 -0.3852190013800173,0.956081969844836 l -35.93620140862983 -14.839985261844943" fill="red" stroke="none" /><path d="M 119.12269723197855 108.67885076344098 l 21.235439546746715 9.637720478787235 a44.32015327502736,44.32015327502736 0 0,0 -0.3212691578099259,0.691985184476566 l -21.066395772096957 -10.001825730542633" fill="red" stroke="none" /><path d="M 118.81262510543309 109.33194174019688 l 34.82959922142242 17.277109863569887 a59.87929406718662,59.87929406718662 0 0,0 -0.4659787566056574,0.9194202941990557 l -34.52704179503049 -17.87408436947164" fill="red" stroke="none" /><line stroke="#e1ed5e" stroke-width="0.3" x1="174.80103733775053" x2="179.2010983576182" y1="140.37084112569926" y2="142.7455964860345" /><path d="M 175.68104954172406 140.8457921977663 a86.0,86.0 0 0,1 -30.038265399797805,32.042727171017184" fill="none" id="id89" stroke="none" /><text fill="#e1ed5e" style="font-size:6.75px; font-family:Arial;" text-anchor="middle"><textPath startOffset="22.206326154141568" xlink:href="#id89">May</textPath></text><path d="M 118.12598468904814 110.60418214915192 l 54.37795406714442 31.812546447455787 a84.0,84.0 0 0,0 -0.7408764972070911,1.2417516244555835 l -53.8222966942391 -32.74386016579747" fill="red" stroke="none" /><line stroke="#e1ed5e" stroke-width="0.3" x1="143.8653032363475" x2="146.44561519142675" y1="172.8068346515853" y2="177.08958963109032" /><path d="M 144.38136562736335 173.6633856474863 a86.0,86.0 0 0,1 -40.68145358897372,12.25698825130547" fill="none" id="id90" stroke="none" /><text fill="#e1ed5e" style="font-size:6.75px; font-family:Arial;" text-anchor="middle"><textPath startOffset="21.466115282336833" xlink:href="#id90">June</textPath></text><line stroke="#e1ed5e" stroke-width="0.3" x1="102.19456741930631" x2="102.32365962044197" y1="184.97166512339345" y2="189.96999836594603" /><path d="M 102.22038585953345 185.97133177190398 a86.0,86.0 0 0,1 -42.740103519485714,-10.115201625700543" fill="none" id="id91" stroke="none" /><text fill="#e1ed5e" style="font-size:6.75px; font-family:Arial;" text-anchor="middle"><textPath startOffset="22.20632615414155" xlink:href="#id91">July</textPath></text><line stroke="#e1ed5e" stroke-width="0.3" x1="58.666819895761336" x2="56.23545636021788" y1="174.27360380694188" y2="178.64263932499728" /><path d="M 58.180547188652646 175.14741091055294 a86.0,86.0 0 0,1 -31.652253787137756,-30.449443065178592" fill="none" id="id92" stroke="none" /><text fill="#e1ed5e" style="font-size:6.75px; font-family:Arial;" text-anchor="middle"><textPath startOffset="22.20632615414155" xlink:href="#id92">August</textPath></text><line stroke="#e1ed5e" stroke-width="0.3" x1="26.63291911575756" x2="22.317208475507996" y1="142.92168965132927" y2="145.44649492493687" /><path d="M 25.769776987707644 143.4266507060508 a86.0,86.0 0 0,1 -11.730757126820373,-40.83630448921669" fill="none" id="id93" stroke="none" /><text fill="#e1ed5e" style="font-size:6.75px; font-family:Arial;" text-anchor="middle"><textPath startOffset="21.46611528233685" xlink:href="#id93">September</textPath></text><line stroke="#e1ed5e" stroke-width="0.3" x1="15.007084014347285" x2="10.007500721073583" y1="101.09737516637583" y2="101.16192664675087" /><path d="M 14.007167355692545 101.11028546245083 a86.0,86.0 0 0,1 10.666146001902534,-42.60595125391555" fill="none" id="id94" stroke="none" /><text fill="#e1ed5e" style="font-size:6.75px; font-family:Arial;" text-anchor="middle"><textPath startOffset="22.20632615414155" xlink:href="#id94">October</textPath></text><line stroke="#e1ed5e" stroke-width="0.3" x1="26.266209847984243" x2="21.928928074336255" y1="57.711370442889674" y2="55.22380399835377" /><path d="M 25.398753493254645 57.213857153982495 a86.0,86.0 0 0,1 29.58750427330803,-30.492523968695096" fill="none" id="id95" stroke="none" /><text fill="#e1ed5e" style="font-size:6.75px; font-family:Arial;" text-anchor="middle"><textPath startOffset="21.46611528233685" xlink:href="#id95">November</textPath></text><line stroke="#e1ed5e" stroke-width="0.3" x1="56.762969772571076" x2="54.21961505331055" y1="26.818313649435495" y2="22.513508569990535" /><path d="M 56.25429882871897 25.957352633546506 a86.0,86.0 0 0,1 42.265352541879196,-11.944610805530505" fill="none" id="id96" stroke="none" /><text fill="#e1ed5e" style="font-size:6.75px; font-family:Arial;" text-anchor="middle"><textPath startOffset="22.20632615414155" xlink:href="#id96">December</textPath></text></svg>